<svg xmlns="http://www.w3.org/2000/svg" viewBox="0 0 637.49 354.94"><title>Asset 12</title><g id="Layer_2" data-name="Layer 2"><g id="Ñëîé_2" data-name="Ñëîé 2"><path d="M632.08,277.73c-.12.72-.21,1.42-.31,2.12-.82,5.71-66,0-101.08-12.23-21.41-7.46-35.22-14.93-47.74-17.57,3.34-4,8.07-19.39,4.81-25.91s-5.17-12.76-3.54-17.12-2.44-7.33-6.8-12S466,176,466,176c6-1.8,11-5,14.11-6.31,0,0,92.93-40.6,120.64-40.6a108.27,108.27,0,0,1,19.08,1.37c-24.1,3.12-69.21,11.43-112,32.59-62.36,30.85,4.89-1.35,46.87-10.72s75.82-11.25,31,.08S498.08,178,493.19,181.62s20.38-1.68,64-10.82,34.64-.18-15.08,9.6-63.58,15.49-42,14.67,80.7-12.63,84.78-8.56-31.8,10.19-64,12.23-44.42,6.52-13.85,8.15,71.73-1.63,75.4,2.86-19.56,10.19-57.88,5.29-29.34-3.18-6.52,1.88,79.07,12,87.22,13.61,10.19,11-28.12,6.52-60.32-8.56-71.33-7.33,39.95,13.86,77.85,18.34,40,2.85,41.17,9-35.87,4.07-80.3-4.9-54.2-13.85-50.54-6.92C497,250.88,569.46,275.32,632.08,277.73Z" style="fill:#c3b26a"/><path d="M483,250.05a38.67,38.67,0,0,0-19.86.63,0,0,0,0,0,0,0c-6-4.23-9-11.86-13.63-13.75-2.71-1.12-4.11-3.45-4.7-8a87,87,0,0,1-.2-13.44,19.64,19.64,0,0,0,0-2.44c-.95-12.28-12.85-16.89-19-21.74-6.52-5.16-9.78-1.09-11.71-5.7s-4.87,1.63-5.95-6.52-15.49-23.92-34-29.64-53.25-23.9-57.88-25.53-15.21-4.62-20.35-9-9.81-3.8-23.39-4.89-16-2.71-18.22-11.42,8.43-20.91,4.36-17.93-11.14,10.87-10.6,6.8,30.52-48.72,31.47-50.12a0,0,0,0,0,0,0c17-20.18,29.45-33.33,35-32.59,6.11.81,9.78-8.15,21.19-3.26S343.2,6,342,12.07c-.16.81-.32,1.56-.49,2.26-16.25,13.35-49,53.84-45.56,56,3.79,2.45,5.42-2.17,22.84-13s20.36-12.23,20.36-10.88S319.28,64.37,310.59,71.7s-4.62,12,9.5,1.91,28.54-13,20.38-7.06-25,17.66-25,22,3.8,1.08,15.77-6.26,23.64-9.5,14.93-3.52-27.72,16.56-18.47,20.38,17.12-8.71,26.08-12.51-.81,3.8-10.59,12.13-10.6,10.42,1.17,6.35,23.56-10,13.78-3.26-19.85,16.58-9.25,13.32,23.37-9.25,18.47-6.25-22.27,16-8.69,14.67,25.81-10.06,19.57-5.16-18.21,10-13,11.13,14.13-2.71,15.89-2.17-11,5.17-10.47,6.8,10.47,5.43,10.47,5.43,18.6,5.41,32.72,12a64.92,64.92,0,0,1,11.3,6.39c9.82,7.45,21.62,16.32,30.23,18.62a14,14,0,0,0,4.82.54A30.24,30.24,0,0,0,466,176s7,14.51,11.38,19.12,8.43,7.62,6.8,12,.28,10.6,3.54,17.12S486.29,246.07,483,250.05Z" style="fill:#2b2b2b"/><path d="M388.85,107.44c-.41,9-2,26.49-7.75,32.2,0,0-9.91-3.8-10.47-5.43s12.23-6.26,10.47-6.8-10.73,3.26-15.89,2.17,6.79-6.24,13-11.13-6,3.79-19.57,5.16,3.8-11.69,8.69-14.67-7.87,3-18.47,6.25-.54-6.53,9.25-13.32-2-.82-13.78,3.26-11,2-1.17-6.35,19.56-15.92,10.59-12.13S337,103,327.71,99.16s9.78-14.41,18.47-20.38-3-3.82-14.93,3.52-15.77,10.6-15.77,6.26,16.84-16,25-22-6.24-3-20.38,7.06S301.9,79,310.59,71.7s28.53-23.9,28.53-25.27-3,0-20.36,10.88-19.05,15.49-22.84,13c-3.4-2.18,29.31-42.67,45.56-56-1,4.52-1.43,7.09,4.57,14.85,6.93,9,10.6,8.56,9,12.64s-9,15.08-.41,16.3,6.93-4.89,8.56,1.23-1.63,13,9,22.41S389.25,98.47,388.85,107.44Z" style="fill:#c3b26a"/><path d="M463.08,250.67c-6-4.23-9-11.86-13.63-13.75-2.71-1.12-4.11-3.45-4.7-8-29.28,9.78-86.07-2.84-117.66-15.69l-.56-.23a237,237,0,0,0-57.43-15c-19-2.51-37.63-.67-56.71-.75l-6.44,0c-12-.13-24-.36-36.08-.82-6.36-.24-12.73-.54-19.09-1-3.67-.28-12.18,1-14.9-2-3.18-3.57,4.66-4.87,6.72-5.4,6.26-1.54,12.7-3.52,18.76-5.18,18.95-5.2,38.2-11.12,58-11.32,39.39-.37,78.06,12.53,114.86,25.21C390.88,216.2,444.51,213,444.51,213c-.95-12.28-12.85-16.89-19-21.74-6.52-5.16-9.78-1.09-11.71-5.7s-4.87,1.63-5.95-6.52-15.49-23.92-34-29.64-53.25-23.9-57.88-25.53-15.21-4.62-20.35-9-9.81-3.8-23.39-4.89-16-2.71-18.22-11.42,8.43-20.91,4.36-17.93-11.14,10.87-10.6,6.8,30.52-48.72,31.47-50.12c-1.88,2.22-3.82,4.53-5.79,6.91-20,24.05-32.61,42.8-45.24,44.43s-76.63,22-84,30.16c-1.51,1.7-4.45,3.61-8.28,5.69.65,4.41,1.27,11.24-.68,13.75-3,3.8-2.17,16-4.62,19s-5.17,18-5.17,22.46a34.42,34.42,0,0,0,.61,6.05,17.49,17.49,0,0,1,.53,2.25,2.32,2.32,0,0,1,.07.52l0,.22a14.54,14.54,0,0,1,.18,2.39,18.4,18.4,0,0,1-6.15,13.57h0c-.1.35-1.32,4.49-2.62,5.79s1.45,3.26,2.62,3.54,7.29,1.07,6.15,3.26,1.29,10.86-1.44,14.4-6.24,9.5-4.35,15.48,2.23,14.68-5.54,23.92c10.76,2.32,28.82,5.45,49.1,8.53,6.38,1,13,1.92,19.62,2.85,11.12,1.57,22.4,3,33.14,4.29,10.18,1.19,19.84,2.2,28.4,2.9,3.46.29,6.74.54,9.78.72,11.45.68,19.83,1,26.91.89a154,154,0,0,0,18.4-1.22h.12c12.14-1.48,25.82-4.27,54.3-8.05,14-1.86,26.07-4.08,36.6-6.47,32.33-7.41,50.33-16.7,66.93-23.47,1.4-.57,2.79-1,4.14-1.45A0,0,0,0,0,463.08,250.67ZM205.2,268c-32.78,6.93-67.31,3.67-74.1,0-3.14-1.69.69-5.27,4.89-8.35a75.29,75.29,0,0,0,15.54-14.43,61,61,0,0,0,10.7-20c5.7-19.56,16.71-34.64,35.05-14.67S238,261.1,205.2,268Z" style="fill:#d2c17e"/><path d="M135.33,138.29c-3,3.8-2.17,16-4.62,19s-5.17,18-5.17,22.46a34.42,34.42,0,0,0,.61,6.05c-2.6-8.07-10.83-14-20.58-14A23.46,23.46,0,0,0,98.2,173c2.3-1.06,5.53-2.95,4.32-4.84-1.84-2.85-3.68-5.09-2-6.93a64.61,64.61,0,0,0,5.92-6.53c4.28-5.29,4.87-11,9.26-13.24,3.73-1.91,9.52-6.17,11.07-12.3,3.44-1.61,6.58-3.16,9.29-4.63C136.66,129,137.28,135.78,135.33,138.29Z" style="fill:#2b2b2b"/><path d="M127,217.36c-1.16,2.17,1.29,10.86-1.44,14.4s-6.24,9.5-4.35,15.48,2.23,14.68-5.54,23.92a75.81,75.81,0,0,1-9.39-2.44,26.45,26.45,0,0,0-4.08-1.21h0a116,116,0,0,0-6.5-9.95c-3.26-4.07-7.34-7.87-4.08-10.32s4.34-4.71,1.36-9.29-6.39-11.62-8.77-13,1.3-9.23,0-11.68-4-10.69-3.18-10.64,3.52,2.21,8.69,6.83c5,4.48,10.74.86,11.12.6h0a23.08,23.08,0,0,0,20-5.3c-.1.35-1.32,4.49-2.62,5.79s1.45,3.26,2.62,3.54S128.12,215.17,127,217.36Z" style="fill:#2b2b2b"/><path d="M126.72,129.17c-1.55,6.13-7.34,10.39-11.07,12.3-4.39,2.25-5,7.95-9.26,13.24a64.61,64.61,0,0,1-5.92,6.53c-1.63,1.84.21,4.08,2,6.93,1.21,1.89-2,3.78-4.32,4.84l-.1,0a16.07,16.07,0,0,0-2,.8h0A20,20,0,0,0,85.37,184.8a5.36,5.36,0,0,0-.26.77,1.05,1.05,0,0,0-.06.24v0a16.11,16.11,0,0,0-.88,5.36c0,7.57,4.79,14.12,11.78,17.3a21.86,21.86,0,0,0,4.85,1.58c-.38.26-6.12,3.88-11.12-.6-5.17-4.62-7.88-6.78-8.69-6.83s1.89,8.2,3.18,10.64-2.37,10.32,0,11.68,5.78,8.43,8.77,13,1.9,6.85-1.36,9.29.82,6.25,4.08,10.32a116,116,0,0,1,6.5,9.95c-11.34-2.41-28.74,0-43.18-5.32-16.31-6-22.83-7.61-26.09-1.09s-.55,11.95,2.71,16.84-3.39,3.54-9.51-.53-8.15-2-13.86,3.66-16.3,6.93-10.59.82,16.71-15.49,15.08-22.83-1.23-26,11.82-48.86,35.05-46.92,51.76-58.33C91.09,144.5,111.59,136.27,126.72,129.17Z" style="fill:#d2c17e"/><path d="M126.68,188.06a17.49,17.49,0,0,0-.53-2.25c.24,1.34.49,2.35.6,2.77A2.32,2.32,0,0,0,126.68,188.06ZM96.12,173.85a20.51,20.51,0,0,0,2-.8A16.07,16.07,0,0,0,96.12,173.85Z" style="fill:#d2c17e"/><path d="M444.75,228.89c-29.28,9.78-86.07-2.84-117.66-15.69l-.56-.23a237,237,0,0,0-57.43-15c-19-2.51-37.63-.67-56.71-.75l-6.44,0c-12-.13-24-.36-36.08-.82-6.36-.24-12.73-.54-19.09-1-3.67-.28-12.18,1-14.9-2-3.18-3.57,4.66-4.87,6.72-5.4,6.26-1.54,12.7-3.52,18.76-5.18,18.95-5.2,38.2-11.12,58-11.32,39.39-.37,78.06,12.53,114.86,25.21C390.88,216.2,444.51,213,444.51,213a19.64,19.64,0,0,1,0,2.44A87,87,0,0,0,444.75,228.89Z" style="fill:#c3b26a"/><path d="M455.35,176.6c-8.61-2.3-20.41-11.17-30.23-18.62a64.92,64.92,0,0,0-11.3-6.39s24.47-3.52,33.72-1.63,8.69,4.35,8.69,6.26,3,3,1.91,5.71S462.33,169,455.35,176.6Z" style="fill:#c3b26a"/><path d="M477.44,285.56c-3.51.81-1.37,6.11-5.45,8.15-1.94,1-3.05,2.87-4.15,4.58A133.92,133.92,0,0,1,447,293.43c-22.56-7.06-36-22.81-24.44-17.93s19.83,10.33,32.87,13.32,13.32-.54-6-5.71-21.75-14.67-15.77-12.23,16,4.62,32.36,7.06-8.72-2.7-18.78-6.78-9.23-7.34,2.3-4.63,16.19.55,6.13-2.44-6.05-8,0-7.34,9.78-1.89,7.34-1.89-4.08-2.73-4.08-2.73c1.4-.57,2.79-1,4.14-1.45,3.1,2.2,19.09,14.11,19.5,19.39S481,284.74,477.44,285.56Z" style="fill:#c3b26a"/><path d="M466,277.94c-16.33-2.44-26.38-4.61-32.36-7.06s-3.54,7.06,15.77,12.23,19,8.69,6,5.71-21.27-8.43-32.87-13.32,1.88,10.87,24.44,17.93a133.92,133.92,0,0,0,20.86,4.86c-1.23,1.89-2.45,3.57-4.76,3.57-4.44,0-.87,4.08-21.66,1.63S392,275.6,392,275.6c32.33-7.41,50.33-16.7,66.93-23.47,0,0,1.63,2.73,4.08,2.73s-1.29,2.59-7.34,1.89-10.06,4.35,0,7.34,5.41,5.16-6.13,2.44-12.34.55-2.3,4.63S482.36,280.39,466,277.94Z" style="fill:#2b2b2b"/><path d="M342.1,335c-5.43,4.63-10,7.61-14.39,8.15s-5.17,4.07-11.14,3c-5.74-1.05-6.47,3.89-21.11-1.44,3.16-1.32,4.3-3,3.72-3.45-1.1-.82-3.54-6,2.72-3s13.86-1.08,8.69-3.56-6.8-8.39,3.54-3.78,18.75,5.44,7.87,0-39.4-39.59-39.4-39.59a154,154,0,0,0,18.4-1.22h.12c18.94-1.14,42.37,20.19,47,25.6S347.55,330.39,342.1,335Z" style="fill:#c3b26a"/><path d="M314.13,330.93c-10.34-4.61-8.71,1.3-3.54,3.78s-2.45,6.56-8.69,3.56-3.82,2.18-2.72,3c.58.44-.56,2.13-3.72,3.45-.64-.23-1.31-.47-2-.75-16.58-6.52-47.56-54.24-47.56-54.24,3.46.29,6.74.54,9.78.72,11.45.68,19.83,1,26.91.89,0,0,28.53,34.16,39.4,39.59S324.45,335.56,314.13,330.93Z" style="fill:#2b2b2b"/><path d="M242.93,347.25c-6.11,3,4.07,13.71-15.9,3.11s-62.28-70.67-62.28-70.67c6.38,1,13,1.92,19.62,2.85,0,0,21.6,25.84,30.57,31.55s-.82-5.77-2.71-9.82,2.56-4,6.44,1.13,5.51,5.7,3.88,1.07c-1.27-3.62,8,.23,14.62,5.87.79,5.55.17,7.21-5.25,2.16-6.11-5.71-5.29,2,2,10.19s9,7.33,9,11.82S249,344.25,242.93,347.25Z" style="fill:#c3b26a"/><path d="M222.55,306.47c1.63,4.63,0,4.08-3.88-1.07s-8.35-5.17-6.44-1.13,11.67,15.52,2.71,9.82-30.57-31.55-30.57-31.55c11.12,1.57,22.4,3,33.14,4.29,0,0,4.22,8.51,8.71,12.42s9.37,3.43,10.6,10.76c.14.83.26,1.62.35,2.33C230.52,306.7,221.28,302.85,222.55,306.47Z" style="fill:#2b2b2b"/><path d="M113.51,191.19c0,4-3.55,7.21-7.94,7.21s-7.94-3.23-7.94-7.21,3.56-7.19,7.94-7.19S113.51,187.23,113.51,191.19Z" style="fill:#2b2b2b"/><path d="M126.68,188.06a17.49,17.49,0,0,0-.53-2.25c.24,1.34.49,2.35.6,2.77A2.32,2.32,0,0,0,126.68,188.06ZM96.12,173.85a20.51,20.51,0,0,0,2-.8A16.07,16.07,0,0,0,96.12,173.85Z" style="fill:#d2c17e"/><path d="M126.8,188.8l0-.22c-.11-.42-.36-1.43-.6-2.77-2.6-8.07-10.83-14-20.58-14A23.46,23.46,0,0,0,98.2,173l-.1,0a20.51,20.51,0,0,1-2,.8h0A20,20,0,0,0,85.37,184.8a5.36,5.36,0,0,0-.26.77,1.05,1.05,0,0,0-.06.24v0c.35,2.26,1.81,4.94,2.8,5.36,1.42.62,1.83,2.87,2,6.13s2.66,4.08,4.08,5.32c1,.89,1.71,4.12,2,5.85a21.86,21.86,0,0,0,4.85,1.58h0a23.08,23.08,0,0,0,20-5.3h0A18.4,18.4,0,0,0,127,191.19,14.54,14.54,0,0,0,126.8,188.8Zm-21.23,13.84c-7,0-12.63-5.12-12.63-11.45s5.65-11.43,12.63-11.43,12.64,5.12,12.64,11.43S112.55,202.64,105.57,202.64Z" style="fill:#414142"/><path d="M105.57,179.76c-7,0-12.63,5.12-12.63,11.43s5.65,11.45,12.63,11.45,12.64-5.12,12.64-11.45S112.55,179.76,105.57,179.76Zm0,18.64c-4.38,0-7.94-3.23-7.94-7.21s3.56-7.19,7.94-7.19,7.94,3.23,7.94,7.19S110,198.4,105.57,198.4Z" style="fill:#e9ddab"/><path d="M96,208.49c-7-3.18-11.78-9.73-11.78-17.3a16.11,16.11,0,0,1,.88-5.36c.35,2.26,1.81,4.94,2.8,5.36,1.42.62,1.83,2.87,2,6.13s2.66,4.08,4.08,5.32C95,203.53,95.66,206.76,96,208.49Z" style="fill:#e9ddab"/><path d="M636.66,260.29a72.05,72.05,0,0,0-4.58,17.44C569.46,275.32,497,250.88,494,245.21c-3.66-6.93,6.12-2,50.54,6.92s81.52,11,80.3,4.9-3.26-4.49-41.17-9-88.85-17.12-77.85-18.34,33,2.85,71.33,7.33,36.28-4.89,28.12-6.52-64.39-8.56-87.22-13.61-31.79-6.77,6.52-1.88,61.55-.81,57.88-5.29-44.83-1.23-75.4-2.86-18.35-6.11,13.85-8.15,68.07-8.15,64-12.23-63.18,7.75-84.78,8.56-7.75-4.89,42-14.67,58.69-18.75,15.08-9.6-68.88,14.49-64,10.82,47.69-17.93,92.52-29.26,11-9.46-31-.08S445.5,193.85,507.86,163c42.8-21.16,87.91-29.47,112-32.59,11.67,2.15,14.44,6.7,12.71,12.49-2.44,8.15,9.92,9.78.48,12.23s-3.74,15.14-11.07,14.51-4.08,8.31-9,9.94-13,8.16-18.75,16.31,1.63,14.67,12.23,22,16.3,9,16.3,13.86,9.78,6.52,9.78,12.22S639.92,252.13,636.66,260.29Z" style="fill:#d2c17e"/><path d="M205.2,268c-32.78,6.93-67.31,3.67-74.1,0-3.14-1.69.69-5.27,4.89-8.35a75.29,75.29,0,0,0,15.54-14.43,61,61,0,0,0,10.7-20c5.7-19.56,16.71-34.64,35.05-14.67S238,261.1,205.2,268Z" style="fill:#c3b26a"/><path d="M234,115.19s-54.89-3.8-75.54,20.11-27.18,36.93,33.15,27.7,90.21,1.68,122.27,8.46,46-11.09,13.24-28.25S255.16,117.91,234,115.19Z" style="fill:#dfcf8b"/><path d="M108.7,187.2a5.3,5.3,0,1,1,5.3,5.3A5.3,5.3,0,0,1,108.7,187.2Z" style="fill:#e8e1db"/></g></g></svg>
