<svg xmlns="http://www.w3.org/2000/svg" viewBox="0 0 344.59 85.08"><title>african-pike</title><g id="Layer_2" data-name="Layer 2"><g id="Ñëîé_2" data-name="Ñëîé 2"><path d="M104.16,40.57a38.76,38.76,0,0,1,3.29-5.35c-3.9-1.15-11.43-2.91-18.58-2.13,0,0-2.59,1-7.26-3.79-5.08.84-9.73,1.74-13.83,2.7l-1.44.32c1.28.62,3.11,1.63,2.84,2.29-.4,1-3,.85-4.62,1.48s.31,2-1.41,3.16-3.21-.73-3.61-1.83c-.31-.86-.2-2.47-.91-3.45-6.44,1.31-14.43,2.81-17.47,2.75-2,0-5.75.23-10,.48.18,0,3,.66,2.89,1.83s2.41,3,.5,3.28-4,1.49-5.92.71-4.12-2.18-3.22-2.79S27,37.42,27,37.42c-1.79.08-3.61.15-5.39.18.76,1.95-1.22,3.45-2.9,3.59A9.72,9.72,0,0,1,12.53,39a2.28,2.28,0,0,1-.91-2c-.47-.09-.9-.19-1.3-.3-7.37-2-9.25.36-9.91,2-.42,1-.94,2.46.83,3.62,0,0,1.44-2.51,6.26-1.74S13.78,44.33,18,44.69h.08l4.27.32s28.57-.76,38.21,2.66c6.91,2.45,15.78,4.68,22.61,4.8a31.8,31.8,0,0,0,3.79-2.2,5.52,5.52,0,0,1-1.22.07c-2.54-.16-2.34-1.53-1.47-3.07s4-.71,4.22-.67a3.21,3.21,0,0,1,1.9.67c5.71-6.7-1.31-12.66.24-12.66,1.25,0,3.34,1,4.66,1.72a0,0,0,0,0,0,0,4.28,4.28,0,0,1,.53.26l.28.17h0l0,0a.91.91,0,0,1,.16.11l0,0a.05.05,0,0,0,0,0l0,0,.06,0h0c2.2,1.52,5.13,5.09,5.66,11.65a4.5,4.5,0,0,0,2.36,3.18c-.53-1.89-.52-3.42.89-4A5.38,5.38,0,0,1,104.16,40.57ZM48.58,44.45c-1.1.61-6.12-1.43-6.12-1.43-1.23-.46-2.91-.38-3.71-1.83s-.11-1.56,1.1-2.76,4.52-.31,6.73,0,2.11,1.8,1.6,3.31S49.69,43.85,48.58,44.45ZM57.83,43c-2.41.38-4.82-.67-4.82-1.64s-3.81-2.46-2.31-4,5.42,0,5.42,0c2.51.61,2.91,2.21,5.13,4S60.24,42.64,57.83,43Zm10.55,3a4.32,4.32,0,1,1,4.32-4.32A4.32,4.32,0,0,1,68.38,46.06Zm12.39,2.28c-.67,1.07-3.89,1.74-6,.44s-.74-2.25.6-3.66,3.44.14,4.16.54C81.12,46.53,81.44,47.27,80.77,48.34ZM82.24,39c-1.61.74-3.82-.67-5.82,0s-2.28-1.27-3-2.08S71,33.74,71.79,32.44c.71-1.15,6.26-1.4,7.7-1.44h.34c.93,0,2.27,1.21,3.22,2.1s2.07,1.58,2.34,2.72S83.85,38.29,82.24,39Z" style="fill:#d6c5a1"/><path d="M18,44.69c-4.46-.33-8.13-.57-10.34-.78-3.36-.3-5.31-.9-6.4-1.6,0,0,1.44-2.51,6.26-1.74S13.78,44.33,18,44.69Z" style="fill:#c6b495"/><path d="M18.75,41.19A9.72,9.72,0,0,1,12.53,39a2.28,2.28,0,0,1-.91-2,53.6,53.6,0,0,0,10,.58C22.41,39.55,20.43,41.05,18.75,41.19Z" style="fill:#a2876b"/><path d="M34.52,42.31c-1.9.23-4,1.49-5.92.71s-4.12-2.18-3.22-2.79S27,37.42,27,37.42c1.39-.06,2.76-.14,4.08-.22h0c.18,0,3,.66,2.89,1.83S36.43,42.07,34.52,42.31Z" style="fill:#a2876b"/><path d="M69.18,34.61c-.4,1-3,.85-4.62,1.48s.31,2-1.41,3.16-3.21-.73-3.61-1.83c-.31-.86-.2-2.47-.91-3.45,3.24-.67,6.08-1.29,7.71-1.65C67.62,32.94,69.45,34,69.18,34.61Z" style="fill:#a2876b"/><path d="M108.7,62c-22.77-4.15-41.33-8.75-47.62-11.15C52.79,47.73,35.47,46,22.33,45c0,0,28.57-.76,38.21,2.66,6.91,2.45,15.78,4.68,22.61,4.8a18.27,18.27,0,0,0,6.93-1c6.43-2.61,7.23-12,4.42-14.46-1-.87-.44-1.2.77-.69a0,0,0,0,0,0,0l1,.57,0,0a.05.05,0,0,0,0,0l0,0,.06,0h0c2.2,1.52,5.13,5.09,5.66,11.65a4.5,4.5,0,0,0,2.36,3.18,56,56,0,0,0,2.26,5.66C107.13,58.4,107.81,60,108.7,62Z" style="fill:#c6b495"/><path d="M90.08,51.48a18.27,18.27,0,0,1-6.93,1,31.8,31.8,0,0,0,3.79-2.2,17,17,0,0,0,3.43-3c5.71-6.7-1.31-12.66.24-12.66,1.25,0,3.34,1,4.66,1.72-1.21-.51-1.79-.18-.77.69C97.31,39.43,96.51,48.87,90.08,51.48Z" style="fill:#b29c7d"/><path d="M96.3,36.91l-1-.57a4.28,4.28,0,0,1,.53.26l.28.17h0l0,0A.91.91,0,0,1,96.3,36.91Z" style="fill:#a2876b"/><path d="M300.43,25.61a15.29,15.29,0,0,1-4.82,1.16c-1.05.11-2,.2-2.77.25-5.25.36-6-.38-9-2.66,0,0-3.44-4.59-15.34-6.17,0,0,6.77,3.5,7.58,4.59s-2.82,2.25-5,2.83-3.48-.18-4.67-2.81-4.44-2.46-7.11-1.51-4.43.93-5.5-2.74a3.15,3.15,0,0,1-.14-.87c-1.6,0-3.37,0-5.32.08,1.52,1.87,2.68,4,2.12,5.7-.79,2.44-5.36,1.71-8.18.17s-6.56-1.68-6.56-3.29c0-.58.91-1.46,2.09-2.36q-4.35.11-9.24.25c2.45,2.15,2.24,4.89,3.13,7.38,1.07,3-4.42,3-6.57,3.51s-3.48-4.09-4.82-5.66c-.8-.95.19-3.29,1.11-5-1.58,0-3.2.1-4.84.16,1.38,3.1.81,6.79-.33,7.53-1.52,1-2.23,1.69-5.4,1.18s-3.8-2-6.55-2.63-5.15.47-4.87,2.21-3.49,5.35-5.86,4.37-1.11-4.37-2.05-6.92c-.44-1.17.73-3.09,2.16-4.8-3,.13-6,.28-9,.43,3.26,3.66,4.15,7.67,2.89,8.25-1.44.65-4.2,3-6.21,1.88s-5.22.81-7.36.73-3.48-1.26-2.81-3.52c.43-1.44,1.15-4.61,1.62-6.71l-8.22.49c1.79,1.4,3.72,3.57,2.45,5.8-2.15,3.74-2.95,8-4.83,8s-6.43-1.61-6.83-4.3c-.33-2.17,2.25-6.32.65-9l-8.76.61a4.56,4.56,0,0,0-.06,3.89c1.74,3.84,3.35,4.85.14,7.16s-4,2.38-8-.88-7.23-3.7-6.16-5.22c.82-1.15,3.38-2.37,2.71-4.09l-8.72.74a5,5,0,0,0-.42,3.35c.94,3.72.67,6.07-2.41,7.1s-4.67,1.65-7.42-1-1-4.62.72-6,5-2.34,6.17-1.72c.63.33.4-.4-.56-1.4-3.38.32-6.72.64-10,1,1.51,2,1.17,3.77-.83,4.93-2.55,1.47-2.55,4.22-7,2.31S98.72,32,94.16,31.28c-2.52-.42-4.18-1.84-3.34-3.39q-4.81.67-9.21,1.41c4.67,4.81,7.26,3.79,7.26,3.79,7.15-.78,14.68,1,18.58,2.13,1.13-1.34,2.32-1.8,3.86-.68a37.24,37.24,0,0,1,4.27,3.33,69.27,69.27,0,0,0,8.67,1.72,28.68,28.68,0,0,1,1.65-2.77c4.42-5.89,11.66-1.75,12.86,1.61a8.85,8.85,0,0,1,.52,2.13c2.2,0,4.43,0,6.71-.09,1-1.78,2-3.75,3.36-5.8,2-3.08,6.16-.53,8.17,3.49a9.41,9.41,0,0,0,.95,1.54q2.78-.23,5.6-.53c-1.64-3.45,7.11-5.26,7.11-5.26,3.75-.37,6-2.72,9.64-.6,1.88,1.09,2.06,2.31,1.68,3.59.95-.14,1.92-.27,2.87-.42.61-2.18,1.44-4.14,2.82-4a11.06,11.06,0,0,1,6.29,2.69l3.41-.53c.18-1.47.49-2.92.74-4.07.68-3,5-2,8.44-2.29,2.61-.2,4,1.86,5.24,4.13l2.2-.33c-.09-1.91.45-3.43,1.8-3.8,2.2-.62,6.25,1.32,8.17,2.35,2.43-.34,4.73-.64,6.93-.92a15.14,15.14,0,0,1,2.86-3.16c1.6-1.34,6.43,1.54,6.83,1.73l.51.25c5.06-.5,9.34-.8,13-.93,1.37-1.56,2.13-3.47,5.39-4,3.9-.64,5.4,1.89,6,4.35a25.69,25.69,0,0,1,4.55,1c1.5-.74,4.15-.73,6.55-.65,3.88.12,3.07,3,3.07,3a5.35,5.35,0,0,0,0,3h0a26.06,26.06,0,0,0,3.7.87,4.47,4.47,0,0,1,3.25-3.93c3.48-1,4.69,0,4.69,0,2.31.56,3.11,2.09,3.7,3.67a13.81,13.81,0,0,0,4.87-2C305.86,29.18,300.43,25.61,300.43,25.61Zm-15.17,4.18c-1.1,1.4-3.11.5-3.62-1.55s-2.51-2.37-3.21-3.69,3.6-.92,3.6-.92C284.52,24.6,286.37,28.38,285.26,29.79Z" style="fill:#e5d2b1"/><path d="M112.38,30.12c-2.55,1.47-2.55,4.22-7,2.31S98.72,32,94.16,31.28c-2.52-.42-4.18-1.84-3.34-3.39h0c7-1,14.49-1.88,22.39-2.7C114.72,27.22,114.38,29,112.38,30.12Z" style="fill:#af9177"/><path d="M124.3,34.31c-3.08,1-4.67,1.65-7.42-1s-1-4.62.72-6,5-2.34,6.17-1.72c.63.33.4-.4-.56-1.4l3.92-.35a5,5,0,0,0-.42,3.35C127.65,30.93,127.38,33.28,124.3,34.31Z" style="fill:#af9177"/><path d="M147.34,33.31c-3.22,2.3-4,2.38-8-.88s-7.23-3.7-6.16-5.22c.82-1.15,3.38-2.37,2.71-4.09q5.67-.45,11.41-.86a4.56,4.56,0,0,0-.06,3.89C148.94,30,150.55,31,147.34,33.31Z" style="fill:#af9177"/><path d="M167,26.91c-2.15,3.74-2.95,8-4.83,8s-6.43-1.61-6.83-4.3c-.33-2.17,2.25-6.32.65-9l8.56-.54C166.37,22.51,168.3,24.68,167,26.91Z" style="fill:#af9177"/><path d="M187.56,28.24c-1.44.65-4.2,3-6.21,1.88s-5.22.81-7.36.73-3.48-1.26-2.81-3.52c.43-1.44,1.15-4.61,1.62-6.71,4-.22,8-.44,11.87-.63C187.93,23.65,188.82,27.66,187.56,28.24Z" style="fill:#af9177"/><path d="M216.27,26.15c-1.52,1-2.23,1.69-5.4,1.18s-3.8-2-6.55-2.63-5.15.47-4.87,2.21-3.49,5.35-5.86,4.37-1.11-4.37-2.05-6.92c-.44-1.17.73-3.09,2.16-4.8h0c8-.37,15.73-.69,22.89-.94C218,21.72,217.41,25.41,216.27,26.15Z" style="fill:#af9177"/><path d="M225.15,29.12c-2.13.47-3.48-4.09-4.82-5.66-.8-.95.19-3.29,1.11-5,2.46-.09,4.85-.17,7.15-.23,2.45,2.15,2.24,4.89,3.13,7.38C232.79,28.61,227.3,28.65,225.15,29.12Z" style="fill:#af9177"/><path d="M250.48,23.46c-.79,2.44-5.36,1.71-8.18.17s-6.56-1.68-6.56-3.29c0-.58.91-1.46,2.09-2.36h0c3.89-.1,7.41-.17,10.52-.22h0C249.88,19.63,251,21.73,250.48,23.46Z" style="fill:#af9177"/><path d="M271.1,25.61c-2.15.58-3.48-.18-4.67-2.81s-4.44-2.46-7.11-1.51-4.43.93-5.5-2.74a3.15,3.15,0,0,1-.14-.87c3.25,0,5.75,0,7.37,0a63.32,63.32,0,0,1,7.43.52s6.77,3.5,7.58,4.59S273.24,25,271.1,25.61Z" style="fill:#af9177"/><path d="M291,46.45a26.32,26.32,0,0,0-3.12,1.94c-3,2.14-6.37,5-10.79,7.72a20.64,20.64,0,0,1-2.69,1.31c-9.77,4.13-36.16,10.42-66.94,12.45A15.84,15.84,0,0,0,204,66.55c-2.61-1.8-9.64-4.82-13.46-2.81,0,0-4.22,2.06-2.61,4.42.31.46.86,1.3,1.6,2.36-3.59,0-7.22,0-10.84-.15-18-.63-38.05-3.05-56.55-6-2-3-4.22-6-6.22-8.62A189,189,0,0,0,140,58.61a2.76,2.76,0,0,0,4.12.24h0c5.4.31,11.06.51,16.77.62h0C162.16,61.59,165,64,167,63.54a4.62,4.62,0,0,0,3.31-3.87v-.1c2.7,0,5.39,0,8,0a10.14,10.14,0,0,0,4.91,4.07c3.51,1.25,6.84-.57,7.59-2.77a5.94,5.94,0,0,0,.27-1.58q4.18-.14,8.12-.33c2.4,2.61,3.91,5.83,6,4.68a6.65,6.65,0,0,0,3.21-5.24c2-.14,4-.29,5.76-.47.89,2.52,1.39,4.5,3.29,3.74a6.81,6.81,0,0,0,3.82-4.48l8.23-.88h0a4.86,4.86,0,0,0,6.08-.64h0l4.91-.51c-.2,3.55,3.26,6.21,5.37,4.45,2.34-2,3.79-1.54,2.26-5.27,2.64-.3,5.13-.61,7.53-.92a2.91,2.91,0,0,0,2.67,3.2c2.41.44,5.22-1.41,4.2-4.21,4.8-.78,9.48-1.72,14.6-3a3.85,3.85,0,0,0,2.23.68,3.17,3.17,0,0,0,2.74-2l.94-.26A27.59,27.59,0,0,1,291,46.45Z" style="fill:#c6b495"/><path d="M144.11,58.85a2.76,2.76,0,0,1-4.12-.24C141.35,58.7,142.72,58.78,144.11,58.85Z" style="fill:#a2876b"/><path d="M120,49.68s-1,.8-1.11,3.21a2.88,2.88,0,0,0,4.42,2.39C124.83,54.1,122.22,46.16,120,49.68Zm133.61-5.63s-3.82-4.8-5-1.74-3.85,5.64-.72,6.4S256.83,47.87,253.62,44.05Z" style="fill:#a2876b"/><path d="M123.32,55.28a2.88,2.88,0,0,1-4.42-2.39c.11-2.41,1.11-3.21,1.11-3.21C122.22,46.16,124.83,54.1,123.32,55.28Zm124.56-6.57c-3.13-.76-.49-3.36.72-6.4s5,1.74,5,1.74C256.83,47.87,251,49.48,247.88,48.71ZM270,46.6c-.4,2.14-5.12,2.07-8,1s-2-5.12,2-8.46,4.52,3.21,4.52,3.21C269.15,45,270.39,44.45,270,46.6Zm34-4.54c-1.27-.32-3.41-3.37-1.81-6s4.29.79,4.29.79C309.07,39.83,305.25,42.38,304,42.06Zm20.4-11.53h0a.64.64,0,0,0,0,.07s0,0,0,0a1,1,0,0,0,.07.26.87.87,0,0,0,.1.24,2,2,0,0,0,.17.23.71.71,0,0,0,.15.15,2,2,0,0,0,.49.29A12.29,12.29,0,0,0,324.38,30.53Zm0,0h0a.64.64,0,0,0,0,.07s0,0,0,0a1,1,0,0,0,.07.26.87.87,0,0,0,.1.24,2,2,0,0,0,.17.23.71.71,0,0,0,.15.15,2,2,0,0,0,.49.29A12.29,12.29,0,0,0,324.38,30.53Zm0,0h0a.64.64,0,0,0,0,.07s0,0,0,0a1,1,0,0,0,.07.26.87.87,0,0,0,.1.24,2,2,0,0,0,.17.23.71.71,0,0,0,.15.15,2,2,0,0,0,.49.29A12.29,12.29,0,0,0,324.38,30.53Zm0,0h0a.64.64,0,0,0,0,.07s0,0,0,0a1,1,0,0,0,.07.26.87.87,0,0,0,.1.24,2,2,0,0,0,.17.23.71.71,0,0,0,.15.15,2,2,0,0,0,.49.29A12.29,12.29,0,0,0,324.38,30.53Zm0,0h0a.64.64,0,0,0,0,.07s0,0,0,0a1,1,0,0,0,.07.26.87.87,0,0,0,.1.24,2,2,0,0,0,.17.23.71.71,0,0,0,.15.15,2,2,0,0,0,.49.29A12.29,12.29,0,0,0,324.38,30.53Zm0,0h0a.64.64,0,0,0,0,.07s0,0,0,0a1,1,0,0,0,.07.26.87.87,0,0,0,.1.24,2,2,0,0,0,.17.23.71.71,0,0,0,.15.15,2,2,0,0,0,.49.29A12.29,12.29,0,0,0,324.38,30.53Zm16.23-5c-4.82-2.21-8-3.42-7.83-5s-3.42-3.38-5.63-2.89-2.61-3.74-5.62-2.13-2.62-1.81-6.63-1.41-9.45,3.82-10.25,6c-.59,1.63-1,4-4.22,5.47,0,0,5.43,3.57,0,7.39a13.81,13.81,0,0,1-4.87,2c.51,1.36.88,2.74,1.92,3.61,2.28,1.87-2.67,1.34-6.69,2s-4.42-.8-6-2.41a3.66,3.66,0,0,1-.84-2.95,24.75,24.75,0,0,1-3.7-.88c.35,1.76.91,3.63.06,4.77-1.41,1.89-1.81.26-5.45,0s-4.54-4.69-5.34-7.82a1.88,1.88,0,0,1,1.09-2.39,25.69,25.69,0,0,0-4.55-1,17.4,17.4,0,0,1,.38,1.94c.4,2.81-4.82,7.36-4.82,7.36-3.58,3.95-7.91.95-10-2s-4.3-4.69,0-5.76a5.68,5.68,0,0,0,3-1.89c-3.64.13-7.92.43-13,.93,2.85,1.52,7.31,5.26,6,7.6s-1.88,5-5.63,6.22-7-4.29-10.45-7.1c-2-1.59-1.36-3.74-.17-5.54-2.2.28-4.5.58-6.93.92.67.35,1.08.6,1.08.6,3,1.57.67,1.75,1.34,3.88s.26,3.22,2,5.56-2.55,4.09-4.83,5.43-4.68-3.08-7.22-7A14.78,14.78,0,0,1,214.51,32l-2.2.33c.43.77.85,1.56,1.33,2.3,1.87,2.95-1.47,5.36-1.47,5.36-2.82,2.28-.54,6.7-6.19,6.57s-5.74-3.62-7.35-6c-1-1.42-1-3.76-.74-6l-3.41.53a8.51,8.51,0,0,1,.94,1c1.74,2.09-.8,4.48-.8,4.48-1.09,1.54,1.34,4,3.08,6s-4.42,3.21-8.71,1.23-5.89-4.18-5-6.45c.43-1,.8-3,1.33-4.9l-2.87.42h0c-.36,1.2-1.22,2.44-1.67,3.67-.94,2.55.41,5.63-1.6,7.9s-4.7,2.68-8,0-2.81-4.42-6.51-8.44a3.55,3.55,0,0,1-.6-.86q-2.82.3-5.6.53a9.15,9.15,0,0,0,4.8,3.32c2.92,1.46.68,3.44-1.33,5.45s-3.49.8-5.36,3.72-6.57-.64-9.78-2.51-3.75-4.29-2.28-6.66c.49-.79,1-1.65,1.47-2.55-2.28.08-4.51.11-6.71.09.19,1.61-.22,2.31,1,3.89,1.61,2.15-1.08,3.88-4.69,6s-7,2.68-10.31-.8-3.62-4.16-2.28-7.37c.42-1,.87-1.93,1.29-2.72a69.27,69.27,0,0,1-8.67-1.72,7.84,7.84,0,0,1,2.29,3.87c.8,3.38.66,6.6-6.9,7.94,1.24,1.33,3,3.49,4.94,6A187.4,187.4,0,0,0,140,58.6c-1.82-1.81-5.31-5.21-.89-7s5.43.45,6.32,1.2c1.63,1.35,1.61,2,0,4.52a6.84,6.84,0,0,1-1.3,1.54c5.4.31,11.06.51,16.77.61-.71-1.19-.94-2.29-.29-2.75,1.8-1.31,1.51-3.42,5-4.52a2.46,2.46,0,0,1,3.12.87,12.59,12.59,0,0,1,.67,1.46c.31.78.58,1.63.77,2.29a6.28,6.28,0,0,1,.16,2.76c2.7,0,5.39,0,8,0-1-1.63-1.25-3.44-.11-4.9,2.41-3.08,4.32-1.74,6.63-3.73s4.52,3.73,4.52,3.73a6.28,6.28,0,0,1,1.73,4.62q4.18-.14,8.12-.33c-2.41-2.61-2.52-5-.41-6.44s2.11-4.11,4.12-2.8,3.68,4.87,4.31,5.6a4.47,4.47,0,0,1,1.21,3.08c2-.14,4-.29,5.76-.47a14.73,14.73,0,0,0-2.34-4.6c-3.11-3.81,1.21-3.82,4.93-4.51s4.41,3.91,4.41,3.91a7.25,7.25,0,0,1,.11,4.46l8.23-.88a1.69,1.69,0,0,1-.29-.17c-3.92-2.41-2.73-5.22-.51-6.77s2.6-2.47,3.11-5.28,2.61,1.11,5.42,3.5.9,4.44.9,4.44a11.56,11.56,0,0,1-2.54,3.64l4.91-.51A5.92,5.92,0,0,1,241.76,52c3.42-4.81,5.53.2,5.53.2.4.83.71,1.52,1,2.11,2.64-.3,5.13-.61,7.53-.92a9,9,0,0,1,1-3.48c1.69-3.57,4.72.58,4.72.58a5.59,5.59,0,0,1,1.19,1.89c4.8-.78,9.48-1.72,14.6-3a10.34,10.34,0,0,1-3.53-4.28c-1.14-2.51,2.15-1,3.62-2.62s3.8,2,4.28,2.62a2.92,2.92,0,0,1,.6,3l.94-.25A27.59,27.59,0,0,1,291,46.45a11.6,11.6,0,0,1,4.57-1.4c5.83-.4,12.86,3,16.88,6.84S324.74,57.11,330,54.5s7.24-2.82,6.23-4.22,2.41-1.21,1.21-2.81,2-1.33,1.4-3.38.87-5,3.82-7.67A6.69,6.69,0,0,0,340.61,25.57Zm-32.34,5.71c-.11-3.62-3.52-2.8-2.52-4.2a18.33,18.33,0,0,0,1.6-2.72c2.4-4,4.33.4,4.53,4.32s5.12,3.11,1.61,5.63S308.37,34.9,308.27,31.28ZM326,51.78c-.42,1.32-2.15,2.72-6.36.77s-6.73-2.57-7.54-4.72,6.34,1.24,11.16.62S326,51.78,326,51.78ZM340.11,33.3A8.72,8.72,0,0,1,339,36.6a1.74,1.74,0,0,1,.31.37,1.15,1.15,0,0,1,.19.64.91.91,0,0,1,0,.17.3.3,0,0,1,0,.12.27.27,0,0,1,0,.12,1.6,1.6,0,0,1-.24.44l-.2.25-.29.26a3.53,3.53,0,0,1-.48.36l-.18.12c-.15.09-.32.19-.49.27a.3.3,0,0,0-.08,0l-.39.18h0a20.68,20.68,0,0,0-1.88,4.75,4.83,4.83,0,0,1,.3.41c2.11,2.94-2.61,4.78-5.73,3.8-2.11-.67-1.72-2-.45-3.14a12.65,12.65,0,0,1-1-2.52l-.32.32-.31.29c-2.22,1.9-5.23,2.61-11.16,2.21s-7-3.42-3.71-6.53,5.22,1,5.22,1a2.62,2.62,0,0,0,1.51,1.91,3,3,0,0,0,.55.2,1.65,1.65,0,0,0,.32,0l.12,0h.1l.45,0h.15a7.83,7.83,0,0,0,.94-.19c.17-.05.36-.1.55-.17l.4-.13.77-.31A36.55,36.55,0,0,0,327.6,40c-.1-.74-.19-1.52-.25-2.38,0-.15,0-.3,0-.45l-.65.11-.68.1c-6.4.9-9.68-.9-8-3.1s-2.41-3.83.3-5.19,2.8-.89,2.8-.89a7.13,7.13,0,0,1,.8.13c-4.4-3.11-9.85-4.08-9.89-6.11-.06-3.31,4.18-4.6,4.18-4.6.85-.4,2.23-.14,3.78.27h0c.19,0,.39-.08.57-.1s.39-.06.57-.07a10.19,10.19,0,0,1,1.08-.06,10.63,10.63,0,0,1,4.24.84c1.75,1.17,2.49,2.33,2.32,3.24a6.93,6.93,0,0,0,3.37,1.8,11.81,11.81,0,0,1,2,.74h0a7.72,7.72,0,0,1,2.25.24l.4.18a9.2,9.2,0,0,1,1.28.77,2.93,2.93,0,0,1,1.34,2.41,2.64,2.64,0,0,1,0,.29c0,.1,0,.2,0,.3a1.73,1.73,0,0,1-.07.31,2.33,2.33,0,0,1-.07.25.25.25,0,0,1,0,.07h0A7.37,7.37,0,0,1,340.11,33.3Zm-15.74-2.78a.64.64,0,0,0,0,.07s0,0,0,0a1,1,0,0,0,.07.26.87.87,0,0,0,.1.24,2,2,0,0,0,.17.23.71.71,0,0,0,.15.15,2,2,0,0,0,.49.29,12.29,12.29,0,0,0-1-1.26Zm0,0h0a.64.64,0,0,0,0,.07s0,0,0,0a1,1,0,0,0,.07.26.87.87,0,0,0,.1.24,2,2,0,0,0,.17.23.71.71,0,0,0,.15.15,2,2,0,0,0,.49.29A12.29,12.29,0,0,0,324.38,30.53Zm0,0h0a.64.64,0,0,0,0,.07s0,0,0,0a1,1,0,0,0,.07.26.87.87,0,0,0,.1.24,2,2,0,0,0,.17.23.71.71,0,0,0,.15.15,2,2,0,0,0,.49.29A12.29,12.29,0,0,0,324.38,30.53Zm0,0h0a.64.64,0,0,0,0,.07s0,0,0,0a1,1,0,0,0,.07.26.87.87,0,0,0,.1.24,2,2,0,0,0,.17.23.71.71,0,0,0,.15.15,2,2,0,0,0,.49.29A12.29,12.29,0,0,0,324.38,30.53Zm0,0h0a.64.64,0,0,0,0,.07s0,0,0,0a1,1,0,0,0,.07.26.87.87,0,0,0,.1.24,2,2,0,0,0,.17.23.71.71,0,0,0,.15.15,2,2,0,0,0,.49.29A12.29,12.29,0,0,0,324.38,30.53Zm0,0h0a.64.64,0,0,0,0,.07s0,0,0,0a1,1,0,0,0,.07.26.87.87,0,0,0,.1.24,2,2,0,0,0,.17.23.71.71,0,0,0,.15.15,2,2,0,0,0,.49.29A12.29,12.29,0,0,0,324.38,30.53Zm0,0h0a.64.64,0,0,0,0,.07s0,0,0,0a1,1,0,0,0,.07.26.87.87,0,0,0,.1.24,2,2,0,0,0,.17.23.71.71,0,0,0,.15.15,2,2,0,0,0,.49.29A12.29,12.29,0,0,0,324.38,30.53Z" style="fill:#d6c5a1"/><path d="M300.43,54.5c-2.41.6-.4-2.61-2.21-2.61s-.2-3-2-2.82-2.92-3-8.29-.68c-3,2.14-6.37,5-10.79,7.71a19.32,19.32,0,0,1-2.69,1.32A58,58,0,0,0,280.07,62c3.09-.16,6.05.23,6.9,1.63a7.62,7.62,0,0,0,3.57,2.95,3,3,0,0,1,2.06-.92c2.81,0,3.11-.61,4.71-1.11.41-.13.76.15,1,.61a6.87,6.87,0,0,0,.08-4,2,2,0,0,1,.48-1.93c-.1-1.29,1.4-1.66,2.14-1.77l.28,0h.12C300.43,54.5,302.84,53.89,300.43,54.5Zm-18,6.93c-2.37-1.21-5-2.71-4.46-3.81s3.42-.24,3.91,0C285.26,59.22,284.76,62.63,282.4,61.43Zm13.11,1.64c-.61.94-4.12.77-7.33-1.28s-.3-1.57-.61-3.88S293,59.38,293,59.38C295.47,60.8,296.11,62.13,295.51,63.07Zm.4-7c0,2.91-2.71-1-6.93-1.09s-3-2.62-1.41-4,5-.78,5.32-.67C296.21,51.55,295.91,53.2,295.91,56.1Z" style="fill:#d6c5a1"/><path d="M304.14,66.91c-.42,1.47-1.76,2.53-4.71,2.66a14.52,14.52,0,0,0-1.09-4.42,6.87,6.87,0,0,0,.08-4,2,2,0,0,1,.48-1.93.77.77,0,0,0,0,.15c.31,1.85,1.61,2.14,1.71,4.46C300.7,65.27,302.43,66.73,304.14,66.91Z" style="fill:#c6b495"/><path d="M193.64,67c.61-1.71,3.72-.81,4.11-.65a36.56,36.56,0,0,1,6.34,3.77c.79.65,1.29,1.29,1.21,1.79-.32,1.89-3.92,1-5.53-1.34a1.3,1.3,0,0,0-.18-.23C197.82,68.22,193.07,68.6,193.64,67Zm4.11,10.24c-3.34-1-4.2-3.11-4.16-4.3s2.87-.62,2.87-.62c3.31,1.1,4.22,1.2,4.32,3.31S201.08,78.21,197.75,77.2Zm13.07-1.41c-2.21-1.8-2.21-2.41-2.21-3.61a4.58,4.58,0,0,0-1.11-2.31A15.84,15.84,0,0,0,204,66.55c-2.61-1.81-9.64-4.82-13.46-2.81,0,0-4.22,2.06-2.61,4.42.31.46.86,1.3,1.6,2.36,3,4.37,9.33,12.5,16.28,13.31,8.64,1,10.85,2.21,11,0S213,77.6,210.82,75.79Zm-3.41,6.93c-1.61.11-5.52-1.7-6.59-3s.86-2,2.68-1.13a19.27,19.27,0,0,1,3.91,3S209,82.63,207.41,82.72Zm8.33,1.21c-.5,1.1-6.47-.16-6.47-1.2s-1-2.6-2.34-4.39l-.11-.13s0,0,0,0A4,4,0,0,1,206,76.4a1.14,1.14,0,0,1,.56-1.34h0a9.86,9.86,0,0,1,.91-2.16s.3-.27.66.38,1.6,3,3.2,4S216.25,82.83,215.74,83.93Z" style="fill:#d6c5a1"/><path d="M129.25,82.63c-1.2.8-.8,2.41-5.82,2.45-4,0-11.12-14.85-14.73-23-.89-2-1.57-3.63-2-4.52a56,56,0,0,1-2.26-5.66c-.53-1.89-.52-3.42.89-4a3.7,3.7,0,0,1,1.37-.27L109.2,54c1,2.67,2.22,5.81,3.35,8.74,1.55,4,3,7.59,3.54,9,1.5,3.45,2.55,8,12.86,7.6C129.25,80.65,130,82.12,129.25,82.63Z" style="fill:#997e65"/><path d="M71.09,41.74A2.71,2.71,0,1,1,68.38,39,2.71,2.71,0,0,1,71.09,41.74Z" style="fill:#2b2b2b"/><path d="M68.38,37.42a4.32,4.32,0,1,0,4.32,4.32A4.32,4.32,0,0,0,68.38,37.42Zm0,7a2.71,2.71,0,1,1,2.71-2.71A2.71,2.71,0,0,1,68.38,44.45Z" style="fill:#525254"/><path d="M115.58,37.87a49.69,49.69,0,0,1-5.41-1.78s-1-.38-2.72-.87c1.13-1.34,2.32-1.8,3.86-.68A37.24,37.24,0,0,1,115.58,37.87Z" style="fill:#af9177"/><path d="M111,49.68s.5-2.31-4.22-2.12a3.7,3.7,0,0,0-1.37.27,5.38,5.38,0,0,1-1.22-7.26,38.76,38.76,0,0,1,3.29-5.35c1.71.49,2.72.87,2.72.87a49.69,49.69,0,0,0,5.41,1.78,7.89,7.89,0,0,1,2.29,3.87C118.67,45.12,118.53,48.34,111,49.68Z" style="fill:#a2876b"/><path d="M139.28,40.56a113.12,113.12,0,0,1-15-1,28.68,28.68,0,0,1,1.65-2.77c4.42-5.89,11.66-1.75,12.86,1.61A8.85,8.85,0,0,1,139.28,40.56Z" style="fill:#af9177"/><path d="M135.55,50.48c-3.62,2.15-7,2.68-10.31-.8s-3.62-4.16-2.28-7.37c.42-1,.87-1.93,1.29-2.72a113.12,113.12,0,0,0,15,1c.19,1.61-.22,2.31,1,3.89C141.85,46.6,139.16,48.33,135.55,50.48Z" style="fill:#a2876b"/><path d="M158.47,39.7c-4.25.37-8.43.64-12.48.77,1-1.78,2-3.75,3.36-5.8,2-3.08,6.16-.53,8.17,3.49A9.41,9.41,0,0,0,158.47,39.7Z" style="fill:#af9177"/><path d="M161.94,48.47c-2,2-3.49.8-5.36,3.72s-6.57-.64-9.78-2.51-3.75-4.29-2.28-6.66q.73-1.19,1.47-2.55c4-.13,8.23-.4,12.48-.77a9.15,9.15,0,0,0,4.8,3.32C166.19,44.49,164,46.46,161.94,48.47Z" style="fill:#a2876b"/><path d="M182.5,36.9h0c-6.2.87-12.37,1.65-18.42,2.27-1.64-3.45,7.11-5.26,7.11-5.26,3.75-.37,6-2.72,9.64-.6C182.7,34.4,182.88,35.62,182.5,36.9Z" style="fill:#af9177"/><path d="M182.49,36.9c-.36,1.2-1.22,2.44-1.67,3.67-.94,2.55.41,5.63-1.6,7.9s-4.7,2.68-8,0-2.81-4.42-6.51-8.44a3.37,3.37,0,0,1-.6-.86C170.12,38.55,176.29,37.77,182.49,36.9Z" style="fill:#a2876b"/><path d="M194.48,35.13c-3,.46-6.07.92-9.11,1.35.61-2.18,1.44-4.14,2.82-4A11.06,11.06,0,0,1,194.48,35.13Z" style="fill:#af9177"/><path d="M189,47.83c-4.28-2-5.89-4.18-5-6.45.43-1,.8-3,1.33-4.9,3-.43,6.08-.89,9.11-1.35a8.51,8.51,0,0,1,.94,1c1.74,2.09-.8,4.48-.8,4.48-1.09,1.54,1.34,4,3.08,6S193.28,49.81,189,47.83Z" style="fill:#a2876b"/><path d="M212.31,32.37,197.89,34.6c.18-1.47.49-2.92.74-4.07.68-3,5-2,8.44-2.29C209.68,28,211,30.1,212.31,32.37Z" style="fill:#af9177"/><path d="M212.17,40c-2.82,2.28-.54,6.7-6.19,6.57s-5.74-3.62-7.35-6c-1-1.43-1-3.77-.74-6l14.42-2.23c.43.77.85,1.56,1.33,2.3C215.51,37.62,212.17,40,212.17,40Z" style="fill:#a2876b"/><path d="M224.48,30.59l-.19,0c-3.2.45-6.47.93-9.78,1.43-.09-1.91.45-3.43,1.8-3.8C218.51,27.62,222.56,29.56,224.48,30.59Z" style="fill:#af9177"/><path d="M224.08,46.06c-2.27,1.34-4.68-3.08-7.22-7A14.78,14.78,0,0,1,214.51,32c3.31-.5,6.58-1,9.78-1.43l.19,0c.67.35,1.08.6,1.08.6,3,1.57.67,1.75,1.34,3.88s.26,3.22,2,5.57S226.36,44.72,224.08,46.06Z" style="fill:#a2876b"/><path d="M241.61,28.49c-3.09.32-6.48.7-10.2,1.18a15.14,15.14,0,0,1,2.86-3.16c1.6-1.34,6.43,1.54,6.83,1.73Z" style="fill:#af9177"/><path d="M247.66,36.09c-1.34,2.49-1.88,5-5.63,6.22s-7-4.29-10.45-7.1c-2-1.59-1.36-3.74-.17-5.54,3.72-.48,7.11-.86,10.2-1.18C244.46,30,248.92,33.75,247.66,36.09Z" style="fill:#a2876b"/><path d="M266,27.91a71.85,71.85,0,0,0-11.44-.35c1.37-1.56,2.13-3.47,5.39-4C263.88,22.92,265.38,25.45,266,27.91Z" style="fill:#af9177"/><path d="M261.59,37.21c-3.58,3.95-7.91.95-10-2s-4.3-4.68,0-5.76a5.68,5.68,0,0,0,3-1.89,71.85,71.85,0,0,1,11.44.35,17.4,17.4,0,0,1,.38,1.94C266.81,32.66,261.59,37.21,261.59,37.21Z" style="fill:#a2876b"/><path d="M280.22,34.33a11.38,11.38,0,0,1-4.3-2.33,13,13,0,0,0-5.34-3.11c1.5-.74,4.15-.73,6.55-.65,3.88.12,3.07,3,3.07,3A5.35,5.35,0,0,0,280.22,34.33Z" style="fill:#af9177"/><path d="M280.28,39.1c-1.41,1.89-1.81.27-5.45,0s-4.54-4.69-5.34-7.82a1.88,1.88,0,0,1,1.09-2.39A13,13,0,0,1,275.92,32a11.38,11.38,0,0,0,4.3,2.33h0C280.57,36.1,281.13,38,280.28,39.1Z" style="fill:#a2876b"/><path d="M295.56,35a32.84,32.84,0,0,1-11.64.26,4.47,4.47,0,0,1,3.25-3.93c3.48-1,4.69,0,4.69,0C294.17,31.84,295,33.37,295.56,35Z" style="fill:#af9177"/><path d="M290.79,40.57c-4,.68-4.42-.8-6-2.41a3.66,3.66,0,0,1-.84-2.95A32.84,32.84,0,0,0,295.56,35c.51,1.36.88,2.74,1.92,3.61C299.76,40.43,294.81,39.9,290.79,40.57Z" style="fill:#a2876b"/><path d="M170.34,59.57c-3.14,0-6.3,0-9.45-.1h0c-.71-1.19-.94-2.3-.29-2.76,1.8-1.31,1.51-3.42,5-4.52a2.46,2.46,0,0,1,3.12.87,12.59,12.59,0,0,1,.67,1.46c.31.78.58,1.63.77,2.29A6.28,6.28,0,0,1,170.34,59.57Z" style="fill:#a2876b"/><path d="M170.34,59.57v.1A4.62,4.62,0,0,1,167,63.54c-2.06.45-4.87-1.95-6.14-4.07C164,59.53,167.2,59.56,170.34,59.57Z" style="fill:#997e65"/><path d="M145.42,57.31a6.84,6.84,0,0,1-1.3,1.54h0c-1.39-.07-2.76-.15-4.12-.24-1.82-1.82-5.31-5.22-.89-7s5.43.45,6.32,1.2C147.05,54.15,147,54.8,145.42,57.31Z" style="fill:#a2876b"/><path d="M144.11,58.85a2.76,2.76,0,0,1-4.12-.24C141.35,58.7,142.72,58.78,144.11,58.85Z" style="fill:#997e65"/><path d="M123.32,55.28a2.88,2.88,0,0,1-4.42-2.39c.11-2.41,1.11-3.21,1.11-3.21C122.22,46.16,124.83,54.1,123.32,55.28Z" style="fill:#a2876b"/><path d="M191.16,59.25a5.94,5.94,0,0,1-.27,1.58c-.75,2.2-4.08,4-7.59,2.77a10.14,10.14,0,0,1-4.91-4.07C182.75,59.48,187,59.38,191.16,59.25Z" style="fill:#997e65"/><path d="M191.16,59.25c-4.13.13-8.41.23-12.77.28-1-1.63-1.25-3.44-.11-4.89,2.41-3.09,4.32-1.75,6.63-3.74s4.52,3.74,4.52,3.74A6.24,6.24,0,0,1,191.16,59.25Z" style="fill:#a2876b"/><path d="M208.51,58.36c-2.89.21-6,.4-9.23.56-2.41-2.61-2.52-5-.41-6.44s2.11-4.11,4.12-2.8,3.68,4.87,4.31,5.6A4.49,4.49,0,0,1,208.51,58.36Z" style="fill:#a2876b"/><path d="M208.51,58.36a6.65,6.65,0,0,1-3.21,5.24c-2.11,1.15-3.62-2.07-6-4.68C202.52,58.76,205.62,58.57,208.51,58.36Z" style="fill:#997e65"/><path d="M221.38,57.15a6.81,6.81,0,0,1-3.82,4.48c-1.9.76-2.4-1.22-3.29-3.74,1.33-.12,2.59-.24,3.79-.38Z" style="fill:#997e65"/><path d="M221.38,57.15l-3.32.36c-1.2.14-2.46.26-3.79.38a15,15,0,0,0-2.34-4.6c-3.11-3.81,1.21-3.81,4.93-4.51s4.41,3.91,4.41,3.91A7.25,7.25,0,0,1,221.38,57.15Z" style="fill:#a2876b"/><path d="M238.24,52a11.56,11.56,0,0,1-2.54,3.64h0l-6.08.64h0a2.69,2.69,0,0,1-.29-.16c-3.92-2.42-2.73-5.23-.51-6.78s2.6-2.47,3.11-5.28,2.61,1.11,5.42,3.51S238.24,52,238.24,52Z" style="fill:#a2876b"/><path d="M235.69,55.63a4.86,4.86,0,0,1-6.08.64Z" style="fill:#997e65"/><path d="M247.88,48.71c-3.13-.76-.49-3.36.72-6.4s5,1.74,5,1.74C256.83,47.87,251,49.48,247.88,48.71Z" style="fill:#a2876b"/><path d="M246,59.57c-2.11,1.76-5.57-.9-5.37-4.45,2.7-.28,5.22-.55,7.63-.82C249.77,58,248.32,57.62,246,59.57Z" style="fill:#997e65"/><path d="M248.24,54.3c-2.41.27-4.93.54-7.63.82A5.92,5.92,0,0,1,241.76,52c3.42-4.81,5.53.2,5.53.2C247.69,53,248,53.71,248.24,54.3Z" style="fill:#a2876b"/><path d="M270,46.6c-.4,2.14-5.12,2.07-8,1s-2-5.12,2-8.46,4.52,3.21,4.52,3.21C269.15,45,270.39,44.45,270,46.6Z" style="fill:#a2876b"/><path d="M258.44,56.58a2.91,2.91,0,0,1-2.67-3.2c2.36-.31,4.63-.64,6.87-1C263.66,55.17,260.85,57,258.44,56.58Z" style="fill:#997e65"/><path d="M262.64,52.37c-2.24.37-4.51.7-6.87,1a9,9,0,0,1,1-3.48c1.69-3.57,4.72.58,4.72.58A5.59,5.59,0,0,1,262.64,52.37Z" style="fill:#a2876b"/><path d="M282.21,48.09c-1.71.46-3.37.9-5,1.29a10.34,10.34,0,0,1-3.53-4.28c-1.14-2.51,2.15-1,3.62-2.62s3.8,2,4.28,2.62A2.93,2.93,0,0,1,282.21,48.09Z" style="fill:#a2876b"/><path d="M282.21,48.09a3.17,3.17,0,0,1-2.74,2,3.85,3.85,0,0,1-2.23-.68C278.84,49,280.5,48.55,282.21,48.09Z" style="fill:#997e65"/><path d="M304,42.06c-1.27-.32-3.41-3.37-1.81-6s4.29.79,4.29.79C309.07,39.83,305.25,42.38,304,42.06Z" style="fill:#a2876b"/><path d="M313.49,34.31c-3.51,2.52-5.12.6-5.22-3s-3.52-2.8-2.52-4.2a18.33,18.33,0,0,0,1.6-2.72c2.4-4,4.33.4,4.53,4.33S317,31.8,313.49,34.31Z" style="fill:#a2876b"/><path d="M328.77,21.77c-1.28-1.3-1.43-2.64-3.42-2.68A24.79,24.79,0,0,1,320,17.92c.19,0,.39-.08.57-.1s.39-.06.57-.07a10.19,10.19,0,0,1,1.08-.06,10.63,10.63,0,0,1,4.24.84C328.2,19.7,328.94,20.86,328.77,21.77Z" style="fill:#a2876b"/><path d="M339.41,27.91a2.64,2.64,0,0,1,0,.29c0,.1,0,.2,0,.3a1.73,1.73,0,0,1-.07.31,2.33,2.33,0,0,1-.07.25.25.25,0,0,1,0,.07,11.47,11.47,0,0,0-5.05-4.82,7.72,7.72,0,0,1,2.25.24l.4.18a9.2,9.2,0,0,1,1.28.77A2.93,2.93,0,0,1,339.41,27.91Z" style="fill:#a2876b"/><path d="M327.31,37.2l-.65.11-.68.1c-6.4.9-9.68-.9-8-3.1s-2.41-3.83.3-5.19,2.8-.89,2.8-.89a7.13,7.13,0,0,1,.8.13,5.9,5.9,0,0,1,1,.34l.15.06a3.34,3.34,0,0,1,.66.45,1,1,0,0,1,.15.14,1.58,1.58,0,0,1,.4.73c0,.07,0,.14,0,.21l0,.23h0a.13.13,0,0,0,0,.06s0,0,0,0a1,1,0,0,0,.07.26.87.87,0,0,0,.1.24,2,2,0,0,0,.17.23.71.71,0,0,0,.15.15,2,2,0,0,0,.49.29A11.35,11.35,0,0,1,327.31,37.2Z" style="fill:#a2876b"/><path d="M328.29,43.24l-.32.32-.31.29c-2.22,1.9-5.23,2.61-11.16,2.21s-7-3.42-3.71-6.53,5.22,1,5.22,1a2.62,2.62,0,0,0,1.51,1.91,3,3,0,0,0,.55.2,1.65,1.65,0,0,0,.32,0,3,3,0,0,0,.67,0h.16a6.29,6.29,0,0,0,.93-.18c.17-.05.36-.1.55-.17l.4-.13.77-.31A36.55,36.55,0,0,0,327.6,40,20.12,20.12,0,0,0,328.29,43.24Z" style="fill:#a2876b"/><path d="M339.5,37.61a.91.91,0,0,1,0,.17.3.3,0,0,1,0,.12.27.27,0,0,1,0,.12,1.6,1.6,0,0,1-.24.44l-.2.25-.29.26a3.53,3.53,0,0,1-.48.36l-.18.12-.49.27a.3.3,0,0,0-.08,0l-.39.18c.67-1.27,1.36-2.3,1.92-3.34a1.74,1.74,0,0,1,.31.37A1.15,1.15,0,0,1,339.5,37.61Z" style="fill:#a2876b"/><path d="M329.76,48.9c-2.11-.67-1.72-2-.45-3.14,2,3.55,4.86,2.83,5.88-1.07a4.83,4.83,0,0,1,.3.41C337.6,48,332.88,49.88,329.76,48.9Z" style="fill:#a2876b"/><path d="M326,51.78c-.42,1.32-2.15,2.72-6.36.77s-6.73-2.57-7.54-4.72,6.34,1.24,11.16.63S326,51.78,326,51.78Z" style="fill:#a2876b"/><path d="M282.4,61.43c-2.37-1.21-5-2.71-4.46-3.81s3.42-.24,3.91,0C285.26,59.22,284.76,62.63,282.4,61.43Z" style="fill:#a2876b"/><path d="M295.91,56.11c0,2.91-2.71-1-6.93-1.1s-3-2.62-1.41-4,5-.78,5.32-.67C296.21,51.55,295.91,53.2,295.91,56.11Z" style="fill:#a2876b"/><path d="M295.51,63.07c-.61.94-4.12.77-7.33-1.27s-.3-1.58-.61-3.89S293,59.38,293,59.38C295.47,60.8,296.11,62.13,295.51,63.07Z" style="fill:#a2876b"/><path d="M304.14,66.91c-1.71-.18-3.44-1.64-3.51-3.07-.1-2.32-1.4-2.61-1.71-4.46a.77.77,0,0,1,0-.15,7.28,7.28,0,0,1,2.58-1.69C302.19,59.47,305,64,304.14,66.91Z" style="fill:#997e65"/><path d="M301.48,57.54a7.28,7.28,0,0,0-2.58,1.69c-.1-1.29,1.4-1.66,2.14-1.77l.28,0h.12A.56.56,0,0,0,301.48,57.54Z" style="fill:#a2876b"/><path d="M299.43,69.57a14.38,14.38,0,0,1-1.61,0,24.49,24.49,0,0,1-8-2,3.27,3.27,0,0,1,.72-1,11.32,11.32,0,0,0,5.18,1,3.11,3.11,0,0,0,2.62-2.37A14.52,14.52,0,0,1,299.43,69.57Z" style="fill:#997e65"/><path d="M298.34,65.15a3.11,3.11,0,0,1-2.62,2.37,11.32,11.32,0,0,1-5.18-1,3,3,0,0,1,2.06-.92c2.81,0,3.11-.61,4.71-1.11C297.72,64.41,298.07,64.69,298.34,65.15Z" style="fill:#a2876b"/><path d="M205.3,71.87c-.32,1.89-3.92,1-5.53-1.34a1.3,1.3,0,0,0-.18-.23c-1.77-2.08-6.52-1.7-6-3.34s3.72-.81,4.11-.65a36.56,36.56,0,0,1,6.34,3.77C204.88,70.73,205.38,71.37,205.3,71.87Z" style="fill:#a2876b"/><path d="M197.75,77.2c-3.34-1-4.2-3.11-4.16-4.3s2.87-.62,2.87-.62c3.31,1.1,4.22,1.2,4.32,3.31S201.08,78.21,197.75,77.2Z" style="fill:#a2876b"/><path d="M206.8,78.18A4,4,0,0,1,206,76.4a1.14,1.14,0,0,1,.56-1.34A3.61,3.61,0,0,0,206.8,78.18Z" style="fill:#a2876b"/><path d="M207.41,82.72c-1.61.11-5.52-1.7-6.59-3s.86-2,2.68-1.13a19.27,19.27,0,0,1,3.91,3S209,82.63,207.41,82.72Z" style="fill:#a2876b"/><path d="M129.25,77.2a2.14,2.14,0,0,0-.3,2.08c-10.31.44-11.36-4.15-12.86-7.6-.59-1.37-2-5-3.54-9-1.13-2.93-2.33-6.07-3.35-8.74l-2.45-6.42c4.72-.19,4.22,2.12,4.22,2.12,1.24,1.33,3,3.49,4.94,6s4.19,5.67,6.22,8.62C126.44,70.6,130,76.47,129.25,77.2Z" style="fill:#af9177"/><path d="M282.4,16.23c0,1.7-1.66,1.8-4.46,2.71s-3.13-2.41-1.62-4.86,2.81-1.9,2.81-1.9A3.89,3.89,0,0,1,282.4,16.23Z" style="fill:#a2876b"/><path d="M293.34,15.41a1.65,1.65,0,0,1-.95.2c-2.31-.22-2.1-2.6-1.2-4.41a4,4,0,0,1,1.46-1.51h0a1.81,1.81,0,0,1,.35-.59c1.4-1.61-3-1.61-2.61-3.41s-3.22-1.81-2.62-4.22c.48-1.92.08-1.68-2.21-.8a3.56,3.56,0,0,1,.51,2.4,1.23,1.23,0,0,1,.6.1c2,.85,2.48,2.4,3.07,4.69s-.43,5.76,1.24,8.52-1.09,6.13-4.41,6.41-3.37-.3-3-1.38c0,0,2.52-6.54.25-10.65A6.17,6.17,0,0,1,283.07,7c-1.74,1.33-3.2,1.05-3.73-.63-.19-.59-.4-1.38-.59-2.18-2,1.76-3.31,4-3.43,5.9-.2,3.21-6.84,8.09-6.84,8.09,11.9,1.58,15.34,6.17,15.34,6.17C294.85,24,293.82,18.15,293.34,15.41Zm-15.4,3.53c-2.81.9-3.13-2.41-1.62-4.86s2.81-1.9,2.81-1.9a3.89,3.89,0,0,1,3.27,4.05C282.35,17.93,280.74,18,277.94,18.94Z" style="fill:#d6c5a1"/><path d="M293.34,15.41a1.65,1.65,0,0,1-.95.2c-2.31-.22-2.1-2.6-1.2-4.41a4,4,0,0,1,1.46-1.51c-.55,1.58,1.22,3.65.63,4.39C293.14,14.25,293.23,14.73,293.34,15.41Z" style="fill:#a2876b"/><path d="M286.07,3.06c-1.26,0-2.72,1.74-3,4-1.74,1.33-3.2,1.05-3.73-.63-.19-.59-.4-1.38-.59-2.18a13.37,13.37,0,0,1,4.6-2.74c.88-.29,1.61-.57,2.21-.8A3.56,3.56,0,0,1,286.07,3.06Z" style="fill:#a2876b"/><path d="M285.26,29.79c-1.1,1.4-3.11.5-3.62-1.55s-2.51-2.37-3.21-3.69,3.6-.92,3.6-.92C284.52,24.6,286.37,28.38,285.26,29.79Z" style="fill:#af9177"/><path d="M90.37,47.27a17,17,0,0,1-3.43,3,5.52,5.52,0,0,1-1.22.07c-2.54-.16-2.34-1.53-1.47-3.07s4-.71,4.22-.67A3.21,3.21,0,0,1,90.37,47.27Z" style="fill:#a2876b"/><path d="M80.77,48.34c-.67,1.07-3.89,1.74-6,.44s-.74-2.25.6-3.66,3.44.14,4.16.54C81.12,46.53,81.44,47.27,80.77,48.34Z" style="fill:#a2876b"/><path d="M82.24,39c-1.61.74-3.82-.67-5.82,0s-2.28-1.27-3-2.08S71,33.74,71.79,32.44c.71-1.15,6.26-1.4,7.7-1.44h.34c.93,0,2.27,1.21,3.22,2.1s2.07,1.58,2.34,2.72S83.85,38.29,82.24,39Z" style="fill:#a2876b"/><path d="M57.83,43c-2.41.38-4.82-.67-4.82-1.64s-3.81-2.46-2.31-4,5.42,0,5.42,0c2.51.61,2.91,2.21,5.13,4S60.24,42.64,57.83,43Z" style="fill:#a2876b"/><path d="M48.58,44.45c-1.1.61-6.12-1.43-6.12-1.43-1.23-.46-2.91-.38-3.71-1.83s-.11-1.56,1.1-2.76,4.52-.31,6.73,0,2.11,1.8,1.6,3.31S49.69,43.85,48.58,44.45Z" style="fill:#a2876b"/><path d="M69.53,40.71A1.24,1.24,0,1,1,70.77,42,1.24,1.24,0,0,1,69.53,40.71Z" style="fill:#eae3dd"/><path d="M291,16.37c-1.67-2.76-.64-6.23-1.24-8.52S288.63,4,286.67,3.16a1.23,1.23,0,0,0-.6-.1c-.19,1.16-1.09,2.17-2.26,3.32a8,8,0,0,1-.74.63,6.17,6.17,0,0,0,.73,3.74c2.27,4.11-.25,10.65-.25,10.65-.35,1.08-.3,1.65,3,1.38S292.64,19.13,291,16.37ZM283.89,9.8c-.66-1.71,2.76-1.71,2.76-1.71,2.59.8,3,2.51,1,4.18S284.56,11.5,283.89,9.8Zm1.17,11.31c-1.51-.62-.61-3.08,1.59-4.79s3.13,1.36,3.13,1.36C291.19,20.66,286.57,21.75,285.06,21.11Z" style="fill:#e5d2b1"/><path d="M286.07,3.06c-.19,1.16-1.09,2.17-2.26,3.32a8,8,0,0,1-.74.63C283.35,4.8,284.81,3.11,286.07,3.06Z" style="fill:#af9177"/><path d="M287.67,12.27c-2,1.68-3.11-.77-3.78-2.47s2.76-1.71,2.76-1.71C289.24,8.89,289.68,10.6,287.67,12.27Z" style="fill:#af9177"/><path d="M285.06,21.11c-1.51-.62-.61-3.08,1.59-4.79s3.13,1.36,3.13,1.36C291.19,20.66,286.57,21.75,285.06,21.11Z" style="fill:#af9177"/><path d="M335.19,44.69c-1,3.9-3.88,4.62-5.88,1.07a10.12,10.12,0,0,1,2.26-1.51C333.61,43.23,334.69,44.08,335.19,44.69Z" style="fill:#af9177"/><path d="M340.11,33.3A8.72,8.72,0,0,1,339,36.6l-.09-.09s-3-1.21-4.42.9-2.22,3.19,0,3.16a6.72,6.72,0,0,0,1.74-.32l.42-.15a.9.9,0,0,0,.21-.08l.21-.08a20.68,20.68,0,0,0-1.88,4.75c-.5-.61-1.58-1.46-3.62-.44a10.12,10.12,0,0,0-2.26,1.51,12.65,12.65,0,0,1-1-2.52.27.27,0,0,1,.07-.08,2.75,2.75,0,0,0,.22-.26l.22-.26a10.32,10.32,0,0,0,.75-1.11,1.75,1.75,0,0,0,.16-.27,3.93,3.93,0,0,0,.3-.68c0-.07.05-.13.07-.19s.05-.23.07-.33a1.37,1.37,0,0,0,0-.19c0-.71-.68-.91-2.51.13l-.06,0c-.1-.74-.19-1.52-.25-2.38,0-.15,0-.3,0-.45l.66-.13.63-.13a16.75,16.75,0,0,0,3.07-1l.38-.17.35-.19.26-.17h0a2.27,2.27,0,0,0,.25-.18h0l.18-.18a.64.64,0,0,0,.1-.13s0,0,0-.07a.48.48,0,0,0,.08-.16.57.57,0,0,0,0-.18c0-.54-.75-1.05-2.48-1.44l-1-.23-1.36-.29-.77-.16-.33-.07h0l-.32-.07a9.64,9.64,0,0,1-1.65-.47,12.29,12.29,0,0,0-1-1.26h0l0-.23c0-.07,0-.14,0-.21a1.58,1.58,0,0,0-.4-.73,1,1,0,0,0-.15-.14,3.34,3.34,0,0,0-.66-.45l-.15-.06a5.9,5.9,0,0,0-1-.34c-4.4-3.11-9.85-4.08-9.89-6.11-.06-3.31,4.18-4.6,4.18-4.6.85-.4,2.23-.14,3.78.27h0l-.47.11-.48.13c-.33.1-.66.22-1,.36-4.52,1.91-6.53,5.12-2.11,5.83s5.22-.8,9.35-.9a6.69,6.69,0,0,0,.81-.06l.37,0,.38-.08a2.94,2.94,0,0,0,.57-.17l.26-.1a4.49,4.49,0,0,0,.45-.26l.16-.13a1.38,1.38,0,0,0,.47-.68.74.74,0,0,0,0-.14,0,0,0,0,0,0,0,6.93,6.93,0,0,0,3.37,1.8,11.81,11.81,0,0,1,2,.74l-.48,0-.41,0c-.28,0-.58.06-.89.11l-.58.1a14.3,14.3,0,0,0-1.91.5c-4,1.3-5.76,4.61-1.07,5s8.91,2.32,10,0a4.9,4.9,0,0,0,.22-.48,4.43,4.43,0,0,0,.17-.47A7.37,7.37,0,0,1,340.11,33.3Z" style="fill:#e5d2b1"/><path d="M324.37,30.52a14.82,14.82,0,0,0-2.46-2.16,5.9,5.9,0,0,1,1,.34l.15.06a3.34,3.34,0,0,1,.66.45,1,1,0,0,1,.15.14,1.58,1.58,0,0,1,.4.73c0,.07,0,.14,0,.21Z" style="fill:#af9177"/><path d="M328.77,21.77a0,0,0,0,1,0,0,.74.74,0,0,1,0,.14,1.38,1.38,0,0,1-.47.68l-.16.13a4.49,4.49,0,0,1-.45.26l-.26.1a2.94,2.94,0,0,1-.57.17l-.38.08-.37,0a6.69,6.69,0,0,1-.81.06c-4.13.1-4.93,1.61-9.35.9s-2.41-3.92,2.11-5.83c.34-.14.67-.26,1-.36l.48-.13.47-.11h0a24.79,24.79,0,0,0,5.36,1.17C327.34,19.13,327.49,20.47,328.77,21.77Z" style="fill:#af9177"/><path d="M330.17,39.87a1.37,1.37,0,0,1,0,.19c0,.1,0,.21-.07.33s0,.12-.07.19a3.93,3.93,0,0,1-.3.68,1.75,1.75,0,0,1-.16.27,10.32,10.32,0,0,1-.75,1.11l-.22.26a2.75,2.75,0,0,1-.22.26.27.27,0,0,0-.07.08A20.12,20.12,0,0,1,327.6,40l.06,0C329.49,39,330.17,39.16,330.17,39.87Z" style="fill:#af9177"/><path d="M333.35,34.53a.57.57,0,0,1,0,.18.48.48,0,0,1-.08.16s0,0,0,.07a.64.64,0,0,1-.1.13l-.18.18h0a2.27,2.27,0,0,1-.25.18h0l-.26.17-.35.19-.38.17a16.75,16.75,0,0,1-3.07,1l-.63.13-.66.13a11.35,11.35,0,0,0-1.93-5.41,9.64,9.64,0,0,0,1.65.47l.32.07h0l.33.07.77.16,1.36.29,1,.23C332.6,33.48,333.35,34,333.35,34.53Z" style="fill:#af9177"/><path d="M339,36.6c-.56,1-1.25,2.07-1.92,3.34h0l-.21.08a.9.9,0,0,1-.21.08l-.42.15a6.72,6.72,0,0,1-1.74.32c-2.22,0-1.42-1,0-3.16s4.42-.9,4.42-.9Z" style="fill:#af9177"/><path d="M339.19,29.13h0a4.43,4.43,0,0,1-.17.47,4.9,4.9,0,0,1-.22.48c-1.1,2.32-5.32.4-10,0s-3-3.71,1.07-5a14.3,14.3,0,0,1,1.91-.5l.58-.1c.31,0,.61-.08.89-.11l.41,0,.48,0h0A11.47,11.47,0,0,1,339.19,29.13Z" style="fill:#af9177"/><path d="M290.54,66.57a3.27,3.27,0,0,0-.72,1A49.71,49.71,0,0,1,280.07,62c3.09-.16,6.05.23,6.9,1.63A7.62,7.62,0,0,0,290.54,66.57Z" style="fill:#c6b495"/><path d="M215.74,83.93c-.5,1.1-6.47-.16-6.47-1.2s-1-2.6-2.34-4.39A3.48,3.48,0,0,0,210,79.72c2.11-.31-.1-4.46-2.1-4.8a2.33,2.33,0,0,0-1.37.14,9.86,9.86,0,0,1,.91-2.16s.3-.27.66.38,1.6,3,3.2,4S216.25,82.83,215.74,83.93Z" style="fill:#c6b495"/><path d="M210,79.72a3.48,3.48,0,0,1-3.09-1.38l-.11-.13s0,0,0,0a3.61,3.61,0,0,1-.26-3.12h0a2.33,2.33,0,0,1,1.37-.14C209.92,75.26,212.13,79.41,210,79.72Z" style="fill:#997e65"/></g></g></svg>