<svg xmlns="http://www.w3.org/2000/svg" viewBox="0 0 267.9 209.16"><title>banggai-cardinalfish</title><g id="Layer_2" data-name="Layer 2"><g id="Ñëîé_2" data-name="Ñëîé 2"><path d="M177.13,113a7.46,7.46,0,0,1-1-1.58,6.5,6.5,0,0,1-.46-1.37,8.13,8.13,0,0,1-.17-1.71h0a13.58,13.58,0,0,1,.21-2.06l.15-.8a19.25,19.25,0,0,0-5,.12c-1.27.39-4.1.27-4.59.67s-3.71,0-4.88,0-1.47,1.85-1.08,2.73,1.84,1.47,3.4,1.58,4.38,1.18,6.24,1.59a15.52,15.52,0,0,1,4.09,1.29,24.34,24.34,0,0,0,4.39,1A11.08,11.08,0,0,1,177.13,113Zm-45.68,80.4a12.72,12.72,0,0,0,2.49,3.7C133.07,195.84,132.25,194.61,131.45,193.36Z" style="fill:#333947"/><path d="M179.87,87.55c-.23.16-.46.3-.7.45l0,0c-.26.16-.51.31-.78.45-.66.36-1.33.69-2,1l-.69.32-.44.19-.58.24-.55.23-1.34.55-.7.3-.73.31a30.32,30.32,0,0,0-3.54,1.78,1,1,0,0,0-.17.12l-.16.1a1.36,1.36,0,0,1-.23.14,6.67,6.67,0,0,1-.66.33l-.29.13-.33.14-.37.14A40,40,0,0,1,160.72,96l-.74.18c-.43.11-.88.21-1.36.31l-.78.17-2.08.38-.76.11c-1,.15-2,.28-3.08.39l-.77.08-.72.06-.76.05c-.34,0-.68,0-1,.06a65.06,65.06,0,0,1-12.87-.65C119,94.62,117.06,90.32,117,90.05c7.17,4,17.26,7.41,30.86,6.27,4.56-.38,11.09-2.08,18.83-4.47,1.28-.39,2.59-.81,3.93-1.24q2.4-.77,4.95-1.61L179,87.86Z" style="fill:#e6dfd9"/><path d="M150,118.09c2.13.42,7.26.77,9.92,2.94a47.1,47.1,0,0,0-15.42,1.12c-.85.2-1.67.41-2.46.62h0a56.05,56.05,0,0,0-11.08,4c-4.1,2.1-6.24,4.46-7.34,7.32a62.19,62.19,0,0,1-3.72,7c-1.11-.36-2.65-1.05-2.33-2,.49-1.46,1.87-4,0-6.24s-3.08-3.31-2.11-5a9.66,9.66,0,0,0,1.17-6.48c-.38-2.68-3.22-7.66-2.73-9.61s1.17-3.46,1.17-5.29-.68-4.17.59-3.79,3.22-.48,4.78,1.17,4,2.89,5.66,2.62a12.54,12.54,0,0,1,5.07,0c1.47.41,4-.29,5.86.4s2.72.2,4.39.59S154.51,109,155.58,109s1.56.88,3.7,2.24a9.24,9.24,0,0,0,2.81,1.07s-12.81-1.91-15.47.42-2.81,1.45-5.15,2.54.33,3,2.21,2.84A22.71,22.71,0,0,1,150,118.09Z" style="fill:#b1badb"/><path d="M267.9,70.58h0c0,.36-.28.77-.88,1.25a8,8,0,0,1-.81.56c-3.32,2-11.3,2-22.8,4.28h0l-2,.42L240,77.4h0l-1.21.29-1.22.29L236,78.4l-1.65.45-.92.26h0c-1.64.47-3.31,1-5,1.58l-.73.25-.74.26-2,.75-1,.36-.95.37-.62.25-.57.23-1.44.57-2.15.86L217.1,85l-2.09.81-1.39.54h0l-.44.17-1.65.64-1.33.52-.09,0-2.06.79-1,.37-.77.3-1.24.48-1.26.48-3,1.16-1.46.57s0,0,0,0l-2.15.86-.48.18-1,.43c-.67.26-1.31.52-1.95.79l-.78.31h0l-.57.24h0l-1.06.44-1,.44-.82.34-2.14.95c-.5.23-1,.44-1.43.67l-1.34.63-1.14.57h0L183,99l-1.12.6-.52.29-.52.29-1,.6h0l-.24.16c-.34.22-.66.44-.95.66l-.29.22a10.22,10.22,0,0,0-1,.81s-.51-.1-1.24-.21c-.37,0-.79-.1-1.23-.14l-.4,0a5.46,5.46,0,0,0-2.93.38c-1.37.92-3.42.34-5.86.53s-3.23.78-5.51,1.27-2.58,1.27-3.36,1.66a16.2,16.2,0,0,1-5.76.09,16.37,16.37,0,0,0-6-.87c-3.32,0-2.83-.88-6.54-.88a59.74,59.74,0,0,1-8.49-.29,43.1,43.1,0,0,1-8-1.51c-1-.44-4.48-1.61-4.77-2.2s-2.2-2-2.74-1.33c0,0-2.34,2.69-2.15,4.36s-.11,4.29,0,7.41-1,6.7.41,7.4,2.44,3.63,1.75,6.26-1.72,5.46.21,6.83,2.13,4.68,1.74,5.66-1.17,1.56-.48,2.82a16.25,16.25,0,0,0,2.8,3c-1.73,3.24-3.19,6.66-3,9.74,0,.06,0,.13,0,.19h0c0,.19,0,.36.06.54h0a.5.5,0,0,0,0,.13c0,.09,0,.18,0,.28a1,1,0,0,0,0,.17,2.27,2.27,0,0,0,.06.25c.05.24.12.5.2.79s.09.4.15.62c.16.65.34,1.41.55,2.26.07.28.15.57.23.88a.83.83,0,0,0,0,.15c0,.1,0,.2.07.3s.08.31.13.48.08.34.13.52.12.44.18.67.15.56.22.84.2.72.31,1.09c.21.75.43,1.52.67,2.33.12.4.25.81.38,1.23s.22.72.34,1.1.27.83.41,1.26q.75,2.33,1.68,4.82c.2.54.41,1.09.62,1.64,0,0,0,0,0,0h0c.13.35.27.7.41,1.05.44,1.12.91,2.25,1.41,3.4.24.56.49,1.13.76,1.7.14.32.29.65.45,1l.46,1c.31.66.64,1.32,1,2s.61,1.2.93,1.81c1.1,2.09,2.31,4.18,3.62,6.24l0,0a12.72,12.72,0,0,0,2.49,3.7h0a69.83,69.83,0,0,0,7.77,9.18s3.51,4.49-6.44,2.34S106,168,104.46,161.56c-1.09-4.48-3.78-8.77-7.88-10.17a14.73,14.73,0,0,1,2-3.78c.68-1.17.68-5.17,0-6.29s-1.07-3.07-1.72-4.34-.42-4.79-.07-7.51-.75-16.89-1.72-19-1-13.46-.88-15-1.36-3.9-1.95-4.58-1.17-5.37-1.56-8-.29-2.53-2-4.06-1.09-4.37-1.09-4.37A44.29,44.29,0,0,1,102,79.19,29.47,29.47,0,0,1,107.29,83a53.83,53.83,0,0,0,7.45,5.72c.43.28.87.55,1.33.82L117,90h0c.1.27,2,4.57,18.82,7.12a65.06,65.06,0,0,0,12.87.65c.34,0,.68,0,1-.06l.76-.05.72-.06.73-.07h0l.8-.08,1-.12h.1l.67-.1.55-.08c.45-.06.88-.13,1.3-.21l.53-.09,1-.19.78-.17c1.82-.39,3.4-.82,4.7-1.23l.56-.19a5.3,5.3,0,0,0,.52-.17l1.2-.45.37-.14.33-.14.29-.13.16-.07.16-.08.12-.06.17-.09.05,0a1.36,1.36,0,0,0,.23-.14l.16-.1a1,1,0,0,1,.17-.12l.34-.2q.27-.17.6-.33l.63-.33.47-.23.48-.22,1-.47.85-.36.48-.2.38-.16,1.06-.44.55-.23.58-.24.44-.19.69-.32q.35-.15.69-.33l.7-.35.07,0c.22-.11.43-.23.64-.35s.47-.26.69-.4.47-.29.7-.45l3.55-1.19L187.31,85l4.07-1.37,2.32-.78L197,81.78l2.71-.9,3.82-1.25c1-.32,2-.65,3-1l4.62-1.46,1.21-.37,3.35-1,2.1-.61h0c1-.3,2-.59,3-.86l1.8-.51c1.3-.36,2.6-.7,3.88-1h0c.73-.2,1.47-.38,2.2-.57l3.52-.86,2-.44c1.57-.35,3.12-.68,4.64-1,1.11-.22,2.21-.42,3.29-.6l2.67-.42,2.06-.28h0c1.26-.16,2.48-.29,3.68-.38.83-.07,1.64-.12,2.44-.17l1.36,0c.8,0,1.59,0,2.35,0,.95,0,1.88,0,2.77.12h0c.68,0,1.34.12,2,.2s1.24.18,1.83.3l.52,0a17.75,17.75,0,0,1,1.86.33C266.8,69.34,267.93,69.81,267.9,70.58Z" style="fill:#333947"/><path d="M98.61,147.61a15,15,0,0,0-2,3.78,8.23,8.23,0,0,0-2.13-.45,7.15,7.15,0,0,0,1.86-4c.29-3.37.15-5.12-.8-6.88s-1.26-1.9-1-4.1,0-4.24,0-7.17S93.39,114.29,93.24,112s-1.9-10.56-1.61-12.89,1.84-4.52,0-6.57S90.9,88.31,90,86.67a15.81,15.81,0,0,1-1.32-5.3C88.56,80.05,85.07,74,85.07,74c.89.11,1.75.23,2.6.37,0,0-.58,2.84,1.08,4.37s1.56,1.43,2,4.06,1,7.32,1.56,8,2,3,2,4.59-.1,12.87.87,15,2.08,16.29,1.73,19-.59,6.24.06,7.51,1,3.22,1.73,4.34S99.29,146.44,98.61,147.61Z" style="fill:#e6dfd9"/><path d="M96.31,146.93a7.15,7.15,0,0,1-1.86,4h0a10.41,10.41,0,0,0-4,.48c-6.52,2-18.91,1.14-24.91-.13l-.51-.11h0c-.66-.32-1.77-1.43-2.53-5.23-1.14-5.65-2-5.75-3-6.53s-3.9,1.26-4.58,1.26.19-1.07,1.27-3.41,2.63-4.78,2.63-6-.1-5.27-1.23-6-2.09,0-1.89-2.93,1.46-9.46,3.8-10.93,1.37-1.46.79-4.58,2.92-16.1,2.82-19,.78-6.64,0-8.61a8.52,8.52,0,0,1,0-4.66c3.23-.47,6.27-.75,9.11-.9a78.24,78.24,0,0,1,9.23,0c1.26.08,2.47.19,3.64.34,0,0,3.49,6,3.63,7.34A15.81,15.81,0,0,0,90,86.67c.88,1.64-.29,3.77,1.57,5.82s.33,4.24,0,6.57,1.46,10.55,1.61,12.89,1.32,13.91,1.31,16.83.3,5,0,7.17,0,2.34,1,4.1S96.6,143.56,96.31,146.93Z" style="fill:#b1badb"/><path d="M99.58,195.51c1.37,2.15,1,4.49-.59,4.88a2.58,2.58,0,0,0-1.69,2.42c-3.93-.27-13.49-2.09-20.74-12.86-9.37-13.9-21.88-34.24-19-34.53S68,178,78.13,186.73s-9.58-13.23-14.45-25.46,4.24,5.13,15.07,17.86,6.29,4.83,2.2,0-15.66-20.35-14.64-20.35,13,14.05,16.25,15.51-7.76-8.48-10-11.41-1.18-3.66,1.6-1.61,6.44,5.12,6.59,4.24S73.24,157,70.24,154.33a25.11,25.11,0,0,0,3.78.79c7.61,1,8.39,1.17,8.78,3.71s4.68,4.1,3.51,5.27.39.78.39,2.73,1.56,4.1,6,7.61,3.52,5.66,3.32,6.44.39,3.51,2.73,6.24.39,2.93.39,2.93l-3.5-1.16c.23.14,3.91,2.35,4.67,2.92S98.21,193.36,99.58,195.51Z" style="fill:#333947"/><path d="M96.07,207.81c-3.9,1.56-15.81-1-25.95-18.34S51.58,154.73,50.8,149.66c2.63-3.42,3.81-3.32,6.77-1.37A16.68,16.68,0,0,0,62,150.36c-.42.21,3.46,2.6,8.28,4,3,2.71,10.71,10.3,10.56,11.18s-3.8-2.19-6.59-4.24-3.8-1.32-1.6,1.61,13.17,12.88,10,11.41-15.22-15.51-16.25-15.51S76.85,174.29,81,179.13s8.63,12.72-2.2,0S58.81,149,63.68,161.27s24.58,34.24,14.45,25.46-17.67-31.61-20.56-31.31,9.62,20.63,19,34.53c7.25,10.77,16.81,12.59,20.74,12.86a3.56,3.56,0,0,0,.33,1.88C98.41,206.24,100,206.24,96.07,207.81Z" style="fill:#2b303a"/><path d="M65,151.18a15.78,15.78,0,0,1-1.89-.55h0a5.72,5.72,0,0,0-.63-.21c-.74-3.83-1-6.13-2.18-8.47s-4.59-.1-5.86.49-2.83-.1-.59-3.84a43.16,43.16,0,0,0,3.52-6.5c1.36-3-1-6-1.86-5.93s-1.65.27-1.66-1.19,2.35-13.66,4-14.44,1.86-2.93,1.57-4.88,1.75-11.22,2.54-16.14.58-8.35,0-10.32a10.63,10.63,0,0,1,0-4.49l1.16-.17a8.52,8.52,0,0,0,0,4.66c.78,2-.1,5.68,0,8.61s-3.41,15.88-2.82,19,1.55,3.12-.79,4.58-3.6,8-3.8,10.93.75,2.15,1.89,2.93,1.23,4.88,1.23,6-1.56,3.61-2.63,6-2,3.41-1.27,3.41,3.61-2.05,4.58-1.26,1.83.88,3,6.53C63.21,149.75,64.32,150.86,65,151.18Z" style="fill:#e6dfd9"/><path d="M62.45,150.42q-.39-.12-.48-.06h0a16.68,16.68,0,0,1-4.39-2.07c-3-1.95-4.14-2-6.77,1.37a48.13,48.13,0,0,1-9.36,1.39c.62-1,1.19-2.27.77-3-.78-1.27-3.22-1.95-1.17-4.29s4.1-6.54,3.91-7.81-2-3.71-.51-6.34,2.36-9.2,2.07-11.43-.47-10.13.05-12.57-.92-6,0-7.71-.78-1.85.13-4.1-.68-3.7.16-5.16.83-4.1,1.71-6,3.23-5.73,3.34-5.91h0c.63-.17,1.26-.33,1.91-.48s1.3-.3,2-.43c1.5-.31,3-.58,4.39-.82.6-.1,1.18-.2,1.76-.28a10.63,10.63,0,0,0,0,4.49c.58,2,.79,5.4,0,10.32s-2.83,14.19-2.54,16.14.09,4.1-1.57,4.88-4,13-4,14.44.79,1.31,1.66,1.19,3.22,2.9,1.86,5.93a43.16,43.16,0,0,1-3.52,6.5c-2.24,3.74-.68,4.42.59,3.84s4.69-2.83,5.86-.49S61.71,146.59,62.45,150.42Z" style="fill:#333947"/><path d="M45.54,90.29c.87,1.76-1,3.52,0,6.3s-.31,3.51-.3,6,.43,7,0,9.36.59,12.3-1.46,16.25a9,9,0,0,0,0,8.34c.44.58-5.13,7.9-4.39,10,.67,1.89,2.48,1.16.52,4.6h0A26.27,26.27,0,0,1,31.78,150c-3.71-2.29-4.69-5.31-2.74-6.29s1.27-2.34.2-4.2-.58-5.07-.88-7.22c-.21-1.52.37-9.54,1-15A11.4,11.4,0,0,0,35.46,103a12,12,0,0,0,1.1-3.39c.39-1.27-1.46-3-1.73-4.68s2.7-3.71,4.75-5.85,5.84-10.06,6-10.31h0c1.32-.5,2.66-1,4-1.36-.09.16-3.44,5.74-3,7.62S44.68,88.54,45.54,90.29Z" style="fill:#b1badb"/><path d="M46.85,88.69c-.84,1.46.73,2.92-.16,5.16s.79,2.35-.13,4.1.54,5.27,0,7.71-.34,10.34-.05,12.57-.59,8.8-2.07,11.43.31,5.07.51,6.34-1.86,5.47-3.91,7.81.39,3,1.17,4.29c.42.68-.15,1.94-.77,3l-1.53,0c2-3.44.15-2.71-.52-4.6-.74-2.05,4.83-9.37,4.39-10a9,9,0,0,1,0-8.34c2-3.95,1-13.91,1.46-16.25s0-6.87,0-9.36,1.32-3.22.3-6,.87-4.54,0-6.3,1.46-3.36,1-5.26,2.91-7.46,3-7.62h0c.77-.24,1.55-.47,2.33-.67-.11.18-2.49,4-3.34,5.91S47.68,87.22,46.85,88.69Z" style="fill:#e6dfd9"/><path d="M31.78,150c-.33-.1-.66-.22-1-.35h0c-.32-.19-6-3.64-4.69-5.2s3.78-1.61,2.26-4.1-.82-14.78,0-20.92c.08-.64.15-1.25.19-1.85a7.18,7.18,0,0,0,.81-.32c-.6,5.5-1.18,13.52-1,15,.3,2.15-.19,5.37.88,7.22s1.76,3.22-.2,4.2S28.07,147.71,31.78,150Z" style="fill:#e6dfd9"/><path d="M16.5,141.05A49.64,49.64,0,0,1,4.66,127.46c-.17-.3-.34-.6-.5-.9h0s0,0,0,0l0,0c-.26-.6-2.23-5.18-.59-5.18S6.9,127.46,9,127.76s2.34,2.19,3.66,5.12,3.95,3.41,5.85,5.72C19.94,140.41,20,142,16.5,141.05Z" style="fill:#e6dfd9"/><path d="M16.5,141a52.63,52.63,0,0,0,14.26,8.6c-.32-.19-6-3.64-4.69-5.2s3.78-1.61,2.26-4.1-.82-14.78,0-20.93c.08-.63.14-1.24.19-1.84a11.16,11.16,0,0,1-3.8.66,11.41,11.41,0,0,1-2.3-22.58c.6-2.25,2.65-2.71,4.38-4.43a17.11,17.11,0,0,0,3.05-4.55c-16,10.14-25.94,23.07-25.15,23.67,1.17.88,6.44,8.78,6.44,8.78.19.28.26.88,0,.88s-1.09-1.24-1.09-1.24-4.39-7.37-7.69-5.93-3.63,3.79,1.76,13.67c-.26-.61-2.23-5.18-.59-5.18S6.9,127.46,9,127.76s2.34,2.19,3.65,5.12,4,3.4,5.86,5.72C19.94,140.41,20,142,16.5,141ZM16,124.2c-.29,1.85-.29,3.31-.88,0s-4.36-5.37-3.94-7.91-1.13-4.39-2.1-6-1-2.24.48-2.93,1.66.1,2.64,2.64,1.56,4,1.94,4.33a11.82,11.82,0,0,0,1.62,1.56,3.41,3.41,0,0,0-.53,4.55C16.46,122.24,16.26,122.34,16,124.2Z" style="fill:#333947"/><path d="M16,124.2c-.29,1.85-.29,3.31-.88,0s-4.36-5.37-3.94-7.9-1.13-4.39-2.1-6-1-2.24.48-2.92,1.66.1,2.64,2.63,1.56,4,1.95,4.33a11,11,0,0,0,1.61,1.56,3.41,3.41,0,0,0-.53,4.55C16.46,122.24,16.26,122.34,16,124.2Z" style="fill:#e6dfd9"/><path d="M35.61,92.2C33.88,94,33,95.12,34.7,97.47a3.56,3.56,0,0,1,.28,4.39,11.39,11.39,0,0,0-10.26-6.44,11.65,11.65,0,0,0-2.3.23c.6-2.25,2.65-2.7,4.38-4.43a17,17,0,0,0,3.05-4.55h0a85.59,85.59,0,0,1,13.71-7.13C42.43,84.86,37.19,90.6,35.61,92.2Z" style="fill:#333947"/><path d="M45.54,78.77c-.12.25-3.94,8.19-6,10.31s-5,4.19-4.75,5.85,2.12,3.41,1.73,4.68a12,12,0,0,1-1.1,3.39,8.85,8.85,0,0,0-.48-1.14,3.56,3.56,0,0,0-.28-4.39c-1.75-2.35-.82-3.52.91-5.27s6.82-7.34,8-12.66C44.22,79.27,44.87,79,45.54,78.77Z" style="fill:#e6dfd9"/><path d="M223.21,12.35l-1.16-.51-2.45-1.05-2-.85c-1.44-.58-3-1.18-4.56-1.75-.79-.29-1.61-.57-2.43-.85-1.48-.5-3-1-4.57-1.39l-1.32-.35c-1.36-.34-2.73-.64-4.1-.89-.58-.11-1.16-.2-1.74-.29l-1.29-.17c-.33,0-.65-.08-1-.11-.69-.07-1.38-.12-2.06-.16s-1.33,0-2,0-1.18,0-1.76.05-.94.06-1.4.11c-.17,0-.35,0-.52.06l-1.59.17c-1.32.16-2.62.33-3.92.52l-1.58.25-2,.33c-1.1.21-2.2.44-3.3.68s-2.13.5-3.21.79c-1.32.35-2.67.75-4,1.19-1.1.35-2.2.74-3.31,1.17s-2,.76-2.94,1.17h0c-.72.3-1.43.62-2.16,1s-1.33.62-2,1-1.2.59-1.8.91c-1.72.9-3.48,1.88-5.28,3-.44.27-.88.53-1.32.81-.66.41-1.33.83-2,1.27l-1.44.95q-1.38.91-2.79,1.92l-1.08.77c-1.48,1-3,2.18-4.53,3.37l-2,1.57q-1.59,1.26-3.24,2.64c-.32.25-.63.52-.95.78l-.58.49-1.06.9-1,.89-1.08.93c-.35.31-.72.62-1.08,1l-1,.85c-.73.64-1.46,1.3-2.2,2l-.8.72c-.2.2-.41.39-.63.58l-1,.92L120.36,41l-1,1-.93.88,0,0,0,.05,0,0-.09.08c-.18.18-.48.48-.87.89s-.93,1-1.53,1.64l-.52.56c-.45.51-.94,1.06-1.46,1.67l-1.22,1.46-.2.25-.72.88-.92,1.2c-.51.66-1,1.36-1.53,2.07-.32.43-.63.88-.93,1.34l-.25.36c-.12.19-.25.37-.37.57l-.4.6-.59.95c-.12.19-.24.38-.35.58s-.33.55-.5.83-.33.58-.49.88-.31.56-.46.85l0,0c-.31.59-.61,1.18-.89,1.78l-.39.85c-.13.28-.25.56-.37.85l-.21.51c-.17.4-.32.8-.46,1.2l-.06.16c-.07.2-.14.4-.2.6s-.17.5-.24.75-.21.7-.3,1.05-.12.45-.17.67-.09.38-.13.58l0,.17c0,.2-.08.4-.11.61s-.1.6-.15.91h0c-.06.47-.1.94-.12,1.4a0,0,0,0,0,0,0c0,.12,0,.24,0,.37s0,.35,0,.53,0,.21,0,.32a14.88,14.88,0,0,0,.17,2.22,13.22,13.22,0,0,0,.77,3,44.29,44.29,0,0,0-14.3-4.79c-.84-.14-1.7-.26-2.59-.37l.07-.11s0,0,0-.06a.52.52,0,0,1,.07-.12.83.83,0,0,1,.08-.12l.45-.69.2-.3.1-.15.34-.53c.74-1.11,1.75-2.61,2.94-4.36l.46-.68.28-.41C91,65.2,92,63.79,93,62.33c1.15-1.63,2.36-3.31,3.6-5s2.45-3.26,3.66-4.8c.45-.57.89-1.13,1.34-1.66l.45-.56,1.34-1.6,0,0s0,0,0,0c1.08-1.11,2.21-2.24,3.36-3.39.58-.56,1.15-1.14,1.75-1.72l2.21-2.14c1.27-1.21,2.57-2.42,3.89-3.65q2.2-2,4.5-4c1.12-1,2.26-2,3.41-2.94s2.51-2.11,3.79-3.14c1-.8,2-1.59,3-2.37,1.36-1.07,2.74-2.12,4.12-3.14s3-2.18,4.49-3.23c.66-.45,1.32-.91,2-1.35q2-1.35,4-2.63c1.07-.67,2.14-1.33,3.22-2s2-1.18,3-1.74c1.33-.75,2.66-1.46,4-2.15,1.55-.79,3.09-1.54,4.64-2.24h0q2.67-1.22,5.35-2.24c1.4-.54,2.8-1,4.2-1.48,1-.33,2-.64,3.06-.92,1.37-.38,2.74-.71,4.11-1,1.64-.36,3.29-.64,4.93-.85C181.58.2,182.65.1,183.73,0L184,0s1.24,0,3.32.05l2.05.09c1.6.09,3.51.22,5.6.43,1.59.16,3.29.36,5.05.63,1.1.15,2.23.34,3.37.55h0c1.34.25,2.69.53,4,.85,1.07.25,2.15.53,3.22.83s1.83.55,2.74.86c1.32.44,2.63.94,3.89,1.49,1,.43,2,.91,2.93,1.42a26.1,26.1,0,0,1,2.4,1.42,23.3,23.3,0,0,1,2.31,1.7c.26.21.52.43.76.66.73.65,1.32,1.21,1.78,1.67C230.46,15.59,228.23,14.55,223.21,12.35Z" style="fill:#2b303a"/><path d="M103.4,48.72l-1.34,1.6-.45.56c-.45.53-.89,1.09-1.34,1.66-1.21,1.54-2.44,3.16-3.66,4.8s-2.45,3.36-3.6,5c-1,1.46-2,2.87-2.91,4.17l-.28.41-.46.68c-1.19,1.75-2.2,3.25-2.94,4.36l-.34.53-.1.15-.2.3-.45.69a.83.83,0,0,0-.08.12.52.52,0,0,0-.07.12s0,0,0,.06l-.07.11c-1.17-.15-2.38-.26-3.65-.34,0,0,2.55-3.35,7-8.62.9-1,1.88-2.19,2.94-3.4,1.3-1.48,2.72-3.07,4.24-4.74q2.05-2.25,4.35-4.67l1.46-1.54C102.1,50.06,102.74,49.39,103.4,48.72Z" style="fill:#e6dfd9"/><path d="M124.67,83.86c-.76,1-9.93,4.84-9.93,4.84A53.66,53.66,0,0,1,107.29,83,28.31,28.31,0,0,0,102,79.2a13.3,13.3,0,0,1-.77-3c2.38,1.17,3.57-2.63,3.57-2.63,4.07-9.66,14.23-24.88,15.55-26s1,1.17-2.24,5.34-11.51,18.22-12.83,21.92.44,4.94,1.32,4.38,6.73-13.64,9.51-17.88,3.66-2,2.49-1.41-7,11.65-9.37,16.81-.73,4.5-.63,4.21,12.63-17.12,12.78-15.66S113,77.56,111.24,79.91s-1.46,3.65-.59,3.21,12-12.14,12.73-12S118,78,113.77,81.81s-1.51,4.09,0,3.07,10.2-9.07,11-8.16-1.19,1.57-6.65,6.26-4.58,4.9-2.73,3.69S125.43,82.83,124.67,83.86Z" style="fill:#333947"/><path d="M132.43,35.85c-1.88.59-2.17,2.52-3.63,3.75s-1.32,3.28-2.78,4.16.73.88-1.17,2.49-.15,1.9-2,3.51-.88,2.63-1.47,3.36.3,3.52,0,4.69,3.81,7.75,3.08,8.34,1.46,3.07,1,4.09,2.37,2.05,1.77,3.08.45,2.92,0,3.8.72,0,.43,2.07a10.29,10.29,0,0,0,.44,5.1c.58,2.34-4.25,4-12,5.23-.46-.27-.9-.54-1.33-.82,0,0,9.16-3.82,9.93-4.85s-7.49,1.61-9.34,2.81-2.72,1,2.74-3.68,7.4-5.34,6.65-6.26-9.45,7.13-11,8.16-4.21.73,0-3.07,10.34-10.54,9.61-10.69-11.85,11.56-12.73,12-1.17-.86.59-3.21c.42-.57,1.24-1.64,2.24-3l.81-1.06c.76-1,1.59-2.12,2.4-3.22.35-.46.69-.93,1-1.39,2-2.81,3.69-5.36,3.62-6s-2.13,1.8-4.6,4.88l-.28.35c-1,1.32-2.15,2.75-3.2,4.11L112.17,76c-2,2.66-3.58,4.79-3.61,4.9-.1.29-1.71.95.63-4.21.24-.53.51-1.11.81-1.75l.93-1.87c.56-1.12,1.17-2.33,1.8-3.53l.79-1.49c.8-1.49,1.59-2.92,2.31-4.16.28-.49.55-1,.81-1.37a10.82,10.82,0,0,1,1.91-2.64c1.17-.64.29-2.84-2.48,1.41-1.54,2.34-4,7.36-6,11.48l-.86,1.72a26.85,26.85,0,0,1-2.61,4.67c-.87.57-2.63-.67-1.31-4.37a19.61,19.61,0,0,1,.89-2c.3-.63.66-1.33,1.06-2.09s1-1.77,1.49-2.74l.55-1c.56-1,1.13-2,1.73-3l.73-1.23c.57-1,1.15-1.92,1.71-2.83l.88-1.41c1.17-1.85,2.25-3.49,3.11-4.69.24-.34.47-.64.68-.9s.38-.5.55-.74c2.74-3.7,2.93-5.7,1.69-4.6a90.77,90.77,0,0,0-6.81,10l-1.16,1.87c-2.1,3.47-4.26,7.25-6,10.69-.39.77-.74,1.52-1.07,2.25l-.56,1.28s-1.19,3.79-3.57,2.63A14.88,14.88,0,0,1,101,74c0-.11,0-.21,0-.32s0-.35,0-.53,0-.25,0-.37a0,0,0,0,1,0,0c0-.46.06-.93.12-1.4h0c0-.31.09-.61.15-.91s.07-.41.11-.61l0-.17c0-.2.08-.38.13-.58s.11-.44.17-.67.19-.7.3-1.05.15-.5.24-.75.13-.4.2-.6l.06-.16c.14-.4.29-.8.46-1.2l.21-.51c.12-.29.24-.57.37-.85l.39-.85c.28-.6.58-1.19.89-1.78l0,0c.15-.29.3-.57.46-.85s.32-.59.49-.88.33-.56.5-.83.23-.39.35-.58l.59-.95.4-.6c.12-.2.25-.38.37-.57l.25-.36c.3-.46.61-.91.93-1.34.51-.71,1-1.41,1.53-2.07l.92-1.2.72-.88.2-.25,1.22-1.46c.52-.61,1-1.16,1.46-1.67l.52-.56c.6-.66,1.12-1.22,1.53-1.64s.69-.71.87-.89l.09-.08,0,0,0-.05,0,0,.93-.88,1-1L122,39.5l1-.92c.22-.19.43-.38.63-.58l.8-.72c.74-.67,1.47-1.33,2.2-2l1-.85c.36-.33.73-.64,1.08-1l1.08-.93,1-.89,1.06-.9.58-.49a13.59,13.59,0,0,1,.44,1.37C133.28,33.19,133.67,35.47,132.43,35.85Z" style="fill:#e6dfd9"/><path d="M91,31.9a7.09,7.09,0,0,0-3.6,3.91,3.94,3.94,0,0,1-.25.66,1.15,1.15,0,0,1-.12.25,2.29,2.29,0,0,1-.18.29c-.06.09-.13.17-.2.26l-.22.23-.12.11a1.84,1.84,0,0,1-.22.17,1,1,0,0,1-.13.09,5.91,5.91,0,0,1-.56.33c-.33.17-.71.33-1.14.51l-.43.17-.11,0-1.58.67a3.68,3.68,0,0,0-1.08.79,9.09,9.09,0,0,0-.7.77l-.22.27,0,0a1,1,0,0,0-.09.13,3,3,0,0,0-.27.35c-.1.12-.18.25-.28.38s-.37.54-.55.83-.2.29-.29.44c-.22.34-.44.71-.66,1.08C77.13,46,76.31,47.54,75.51,49l-.38.73A2.69,2.69,0,0,0,75,50l-.42.79c-.21.38-.41.76-.6,1.13l-1.06,1.95-.18.31a4.16,4.16,0,0,1-.23.42,1,1,0,0,1-.1.17l-.16.29-.34.56c-.09.15-.18.28-.26.42l-.2.3a2.48,2.48,0,0,1-.19.26h0c0,.08-.11.15-.17.23a1,1,0,0,1-.17.19q-.31.38-.63.78l-.42.59-.27.4c-.17.26-.33.53-.48.8-.06.09-.11.19-.16.28h0c-.22.4-.44.82-.64,1.24-.07.13-.13.26-.2.4s0,0,0,0c-.13.26-.25.54-.37.81,0,.11-.09.22-.13.33-.12.27-.22.53-.33.8a.25.25,0,0,0,0,.07c-.17.43-.32.86-.46,1.29s-.23.68-.33,1-.19.66-.28,1l0,.13a6.21,6.21,0,0,1-.35.91,12.1,12.1,0,0,1-.9,1.53c-.11.17-.23.33-.34.49l-.4.54-.44.55c-.19.25-.4.51-.6.75l-.5.58c-.84,1-1.7,1.87-2.42,2.61-1.43.24-2.89.51-4.4.82-.65.13-1.31.28-2,.43,0,0,7.41-19.66,18-32.11.53-.63,1.07-1.24,1.62-1.82s1-1.07,1.53-1.56.8-.77,1.2-1.13a28.27,28.27,0,0,1,3.16-2.45,20.83,20.83,0,0,1,2.1-1.26h0l2.36-1.18c1-.47,1.85-.87,2.65-1.22A27.26,27.26,0,0,1,91,31.9Z" style="fill:#2b303a"/><path d="M95.29,38.64c.19,2-8.78.3-12.49,4.93S73.63,68.3,73.63,70.25a6,6,0,0,1-1.43,3.39c-2.84.15-5.88.43-9.11.9l-1.16.17c-.58.08-1.16.18-1.76.28,2.09-2.13,5.36-5.73,6-8,.88-3.32,2.53-7.42,4.78-10s7.9-16,11.22-17.48,4.58-1.55,5.27-3.79A7,7,0,0,1,91,31.91s0,0,0,0c4.84-1.11,3.88,2,4.3,3.21C95.87,36.88,95.09,36.69,95.29,38.64Z" style="fill:#e6dfd9"/><path d="M31.36,105.94a9.85,9.85,0,0,0-2.42,6,7.35,7.35,0,0,1-12.19-4.34h0a33.25,33.25,0,0,1,2.67-3.15,12.35,12.35,0,0,0,2.24-4.94A7.12,7.12,0,0,1,24,99.06,7.35,7.35,0,0,1,31.36,105.94Z" style="fill:#231f20"/><path d="M28.94,111.89c-.2,1.7-.23,3.58-.42,5.68a11.16,11.16,0,0,1-3.8.66,11.39,11.39,0,0,1-8.33-3.62,8.49,8.49,0,0,0-1.1-3.39c-.37-.78.42-2.25,1.46-3.67a7.35,7.35,0,0,0,12.19,4.34Z" style="fill:#414959"/><path d="M22.42,95.65c0,.17-.08.35-.11.55a31.09,31.09,0,0,1-.65,3.25,7.35,7.35,0,0,0-5,7,6.86,6.86,0,0,0,.09,1.12h0c-1,1.42-1.83,2.89-1.46,3.67a8.49,8.49,0,0,1,1.1,3.39,11.4,11.4,0,0,1,6-19Z" style="fill:#8f9abf"/><path d="M35,101.86a15.94,15.94,0,0,1-3.06,3.51,6,6,0,0,0-.56.57A7.35,7.35,0,0,0,24,99.06a7.12,7.12,0,0,0-2.36.39,31.09,31.09,0,0,0,.65-3.25c0-.2.07-.38.11-.55a11.65,11.65,0,0,1,2.3-.23A11.39,11.39,0,0,1,35,101.86Z" style="fill:#414959"/><path d="M36.12,106.83a11.39,11.39,0,0,1-6.79,10.42,7.18,7.18,0,0,1-.81.32c.19-2.1.22-4,.42-5.68a7.34,7.34,0,0,0,2.44-5.47c0-.16,0-.33,0-.48a6,6,0,0,1,.56-.57A15.94,15.94,0,0,0,35,101.86a8.85,8.85,0,0,1,.48,1.14A11.29,11.29,0,0,1,36.12,106.83Z" style="fill:#8f9abf"/><path d="M31.38,106.42a7.34,7.34,0,0,1-2.44,5.47,9.85,9.85,0,0,1,2.42-6C31.37,106.09,31.38,106.26,31.38,106.42Z" style="fill:#2b2b2b"/><path d="M21.66,99.45a12.35,12.35,0,0,1-2.24,4.94,33.25,33.25,0,0,0-2.67,3.15,6.86,6.86,0,0,1-.09-1.12A7.35,7.35,0,0,1,21.66,99.45Z" style="fill:#2b2b2b"/><path d="M65,151.18a.88.88,0,0,0,.51.11Z" style="fill:#333947"/><path d="M63.08,150.63a7,7,0,0,1-1.11-.27Z" style="fill:#333947"/><path d="M108.56,43.56l-1.74,1.74-3.37,3.37c1.14-1.33,2.24-2.52,3.24-3.49A21.81,21.81,0,0,1,108.56,43.56Z" style="fill:#333947"/><path d="M128.65,129.47s14.34,3.12,14.44,3.9-15.22-2.64-15.22-2.64,12,5.37,11.56,6.44-12.24-6.24-12.73-5.36,4.69,5.27,8.49,8.68,2,3.42-1.24.83-8-7.95-9.39-6,7.61,9.37,9.56,10.83,1.46,2.63.49,1.76-9.66-8.4-10.64-8.78-2.53,1.17-1.07,3.12,11.08,10.14,11,10.82-10.84-10.16-12.22-9.55c-.48.2-.63.66-.55,1.29a16.55,16.55,0,0,0,2.11,4.95c1.56,2.83,8.8,11.22,9.13,12.29s-6.21-5.86-8.94-10-3.8-5.9-5.26-3.76,8.58,17.66,11.41,22,.68,3.51-1.76,0-9-14.43-9.36-15.41-.88.88,1.36,7.51,10.93,17.66,11.9,19-2.05-.48-5.17-4.77-4-6.25-4.09-5.27,6.54,14.51,11,19-.09,2.25-1.66,0-4.12-5.63-4.28-5.84a94.82,94.82,0,0,0,3.84,8.83c-10.32-16.24-14.07-34.15-15.36-39.18-.89-3.46.77-7.52,2.8-11.33.32-.61.66-1.21,1-1.8a61.33,61.33,0,0,0,3.72-7c1.1-2.86,3.25-5.22,7.34-7.32,0,0,10.8-1.65,11.1-1.17s-12.39,2.83-12.39,2.83,13.76.49,14.05,1.08S128.65,129.47,128.65,129.47Z" style="fill:#2b303a"/><path d="M137.58,148.78c-1.76,4.59-5.06,11-3.63,12.78s-.7,1.17,0,2.93-1,1.75-.35,3.66-1.82,11,.35,12.87.26,4.54,1.14,5.71-1,.59.59,3.22-.15,1.47,1.75,4,4.29,12.34,4.29,12.34a71.4,71.4,0,0,1-7.77-9.18h0c-.87-1.22-1.69-2.45-2.49-3.7,0,0,0,0,0,0a94.82,94.82,0,0,1-3.84-8.83c.16.21,2.77,3.67,4.28,5.84s6.15,4.52,1.66,0-11.12-18.05-11-19,1,1,4.09,5.27,6.15,6.14,5.17,4.77-9.66-12.38-11.9-19-1.75-8.49-1.36-7.51,6.92,11.9,9.36,15.41,4.59,4.3,1.76,0-12.88-19.8-11.41-22,2.53-.38,5.26,3.76,9.27,11.07,8.94,10-7.57-9.46-9.13-12.29a16.55,16.55,0,0,1-2.11-4.95c-.08-.63.07-1.09.55-1.29,1.38-.61,12.19,10.24,12.22,9.55s-9.59-8.88-11-10.82.09-3.52,1.07-3.12,9.66,7.9,10.64,8.78,1.46-.3-.49-1.76-10.93-8.88-9.56-10.83,6.14,3.41,9.39,6,5.05,2.58,1.24-.83-9-7.8-8.49-8.68,12.3,6.44,12.73,5.36-11.56-6.44-11.56-6.44,15.32,3.42,15.22,2.64-14.44-3.9-14.44-3.9,15.32.58,15,0-14.05-1.08-14.05-1.08,12.68-2.34,12.39-2.83-11.1,1.17-11.1,1.17a56.05,56.05,0,0,1,11.08-4h0c.19.12,4.61,2.72,3.33,3.4s.9,2.47.23,2.9.64,1.32.13,2.79S139.34,144.21,137.58,148.78Z" style="fill:#e6dfd9"/><path d="M181.09,116.27c-3.59-.4-8.33-1.56-9.12-1.65-1-.12-3.12-1.64-4.78-1.71s-5.76-.32-7.91-1.69-2.63-2.24-3.7-2.24-12.59-1.17-14.24-1.56-2.54.1-4.39-.59-4.39,0-5.86-.41a12.72,12.72,0,0,0-5.07,0c-1.66.27-4.1-1-5.66-2.62s-3.51-.77-4.78-1.17-.58,2-.58,3.79-.69,3.34-1.17,5.29,2.34,6.93,2.72,9.61a9.6,9.6,0,0,1-1.17,6.48c-1,1.67.2,2.74,2.11,5s.53,4.78,0,6.25c-.31.94,1.22,1.63,2.33,2-.33.59-.67,1.19-1,1.8a17,17,0,0,1-2.8-3c-.69-1.26.1-1.85.48-2.82s.2-4.29-1.73-5.66-.9-4.19-.22-6.83-.39-5.56-1.75-6.26-.29-4.28-.41-7.4.22-5.75,0-7.41,2.14-4.36,2.14-4.36c.54-.68,2.45.75,2.74,1.33s3.8,1.76,4.77,2.2a43.08,43.08,0,0,0,8,1.51,59.6,59.6,0,0,0,8.48.29c3.71,0,3.22.88,6.54.88a16,16,0,0,1,6,.88,16.44,16.44,0,0,0,5.76-.1c.78-.39,1.07-1.17,3.36-1.66s3.08-1.07,5.51-1.26,4.49.38,5.86-.54,5.8,0,5.8,0a4.24,4.24,0,0,0-1.31,2c-.07.29-.13.57-.18.85a19.23,19.23,0,0,0-5,.13c-1.27.38-4.1.27-4.59.66s-3.71,0-4.88,0-1.47,1.85-1.08,2.73,1.84,1.47,3.4,1.58,4.38,1.19,6.24,1.59a15.91,15.91,0,0,1,4.09,1.29,25,25,0,0,0,4.4,1h0A19.16,19.16,0,0,0,181.09,116.27Z" style="fill:#e6dfd9"/><path d="M183.72,117.74h0c-1-.5-1.84-1-2.6-1.47a17.58,17.58,0,0,0,2.29.12s23.83,2.34,24.75,3.32S184.69,118,183.72,117.74Z" style="fill:#333947"/><path d="M225,136.08h0l-4.45-1.87c.56.06,8.94,1,9.79,1.2S225.21,136.06,225,136.08Z" style="fill:#333947"/><path d="M210.91,130.05h0l-4.56-2s16,2.23,16.87,2.71S211.6,130.11,210.91,130.05Z" style="fill:#333947"/><path d="M196.82,123.74l-6.77-3.07c.74.12,24.31,4.22,25,5.09S199.14,122.71,196.82,123.74Z" style="fill:#333947"/><path d="M203.09,115.22c-2.05-.39-26-2.26-26-2.26a7.83,7.83,0,0,1-1-1.57s3.44.61,15.73.9S205.14,115.61,203.09,115.22Z" style="fill:#333947"/><path d="M212.55,94.83c-1,.39-31.75,5.74-32.71,5.91a40.47,40.47,0,0,1,3.56-2h0C201.73,95.31,213.53,94.44,212.55,94.83Z" style="fill:#333947"/><path d="M219.68,90.25c-.48.38-25.92,4.07-26.72,4.18,1.36-.56,2.78-1.13,4.25-1.71C213.08,90.31,220.16,89.86,219.68,90.25Z" style="fill:#333947"/><path d="M223.7,86.64c-.29.36-17.38,2.53-17.38,2.53l3.88-1.49S224,86.27,223.7,86.64Z" style="fill:#333947"/><path d="M230.31,135.41c-.85-.18-9.23-1.14-9.79-1.2h0c-3.2-1.35-6.43-2.76-9.6-4.16.69.06,13.13,1.16,12.28.68S206.32,128,206.32,128c-3.37-1.5-6.59-3-9.5-4.28,2.32-1,18.86,2.89,18.19,2s-24.22-5-25-5.09h0l-3.43-1.54c-1.06-.46-2-.92-2.88-1.38,1,.24,25.31,2.93,24.41,2s-24.75-3.32-24.75-3.32a17.58,17.58,0,0,1-2.29-.12,19.16,19.16,0,0,1-2.59-1.89h0a10.58,10.58,0,0,1-1.37-1.42s23.91,1.87,26,2.26,1.07-2.63-11.22-2.93-15.73-.9-15.73-.9a6.78,6.78,0,0,1-.46-1.38s22.44-1.32,24.29-2.69-16,1.29-24.45,1a13.58,13.58,0,0,1,.21-2.07s30.68-5.07,32.34-6.33c1.4-1.08-22.59,3-29.91,4.32l-2.09.36a4.24,4.24,0,0,1,1.31-2,15.75,15.75,0,0,1,2.43-1.85h0c1-.17,31.76-5.52,32.71-5.91s-10.82.48-29.14,3.89c2.64-1.35,5.87-2.77,9.53-4.28h0c.8-.11,26.24-3.8,26.72-4.18s-6.6.06-22.47,2.47c2.87-1.14,5.93-2.33,9.11-3.55,0,0,17.09-2.17,17.38-2.53s-13.5,1-13.5,1c3.94-1.52,8-3.1,12.11-4.75A116.39,116.39,0,0,1,240,77.41c-.15.07-2.38,1.36-2.29,2.49s-4.19,1.08-4.19,2.25-3.32.78-3.71,2.14-5.75,1.95-5.75,3.42-2.35,2.63-3.52,3.22-1.65,2.34-3,2.54-.88,1.36-2.24,2-3.12,5.46-6.34,5.85-4,4.29-4.59,4.58-.59,1.57,0,3.52,1.66,2.63,1.46,3.31,2.34,1.47,3.13,3.42,3.31,3.22,4.77,5.26,3.52,1,3.81,3.32,2.15,1,3,2.35,3.32,1.65,3.81,2.53,6.63,2.15,7.8,4.58,3.71.2,5.27,2.74,2.93,1.17,3.9,2.44,5.1,2.5,6.21,4.32c-4.21-.47-12.9-3.66-22.57-7.66C225.21,136.06,231.17,135.61,230.31,135.41Z" style="fill:#e6dfd9"/><path d="M200,107.32c-1.85,1.37-24.29,2.69-24.29,2.69a7.48,7.48,0,0,1-.16-1.7h0C184,108.61,201.82,106,200,107.32Z" style="fill:#333947"/><path d="M208.07,99.91c-1.66,1.26-32.34,6.33-32.34,6.33.05-.26.1-.53.16-.8s.11-.56.18-.85l2.09-.36C185.48,102.94,209.47,98.83,208.07,99.91Z" style="fill:#333947"/><path d="M28.56,104.6a2.59,2.59,0,1,1,2.59,2.58A2.59,2.59,0,0,1,28.56,104.6Z" style="fill:#e6dfd9"/><path d="M15.54,107.18a1.62,1.62,0,1,1,1.62,1.62A1.62,1.62,0,0,1,15.54,107.18Z" style="fill:#e6dfd9"/><path d="M250.51,148.13a16.25,16.25,0,0,1-2.94.68,27.8,27.8,0,0,1-3.12.25c-.69,0-1.43,0-2.2,0-.94,0-1.95-.08-3-.17l-1.9-.21-.79-.1c-.86-.13-1.76-.28-2.7-.47-.45-.08-.91-.18-1.38-.28-.75-.16-1.53-.34-2.32-.53-1.33-.33-2.72-.69-4.13-1.09-1-.28-2-.57-3-.88l-2-.62c-1.23-.4-2.48-.81-3.75-1.24l-1.53-.53c-.82-.28-1.63-.57-2.45-.87s-1.39-.49-2.08-.75l-3.13-1.18c-.73-.27-1.46-.55-2.18-.84l-2-.79c-.73-.28-1.45-.57-2.16-.86l-2.47-1-3-1.27L193.08,134c-.74-.33-1.47-.64-2.17-1s-1.25-.55-1.85-.83l-2.48-1.14c-1.18-.54-2.28-1.06-3.29-1.55-1.29-.63-2.43-1.2-3.4-1.71s-1.86-1-2.46-1.37a2.2,2.2,0,0,0-.26-.15,21.52,21.52,0,0,0-2.09-1.14c-.77-.39-1.58-.75-2.46-1.11s-2.12-.8-3.26-1.15c-.89-.28-1.82-.53-2.77-.76-1.14-.27-2.31-.51-3.54-.7-.78-.12-1.57-.24-2.39-.32l-.78-.08c-2.66-2.17-7.79-2.52-9.92-2.94a22.71,22.71,0,0,0-6.28,0c-1.88.13-4.55-1.74-2.21-2.84s2.49-.21,5.15-2.54,15.47-.42,15.47-.42l.54.12.46.09h.12l.39.06.38.06.29,0,.52.06.17,0,.33,0,.33,0,.41,0h.21l.42,0,.36,0h.17c1.66.07,3.8,1.59,4.78,1.7l.11,0,.34.07.21,0,.33.06h0l.31.07.48.1.47.1,2.2.44,1.08.21a.51.51,0,0,1,.17,0l1.2.2.61.09.8.12.77.1,1,.59c.29.17.59.34.9.5s.46.25.71.37h0c.43.23.89.46,1.37.69l0,0,1.46.67.72.32,2.5,1.13h0l.21.09h0l.67.3h0l2.27,1h0l1.59.72,1.6.72.62.29.65.29,3.46,1.57.66.3.68.3h0l2.17,1,1.87.83a0,0,0,0,1,0,0l2.81,1.25,1.51.67.24.1h0l2,.89,2.63,1.15,2,.88,1.93.81,1,.43h0l2.76,1.17,1.69.7h0l.9.37h0l2.94,1.2.6.24,1.72.68.15.06c1.08.42,2.14.83,3.16,1.21l.55.21h0c.83.3,1.63.6,2.41.87l.88.31,1.43.49.79.25.58.19.65.21.64.19c.62.19,1.22.36,1.78.5l.55.14.36.09.34.08.34.07.69.14.42.07.67.09a9.29,9.29,0,0,0,1.11.07C254.14,143.68,255.08,146.59,250.51,148.13Z" style="fill:#333947"/><path d="M5.57,115c-.18.54-1,.26-2-.08s-1.86-.6-1.68-1.14S3,113.05,4,113.39,5.75,114.44,5.57,115Z" style="fill:#e6dfd9"/><path d="M9.25,112.49c.47.75.57,1.54.22,1.76s-1-.22-1.48-1-.57-1.53-.22-1.75S8.78,111.74,9.25,112.49Z" style="fill:#e6dfd9"/><path d="M67.42,112.24a1.54,1.54,0,1,1-1.53-1.67A1.6,1.6,0,0,1,67.42,112.24Z" style="fill:#e6dfd9"/><path d="M68,98.79a.81.81,0,1,1-.81-.89A.85.85,0,0,1,68,98.79Z" style="fill:#e6dfd9"/><path d="M76.13,103.71c0,.4-.43.72-.95.72s-1-.32-1-.72.42-.71,1-.71S76.13,103.32,76.13,103.71Z" style="fill:#e6dfd9"/><path d="M74.23,87.2a.93.93,0,1,1-.92-1.07A1,1,0,0,1,74.23,87.2Z" style="fill:#e6dfd9"/><path d="M66.84,90.74c0,.37-.42.66-.93.66s-.93-.29-.93-.66.41-.65.93-.65S66.84,90.38,66.84,90.74Z" style="fill:#e6dfd9"/><path d="M78.4,121.09a.77.77,0,1,1-.77-.71A.75.75,0,0,1,78.4,121.09Z" style="fill:#e6dfd9"/><path d="M65,124.12a1.51,1.51,0,1,1-1.51-1.35A1.44,1.44,0,0,1,65,124.12Z" style="fill:#e6dfd9"/><path d="M70.79,134.06a.89.89,0,1,1-.88-1A.93.93,0,0,1,70.79,134.06Z" style="fill:#e6dfd9"/><path d="M61,136.69a.83.83,0,0,1-1.66,0,.83.83,0,0,1,1.66,0Z" style="fill:#e6dfd9"/><path d="M72.94,120.37a1.52,1.52,0,1,1-1.52-1.43A1.48,1.48,0,0,1,72.94,120.37Z" style="fill:#e6dfd9"/><ellipse cx="64.29" cy="105.18" rx="1.21" ry="0.75" style="fill:#e6dfd9"/><path d="M125.52,116.67a1.19,1.19,0,1,1-1.17-1.42A1.31,1.31,0,0,1,125.52,116.67Z" style="fill:#e6dfd9"/><path d="M134.15,122.18a1.1,1.1,0,1,1-1.1-1.09A1.1,1.1,0,0,1,134.15,122.18Z" style="fill:#e6dfd9"/><path d="M139,118.8a.7.7,0,1,1-.69-.71A.7.7,0,0,1,139,118.8Z" style="fill:#e6dfd9"/><ellipse cx="129.21" cy="120.5" rx="0.54" ry="0.59" style="fill:#e6dfd9"/><path d="M119.08,184.25a.86.86,0,1,1-1.68,0,.86.86,0,1,1,1.68,0Z" style="fill:#e6dfd9"/><path d="M125,194.28a1,1,0,1,1-1-.95A1,1,0,0,1,125,194.28Z" style="fill:#e6dfd9"/><path d="M125,187.22a.79.79,0,0,1-1.54,0,.79.79,0,0,1,1.54,0Z" style="fill:#e6dfd9"/><ellipse cx="124.53" cy="180.49" rx="1.06" ry="0.91" style="fill:#e6dfd9"/><path d="M124,175.55a.87.87,0,1,1-.86-.72A.8.8,0,0,1,124,175.55Z" style="fill:#e6dfd9"/><ellipse cx="119.96" cy="168.01" rx="0.88" ry="0.66" style="fill:#e6dfd9"/><path d="M117.4,162.85c0,.43-.49.77-1.1.77s-1.1-.34-1.1-.77.49-.77,1.1-.77S117.4,162.43,117.4,162.85Z" style="fill:#e6dfd9"/><path d="M119.08,172.33a.84.84,0,1,1-.84-.81A.82.82,0,0,1,119.08,172.33Z" style="fill:#e6dfd9"/><path d="M131.45,198.52a.85.85,0,1,1-.85-.88A.86.86,0,0,1,131.45,198.52Z" style="fill:#e6dfd9"/><path d="M135.18,205.14a.93.93,0,1,1-.92-.76A.85.85,0,0,1,135.18,205.14Z" style="fill:#e6dfd9"/><path d="M138.47,205.86c0,.21-.23.38-.51.38s-.51-.17-.51-.38a.53.53,0,0,1,1,0Z" style="fill:#e6dfd9"/><path d="M128.06,186.42a1.24,1.24,0,1,1-1.24-1.14A1.19,1.19,0,0,1,128.06,186.42Z" style="fill:#e6dfd9"/><path d="M117.4,153a.79.79,0,1,1-.79-.82A.8.8,0,0,1,117.4,153Z" style="fill:#e6dfd9"/><path d="M115.2,148a1.14,1.14,0,1,1-1.13-1.07A1.1,1.1,0,0,1,115.2,148Z" style="fill:#e6dfd9"/><path d="M114.59,156.84a1.24,1.24,0,1,1-1.22-1A1.13,1.13,0,0,1,114.59,156.84Z" style="fill:#e6dfd9"/><path d="M118.07,159.52a.92.92,0,1,1-.88-.68A.81.81,0,0,1,118.07,159.52Z" style="fill:#e6dfd9"/><path d="M114.59,167.71a.84.84,0,1,1-1.66,0,.84.84,0,1,1,1.66,0Z" style="fill:#e6dfd9"/><path d="M121.71,179.27a1.32,1.32,0,1,1-1.31-1.21A1.27,1.27,0,0,1,121.71,179.27Z" style="fill:#e6dfd9"/><ellipse cx="127.75" cy="192.67" rx="0.92" ry="0.66" style="fill:#e6dfd9"/><path d="M131.45,202.19c0,.34-.38.62-.85.62s-.85-.28-.85-.62.38-.62.85-.62S131.45,201.85,131.45,202.19Z" style="fill:#e6dfd9"/><path d="M171.47,92.28A2.31,2.31,0,0,1,169,94.43a2.54,2.54,0,0,1-1.78-.69,2,2,0,0,1-.66-1.46,1.49,1.49,0,0,1,.06-.43c1.28-.39,2.59-.81,3.93-1.24a2.23,2.23,0,0,1,.77,1A2,2,0,0,1,171.47,92.28Z" style="fill:#e6dfd9"/><path d="M179.83,89.15c0,.88-1,1.59-2.16,1.59a2.27,2.27,0,0,1-2-1,1.21,1.21,0,0,1-.18-.63.77.77,0,0,1,0-.15L179,87.86a1.64,1.64,0,0,1,.22.14A1.43,1.43,0,0,1,179.83,89.15Z" style="fill:#e6dfd9"/><path d="M187.81,86.14a2,2,0,0,1-2.2,1.74,2.1,2.1,0,0,1-2.19-1.52L187.31,85A1.53,1.53,0,0,1,187.81,86.14Z" style="fill:#e6dfd9"/><path d="M193.81,83.53A1.36,1.36,0,0,1,192.59,85a1.33,1.33,0,0,1-1.21-1.32l2.32-.78A1.91,1.91,0,0,1,193.81,83.53Z" style="fill:#e6dfd9"/><path d="M200.1,81.52c0,.57-.7,1-1.56,1a1.57,1.57,0,0,1-1.5-.77l2.71-.9A.84.84,0,0,1,200.1,81.52Z" style="fill:#e6dfd9"/><path d="M206.69,79.18a1.49,1.49,0,0,1-1.61,1.32,1.61,1.61,0,0,1-1.51-.87c1-.32,2-.65,3-1A1.14,1.14,0,0,1,206.69,79.18Z" style="fill:#e6dfd9"/><path d="M212.61,77.57c0,.57-.33,1-.74,1s-.74-.46-.74-1a1.36,1.36,0,0,1,.05-.36l1.21-.37A1.31,1.31,0,0,1,212.61,77.57Z" style="fill:#e6dfd9"/><path d="M218.15,75.75c0,.44-.54.8-1.2.8s-1.15-.32-1.21-.73l2.1-.61h0A.67.67,0,0,1,218.15,75.75Z" style="fill:#e6dfd9"/><path d="M222.91,74.61a1.06,1.06,0,1,1-2.12,0,1.09,1.09,0,0,1,0-.26l1.8-.51A1.1,1.1,0,0,1,222.91,74.61Z" style="fill:#e6dfd9"/><path d="M228.81,72.67a1.16,1.16,0,0,1-2.3.13c.73-.2,1.47-.38,2.2-.57A1,1,0,0,1,228.81,72.67Z" style="fill:#e6dfd9"/><path d="M234.47,71.61a1.14,1.14,0,0,1-2.27,0,1,1,0,0,1,0-.24l2-.44A1,1,0,0,1,234.47,71.61Z" style="fill:#e6dfd9"/><path d="M242.15,69.59a1.61,1.61,0,0,1-1.68,1.54A1.64,1.64,0,0,1,238.84,70c1.11-.22,2.21-.42,3.29-.6A.9.9,0,0,1,242.15,69.59Z" style="fill:#e6dfd9"/><path d="M178.5,102.4a1.18,1.18,0,1,1-1.18-1.22A1.2,1.2,0,0,1,178.5,102.4Z" style="fill:#e6dfd9"/><ellipse cx="180.52" cy="100.87" rx="0.95" ry="0.76" style="fill:#e6dfd9"/><path d="M184.59,98.43a.9.9,0,1,1-.9-.91A.9.9,0,0,1,184.59,98.43Z" style="fill:#e6dfd9"/><ellipse cx="186.46" cy="96.9" rx="0.86" ry="0.84" style="fill:#e6dfd9"/><path d="M190.3,95.4a.53.53,0,1,1-1,0,.53.53,0,1,1,1,0Z" style="fill:#e6dfd9"/><path d="M193.81,93.74a1.08,1.08,0,0,1-2.15,0,1.08,1.08,0,0,1,2.15,0Z" style="fill:#e6dfd9"/><path d="M196.79,92.65a.81.81,0,1,1-.81-.74A.77.77,0,0,1,196.79,92.65Z" style="fill:#e6dfd9"/><path d="M200.84,91.15a.87.87,0,1,1-.86-1A1,1,0,0,1,200.84,91.15Z" style="fill:#e6dfd9"/><path d="M205.08,89.6a.72.72,0,1,1-1.42,0,.72.72,0,1,1,1.42,0Z" style="fill:#e6dfd9"/><path d="M181.47,98.24a.48.48,0,1,1-.48-.5A.48.48,0,0,1,181.47,98.24Z" style="fill:#e6dfd9"/><path d="M208.1,88.25a.69.69,0,0,1-.7.69.69.69,0,1,1,0-1.38A.69.69,0,0,1,208.1,88.25Z" style="fill:#e6dfd9"/><path d="M211.53,87.22c0,.36-.38.65-.86.65s-.86-.29-.86-.65.39-.64.86-.64S211.53,86.87,211.53,87.22Z" style="fill:#e6dfd9"/><path d="M215,85.78a.83.83,0,0,1-1.65,0,.83.83,0,0,1,1.65,0Z" style="fill:#e6dfd9"/><path d="M218.15,84.62a.58.58,0,0,1-.6.56.56.56,0,1,1,0-1.12A.58.58,0,0,1,218.15,84.62Z" style="fill:#e6dfd9"/><path d="M221.85,83.45c0,.34-.37.61-.83.61s-.82-.27-.82-.61.37-.61.82-.61S221.85,83.11,221.85,83.45Z" style="fill:#e6dfd9"/><ellipse cx="223.64" cy="82.06" rx="1.2" ry="0.78" style="fill:#e6dfd9"/><ellipse cx="227.54" cy="80.79" rx="0.8" ry="0.73" style="fill:#e6dfd9"/><path d="M231.67,78.84a.89.89,0,1,1-.88-.78A.84.84,0,0,1,231.67,78.84Z" style="fill:#e6dfd9"/><ellipse cx="233.7" cy="78.3" rx="0.77" ry="0.9" style="fill:#e6dfd9"/><ellipse cx="238.13" cy="77.69" rx="0.66" ry="0.56" style="fill:#e6dfd9"/><path d="M246.88,68.82c0,.42-.47.77-1,.77a1,1,0,0,1-1-.65l2.06-.28A.44.44,0,0,1,246.88,68.82Z" style="fill:#e6dfd9"/><path d="M253,68.21a1.23,1.23,0,1,1-2.44.07c.83-.07,1.64-.12,2.44-.17Z" style="fill:#e6dfd9"/><path d="M256.69,68.06a1.18,1.18,0,0,1-2.35,0C255.14,68,255.93,68,256.69,68.06Z" style="fill:#e6dfd9"/><path d="M261.47,68.52a1.07,1.07,0,0,1-2.1,0,.67.67,0,0,1,.09-.34h0c.68,0,1.34.12,2,.2A.78.78,0,0,1,261.47,68.52Z" style="fill:#e6dfd9"/><path d="M265.67,69.11a1,1,0,0,1-2,0,1,1,0,0,1,.09-.38,17.75,17.75,0,0,1,1.86.33A.11.11,0,0,1,265.67,69.11Z" style="fill:#e6dfd9"/><path d="M265.27,71.38a1,1,0,0,1-1.09.83c-.61,0-1.1-.37-1.1-.83s.49-.83,1.1-.83A1,1,0,0,1,265.27,71.38Z" style="fill:#e6dfd9"/><path d="M267.9,70.58h0c0,.36-.28.77-.88,1.25a.67.67,0,0,1-.33-.55.86.86,0,0,1,.95-.73A1.15,1.15,0,0,1,267.9,70.58Z" style="fill:#e6dfd9"/><path d="M243.4,76.67l-2,.42a.37.37,0,0,1-.1-.24c0-.3.48-.55,1.08-.55A1.24,1.24,0,0,1,243.4,76.67Z" style="fill:#e6dfd9"/><ellipse cx="180.76" cy="116.61" rx="1.34" ry="1.48" style="fill:#e6dfd9"/><ellipse cx="185.96" cy="119.52" rx="1.37" ry="1.33" style="fill:#e6dfd9"/><path d="M190.88,121.64c0,.62-.36,1.13-.8,1.13s-.81-.51-.81-1.13.37-1.14.81-1.14S190.88,121,190.88,121.64Z" style="fill:#e6dfd9"/><path d="M194.62,123a1,1,0,1,1-1-1.15A1.1,1.1,0,0,1,194.62,123Z" style="fill:#e6dfd9"/><path d="M197.52,124.37a.89.89,0,1,1-1.72,0,.88.88,0,1,1,1.72,0Z" style="fill:#e6dfd9"/><ellipse cx="201.59" cy="125.9" rx="0.95" ry="0.43" style="fill:#e6dfd9"/><path d="M206.32,128.19a1.2,1.2,0,1,1-1.19-1.24A1.22,1.22,0,0,1,206.32,128.19Z" style="fill:#e6dfd9"/><path d="M210.67,129.63c0,.68-.35,1.22-.79,1.22s-.8-.54-.8-1.22.36-1.22.8-1.22S210.67,129,210.67,129.63Z" style="fill:#e6dfd9"/><path d="M166.59,122v.12c-1.14-.27-2.31-.51-3.54-.7a1.88,1.88,0,0,1,1.74-1.51A2,2,0,0,1,166.59,122Z" style="fill:#e6dfd9"/><path d="M172.64,123.83a1.49,1.49,0,0,1,0,.21c-1-.41-2.12-.8-3.26-1.15a1.83,1.83,0,0,1,1.48-.71A1.73,1.73,0,0,1,172.64,123.83Z" style="fill:#e6dfd9"/><path d="M177.32,125.66a1.33,1.33,0,0,1-.15.63,21.52,21.52,0,0,0-2.09-1.14,1.17,1.17,0,0,1,1.07-.78A1.23,1.23,0,0,1,177.32,125.66Z" style="fill:#e6dfd9"/><path d="M183.4,128.9a1.8,1.8,0,0,1-.11.62c-1.29-.63-2.43-1.2-3.4-1.71a1.92,1.92,0,0,1,1.6-.86A1.94,1.94,0,0,1,183.4,128.9Z" style="fill:#e6dfd9"/><path d="M189.28,131.55a1.19,1.19,0,0,1-.22.66l-2.48-1.14a1.41,1.41,0,0,1,1.29-.75A1.33,1.33,0,0,1,189.28,131.55Z" style="fill:#e6dfd9"/><path d="M193.59,133.21a.94.94,0,0,1-.51.79c-.74-.33-1.47-.64-2.17-1a1.3,1.3,0,0,1,1.33-.84C193,132.2,193.59,132.66,193.59,133.21Z" style="fill:#e6dfd9"/><path d="M199.57,135.8a1.51,1.51,0,0,1-.27.85l-3-1.27a1.68,1.68,0,0,1,3.28.42Z" style="fill:#e6dfd9"/><path d="M215.74,131.5a1.49,1.49,0,1,1-1.48-1.29A1.39,1.39,0,0,1,215.74,131.5Z" style="fill:#e6dfd9"/><path d="M219.7,133.21a1.08,1.08,0,1,1-1.08-1A1,1,0,0,1,219.7,133.21Z" style="fill:#e6dfd9"/><path d="M226,135.79a1.4,1.4,0,1,1-1.39-1.58A1.5,1.5,0,0,1,226,135.79Z" style="fill:#e6dfd9"/><ellipse cx="230.24" cy="137.77" rx="1.43" ry="1.27" style="fill:#e6dfd9"/><path d="M237.47,140.71c0,.48-.67.86-1.5.86s-1.5-.38-1.5-.86.67-.87,1.5-.87S237.47,140.23,237.47,140.71Z" style="fill:#e6dfd9"/><path d="M242.4,142.38c0,.75-.44,1.36-1,1.36s-1-.61-1-1.36.43-1.36,1-1.36S242.4,141.63,242.4,142.38Z" style="fill:#e6dfd9"/><path d="M246.88,143.81a1,1,0,1,1-1.95,0,1,1,0,1,1,1.95,0Z" style="fill:#e6dfd9"/><path d="M250.51,148.13a16.25,16.25,0,0,1-2.94.68,1.15,1.15,0,0,1,0-.26,1.43,1.43,0,0,1,1.52-1.32A1.52,1.52,0,0,1,250.51,148.13Z" style="fill:#e6dfd9"/><path d="M244.54,148.55a1.44,1.44,0,0,1-.09.51c-.69,0-1.43,0-2.2,0a1.45,1.45,0,0,1-.1-.51,1.2,1.2,0,1,1,2.39,0Z" style="fill:#e6dfd9"/><path d="M239.27,148.55a2,2,0,0,1,0,.34l-1.9-.21-.79-.1v0a1.37,1.37,0,0,1,2.73,0Z" style="fill:#e6dfd9"/><path d="M234.47,147.15a1.06,1.06,0,0,1-.63,1c-.45-.08-.91-.18-1.38-.28a1,1,0,0,1-.26-.68,1.14,1.14,0,0,1,2.27,0Z" style="fill:#e6dfd9"/><path d="M230.4,146.18a2.56,2.56,0,0,1-.26,1.12c-1.33-.33-2.72-.69-4.13-1.09v0a2.2,2.2,0,1,1,4.39,0Z" style="fill:#e6dfd9"/><path d="M223.23,144.44a2.24,2.24,0,0,1-.18.89l-2-.62a2.44,2.44,0,0,1,0-.27c0-.9.49-1.62,1.1-1.62S223.23,143.54,223.23,144.44Z" style="fill:#e6dfd9"/><path d="M217.55,142.69a1.22,1.22,0,0,1-.26.78l-1.53-.53a1,1,0,0,1,0-.25.93.93,0,1,1,1.82,0Z" style="fill:#e6dfd9"/><path d="M213.37,141.76a.81.81,0,0,1-.06.31c-.69-.24-1.39-.49-2.08-.75a1.14,1.14,0,0,1,1-.61A1.09,1.09,0,0,1,213.37,141.76Z" style="fill:#e6dfd9"/><path d="M208.15,139.81a1.14,1.14,0,0,1-.05.33c-.73-.27-1.46-.55-2.18-.84a1.18,1.18,0,0,1,1.06-.7A1.19,1.19,0,0,1,208.15,139.81Z" style="fill:#e6dfd9"/><path d="M203.93,138.4v.11c-.73-.28-1.45-.57-2.16-.86a1.15,1.15,0,0,1,1-.66A1.3,1.3,0,0,1,203.93,138.4Z" style="fill:#e6dfd9"/><path d="M96,197.32a2.1,2.1,0,1,1-2.1-2.09A2.09,2.09,0,0,1,96,197.32Z" style="fill:#e6dfd9"/><path d="M97.32,193.15a1,1,0,1,1-1-1.14A1.08,1.08,0,0,1,97.32,193.15Z" style="fill:#e6dfd9"/><path d="M93.86,187.28c0,.78-.84,1.41-1.88,1.41s-1.87-.63-1.87-1.41a1.95,1.95,0,0,1,3.75,0Z" style="fill:#e6dfd9"/><path d="M93.86,180a1.44,1.44,0,1,1-1.44-1.41A1.42,1.42,0,0,1,93.86,180Z" style="fill:#e6dfd9"/><path d="M90.11,176.44a2.11,2.11,0,1,1-2-1.61A1.87,1.87,0,0,1,90.11,176.44Z" style="fill:#e6dfd9"/><path d="M90.11,183a1.83,1.83,0,1,1-1.81-1.55A1.7,1.7,0,0,1,90.11,183Z" style="fill:#e6dfd9"/><path d="M92.42,192.38c0,.42-.52.77-1.16.77s-1.15-.35-1.15-.77.51-.76,1.15-.76S92.42,192,92.42,192.38Z" style="fill:#e6dfd9"/><path d="M87.57,196.27a1,1,0,1,1-1-1A1,1,0,0,1,87.57,196.27Z" style="fill:#e6dfd9"/><path d="M85.52,192.67c0,.37-.44.66-1,.66s-1-.29-1-.66.44-.66,1-.66S85.52,192.31,85.52,192.67Z" style="fill:#e6dfd9"/><ellipse cx="79.75" cy="193.68" rx="0.93" ry="1.3" style="fill:#e6dfd9"/><path d="M84.54,198.17c0,.68-.37,1.23-.83,1.23s-.84-.55-.84-1.23.38-1.23.84-1.23S84.54,197.49,84.54,198.17Z" style="fill:#e6dfd9"/><path d="M92.93,204.52a2.14,2.14,0,1,1-2.09-1.71A1.93,1.93,0,0,1,92.93,204.52Z" style="fill:#e6dfd9"/><ellipse cx="89.51" cy="201.25" rx="1.33" ry="0.94" style="fill:#e6dfd9"/><path d="M95.28,202.19a.93.93,0,1,1-.93-.94A.94.94,0,0,1,95.28,202.19Z" style="fill:#e6dfd9"/><path d="M89.51,189.39a2.26,2.26,0,1,1-2.22-1.84A2.06,2.06,0,0,1,89.51,189.39Z" style="fill:#e6dfd9"/><path d="M86,171.05a1.6,1.6,0,1,1-1.57-1.28A1.45,1.45,0,0,1,86,171.05Z" style="fill:#e6dfd9"/><path d="M82.87,162.7a2,2,0,1,1-2-1.81A1.92,1.92,0,0,1,82.87,162.7Z" style="fill:#e6dfd9"/><path d="M80.85,167.71c0,.53-.64,1-1.42,1s-1.42-.43-1.42-1,.63-1,1.42-1S80.85,167.17,80.85,167.71Z" style="fill:#e6dfd9"/><path d="M82.87,176.2a1.57,1.57,0,1,1-1.56-1.37A1.48,1.48,0,0,1,82.87,176.2Z" style="fill:#e6dfd9"/><path d="M86,180.69c0,.39-.52.71-1.15.71s-1.15-.32-1.15-.71.51-.71,1.15-.71S86,180.3,86,180.69Z" style="fill:#e6dfd9"/><path d="M83.57,186.05a1.13,1.13,0,1,1-1.13-1.16A1.15,1.15,0,0,1,83.57,186.05Z" style="fill:#e6dfd9"/><path d="M78,189.14a1.7,1.7,0,1,1-1.65-1.3A1.51,1.51,0,0,1,78,189.14Z" style="fill:#e6dfd9"/><path d="M73.52,182.78a1.43,1.43,0,1,1-1.4-1.72A1.58,1.58,0,0,1,73.52,182.78Z" style="fill:#e6dfd9"/><ellipse cx="68.11" cy="178.82" rx="0.93" ry="0.76" style="fill:#e6dfd9"/><ellipse cx="66.54" cy="173.58" rx="1.56" ry="1.25" style="fill:#e6dfd9"/><path d="M63.08,169.08A1.28,1.28,0,1,1,61.81,168,1.19,1.19,0,0,1,63.08,169.08Z" style="fill:#e6dfd9"/><ellipse cx="59.93" cy="164.6" rx="1.1" ry="0.98" style="fill:#e6dfd9"/><path d="M58.83,159.57a1.42,1.42,0,1,1-1.39-1.71A1.58,1.58,0,0,1,58.83,159.57Z" style="fill:#e6dfd9"/><ellipse cx="61.19" cy="155.3" rx="1.26" ry="1.54" style="fill:#e6dfd9"/><path d="M58,151.62a1.19,1.19,0,1,1-1.17-1A1.09,1.09,0,0,1,58,151.62Z" style="fill:#e6dfd9"/><path d="M107.37,71.43a1.18,1.18,0,1,1-1.17-1.37A1.27,1.27,0,0,1,107.37,71.43Z" style="fill:#e6dfd9"/><ellipse cx="108.96" cy="67.47" rx="0.95" ry="0.51" style="fill:#e6dfd9"/><path d="M112.15,63.33a.9.9,0,1,1-.87-.68A.79.79,0,0,1,112.15,63.33Z" style="fill:#e6dfd9"/><path d="M114.3,58.69a1.08,1.08,0,1,1-1.08-1.21A1.15,1.15,0,0,1,114.3,58.69Z" style="fill:#e6dfd9"/><path d="M119.86,53.11c0,.53-.65,1-1.45,1s-1.45-.43-1.45-1,.65-1,1.45-1S119.86,52.58,119.86,53.11Z" style="fill:#e6dfd9"/><path d="M111.28,73.89a1.16,1.16,0,1,1-1.16-1.1A1.13,1.13,0,0,1,111.28,73.89Z" style="fill:#e6dfd9"/><path d="M114.3,68.86c0,.45-.48.81-1.08.81a.85.85,0,1,1,0-1.63A1,1,0,0,1,114.3,68.86Z" style="fill:#e6dfd9"/><path d="M117.14,63.24a.9.9,0,1,1-.89-.77A.83.83,0,0,1,117.14,63.24Z" style="fill:#e6dfd9"/><path d="M117.71,71.43c0,.75-.32,1.36-.73,1.36s-.73-.61-.73-1.36.33-1.37.73-1.37S117.71,70.67,117.71,71.43Z" style="fill:#e6dfd9"/><path d="M114.3,75.8a1.08,1.08,0,1,1-1.08-1.19A1.13,1.13,0,0,1,114.3,75.8Z" style="fill:#e6dfd9"/><path d="M101,54.43a3.24,3.24,0,0,1-3.4,3,3.66,3.66,0,0,1-1-.14,4.09,4.09,0,0,1-1-.41q2.05-2.25,4.35-4.67a1.79,1.79,0,0,1,.27.28A2.77,2.77,0,0,1,101,54.43Z" style="fill:#e6dfd9"/><path d="M105,50c0,.75-.86,1.35-1.92,1.35a2.33,2.33,0,0,1-1.5-.5,1.14,1.14,0,0,1-.15-.16c.64-.66,1.28-1.33,1.94-2l0,0C104.34,48.8,105,49.36,105,50Z" style="fill:#e6dfd9"/><path d="M112.15,43.55a2.86,2.86,0,0,1-3.07,2.57,3.36,3.36,0,0,1-2.26-.82v0l-.12-.1a21.81,21.81,0,0,1,1.87-1.62l2.21-2.14A2.46,2.46,0,0,1,112.15,43.55Z" style="fill:#e6dfd9"/><path d="M119.86,35.65a3,3,0,0,1-3,3,3.09,3.09,0,0,1-2.16-.88q2.2-2,4.5-4A3,3,0,0,1,119.86,35.65Z" style="fill:#e6dfd9"/><path d="M127.28,29.38a2.48,2.48,0,0,1-2.64,2.29,2.8,2.8,0,0,1-2.07-.88c1.25-1.05,2.51-2.11,3.79-3.14A2.15,2.15,0,0,1,127.28,29.38Z" style="fill:#e6dfd9"/><path d="M134.45,24.31a2.71,2.71,0,0,1-2.64,2.78,2.66,2.66,0,0,1-2.47-1.81c1.36-1.07,2.74-2.12,4.12-3.14A2.81,2.81,0,0,1,134.45,24.31Z" style="fill:#e6dfd9"/><path d="M140.15,18.58c0,1-.49,1.74-1.11,1.74s-1-.6-1.09-1.41c.66-.45,1.32-.91,2-1.35A2.32,2.32,0,0,1,140.15,18.58Z" style="fill:#e6dfd9"/><path d="M148.41,14.79a2.14,2.14,0,0,1-2.22,2.05A2.17,2.17,0,0,1,144,14.93c1.07-.67,2.14-1.33,3.22-2A2,2,0,0,1,148.41,14.79Z" style="fill:#e6dfd9"/><path d="M155,10.62a2.29,2.29,0,0,1-2.43,2.13,2.42,2.42,0,0,1-2.34-1.53c1.33-.75,2.66-1.46,4-2.15A2,2,0,0,1,155,10.62Z" style="fill:#e6dfd9"/><path d="M164.3,5.21a2.86,2.86,0,0,1-3.07,2.56,3.34,3.34,0,0,1-2.38-.94q2.67-1.22,5.35-2.24A1.83,1.83,0,0,1,164.3,5.21Z" style="fill:#e6dfd9"/><path d="M171.46,2.19A1.81,1.81,0,0,1,169.78,4a1.62,1.62,0,0,1-1.38-.85C169.42,2.78,170.44,2.47,171.46,2.19Z" style="fill:#e6dfd9"/><path d="M180.52.67A2.53,2.53,0,0,1,178,3.23a2.51,2.51,0,0,1-2.45-2c1.64-.36,3.29-.64,4.93-.85C180.51.45,180.52.56,180.52.67Z" style="fill:#e6dfd9"/><path d="M187.32.34A1.73,1.73,0,0,1,185.51,2,1.73,1.73,0,0,1,183.69.34a1.12,1.12,0,0,1,0-.32L184,0s1.24,0,3.32.05A1.43,1.43,0,0,1,187.32.34Z" style="fill:#e6dfd9"/><path d="M194.94.57A3,3,0,0,1,192.23,2,2.86,2.86,0,0,1,189.34.14C190.94.23,192.85.36,194.94.57Z" style="fill:#e6dfd9"/><path d="M203.36,1.75a1.83,1.83,0,0,1-1.63,1.48,2,2,0,0,1-1.74-2C201.09,1.35,202.22,1.54,203.36,1.75Z" style="fill:#e6dfd9"/><path d="M210.64,3.43a2,2,0,0,1-1.38.53,1.82,1.82,0,0,1-1.84-1.36C208.49,2.85,209.57,3.13,210.64,3.43Z" style="fill:#e6dfd9"/><path d="M217.27,5.78A2.07,2.07,0,0,1,215.46,7a2.34,2.34,0,0,1-2.09-2.53,1.55,1.55,0,0,1,0-.22C214.7,4.73,216,5.23,217.27,5.78Z" style="fill:#e6dfd9"/><path d="M222.6,8.62a1.26,1.26,0,0,1-1,.76c-.74,0-1.35-.93-1.35-2.08V7.2A26.1,26.1,0,0,1,222.6,8.62Z" style="fill:#e6dfd9"/><path d="M227.45,12.65a2.12,2.12,0,0,1-.62.1,2,2,0,0,1-2-1.91,2.25,2.25,0,0,1,.07-.52c.26.21.52.43.76.66C226.4,11.63,227,12.19,227.45,12.65Z" style="fill:#e6dfd9"/><path d="M144.24,21.17l-1.08.77a.09.09,0,0,1,0-.05.86.86,0,0,1,.95-.73Z" style="fill:#e6dfd9"/><path d="M138.63,25.31l-2,1.57a1.26,1.26,0,0,1-.2-.67A1.28,1.28,0,0,1,137.73,25,1.34,1.34,0,0,1,138.63,25.31Z" style="fill:#e6dfd9"/><path d="M132.43,30.3a13.59,13.59,0,0,1,.44,1.37,1.06,1.06,0,0,1-1-.88.8.8,0,0,1,0-.27,1.11,1.11,0,0,1,1.06-1.14,1,1,0,0,1,.51.14C133.06,29.77,132.75,30,132.43,30.3Z" style="fill:#e6dfd9"/><path d="M128.08,35.21a.73.73,0,1,1-.73-.81A.77.77,0,0,1,128.08,35.21Z" style="fill:#e6dfd9"/><path d="M124.64,38.32c0,.71-.23,1.28-.51,1.28s-.51-.57-.51-1.28.23-1.28.51-1.28S124.64,37.61,124.64,38.32Z" style="fill:#e6dfd9"/><path d="M120.84,41.76a.77.77,0,0,1-1.54,0,.77.77,0,1,1,1.54,0Z" style="fill:#e6dfd9"/><path d="M117.62,44.69a1.14,1.14,0,1,1-1.14-1.12A1.14,1.14,0,0,1,117.62,44.69Z" style="fill:#e6dfd9"/><path d="M102.18,73.41c0,.34-.59.62-1.32.62s-1.32-.28-1.32-.62.59-.62,1.32-.62S102.18,73.07,102.18,73.41Z" style="fill:#e6dfd9"/><path d="M102.54,70.55a1,1,0,1,1-1-.88A1,1,0,0,1,102.54,70.55Z" style="fill:#e6dfd9"/><path d="M103.45,66.67a1,1,0,1,1-1-.8A.89.89,0,0,1,103.45,66.67Z" style="fill:#e6dfd9"/><path d="M106,61.66a1.32,1.32,0,0,1-2.56,0,1.32,1.32,0,0,1,2.56,0Z" style="fill:#e6dfd9"/><path d="M109,58.58a1.08,1.08,0,1,1-1-1.33A1.21,1.21,0,0,1,109,58.58Z" style="fill:#e6dfd9"/><path d="M93.91,64.16a2.68,2.68,0,0,1-2.82,2.51,2.9,2.9,0,0,1-1-.17,2.68,2.68,0,0,1-1.63-1.43c.9-1,1.88-2.19,2.94-3.4a2.92,2.92,0,0,1,1.6.66A2.39,2.39,0,0,1,93.91,64.16Z" style="fill:#e6dfd9"/><path d="M107.37,58.34a.88.88,0,1,1-.87-.86A.87.87,0,0,1,107.37,58.34Z" style="fill:#e6dfd9"/><path d="M109.91,54.42a1,1,0,1,1-1-.77A.91.91,0,0,1,109.91,54.42Z" style="fill:#e6dfd9"/><path d="M114.3,50.13c0,.49-.6.88-1.34.88s-1.34-.39-1.34-.88.6-.87,1.34-.87S114.3,49.65,114.3,50.13Z" style="fill:#e6dfd9"/><path d="M116.25,47.42a1.24,1.24,0,1,1-1.24-1.3A1.27,1.27,0,0,1,116.25,47.42Z" style="fill:#e6dfd9"/><path d="M113,50.5a1.56,1.56,0,1,1-1.53-1.24A1.4,1.4,0,0,1,113,50.5Z" style="fill:#e6dfd9"/><path d="M148.47,18.3l-1.44.95a.71.71,0,0,1-.07-.32.87.87,0,0,1,.91-.84A1,1,0,0,1,148.47,18.3Z" style="fill:#e6dfd9"/><path d="M151.8,16.22c-.44.27-.88.53-1.32.81a1,1,0,0,1,1-.85A1,1,0,0,1,151.8,16.22Z" style="fill:#e6dfd9"/><path d="M158.88,12.35c-.59.29-1.2.59-1.8.91a1,1,0,0,1-.61-.88,1.23,1.23,0,0,1,2.41,0Z" style="fill:#e6dfd9"/><path d="M163.05,10.43h0c-.72.3-1.43.62-2.16,1a1.13,1.13,0,0,1-.4-.84,1.29,1.29,0,0,1,2.56-.12Z" style="fill:#e6dfd9"/><path d="M169.3,8.09c-1.1.35-2.2.74-3.31,1.17a1.14,1.14,0,0,1-.44-.87c0-.74.85-1.35,1.89-1.35A1.89,1.89,0,0,1,169.3,8.09Z" style="fill:#e6dfd9"/><path d="M176.52,6.11c-1.07.24-2.13.5-3.21.79a1.15,1.15,0,0,1-.08-.41,1.52,1.52,0,0,1,1.68-1.28A1.69,1.69,0,0,1,176.52,6.11Z" style="fill:#e6dfd9"/><path d="M181.77,5.1l-2,.33c0-.06,0-.13,0-.2a1.16,1.16,0,0,1,1-1.27A1.11,1.11,0,0,1,181.77,5.1Z" style="fill:#e6dfd9"/><path d="M187.27,4.33c-1.32.16-2.62.33-3.92.52a.58.58,0,0,1,0-.19c0-.79.9-1.43,2-1.43A2,2,0,0,1,187.27,4.33Z" style="fill:#e6dfd9"/><path d="M190.79,4a.06.06,0,0,1,0,0c-.47,0-.94.06-1.4.11-.17,0-.35,0-.52.06a.54.54,0,0,1-.05-.21c0-.4.44-.72,1-.72S190.79,3.55,190.79,4Z" style="fill:#e6dfd9"/><path d="M194.52,4V4c-.67,0-1.33,0-2,0,0-.39.45-.71,1-.71S194.52,3.55,194.52,4Z" style="fill:#e6dfd9"/><path d="M223.54,11.67a.85.85,0,0,1-.33.68l-1.16-.51a.88.88,0,0,1,0-.17.76.76,0,1,1,1.51,0Z" style="fill:#e6dfd9"/><path d="M219.69,10.19a1.93,1.93,0,0,1-.09.6l-2-.85c.08-.7.52-1.22,1.05-1.22S219.69,9.38,219.69,10.19Z" style="fill:#e6dfd9"/><path d="M213,7.93a2.28,2.28,0,0,1,0,.26c-.79-.29-1.61-.57-2.43-.85a1.29,1.29,0,0,1,1.17-.85A1.37,1.37,0,0,1,213,7.93Z" style="fill:#e6dfd9"/><path d="M206.08,5.57A1.12,1.12,0,0,1,206,6l-1.32-.35v0a.72.72,0,1,1,1.39,0Z" style="fill:#e6dfd9"/><path d="M200.59,4.71c-.58-.11-1.16-.2-1.74-.29a1,1,0,0,1,.83-.46A.88.88,0,0,1,200.59,4.71Z" style="fill:#e6dfd9"/><path d="M197.59,4a1,1,0,0,1,0,.25c-.33,0-.65-.08-1-.11a.66.66,0,0,1,0-.14c0-.42.23-.77.51-.77S197.59,3.58,197.59,4Z" style="fill:#e6dfd9"/><path d="M65,70A1,1,0,1,1,64,68.86,1.05,1.05,0,0,1,65,70Z" style="fill:#e6dfd9"/><ellipse cx="65.41" cy="67.33" rx="0.99" ry="0.66" style="fill:#e6dfd9"/><path d="M68,64.26c0,.36-.47.65-1.05.65s-1-.29-1-.65.47-.66,1-.66S68,63.89,68,64.26Z" style="fill:#e6dfd9"/><path d="M70.06,61.19a1.05,1.05,0,1,1-1-1.28A1.17,1.17,0,0,1,70.06,61.19Z" style="fill:#e6dfd9"/><path d="M86.52,33.93A1.43,1.43,0,0,1,85,35.21a1.63,1.63,0,0,1-1.2-.49c1-.47,1.85-.87,2.65-1.22A1,1,0,0,1,86.52,33.93Z" style="fill:#e6dfd9"/><path d="M81.42,36.12c0,1-.52,1.72-1.18,1.72a1.09,1.09,0,0,1-.93-.67,20.83,20.83,0,0,1,2.1-1.26A1.48,1.48,0,0,1,81.42,36.12Z" style="fill:#e6dfd9"/><path d="M77,40.29c0,.39-.53.7-1.18.7a1.64,1.64,0,0,1-.88-.24c.4-.39.8-.77,1.2-1.13C76.65,39.71,77,40,77,40.29Z" style="fill:#e6dfd9"/><ellipse cx="75.03" cy="46.25" rx="1.1" ry="1.02" style="fill:#e6dfd9"/><ellipse cx="78.22" cy="44.13" rx="1.21" ry="0.56" style="fill:#e6dfd9"/><path d="M81.43,41a.74.74,0,0,1-.75.73.74.74,0,1,1,0-1.47A.75.75,0,0,1,81.43,41Z" style="fill:#e6dfd9"/><path d="M85.5,38.5c0,.36-.46.66-1,.66s-1-.3-1-.66.46-.66,1-.66S85.5,38.14,85.5,38.5Z" style="fill:#e6dfd9"/><path d="M74.37,52.91a1,1,0,1,1-1-1.17A1.08,1.08,0,0,1,74.37,52.91Z" style="fill:#e6dfd9"/><path d="M75.84,50.52c0,.27-.33.49-.73.49s-.74-.22-.74-.49.33-.49.74-.49S75.84,50.25,75.84,50.52Z" style="fill:#e6dfd9"/><ellipse cx="71.04" cy="57.09" rx="0.99" ry="1.25" style="fill:#e6dfd9"/><path d="M73.94,43.39a1.24,1.24,0,0,1-1.17,1.3,1.13,1.13,0,0,1-1-.56c.53-.63,1.07-1.24,1.62-1.82A1.35,1.35,0,0,1,73.94,43.39Z" style="fill:#e6dfd9"/></g></g></svg>