<svg xmlns="http://www.w3.org/2000/svg" viewBox="0 0 720.4 200.91"><title>binchir</title><g id="Layer_2" data-name="Layer 2"><g id="Ñëîé_2" data-name="Ñëîé 2"><path d="M526.27,137.36l-7.34.09c-6.11.08-12.73.21-20.55.59h0c-.5-.14-33.42-9.07-48.81-24.76S369.09,82.61,270.23,86s-126-10-141.49-30c8.58-1.76,19.42-3.61,39.16-4.55,4-.21,8.47-.36,13.33-.47l7.52-.13c7.23-.08,15.32-.07,24.43.07,1.83,0,3.7.06,5.62.11,11.24.2,23.92.58,38.29,1.18l6.47.26c11.34.51,23.68,1.13,37.13,1.89,2.53.14,5.05.29,7.54.45,1.79.1,3.56.22,5.33.33q20.63,1.37,39.37,3.19,4.63.44,9.17.93,27.09,2.82,50.28,6.45c2.78.42,5.52.86,8.21,1.29v0c14.4,2.34,27.65,4.88,39.86,7.53q4.68,1,9.17,2c11.13,2.58,21.3,5.22,30.6,7.89-1,0-28.87,1-32.27,8.44s9.58,8.38,21.08,17.19,5.36,12.69,4.21,16.88C492.14,131,510,137.36,526.27,137.36Z" style="fill:#d3cba9"/><path d="M449.56,113.27C434,97.44,369.09,82.6,270.23,86s-126-10-141.49-30c-6.39,1.3-11.52,2.55-18.14,3.32,2.86,5.51,1.82,12.46,1.76,12.81h0c1.75,2.5,3.56,5.47,5.37,8.69,4.61-2.39,6.78-2.94,7.65-.94l.31.64a4.16,4.16,0,0,0,.23.42c.29.53.59,1,.88,1.56.1.18.21.38.3.58a12.78,12.78,0,0,1,.57,1.46,3.68,3.68,0,0,1,.15.47c.12.38.23.81.34,1.28,0,.17.08.35.11.53.16.77.32,1.68.47,2.74,1,6.74,3.54,1,2.68,9a3,3,0,0,1-.06.42,1.22,1.22,0,0,1-.06.26,5.78,5.78,0,0,1-.17.69,2.51,2.51,0,0,1-.16.46s0,0,0,0c-.05.15-.12.3-.18.45a4.87,4.87,0,0,1-.28.56,9.12,9.12,0,0,1-.47.79,3.54,3.54,0,0,1-.33.46,8.93,8.93,0,0,1-.64.74c-.22.23-.45.46-.7.68a57.34,57.34,0,0,1,3.23,12.73h0c1.83.92,3,1.65,3,1.65,10.24,7.14,15.58,14,18,19.9,23.6,5.61,80.75,14.65,155.55,10.76,0,0,27.21-1.32,60.55-3.08,12.59-.67,26.06-1.39,39.26-2.14l6-.33c26.19-1.49,50.68-3,64.36-4.22,7.57-.65,14.17-1.08,20.07-1.37C497.86,137.9,465,129,449.56,113.27ZM350.7,135c-25.29-3.45-53.65,4.21-120.33-1.92S179,95.14,195.13,97s96.94,3.11,140.62,3.44S398.21,127,398.21,127C408.51,136.9,376,138.45,350.7,135Z" style="fill:#e0d8b8"/><path d="M128.36,104.12c-4.72,4.2-13.77,4.9-19.07-3.67,0,0-5.17-12.2,3.16-16.8l.32-.18c1.19-.66,2.28-1.26,3.27-1.79.39-.19.76-.39,1.11-.57l.58-.3c-1.81-3.22-3.62-6.19-5.37-8.69h0c-3.83-5.52-7.28-8.81-9.24-7.72-6.18,3.45-26.88,26.73-30.33,42.75S50.61,127,50.61,127c13.86,6.15,29.91,10.22,46,9,2.39-.18,4.63-.35,6.73-.53a38.18,38.18,0,0,1,1.2-5.72,36,36,0,0,1,1.22-3.54c2.25-5.68,5.63-10.15,8.86-11.85,5.07-2.68,12.75.41,16.93,2.54A57.34,57.34,0,0,0,128.36,104.12ZM105.8,116.79c-4.56,10.25-11.17,6.52-11.17,6.52-2.58-.29-16.38-4.7-18.1-6.52s14.66-22.22,18.1-29.41S110.34,106.54,105.8,116.79Z" style="fill:#f2ecd6"/><path d="M110.6,59.3a123,123,0,0,1-12.8.78c-42,.58-62.66,5.75-67.83,12.07-2.17,2.66-5.67,5.12-9.21,7.72-.72.52-1.46,1.06-2.18,1.62-1,.77-2,1.54-2.92,2.35A30.08,30.08,0,0,0,13.35,86a16.75,16.75,0,0,0-4.07,6.25C7.43,97.83,25.42,115.82,50.61,127c0,0,18.73-3.79,22.18-19.82s24.15-39.3,30.33-42.75c2-1.09,5.41,2.2,9.24,7.72C112.42,71.76,113.46,64.81,110.6,59.3ZM33.28,88.58a4.36,4.36,0,1,1,4.36-4.36A4.37,4.37,0,0,1,33.28,88.58ZM79.69,72.12c-10.06,2.83-22.42,16.7-25,12.1s-14.09-7.47-11.79-9a87.94,87.94,0,0,1,16.72-9.16c7.47-2.9,15.4-4,22.47-.32C86.68,68.09,83.29,71.09,79.69,72.12Z" style="fill:#eae4ca"/><path d="M589.69,129.46c-1,1-2.93,1.77-5.64,2.43-1,.25-2.2.49-3.46.71-2.22.4-4.76.77-7.61,1.14-4,.52-8.58,1-13.64,1.64-1.9.23-3.74.44-5.53.61-9.69,1-17.64,1.22-25.91,1.35h-.24l-1.39,0c-16.29,0-34.13-6.38-33-10.39,1.15-4.19,7.28-8.06-4.21-16.88S464.51,100.52,468,92.9s31.26-8.41,32.27-8.44h0q4.9,1.41,9.5,2.83c10.65,3.27,20,6.55,28.15,9.72q4.54,1.74,8.59,3.45c6.44,2.69,12,5.26,16.74,7.62,2.89,1.46,5.48,2.83,7.79,4.1,2.46,1.37,4.61,2.64,6.45,3.78.93.56,1.78,1.1,2.57,1.6s1.54,1,2.24,1.5,1.22.84,1.77,1.25h0c.88.65,1.67,1.26,2.37,1.84h0l0,0A15.06,15.06,0,0,1,590,126,2.59,2.59,0,0,1,589.69,129.46Z" style="fill:#c9c097"/><path d="M149.15,158.75c-3.07.77-1.92,5-4.6,5.75s-3.07,2.3-4.22,6.14-3.45,6.51-5.75,3.45c-1.14-1.52-2.55-1.16-4.39-.83,18.22-18.91,3.59-31.93-7.1-35.22a35.71,35.71,0,0,1-17.29-11.88c2.25-5.68,5.63-10.15,8.86-11.85,5.07-2.68,12.75.41,16.93,2.54h0c1.83.92,3,1.66,3,1.66,10.25,7.14,15.58,14,18,19.9C157.39,150,151.17,158.25,149.15,158.75Z" style="fill:#d3cba9"/><path d="M117,166.94l0-.14c-1.54-5.36-2.69-5.36-3.07-3.83s-3.07,1.15-8.82-12.85a29.21,29.21,0,0,1-1.69-14.69,39.32,39.32,0,0,1,1.2-5.73,11.77,11.77,0,0,1,3.69,5.34h0c2.63,7.94-4.41,16.47-.57,14.14,4.73-2.88,5.8-17.63,7.53-11.14s-10,22.83-4,18.39,7.55-20.06,8.44-13.25-8,19.33-2.51,16.72,7.48-23.37,8.63-14.55C126.62,151.88,120.32,162.1,117,166.94Z" style="fill:#babecc"/><path d="M130.19,173.26a9.29,9.29,0,0,1-6-.54c3.2-4.95,9.3-15.63,7.45-22.6-2.31-8.68-2.2,9.75-12.07,20.38-1.71-.49-1.49.05-2.53-3.56,3.33-4.84,9.63-15.06,8.78-21.59-1.15-8.82-3.1,12-8.63,14.55s3.4-9.91,2.51-16.72-2.51,8.81-8.44,13.25,5.75-11.91,4-18.39-2.8,8.26-7.53,11.14c-3.84,2.33,3.2-6.2.57-14.14h0a11.77,11.77,0,0,0-3.69-5.34c.36-1.21.76-2.4,1.22-3.54A35.71,35.71,0,0,0,123.09,138C133.78,141.33,148.41,154.35,130.19,173.26Z" style="fill:#a6a9bc"/><path d="M124.14,172.72a8.17,8.17,0,0,1-1-.55,15.19,15.19,0,0,0-3.57-1.67c9.87-10.63,9.76-29.06,12.07-20.38C133.44,157.09,127.34,167.77,124.14,172.72Z" style="fill:#babecc"/><path d="M15.66,83.85A30,30,0,0,0,13.35,86c-1.48-1.29-7.52-2.94-11.16-3.32s-2.11-2.5,0-4S15.66,83.85,15.66,83.85Z" style="fill:#e0d8b8"/><path d="M20.76,79.87c-.72.53-1.46,1.07-2.18,1.62,0,0-2-5.88-2.92-7.09S11.38,72,11.38,71s3.07-3.07,5.37-1.53S20.76,79.87,20.76,79.87Z" style="fill:#e0d8b8"/><path d="M33.28,79.87a4.36,4.36,0,1,0,4.36,4.36A4.36,4.36,0,0,0,33.28,79.87ZM32.56,86a2.26,2.26,0,1,1,2.25-2.27A2.26,2.26,0,0,1,32.56,86Z" style="fill:#fcf8eb"/><path d="M34.81,83.74a2.25,2.25,0,1,1-2.25-2.25A2.26,2.26,0,0,1,34.81,83.74Z" style="fill:#2b2b2b"/><path d="M131.42,98.59a8.11,8.11,0,0,1-1.72,4.11,10.54,10.54,0,0,1-1.34,1.42c-4.72,4.2-13.77,4.9-19.07-3.67,0,0-5.17-12.2,3.16-16.8l.32-.18c1.9-1,3.54-2,5-2.66,4.61-2.39,6.78-2.94,7.65-.94l.31.64c1.06,2.09,2.19,2.88,3.05,9C129.7,96.29,132.28,90.55,131.42,98.59Z" style="fill:#a6a9bc"/><path d="M406.89,151.28c-3.51-10.72-4.84,3.07,3,11.69s-5.29,1.53-9.74-6.52-3.32,5.57,8.58,13.61S394,168.15,389,158.37a25.06,25.06,0,0,1-2.87-5.74c-.51-2-2.91,3.86,4.33,15.2-17.2-8.87-21.76-21.73-21.76-21.73,12.59-.67,26.06-1.39,39.26-2.14,0,0,2.51,13.26,7.87,18.24S410.4,162,406.89,151.28Z" style="fill:#d3cba9"/><path d="M411.91,174.71a72.93,72.93,0,0,1-21.44-6.88c-7.24-11.34-4.84-17.22-4.33-15.2a25.06,25.06,0,0,0,2.87,5.74c5,9.78,31.62,19.74,19.73,11.69s-13-21.65-8.58-13.61,17.59,15.14,9.74,6.52-6.52-22.41-3-11.69,14.31,15.91,8.95,10.92S408,144,408,144l6-.33S429.28,163.78,411.91,174.71Z" style="fill:#a6a9bc"/><path d="M445,152.25c-1.15.76-3.07,8-5,8.6s-1.54,4.8-4.22,5.57-5.75,1.15-8.43,5.75S417,175.41,417,175.41c-1.74-.2-3.44-.44-5.08-.7,17.37-10.93,2-31.08,2-31.08C438.86,146.12,446.11,151.48,445,152.25Z" style="fill:#babecc"/><path d="M188.75,50.83l-7.52.13c-.37-.66-12-21-28.16-26.87,1.26-6.79,5.85-11.15,10.25-9a20.14,20.14,0,0,0,4.5,1.48A69.88,69.88,0,0,0,188.75,50.83Z" style="fill:#e0d8b8"/><path d="M181.23,51c-4.86.11-9.29.26-13.33.47-13.26-8.08-16.33-19.38-14.83-27.34C169.25,30,180.86,50.3,181.23,51Z" style="fill:#a6a9bc"/><path d="M213.18,50.9c-9.11-.14-17.2-.15-24.43-.07a70,70,0,0,1-20.94-34.29,36,36,0,0,0,7.17.72,52.08,52.08,0,0,0,19.63-3.61,21.89,21.89,0,0,0,5.5-3.19l1.09-1C205,15,211.84,27.87,213.18,50.9Z" style="fill:#a6a9bc"/><path d="M218.8,51c-1.92,0-3.79-.09-5.62-.11-1.34-23-8.15-35.88-12-41.38,6-5.34,4.75-6.43,13.08-1.36a16,16,0,0,0,3.06,1.43C216.06,17,215,30.91,218.8,51Z" style="fill:#e0d8b8"/><path d="M257.09,52.18c-14.37-.59-27-1-38.29-1.18-3.82-20.09-2.74-34-1.46-41.42a25.6,25.6,0,0,0,5.53,1.25,44.86,44.86,0,0,0,18.39-1.71,27.08,27.08,0,0,0,6.09-2.67C250.55,12.42,255.05,25.32,257.09,52.18Z" style="fill:#a6a9bc"/><path d="M263.56,52.45l-6.47-.26c-2-26.87-6.54-39.76-9.74-45.73a16.14,16.14,0,0,0,2.19-1.57c7.28-6.35,6.52-6.68,13.79,0a22.34,22.34,0,0,0,2.1,1.67C262.51,13.47,259.84,27,263.56,52.45Z" style="fill:#e0d8b8"/><path d="M308.23,54.78c-2.49-.16-5-.31-7.54-.45-13.45-.75-25.79-1.38-37.13-1.88-3.72-25.44-1.06-39,1.86-45.89a34.17,34.17,0,0,0,4.94,2.86c7.36,3.56,17.4,5.81,24.85,3.84a15.18,15.18,0,0,0,4.62-2c.68-.46,1.3-.9,1.87-1.3C305.65,15.1,310.56,27.19,308.23,54.78Z" style="fill:#a6a9bc"/><path d="M313.56,55.12c-1.77-.11-3.54-.23-5.33-.33,2.33-27.59-2.58-39.69-6.52-44.86,7.55-5.48,6.52-7.1,17.46-1.83C316.57,14.37,313.18,27.85,313.56,55.12Z" style="fill:#e0d8b8"/><path d="M352.93,58.3q-18.76-1.81-39.37-3.18c-.38-27.27,3-40.76,5.61-47a.6.6,0,0,1,.11.06,32.63,32.63,0,0,0,9,2.78,41.25,41.25,0,0,0,18.37-1.31,30.58,30.58,0,0,0,3.77-1.42C353.26,15.15,356.77,30.1,352.93,58.3Z" style="fill:#a6a9bc"/><path d="M362.1,59.24q-4.53-.5-9.17-.93c3.84-28.2.33-43.16-2.52-50.09a21.57,21.57,0,0,0,2.76-1.46c5-3.16,8-1.53,15.47,2.16C363.8,17.06,358.28,32.73,362.1,59.24Z" style="fill:#e0d8b8"/><path d="M412.38,65.68q-23.24-3.59-50.28-6.45c-3.83-26.51,1.7-42.18,6.54-50.32,2.07,1,4.49,2.19,7.37,3.47,1.4.6,2.92,1.25,4.58,1.92,10.86,4.34,18.23,2.14,25.16-1.14,2.05-1,4.06-2,6.1-3C414.67,17.52,419.19,35.65,412.38,65.68Z" style="fill:#a6a9bc"/><path d="M432.29,13.62C427.59,22.23,421.17,39,420.59,67c-2.69-.43-5.43-.87-8.21-1.29,6.81-30,2.29-48.16-.52-55.56a59.81,59.81,0,0,1,6.28-2.73C424.4,5.18,427.67,9.13,432.29,13.62Z" style="fill:#e0d8b8"/><path d="M460.45,74.52C448.24,71.88,435,69.34,420.59,67h0c.58-28,7-44.75,11.7-53.36a45.54,45.54,0,0,0,4.9,4.26,26.94,26.94,0,0,0,13.9,5.22A28.64,28.64,0,0,0,462.19,22a50.62,50.62,0,0,0,10.55-4.84A130,130,0,0,1,460.45,74.52Z" style="fill:#a6a9bc"/><path d="M491.07,22.63c-7.92,8.71-18.43,25.32-21.45,53.94q-4.49-1-9.17-2a130,130,0,0,0,12.29-57.38c6.25-3.59,10.5-6.32,14-.17A24.9,24.9,0,0,0,491.07,22.63Z" style="fill:#e0d8b8"/><path d="M540.78,32.3c-8.89,8.6-21.56,25.15-31,55q-4.59-1.42-9.5-2.83c17.27-25.93,21.15-47.07,21.84-58.19C531.65,23,533.05,22,540.78,32.3Z" style="fill:#e0d8b8"/><path d="M565.65,36.27c-.46,8.38-4.08,31-27.75,60.74-8.16-3.18-17.5-6.45-28.15-9.73,9.47-29.83,22.14-46.38,31-55l1.12,1.53a15.9,15.9,0,0,0,2.72,2.9c4.14,3.46,8.92,3.42,13.48,2.26A55,55,0,0,0,565.65,36.27Z" style="fill:#a6a9bc"/><path d="M586,44.57c-12.1,9.5-32.18,28.74-39.47,55.89q-4.05-1.71-8.59-3.45c23.67-29.75,27.3-52.35,27.76-60.73,2.9-1.23,5.43-2.33,7.28-2.44C577.73,33.55,580.85,38.83,586,44.57Z" style="fill:#e0d8b8"/><path d="M607.51,52.31c-4.63,10.32-16.59,31.41-44.28,55.77-4.75-2.36-10.3-4.94-16.74-7.63C553.78,73.3,573.86,54.07,586,44.56c.89,1,1.83,2,2.86,3a41.52,41.52,0,0,0,3.67,3.21A11.65,11.65,0,0,0,597.84,53,26.64,26.64,0,0,0,607.51,52.31Z" style="fill:#a6a9bc"/><path d="M622.54,63.81c-13.9,7.77-37.74,23.8-51.52,48.37-2.31-1.27-4.9-2.64-7.79-4.1,27.69-24.36,39.65-45.44,44.28-55.76h0C613.76,51,619,49,619.66,53A44.41,44.41,0,0,0,622.54,63.81Z" style="fill:#e0d8b8"/><path d="M639.71,72.91c-7.59,8.75-25.75,25.92-62.24,43q-2.76-1.71-6.45-3.77c13.77-24.58,37.62-40.6,51.51-48.37a22.09,22.09,0,0,0,2,3.54,12.09,12.09,0,0,0,9.38,5.57A42,42,0,0,0,639.71,72.91Z" style="fill:#a6a9bc"/><path d="M657,85.85c-15.81,5.26-55.33,19.22-74.72,33.21-.7-.48-1.45-1-2.24-1.5s-1.64-1-2.57-1.6c36.49-17.12,54.65-34.3,62.24-43,7.18-.43,12-1.82,12.94,4.61C653,80.09,654.62,83,657,85.85Z" style="fill:#e0d8b8"/><path d="M694.3,110.11c-11.58,3-40.13,7.5-110.24,10.2h0c-.56-.42-1.14-.83-1.77-1.26,19.39-14,58.91-27.94,74.72-33.21a35.26,35.26,0,0,0,8.08,7c4.18,2.65,8.9,4.38,13.24,4.23,9.44-.33,10.87-2.31,14.12,7.18C693,105.85,693.6,107.78,694.3,110.11Z" style="fill:#a6a9bc"/><path d="M715.49,130.41a35.26,35.26,0,0,0-4.77,2.2c-16.62-4-55.62-11-124.28-10.46h0c-.7-.58-1.49-1.19-2.37-1.84,70.11-2.7,98.67-7.19,110.24-10.19.05.11.08.24.12.35C699.39,127,732.73,123.89,715.49,130.41Z" style="fill:#e0d8b8"/><path d="M710.72,132.61a41.86,41.86,0,0,0-16,15.81c-11.39.41-39.69-3-108.27-26.25l0,0C655.1,121.65,694.1,128.61,710.72,132.61Z" style="fill:#a6a9bc"/><path d="M694.42,167.19a14.48,14.48,0,0,0-8.53,2.23C671.66,160.9,633.18,139.21,590,126a15.06,15.06,0,0,0-3.55-3.84c68.58,23.21,96.88,26.66,108.27,26.25-2.74,4.77-3.87,9.08-3.38,11.2C692.5,164.69,704.38,168.34,694.42,167.19Z" style="fill:#e0d8b8"/><path d="M685.89,169.42a29.94,29.94,0,0,0-6.18,4.66,35.59,35.59,0,0,0-3.31,3.68,28.72,28.72,0,0,0-1.89,2.75c-10.7-3.37-34.47-14.65-84.82-51A2.6,2.6,0,0,0,590,126C633.18,139.21,671.65,160.9,685.89,169.42Z" style="fill:#a6a9bc"/><path d="M674.47,180.56c-1.92,3.13-2.87,6.21-2.27,8.47,1,3.73-4.88,5.14-12.58,5.37-14.17-15-50.24-51.38-75.57-62.51,2.71-.66,4.63-1.44,5.64-2.43,50.35,36.41,74.13,47.69,84.82,51Z" style="fill:#e0d8b8"/><path d="M659.62,194.4A116.85,116.85,0,0,1,647.2,194c-3.71-.3-7.27-.73-10.26-1.16a22.53,22.53,0,0,0-8.78.1,10.34,10.34,0,0,0-2.29.84h0c-9-7-25.2-23.6-45.27-61.2,1.26-.22,2.42-.46,3.46-.72C609.38,143,645.44,179.43,659.62,194.4Z" style="fill:#a6a9bc"/><path d="M625.86,193.8a7.79,7.79,0,0,0-4.24,6.34c-.23,1.79-8.07.31-16.17-2.69-3.4-12.65-12.77-41.23-32.47-63.71,2.85-.37,5.39-.74,7.61-1.14C600.66,170.2,616.89,186.78,625.86,193.8Z" style="fill:#e0d8b8"/><path d="M605.45,197.44a66.9,66.9,0,0,1-10.34-4.79,28.21,28.21,0,0,1-4.6-3.24c-3.64-3.27-8.07-4.22-12.11-4.51-1.72-.14-3.37-.15-4.85-.17-3.78-8.21-9.6-23.82-14.21-49.35,5.06-.61,9.65-1.13,13.64-1.65C592.68,156.22,602.05,184.8,605.45,197.44Z" style="fill:#a6a9bc"/><path d="M573.55,184.73c-2.79,0-5-.1-6-1.07-1.91-1.89-2.27-1.29-7.9-2.56.21-10.78-.31-30.43-5.88-45.11,1.79-.17,3.63-.38,5.53-.61C564,160.91,569.77,176.53,573.55,184.73Z" style="fill:#e0d8b8"/><path d="M559.69,181.1c-1.42-.31-3.16-.75-5.36-1.37-1.4-.39-3-.86-4.76-1.44-6.78-2.15-13.4-10-18.76-18.33a161.72,161.72,0,0,1-11.89-22.51l7.35-.09c.47,0,.93,0,1.39,0h.24c8.27-.12,16.22-.38,25.91-1.34C559.38,150.67,559.89,170.31,559.69,181.1Z" style="fill:#a6a9bc"/><path d="M350.7,135c-25.29-3.45-53.65,4.21-120.32-1.92S179,95.15,195.13,97s96.94,3.12,140.63,3.45S398.21,127,398.21,127C408.51,136.9,376,138.45,350.7,135Z" style="fill:#eae4ca"/><path d="M79.69,72.12C69.63,75,57.27,88.83,54.69,84.23s-14.08-7.47-11.78-9a87.56,87.56,0,0,1,16.71-9.17c7.47-2.89,15.4-4,22.47-.32C86.68,68.1,83.29,71.1,79.69,72.12Z" style="fill:#f2ecd6"/><path d="M105.8,116.79c-4.55,10.26-11.16,6.52-11.16,6.52-2.59-.28-16.39-4.7-18.11-6.52s14.66-22.22,18.11-29.4S110.34,106.54,105.8,116.79Z" style="fill:#fcf8eb"/><path d="M522.09,26.26c-.69,11.13-4.57,32.27-21.85,58.19h0c-9.3-2.66-19.47-5.31-30.6-7.88,3-28.63,13.53-45.24,21.45-53.94a21.15,21.15,0,0,0,4.05,3.08c5.18,3.13,11.5,4.06,18.16,3a38.22,38.22,0,0,0,5.64-1.37C520.07,27,521.12,26.6,522.09,26.26Z" style="fill:#a6a9bc"/><path d="M33.18,85.57A1.82,1.82,0,1,1,35,87.4,1.82,1.82,0,0,1,33.18,85.57Z" style="fill:#fcf8eb"/><path d="M112.77,83.47c1.9-1,3.54-2,5-2.66,4.61-2.39,6.78-2.94,7.65-.94-.43-.14-8,3.41-11.43,3.79C113.2,83.74,112.83,83.67,112.77,83.47Z" style="fill:#babecc"/><path d="M131.42,98.59a8.11,8.11,0,0,1-1.72,4.11c-5.56,1.82-10.74,3.79-10,2.89,1.09-1.41,12.3-6.5,8.09-6.32s-14.38,5.63-13.26,3.78,17.08-6.09,12.3-6.11-15.33,4.82-14.85,3.87,12.65-5.46,13.91-6.4-3.85,0-10.74,2.53-6.23.61-2.12-2.07,16.2-6.9,8.73-4.41-12.94,5.07-11.11,3.06,17.37-8,12.83-6.79-16.58,8-13.22,4.69,18.11-8.53,12.54-8-12.83,6.47-10.16,3.69c2-2.08,9.45-5.16,13.1-6.6,1.06,2.09,2.19,2.88,3.05,9C129.7,96.29,132.28,90.55,131.42,98.59Z" style="fill:#babecc"/><path d="M238.57,39.06c-1.72-8.58-5.93-22.08-7.47-15s-5.93,22-5.36,11.09c.4-7.57-1.61-18.41-2.87-24.35a44.86,44.86,0,0,0,18.39-1.71C248.17,46.69,240.24,47.36,238.57,39.06Z" style="fill:#babecc"/><path d="M202.55,39.69c.29,6.9-9.2-9.69-13.65-9-4,.62-9.14-1.56-13.92-13.42a52.08,52.08,0,0,0,19.63-3.61C197.51,21.34,202.36,34.87,202.55,39.69Z" style="fill:#babecc"/><path d="M299.69,45c-.87,9.28-4.46-15.81-9-17s-4.87,1-5.41,9.82-10.89,14.78-10,3.61,2-18.56-3.44-13.43c-4.53,4.27-7.48-4.33-1.46-18.52,7.36,3.56,17.4,5.81,24.85,3.84C297,21.23,300.35,38,299.69,45Z" style="fill:#babecc"/><path d="M341.36,37.3c1.73-13-3.16-18.3-9.19-9.36s-12.36,27.61-13,13.43c-.42-9.15,5.12-22.28,9.1-30.43a41.25,41.25,0,0,0,18.37-1.31C355.57,45.91,339.66,50.14,341.36,37.3Z" style="fill:#babecc"/><path d="M409.76,34.8c-2.3,14.09-8.33-14.29-12.36-6.86s0,25.66-6.61,27.18-3.41-6.52-5.43-16.29-7.21-14.09-10.66-4,2.3,16.3-2.59,16.63c-4.64.32-12.14-12.59,3.9-39,1.4.6,2.92,1.25,4.58,1.92,10.86,4.34,18.23,2.14,25.16-1.14C408.24,18.12,411.16,26.19,409.76,34.8Z" style="fill:#babecc"/><path d="M462.19,22c-.35,9.81-1.47,27-5,37.24-5.17,15-3.45-10.92-6.9-19.25s-12.07-7.19-13.5,8.91c-1.39,15.53-15.61,6.87.41-31a26.94,26.94,0,0,0,13.9,5.22A28.64,28.64,0,0,0,462.19,22Z" style="fill:#babecc"/><path d="M513.28,28.69c-1.94,11.46-5.44,31.09-7.24,35.12-2.59,5.77-10.64-14.05-17.25-4.58-6.32,9.06-15.61,3.74,6.33-33.52C500.3,28.84,506.62,29.77,513.28,28.69Z" style="fill:#babecc"/><path d="M558.1,39c-3,10.38-9.72,32.07-16.14,42.42-8.61,13.87,1.62-17.2-2.63-16.52s-9.21,10.23-13.06,16.52c-3.63,5.92-10.47-9.17,18.35-44.68C548.76,40.19,553.54,40.15,558.1,39Z" style="fill:#babecc"/><path d="M597.84,53c-4.55,8.15-13.35,23.26-20.37,31.43-9.93,11.57-6.44-12-13.78-1.65-7.09,10-9.38-5,25.12-35.23a41.52,41.52,0,0,0,3.67,3.21A11.65,11.65,0,0,0,597.84,53Z" style="fill:#babecc"/><path d="M554.33,179.73c-1.4-.39-3-.86-4.76-1.44-6.78-2.15-13.4-10-18.76-18.33-4.36-14.94.77-19.48,5.12-16,6,4.84,7.76,2.36,14.94,4.5C556.33,150.07,555.19,170.16,554.33,179.73Z" style="fill:#babecc"/><path d="M595.11,192.65a28.21,28.21,0,0,1-4.6-3.24c-3.64-3.27-8.07-4.22-12.11-4.51-7.73-19.77-10.57-34.43-7.38-32.84,3.49,1.72,7.15-.86,13,9.87C587.91,168.94,592.44,183.44,595.11,192.65Z" style="fill:#babecc"/><path d="M647.2,194c-3.71-.3-7.27-.73-10.26-1.16a22.53,22.53,0,0,0-8.78.1c-20.64-21.61-33-44.88-26.13-39.7,8,6.1,14.94,13.45,20.5,13.5C626.49,166.78,639.83,184,647.2,194Z" style="fill:#babecc"/><path d="M679.71,174.08a35.59,35.59,0,0,0-3.31,3.68c-22-12.06-57.52-36.19-44.77-32C642.94,149.54,669.65,167.27,679.71,174.08Z" style="fill:#babecc"/><path d="M702.27,138.8c-11.77-2.78-41.26-9.48-52-9.34-13.51.18,4.76,4.47,6.69,7.21,1.65,2.35,25.09,7.12,39.91,8.35Z" style="fill:#babecc"/><path d="M692.44,104.24c-15.5,4.73-39,7.54-43.86,3.85-6-4.6-47.84,11.52-43.13,4.09,3.4-5.36,39.76-14.63,59.63-19.35,4.18,2.65,8.9,4.38,13.24,4.23C687.76,96.73,689.19,94.75,692.44,104.24Z" style="fill:#babecc"/><path d="M631.29,72.46c-9.6,9.8-27.13,26.87-33.86,28-9.49,1.6-6.65-3-11.52,2.63-4.69,5.39-4.15-13.08,38.58-35.73A12.41,12.41,0,0,0,631.29,72.46Z" style="fill:#babecc"/></g></g></svg>