<svg xmlns="http://www.w3.org/2000/svg" viewBox="0 0 289.99 153.39"><title>black-pacu</title><g id="Layer_2" data-name="Layer 2"><g id="Ñëîé_2" data-name="Ñëîé 2"><path d="M288.42,92.31c-.78-5.37-6.38-7.84-8.7-11.18C277,77.17,275,76,275,73.8s.44-4.83-2.16-7.17-4.14-5.71-6.19-10.7.88-9.51,2.65-10.25-.75-4.24,1-5,1.91-4.4,4-9.09,7-7.61,5-11.27-9.42-1.71-9.92-1.58c5-2,9.82-3.25,13.88-3.25,0,0,6.37.88,1.1,7.68s-4.84,9-6.81,11.21.88,2.85-1.32,4-1.76,3.51-1.32,5.92-.66,5.06-2.19,7.26,0,9.67,4,12.3-.44,5.71,2.63,7.91,4.18,10.1,7.15,10.54C288.72,82.65,292,89.32,288.42,92.31Z" style="fill:#5d5d5e"/><path d="M288.42,92.31a7.11,7.11,0,0,1-4.35,1.41c-8.23.37-25.69-5-37.73-17.15,21.54,15,36.85,12.31,28.79,10.27s-23.72-9.53-27.24-15.62,6,2.44,16.41,6.09,9.22-.44,6.74-1-16.26-7.18-20.21-11,8.35,1.9,15.11,2.51-4.72-4-11.54-7.93-.21-2.2,8.73-1.32-1.76-2.78-6.59-4.53-3.81-3.53,3.95-2.94S262,48.91,256,48s-3.8-2.79,5.27-2.93-1-1.91-6.82-1.91-3.57-1.9,4.48-5.36,5.71-5.91-1.61-2.39-12,5.73-8.2,1.75,25.33-13.77,15.38-11-22.72,12-22.72,12a29.06,29.06,0,0,0-3.23-2c5.9-4.19,18.84-12.76,30.79-17.46h0c.5-.13,7.95-2,9.92,1.58s-2.91,6.59-5,11.27-2.2,8.35-4,9.09.76,4.24-1,5-4.7,5.27-2.65,10.25,3.6,8.35,6.19,10.7,2.16,5,2.16,7.17,2,3.37,4.73,7.33C282,84.47,287.64,86.94,288.42,92.31Z" style="fill:#414142"/><path d="M246.34,76.57l0,0a47.45,47.45,0,0,1-5.74-7s10.33-8.34,9-19.63c-.62-5.36-4.23-9.19-7.85-11.72,0,0,12.75-9.21,22.72-12s-11.54,7-15.38,11,.88,1.76,8.2-1.75,9.66-1.09,1.61,2.39-10.29,5.36-4.48,5.36,15.9,1.76,6.82,1.91S250,47.15,256,48s12.3,3.66,4.54,3.07-8.78,1.18-3.95,2.94,15.52,5.41,6.59,4.53-15.57-2.64-8.73,1.32,18.31,8.55,11.54,7.93-19.07-6.32-15.11-2.51,17.71,10.39,20.21,11,3.65,4.69-6.74,1-19.92-12.18-16.41-6.09,19.19,13.56,27.24,15.62S267.88,91.61,246.34,76.57Z" style="fill:#2d2d2d"/><path d="M201.18,105.81a27.53,27.53,0,0,1-6.66,6.79c-23.9,17.38-78.42,5.51-95.85-9.81-19.33-17-46.21-19.34-46.21-19.34-3.47,5.43-9.39,9.4-14.65,12.08,0,0,80.5,75.8,157.22,25.86q1.77-1.74,3.4-3.55,2.79-3,5.23-6.15a129.88,129.88,0,0,0,19.69-35.84c.46-1.32.68-2,.68-2a12.22,12.22,0,0,1,.73-2.58,11.78,11.78,0,0,1,2-3.4A7.61,7.61,0,0,1,229.2,66C217.71,70.73,219.33,79.09,201.18,105.81ZM86.81,97.67c-.6.22-1.49.6-2.41,1-1.79.83-3.67,1.84-3.52,2.28.22.65-5,2.41-6.37,2s-2,1.54-4,1.32c-1.46-.17-1.11.64-2.1,1.16a4,4,0,0,1-1.63.38c-3.07.22-16.91-7.25-20.39-11.42s3-2.45,3-2.45C66.5,93.67,88.57,97,86.81,97.67Z" style="fill:#353535"/><path d="M195,121.39c-13.4,13.29-32.09,24.17-57.41,24.17q-3.85,0-7.57-.15c-6.29-.23-12.27-.75-17.94-1.52-.78-.11-1.53-.21-2.3-.34-47-7-72.49-30.8-82.9-43.68a63.79,63.79,0,0,0,10.9-4.34S118.31,171.33,195,121.39Z" style="fill:#2d2d2d"/><path d="M249.58,49.92c-.62-5.36-4.23-9.19-7.85-11.72a29.06,29.06,0,0,0-3.23-2c-1,.69-1.77,1.27-2.32,1.68a18.24,18.24,0,0,1-22,.44,7.71,7.71,0,0,0-.86-.53h0c-3-1.75-9.51-4.55-18.32-7.63-8-2.82-18-5.88-28.9-8.61a280.39,280.39,0,0,0-47.59-8q-3.23-.22-6.42-.34h0c-4.41-.16-8.76-.16-13,0-28.34,1.33-48,10.9-60.92,19.61-1.07,2.69-.25,5,6.44,10.7,5.57,4.7,8.62,15.83,9.82,21.21l0,.13c0,.14.07.28.09.43s.07.27.1.42l.06.33a.51.51,0,0,1,0,.09c0,.08,0,.17,0,.25s.05.27.08.39c.11.64.18,1,.18,1a38.13,38.13,0,0,1,.41,5.64,18.22,18.22,0,0,1-3,9.94s26.88,2.36,46.21,19.34c17.43,15.32,72,27.19,95.85,9.81a27.53,27.53,0,0,0,6.66-6.79c18.15-26.72,16.53-35.08,28-39.83a0,0,0,0,1,0,0,7,7,0,0,1,3-.66,9.76,9.76,0,0,1,8.34,4.24S250.9,61.21,249.58,49.92ZM207,73.63a27,27,0,0,1-4.88,3.46c-12.08,6.7-27,6.33-40.12,7.18a249.11,249.11,0,0,1-66.83-4.91c-43.5-9.09-38.66-44.07-8.25-53.3s102.26,6.59,120.28,19.77C218.15,53.86,215.46,66.07,207,73.63Z" style="fill:#414142"/><path d="M55.47,73.51a18.22,18.22,0,0,1-3,9.94c-3.47,5.43-9.39,9.4-14.65,12.08a63.79,63.79,0,0,1-10.9,4.34s-.8-.28-2.08-.81a53.65,53.65,0,0,0,15.44-9.63c5-4.65,8.5-10.28,9.14-16.74,0,0,0,0,0,0a22.54,22.54,0,0,0,0-3.68c-1-14.5-14.21-21.82-10.26-21.09,3.26.6,12.21,5,15.24,17l0,.13c0,.14.07.28.09.43s.12.53.16.75a.37.37,0,0,1,0,.09c0,.08,0,.17,0,.25s.05.27.08.39c.11.64.18,1,.18,1A38.13,38.13,0,0,1,55.47,73.51Z" style="fill:#2d2d2d"/><path d="M40.27,89.43a47.58,47.58,0,0,1-7.86,5.81A41.35,41.35,0,0,0,20.87,92.5C14.39,92,10.29,87.86,9.93,89.91a40.28,40.28,0,0,1-4.74-6.46c.27.2,4.5,3.34,8.62,3.34s7.54,1.76,11.5,2.64S31.84,94.6,40.27,89.43Z" style="fill:#505051"/><path d="M49.41,72.69c-.64,6.46-4.13,12.09-9.14,16.74-8.44,5.17-11,.88-15,0s-7.24-2.64-11.49-2.64-8.35-3.14-8.62-3.34h0c-1.66-2.77-2.55-4.79-3.6-5.4C-.18,77-.47,76,.7,74.68s7,.64,7.31.73c-.2-.31-4.79-7.24-3.21-10.1.36-.65,1-1.65,1.84-2.87,1,3.6,3,9.37,5.41,10.85,3.59,2.19,4.8,4.28,9.3,3.95s10.88-1.54,11.53-6.59.11-9,3.07-9.22.88,12.18-1.2,19.21S47.67,80.16,49.41,72.69Z" style="fill:#414142"/><path d="M39.21,47.88c3.26.6,12.21,5,15.24,17-1.2-5.38-4.25-16.51-9.82-21.21-6.69-5.65-7.51-8-6.44-10.7-8.47,5.74-14,11.1-17,13.49-5.92,4.66-11.58,11.73-14.56,16,1,3.6,3,9.37,5.41,10.85,3.59,2.19,4.8,4.28,9.3,3.95s10.88-1.54,11.53-6.59.11-9,3.07-9.22.88,12.18-1.2,19.21,12.92-.48,14.66-8c0,0,0,0,0,0a22.54,22.54,0,0,0,0-3.68C48.44,54.47,35.26,47.15,39.21,47.88ZM15.49,69.77a4.17,4.17,0,1,1,4.17-4.17A4.17,4.17,0,0,1,15.49,69.77Z" style="fill:#353535"/><path d="M54.75,66.24a.51.51,0,0,0,0-.09c0-.22-.11-.48-.16-.75,0,.13.07.27.1.42S54.73,66.1,54.75,66.24Z" style="fill:#9f8370"/><path d="M17.18,66a1.81,1.81,0,0,1-1.69,1.9,1.92,1.92,0,0,1,0-3.81A1.81,1.81,0,0,1,17.18,66Z" style="fill:#2b2b2b"/><path d="M15.49,61.43a4.17,4.17,0,1,0,4.17,4.17A4.17,4.17,0,0,0,15.49,61.43Zm0,7.54a3.37,3.37,0,1,1,3.44-3.37A3.41,3.41,0,0,1,15.49,69Z" style="fill:#414142"/><path d="M15.49,62.23a3.37,3.37,0,1,0,3.44,3.37A3.41,3.41,0,0,0,15.49,62.23Zm0,5.64a1.92,1.92,0,0,1,0-3.81,1.92,1.92,0,0,1,0,3.81Z" style="fill:#d4a671"/><path d="M86.81,97.67c-.6.22-1.49.6-2.41,1-10.31-3.08-9.3-2.12-6.6,0s.81,2.21-4,0-9.45-2.78-5.42-.8,6.89,5.11,2.12,3-12.67-5.06-9.52-3,10.84,5.67,6.74,4.93S52.83,95.62,56,98.69s12.46,6.73,12.46,6.73a4,4,0,0,1-1.63.38c-3.07.22-16.91-7.25-20.39-11.42s3-2.45,3-2.45C66.5,93.67,88.57,97,86.81,97.67Z" style="fill:#414142"/><path d="M84.4,98.69c-1.79.83-3.67,1.84-3.52,2.28.22.65-5,2.41-6.37,2s-2,1.54-4,1.32c-1.46-.17-1.11.64-2.1,1.16,0,0-9.32-3.65-12.46-6.73s7.61,3.37,11.71,4.1-3.59-2.9-6.74-4.93,4.76.92,9.52,3,1.9-1-2.12-3,.59-1.4,5.42.8,6.73,2.12,4,0S74.09,95.61,84.4,98.69Z" style="fill:#5d5d5e"/><path d="M234.19,103.19c-4.18,7-3.52,13-3.52,13s.44,2.2-1.1,2.2,4.48,4,3.24,4.83-.82,3.73,1.6,4.83,8.78,2.64-.66,3.73a30.06,30.06,0,0,1-4.7.14,23.22,23.22,0,0,1-4.29-11.58c-.23-3.74,2.63-2.86.88-7.25s4-12.52,5.93-14.36-2.42-5.19,0-7.11,2-6.65.88-12.22-7.69-8.14-7.69-8.14a11.78,11.78,0,0,1,2-3.4c2.41,0,8.71.3,10.47,2.42,2.2,2.63,1.32,9,2.2,10.76s-.44,3.3,0,5S238.36,96.16,234.19,103.19Z" style="fill:#5d5d5e"/><path d="M220.37,126.82c-9.08-3.08-16.71-15.13-16.71-15.13a129.88,129.88,0,0,0,19.69-35.84c4.69,7,1,16.9-.2,20.94s0,10.55,0,10.55c-4.23-4.11-4.83-16-5.71-10.4s4.52,19.62,4.67,20c-5.42-4.43-9.66-18.1-9.5-11.1s11.71,17.57,8.48,16.25S210,112.9,210,112.9C213.78,123,229.44,129.89,220.37,126.82Z" style="fill:#2d2d2d"/><path d="M231.57,98.69c-2,1.84-7.69,10-5.93,14.36s-1.11,3.51-.88,7.25a23.22,23.22,0,0,0,4.29,11.58c-8.47-.38-21.45-3.75-30.62-14q2.79-3,5.23-6.15s7.63,12,16.71,15.13S213.78,123,210,112.9c0,0,7.91,7.91,11.12,9.22s-8.33-9.25-8.48-16.25,4.08,6.67,9.5,11.1c-.15-.41-5.54-14.55-4.67-20s1.48,6.29,5.71,10.4c0,0-1.16-6.44,0-10.55s4.89-13.92.2-20.94c.46-1.32.68-2,.68-2a12.22,12.22,0,0,1,.73-2.58s6.59,2.57,7.69,8.14,1.53,10.3-.88,12.22S233.54,96.85,231.57,98.69Z" style="fill:#414142"/><path d="M139.09,153.39c-1.13,0-2.21,0-3.24-.07-10.19-.93-17.31-6-14.33-4.68s9.15,1,10.41.94-.46-.73-6-1.46-6.62-2.49-3.69-1.75a80.79,80.79,0,0,0,9.67,1.18h0c2.1,1.15,4.95,1.1,5.18,2,.33,1.21.44,1.42,2,2.09S139.09,153.39,139.09,153.39Z" style="fill:#414142"/><path d="M135.85,153.32c-14.32-.66-22.7-6.72-26-9.77.77.13,1.52.23,2.3.34,5.67.77,11.65,1.29,17.94,1.52a7.94,7.94,0,0,0,1.87,2.14,80.79,80.79,0,0,1-9.67-1.18c-2.93-.74-1.84,1,3.69,1.75s7.25,1.39,6,1.46-7.34.46-10.41-.94S125.66,152.39,135.85,153.32Z" style="fill:#2d2d2d"/><path d="M173.13,21.09c3.28-3.22-2.12-6.3-3.73-7s-3.66-3.08-6.59-3.24-6.3-1.73-9.22-5.84-19.87-1.79-19.87-1.79C140.48-.44,152.07-.91,158,1.46c6.59,2.63,9.23,4.65,7.91,5.18S169,7,168.74,8.27s2.64,3.07,4.4,3.07,4,1.44,3.29,1.82,2.42.82,2.42,1.7C178.85,15.54,179.41,19.62,173.13,21.09Z" style="fill:#5d5d5e"/><path d="M172.53,21.21a27.94,27.94,0,0,1-6.4.37,280.39,280.39,0,0,0-47.59-8s13.59-7,20.92-7.92-3.52,2-7,4.47,1.17,2.05,8.94-1.17,8.78-3.22,4.46-.22-8.33,8-.91,4.38,12-5.67,7.94-2.35-6.59,5.73-.51,4.42,14.06-3.23,8.93-.52-5.2,4.1,1,3.22,10.77-.94,6.51.27-4.61,2.08-2.55,1.93S172,20.46,172.53,21.21Z" style="fill:#2d2d2d"/><path d="M173.13,21.09l-.6.12c-.53-.75-4.23-1.23-6.27-1.08s-1.69-.73,2.55-1.93-.36-1.15-6.51-.27-6.08-.51-1-3.22-2.86-.8-8.93.52-3.52-1.1.51-4.42-.51-1.29-7.94,2.35-3.41-1.38.91-4.38,3.29-3-4.46.22-12.38,3.66-8.94,1.17,14.28-5.42,7-4.47-20.92,7.92-20.92,7.92q-3.23-.22-6.42-.34c.57-.17,13.49-4,19.5-8.75a14.55,14.55,0,0,1,2.1-1.35S150.66.87,153.59,5s6.3,5.66,9.22,5.84,5,2.51,6.59,3.24S176.41,17.87,173.13,21.09Z" style="fill:#414142"/><path d="M213.35,37.82c-3-1.75-9.51-4.55-18.32-7.63,0,0,7.76-3.84,15.82-.76,0,0,1.94,1.68,1.06,2s2.08,1.1,1.32,1.32.12,1.54.12,1.54S214.14,35.31,213.35,37.82Z" style="fill:#414142"/><path d="M207.19,45.83c-18-13.18-89.87-29-120.28-19.77s-35.25,44.21,8.25,53.3A249.11,249.11,0,0,0,162,84.27c13.17-.85,28-.48,40.12-7.18A27,27,0,0,0,207,73.63C215.46,66.07,218.15,53.86,207.19,45.83Zm-10.62,8.24a12.69,12.69,0,0,1-5.82,9.46,21.35,21.35,0,0,1-6.08,2.78c-4.91,1.43-10.13,1.8-15.21,2.13A187.63,187.63,0,0,1,142,67.82c-37.49-3-54.18-23.31-34.56-33.63s56.52-2.27,77.91,6.52C191,43,197.27,47.19,196.57,54.07Z" style="fill:#505051"/><path d="M196.57,54.07a12.69,12.69,0,0,1-5.82,9.46,21.35,21.35,0,0,1-6.08,2.78c-4.91,1.43-10.13,1.8-15.21,2.13A187.63,187.63,0,0,1,142,67.82c-37.49-3-54.18-23.31-34.56-33.63s56.52-2.27,77.91,6.52C191,43,197.27,47.19,196.57,54.07Z" style="fill:#5d5d5e"/><path d="M40.27,78.05s9-3,6.71-11.81-6.3-8.14-5.86,0-2.71,11.81-2.71,11.81S38.13,79.07,40.27,78.05Z" style="fill:#414142"/><path d="M15.49,85.26S25.27,85.37,28,87,33.39,82,33.5,78.5s-2.41-1.92-5.6.5-7.5,3.64-10.72,4.45S14.15,85.23,15.49,85.26Z" style="fill:#505051"/><path d="M32.41,95.24l-7.58,3.82c-3.61-1.46-11-4.82-14.9-9.15.36-2,4.46,2,10.94,2.59A41.35,41.35,0,0,1,32.41,95.24Z" style="fill:#5d5d5e"/><path d="M16.08,65.16a1.1,1.1,0,1,1,1.1,1.1A1.1,1.1,0,0,1,16.08,65.16Z" style="fill:#eae3dd"/></g></g></svg>