<svg xmlns="http://www.w3.org/2000/svg" viewBox="0 0 243.75 188.97"><title>black-tetra</title><g id="Layer_2" data-name="Layer 2"><g id="Ñëîé_2" data-name="Ñëîé 2"><path d="M231.7,43.53C221.24,47,203,57.78,189.84,65.72c-2,1.19-3.79,2.2-5.49,3q.43.75.9,1.65s30.94-15.32,36.71-18-19.67,13.06-26.88,16.36S206.8,67.17,215.64,63s11.55-.36-2.52,4.51-28.15,8.12-17.5,7.94,23.27-1.63,1.44,2.7,11.37,4,17.86,2.79,11.37,1.72-4.69,3.07-22.37.8-8.48,3.87,18.59,5.79,14.08,5.43-28.15-6.26-23.64-2.77,27.42,9.08,22.55,9.8-26.7-8.2-24-5.27,27.42,12.67,22.37,12.85c-3.45.12-15.81-5.55-21.07-8.07,7.32,4,20.21,14.49,21.07,16.55s-13.14-5-19.71-10.91q5.57,5.34,12.49,13.08c15.52,17.32,18,19.84,23.28,19.84s2.16-.72,3.06-4.87-1.08-4.15-.72-8.66-5.05-5.77-4-8.84,0-3.61,0-6.13.36-3.79-1.44-5.42,1.26-3.26-1.8-5.32-5.42-7.13-3.43-10.73,7-8.84,6.49-10.47,4.63-4,5.11-5.41,3.91-2,3.19-3.61,3.79-3.25,3.07-4.87,4-2.89,3.07-5.23-.36-6.8,1.44-11S242.17,40.1,231.7,43.53Zm-10.28,59.36c2.73-1.67,4.15,7.4,3.43,10.83s-2,4.14,1.82,7.21,1.6,3.25,2.51,9.74-2,5.42-6.32,2.17-7.22-6-5-9.92a15.93,15.93,0,0,0,.53-14.08C216.19,104.33,221.42,102.89,221.42,102.89Zm16.24-45.11c0,4.51-5.6,7.58-5.6,7.58-5.48,6.52-6.85,2.71-3.79-4s1.64-17.23,7.76-16.6S237.66,53.27,237.66,57.78Z" style="fill:#dbd3ce"/><path d="M213.12,67.52c14.07-4.87,11.36-8.66,2.52-4.51s-27.78,9-20.56,5.72S227.73,49.66,222,52.37s-36.71,18-36.71,18a26.93,26.93,0,0,1,3.15,12.46A27.91,27.91,0,0,1,186.55,92,36.38,36.38,0,0,1,184,97.4a94.33,94.33,0,0,1,9.37,8.08s0,0,0,0c6.57,5.88,20.61,13.07,19.71,10.91S199.37,103.85,192,99.87c5.27,2.53,17.63,8.19,21.08,8.07,5-.18-19.67-9.93-22.37-12.86s19.12,6,24,5.28-18-6.31-22.55-9.8,19.12,2.4,23.63,2.76-.18-2.34-14.07-5.42-7.58-2.51,8.48-3.86,11.19-4.25,4.69-3.07-39.69,1.53-17.86-2.8,9.2-2.89-1.44-2.71S199,72.39,213.12,67.52Zm-23.18,31.3.22.1.16.08.09,0c.15.06.32.15.52.25s.7.35,1.06.55l-.44-.22-.78-.37-.72-.36c-.08,0-.16-.08-.21-.12l0,0-.05,0Z" style="fill:#b7aeab"/><path d="M188.4,82.86A27.91,27.91,0,0,1,186.55,92s-13-16.31-31.41,3.08-18.95,23.38-30.31,29.15-14.44,17.58-4,19.27a93.88,93.88,0,0,1-12.31,3.86s2.94-7.78,1.15-11.93-2.54-6,5.88-10.32,6.49-15.61,6.3-22.43,6.69-18.67,5.24-28.06c-.59-3.88,1.64-7.88,4.46-11.23,2.26.6,4.4,1.25,6.37,2C156.23,72,156.86,68.79,149,64a49,49,0,0,0-13.07-5.1c.42-.37.82-.72,1.21-1,11.69,4,21.36,8.19,25.27,10.71,6.44,4.15,12.23,4.89,21.92.13.3.52.6,1.06.91,1.66A26.93,26.93,0,0,1,188.4,82.86Z" style="fill:#414142"/><path d="M121.88,102.69c.18,6.82,2.11,18.08-6.31,22.43s-7.67,6.15-5.88,10.3-1.15,11.94-1.15,11.94c-2.8.68-5.58,1.22-8.32,1.65-1,.16-1.93.3-2.89.42,10.43-13.35,12.72-21.28-3.33-15.58,0,0-.26-4.62.55-6.78s-1.88-12.51-.29-16.12,4.8-10.35,3.07-15.28-4-16-3.33-24.43a14.83,14.83,0,0,0-1.76-7c-1.92-3.59-1.61-5.77-3.67-5.77,14.14,0,30.53,1.59,43,4.88-2.82,3.36-5,7.36-4.45,11.23C128.56,84,121.69,95.87,121.88,102.69Z" style="fill:#938e8d"/><path d="M137.15,57.9c-.39.32-.79.66-1.21,1-4.78-1.24-9.7-2.09-14.12-3-14.26-2.9-29-4.79-43.53-4.22a77,77,0,0,0-13.66,1.81,89.19,89.19,0,0,0-12,3.6C47,59.21,36.7,62.43,34.5,68.73c-1.69,4.85,4.68,1.86,13.72-2-.08.28-2.13,7,0,9.33s-2.65,10.83.24,14.5-.24,7.16-2.16,12.13-.24,10.9,1.69,14.12,3.36,7.61,5.05,4.24,2.64-4.33,1.19-8.9S59,98.44,62,95.09s2.83-11.81.71-14.13-1.49-5.86-.45-8.5,0-11,0-11a53.27,53.27,0,0,1,7.39-1.73,130.33,130.33,0,0,1,18.9-1.2c-2.1.05-8.32,6.51-8.08,10.22s2.87,17,0,22.49-1.68,15.88-2.64,20.93-2.65,13.47,1,17.32a85.75,85.75,0,0,1,6.53,8C62,147.16,51,129.36,45.09,122.74s-9.19-4.46-19.88-7c2.84-2.83,4-6.92,3.55-9.07-.52-2.35-.93-4.15.69-7.39s2.89,3.42,2.71,6.13.18,6.13,1.77,7.21,2.38,3.43,3.28,2.89,2.88-5.23,5.41-7.94.18-6.13,0-8.68,1.62-8.1,1.26-13.42-2.16-3-2.16-3a2.78,2.78,0,0,1-3.79.42c-2.35-1.44-3.25-5.77-5-4.87s-6.79.12-9,4.31A9,9,0,0,0,20.17,81c.19-.82.52-2.67-.1-3.57-.31-.45-.06-1.34.37-2.25,2.86-1.34,5-2.94,5.88-4.43,1.2-2.16,6-6.85,6-6.85C45,52,64,48.58,78.93,48a126,126,0,0,1,23,1.13c2.19.31,4.43.68,6.7,1.11,5.06,1,10.25,2.21,15.34,3.62C128.54,55.1,133,56.48,137.15,57.9Z" style="fill:#b0a9a8"/><path d="M97.33,149.43c-.85.12-1.69.22-2.53.31-2.34.25-4.65.44-6.89.56-4,.21-7.81.23-11.38.11-1.81,0-3.56-.13-5.22-.25C46.05,148.48,23,121.53,23,121.53,10.69,116.24,1.3,98.44.22,93.87a6.79,6.79,0,0,1,2.17-7l3,4.56c-.1-.29-1.9-6-1.2-7.45s7.22-5.77,12-7.21a33.08,33.08,0,0,0,4.22-1.59c-.43.91-.68,1.8-.37,2.25.62.9.29,2.75.1,3.57a7.46,7.46,0,0,0-1-.06,9.11,9.11,0,0,0-6.48,2.75,10.59,10.59,0,0,0-3.05,7.51,10.91,10.91,0,0,0,.94,4.45,9.84,9.84,0,0,0,5.11,5.09c-.41,2.22-1.66,12.2,8.51,14.76l1,.23c10.69,2.53,14,.45,19.88,7s16.95,24.42,40.2,14.7q.58-.24,1.17-.51c2.87-1.29,5.37-2.31,7.54-3.08C110.05,128.15,107.76,136.08,97.33,149.43Z" style="fill:#dbd3ce"/><path d="M62,95.09c-2.94,3.35-9.2,12.49-7.76,17.06s.49,5.53-1.19,8.9-3.14-1-5.05-4.24-3.61-9.16-1.69-14.12,5.05-8.46,2.16-12.13,1.93-12.09-.24-14.5-.07-9,0-9.33h0a132.84,132.84,0,0,1,14-5.29s1,8.37,0,11-1.67,6.2.45,8.5S64.93,91.74,62,95.09Z" style="fill:#414142"/><path d="M192,99.84c-1.25-.6-2.09-1-2.3-1.14l1.23.59C191.27,99.45,191.63,99.64,192,99.84Z" style="fill:#414142"/><path d="M143.74,43.79c-2.15,4-7.7,8.89-19.72,10.06-5.09-1.41-10.28-2.66-15.34-3.62,1.8-2.16,1.35-4.71-.93-3.09-2.52,1.8-3.79.54-1.44-2.45s1.08-3.32-3.61-.8-1.62-1.44,1.44-5-.72-2.17-5.23,1.44-3.43.54,0-3.85,5.78-10.22.36-3.72-4.69,2.52-4.69,2.52c9.42-15,25-27.94,33.85-34.47a13,13,0,0,1,4.11,4.36c-6.11,4.85-21.1,17-25.75,23.67-5.89,8.43,8.18-7,17.68-12.86S113.76,27,109,31.26s2.76.42,14.31-8.24,13-5.41,6,.25-24.9,17.32-19.72,15.51,17.08-9,22-13.83,8.66-2.05-3.49,6.13S108,44,111.12,43.35,127,36.62,132.41,31.93s10.4-5.54,3.82.23S108,47.44,115.09,47.44s18.28-8.06,22.74-11.31,7.93-.6-1.33,4.93S115,49,116.77,49.61,133.05,51.69,143.74,43.79Z" style="fill:#5d5d5e"/><path d="M108.68,50.23c-2.27-.43-4.51-.8-6.7-1.11a126,126,0,0,0-23-1.13c3.37-1.46,8.67-4.34,10.42-8.49C92,33.25,113.75,6.31,121.88,1.25c2.55-1.58,4.64-1.53,6.4-.57l.15.08C119.63,7.29,104,20.27,94.58,35.23c0,0-.72,4,4.69-2.52s3.07-.67-.36,3.72-4.51,7.46,0,3.85,8.3-5.05,5.23-1.44-6.13,7.58-1.44,5,6-2.19,3.61.8-1.08,4.25,1.44,2.45C110,45.52,110.48,48.07,108.68,50.23Z" style="fill:#938e8d"/><path d="M176.49,104.33c-3.43-5-6.13-7.58-4-2.86s4.15,14,4.87,17.65-3.06-6.85-5.41-10.46-5.59-5-2.89,0,6.14,15,6.14,19.85-5.23-9-8.48-12.81-4-2.17-2.35,1.8,6.14,11.73,6.14,16.42-5.41-9.92-10.47-13.71-.36,3.42,3.07,8.33,4,13.14,3.43,12.75-5.77-9.9-10.47-12.42,4.15,10.28,6.32,17.5-7.22-9.56-11.55-13.89-4.15-.19-.9,5.41,11,28.5,3.43,15S139.69,137,141.49,140.23s11,20.93,8.66,18.41-11.19-13.17-15.34-15.7,11.91,17,12.63,22-13-15.84-18.94-20,10.64,19,13.53,25.62-15-18.58-19.19-21.83,7.64,12.45,11.61,23.1,0,4.15-8.48-8.48-14.79-18.77-8.12-7.83,18.41,34.17,11.37,24.61-25.08-35.37-17.86-19.67c5.38,11.71,15.59,22.42,20.42,27.1a.85.85,0,0,1-.09.14c-1.93,2.89-6,0-6,0C110,176.62,100.22,149,100.22,149c2.74-.44,5.52-1,8.32-1.66a93.88,93.88,0,0,0,12.31-3.86h0A79.9,79.9,0,0,0,162,107.58s5.29-7.94,5.47-9.57,2.71-4.33,7.58-4.69C180.64,107,179.92,109.38,176.49,104.33Z" style="fill:#5d5d5e"/><path d="M163.44,153.29c-8.66,8.9-21.65,26.22-24.06,26.22s-2.64,4.09-4.08,4.09-1.68,1.15-3.52,3.94c-4.83-4.68-15-15.39-20.42-27.1-7.22-15.7,10.83,10.1,17.86,19.67s-4.69-13.69-11.37-24.61-.36-4.8,8.12,7.83,12.45,19.12,8.48,8.48-15.82-26.34-11.61-23.1,22.08,28.51,19.19,21.83-19.48-29.77-13.53-25.62,19.67,25,18.94,20-16.78-24.5-12.63-22,13,13.17,15.34,15.7-6.86-15.16-8.66-18.41,4.33-.9,11.91,12.63-.18-9.38-3.43-15-3.43-9.74.9-5.41,13.71,21.1,11.55,13.89-11-20-6.32-17.5,9.93,12.06,10.47,12.42,0-7.83-3.43-12.75-8.12-12.12-3.07-8.33,10.47,18.4,10.47,13.71S166,121.47,164.4,117.5s-.9-5.59,2.35-1.8,8.48,17.68,8.48,12.81-3.43-14.8-6.14-19.85.55-3.61,2.89,0,6.14,14.07,5.41,10.46-2.7-12.92-4.87-17.65.54-2.19,4,2.86,4.15,2.71-1.44-11a6.07,6.07,0,0,1,2.19.31C189.11,114.8,172.1,144.38,163.44,153.29Z" style="fill:#414142"/><path d="M98,165.5c-.77-.18-1.5-.38-2.21-.59-11.5-6.17-15-14.42-8.36-8.34s13,4.05,8.22,2.7-11.9-8.82-6-5,7.58,2.79,6.05,2.17-7.58-4.34-4.33-3.35,3.42-.62,2.07-.62-5.59-2.21-5.59-2.21c2.24-.12,4.55-.31,6.89-.56,0,0,2.37,2.59,1.89,3.07s-1.75,2,1,2.22-1.08,1.63,1.08,1.81,0,0,1.49,4.87S98,165.5,98,165.5Z" style="fill:#c6bdb9"/><path d="M87.44,156.57c-6.66-6.08-3.14,2.17,8.36,8.34-16.11-4.63-19.27-14.5-19.27-14.5,3.57.12,7.39.1,11.38-.11,0,0,4.24,2.21,5.59,2.21s1.18,1.62-2.07.62,2.79,2.72,4.33,3.35-.1,1.69-6.05-2.17,1.17,3.61,6,5S94.11,162.65,87.44,156.57Z" style="fill:#b7aeab"/><path d="M23,91.22a4.45,4.45,0,1,1-4.45-4.45A4.45,4.45,0,0,1,23,91.22Z" style="fill:#212121"/><path d="M16.82,99.29S13.71,99.1,13.28,98s-2.65-2.29-2.65-2.29a10.91,10.91,0,0,1-.94-4.45,10.59,10.59,0,0,1,3.05-7.51,8.66,8.66,0,0,1,0,2.4c-.21.6,1.06,1.79,1.06,1.79a5.73,5.73,0,0,0,2,8.42S15.56,98.57,16.82,99.29Z" style="fill:#eddc94"/><path d="M19.22,101.48a8.73,8.73,0,0,1-3.39-.68l-.09,0a9.84,9.84,0,0,1-5.11-5.09s2.22,1.14,2.65,2.29,3.54,1.33,3.54,1.33C18.08,100,19.11,100.88,19.22,101.48Z" style="fill:#2b2b2b"/><path d="M25.1,99.29a9,9,0,0,1-5.88,2.19c-.11-.6-1.14-1.48-2.4-2.19s-1-3-1-3a5.74,5.74,0,0,0,6.87-1.23,7.21,7.21,0,0,1,1,2.11,2.23,2.23,0,0,1,.07.82C23.68,98.62,25,99.25,25.1,99.29Z" style="fill:#212121"/><path d="M28.74,90.9a2.1,2.1,0,0,1-1.09.86c-.78.12-1.15.85-1.15,1.81a4.79,4.79,0,0,1-2.81,3.63,7.21,7.21,0,0,0-1-2.11,5.73,5.73,0,0,0-2.16-9.22,1.27,1.27,0,0,0,0-1.69,2.48,2.48,0,0,1-.51-1A2.07,2.07,0,0,1,23,82.92c1.69,1.21,2.57,3.24,4.17,2.56h0a10.66,10.66,0,0,1,1.6,5.15A1.17,1.17,0,0,1,28.74,90.9Z" style="fill:#eddc94"/><path d="M27.12,85.48c-1.6.68-2.48-1.35-4.17-2.56a2.07,2.07,0,0,0-2.88.25A5.65,5.65,0,0,0,19.22,81a7.46,7.46,0,0,1,1,.06,9,9,0,0,1,3.76,1.28A10,10,0,0,1,27.12,85.48Z" style="fill:#2b2b2b"/><path d="M20.58,85.87a5.74,5.74,0,0,0-6.76,2s-1.27-1.19-1.06-1.79a8.66,8.66,0,0,0,0-2.4A9.11,9.11,0,0,1,19.22,81a5.65,5.65,0,0,1,.85,2.21,2.48,2.48,0,0,0,.51,1A1.27,1.27,0,0,1,20.58,85.87Z" style="fill:#212121"/><path d="M20.58,85.87a5.73,5.73,0,1,0,3.67,5.35A5.7,5.7,0,0,0,20.58,85.87Zm-2.08,9.8A4.45,4.45,0,1,1,23,91.22,4.44,4.44,0,0,1,18.5,95.67Z" style="fill:#eaeaea"/><path d="M28.76,91.22a10.55,10.55,0,0,1-3.65,8.07h0c-.07,0-1.42-.67-1.34-1.27a2.23,2.23,0,0,0-.07-.82,4.79,4.79,0,0,0,2.81-3.63c0-1,.37-1.69,1.15-1.81a2.1,2.1,0,0,0,1.09-.86A1.67,1.67,0,0,1,28.76,91.22Z" style="fill:#2b2b2b"/><path d="M146.12,35.41c-.79.79-.34,4.53-2.38,8.38-10.69,7.9-25.16,6.42-27,5.82s10.47-3,19.73-8.55,5.77-8.17,1.33-4.93-15.64,11.31-22.74,11.31,14.55-9.5,21.14-15.28,1.6-4.92-3.82-.23-18.16,10.82-21.29,11.42,4.81-4.09,17-12.27,8.42-10.95,3.49-6.13-16.84,12-22,13.83,12.75-9.86,19.72-15.51,5.54-8.91-6-.25S104.14,35.53,109,31.26,134,10,124.47,15.93,100.9,37.22,106.79,28.79c4.65-6.64,19.64-18.82,25.75-23.67,1.59,2.43,2.9,5.13,4.2,6.71,3.37,4.1,5.78,2.41,3.37,4.1s2.43,2.4,1,3.37,3.6,3.91,1.91,4.72,3.13,2.73,1.93,4.9S147.81,33.73,146.12,35.41Z" style="fill:#414142"/><path d="M237.66,57.78c0,4.51-5.6,7.58-5.6,7.58-5.48,6.52-6.85,2.71-3.79-4s1.64-17.23,7.76-16.6S237.66,53.27,237.66,57.78Z" style="fill:#eae3dd"/><path d="M222.86,132.84c-4.33-3.25-7.22-6-5-9.92a15.93,15.93,0,0,0,.53-14.08c-2.16-4.51,3.07-6,3.07-6,2.73-1.67,4.15,7.4,3.43,10.83s-2,4.14,1.82,7.21,1.6,3.25,2.51,9.74S227.19,136.09,222.86,132.84Z" style="fill:#eae3dd"/><path d="M135.94,58.94a42,42,0,0,0-4.37,4.45c-12.47-3.29-28.86-4.88-43-4.88h0a130.33,130.33,0,0,0-18.9,1.2,53.27,53.27,0,0,0-7.39,1.73,132.84,132.84,0,0,0-14,5.29h0c-9,3.86-15.41,6.85-13.72,2,2.2-6.3,12.54-9.52,18.09-11.6a89.19,89.19,0,0,1,12-3.6,77,77,0,0,1,13.66-1.81c14.57-.57,29.27,1.32,43.53,4.22C126.24,56.85,131.16,57.7,135.94,58.94Z" style="fill:#bfb7b6"/><path d="M137.94,65.36c-2-.71-4.11-1.37-6.37-2a42,42,0,0,1,4.37-4.45A49,49,0,0,1,149,64C156.86,68.79,156.23,72,137.94,65.36Z" style="fill:#5d5d5e"/><path d="M94.55,127.07c-.81,2.16-.55,6.78-.55,6.78-2.17.77-4.67,1.79-7.54,3.08q-.58.27-1.17.51a85.75,85.75,0,0,0-6.53-8c-3.61-3.85-1.92-12.27-1-17.32s-.24-15.39,2.64-20.93.25-18.76,0-22.49,6-10.17,8.08-10.22h0c2.06,0,1.75,2.18,3.67,5.77a14.83,14.83,0,0,1,1.76,7c-.63,8.42,1.61,19.5,3.33,24.43S95.84,107.34,94.26,111,95.36,124.9,94.55,127.07Z" style="fill:#414142"/><path d="M42.62,98.9c.18,2.55,2.53,6,0,8.68s-4.51,7.4-5.41,7.94-1.69-1.8-3.28-2.89-1.95-4.51-1.77-7.21S31.07,96,29.45,99.29s-1.21,5-.69,7.39c.47,2.15-.71,6.24-3.55,9.07l-1-.23C14.08,113,15.33,103,15.74,100.76l.09,0a8.73,8.73,0,0,0,3.39.68,9,9,0,0,0,5.88-2.19h0a10.55,10.55,0,0,0,3.65-8.07,1.67,1.67,0,0,0,0-.32,1.17,1.17,0,0,0,0-.27,10.66,10.66,0,0,0-1.6-5.15h0a10,10,0,0,0-3.19-3.18c2.16-4.19,7.14-3.41,9-4.31s2.7,3.43,5,4.87a2.78,2.78,0,0,0,3.79-.42s1.8-2.28,2.16,3S42.44,96.35,42.62,98.9Z" style="fill:#414142"/><circle cx="23.17" cy="88.81" r="3.19" style="fill:#eaeaea"/><path d="M186.55,92A36.38,36.38,0,0,1,184,97.4a24.15,24.15,0,0,0-6.76-3.77,6.07,6.07,0,0,0-2.19-.31c-4.87.36-7.4,3.07-7.58,4.69s-5.47,9.57-5.47,9.57a79.9,79.9,0,0,1-41.14,35.92h0c-10.46-1.69-7.39-13.49,4-19.27s11.9-9.74,30.31-29.15S186.55,92,186.55,92Z" style="fill:#353535"/></g></g></svg>