<svg xmlns="http://www.w3.org/2000/svg" viewBox="0 0 317.94 123.65"><title>bleekers-parrotfish</title><g id="Layer_2" data-name="Layer 2"><g id="Ñëîé_2" data-name="Ñëîé 2"><path d="M17.32,64.38l0,0-.36-.14A3.43,3.43,0,0,0,17.32,64.38Z" style="fill:#00983a"/><path d="M38.64,50.15c-.24-.22-2.39,2.51-4.14,3.47s-7.18,8.61-9.65,11.63C22.53,68.1,21.17,67,21,66.9h0a7.44,7.44,0,0,0-2.86-2.14c.71-.22,1.37-.7,2.28-.38l.22.09c1.53.71,1.89-.16,3.49-1.51s3.19-4,4.55-6.06a17.52,17.52,0,0,1,5.49-5.35,2.33,2.33,0,0,0,.34-.2,1.24,1.24,0,0,0,.18-.14h0a4.33,4.33,0,0,0,.72-.7,1.73,1.73,0,0,0,.17-.21l.2-.25.15-.22c.1-.15.2-.3.28-.45a.35.35,0,0,0,.05-.08,13.61,13.61,0,0,0,.78-1.44A7,7,0,0,0,38.64,50.15Z" style="fill:#7538ad"/><path d="M36.23,49.36c-.08.15-.18.3-.28.45L35.8,50l-.2.25-.17.21c-.14.15-.27.29-.42.43A7.71,7.71,0,0,0,36.23,49.36Z" style="fill:#02dad0"/><path d="M268,57.6a22.76,22.76,0,0,1-12,15.95h0c-2.63-.08-8.44-2-8.44-2-15.3-4.19-46.62,1.09-72.69,11.61s-58.9,4.54-67.67,3a36.47,36.47,0,0,1-5.23-1.13c10.7.33,17.53-1.83,19.9-2.15s.8-4,3.39-6.33-1.32-2.12.92-4a2.54,2.54,0,0,0,.64-.8c.68-1.47-1.67-2.45-.17-2.8,1.75-.42.64-8.52,2.71-10.52s.8-2.46,1.6-3.06-1.12-2.91-.48-3.31-1.12-2.63,1.43-3.94c1.6-.82.76-1.91.69-3.15a2.48,2.48,0,0,1,1.39-2.31c3.19-2.16,2.54-7.57,3.34-12s-2.59-1.11-2.59-1.11a46.61,46.61,0,0,0-5.8,2.34,41.05,41.05,0,0,0-6,3.19c.85-1.87,1.73-3.39,1.28-4.5-.72-1.79-.48-6.21,3.11-7.17s2.51-3.95,5.74-4.54,1.07-5.26,0-7.74-2,.2-6.46-2.6-4.3-1-7.77.65-5.38,1.32-8.13-.24-3.23,1.8-6,1.32-4.3.12-7,1.91-2.63,1.68-4.66-.3-3.83.9-5.5.18-5.62,1-9.21.12a3.56,3.56,0,0,0-2.17.09,5.72,5.72,0,0,1,1.81-.93l.36-.11c7.41.71,16.74-5,59.06-6.46s91.82,28.45,91.82,28.45A48.76,48.76,0,0,0,243,38l1,.19A55.59,55.59,0,0,0,257.9,39h.75C262.35,42.43,269.37,50.15,268,57.6Z" style="fill:#02dad0"/><path d="M59.8,30c-.64,1.19-1.13,2.61-2.43,3-2,.56-1-.47-5.18.56s-2.87,2.71-4.86,2.71a6.09,6.09,0,0,0-3.87.9c-2,.89-3.23,1.1-4.19,1.57a11.77,11.77,0,0,0-3.58,4c-.72,1.43-.24,3.75-1,4.86s-1.43,1.59-3.82,2.59-2.07.12-4.31,0-2.15-1.24-.95-3-.08-2.79-1.84-4.46,1.12-3.67,1.76-5.56,2.79-1,5.18-3,4.7-.56,5.26.88,2.79,0,4.14-1.2,2.79-2.07,3.39-4.46,3.47-1.91,5-3.11,6.93-.56,6.93-.56C54.82,27.43,55.67,28.68,59.8,30Z" style="fill:#047f30"/><path d="M14.65,69.88A11.81,11.81,0,0,0,10,74C9.21,75.19,6,76.1,4,77.89.54,75,2.12,73.56,3,73.23c1.27-.48,8-2.56,7.33-4S6.52,67.8,2.53,67.65.46,60.51.46,60.51a17,17,0,0,1,.53-2S7.31,64,11.78,65.73,16.88,68.76,14.65,69.88Z" style="fill:#74becf"/><path d="M20.39,70.2c-3.19,1.27-8,1.17-8.77,5.42-.44,2.47.44,5.45,1.25,7.53l-1.09-.52A37.55,37.55,0,0,1,4,77.89C6,76.1,9.21,75.19,10,74a11.88,11.88,0,0,1,4.63-4.14c2.23-1.12,1.59-2.39-2.87-4.15S1,58.47,1,58.47c.21-.65.46-1.29.74-1.93C5.35,60.8,13.07,64.72,16,65.89,19.47,67.33,23.57,68.92,20.39,70.2Z" style="fill:#e0426c"/><path d="M95.52,85.83c-5.79.09-11.33-1.79-16.63-4.16a16,16,0,0,0-2.17-.79,20.65,20.65,0,0,1-.06-2.79c.32-5,6-10.6,3.19-8.74-2.41,1.58-4.27,2.79-5.55,11.24-2.17.09-3,1.24-4.5.29a6.53,6.53,0,0,0-6.69.16C62,82,56.57,80.24,55,78.62S51.79,79,48.6,76.1,44.3,78,43,77.37a15.29,15.29,0,0,0-7.49-1.44c-3.66.17-5.9-1.43-10-3.5a7.38,7.38,0,0,0-3.71-.84c2.45-1.72.85-3.26.22-3.74a2.24,2.24,0,0,0,1.57.27c2.56-.32,6.22-5.23,8.45-8.67s6.06-7.27,10.2-7.27,6.38-.79,8.3-2.23,8.92-3.19,13.22,0,4.79,3.35,8.45,2.55,7.5-.4,9.57,2.91,7.49,3,7,6.34A16.43,16.43,0,0,1,87,67.19v0h0A10.43,10.43,0,0,1,83.67,71c-2.87,1.92-3.35,3.35,1.91,6.22C90.45,79.86,94.23,80.88,95.52,85.83Z" style="fill:#24f6f9"/><path d="M74.3,80.59c-.24,1.6-.47,3.46-.67,5.64-.94,10-10.59,12.66-15.69,13.38h0q-2.92-.89-5.83-1.8C43.12,95,34,92,25.18,88.5c.87-3.17-1.11-3.8.07-5.84,1.27-2.21,1.75-2,1.51-3.86s-.56-2.31-1.83-2.15-1.6,1.44-1.91,3.06-.24,1.33-1.48,2.44c-.75.66-.9,2.83-.9,4.49-1.52-.63-3-1.3-4.53-2-1.23-1.75-3.3-5.47-1.3-8.41,1.88-2.76,4.29-4.52,7-4.66a7.38,7.38,0,0,1,3.71.84c4.14,2.07,6.38,3.67,10,3.5A15.29,15.29,0,0,1,43,77.37c1.28.64,2.39-4.14,5.58-1.27s4.79.9,6.38,2.52S62,82,63.11,81a6.53,6.53,0,0,1,6.69-.16C71.28,81.83,72.13,80.68,74.3,80.59Z" style="fill:#7538ad"/><path d="M76.72,80.88c.39,5.26,1.69,12.65-4,16-4,2.36-5.77,3.69-7.6,4.75h0q-3.57-1-7.12-2.06c5.1-.72,14.75-3.39,15.69-13.38.2-2.18.43-4,.67-5.64,1.28-8.45,3.13-9.66,5.54-11.24,2.87-1.86-2.86,3.71-3.19,8.74A22.58,22.58,0,0,0,76.72,80.88Z" style="fill:#0bf"/><path d="M255.9,73.55a32,32,0,0,1-8,3c-1.11-.39-2.21-.73-3.31-1-18.84-4.92-35.13,5.18-35.13,5.18q-7.55,3.81-15.36,7.08a220.07,220.07,0,0,1-24.89,8.66l-1.62.46-3.48.93c-1,.25-2,.51-3,.75A237.54,237.54,0,0,1,135,103.46c-.7.1-1.42.19-2.13.27-7.76,1-15.56,1.53-23.37,2-3.15.17-6.3.31-9.46.39l-3,0q-3.11,0-6.21-.1h0a96,96,0,0,1-10.13-.93,134.5,134.5,0,0,1-15.64-3.41c1.83-1.06,3.6-2.39,7.6-4.75,5.74-3.39,4.44-10.78,4-16a14.71,14.71,0,0,1,2.17.79c5.3,2.37,10.84,4.25,16.63,4.16.82,0,1.66-.07,2.5-.17a30.17,30.17,0,0,0,3.54-.57h.31a36.47,36.47,0,0,0,5.23,1.13c8.77,1.5,41.61,7.48,67.67-3s57.39-15.8,72.69-11.61C247.46,71.58,253.26,73.47,255.9,73.55Z" style="fill:#7538ad"/><path d="M134.64,29.54a48.29,48.29,0,0,0-5.8,2.35,67.61,67.61,0,0,0-6.1,3.32c-.77.47-1.54.95-2.3,1.45C103.83,48.32,87.65,71.47,87.65,71.47s-4.46,3,3.18-8.67C88.53,65.33,87.14,67,87,67.19v0h0A10.43,10.43,0,0,1,83.67,71c-2.87,1.92-3.35,3.35,1.91,6.22,4.87,2.65,8.65,3.67,9.94,8.62.82,0,1.66-.07,2.5-.17a30.17,30.17,0,0,0,3.54-.57.65.65,0,0,1,.31,0c10.69.33,17.53-1.84,19.9-2.15s.79-4,3.39-6.33-1.32-2.12.91-4a2.45,2.45,0,0,0,.65-.8c-7.41,1-19.93,5.43-20.57,4.83-.8-.74,3.82-2,11.63-5.63s6.7-3.5,6.38-6.28-3.19,1.18-13.87,7.12-12,5.38-1.75-1.75,19.61-16.62,18-16.46-15.62,10.68-23,16.46-10,6-4,1.75c4.77-3.37,24.64-19.92,32.89-26.82a2.48,2.48,0,0,1,1.38-2.31c3.19-2.16,2.55-7.57,3.35-12S134.64,29.54,134.64,29.54ZM132.92,35a15.43,15.43,0,0,1-7,10c-4.62,3-4.78,6.09-11.48,11.29S97.7,72.43,94.19,69.64c0,0,13.71-19.69,34.91-34C129.1,35.6,133.39,32.26,132.92,35Z" style="fill:#0bf"/><path d="M101.87,85.1h-.31A.65.65,0,0,1,101.87,85.1Z" style="fill:#02dad0"/><path d="M120.44,36.66C103.83,48.32,87.65,71.47,87.65,71.47s-4.46,3,3.18-8.67h0C96.59,56.47,108,44.75,120.44,36.66Z" style="fill:#02dad0"/><path d="M128.84,31.89a67.61,67.61,0,0,0-6.1,3.32c-.77.47-1.54.95-2.3,1.45.79-.55,1.57-1.08,2.35-1.58A41.65,41.65,0,0,1,128.84,31.89Z" style="fill:#02dad0"/><path d="M131.81,48.16c-2.55,1.31-.8,3.55-1.43,3.94s1.27,2.71.48,3.31.48,1.05-1.6,3.06-1,10.1-2.71,10.51c-1.5.36.84,1.34.17,2.81-7.41,1-19.93,5.43-20.57,4.83-.8-.74,3.82-2,11.63-5.63s6.7-3.5,6.38-6.28-3.19,1.18-13.87,7.12-12,5.38-1.75-1.75,19.61-16.62,18-16.46-15.62,10.68-23,16.46-10,6-4,1.75c4.77-3.37,24.64-19.92,32.89-26.82C132.56,46.24,133.41,47.33,131.81,48.16Z" style="fill:#24f6f9"/><path d="M132.92,35a15.43,15.43,0,0,1-7,10c-4.62,3-4.78,6.09-11.48,11.29S97.7,72.43,94.19,69.64c0,0,13.71-19.69,34.91-34C129.1,35.6,133.39,32.26,132.92,35Z" style="fill:#02dad0"/><path d="M317.2,48.67c1.28,1.12-1.43,1.6-1,3a1.8,1.8,0,0,1,0,.94c-4.55-.15-17.51-.59-32.28-1.37,0,0-5,0-5.37,1.42s7.52-1.31,24.74,1c4.95.65,8.77,1.23,11.73,1.74a11.83,11.83,0,0,0-2.09,1c-4.47-.47-12-1.22-18.4-1.68h-.08c-3.38-.25-6.47-.42-8.66-.42-8.61,0-4.14,3.67-2.07,4.15s.95,1-1.44,1,.19,1.59-1.58,2.07,2.56,2.71,0,4.3S282.46,70,279.59,70c-1.52,0-2.15,2.34,4,5.48,4.35,2.23,12.1,4.87,25.35,7.35a11.15,11.15,0,0,1,.49,1.39c-6.18-1.43-23.93-5.7-29.43-8.84-6.69-3.83-5.38-.35,1.32,2.15,4.32,1.62,19.29,6,29.38,9,1.5,1.59,4.41,3.9-3.84,5.67a27.62,27.62,0,0,1-9.09-.24c7.62-.09,11.12-1.49,9.25-4.38-2.52-3.9-19.93-6.21-28.44-8.55s-8.22-.06-12.69-1.17-.79,1.59-4.14,1.11a37.31,37.31,0,0,0-7.68,0h0l-2.24-.87-2.18-.88-1.74-.66a32,32,0,0,0,8-3h0A22.76,22.76,0,0,0,268,57.6c1.42-7.45-5.6-15.17-9.31-18.65l1.76,0h0c1.92,2.07,5.43,3.35,9.93,3.85,5.74.63-1.28,1.43,3.19,2.43s.47,1.87,1.91,2.19,1.75,3,10.2,3,28.38,1.91,27.58,0,.64-1.59,1-4.94-32.52-6.35-32.52-6.35C328.67,40.49,316.09,47.7,317.2,48.67Z" style="fill:#7538ad"/><path d="M297.75,92h-.1c-11.3-1.68-28.56-7.15-43.6-13a37.31,37.31,0,0,1,7.68,0c3.35.48-.32-2.23,4.14-1.11s4.18-1.17,12.69,1.17,25.92,4.65,28.44,8.55C308.87,90.46,305.37,91.86,297.75,92Z" style="fill:#00983a"/><path d="M312.43,57.44c.64,1.6-5.59,6.22-6.86,9.57s-.64,8.92,1.11,9.88-.63,2.07.48,2.71-.32,1.76,1,2.39a1.76,1.76,0,0,1,.8.88c-13.25-2.48-21-5.12-25.35-7.35,2.83-1.84,10.76,1.81,15.87,3.72s3.5.6,2.06-1.67,5.18-.68-3.56-3.85-15.45-6.07-12.69-6.19,6.81,2.87,13.62,3.34-5.74-4.3-.36-4.42-2.87-2.39.93-2-1.52-2.15-10.49-3.5-.48-1.05,13-.41,5,.8,5-1.59-11.4-4.08-12.46-4.24c6.44.46,13.93,1.21,18.4,1.68C312.5,56.66,312.25,57,312.43,57.44Z" style="fill:#00983a"/><path d="M289,60.92c9,1.35,14.28,3.86,10.49,3.5s4.45,1.91-.93,2,7.18,4.9.36,4.42S288,67.41,285.25,67.53s3.95,3,12.69,6.19,2.13,1.59,3.56,3.85,3.05,3.59-2.06,1.67-13-5.56-15.87-3.72c-6.13-3.14-5.5-5.48-4-5.48,2.87,0-1.44-2.72,1.12-4.31s-1.77-3.82,0-4.3-.81-2.07,1.58-2.07,3.51-.48,1.44-1-6.54-4.15,2.07-4.15c2.19,0,5.28.17,8.66.42h.08c1.06.16,12.46,2,12.46,4.24s8.5,2.23-5,1.59S280,59.57,289,60.92Z" style="fill:#04ad41"/><path d="M310.68,86.52c-10.09-2.93-25.06-7.33-29.38-9-6.7-2.5-8-6-1.32-2.15,5.5,3.14,23.25,7.41,29.43,8.84a5.62,5.62,0,0,0,.94,1.88Z" style="fill:#e0426c"/><path d="M313.22,50.43c.8,1.91-19.13,0-27.58,0s-8.77-2.71-10.2-3,2.55-1.2-1.91-2.19,2.55-1.8-3.19-2.43c-4.5-.5-8-1.78-9.93-3.85,8.17,0,15.2,0,21.25.21,0,0,32.84,3,32.52,6.35S312.42,48.52,313.22,50.43Z" style="fill:#00983a"/><path d="M316.09,54.41c.31.38-.27.67-1.06,1-3-.51-6.78-1.09-11.73-1.74-17.22-2.27-25.11.48-24.74-1s5.37-1.42,5.37-1.42c14.77.78,27.73,1.22,32.28,1.37C316,53.36,315.51,53.71,316.09,54.41Z" style="fill:#e0426c"/><path d="M190.22,11.13c-.55-.11-18.11-3.77-27.76-6.42C153.27,2.18,145.13.28,139.13.05c1.72,0,3.47.08,5.28.17,46.38,2,90.49,23.52,99.58,38-.41-.34-25.76-21.5-55.83-29.16C188.16,9.06,185.14,9.22,190.22,11.13Z" style="fill:#e0426c"/><path d="M190.23,11.13h0c-.55-.11-18.11-3.77-27.76-6.42C153.27,2.18,145.13.28,139.13.05H138C96.17-.6,78.17,11.21,78.17,11.21c7.41.72,16.74-5,59.06-6.45s91.82,28.45,91.82,28.45A48.76,48.76,0,0,0,243,38C235,28.66,195.07,13,190.23,11.13ZM97.05,5.56s31.66-6.95,47-3.11C144,2.45,103.87,5.84,97.05,5.56ZM200.18,16.77c-5-1-13.45-4.9-13.45-4.9C189.84,11.45,205.14,17.79,200.18,16.77Zm7,3C217.33,21.48,232.16,33,232.16,33,229.41,32.26,207.23,19.76,207.23,19.76Z" style="fill:#0bf"/><path d="M244,38.22,243,38c-8-9.37-47.9-25.08-52.74-26.9h0c-5.08-1.91-2.06-2.07-2.06-2.07C218.23,16.72,243.58,37.88,244,38.22Z" style="fill:#24f6f9"/><path d="M144,2.45s-40.17,3.39-47,3.11C97.05,5.56,128.71-1.39,144,2.45Z" style="fill:#24f6f9"/><path d="M200.18,16.77c-5-1-13.45-4.9-13.45-4.9C189.84,11.45,205.14,17.79,200.18,16.77Z" style="fill:#e0426c"/><path d="M232.16,33c-2.75-.71-24.93-13.21-24.93-13.21C217.33,21.48,232.16,33,232.16,33Z" style="fill:#e0426c"/><path d="M251.8,78.09l-1.22.52h0c-.27,0-10.9.83-14.51,2.89s-4.95,3-7.5,3.27A25.38,25.38,0,0,0,222,86.23c-1.92.7-2.4,2.85-4.79,3.06S207.05,90.12,204,92s-5.43,3-8.13,3.11-9.41.84-9.89,1.86-4.78,0-5.26,1.17-8.29,3.49-16.66-.24l3.48-.93c1.53,1.65,3.86,1.81,6.84,1.33s9-.78,9.69-1.33A27.4,27.4,0,0,1,192,94.31c2.75-.36,5.38-.72,7.17-2.36s2.75-2.43,8.07-2.71,7.24-1.15,8.19-3,3.83.31,4.28-.89,6.6-2.39,9.71-2.51,4.78-1.67,5.26-2.87,13.21-3.41,13.21-3.41l1.74.66Z" style="fill:#7538ad"/><path d="M250.58,78.61c-5.15,2.23-25.18,10.89-33.48,14.62-9.57,4.3-10.76,7.17-14.83,7.17s-8.77,1.68-12,1.2-4.7,3.59-10.67,1.67-9.21-.26-18.47-4.67c1-.24,2-.5,3-.75,8.37,3.73,16.18,1.36,16.66.24s4.78-.16,5.26-1.17,7.17-1.7,9.89-1.86S201,93.79,204,92s10.83-2.46,13.22-2.66,2.87-2.36,4.79-3.06a25.38,25.38,0,0,1,6.53-1.46c2.55-.26,3.83-1.19,7.5-3.27S250.31,78.63,250.58,78.61Z" style="fill:#0bf"/><path d="M247.88,76.55S235.15,78.76,234.67,80s-2.15,2.75-5.26,2.87-9.26,1.31-9.71,2.51-3.32-1-4.28.89-2.87,2.73-8.19,3S201,90.32,199.16,92s-4.42,2-7.17,2.36a27.4,27.4,0,0,0-7.89,2.61c-.71.55-6.7.85-9.69,1.33s-5.31.32-6.84-1.33l1.62-.46c6.14,2.2,28-4.1,30.05-7.17s13.39-1.4,14.35-3.47S225.7,83,227.3,81.5s5.74-.62,4.86-2.06,12.41-3.9,12.41-3.9C245.67,75.82,246.77,76.16,247.88,76.55Z" style="fill:#e0426c"/><path d="M232.16,79.44c.88,1.44-3.27.62-4.86,2.06s-12.75,2.25-13.71,4.32-12.28.39-14.35,3.47-23.91,9.37-30.05,7.17a220.07,220.07,0,0,0,24.89-8.66q7.81-3.26,15.36-7.08s16.29-10.1,35.13-5.18C244.57,75.54,231.28,78,232.16,79.44Z" style="fill:#00983a"/><path d="M122.17,107.82c2.5.17,7.86,2.13,12.77,4.13,0,0-1.29.41-.3,1.13s-3.74-.12-2.79.64-.36.91-5.14,0-26.66-7.65-26.66-7.65c3.16-.08,6.31-.22,9.46-.39,7.81-.42,15.61-1,23.37-2,.71-.08,1.43-.17,2.13-.27a30.58,30.58,0,0,1,7.32,2.54c1.12.58-1.75,1,0,1.5.32.08.67.18,1,.3-1.4,1.34-4,2.24-9.64,1.21C125.87,107.58,116.91,107.46,122.17,107.82Z" style="fill:#00983a"/><path d="M144,111c-2.76,2.07-5.53.95-4.42,1.59a17.69,17.69,0,0,1,3.18,2.72c-1.93-.87-4.81-2.12-7.86-3.37-4.91-2-10.27-4-12.77-4.13-5.26-.36,3.7-.24,11.53,1.19,5.61,1,8.24.13,9.64-1.21C144.88,108.36,146.3,109.3,144,111Z" style="fill:#24f6f9"/><path d="M136.43,123.28c-23.92-2.84-45.06-16.92-45.58-17.27q3.11.12,6.21.1s26.87,11.53,49.64,14.58c0,.07.07.13.1.2C148.71,125,136.43,123.28,136.43,123.28Z" style="fill:#0bf"/><path d="M146.7,120.69c-22.77-3-49.64-14.58-49.64-14.58l3,0s21.88,6.73,26.66,7.65,6.1.76,5.14,0,3.77.07,2.79-.64.3-1.13.3-1.13c3.05,1.25,5.93,2.5,7.86,3.37A21.14,21.14,0,0,1,146.7,120.69Z" style="fill:#e0426c"/><path d="M132.93,18.87c-3.23.59-2.15,3.58-5.74,4.54s-3.83,5.38-3.11,7.17c.45,1.11-.43,2.63-1.28,4.5-.79.5-1.57,1-2.36,1.58C108,44.75,96.59,56.47,90.84,62.79h0C88.53,65.33,87.14,67,87,67.19a16.43,16.43,0,0,0,1.8-5.44c.48-3.35-4.94-3-7-6.34s-5.9-3.7-9.57-2.91-4.14.64-8.45-2.55-11.31-1.43-13.22,0-4.15,2.23-8.3,2.23S34.26,56,32,59.45s-5.89,8.35-8.45,8.67A2.24,2.24,0,0,1,22,67.85v0l-.18-.12,0,0A7.28,7.28,0,0,1,21,66.9c.16.14,1.52,1.2,3.84-1.65,2.47-3,7.89-10.67,9.65-11.63s3.9-3.69,4.14-3.47h0a6.94,6.94,0,0,0,10.69-1.31,31.68,31.68,0,0,1,3.4-1.37,19.47,19.47,0,0,1,5.91-1.12c2.1.12.27-2.15-2-2.57s-4.24-.11-4.18-1.79-1.2-3.34,2.75-4.42,9.92-5.92,4.9-7.47L59.8,30c-4.13-1.32-5-2.57-4.43-4.28A6.74,6.74,0,0,1,55.7,25c1.07-2.15,3.7-6.09,7.77-5.73s4.42,1.67,7.29-1.32C72.94,15.63,74,13,76,12.26a3.56,3.56,0,0,1,2.17-.09c3.59.84,7.53-.84,9.21-.12s3.46-2.17,5.5-.18,1.91,2.1,4.66.3,4.3-2.39,7-1.91,3.23-2.87,6-1.32,4.66,1.92,8.13.24,3.35-3.46,7.77-.65,5.38.14,6.46,2.6S136.16,18.27,132.93,18.87Z" style="fill:#e0426c"/><path d="M25.18,88.5q-2.3-.9-4.54-1.86c0-1.66.15-3.83.89-4.49C22.78,81,22.7,81.33,23,79.71s.63-2.9,1.91-3.06,1.59.32,1.83,2.15-.24,1.65-1.51,3.86C24.06,84.7,26,85.33,25.18,88.5Z" style="fill:#0bf"/><path d="M43.46,38.24a6.93,6.93,0,0,0-6.93,6.93,6.79,6.79,0,0,0,.41,2.35l.12.32a7,7,0,0,0,1.58,2.31h0c.24.19.68-.56,1.58,0s2.59,1.56,4,1c.8-.31,3.09-1.41,5.16-2.34a6.93,6.93,0,0,0-5.88-10.61Zm0,11.91a5,5,0,1,1,5-5A5,5,0,0,1,43.46,50.15Z" style="fill:#02dad0"/><path d="M43.46,40.19a5,5,0,1,0,5,5A5,5,0,0,0,43.46,40.19Zm0,7a2.23,2.23,0,1,1,2.23-2.23A2.23,2.23,0,0,1,43.46,47.16Z" style="fill:#eb9023"/><path d="M45.69,44.93a2.23,2.23,0,1,1-2.23-2.23A2.23,2.23,0,0,1,45.69,44.93Z" style="fill:#2b2b2b"/><path d="M49.34,48.85a6.94,6.94,0,0,1-10.69,1.31c.24.19.67-.56,1.58,0s2.59,1.56,4,1C45,50.88,47.27,49.78,49.34,48.85Z" style="fill:#02dad0"/><path d="M77.81,11.33a5.72,5.72,0,0,0-1.81.93c-2,.75-3.06,3.37-5.24,5.65-2.87,3-3.23,1.67-7.29,1.32S56.77,22.81,55.7,25a6.74,6.74,0,0,0-.33.76s-5.41-.64-6.93.56-4.38.72-5,3.11-2,3.26-3.39,4.46-3.59,2.63-4.14,1.2-2.87-2.87-5.26-.88-4.54,1.07-5.18,3S22,41,23.73,42.7s3,2.71,1.84,4.46-1.28,2.87.95,3,1.92,1,4.31,0,3-1.48,3.82-2.59.32-3.43,1-4.86a11.77,11.77,0,0,1,3.58-4c1-.47,2.24-.68,4.19-1.57a6.09,6.09,0,0,1,3.87-.9c2,0,.71-1.67,4.86-2.71s3.18,0,5.18-.56c1.3-.36,1.79-1.78,2.43-3l.32.11c5,1.55-1,6.39-4.9,7.47S52.53,40.33,52.47,42s1.91,1.38,4.18,1.79,4.1,2.69,2,2.57a19.47,19.47,0,0,0-5.91,1.12,31.68,31.68,0,0,0-3.4,1.37,6.93,6.93,0,1,0-12.81-3.68,6.79,6.79,0,0,0,.41,2.35l.12.32a13.61,13.61,0,0,1-.78,1.44.35.35,0,0,1-.05.08A7.71,7.71,0,0,1,35,50.92l-.15.14-.15.13h0a1.24,1.24,0,0,1-.18.14,2.33,2.33,0,0,1-.34.2,17.52,17.52,0,0,0-5.49,5.35c-1.36,2.07-3,4.7-4.55,6.06s-2,2.22-3.49,1.51l-.22-.09c-.91-.32-1.57.16-2.28.38l-.31-.13-.54-.22,0,0a3.43,3.43,0,0,1-.39-.12c-3.35-1.36-6.59-3.08-8.49-7.61a11.56,11.56,0,0,0-3.75-5.07C20.51,30.28,72.93,12.91,77.81,11.33Z" style="fill:#00983a"/><path d="M132.92,35a15.43,15.43,0,0,1-7,10c-4.62,3-4.78,6.09-11.48,11.29S97.7,72.43,94.19,69.64c0,0,13.71-19.69,34.91-34C129.1,35.6,133.39,32.26,132.92,35Z" style="fill:#7538ad"/><path d="M21.78,71.59c-2.68.14-5.09,1.9-7,4.66-2,2.94.07,6.66,1.3,8.41-1.09-.49-2.16-1-3.24-1.5h0c-.81-2.08-1.69-5.06-1.25-7.53.75-4.25,5.58-4.15,8.77-5.42s-.92-2.87-4.44-4.31c-2.88-1.17-10.6-5.09-14.22-9.35a26,26,0,0,1,3-5,11.56,11.56,0,0,1,3.75,5.07c1.9,4.53,5.14,6.25,8.49,7.61l.36.14.54.22.31.13A7.44,7.44,0,0,1,21,66.89h0a7.28,7.28,0,0,0,.77.79l0,0,.18.12v0C22.63,68.33,24.23,69.87,21.78,71.59Z" style="fill:#0bf"/><path d="M22,67.83l-.18-.12Z" style="fill:#009aff"/><path d="M44,43.13a1.67,1.67,0,1,1,1.67,1.67A1.68,1.68,0,0,1,44,43.13Z" style="fill:#fff"/><path d="M51.84,67.71s13.87-2.93,18.65-9.24S74,65.12,72.41,70.09s-10.84,3.13-19,1.49S48.64,68.53,51.84,67.71Z" style="fill:#7cf9fb"/><path d="M244.57,49.06c0,2.37-.74,4.28-1.65,4.28s-1.66-1.91-1.66-4.28.74-4.28,1.66-4.28S244.57,46.7,244.57,49.06Z" style="fill:#e0426c"/><ellipse cx="249.23" cy="55.89" rx="1.35" ry="2.54" style="fill:#e0426c"/><ellipse cx="256.2" cy="49.18" rx="1.67" ry="2.82" style="fill:#e0426c"/><path d="M260.41,63.7c0,1.58-.78,2.86-1.74,2.86s-1.75-1.28-1.75-2.86.78-2.86,1.75-2.86S260.41,62.12,260.41,63.7Z" style="fill:#e0426c"/><ellipse cx="246.9" cy="66.52" rx="0.98" ry="1.63" style="fill:#e0426c"/><path d="M239.83,59.85c0,1.53-.78,2.77-1.74,2.77s-1.73-1.24-1.73-2.77.77-2.77,1.73-2.77S239.83,58.32,239.83,59.85Z" style="fill:#e0426c"/><path d="M228.71,63.53c0,2-.7,3.68-1.56,3.68s-1.55-1.65-1.55-3.68.69-3.68,1.55-3.68S228.71,61.5,228.71,63.53Z" style="fill:#e0426c"/><path d="M232.16,51.2c0,1.68-.91,3-2,3s-2-1.36-2-3,.91-3.05,2-3.05S232.16,49.51,232.16,51.2Z" style="fill:#e0426c"/><path d="M228.11,38.69c0,1.92-.94,3.48-2.09,3.48s-2.1-1.56-2.1-3.48.94-3.48,2.1-3.48S228.11,36.77,228.11,38.69Z" style="fill:#e0426c"/><ellipse cx="237.79" cy="41.57" rx="1.43" ry="2.64" style="fill:#e0426c"/><path d="M220.22,47.48c0,1.49-.8,2.7-1.8,2.7s-1.79-1.21-1.79-2.7.8-2.7,1.79-2.7S220.22,46,220.22,47.48Z" style="fill:#e0426c"/><path d="M216.63,63.71c0,2.45-.94,4.44-2.09,4.44s-2.09-2-2.09-4.44.93-4.44,2.09-4.44S216.63,61.26,216.63,63.71Z" style="fill:#e0426c"/><ellipse cx="206.89" cy="54.86" rx="2.57" ry="3.58" style="fill:#e0426c"/><path d="M212.45,41.85a2.66,2.66,0,1,1-5.22,0,2.66,2.66,0,1,1,5.22,0Z" style="fill:#e0426c"/><ellipse cx="217.66" cy="34" rx="2.03" ry="4.03" style="fill:#e0426c"/><path d="M204.32,28.72c0,1.75-.91,3.17-2,3.17s-2-1.42-2-3.17.91-3.17,2-3.17S204.32,27,204.32,28.72Z" style="fill:#e0426c"/><path d="M194.75,41.19c0,2-.83,3.59-1.85,3.59s-1.85-1.6-1.85-3.59.83-3.58,1.85-3.58S194.75,39.21,194.75,41.19Z" style="fill:#e0426c"/><path d="M202.28,46.92c0,1.18-.58,2.14-1.31,2.14s-1.32-1-1.32-2.14.59-2.14,1.32-2.14S202.28,45.74,202.28,46.92Z" style="fill:#e0426c"/><ellipse cx="196.37" cy="60.68" rx="1.61" ry="2.85" style="fill:#e0426c"/><path d="M189.49,59.85c0,1.53-.75,2.77-1.67,2.77s-1.68-1.24-1.68-2.77.75-2.77,1.68-2.77S189.49,58.32,189.49,59.85Z" style="fill:#e0426c"/><ellipse cx="182.26" cy="48.82" rx="2.21" ry="2.46" style="fill:#e0426c"/><path d="M194.75,50.94a1.62,1.62,0,1,1-1.59-1.88A1.75,1.75,0,0,1,194.75,50.94Z" style="fill:#e0426c"/><path d="M192.9,28.3c0,1.52-.92,2.75-2.06,2.75s-2.07-1.23-2.07-2.75.93-2.75,2.07-2.75S192.9,26.78,192.9,28.3Z" style="fill:#e0426c"/><path d="M181.72,36.42a2,2,0,1,1-3.94,0,2,2,0,1,1,3.94,0Z" style="fill:#e0426c"/><path d="M172.06,28.9c0,2.25-1.26,4.07-2.82,4.07s-2.82-1.82-2.82-4.07,1.26-4.06,2.82-4.06S172.06,26.66,172.06,28.9Z" style="fill:#e0426c"/><path d="M156.85,25.36c0,2-1.25,3.54-2.79,3.54s-2.79-1.58-2.79-3.54,1.25-3.55,2.79-3.55S156.85,23.4,156.85,25.36Z" style="fill:#e0426c"/><path d="M162.11,35.6c0,1.45-.82,2.62-1.83,2.62s-1.83-1.17-1.83-2.62.82-2.63,1.83-2.63S162.11,34.15,162.11,35.6Z" style="fill:#e0426c"/><path d="M174.23,44.83c0,1.46-.68,2.65-1.52,2.65s-1.51-1.19-1.51-2.65.68-2.66,1.51-2.66S174.23,43.36,174.23,44.83Z" style="fill:#e0426c"/><ellipse cx="179.35" cy="22.3" rx="1.57" ry="2.54" style="fill:#e0426c"/><path d="M149.84,38.53c0,1.83-1,3.32-2.31,3.32s-2.31-1.49-2.31-3.32,1-3.32,2.31-3.32S149.84,36.69,149.84,38.53Z" style="fill:#e0426c"/><path d="M146.17,29.67a2.83,2.83,0,1,1-5.58,0,2.83,2.83,0,1,1,5.58,0Z" style="fill:#e0426c"/><path d="M143.34,49.87a2.46,2.46,0,1,1-2.41-2.95A2.72,2.72,0,0,1,143.34,49.87Z" style="fill:#e0426c"/><ellipse cx="158.97" cy="48.02" rx="2.12" ry="2.92" style="fill:#e0426c"/><path d="M174.23,57.05c0,1.54-.93,2.8-2.07,2.8s-2.08-1.26-2.08-2.8.93-2.81,2.08-2.81S174.23,55.5,174.23,57.05Z" style="fill:#e0426c"/><path d="M163.39,62.45c0,1.43-.7,2.59-1.56,2.59s-1.55-1.16-1.55-2.59.7-2.6,1.55-2.6S163.39,61,163.39,62.45Z" style="fill:#e0426c"/><path d="M149.84,58.65c0,2.1-1.3,3.8-2.9,3.8s-2.9-1.7-2.9-3.8,1.3-3.79,2.9-3.79S149.84,56.55,149.84,58.65Z" style="fill:#e0426c"/><path d="M138.52,66.26a2.41,2.41,0,1,1-2.39-2.73A2.57,2.57,0,0,1,138.52,66.26Z" style="fill:#e0426c"/><path d="M156.22,69.69c0,1.72-.9,3.12-2,3.12s-2-1.4-2-3.12.89-3.13,2-3.13S156.22,68,156.22,69.69Z" style="fill:#e0426c"/><path d="M179.75,65.3c0,1.58-.88,2.85-2,2.85s-2-1.27-2-2.85.88-2.85,2-2.85S179.75,63.72,179.75,65.3Z" style="fill:#e0426c"/></g></g></svg>