<svg xmlns="http://www.w3.org/2000/svg" viewBox="0 0 266.42 181.33"><title>blood-parrot</title><g id="Layer_2" data-name="Layer 2"><g id="Ñëîé_2" data-name="Ñëîé 2"><path d="M229.77,96.29c-16.33-2.8-36.21-5.59-29.69-1.56s29.52,14.52,23.3,13.32-28.58-7.42-23.3-2.76,37.28,14.3,37,19.27-27.34-10-32.93-12.43-12.12-5.28.93,4.66,17.27,11.8,13.67,15.22c-3.45,3.27-25.71-14.16-27.61-15.65l-.07-.06,0,0a24.7,24.7,0,0,1-4-4.28,7.77,7.77,0,0,0-3.29-3.57,36.22,36.22,0,0,0,4.76-18.16c0-.44,0-.87,0-1.3,0-.15,0-.3,0-.45,0-.4,0-.78-.07-1.18a4.91,4.91,0,0,0,0-.53l-.12-1.21c-.06-.5-.12-1-.2-1.49s-.13-.88-.21-1.31c-.15-.86-.33-1.7-.51-2.51l-.15-.62c-.1-.37-.19-.74-.29-1.1-.14-.53-.29-1-.44-1.52-.08-.25-.16-.49-.23-.73s-.15-.48-.24-.71l-.24-.69c-.07-.23-.16-.45-.24-.67l-.24-.65c-.41-1-.82-2-1.22-2.88a3.29,3.29,0,0,0-.23-.5c-.22-.5-.45-1-.65-1.36a11.74,11.74,0,0,0,2-3c1.59-3.39,8.44-10.4,16.51-17.78h0c1.38-.84,30.71-18.56,18.27-6.13-12.73,12.74-31.68,26.41-23.3,22.68S238.53,46,223,54,193.25,72.37,206,70.81s50-7.76,41-4.34-45.67,8.07-40.69,8.38,41,2.5,43.18,8.24-44.11-6-46.91,0S233,91.63,244.82,94.43,246.09,99.09,229.77,96.29Z" style="fill:#f47a45"/><path d="M96.71,86.7c-.63.72-1.23,1.48-1.8,2.26.58-.78,1.17-1.54,1.81-2.26Z" style="fill:#ee5c3a"/><path d="M186.44,77c-.08-.25-.16-.49-.23-.73s-.15-.48-.24-.71l-.24-.69c-.07-.23-.16-.45-.24-.67l-.24-.65c-.41-1-.82-2-1.22-2.88a3.29,3.29,0,0,0-.23-.5c-.22-.5-.45-1-.65-1.36-4.35,4.78-12,6.16-12.42.27a13.82,13.82,0,0,0-.65-3C166.74,55.32,150.2,27.36,113.41,29c-21.18,1-36.77,6.4-47.27,12.2h0c-1.68.92-3.22,1.85-4.64,2.78h0c-6.91,4.51-10.8,8.85-11.92,11.09-2.8,5.6-11.42,12.82-19.11,15.38S8.1,83.32,6.23,90.07c0,0-.93,3.11-1.63,3.11a6.92,6.92,0,0,0-4,2.72c-.7,1.4-1.06,4.13.77,4.43,0,0,5.6.44,6,3.31,6.54,1.6,13.9,9.6,18.87,11.38,6.35,2.28,12.91-6.31,20.37-16.89,6.1-8.68,16.17-6.25,23.73-3.21.63-2.22,1.21-2.35,2.07.86l2.51,1.12C82.43,100.32,87,95.48,87,95.48a63.34,63.34,0,0,1,9.7-8.78h0a18.76,18.76,0,0,1,2.48-2.41l.63-.49c.2-.14.4-.29.61-.42a12,12,0,0,1,1.48-.84,11.38,11.38,0,0,1,3.68-1.12h0c25-11.7,50.63.43,60.3,3.55,12.11,3.89,21-6.43,21-6.43C186.74,78,186.59,77.51,186.44,77ZM37.22,95.94a11,11,0,1,1,11-11A11,11,0,0,1,37.22,95.94Zm108.41-33.2c-14.38-8.39-17.93-8.39-44-.63S61.84,64.6,62.78,55.28c.43-4.42,4.28-7.56,7.82-9.72A52.56,52.56,0,0,1,80.31,41c22.61-8,61.57-10.89,76.6,12.57C167.56,70.21,160,71.13,145.63,62.74Z" style="fill:#ff8548"/><path d="M188.51,90.24a36.22,36.22,0,0,1-4.76,18.16c-1.46-.72-3.27-.83-6-1.09a4.44,4.44,0,0,0-4.52,2.5c-8.26,11.54-42.27,49-98.26,29.07,11-22-2.23-42-2.23-42-.1-.41-.19-.79-.29-1.12l2.51,1.12C82.43,100.32,87,95.48,87,95.48a63.34,63.34,0,0,1,9.7-8.78c-.63.72-1.23,1.48-1.8,2.26-.29.39-.57.79-.84,1.19s-.52.77-.78,1.16c-1.05,1.62-2,3.24-2.9,4.67-1.73,2.8-3.35,5.66-4.89,8.57h0a59.49,59.49,0,0,1-3.66,6.64l-.13.2c-1.59,2.15-2,3.7.33,5.58a8,8,0,0,1,1.25,11.42c-.81,1,2.83,3.18,8,5.53l.17.08c8.58,3.92,21.15,8.25,23.86,8.25,4.36,0,6.22-3.44,7.46-4.36s1.86-5.89,4.35-7.44c1.46-.91,1.53-2.31,2-3.82,1.29-3.87,4.16-7,6.85-10,2-2.18,5.29-5.46,3.25-8.61-2.8-4.3-2.49-15.23-8.39-14.74s-2.67-4.36-7.08-4.73-6.9-8.12-10.32-5.49c-1.87,1.44-2.72,0-4.44-1a5.21,5.21,0,0,0-.75-.36h0a3.26,3.26,0,0,0-.44-.15,5.39,5.39,0,0,0-2.16-.18c25-11.7,50.63.43,60.3,3.55,12.11,3.89,21-6.43,21-6.43.1.36.19.73.29,1.1l.15.62c.18.81.36,1.65.51,2.51.08.43.15.86.21,1.31s.14,1,.2,1.49l.12,1.21a4.91,4.91,0,0,1,0,.53c0,.4,0,.78.07,1.18,0,.15,0,.3,0,.45C188.5,89.37,188.51,89.8,188.51,90.24Z" style="fill:#ee5c3a"/><path d="M70.35,94.92C68,103.54,65,143.62,42.11,141.8c-21-9.32-29.59-26.1-34.7-25.63s-6-1.94-5.26-4.66c.84-2.92,4.58-4.34,5.17-6.8a2.35,2.35,0,0,0,.08-.89c0-.06,0-.12,0-.18,6.54,1.6,13.9,9.6,18.87,11.38,6.35,2.28,12.91-6.31,20.37-16.89C52.72,89.45,62.79,91.88,70.35,94.92Z" style="fill:#ee5c3a"/><path d="M173.2,109.81a7.43,7.43,0,0,0-.68,1.55h0a19.87,19.87,0,0,0-.86,6.2c0,2.88-7.22,18.65-22.11,29.64l0,0c-1.18.88-2.43,1.73-3.71,2.53-1,.65-2.06,1.26-3.14,1.84-.69.38-1.42.76-2.15,1.12h0a53.27,53.27,0,0,1-10.82,3.89,54.13,54.13,0,0,1-5.56,1,118.21,118.21,0,0,1-32.89-.46c-3.71-.55-7.34-1.25-10.88-2.06-4.92-1.13-9.66-2.47-14.21-4a50.16,50.16,0,0,0,8.79-12.28C130.93,158.83,164.94,121.35,173.2,109.81Z" style="fill:#db5135"/><path d="M74.94,138.88a50.16,50.16,0,0,1-8.79,12.28c-4.2-1.36-8.24-2.83-12.09-4.34.39.05,10.67,1.15,15.24-8.6,4.66-9.94,8.07-21.74,3.41-41.32C72.71,96.9,85.93,116.9,74.94,138.88Z" style="fill:#ce4a34"/><path d="M263.92,80.75c-4.19-5.13-5.12-17.24-3.72-21s.46-11.65-3.73-14.91-5.13-5.59-5.13-9.79-12.11-17.24-24.7-7.92c-6.47,4.8-16.4,13.05-24.95,20.89,1.38-.84,30.71-18.57,18.27-6.13-12.73,12.74-31.68,26.41-23.3,22.68S238.53,46,223,54,193.25,72.36,206,70.81s50-7.77,41-4.35-45.67,8.07-40.69,8.39,41,2.5,43.18,8.24-44.11-6.06-46.91,0S233,91.63,244.82,94.42s1.27,4.66-15,1.87-36.21-5.6-29.69-1.56,29.52,14.52,23.3,13.32-28.58-7.42-23.3-2.76,37.28,14.3,37,19.26-27.34-9.94-32.93-12.42-12.12-5.28.93,4.66,17.27,11.8,13.67,15.22c-3.45,3.27-25.71-14.17-27.61-15.66,9.4,8.85,32.27,26.7,44.39,30.1,14.91,4.2,5.59-8.38,12.58-9.32s2.33-3.26,5.13-7.68,8.38-24.93,10.71-29.13S268.12,85.88,263.92,80.75Zm-1.63,13.51c-1.16,11.65-4.42,18.64-9.32,24.24s-3.49,10-4,13.92-4.42,2.62-6.13,5.8-2.26,6.14-8.55,4-4.42-8.15-.46-9.84,10.95.06,9-8.38-1.79-19.52,7-20,8-12.58,5-15.51-8.16-10.35-5-19.44S243,54.89,236.66,50.32,225,33.69,232.47,30.42s11.65,2.8,12.35,7.09,4.42,7.7,5,8.29c11.57,11,7.07,13.28,5.91,24.7S263.46,82.61,262.29,94.26Z" style="fill:#ee5c3a"/><path d="M228.74,11.09c-3.73,4.19-6.29,10.44-6.29,12.79s-9.32,12.84-17.94,16.57S187,49.07,184.71,56.06s-10,13-14,13a13.82,13.82,0,0,0-.65-3s7.64-3.78,9-7.51,3-5.83,1.17-5.13,9.76-8.62,5.58-7-3-2.09,7.47-7.45,30.29-18.87,24.46-16.54-20.74,10-19.1,5.82,17.24-10.25,18.63-13.51S206.61,17.15,198,22.27s-8.62,2.33-.47-3.73,5.59-10.25-4.43-1.39-24,14.21-16.07,5.36,7.92-10.72,0-4.43-18.88,8.62-12.35,2.79,9.55-13.28,2.56-7.45-17.94,9.09-12.11,4.66,6-9.79.69-5.36-15.24,8.39-10.18,3,6.12-11.18,0-7.22-12.89,7.22-12.42,4.66,4.9-2.61,6.06-6S134.79,5,129.69,9.69s-7.43,4.43-4.4-.47,1.87-7.45-2.33-1.86-9.78,12.82-7.69,6.52-1.39-6.29-5.12.47-9.55,12.58-7.22,7.22.93-12.81-2.8-6.29S92,28.75,92.44,23.88s.47-10.46-3.26-4.4-8.62,13-7.92,8.15.46-8.9-1.87-3.75S74.73,35.79,74,31.36s-4.13-5.87-7.89,9.87h0c-1.68.92-3.22,1.85-4.64,2.78.21-.7,6.06-19.63,8.81-18.72s4-6.06,6.75-4.66,3.73-6.29,7.46-4S112.25,3.4,126,1.3s17-1.63,20.27,1.17,7,0,7,2.33,5.13.7,6.29,2.56,4.9-1.4,8.16,1.4,25.63.46,30.05-1.63,18.18-1.63,18.18.23,4.42,1.17,6.75,1.4S232.47,6.89,228.74,11.09Z" style="fill:#ee5c3a"/><path d="M139.74,177c-24.93-.47-48.5-19.8-48.5-19.8a118.21,118.21,0,0,0,32.89.46,54.13,54.13,0,0,0,5.56-1c3.7,1.06,5.16,3.83,0,4.29s-3,1.63,3.52,3.73,4.43,3.73-4.89,2.47-1.4,3.82,3.5,5.22S164.67,177.45,139.74,177Z" style="fill:#f47a45"/><path d="M133.21,180.78c-25.56-2.79-52.85-25.66-52.85-25.66,3.54.81,7.17,1.51,10.88,2.06,0,0,23.57,19.33,48.5,19.8s-3-3.26-7.92-4.66-12.82-6.48-3.5-5.22,11.41-.37,4.89-2.47-8.67-3.26-3.52-3.73,3.7-3.23,0-4.29a53.27,53.27,0,0,0,10.82-3.89c-6.08,7.63,1.48,9.74,1.48,11.6a4.08,4.08,0,0,0,5,3.91c3.1-.76,9.32,5.41,13.36,6S158.77,183.58,133.21,180.78Z" style="fill:#ee5c3a"/><path d="M207.57,140.1c-1.63,1.67-5.62-1-7.11-1.84-2.41-1.35-4.88-2.59-7.32-3.87-2.67-1.42-5.37-2.83-8.11-4.12-1.4-.66-4-2.32-5.61-2.11-.89.11-1.07.39-.54,1.29,1.59,2.65,5.13,3.86,7.79,5.09a18,18,0,0,1,5.09,2.9c.9.86,1.9,2.6,1.47,3.9-1.39,4.3-9.91-3.72-11.6-4.9-6.94-4.89-12.72-3-3.08,2.79,2.47,1.5,7.07,3.81,8,6.77a.86.86,0,0,1-.36,1,1.14,1.14,0,0,1-.61,0,12.58,12.58,0,0,1-4-1.54,72.49,72.49,0,0,0-8.25-3.56c-2.55-.95-5.12-2.17-7.89-2.17,1,.07,1.74,1.19,2.44,1.72a35,35,0,0,0,3.54,2.09,41.72,41.72,0,0,1,6.26,4.28c.45.39,2.47,1.89,2.09,2.71s-3.15-.21-3.73-.41c-7.93-2.8-18.41-6.76-12.12-2.33s23,14.53-18.34,2l.18-.12c1.28-.8,2.53-1.65,3.71-2.53l0,0c14.89-11,22.11-26.76,22.11-29.64a19.87,19.87,0,0,1,.86-6.2h0a7.43,7.43,0,0,1,.68-1.55c4.17.17,9.8,2.94,15.62,10.7a.35.35,0,0,0,.05.08,58.13,58.13,0,0,0,15.06,15.65C204.65,136.72,208.76,138.89,207.57,140.1Z" style="fill:#f47a45"/><path d="M220.43,145.37c-2.65.93-12.58,5.28-16.93,5s-4.81,4.51-8.08,4.41-3.49,4.06-6.6,3.82-3.88,4.43-7.84,4.2.7,4.19-10,3-28.29-14.2-28.29-14.2c1.08-.58,2.12-1.19,3.14-1.84l-.18.12c41.3,12.51,24.63,2.4,18.34-2s4.19-.47,12.12,2.33c.58.2,3.29,1.37,3.73.41s-1.64-2.32-2.09-2.71a41.72,41.72,0,0,0-6.26-4.28,35,35,0,0,1-3.54-2.09c-.7-.53-1.47-1.65-2.44-1.72,2.77,0,5.34,1.22,7.89,2.17a72.49,72.49,0,0,1,8.25,3.56,12.58,12.58,0,0,0,4,1.54,1.14,1.14,0,0,0,.61,0,.86.86,0,0,0,.36-1c-1-3-5.58-5.27-8-6.77-9.64-5.82-3.86-7.68,3.08-2.79,1.69,1.18,10.21,9.2,11.6,4.9.43-1.3-.57-3-1.47-3.9a18,18,0,0,0-5.09-2.9c-2.66-1.23-6.2-2.44-7.79-5.09-.53-.9-.35-1.18.54-1.29,1.64-.21,4.21,1.45,5.61,2.11,2.74,1.29,5.44,2.7,8.11,4.12,2.44,1.28,4.91,2.52,7.32,3.87,1.49.82,5.48,3.51,7.11,1.84,1.19-1.21-2.92-3.38-3.64-3.86a58.13,58.13,0,0,1-15.06-15.65C194.8,128.38,223.07,144.44,220.43,145.37Z" style="fill:#ee5c3a"/><path d="M193.33,39.05c-10.49,5.36-11.65,9.08-7.47,7.45s-7.44,7.69-5.58,7,.23,1.4-1.17,5.13-9,7.51-9,7.51C166.74,55.32,150.2,27.36,113.41,29c-21.18,1-36.77,6.4-47.27,12.2,3.76-15.74,7.2-14.3,7.89-9.87s3-2.33,5.36-7.48,2.57-1.14,1.87,3.75,4.19-2.1,7.92-8.15,3.73-.47,3.26,4.4,4-2.07,7.69-8.6,5.13.93,2.8,6.29,3.49-.46,7.22-7.22,7.22-6.76,5.12-.47,3.5-.93,7.69-6.52,5.36-3,2.33,1.86-.7,5.13,4.4.47,10.75-5.82,9.58-2.47-5.59,3.4-6.06,6,6.3-.7,12.42-4.66,5.06,1.86,0,7.22,4.83,1.4,10.18-3,5.13.93-.69,5.36,5.12,1.16,12.11-4.66,4,1.63-2.56,7.45,4.43,3.5,12.35-2.79,7.92-4.43,0,4.43,6,3.49,16.07-5.36,12.59-4.66,4.43,1.39-8.15,8.86.47,3.73,20.73-10.72,19.33-7.45-17,9.32-18.63,13.51,13.28-3.49,19.1-5.82S203.81,33.69,193.33,39.05Z" style="fill:#f47a45"/><path d="M149.52,147.23c-1.18.88-2.43,1.73-3.71,2.53Z" style="fill:#ee5c3a"/><path d="M136,116.66c-2.69,3-5.56,6.11-6.85,10-.49,1.51-.56,2.91-2,3.82-2.49,1.55-3.11,6.52-4.35,7.44s-3.1,4.36-7.46,4.36c-2.71,0-15.28-4.33-23.86-8.25,2.8,1.13,12.25.72,3.13-2.72-9.32-3.52-3.26-1.84,6.29-.44s6.29-.7-4-3.73-3.26-5.13,8.5-3.08,8-2.75-2-4-6.06-4.15,4.79-5.09-2.46-3.26-10.38-3.17.47-4.28,7.57-7.54-.35-2.33-10,1.39-2.27-3,5-8.78-14.31,7.31-14.86,7.65c1.54-2.91,3.16-5.77,4.89-8.57.89-1.43,1.85-3,2.9-4.67.26-.39.51-.78.78-1.16s.55-.79.84-1.19c.58-.78,1.17-1.54,1.81-2.26a18.76,18.76,0,0,1,2.48-2.41l.63-.49c.2-.14.4-.29.61-.42a12,12,0,0,1,1.48-.84,11.38,11.38,0,0,1,3.68-1.12h0a5.39,5.39,0,0,1,2.16.18l.44.15h0a6.53,6.53,0,0,1,.75.36c1.72,1,2.57,2.42,4.44,1,3.42-2.63,5.9,5.12,10.32,5.49s1.17,5.22,7.08,4.73,5.59,10.44,8.39,14.74C141.24,111.2,137.92,114.48,136,116.66Z" style="fill:#f47a45"/><path d="M96.72,86.7c-.64.72-1.23,1.48-1.81,2.26.57-.78,1.17-1.54,1.8-2.26Z" style="fill:#ee5c3a"/><path d="M105.37,124c-11.76-2.05-18.75,0-8.5,3.08s13.51,5.13,4,3.73-15.61-3.08-6.29.44c9.12,3.44-.33,3.85-3.13,2.72l-.17-.08c-5.13-2.35-8.77-4.53-8-5.53A8,8,0,0,0,82,117c-2.31-1.88-1.92-3.43-.33-5.58l.13-.2a59.49,59.49,0,0,0,3.66-6.64h0c.55-.34,22-13.31,14.86-7.65s-14.55,12.51-5,8.78,17.06-4.66,10-1.39-15.49,7.62-7.57,7.54S119,114.07,108.18,115s-14.81,3.9-4.79,5.09S117.13,126.08,105.37,124Z" style="fill:#ff9d6d"/><path d="M40.8,85a3.58,3.58,0,1,1-3.58-3.59A3.58,3.58,0,0,1,40.8,85Z" style="fill:#2b2b2b"/><path d="M37.22,74a11,11,0,1,0,11,11A11,11,0,0,0,37.22,74Zm0,17.39A6.43,6.43,0,1,1,43.64,85,6.42,6.42,0,0,1,37.22,91.39Z" style="fill:#ed7045"/><path d="M37.22,78.54A6.43,6.43,0,1,0,43.64,85,6.42,6.42,0,0,0,37.22,78.54Zm0,10A3.59,3.59,0,1,1,40.8,85,3.59,3.59,0,0,1,37.22,88.55Z" style="fill:#ffb66e"/><path d="M156.91,53.59c-15-23.46-54-20.54-76.6-12.57a52.56,52.56,0,0,0-9.71,4.54c-3.54,2.16-7.39,5.3-7.82,9.72-.94,9.32,12.73,14.6,38.82,6.83s29.65-7.76,44,.63S167.56,70.21,156.91,53.59ZM135.66,48.9c-.56.53-4,0-4.77,0-1.83.06-3.67.21-5.49.45a63.57,63.57,0,0,0-21.08,7.19C88,65.14,72.64,59.78,74.94,54.43s8.76-8.35,14-10.26c2.49-.91,4.93-1.61,6.94-2.14,9.67-2.57,20.25-3.47,30.05-1a20.28,20.28,0,0,1,8,3.66C135,45.56,136.81,47.79,135.66,48.9Z" style="fill:#ff9d6d"/><path d="M135.66,48.9c-.56.53-4,0-4.77,0-1.83.06-3.67.21-5.49.45a63.57,63.57,0,0,0-21.08,7.19C88,65.14,72.64,59.78,74.94,54.43s8.76-8.35,14-10.26c2.49-.91,4.93-1.61,6.94-2.14,9.67-2.57,20.25-3.47,30.05-1a20.28,20.28,0,0,1,8,3.66C135,45.56,136.81,47.79,135.66,48.9Z" style="fill:#ffb18a"/><path d="M262.29,94.26c-1.16,11.65-4.42,18.64-9.32,24.24s-3.49,10-4,13.92-4.42,2.62-6.13,5.8-2.26,6.14-8.55,4-4.42-8.15-.46-9.84,10.95.06,9-8.38-1.79-19.52,7-20,8-12.58,5-15.51-8.16-10.35-5-19.44S243,54.89,236.66,50.32,225,33.69,232.47,30.42s11.65,2.8,12.35,7.09,4.42,7.7,5,8.29c11.57,11,7.07,13.28,5.91,24.7S263.46,82.61,262.29,94.26Z" style="fill:#db5135"/><path d="M69.3,138.22c-4.57,9.75-14.85,8.65-15.24,8.6h0c-4.21-1.66-8.2-3.36-11.94-5C65,143.62,68,103.54,70.35,94.92c.63-2.22,1.21-2.35,2.07.86.1.33.19.71.29,1.12C77.37,116.48,74,128.28,69.3,138.22Z" style="fill:#db5135"/><path d="M37.77,82.69A2.25,2.25,0,1,1,40,84.94,2.25,2.25,0,0,1,37.77,82.69Z" style="fill:#eae3dd"/></g></g></svg>