<svg xmlns="http://www.w3.org/2000/svg" viewBox="0 0 275.53 153.46"><title>blue-acara</title><g id="Layer_2" data-name="Layer 2"><g id="Ñëîé_2" data-name="Ñëîé 2"><path d="M71.27,32.13,70,32.38c-.85.16-1.69.33-2.52.53-1.5.32-3,.68-4.48,1.07-11.48,3-22.58,7.93-31.82,15.49,0,0-14.76,10.46-19.33,18.8S1.29,82.37.89,83.69s-1.06,3.18,5.3,4.7c0,0,2.38.47,2.64,1.06s-6.15.06-7.34,0-2.2.66-.84,3.64c.69,1.51,9.4,7.39,22.85,13.07.12-3.79-4-4.23-6.92-4.67C13,101,9,96.07,13.4,97.26S18,99,20,97.26s3.71-1.72.39-5.7S16.32,86.67,13.27,86s-3.84-4.5-1.72-5.09,2.65-2.06,4-5.77,4.77,1.06,5.82,5.77,3.44,5.08,8,5.08,11.91.27,12.44-3.7S48.88,76.47,47,70.67s2.39-8.22-3.17-9.55-5.29-3.18-4.24-7.68,7.15-8.74,14.3-6,15.89-1.1,16-7.46c.14-6.15,8.8-8.84,9.34-9C76.62,31.25,73.93,31.64,71.27,32.13Zm-28.65,39a11,11,0,1,1-10.95-11A10.95,10.95,0,0,1,42.62,71.17Z" style="fill:#9c9c82"/><path d="M207.31,77.2C205,74.42,201.65,73,206,65.09c3.4-6.18-.78-13.46-2.8-16.39-9.62,5.89-14.94,6-20.43,1.5-14.13-11.69-34.55-15.69-52.17-17.85-1.83-.22-3.66-.44-5.48-.64C109.91,30,94.48,29.16,79.3,30.94c-.54.15-9.2,2.84-9.34,9-.16,6.36-8.9,10.13-16,7.46s-13.24,1.55-14.3,6-1.32,6.36,4.24,7.68,1.32,3.76,3.17,9.55-4.76,7.66-5.29,11.63S33.79,86,29.29,86s-6.89-.37-7.95-5.08-4.5-9.48-5.82-5.77-1.86,5.19-4,5.77S10.22,85.35,13.27,86s3.84,1.58,7.14,5.55,1.59,4-.39,5.7-2.25,1.19-6.62,0-.4,3.71,3.18,4.23c2.91.44,7,.88,6.92,4.67a157.72,157.72,0,0,0,25.67,8.34c11.28-2.12,29.64-10,26.58-38.82,0,0-1.19-2.11,2-2.11s.6,39.78,37.63,42c.55-.1,1.08-.19,1.61-.3h0c8-1.51,13.72-3,20.11-2.92a36.71,36.71,0,0,0,11.54-2.1c.5-.16,1-.34,1.49-.51,12-4.25,24.51-12.58,28.67-16.45a26.87,26.87,0,0,1,6.09-4.24h0a23.09,23.09,0,0,1,21.1.07l1,.5C213.05,83.38,209.37,79.71,207.31,77.2ZM48.09,98.45c-3.58.8-2,1.72-3.85,4.11s-8.2,1.32-12.17-.8-4.63-4.37-2.92-7.19,2.78-1.81,5.56-1.15,4.9-.66,7.29-3.57,6.09,2.38,6.09,2.38C50.31,94.57,51.66,97.66,48.09,98.45ZM71.25,68.53c-1.32.53-4.23.27-5.56,3.31s-8.6,2.12-10.45,0-3.71-5.3-.67-5.3,4.5-1.85,6.49-5.29S70,64,70,64C72.9,66.26,72.58,68,71.25,68.53Zm57.92,15.89c-23.43,3.64-31.57,3.31-35.74-7s-5.56-9.36-16.48-15-10.53-11.29,0-21,47.26-5.34,66.14-1.57,22,16.22,22,16.22C174.45,76.28,152.6,80.78,129.17,84.42Z" style="fill:#67d3e5"/><path d="M88.8,113.89c-10.62,2.48-25-2.25-25-2.25-3.62-1,2.65-1.58,7.47-4S78.87,96,82.91,103.92,99.43,111.42,88.8,113.89Z" style="fill:#82806f"/><path d="M77.74,73.57c-3.17,0-2,2.11-2,2.11,3,28.83-15.31,36.7-26.59,38.82a134.41,134.41,0,0,0,24.2,3.41c3.39.16,6.56.25,9.54.27a167.43,167.43,0,0,0,32.47-2.61C78.34,113.35,80.92,73.57,77.74,73.57ZM88.8,113.89c-10.62,2.48-25-2.25-25-2.25-3.62-1,2.65-1.58,7.47-4S78.87,96,82.91,103.92,99.43,111.42,88.8,113.89Z" style="fill:#8c8b76"/><path d="M129.17,84.42c-23.43,3.64-31.57,3.31-35.74-7s-5.56-9.36-16.48-15-10.53-11.29,0-21,47.26-5.34,66.14-1.57,22,16.22,22,16.22C174.45,76.28,152.6,80.78,129.17,84.42Z" style="fill:#9c9c82"/><path d="M274.61,52.18c-1.32,1.19,1.11,5-1.08,5.56s2,5.36,0,6,1.79,3-.59,5,3.77,3.78.87,5.29,2.31,5,0,7,1.51,4-1.67,5.36,3.78,6,1,6.75,1,3.77-1,4.17.4,3-3,3.57.39,2.39-2.39,2.59-1.59,4-3.17,3.77-5.37,1.39-10.13,2c-1.53.19-5.75-1.22-11.18-3.42,2.59-2,7-.76,9.39.25,1.43.61,2.23,0,2.54-1.06h0a4.61,4.61,0,0,0,.11-2,6,6,0,0,0-.38-1.58c-.58-1.53.88-1.59,2.67-1.36h0c1,.12,2.09.33,3,.43,1.68.17,2.82-1.29,2.2-3.22a6.77,6.77,0,0,0-2.46-3.14,3.45,3.45,0,0,1-.83-.86h0c-.72-1.21.36-2.23,1.92-3a48.77,48.77,0,0,1,5.27-2c1.06-.5,1.48-2.52,0-3.93A4.91,4.91,0,0,0,263.34,83a4.14,4.14,0,0,1-2.67-2,3.93,3.93,0,0,1-.09-4,4.56,4.56,0,0,1,4-1.91c2.85-.12,3.86-1.3,3.7-2.54-.19-1.46-2-3-4.37-2.94-1.91,0-2.83-.93-2.77-2.11,0-1.52,1.74-3.4,5-3.93a3.4,3.4,0,0,0,1.67-.67h0a2.41,2.41,0,0,0,.63-2.59,9.75,9.75,0,0,0-2.37-4,7.74,7.74,0,0,0-1.4-1.2,2.17,2.17,0,0,0-1.05-.4c-1.65,0-2.17-1.58-1.1-3.12a4.87,4.87,0,0,1,1.36-1.3c1.29-.86.82-3.18-.3-5.37a14.71,14.71,0,0,0-2.21-3.2,4.4,4.4,0,0,0-2.12-1.44c-1.66-.26-3.35-1.14-3.74-2-.2-.46,0-.92.69-1.29,1.08-.54.48-2.13-1.12-3.43a8.44,8.44,0,0,0-6.82-1.73,9.1,9.1,0,0,1-4.45-.25h0A9.67,9.67,0,0,1,241,30c5.29-2.39,9.18-4.14,9.94-4.58,2.38-1.39,3.17,1,5.36-1s.79,1.59,6.75,1.39,1.39,5.17,4.57,5.17,0,4.56,2.58,4.36.59,5.37,3.57,4.57,1.79,5.76-.2,6.55S275.92,51,274.61,52.18Z" style="fill:#414142"/><path d="M219.12,73.57c5.16-1.19,31.63,2.08,41.46,3.36a3.93,3.93,0,0,0,.09,4c-6.85.25-17.57-1.37-29-2.65-14.16-1.59-18.79-1.06-4.1,1.43,11.8,2,31,3.79,38.17,4.42,1.44,1.41,1,3.43,0,3.93a48.77,48.77,0,0,0-5.27,2c-9.22-2.09-29.92-6.8-34.72-8.13-6.22-1.71-12.31-3.17-10.81-1.59,1.17,1.24,30.38,9.24,43.61,12.77h0a3.45,3.45,0,0,0,.83.86,6.77,6.77,0,0,1,2.46,3.14c-7.72-2.2-31.54-9-39.27-11.34-9.26-2.78-12.25-3.16-6.22,0,4.87,2.54,30.51,11,40.29,14.13-1.79-.23-3.25-.17-2.67,1.36a6,6,0,0,1,.38,1.58c-5.83-2.72-23.23-10.62-33.36-13.24-12.32-3.17-10.06-1.32-4.77.7l38,14.52h0c-.31,1.06-1.11,1.67-2.54,1.06-2.35-1-6.8-2.29-9.39-.25-11.05-4.47-27.05-12.18-35.26-16.13,6-6.24,2.33-9.91.27-12.42C205,74.42,201.65,73,206,65.09c3.4-6.18-.78-13.46-2.8-16.39.46-.28.93-.58,1.41-.89,7.18-4.6,25-12.71,36.32-17.85h0a9.67,9.67,0,0,0,2.84,1.52c-7.15,3.15-22.73,10.22-27.8,14.15-5.84,4.53,22.11-10,36.14-13.7a8.39,8.39,0,0,1,2.93,1.53c-8.47,3.5-32.44,14.27-37.8,15.48-6.49,1.46-3.57,2.65,7.95,0,9.17-2.11,22.12-8.42,30.28-10.76.39.88,2.08,1.76,3.74,2a4.4,4.4,0,0,1,2.12,1.44c-5.05,1.44-32,10.44-40.65,11.54-9.39,1.19-7.54,2.64,2.65,2.91,9.68.25,31.09-12.13,40.21-11.25,1.12,2.19,1.59,4.51.3,5.37a4.87,4.87,0,0,0-1.36,1.3c-9.29,2.34-31.94,8-37.83,7.89-7.41-.13-7.14,1.58-3.17,1.72,3.32.11,32.41-5,43.15-6.09a7.74,7.74,0,0,1,1.4,1.2c-6.13,1.05-21.74,3.7-25.23,4.23-4.2.63,13.4,4.34,27.6-.22a2.41,2.41,0,0,1-.63,2.59h0c-8.41,2.44-28.75.85-39,2.26-12.58,1.72-16.55,4.11-6,2.72,7.7-1,27.65-.73,38.27-.38-.06,1.18.86,2.15,2.77,2.11,2.36,0,4.18,1.48,4.37,2.94-5.09,2.17-20.11,0-35.75-1.5C215.55,69.33,212.77,75,219.12,73.57Z" style="fill:#73dcf6"/><path d="M252.14,31.93c-14,3.73-42,18.23-36.14,13.7,5.07-3.93,20.65-11,27.8-14.15h0a9.1,9.1,0,0,0,4.45.25A8.36,8.36,0,0,1,252.14,31.93Z" style="fill:#414142"/><path d="M254.23,104.93l-38-14.52c-5.29-2-7.55-3.87,4.77-.7,10.13,2.62,27.53,10.52,33.36,13.24A4.61,4.61,0,0,1,254.23,104.93Z" style="fill:#414142"/><path d="M256.19,36.89c-.73.37-.89.83-.69,1.29-8.16,2.34-21.11,8.65-30.28,10.76-11.52,2.65-14.44,1.46-7.95,0,5.36-1.21,29.33-12,37.8-15.48C256.67,34.76,257.27,36.35,256.19,36.89Z" style="fill:#414142"/><path d="M258.54,93.21c-13.23-3.53-42.44-11.53-43.61-12.77-1.5-1.58,4.59-.12,10.81,1.59,4.8,1.33,25.5,6,34.72,8.13C258.9,91,257.82,92,258.54,93.21Z" style="fill:#414142"/><path d="M259.63,100.44c-.89-.1-2-.31-3-.43h0c-9.78-3.18-35.42-11.59-40.29-14.13-6-3.16-3-2.78,6.22,0,7.73,2.32,31.55,9.14,39.27,11.34C262.45,99.15,261.31,100.61,259.63,100.44Z" style="fill:#414142"/><path d="M263.57,44.84C254.45,44,233,56.34,223.36,56.09c-10.19-.27-12-1.72-2.65-2.91,8.65-1.1,35.6-10.1,40.65-11.54A14.71,14.71,0,0,1,263.57,44.84Z" style="fill:#414142"/><path d="M265.77,84.18c-7.14-.63-26.37-2.42-38.17-4.42-14.69-2.49-10.06-3,4.1-1.43,11.4,1.28,22.12,2.9,29,2.65a4.14,4.14,0,0,0,2.67,2A4.91,4.91,0,0,1,265.77,84.18Z" style="fill:#414142"/><path d="M264.66,55c-10.74,1.13-39.83,6.2-43.15,6.09-4-.14-4.24-1.85,3.17-1.72,5.89.1,28.54-5.55,37.83-7.89-1.07,1.54-.55,3.12,1.1,3.12A2.17,2.17,0,0,1,264.66,55Z" style="fill:#414142"/><path d="M267.79,62.83a3.4,3.4,0,0,1-1.67.67c-3.28.53-5,2.41-5,3.93-10.62-.35-30.57-.62-38.27.38-10.59,1.39-6.62-1,6-2.72C239,63.68,259.38,65.27,267.79,62.83Z" style="fill:#414142"/><path d="M268.43,60.24c-14.2,4.56-31.8.85-27.6.22,3.49-.53,19.1-3.18,25.23-4.23A9.75,9.75,0,0,1,268.43,60.24Z" style="fill:#414142"/><path d="M264.54,75a4.56,4.56,0,0,0-4,1.91c-9.83-1.28-36.3-4.55-41.46-3.36-6.35,1.45-3.57-4.24,13.37-2.59,15.64,1.53,30.66,3.67,35.75,1.5C268.4,73.72,267.39,74.9,264.54,75Z" style="fill:#414142"/><path d="M182.59,36.23c6.49-4.37,24-16.95,27.54-16s-31.25,19.6-30.19,22.9,13.77-6.35,21.58-8.6-4.64,5.82-12.05,8.87-10.72,5-3.84,3.44a26.56,26.56,0,0,1,10.16-.39A6.88,6.88,0,0,1,194,47.88c-4.23,2.65-11.18,2.32-11.18,2.32-14.13-11.69-34.55-15.69-52.17-17.85-1.83-.22-3.66-.44-5.48-.64C109.91,30,94.48,29.16,79.3,30.94c-2.68.31-5.37.7-8,1.19.29-3.69,1.23-5.65,3.82-9.53s9.54-6.62,8-3.18-3.05,8.34-2.26,9,4.51-7.68,7.41-10.5S92.83,17.57,91,21s-3.45,7-2.52,7.41,2.92-4.1,5.82-8.07,4.25-5.3,9.54-5.44S98.65,25.11,96.94,27s-.27,2,4-1.85,3.84-5,10.72-9.66,4.5,1.59.66,6.22-7.68,6.22-4.63,6.12,5-3.87,12.84-9.87,10.06-5.25,8.47-3.13-6.22,5.68-10.46,10.32-1.71,4.24,2.78,0,11.92-6.49,16.47-9.4-4.42,5.43-9.72,12.08,6.63-3.87,15.63-11.41,1.72,2.38-4.24,8.73-6.35,5.17-.66,4.9,11.65-13.37,19.33-16.68-5.43,9.13-9.45,12.31-7,7.42-3.4,7.42S167.76,12.27,172,12.27,156.91,27,153.2,29.88s-2.12,4.49,5.56-.67,16.15-15.88,21.58-16.68-11,11.39-13.9,14.57-9.8,8.86-3.45,7,17.75-19.46,27.17-21.84-3.74,6.09-14.86,14.83-12,11.12-6.88,9,25.68-24,34.68-27.24-4.63,6.32-9.63,11.09S170.28,36.5,172,37.69s29.25-20.79,38.38-26.61,4.77.26-15.24,13.37S176.1,40.6,182.59,36.23Z" style="fill:#73dcf6"/><path d="M223.89,7.37c-7.15.53-3.18,4.76-7.68,7.15s1.06,5.83-4.23,9.26,2.12,3.18-2.39,6.1,0,2.64-4.76,5.82-2.39,4.23-6.62,7.15c-3.22,2.22-1.55,2.44-2.42,3.58a26.56,26.56,0,0,0-10.16.39c-6.88,1.59-3.58-.4,3.84-3.44s19.86-11.12,12.05-8.87S181,46.42,179.94,43.11s33.76-22,30.19-22.9-21,11.65-27.54,16-7.45,1.32,12.55-11.78,24.37-19.19,15.24-13.37S173.71,38.88,172,37.69s16.46-13,21.47-17.74S212.11,5.59,203.1,8.86,173.59,34,168.42,36.1s-4.24-.26,6.88-9,24.3-17.21,14.86-14.83-20.81,20-27.17,21.84.53-3.83,3.45-7,19.32-15.36,13.9-14.57-13.9,11.52-21.58,16.68-9.27,3.58-5.56.67,23-17.61,18.8-17.61-23.17,20.79-26.75,20.79-.61-4.25,3.4-7.42S165.77,10,158.1,13.33,144.46,29.74,138.77,30s-5.29,1.44.66-4.9,13.24-16.28,4.24-8.73S122.75,34.44,128,27.79s14.28-15,9.72-12.08-12,5.15-16.47,9.4-7,4.62-2.78,0S127.38,16.9,129,14.79s-.66-2.85-8.47,3.13-9.8,9.77-12.84,9.87.8-1.49,4.63-6.12,6.22-10.85-.66-6.22-6.49,5.81-10.72,9.66-5.7,3.7-4,1.85,12.17-12.17,6.88-12-6.62,1.47-9.54,5.44-4.89,8.46-5.82,8.07.66-4,2.52-7.41.11-5.9-2.79-3.09-6.61,11.16-7.41,10.5.67-5.56,2.26-9-5.3-.8-8,3.18-3.53,5.84-3.82,9.53L70,32.38c1.21-15.11,4.34-10.84,7.38-15.21s2.39,3,7-2.78,2.51,4.1,9.8-1.86,2.78,3.05,8.86.7,1.73,2.22,7.15-.83,2.12,2.91,7.68,0,.8,3.31,9.27-.86,7.15,3.25,17.48-1.39,1.19,3.31,6.75.93,1.85,1.32,8.2-1.06,2.65,1.19,10.19-.84.8,1.76,7.82-.62,2.51,2.78,12.18-.52,5,1.05,12.31-2.52,5.42,2.91,11.51,0c2.71-1.3,7.1-1.81,11.13-2,2.14.47,4.65,1.14,7.68,2C244,8.69,231,6.84,223.89,7.37Z" style="fill:#414142"/><path d="M224.69,3.55c-4,.16-8.42.67-11.13,2-6.09,2.91-4.23-3.58-11.51,0S199.4,4.72,189.74,8s-5.17-1.86-12.18.52-.27-1.41-7.82.62-3.83-1.54-10.19.84-2.64-1.33-8.2,1.06,3.57-5.56-6.75-.93-9-2.79-17.48,1.39-3.71-2-9.27.86-2.25-3.05-7.68,0-1.06-1.52-7.15.83-1.59-6.66-8.86-.7-5.17-4-9.8,1.86-4-1.59-7,2.78-6.17.1-7.38,15.21c-.85.16-1.69.33-2.52.53.82-26.9,6.59-12.56,8.71-20S82,14,87,6.57s5.82,2.92,9.53-2.38,5.82,2.38,10.85-2.11.27,5.56,10.6-.38,2.9,5.94,9,2,3.71,4.49,8.2,1.85,2.12,4.23,8.21,1.32,6.36,3.18,12.71-.79,4.5,4,11.39.79,7.14,1.06,16.68-1.58S190,7.37,194.76,4.19s4.51,1.86,10.07-1.59,2.91,4.24,7.41,1.59C215.57,2.24,218.62,2.16,224.69,3.55Z" style="fill:#fa902c"/><path d="M212.07,118.19c-3.47-1.57.21,3.29-7.34-.48S170.47,98.36,173,101.43s23.92,14.5,30.18,17.28,7.15,6.55,2.58,4.86-7.39-1.73-13-5.38-23.86-18.25-22.47-15.07,21.93,17.66,26,19.5-3.08,1-9.64-2.52-19.46-17-17.26-12.9,10.22,11.11,14.69,14.19-6.66.19-12.61-5.46-2.48,1-.4,3.57-.2,4.37-3.67,1.49-7.36-9-6.66-5.72-.39,1.75-3.57-.63-4.86-6.26-3.88-2.38,2.69,6.74.61,5.45-3.34-5.13-3.76-8c12-4.25,24.51-12.58,28.67-16.45a26.87,26.87,0,0,1,6.09-4.24h0c.48-.19,7-2.63,13,1.2a8.47,8.47,0,0,1,2.49,2.08,6.7,6.7,0,0,1-2.16-.33c-4.47-1.29-12.31-1.86-8.34-.63s9.52,4.6,11.42,5,2,.69,4.18,2.88,4.06,3.47,4.16,5-10.92-3.28-17.77-6.9S180.51,93,189.43,98s18.77,9.6,22,11.35-.89,1.85,1.69,3.84-2,.39-13.31-5.17-23.93-11.71-19-8.43,30.68,15.28,35.14,17.27S215.55,119.75,212.07,118.19Z" style="fill:#73dcf6"/><path d="M236.46,128.37c-2.24.92-16.8.8-22.63,0s-8.61.13-8.21,1.59-7.28-.13-12.71-2.52-.26,1.59-5.95.53-13.25-8.47-13-6.22,6.48,6.35,0,5.83-10.19-2.52-13.63-6.75-3.71-1.73-3.32.79-3.65,6.38-8.38-11.37c.5-.16,1-.34,1.49-.51.42,2.84,1.67,6.68,3.76,8s.39-1.59-.61-5.45.7,0,3.88,2.38,4.27,4,3.57.63,3.18,2.84,6.66,5.72,5.75,1.09,3.67-1.49-5.56-9.23.4-3.57,17.07,8.53,12.61,5.46-12.52-10.13-14.69-14.19,10.72,9.32,17.26,12.9,13.71,4.36,9.64,2.52-24.62-16.32-26-19.5,16.87,11.42,22.47,15.07,8.41,3.69,13,5.38,3.67-2.08-2.58-4.86S175.44,104.5,173,101.43s24.23,12.51,31.77,16.28,3.87-1.09,7.34.48,8.44.61,4-1.37-30.18-14-35.14-17.27,7.64,2.87,19,8.43,15.89,7.15,13.31,5.17,1.59-2.09-1.69-3.84-13.1-6.4-22-11.35-4.36-4.27,2.49-.65,17.87,8.38,17.77,6.9-2-2.78-4.16-5-2.28-2.49-4.18-2.88-7.44-3.78-11.42-5,3.87-.66,8.34.63a6.7,6.7,0,0,0,2.16.33c1.13,1.69-2.36,1.42.29,1.62,3.45.27-.26,2.65,5.16,4s1.59,2.91,5.7,4.5-.14,5.7,5.69,8.34.93,2.78,5,4.37-.66,2.12,2.52,4-3,2.92,1.06,4.24S238.72,127.44,236.46,128.37Z" style="fill:#414142"/><path d="M143.47,146.77c-.75-.07-1,.38-.66.94-10-1.92-33.84-8-55.76-25.09a39.44,39.44,0,0,1-4.14-4.44,167.43,167.43,0,0,0,32.47-2.61c.54-.1,1.08-.19,1.6-.3h0c3.71.41,11.13,4.5,9.48,5.94-5.23-2.64-12-4.4-11.1-3,1.08,1.6,6.84,2.64,8.3,4.43s-6.62.45-13-2.52-6.76-1.79,1.45,2.52,13.24,3,17,7.34-9.93-.13-14.83-1.59S94,115,100.38,122.62s23.3,10.78,29.25,12.94,5.83,2.87-7.14,1.28-40.78-24.35-27.14-11.65a34.69,34.69,0,0,0,3.16,2.59c7.62,5.56,19,9.89,28.57,12.86h0c5.76,1.78,10.85,3.08,14,3.85a6.23,6.23,0,0,0,.68.36C143.67,145.71,144.8,146.9,143.47,146.77Z" style="fill:#73dcf6"/><path d="M158.5,152.6c0,1.19-1.72.79-1.72.79-40.24-6.69-61.48-22.89-69.73-30.77,21.92,17.08,45.77,23.17,55.76,25.09a4,4,0,0,0,2.11,1.31C147.58,149.88,158.5,151.41,158.5,152.6Z" style="fill:#fa902c"/><path d="M142.81,147.71c-10-1.92-33.84-8-55.76-25.09l11.46,5.16,28.57,12.86h0Z" style="fill:#82cbd6"/><path d="M141.14,144.49c-9.26-2.23-34.65-8.91-45.79-19.3-13.64-12.7,14.16,10.06,27.13,11.65s13.11.87,7.15-1.28-22.9-5.31-29.25-12.94,9,4.29,13.9,5.75,18.53,6,14.83,1.59-8.74-3-17-7.34-7.81-5.5-1.46-2.52,14.44,4.32,13,2.52-7.21-2.83-8.3-4.43c-.93-1.37,5.88.38,11.11,3l-.09.08c-2,1.39,4.11,4,2.65,4.5s4,4,2.78,4.73,5,4.47,3.11,4.67,3.51,4.43,2,4.23,3.37,3.11,2.65,3.05S139.71,143.61,141.14,144.49Z" style="fill:#414142"/><path d="M48.09,98.45c-3.58.8-2,1.72-3.85,4.11s-8.2,1.32-12.17-.8-4.63-4.37-2.92-7.19,2.78-1.81,5.56-1.15,4.9-.66,7.29-3.57,6.09,2.38,6.09,2.38C50.31,94.57,51.66,97.66,48.09,98.45Z" style="fill:#9c9c82"/><path d="M71.25,68.53c-1.32.53-4.23.27-5.56,3.31s-8.6,2.12-10.45,0-3.71-5.3-.67-5.3,4.5-1.85,6.49-5.29S70,64,70,64C72.9,66.26,72.58,68,71.25,68.53Z" style="fill:#9c9c82"/><path d="M129.17,84.42c-23.43,3.64-31.57,3.31-35.74-7s-5.56-9.36-16.48-15-10.53-11.29,0-21,47.26-5.34,66.14-1.57,22,16.22,22,16.22C174.45,76.28,152.6,80.78,129.17,84.42Z" style="fill:#71dfea"/><path d="M154,58.34S152.4,47,135.33,45.63s-46.61-4-48.28,8.54,15.51,15,28.32,16.81S160.35,73.63,154,58.34Z" style="fill:#78e9ef"/><path d="M31.67,60.21a11,11,0,1,0,10.95,11A10.95,10.95,0,0,0,31.67,60.21Zm5,17.79c-1.65.13-2.18,1.45-3.77,2.25S29,80.05,27,78.06s-1.46-2.25-3-2.78-1.59-5.36-1.06-6.88a5.28,5.28,0,0,1,4.63-3.31A12,12,0,0,0,33.06,63C34.78,62,39,65.09,39,65.09c2.2,1.38,1.12,4,2.45,5.62s-.93,3.05-1.45,4.84S38.29,77.86,36.63,78Z" style="fill:#dbc884"/><path d="M37.41,72a5.48,5.48,0,1,1-5.48-5.48A5.48,5.48,0,0,1,37.41,72Z" style="fill:#2b2b2b"/><path d="M41.4,70.71c-1.33-1.58-.25-4.24-2.45-5.62,0,0-4.17-3.11-5.89-2.12a12,12,0,0,1-5.56,2.12,5.28,5.28,0,0,0-4.63,3.31c-.53,1.52-.53,6.36,1.06,6.88s1.05.8,3,2.78,4.3,3,5.89,2.19S35,78.13,36.63,78s2.78-.66,3.32-2.45S42.73,72.3,41.4,70.71Zm-9.47,6.73A5.48,5.48,0,1,1,37.41,72,5.48,5.48,0,0,1,31.93,77.44Z" style="fill:#bb3f2a"/><path d="M34.33,71.65A2.68,2.68,0,1,1,37,74.33,2.68,2.68,0,0,1,34.33,71.65Z" style="fill:#eae3dd"/><path d="M44.25,94.57s-2.08-1.45-7.74,1.31S32,99.53,36,99.93s6.06-.4,8.24-2.19S45.73,94.93,44.25,94.57Z" style="fill:#aaa994"/><path d="M118.11,109.19s-6.57-4.82,0-8.4,27.22-9.2,42.05-11.82,26.74-19.52,29.91-14.64,9-1.57,11.92,3.11-5.3,4.55-14.3,6.21-15.62,10-27.53,16.8-18,8.8-26.48,8.74S122.66,111.9,118.11,109.19Z" style="fill:#78e9ef"/><path d="M259,26.75c-.79.05-10,.24-7.64,2.45s9.84,3.89,9.09,6.33,1.43,4.13,3.72,5.62,5.34,4.86,3.61,7.05.56,4.47,2,4.47-1.29-6.36.79-8.25-.1-4.42-2.08-5.43-4-1.12-3.89-4.79S263.12,26.48,259,26.75Z" style="fill:#fa902c"/><path d="M269.44,93.21c-1-.07-7-1-5.87,1s.72,7.72-1.57,8.12-5.67-.56-4.48,1.61a3.53,3.53,0,0,0,6.05,0c1.3-2.4,2.77-5,4.22-5.58S273,93.47,269.44,93.21Z" style="fill:#fa902c"/><path d="M101.64,10s-5.56-2-2.78-3,4.37-3.77,8.34-1.39,5.46,3.43,8,1.72,1.88-5.78,5.68-2.66,5.79,1.84,7.18,2.09.8,3.82-3.17,3.22-8.26-1.53-9.95.07-4.35-.73-7.13,0S104.22,11.18,101.64,10Z" style="fill:#ffae6c"/><path d="M220.89,119.69s-5.84-.8-6.3,2-3.33,3.87-5.82,4.37,2.68.79,10.43,1.29,16.68.1,11-1-8.44-1.48-7.35-3.72S222.38,119.19,220.89,119.69Z" style="fill:#fa902c"/></g></g></svg>