<svg xmlns="http://www.w3.org/2000/svg" viewBox="0 0 298.16 141.61"><title>celestial-eye</title><g id="Layer_2" data-name="Layer 2"><g id="Ñëîé_2" data-name="Ñëîé 2"><path d="M52.44,24.76A37.23,37.23,0,0,0,42.11,21s-1.32.36-3.48,1.06c3.41,1.11,11.61,4.1,13.2,7.68,2,4.54-9.25,5.72-19.23,4.63s-14.77,1.58-18,4.27c-2.27,1.87-5.81,1.77-9,0-2.29,2.22-2.33,3.43-2.33,3.86,0,0,5.54,7.17,5.54,15.6a2.07,2.07,0,0,1-2.17.72,120.44,120.44,0,0,0,10.88,7.61q5.38,3.41,11,6.43c9.78.78,16.71-2.5,21.62-7.49.55-10-3.37-21.12-3.78-22.49C46,41.78,47.17,41,49,40.47a45.38,45.38,0,0,1,6.84-1.22c1.75-.26,3.88-1,5.59-.31a60.49,60.49,0,0,0,.6-6.55A32.28,32.28,0,0,0,52.44,24.76ZM46.82,52.13A13,13,0,0,1,40.66,64a21.41,21.41,0,0,1-14.6,2.88c-4.22-.54-8.51-2.31-10.52-6.29-1.55-3-1.52-6.6-1-9.86A10.51,10.51,0,0,1,15.71,46a11.22,11.22,0,0,1,3.43-5.48,9.67,9.67,0,0,1,2.66-2,17.46,17.46,0,0,1,2.21-1,17.2,17.2,0,0,1,2.55-.79l.21,0,.16,0a21.28,21.28,0,0,1,3.87-.52c3-.11,5.35.52,6.24,1.72l.09,0c3.9,1.27,6.89,3.9,7.94,7.43A17.93,17.93,0,0,1,46.82,52.13Z" style="fill:#ea6f1c"/><path d="M26.56,36.7a17.2,17.2,0,0,0-2.55.79,19.41,19.41,0,0,1,2.76-.83ZM37,37.82l0,0,.07,0Z" style="fill:#ff7f27"/><path d="M40.66,64a21.41,21.41,0,0,1-14.6,2.88c-4.22-.54-8.51-2.31-10.52-6.29-1.55-3-1.52-6.6-1-9.86a8.69,8.69,0,0,0,.24,2c1.46,6.54,9.47,10.3,17.88,8.41s14-8.72,12.55-15.26c-.05-.21-.11-.42-.17-.63a17.93,17.93,0,0,1,1.75,6.84A13,13,0,0,1,40.66,64Z" style="fill:#d36318"/><path d="M74.87,83.78a15.85,15.85,0,0,0,1.69.36Z" style="fill:#ff7f27"/><path d="M150,20.54c-8.56-5.36-17.35-10.12-27.27-12.49-12.68-3-25.57-1-38,2.08-11.39,2.8-22.77,6.91-32,14.4l-.27.23A32.28,32.28,0,0,1,62,32.39a28.46,28.46,0,0,1,6.29,14.19c3.36,21.81-6.13,32.81-23.86,33.94.91.39,1.82.77,2.74,1.13A176.11,176.11,0,0,0,65.74,88a10.75,10.75,0,0,0-4.92-4.35s-3.78-.84-4-2.6,8.31-3,10.49-1a18.73,18.73,0,0,0,7.38,3.7h0l.1,0,1.69.36a15.93,15.93,0,0,0,7.58-.48c7.3-2.35,10.82-.08,10.32,1.51s3.78,2.77,3.78,6.29A3.65,3.65,0,0,0,99,93.73l1,.07h0c55.67-1.45,32.22-54.6,45.48-58.63s24.86,8.26,24.86,8.26c1-.9,2-2,3.16-3.19a23.48,23.48,0,0,0,1.94-2.4A19.88,19.88,0,0,0,177.11,35a16.18,16.18,0,0,0,1.26-3.72C168.5,29.07,158.64,25.94,150,20.54ZM137,43.25c-8,9.75-24.89,14-37,13.28q-2.78-.15-5.5-.55c-8.11-1.22-16.67-4.54-21-11.93-4-6.83-4.3-16.92,2.3-22.32,6.26-5.11,15-7.33,22.76-8.61s16.23-1.92,23.81.23,15.57,9.52,17.47,17.54A13.71,13.71,0,0,1,137,43.25Z" style="fill:#f9761e"/><path d="M44.42,80.52h0c-5.43-2.3-10.76-4.85-15.95-7.65,9.78.78,16.71-2.5,21.62-7.49A26,26,0,0,1,49,71.75c-3.52,11.07,17.28-1.51,17.62-13.93.13-4.9-.21-10.19-2.12-14.77a9.08,9.08,0,0,0-2.35-3.67,2.89,2.89,0,0,0-.75-.44,60.49,60.49,0,0,0,.6-6.55,28.46,28.46,0,0,1,6.29,14.19C71.64,68.39,62.15,79.39,44.42,80.52Z" style="fill:#dd6819"/><path d="M170.33,43.43A28.74,28.74,0,0,1,167,46.12a14.51,14.51,0,0,1-2.9,1.56,8.2,8.2,0,0,1-2.5.58,6.66,6.66,0,0,1-1.95-.21c-.61-.16-1.09-.38-1.48-.51-2.35-.78-2.29,3.84-2.54,5.55-.51,3.43-2.06,6.63-3.47,9.76A55.59,55.59,0,0,1,128.9,88.16c-1.52.86-3.07,1.66-4.66,2.38a56.47,56.47,0,0,1-5.49,2.18,22.87,22.87,0,0,1-4.16,1A61.17,61.17,0,0,1,104.5,94c-1.5,0-3-.11-4.51-.19,55.67-1.45,32.22-54.6,45.48-58.63S170.33,43.43,170.33,43.43Z" style="fill:#ea6f1c"/><path d="M178.67,29a15.48,15.48,0,0,1-.3,2.25c-9.87-2.21-19.73-5.34-28.37-10.74S132.65,10.42,122.73,8.05c-12.68-3-25.57-1-38,2.08-11.39,2.8-22.77,6.91-32,14.4l-.27.23A37.23,37.23,0,0,0,42.11,21C48.65,12.18,73.32,2.62,106.54.86S168,18.22,168,18.22s4.53,3,8.56,2.14h0a14.33,14.33,0,0,1,1.89,4.88A15.08,15.08,0,0,1,178.67,29Z" style="fill:#fc8b27"/><path d="M8.76,58.11a2.07,2.07,0,0,1-2.17.72l-.39-.09c-.87-.23-1.31-1-1.66-2.21h0c-.4-1.31-.67-3.09-1.32-5.09a9.46,9.46,0,0,0-1.65-3C.49,47-.46,46.19.24,44.56c1.09-2.51,3-2.05,3-2.05S8.76,49.68,8.76,58.11Z" style="fill:#fc8b27"/><path d="M4.54,56.53c-5.35-2.47-3-8.11-3-8.11a9.46,9.46,0,0,1,1.65,3C3.87,53.44,4.14,55.22,4.54,56.53Z" style="fill:#ef7a22"/><path d="M64.49,43.05a9.08,9.08,0,0,0-2.35-3.67,2.89,2.89,0,0,0-.75-.44c-1.71-.74-3.84.05-5.59.31A45.38,45.38,0,0,0,49,40.47c-1.79.54-3,1.31-2.66,2.42.41,1.37,4.33,12.45,3.78,22.49A26,26,0,0,1,49,71.75c-3.52,11.07,17.28-1.51,17.62-13.93C66.74,52.92,66.4,47.63,64.49,43.05Z" style="fill:#f9761e"/><path d="M55.83,45.29c-2.08.05,2.45.93,4.34,4.14s-1.32,0-4-1.66,3.21,2.73,3.21,5.63-.85-.19-3-2.65,1.06,2,.86,5.85C57.11,60.07,56,55,53.78,52.31a39.85,39.85,0,0,0-2.27-4.92c-.74-1.34.83-3,3-4,1.87.38,5.32,1.21,6.45,2.34C62.56,47.36,57.9,45.25,55.83,45.29Z" style="fill:#f9761e"/><path d="M60.67,58.39A10.11,10.11,0,0,1,59.26,60c-.46.47-2.13,2.38-2.89,2.24s-.74-1.07-.89-1.9c-.11-.64-.18-1.31-.24-2A17.53,17.53,0,0,0,54.7,55c-.27-.89-.58-1.78-.92-2.66C56,55,57.11,60.07,57.3,56.6c.2-3.9-3-8.3-.86-5.85s3,5.54,3,2.65-5.85-7.3-3.21-5.63,5.85,4.87,4,1.66-6.42-4.09-4.34-4.14,6.73,2.07,5.16.49c-1.13-1.13-4.58-2-6.45-2.34a7,7,0,0,1,6.06,0,4.57,4.57,0,0,1,2,2.34C64.22,49.78,62.65,54.74,60.67,58.39Z" style="fill:#fc8b27"/><path d="M26.56,36.7a17.2,17.2,0,0,0-2.55.79,19.41,19.41,0,0,1,2.76-.83Z" style="fill:#ff7f27"/><path d="M28.76,44.76c-5.27,1.19-10,.33-10.46-1.92a1.87,1.87,0,0,1,0-.42,3,3,0,0,1,.88-1.92,9.67,9.67,0,0,1,2.66-2,1.29,1.29,0,0,0-.17.16,2.27,2.27,0,0,0-.83,1.67.75.75,0,0,0,0,.2c.34,1.54,3.42,2.15,6.89,1.37s6-2.66,5.64-4.19a1.26,1.26,0,0,0-.34-.63,2.83,2.83,0,0,0-1.21-.73h0a6.52,6.52,0,0,0-1-.24c3-.11,5.35.52,6.24,1.72l0,0a1.71,1.71,0,0,1,.32.7C37.89,40.79,34,43.58,28.76,44.76Z" style="fill:#ff7f27"/><path d="M33.36,37.7a1.26,1.26,0,0,0-.34-.63,2.83,2.83,0,0,0-1.21-.73h0a6.52,6.52,0,0,0-1-.24,21.28,21.28,0,0,0-3.87.52l-.16,0a19.41,19.41,0,0,0-2.76.83,17.46,17.46,0,0,0-2.21,1,1.29,1.29,0,0,0-.17.16,2.27,2.27,0,0,0-.83,1.67.75.75,0,0,0,0,.2c.34,1.54,3.42,2.15,6.89,1.37S33.71,39.23,33.36,37.7Zm-6,2.55c-1.91.44-3.63.06-3.83-.84a.93.93,0,0,1,.11-.66,4.54,4.54,0,0,1,3-1.75,5.3,5.3,0,0,1,3.15.12h0a1.15,1.15,0,0,1,.69.73C30.66,38.74,29.27,39.82,27.35,40.25Z" style="fill:#ffb870"/><path d="M26.56,36.7a17.2,17.2,0,0,0-2.55.79,19.41,19.41,0,0,1,2.76-.83ZM37,37.82l0,0,.07,0Z" style="fill:#ff7f27"/><path d="M27.35,40.25c-1.91.44-3.63.06-3.83-.84a.93.93,0,0,1,.11-.66,4.54,4.54,0,0,1,3-1.75,5.3,5.3,0,0,1,3.15.12h0a1.15,1.15,0,0,1,.69.73C30.66,38.74,29.27,39.82,27.35,40.25Z" style="fill:#2b2b2b"/><path d="M31.2,57.27C23.88,58.93,16.9,55.65,15.63,50a8.2,8.2,0,0,1,.08-4,11.22,11.22,0,0,1,3.43-5.48,3,3,0,0,0-.88,1.92,1.87,1.87,0,0,0,0,.42c.51,2.25,5.19,3.11,10.46,1.92s9.13-4,8.62-6.22a1.71,1.71,0,0,0-.32-.7l.07,0a9.35,9.35,0,0,1,5,6.14C43.41,49.69,38.51,55.63,31.2,57.27Z" style="fill:#ffbe57"/><path d="M32.69,61.18c-8.41,1.89-16.42-1.87-17.88-8.41a8.69,8.69,0,0,1-.24-2A10.51,10.51,0,0,1,15.71,46a8.2,8.2,0,0,0-.08,4c1.27,5.67,8.25,9,15.57,7.29S43.41,49.69,42.13,44a9.35,9.35,0,0,0-5-6.14c3.9,1.27,6.89,3.9,7.94,7.43.06.21.12.42.17.63C46.71,52.46,41.09,59.29,32.69,61.18Z" style="fill:#dd6819"/><path d="M24.48,27.35c-1.69.74-3.4,1.53-5.1,2.38a2.1,2.1,0,0,1-.84-1.22,2.8,2.8,0,0,1,2.34-3.15A2.8,2.8,0,0,1,24.43,27,1.67,1.67,0,0,1,24.48,27.35Z" style="fill:#2b2b2b"/><path d="M27.13,26.23c-.87.36-1.76.73-2.65,1.12a1.67,1.67,0,0,0-.05-.31,2.8,2.8,0,0,0-3.55-1.68,2.8,2.8,0,0,0-2.34,3.15,2.1,2.1,0,0,0,.84,1.22c-.76.38-1.51.76-2.26,1.16a3.63,3.63,0,0,1-1.72-2.18C14.82,26.38,17,23.84,20.17,23s6.3.43,6.88,2.75A2.36,2.36,0,0,1,27.13,26.23Z" style="fill:#ffb870"/><path d="M31.21,24.62c-1.3.49-2.67,1-4.08,1.61a2.36,2.36,0,0,0-.08-.45c-.58-2.32-3.66-3.55-6.88-2.75s-5.35,3.35-4.77,5.68a3.63,3.63,0,0,0,1.72,2.18c-.57.3-1.13.61-1.69.92-1.11.63-2.11,1.22-3,1.78-.05-.16-.1-.33-.14-.49-1.18-4.71,2.5-9.69,8.23-11.12C24.7,20.92,28.84,22.07,31.21,24.62Z" style="fill:#ff7f27"/><path d="M139.78,30.89c-1.9-8-9.9-15.39-17.47-17.54s-16.14-1.5-23.81-.23S82,16.62,75.74,21.73c-6.6,5.4-6.34,15.49-2.3,22.32,4.37,7.39,12.93,10.71,21,11.93q2.73.41,5.5.55c12.08.67,29-3.53,37-13.28A13.71,13.71,0,0,0,139.78,30.89ZM117.67,41.51c-9,4.21-21.9,4.79-30.63-.18C83.19,39.15,79.13,34.83,80,30c1.15-6.35,13.88-12.38,27.6-11.52,4.84.3,10,1.75,13.24,5.58a16.38,16.38,0,0,1,2.47,4C125.81,33.84,123.1,39,117.67,41.51Z" style="fill:#ff7f27"/><path d="M117.67,41.51c-9,4.21-21.9,4.79-30.63-.18C83.19,39.15,79.13,34.83,80,30c1.15-6.35,13.88-12.38,27.6-11.52,4.84.3,10,1.75,13.24,5.58a16.38,16.38,0,0,1,2.47,4C125.81,33.84,123.1,39,117.67,41.51Z" style="fill:#ff8a29"/><path d="M109.28,111.41a2,2,0,0,1-1.36.73,10.1,10.1,0,0,1-2.8,0,35.07,35.07,0,0,1-5.18-1c-2.8-.72-5.55-1.62-8.27-2.58-4.08-1.45-8.11-3-12.09-4.73l-.72-.31c.06,0,.14.22.18.27.2.25.41.5.64.74a19.41,19.41,0,0,0,3,2.55,37.2,37.2,0,0,0,6.06,3.41,67.11,67.11,0,0,0,9.93,3.56c1.19.33,2.38.64,3.58.93a22.54,22.54,0,0,0,2.5.48c.25,0,1.42,0,1.4.45s-1.6.49-1.88.52a16.42,16.42,0,0,1-4.14-.19,44.9,44.9,0,0,1-7.31-1.82A107.6,107.6,0,0,1,81.6,110l-2.21-1a35.34,35.34,0,0,1-4.69-5.44c-4.2-5.93-6.34-11.65-9-15.53a10.75,10.75,0,0,0-4.92-4.35s-3.78-.84-4-2.6,8.31-3,10.49-1a18.73,18.73,0,0,0,7.38,3.7h0l.1,0a15.85,15.85,0,0,0,1.69.36c3.56.75,11.34,2.27,14,2,3.44-.42-3.44,1.18-9.65,0S91.05,90.94,94.63,91s-5.79.76-12.25-1.6c-4.36-1.58,1.21,1.15,7.09,3.48a56.25,56.25,0,0,0,7.67,2.57c5.88,1.25-8.22.75-16.94-4l-.18-.1a5.42,5.42,0,0,0-2.13-1,2.24,2.24,0,0,0,.8.71c.21.12.41.23.57.34,1.22.78,2.47,1.5,3.74,2.2a71.27,71.27,0,0,0,11.09,5c1.06.36,2.14.69,3.22,1,.51.12,1,.23,1.53.32s2.17.51.94,1a3.12,3.12,0,0,1-1.36,0,39.14,39.14,0,0,1-7.65-2.28c-3.4-1.25-6.75-2.62-10.07-4C58.13,85,91.61,104,104.44,106.48s-6.29,2.46-24.33-7.83A22.15,22.15,0,0,0,74.68,96c-1-.23-.67.38-.21.88a22,22,0,0,0,4,3.16,69.91,69.91,0,0,0,7.06,4.21,74.42,74.42,0,0,0,9.14,4,52.13,52.13,0,0,0,10.12,2.63c.72.11,1.43.21,2.15.25S108.74,110.87,109.28,111.41Z" style="fill:#ff7f27"/><path d="M102.06,118.14c-9.68-1-16.91-3.75-22.67-9.16l2.21,1a107.6,107.6,0,0,0,11.24,4.45,44.9,44.9,0,0,0,7.31,1.82,16.42,16.42,0,0,0,4.14.19c.28,0,1.86-.11,1.88-.52s-1.15-.43-1.4-.45a22.54,22.54,0,0,1-2.5-.48c-1.2-.29-2.39-.6-3.58-.93a67.11,67.11,0,0,1-9.93-3.56,37.2,37.2,0,0,1-6.06-3.41,19.41,19.41,0,0,1-3-2.55c-.23-.24-.44-.49-.64-.74,0,0-.12-.24-.18-.27l.72.31c4,1.68,8,3.28,12.09,4.73,2.72,1,5.47,1.86,8.27,2.58a35.07,35.07,0,0,0,5.18,1,10.1,10.1,0,0,0,2.8,0,2,2,0,0,0,1.36-.73c-.54-.54-1.69-.19-2.38-.22s-1.43-.14-2.15-.25a52.13,52.13,0,0,1-10.12-2.63,74.42,74.42,0,0,1-9.14-4,69.91,69.91,0,0,1-7.06-4.21,22,22,0,0,1-4-3.16c-.46-.5-.74-1.11.21-.88a22.15,22.15,0,0,1,5.43,2.63c18,10.29,37.17,10.35,24.33,7.83S58.13,85,80.7,94.57c3.32,1.41,6.67,2.78,10.07,4a39.14,39.14,0,0,0,7.65,2.28,3.12,3.12,0,0,0,1.36,0c1.23-.44-.48-.87-.94-1s-1-.2-1.53-.32c-1.08-.26-2.16-.59-3.22-1a71.27,71.27,0,0,1-11.09-5c-1.27-.7-2.52-1.42-3.74-2.2-.16-.11-.36-.22-.57-.34a2.24,2.24,0,0,1-.8-.71,5.42,5.42,0,0,1,2.13,1l.18.1c8.72,4.7,22.82,5.2,16.94,4a56.25,56.25,0,0,1-7.67-2.57c-5.88-2.33-11.45-5.06-7.09-3.48C88.84,91.72,98.21,91,94.63,91s-20-5.95-13.76-4.82,13.09-.47,9.65,0c-2.62.32-10.4-1.2-14-2a15.93,15.93,0,0,0,7.58-.48c7.3-2.35,10.82-.08,10.32,1.51s3.78,2.77,3.78,6.29A3.65,3.65,0,0,0,99,93.73c1.17,1.59,3.3,2.29,3.08,4.4-.3,2.9,2.59,2.14,2.59,4.79s3.9.88,4.79,3.27,3.65.63,3.65,2.77S114.57,119.4,102.06,118.14Z" style="fill:#ffb870"/><path d="M185.49,108.13a5.24,5.24,0,0,0-1.43,1c-3,2.77-3.07-.5-5.69,1s-5.61-2.47-7.76.15c-.05,0-4.69-6.62-5.06-7.27a64.07,64.07,0,0,1-4.22-8.85C158.15,86,155.6,77.49,156,68.74c.08-1.78,1.94-21.12,3.6-20.69a6.66,6.66,0,0,0,1.95.21C160.55,55,156.57,91.56,185.49,108.13Z" style="fill:#ff7f27"/><path d="M194.22,106.82c-2.64,1.28-5.93,0-8.72,1.31h0C156.57,91.56,160.55,55,161.57,48.26a8.2,8.2,0,0,0,2.5-.58v.13c0,.08,0,.18,0,.32h0a.61.61,0,0,1,0,.14c0,.42.08,1.07.16,1.89,0,.11,0,.21,0,.32a.28.28,0,0,0,0,.09c0,.08,0,.16,0,.25.09.76.21,1.65.35,2.64l.09.59c.11.74.24,1.52.39,2.36.05.22.09.46.14.69.14.76.3,1.56.48,2.39l.15.66c.13.57.27,1.16.42,1.76s.24,1,.38,1.48a.24.24,0,0,1,0,.08c.09.31.17.62.26,1l.15.52c.19.69.41,1.4.64,2.11.11.36.22.72.34,1.09s.25.72.38,1.09c.18.55.38,1.1.59,1.66l.21.56c.07.19.14.37.22.56s.13.34.19.5l0,.1.45,1.09c.23.57.48,1.14.73,1.71.17.38.34.76.52,1.14.1.22.2.44.31.65s.22.45.33.67c.34.71.7,1.41,1.08,2.11.14.26.28.53.43.78A61.59,61.59,0,0,0,178.31,88l.28.36.14.18c.17.23.34.44.52.66l.62.77a.69.69,0,0,1,.11.13c.48.56,1,1.13,1.47,1.68.29.32.58.63.89.94s.54.57.83.85l.5.5c.34.33.68.66,1,1,.56.51,1.14,1,1.73,1.51s1,.86,1.59,1.27l.59.44c.41.31.82.6,1.24.89q.28.21.57.39l.63.42c.42.27.84.54,1.28.8l.65.39c.44.26.88.51,1.34.75.22.13.45.25.68.37C195.31,104.12,196,106,194.22,106.82Z" style="fill:#ffb870"/><path d="M204.45,127.2c-15.16-2.07-26.06-7.68-33.84-17,2.15-2.62,5.15,1.36,7.76-.15s2.67,1.76,5.69-1a5.24,5.24,0,0,1,1.43-1h0c10.5,6,25.32,9.52,46.13,8.2l.25.18C235.66,119.15,233.9,131.23,204.45,127.2Z" style="fill:#f4731c"/><path d="M231.63,116.33c-20.81,1.32-35.63-2.18-46.13-8.2,2.79-1.29,6.08,0,8.72-1.31,1.77-.86,1.09-2.7.78-4.52,7.57,4,17,6.32,28.71,6a3.07,3.07,0,0,0,1.88,1.28c2.77.75,4.78-1.26,4.78,2.26S228.21,113.94,231.63,116.33Z" style="fill:#f9af6b"/><path d="M223.71,108.31c-11.72.31-21.14-2-28.71-6-.23-.12-.46-.24-.68-.37l.68.37c-.24-1.37-.27-2.74,1.14-3.65,2.15-1.4-.26-4.83-1.1-8a62,62,0,0,0,28.69,10.81q-.07.38-.15.84C223.06,105,222.9,107.05,223.71,108.31Z" style="fill:#f4731c"/><path d="M223.73,101.45A62,62,0,0,1,195,90.64h0c-.44-1.66-.44-3.25.85-4.46,3.78-3.53-4.28-4.28-.75-7.16a3.06,3.06,0,0,0,.9-1.19,62.47,62.47,0,0,0,21,12.75c-.51,1.7-.42,2.7,2.51,4.66C223.74,98,224.27,98.24,223.73,101.45Z" style="fill:#f9af6b"/><path d="M218,86.93a17,17,0,0,1-.59,2.37c-.15.48-.29.9-.41,1.28a62.47,62.47,0,0,1-21-12.75c1.17-2.93-3.32-7-.9-9a3,3,0,0,0,1-2.49,56,56,0,0,0,15.54,7.38c-.13,2.67,1.66,5.21,4.32,6.82a14.19,14.19,0,0,1,2,1.36C219.14,82.87,218.59,83.64,218,86.93Z" style="fill:#f4731c"/><path d="M295.81,30.89a4.64,4.64,0,0,0-1.95,4.44A105.66,105.66,0,0,1,276.68,29a102.5,102.5,0,0,0-24.4-7.58,23.17,23.17,0,0,0-.25-6.32c1.17.25,2.33.54,3.51.88,10,2.91,16.81,5.94,22.65,7.26A19.71,19.71,0,0,0,290,22.79C299.59,19.23,299.59,28,295.81,30.89Z" style="fill:#f9af6b"/><path d="M293.86,35.33a3.38,3.38,0,0,1-1.57,3.3c-3.27,2.24-.76,4-5.79,6.66A5,5,0,0,0,285,46.45a111.34,111.34,0,0,1-10.79-5.76,104,104,0,0,0-27.34-10.86c-.43-1.11-1.09-2.16,1.92-3,2.32-.63,3.23-3,3.53-5.39A102.5,102.5,0,0,1,276.68,29,105.66,105.66,0,0,0,293.86,35.33Z" style="fill:#f4731c"/><path d="M285,46.45c-2.06,2.43,1.48,5.18-5,6a12.62,12.62,0,0,0-6.14,2.34c-9.19-5.51-17.52-11.38-17.52-11.38a83.84,83.84,0,0,0-14.64-5.86c1.13-1.88,2.07-4.16,4.07-5.19,1.63-.83,1.43-1.71,1.1-2.56a104,104,0,0,1,27.34,10.86A111.34,111.34,0,0,0,285,46.45Z" style="fill:#f9af6b"/><path d="M273.82,54.82c-2.05,1.42-3.58,2.85-8.21,2.5-7.8-.59-11.33-2.78-13.84.45l-.17.21c-7.18-4.19-13.33-8.22-13.33-8.22a70.85,70.85,0,0,0-8-4,2.29,2.29,0,0,1,1.56-.42c3.78.14,1-5.17,5.54-4.85,2.13.14,3.26-1.2,4.24-2.86a83.84,83.84,0,0,1,14.64,5.86S264.63,49.31,273.82,54.82Z" style="fill:#f4731c"/><path d="M251.6,58a4.33,4.33,0,0,1-4.31,1.39,20.54,20.54,0,0,0-4.84-.5c-3.52.38-2.26,2-7.3,2.8l-.53.07a29.91,29.91,0,0,0-6-5.52,47.25,47.25,0,0,0-7.82-5.55,12.67,12.67,0,0,1,3.54-.49c5.29,0,4.5-3.29,6-4.47a70.85,70.85,0,0,1,8,4S244.42,53.79,251.6,58Z" style="fill:#f9af6b"/><path d="M248.12,7.53a7.82,7.82,0,0,0-1.19,1.61c-19,1.07-41.89,4.3-59.61,12.8a70,70,0,0,1-7.84-1S212.75,5.47,242.62,4.13L245.73,4S249.38,6.14,248.12,7.53Z" style="fill:#ffb870"/><path d="M279.43,9.08a297.72,297.72,0,0,0-32.5.06,7.82,7.82,0,0,1,1.19-1.61C249.38,6.14,245.73,4,245.73,4c27-1.11,29.92.12,33.64-3.25S281.1,6.9,279.43,9.08Z" style="fill:#ed9f5f"/><path d="M279.38,18.8c-5-1.06-20.44-4.19-29.24-4l-.9-.14c-3.15-2.07-3.07-4-2.31-5.48a297.72,297.72,0,0,1,32.5-.06l-.06.08c-1.68,2,1.84,3.52-.17,5.54C277.94,16,279.11,17,279.38,18.8Z" style="fill:#d85912"/><path d="M278.19,23.27C272.35,22,265.53,18.92,255.54,16c-1.18-.34-2.34-.63-3.51-.88-.63-.13-1.26-.26-1.89-.37,8.8-.15,24.28,3,29.24,4A6.45,6.45,0,0,1,278.19,23.27Z" style="fill:#ed9f5f"/><path d="M234.62,61.74a16.12,16.12,0,0,1-4.12-.08c-3.1-.4-5.64-1.25-6.67,0a9.21,9.21,0,0,1-4.54,3,16.62,16.62,0,0,1-3,.66h-.08a160.84,160.84,0,0,0-16.65-13h0c-2.17-4.08,4.49.93,10.18,1.67,4.61.6,7-2.14,11.06-3.29a47.25,47.25,0,0,1,7.82,5.55A29.91,29.91,0,0,1,234.62,61.74Z" style="fill:#f4731c"/><path d="M242.3,91.5a126.76,126.76,0,0,1-24.85-2.2,17,17,0,0,0,.59-2.37,78.13,78.13,0,0,0,19.84,1.3A19.4,19.4,0,0,0,242.3,91.5Z" style="fill:#e86b18"/><path d="M242.3,91.5h0a19.4,19.4,0,0,1-4.42-3.27c8.89-.58,19-3,26.31-9.87.63.21,1.46.4,2.59.66C270.09,79.77,267,90.92,242.3,91.5Z" style="fill:#d85912"/><path d="M264.19,78.36c-7.3,6.88-17.42,9.29-26.31,9.87-1.66-1.68-2.19-3.12-1.64-3.56a2,2,0,0,0,.48-2.54c7.89-1,16.43-3.92,21.53-10.91,1.28.79,3.33,1.42,3.67,3.55C262.29,77.1,262.47,77.79,264.19,78.36Z" style="fill:#f7ac69"/><path d="M258.25,71.22c-5.1,7-13.64,9.87-21.53,10.91a4.26,4.26,0,0,0-2.82-2.24c-1.56-.43-2.6-2.45-3-4.38,7.05-.66,15.91-2.88,22-9.25,1.53,1,4.43,2,4.31,3.47C257.16,70.4,257.61,70.83,258.25,71.22Z" style="fill:#d85912"/><path d="M252.91,66.26c-6,6.37-14.91,8.59-22,9.25-.27-1.5-.12-3,.54-3.55,1.49-1.39-3-3.9-.11-4.57a1.33,1.33,0,0,0,.88-.57,33,33,0,0,0,16-6.6c1.46,1.3,4,3.73,3.74,4.82C251.92,65.46,252.31,65.86,252.91,66.26Z" style="fill:#f7ac69"/><path d="M232.26,66.82c1-1.5-1.76-5.16-1.76-5.16a16.12,16.12,0,0,0,4.12.08l.53-.07c5-.85,3.78-2.42,7.3-2.8a20.54,20.54,0,0,1,4.84.5s.41.34,1,.85A33,33,0,0,1,232.26,66.82Z" style="fill:#d85912"/><path d="M123.83,101c.15.64,5.48,21.07,33.68,28.71a9.1,9.1,0,0,0-.51,2.13c-25.64-3.61-38.46-33.63-38.46-33.63,5,28.4,38.48,37.43,39,37.56h0a10.52,10.52,0,0,0,2.21,3.38c-49.94-14.54-45.13-45.44-45.13-45.44a22.87,22.87,0,0,0,4.16-1,56.47,56.47,0,0,0,5.49-2.18c7.56,10.29,18.68,11.31,26.94,8.75a52,52,0,0,1,3.36,6.09s-12.93,4.21-28.28-8.38c0,0,4.13,13.18,30.17,15a4.34,4.34,0,0,1-.56,2.35,7.51,7.51,0,0,0-.8,1.7A36.64,36.64,0,0,1,128.36,104c.25.46,8.52,15.13,29,17.32l1,.75c1.27,1,2.08,2.13,1.73,3.39C160.12,125.43,135.91,122.76,123.83,101Z" style="fill:#ff7f27"/><path d="M157.37,121.29c-20.49-2.19-28.76-16.86-29-17.32a36.64,36.64,0,0,0,26.71,12.1C154.24,118.72,155.9,120.19,157.37,121.29Z" style="fill:#ffb870"/><path d="M160.12,125.43a3.58,3.58,0,0,1-1,1.52,8.18,8.18,0,0,0-1.63,2.72C129.31,122,124,101.6,123.83,101,135.91,122.76,160.12,125.43,160.12,125.43Z" style="fill:#ffb870"/><path d="M157.51,135.73c-.49-.13-34-9.16-39-37.56,0,0,12.82,30,38.46,33.63A8.16,8.16,0,0,0,157.51,135.73Z" style="fill:#ffb870"/><path d="M168.62,141.38c-3.14-.7-6.1-1.46-8.9-2.27a10.52,10.52,0,0,1-2.21-3.38h0a8.16,8.16,0,0,1-.51-3.93,9.1,9.1,0,0,1,.51-2.13,8.18,8.18,0,0,1,1.63-2.72,3.58,3.58,0,0,0,1-1.52c.35-1.26-.46-2.39-1.73-3.39l-1-.75c-1.47-1.1-3.13-2.57-2.3-5.22a7.51,7.51,0,0,1,.8-1.7,4.34,4.34,0,0,0,.56-2.35,17.56,17.56,0,0,0-1.89-6.64,52,52,0,0,0-3.36-6.09c.63-.19,1.24-.41,1.84-.64,8.39-3.31,12.58,8.5,11.41,11.52s3.36,5.54,5,6.34.67,1.72-.5,3.06.17,3.19,2.52,4,1.67,2-.34,4.43-1,1.45,3,8.33S168.62,141.38,168.62,141.38Z" style="fill:#f9af6b"/><path d="M156.43,112c-26-1.84-30.17-15-30.17-15,15.35,12.59,28.28,8.38,28.28,8.38A17.56,17.56,0,0,1,156.43,112Z" style="fill:#ffb870"/><path d="M252.28,21.45c-.3,2.42-1.21,4.76-3.53,5.39-3,.83-2.35,1.88-1.92,3-32.78-8.35-67.87-4.64-68.42-4.58a14.33,14.33,0,0,0-1.89-4.88c.1,0,1.16.29,3,.62a70,70,0,0,0,7.84,1A65.43,65.43,0,0,0,207,20.36H207A149.25,149.25,0,0,1,252.28,21.45Z" style="fill:#ff7f27"/><path d="M252.28,21.45A149.25,149.25,0,0,0,207,20.35c13.87-3.42,27.55-8,42.22-5.73l.9.14c.63.11,1.26.24,1.89.37A23.17,23.17,0,0,1,252.28,21.45Z" style="fill:#ffb870"/><path d="M220.79,50.67c-4.07,1.15-6.45,3.89-11.06,3.29-5.69-.74-12.35-5.75-10.18-1.67a225.29,225.29,0,0,0-24.12-14.45A19.88,19.88,0,0,0,177.11,35S203.73,40.71,220.79,50.67Z" style="fill:#ff7f27"/><path d="M230.32,45.71c-1.49,1.18-.7,4.47-6,4.47a12.67,12.67,0,0,0-3.54.49C203.73,40.71,177.11,35,177.11,35a16.18,16.18,0,0,0,1.26-3.72S209.75,36.65,230.32,45.71Z" style="fill:#ffb870"/><path d="M241.66,37.58c-1,1.66-2.11,3-4.24,2.86-4.53-.32-1.76,5-5.54,4.85a2.29,2.29,0,0,0-1.56.42c-20.57-9.06-51.95-14.43-51.95-14.43a15.48,15.48,0,0,0,.3-2.25S214.48,29.28,241.66,37.58Z" style="fill:#ff7f27"/><path d="M245.73,32.39c-2,1-2.94,3.31-4.07,5.19-27.18-8.3-63-8.55-63-8.55a15.08,15.08,0,0,0-.26-3.78c.55-.06,35.64-3.77,68.42,4.58C247.16,30.68,247.36,31.56,245.73,32.39Z" style="fill:#ffb870"/><path d="M216.2,65.3c-3.67.52-1.7,2.28-3.7,5.78a5.83,5.83,0,0,0-.79,2.62,56,56,0,0,1-15.54-7.38c0-2.35-1.34-5.25,1-6.95,3.27-2.39,5-2.39,2.52-6.86l-.12-.22A160.84,160.84,0,0,1,216.2,65.3Z" style="fill:#f9af6b"/><path d="M197.15,59.37c-2.32,1.7-1,4.6-1,6.95a69.83,69.83,0,0,1-22.68-26.08,23.48,23.48,0,0,0,1.94-2.4,225.29,225.29,0,0,1,24.12,14.45h0l.12.22C202.18,57,200.42,57,197.15,59.37Z" style="fill:#ffb870"/><path d="M196,77.83c-16.39-14.58-25.71-34.4-25.71-34.4,1-.9,2-2,3.16-3.19a69.83,69.83,0,0,0,22.68,26.08,3,3,0,0,1-1,2.49C192.72,70.79,197.21,74.9,196,77.83Z" style="fill:#ff7f27"/><path d="M195.89,86.18c-1.29,1.21-1.29,2.8-.85,4.46C171.9,74.29,167,46.12,167,46.12a28.74,28.74,0,0,0,3.36-2.69s9.32,19.82,25.71,34.4a3.06,3.06,0,0,1-.9,1.19C191.61,81.9,199.67,82.65,195.89,86.18Z" style="fill:#ffb870"/><path d="M196.14,98.65c-1.41.91-1.38,2.28-1.14,3.65l-.68-.37c-.46-.24-.9-.49-1.34-.75l-.65-.39c-.44-.26-.86-.53-1.28-.8l-.63-.42q-.28-.18-.57-.39c-.42-.29-.83-.58-1.24-.89l-.59-.44c-.54-.42-1.07-.84-1.59-1.27s-1.17-1-1.73-1.51c-.35-.32-.69-.65-1-1l-.5-.5c-.29-.28-.56-.56-.83-.85s-.6-.62-.89-.94c-.5-.55-1-1.12-1.47-1.68a.69.69,0,0,0-.11-.13l-.62-.77c-.18-.22-.35-.43-.52-.66l-.14-.18-.28-.36a61.59,61.59,0,0,1-4.69-7.25c-.15-.25-.29-.52-.43-.78-.38-.7-.74-1.4-1.08-2.11-.11-.22-.23-.45-.33-.67s-.21-.43-.31-.65L171,75.42c-.25-.57-.5-1.14-.73-1.71l-.45-1.09,0-.1c-.06-.16-.13-.33-.19-.5s-.15-.37-.22-.56l-.21-.56c-.21-.56-.41-1.11-.59-1.66-.13-.37-.25-.73-.38-1.09s-.23-.73-.34-1.09c-.23-.71-.44-1.42-.64-2.11l-.15-.52c-.09-.33-.17-.64-.26-1a.24.24,0,0,0,0-.08c-.13-.5-.26-1-.38-1.48s-.29-1.19-.42-1.76l-.15-.66c-.18-.83-.34-1.63-.48-2.39-.05-.23-.09-.47-.14-.69-.15-.84-.28-1.62-.39-2.36l-.09-.59c-.14-1-.26-1.88-.35-2.64,0-.09,0-.17,0-.25a.28.28,0,0,1,0-.09c0-.11,0-.21,0-.32-.08-.82-.13-1.47-.16-1.89a.61.61,0,0,0,0-.14h0c0-.14,0-.24,0-.32v-.13a14.51,14.51,0,0,0,2.9-1.56S171.9,74.29,195,90.64h0C195.88,93.82,198.29,97.25,196.14,98.65Z" style="fill:#ff7f27"/><path d="M249.24,14.62c-14.67-2.27-28.35,2.31-42.22,5.73H207a65.43,65.43,0,0,1-19.65,1.58C205,13.44,228,10.21,246.93,9.14,246.17,10.6,246.09,12.55,249.24,14.62Z" style="fill:#e86b18"/><path d="M231.49,72c-.66.6-.81,2.05-.54,3.55a54.48,54.48,0,0,1-11.31-.06,53.71,53.71,0,0,1-7.93-1.75,5.83,5.83,0,0,1,.79-2.62c2-3.5,0-5.26,3.7-5.78h.08a16.62,16.62,0,0,0,3-.66,23.94,23.94,0,0,0,13,2.19,1.33,1.33,0,0,1-.88.57C228.49,68.06,233,70.57,231.49,72Z" style="fill:#ffb870"/><path d="M232.26,66.82a23.94,23.94,0,0,1-13-2.19,9.21,9.21,0,0,0,4.54-3c1-1.26,3.57-.41,6.67,0C230.5,61.66,233.23,65.32,232.26,66.82Z" style="fill:#e86b18"/><path d="M236.72,82.13A69,69,0,0,1,218,81.88a14.19,14.19,0,0,0-2-1.36c-2.66-1.61-4.45-4.15-4.32-6.82a53.71,53.71,0,0,0,7.93,1.75,54.48,54.48,0,0,0,11.31.06c.35,1.93,1.39,3.95,3,4.38A4.26,4.26,0,0,1,236.72,82.13Z" style="fill:#e86b18"/><path d="M237.88,88.23A78.13,78.13,0,0,1,218,86.93c.55-3.29,1.1-4.06,0-5.05a69,69,0,0,0,18.68.25,2,2,0,0,1-.48,2.54C235.69,85.11,236.22,86.55,237.88,88.23Z" style="fill:#ffb870"/><path d="M32.6,34.36c-10-1.09-14.77,1.58-18,4.27-2.27,1.87-5.81,1.77-9,0a39.8,39.8,0,0,1,6.85-5.06c.92-.56,1.92-1.15,3-1.78.56-.31,1.12-.62,1.69-.92.75-.4,1.5-.78,2.26-1.16,1.7-.85,3.41-1.64,5.1-2.38.89-.39,1.78-.76,2.65-1.12,1.41-.58,2.78-1.12,4.08-1.61,2.92-1.09,5.5-2,7.42-2.57,3.41,1.11,11.61,4.1,13.2,7.68C53.84,34.27,42.58,35.45,32.6,34.36Z" style="fill:#fc8b27"/><path d="M29.68,38.54c.15.41-.37,1-1.17,1.28s-1.56.21-1.72-.2.37-1,1.17-1.29S29.53,38.12,29.68,38.54Z" style="fill:#eae3dd"/><path d="M22.92,25.88c.15.41-.37,1-1.16,1.28s-1.57.21-1.73-.2.37-1,1.17-1.29S22.77,25.46,22.92,25.88Z" style="fill:#eae3dd"/></g></g></svg>