<svg xmlns="http://www.w3.org/2000/svg" viewBox="0 0 293.05 118.5"><title>cherry-barb</title><g id="Layer_2" data-name="Layer 2"><g id="Ñëîé_2" data-name="Ñëîé 2"><path d="M216.89,53.54c-2.33,5.37-3.73,10.61-1.18,15.17-.3-.14-10-4.71-11-9.42s-15.4-9.68-45.51-5.83-47.36-.55-63.07-7.1-37.95-4.75-47.31-1.28c-7.48,2.79-11.3,3-12.53,2.94a10.79,10.79,0,0,0-5.79-1.66,10.94,10.94,0,0,0-10.94,11s-1.83-2.14-3.93-2-.35,3-2,2.92-2.28-1.87-5.09-2,.24,1.29.47,2.69-1.2,3.5.92,3.26,3.17,1,5,1.13,2.56-1.47,3-1.94,1.82-1.44,1.9-1.5a10.89,10.89,0,0,0,1.37,3.25c-.3.13-8.08,3.42-15.29-.94,0,0-7.47-4.43-5.6-8.16.6-1.19,3.35-4.57,9.55-8.82,0,0,2.41,2.05,7.14,1.17s10.45-5.07,12.92-3.85,7.37-1.57,10.09-3,8.67-5.83,11.12-4.67,8.75-1.81,11.38-3.39,6.47.7,7.7-1.75,6.48-2.27,9.1-4,9.28-2.1,9.81-1.4S94.53,25.73,98,24s11.58-4.39,12.44-1.94S112.61,24,114.34,24s9.42.17,8.9,1.4.87,3.15,3.15,3.85a15.66,15.66,0,0,0,6.13.35c.7-.18-1.4-3-4-2.63s-4.2-.52-4.2-1.92a3.88,3.88,0,0,0-1.07-2.94,39.15,39.15,0,0,1,4.51,2.29c4.49,2.68,15.45,7.45,28.85,11.76,15.86,5.1,35.14,9.52,51.21,9,0,0,1.47-.14,3.77-.45h0C212,44.87,219.16,48.32,216.89,53.54Z" style="fill:#f85e3a"/><path d="M132.52,29.56a15.66,15.66,0,0,1-6.13-.35c-2.28-.7-3.68-2.63-3.15-3.85s-7.18-1.4-8.9-1.4-3,.52-3.87-1.93S101.53,22.21,98,24s-8.4,1-8.92.34-7.18-.35-9.81,1.4-7.87,1.57-9.1,4-5.08.18-7.7,1.75S53.57,36,51.12,34.87,42.72,38.14,40,39.54s-7.61,4.2-10.09,3-8.2,3-12.92,3.85-7.14-1.17-7.14-1.17a85.6,85.6,0,0,1,7.63-4.62h0c4.64.83,10.77-1.87,12.42-3.14,2.08-1.57,6-3,7.56-2.56s6.65-1.29,10.15-3.54,9.1-3.52,10.15-3.35,4.55.18,10.33-2.45S93,22.21,94.71,21.68a2.34,2.34,0,0,0,1.38-1.36h0q6.33-.63,13.19-1.09s.41,0,1.15,0a12.69,12.69,0,0,1,2.3,1.2c1.38,1.16,2.45.76,6.82.64a8.63,8.63,0,0,1,1,0h0a4.21,4.21,0,0,1,2.6,1,0,0,0,0,1,0,0A3.88,3.88,0,0,1,124.29,25c0,1.4,1.58,2.27,4.2,1.92S133.22,29.38,132.52,29.56Z" style="fill:#2b2b2b"/><path d="M96.09,20.32a2.37,2.37,0,0,1-1.38,1.36C93,22.2,73.88,22.9,68.1,25.53S58.82,28.15,57.77,28s-6.65,1.09-10.15,3.35-8.58,4-10.15,3.54-5.48,1-7.56,2.56c-1.65,1.26-7.78,4-12.42,3.14C31.66,33,56.05,24.28,96.09,20.32Z" style="fill:#e85b34"/><path d="M120.59,21.06a8.63,8.63,0,0,0-1,0c-4.37.12-5.44.52-6.82-.64a12.69,12.69,0,0,0-2.3-1.2h0A33.05,33.05,0,0,1,120.59,21.06Z" style="fill:#e85b34"/><path d="M19.82,59.86c-.08.06-1.45,1-1.9,1.5s-1.17,2.1-3,1.94-2.92-1.36-5-1.13-.69-1.86-.92-3.26-3.27-2.8-.47-2.69,3.39,1.87,5.09,2-.07-2.8,2-2.92,3.93,2,3.93,2A11.26,11.26,0,0,0,19.82,59.86Z" style="fill:#2b2b2b"/><path d="M214.05,77a15.76,15.76,0,0,1-2.37,2.39c-13.21-6.94-23.78-5.1-35.26,0-1.81.81-3.64,1.69-5.51,2.65-4.34,2.19-9.83,4.66-16,7.08-3.66,1.44-7.54,2.87-11.56,4.21-10.77,3.61-22.44,6.64-32.91,7.8-2.33.26-4.6.43-6.8.49h0c-11-6-29.27-15.8-35.21-17.78a4.22,4.22,0,0,0-1.75,0s-1.75,0,0,2.8c1.25,2,10.92,7.5,19.21,13.93C64.51,97.81,37,89.66,14.07,74.08c0,0-11.52-7.67-13.19-11.61s4.26.82,5-.3c7.21,4.36,15,1.07,15.29.94a10.92,10.92,0,0,0,6.34,4.73C34.51,83,50.07,78.92,55.32,77s19.43,0,19.43,0c27.83,3.65,77-3.82,99.3-8.19S214.05,77,214.05,77Z" style="fill:#fbd48f"/><path d="M47.68,59.49c-1.76,2.45-4.33,4.32-7.42,2.68a10.71,10.71,0,0,0,1.15-4.86,11.83,11.83,0,0,0-.1-1.47c.25,0,5.23-.06,6.37.85S49.43,57,47.68,59.49Z" style="fill:#2b2b2b"/><path d="M271.27,101.89c-15.19-2.7-39.14-8.8-53-18.47a60.83,60.83,0,0,0-6.61-4.07,11.69,11.69,0,0,0,.91-.81A13.6,13.6,0,0,0,214.05,77c2-2.57,3.12-5.68,1.67-8.25h0c-2.55-4.56-1.15-9.8,1.18-15.17,1.33-3.06-.6-5.51-2.49-7a15.15,15.15,0,0,0-2.83-1.8,92.57,92.57,0,0,0,17.69-4,279.13,279.13,0,0,1,35.19-9.21h0a5.52,5.52,0,0,1-2.08,3.71,10.27,10.27,0,0,1-4.69,2.42c-2.76.52-9.91,0-10.82,3a1.13,1.13,0,0,1,0,.15,7.56,7.56,0,0,1-1.28,2.57c-.46.66-.94,1.3-1.29,1.92-.68,1.18-.91,2.31.34,3.47.09.09.2.18.31.27a4.19,4.19,0,0,1,1.16,1.38c1,2-.07,4.4-1.3,5.94a7.29,7.29,0,0,1-1.07,1.08,4.65,4.65,0,0,0-.82.87,40.18,40.18,0,0,0-2.55,4c-.51.84-1,1.66-1.46,2.33A7.62,7.62,0,0,1,237.72,66c-.63.56.15,1.77,1.37,3a23.38,23.38,0,0,0,2.13,1.94,13.42,13.42,0,0,0,3,2c.82.16,5.07,1,5.26,3.82a3.53,3.53,0,0,1,0,.56,2.87,2.87,0,0,0,.24,1.43c1.19,2.77,6.17,5.15,7.81,4.94.72-.09,2.07.56,3.4,1.52a15,15,0,0,1,3.15,3c.63.84.93,1.61.63,2.11-.46.76-.19,2.06.31,3.33a13.53,13.53,0,0,0,1.16,2.22,2.86,2.86,0,0,0,1,1.1A12,12,0,0,1,271.27,101.89Z" style="fill:#e85b34"/><path d="M289,36.5c-2.8,2.8-6.53,4.2-6.3,6.54s.47,2.1-3.27,2.8-1.16,3.27-4.43,3.5-3.27,2.8-6.31,3.27-2.8,3-5.37,3.5S251.9,60.54,251,64.51s10.26,8.63,14.93,11,6.07,2.57,6.54,4.67,3,1.87,4,4.9,4.67,2.8,5.13,5.83,4,2.8,4,5.37,6.77,7.7-2.33,7.23c-1.33-.07-3.24-.26-5.59-.58-1.86-.26-4-.59-6.32-1A12,12,0,0,0,267.13,97c-.7-.17-3.5-4.9-2.45-6.65s-5.25-6.83-7.18-6.58-8.4-3-8.05-6.37-4.38-4.21-5.25-4.38-8.06-5.6-6.48-7,4.2-7.18,6-8.58,4.53-5.78,1.21-8.4,1.22-5.08,1.92-8.23,8.05-2.62,10.86-3.15,6.65-3.15,6.77-6.13h0c7.5-1.43,14.62-2.38,19.66-2.22,5.54.19,8,.88,8.69,1.82C294,32.6,290.74,34.77,289,36.5Z" style="fill:#fbd48f"/><path d="M41.31,55.84h0a10.94,10.94,0,0,0-21.79,1.48,11.26,11.26,0,0,0,.3,2.55h0a10.89,10.89,0,0,0,1.37,3.25h0a11,11,0,0,0,6.34,4.74,11.32,11.32,0,0,0,2.93.39A11,11,0,0,0,41.41,57.31,11.83,11.83,0,0,0,41.31,55.84Zm-2,2.24c-1,1.49-1.58,3.33-.88,4.56.31.55,0,1.14-.54,1.66a11,11,0,0,1-2.08,1.49,13.18,13.18,0,0,1-3.59,1.29c-1.64.34-3.46.32-4.56-.87a3.53,3.53,0,0,1-.61-.95,8.17,8.17,0,0,0-1.64-2.44l-.25-.25c-1.51-1.5-3.32-2.47-4.4-3.55l-.18-.17a4.61,4.61,0,0,1-.53-.77c-.82-1.65.78-4.59,2.53-6.25a5.65,5.65,0,0,1,1.41-1c.89-.4,2.13-1.11,3.37-1.72,1.67-.82,3.35-1.45,4.15-.89a6.67,6.67,0,0,0,.86.45l.2.09a41.51,41.51,0,0,0,4.81,1.56,6.5,6.5,0,0,1,1,.79A6.09,6.09,0,0,1,39.31,58.08Z" style="fill:#d54a29"/><path d="M38.36,51.1a5.59,5.59,0,0,0-1-.8,42.77,42.77,0,0,1-4.81-1.55l-.2-.09a5.58,5.58,0,0,1-.86-.46c-.8-.56-2.48.08-4.15.9-1.24.6-2.48,1.31-3.37,1.72a5.48,5.48,0,0,0-1.41,1c-1.75,1.66-3.35,4.6-2.53,6.25a4.61,4.61,0,0,0,.53.77l.18.17c1.08,1.07,2.89,2,4.4,3.55l.25.25a8.17,8.17,0,0,1,1.64,2.44,3.53,3.53,0,0,0,.61.95c1.1,1.18,2.92,1.2,4.56.87a13.54,13.54,0,0,0,3.59-1.29,11.89,11.89,0,0,0,2.08-1.49c.53-.52.85-1.11.54-1.66-.7-1.23-.09-3.07.88-4.56A6.09,6.09,0,0,0,38.36,51.1Zm-7.9,11.54a5.34,5.34,0,0,1,0-10.68,5.2,5.2,0,0,1,2.71.74,5.32,5.32,0,0,1,2.64,4.6,4.89,4.89,0,0,1-.05.66A5.33,5.33,0,0,1,30.46,62.64Z" style="fill:#f8b255"/><path d="M35.81,57.3A5.35,5.35,0,1,1,30.46,52,5.35,5.35,0,0,1,35.81,57.3Z" style="fill:#2b2b2b"/><path d="M173.65,25c-.59,1.9-.3,7.24-5.4,9.87,0,0,1.55-5-.9-6.72s-7-4.72-6.83-6.65-1.57-4.35-4.9-3.31-9.62.34-9.8-1.94S143,7.5,139.34,9.07A8.45,8.45,0,0,1,130.63,8c6.82-3.27,14.29-6.25,20.62-7.33,16.45-2.8,16.63,3.85,17.68,7.18s3.15,2.45,3.15,4.55,1.57,1.4,1.57,5.08S174.53,22.2,173.65,25Z" style="fill:#fbd48f"/><path d="M168.25,34.87a15.81,15.81,0,0,1-7,1.5,34.06,34.06,0,0,1-4.64-.25c-13.4-4.31-24.36-9.08-28.85-11.76a39.15,39.15,0,0,0-4.51-2.29,0,0,0,0,0,0,0,4.21,4.21,0,0,0-2.6-1h0a35.65,35.65,0,0,0-6.4-1.55h0a30,30,0,0,0-3.7-.3A200.14,200.14,0,0,1,130.63,8a9.07,9.07,0,0,0,2.9,1.48,8.23,8.23,0,0,0,3.15.29,9.19,9.19,0,0,0,2.66-.7,2.85,2.85,0,0,1,1.34-.24,3.8,3.8,0,0,1,2.47,1.41,10.36,10.36,0,0,1,1.41,2.11c.13.26.25.51.36.77a13.13,13.13,0,0,1,.84,2.61q0,.28.06.51s0,0,0,0c.07.77.83,1.35,1.94,1.75.12,0,.26.09.39.12a14.41,14.41,0,0,0,7.46,0c3.33-1,5.08,1.39,4.9,3.32-.14,1.61,3,4,5.52,5.72h0a.08.08,0,0,1,0,0l1.25.88C169.8,29.91,168.25,34.87,168.25,34.87Z" style="fill:#e85b34"/><path d="M187,104.36c1.05,1.85,1.53,3.39.56,5.14-3.75-1.16-9.86-4.24-15.87-10.62l0,0c-8.39-8.88-16.74-9.73-16.74-9.73,6.14-2.42,11.63-4.89,16-7.08,1.5-.77,3-1.49,4.43-2.16h0l1.07-.49a83.86,83.86,0,0,1,12.16,1.22c-1.4.57-2.67,1.3-2.67,2a1.55,1.55,0,0,1,0,.37.5.5,0,0,1,0,.13c-.21.92-1.07,1.58-2.47,2.23-.53.26-1.15.51-1.84.77h0a4.81,4.81,0,0,0-1.81,1.24,4.3,4.3,0,0,0-.88,1.4,3.37,3.37,0,0,0,.49,3.43,5.47,5.47,0,0,0,1.33,1.14A5.76,5.76,0,0,1,183,95.63a23.85,23.85,0,0,1,1,3.12,13.86,13.86,0,0,0,.88,2c.15.28.32.57.51.88.59,1,1.15,1.81,1.61,2.61A.43.43,0,0,1,187,104.36Z" style="fill:#e85b34"/><path d="M194.13,102.72c.7,1.75-1.4,2.1-.87,3.68a2.75,2.75,0,0,1-2.45,3.68,9.88,9.88,0,0,1-3.21-.58c1.39-2.53-.21-4.61-2.21-7.83-2.62-4.2-1.06-6.12-4.73-8.36s-1.93-6.16.87-7.22,4.38-1.92,4.38-3.5c0-.7,1.27-1.43,2.67-2,7.23,1.46,5.08,3.72,5.73,5.51.87,2.46-1.4,2.28.28,4.73s-1.33,3.68-.31,5.25S193.43,101,194.13,102.72Z" style="fill:#fbd48f"/><path d="M147.93,96c-.44.09-.93.19-1.42.32a15.67,15.67,0,0,0-2.29.73,4.79,4.79,0,0,0-1.68,1.09,1.67,1.67,0,0,0-.28.43,1.93,1.93,0,0,1-.74.79h0a8.57,8.57,0,0,1-3,.92c-.83.15-1.71.29-2.53.51a7.25,7.25,0,0,0-1.47.49,4.41,4.41,0,0,0-.77.44,7.58,7.58,0,0,1-1.34.75,9.91,9.91,0,0,1-2,.63,18.1,18.1,0,0,1-2.41.35c-.71.06-1.47.09-2.28.11-1,0-2.07,0-3.22,0h-.89a8.1,8.1,0,0,0-3.4.6,2.39,2.39,0,0,0-1.33,2c-3.81-2.84-6.45-5-6.45-5,10.47-1.16,22.14-4.19,32.91-7.8a5.22,5.22,0,0,1,1,.27A9.15,9.15,0,0,1,147.93,96Z" style="fill:#e85b34"/><path d="M140.22,118.48c-6.15-.34-16.56-7.32-23.3-12.32.21-1.94,1.68-2.71,5.62-2.64,5.25.08,8.75-.1,11.2-1.85s7.53-1,8.52-3.15c.65-1.39,3.69-2.18,5.67-2.56a12.57,12.57,0,0,1,2.79,5.15C152.82,108.23,149.85,119,140.22,118.48Z" style="fill:#fbd48f"/><path d="M111.34,110.08c-2.28.36-4.38,3.5-6.66,1.92s-2.27,6-10.15-3.5a56.3,56.3,0,0,0-8.62-8C77.62,94.12,68,88.62,66.7,86.62c-1.75-2.8,0-2.8,0-2.8a4.22,4.22,0,0,1,1.75,0c5.94,2,24.25,11.74,35.21,17.78h0c3.56,2,6.34,3.53,7.67,4.3C116.76,109.08,113.61,109.73,111.34,110.08Z" style="fill:#e85b34"/><path d="M214.05,77s-17.74-12.57-40-8.19S102.58,80.61,74.75,77c0,0-14.18-1.89-19.43,0s-20.81,6-27.79-9.16a10.94,10.94,0,0,0,12.73-5.67c3.09,1.64,5.66-.23,7.42-2.68s1.16-1.87,0-2.8-6.12-.85-6.37-.85A11,11,0,0,0,36.25,48c1.23,0,5-.15,12.53-2.94,9.36-3.47,31.61-5.27,47.31,1.28s33,11,63.07,7.1,44.46,1,45.51,5.83,10.74,9.28,11,9.42h0C217.17,71.28,216.1,74.39,214.05,77Z" style="fill:#f88670"/><path d="M32.62,54.56A3.41,3.41,0,1,1,36,58,3.42,3.42,0,0,1,32.62,54.56Z" style="fill:#e9e2dc"/><path d="M214,59.19a2.81,2.81,0,0,1-1.14,2.8c-1.49.88-.79-1.92-3.41-2.8s-6.48-3.32-7.36-1.75-2.45.88-2.62,3.68,3,5.07,5.07,3.32,1.4-5.85,3.86-3.45,3.32,4,4.46,4.07,2.27-2.19,2.36-2.81S216.21,58.67,214,59.19Z" style="fill:#2b2b2b"/><path d="M193.2,64.44s1-.09,2.36-2.27S200,60,198.45,58.32s-2.63-3.07-4.55,0-4.64.35-4.64,3.06-5.08,3.41-1.93,4.38S190.83,66.72,193.2,64.44Z" style="fill:#2b2b2b"/><path d="M185.58,62.6a5.49,5.49,0,0,0,1.84-3.41c.09-1.92.35-2.17-1.84-2.27s-6.48-1.05-5.16,1,4.19.61,3.41,2.71-3.24,1.66-2.45,3.41,2.28,1.93,3.06,1.49S184.42,64,185.58,62.6Z" style="fill:#2b2b2b"/><path d="M178.23,60.42s-1.23-3.07-2.89-2.63-2.45-.79-2.27,2.1-1.93,2.36-1.14,4.11,1.92,3,4.11,1.7S179.94,62.8,178.23,60.42Z" style="fill:#2b2b2b"/><path d="M167.73,62.87s.52-3.33,1.83-4.73-3.85-3-4.81-1.22-3.24,1.31-3.67.43-1.76-2.92-3.24-1.2S154,58.15,154,61s1.92,4.07,4,3.28,3.42-1.86,3.24-3.12.53,0,2.1-.65,1.05-.07,0,1.5-.79,4.49,1.84,4.25S167.33,64.6,167.73,62.87Z" style="fill:#2b2b2b"/><path d="M152.5,57.75s-.09-2,.87-2.27,2.37-2.77,0-1.72-5.86,2.89-6.91,1.14-4.11-1.73-1.49.58,2.45,2.49,1.75,4.67-2.45,4.29.79,4.47,4.2-.79,4.29-2.1S153.11,58.32,152.5,57.75Z" style="fill:#2b2b2b"/><path d="M143.93,59.07s-1.76-2.57-1.85-3.59-3.24-3.12-3.59-1.45,1.14,3.87,0,5-3.76,1.52-2.36,3.36,4,2.8,5.86,1.84S145,60.78,143.93,59.07Z" style="fill:#2b2b2b"/><path d="M133.42,56.61s-1.4-4.6-3.5-3.81-2.37,2.19-1.58,5S128,60.26,125.89,62s-.09,3,1,2.64A27.49,27.49,0,0,0,131.23,62C133.42,60.59,134.28,58.63,133.42,56.61Z" style="fill:#2b2b2b"/><path d="M121.25,62s4-.63,4.82-3.29,1.66-3.36-1.67-5.21-4.64.85-3.94,3-.43,2.42-1.31,3.29S118.45,62,121.25,62Z" style="fill:#2b2b2b"/><path d="M114.69,57.45s-.62,3.23-2.72,3.84-4.46-1.14-3.32-2.58,2.45-1.53,2-3.63-1-3.59,1.4-3.85,4.47.16,4.47,1.48S115,56.52,114.69,57.45Z" style="fill:#2b2b2b"/><path d="M101.12,62s-2.19-.41-2.1-1.13,2.1-1.94,2.89-2.55,1.92-2.45.7-3.94.7-4,1.92-2.63a2.76,2.76,0,0,0,3.42,1c.87-.43,1.57,1.72,0,3.58s-2.54,1.76-3.5,3.6S103.22,62,101.12,62Z" style="fill:#2b2b2b"/><path d="M92.89,59.54s-2.53,2.1-3.15,0-.26-1.78,1.58-3.25,1.84-2.79,1-4.45,3.15-3.33,4.2-1.4,1.4,1.49,2.54,1.84,3.59,1.55,1.14,2.74-4.39.68-4.82,2.43A3.17,3.17,0,0,1,92.89,59.54Z" style="fill:#2b2b2b"/><path d="M84.75,59.19A16,16,0,0,1,86.94,55c1.4-1.78,1-3.36-1.09-3.09s-4.51-1.67-4.68.78-2.63,2.63-1.67,5.43,2,5.08,3.15,4.46S85.1,60.5,84.75,59.19Z" style="fill:#2b2b2b"/><path d="M77,57.08s1.41,3.59-.87,4.34-6.13,1-5.43-.55,2.1-3.65,1.93-4.2-2-3-2.71-1.65-1,3.2-2.46,3.69-3.5,2.13-3.76-.4.18-3.6,2-4.9,3.94-1,5.34-.7,3.33-.18,5.25.7S76.26,56.19,77,57.08Z" style="fill:#2b2b2b"/><path d="M51,58.32s5.16,2,5.34,4.38,2.8,4,4.55,1.94,1-5.53,0-7.19-1.91-3.6-4.41-3.07-5.65-1.6-6.09.64S49.13,57.47,51,58.32Z" style="fill:#2b2b2b"/><path d="M35,42s.82,3.15,3.15,2.72,4.44-1.23,6.38,0,2.8,4,5.29,1.68,4.41-2.63,6.06-1.67,4.46,1.14,7.72,0,7.23-.87,8.86-.07,8.64-.1,9.34,0,7.94-.53,10.51.36,5.42,2.05,6,2.29a43.63,43.63,0,0,0,5.62,0s1-1.77-2.74-2.4S100,42,93.69,42s-8.63-1.26-12.6-1.24-8.87.49-11.55-1.38-2.5-.7-7.61,0-5.82,0-9.55,1.38-6.85,1.38-7.86,0S37.33,39,37.33,39L35,39.93Z" style="fill:#2b2b2b"/><path d="M161.88,34c-1.21,1.06-1,1.86-.66,2.34a34.06,34.06,0,0,1-4.64-.25c-13.4-4.31-24.36-9.08-28.85-11.76a39.15,39.15,0,0,0-4.51-2.29,0,0,0,0,0,0,0,4.21,4.21,0,0,0-2.6-1h0a35.65,35.65,0,0,0-6.4-1.55s10.92-6,19.34-10c4-1.94,7.49-3.44,8.91-3.64,1.86-.26-1.3,1.55-5.76,3.93-6.05,3.2-14.5,7.43-16.09,8.85-2.06,1.84,10.83-5.74,20.09-9.79,3.15-1.37,5.88-2.33,7.45-2.37,2.67-.08-.4,1.62-5,3.78-6.1,2.88-14.86,6.58-16.36,8-2.41,2.32,12-4.34,17.77-5.92a9.56,9.56,0,0,1,1.38-.29c1.1-.14.5.3-1,1.06-4.25,2.16-15.78,6.89-16.84,8.47-1.23,1.86,12-3.71,17.68-5.86.87-.33,1.58-.58,2-.7,1-.31,0,.27-1.95,1.24-4.32,2.14-13.1,6.23-14.17,7.25-1.38,1.32,11.43-3.56,16.11-5.5l1.36-.59c1-.49.51-.14-1,.71-2.07,1.2-6,3.38-10.09,5.6-7,3.81,4.35,1.07,11.23-2.55s7-1.7,0,1.45-11.15,6.57-1.26,4.29,17.07-4.9,10.68-1.84-12.69,5.41-8.58,5.42,14.56-4.16,15.9-3.29h0a.08.08,0,0,1,0,0c1,.93-10.33,3.09-11.43,4.39s5.88-.63,11.49-.35S164,32.19,161.88,34Z" style="fill:#ae381c"/><path d="M163,3.17s-7.47-.52-9.69,2.65S152.86,13.43,159,15s5.49,2.68,7.24,5.37,7.23.12,4.78-4.32-3.73-5.37-4.43-8S165.11,3.18,163,3.17Z" style="fill:#fbe3bd"/><path d="M112.44,29.24S95,29,89.47,32.89s21.12,6.89,29.21,10,30.85,4.08,39.95,1.83-1.92-4.1-20.83-7.12S122.43,30.06,112.44,29.24Z" style="fill:#f88670"/><path d="M266.15,95.85c-8.49-.71-24.88-4-49.76-15.26,0,0-1.73-.86-3.8-2A13.6,13.6,0,0,0,214.05,77c2-2.57,3.12-5.68,1.67-8.25h0c-2.55-4.56-1.15-9.8,1.18-15.17,1.33-3.06-.6-5.51-2.49-7,3.74-1,36.71-9.5,48-11.3a27.37,27.37,0,0,1,2.9-.32c3.36-.07-6.87,2.75-18.41,5.74-11.75,3-24.84,6.26-26.26,6.77-2.49.89,14.31-2.5,24.94-4.05,1.31-.19,2.52-.35,3.59-.48,5.53-.63,2.26.63-4.88,2.4-5.52,1.36-13.34,3-21.2,4.33-17.05,2.85,12.23.18,21.54-.86.53,0,1-.11,1.39-.16,4.23-.52,5.44.58.08,1.81-3.73.87-10.65,1.82-22,2.34,0,0-3.67.55-3.5,2.31.15,1.58,15.91,1.36,24.16,1.29l2.62,0c6.83,0,2.28.5-.35,1.47a19.58,19.58,0,0,1-4.16.51c-5.7.31-15.17.18-18.94.45-5.08.35-1.75,3.07,11.37,3.29,1.83,0,3.51.1,5,.21,9.32.67,12.08,2.57,3,2.43-1.51,0-3-.06-4.5-.1-8.82-.27-16.63-.83-17.38.1-.54.65,9.25,2.59,17.61,4.36,5.42,1.15,10.24,2.23,11.27,2.84s-3.4,0-9.14-.9c-8.44-1.32-19.6-3.17-19.92-2.23-.41,1.19,17.82,5,28.16,8.08,3.15,1,5.56,1.84,6.5,2.58,1.27,1-1.61.52-6.27-.59-10-2.39-28.33-7.7-30.84-7.46-3.08.29,29,9.81,42,13.92,2.51.79,4.32,1.38,5,1.66,3.15,1.25,2.69,1.87-1.87,1.29-1.8-.22-4.25-.65-7.39-1.29-11-2.28-37.7-11.38-39.33-9.81C216,78.37,249.5,89.33,265,93.63a55.69,55.69,0,0,0,7.25,1.7C274.4,95.47,272.46,96.37,266.15,95.85Z" style="fill:#ae381c"/><path d="M289,36.5c-2.8,2.8-6.53,4.2-6.3,6.54s.47,2.1-3.27,2.8-1.16,3.27-4.43,3.5-3.27,2.8-6.31,3.27-2.8,3-5.37,3.5S251.9,60.54,251,64.51s10.26,8.63,14.93,11,6.07,2.57,6.54,4.67,3,1.87,4,4.9,4.67,2.8,5.13,5.83,4,2.8,4,5.37,6.77,7.7-2.33,7.23c-1.33-.07-3.24-.26-5.59-.58-.74-2.59-.65-5.37-1-6.89-.7-3.32-1.58-5.26-4.8-9.46S261.21,80.77,260.16,79a22.14,22.14,0,0,0-8.4-8.36c-5.43-3.33-1.75-7.36-1.4-8.62a31.78,31.78,0,0,1,4.2-8.5c2.28-3.1,4.55-4.94,9.8-6.92s7-8.87,10.33-13.69c2.66-3.86,13.54-2.58,18.11-1.81C294,32.6,290.74,34.77,289,36.5Z" style="fill:#fbe3bd"/><path d="M189.35,83.72a19.82,19.82,0,0,1-2.24-.44C189.46,83.63,190.67,83.85,189.35,83.72Z" style="fill:#ae381c"/><path d="M178.83,88.74c-.88-.35-1.81-.73-2.78-1.14-11.46-4.9-4.59.55,3.27,4.57a49,49,0,0,0,6.18,2.69c6.7,2.26,6.56,4.19-2.52.77a140.74,140.74,0,0,1-13-5.84c-17.76-8.89,3.41,3.41,14,9,2,1.06,3.67,1.87,4.58,2.24,2.95,1.2.9,1.27-3.7-.19a74.92,74.92,0,0,1-17.49-8.48c-13.92-9.1,9.47,8.49,18.91,11.73l.7.24c1.83.64,1.57.58,0,.07-2.67-.88-9.21-3.14-15.36-5.53-8.39-8.88-16.74-9.73-16.74-9.73,6.14-2.42,11.63-4.89,16-7.08,1.5-.77,3-1.49,4.43-2.16h0c.24.08,6.26,2,10.52,3.11l1.23.31-1.26-.18c-2.77-.4-6.51-.92-9.7-1.31-4.86-.6,1.6,1.8,7.23,3.54,2.28.71,4.42,1.31,5.63,1.57,3.14.65-1.52.47-7.47-.8h0a63.05,63.05,0,0,1-6.18-1.65c-4.69-1.57-.76.6,4.37,2.89,3.76,1.66,8.16,3.39,10.31,3.76C194.74,91.91,191.14,93.56,178.83,88.74Z" style="fill:#ae381c"/><path d="M147.08,112.45s2.75-8.75.85-10.85-3-.34-7.9,3.15-5.19,2-9.4,2.48-2.69,4.87,3.12,7.15S146,117,147.08,112.45Z" style="fill:#fbe3bd"/><path d="M147.93,98.54c-1-.42-2.42-1-3.71-1.53-2.48-1-4.59-1.66-3.09-.22.41.39.9.85,1.41,1.31,2.32,2.1,4.88,4.38.43,2-.51-.27-1-.53-1.45-.79h0c-4.34-2.35-5.93-3.34-3.79-.17.24.36.51.73.79,1.09,2.43,3.19,5.71,6.23.61,2.85a35.63,35.63,0,0,1-3.14-2.34c-3.18-2.66-4-4.31-2.55-1.43.29.6.67,1.25,1.08,1.92,2.11,3.43,5,7.13,1.22,4.12-1.12-.9-2.27-1.93-3.33-2.93-3.17-3-5.52-5.54-3.87-2.54.57,1,1.28,2.17,1.92,3.17,1.82,2.85,3.09,4.79-.78,1.69L128,103.41c-4-3.39-5.44-5.21-3.81-2.33.41.71,1,1.57,1.53,2.44,2,3.08,4.16,6.27.41,3.33-1.55-1.21-3.14-2.4-4.52-3.33-2.92-2-4.93-2.78-3.8-.17a5.13,5.13,0,0,0,.4.77,2.39,2.39,0,0,0-1.33,2c-3.81-2.84-6.45-5-6.45-5,10.47-1.16,22.14-4.19,32.91-7.8a5.22,5.22,0,0,1,1,.27c-.45.23-.71.65.33,1.37.49.33,1.14.82,1.79,1.33C148.36,97.75,150.18,99.45,147.93,98.54Z" style="fill:#ae381c"/><path d="M110.06,108.36s-3.59-2.89-6.83-2.2S92.52,101,90.13,99.73s-.93,1.59,5.4,7.5,7.18,3,9.19,3S111.76,109.46,110.06,108.36Z" style="fill:#f88670"/><path d="M63.59,79.6A1.35,1.35,0,1,1,62.27,78,1.5,1.5,0,0,1,63.59,79.6Z" style="fill:#f88670"/><ellipse cx="77.82" cy="81.44" rx="1.46" ry="1.84" style="fill:#f88670"/><path d="M92.29,81.33a1.65,1.65,0,1,1-1.62-2A1.81,1.81,0,0,1,92.29,81.33Z" style="fill:#f88670"/><ellipse cx="89.22" cy="87.95" rx="1.44" ry="1.4" style="fill:#f88670"/><path d="M121.17,81.33a2.13,2.13,0,1,1-2.12-2A2,2,0,0,1,121.17,81.33Z" style="fill:#f88670"/><ellipse cx="105.7" cy="82.17" rx="1.62" ry="1.59" style="fill:#f88670"/><path d="M115.05,90.48c0,1-.59,1.83-1.31,1.83s-1.3-.82-1.3-1.83.58-1.83,1.3-1.83S115.05,89.47,115.05,90.48Z" style="fill:#f88670"/><path d="M141.17,80.07c0,1.16-.61,2.1-1.37,2.1s-1.38-.94-1.38-2.1S139,78,139.8,78,141.17,78.91,141.17,80.07Z" style="fill:#f88670"/><ellipse cx="153.91" cy="75.69" rx="1.57" ry="1.4" style="fill:#f88670"/><ellipse cx="128.26" cy="84.36" rx="1.47" ry="2.19" style="fill:#f88670"/><path d="M184.89,71.05a1.35,1.35,0,0,1-1.14,1.49c-.63,0-1.13-.66-1.13-1.49a1.18,1.18,0,1,1,2.27,0Z" style="fill:#f88670"/><path d="M171.75,72.15a1,1,0,1,1-1-1.1A1,1,0,0,1,171.75,72.15Z" style="fill:#f88670"/><ellipse cx="35.93" cy="81.44" rx="2.28" ry="1.84" style="fill:#f88670"/><ellipse cx="64.76" cy="93.82" rx="1.16" ry="1.51" style="fill:#f88670"/><path d="M152.34,85.45c0,.61-.84,1.1-1.87,1.1s-1.87-.49-1.87-1.1.83-1.09,1.87-1.09S152.34,84.85,152.34,85.45Z" style="fill:#f88670"/></g></g></svg>