<svg xmlns="http://www.w3.org/2000/svg" viewBox="0 0 252.53 219.88"><title>chinese-high-fin-banded-shark</title><g id="Layer_2" data-name="Layer 2"><g id="Ñëîé_2" data-name="Ñëîé 2"><path d="M246.68,141c-1.63.66-3.12,1.41-3.12,2.05a.17.17,0,0,1,0,.07c-1.78-.63-3.7.14-5.11.48a1.34,1.34,0,0,0-.44.16l-.11.06a1.37,1.37,0,0,0-.2.13l-.21.21-.14.18a1.7,1.7,0,0,0-.15.22l-.29.47a5,5,0,0,1-.51.71,1.75,1.75,0,0,1-.26.29l-.09.08-.18.17a4.85,4.85,0,0,1-.8.56l-.27.16h0l-.31.16-.15.06-.17.08-.18.07c-.21.09-.42.16-.66.24a4.56,4.56,0,0,1-.44.14l-.49.14L232,148l-.33.12a12.7,12.7,0,0,0-1.26.56l-.67.35-.76.44-.72.42-.61.39c-.46.29-.93.61-1.41.94l-.58.4c-.2.13-.39.28-.59.42l-.59.42a1.3,1.3,0,0,1-.2.15c-.26.2-.53.39-.79.6l-.06,0-.84.65c-.7.54-1.39,1.11-2.08,1.67l-.67.57-.08.07c-.7.58-1.37,1.19-2,1.77l-.46.44c-.47.43-.92.86-1.33,1.28l-.74.76-.31.34-.71.79-.31.38c-.1.12-.2.24-.29.37s-.37.49-.51.72a3.31,3.31,0,0,0-.18.29,1.71,1.71,0,0,0-.13.23,4,4,0,0,0-.18.36.94.94,0,0,0-.06.15,2.33,2.33,0,0,0-.09.29.79.79,0,0,0,0,.13v0s0,.05,0,.07a.7.7,0,0,0,.32.73l.22.15a4,4,0,0,1,.34.27c.33.31.38.57.27.84a.47.47,0,0,1-.05.1l-.08.12a4.91,4.91,0,0,1-.46.52,8.74,8.74,0,0,0-.71.82s0,0,0,0a2.48,2.48,0,0,0-.19.26l-.17.28c-.05.09-.1.19-.14.28a3.52,3.52,0,0,0-.16.39c0,.1-.07.21-.1.33a3.12,3.12,0,0,0-.09.46.36.36,0,0,0,0,.1c0,.11,0,.21,0,.33s0,.22,0,.34a7.08,7.08,0,0,0,.12,1.23c.05.28.1.54.12.79a.71.71,0,0,1,0,.14c0,.15,0,.28,0,.42s0,.27,0,.39,0,.24,0,.35a3.18,3.18,0,0,1,0,.34c0,.13,0,.24,0,.36a.36.36,0,0,0,0,.1l0,0a1.14,1.14,0,0,1-.06.25h0a3,3,0,0,1-.23.55.78.78,0,0,1-.1.15l-.14.21-.17.21-.25.25-.24.19,0,0-.33.23h0l-.38.22-.33.18-.19.1-.38.19a9.14,9.14,0,0,0-1.15.62,2.92,2.92,0,0,0-.37.24,3,3,0,0,0-1,1.52,15,15,0,0,0-.4,1.86c0,.13,0,.25-.07.37a3.24,3.24,0,0,1-.43,1.17h0s-.06.09-.09.12l-.1.1-.15.12a1,1,0,0,1-.17.1s0,0,0,0l-.19.07-.23,0H204a3,3,0,0,1-.55-.06c-.84-.17-1.2,0-1.2.51a1.58,1.58,0,0,0,0,.28,2.89,2.89,0,0,0,.21.57l.1.21c0,.09.11.19.16.3l.23.37a.13.13,0,0,1,0,.06l.16.23c.11.16.23.33.36.5s.42.56.67.85a3.15,3.15,0,0,0,.24.3l.13.15q.16.21.36.42l.38.43c1,1.06,2.07,2.18,3.24,3.28a20.89,20.89,0,0,1,2.66,2.83l.18.26.16.25c0,.09.08.16.12.24s.07.15.1.22.05.14.07.22,0,0,0,0l0,.14a2,2,0,0,1,0,.88c0,.16-.1.32-.16.49s-.07.17-.1.26-.07.19-.11.28a5,5,0,0,0-.22.62,4.18,4.18,0,0,0-.2,1.29,1.55,1.55,0,0,0,0,.22,1.49,1.49,0,0,0,0,.21,5.69,5.69,0,0,0,.82,2l.16.26c.07.09.14.2.21.31s.14.21.23.32l0,.06c.11.16.23.32.37.49l0,0,.39.51h0c.79,1,1.82,2.2,3.15,3.66.3.33.58.63.87.91s.56.54.83.78c.09.09.18.16.27.24l.52.43a10.24,10.24,0,0,0,3.07,1.72,1.92,1.92,0,0,0,.32.09,5.32,5.32,0,0,0,1.51.21,2.61,2.61,0,0,0,.4,0,1.55,1.55,0,0,0,.31,0l.24,0,.55-.14.28-.1a4.74,4.74,0,0,0,.55-.25h0l.24-.13a4.55,4.55,0,0,1,2.29-.34c.11.57.22,1.16.3,1.73.5,3.47,0,6.34-5.73,3.78S205.86,202.85,196,192.44l0,0c-.29-.4-.59-.8-.87-1.2s-.58-.78-.87-1.17l-.7-1-.88-1.21c-.16-.25-.33-.48-.49-.71s-.3-.43-.45-.63l-.55-.78-.7-1-.4-.57-.38-.55-.75-1.07-.65-1c-.39-.56-.73-1.07-1-1.54h0a3.5,3.5,0,0,1-.23-.35l-.37-.54-.24-.37h0l-.9-1.34a1,1,0,0,1-.1-.18,1.46,1.46,0,0,1-.07-.19,1.22,1.22,0,0,1,0-.57.41.41,0,0,1,0-.15c0-.07,0-.15,0-.23a1.25,1.25,0,0,1,.09-.25.58.58,0,0,1,.05-.14l.09-.2.13-.25.13-.24.23-.37c.06-.1.13-.21.21-.32s.06-.08.08-.12c.26-.39.54-.78.81-1.19l0,0,.25-.38a.13.13,0,0,0,0-.05c.11-.16.22-.33.31-.49h0c.1-.17.19-.33.27-.5l0-.06a.8.8,0,0,0,.08-.16,4.58,4.58,0,0,0,.55-2.24,6.55,6.55,0,0,1,.08-1.36c0-.14.06-.27.1-.41a.75.75,0,0,1,0-.16c0-.09.05-.16.08-.23s.05-.12.07-.17a.25.25,0,0,1,0-.07,1.75,1.75,0,0,1,.11-.24s.05-.09.07-.12l.15-.25.05-.06c0-.07.1-.14.15-.21l.07-.09.12-.13,0,0a2.34,2.34,0,0,1,.32-.31,2.44,2.44,0,0,1,.43-.35l.17-.14.34-.21a.26.26,0,0,1,.09-.05l.06,0a3.07,3.07,0,0,1,.31-.17c.23-.13.49-.24.75-.36l.42-.16a1.73,1.73,0,0,1,.24-.1l.5-.18.38-.14.15-.07h0l.07,0h0a2.64,2.64,0,0,0,.44-.23h0a2.46,2.46,0,0,0,.34-.22l.2-.14a5.34,5.34,0,0,0,.66-.59c.08-.09.16-.17.23-.26l.09-.11a1.39,1.39,0,0,1,.15-.19v0a.86.86,0,0,0,.1-.16s0,0,0,0,.1-.15.14-.23.11-.19.16-.28l.06-.12.14-.32c.05-.13.09-.25.13-.37s.07-.22.1-.33l.07-.35c0-.08,0-.17,0-.24a2.45,2.45,0,0,0,0-.27,3,3,0,0,0,0-.6.86.86,0,0,0,0-.23v0l-.06-.34a1.22,1.22,0,0,1,0-.32c0-.06,0-.11,0-.17a.94.94,0,0,1,0-.16,1.42,1.42,0,0,1,.05-.16h0l.08-.16a1.79,1.79,0,0,1,.22-.28l0,0,.16-.15.17-.15a0,0,0,0,0,0,0c.13-.1.27-.19.42-.29l.06,0,.37-.21h0l.07,0,.29-.15c.64-.33,1.43-.69,2.37-1.11l.77-.34,1-.46.54-.24.56-.25.37-.18.8-.37.62-.3,1.29-.65c.45-.22.91-.47,1.38-.72l1.49-.76.72-.35.73-.36.55-.26h0l.86-.39.71-.31.71-.31.7-.29,1.42-.58.82-.32,1.32-.5c.72-.28,1.45-.54,2.2-.82l1.5-.55,1.63-.59,2.33-.87,1.84-.7c1.68-.65,3.46-1.37,5.38-2.18l.52-.22c.34-.13.68-.26,1-.37s.65-.22,1-.32l.91-.25c.3-.07.59-.14.88-.19l.41-.07.81-.12a11.33,11.33,0,0,1,2.92,0l.44.07.23,0c.29.06.55.13.81.21s.25.07.37.12l.39.15.35.16h0l.31.16.35.2A7.39,7.39,0,0,1,246.68,141Z" style="fill:#3a3a3a"/><path d="M252.49,136.93a5.23,5.23,0,0,1-1.9,2.46,2.38,2.38,0,0,1-.32.16c-.74.34-2.21.85-3.59,1.42a7.39,7.39,0,0,0-1.18-.88l-.35-.2-.31-.16h0l-.35-.16-.39-.15c-.12,0-.24-.08-.37-.12s-.52-.15-.81-.21l-.23,0a11.15,11.15,0,0,0-3.36-.08,16.46,16.46,0,0,0-2.1.38l-.91.25c-.31.1-.64.2-1,.32s-.67.24-1,.37l-.52.22c-1.92.81-3.7,1.53-5.38,2.18l-1.84.7-2.33.87-1.63.59-1.5.55c-.75.28-1.48.54-2.2.82l-1.32.5-.82.32-1.42.58-.7.29-.71.31-.71.31-.86.39-.57.26-.73.36-.72.35-1.49.76c-.47.25-.93.5-1.38.72-1,.49-1.87.93-2.71,1.32s-1.72.8-2.47,1.13l-.77.34c-1.13.5-2,.92-2.73,1.3h0l-.37.21-.06,0c-.15.1-.29.19-.42.29a0,0,0,0,1,0,0l-.17.15a.77.77,0,0,0-.16.15l0,0a1.79,1.79,0,0,0-.22.28.79.79,0,0,0-.08.16h0a1.42,1.42,0,0,0-.05.16.94.94,0,0,0,0,.16c0,.06,0,.11,0,.17a1.22,1.22,0,0,0,0,.32l.06.34a2.45,2.45,0,0,1,0,.27,4,4,0,0,1,0,.6,2.65,2.65,0,0,1,0,.27c0,.07,0,.16,0,.24l-.07.35c0,.11-.06.22-.1.33s-.08.24-.13.37l-.14.32-.06.12q-.13.25-.3.51l-.13.2a1.39,1.39,0,0,0-.15.19l-.09.11c-.07.09-.15.17-.23.26a5.34,5.34,0,0,1-.66.59l-.2.14a2.46,2.46,0,0,1-.34.22h0a2.64,2.64,0,0,1-.44.23.19.19,0,0,1-.1.05,4.18,4.18,0,0,1-.53.21,5.94,5.94,0,0,0-.74.28l-.42.16c-.26.12-.52.23-.75.36a2.22,2.22,0,0,0-.37.21.26.26,0,0,0-.09.05l-.34.21-.17.14a2.44,2.44,0,0,0-.43.35,2.34,2.34,0,0,0-.32.31l-.14.15-.07.09c0,.07-.11.14-.15.21l-.05.06-.15.25a3.48,3.48,0,0,0-.22.43c0,.05,0,.11-.07.17s-.05.14-.08.23a.75.75,0,0,0,0,.16c0,.14-.07.27-.1.41a6.55,6.55,0,0,0-.08,1.36,4.58,4.58,0,0,1-.55,2.24.8.8,0,0,1-.08.16,11.31,11.31,0,0,1-.65,1.1l-.27.41c-.27.41-.55.8-.81,1.19,0,0,0,.07-.08.12a9.74,9.74,0,0,0-.57.93l-.13.25a2.44,2.44,0,0,0-.14.34,1.25,1.25,0,0,0-.09.25c0,.08,0,.16,0,.23a.41.41,0,0,0,0,.15,1.32,1.32,0,0,0,.21.94l.9,1.34h0l.24.37.37.54a3.5,3.5,0,0,0,.23.35h0c.32.47.66,1,1,1.54l.65,1,.75,1.07.38.55.4.57c.22.33.46.67.7,1l.55.78c.15.2.29.42.45.63.65.93,1.35,1.91,2.07,2.9.29.39.57.78.87,1.17s.58.8.87,1.2l-5.27-5.59c-1.91-2-3.66-3.86-5.18-5.4a85.75,85.75,0,0,0-7.51-7.13,10,10,0,0,0,7.19-8,13.37,13.37,0,0,0-2.13-10.34,9,9,0,0,0-.91-1.17c3.2-1.49,27.27-10.43,52.2-17C250.25,133.49,252.92,135.06,252.49,136.93Z" style="fill:#dbb595"/><path d="M185.23,166.24a10,10,0,0,1-7.18,8c-4.07-3.19-7.81-4.19-14.72-3-1.83.31-3.88.76-6.22,1.37a111.7,111.7,0,0,1-20.78,2.74c-.74,0-1.48.09-2.23.12,0,0-1-3,.16-3.18s3.36-1.12,3.36-2.56-1.44-3.51-2.87-5.24-2.24-3.54-3.84-3.38-1.6-3.36-2.4-5.58-1.12-4.33,1-7.69.64-4.15-1.12-5.67-.64-5.67.48-4.92,2.08.53,4.47-2-.31-2.72-2.55-2.88-2.24-.47-5.91-3.35-2.72,1-5.76,1.6-1.27,2.87,1,4.79,3.68,3.36,1.92,5.27.32,3.68-1.28,5.12-1.76,2.23-1.6,4.87,2.24.56,2.4,4.07-.8,1.12-3.51.82-2.24,2.86-3,4.94a3,3,0,0,0,2.4,4c1.75.36,2.55-.51,5.11.8s.32.93-3.36,3.05-2.23,3,1.44,3.95,3.52-2.72,4.48-3.19.79,1.43.48,3.83-1.76,2.9-1.76,2.9c-10.16.21-21.08.17-31.81.37-.12-1.37,3-3.27,2.73-6.79s1-4.47-1-4.92-2.34-2.11-3.14-4.66,1.6.48,2.72-3.36,0-2.87-3.27-2.87-2.48-2.24-1-3.68,1.72-1.76-2-3-1.44-4.48.64-7,1.91-4.31.48-6,.47-2.32-2.4-4.4-4.16-1.92-3.29-5.27,2.49-1,5.21.48-.32-2.72,1.31-5.92-.36-2.55-2.59-4.79a7.51,7.51,0,0,1-1-1.2c34,5.08,80.59,38.75,80.59,38.75a24.7,24.7,0,0,0,8.36,3.94,11.88,11.88,0,0,0,7.94-.75A13.48,13.48,0,0,1,185.23,166.24Z" style="fill:#414142"/><path d="M93.62,164.51c-2-.44-2.34-2.11-3.14-4.66s1.6.48,2.72-3.36,0-2.87-3.27-2.87-2.48-2.24-1-3.68,1.72-1.76-2-3-1.44-4.48.64-7,1.91-4.31.48-6,.47-2.32-2.4-4.4-4.16-1.92-3.29-5.27,2.49-1,5.21.48-.32-2.72,1.31-5.92-.36-2.55-2.59-4.79a7.51,7.51,0,0,1-1-1.2c-1.83-.27-3.63-.46-5.37-.56a108.9,108.9,0,0,0-11.09-.07c1.29,1.56-1.18,1.35-.95,4.34s-.07,4.25,1.4,3.93-.34-4.36,2.22-3,3.73,5.65,2,6-1.44-1.71-2.91,0a3.66,3.66,0,0,0,0,5.11c1.31,1.6,3.12,2.45,2.48,4.79s2.45,3.52.11,6.5-2.45,6.93-1.28,11.29,2.13,4.75,2.39,6.63,2,5.83,0,5.19-2.28,2.71-2.28,2.71a125.38,125.38,0,0,1,13.15,4.75,6.28,6.28,0,0,1,3.7,5.89l3-.06c-.12-1.37,3-3.27,2.73-6.79S95.6,165,93.62,164.51Zm-15.07-26.1c-.64.72-1.92-.72-3.27-2.74s-.67-3.52.5-5.11,2.62,2.27,2.77,2.55C79.62,135,79.19,137.69,78.55,138.41Zm1.71-20.35c-.08-1.67,1.2-1.28,2.31-1.35S84,118.06,84,118.06c.94,1.29-.48,1.84-1.88,2.16S80.33,119.74,80.26,118.06Zm6.82,51.69c-2-.63-.32-2.34.53-4.11s1.31.81,1.31.81C89.05,169.22,89.1,170.39,87.08,169.75Z" style="fill:#e4bf9c"/><path d="M74.35,162.93c-2-.64-2.29,2.71-2.29,2.71L70,165c-8-2.29-16.39-3.86-19.11-1.66,0,0-2.67.74.08,8-3.89-1-7.55-2-10.87-3,3.12-.92,7.91-4.84,10.63-8.83s2.55-12.31,1.91-17.1-.16-5.27,1-6.55-4.31,1-4.63-1-1.76-3.68-4.47-4.79-1.6-3.2.47-4.32,3-3.83,1.12-5.59-5.27,2.56-8.31,2.87a2.43,2.43,0,0,1-2.5-1c6.1-3.37,13.34-7.08,24.13-8.89h0a81.64,81.64,0,0,1,9.43-1c1.29,1.56-1.18,1.35-.95,4.33s-.07,4.26,1.4,3.94-.34-4.37,2.22-3,3.73,5.64,2,6-1.44-1.7-2.91,0a3.67,3.67,0,0,0,0,5.12c1.31,1.6,3.12,2.45,2.48,4.79s2.45,3.52.11,6.5-2.45,6.92-1.28,11.29,2.13,4.75,2.4,6.63S76.32,163.57,74.35,162.93Z" style="fill:#414142"/><path d="M49.69,148.55c-.09,1.5-.22,3.31-1.28,3.95s-1.5,1.06-1,3-2.45,2-4.41,1.54-3.26-.32-3.48-1.54-1.7-2.94-.42-3.79,3.62-3,4.26-4.85-1-1.86,0-3.33-1.38-4.92,0-5.14a2.28,2.28,0,0,1,2.66,2.35c-.21,1.38,1.39,2.79,1.39,2.79A5.94,5.94,0,0,1,49.69,148.55Zm-.75-13.63c-.32-1.92-1.76-3.68-4.47-4.79s-1.6-3.2.47-4.32,3-3.83,1.12-5.59-5.27,2.56-8.31,2.87a2.43,2.43,0,0,1-2.5-1c-4.36,2.4-8.13,4.62-12.2,5.84-12.78,3.83-21.41,10.54-23,21.73,0,0-.64,4.95,2.87,6.39s3.2,2.56,3.2,3.52S5.64,161.6,8.51,161s8.31-.64,16.3,2.24c2.69,1,7.77,2.83,14.31,4.86l1,.3c3.12-.92,7.91-4.84,10.63-8.83s2.55-12.31,1.91-17.1-.16-5.27,1-6.55S49.26,136.84,48.94,134.92ZM33.17,148.34c.11.21.86,2.56,0,3.31s-3.4,1.16-3.62,3.19-4.05,2.66-7.13,2.88-4.05-.75-2.72-2.18.37-3-1.65-3.89-.75-2.46,1-4c1.51-1.31,1.12-3.55,1-4l0-.09a7.59,7.59,0,1,1,14.89-2.1,7.47,7.47,0,0,1-1.89,5h0A16.34,16.34,0,0,0,33.17,148.34Zm7-14.46c-1.17.35-1.49-1.09-2.17-2.48s-2.08.43-2.62,1,1.92,4,.64,5.12-1.7-1.17-3.49-4-3-1.28-4.07-2.88,3.83-1.49,5.08-2.77,4.46-.64,4.46-.64c1.76.75,1.64,3.31,3,4.47S41.38,133.53,40.2,133.88Z" style="fill:#e4bf9c"/><path d="M33.17,151.65c-.85.74-3.41,1.17-3.62,3.19s-4.05,2.66-7.14,2.88-4-.75-2.71-2.17.37-3.05-1.65-3.9-.75-2.46,1-4c1.51-1.31,1.12-3.54,1-4a7.58,7.58,0,0,0,13,2.81,16.34,16.34,0,0,0,.18,1.87C33.28,148.55,34,150.9,33.17,151.65Z" style="fill:#414142"/><path d="M134.75,164.51c-1.43-1.72-2.24-3.54-3.84-3.38s-1.6-3.36-2.4-5.58-1.12-4.33,1-7.69.64-4.15-1.12-5.67-.64-5.67.48-4.92,2.08.53,4.47-2-.31-2.72-2.55-2.88-2.24-.47-5.91-3.35-2.72,1-5.76,1.6-1.27,2.87,1,4.79,3.68,3.36,1.92,5.27.32,3.68-1.28,5.12-1.76,2.23-1.6,4.87,2.24.56,2.4,4.07-.8,1.12-3.51.82-2.24,2.86-3,4.94a3,3,0,0,0,2.4,4c1.75.36,2.55-.51,5.11.8s.32.93-3.36,3.05-2.23,3,1.44,3.95,3.52-2.72,4.48-3.19.79,1.43.48,3.83-1.76,2.9-1.76,2.9c3.57-.08,7-.2,10.38-.36,0,0-1-3,.16-3.18s3.36-1.12,3.36-2.56S136.18,166.24,134.75,164.51Zm-12.1-2.85c-1.92-.43-2.56-.43-2.56-1.7s2.56-1.22,2.56-1.22c1.23-.11,3.62,1.11,3.61,2.6S124.57,162.08,122.65,161.66Z" style="fill:#e4bf9c"/><path d="M177.52,143.71a20.82,20.82,0,0,1-.27,3.28,24.67,24.67,0,0,1-3,8.49,25.09,25.09,0,0,1-8.36-3.94s-38.54-27.84-71.08-36.71l-.73-.19c-1.87-.5-3.73-.93-5.56-1.29l-.42-.08c-1-.18-1.88-.34-2.8-.48-1-1.41-.48-2.25-.1-3.9a2.73,2.73,0,0,0-1.28-2.82,1.08,1.08,0,0,0-1.59.38,2.88,2.88,0,0,0-.17.35c-.79,2.23-1.27,2.71-3.51,3s-1.12-2.71-2.24-6.39,3.68-7-1.14-5.43a3.81,3.81,0,0,1-2.51-.35,2.64,2.64,0,0,1,0-.29C72,86.5,76.9,33.46,88.25,16.84,95.38,6.4,98.84,2.07,100.75.62c1.08-.81,1.66-.72,2.12-.31l.08.07a5.93,5.93,0,0,1,.63.77c.7,1,.9,2,1.92,2,1.28,0,2.56,1.75,3.84,2.87s-11.51,11.51-16.94,32c-2.5,9.41-4.15,15.61-4.93,19.67-.73,3.82-.69,5.75.17,6.67a2,2,0,0,0,.77.5c2.87,1.12,5.11-7,11.18-17.57s16.78-19.82,29.4-23c0,0,3.84-2.56,5.11.48a18.22,18.22,0,0,0,1.3,2.7,2.35,2.35,0,0,0,1.74,1.13c.37.09.15.41-.42.87h0c-1.65,1.33-6.14,3.81-7.56,4.87-1.92,1.44,8.17-3.19,8.17-3.19s1.74.64,1.42,3.35a6.1,6.1,0,0,0-.05.8,5.16,5.16,0,0,1,0,1.5c-.23.72-1.18,1.39-4.73,3.3C127.71,43.36,111.1,58.06,109,64.13s4.47-8.3,19-13.42,16.62-4.79,14.54-1.44l0,.1a14.92,14.92,0,0,0-1.37,2.93A36.83,36.83,0,0,0,139.84,58c-.05.26-.09.5-.14.73-.48,2.24-.16,2.72-2.4,4.64s-4.31,3.35-7.51,6.07,6.7-3.63,7-3.83c0,0-.05.07-.1.16a0,0,0,0,1,0,0,52.21,52.21,0,0,0-6.29,13.42,44.79,44.79,0,0,0-1.74,8.45,14.77,14.77,0,0,1-4.47,4.32c-3,1.91-9,6.23-10.87,9.9-1.13,2.17.07.73,4.42-1.34a45.15,45.15,0,0,1,6.14-2.4,56.23,56.23,0,0,1,7.82-1.85,12,12,0,0,0,.64,1.16,14.69,14.69,0,0,0,2.5,2.94,12.77,12.77,0,0,0,1.36,1.1c-6.23,2.06-7.27,5.43-8,7.44-1,2.58-2.87,5.1-7.35,6.85s-5.11,2.88-3.51,3.43,2.23-.87,6.87-2.47,6.23-7.51,8.47-10.38c1.16-1.5,3.82-2.69,6.13-3.49a12.41,12.41,0,0,0,3,.77,26.86,26.86,0,0,1,3.52,1.44c1.12.64-9.11,2.67-12.94,7s7.67-4.12,15.66-4.6a16,16,0,0,1,3.77,1h0a6.82,6.82,0,0,1,2.77,2l.07.1c.27.37.53.75.8,1.13-4.59.86-9.53,2.93-11.15,5-2.13,2.71-6.5,5.12-11,7.35s-3,3.36-1.28,2.93,4.47-1,11-6.69a32.82,32.82,0,0,1,13.75-6.66,15.24,15.24,0,0,0,2.55,3.07c1.12.8-7.83,3.84-11.34,6.71s8.18-2.85,13.49-3.6h.09s.76.89,1.9,2.2l1.59,1.8c.66.74,1.35,1.52,2.06,2.29-3.47,1.31-3.56,2.78-2.63,3.08,1.39.42-.85,2.44-.1,2.76s2.66.54,3.3,1.18-1.28,1.17-4.05,2.71-7.45,4.64,0,1.44A38.21,38.21,0,0,1,175,134.53a11.87,11.87,0,0,1,1.68,3.36,18.56,18.56,0,0,1,.73,3.55A21,21,0,0,1,177.52,143.71Z" style="fill:#3a3a3a"/><path d="M138.79,102.84c-2.3.8-5,2-6.12,3.48-2.24,2.88-3.84,8.78-8.47,10.38s-5.28,3-6.87,2.47-1-1.67,3.51-3.42,6.39-4.28,7.35-6.85c.75-2,1.79-5.39,8-7.45A13.4,13.4,0,0,0,138.79,102.84Z" style="fill:#dbb595"/><path d="M156.8,113.63a32.94,32.94,0,0,0-13.75,6.66c-6.55,5.68-9.27,6.27-11,6.69s-3.2-.69,1.27-2.92,8.85-4.64,11-7.36c1.62-2.06,6.56-4.14,11.15-5C155.89,112.35,156.35,113,156.8,113.63Z" style="fill:#dbb595"/><path d="M175,134.53a38,38,0,0,0-11.35,2.74c-7.46,3.19-2.76.09,0-1.45s4.69-2.07,4.05-2.71-2.56-.85-3.3-1.17,1.49-2.34.1-2.77c-.94-.29-.84-1.76,2.63-3.08,1.42,1.55,2.86,3.08,4,4.2A32.76,32.76,0,0,1,175,134.53Z" style="fill:#dbb595"/><path d="M68.85,112.16a82.06,82.06,0,0,0-9.44,1,29,29,0,0,0,7.53-4.25A12.44,12.44,0,0,0,68.85,112.16Z" style="fill:#3a3a3a"/><path d="M169.08,186.61c4.68,2.34-6.5,1.38-14.28-11.4,0,0-2-2.33-1.06,1.07s7.67,12.46,11.71,14.16-6,.95-11.25-9.22.09,10.61,13.13,20.51c0,0,1.43,1,1.11,2s-11.08-6.26-16.84-20.39.43,13.57,14.6,26a2.65,2.65,0,0,1,.21,3.2c-1.06,1.92-12-10.95-15.23-19s-4.63-12.25-8.59-14.47h0a10.07,10.07,0,0,0-6.24-3.76,111.7,111.7,0,0,0,20.77-2.74c1.15-.3,2.22-.56,3.24-.79,1.64,1.32,5.83,4.41,8.94,4.37,3.94,0-3.09,2.52-9.64-2.48.15.19,2.72,3.28,9.43,6,6.92,2.77-5.11.43-11-4.68S164.39,184.27,169.08,186.61Z" style="fill:#2b2b2b"/><path d="M166.38,192.44a17.15,17.15,0,0,0,3.2,5.75c2.39,2.88-1.36,12.79-1.88,16.3s-10.43,2.88-21.93-29.24a17.64,17.64,0,0,0-3.18-6.12c4,2.22,5.4,6.42,8.59,14.47s14.17,20.92,15.23,19a2.65,2.65,0,0,0-.21-3.2c-14.17-12.46-20.35-40.15-14.6-26s16.52,21.45,16.84,20.39-1.11-2-1.11-2c-13-9.9-18.38-30.67-13.13-20.51s15.3,10.93,11.25,9.22-10.75-10.76-11.71-14.16,1.06-1.07,1.06-1.07c7.78,12.78,19,13.74,14.28,11.4s-16.84-16.72-11-11.61,17.9,7.45,11,4.68c-6.71-2.67-9.28-5.76-9.43-6,6.55,5,13.58,2.44,9.64,2.48-3.11,0-7.3-3.05-8.94-4.37,1.06-.23,2.05-.42,3-.58,0,0,4,2,7.21,1.85s.47,12,0,19.33S166.38,192.44,166.38,192.44Z" style="fill:#3a3a3a"/><path d="M88.11,188.49a10.5,10.5,0,0,1-.5,1.39.26.26,0,0,0,0,.08L87,191.27A33.66,33.66,0,0,1,85.09,195a13.87,13.87,0,0,1-2.19,2.8,4.68,4.68,0,0,1-3.76,1.53,3.69,3.69,0,0,1-.79-.16c-2.78-.71-8.15-3.62-13.46-8.19h0l-.55-.47-.46-.41a52.57,52.57,0,0,1-4.15-4.16,43.36,43.36,0,0,1-6-8.5,50.48,50.48,0,0,1-2.79-6c-2.75-7.3-.08-8-.08-8a5.08,5.08,0,0,1,2.48-.92,15.53,15.53,0,0,1,3.19-.1c.56,0,1.16.08,1.77.15s1.13.14,1.71.24a74.67,74.67,0,0,1,8.18,1.8c.59.15,1.19.32,1.78.49-.23,2.3,4.69,4.09,6.9,4.9s-.93,1.27,1,2.23-2.08,1.44-1,2.14c.36.23,1.39,1,2.35,1.83,1.93,1.66,3.56,3.44-1.36,1-6.53-3.26,6.71,6,7,6.27l-.55-.36c-3.91-2.55-10.13-4.15-6.3-2.19S88.11,188.49,88.11,188.49Z" style="fill:#3a3a3a"/><path d="M88.41,180s.63,3.36,0,4.79c-.54,1.21.28,1.63-.31,3.72,0,0-6.25-5.7-10.08-7.67s2.39-.36,6.29,2.2l.56.35c-.3-.32-13.54-9.53-7-6.27,4.92,2.47,3.29.68,1.35-1a28.53,28.53,0,0,0-2.34-1.84c-1.09-.7,2.91-1.18,1-2.14s1.21-1.42-1-2.22-7.13-2.6-6.9-4.91l2.09.62a125.38,125.38,0,0,1,13.15,4.75,6.28,6.28,0,0,1,3.7,5.89A11.57,11.57,0,0,1,88.41,180Z" style="fill:#dbd3ce"/><path d="M64.89,191c-.37,1.07-1.09,2.95-2.53,6.12-2.71,5.95-9.75,1.59-9.75,1.59-20.29-7-13.49-30.61-13.49-30.61l1,.3c3.32,1,7,2.06,10.87,3a50.48,50.48,0,0,0,2.79,6,47,47,0,0,0,10.15,12.66l.46.41Z" style="fill:#353535"/><path d="M32.56,142.19a4.72,4.72,0,1,1-4.71-4.71A4.71,4.71,0,0,1,32.56,142.19Z" style="fill:#2b2b2b"/><path d="M27.29,133.88a7.61,7.61,0,0,0-7.3,9.69l0,.09a7.58,7.58,0,0,0,13,2.81h0a7.47,7.47,0,0,0,1.89-5A7.59,7.59,0,0,0,27.29,133.88Zm.56,13.85a5.54,5.54,0,1,1,5.54-5.54A5.54,5.54,0,0,1,27.85,147.73Z" style="fill:#4b4b4c"/><path d="M40.2,133.89c-1.17.34-1.49-1.1-2.17-2.48s-2.09.42-2.62,1,1.92,4,.64,5.12-1.7-1.17-3.49-4-3-1.28-4.07-2.87,3.83-1.5,5.08-2.78,4.46-.64,4.46-.64c1.76.75,1.64,3.31,3,4.48S41.38,133.53,40.2,133.89Z" style="fill:#414142"/><path d="M49.69,148.55c-.09,1.5-.22,3.31-1.28,3.95s-1.5,1.06-1,3.05S45,157.5,43,157.08s-3.26-.32-3.48-1.53-1.7-2.94-.42-3.8,3.62-3,4.26-4.84-1-1.87,0-3.34-1.38-4.92,0-5.13a2.28,2.28,0,0,1,2.66,2.34c-.21,1.38,1.39,2.79,1.39,2.79A5.94,5.94,0,0,1,49.69,148.55Z" style="fill:#414142"/><path d="M85.31,112.79c-1.83-.27-3.63-.46-5.37-.56a108.9,108.9,0,0,0-11.09-.07,12.44,12.44,0,0,1-1.91-3.26c3.16-2.54,6.07-6.26,5.83-11.23a3.84,3.84,0,0,0,2.51.34c4.82-1.6,0,1.76,1.14,5.43s0,6.71,2.24,6.4,2.71-.8,3.51-3,3.52,0,3,2.1C84.83,110.54,84.34,111.38,85.31,112.79Z" style="fill:#dbb595"/><path d="M134.74,186.85c-.07.87-.21,1.88-.39,2.91-.2,1.21-.44,2.46-.69,3.58-.29,1.32-.58,2.46-.8,3.17-.07.25-.14.44-.19.57-.48,1.11-6.55-3.14-8.95-3.49s7.51,3.33,8.15,7.32c0,0-.35,1.1-.87,2.47-.33.86-.72,1.82-1.13,2.69a11,11,0,0,1-1.1,1.91,2.57,2.57,0,0,1-.58.6c-.43.3-.91.57-1.41.86a8.11,8.11,0,0,0-2.26,1.74,6,6,0,0,0-1.11,2l-.06.2a9.57,9.57,0,0,1-1,2.21c-.12.21-.25.42-.39.62a7.8,7.8,0,0,1-6.24,3.68c-3.11,0-14.75-6.28-20.72-26.74a88.75,88.75,0,0,1-3.09-16.93l15.77-.18h.22l4.41-.05,1,0,3.41,0h.21l3.85,0H122l1.77,0S135.06,183.33,134.74,186.85Z" style="fill:#3a3a3a"/><path d="M126.19,161.55c-.11,1.49-1.74.63-3.62.07s-2.52-.6-2.43-1.88,2.63-1,2.63-1C124,158.68,126.31,160.07,126.19,161.55Z" style="fill:#414142"/><path d="M87.08,169.75c-2-.63-.32-2.34.53-4.11s1.31.81,1.31.81C89.05,169.22,89.1,170.39,87.08,169.75Z" style="fill:#414142"/><path d="M78.55,138.41c-.64.72-1.92-.72-3.27-2.74s-.67-3.52.5-5.11,2.62,2.27,2.77,2.55C79.62,135,79.19,137.69,78.55,138.41Z" style="fill:#414142"/><path d="M82.13,120.22c-1.4.32-1.8-.48-1.87-2.16s1.2-1.28,2.31-1.35S84,118.06,84,118.06C85,119.35,83.53,119.9,82.13,120.22Z" style="fill:#414142"/><path d="M243.55,143.09c-.13.84-2.27,1.31-3.54,2h0c-.58.31-1,.67-.92,1.13.13.89-1.86,1.55-3.72,2.62h0a5.84,5.84,0,0,0-2.88,2.92c-.57,1.72-2.46,3.08-5.09,4.94h0c-1.3.92-2.78,2-4.37,3.24-1.13.91-2.32,1.93-3.54,3.11a16.68,16.68,0,0,0-1.37,1.48,12.2,12.2,0,0,0-1.46,2.18h0a10.14,10.14,0,0,0-.21,8.72c.26.7.56,1.39.9,2.09.51,1.06,1.11,2.13,1.73,3.22a38.43,38.43,0,0,1,2.57,5.4c.29.77.53,1.49.75,2.16a37,37,0,0,0,1.79,5c1.24,2.49.12,4.09.57,5.42a2.14,2.14,0,0,0,.49.76,5,5,0,0,1,1,1.57,49,49,0,0,1,2,8.45c.09.46.2,1,.3,1.48s.15.73.23,1.1a4.55,4.55,0,0,0-2.29.34l-.24.13h0a4.74,4.74,0,0,1-.55.25l-.28.1-.55.14-.24,0a1.55,1.55,0,0,1-.31,0,2.61,2.61,0,0,1-.4,0,5.32,5.32,0,0,1-1.51-.21,1.92,1.92,0,0,1-.32-.09A10.24,10.24,0,0,1,219,211.1l-.52-.43c-.09-.08-.18-.15-.27-.24-.27-.24-.55-.5-.83-.78s-.57-.58-.87-.91c-1.33-1.46-2.36-2.66-3.15-3.66h0c-.14-.18-.26-.35-.39-.51l0,0c-.13-.17-.26-.33-.37-.49l0-.06c-.09-.11-.16-.22-.23-.32s-.14-.22-.21-.31l-.16-.26a5.69,5.69,0,0,1-.82-2,1.49,1.49,0,0,1,0-.21,1.55,1.55,0,0,1,0-.22,4.18,4.18,0,0,1,.2-1.29c.07-.23.15-.42.22-.62s.07-.19.11-.28.07-.18.1-.26a2.54,2.54,0,0,0,.16-.49,2,2,0,0,0,0-.88l0-.14s0,0,0,0,0-.15-.07-.22-.07-.14-.1-.22-.08-.15-.12-.24l-.16-.25-.18-.26a20.89,20.89,0,0,0-2.66-2.83c-1.17-1.1-2.28-2.22-3.24-3.28l-.38-.43c-.13-.14-.24-.28-.36-.42l-.13-.15a3.15,3.15,0,0,1-.24-.3c-.25-.29-.47-.57-.67-.85s-.25-.34-.36-.5l-.16-.23a.13.13,0,0,0,0-.06l-.23-.37c-.05-.11-.11-.21-.16-.3s-.07-.14-.1-.21a2.89,2.89,0,0,1-.21-.57,1.58,1.58,0,0,1,0-.28c0-.47.36-.68,1.2-.51a2.88,2.88,0,0,0,.55.06h.23l.23,0,.19-.07s0,0,0,0a1,1,0,0,0,.17-.1l.15-.12.1-.1s0-.08.09-.12h0a3.24,3.24,0,0,0,.43-1.17c0-.12,0-.24.07-.37a15,15,0,0,1,.4-1.86,3,3,0,0,1,1-1.52,2.92,2.92,0,0,1,.37-.24,9.14,9.14,0,0,1,1.15-.62l.38-.19.19-.1.33-.18.38-.22h0l.33-.23,0,0,.24-.19.25-.25.17-.21.14-.21a.78.78,0,0,0,.1-.15,3,3,0,0,0,.23-.55h0a1.14,1.14,0,0,0,.06-.25l0,0a.36.36,0,0,1,0-.1c0-.12,0-.23,0-.36a3.18,3.18,0,0,0,0-.34c0-.11,0-.23,0-.35s0-.25,0-.39,0-.27,0-.42a.71.71,0,0,0,0-.14c0-.25-.07-.51-.12-.79a7.08,7.08,0,0,1-.12-1.23c0-.12,0-.23,0-.34s0-.22,0-.33a.36.36,0,0,1,0-.1,3.12,3.12,0,0,1,.09-.46,3.18,3.18,0,0,1,.1-.33,3.52,3.52,0,0,1,.16-.39c0-.09.09-.19.14-.28l.17-.28a1.74,1.74,0,0,1,.19-.26s0,0,0,0a8.74,8.74,0,0,1,.71-.82,4.91,4.91,0,0,0,.46-.52l.08-.12a.47.47,0,0,0,.05-.1c.11-.27.06-.53-.27-.84a2,2,0,0,0-.34-.27l-.22-.15a.7.7,0,0,1-.32-.73s0,0,0-.07v0a.79.79,0,0,1,0-.13,2.33,2.33,0,0,1,.09-.29.94.94,0,0,1,.06-.15,4,4,0,0,1,.18-.36,1.71,1.71,0,0,1,.13-.23,3.31,3.31,0,0,1,.18-.29c.14-.23.32-.47.51-.72s.19-.24.29-.37l.31-.38.71-.79c.1-.11.2-.23.31-.34l.74-.76c.41-.42.86-.85,1.33-1.28.15-.15.3-.3.46-.44.64-.58,1.31-1.19,2-1.77l.08-.07.67-.57c.69-.56,1.38-1.13,2.08-1.67l.84-.65.06,0c.26-.21.53-.4.79-.6a1.3,1.3,0,0,0,.2-.15l.59-.42c.2-.14.39-.29.59-.42l.58-.4c.48-.33,1-.65,1.41-.94l.61-.39.72-.42.76-.44.67-.35a12.7,12.7,0,0,1,1.26-.56L232,148l.38-.12.49-.14a4.56,4.56,0,0,0,.44-.14c.24-.08.45-.15.66-.24l.18-.07.17-.08.15-.06.31-.16h0l.27-.16a4.85,4.85,0,0,0,.8-.56l.18-.17.09-.08a1.75,1.75,0,0,0,.26-.29,5,5,0,0,0,.51-.71l.29-.47.15-.22.14-.18.21-.21a1.37,1.37,0,0,1,.2-.13l.11-.06a1.34,1.34,0,0,1,.44-.16C239.85,143.23,241.77,142.46,243.55,143.09Z" style="fill:#dbd3ce"/><path d="M27.85,136.65a5.54,5.54,0,1,0,5.54,5.54A5.54,5.54,0,0,0,27.85,136.65Zm0,10.25a4.71,4.71,0,1,1,4.71-4.71A4.72,4.72,0,0,1,27.85,146.9Z" style="fill:#eae3dd"/><path d="M32.56,142.19a4.72,4.72,0,1,1-4.71-4.71A4.71,4.71,0,0,1,32.56,142.19Z" style="fill:none;stroke:#4b4b4c;stroke-miterlimit:10"/><path d="M28.89,139.68a1.79,1.79,0,1,1,1.79,1.79A1.79,1.79,0,0,1,28.89,139.68Z" style="fill:#eae3dd"/><path d="M128.77,208a2.57,2.57,0,0,1-.58.6c-.43.3-.91.57-1.41.86-14.39-7.83-17.9-31.3-18.87-33.41l4.41-.05c.07,1,.15,2.26.25,3.7C113.42,192.73,122.32,202.46,128.77,208Z" style="fill:#2b2b2b"/><path d="M122,175.86l1.77,0s11.34,7.49,11,11c-.07.87-.21,1.88-.39,2.91C129.29,186.78,124.57,179.84,122,175.86Z" style="fill:#2b2b2b"/><path d="M103.14,186.55c-2.63,12.26,14.47,25.13,19.22,29-.12.21-.25.42-.39.62-.9-.39-2.19-1-4-1.84-19.5-9.27-19.66-36.75-19-22s27.65,31.06,14.35,23.52C104.1,210.69,97.92,199.5,95,193.14a88.75,88.75,0,0,1-3.09-16.93l15.77-.18a68.64,68.64,0,0,0-.24,7.34c-.14,10.76,9.14,21,17.07,27.81a6,6,0,0,0-1.11,2C97.58,197.83,106.85,169.25,103.14,186.55Z" style="fill:#2b2b2b"/><path d="M131,203.38c-.33.86-.72,1.82-1.13,2.69-9.74-5.77-14.56-22.17-16.57-30.11l3.41,0c.16,1,.32,2.21.49,3.59C118.53,190.4,125.37,198.4,131,203.38Z" style="fill:#2b2b2b"/><path d="M133.66,193.34c-.29,1.32-.58,2.46-.8,3.17-9.33-5.33-14-14.77-15.94-20.59l3.85,0c.28.78.63,1.72,1.06,2.86C124,184.51,128.86,189.5,133.66,193.34Z" style="fill:#2b2b2b"/><path d="M87.58,190,87,191.27c-7.45-1.8-24.26-9.13-26.36-24.76-.21-1.53-.42-2.78-.63-3.78a74.67,74.67,0,0,1,8.18,1.8,13.26,13.26,0,0,0,5.23,7.31c5.8,4.28-2,1.71-5.91-4.77s-1,5.74,7.77,10.06-4.1,3.15-10-8.77.64,14.76,20,20.83C86.19,189.46,86.94,189.72,87.58,190Z" style="fill:#2b2b2b"/><path d="M64.89,191h0l-.55-.47-.46-.41a52.57,52.57,0,0,1-4.15-4.16,71.21,71.21,0,0,1-8.87-22.56,5.08,5.08,0,0,1,2.48-.92c2.07,10.41,9.35,29,25,36.71C75.57,198.44,70.2,195.53,64.89,191Z" style="fill:#2b2b2b"/><path d="M85.09,195a13.87,13.87,0,0,1-2.19,2.8c-9.68-3.69-20.78-12-24.63-28.64-.62-2.69-1.2-4.94-1.74-6.8.56,0,1.16.08,1.77.15C58.72,170.27,64.25,190.59,85.09,195Z" style="fill:#2b2b2b"/><path d="M88.94,106c-.13,3.12-.27,5.55-.41,7.35l-.42-.08C88.26,111.37,88.53,108.89,88.94,106Z" style="fill:#2b2b2b"/><path d="M102.87.31l-2.12.31C101.83-.19,102.41-.1,102.87.31Z" style="fill:#2b2b2b"/><path d="M80.25,101.45C75.27,49.84,99.51,11,99.51,11,76.93,35.24,75.28,92.76,75.28,92.76c-.88-59.62,22.54-86,28.3-91.61.7,1,.9,2,1.92,2,1.28,0,2.56,1.75,3.84,2.87s-11.51,11.51-16.94,32c-2.5,9.41-4.15,15.61-4.93,19.67C79.1,78.08,80.25,101.45,80.25,101.45Z" style="fill:#2b2b2b"/><path d="M107.92,116.68a50.38,50.38,0,0,1,9.83-16.18,45.15,45.15,0,0,1,6.14-2.4C113.29,105,108.19,116.07,107.92,116.68Z" style="fill:#2b2b2b"/><path d="M134.85,100.35c-11.85,4.94-21.15,14.79-21.54,15.2a59.2,59.2,0,0,1,19-18.14A14.69,14.69,0,0,0,134.85,100.35Z" style="fill:#2b2b2b"/><path d="M104.21,114.26c4.76-24.94,20.32-40,32.49-48.51a52.21,52.21,0,0,0-6.29,13.42C111.7,88.5,104.48,113.32,104.21,114.26Z" style="fill:#2b2b2b"/><path d="M135.4,27.37c-2.27.54-4.84,1.18-7.74,1.91-31.6,7.9-40.85,56.5-43.73,76.79a1.08,1.08,0,0,0-1.59.38q0-1.31-.06-2.82a131.38,131.38,0,0,1,5.36-39.36,2,2,0,0,0,.77.5c2.87,1.12,5.11-7,11.18-17.57s16.78-19.82,29.4-23c0,0,3.84-2.56,5.11.48A18.22,18.22,0,0,0,135.4,27.37Z" style="fill:#dbb595"/><path d="M88.94,106l0-.8c1.81-47.64,26.1-67.62,34.19-71,2.41-1,8.06-2.93,13.55-4.79-1.65,1.33-6.14,3.81-7.56,4.87-1.92,1.44,8.17-3.19,8.17-3.19s1.74.64,1.42,3.35a6.1,6.1,0,0,0-.05.8l-3.94.88C102.5,43.25,91.9,85.29,88.94,106Z" style="fill:#2b2b2b"/><path d="M99.09,114.7c4.46-40.27,25.29-56.36,42.06-62.4A36.83,36.83,0,0,0,139.84,58C111.34,65.89,99.09,114.7,99.09,114.7Z" style="fill:#2b2b2b"/><path d="M142.57,49.27l0,.1c-35,2.12-45.05,51.18-47.7,65.46l-.73-.19c.85-11.77,5.85-44.71,19.24-61.72,5.4-6.85,16-12.39,25.34-16.21-.23.72-1.18,1.39-4.73,3.3C127.71,43.36,111.1,58.06,109,64.13s4.47-8.3,19-13.42S144.65,45.92,142.57,49.27Z" style="fill:#dbb595"/><path d="M154.63,110.57c-14.26,2.39-27,13.51-27,13.51,7.39-13.68,23.71-15.54,24.12-15.59h0a6.82,6.82,0,0,1,2.77,2Z" style="fill:#2b2b2b"/><path d="M163.49,122c-13,5.42-27.09,16.88-20.9,10.37,3.75-4,12.54-8.55,18.91-12.56h.09S162.35,120.69,163.49,122Z" style="fill:#2b2b2b"/><path d="M167.14,126.09c-12,1.8-25.23,16.74-16.28,6.28,3.25-3.8,8.94-6.58,14.22-8.57C165.74,124.54,166.43,125.32,167.14,126.09Z" style="fill:#2b2b2b"/><path d="M156.8,144.17c11.26-7.19,19.89-6.27,19.89-6.27h0a18.56,18.56,0,0,1,.73,3.55A55.63,55.63,0,0,0,156.8,144.17Z" style="fill:#2b2b2b"/><path d="M177.52,143.71a20.82,20.82,0,0,1-.27,3.28c-4.85-.8-13,.67-13.38.74C166.66,145,172.48,144.08,177.52,143.71Z" style="fill:#2b2b2b"/><path d="M252.49,136.93a5.23,5.23,0,0,1-1.9,2.46,2.38,2.38,0,0,1-.32.16l-4.77.54c-5,.59-10.85,1.41-17.07,2.6-13.78,2.62-29.36,7.07-41.39,14.94a205,205,0,0,1,25.33-8.71h0c8-2.15,16.75-3.85,24.51-3.92,1,0,2.09,0,3.1.08-.58.31-1,.67-.92,1.13.13.89-1.86,1.55-3.72,2.62h0c-2,.17-4.15.37-6.39.62-9.25,1-20.23,2.73-30.15,6h0A67.42,67.42,0,0,0,187,160.53c.23-.06,4.24-1.22,10.26-2.33a115.66,115.66,0,0,1,22.45-2,72.59,72.59,0,0,1,7.64.51c-1.3.92-2.78,2-4.37,3.24-2.28-.11-4.66-.21-7.07-.26a104.55,104.55,0,0,0-19.15,1,24.73,24.73,0,0,0-9,3l4.56.24c4.86.24,12.85.57,20,.61,2,0,3.92,0,5.71,0a12.2,12.2,0,0,0-1.46,2.18h0c-1.15.22-2.39.43-3.68.6a83.59,83.59,0,0,1-24,0c-.58-.08-1.16-.18-1.75-.28,0,0,.59.26,1.65.69a131.38,131.38,0,0,0,22.74,6.83q2.4.48,4.86.84c.26.7.56,1.39.9,2.09-2.19-.11-4.57-.31-7.05-.61a80.27,80.27,0,0,1-22.08-5.55c-.86-.37-1.71-.77-2.54-1.18.32.18,1.17.66,2.46,1.34,3.51,1.88,10.24,5.35,18,8.71a154.93,154.93,0,0,0,15.55,5.91c.29.77.53,1.49.75,2.16a118.08,118.08,0,0,1-17.29-4.54,69.78,69.78,0,0,1-18.7-9.54q-.88-.68-1.74-1.38c.11.11.69.64,1.66,1.5a179.23,179.23,0,0,0,18.14,14c6.37,4.24,13.53,8.26,20.29,10.39a2.14,2.14,0,0,0,.49.76,5,5,0,0,1,1,1.57,75.6,75.6,0,0,1-15-5.61,119.19,119.19,0,0,1-24.79-16.67h0q-1.62-1.38-3.25-2.86c.3.31,1.77,1.84,4.1,4.12h0a240,240,0,0,0,23.81,20.61c5.89,4.36,12,8.19,17.44,10.34.07.36.15.73.23,1.1.11.57.22,1.16.3,1.73-.9-.38-1.84-.79-2.83-1.26h0a97,97,0,0,1-12.87-7.46h0a184,184,0,0,1-19.07-15c-1.15-1-2.33-2.1-3.53-3.22-4-3.72-8.23-7.88-12.69-12.53a10,10,0,0,0,7.19-8,13.37,13.37,0,0,0-2.13-10.34S230.07,137.37,252.49,136.93Z" style="fill:#2b2b2b"/></g></g></svg>