<svg xmlns="http://www.w3.org/2000/svg" viewBox="0 0 298.56 149.92"><title>clownfish</title><g id="Layer_2" data-name="Layer 2"><g id="Ñëîé_2" data-name="Ñëîé 2"><path d="M296.26,93c-6.55,16.17-15.15,19-15.15,20.27s-8.18-.21-8,1.43-2.26-2.46-3.89,0-5.12,0-7,1.64c-1.08.95-5.39-2.51-10.54-6.29a64.68,64.68,0,0,1,6.45,1c1.23.41,1.63-1,4.7-.16s2.67-2.08,3.69-2.08,3.89-2.06,6.14-1.85,5.32-3.68,7.78-3.89,2-5.73,3.68-6.55.61-3.07,3.27-4.91-.2-3.07,2.4-3.89-1.57-4.71-.36-5.73-1.21-6.76-.19-8.19-2.25-4.09-2.66-5.32,0-3.07,0-5.12-5.12-2.25-5.33-3.48-1.84-2.45-1.84-3.48-3.07-2.66-3.07-3.68-3.07-2.05-3.07-2.86-2.86-.21-2.46-1.44S262.08,47,261.8,47c7.83-1.92,14.51-3.29,14.4-2.16-.2,2,4.5,1.65,4.3,3.08s3.07,1.84,3.07,3.27,4.09,1.84,3.48,3.68,4.7,2,5.53,5.94S302.81,76.78,296.26,93Z" style="fill:#414142"/><path d="M289.85,87.63c-2.6.82.27,2.05-2.4,3.89s-1.63,4.09-3.27,4.91S283,102.78,280.5,103s-5.53,4.1-7.78,3.89-5.12,1.85-6.14,1.85-.62,2.94-3.69,2.08-3.47.57-4.7.16a64.68,64.68,0,0,0-6.45-1s3.58-1.49,2.15-3.74,3.89-.41,3.07-1.84,1.63-1.64,4.7-1,3.9-.61,2.26-3,4.5,0,3.27-2.26,3.89,0,2.65-1-1.62-3.07,2.26-2.67,3.69-1.22,2.26-3.47,1.64-4.1,3.48-4.51.2-4.3,1.68-5.11-1.89-2.46-.66-2.26-2.05-4.5-.21-5.11.42-2.66-1.11-2.47-3.6-2-1.14-3.06.61-2.66-2.52-3.48-4.64-.62-1.37-1.64,0-3.07-3.07-3.48-4.29-1.64-.61-3.48-.82-2-4.71-.87-3.68-.56.61-3.22-4.91-1.84-2.45-2.66-2.29-2-2.5-2l2-.51h0c.28,0,9.48.11,9.07,1.32s2.46.61,2.46,1.44,3.07,1.84,3.07,2.86,3.07,2.66,3.07,3.68,1.64,2.26,1.84,3.48,5.33,1.43,5.33,3.48-.41,3.89,0,5.12,3.68,3.89,2.66,5.32,1.41,7.16.19,8.19S292.44,86.81,289.85,87.63Z" style="fill:#2b2b2b"/><path d="M251.68,109.62a3.58,3.58,0,0,1,.06.38c-3.65-2.67-7.71-5.49-11.36-7a40.17,40.17,0,0,0-19.86-5.53C216.84,93,218.07,81.9,216.63,79s2.05-4.5,1.64-7.58,3.17-15.63,3.27-16c7.52,0,15.75-2,21.91-3.64,4.34-1.15,10.49-2.82,16.3-4.28-.47.3-8,5.11-10.57,5.51s-1.23,2.45-2.87,3.27l-.46.25-.15.1a2.83,2.83,0,0,0-.48.34l-.15.13a1.29,1.29,0,0,0-.17.16l-.17.17-.16.18-.17.21-.18.23c-.14.2-.3.42-.45.67l-.18.31h0c-.13.21-.25.44-.38.69l-.2.41c-.07.13-.13.26-.19.39-.27.58-.55,1.24-.85,2-.05.14-.11.29-.17.44s-.07.21-.11.31-.16.43-.24.66l-.24.67,0,0c-.05.15-.1.31-.16.47-.33,1-.68,2.05-1.05,3.26-3.06,10,.82,15.55.13,15.76s1.71,4.71.34,5.32,2,5.32.55,5.32-.2,2.87,5.12,6.76l.63.48.58.48c.28.25.53.49.78.73l.39.4a14.22,14.22,0,0,1,1.42,1.79l.2.31a11.24,11.24,0,0,1,1.32,2.84,5.88,5.88,0,0,1,.22.84A1.62,1.62,0,0,1,251.68,109.62Z" style="fill:#e6dfd9"/><path d="M129.28,96c-2.91.69-6.06-.61-6.14,0s4.89,2.23,4.79,3.92-1.26,1.2-5.79.41,1.23,1.27,3.69,2.81-.15,3.23-5.37,1.77,1.3,1.3,2.07,2.53-.39,2.61-3.6,1.22-7.15-3.37-5.22-.92,3.83,4.07,2.29,4.61-3.79-1.46-5.23-2.3,2.43,2.84,2.49,3.45-2.16.92-2.16.92C99,106.55,90,97.34,86.66,89.27c-3.12-7.52,3.39-16.21,9.72-22.62h0c.07-.05.69-.48,1.63-1.09,0,0,6.65-2.9,8.29-2.29s-8.39,8.57-5.12,6.95,5.52-4.91,8.39-5.31-1.22,3.86-2.66,5.31,3.67-.48,6.34-3.41,5.74.73,1.85,3.41-3.79,2.28-1.33,2.06,6-5.58,7.83-3.89,2.46,4-.92,5.68-3.23,2.23-1.08,1.69,4.15-3.3,6.3-1.16,1.31,2.93-3.77,4.23-4.37,2.07.7,1.38,6.52,0,5.44,1.46-2.22,1.92-6.14,2.92-2.76.69.85,1.07,6.37.61,6.6,2.38-3.15,2.53-7.83,2.53,4.53,1.39,6.76,2.08S132.2,95.33,129.28,96Z" style="fill:#e36125"/><path d="M136.36,95.41c.86,1.43-.06,1.64,0,3.48a3.87,3.87,0,0,1-2.41,3.48c-.82.2-4.3.2-3.89,2.66s-.2,3.62-.81,3.55-2.87.84-3.07,2.22-3,.78-3,2-4.14-.41-3.73,1.63-8,.09-8.3,0a0,0,0,0,0,0,0s2.22-.3,2.16-.92-3.93-4.29-2.49-3.45,3.7,2.84,5.23,2.3-.38-2.15-2.29-4.61,2-.45,5.22.92,4.37,0,3.6-1.22-7.29-4-2.07-2.53,7.82-.24,5.37-1.77-8.21-3.61-3.69-2.81,5.69,1.27,5.79-.41-4.87-3.3-4.79-3.92,3.23.69,6.14,0,1.46-2.69-.76-3.37-11.44-2.08-6.76-2.08,8.06-.76,7.83-2.53-3-2-6.6-2.38-4.76-.08-.85-1.07,5.08-1.46,6.14-2.92-.38-2.15-5.44-1.46-5.76-.08-.7-1.38,5.92-2.08,3.77-4.23-4.15.62-6.3,1.16-2.3,0,1.08-1.69,2.76-4,.92-5.68-5.37,3.68-7.83,3.89-2.56.61,1.33-2.06.82-6.33-1.85-3.41-7.77,4.85-6.34,3.41,5.53-5.72,2.66-5.31-5.12,3.68-8.39,5.31,6.76-6.33,5.12-6.95S98,65.56,98,65.56c3.28-2.17,10.45-6.71,11.56-5.77,1.44,1.23,5.73-.61,6.24.82s5.43-1,5.84,1,6.39,1,6.27,3.27,2,5.48,5,6.73,1.37,1.87,1.17,4.12,2,5.11,3.27,6.14,0,2.46,0,3.89-.75,1.84.55,4.71S135.5,94,136.36,95.41Z" style="fill:#2b2b2b"/><path d="M158.18,117.43c-11.08,2.75-22.64,4.64-33.65,4.59a120.58,120.58,0,0,1-13.42-7.57c.35.08,8.7,2,8.3,0s3.68-.41,3.73-1.63,2.82-.62,3-2,2.45-2.29,3.07-2.22,1.22-1.09.81-3.55,3.07-2.46,3.89-2.66a3.87,3.87,0,0,0,2.41-3.48c0-1.84.87-2,0-3.48s2.9-2,1.61-4.91-.55-3.28-.55-4.71,1.23-2.87,0-3.89-3.48-3.89-3.27-6.14S136,72.89,133,71.64s-5.18-4.48-5-6.73-5.86-1.23-6.27-3.27-5.32.41-5.84-1-4.8.41-6.24-.82c-1.11-.94-8.28,3.6-11.56,5.77-.94.61-1.56,1-1.63,1.09,2.81-2.84,5.58-5.22,7.46-6.86,6.14-5.32,18.22-10,20.88-15.35.52-1,1-1.93,1.49-2.72a92.73,92.73,0,0,1,31.88,5.61c-.15,5.92,1,4.47-3.28,17.58-4.71,14.33-8,19.45-3.28,27.43.13.2.24.41.36.62a93.28,93.28,0,0,1-9,3.68c-6.6,2.25-17.5,14.65,0,14.85a116.88,116.88,0,0,0,14.1-1.47C157.83,114.27,158.18,117.43,158.18,117.43Z" style="fill:#e6dfd9"/><path d="M216.63,79c1.44,2.87.21,13.92,3.89,18.42a29.88,29.88,0,0,0-4.73.42c-.39.06-.78.14-1.17.22a26.71,26.71,0,0,0-4.13,1.21c-10,3.78-30.2,12.66-52.31,18.13,0,0-.35-3.16-1.13-7.41,10.21-1.63,24.26-5,36.16-12.15C214.79,85,206.2,84.05,208,74.53s-15.15-3.83-32.45,5.91c-10.63,6-18,9.88-23.69,12.52-.12-.21-.23-.42-.36-.62-4.71-8-1.43-13.1,3.28-27.43,4.31-13.11,3.13-11.66,3.28-17.58a74.81,74.81,0,0,1,16.37,8.11c17,11.52,32.35,5.42,41.81-.4l.2,0h.08c.26.05.52.08.79.11l.85.1c.16,0,.31,0,.47,0,.53,0,1.05.08,1.58.1h.68l.61,0c-.1.37-3.67,13-3.27,16S215.2,76.15,216.63,79Z" style="fill:#f06624"/><path d="M161.05,27.14a132.44,132.44,0,0,0-2.87,18.33c0,.7-.07,1.31-.08,1.86a92.73,92.73,0,0,0-31.88-5.61c2-3.23,3.75-4.83,6.76-8.93a19.7,19.7,0,0,0,3.37-11.52l1.32.24,1.83.35C146.3,23.19,153.47,24.93,161.05,27.14Z" style="fill:#d7cfca"/><path d="M133,32.79c-3,4.1-4.79,5.7-6.76,8.93a53.76,53.76,0,0,0-20.53,4c-20.26,8.8-25.79,5.73-30.49,0s-4.1-4.3-14.54-8.13a25.8,25.8,0,0,1-11.22-7.49c2.82-1.19,5.79-2.34,8.92-3.42a157.32,157.32,0,0,1,18.46-5.16,139.34,139.34,0,0,1,31-3c.6,0,1.2,0,1.79,0q4.13.09,8.45.43l1.1.09h.07l1.39.13,1.89.18,2.42.27,2,.24,1.22.16c.19,0,.4.05.6.09.63.08,1.25.17,1.88.27,1.9.28,3.82.59,5.78.95h0A19.7,19.7,0,0,1,133,32.79Z" style="fill:#e36125"/><path d="M96.39,66.65c2.81-2.84,5.58-5.22,7.46-6.86,6.14-5.32,18.22-10,20.88-15.35.52-1,1-1.93,1.49-2.72a53.76,53.76,0,0,0-20.53,4c-20.26,8.8-25.79,5.73-30.49,0s-4.1-4.3-14.54-8.13a25.8,25.8,0,0,1-11.22-7.49c-2.69,1.13-5.24,2.31-7.64,3.52,11.56.87,22.77,9,26.39,15.48,4.14,7.37,11.2,20.57,7.67,26.25s-6.75,12.59-7.52,20.11S59,109.84,49.61,110.61s-11.21-.77-8.29-3.69,14.28-24.1,13.2-27.48.16-7.37.77-12.59-3.68-5.52-7.21-10.59S41,46.59,37.79,44c-2.09-1.69-6.91-2.09-10-2.17-9.52,6.52-14.92,12.45-16.37,14.76-2.61,4.14-5.84,9.21-8.45,11.51S.79,73.3,1.71,73.76l7.37,3.69c1.13.56-.72.56-.72.56S2,76.22,1,76.22s-1.58,3.07,0,4.6.93,3.54,8.3,13.56,18.83,11.06,28.24,16,17.81,6.14,25.39,8.6a43,43,0,0,0,8.15,1.47h0c8.72.91,22.39,1.2,41.13,1.44l11.47.15h.82a120.58,120.58,0,0,1-13.42-7.57,0,0,0,0,0,0,0C99,106.55,90,97.34,86.66,89.27c-3.12-7.52,3.39-16.21,9.72-22.62ZM35.69,51.2a8.6,8.6,0,1,1-8.6,8.59A8.6,8.6,0,0,1,35.69,51.2ZM24.23,96.84C15.43,93.16,14,91,17.07,90.56c0,0,19-1.7,25.79-14s6.54,4.23,1.43,14S33,100.52,24.23,96.84Z" style="fill:#f06624"/><path d="M75.86,75.3C72.33,81,69.11,87.89,68.34,95.41S59,109.84,49.61,110.61s-11.21-.77-8.29-3.69,14.28-24.1,13.2-27.48.16-7.37.77-12.59-3.68-5.52-7.21-10.59S41,46.59,37.79,44c-2.09-1.69-6.91-2.09-10-2.17a118.16,118.16,0,0,1,14-8.24c11.56.87,22.77,9,26.39,15.48C72.33,56.42,79.39,69.62,75.86,75.3Z" style="fill:#e6dfd9"/><path d="M39.17,59.79a3.48,3.48,0,1,1-3.48-3.48A3.48,3.48,0,0,1,39.17,59.79Z" style="fill:#2b2b2b"/><path d="M35.69,51.2a8.6,8.6,0,1,0,8.6,8.59A8.6,8.6,0,0,0,35.69,51.2Zm0,13.71a5.12,5.12,0,1,1,5.12-5.12A5.12,5.12,0,0,1,35.69,64.91Z" style="fill:#ff9729"/><path d="M35.69,54.68a5.12,5.12,0,1,0,5.12,5.11A5.11,5.11,0,0,0,35.69,54.68Zm0,8.59a3.48,3.48,0,1,1,3.48-3.48A3.48,3.48,0,0,1,35.69,63.27Z" style="fill:#ff6427"/><path d="M139.5,21.86l-1.83-.35-1.32-.24h0c-2-.36-3.88-.67-5.78-.95-.63-.1-1.25-.19-1.88-.27-.2,0-.41-.07-.6-.09l-1.22-.16-2-.24-2.42-.27-1.89-.18L119.21,19h-.07l-1.1-.09q-4.32-.34-8.45-.43c-.59,0-1.19,0-1.79,0a139.34,139.34,0,0,0-31,3S89.94,6.27,93.93,4.63s-7.21,8.05-8.5,11.77,4.91-4.09,9.87-7.68,6.81-5.42,3.85-1.43-6.86,8.29-4.61,7.27,8.29-6.48,12.18-7.8-5.22,4.11-6.35,6.87,5.32-2.11,9.11-3.51,1.74-.61-.51,2.68-.92,2.85,3.89,0,3.89-1.41,2.15.94.1,2.87,5.32.72,5.12-2.36,3.58-.31-3.07,4.7,1.64,3.48,10.64-3.17,8.29-1c-2.16,2-1.48,4,5,2.93A8.76,8.76,0,0,1,139.5,21.86Z" style="fill:#f06624"/><path d="M138.89,19.54c-6.53,1.09-7.21-1-5-2.93,2.35-2.15-3.59-.21-8.29,1s-3.17-1.43-1.64-3.48,1.64-1.84-3.58.31-7.06,1.63-5.32-.72,2.66-3.79-2.15-.94-6.14,3.29-3.89,0,4.3-4.08.51-2.68-10.24,6.28-9.11,3.51,10.23-8.18,6.35-6.87-9.93,6.78-12.18,7.8,1.63-3.28,4.61-7.27,1.12-2.15-3.85,1.43S84.14,20.11,85.43,16.4,97.92,3,93.93,4.63,76.82,21.47,76.82,21.47,86.63,3.31,99.6.41c-1.72,1.66-3.88,3.93-4.24,5.19-.62,2.15,4.3-3.22,8.44-3.6s1.23.69,0,2.22,3.65-.31,7-.31,3,.86,1.32,2.2-1.53,1.49,2.61,1.18,8.75-.92,6.14,1.23S117,11,121.6,10.93s10-1,6.33,1.27c-3.42,2.13-2.78,3.2,6,2.88h0a20.14,20.14,0,0,0,2.84,1.76l0,0A6,6,0,0,1,138.89,19.54Z" style="fill:#2b2b2b"/><path d="M133.93,15.08c-8.78.32-9.42-.75-6-2.88,3.71-2.3-1.72-1.38-6.33-1.27s-3.37-.26-.76-2.41-2-1.54-6.14-1.23-4.3.15-2.61-1.18,2-2.2-1.32-2.2-8.2,1.85-7,.31S108,1.61,103.8,2s-9.06,5.75-8.44,3.6c.36-1.26,2.52-3.53,4.24-5.19A16.67,16.67,0,0,1,102.83,0c14.53-.21,8.19.81,8.8,2.24s3.27-1.63,4.3.62,4.5.61,4.5,2.25,1.23-.61,2.66,2.05,7.16,1.56,7.16,3.55C130.25,11.53,131.5,13.31,133.93,15.08Z" style="fill:#414142"/><path d="M220.93,55.43h-.68c-.53,0-1.05-.05-1.58-.1-.16,0-.31,0-.47,0l-.85-.1c-.27,0-.53-.06-.79-.11h-.08l-.2,0-.12,0-.82-.15c-.3-.06-.62-.13-.92-.21l-.74-.19-.72-.21c-.21-.07-.41-.13-.61-.21s-.43-.15-.64-.24l-.56-.22c-.44-.2-.86-.4-1.28-.63l-.48-.27-.54-.33q-.27-.16-.54-.36l-.32-.23c-.23-.17-.47-.36-.7-.56l-.48-.42c-8.6-8-38.07-21.29-38.07-21.29q-3.92-1.24-7.69-2.36.57-1.09,1.17-2.1s7.54-4.24,10.92-5.26-5,4.18-5.46,5.26,1.64.26,6.26-1.89,2.06-.4-.8,1.75-2.87,4.39,2.76,1.53,12.38-7.58,7.07-3.28-9.93,7.17-5.64,5.74S191,22.13,186.65,26s-9.21,8.49-3.79,6,12.69-7.27,8.7-3.28-10.54,7.27-4.2,5.94,12.19-5.4,8.91-1.93-7.1,6.23-2,4.9,11.48-4.5,7.39-.72-6.44,6-.92,4.6,10.64-2.65,6.65-.51-8.39,5.22-3.17,4.51,12.38-3.28,7.67-.31-6.23,5.32-2.24,4.2,11.76-3.28,7.06-.92S220.1,51.8,220.93,55.43Z" style="fill:#f06624"/><path d="M222.47,52.16c-.46,1.81-.89,3.16-.92,3.28h0l-.61,0c-.83-3.63-8.9-4.54-4.19-6.89s-3.07-.21-7.06.92-2.46-1.23,2.24-4.2-2.45-.41-7.67.31-.82-2.36,3.17-4.51-1.12-.92-6.65.51-3.17-.81.92-4.6-2.25-.62-7.39.72-1.31-1.43,2-4.9-2.56.6-8.91,1.93.21-1.95,4.2-5.94-3.28.82-8.7,3.28-.51-2.15,3.79-6-5,1.43-9.32,2.87.31-1.44,5.64-5.74-1.44.41-7.07,3.28-5.63.62-2.76-1.53,5.42-3.9.8-1.75-6.74,3-6.26,1.89,8.84-6.28,5.46-5.26S162.22,25,162.22,25a35,35,0,0,1,2.71-3.89h0q1.6-1,3.06-1.83c4.94-2.1,10.26-.66,12.56-1s1.84,1,4,.12,3.22,3,4.91,2.73,1.54,2,3.75,1.49,2.55,2.15,3.62,2.15,4.76,4.15,6.6,4.3,2.3,2.61,4,2.15,2.92,3.68,3.69,4,1.69,3.85,3.07,3.54.31,3.53,2.1,3.84,4.19,4.45,3.11,8S222.47,52.16,222.47,52.16Z" style="fill:#e36125"/><path d="M222.47,52.16c.69-2.68,1.43-6.39,1.07-8.64-.61-3.84-.78-5.68-2-6s-2-4.08-2.6-4-1.62-2.94-2.66-3.1S214,27.4,213.1,27.71s-2.61-2.61-4.45-3.07-3.68-3.11-4.91-2.78-2-1.67-4-1.83a24.55,24.55,0,0,1-6.54-1.61c-1-.54-3.11-2.69-4.43-2.53s-2.7-1.05-4.08-.75-6-1.83-16.7,4.17q-1.45.81-3.06,1.83A29.56,29.56,0,0,1,190.3,10.23h.1a15.65,15.65,0,0,1,1.87.5c11.47,3.82,8.2,2.38,8,4s4.5.41,4.3,1.85,5.12.81,4.91,3.07,4.09.61,4.3,2.86,4.5.82,3.89,4.09,4.91,1.64,4.91,3.49,11.87,10.32-1,25.32C221.58,55.32,222,54,222.47,52.16Z" style="fill:#414142"/><path d="M217.4,107.38c-.77.16-.61,4.45-2,4.45s-3.07,4-5.38,4.25-2,3.43-3.83,3.12-2.92,2.15-4.3,1.22-3.07,3.54-5.07,3.14-2.15,1-4.38,1-1.91.92-4.68-1-3.07,1.78-4.14,1.51-3.07.43-4.61-.34-2.91,1.07-4.6,0c-1.27-.81-8.2-2-11.55-2.57-1.18-1.19-3.24-3.09-4.69-4.73,22.11-5.47,42.3-14.35,52.31-18.13a26.71,26.71,0,0,1,4.13-1.21c.39-.08.78-.16,1.17-.22a42.35,42.35,0,0,0,3.6,2.48c-4,.94-2.45,3-3.06,3S218.17,107.23,217.4,107.38Z" style="fill:#ff6427"/><path d="M127.75,140.2c-.61,1.36-.77,2.34-2.46,3.26s-2.15,4.45-2.15,4.45a18.64,18.64,0,0,1-4,1.37c-2.45.61-2.15,1.39-5.22-.91s-2,2.92-6.6,0A45.85,45.85,0,0,1,98,139.63c3.73,1.23,4.25.3,4-.93s4.69.77,4.23,0,4.14,0,4-1.23,2.76-1.53,1.72-3.39,2.42-.29.89-2.29-.62-9.92-.62-9.92l11.47.15h.82s.92,4.4.15,4.09,3.07,4.61,2.3,4.93,1.38,3.82.77,4.13S128.36,138.85,127.75,140.2Z" style="fill:#2b2b2b"/><path d="M112,134.08c1,1.86-1.87,2.16-1.72,3.39s-4.45.46-4,1.23-4.47-1.23-4.23,0-.28,2.16-4,.93a103,103,0,0,1-6.65-8.76C86.31,123.43,72,120.6,71.11,120.43c8.72.91,22.39,1.2,41.13,1.44,0,0-.92,7.93.62,9.92S110.93,132.23,112,134.08Z" style="fill:#ff6427"/><path d="M132.82,138.23c-1.54,8.58-8.14,9.07-9.68,9.68,0,0,.46-3.53,2.15-4.45s1.85-1.9,2.46-3.26-.61-4.72,0-5-1.54-3.81-.77-4.13-3.07-5.24-2.3-4.93-.15-4.09-.15-4.09S134.35,129.64,132.82,138.23Z" style="fill:#414142"/><path d="M226.15,110.8c-.77,8.71-4.74,11.47-5.75,12.09s-.7,1.84-2.23,2.3-1.57,2.61-3.55,2.76-4,1.69-5.51,2.15-2.45,1.85-4.45,1.69-5.22,1.08-6.14,1.08-1.54.92-2.92.92a38.66,38.66,0,0,1-22.28-3.87,38,38,0,0,0,7.24.44s1.53-.72,10.13-.1,15.51-1.69,15.51-2.61,2.76-1.08,2.76-1.85,3.38,0,3.84-1.38,2-1.23,2-2.4,3.23-1,3.38-1.6,2.61-2.14,2.3-4.34,2-1.48,1.38-2.71,2.92-2.61,1.23-4.91-3.69-8.11-3.69-8.11C222.75,102.38,226.59,105.82,226.15,110.8Z" style="fill:#414142"/><path d="M221.85,113.37c.62,1.23-1.68.52-1.38,2.71s-2.15,3.71-2.3,4.34-3.38.44-3.38,1.6-1.53,1-2,2.4S209,125,209,125.8s-2.76.93-2.76,1.85-6.91,3.22-15.51,2.61-10.13.1-10.13.1a38,38,0,0,1-7.24-.44,40.38,40.38,0,0,1-10.45-7.76c3.35.56,10.28,1.76,11.55,2.57,1.69,1.07,3.07-.77,4.6,0s3.53.08,4.61.34,1.38-3.43,4.14-1.51,2.44,1,4.68,1,2.39-1.41,4.38-1,3.69-4.07,5.07-3.14,2.45-1.52,4.3-1.22,1.53-2.85,3.83-3.12,4-4.25,5.38-4.25,1.22-4.29,2-4.45-1.69-4-1.07-4-1-2.1,3.06-3c0,0,2,5.8,3.69,8.11S221.24,112.14,221.85,113.37Z" style="fill:#2b2b2b"/><path d="M279.52,81.29c-1.48.81.16,4.71-1.68,5.11s-4.91,2.25-3.48,4.51,1.64,3.88-2.26,3.47-3.5,1.64-2.26,2.67-3.88-1.19-2.65,1-4.91-.18-3.27,2.26.81,3.66-2.26,3-5.52-.41-4.7,1-4.51-.41-3.07,1.84-2.15,3.74-2.15,3.74a3.58,3.58,0,0,0-.06-.38.81.81,0,0,0,0-.2,5.88,5.88,0,0,0-.22-.84,11.76,11.76,0,0,0-2.56-8.23c-3.07-3.51.31-2.18,5.53-2.48s8.9.46,1.07-1.69-9.82-5.53-5.68-4.46,9.68,2.15,12.13.93-3.68-.16-11.67-3.54-6.44-4.75-1.84-2.45,20.42,1.53,22,0-13,.31-21.49-3.53-6.75-4.61,5.07-2.69,17.81-1.15,11.67-1.68-22-3.77-22-4.47,8.67-.68,24.94-.07,2.46-3.37-7.83-4-18.27-2.9-12.89-4,20.88-.92,19.19-1.69-12-1.23-18.42-.92,2.61-2.46,11.18-4.76-1.05-1.23-6.43.2-7.06.88-5.06-.66,11.21-6.75,10.13-6.75-14.81,7.41-14.81,7.41h0l.18-.31c.15-.25.31-.47.45-.67l.18-.23.17-.21.16-.18.17-.17a1.29,1.29,0,0,1,.17-.16l.15-.13a2.83,2.83,0,0,1,.48-.34l.15-.1.46-.25c1.64-.82.21-2.86,2.87-3.27s10.1-5.21,10.57-5.51h0c.21,0,4.9,1.24,2.5,2s6.75,0,2.45,2.66-4.5,4.4-.61,3.22,8.39-1,4.71.87-2.46,3.07.61,3.48,6.35,2.46,3.07,3.48-1.78.82,1.37,1.64,5,2.45,2.52,3.48-.39,3.25,1.14,3.06,3,1.85,1.11,2.47,1.44,5.3.21,5.11S281,80.47,279.52,81.29Z" style="fill:#e36125"/><path d="M222.47,52.16s-4.17,2-3.08-1.58-1.3-7.67-3.11-8-.72-4.15-2.1-3.84-2.3-3.25-3.07-3.54-2-4.44-3.69-4-2.15-2-4-2.15-5.52-4.3-6.6-4.3-1.41-2.61-3.62-2.15-2.06-1.75-3.75-1.49-2.76-3.59-4.91-2.73-1.69-.49-4-.12-7.62-1.09-12.56,1c10.74-6,15.44-3.91,16.7-4.17s2.77.9,4.08.75,3.45,2,4.43,2.53A24.55,24.55,0,0,0,199.75,20c2,.16,2.76,2.15,4,1.83s3.07,2.32,4.91,2.78,3.53,3.38,4.45,3.07,2.15,2.61,3.18,2.76,2,3.23,2.66,3.1,1.38,3.66,2.6,4,1.39,2.15,2,6C223.9,45.77,223.16,49.48,222.47,52.16Z" style="fill:#2b2b2b"/><path d="M268.52,74.22c-16.27-.61-25-.63-24.94.07s15.89,3.94,22,4.47.15,3.61-11.67,1.68-13.51-1.15-5.07,2.69,23,2,21.49,3.53-17.34,2.3-22,0-6.14-.92,1.84,2.45,14.13,2.31,11.67,3.54-8,.15-12.13-.93-2.15,2.31,5.68,4.46,4.15,1.39-1.07,1.69-8.6-1-5.53,2.48a11.76,11.76,0,0,1,2.56,8.23,11.24,11.24,0,0,0-1.32-2.84l-.2-.31a14.22,14.22,0,0,0-1.42-1.79l-.39-.4c-.25-.24-.5-.48-.78-.73l-.58-.48-.63-.48c-5.32-3.89-6.55-6.76-5.12-6.76s-1.92-4.71-.55-5.32-1-5.11-.34-5.32-3.19-5.73-.13-15.76c.37-1.21.72-2.29,1.05-3.26.06-.16.11-.32.16-.47l0,0,.24-.67q.12-.35.24-.66c0-.1.08-.22.11-.31s.12-.3.17-.44c.3-.75.58-1.41.85-2,.06-.13.12-.26.19-.39l.2-.41c.13-.25.26-.48.38-.69,0,0,13.74-7.41,14.81-7.41s-8.14,5.22-10.13,6.75-.31,2.09,5.06.66,15-2.5,6.43-.2-17.63,5.07-11.18,4.76,16.73.15,18.42.92-13.82.62-19.19,1.69,2.61,3.35,12.89,4S284.79,74.84,268.52,74.22Z" style="fill:#f06624"/><path d="M193.21,97.87c-11.9,7.11-26,10.52-36.16,12.15-1-5.37-2.66-12.47-5.15-17.06,5.66-2.64,13.06-6.53,23.69-12.52C192.89,70.7,209.88,65,208,74.53S214.79,85,193.21,97.87Z" style="fill:#ff6427"/><path d="M157.05,110a116.88,116.88,0,0,1-14.1,1.47c-17.5-.2-6.6-12.6,0-14.85a93.28,93.28,0,0,0,9-3.68C154.39,97.55,156.06,104.65,157.05,110Z" style="fill:#f0eae7"/><path d="M216.28,55c-9.46,5.82-24.82,11.92-41.81.4a74.81,74.81,0,0,0-16.37-8.11c0-.55,0-1.16.08-1.86a132.44,132.44,0,0,1,2.87-18.33q3.78,1.11,7.69,2.36s29.47,13.3,38.07,21.29l.48.42c.23.2.47.39.7.56l.32.23q.27.2.54.36l.54.33.48.27c.42.23.84.43,1.28.63l.56.22c.21.09.42.17.64.24s.4.14.61.21l.72.21.74.19c.3.08.62.15.92.21l.82.15Z" style="fill:#e36125"/><path d="M44.29,90.56c-5.12,9.76-11.26,10-20.06,6.28S14,91,17.07,90.56c0,0,19-1.7,25.79-14S49.4,80.81,44.29,90.56Z" style="fill:#ff6427"/><path d="M36.91,57.41a2.27,2.27,0,1,1,2.26,2.27A2.26,2.26,0,0,1,36.91,57.41Z" style="fill:#e6dfd9"/></g></g></svg>