<svg xmlns="http://www.w3.org/2000/svg" viewBox="0 0 248.08 231.06"><title>Asset 9</title><g id="Layer_2" data-name="Layer 2"><g id="Ñëîé_2" data-name="Ñëîé 2"><path d="M24.73,112.81a5.42,5.42,0,1,1,6-4.81A5.42,5.42,0,0,1,24.73,112.81ZM143,91.49a16.24,16.24,0,0,0-2-1.77c-5,5.57-15.17,5.35-20.4,1.3-4.79-3.7-7.82-6.84-30.53-10h0c-2.11-.31-4.39-.6-6.86-.91-13.82-1.68-28,.1-41.32,4.08a89.68,89.68,0,0,0-14.27,5.5c-4.9,2.46-8.87,7.23-12.73,10.82-3.11,2.89-6.65,6.32-10.73,7.77-2.38.84-3.91,2.22-4.16,4.11,0,0,5.2,2.42,7.94,5.33s3.09,3.71,5.13,5c1.22.77,1.28,1.82.2,3.19a103.72,103.72,0,0,0,15.26,4.88c23.53-10.3,14-27.89,16.27-26.68,1.86,1,3.92,4.44,4.73,5.92.12-12.33,3.64-11.26,4.89-9.25s.7,1.59,3.23.34l1.21-.61c.81.76,1.71,1.81,1.62,2.71-.18,1.62,4.13,2.58,3.34,3.87s1.84,4.2,1.14,4.62,1,5.61.4,5.48-.36,7.1-.64,7.07,1.14,2.08-.26,2.91-6,3.78-7,5.47-9.89.75-10.18-1.08-2.86-2.05-1.32-8.93h0c.08-.12.17-.22.24-.34-3.57,4.77-9.25,8.34-11.87,9.83q3.44.7,7.09,1.33c4.59.76,9.4,1.39,14.34,1.85,3.33.32,6.71.56,10.11.7s6.81.2,10,.16A146.17,146.17,0,0,0,92.8,135c13.26-1.73,22.83-5.14,27.7-8.88,6.17-4.74,15.14-3.61,18.47-3,.83.16,1.31.29,1.31.29,6.43-3,7.1-7.3,8.18-17.43C149.2,99.06,145.46,94,143,91.49Zm-39.11.15c-2.21,2.37-8.8,1.34-22.25.24s-17.49.09-28,3.22-17.18,1.76-18-3.23c-.64-4.12,4.23-6,9.45-6.9,4.26-.77,8.75-.89,10.63-1.13a118.91,118.91,0,0,1,29.92-.42c5.09.65,10.56,1.68,15.06,4.29C101.56,88.14,105.17,90.27,103.91,91.64Z" style="fill:#e7e9f2"/><path d="M64.5,127.13c-1.4.84-6,3.78-7,5.47s-9.89.75-10.18-1.08-2.86-2.05-1.32-8.93h0c.08-.12.17-.22.24-.34.26-.36.51-.74.74-1.13a1.84,1.84,0,0,1,1.1,2.27c-.78,2.2-2.21,5.32-.68,5.37S48.26,127.2,49,124s1.82.3,3.28,5,3.46,3.31,2.41.26-4.18-8.19-2.45-6,6.11,5,7.33,3.83-5.62-3.54-6.12-5,4,.18,7.33.75-3.11-1.41-5.1-2.83,1.95-.33,6.26.13-.28-1.45-4.51-1.69-1.32-1.88,3.18-4.23,1.17-1.73-4.15.87-2.43,1.59,1.12-5.11-.21-5.15-1.43-.92-4.3,8.69-4.34,7,1.74-5.1,1.52-10.16-.68-.81-2,3.62c-.67,2.2-1.3,2.32-1.76,1.87,0-.49,0-1,0-1.41v0c.12-12.33,3.64-11.26,4.89-9.25s.7,1.59,3.23.34l1.21-.61c.81.76,1.71,1.81,1.62,2.71-.18,1.62,4.13,2.58,3.34,3.87s1.84,4.2,1.14,4.62,1,5.61.4,5.48-.36,7.1-.64,7.07S65.9,126.3,64.5,127.13Z" style="fill:#b82d1c"/><path d="M55.71,120c2,1.42,8.41,3.41,5.1,2.83s-7.83-2.2-7.33-.75,7.33,3.81,6.12,5-5.6-1.68-7.33-3.83,1.4,3,2.45,6-1,4.47-2.41-.26-2.5-8.22-3.28-5-.07,4.77-1.59,4.73-.1-3.17.68-5.37a1.84,1.84,0,0,0-1.1-2.27,17.22,17.22,0,0,0,2.56-9.34v-.35c.46.45,1.09.33,1.76-1.87,1.34-4.43,1.79-8.67,2-3.62s-1.56,8.45-1.52,10.16,3.13-2.76,4.34-7,5-5.79,1.43.92-6.44,7.7-1.12,5.11,8.65-3.22,4.15-.87-7.4,4-3.18,4.23,8.82,2.15,4.51,1.69S53.72,118.63,55.71,120Z" style="fill:#474fad"/><path d="M13.31,125.87a29.66,29.66,0,0,1-8.1-4.68c-4-3.63-5.48-6.59-5.17-8.85,0,0,5.2,2.42,7.94,5.33s3.09,3.71,5.13,5C14.33,123.45,14.39,124.5,13.31,125.87Z" style="fill:#d6d9e5"/><path d="M25.88,102a5.42,5.42,0,1,0,4.82,6A5.43,5.43,0,0,0,25.88,102Zm-.9,8.41a3,3,0,1,1,3.35-2.7A3,3,0,0,1,25,110.45Z" style="fill:#fff"/><path d="M28.33,107.75a3,3,0,1,1-2.7-3.34A3.05,3.05,0,0,1,28.33,107.75Z" style="fill:#2b2b2b"/><path d="M103.91,91.64c-2.21,2.37-8.8,1.34-22.25.24s-17.49.09-28,3.22-17.18,1.76-18-3.23c-.64-4.12,4.23-6,9.45-6.9,4.26-.77,8.75-.89,10.63-1.13a118.91,118.91,0,0,1,29.92-.42c5.09.65,10.56,1.68,15.06,4.29C101.56,88.14,105.17,90.27,103.91,91.64Z" style="fill:#eff1f9"/><path d="M47,121.11c-.23.39-.48.77-.74,1.13-3.57,4.77-9.25,8.34-11.87,9.83-2-.41-4-.86-5.84-1.32,23.53-10.3,14-27.89,16.27-26.68,1.86,1,3.92,4.44,4.73,5.92v0c0,.45,0,.92,0,1.41v.35A17.22,17.22,0,0,1,47,121.11Z" style="fill:#d6d9e5"/><path d="M215.8,84.52c-5.75,1.78,3.33,1.45-.27,2.47a58.41,58.41,0,0,0-7.93,3.14h0c-5.11.74-12.51,2.23-15.83,2.23-6,0,.73-2.21-4.44-1.2s-8.3-.33,1.09-2.59-.81-4.67,7.46-7.09-1.9-2.12,4.19-5.56,3.66-3.69-6.67,1.25-11.28,1.57-6.65-3.12-8.66,2.63-1.8-3.5-2.24-.41-8.19,1.74-3.05-3.6.5-9.26,3.19-5.38-.84-2.87-4.66.81,2-7.64C182,48,183.77,46,183.91,45.78c-.14.13-1.21,1.21-3.18,2.91-4.86,4.22-7.28,2.33-5.08-1.36s0,0-6.49,5.61-5.12-1-1.93-9.47-1.31-4.53-.67-9-4.27,3.25-5.75,9.47-1.42-3.58-1-7.46-.3-6.41-2.63-1.43-5.39,6.13-6.1.5-1.89-2.17-2.6,1.21.23,29.34-3.74.07-2.94-1.62-2.49,3.36-2.35,3.64-4.1.16-.35,7.3-.29,7.78c-2.66-7-5.91-12.85-7.29-16.41-1.68-4.38.86,4.52,3,14.09-.67-2.55-3.84-7.77-5.32-11.73s-1.36,5.09-1.36,5.09l-1-3.06c-5.37-17.26-10.52-33.82-3.71-20.54,3.48,6.78,3.51,1.19,3.35-4.36v0c-.18-6-.57-11.85,2.81-2.36,6.54,18.35,10.16,29.41,9.67,11.49s-.63-26.75,2.25-14.95,7.15,35.13,9.1,16.82,3.93-20.5,3.88-9.83-1.11,30.82,1.9,18.94S162,2,161.7,12.62s-1,31.7,3.31,18,8.48-26.34,7.38-16-.25,16.53,3.51,10,11.59-18.81,6.92-7.76-7.63,22.5,1.52,12.36,9.28-11.43,4.81-4.28-13.17,19.3-.42,8l1.17-1c-.35,2.35,2.08,3.1,3.45,1.63,1.85-2-1.46,4.53-6.11,9.26s-1.74,6.14.49,3.54,3.76,1.6,6.7-1.46-.87,6.11.62,4.42,4.21-1.72,8.41-6.4-3,6.11-11.19,13-3.9,7,1.22,3.43,13.88-12.17,6.55-4.78-4.24,8.15.29,5.51c2.24-1.31,4.15-4.26,5.21-6.2-2.43,5.62-2.66,5.69-7,10s.9,3.79,10.94-1.45,12.9-8.65,8-3.07-15.17,9.49-20.64,11.74.32,3.08,1.94,2.16,5.74-1.67,7.87-2.1,4.77,1.06-.33,3.13-2.51,2.89-1,2.62-.31,1.82,4.72.61,9.36-3.9,17.58-5.42-2.31,4.33-13,7.55S221.54,82.73,215.8,84.52Z" style="fill:#a81e13"/><path d="M244.05,112.05c-3.35-1.88-2.11-6.11.25-9.78s1-5.12-5.11-7.3.25-8.47-1.94-8.7-2.58-4-.2-5.91.54-7.13-3.14-7.31-3.75-7.8-.95-9.47-6.45-2.86-3.16-5.12.45-6.28-3.84-4.39-8,1.16-1.62-3.61-2.27-3.29-6.76-2-4.84-1.6-2.32-4.82-4.91-1-3.17-3-6-3-3-6.85-1.11-1.86-8.36,2.81-8.56.61-2.58-8.55c5.81-8.88,3.46-6.56-8.28,3.84-.35,2.35,2.08,3.1,3.45,1.63,1.85-2-1.46,4.53-6.11,9.26s-1.74,6.14.49,3.54,3.76,1.6,6.7-1.46-.87,6.11.62,4.42,4.21-1.72,8.41-6.4-3,6.11-11.19,13-3.9,7,1.22,3.43,13.88-12.17,6.55-4.78-4.24,8.15.29,5.51c2.24-1.31,4.15-4.26,5.21-6.2-2.43,5.62-2.66,5.69-7,10s.9,3.79,10.94-1.45,12.9-8.65,8-3.07-15.17,9.49-20.64,11.74.32,3.08,1.94,2.16,5.74-1.67,7.87-2.1,4.77,1.06-.33,3.13-2.51,2.89-1,2.62-.31,1.82,4.72.61,9.36-3.9,17.58-5.42-2.31,4.33-13,7.55,7,3.13,1.22,4.92,3.33,1.45-.27,2.47a58.41,58.41,0,0,0-7.93,3.14c4.2-.6,6.85-.7,4.39,1-5.46,3.66-8.35,6.29-4.48,6.71s-3.71,1.56,4.35,2.42c6.4.69,14,2,8.46,3.2.26,0,6.12-.14,11.39-.64s-4.73,2.54-12.18,3.87-1.46,2.51,4.5,2.85.58,1.67,5.88.93,3.25,2.31-3.61,3.21-.83,2.74,11.84,2.35-4.44,2.91-11.55,3.12,2.76,2.7.44,3,1.13,1.64-5.31.74-1.43,1.15,6.81,2.58,6.64,2.12-.15,1.4-9.74-.61-5.93,1.42-1.63,1-7.45-.56-2.74,1.12,4,4.78,2.83,3.36-.65,1.68-10.46-2.43-16.24-4.46,3.91,4.23,7.18,6.11,3.36,3.3,5.16,4.8,2.82,2.26,2.95,2.37h0c.92.2,1.93.46,3,.76,12.7,3.54,9.25,1.21-4-5.22s-3.25-4.27,14.19,1.74-5.66-4.1,4-2.86,7.73-.91,4.25-7.16-.71-9.66,5.64-11.94S247.41,113.94,244.05,112.05Zm-38.5-58.24a.14.14,0,0,1,0-.06C206.81,50.88,206.62,51.83,205.55,53.81Z" style="fill:#e7e9f2"/><path d="M227,122.11c-2.32.29,1.13,1.64-5.31.74s-1.43,1.15,6.81,2.58,6.64,2.12-.15,1.4-9.74-.61-5.93,1.42-1.63,1-7.45-.56-2.74,1.12,4,4.78,2.83,3.36-.65,1.68-10.46-2.43-16.24-4.46,3.91,4.23,7.18,6.11,3.36,3.3,5.16,4.8,2.82,2.26,2.95,2.37c-9.78-2.2-9.74,1.18,4.21,12.23,15.27,12.09,12.09,13.27-.58,5.38s8.73,10.09,1.3,6.25c-7.26-3.76,4.46,7.17-8.42,1l-1-.5a41.71,41.71,0,0,0-6.57-2.78l-.09,0h-.06l-.6-.14a18.3,18.3,0,0,1-2.71-3.18c-3.32-4.55-5.2-8.45-2.17-6.17s-8-10.87,3.6-2.12,13.81,10.56,8.25,5.42-8.84-10.08-6.61-8.52.6-2.75.6-2.75c2,.29,1.93-1.3-.9-4.37a38.57,38.57,0,0,0-2.84-2.74c-7.62-6.69-8.26-5.29.65-3s4.92-.13.15-1.36-2.58-8-9.39-10.09,8.62-2.67-1.68-5.62-1.67-2.74,4.31-2.11,2.84-2.14-3.42-3.21-4.25-3,7.69-1.56-2.08-3.49-10.37-5.45,5.76-1.9,22.41-3.23a58.5,58.5,0,0,0,7.12-.88h0c.26,0,6.12-.14,11.39-.64s-4.73,2.54-12.18,3.87-1.46,2.51,4.5,2.85.58,1.67,5.88.93,3.25,2.31-3.61,3.21-.83,2.74,11.84,2.35-4.44,2.91-11.55,3.12S229.35,121.81,227,122.11Z" style="fill:#a81e13"/><path d="M189.23,189.43c-3.56-5.73-6.06-10.42-7.51-13.2,0,0,.55-1.16,2.82,1,1.39,1.34,2.94,1.13,4.65,2C193.35,191.76,198.08,203.64,189.23,189.43Z" style="fill:#e7e9f2"/><path d="M175.61,188.41c-2.94-5.11-7.34-17.34-5-4.88s.1,17.22-1.31,12.28c-.69-2.44-2.14-6.74-3.36-10.11,0,0-.55-8.07-1.09-11.29s-2.11-10.79.64-5.92,2.92,8.37,4,7.39,4-1,5.49,2.75l.06.14q.47,1.24,1,2.73C184,201.73,178.55,193.52,175.61,188.41Z" style="fill:#e7e9f2"/><path d="M149,198.64c-.15-2.33-.24-4.69-.31-6.9h0c.06-.24,1.57-6,1.56-9s-.35-8.82.35-5.77,1.18,7.15,2,9.51c0,.36,0,.76,0,1.2C152.4,197.7,149.84,211.37,149,198.64Z" style="fill:#e7e9f2"/><path d="M145.34,189.73v0c-3.06,13.49-5.27,21.06-4.12,6.54.23-3,.41-5.54.51-7.7h0c.46-.94.91-1.84,1.23-2.46.95-1.86,2.24-11.85,2.51-9.26C145.66,178.72,145.24,185.21,145.34,189.73Z" style="fill:#e7e9f2"/><path d="M146.17,155c-.17,1.62-.43-9.69-1-18.24s-2.79-17-2.67-8.79.34,7.4-1.16,10.83-3.32,1.81-2.69-10.05a103.41,103.41,0,0,1-6.74,29c-.53,1.34-1.1,2.69-1.71,4,0,0,1.73,1.05,5.45-4.93a24.83,24.83,0,0,0,2.68-6.18A100.93,100.93,0,0,1,132.85,171c-3.55,8.78-3.13,11,.8,4.55s5.9-12.16,7.43-20.34,2.29-4.65,2,.87-1.28,15.07-.12,19.44S144.47,167.87,146.17,155Z" style="fill:#474fad"/><path d="M110.18,143.69c-.82-2.35-5-.06-5.19-2.26-.2-2.47-3.71-2.19-4.94,3.23s-4,4.81-3.66.57-2.15.28-2.1-3.8-1.78-1.17-4.14,3.81-1.52,2.29-1.53-3.76-1.94,2.9-2.82,8-7.39,14.09-5.63,8.36a135.43,135.43,0,0,0,3.54-16.32c.5-3.11-3.51-.81-3.45-2.92s-2.3-1.39-3,1-1.71.63-1.53-1l.27-2.52A146.17,146.17,0,0,0,92.8,135a6.34,6.34,0,0,1,.58,1.28c.05.46,3.49-2.12,3.74-.4s5.83,3.57,6.48,1.54,2.63-3.34,3.15-1.55S110.16,136.47,110.18,143.69Z" style="fill:#d7e5ff"/><path d="M134.44,203.43a26.26,26.26,0,0,1-7.76-8.7c-.84-1.72-2,5-3.1,2s.16-19.92.77-25.57,1.17-7.89-2.18-2.52-4.26,10.82-5.78,20.46-2.4,19.35-3.31,6.51S125,158.77,118.2,169s-14.46,44-12.82,31.34,15.89-44.74,11.83-37.33-4.9,9.12-5.37,7.43-3.37,2.42-3.38-.52-.33-1.51-7,12.2S89.73,196.84,94.55,190s11.87-22.4,8.89-19,.6-4,.61-5.66-4.6,7.85-7.25,12.79-3.62,4.85-5.66,5.44-8.15,10.57-5.6,8.2c.67-.64.8-.41.57.31a5.31,5.31,0,0,1-4.36,2c2.16-2.74,4.76-6.33,8.39-11.78,6.61-9.91,3.26-13.7.74-6.94A54.7,54.7,0,0,1,88,181.67c-.57-1.14-1.59-2.83-2-1.74-.6,1.57-.67,3.22-3.34,5.75s-5.37,2.38-2.79-.3,7.36-10.77,5.26-8.49-1.69-2.5-3.83-.86-3.62,1.38-1-2.7-.21-3.93-.21-3.93a2.49,2.49,0,0,0,.1-.49c0-.34-.08-.39-.34-.1-1.48,1.64-2-.71-2.41-1.89s-1.18,1.84-4.27,10.82-9.55,16-12.11,17.85-2.13-.74-.6-2.86,1.78-2.92-1.14-2.09l-.88.27c6.2-5,12.53-11.87,13.62-20.1,2.2-16.54-.61-4.42-2.27.85s-2.35,5.63-2-2A105.14,105.14,0,0,0,72,155.52c1-5.73-1.53-8.19-2.08-6.06s.26-5.42-1.34-3.74-5.47,2.25-4.63-.5-3.9-5.32-4.82-2.8-1.54,1.14-1.24-.68-2.51-2.82-2.08-6.49c3.33.32,6.71.56,10.11.7s6.81.2,10,.16l-.27,2.52c-.18,1.61.78,3.35,1.53,1s3.11-3.1,3-1,3.95-.19,3.45,2.92a135.43,135.43,0,0,1-3.54,16.32c-1.76,5.73,4.76-3.22,5.63-8.36s2.81-14.08,2.82-8-.84,8.74,1.53,3.76,4.19-7.89,4.14-3.81,2.39-.45,2.1,3.8,2.42,4.86,3.66-.57,4.74-5.7,4.94-3.23c.18,2.2,4.37-.09,5.19,2.26h0a2.81,2.81,0,0,1,.15,1.08c-.11,4.07,1.77,7.87,2.24,3.51s2.91-8.86,3.8-6.55,5-4,4.69-1,4-3.38,2.61,3.83-1,12.07-3,16.15,1.66,1.2,3.16-3.87,4.13-1.19,2.24,3.28c-1.8,4.26-.55,6.06,5.8-2.44-.53,1.34-1.1,2.69-1.71,4,0,0-2.61,19.53,2.07,35.71A45.28,45.28,0,0,0,134.44,203.43Z" style="fill:#3a4699"/><path d="M88,181.67c-2.5,4.74-5.42,9.17-6.7,11.65-1.86,3.56-7.59,5.23-6,2.43s-4.49.7-3.31-1.14,2-5-.89-2.38-4.32,2.15,1.22-6.89c4.18-6.82,7.15-13.67,7.73-15.94,0,0,2.82-.16.21,3.93s-1.12,4.34,1,2.7,1.73,3.14,3.83.86-2.69,5.82-5.26,8.49.13,2.84,2.79.3,2.74-4.18,3.34-5.75C86.4,178.84,87.42,180.53,88,181.67Z" style="fill:#b82d1c"/><path d="M141.17,213.06a28.35,28.35,0,0,1-6.72-9.63h0a26.26,26.26,0,0,1-7.76-8.7c-.84-1.72-2,5-3.1,2s.16-19.92.77-25.57,1.17-7.89-2.18-2.52-4.26,10.82-5.78,20.46-2.4,19.35-3.31,6.51S125,158.77,118.2,169s-14.46,44-12.82,31.34,15.89-44.74,11.83-37.33-4.9,9.12-5.37,7.43-3.37,2.42-3.38-.52-.33-1.51-7,12.2S89.73,196.84,94.55,190s11.87-22.4,8.89-19,.6-4,.61-5.66-4.6,7.85-7.25,12.79-3.62,4.85-5.66,5.44-8.15,10.57-5.6,8.2c.67-.64.8-.41.57.31a64.84,64.84,0,0,1-5.25,9.84c-2,2.9-4.47,3.61-4.37,2.64S73.05,206.17,68,211s-1.25-2,1.84-5,.23-2.1,1.51-3.43,2.36.9,5.7-2.83c1.5-1.67,3-3.36,4.74-5.61,2.16-2.74,4.76-6.33,8.39-11.78,6.61-9.91,3.26-13.7.74-6.94A54.7,54.7,0,0,1,88,181.67c-2.5,4.74-5.42,9.17-6.7,11.65-1.86,3.56-7.59,5.23-6,2.43s-4.49.7-3.31-1.14,2-5-.89-2.38-4.32,2.15,1.22-6.89c4.18-6.82,7.15-13.67,7.73-15.94a2.49,2.49,0,0,0,.1-.49c0-.34-.08-.39-.34-.1-1.48,1.64-2-.71-2.41-1.89s-1.18,1.84-4.27,10.82-9.55,16-12.11,17.85-2.13-.74-.6-2.86,1.78-2.92-1.14-2.09l-.88.27-.74.59c-.93.73-1.86,1.43-2.75,2.07-3.77,2.73-7.08,4.69-8.54,5.75a2.67,2.67,0,0,0-.78.7c-.61,1.2-1.05,2,1.29,2.14a32,32,0,0,0,3.93-.06c6.58-.38,8.52-.18,3.84,2.59-2.73,1.61-2.65,2.86-1.33,3.23a6.33,6.33,0,0,0,4.19-.75c4-2,.31,4.83,6.15,1.1s4.25,1.11-2.19,6.3,2.69,3.34,9.05-3.18,6.21-3,2.57,2.46,3.16-1,9.13-8-1.84,7-5.28,12.73-1.55,6.37,1.22,4.92,6.54-2.13,8.75-6.47,1.62,5.18,3.71.83,4.28-2.16,2.18,5.25-.64,12.13,3.19,2.51,7.16-28,7.35-17.51S107,220.74,110,224.53s-.42-1.12-.43-9.18,4-.67,4.57,6.15,3.74,3,3.82-3.08,4,3,3.81-3.08,4.49,7.41,7.67,9.76-1.17-2.78-3.36-13.44-.58-8.78,3.77,0,7.6,11.92,4,2.17-7.81-18.05-5.27-13.42,8.26,12.65,12.31,15.48S141.17,213.06,141.17,213.06Zm-50.7-18c-1.1,2.11-1.83,3.91-3.93,5.21s-2.57.6-2.09-.87a9.62,9.62,0,0,1,.88-2.09,31.62,31.62,0,0,0,2-4.44c.79-2.29,2-2.75,4.73-5.52S91.57,193,90.47,195Zm12.89-3.35c-2.57,4.63-1.47,6.61-2.4,8.17s-3.19,2.35-4.36,3.55-.67-.3.07-3.17,1.11-5.32,1.11-5.32c2-5.57,2.58-2.67,5-8.08S105.92,187.07,103.36,191.69ZM119,202.84c.06-4.46.28-6.72.1-11.21s.78-11.35,1.38-12.92.45,1.89,1,5a51.93,51.93,0,0,1,.11,9.23C120.05,208.75,118.9,207.3,119,202.84Z" style="fill:#e7e9f2"/><path d="M86.11,192.09a64.84,64.84,0,0,1-5.25,9.84c-2,2.9-4.47,3.61-4.37,2.64S73.05,206.17,68,211s-1.25-2,1.84-5,.23-2.1,1.51-3.43,2.36.9,5.7-2.83c1.5-1.67,3-3.36,4.74-5.61A5.31,5.31,0,0,0,86.11,192.09Z" style="fill:#b82d1c"/><path d="M72,155.52a105.14,105.14,0,0,1-4.24,14.18c.38-7.58-3.39,1.17-3-6.2s-1.5-13.53-1.61-8.93-3.62.31-2.77-3.31c.46-2-1.53-4.5-4-6.53a19.46,19.46,0,0,0-5.84-3.45c-3.25-1-8.44-2.94-9.06-7.88,4.59.76,9.4,1.39,14.34,1.85-.43,3.67,2.37,4.8,2.08,6.49s.31,3.2,1.24.68,5.66.05,4.82,2.8,3,2.18,4.63.5.79,5.85,1.34,3.74S73.08,149.79,72,155.52Z" style="fill:#d7e5ff"/><path d="M59,155.69c-2.08-3.71-3.07,2.94-4.18-.89s-3.44-2.54-2,4.15-4-7.61-8.11-16.11-1.16,1,.73,9,5.35,18,3.74,14.78,0,0-.49,4.53c-.15,1.46.45,4.33,1.33,7.55-1.14.73-3.34-.75-4.35-3.73-1.49-4.41-2.25-1.88-.26,5.53s-1.62,4.4-3.12-2.23-5.23-14.52-5.78-9.35-3,11.77-3.14,6.52-.34-6.07-2.12-3.16-.38-5.59,0-14.87.14-5.87-4.78,1.94-3.06,5.72-3.92,3c-.53-1.7-2.2,1.61-3.35,4.29a73.22,73.22,0,0,1,15.27-34.58q3.44.7,7.09,1.33c.62,4.94,5.81,6.9,9.06,7.88a19.46,19.46,0,0,1,5.84,3.45C59.56,149.76,61.05,159.39,59,155.69Z" style="fill:#474fad"/><path d="M44.73,193.85c.2,2.23-1.8,8.71-3,3.79s0-18.3-2.86-9.24c0,0-1.3-10.07-1.41-12.52s-2.12,2.56-3.43,10.26-1.13,7.56-2.08,2.72-2.41-6.63-2.59-1.91-.21,8.15.24,10c.29,1.16-1.87-2.46-3.43-3.92a40.29,40.29,0,0,0-.81-5.2c-1.82-7.38-1.95,5.89-2.53,9.32s-1.16,19-2.33,6.51,2.14-33.33.87-30.63a84.71,84.71,0,0,0-3,8.61,71.31,71.31,0,0,1,.78-15c1.15-2.68,2.82-6,3.35-4.29.86,2.71-1,4.8,3.92-3s5.12-11.22,4.78-1.94-1.73,17.79,0,14.87,2-2.09,2.12,3.16,2.59-1.34,3.14-6.52,4.28,2.72,5.78,9.35,5.1,9.63,3.12,2.23-1.23-9.94.26-5.53c1,3,3.21,4.46,4.35,3.73,1.84,6.7,4.91,14.87,4.91,14.87-3.77,2.73-7.08,4.69-8.54,5.75C45.56,195.28,44.63,192.76,44.73,193.85Z" style="fill:#d7e5ff"/><path d="M30.07,206.2c-3.55-8-1.76-5.41-2.63.59-.69,4.85-.45-5.64-1.29-13.76,1.56,1.46,3.72,5.08,3.43,3.92-.45-1.85-.41-5.28-.24-10S31,184,31.93,188.86s.76,5,2.08-2.72,3.32-12.71,3.43-10.26,1.41,12.52,1.41,12.52C36,197.47,38.2,210.12,36,206.62s-.23,2.15.08,8.07S33.62,214.21,30.07,206.2Z" style="fill:#a81e13"/><path d="M54.66,204.69c-2.73,1.61-2.65,2.86-1.33,3.23-.75,13.74-7.31,16.77-6,6.66a46.2,46.2,0,0,0-.42-12.42,32,32,0,0,0,3.93-.06C57.4,201.72,59.34,201.92,54.66,204.69Z" style="fill:#d7e5ff"/><path d="M119,202.84c.06-4.46.28-6.72.1-11.21s.78-11.35,1.38-12.92.45,1.89,1,5a51.93,51.93,0,0,1,.11,9.23C120.05,208.75,118.9,207.3,119,202.84Z" style="fill:#3a4699"/><path d="M103.36,191.69c-2.57,4.63-1.47,6.61-2.4,8.17s-3.19,2.35-4.36,3.55-.67-.3.07-3.17,1.11-5.32,1.11-5.32c2-5.57,2.58-2.67,5-8.08S105.92,187.07,103.36,191.69Z" style="fill:#b82d1c"/><path d="M90.47,195c-1.1,2.11-1.83,3.91-3.93,5.21s-2.57.6-2.09-.87a9.62,9.62,0,0,1,.88-2.09,31.62,31.62,0,0,0,2-4.44c.79-2.29,2-2.75,4.73-5.52S91.57,193,90.47,195Z" style="fill:#3a4699"/><path d="M131.92,157.69c-6.35,8.5-7.6,6.7-5.8,2.44,1.89-4.47-.74-8.35-2.24-3.28s-5.07,8-3.16,3.87,1.61-8.94,3-16.15-2.94-.8-2.61-3.83-3.79,3.31-4.69,1-3.34,2.18-3.8,6.55-2.35.56-2.24-3.51a2.81,2.81,0,0,0-.15-1.08h0c0-7.22-2.9-6.05-3.43-7.85s-2.49-.48-3.15,1.55-6.23.18-6.48-1.54-3.69.86-3.74.4A6.34,6.34,0,0,0,92.8,135c13.26-1.73,22.83-5.14,27.7-8.88,6.17-4.74,15.14-3.61,18.47-3,0,1.48-.12,3.38-.31,5.61A103.41,103.41,0,0,1,131.92,157.69Z" style="fill:#b82d1c"/><path d="M197.43,182c-10.3-7.64-13.14-17.75-8.87-4.66.2.64.42,1.28.63,1.92-1.71-.89-3.26-.68-4.65-2-2.27-2.2-2.82-1-2.82-1-2.32-4.47-1.95-4,1,4.88,4.77,14.45,8,22.64.06,7.63-7.57-14.24-13.83-26.19-7.74-10.11-1.5-3.71-4.42-3.7-5.49-2.75s-1.26-2.52-4-7.39-1.16,2.71-.64,5.92S166,185.7,166,185.7c-1.27-3.49-2.31-6-2-4.42.54,3.11-2.08-.87-1.54,2.24s-.21,8-1.62,2.88-3-8.39-2.52,3.21-1.21,19.48-2.26,8.91c-1-10.11-3-19.93-3.38-12-.82-2.36-1.29-6.45-2-9.51s-.35,2.72-.35,5.77-1.5,8.73-1.56,9c-.29-9.79-.13-16.48-2.85-4.31-.18.78-.35,1.55-.53,2.31-.1-4.52.32-11,.13-12.87-.27-2.59-1.56,7.4-2.51,9.26-.32.62-.77,1.52-1.23,2.46.45-9-.26-10.77-2.88-2.79a38.71,38.71,0,0,1-6.57,11.65c-4.68-16.18-2.07-35.71-2.07-35.71s1.73,1.05,5.45-4.93a24.83,24.83,0,0,0,2.68-6.18A100.93,100.93,0,0,1,132.85,171c-3.55,8.78-3.13,11,.8,4.55s5.9-12.16,7.43-20.34,2.29-4.65,2,.87-1.28,15.07-.12,19.44,1.48-7.69,3.18-20.58c0,0,0-.1,0-.15.88-6.62.87-5.74,1.17-1.5a92,92,0,0,0,2.43,16.74c3.48,13.29,3,2.77.91-8.55s1.14-7.57,4,4.3,2,11.53,1-1.37,1.74-2.55,1-8.19,2.35,5.49,3.71,11.19,2.57,1.91,2.93-1.51,3.38.55,5.8,5.54,2.42,1.73,1.2-.68-1.55-6.87-4.15-14.67-.65-6.11,2.75.3,4.43,9,5.88,10.74,4,3.88,3.14,1.14,3.69,3.69,6.15,6.73-.21-2.63-.86-4.17,3.48.18.62-4.35a6.48,6.48,0,0,1-1.06-2.44l5,3.85h0c1.85,2.54,4,5.13,6,7.49h0C200.09,182.74,205.21,187.8,197.43,182Z" style="fill:#a81e13"/><path d="M139.92,74.24c-1.79-4.61-4.32-3.88-4.14-13.26.07-3.46-1-9.28-2.21-14.92,0-.08,0-.15,0-.24-2.09-9.57-4.63-18.47-3-14.09,1.38,3.56,4.63,9.42,7.29,16.41v0c2.54,6.7,4.53,14.43,3.78,22.18C141.65,70.34,141.72,78.84,139.92,74.24Z" style="fill:#e7e9f2"/><path d="M181.5,124.1c-14.05-4.6-28.87-12.23-27.76-10.64s16.08,11.36,20.56,13.8-1.86-.91-.48,1.47-1-.1-8-3.24-17.91-11.34-14.08-5.87,14.53,15.45,16.88,19.46-2.08,1.09-1.25,2.48-1.68.43-1.57,2.43-7.08-11.72-11.62-16.69-4.9-4-2.22,2.74a143.27,143.27,0,0,1,5.28,14.56c.81,3.15-1.19,2-1.41,4s-2.14-1.33-3.6-6-3.1-2.53-1.74,1.34-.11,2.73-.62,5.78a6.19,6.19,0,0,1-2.52,3.67c-.3-4.24-.29-5.12-1.17,1.5,0,0,0,.1,0,.15-.17,1.62-.43-9.69-1-18.24s-2.79-17-2.67-8.79.34,7.4-1.16,10.83-3.32,1.81-2.69-10.05c.19-2.23.28-4.13.31-5.61.83.16,1.31.29,1.31.29,6.43-3,7.1-7.3,8.18-17.43.74-6.92-3-12-5.44-14.49a162.46,162.46,0,0,0,4.41-20.21c2.08-13.34,6.6-5.18,2.6,7.8s-4.26,10.82,4.55-1.32S166.48,61.2,164.66,66s-2.46,7.68-.55,8.21-4.92,10.9-9.61,16.53,6.55-3.13,14.94-8.28,4.75-1.62,3.11,1.47-4.09,3.16.23,2.48-8.6,8.56-16.41,11.32,14.46,2.36,19.71,2.1-.72,2.16,2.52,2.45-5.7,2.91-15,2.34-7.16,1.29,6.38,3.06,3.73,3.26-8,1.8-15.67-1.71-.39,3.68S195.55,128.7,181.5,124.1Z" style="fill:#e7e9f2"/><path d="M220.32,103.42h0a58.5,58.5,0,0,1-7.12.88c-16.65,1.33-30.7,1.28-22.41,3.23s22.3,6.89,10.37,5.45-13.95.5-7.69,1.56,9.4,3.85,3.42,3.21-14.62-.85-4.31,2.11-5.12,3.57,1.68,5.62,4.61,8.87,9.39,10.09,8.76,3.62-.15,1.36-8.27-3.66-.65,3a38.57,38.57,0,0,1,2.84,2.74c2.83,3.07,2.86,4.66.9,4.37a12.39,12.39,0,0,1-4.15-1.76c-6.46-3.79,10.35,8.65-2.24,1.08s-23.11-13.09-18.72-9.85-2.82.35.16,3.12-4.7,1.13-.72,5.15,2.62,6.15-.72,3.75c-2.57-1.82-1.94,1.62,1.61,5.8h0a29.19,29.19,0,0,0,4.05,3.89c6.93,5.48,11.51,10,5,5.59s-13.18-9.67-9.44-4.93c2.8,3.55,1.18,3.51,1.39,5.18a6.48,6.48,0,0,0,1.06,2.44c2.86,4.53-1.28,2.81-.62,4.35s3.31,7.21.86,4.17-7-9.47-6.15-6.73-1.7.63-3.14-1.14-2.48-4.33-5.88-10.74-5.35-8.09-2.75-.3,2.94,12.25,4.15,14.67,1.22,5.68-1.2.68-5.43-8.94-5.8-5.54-1.58,7.21-2.93,1.51-4.42-16.83-3.71-11.19-2.11-4.71-1,8.19,1.85,13.24-1,1.37-6-15.61-4-4.3,2.57,21.84-.91,8.55a92,92,0,0,1-2.43-16.74,6.19,6.19,0,0,0,2.52-3.67c.51-3,2-1.92.62-5.78s.28-6.06,1.74-1.34,3.39,8.06,3.6,6,2.22-.83,1.41-4A143.27,143.27,0,0,0,152,130c-2.68-6.72-2.31-7.7,2.22-2.74S165.93,146,165.81,144s2.4-1,1.57-2.43,3.59,1.53,1.25-2.48-13.06-14-16.88-19.46,7.06,2.72,14.08,5.87,9.36,5.63,8,3.24,5,1,.48-1.47-19.45-12.21-20.56-13.8,13.71,6,27.76,10.64-4.64-5.55-19.91-10.94-11.38-5.14.39-3.68,21.57,0,8-1.8-15.63-3.63-6.38-3.06,18.2-2.05,15-2.34,2.74-2.7-2.52-2.45-27.52.66-19.71-2.1,20.73-12,16.41-11.32-1.86.62-.23-2.48,5.29-6.62-3.11-1.47-19.62,13.92-14.94,8.28,11.52-16,9.61-16.53-1.27-3.41.55-8.21-1.26-.37-10.08,11.76S146,92.05,150,79.08s-.52-21.14-2.6-7.8A162.46,162.46,0,0,1,143,91.49a16.24,16.24,0,0,0-2-1.77s-8.53-32.29-14.21-50.54c0,0-.17-9.17,1.36-5.09s4.65,9.18,5.32,11.73c0,.09,0,.16,0,.24,1.23,5.64,2.28,11.46,2.21,14.92-.18,9.38,2.35,8.65,4.14,13.26s1.73-3.9,1.73-3.9c.75-7.75-1.24-15.48-3.78-22.18v0c-.06-.48-1.43-11.17.29-7.78s4.55,4.81,4.1-.16-1.49-32.64,2.49-3.36,3,3.32,3.74-.07,1.9-6.84,2.6-1.21,3.77,4.48,6.1-.5,3-2.44,2.63,1.43-.48,13.67,1,7.46,6.39-13.92,5.75-9.47,3.87.49.67,9-4.55,15.09,1.93,9.47,8.68-9.3,6.49-5.61.22,5.58,5.08,1.36c2-1.7,3-2.78,3.18-2.91-.14.18-2,2.17-5.55,6.74-6.62,8.45-6,10.15-2,7.64s4.38-2.8.84,2.87-6.45,11.4-.5,9.26,15.06-7.87,8.19-1.74,6.44-1.2,1.8,3.5-3.69,8.06,6.65,3.12,12.75-4.69,6.67-1.25,4.07,3.14-4.19,5.56,1.93,4.82-7.46,7.09-6.27,3.62-1.09,2.59-1.6,1.22,4.44,1.2c3.32,0,10.72-1.49,15.83-2.23h0c4.2-.6,6.85-.7,4.39,1-5.46,3.66-8.35,6.29-4.48,6.71s-3.71,1.56,4.35,2.42C218.26,100.91,225.85,102.23,220.32,103.42Z" style="fill:#474fad"/><path d="M206.38,164.56h0c0,.05-.1.36-.75-.18l.6.14h.06Z" style="fill:#e7e9f2"/><path d="M141.05,89.72c-5,5.57-15.17,5.35-20.4,1.3-4.79-3.7-7.82-6.84-30.53-10h0c-.6-.68-1.17-1.38-1.7-2.08a154.31,154.31,0,0,0-3.69-15.61c-1.42-4.51.36-2.57,2.65.36,1.06,1.37,2.23,2.94,3.23,4.19,3.18,3.93-.81-1.56-4.1-12.12s-7.63-20.35-7.14-20.3,5.37,9.75,9.69,17.48v0c.1.43,1.78,7.35,4.18,10.13s3.13,2.79,2.7-1.83,3.54,1.52,4.06-1,3-1.31,3.86,6,1.38.8,2.16-6.47-1.17-1.27-2-7.57a82,82,0,0,0-2.85-12.67v0c0-.28-.07-.57-.11-.86-.85-5.81.51-12.37-.65-19.42s6,18,7.16,22.74,1.39-3.78,2.86-9.51c1.22-4.77,1.32-1.95,1.71,5.23.08,1.43.17,3,.28,4.8.67,10.54,1.25,14.34,1.55,8.41s7-5.87,8.21-8.52a48.75,48.75,0,0,1,3.68-6.16l1,3.06C132.52,57.43,141.05,89.72,141.05,89.72Z" style="fill:#d7e5ff"/><path d="M122.2,42.28l.87-8.08a30.7,30.7,0,0,1-1.27-6c-.43-3.64.08-10-2.92-3.25s-2.17,5.48-2.34,8.41-.25-1-1.27,2.48-3.11,1.77-3.11,1.77c-.39-7.18-.49-10-1.71-5.23-1.47,5.73-1.73,14.22-2.86,9.51s-8.31-29.8-7.16-22.74-.2,13.61.65,19.42c0,.29.09.58.11.86v0c.61,5.12-.56,6.61-2.26.85-1.81-6.07-6.62-20.64-5-10S99.92,51,95.82,45s-10.9-18.85-7.44-10A134.72,134.72,0,0,1,92.87,48.1c1.36,4.1-2.36-2.34-1.23,2.35s5.36,15.61.9,8.43c-1-1.62-2.21-3.71-3.48-6v0c-4.32-7.73-9.32-17.44-9.69-17.48s3.86,9.75,7.14,20.3,7.28,16.05,4.1,12.12c-1-1.25-2.17-2.82-3.23-4.19-3.49-6.32-2.35-7.85-3.88-10.3S78,40.76,77.72,40.13a.1.1,0,0,0,0,0,14.45,14.45,0,0,0-1.86-4.56c-2.46-3.53.69-4.34,3.41-2.25s2.85-3.78,2-7.91,2.13-1.62,1.67-4.94,2-1.42,3.61,1.37,3.67,2.35,3-7.91,1-5.23,4-1.15S96,13.16,95.25,9s5.36,1.88,4.15-3.64,1.78-2.92,3.18.84,6.37,13.74,6,6.68,0-6.54,2.1-4.36,3.9.26,5.4-4.65,4.56,4.74,5.92-.35,3.43,7.05,3.54,7.67v0c.16,5.55.13,11.14-3.35,4.36-6.81-13.28-1.66,3.28,3.71,20.54A48.75,48.75,0,0,0,122.2,42.28Z" style="fill:#b82d1c"/><path d="M88.41,78.89c-8.08-10.58-9.47-24-12.8-29.82-3.58-6.27-2-7.73.93-4.15,2,2.43,2.08-1.15,1.18-4.79C78,40.76,82,51,83.49,53.34s.39,4,3.88,10.3c-2.29-2.93-4.07-4.87-2.65-.36A154.31,154.31,0,0,1,88.41,78.89Z" style="fill:#3a4699"/><path d="M103.86,66.14c-.86-7.28-3.34-8.53-3.86-6s-4.5-3.59-4.06,1-.23,4.71-2.7,1.83-4.08-9.7-4.18-10.13c1.27,2.26,2.47,4.35,3.48,6,4.46,7.18.23-3.73-.9-8.43s2.59,1.75,1.23-2.35a134.72,134.72,0,0,0-4.49-13.05c-3.46-8.89,3.34,4,7.44,10S95.6,40.91,94,30.27s3.17,3.94,5,10c1.7,5.76,2.87,4.27,2.26-.85a82,82,0,0,1,2.85,12.67c.8,6.3,2.74.3,2,7.57S104.71,73.42,103.86,66.14Z" style="fill:#3a4699"/><path d="M123.07,34.2l-.87,8.08c-1.21,2.65-7.9,2.6-8.21,8.52s-.88,2.13-1.55-8.41c-.11-1.76-.2-3.37-.28-4.8,0,0,2.08,1.71,3.11-1.77s1.09.44,1.27-2.48-.66-1.71,2.34-8.41,2.49-.39,2.92,3.25A30.7,30.7,0,0,0,123.07,34.2Z" style="fill:#3a4699"/><path d="M200.75,155c-3-2.28-1.15,1.62,2.17,6.17a18.3,18.3,0,0,0,2.71,3.18c-3.54-.63-.09,3.4,4,7.31l.36.34c1.27,1.18,5.38,5.09,3.13,4-2.64-1.26-18.25-11.27-13-6.46s2.11,5.47-1.49,2.79-9.08-6.37-7.54-3.92-3-.4-3.19-.52h0l-5-3.85c-.21-1.67,1.41-1.63-1.39-5.18-3.74-4.74,2.89.48,9.44,4.93s2-.11-5-5.59a29.19,29.19,0,0,1-4.05-3.89h0c-3.55-4.18-4.18-7.62-1.61-5.8,3.34,2.4,4.71.27.72-3.75s3.69-2.38.72-5.15,4.23.12-.16-3.12,6.13,2.29,18.72,9.85-4.22-4.87,2.24-1.08a12.39,12.39,0,0,0,4.15,1.76s1.63,4.3-.6,2.75,1,3.39,6.61,8.52,3.34,3.34-8.25-5.42S203.77,157.32,200.75,155Z" style="fill:#a81e13"/><path d="M218.16,174.46c-3.72-1.87-10.22-5.28-6.91-2.59s9.21,10.47,2.33,7.38-12.43-6.94-9.18-3.32-1.4,1.21,4.65,7.31,1.86,4.82-7.22-3.17c-8.81-7.78-8-4.83-8-4.65-2-2.36-4.15-4.95-6-7.49.19.12,4.69,2.92,3.19.52s3.95,1.24,7.54,3.92,6.7,2,1.49-2.79,10.4,5.2,13,6.46c2.25,1.08-1.86-2.83-3.13-4l-.36-.34c-4.06-3.91-7.51-7.94-4-7.31.65.54.74.23.75.18a41.71,41.71,0,0,1,6.57,2.78l1,.5S221.88,176.34,218.16,174.46Z" style="fill:#e7e9f2"/><path d="M120.68,56.56a129,129,0,0,0,0,14.48c.48,5.68,2.71,6.35,3.82,11.7s4.37,11.58,4.94-1.87.14-19.74-1.5-16.57-1.15-7.65-2.58-4.44-3.86-18.62-3.84-10.78S120.68,56.56,120.68,56.56Z" style="fill:#3a4699"/><path d="M115.37,79.59s2.9,6,2.6,1.37-.73-17.84-1.41-16.61-2.58-9.53-3.75-6.71-2.6-6.27-3.46-9.42-5.06-12.83-4.55-8.42,3.08,20.14,3.81,23.49-2.82,2-.85,5.9S115.37,79.59,115.37,79.59Z" style="fill:#b82d1c"/><path d="M109.1,81.79s-6.94-6-8.21-10.45-4-6.69-3.35-4.33-1.5,1.47-3-.65-.46,1.36,1.39,4.45-.89,2.79-2.73.86-4.27-1.6-2.57.89,6.81,10.65,6.66,8,1.4-3.16,3.21-1.55,2.38-.53,4.71,2.4S113.79,86.57,109.1,81.79Z" style="fill:#b82d1c"/><path d="M26.54,106.44a1.92,1.92,0,1,1,1.7,2.11A1.91,1.91,0,0,1,26.54,106.44Z" style="fill:#fff"/><path d="M119.34,97.41a1.5,1.5,0,1,1-1.34-1.6A1.49,1.49,0,0,1,119.34,97.41Z" style="fill:#474fad"/><path d="M146,95.28c-.07.65-.51,1.14-1,1.09s-.81-.62-.74-1.27.51-1.15,1-1.1S146.06,94.62,146,95.28Z" style="fill:#474fad"/><path d="M143.9,98.69c-.08.73-.6,1.28-1.15,1.22a1.2,1.2,0,0,1-.86-1.44c.07-.73.59-1.28,1.14-1.22A1.22,1.22,0,0,1,143.9,98.69Z" style="fill:#474fad"/><path d="M148.53,101.77a.62.62,0,0,1-.62.6.61.61,0,0,1-.47-.72.56.56,0,1,1,1.09.12Z" style="fill:#474fad"/><path d="M151.37,98.51c-.06.53-.42.93-.8.89s-.66-.51-.6-1,.42-.92.8-.88S151.43,98,151.37,98.51Z" style="fill:#474fad"/><path d="M142.41,107c-.08.69-.51,1.21-1,1.16s-.78-.65-.71-1.34.51-1.21,1-1.16S142.48,106.26,142.41,107Z" style="fill:#474fad"/><path d="M139.18,111.66a.87.87,0,1,1-.77-1A.87.87,0,0,1,139.18,111.66Z" style="fill:#474fad"/><path d="M136,102.29a1,1,0,1,1-.84-1.28A1.09,1.09,0,0,1,136,102.29Z" style="fill:#474fad"/><path d="M130.7,99.53a.3.3,0,0,1-.32.3.31.31,0,0,1-.25-.36.31.31,0,0,1,.32-.29A.3.3,0,0,1,130.7,99.53Z" style="fill:#474fad"/><path d="M129.76,108.32a1.27,1.27,0,1,1-1.1-1.58A1.36,1.36,0,0,1,129.76,108.32Z" style="fill:#474fad"/><path d="M149.35,110.84c-.06.56-.42,1-.81.94s-.64-.53-.58-1.09.42-1,.8-1S149.41,110.27,149.35,110.84Z" style="fill:#474fad"/><path d="M152.66,104.76a1.34,1.34,0,1,1-1.19-1.27A1.23,1.23,0,0,1,152.66,104.76Z" style="fill:#474fad"/><path d="M146.16,113.65c-.07.69-.3,1.22-.51,1.2s-.32-.59-.25-1.28.31-1.22.51-1.19S146.23,113,146.16,113.65Z" style="fill:#474fad"/><path d="M138,97.53a1.21,1.21,0,1,1-1-1.53A1.32,1.32,0,0,1,138,97.53Z" style="fill:#474fad"/><path d="M121.32,103.63a.87.87,0,1,1-.73-1.15A1,1,0,0,1,121.32,103.63Z" style="fill:#474fad"/><path d="M125.77,100c0,.39-.51.65-1,.59s-.93-.41-.89-.79.51-.65,1-.6S125.81,99.66,125.77,100Z" style="fill:#474fad"/><path d="M122.73,110.09a1,1,0,1,1-2.08-.22,1.06,1.06,0,0,1,1.16-.94A1,1,0,0,1,122.73,110.09Z" style="fill:#474fad"/><path d="M120.06,115.46a.85.85,0,1,1-.74-1A.9.9,0,0,1,120.06,115.46Z" style="fill:#474fad"/><path d="M113.82,120.92a.6.6,0,0,1-.66.52.59.59,0,0,1-.53-.65.6.6,0,0,1,.66-.53A.61.61,0,0,1,113.82,120.92Z" style="fill:#474fad"/><path d="M108,126a.67.67,0,1,1-.6-.76A.69.69,0,0,1,108,126Z" style="fill:#474fad"/><path d="M109,130.6c-.06.54-.74.91-1.52.82s-1.37-.58-1.31-1.12.74-.9,1.52-.82S109.07,130.07,109,130.6Z" style="fill:#474fad"/><path d="M110.18,119.66a1.12,1.12,0,1,1-1-1C109.78,118.76,110.23,119.19,110.18,119.66Z" style="fill:#474fad"/><path d="M114.55,114.05c0,.45-.35.78-.68.75s-.55-.43-.51-.88.36-.79.68-.75S114.6,113.59,114.55,114.05Z" style="fill:#474fad"/><path d="M119.34,122.21c0,.39-.67.63-1.39.56s-1.27-.45-1.23-.84.66-.63,1.38-.56S119.38,121.83,119.34,122.21Z" style="fill:#474fad"/><path d="M113.12,127.49c-.06.49-.23.87-.4.85s-.25-.43-.2-.92.23-.87.39-.85S113.17,127,113.12,127.49Z" style="fill:#474fad"/><path d="M126,119.71c-.09.83-.68,1.45-1.32,1.38a1.37,1.37,0,0,1-1-1.63c.09-.83.68-1.45,1.32-1.38A1.37,1.37,0,0,1,126,119.71Z" style="fill:#474fad"/><path d="M131,115.8a1,1,0,1,1-.89-.92A.91.91,0,0,1,131,115.8Z" style="fill:#474fad"/><path d="M135.37,108.61c0,.17-.47.26-1,.2s-1-.24-.93-.4.46-.26,1-.2S135.38,108.45,135.37,108.61Z" style="fill:#474fad"/><path d="M132.13,104.78a1,1,0,0,1-1.1,1,1.06,1.06,0,0,1,.23-2.11A1,1,0,0,1,132.13,104.78Z" style="fill:#474fad"/><path d="M135.59,114.45a.92.92,0,1,1-.8-1.11A1,1,0,0,1,135.59,114.45Z" style="fill:#474fad"/><path d="M147.41,107.07a.68.68,0,1,1-1.3-.14c0-.46.38-.81.74-.77A.76.76,0,0,1,147.41,107.07Z" style="fill:#474fad"/><path d="M140.1,106.58a.82.82,0,1,1-1.61-.17.82.82,0,1,1,1.61.17Z" style="fill:#474fad"/><path d="M133.21,97.74c-.05.38-.26.68-.48.66s-.37-.36-.33-.75.25-.68.48-.66S133.25,97.35,133.21,97.74Z" style="fill:#474fad"/><path d="M125,113.12c0,.26-.2.45-.38.43s-.3-.24-.27-.5.19-.45.37-.43S125.05,112.86,125,113.12Z" style="fill:#474fad"/><path d="M125.57,105a.65.65,0,0,1-.71.55.62.62,0,1,1,.71-.55Z" style="fill:#474fad"/><path d="M124.28,95.62c-.06.53-.37.93-.69.9s-.55-.49-.49-1,.37-.93.69-.89S124.34,95.09,124.28,95.62Z" style="fill:#474fad"/><path d="M117.13,109.74c0,.44-.22.79-.39.77s-.26-.39-.22-.84.23-.79.39-.77S117.18,109.29,117.13,109.74Z" style="fill:#474fad"/><path d="M115.75,102.83a.9.9,0,1,1-.8-1A.87.87,0,0,1,115.75,102.83Z" style="fill:#474fad"/><path d="M110.91,92.38c0,.46-.31.81-.58.78s-.44-.43-.39-.89.31-.81.57-.78S111,91.92,110.91,92.38Z" style="fill:#474fad"/><path d="M109.29,89.07c-.06.6-.87,1-1.81.9s-1.65-.67-1.58-1.26.87-1,1.81-.9S109.35,88.48,109.29,89.07Z" style="fill:#474fad"/><path d="M116.29,92.11c-.07.65-.39,1.15-.72,1.12s-.53-.59-.46-1.25.39-1.16.72-1.12S116.36,91.45,116.29,92.11Z" style="fill:#474fad"/><path d="M47.54,101.65a.74.74,0,0,1-.88.56.75.75,0,0,1-.74-.73.74.74,0,0,1,.88-.56A.75.75,0,0,1,47.54,101.65Z" style="fill:#474fad"/><path d="M49.4,98.85a.49.49,0,1,1-1-.1.54.54,0,0,1,.55-.52A.53.53,0,0,1,49.4,98.85Z" style="fill:#474fad"/><path d="M54.26,97.86a.6.6,0,0,1-1.18-.13.6.6,0,0,1,1.18.13Z" style="fill:#474fad"/><path d="M56.94,100.31a.53.53,0,1,1-1-.11.53.53,0,1,1,1,.11Z" style="fill:#474fad"/><path d="M43.52,131.3c0,.19-.43.3-.93.25s-.87-.25-.85-.44.43-.29.93-.24S43.54,131.12,43.52,131.3Z" style="fill:#474fad"/><path d="M67.46,132.37a1.49,1.49,0,1,1-1.33-1.62A1.47,1.47,0,0,1,67.46,132.37Z" style="fill:#474fad"/><path d="M69,127.63c0,.44-.3.78-.57.75s-.45-.41-.4-.85.3-.79.57-.76S69,127.18,69,127.63Z" style="fill:#474fad"/><path d="M71.11,120.63a.72.72,0,1,1-.6-1A.82.82,0,0,1,71.11,120.63Z" style="fill:#474fad"/><path d="M68.75,120.32a1,1,0,0,1-1.93-.21,1,1,0,0,1,1.93.21Z" style="fill:#474fad"/><path d="M70.75,110.75a1.46,1.46,0,1,1-1.29-1.66A1.48,1.48,0,0,1,70.75,110.75Z" style="fill:#474fad"/><path d="M72.78,105c0,.24-.36.4-.74.36s-.68-.27-.66-.51.36-.4.75-.36S72.81,104.76,72.78,105Z" style="fill:#474fad"/><path d="M79.76,110c-.1.93-.56,1.65-1,1.6s-.78-.85-.68-1.79.57-1.65,1-1.6S79.86,109.06,79.76,110Z" style="fill:#474fad"/><path d="M75.86,116a.93.93,0,1,1-.83-1A.89.89,0,0,1,75.86,116Z" style="fill:#474fad"/><path d="M75,123.77c0,.3-.22.52-.41.5s-.33-.28-.3-.58.22-.53.41-.5S75.06,123.47,75,123.77Z" style="fill:#474fad"/><path d="M74.1,129.13a1.12,1.12,0,0,1-1.33.82c-.67-.07-1.18-.56-1.12-1.08a1.11,1.11,0,0,1,1.32-.81C73.65,128.13,74.15,128.61,74.1,129.13Z" style="fill:#474fad"/><path d="M77.78,133.64a.79.79,0,1,1-.67-1A.88.88,0,0,1,77.78,133.64Z" style="fill:#474fad"/><path d="M83.17,128A1.37,1.37,0,1,1,82,126.73,1.25,1.25,0,0,1,83.17,128Z" style="fill:#474fad"/><path d="M72.35,133.89c0,.46-.36.79-.7.76s-.57-.43-.52-.89.36-.79.7-.75S72.4,133.44,72.35,133.89Z" style="fill:#474fad"/><path d="M78.52,121.69c-.07.66-.52,1.15-1,1.1s-.81-.63-.74-1.29.52-1.15,1-1.1S78.59,121,78.52,121.69Z" style="fill:#474fad"/><path d="M67.35,105.28a.93.93,0,0,1-1.08.74.86.86,0,1,1,1.08-.74Z" style="fill:#474fad"/><path d="M65,99.25a.89.89,0,1,1-.79-.77A.79.79,0,0,1,65,99.25Z" style="fill:#474fad"/><path d="M84.33,104.41a.61.61,0,0,1-.72.44c-.37,0-.65-.3-.62-.58a.61.61,0,0,1,.73-.44C84.09,103.87,84.36,104.13,84.33,104.41Z" style="fill:#474fad"/><path d="M93.73,115.89c-.06.63-.41,1.11-.76,1.07s-.6-.58-.53-1.21.41-1.11.77-1.07S93.8,115.26,93.73,115.89Z" style="fill:#474fad"/><path d="M106.05,110.35a1.12,1.12,0,0,1-1.32.8c-.67-.07-1.17-.55-1.12-1.06a1.12,1.12,0,0,1,1.32-.8C105.6,109.36,106.1,109.84,106.05,110.35Z" style="fill:#474fad"/><path d="M97.05,124.62A1.19,1.19,0,1,1,96,123.55,1.08,1.08,0,0,1,97.05,124.62Z" style="fill:#474fad"/><path d="M89.93,133.2a.9.9,0,0,1-1.05.65c-.54-.06-.94-.44-.89-.86a.88.88,0,0,1,1.05-.65A.9.9,0,0,1,89.93,133.2Z" style="fill:#b82d1c"/><path d="M81.17,116.27a.7.7,0,0,1-.82.48c-.41,0-.73-.33-.69-.64a.67.67,0,0,1,.81-.48C80.89,115.67,81.2,116,81.17,116.27Z" style="fill:#b82d1c"/><path d="M85.6,112.82c-.06.57-.74,1-1.52.88s-1.35-.61-1.29-1.18.74-1,1.51-.88S85.66,112.25,85.6,112.82Z" style="fill:#b82d1c"/><path d="M85.77,121.7c0,.24-.47.39-1,.33s-.93-.3-.91-.54.48-.39,1-.33S85.8,121.46,85.77,121.7Z" style="fill:#b82d1c"/><path d="M89.51,118.73a1,1,0,1,1-.92-1.1A1,1,0,0,1,89.51,118.73Z" style="fill:#b82d1c"/><path d="M89.51,127.93a1.14,1.14,0,0,1-1.3.94,1.08,1.08,0,1,1,.23-2.13A1.14,1.14,0,0,1,89.51,127.93Z" style="fill:#b82d1c"/><path d="M84.74,133.48a.72.72,0,0,1-.75.66.74.74,0,1,1,.75-.66Z" style="fill:#b82d1c"/><path d="M92.29,123.25c-.05.47-.38.82-.73.78a.78.78,0,0,1-.56-.92.79.79,0,0,1,.74-.78A.77.77,0,0,1,92.29,123.25Z" style="fill:#b82d1c"/><path d="M78.46,127.29a.63.63,0,0,1-.75.46c-.39,0-.68-.31-.65-.61a.64.64,0,0,1,.76-.45C78.21,126.73,78.49,127,78.46,127.29Z" style="fill:#b82d1c"/><path d="M97.26,118.57a.54.54,0,0,1-.55.52.55.55,0,0,1-.43-.63.5.5,0,1,1,1,.11Z" style="fill:#b82d1c"/><path d="M94.3,110.63a1.48,1.48,0,1,1-1.32-1.4A1.37,1.37,0,0,1,94.3,110.63Z" style="fill:#b82d1c"/><path d="M100.28,107.66c-.06.56-.42,1-.81.93s-.65-.52-.59-1.08.42-1,.81-.94S100.34,107.1,100.28,107.66Z" style="fill:#b82d1c"/><path d="M102.41,116.23c0,.32-.59.52-1.24.45S100,116.3,100,116s.6-.52,1.25-.45S102.45,115.92,102.41,116.23Z" style="fill:#b82d1c"/><path d="M106.68,104.42a.8.8,0,1,1-.7-.92A.82.82,0,0,1,106.68,104.42Z" style="fill:#b82d1c"/><path d="M111.09,100.89a.54.54,0,1,1-1.08-.11.54.54,0,1,1,1.08.11Z" style="fill:#b82d1c"/><path d="M111.35,108.68a.82.82,0,1,1-.72-.94A.84.84,0,0,1,111.35,108.68Z" style="fill:#b82d1c"/><path d="M107.76,115.48c-.07.72-.42,1.28-.78,1.24s-.57-.65-.49-1.38.42-1.29.78-1.25S107.84,114.75,107.76,115.48Z" style="fill:#b82d1c"/><path d="M103.61,121.6c-.06.59-.38,1-.72,1s-.55-.54-.49-1.13.38-1,.72-1S103.68,121,103.61,121.6Z" style="fill:#b82d1c"/><path d="M102.64,127.24c0,.48-.75.79-1.57.7s-1.45-.54-1.4-1,.76-.79,1.58-.7S102.7,126.76,102.64,127.24Z" style="fill:#b82d1c"/><path d="M97.22,129.7c-.06.52-.36.91-.67.88s-.52-.48-.46-1,.35-.9.66-.87S97.27,129.19,97.22,129.7Z" style="fill:#b82d1c"/><path d="M94.9,131.36a.9.9,0,0,1-1,.85,1,1,0,1,1,1-.85Z" style="fill:#b82d1c"/><path d="M102.56,131.46c0,.31-.66.5-1.39.42s-1.31-.39-1.28-.7.66-.5,1.4-.42S102.59,131.15,102.56,131.46Z" style="fill:#b82d1c"/><path d="M117.6,126.08c-.06.54-.4.94-.76.91s-.61-.51-.55-1,.4-.94.76-.9S117.66,125.54,117.6,126.08Z" style="fill:#b82d1c"/><path d="M135.08,119.17a.69.69,0,1,1-.6-.84A.73.73,0,0,1,135.08,119.17Z" style="fill:#b82d1c"/><path d="M142.22,114.35a1,1,0,1,1-.88-1.17A1,1,0,0,1,142.22,114.35Z" style="fill:#b82d1c"/><path d="M141.58,120.42c0,.31-.58.52-1.21.45s-1.12-.38-1.08-.7.57-.52,1.2-.45S141.61,120.1,141.58,120.42Z" style="fill:#b82d1c"/><path d="M146,120.7a1.14,1.14,0,0,1-2.27-.24,1.14,1.14,0,0,1,2.27.24Z" style="fill:#b82d1c"/><path d="M131.51,120.21a1,1,0,1,1-.91-1A.93.93,0,0,1,131.51,120.21Z" style="fill:#b82d1c"/><path d="M121.17,119.11a1,1,0,0,1-1.25.73c-.65-.07-1.13-.51-1.08-1s.62-.8,1.26-.74S121.22,118.63,121.17,119.11Z" style="fill:#b82d1c"/><path d="M96.69,106.05a1.52,1.52,0,0,1-1.8,1.07c-.92-.1-1.61-.74-1.54-1.43a1.51,1.51,0,0,1,1.8-1.07C96.07,104.72,96.76,105.36,96.69,106.05Z" style="fill:#b82d1c"/><path d="M45.11,129.82a1.17,1.17,0,1,1-1-1.43A1.24,1.24,0,0,1,45.11,129.82Z" style="fill:#b82d1c"/><path d="M61.86,132.77c0,.46-.38.79-.73.75a.76.76,0,0,1-.57-.89.76.76,0,0,1,.74-.75A.75.75,0,0,1,61.86,132.77Z" style="fill:#b82d1c"/></g></g></svg>