<svg xmlns="http://www.w3.org/2000/svg" viewBox="0 0 244.76 218.38"><title>Asset 7</title><g id="Layer_2" data-name="Layer 2"><g id="Ñëîé_2" data-name="Ñëîé 2"><path d="M129.29,89.62c-.46-.2-.93-.38-1.42-.57a146,146,0,0,0-39.38-9.88c-1.54-.15-3.1-.27-4.66-.35C61.41,77.65,47.18,81.24,35.51,87c1.06,3.5-1.41,6.48-5.42,8.77s-3.9,7.45-7.3,6.55-7.48,2-10.15,1.81,1.15-3.61,1.15-3.61c-7.36,4.92-10.39,7-11,7.91-.86,1.2,1.21,3.61,1.89,4.64s-1.8-1.29-2.57-1.72-1.38.35-2,1.29,1.63,1.72,2.32,3.18c.41.87,3.12,4,8.14,7-1.72-3.39-.08-4,.85-4.23,1.15-.23,1.15-1.6-.8-4.35s-.68-5.85,1.15-5.85a1.39,1.39,0,0,1,1.1.57,5.08,5.08,0,0,1,9.28-1,8.83,8.83,0,0,1,3.6-1.26c1.37-.12,2.17-2.3,3.89-4s3.21.58,5.27-1,2.18-4.24,5.73-1.14a22.8,22.8,0,0,1,5.19,8.06,23.29,23.29,0,0,1,1,3.16s3.38-2.55,7.77-5.48h0l0,0c1.85-1.24,3.87-2.55,5.9-3.77,6.87-4.12,1.49.22,2.75,2.4a3.28,3.28,0,0,1,.53,2.09c18-1.64,31,2.51,42.55,3.5s26.59,3.7,28.54-3.92S129.29,89.62,129.29,89.62ZM124,98.76c-1.27.71-3,.52-4.37.36-6.38-.72-12.69-2.57-19-3.69-17.53-3.09-41.94-.57-41.94-.57-1,.12-2,.22-3,.32-5.14.47-11.51,1.23-16.49-.71-.79-.32-2-.83-2.21-1.77-.54-2.14,3.11-3.16,4.48-3.77a95,95,0,0,1,38.86-7.7A89.61,89.61,0,0,1,95,82.59a91.27,91.27,0,0,1,21.3,6.13A32.31,32.31,0,0,1,123,92.46C124.94,94,126.82,97.14,124,98.76Z" style="fill:#efca3a"/><path d="M30.09,95.78c-4,2.29-3.9,7.45-7.3,6.55s-7.48,2-10.15,1.81,1.15-3.61,1.15-3.61c2.61-1.74,5.76-3.83,9.54-6.36A107.78,107.78,0,0,1,35.51,87C36.57,90.51,34.1,93.49,30.09,95.78Z" style="fill:#fed94e"/><path d="M40.63,100.48c-3.55-3.1-3.66-.46-5.73,1.14s-3.55-.69-5.27,1-2.52,3.9-3.89,4a8.83,8.83,0,0,0-3.6,1.26,5,5,0,0,1,.65,2.48,5.08,5.08,0,1,1-10.15,0,5,5,0,0,1,.22-1.46,1.39,1.39,0,0,0-1.1-.57c-1.83,0-3.1,3.1-1.15,5.85s2,4.12.8,4.35c-.93.19-2.57.84-.85,4.23a39.49,39.49,0,0,0,11.54,4.46c-.13-.76.15-1.25,1.2-1.21,2.24.08,3,.51,3.27-1.18s1.54-.37,3.35,0,1.63-.46,1.55-2,.6-1.89,2.49-1.72,1.12-.17,1.12-1-.09-2-1.12-1.63a5.15,5.15,0,0,1-2.76,0c-1.29-.18.09-2.41,0-4.15s.6-2.56,2.32-2.73,2.67-1.21,2.58-3.78,1-3.7,2.75-4,2.84,1.54,2.84,1.54,1.28,2.06,1.88,2.15a10.72,10.72,0,0,1,2.24,1A22.8,22.8,0,0,0,40.63,100.48ZM28.72,117.55c.08,2-.18,3.61-1.46,4.55s-2.15-.77-2-1.8,1-.77.69-3.86,1.29-2.93,1.29-2.93C29.58,113.77,28.63,115.57,28.72,117.55Z" style="fill:#fcae24"/><path d="M47.13,117.05a6.74,6.74,0,0,1-.77,2.11,16.6,16.6,0,0,1-10.31,8.31h0a27.5,27.5,0,0,1-12.14.16c-.61-.11-1.21-.22-1.8-.36-.13-.76.15-1.25,1.2-1.21,2.24.08,3,.51,3.27-1.18s1.54-.37,3.35,0,1.63-.46,1.55-2,.6-1.89,2.49-1.72,1.12-.17,1.12-1-.09-2-1.12-1.63a5.15,5.15,0,0,1-2.76,0c-1.29-.18.09-2.41,0-4.15s.6-2.56,2.32-2.73,2.67-1.21,2.58-3.78,1-3.7,2.75-4,2.84,1.54,2.84,1.54,1.28,2.06,1.88,2.15a10.72,10.72,0,0,1,2.24,1,23.29,23.29,0,0,1,1,3.16A12.77,12.77,0,0,1,47.13,117.05Z" style="fill:#61c7da"/><path d="M139.63,111.93c-5.84,4.47-21.88,7-35.17,7.23S82.91,121,72.15,122.93c-1.35.25-2.55.52-3.62.83-7.48,2.14-8.92,5.56-14.84,7-.26.06-.53.12-.81.16a21.22,21.22,0,0,1-7.26-.4,50.62,50.62,0,0,1-9.57-3,16.6,16.6,0,0,0,10.31-8.31,6.74,6.74,0,0,0,.77-2.11c3.59,1.07,7,5.37,7.59,7.83s-1.25,4.47.93,4.36S61.44,127,61,123.85s1-3.21,2.63-3.43,2.06-2.18,1-4.13.69-3,1.38-3.55.58-2.75-1.26-4.13c-1-.74-1-1.15-1-1.7,18-1.64,31,2.51,42.55,3.5s26.59,3.7,28.54-3.92-5.65-16.87-5.65-16.87C133.68,91.41,137,93,139,94c1.36.68,2.09,1.09,2.09,1.09a10.67,10.67,0,0,1,5.16,7.79C146.4,105.17,145.47,107.46,139.63,111.93Z" style="fill:#e5b415"/><path d="M64.69,116.29c1,1.95.58,3.89-1,4.13s-3,.34-2.63,3.43-3.21,5.27-5.38,5.39-.35-1.84-.93-4.36c1.18-3-2.46-6-.1-4.84s1.08,2.32,2,2.06.77-1.8-.52-2.94-2.15-2.64.52-1.27,2.92.09,0-2.06-1-1.46,1.89-.85,2.15-.61-.49-1.56-2.86-2.14,1.43-2.14.78-1.55-2.07-1.64-.33-1.11,2.08-2.92-2.24-.86-.35-2.49-3.89,1.64-4.47,2c1.85-1.24,3.87-2.55,5.9-3.77,6.87-4.12,1.49.22,2.75,2.4a3.28,3.28,0,0,1,.53,2.09c0,.55,0,1,1,1.7,1.84,1.38,2,3.56,1.26,4.13S63.66,114.34,64.69,116.29Z" style="fill:#fed022"/><path d="M58.05,113.42c2.64,1,3.41,2.16.49,1.56s-4.81-1.29-1.89.85,2.67,3.44,0,2.06-1.81.14-.52,1.27,1.48,2.69.52,2.94.33-.94-2-2.06,1.28,1.86.1,4.84c-.55-2.46-4-6.76-7.59-7.83a12.77,12.77,0,0,0-.28-5.35s3.38-2.55,7.77-5.48h0l0,0c.58-.32,6.26-3.51,4.47-2s2.76.68.35,2.49-4.93,2.84-2.08,2.92,6.37,1.64,2.07,1.64S55.42,112.48,58.05,113.42Z" style="fill:#fcae24"/><path d="M22.14,107.93a5.08,5.08,0,0,0-9.28,1,5,5,0,0,0-.22,1.46,5.08,5.08,0,1,0,10.15,0A5,5,0,0,0,22.14,107.93Zm-4.42,6.41a3.92,3.92,0,0,1-3.92-3.65,2.62,2.62,0,0,1,0-.28,3.93,3.93,0,0,1,7.43-1.77,3.88,3.88,0,0,1,.42,1.77A3.93,3.93,0,0,1,17.72,114.34Z" style="fill:#eae3dd"/><path d="M21.64,110.41a3.92,3.92,0,0,1-7.84.28,2.62,2.62,0,0,1,0-.28,3.93,3.93,0,0,1,7.43-1.77A3.88,3.88,0,0,1,21.64,110.41Z" style="fill:#2b2b2b"/><path d="M28.72,117.55c.08,2-.18,3.61-1.46,4.55s-2.15-.77-2-1.8,1-.77.69-3.86,1.29-2.93,1.29-2.93C29.58,113.77,28.63,115.57,28.72,117.55Z" style="fill:#6cdbea"/><path d="M123,92.46a32.31,32.31,0,0,0-6.73-3.74A91.27,91.27,0,0,0,95,82.59a89.61,89.61,0,0,0-14.7-1.36,95,95,0,0,0-38.86,7.7c-1.37.61-5,1.63-4.48,3.77.23.94,1.42,1.45,2.21,1.77,5,1.94,11.35,1.18,16.49.71,1-.1,2-.2,3-.32,0,0,24.41-2.52,41.94.57,6.33,1.12,12.64,3,19,3.69,1.39.16,3.1.35,4.37-.36C126.82,97.14,124.94,94,123,92.46ZM109.72,92c-2.63,1.5-8.13-.45-16.15-1.74s-11.57-1.12-24.29.6c-4.18.57-11.64,1.47-15.11-1.87-3.67-3.53,8.74-5.19,10.42-5.47a77.2,77.2,0,0,1,16.56-1,97,97,0,0,1,25,5C108,88.14,112.36,90.51,109.72,92Z" style="fill:#fed022"/><path d="M109.72,92c-2.63,1.5-8.13-.45-16.15-1.74s-11.57-1.12-24.29.6c-4.18.57-11.64,1.47-15.11-1.87-3.67-3.53,8.74-5.19,10.42-5.47a77.2,77.2,0,0,1,16.56-1,97,97,0,0,1,25,5C108,88.14,112.36,90.51,109.72,92Z" style="fill:#fed94e"/><path d="M188.66,53.25c-14.32,2-33.57,6.86-48.22,18.24A10.27,10.27,0,0,0,139,72.68a5.42,5.42,0,0,1-.62-3.43c.69-2.23,2.24-4-1.2-5.5s-4.81-2.06-5-4.81,1.54-2.92-2.41-3.27-4.81-2.75-6-4.64-2.06-1.72-3.61,0-4.46,1.21-5-.34-1-2.37-3.27-1a6.28,6.28,0,0,1-6.18.49c-1.89-.86-6-4.59-7.22-1.18s-.69,3.76-3.1,5.65-3.09,3.61-6.36.69c-2.18-1.95-4.67-.61-7,1.94a38.81,38.81,0,0,1,.48-5.64c1.51.43,2.09-.42,2.93-1.46s2.87-1.8,4.3-2.2a28.62,28.62,0,0,0-.18,4,4.53,4.53,0,0,1,3,3c.92,2.52.46-2.29,3.21-3.9a59.1,59.1,0,0,1,3.5-11.59,5.49,5.49,0,0,0,4.58-2,4.93,4.93,0,0,1,3-1.73,28.79,28.79,0,0,0-.35,12.16s2.7-2.29,4.45-.46c.69.73,1.86-5.18,4.87-13,.53,1,1.68,2.07,4.09,2.22a80.68,80.68,0,0,0-2.64,11.26,67.71,67.71,0,0,1,10.25-14.53c1,1.51,3.49,2.38,5.39,2.83a56.07,56.07,0,0,0-7.5,12.41s-.32,3,2,3,5.48-2.29,12.82-8.71c4.09-3.58,11-9.81,20.84-13.09.73,1.26,2.52,2.34,4.24,3.13-9.06,3.12-19.64,9.15-30,20.5,0,0-2.43,2.07,0,4.13s2.66,1.6,4.5,3.2C141.17,62,160.84,50,185.81,49.13A8,8,0,0,1,188.66,53.25Z" style="fill:#61c7da"/><path d="M208.72,51.78a135.76,135.76,0,0,0-20.05,1.47h0a8,8,0,0,0-2.85-4.12A74.06,74.06,0,0,1,208.72,51.78Z" style="fill:#6cdbea"/><path d="M190.13,30.23c-.61-.12-10.93-2.16-24.83,2.65h0c-1.72-.79-3.51-1.87-4.24-3.13C168.84,27.15,178.51,26.39,190.13,30.23Z" style="fill:#efbb18"/><path d="M147.29,1.37c-.65.3-19.15,9-27.36,35.23-2.41-.15-3.56-1.23-4.09-2.22C120.42,22.37,129.3,5.81,147.29,1.37Z" style="fill:#efbb18"/><path d="M172.75,10.53s-24.46,6.31-39.82,25.63c-1.9-.45-4.44-1.32-5.39-2.83C136.28,23.67,150.93,12.43,172.75,10.53Z" style="fill:#efbb18"/><path d="M121.51,4.81c-.93.66-29.17,20.61-31.77,43.16-1.43.4-3.46,1.14-4.3,2.2S84,52.06,82.51,51.63C84.6,38.33,94.06,21.63,121.51,4.81Z" style="fill:#efbb18"/><path d="M140.41,0c-.94.47-28.37,14.42-33.54,35.72a4.93,4.93,0,0,0-3,1.73,5.49,5.49,0,0,1-4.58,2C104.19,27.31,115.54,8.69,140.41,0Z" style="fill:#efbb18"/><path d="M139,94c-2-1-5.35-2.59-9.74-4.38-.46-.2-.93-.38-1.42-.57,6.93-2,7.58-2.09,1.74-3.47s-5.5-1-1.21-4.56,1.21-2.49-3-1.28-8.71,2.57-6.31-1.14,5.16-9.52.81-5.74-7.51,6.19-6.65,1.89,1.89-9.11-1-4.29-4,4.46-4.13-1.9-1.2-4.64-4,3.27-3.61,3.27-5.33-3.61-3.26-7.91-3.61-.69-1.72,5.68-6-.86-1.55.35-.18,5.5c1,3.64-2.33,1.38-4.36-.27A39.36,39.36,0,0,1,82,57.27c2.34-2.55,4.83-3.89,7-1.94,3.27,2.92,4,1.2,6.36-.69s1.89-2.23,3.1-5.65,5.33.32,7.22,1.18a6.28,6.28,0,0,0,6.18-.49c2.24-1.36,2.75-.54,3.27,1s3.44,2.06,5,.34,2.41-1.89,3.61,0,2.07,4.3,6,4.64,2.23.52,2.41,3.27c0,.17,0,.34,0,.49a4.38,4.38,0,0,0,.08.44,2.46,2.46,0,0,0,.07.29l0,.07a1.13,1.13,0,0,0,.08.24.16.16,0,0,0,0,.09s0,0,0,0a1,1,0,0,0,.09.18s0,0,0,0a3.54,3.54,0,0,0,.26.41l.09.11a2.09,2.09,0,0,0,.2.22,1.66,1.66,0,0,0,.19.18l0,0,.2.17.23.16.22.15a1.48,1.48,0,0,0,.21.13c.22.13.46.25.71.38l.75.36.41.19.44.2.61.27c3.44,1.55,1.89,3.27,1.2,5.5a5.42,5.42,0,0,0,.62,3.43c-1,1-2.06,2.5-1.53,4.08.91,2.75,3.2,2.34.45,5.64a2.84,2.84,0,0,0-.74,1.85,2.94,2.94,0,0,0,.12.81v0C137.88,87.27,140.48,89.64,139,94Z" style="fill:#ef9f20"/><path d="M127.87,89.05a146,146,0,0,0-39.38-9.88,32,32,0,0,1-3.81-7.27c2,1.65,5.33,3.91,4.36.27-1.37-5.15-4.11-12,.18-5.5s5.67,8.08,6,.86,1.89-6.18,3.61.69,2.58,11.52,5.33,3.61,3.78-9.62,4-3.27,1.21,6.71,4.13,1.9,1.89,0,1,4.29,2.31,1.89,6.65-1.89,1.6,2-.81,5.74,2.12,2.34,6.31,1.14,7.27-2.27,3,1.28-4.64,3.19,1.21,4.56S134.8,87,127.87,89.05Z" style="fill:#6cdbea"/><path d="M67,143.21a17.41,17.41,0,0,1-4,0L61.87,143a18.74,18.74,0,0,1-1.89-.46,13.92,13.92,0,0,1-3.32-1.5h0s-.55.92,2.25,4.47c.06.07.11.15.17.23l0,0,.29.39.26.38a4.9,4.9,0,0,1,.38.61,1.74,1.74,0,0,1,.15.26,3.31,3.31,0,0,1,.29.71.51.51,0,0,1,0,.13c.09.53-.24.7-.88.5a.64.64,0,0,1-.18-.06l-.26-.1-.28-.14,0,0s-.05,0-.08,0a.81.81,0,0,1-.18-.1h0l-.21-.13c-.22-.13-.46-.29-.7-.46-2.93-2.06-2.24-2.29,0,5.16s1.2,6.08-1,2.64-4.1-4.81-3.16-.69,3.07,9.17,1.7,8.25-6-9.49-6.26-10a.08.08,0,0,1,0,0c-3.92-12.2-3.64-19.69-3.3-22.49a21.22,21.22,0,0,0,7.26.4c1.09,4.31,4.62,7.4,7.87,9.41a29.91,29.91,0,0,0,2.71,1.47A27.74,27.74,0,0,0,67,143.21Z" style="fill:#ef9f20"/><path d="M59.31,171c-.33,3.93,7.48,17.67,8.2,18.92C57.52,174.75,52,162.47,48.93,153c.29.54,4.92,9.14,6.26,10s-.75-4.12-1.7-8.25,1-2.75,3.16.69,3.23,4.81,1-2.64-2.93-7.22,0-5.16,4,1.38,1.25-2.17S56.65,141,56.65,141h0c1.47,3.43,9.8,5.94,9.8,5.94s1.56,3.79.53,6.65,8,7.45,8,7.45c-8.71-.69-13.52-7.79-13.52-7.79,2.41,14.44,22,27.62,22,27.62-13.43-2.38-21.74-18.73-22-19.24,4,19.59,32.3,40.78,32.3,40.78C72.94,198,59.31,171,59.31,171Z" style="fill:#efbb18"/><path d="M175.59,61.35c-13.43,13.25-2.4,2.28,11.7-9.4A81.57,81.57,0,0,0,175.59,61.35Z" style="fill:#fff"/><path d="M195.59,19a171.18,171.18,0,0,0-19.37,19.75h0c-3.48,0-5-.14-6.2-.57A70.31,70.31,0,0,1,195.59,19Z" style="fill:#fed022"/><path d="M183.75,17c-5.17,5.62-10.58,14-14.57,20.84-.9-.42-1.86-1-3.65-1.68-.5-.19-1-.4-1.5-.61C174.25,21.44,192.34,7.67,183.75,17Z" style="fill:#fed022"/><path d="M171.54,17.35c-1.81,2.34-5.83,10.51-9.07,17.57a11.16,11.16,0,0,0-6.46-.85C164.17,24.59,174.34,13.74,171.54,17.35Z" style="fill:#fed022"/><path d="M150.13,28.3c-1.29,1.73-2.95,7.24-3.86,11.73a4.06,4.06,0,0,1-3.49-.09A46.35,46.35,0,0,1,150.13,28.3Z" style="fill:#fed022"/><path d="M208.72,36.6c-1.29.66-2.72,1.48-4.22,2.42a20.2,20.2,0,0,0-3.44.24C210.75,34.55,217.06,32.37,208.72,36.6Z" style="fill:#fed022"/><path d="M220.19,38a144.78,144.78,0,0,0-13.8,8.14c-6.14-1.42-2.92-1.33-1.15-4.32h0C220.36,34.58,231.51,32.26,220.19,38Z" style="fill:#fed022"/><path d="M228.44,58.08c-3.92,2.06-11.57,5.94-18.75,9.66-.81-.53-1.78-1.19-2.91-2a16.09,16.09,0,0,1-1.29-1C220.54,59.87,235.08,54.59,228.44,58.08Z" style="fill:#fed022"/><path d="M236,57.91c-3.82,3.06-13.51,8.62-21.34,12.94A10.35,10.35,0,0,0,212,69.17C226.59,62,241.06,53.86,236,57.91Z" style="fill:#fed022"/><path d="M241.33,87c-5.74,5.35-16.9,3.77-22.36,3.33,2.49-1.27,6.43-2.36,6.93-3.69A108.55,108.55,0,0,0,241.33,87Z" style="fill:#fed022"/><path d="M242.53,92.53s-8.25,5.43-21.66,5.08c3.44-2.75-4.29-2.92-3.94-5.43a23.61,23.61,0,0,1,6.86.35C231.87,94.16,242.53,92.53,242.53,92.53Z" style="fill:#fed022"/><path d="M242.87,105.35c-4.47,2.92-14.09,3.09-22.68,3.43a25.16,25.16,0,0,1-3.75-.11c-4.82-1.54-11-2.53-14.13-3.32-6-1.51-.34-4,6.41-4.64l2.1-.19a46,46,0,0,1,8.85,3.29C229,108.28,247.34,102.42,242.87,105.35Z" style="fill:#fed022"/><path d="M241.84,119.16s-6.53,2.34-19.76-1.22l-3.87-1c2,.08,3.64-.31,4.55-1.84C229.73,118.17,241.84,119.16,241.84,119.16Z" style="fill:#fed022"/><path d="M244.42,124.88c-3.27.8-10.48,1.09-28.19-.8-3.88-.41-8.29-1.21-12.63-2.1-7.5-6-3.32-4.83,3-5.81a14.4,14.4,0,0,1,1.75-.16c2.17.89,4.74,1.93,7.87,3.15C226.54,123.19,247.69,124.08,244.42,124.88Z" style="fill:#fed022"/><path d="M224.57,153a232.06,232.06,0,0,0-21.79-14.52,3.12,3.12,0,0,0,.39-1.23,4.54,4.54,0,0,1,1.44-2.13C223.18,149.35,243,166.79,224.57,153Z" style="fill:#fed022"/><path d="M221.73,158.63c-3.9-2.9-12.69-8.45-21.68-13.84-4-7-7.85-8.91-3.76-7.58,1.74.56,3.08,1.16,4.12,1.5C214.86,148.91,231.29,165.72,221.73,158.63Z" style="fill:#fed022"/><path d="M211.9,176.26c-4.74-8.65-19-19.74-29.09-26.89-3.53-4.63-3.19-6.9-.44-6.21s1.72,1.37,3.44-1a2,2,0,0,1,.47-.49A129.65,129.65,0,0,1,211.9,176.26Z" style="fill:#fed022"/><path d="M203.34,181.66c-4.56-6.55-16.22-16.54-23.19-22.24-3-5.6-3.57-7.12-1.73-5.43,2.06,1.89,2.92,1.2,7.39,3.06C200.65,174.69,208.59,189.2,203.34,181.66Z" style="fill:#fed022"/><path d="M199.22,184.41c-5.79,0-11.29-3.89-15.64-8.26,2.83.46,4.27,4.43,5.08,1.38a4.16,4.16,0,0,0,.13-1.42A64,64,0,0,0,199.22,184.41Z" style="fill:#fed022"/><path d="M188.73,184.41c-4,.14-8.18-3.43-11.77-7.68a19.68,19.68,0,0,0,3.07,0A31.74,31.74,0,0,0,188.73,184.41Z" style="fill:#fed022"/><path d="M192.69,191.11C179.63,193.51,170.25,183,164,173c.49.16,1.13.64,2.7,2.33,3.67,3.95,7.61,5.33,6.24,2.58-.55-1.1.13-1.34,1.4-1.32C183.62,191.87,192.69,191.11,192.69,191.11Z" style="fill:#fed022"/><path d="M181.34,198.16c-16.33,1.89-23.2-14.44-27.84-23-.7-1.29-1.58-3.09-2.53-5.1h0c-.26-.6,3,.47,3.73.12a3.48,3.48,0,0,1,1.81-.22l.77,1.82C166.39,193.29,181.34,198.16,181.34,198.16Z" style="fill:#fed022"/><path d="M182.89,203.83c-13.5,3.57-25.91-10.24-33.9-22.3.64-.66,1.17-2.13,1.59-2.22s-1.72-3.32-2.42-6.42a1.79,1.79,0,0,1,.48-2C160.94,204.17,182.89,203.83,182.89,203.83Z" style="fill:#fed022"/><path d="M175.15,208.64c-23.31,4.82-36.85-23.79-42-37.93a1.45,1.45,0,0,1,2.24-.4c1.61,1.21,2.16.86,3.9,3.46a12.85,12.85,0,0,0,1,1.21C154.94,209.81,175.15,208.64,175.15,208.64Z" style="fill:#fed022"/><path d="M124.45,180.11c.34,16.75,17.17,27,17.69,27.32-18.47-4.78-28.54-29.65-29.91-33.24.84-.55,1.56-2.33,1.56-3.88,0-2.92,1.21-3.43,2.07,3.46s6.7,11.67,5.84,8.07,0-4.65.69-6.2a18.88,18.88,0,0,0,1.46-8.42c-.09-4.3,3,3.95,4.82,7.91s3.34,5.15,4.18,2.92a4.66,4.66,0,0,1,1-1.57c9.82,30.73,30.29,35.08,30.29,35.08C144.73,214.31,124.45,180.11,124.45,180.11Z" style="fill:#fed022"/><path d="M148.69,212.6c-25.29-3.13-35.79-18.77-39.82-28,1.18.56,1.72,0,.26-3.33a34,34,0,0,1-2-19.64c.86-4.7,1.89,4.86,3,10.07.51,2.38,1.32,2.9,2,2.49C117.55,205.45,148.69,212.6,148.69,212.6Z" style="fill:#fed022"/><path d="M137.34,214.14c-21.14-1.78-31.22-20.1-35.67-32.67,1.77-.28,1.21-3.62,2.5-1.36a15.91,15.91,0,0,0,3.4,3.68A39.44,39.44,0,0,0,137.34,214.14Z" style="fill:#fed022"/><path d="M122.37,216.19c-24.1-10.5-30.85-44.73-32.47-56.39,1.26-.16,3,1.33,3.9,3.35,1.49,3.49,1.43,1.32,1.82,7a19.23,19.23,0,0,0,3.16,9.4C102,202.11,121.71,215.74,122.37,216.19Z" style="fill:#fed022"/><path d="M120.48,218.38c-22.64-7-31.57-27.47-35.07-41.77a15,15,0,0,1,3-6.47c1.49-1.37.41-1.54,0-6.95-.15-2.12.4-3.12,1.21-3.35C93.35,206.44,119.63,218,120.48,218.38Z" style="fill:#fed022"/><path d="M93.8,205.67c-7.2-5.33-11.18-13.2-13.34-20.83A9.49,9.49,0,0,0,85.32,187,97.92,97.92,0,0,0,93.8,205.67Z" style="fill:#fed022"/><path d="M83.48,202.91c-14-12.58-15.69-29.62-14.93-40.82a1.39,1.39,0,0,0,.75.15c2.87-.35,2,1.2,4,4.12s-1.82,6.19,0,6.1c.64,0,1.22.69,1.76,1.79C74.59,189,83.22,202.5,83.48,202.91Z" style="fill:#fed022"/><path d="M75.9,199.77C61.42,180.63,60.45,162,61.59,151.25c0,0,2.62,6.12,5.14,9.23C63.65,178.3,75.25,198.67,75.9,199.77Z" style="fill:#fed022"/><path d="M178.59,100.71c-15-1.37,3.61,4.12,6.88,5.78s1.54,2-3.1,2-.86,2.41,3.44,3.27-2.92,4.46-6.36,4.46-2.75,3.61.69,4.73-.86,1.46-6,.43-4.81-.52,0,4.64,1.66,5.37-2.06,3-8.59-3.87-5,2.66,3.43,7.91,0,3.61-6.36-7.22-6.36-3.61-1.38,1.72-4-.75,1.38,4.88,2.75,11.24-4.29-4.47-12-14.81,1.21,3.64,5.67,13.72.18,5.56-.68,3.84-3.44-.86-2.58,3.61-1.72,2.4-2.92-1.67-7.39-17.93-4.82-5.78,2.24,7.45-.86,9.39c-2.14,1.35-1.23,3.94-.52,5.06-1.21-.27-4.08.25-4.63-1-.69-1.54-4.3-7.9-3.95-2.27s-1.21,10.18-1.55,5.54-1.89-2.75-2.92-1.82-3.44,1.47-5-2.14-1.54,5.33-1.72,7.86-1.89-3.9-2.23-7.17-3.61,2.92-4.47.17-4.12-3.61-5.18,1.28-2.55,1.3-3.59-1.62-1.37-2.23-3.09,3.78-2.41.35-2.89-3.26-2.61-1.72-3.81,3.09-3.27-3.95-3.44-6.36-1.72-1.89-2.86,2.75-2.81-4.64-3-7.51-2.07,2-4.44,6.14-3.13,1.2-3.64-2.51.34-6.09-3.61,2-3.27.52-1.55-6.61S70.14,143.5,67,148.7s-1.66.3-2.19-2.28a1.34,1.34,0,0,0-.08-.26.78.78,0,0,0-.14-.26.28.28,0,0,0-.19-.07.18.18,0,0,0-.1,0,.66.66,0,0,0-.22.13l-.13.11a4.55,4.55,0,0,0-.55.77s-.06.1-.1.16l-.1.17c-.06.09-.11.2-.17.3-.16.31-.33.65-.48,1s-.16.35-.25.52c-.36.82-.61,1.46-.61,1.46.23-2,.52-3.61.81-5,.2-.93.39-1.69.54-2.28.23-.86.41-1.35.43-1.42A4.62,4.62,0,0,0,61.87,143a10.66,10.66,0,0,0-1.16,1.59,19.46,19.46,0,0,0-1.06,1.94c-.33.7-.61,1.36-.81,1.88-.29.73-.44,1.21-.44,1.21,0-.44.09-.9.16-1.36.12-.81.3-1.66.51-2.53.14-.59.3-1.2.49-1.81s.27-.92.42-1.38c.24-.75.5-1.5.77-2.25a125.48,125.48,0,0,1,7.78-16.54c1.07-.31,2.27-.58,3.62-.83,10.76-1.94,19-3.52,32.31-3.77s29.33-2.76,35.17-7.23,6.77-6.76,6.65-9.05a10.67,10.67,0,0,0-5.16-7.79s-.73-.41-2.09-1.09q-1.09-4.62-1.74-8.92v0c0-.27-.09-.55-.12-.81a88.67,88.67,0,0,1-.61-20.77c.15-1.57.34-3.09.57-4.55h0a70.83,70.83,0,0,1,2.14-9.65c.42-1.47.89-2.86,1.37-4.18.24.42.63,1.13,1.06,1.93,0,0,0,0,0,0l.24.45c.08.15.17.31.24.46s.17.31.25.47l.5,1c.05.09.09.19.14.28l0,0c.16.34.3.66.41.93a3.77,3.77,0,0,1,.18.54c.34,1.38,1.55-.19,1,2s3.78-.5,7.56-7.1,2.41-1.3.18,5.78a8.54,8.54,0,0,0-.62,3.88,1.67,1.67,0,0,0,.06.2c0,.06.05.12.08.17a.68.68,0,0,0,.19.19l.07,0a.33.33,0,0,0,.15.05.45.45,0,0,0,.16,0h0l.19,0a3.73,3.73,0,0,0,1.57-.88h0a2.67,2.67,0,0,0,.32-.28c.11-.09.23-.2.34-.31l.34-.33c.16-.16.33-.34.49-.52s.22-.23.32-.36c.32-.37.64-.76,1-1.17.74-1,1.24-1.34,1.61-1.34a.32.32,0,0,1,.14,0,.74.74,0,0,1,.4.29l.1.14a3,3,0,0,1,.19.36.77.77,0,0,1,.07.16c.24.53.46,1.14.83,1.34l.14.05a.32.32,0,0,0,.14,0,1.24,1.24,0,0,0,.8-.4h0c.57-.5,1-.7,1.36-.63l.07,0,.09,0a.45.45,0,0,1,.14.1s0,0,.05,0l.07.11a.67.67,0,0,1,.09.21,1.21,1.21,0,0,1,.05.18l0,.17c.13,1.1-.4,3.12-1.74,5.44-.08.14-.16.28-.23.42s-.07.14-.1.2l-.13.29a2.24,2.24,0,0,0-.12.29h0c0,.09-.07.18-.1.26s-.11.35-.15.51,0,.17,0,.25a4.46,4.46,0,0,0-.08.46c0,.15,0,.3,0,.45a3.19,3.19,0,0,0,.2,1.15,2.56,2.56,0,0,0,.53.84,2,2,0,0,0,.36.3,2.28,2.28,0,0,0,2.47.08c2.06-1.2,2.23,1.55,0,4.47s1.89,3.44,3.61,1.88,1.89,2.76,4.12,1,4.3-3.27,2.75.85,1.2,1.38,2.41,3.13-.35,2.55-5.16,6.13-1.89,2.09,5,.46,2.58,1.46,4.82,3,1.54,2.23-.17,3.64-.18,5,2.4,5,2.58,1.37-2.75,1.57-5.5,2.2,1.89,3.69S193.54,102.08,178.59,100.71Z" style="fill:#fcae24"/><path d="M141.29,155.88c.06.31-.22.11-.52-.39C141.06,155.55,141.26,155.67,141.29,155.88Z" style="fill:#6cdbea"/><path d="M141.3,89.62s-.18-12.82,2.57-16.94,2.07-7.38,2.75-4.12S147,79.21,141.3,89.62Z" style="fill:#6cdbea"/><path d="M145.42,89.05s3.3-12.25,7.58-16.37,8.23-9.7,6.51-5.45-3.95,10.5-4.47,14S145.42,89.05,145.42,89.05Z" style="fill:#6cdbea"/><path d="M145.42,92.53c-1.2.07,8.59-7.47,12-10.13s2.41-1.68,7.05-4,.72.11-1.27,5.1S151.51,92.19,145.42,92.53Z" style="fill:#6cdbea"/><path d="M149.72,96.41s5.15,1.79,13.23-.83,20.28-5.13,10.49-5.33-11.86-.89-15.13,1.17S149.72,96.41,149.72,96.41Z" style="fill:#6cdbea"/><path d="M150.58,102.69s2.19-3.35,9.35-2,15.22,2.31,9.72,2.7S154,103.47,150.58,102.69Z" style="fill:#6cdbea"/><path d="M148.51,105.35s10.14.68,17.36,4,11.69,5.22,3.61,4S155.9,112.05,148.51,105.35Z" style="fill:#6cdbea"/><path d="M148.51,110.42a28.11,28.11,0,0,1,12.64,6.73c6.1,5.56.61,3.37-5.15,0s-2.5.09,2,5.23,7,8.75.34,4.11S146.8,114,148.51,110.42Z" style="fill:#6cdbea"/><path d="M154.7,130.89s-6-10.44-9.38-14.72S145.25,126.69,154.7,130.89Z" style="fill:#6cdbea"/><path d="M148.16,135.94s-2.6-12.15-9.13-16.42S144,132.7,148.16,135.94Z" style="fill:#6cdbea"/><path d="M137.86,129.24s-4.45-12.21-4.29-8.43,4.58,12.9,5.46,14.27S137.86,129.24,137.86,129.24Z" style="fill:#6cdbea"/><path d="M130.64,133.71a27.06,27.06,0,0,0-2.41-7.22c-1.89-3.78-2.75,3.26,0,9.45S131.15,140.75,130.64,133.71Z" style="fill:#6cdbea"/><path d="M117.29,127.33s-2.46,2.77-.92,8.61,1.55,2.75,2.24-1.55A10,10,0,0,0,117.29,127.33Z" style="fill:#6cdbea"/><path d="M110.55,135.94s-3.69,2.23-1.43,7.05S113.15,146.6,110.55,135.94Z" style="fill:#6cdbea"/><path d="M102,139.88s5.08-5.7,2.85-12.55S100,132.3,102,139.88Z" style="fill:#6cdbea"/><path d="M72.2,137.49a17.72,17.72,0,0,1,3.27-8.25c2.92-4,2.75-4.53,2.06,1.25S70.83,142.44,72.2,137.49Z" style="fill:#6cdbea"/><path d="M85.61,139.16a8.75,8.75,0,0,0,2.88-8.27C87.5,125.63,83,126.39,85.61,139.16Z" style="fill:#6cdbea"/><path d="M93.8,143.16s-3.72-4.29-2-7.91.41-11.73,2-7.92S96.92,135.33,93.8,143.16Z" style="fill:#6cdbea"/><path d="M67,132.75a5.5,5.5,0,0,1,2.63-5.35C72.83,125.34,72.45,127.25,67,132.75Z" style="fill:#6cdbea"/><path d="M81.16,142.13A7.6,7.6,0,0,0,83,134.75c-1.26-4.48-1-6.51-2.75-1.26S81.16,142.13,81.16,142.13Z" style="fill:#6cdbea"/><path d="M124.39,144.71s3-1.53,1-4.83-2.53-12.94-3.44-9.39S119,144.13,124.39,144.71Z" style="fill:#6cdbea"/><path d="M216.75,90.25a17.14,17.14,0,0,1,2.22.09c2.49-1.27,6.43-2.36,6.93-3.69a17.2,17.2,0,0,1-2.79-.55c-5.16-1.55-22.17-2.41-32.14-.86s5.32-4.47,12.37-8.25c0,0,5.08-2.68,11.32-6.14A10.35,10.35,0,0,0,212,69.17c-5.21,2.55-10.43,5-14.77,6.64-10.3,4,.41-1.83,12.42-8.07-.81-.53-1.78-1.19-2.91-2a16.09,16.09,0,0,1-1.29-1c-8.7,2.78-17.56,5.42-22.6,6.11-10.71,1.48,6.51-13.51,23.5-24.68-6.14-1.42-2.92-1.33-1.15-4.32A140.16,140.16,0,0,0,187.3,51.93,183.88,183.88,0,0,1,204.5,39a20.2,20.2,0,0,0-3.44.24c-10,4.87-23.6,12.45-28.31,18.48-7.28,9.31-13.3,1.58,3.46-19-3.48,0-5-.14-6.2-.57a57.35,57.35,0,0,0-5.51,8c1.09-2,2.71-5,4.68-8.31-.9-.42-1.86-1-3.65-1.68-.5-.19-1-.4-1.5-.61a48.47,48.47,0,0,0-4.17,6.72c-4.43,8.85-1.53,1.65,2.61-7.35a11.16,11.16,0,0,0-6.46-.85,115.47,115.47,0,0,0-8.7,11c-2.13,3.46-2-.17-1-5a4.06,4.06,0,0,1-3.49-.09c-.73,1.56-1.45,3.28-2.14,5.15a47.27,47.27,0,0,1,3.06,6.13c.34,1.38,1.55-.19,1,2s3.78-.5,7.56-7.1,2.41-1.3.18,5.78,1.54,4.78,4.64.68,2.06,2.72,4.43.64,2.79,1.22.21,5.69.51,6.7,2.58,5.5,2.23,1.55,0,4.47,1.89,3.44,3.61,1.88,1.89,2.76,4.12,1,4.3-3.27,2.75.85,1.2,1.38,2.41,3.13-.35,2.55-5.16,6.13-1.89,2.09,5,.46,2.58,1.46,4.82,3,1.54,2.23-.17,3.64-.18,5,2.4,5,2.58,1.37-2.75,1.57-5.5,2.2,1.89,3.69,10.31,2.81-4.64,1.44,3.61,4.12,6.88,5.78,1.54,2-3.1,2-.86,2.41,3.44,3.27-2.92,4.46-6.36,4.46-2.75,3.61.69,4.73-.86,1.46-6,.43-4.81-.52,0,4.64,1.66,5.37-2.06,3-8.59-3.87-5,2.66,3.43,7.91,0,3.61-6.36-7.22-6.36-3.61-1.38,1.72-4-.75,1.38,4.88,2.75,11.24-4.29-4.47-12-14.81,1.21,3.64,5.67,13.72.18,5.56-.68,3.84-3.44-.86-2.58,3.61-1.72,2.4-2.92-1.67-7.39-17.93-4.82-5.78,2.24,7.45-.86,9.39c-2.14,1.35-1.23,3.94-.52,5.06-1.21-.27-4.08.25-4.63-1-.69-1.54-4.3-7.9-3.95-2.27s-1.21,10.18-1.55,5.54-1.89-2.75-2.92-1.82-3.44,1.47-5-2.14-1.54,5.33-1.72,7.86-1.89-3.9-2.23-7.17-3.61,2.92-4.47.17-4.12-3.61-5.18,1.28-2.55,1.3-3.59-1.62-1.37-2.23-3.09,3.78-2.41.35-2.89-3.26-2.61-1.72-3.81,3.09-3.27-3.95-3.44-6.36-1.72-1.89-2.86,2.75-2.81-4.64-3-7.51-2.07,2-4.44,6.14-3.13,1.2-3.64-2.51.34-6.09-3.61,2-3.27.52-1.55-6.61S70.14,143.5,67,148.7s-1.66.3-2.19-2.28-3.12,4-3.12,4q-.06.4-.09.81h0s2.62,6.12,5.14,9.23a28.18,28.18,0,0,1,3.69-10,58.85,58.85,0,0,0-1.87,11.64,1.39,1.39,0,0,0,.75.15c2.87-.35,2,1.2,4,4.12s-1.82,6.19,0,6.1c.64,0,1.22.69,1.76,1.79a31.08,31.08,0,0,1,3-12.57,71.42,71.42,0,0,0,2.36,23.16A9.49,9.49,0,0,0,85.32,187c-2.61-8-4.3-17.25-2.17-25.3a76.82,76.82,0,0,0,2.26,14.94,15,15,0,0,1,3-6.47c1.49-1.37.41-1.54,0-6.95-.15-2.12.4-3.12,1.21-3.35l.2,0c1.26-.16,3,1.33,3.9,3.35,1.49,3.49,1.43,1.32,1.82,7a19.23,19.23,0,0,0,3.16,9.4,43.84,43.84,0,0,1-.28-9.91,70.92,70.92,0,0,0,3.17,11.84c1.77-.28,1.21-3.62,2.5-1.36a15.91,15.91,0,0,0,3.4,3.68,49.2,49.2,0,0,1-1-5.79,37.16,37.16,0,0,0,2.27,6.64c1.18.56,1.72,0,.26-3.33a34,34,0,0,1-2-19.64c.86-4.7,1.89,4.86,3,10.07.51,2.38,1.32,2.9,2,2.49l.06,0c.84-.55,1.56-2.33,1.56-3.88,0-2.92,1.21-3.43,2.07,3.46s6.7,11.67,5.84,8.07,0-4.65.69-6.2a18.88,18.88,0,0,0,1.46-8.42c-.09-4.3,3,3.95,4.82,7.91s3.34,5.15,4.18,2.92a4.66,4.66,0,0,1,1-1.57,96.38,96.38,0,0,1-3.21-13.29c.09.34.9,3.27,2.46,7.52a1.45,1.45,0,0,1,2.24-.4c1.61,1.21,2.16.86,3.9,3.46a12.85,12.85,0,0,0,1,1.21c-1.23-2.91-2.42-6-3.56-9.48,0,0,.35-6,3.79,1a134.1,134.1,0,0,0,8.55,15c.64-.66,1.17-2.13,1.59-2.22s-1.72-3.32-2.42-6.42a1.79,1.79,0,0,1,.48-2c-.16-.43-.32-.86-.47-1.29-10.37-29.37-2.61-11,2.8.39-.26-.6,3,.47,3.73.12a3.48,3.48,0,0,1,1.81-.22c-8.15-19.66-5-18.66-.95-12.32,1.62,2.56,4.37,8.87,8.42,15.37.49.16,1.13.64,2.7,2.33,3.67,3.95,7.61,5.33,6.24,2.58-.55-1.1.13-1.34,1.4-1.32A81.13,81.13,0,0,1,168,163.21a83.39,83.39,0,0,0,9,13.52,19.68,19.68,0,0,0,3.07,0,28,28,0,0,1-5.74-12.59,66.11,66.11,0,0,0,9.29,12c2.83.46,4.27,4.43,5.08,1.38a4.16,4.16,0,0,0,.13-1.42c-5.15-5-10.94-12.11-14.15-21.09,0,0,2.24,1.73,5.51,4.4-3-5.6-3.57-7.12-1.73-5.43,2.06,1.89,2.92,1.2,7.39,3.06-4.1-4.86-8.72-10-13.73-14.91.36.23,4.83,3.05,10.73,7.23-3.53-4.63-3.19-6.9-.44-6.21s1.72,1.37,3.44-1a2,2,0,0,1,.47-.49,94.71,94.71,0,0,0-7.34-6.22c-14-10.6,3.93-.92,21.11,9.37-4-7-7.85-8.91-3.76-7.58,1.74.56,3.08,1.16,4.12,1.5a70.23,70.23,0,0,0-7.72-4.83c-10.35-5.41-3.4-3.34,10.09,4.56a3.12,3.12,0,0,0,.39-1.23,4.54,4.54,0,0,1,1.44-2.13,210.49,210.49,0,0,0-17.94-12.7c-13.15-7.8,1.46-3.54,16.93-.4-7.5-6-3.32-4.83,3-5.81a14.4,14.4,0,0,1,1.75-.16c-3-1.21-5.22-2.11-7.24-2.72,4.21.81,10.72,2.09,17.09,3.65,2,.08,3.64-.31,4.55-1.84a15.78,15.78,0,0,1-1.54-.76c-6.53-3.67-15.42-6.93-23.95-6.93s-8-2.24,1.43-2.06c8,.14,11.65,2.72,17.74,3.32-4.82-1.54-11-2.53-14.13-3.32-6-1.51-.34-4,6.41-4.64l2.1-.19a48.55,48.55,0,0,0-9.71-1.25c-3.61-.28,6.36-2,19.76-1.66,3.44-2.75-4.29-2.92-3.94-5.43-4.68.41-8.19,1.94-10,1.82C204.37,93.83,213,90.45,216.75,90.25Zm-41.16-28.9a81.57,81.57,0,0,1,11.7-9.4C173.19,63.63,162.16,74.6,175.59,61.35Z" style="fill:#6cdbea"/><circle cx="20.37" cy="108.65" r="1.8" style="fill:#eae3dd"/></g></g></svg>