<svg xmlns="http://www.w3.org/2000/svg" viewBox="0 0 618.01 306.73"><title>Asset 2</title><g id="Layer_2" data-name="Layer 2"><g id="Ñëîé_2" data-name="Ñëîé 2"><path d="M611.42,256.16c9-1.29-15.4-5.77-7.07-13.47S587.67,226,587.67,222.81,563.94,210,569.08,206.12s-19.25-18-10.92-19.88-28.34-14.76-5.19-30.79.29-16,9.16-18.61.52-12.84,9.51-17.33,2.56-10.25,5.77-17.32.87-63.51-15.28-30.16c-12.84,26.55-38,76.6-75.46,89.52,8.68,9.06,19.28,27.39,4.27,55.33C506,220,523,227.33,542.13,242.69c45.54,36.57,50.68,32.72,69.29,32.72S602.43,257.45,611.42,256.16ZM550,242.9c-24-29.41-40.09-29.41-44.59-36.45s9-4.18,17.65-10.91,14.43-13.48,5.29-20.21-32-5.2-25.17-11.55c0,0,38.24-33.55,52.27-67.69S569.62,74.61,567,93.21s-1.27,21.28-7,26-3.85,13.41-8.35,16.3,1.92,13.47-6.41,17-11.87,24.69.33,34.95S559,205.64,559,208.78s8-1.37,9.3,7.29,12.83,4.49,12.51,12.51,6.73,25.66,16,33.68S574.1,272.31,550,242.9Z" style="fill:#e7d89b"/><path d="M486.67,161.55a55.47,55.47,0,0,1-31.34,1.6s-55.91-29.59-147.09-37.38c-9.36-.81-19.08-1.39-29.16-1.67-8.34-.24-16.9-.29-25.72-.1a560.58,560.58,0,0,0-64.26,4.81c-82.95,11.22-131.85,39.88-160.32,69C17.5,209.32,17.25,218.52,24.16,226a35.45,35.45,0,0,0,7.66,6.06,76.46,76.46,0,0,0,12,5.91c17.4,6.95,42.05,11.94,66.88,16-.69-9.8,4.31-14.5,23.94-8.42,30.22,9.36,30.55,15.83,40.23,17.27l1,.11c36.39,3.78,71.88,5.1,102.08,2.31a48.78,48.78,0,0,1-8-6.73c-8-6.74-4.82-8.66,9.14-8.18s40.89-5.29,45.71,0c.32.36.71.75,1.11,1.17,1,1,2.2,2.12,3.47,3.31,18.22-5.66,37.47-13.05,55.06-19.76,22.77-8.7,42.75-16.27,54.1-17.44.89-.1,1.77-.19,2.68-.31,13.78-1.6,30.15-4.56,49.71-.48C506,188.94,495.35,170.61,486.67,161.55ZM73.9,208.78a13.24,13.24,0,1,1,13.22-13.24A13.25,13.25,0,0,1,73.9,208.78Z" style="fill:#d9be58"/><path d="M279.08,124.1c-8.34-.24-16.9-.29-25.72-.1a560.58,560.58,0,0,0-64.26,4.81S204.65,40,243.16,13c1.08-.75,2.1-1.47,3.1-2.14A30,30,0,0,1,245,16.07c-7.21,22.13-7.7,22.61,0,32.23s4.81,4.41,5.78,13.28,5.77,3.93,7.7,13.13C260,82.1,273.9,100.75,279.08,124.1Z" style="fill:#c6a84b"/><path d="M308.24,125.77c-9.36-.81-19.08-1.39-29.16-1.67-5.18-23.35-19.08-42-20.61-49.39-1.93-9.2-6.74-4.27-7.7-13.13s1.92-3.65-5.78-13.28-7.21-10.1,0-32.23a30,30,0,0,0,1.27-5.18C273.07-7.3,273.48.57,269.94,10.83c-6.72,5.14-15.75,12.42-21.08,18.23-6.47,7.08,2.83.21,16.67-5.24.21,4.91,7.43,4.1,11,5.55-7.78,4.31-16.4,9.29-20.19,13.8-8.49,10,5.19,1.17,33.6-.06,1.52,1.21,1.66,3.12-1.17,6.48a35.66,35.66,0,0,0-2.33,3.12v0a34.9,34.9,0,0,0-7.78,3.6c-13.43,9-21,9.3,8.49,9.57a11.1,11.1,0,0,1-.67,4.86c-.75,2.2.09,5.16,1.83,8.8A54.6,54.6,0,0,0,282.23,83c-13.8,9-10.72,7.18,13.11,9.25,1.48,2.58,3,5.32,4.48,8.2a47,47,0,0,0-8.6,4c-12.18,7.59-5.69,5.82,12.74,5A65.47,65.47,0,0,1,308.24,125.77Z" style="fill:#e7d89b"/><path d="M269.94,10.83c-1,3.08-2.47,6.37-3.62,9.24a8.45,8.45,0,0,0-.79,3.75c-13.84,5.45-23.14,12.32-16.67,5.24C254.19,23.25,263.22,16,269.94,10.83Z" style="fill:#2b2b2b"/><path d="M290,43.11c-28.41,1.23-42.09,10.1-33.6.06,3.79-4.51,12.41-9.49,20.19-13.8h0c1.77.75,2.63,2,1.31,4.83C274.65,41,286.31,40.11,290,43.11Z" style="fill:#2b2b2b"/><path d="M287.16,65.9c-29.46-.27-21.92-.62-8.49-9.57a34.9,34.9,0,0,1,7.78-3.6C282.29,59.33,286.66,61,287.16,65.9Z" style="fill:#2b2b2b"/><path d="M295.34,92.2C271.51,90.13,268.43,92,282.23,83a54.6,54.6,0,0,1,6.09-3.39C290.05,83.16,292.61,87.39,295.34,92.2Z" style="fill:#2b2b2b"/><path d="M304,109.49c-18.43.77-24.92,2.54-12.74-5a47,47,0,0,1,8.6-4C301.29,103.29,302.71,106.33,304,109.49Z" style="fill:#2b2b2b"/><path d="M73.9,182.3a13.24,13.24,0,1,0,13.22,13.24A13.24,13.24,0,0,0,73.9,182.3ZM71,201.54a6,6,0,1,1,6-6A6,6,0,0,1,71,201.54Z" style="fill:#b9aa6e"/><path d="M77,195.54a6,6,0,1,1-6-6A6,6,0,0,1,77,195.54Z" style="fill:#2b2b2b"/><path d="M185.27,275.52s1.25-11.35-9.39-12.53l-1-.11c-9.68-1.44-10-7.91-40.23-17.27-19.63-6.08-24.63-1.38-23.94,8.42.39,5.77,2.73,13.33,5.24,21.49,6.73,22,22.61,24.43,35.12,29.72s5.77-5.29,13-3.85-2.4-8.66,9.62-7.22,11.59-6.73,11.59-6.73Zm-7.79,8.61c-.18,7.12-8.35,6.19-12,6.35s-3.54,4.5-8.66,3.85.31,7.87-7.55,4.17S126.63,283.59,121,267.71c-1.91-5.41-2.6-9.53-1.87-12.3,1.39-5.41,8-5.89,21.12-1.33a103.63,103.63,0,0,1,15,6.53h0a78,78,0,0,1,15.59,10.47C177.59,276.22,177.63,277,177.48,284.13Z" style="fill:#e7d89b"/><path d="M318.76,280.7c-19.69-2.83-33.1-10-40.8-15.4a48.78,48.78,0,0,1-8-6.73c-8-6.74-4.82-8.66,9.14-8.18s40.89-5.29,45.71,0c.32.36.71.75,1.11,1.17-14.49,2.41-31.87,1.64-11.64,4.91,2.19.35,4.37.65,6.52.9h.06c4.35.5,8.58.83,12.47,1,2.14,1.91,4.18,3.76,5.68,5.22-20.75,2.64-44-5.79-27.77,1,8.33,3.48,22,5.6,32,7,.64,1,1.31,2.16,1.87,3.26-23,.09-53.48-10.61-34.85-1.95,13.12,6.1,27.79,7.64,36.1,8C345.3,285.05,351.54,285.42,318.76,280.7Z" style="fill:#e7d89b"/><path d="M333.33,258.41c-3.89-.21-8.12-.54-12.47-1h-.06c-2.15-.25-4.33-.55-6.52-.9-20.23-3.27-2.85-2.5,11.64-4.91,1,1,2.2,2.12,3.47,3.31S332,257.22,333.33,258.41Z" style="fill:#2b2b2b"/><path d="M343.26,271.69c-10-1.42-23.69-3.54-32-7-16.27-6.83,7,1.6,27.77-1,1.79,1.75,2.77,3,2.16,3.12C340.26,267,341.67,269.08,343.26,271.69Z" style="fill:#2b2b2b"/><path d="M346.46,280.7a1.38,1.38,0,0,0-.08.27c-8.31-.33-23-1.87-36.1-8-18.63-8.66,11.83,2,34.85,1.95C346.23,277.08,347,279.18,346.46,280.7Z" style="fill:#2b2b2b"/><path d="M414.84,243.17c11,5.2,24.58,8.16,33.68,9.68-.73,2.79-4.52,5.16-18.82,2.35-29.35-5.77-45.25-20.09-45.25-20.09,22.77-8.7,42.75-16.27,54.1-17.44.89-.1,1.77-.19,2.68-.31.59.68,1.15,1.35,1.67,2-6.77,1.12-20.27,3.83-8.33,6.32a52.44,52.44,0,0,0,12.6.44,25.62,25.62,0,0,1,1.79,4.35c-27.12,3.64-55.43-6.47-30.95,2.13,10.63,3.74,23.18,6.62,33,8.78a23.27,23.27,0,0,1,.58,5.06C421.25,245.54,397.34,234.89,414.84,243.17Z" style="fill:#e7d89b"/><path d="M447.17,226.14a52.44,52.44,0,0,1-12.6-.44c-11.94-2.49,1.56-5.2,8.33-6.32A37.59,37.59,0,0,1,447.17,226.14Z" style="fill:#2b2b2b"/><path d="M451,241.4c-9.79-2.16-22.34-5-33-8.78-24.48-8.6,3.83,1.51,30.95-2.13,1.18,3.75.87,5.77.46,4.62,0,0,0-.08,0-.1C449.58,235.72,450.39,238.53,451,241.4Z" style="fill:#2b2b2b"/><path d="M451.56,246.46c-.06,1.7-.62,2.6-2.14,1.68-2.71-1.66-.11,1.77-.9,4.71-9.1-1.52-22.69-4.48-33.68-9.68C397.34,234.89,421.25,245.54,451.56,246.46Z" style="fill:#2b2b2b"/><path d="M31.3,284.13c6.74,16.41,5.3,17.26-2.88,3.31s-15.88-16.36-13-31a23.91,23.91,0,0,1,2.32-6.37c3.26-6.45,9.05-13,14.07-18a76.46,76.46,0,0,0,12,5.91,86.37,86.37,0,0,1-16.41,15.77C16.87,261.45,24.57,267.71,31.3,284.13Z" style="fill:#e7d89b"/><path d="M31.82,232.08c-5,5-10.81,11.57-14.07,18-7.83,5.77-8.46,15.36-5.67,30.12,3.15,16.59-.73,14.91-3.87,3.91S-.45,267.48,0,258.32,24.16,226,24.16,226A35.45,35.45,0,0,0,31.82,232.08Z" style="fill:#d6c88b"/><path d="M550,242.9c-24-29.41-40.09-29.41-44.59-36.45s9-4.18,17.65-10.91,14.43-13.48,5.29-20.21-32-5.2-25.17-11.55c0,0,38.24-33.55,52.27-67.69S569.62,74.61,567,93.21s-1.27,21.28-7,26-3.85,13.41-8.35,16.3,1.92,13.47-6.41,17-11.87,24.69.33,34.95S559,205.64,559,208.78s8-1.37,9.3,7.29,12.83,4.49,12.51,12.51,6.73,25.66,16,33.68S574.1,272.31,550,242.9Z" style="fill:#2b2b2b"/><path d="M177.48,284.13c-.18,7.12-8.35,6.19-12,6.35s-3.54,4.5-8.66,3.85.31,7.87-7.55,4.17S126.63,283.59,121,267.71c-1.91-5.41-2.6-9.53-1.87-12.3,1.39-5.41,8-5.89,21.12-1.33a103.63,103.63,0,0,1,15,6.53h0a78,78,0,0,1,15.59,10.47C177.59,276.22,177.63,277,177.48,284.13Z" style="fill:#2b2b2b"/><path d="M73.62,190.89A4.33,4.33,0,1,1,78,195.22,4.33,4.33,0,0,1,73.62,190.89Z" style="fill:#fff"/><path d="M164.94,172.54s3.78-5.2.33-7.57-7.29-1.95-8.8.95S155.68,177.65,164.94,172.54Z" style="fill:#2b2b2b"/><path d="M185,168.31s3.59-9.06-3.74-7.13-12.17,5.66-9.12,8.52S182.85,175.62,185,168.31Z" style="fill:#2b2b2b"/><path d="M116,161s3.58-9.06-3.74-7.13-12.17,5.65-9.12,8.52S113.84,168.31,116,161Z" style="fill:#2b2b2b"/><path d="M113,203s3.59-9.06-3.73-7.13-12.18,5.65-9.13,8.52S110.82,210.3,113,203Z" style="fill:#2b2b2b"/><path d="M204.86,165.94s-4.81-8.59-10.27-6.3-4.52,8.79,1.25,11.49S209.91,171.53,204.86,165.94Z" style="fill:#2b2b2b"/><path d="M219.51,153.63s5.59-7.45-.15-9.8-17.57-6.32-20.67-1.19,2.31,8.66,8.92,10.68S215.49,156.58,219.51,153.63Z" style="fill:#2b2b2b"/><path d="M245.91,157.17s3.83-6.8-1.14-10.6-13.58-3.1-13.76,1.48,1,11.46,6.81,12.36S245.91,157.17,245.91,157.17Z" style="fill:#2b2b2b"/><path d="M267.9,155.71s-3.06-7.2,1.35-8.59-5-6.08-11-2.46-10.62,11.57-4.2,14S271.53,164,267.9,155.71Z" style="fill:#2b2b2b"/><path d="M263.68,178.31s1-7.65-5.67-10.57-12.81,1.84-12.69,11.41,1.29,14,8.26,11S264.5,184,263.68,178.31Z" style="fill:#2b2b2b"/><path d="M256.4,101.63s-.65-9.63-9.61-11.53-15.23,5.47-12.68,17.17,5.1,16.85,12.88,11.37S258.82,108.35,256.4,101.63Z" style="fill:#2b2b2b"/><path d="M241.25,198.53s-2-16.67-8-11-8.39,6.82-12.27,6.8-7.18,3.29-2.25,6.64S243,206.21,241.25,198.53Z" style="fill:#2b2b2b"/><path d="M230.69,176.85s4-7.16-1.27-11.78-9.67-4.94-11.28,1.21-1.86,10.3,3.2,12.72S230.69,176.85,230.69,176.85Z" style="fill:#2b2b2b"/><path d="M211.46,189s3.28-7.64-5.09-9-12.82,3.9-9.37,8.32,5.77,6.91,9.6,6.49S211.46,189,211.46,189Z" style="fill:#2b2b2b"/><path d="M191.6,197.4s7.25-4.69.19-8.77-14.29-5.48-13.54,1.46S182,201.83,191.6,197.4Z" style="fill:#2b2b2b"/><path d="M177.43,182.47s3.84-4.6-.73-6.74-8.06-1.31-8.86,2.2S170.35,188.81,177.43,182.47Z" style="fill:#2b2b2b"/><path d="M165.28,188.34s2.35-5.37-2.59-6.89-10.23.17-10.3,3.73S162,194.34,165.28,188.34Z" style="fill:#2b2b2b"/><path d="M158.32,202.07s2.66-5-1.89-6.95-5.84-1.17-6.65,1.88-.83,5,2.45,5.73S157.62,204.25,158.32,202.07Z" style="fill:#2b2b2b"/><path d="M130.88,162.43s2.66-5-1.89-7-5.84-1.17-6.65,1.89-.83,5,2.44,5.72S130.18,164.61,130.88,162.43Z" style="fill:#2b2b2b"/><path d="M176.28,206.24a5.61,5.61,0,0,0-.66-6c-2.33-3.23-6.78-8-8.47-2.81s-2.38,7.81,1,9.72S174.41,210.77,176.28,206.24Z" style="fill:#2b2b2b"/><path d="M172.17,160.07s6.59-7.29,3.57-11.07-8.56-2.27-8.9,1-.67,8.58,1.08,10S172.17,160.07,172.17,160.07Z" style="fill:#2b2b2b"/><path d="M181.17,141.34s-1.27,5.45,1,9.4,6.39,5.16,8.09-.88,2.5-5.89.81-8.33S181.47,136.51,181.17,141.34Z" style="fill:#2b2b2b"/><path d="M160.29,153.1s2.51-4.32-1.21-5-6.77-1.6-7.3,1.91-.86,6.06,2.69,6.59S159.64,156.79,160.29,153.1Z" style="fill:#2b2b2b"/><path d="M225.43,61.67s2-5.93-2.75-5.89-8.7-.26-8.47,4.18.46,7.64,4.95,7.39S225.55,66.35,225.43,61.67Z" style="fill:#2b2b2b"/><path d="M149.75,160.94s-.11-5.46-3.45-4.65-6.37,4.4-6.36,6.65,2.17,4.76,5.77,3.46S148.47,164,149.75,160.94Z" style="fill:#2b2b2b"/><path d="M43.59,197.32s-.12-5.46-3.45-4.64-6.37,4.39-6.36,6.65,2.17,4.75,5.77,3.45S42.31,200.43,43.59,197.32Z" style="fill:#2b2b2b"/><path d="M107.49,238.83s3.6-4.11.59-5.76-7.68-1-9.18.63-1.61,5,1.93,6.44S104.46,240.27,107.49,238.83Z" style="fill:#2b2b2b"/><path d="M151.58,177.91s1.3-5-2.08-6.82a4.84,4.84,0,0,0-7.07,4.29C142.35,178.86,150.55,183.32,151.58,177.91Z" style="fill:#2b2b2b"/><path d="M231.39,81.86s.33-6.5-4.27-7.82a6,6,0,0,0-7.58,7C220.31,85.35,231.49,88.75,231.39,81.86Z" style="fill:#2b2b2b"/><path d="M107.07,180.56s1.3-5-2.09-6.81A4.83,4.83,0,0,0,97.91,178C97.83,181.51,106,186,107.07,180.56Z" style="fill:#2b2b2b"/><path d="M79.63,176.54s1.3-5-2.09-6.81A4.82,4.82,0,0,0,70.48,174C70.39,177.49,78.6,182,79.63,176.54Z" style="fill:#2b2b2b"/><path d="M59.22,192.94s1.3-5-2.08-6.81a4.83,4.83,0,0,0-7.07,4.28C50,193.89,58.19,198.35,59.22,192.94Z" style="fill:#2b2b2b"/><path d="M47.31,226.81s5,1.44,6.87-1.9a4.83,4.83,0,0,0-4.08-7.18C46.62,217.55,41.93,225.63,47.31,226.81Z" style="fill:#2b2b2b"/><path d="M60.55,240.31s5.09,2.52,6.81-2.7-.94-11.16-4.44-11.61S55.1,238.18,60.55,240.31Z" style="fill:#2b2b2b"/><path d="M166.1,213s-.82-7.67-6.15-6.41-7.23,4.89-5.33,7.65S168.24,218.29,166.1,213Z" style="fill:#2b2b2b"/><path d="M194.07,215.5s1.43-3.12-3.33-7.06-7.39-5-9.39-.21-1.13,9,2.93,10.38S193.06,222.46,194.07,215.5Z" style="fill:#2b2b2b"/><path d="M215.3,215s3.67-7.19-1.12-10.35-4.81-.65-7.91,2.08-6,5.56-2.37,8.36S212,221.1,215.3,215Z" style="fill:#2b2b2b"/><path d="M233.2,225.42s2.42-8.93-2.75-11.57-5.59-.08-7.06,5.33-5.2,7.64-.33,8.94S231.3,231.11,233.2,225.42Z" style="fill:#2b2b2b"/><path d="M257.87,218.88c-.4-.58-.07-1.92-3.86-5.57s-.81-7.72-6.91-7.13-10.66,7-6.43,10.22,0,8,3.59,9.66S261.74,224.44,257.87,218.88Z" style="fill:#2b2b2b"/><path d="M269,208.27a72,72,0,0,1,9.9-5.52c5-2.21,8-4.44,6.49-9.71s-11.17-8.29-14.59-1.9-3.72,5.67-7,9.48S259.11,213.8,269,208.27Z" style="fill:#2b2b2b"/><path d="M291,228.08c2.76-1.89,4.82-3.94,2.3-8.23s-3.66-8.51-9.06-3.59-7.12,8.07-5,11.5S282.72,233.77,291,228.08Z" style="fill:#2b2b2b"/><path d="M272.2,239.93s.86-2.38-2.18-5.24-.78-3.12-4-5.51-8.69-1.8-10.18,1.1-1.21,9.72,2.82,11.11S268.14,246.76,272.2,239.93Z" style="fill:#2b2b2b"/><path d="M244.08,241.6s2.23-8.23-5.17-8.35-10.69,1-11.71,4.29.57,7.64,6.64,7.67S243.85,245.5,244.08,241.6Z" style="fill:#2b2b2b"/><path d="M221.1,242.94s.57-3.84-5.18-4.18-9.18-.11-10.5,3.29,1.51,6.45,6.94,6S224,246.73,221.1,242.94Z" style="fill:#2b2b2b"/><path d="M310.2,183.9s7.89-3,13.95-1.85,8.8-1,7.79-6.11-7.93-10.44-12-6.51-3.21,1.12-9.74,1.92-10.34,1.56-9.33,6.64S302.58,187.34,310.2,183.9Z" style="fill:#2b2b2b"/><path d="M292.72,170s-4.37-6.65-7-7.76-12.31-3.87-14.18-.17-.4,6.74,6.18,8.54,4,2.3,6.18,7.09,4.45,6.74,8.72,4S295.4,173.69,292.72,170Z" style="fill:#2b2b2b"/><path d="M292.88,154s3.22-2.43-.55-5.13-8-7.84-10.88-5.07-3.52,5.47.86,8S288.53,157.54,292.88,154Z" style="fill:#2b2b2b"/><path d="M251.29,70.23s3.33-3.79-2-6.15-11.75-7.59-14.61-3.48-2.93,7.59,3.08,9.6S246.84,75.64,251.29,70.23Z" style="fill:#2b2b2b"/><path d="M307.36,149.12s-3.4-6.05-6.42-4.43-.35,5.2,2.12,9.05.32,7.19,8.66,4,5.55-5.64,12.63-5.58,11.16-4.47,7.44-7.27-12-1.45-15.45,1.66S308.81,151.22,307.36,149.12Z" style="fill:#2b2b2b"/><path d="M349.58,163.88c.66-.42,6.27-3.23,2.93-8.83s-4.26-9.84-11.57-3.58-9.53,13.22-1.6,14.83S345.1,166.74,349.58,163.88Z" style="fill:#2b2b2b"/><path d="M220.28,104.6c.69-.68,6.87-5.53,1.36-11.55s-7.69-11-15.07-1.47-8.35,18.59,1.77,18.56S215.5,109.24,220.28,104.6Z" style="fill:#2b2b2b"/><path d="M315.61,204.43a11.63,11.63,0,0,0-2.93-8.13c-3.42-4.2-10-6-12.41,1.34S294.87,212.22,303,213,316.48,209.13,315.61,204.43Z" style="fill:#2b2b2b"/><path d="M325,227s2.78-2.63-2.25-4.83-11.78.41-13.92,4-1.63,8.37,3.28,7.38S320.84,231.36,325,227Z" style="fill:#2b2b2b"/><path d="M345.76,208.78a9.64,9.64,0,0,0,1.61-10.41c-2.7-6-9.79-15.43-13.68-6.6s-10.17,18.19-3.77,20.47S343.47,213.26,345.76,208.78Z" style="fill:#2b2b2b"/><path d="M361,172.79s-5.85-1.4-3.72,5.68.36,13.88,5.8,13.52,10.2-2.72,9.81-6.32S368,173.4,361,172.79Z" style="fill:#2b2b2b"/><path d="M395.9,174.3s-8.62-5.84-10.9-1.64-7.21,9.36,1.44,13.42,15.2,3.27,17.07-.54S401.12,176.91,395.9,174.3Z" style="fill:#2b2b2b"/><path d="M426.15,181.79s-3-8.5-8.14-7.77-2.17,7.38-2.82,14,2.17,9.56,8.11,7.53S431,188.72,426.15,181.79Z" style="fill:#2b2b2b"/><path d="M408.47,214.58s-.85-7.88-7.32-2.22-17.87,10-9.91,9.62S410.74,220.83,408.47,214.58Z" style="fill:#2b2b2b"/><path d="M378.8,216.77s5.11-7.62-1.95-9.6-12.3,2-15.93,6.63-5,12.85,3.69,11.06A28.08,28.08,0,0,0,378.8,216.77Z" style="fill:#2b2b2b"/><path d="M374.83,157.88s-9.32-4.19-12.4-5.61-4.87,9.39,4.46,11.29,5.79-3.45,14.05-3.07,10.78,2.59,14.89-1.61,2.34-8-4-11.36-10.28,2-12.15,3.75S377.94,159.27,374.83,157.88Z" style="fill:#2b2b2b"/><path d="M373.24,143.19s-7.59.36-5.5,2.88.53,7.15,6.18,3.39S375.82,142.89,373.24,143.19Z" style="fill:#2b2b2b"/><path d="M230,132.9s-7.6.36-5.5,2.87.53,7.15,6.18,3.4S232.56,132.6,230,132.9Z" style="fill:#2b2b2b"/><path d="M414.68,160.07c.29-.5,4.11-3.77-3.44-5.23s-16.16-.41-12.68,4.17,6.79,9.81,11.53,7.19S414,161.21,414.68,160.07Z" style="fill:#2b2b2b"/><path d="M439.88,163.06s-10.41-1.33-10.85-5.37-4.34-6.36-6.68-2.68-3.67,12.57,4.38,13.14,13.57.89,15.69,1.47,9.28,1.39,10.6-1.15-3.29-7.18-7.28-6.12S439.88,163.06,439.88,163.06Z" style="fill:#2b2b2b"/><path d="M448.82,185.07s-.35-4.79-3.72-7.49-7.19,1.57-7.14,6.83-5.3,11.14,1.06,9.77S450.31,189.85,448.82,185.07Z" style="fill:#2b2b2b"/><path d="M474.35,180.48a15,15,0,0,0-4.37-5.59c-3-2.22-5.94-2.63-8.74-.08s-6.11,6.84-3.51,10.33,5.72,3.85,9.73,2.89S476.11,183.43,474.35,180.48Z" style="fill:#2b2b2b"/><path d="M492.11,178.56s1.06-2.94-2.17-5.82-6.84-6.3-8.06-.16-2.05,12.67,3.54,12.19S492.3,181.62,492.11,178.56Z" style="fill:#2b2b2b"/><path d="M493.7,199.57s-3.48-6.83-8.34-5.87-10.27,4.8-7.06,7.54,6.43,4.09,9.48,3.76S495.66,202.43,493.7,199.57Z" style="fill:#2b2b2b"/><path d="M351.93,238.29s5.26-5.75,1.59-10.59-8.71-6.72-13.21-3.55-1.14,8.83-1.33,13-1.17,8.57,4.17,7.41S348.66,241.06,351.93,238.29Z" style="fill:#2b2b2b"/><path d="M437,209c.22-.82-2.08-11.14-6.75-8.52s-12.28,5.55-8.13,9.1,5.89,6.82,10.2,4.52S437,209,437,209Z" style="fill:#2b2b2b"/><path d="M192.65,247.61s2-2.63-2.11-4-6.71-.17-6.79,1.34.64,4.41,3.39,4.34S192.78,250.46,192.65,247.61Z" style="fill:#2b2b2b"/><path d="M201.29,229.33c.35-.84,2-4.7-2.85-3.87s-10.72,2.59-7,4.93S200.07,232.2,201.29,229.33Z" style="fill:#2b2b2b"/><path d="M212.48,231.2s-3.26-3.19-5.59-1.22-4.27,4.91-.86,4.88S215.48,233,212.48,231.2Z" style="fill:#2b2b2b"/><path d="M177.29,223.91s-.47-5.3-3.94-5.44-8.41,3.34-5.3,6.44S179.27,228.55,177.29,223.91Z" style="fill:#2b2b2b"/><path d="M141.91,152.42s-.47-5.31-3.93-5.44-8.42,3.34-5.3,6.44S143.9,157.06,141.91,152.42Z" style="fill:#2b2b2b"/><path d="M189.35,232.67s-4.78-6.56-7.45-4.22-6.73,7.05-1.42,7.65S191.75,235.36,189.35,232.67Z" style="fill:#2b2b2b"/><path d="M178.8,242.77s.61-2.66-3.58-3-7.61-.27-7.31,2.47,2.94,4,6.79,3.73S180.42,245.32,178.8,242.77Z" style="fill:#2b2b2b"/><path d="M162.71,232.19s1.34-6.3-3.21-4.25-5.52,6.93-1.25,6.82S162.71,232.19,162.71,232.19Z" style="fill:#2b2b2b"/><path d="M163.24,239s-2.37-2.33-3.92-.12-.53,5.85,2.58,5.8S163.24,239,163.24,239Z" style="fill:#2b2b2b"/><path d="M294.83,134.42s-2.37-2.33-3.92-.12-.53,5.85,2.58,5.81S294.83,134.42,294.83,134.42Z" style="fill:#2b2b2b"/><path d="M253.21,246.49s-3.29.51-2.44,3.07,4.37,3.92,6.19,1.4S253.21,246.49,253.21,246.49Z" style="fill:#2b2b2b"/><path d="M456.89,194.34s-2.37-2.33-3.92-.12-.53,5.85,2.58,5.81S456.89,194.34,456.89,194.34Z" style="fill:#2b2b2b"/><path d="M402.6,196.12s-2.37-2.33-3.91-.12-.53,5.84,2.58,5.8S402.6,196.12,402.6,196.12Z" style="fill:#2b2b2b"/><path d="M520.57,157.6s-2.75,2.57-.87,5,5.64,1.89,6.2-2.13S520.57,157.6,520.57,157.6Z" style="fill:#2b2b2b"/><path d="M336,133.56s-2.75,2.57-.88,5,5.65,1.89,6.21-2.13S336,133.56,336,133.56Z" style="fill:#2b2b2b"/><path d="M144,187.2s-2.37-2.33-3.91-.13-.53,5.85,2.58,5.81S144,187.2,144,187.2Z" style="fill:#2b2b2b"/><path d="M130.74,181.24s-2.37-2.33-3.92-.12-.53,5.85,2.58,5.8S130.74,181.24,130.74,181.24Z" style="fill:#2b2b2b"/><path d="M130,168.08s-1.53,2.95,1,3.77,5.74-1.22,4.78-4.18S130,168.08,130,168.08Z" style="fill:#2b2b2b"/><path d="M217.55,112.63s-2.46,5.6,2.45,5.42,10.57-5.27,8.38-9.43S217.55,112.63,217.55,112.63Z" style="fill:#2b2b2b"/><path d="M248.94,136.13s-1,3.66,2,4,6.15-2.69,4.39-5.78S248.94,136.13,248.94,136.13Z" style="fill:#2b2b2b"/><path d="M263.12,109.49s-1.12,4,2.23,4.36,6.73-2.94,4.81-6.32S263.12,109.49,263.12,109.49Z" style="fill:#2b2b2b"/><path d="M220.2,44.39s-1.12,4,2.23,4.37,6.72-2.94,4.8-6.33S220.2,44.39,220.2,44.39Z" style="fill:#2b2b2b"/><path d="M255.56,83.47s2.92,3,4.89.22.77-7.3-3.11-7.31S255.56,83.47,255.56,83.47Z" style="fill:#2b2b2b"/><path d="M203.36,120.08s2.92,3,4.89.22.78-7.3-3.11-7.31S203.36,120.08,203.36,120.08Z" style="fill:#2b2b2b"/><path d="M115.44,180.38s-1.52,3,1,3.77,5.75-1.22,4.79-4.18S115.44,180.38,115.44,180.38Z" style="fill:#2b2b2b"/><path d="M112.53,169s-1.45,3.88,1.32,5.86,6-.06,4.84-4.7S112.53,169,112.53,169Z" style="fill:#2b2b2b"/><path d="M59,176.66s-1.45,3.89,1.32,5.87,6-.07,4.84-4.71S59,176.66,59,176.66Z" style="fill:#2b2b2b"/><path d="M45,203.86s-1.45,3.89,1.32,5.87,6-.07,4.84-4.7S45,203.86,45,203.86Z" style="fill:#2b2b2b"/><path d="M72.89,229.82s-1.45,3.88,1.32,5.86,6-.06,4.84-4.7S72.89,229.82,72.89,229.82Z" style="fill:#2b2b2b"/><path d="M142.48,232.27s-3.69,1.89-3,5.22,4.5,4,6.75-.21S142.48,232.27,142.48,232.27Z" style="fill:#2b2b2b"/><path d="M112.63,214s-3.69,1.89-3,5.22,4.5,4,6.75-.21S112.63,214,112.63,214Z" style="fill:#2b2b2b"/><path d="M87.19,224.32s-1.45,3.88,1.32,5.86,6-.06,4.84-4.7S87.19,224.32,87.19,224.32Z" style="fill:#2b2b2b"/><path d="M34,213.73s-1.45,3.88,1.32,5.86,6-.07,4.84-4.7S34,213.73,34,213.73Z" style="fill:#2b2b2b"/><path d="M106.93,188.28s-1.8,2.8.68,3.86,5.83-.66,5.16-3.7S106.93,188.28,106.93,188.28Z" style="fill:#2b2b2b"/><path d="M92,195.48s-1.8,2.8.68,3.86,5.83-.67,5.16-3.7S92,195.48,92,195.48Z" style="fill:#2b2b2b"/><path d="M223.06,258.16s1.32,5.38,5.44,3.6,5.87-7.83,1.42-10.49S223.06,258.16,223.06,258.16Z" style="fill:#2b2b2b"/><path d="M93.57,170.55s3.67,2.6,5.25-.68-.56-7.91-4.69-7.18S93.57,170.55,93.57,170.55Z" style="fill:#2b2b2b"/><path d="M143.25,208.39s-3.36-1.57-4.88,1.29,3.87,6.21,5.67,6S145.94,208.76,143.25,208.39Z" style="fill:#2b2b2b"/><path d="M149.41,221s-.2-3.63-3.31-.89-4.51,6.73-.8,7.26S151.24,227.42,149.41,221Z" style="fill:#2b2b2b"/><path d="M98.86,209.28s-.2-3.63-3.31-.9-4.51,6.73-.8,7.26S100.69,215.69,98.86,209.28Z" style="fill:#2b2b2b"/><path d="M129.26,197.64s-3.07-1.93-2.64,2.19,2.9,7.57,5.47,4.84S135.56,199.85,129.26,197.64Z" style="fill:#2b2b2b"/><path d="M120.39,232s-3.08-1.93-2.64,2.19,2.9,7.56,5.47,4.84S126.69,234.19,120.39,232Z" style="fill:#2b2b2b"/><path d="M291.71,239.05s-3.07-1.93-2.64,2.19,2.9,7.57,5.47,4.84S298,241.26,291.71,239.05Z" style="fill:#2b2b2b"/><path d="M32.2,206.18s-.2-3.62-3.31-.89-4.5,6.73-.79,7.26S34,212.6,32.2,206.18Z" style="fill:#2b2b2b"/><path d="M127.16,216.76s-4.52-3.09-4.11,3.13,3.91,11.55,8,7.61S136.5,220.45,127.16,216.76Z" style="fill:#2b2b2b"/></g></g></svg>