<svg xmlns="http://www.w3.org/2000/svg" viewBox="0 0 317.58 106.94"><title>dragon-goby</title><g id="Layer_2" data-name="Layer 2"><g id="Ñëîé_2" data-name="Ñëîé 2"><path d="M313.28,72.43h0c-.11.22-3.73,7.48-22,6.89-18.59-.6-47.34-18.94-53.13-22.14s-18.8-10.2-26.79-13.4S182.53,33.15,181,27.9s-9.3-7.5-13.8-6.3-10.2,0-12.59-4.25S150,14,146.09,15a5.12,5.12,0,0,1-5.7-1.73c-8.85-9.09-9.3,3.55-18.74-4.39s-13.8,1.19-20.55-3.15S89,8.41,84.76,5.86s-7.2-1.2-14.7,4.94-15.19,4.31-22,.5-11.9.81-10.1,4a7.57,7.57,0,0,1-4.3,10.75c-5.39,2.05-11-.65-14.19-4.35S10.72,18,10.41,18A11.08,11.08,0,0,1,14,21.33a0,0,0,0,0,0,0l.1.09.44.42c.07.06.13.13.21.21l.13.13.33.35a18.58,18.58,0,0,1,1.31,1.53,2.1,2.1,0,0,1,.22.3c.12.15.24.31.35.47l.33.5c.11.17.22.34.31.51a5.05,5.05,0,0,1,.25.45c.08.15.16.29.23.44s.09.22.14.33a3.45,3.45,0,0,1,.14.34,1.34,1.34,0,0,1,.07.18,1.15,1.15,0,0,1,.06.17,2.79,2.79,0,0,1,.14.47l.08.29a4.64,4.64,0,0,1,.11.65c.45,3.9-6.82.76-10.12-.74s-6.6-3.75-6.37-4.5A5.26,5.26,0,0,0,.19,25.6c-1.3,1.8,4,8.79,22.39,13,0,0,14.79-.49,21.69-5.29,5.74-4,1.94-16.88.49-21.13a.21.21,0,0,1,.38-.18c2.48,3.56,9.18,14.5,4.23,22.51-3.3,5.34-11.1,6-17.44,5.59,11.9,1.24,27.06.88,44.64.29-.25-3.36-.89-6.92-.21-8,1-1.65,3-2.85,2.7-7.8a9.8,9.8,0,0,1,.71-4.46,8.43,8.43,0,0,1-.71-3.49c0-4.59,3-6.32,6.67-6.84a35.86,35.86,0,0,1,8.85.25c3.27.38,6.54.82,9.8,1.29,4.66.67,9.32,1.36,14,2.14,11.46,1.9,22.94,4.19,33.82,8.34,11.28,4.3,22.35,9.15,33.42,14,16.25,7.09,33,14.32,47.78,24.19,19.79,13.19,40.79,19.49,48.28,20.69S299.49,85.63,289,87s-23.89-1.6-39.89-10.8S191.37,49.34,168.88,39c-21.33-9.82-60.59-13.56-71.63-13.07.24.1.34.19.1.26-.9.29,1.65,2.31-1.35,3.21s1.8,3.45,0,4.2,1,3.15-.89,4.22-.27,1.88-1.11,2q7-.23,14.35-.39c18.72-.41,49.4,9.37,78.6,20.38,4.92,1.86,9.79,3.75,14.56,5.63,22.86,9,43.29,17.89,54.19,21.87,16.44,6,32,6.2,43,4.18a40.91,40.91,0,0,0,12.6-4.17,13.32,13.32,0,0,0,2-1.36C319.88,80.38,318.08,69.59,313.28,72.43ZM75.86,30.3c-1.8,6.9-10.4,8.4-17.19,7.09s-1.81-2.22-.5-2.59c0,0,12-2.1,14-18.95S77.66,23.4,75.86,30.3Z" style="fill:#bdedff"/><path d="M8.81,28.43c-3.3-1.5-6.6-3.75-6.37-4.5a7.37,7.37,0,0,1,5.24-.23A91,91,0,0,1,16,27.6s1.09.45.85-.3a21.4,21.4,0,0,0-2.85-6l.1.09.44.42c.07.06.13.13.21.21l.13.13.33.35a18.58,18.58,0,0,1,1.31,1.53,3.3,3.3,0,0,1,.22.3c.12.15.23.31.35.47l.33.5c.11.17.21.34.31.51a5.05,5.05,0,0,1,.25.45l.23.44c0,.11.09.22.14.33a3.45,3.45,0,0,1,.14.34,1.34,1.34,0,0,1,.07.18l.06.17c0,.16.1.31.14.47l.08.29a4.64,4.64,0,0,1,.11.65C19.38,33.07,12.11,29.93,8.81,28.43Z" style="fill:#414142"/><path d="M310.73,73.47c-6.1,1.81-16.94,1.81-16.94,1.81-25.49,1.2-85.47-40.78-85.47-40.78s-24.64-16.92-63-27a226.18,226.18,0,0,0-22.43-4.74c-51-8.1-103.92,4.35-110.52,6.45s-10.94,7-4.5,7.94a7.37,7.37,0,0,1,2.58.88c.31,0,6,.12,9.07,3.72s8.8,6.4,14.19,4.35A7.57,7.57,0,0,0,38,15.3c-1.8-3.19,3.3-7.79,10.1-4s14.5,5.65,22-.5,10.5-7.49,14.7-4.94,9.6-4.5,16.34-.15,11.1-4.8,20.55,3.15,9.89-4.7,18.74,4.39a5.12,5.12,0,0,0,5.7,1.73c3.9-1,6.15-1.88,8.55,2.37s8.09,5.45,12.59,4.25,12.3,1,13.8,6.3,22.29,12.7,30.29,15.89,21,10.2,26.79,13.4,34.54,21.54,53.13,22.14c18.31.59,21.93-6.67,22-6.89A11.35,11.35,0,0,1,310.73,73.47ZM26.43,17.35a2.05,2.05,0,1,1,2.05-2.05A2,2,0,0,1,26.43,17.35Z" style="fill:#72a1b2"/><path d="M26.43,13.25a2.05,2.05,0,1,0,2.05,2.05A2,2,0,0,0,26.43,13.25Zm0,2.6A.88.88,0,1,1,27.3,15,.87.87,0,0,1,26.43,15.85Z" style="fill:#eae3dd"/><path d="M27.3,15a.88.88,0,1,1-.87-.88A.87.87,0,0,1,27.3,15Z" style="fill:#414142"/><path d="M49.37,34.5c-3.3,5.34-11.1,6-17.44,5.59a81.55,81.55,0,0,1-9.29-1.48l-.06,0s14.79-.49,21.69-5.29c5.74-4,1.94-16.88.49-21.13a.21.21,0,0,1,.38-.18C47.62,15.55,54.32,26.49,49.37,34.5Z" style="fill:#72a1b2"/><path d="M31.93,40.09a55.32,55.32,0,0,1-9.29-1.48A81.55,81.55,0,0,0,31.93,40.09Z" style="fill:#bdedff"/><path d="M75.86,30.3c-1.8,6.9-10.4,8.4-17.19,7.09s-1.81-2.22-.5-2.59c0,0,12-2.1,14-18.95S77.66,23.4,75.86,30.3Z" style="fill:#d7f4ff"/><path d="M289,87c-10.5,1.35-23.89-1.6-39.89-10.8S191.37,49.34,168.88,39c-21.33-9.82-60.59-13.56-71.63-13.07-.68-.31-2.54-.83-1.1-2,1.95-1.58-1.34-1.73.15-3.23s-1.79-2.05-.75-3.35-1.34-1.9-1-3.25-3.3-.94-6.75.88-4.65.78-6,2.37a7.33,7.33,0,0,0-2,2.79,8.43,8.43,0,0,1-.71-3.49c0-4.59,3-6.32,6.67-6.84a35.86,35.86,0,0,1,8.85.25c3.27.38,6.54.82,9.8,1.29,4.66.67,9.32,1.36,14,2.14,11.46,1.9,22.94,4.19,33.82,8.34,11.28,4.3,22.35,9.15,33.42,14,16.25,7.09,33,14.32,47.78,24.19,19.79,13.19,40.79,19.49,48.28,20.69S299.49,85.63,289,87Z" style="fill:#d7f4ff"/><path d="M92.38,29.09c-5.85-.37-10.87-1.42-10.2,0S91.1,31.64,91,32.69s-5.72-.37-9.27-1-.47,1.05,6.61,3.44,3.09,2.77-4.46,0-5.1-.15.52,3.45,2.7,3.62-1.05,1.48-5.84-4-4.64-1.17,4,4.64,2.84,5.17-4.83-2.56-5.16-5.41c0,0,0,0,0-.07-.27-2.76-.61-5.34,0-6.21,1-1.65,3-2.85,2.7-7.8a9.8,9.8,0,0,1,.71-4.46,7.33,7.33,0,0,1,2-2.79,81,81,0,0,0,8.14-1.49c3.23-.86,1.88.63-1.72,1.49s-.11,1,3.55.87,1.77,1.2-4.23,1.5-4.79,1.73,2.93,2.4,3.15,2.32-3.22,1.05-7.65,1.78-.75,2.88S98.23,29.46,92.38,29.09Z" style="fill:#72a1b2"/><path d="M96,33.6c-1.8.75,1,3.15-.9,4.22s-.27,1.88-1.11,2H93.9c-1,0-1,2.35-1.94,2s-.45,2.13-2.85,1.38-.45,2.1-1.65,1.8-3.75,2.4-5.1,1.32-2,1.23-3.45.78-3.6,1.8-2.55-1.8a15.06,15.06,0,0,0,.21-4.91c0-.56-.1-1.13-.15-1.7.33,2.85,4,5.93,5.16,5.41s-1.64-2.33-2.84-5.17.9-1,4.64,1.17,6.68,2.13,1.05-1.48-8.07-6.21-.52-3.45,11.55,2.4,4.46,0-10.16-4-6.61-3.44,9.2,2,9.27,1-8.17-2.1-8.85-3.56,4.35-.41,10.2,0,1-1.95-5.92-3-5.62-4.15.75-2.88,11-.38,3.22-1.05-8.92-2.1-2.93-2.4,7.89-1.63,4.23-1.5-7.15,0-3.55-.87S93.13,15,89.9,15.86a81,81,0,0,1-8.14,1.49c1.35-1.59,2.55-.55,6-2.37s7-2.23,6.74-.88,2.1,2,1,3.25,2.25,1.85.75,3.35,1.8,1.65-.15,3.23c-1.44,1.17.42,1.69,1.1,2,.24.1.34.19.1.26-.9.29,1.65,2.31-1.35,3.21S97.8,32.85,96,33.6Z" style="fill:#a3c0c8"/><path d="M310.73,73.47c-6.1,1.81-16.94,1.81-16.94,1.81-25.49,1.2-85.47-40.78-85.47-40.78s-24.64-16.92-63-27a35.85,35.85,0,0,0,14.86-3.2C165.5,1.68,171.76-.3,172.44.1a.09.09,0,0,1,.05.12c-.05.21-.53.6-1.56,1.19-5.2,3-11.2,7.63-5.4,8.21,4.71.48,19.5-3.79,21.58-3.48l.15,0c.28.12,0,.44-1,1-6.13,3.59-12.33,9.29-2.94,10.14,7.82.71,17.84-1.73,23.76-.93l1.06.19a6.91,6.91,0,0,1,2,.74,3.29,3.29,0,0,1,.78.58,2.38,2.38,0,0,0,.12.34c-.56,1.05-12.07-.77-16.3,4.13-5,5.8,18.8,5.3,24.8,3.65,3.19-.88,6.2-1.26,7.22-1h0l.32.27c0,.34-1.07.95-3.59,1.85-7.4,2.65-11.59,8.25-3,7.65s17-4,21.2-1.6-5.6-.6-14.4,5.6,12,5.79,19.59,4.2c4.17-.88,7.91-1,9.36-.61h0c.18.16.38.31.6.47-.1.31-.94.7-2.77,1.14-6.6,1.59-12.79,4.59-11.59,7s6.79,3.56,12.19,2.28a25,25,0,0,1,11.8,0l.2.17c-.28.76-11.15,3-12.6,5.35-1.57,2.57,8.8,3.2,15,1.4,3.9-1.14,8.35-1,10.12-.37.19.11.4.22.62.32h0c.36.31.13.69-1,1.06-4,1.38-9.87,2-10.8,4.58s9.79,4.2,16.39,1.59a24.3,24.3,0,0,1,9.33-1.92h.06l.54.12h0c.5.21.28.62-1,1.19-4,1.8-7.36,3.4-6.16,5.2S299.78,76,310.73,73.47Z" style="fill:#6696a3"/><path d="M207.08,16.42c-5.92-.8-15.94,1.64-23.76.93-9.39-.85-3.19-6.55,2.94-10.14,1-.59,1.28-.91,1-1,5.59,1.4,7.37-.31,8.16,3.44C196.18,13.19,201.08,15.28,207.08,16.42Z" style="fill:#a3c0c8"/><path d="M187.11,6.14c-2.08-.31-16.87,4-21.58,3.48-5.8-.58.2-5.22,5.4-8.21,1-.59,1.51-1,1.56-1.19.33.71,1.67,2.87,5.94,2.79C183.53,2.91,181.41,4.68,187.11,6.14Z" style="fill:#a3c0c8"/><path d="M313.28,72.43h0a11.35,11.35,0,0,1-2.55,1c-11,2.54-22.24.31-23.44-1.49s2.2-3.4,6.16-5.2c1.26-.57,1.48-1,1-1.19,5.47,1.24,5.59,3.45,9.45,2S303.28,73.59,313.28,72.43Z" style="fill:#a3c0c8"/><path d="M293.82,65.46a24.3,24.3,0,0,0-9.33,1.92c-6.6,2.61-17.33,1-16.39-1.59s6.8-3.2,10.8-4.58c1.08-.37,1.31-.75,1-1.06,5.34,2.64,5.34,2.34,7.64,1.94S287.88,64.23,293.82,65.46Z" style="fill:#a3c0c8"/><path d="M279.22,59.82c-1.77-.61-6.22-.77-10.12.37-6.2,1.8-16.57,1.17-15-1.4,1.45-2.35,12.32-4.59,12.6-5.35,3.89,3.29,4,1.56,7.79,2S274.8,57.36,279.22,59.82Z" style="fill:#a3c0c8"/><path d="M266.5,53.27a25,25,0,0,0-11.8,0c-5.4,1.28-11,.12-12.19-2.28s5-5.4,11.59-7c1.83-.44,2.67-.83,2.77-1.14h0c5.12,3.63.62,3.23,6.12,3.93S262.4,49.75,266.5,53.27Z" style="fill:#a3c0c8"/><path d="M256.26,42.39c-1.45-.36-5.19-.27-9.36.61-7.59,1.59-28.39,2-19.59-4.2s18.6-3.21,14.4-5.6c6.19,3.5,4.89,3,10.19,3.5C257,37.17,252.22,39.06,256.26,42.39Z" style="fill:#a3c0c8"/><path d="M241.71,33.2c-4.2-2.4-12.6,1-21.2,1.6s-4.4-5,3-7.65c2.52-.9,3.56-1.51,3.59-1.85a14.62,14.62,0,0,0,8.31,2.6C241.2,28.1,235.51,29.7,241.71,33.2Z" style="fill:#a3c0c8"/><path d="M226.74,25c-1-.23-4,.15-7.22,1-6,1.65-29.8,2.15-24.8-3.65,4.23-4.9,15.74-3.08,16.3-4.13.37.87,1.89,3.06,7.6,2.73C225.7,20.6,218.67,22.56,226.74,25Z" style="fill:#a3c0c8"/><path d="M297.54,101.45c.47.42.25.69-1.42.6h0c-.65,0-1.51-.12-2.64-.27-9.53-1.31-7.36-5.7-10.42-6.1s-7.53.3-6.44,4.19,4.5,1.7,6.2,2.9c.67.47-.11,1.39-1.46,2.11l-.08,0,0,0c-1.62.83-4,1.37-5.79.6a3.51,3.51,0,0,1-1.44-1.11c-2.81-3.66-11.8-19.54-13.1-10.64-1.15,7.88,8.84,11,6.26,10.61-.33,0-.87-.16-1.66-.32-.29,0-.57-.12-.83-.18-6.26-1.55-7.34-5.51-9.07-10.21-1.8-4.9-7.4-7-7.4-.6,0,5.63,7.2,9.16,5.94,9.39h0a3.68,3.68,0,0,1-1-.09,20.63,20.63,0,0,1-2.71-.68h0q-.6-.25-1.11-.42l0,0a9,9,0,0,1-5.1-4.87c-1.41-3.4-1.8-11.4-7.4-12.6s-4,3.8-2.6,8.83,5,5.77,4.2,6a7.12,7.12,0,0,1-5.85-1.15l-.21-.16a9.57,9.57,0,0,1-2.94-4.65c-2.4-7.36-6.6-17-9.31-15.83s-2.88,5.6-.89,10.51c1.06,2.59,1,3.53.71,3.84h0c-.27.27-.71.05-.71.05l-.55-.34c-11.86-7.39-6.08-18.06-8.25-18.45s-6.39,0-5,7c.59,3,.68,4.18.59,4.57-.13.55-.59-.36-.59-.36-8.4-8.79-3.81-18.17-3.81-18.17,22.86,9,43.29,17.89,54.19,21.87,16.44,6,32,6.2,43,4.18-11.88,2.28-7.21,6.62-6,7.41.69.47,4,1.78,4.85,2.57Z" style="fill:#6696a3"/><path d="M205.32,83.58s-5.7-4.7-8.55-9-4.35-.39-5.1-3.84-4.72-11-4.72-11c4.92,1.86,9.79,3.75,14.56,5.63C201.51,65.41,196.92,74.79,205.32,83.58Z" style="fill:#a3c0c8"/><path d="M218.56,90.84c-7.16-3.26-6.12-.41-8.07-3a15.63,15.63,0,0,0-4.58-3.94c.09-.39,0-1.6-.59-4.57-1.4-7,2.8-7.39,5-7S206.7,83.45,218.56,90.84Z" style="fill:#a3c0c8"/><path d="M232.25,97.26c-4.29-1.87-3.55,1.51-5.71-1.88s-6.52-4.21-6.72-4.25c.29-.31.35-1.25-.71-3.84-2-4.91-1.82-9.31.89-10.51s6.91,8.47,9.31,15.83A9.57,9.57,0,0,0,232.25,97.26Z" style="fill:#a3c0c8"/><path d="M249.21,101.25c-5-1.64-3.62,1.73-5.58,0a14.27,14.27,0,0,0-5.32-2.65c.8-.19-2.8-.93-4.2-6s-3-10,2.6-8.83,6,9.2,7.4,12.6A9,9,0,0,0,249.21,101.25Z" style="fill:#a3c0c8"/><path d="M264.67,103.89c-5.42-1-2.9,2.21-4.84.56s-5.46-2-5.69-2c1.26-.23-5.94-3.76-5.94-9.39,0-6.4,5.6-4.3,7.4.6C257.33,98.38,258.41,102.34,264.67,103.89Z" style="fill:#a3c0c8"/><path d="M275.44,105.53c-4.11-.77-2.23,2.41-3.62,1.09s-4.66-2.23-4.66-2.23c2.58.37-7.41-2.73-6.26-10.61,1.3-8.9,10.29,7,13.1,10.64A3.51,3.51,0,0,0,275.44,105.53Z" style="fill:#a3c0c8"/><path d="M296.09,102.05c-7.14.39-1.71,3.82-6.27,2.34a12.26,12.26,0,0,0-8.49.49c1.35-.72,2.13-1.64,1.46-2.11-1.7-1.2-5.09,1-6.2-2.9s3.39-4.6,6.44-4.19.89,4.79,10.42,6.1C294.58,101.93,295.44,102,296.09,102.05Z" style="fill:#a3c0c8"/><path d="M306.09,95.9c-5.36-.22-8.41,5.29-8.55,5.54-.87-.79-4.16-2.1-4.85-2.57-1.2-.79-5.87-5.13,6-7.41a40.91,40.91,0,0,0,12.6-4.17C303.1,93.6,311.56,96.13,306.09,95.9Z" style="fill:#a3c0c8"/><path d="M26.89,14.69a.55.55,0,1,1,1.09,0,.55.55,0,0,1-1.09,0Z" style="fill:#eae3dd"/></g></g></svg>