<svg xmlns="http://www.w3.org/2000/svg" viewBox="0 0 309.68 134.98"><title>dwarf-loach</title><g id="Layer_2" data-name="Layer 2"><g id="Ñëîé_2" data-name="Ñëîé 2"><path d="M295.37,120.15c-3.29-.62-6.57,4.31-6.57,4.31-2.61-6.22.08-14.61.2-15-3.08,1.44-9.23,9.67-9.23,9.67a23.05,23.05,0,0,1,4.93-14.64c-5.34.78-10.67,12.35-10.67,12.35-2-8.41,4.92-18.47,3.49-19.24s-7.13,2.8-7.13,2.8a9.32,9.32,0,0,1,4.67-5.79,16.86,16.86,0,0,0-16.83,6.2c3.29-11.73,15.79-12.68,9-11.94s-15.18,11.53-15.18,11.53c1.84-11.92,10.31-16.33,10.31-16.33-6.87-.19-13.13,3.58-13.13,3.58,4.36-7.65,16.86-7.51,11.84-8s-19.28,1.09-19.28,1.09c6.57-4.71,17.27-5.83,17.27-5.83-7.55.39-15.55-2.85-15.55-2.85,7.66,1.23,20.85-4.72,15.55-4.51s-15.55-3.08-15.55-3.08c11.15,1.64,22.9-6.15,17.15-4s-15-1.37-15-1.37c21.74-1.46,34.94-14.87,27.28-10.63s-26.05,2.05-13.91,1,24-12.46,24-12.46c-5.54-1.64-12.11,2-12.11,2,6.77-13.95,26.26-10,20.11-12.1S270.35,31.94,270,32.13c11.76-10.72,28.54-12.52,29-12.57h0c1.36-2.64,1.48-4.62-1.88-4.52-8.47.27-22.15,6.57-36.38,17.78-9.93,7.83-17.06,11-28.18,12.37A24.37,24.37,0,0,1,238,53.43v0a37,37,0,0,1,1.92,6.11h0A50.13,50.13,0,0,1,241,70.3c0,10.66-8.49,18.3-8.49,18.3a33.65,33.65,0,0,1,4.12,3.3c6,5.48,35.28,27.9,59.35,39.39,8.44,4,12.2,4.33,13.32,2.81C298,130.92,298.24,120.69,295.37,120.15Zm-40.11-79c.72-3,9.85-8.61,12.82-7.79s1.95,2.66,0,4.1a8.22,8.22,0,0,0-2.67,3.69s-.71,6-6,5.65S254.54,44.13,255.26,41.16ZM239.05,53.08c-2.15-1.31-1.84-4.43,0-5.76s4.31-1.74,7.28,0,1.85,6.44,1.85,6.44c-.82,2.34-2.57,2.38-5.21,2S241.2,54.39,239.05,53.08Zm10.16,37c-.41,2.23-.32,4.53-1.33,4.75s-4.11-1.65-6.88-2.88-4.42-4.21-2.05-7.25,4.92-1.36,7.89,0S249.21,90.07,249.21,90.07ZM271.05,109s-1.43,2-2.56,2.27-3.38-1.13-7.29-4-2.15-6.77,3.09-6.87,8.81,3.69,8.71,5S271.05,109,271.05,109Z" style="fill:#dbd3ce"/><path d="M238,54s-5.86-.53-15.3-1.17a16.2,16.2,0,0,1-1.75-6.75c4.38-.17,8.18-.42,11.6-.86A24.37,24.37,0,0,1,238,53.43v0C238,53.51,238,53.69,238,54Z" style="fill:#e0ab4f"/><path d="M238,71.8c-.43-1.78.84-2.74,0-4a47.39,47.39,0,0,1-2.58-6c-2,.31-5.31-.28-9.37-4.33l-.22-.24a17.65,17.65,0,0,1-3.14-4.44,16.2,16.2,0,0,1-1.75-6.75c-1.77.07-3.64.13-5.62.18a74.83,74.83,0,0,1-10.46-.5c1.63.21,3.44,2.9,4.07,6.21,0,.2.07.39.1.59a7.6,7.6,0,0,1-.21,2.72c-.77,3.17-3.14,6.5-4.72,6.08a13,13,0,0,1-7.23-6.95,11.88,11.88,0,0,1-.77-2.45c0-.22-.08-.43-.11-.64-.75-5.12,2.47-6.49,2.47-6.49-8.06-1.41-16.51-3.64-27.2-5.69a268.67,268.67,0,0,0-40.74-4.65c-5.44-.23-10.72-.33-15.87-.3-38.35.2-68.44,7.68-87.25,26C14.29,72.91,9.85,79.8,9.18,83.34c3.57-2,7-1.56,11.89-.73s6.16.68,12.45-.69,7.11,3.56,12.31-1.1,9.3-1.23,11.21-1.36,1.23-3,6-2.87S68,79.73,69.9,80.14s4.31-4.92,9.85-5.15,6.77,2.28,7.59,0,4.31-2.64,8.2-1.82,7.18,6,10.26,1.82,13.34-5.31,17-2.85,5.13,3.28,8.5.62,11-3.08,14.48-.21,6.36,5.34,7.38,4.11,3.49-4.93,9.23-3.9,3.7,7.79,9,7.38,3.12-3.89,6-7,7.18-1.85,10.26.61,3.08,6.57,9,6,0-9.23,11.89-8,9.64,14.08,9.64,14.08a26.5,26.5,0,0,1,9.2.5c-.72-3.8,3.87-6.72,8-7s2.33,0,1.37-3.42S238.4,73.58,238,71.8ZM64,58.5c-.41,2.36-4.92,4.31-6.57,4.31s-3,0-3.89.92-5.27,2.36-5.27,2.36A8.34,8.34,0,1,1,34.11,73c-3.77-1.21-5.65,3-8,2.25s-4.81-.82-7.17,1.68-4.51,1.4-4-.59,4-4.37,5.54-5.39a25.06,25.06,0,0,0,5.63-6.06c1.23-2,4.62.72,6.06-2S37.39,59.42,40,58s1.86-1.85,5.18-1.33,5.3.1,6.31-2,4-2.68,6.47,0c2.17,2.33,5.45,1.74,5.92,3.18A1.48,1.48,0,0,1,64,58.5ZM88.36,62c-2.66,3.38-13.13,4.41-17.13,0a11.23,11.23,0,0,1-2.82-5.24c-.61-3.25,1-6.45,6.51-8.1,8.62-2.56,11.7,3.28,11.7,3.69a14.86,14.86,0,0,1,.79,1.28,13.41,13.41,0,0,1,1.77,5.08A4.44,4.44,0,0,1,88.36,62Zm25.18-10.06a10.3,10.3,0,0,1-1.25,4,11.91,11.91,0,0,1-1.05,1.65c-1.54,2.66-4.1,3.48-8.11,2.66a9.33,9.33,0,0,1-4.47-2.84,12.22,12.22,0,0,1-2.76-4.51,6.81,6.81,0,0,1,.77-6.19c3.8-5.44,11.59-3.69,15.39.72A6,6,0,0,1,113.54,51.93Zm27.34-1.3a9.3,9.3,0,0,1-1.06,3.77,8.16,8.16,0,0,1-1.4,2.06c-2.26,2-5.13,1.84-7.89,1.12a9,9,0,0,1-3.72-2.68,12.72,12.72,0,0,1-2.3-3.5,7.58,7.58,0,0,1,.27-7c3.48-6,12.2-3.19,15.08,1.94A7.73,7.73,0,0,1,140.88,50.63Zm22.57,2.94a2.28,2.28,0,0,0,0,.26c-.55,5.54-5.69,7.07-10.24,3.24a8.81,8.81,0,0,1-2.27-3,11.59,11.59,0,0,1-1-3.65,14,14,0,0,1,.18-4s.21-3.69,5.23-3.6c4.06.08,7.13,3.31,7.93,7.59A11.93,11.93,0,0,1,163.45,53.57Zm20.21.31A8.18,8.18,0,0,1,182,58.06c-1.34,2.69-3.28,3.52-4.45,3.21s-4.28-3.21-5.58-7.51c0-.13-.09-.25-.12-.39a12.38,12.38,0,0,1-.43-2.87c-.12-3.57,1.33-6.78,3.92-6.78,3.28,0,5.43.82,7.59,5.8a9,9,0,0,1,.45,1.29A8.16,8.16,0,0,1,183.66,53.88Z" style="fill:#2b2b2b"/><path d="M64,58.5c-.41,2.36-4.92,4.31-6.57,4.31s-3,0-3.89.92-5.27,2.36-5.27,2.36a8.32,8.32,0,0,0-5.81-2.36c8.51-2.53,15.43-4.46,21.51-5.94A1.48,1.48,0,0,1,64,58.5Z" style="fill:#ffda74"/><path d="M63.92,57.79c-6.08,1.48-13,3.41-21.51,5.94a8.35,8.35,0,0,0-8.35,8.35,8.69,8.69,0,0,0,0,.89c-3.77-1.21-5.65,3-8,2.25s-4.81-.82-7.17,1.68-4.51,1.4-4-.59,4-4.37,5.54-5.39a25.06,25.06,0,0,0,5.63-6.06c1.23-2,4.62.72,6.06-2S37.39,59.42,40,58s1.86-1.85,5.18-1.33,5.3.1,6.31-2,4-2.68,6.47,0C60.17,56.94,63.45,56.35,63.92,57.79Z" style="fill:#e0ab4f"/><path d="M48.22,66.09a8.34,8.34,0,0,0-14.16,6,8.69,8.69,0,0,0,0,.89,8.34,8.34,0,1,0,14.11-6.88Zm-5.81,13.2a7.09,7.09,0,0,1-4-1.19,4.15,4.15,0,0,1-.34-.24,7.18,7.18,0,0,1-2.91-5.78,7.67,7.67,0,0,1,.23-1.81,7.22,7.22,0,0,1,11-4.18l.1.08a7.21,7.21,0,0,1-4.13,13.12Z" style="fill:#212121"/><path d="M208.9,51.94c-4.05-.23-8.39-.45-12.94-.65-.75-5.12,2.47-6.49,2.47-6.49,2.15.38,4.27.7,6.4.93C206.46,45.94,208.27,48.63,208.9,51.94Z" style="fill:#e0ab4f"/><path d="M208.79,55.25c-4-.37-8-.65-11.95-.87a11.88,11.88,0,0,1-.77-2.45c0-.22-.08-.43-.11-.64,4.55.2,8.89.42,12.94.65,0,.2.07.39.1.59A7.6,7.6,0,0,1,208.79,55.25Z" style="fill:#ffda74"/><path d="M208.79,55.25c-.77,3.17-3.14,6.5-4.72,6.08a13,13,0,0,1-7.23-6.95C200.81,54.6,204.78,54.88,208.79,55.25Z" style="fill:#fffd9b"/><path d="M208.58,71.73c-11.89-1.23-5.94,7.39-11.89,8s-5.95-3.48-9-6-7.39-3.69-10.26-.61-.69,6.56-6,7-3.24-6.36-9-7.38-8.2,2.66-9.23,3.9-3.9-1.24-7.38-4.11-11.11-2.46-14.48.21-4.81,1.84-8.5-.62-14-1.28-17,2.85-6.36-1-10.26-1.82-7.38-.46-8.2,1.82-2-.23-7.59,0-7.94,5.56-9.85,5.15-2.05-3.42-6.84-3.55-4.1,2.73-6,2.87-6-3.28-11.21,1.36-6-.27-12.31,1.1-7.53,1.51-12.45.69-8.32-1.26-11.89.73c-.42,2.24.67,3.16,2,3.37a14.72,14.72,0,0,1,2.19.56c1.27.41,2.71,1,4.08,1.56h0c2.9,1.22,5.49,2.52,5.49,2.52l2.33.8C42.67,98.16,56,103.25,75,105.8l.12-.22a9.15,9.15,0,0,1-1-4.1c.27-6.57,7.11-3.55,7.11-3.55A68,68,0,0,0,100,102.71a7.16,7.16,0,0,0,2.35,0c1-.41,1.51,1.09,3.7,2.19a5.14,5.14,0,0,1,2.69,2.62l1.82,0c7.35-.13,14.27-.59,20.81-1.28a245,245,0,0,0,31.27-5.37C170.25,99,177.24,97,183.69,95l4.7-1.45c4.24-1.33,8.23-2.61,12-3.75,1.05-.32,2.09-.64,3.11-.93,1.59-.46,3.08-.87,4.49-1.22a69.11,69.11,0,0,1,10.21-1.87S220.48,73,208.58,71.73Zm-147,21.44c-.28,1.46-.72,1-1.64,0s.1-2.67-2.57-2.67-3.69-.3-3.17-3.18,4.3-3.07,6.56-1.51S61.59,93.17,61.59,93.17Zm19.29.94c-3.8.21-3.5,1.42-3.5,1.42a1.49,1.49,0,0,1-2.25,0c-1-1.23-1.13-3.69.61-6.06s5.14-1,7.39,1.34S84.67,93.89,80.88,94.11Zm101.31-5.92-19.72,4.33c-16,3.5-32.38,7.47-48.91,6.7-17.69-.82-25-3.69-23.15-9.75l.11-.3c1.66-4.14,8.45-5,12.22-5.59a44.09,44.09,0,0,1,6.29-.39c4.61,0,9.25.57,13.75.76,12.9.56,26,.77,38.82-.52L166,83c6.26-.68,12.53-1.55,18.81-2,2.11-.13,4.35-.42,6.4.26,1,.31,2.53,1,2.91,2C195.47,86.41,183.54,87.89,182.19,88.19Z" style="fill:#edeace"/><path d="M75.23,105.84l-.23,0,.12-.22Z" style="fill:#e0ab4f"/><path d="M171.23,39.11a268.67,268.67,0,0,0-40.74-4.65c-5.44-.23-10.72-.33-15.87-.3,0,0,6.57-27.32,18.61-32.53A21.15,21.15,0,0,1,137.91.07c-5,3.32-15,11.84-18.49,28.77.22-.55,7.5-18.35,15.31-20.91S127.08,10.07,120,32.39c.33-.63,11-20.92,18-21.32,0,0-10.43,8.21-14.24,20.66,0,0,11.75-16.15,16.42-16.7,0,0-6,4.55-11.2,16.15.23-.33,7.78-11.24,14-12.72,0,0-8,5.88-8.84,14.77,0,0,8.71-11.46,13.13-12.31,0,0-5.91,5.06-7.12,11.77a8.14,8.14,0,0,1,4.25-3.56,4.37,4.37,0,0,1,5.43,2.6c.45,1.37,3.72,2.05,6.8.27,2.43-1.4,5.75-3.73,9.91-3.19.34.37.41.68,0,1.28-1.09,1.64,3.84,2.95,2.74,4.07S172.3,35.56,171.23,39.11Z" style="fill:#dbd3ce"/><path d="M108.88,117.07c-.41,1.37-7.8,2.46-9.58,1.78s-2.18,1-3.69,0-1.91,0-6.16,0c-3.38,0-11.3-6.89-14.22-13l-.11-.26c.61-1.06,1.59-1.37,3.17.63h0a16.23,16.23,0,0,1,1.1,1.63c4.95,8.19,10.74,9,10.74,9a25.25,25.25,0,0,1-6.92-10.16c-2-5.28-1.43-8.82.22-4a23,23,0,0,0,1.93,4.18,42,42,0,0,0,8.43,10,26.11,26.11,0,0,1-5.63-9.79,12.83,12.83,0,0,1-.63-4.37,39.92,39.92,0,0,0,2.09,4.46c4.59,8.38,9.81,9.7,9.81,9.7A29.84,29.84,0,0,1,93,107.33a9.68,9.68,0,0,1-.82-3.59c.76,1.36,1.5,2.57,2.2,3.65h0c6.09,9.3,10.18,8.55,10.18,8.55-4.84-3.12-7-6.28-7.87-8.48a7.74,7.74,0,0,1-.71-2.94,30.57,30.57,0,0,0,2.19,3c6.12,7.36,11.62,6.5,7.87,4.76a16.45,16.45,0,0,1-5.21-4.71c-1.7-2.22-2.54-4-1.26-2.57a11.75,11.75,0,0,0,4.55,2.59c2.15.76,3.89,1,2.74.64a5.11,5.11,0,0,1-1.23-.65,47.53,47.53,0,0,1-5.64-4.84,7.16,7.16,0,0,0,2.35,0c1-.41,1.51,1.09,3.7,2.19a5.14,5.14,0,0,1,2.69,2.62,2.91,2.91,0,0,1,.18,1.35C108.74,110.21,109.29,115.7,108.88,117.07Z" style="fill:#dbd3ce"/><path d="M98.14,107.49a30.57,30.57,0,0,1-2.19-3,7.74,7.74,0,0,0,.71,2.94c.92,2.2,3,5.36,7.87,8.48,0,0-4.09.75-10.18-8.55h0c-.7-1.08-1.44-2.29-2.2-3.65a9.68,9.68,0,0,0,.82,3.59,29.84,29.84,0,0,0,6.47,9.54s-5.22-1.32-9.81-9.7a39.92,39.92,0,0,1-2.09-4.46,12.83,12.83,0,0,0,.63,4.37,26.11,26.11,0,0,0,5.63,9.79,42,42,0,0,1-8.43-10,23,23,0,0,1-1.93-4.18c-1.65-4.82-2.22-1.28-.22,4a25.25,25.25,0,0,0,6.92,10.16s-5.79-.84-10.74-9a16.23,16.23,0,0,0-1.1-1.63h0c-1.58-2-2.56-1.69-3.17-.63a9.15,9.15,0,0,1-1-4.1c.27-6.57,7.11-3.55,7.11-3.55A68,68,0,0,0,100,102.71a47.53,47.53,0,0,0,5.64,4.84,5.11,5.11,0,0,0,1.23.65c1.15.38-.59.12-2.74-.64A11.75,11.75,0,0,1,99.54,105c-1.28-1.44-.44.35,1.26,2.57a16.45,16.45,0,0,0,5.21,4.71C109.76,114,104.26,114.85,98.14,107.49Z" style="fill:#414142"/><path d="M170.57,131.16c-1.79.41-1.51,3.69-3.84,2.73s-1.64,1.37-3.69,1.05-1.09.87-10.67-2.42c-11.9-8.33-25.3-35.82-15.59-21.26s23.94,14.84,23.94,14.84c-18.06-7.25-30.64-28.17-18.52-16.27s20,11.89,20,11.89C149.77,116.11,142,105.58,148.13,110c6,4.24,17.06,6.81,17.75,7-13.66-5.34-23.9-16.12-16-11.12s17.54,7.41,14.13,5.46-12-7.18-7.33-5.87a60.86,60.86,0,0,0,9.54,1.51c.46,2.25.28,4.13.79,4.57,1,.82-.54,1.5,1.92,5.46S172.34,130.75,170.57,131.16Z" style="fill:#dbd3ce"/><path d="M162.22,121.72s-7.9,0-20-11.89.46,9,18.52,16.27c0,0-14.23-.26-23.94-14.84s3.69,12.93,15.59,21.26c-9.57-3.28-21-26.31-21-26.31a245,245,0,0,0,31.27-5.37,10,10,0,0,1,3.61,6.06,60.86,60.86,0,0,1-9.54-1.51c-4.71-1.31,3.91,3.93,7.33,5.87s-6.24-.44-14.13-5.46,2.35,5.78,16,11.12c-.69-.15-11.78-2.72-17.75-7C142,105.58,149.77,116.11,162.22,121.72Z" style="fill:#414142"/><path d="M188.39,100.84s-1.35-2.13-2.06-2.13,8.31,17,21.57,23.65C188.19,112.81,183.69,95,183.69,95l4.7-1.45c.05.24,1,5,4.6,5.74s2.77-2.49,4.87-3.72,2.55-5.77,2.55-5.77c1.05-.32,2.09-.64,3.11-.93,1.59-.46,3.08-.87,4.49-1.22a12.61,12.61,0,0,1,1.88,5.6c-.25,0-5.06-.61-7.44-2s2.28,2.22,4.81,3.5-2.68.41-6-1.14c-3.12-1.46,3,4.71,5.57,5.55-1.75-.29-5.9-1.11-7.93-2.58-3-2.15,1.44,4,6.36,6s-4.1-.18-8.2-3.17,4.61,7.58,9,9.93-6.59-1.68-11.86-7.79,3.45,8.83,12.89,14.57S201.13,118.15,188.39,100.84Z" style="fill:#414142"/><path d="M211.05,117.21c-3.15-7.79-4.11-9.85-3.15-10.67a2.82,2.82,0,0,0,.68-3.56c-.68-1.5,2.06-2.32,1-3.41-.74-.75.62-2.92.35-6.29-.25,0-5.06-.61-7.44-2s2.28,2.22,4.81,3.5-2.68.41-6-1.14c-3.12-1.46,3,4.71,5.57,5.55-1.75-.29-5.9-1.11-7.93-2.58-3-2.15,1.44,4,6.36,6s-4.1-.18-8.2-3.17,4.61,7.58,9,9.93-6.59-1.68-11.86-7.79,3.45,8.83,12.89,14.57-6,2-18.76-15.31c0,0-1.35-2.13-2.06-2.13s8.31,17,21.57,23.65l.12.06.84.4S214.19,125,211.05,117.21Zm-4.12-18,.68.1-.35,0A1.51,1.51,0,0,1,206.93,99.25Z" style="fill:#dbd3ce"/><path d="M11.22,95.19c.27-1.65.41-6.7-1-5.12s-1.09,11.27-2.32,6,1.23-8-1.09-7.85-9,8.83-6.15,3.13a18.18,18.18,0,0,1,8.48-8c-.42,2.24.67,3.16,2,3.37a14.72,14.72,0,0,1,2.19.56C14.24,96.45,11,96.83,11.22,95.19Z" style="fill:#eae3dd"/><path d="M46.65,72.08A4.26,4.26,0,1,1,46,69.86,4.17,4.17,0,0,1,46.65,72.08Z" style="fill:#212121"/><path d="M48.42,76.06a7.19,7.19,0,0,1-6,3.23,7.09,7.09,0,0,1-4-1.19,1.85,1.85,0,0,0,.75-1.3c.05-.28.66-.78,1.05-1.09a4.22,4.22,0,0,0,5-.47s1.43-.12,1.43.29S48.42,76.06,48.42,76.06Z" style="fill:#ffda74"/><path d="M40.24,75.71c-.39.31-1,.81-1.05,1.09a1.85,1.85,0,0,1-.75,1.3,4.15,4.15,0,0,1-.34-.24,7.18,7.18,0,0,1-2.91-5.78,7.67,7.67,0,0,1,.23-1.81,4.35,4.35,0,0,1,1.51.53c.38.35,1.51-.23,1.51-.23a4.21,4.21,0,0,0,1.8,5.14Z" style="fill:#414142"/><path d="M46.89,69.24a2.1,2.1,0,0,0-.87.62,4.24,4.24,0,0,0-7.58.71s-1.13.58-1.51.23a4.35,4.35,0,0,0-1.51-.53,7.22,7.22,0,0,1,11-4.18l.1.08C46.34,67.56,47.47,69,46.89,69.24Z" style="fill:#eae3dd"/><path d="M49.62,72.08a7.15,7.15,0,0,1-1.2,4s-1.77-.12-1.77-.53-1.43-.29-1.43-.29a4.21,4.21,0,0,0,1.43-3.16A4.17,4.17,0,0,0,46,69.86a2.1,2.1,0,0,1,.87-.62c.58-.22-.55-1.68-.35-3.07A7.17,7.17,0,0,1,49.62,72.08Z" style="fill:#414142"/><path d="M87.41,53.62a167.13,167.13,0,0,0-19,3.13c-.61-3.25,1-6.45,6.51-8.1,8.62-2.56,11.7,3.28,11.7,3.69A14.86,14.86,0,0,1,87.41,53.62Z" style="fill:#e0ab4f"/><path d="M89.18,58.7c-11.31,1.72-18,3.29-18,3.29a11.23,11.23,0,0,1-2.82-5.24,167.13,167.13,0,0,1,19-3.13A13.41,13.41,0,0,1,89.18,58.7Z" style="fill:#ffda74"/><path d="M88.36,62c-2.66,3.38-13.13,4.41-17.13,0,0,0,6.64-1.57,18-3.29A4.44,4.44,0,0,1,88.36,62Z" style="fill:#fffd9b"/><path d="M113.54,51.93c-6.78.32-12.47.6-17.64,1a6.81,6.81,0,0,1,.77-6.19c3.8-5.44,11.59-3.69,15.39.72A6,6,0,0,1,113.54,51.93Z" style="fill:#e0ab4f"/><path d="M113.54,51.93a10.3,10.3,0,0,1-1.25,4c-4.9.44-9.46,1-13.63,1.47a12.22,12.22,0,0,1-2.76-4.51C101.07,52.53,106.76,52.25,113.54,51.93Z" style="fill:#ffda74"/><path d="M112.29,55.93a11.91,11.91,0,0,1-1.05,1.65c-1.54,2.66-4.1,3.48-8.11,2.66a9.33,9.33,0,0,1-4.47-2.84C102.83,56.88,107.39,56.37,112.29,55.93Z" style="fill:#fffd9b"/><path d="M140.88,50.63c-2.89.09-5.75.22-8.55.36l-7.82.41a7.58,7.58,0,0,1,.27-7c3.48-6,12.2-3.19,15.08,1.94A7.73,7.73,0,0,1,140.88,50.63Z" style="fill:#e0ab4f"/><path d="M140.88,50.63a9.3,9.3,0,0,1-1.06,3.77l-5.09.16q-4,.13-7.92.34a12.72,12.72,0,0,1-2.3-3.5l7.82-.41C135.13,50.85,138,50.72,140.88,50.63Z" style="fill:#ffda74"/><path d="M139.82,54.4a8.16,8.16,0,0,1-1.4,2.06c-2.26,2-5.13,1.84-7.89,1.12a9,9,0,0,1-3.72-2.68q3.87-.21,7.92-.34Z" style="fill:#fffd9b"/><path d="M163.27,50.39c-4.46,0-8.92,0-13.34,0a14,14,0,0,1,.18-4s.21-3.69,5.23-3.6C159.4,42.88,162.47,46.11,163.27,50.39Z" style="fill:#e0ab4f"/><path d="M163.45,53.57a2.28,2.28,0,0,0,0,.26c-4.12.05-8.28.14-12.51.25a11.59,11.59,0,0,1-1-3.65c4.42-.07,8.88-.08,13.34,0A11.93,11.93,0,0,1,163.45,53.57Z" style="fill:#ffda74"/><path d="M163.43,53.83c-.55,5.54-5.69,7.07-10.24,3.24a8.81,8.81,0,0,1-2.27-3C155.15,54,159.31,53.88,163.43,53.83Z" style="fill:#fffd9b"/><path d="M183.39,50.81c-3.91-.14-7.91-.24-12-.31-.12-3.57,1.33-6.78,3.92-6.78,3.28,0,5.43.82,7.59,5.8A9,9,0,0,1,183.39,50.81Z" style="fill:#e0ab4f"/><path d="M183.66,53.88c-3.87-.09-7.76-.12-11.68-.12,0-.13-.09-.25-.12-.39a12.38,12.38,0,0,1-.43-2.87c4,.07,8,.17,12,.31A8.16,8.16,0,0,1,183.66,53.88Z" style="fill:#ffda74"/><path d="M183.66,53.88A8.18,8.18,0,0,1,182,58.06c-1.34,2.69-3.28,3.52-4.45,3.21s-4.28-3.21-5.58-7.51C175.9,53.76,179.79,53.79,183.66,53.88Z" style="fill:#fffd9b"/><path d="M239.87,59.56l-2.19-.38c-4-.73-8-1.38-11.88-1.94a17.65,17.65,0,0,1-3.14-4.44C232.1,53.44,238,54,238,54c0-.28,0-.46,0-.52A37,37,0,0,1,239.87,59.56Z" style="fill:#ffda74"/><path d="M61.59,93.17c-.28,1.46-.72,1-1.64,0s.1-2.67-2.57-2.67-3.69-.3-3.17-3.18,4.3-3.07,6.56-1.51S61.59,93.17,61.59,93.17Z" style="fill:#2b2b2b"/><path d="M80.88,94.11c-3.8.21-3.5,1.42-3.5,1.42a1.49,1.49,0,0,1-2.25,0c-1-1.23-1.13-3.69.61-6.06s5.14-1,7.39,1.34S84.67,93.89,80.88,94.11Z" style="fill:#2b2b2b"/><path d="M241,70.3c0,10.66-8.49,18.3-8.49,18.3a16.84,16.84,0,0,0-5.09-2.28h0c-.72-3.8,3.87-6.72,8-7s2.33,0,1.37-3.42,1.64-2.32,1.21-4.1.84-2.74,0-4a47.39,47.39,0,0,1-2.58-6c-2,.31-5.31-.28-9.37-4.33l-.22-.24c3.9.56,7.85,1.21,11.88,1.94l2.19.38h0A50.13,50.13,0,0,1,241,70.3Z" style="fill:#fffd9b"/><path d="M182.19,88.19l-19.72,4.33c-16,3.5-32.38,7.47-48.91,6.7-17.69-.82-25-3.69-23.15-9.75l.11-.3c1.66-4.14,8.45-5,12.22-5.59a44.09,44.09,0,0,1,6.29-.39c4.61,0,9.25.57,13.75.76,12.9.56,26,.77,38.82-.52L166,83c6.26-.68,12.53-1.55,18.81-2,2.11-.13,4.35-.42,6.4.26,1,.31,2.53,1,2.91,2C195.47,86.41,183.54,87.89,182.19,88.19Z" style="fill:#fef7ef"/><path d="M248.18,53.76c-.82,2.34-2.57,2.38-5.21,2s-1.77-1.34-3.92-2.65-1.84-4.43,0-5.76,4.31-1.74,7.28,0S248.18,53.76,248.18,53.76Z" style="fill:#414142"/><path d="M268.08,37.47a8.22,8.22,0,0,0-2.67,3.69s-.71,6-6,5.65-4.83-2.68-4.11-5.65,9.85-8.61,12.82-7.79S270,36,268.08,37.47Z" style="fill:#414142"/><path d="M249.21,90.07c-.41,2.23-.32,4.53-1.33,4.75s-4.11-1.65-6.88-2.88-4.42-4.21-2.05-7.25,4.92-1.36,7.89,0S249.21,90.07,249.21,90.07Z" style="fill:#414142"/><path d="M273,105.39c-.09,1.34-1.95,3.57-1.95,3.57s-1.43,2-2.56,2.27-3.38-1.13-7.29-4-2.15-6.77,3.09-6.87S273.1,104,273,105.39Z" style="fill:#414142"/><path d="M200.41,89.83s-.44,4.53-2.55,5.77-1.17,4.51-4.87,3.72-4.55-5.5-4.6-5.74C192.63,92.25,196.62,91,200.41,89.83Z" style="fill:#2b2b2b"/><path d="M25.58,102.71c-.13-5.06-4.1-10.53-3-5.47s-.54,10.67-.82,5.88-4.11-13.93-4.26-14.28c2.9,1.22,5.49,2.52,5.49,2.52l2.33.8a23.63,23.63,0,0,1,2.19,6.59C28.19,102.57,25.72,107.77,25.58,102.71Z" style="fill:#eae3dd"/><path d="M166.58,28.81c-4.16-.54-7.48,1.79-9.91,3.19-3.08,1.78-6.35,1.1-6.8-.27a4.37,4.37,0,0,0-5.43-2.6,8.14,8.14,0,0,0-4.25,3.56c1.21-6.71,7.12-11.77,7.12-11.77-4.42.85-13.13,12.31-13.13,12.31C135,24.34,143,18.46,143,18.46c-6.25,1.48-13.8,12.39-14,12.72,5.19-11.6,11.2-16.15,11.2-16.15-4.67.55-16.42,16.7-16.42,16.7C127.58,19.28,138,11.07,138,11.07c-7,.4-17.71,20.69-18,21.32,7.11-22.32,22.69-27.06,14.76-24.46s-15.09,20.36-15.31,20.91C123,11.91,132.9,3.39,137.91.07c4.79-.77-.53,5.27-.31,5.95s2.72-.28,2.31,2.46,4,1.64,3,4.1-.41,5.47,4.79,6.84,13.68.27,15.59,4.92A11.06,11.06,0,0,0,166.58,28.81Z" style="fill:#414142"/><path d="M309.3,134.1c-11.33-3.18-11.06-13.41-13.93-13.95-3.29-.62-6.57,4.31-6.57,4.31-2.61-6.22.08-14.61.2-15-3.08,1.44-9.23,9.67-9.23,9.67a23.05,23.05,0,0,1,4.93-14.64c-5.34.78-10.67,12.35-10.67,12.35-2-8.41,4.92-18.47,3.49-19.24s-7.13,2.8-7.13,2.8a9.32,9.32,0,0,1,4.67-5.79,16.86,16.86,0,0,0-16.83,6.2c3.29-11.73,15.79-12.68,9-11.94s-15.18,11.53-15.18,11.53c1.84-11.92,10.31-16.33,10.31-16.33-6.87-.19-13.13,3.58-13.13,3.58,4.36-7.65,16.86-7.51,11.84-8s-19.28,1.09-19.28,1.09c6.57-4.71,17.27-5.83,17.27-5.83-7.55.39-15.55-2.85-15.55-2.85,7.66,1.23,20.85-4.72,15.55-4.51s-15.55-3.08-15.55-3.08c11.15,1.64,22.9-6.15,17.15-4s-15-1.37-15-1.37c21.74-1.46,34.94-14.87,27.28-10.63s-26.05,2.05-13.91,1,24-12.46,24-12.46c-5.54-1.64-12.11,2-12.11,2,6.77-13.95,26.26-10,20.11-12.1S270.35,31.94,270,32.13c11.76-10.72,28.54-12.52,29-12.57-2.07,4-7.06,9.52-7.06,11.35,0,3-4.1,5.74-5.75,6.56s-3.28,1.37-5.47,6.84-4.1,7.92-6,8.88-12.86,8.63-12,17.11,7.66,17,13.68,18.87,4.37,5.74,4.92,7.12,6,2.46,6.57,5.19,5.66,2.52,6.13,5.31a23.49,23.49,0,0,0,7.27,12.47C304.38,122.28,311.38,131.29,309.3,134.1Z" style="fill:#414142"/></g></g></svg>