<svg xmlns="http://www.w3.org/2000/svg" viewBox="0 0 539.49 242.47"><title>elephantnose-fish</title><g id="Layer_2" data-name="Layer 2"><g id="Ñëîé_2" data-name="Ñëîé 2"><path d="M282.65,126.31h0c-2.22-1.94-7.7-5.17-19.67-5.17-17.12,0-119.87,3.12-138.55,14.67,0,0-6.7,4.39-7,9.32h0c1,20.39-28.62,48.11-44.35,51.84-3.5.83-6.62,1.55-9.4,2.23-3,.74-5.67,1.43-7.94,2.14,15.08.64,32.72,1.14,46.74-.23a78.56,78.56,0,0,0,13.74-2.36c24.91-7.11,29.35-8,60.94-5.78,4.81.33,11.57.47,19.75.23A363.52,363.52,0,0,0,286.05,179s-8.4-14.54-6.06-19.87,1.22-4,2.11-11.56-1.79-6.67,3.95-11.57C291.08,131.74,286.31,130.88,282.65,126.31Zm-58.18,41.92a20.79,20.79,0,0,0-5,.5,15.76,15.76,0,0,1-1.9.31c-5.41.55-2.35-3.51-4.54-4.06a3.81,3.81,0,0,0-1.9.08c-2.5.57-3.61-.05-4.32-.86-1-1.14-1.21-2.73-3.35-2.14-1,.28-1.21,0-1.23-.54-7.12,13.14-34.28,7.36-22.12,6.71,10.29-.55,14.68-7.17,15.91-9.5-.67.06-1.41.18-2.23.33a16.85,16.85,0,0,1-5.85.25,4.63,4.63,0,0,1-3.61-2.65,5.4,5.4,0,0,0-.68-1.06c-.52-.53-1.33-.58-3.21.42-.65.34-1.18.65-1.67.9v0l-.8.47c-2.07,1.2-2,1.24-2.21.17a8.79,8.79,0,0,0-.78-2.35c-1.15-2.36-4-2-6.56-1.25-1.59.45-3.09,1.08-4,1.25a2,2,0,0,1-1.57-.33c-1.23-.74-2.27-2.11-5.44.41a10.64,10.64,0,0,1-4.49,2c-2.4.62-4.93,1.11-8.68,5.38-6,6.83-12.67,8-14.67,6.83a7.5,7.5,0,0,0-3.71-.87,6.7,6.7,0,0,0-.8,0s-4.67,4-3.34,7.68c.25.7,1.08,1.12,2.36,1.38,5.35,1.09,18.62-.69,31,3.62,15.35,5.34,50,11,64.38,0C231,172.6,230.06,168.49,224.47,168.23Z" style="fill:#446187"/><path d="M268.71,174.19C265,177,226,182.85,226,182.85c-14.24,2.88-23.06,6.65-29.13,10.36-8.18.24-14.94.1-19.75-.23-31.59-2.23-36-1.33-60.94,5.78a78.56,78.56,0,0,1-13.74,2.36c0-3.15,5.65-6.65,15-13.4a17.75,17.75,0,0,0,6.68-9.93,85.34,85.34,0,0,0,1.78-9.1c1.36-7.84,3.71-14.09,19.64-12.11,2.56.32,5,.57,7.42.77a141.44,141.44,0,0,0,22.82.23l2.21-.17c2.15-.2,4.26-.45,6.37-.75,10.78-1.51,21.35-4.31,34-8,26.36-7.67,31.36-8.68,44.7,1.88S272.38,171.36,268.71,174.19Z" style="fill:#507399"/><path d="M340.39,126.27c.43,5.77-7.58,8-6.7,12.45s-6.54,6.67-5.94,10.23-4.28,7.55-4.28,10.22-3.76,7.26-4,7.56h0c-6.09,2.75-12.29,5.22-18.54,7.46-.14-36.38,5.06-21.25,0-29.25-3-4.82-6.49-9.7-7.31-13.81a1.08,1.08,0,0,1,0-.19c0-1.85,5.41-8.69,17.65-9.81,7.05-.64,20.92-2.76,35.17-5.68C343.23,118.83,340.14,122.78,340.39,126.27Z" style="fill:#446187"/><path d="M353,107.25c-25.26,5.91-53.22,4.59-53.22,4.59a15.35,15.35,0,0,1,.54-2c2.67-7.6,0-14.73,4.9-22.28s6.67-13.8,5.78-18.68-.07-13.49-.07-13.49q3.48.81,6.94,1.77l1.59.46c3.08.88,6.14,1.84,9.17,2.85,0,0-2.95,6.62,1.94,8.85s8.9,8,8,10.67,3.11,6.24,3.56,9.34,5.78,4.9,7.12,9.35C350.27,102,353,104.66,353,107.25Z" style="fill:#446187"/><path d="M530.89,68.89c1.93,4-6.38,6.22-6.38,8.45s-3.55,3.1-13.78,11.11,1.77,15.13,6.67,17.35,3.11,5.79,6.23,8.46,1.77,8.44,4.44,8.88,3.11,12.91,2.67,20.91-4,8-12.45,3.33S476.47,120,468.47,113.8c-4.65-3.6-17.23-4.37-31.15-4-10.06.31-20.82,1.24-29.78,2.18a61,61,0,0,0-12.44,2.57c5.46-4.68,13.89-8.5,16.88-9.68,4.44-1.79,8.9,1.33,13,.44s7.95.89,12.38-.44,18.7,1.77,21.36,0,15.58,1.77,20,7.11,46.48,38.35,47.14,28.92-8-11.57-9.34-16.91-5.33-3.56-5.77-6.67-3.57-2.23-3.57-7.52S494.27,99.13,489.82,96s-7.12-4.45-2.22-4.91,5.34-12.44,12-14.67,4-5.78,7.11-7.55,1.78-4.46,5.34-5.79.89-4.45,4.9-6.22,7.11-9.8,13.34-19.58,1.33-9.78-3.56-8.44-36.47,33.36-40.93,34.69-2.67,3.11-6.67,4.44-7.55,5.78-9.78,9.35-22.24,8-24.91,5-5.78,4.81-11.56,4.1-6.23,2.49-9.79.71-11.56,0-18.68,3.12-11.56-3.12-11.56-3.12A8.54,8.54,0,0,1,390.4,83c8.76,1,17.7.68,26.44.07,2.69-.19,5.4-.44,8.1-.78A142.23,142.23,0,0,0,464.46,72c22.69-9.78,62.28-60,71.33-47.6s-1.49,29.36-.15,32.92S529,64.89,530.89,68.89Z" style="fill:#e8e1db"/><path d="M63.65,199.22c-3,.73-5.67,1.43-7.94,2.13-15.14-.65-27.7-1.42-31.37-.58-8.67,2-13.34,40-13.34,40a4.09,4.09,0,0,1-2.39,1.53c.6-10.82,2.54-29.89,8.73-40.9C26.34,185.42,34,196.67,63.65,199.22Z" style="fill:#446187"/><path d="M290.55,65.77c-2.23-3.11,2.58-13.24,2.58-13.24a88.84,88.84,0,0,0-13.25-.11c-32.39,2.31-144.44-8.32-218.47,49a241.38,241.38,0,0,1,25.66,12.21c8.05,4.59,16.44,10.29,22.61,16.7h0c5.72,2.29,13.62-.94,13.62-.94,79.17-18.24,159.85-12.92,159.85-12.92,1.35-.8,3-1.64,4.72-2.84,5.34-3.77,0-7.37-1.82-14.49s5.39-7.12,3.44-13.79,2.39-5.34.47-11.11S292.78,68.89,290.55,65.77ZM244.29,86.68C211.82,83.57,190,95.58,166,101.41s-56.49-3.17-44.5-15.17,66.3-21.35,66.3-21.35c60-7.57,74.72-2.67,81.94,2.76S276.77,89.79,244.29,86.68Z" style="fill:#446187"/><path d="M87.07,123.14c-7.31-5.34,0-9.53,0-9.53A246.34,246.34,0,0,0,61.41,101.4l-.33.25A161.57,161.57,0,0,0,30.34,133a186.68,186.68,0,0,0-18.86,30.47,117,117,0,0,0-5,12c-5.94,17-5.41,34.91-6.06,52.66-.07,2.19-1.48,11.3,1.23,12.66,1.9,1,4.68,2.08,7,1.54.6-10.83,2.53-29.9,8.72-40.9,9-16,16.71-4.75,46.32-2.22,2.78-.68,5.9-1.4,9.4-2.23-6.22-5,7.56-12.46,21.79-28.47S94.4,128.48,87.07,123.14ZM55,162.74a10.89,10.89,0,1,1,0-1.81,10.26,10.26,0,0,1,0,1.81Z" style="fill:#507399"/><path d="M386.63,162.3c.89,3.1-8,5.33-7.11,9.78s-7.57,5.33-8.9,7-7.57,6.38-6.24,9.94-5.33,6.67-11.55,16.46-16.47,22.24-32.48,16.9S286.06,179,286.06,179c5-1.47,9.94-3.08,14.87-4.84.16,36.36,15.87,41.91,20.75,45s11.13-2.67,18.24-6.67,12-16,14.68-25.35,15.12-11.56,13.79-16.46,6.23-12.45,5.79-17.79,5.34-4,4.44-10.32,5.78-3.91,5.78-10.17,4.9-3.08,5.79-10.65c.29-2.47,2.24-5,4.91-7.21A61,61,0,0,1,407.54,112c9-.94,19.72-1.87,29.78-2.18C415.52,114.35,385.73,159.17,386.63,162.3Z" style="fill:#d9d1cc"/><path d="M299.79,111.84c-1.23,6,2.6,8.18-3.46,12.33a6.18,6.18,0,0,0-2.74,6.78,1.08,1.08,0,0,0,0,.19c.82,4.11,4.28,9,7.31,13.81,5.06,8-.14-7.13,0,29.25C296,176,291,177.57,286.06,179c0,0-8.41-14.53-6.06-19.87s1.21-4,2.11-11.55-1.79-6.67,3.95-11.57c5-4.3.25-5.17-3.41-9.73h0a15,15,0,0,1-1.43-2.14c-2.41-4.44-.93-6,2-7.71,1.35-.8,3-1.64,4.72-2.84,5.34-3.77,0-7.37-1.82-14.49s5.39-7.12,3.44-13.79,2.39-5.34.47-11.11,2.81-5.34.58-8.46,2.58-13.24,2.58-13.24a121.6,121.6,0,0,1,17.81,2.87s-.81,8.59.07,13.49-.88,11.11-5.78,18.68-2.23,14.68-4.9,22.28A15.35,15.35,0,0,0,299.79,111.84Z" style="fill:#e8e1db"/><path d="M361.69,109.85a26.45,26.45,0,0,0-2.15,2.71c-2.22,3.25-3,6.19-3.83,9.7-1.11,4.45-2,4.45-2.7,8.45s1.15-1.77-.64,4S339.51,150.19,340.16,156a204.27,204.27,0,0,1-20.68,10.71c.23-.3,4-5,4-7.56s4.89-6.67,4.28-10.22,6.84-5.79,5.94-10.23,7.13-6.68,6.7-12.45c-.25-3.49,2.84-7.44,6-10.81,2.12-2.23,4.28-4.2,5.52-5.61a3.8,3.8,0,0,0,1.08-2.6c0-2.59-2.74-5.23-3.74-8.56-1.34-4.45-6.68-6.24-7.12-9.35s-4.45-6.67-3.56-9.34-3.11-8.44-8-10.67-1.94-8.85-1.94-8.85c6.71,2.23,13.26,4.73,19.57,7.17,0,0,2.78,11,4.8,13.25s-.64,5.34,2,8.44,2.2,5.78,4,8c1.18,1.46,3.65,4.46,4.11,7.59A5.71,5.71,0,0,1,361.69,109.85Z" style="fill:#e8e1db"/><path d="M424.94,82.31c-2.7.34-5.41.59-8.1.78-8.74.61-17.68,1-26.44-.07a14,14,0,0,1-.44-5.24c.23-1.78-3.33-2-2-4s-5.34-4.67-9.5-4.88-.73-5.13-.07-9.57-4.21-10.9-7.33-13.12-6.45-16.46-6.45-20-2.67-3.56-1.39-5.57-4.61-3.56-4.59-5.77S357,12,358.46,10,352.6,7.05,353,4.38s-6-3.1-6-3.1c13.79-4.45,14.23,3.56,17.8,11.11s9.78,4.07,8.88,10.05-1.6,5.52.1,7.3,6.58,4,6.58,8.46S395.21,81.06,424.94,82.31Z" style="fill:#d9d1cc"/><path d="M331.16,12.62c-2,4.16-4,8.8-4.35,9.82-.67,1.8-2,8-3.34,10.86s.44,5.34-1.79,7.57,0,5.33-4,8.44c-2.32,1.8-1.17,5.27.2,7.86q-3.47-1-6.94-1.77a121.6,121.6,0,0,0-17.81-2.87S314.3,27.83,331.16,12.62Z" style="fill:#d9d1cc"/><path d="M390.4,83c-1.48-.17-3-.38-4.44-.66q-2.73-.48-5.39-1.2l-1.47-.42c-10.56-3.12-20.55-9.07-30.89-13.08-6.31-2.45-12.87-5-19.58-7.17q-4.54-1.53-9.16-2.86c-.54-.15-1.06-.31-1.59-.45-1.38-2.58-2.52-6.06-.2-7.86,4-3.11,1.79-6.23,4-8.45a4.43,4.43,0,0,0,1.23-3.52,8.85,8.85,0,0,1,.56-4.05c1.33-2.89,2.67-9.06,3.33-10.86.38-1,2.37-5.66,4.35-9.82C337.51,6.89,343.26,2.48,347,1.27c0,0,6.4.44,6,3.11s6.85,3.56,5.45,5.56.2,2.67.17,4.9,5.86,3.78,4.59,5.78,1.39,2,1.39,5.56,3.33,17.79,6.44,20,8,8.67,7.34,13.11-4.09,9.34.07,9.57,10.83,2.88,9.5,4.89,2.23,2.22,2,4A14,14,0,0,0,390.4,83Z" style="fill:#395675"/><path d="M395.1,114.61c-2.67,2.24-4.62,4.72-4.91,7.19-.9,7.57-5.79,4.39-5.79,10.65s-6.68,3.84-5.78,10.18-4.9,5-4.44,10.32-7.13,12.89-5.8,17.79-11.11,7.11-13.78,16.45-7.57,21.35-14.68,25.35-13.34,9.8-18.24,6.67c-3.76-2.39-13.94-6.24-18.49-24.5a86.56,86.56,0,0,1-2.26-20.52c6.25-2.24,12.45-4.71,18.54-7.46h0A209.55,209.55,0,0,0,340.16,156c14.23-8.44,27.25-18.67,38-31.09,0,0,2.59-3.45,8.73-6.82A46.45,46.45,0,0,1,395.1,114.61Z" style="fill:#395675"/><path d="M489.82,96c4.45,3.11,17.34,8.55,17.34,13.83s3.13,4.41,3.57,7.52,4.44,1.33,5.77,6.67,10,7.47,9.34,16.91S483.14,117.37,478.7,112s-17.35-8.9-20-7.11-16.92-1.34-21.36,0-8.31-.46-12.38.44-8.52-2.23-13-.44c-3,1.18-11.42,5-16.88,9.68-12.1,3.91-16.92,10.33-16.92,10.33-10.77,12.43-23.79,22.66-38,31.09-.65-5.83,10.44-15.53,12.21-21.31s0,0,.64-4,1.59-4,2.7-8.45c.88-3.51,1.61-6.45,3.83-9.7,6.78-1.62,13.17-3.39,18.41-5.2,19.34-6.69,81.07-15,88.07-12.81s43,32.49,43,30.82-4.34-10-16.35-17.34S472,92.35,482.37,83.67s22.68-25.68,14.34-18-29,23.68-51,25c-19.32,1.17-56.61,8.5-82.53,14.26-.46-3.13-2.93-6.13-4.11-7.59-1.79-2.23-1.32-4.9-4-8s0-6.23-2-8.44-4.8-13.25-4.8-13.25c10.34,4,20.34,9.95,30.89,13.09l1.47.41A68.69,68.69,0,0,0,390.4,83a8.54,8.54,0,0,0,2.46,4.1s4.44,6.23,11.56,3.12,15.13-4.9,18.68-3.12,4-1.42,9.79-.71,8.89-7.14,11.56-4.1,22.68-1.41,24.91-5,5.78-8,9.78-9.35,2.23-3.1,6.67-4.44,36-33.36,40.93-34.69,9.78-1.34,3.56,8.44S521,55.09,517,56.88s-1.34,4.88-4.9,6.22-2.23,4-5.34,5.79-.44,5.34-7.11,7.55-7.13,14.2-12,14.67S485.37,92.91,489.82,96Z" style="fill:#446187"/><path d="M73.05,197c-6.22-5,7.56-12.46,21.79-28.48s-.44-40-7.77-45.37,0-9.52,0-9.52c8.05,4.59,16.44,10.29,22.61,16.7h0a45.62,45.62,0,0,1,4.72,5.73,17.21,17.21,0,0,1,3,9.09h0C118.38,165.54,88.78,193.25,73.05,197Z" style="fill:#424c56"/><path d="M219.5,181.42c-14.35,11-49,5.33-64.39,0s-32-1.34-33.36-5,3.34-7.67,3.34-7.67a8,8,0,0,1,4.51.83c2,1.17,8.67,0,14.68-6.83s8.83-4,13.17-7.44c3.16-2.51,4.2-1.13,5.43-.4,0,0-9.77,10.33-17.36,13.33s9.71,3.17,22.91-14.26c2.56-.74,5.42-1.1,6.56,1.27,0,0-7,11-16.7,13s13.82,3.93,20.49-11.29h0c.48-.25,1-.56,1.67-.91,1.88-1,2.68-.94,3.2-.41,0,0-4.2,8.62-9.8,10.88s10.32.81,14.1-7.18a16.5,16.5,0,0,0,5.84-.24c.83-.15,1.56-.27,2.23-.35-1.23,2.33-5.62,9-15.91,9.51-12.15.66,15,6.43,22.13-6.71,0,.54.2.83,1.22.55,2.14-.59,2.35,1,3.35,2.13-7.48,13.81-30.21,7.88-34.21,7.72s-1.83,1.49-1.83,1.49c33.53,9.18,42.26-8.43,42.26-8.43,2.19.56-.87,4.61,4.54,4.07-9.13,18.76-50,7.47-59.81,3.69s-15.34,1.56-10.45,1.11,15.12,5.79,41.81,8.67,35.33-14.29,35.33-14.29C230.06,168.5,231,172.61,219.5,181.42Z" style="fill:#92b2d4"/><path d="M168.43,154c-13.2,17.43-30.5,17.28-22.91,14.26s17.36-13.33,17.36-13.33a2.07,2.07,0,0,0,1.57.34C165.35,155.05,166.84,154.44,168.43,154Z" style="fill:#395675"/><path d="M178.78,156.94c-6.67,15.22-30.18,13.3-20.49,11.29s16.7-13,16.7-13C176.68,158.68,174.65,159.29,178.78,156.94Z" style="fill:#395675"/><path d="M188,159.31c-3.78,8-19.67,9.43-14.1,7.18s9.8-10.88,9.8-10.88C184.55,156.5,184.68,158.69,188,159.31Z" style="fill:#395675"/><path d="M213.05,165s-8.73,17.61-42.26,8.43c0,0-2.17-1.67,1.83-1.49s26.73,6.09,34.21-7.72c.71.82,1.82,1.43,4.33.87A3.93,3.93,0,0,1,213.05,165Z" style="fill:#395675"/><path d="M224.47,168.23s-8.64,17.19-35.33,14.29-36.92-9.11-41.81-8.67.67-4.88,10.45-1.11,50.68,15.07,59.81-3.69a18.18,18.18,0,0,0,1.91-.31A20.22,20.22,0,0,1,224.47,168.23Z" style="fill:#395675"/><path d="M281.21,124.17a15,15,0,0,0,1.43,2.14c-2.22-1.94-7.7-5.17-19.67-5.17-17.12,0-119.87,3.13-138.55,14.68,0,0-6.7,4.39-7,9.32a17.21,17.21,0,0,0-3-9.09,45.62,45.62,0,0,0-4.72-5.73c5.72,2.29,13.62-.94,13.62-.94,79.17-18.24,159.85-12.92,159.85-12.92C280.28,118.18,278.8,119.73,281.21,124.17Z" style="fill:#414142"/><path d="M50.14,161.84a4,4,0,1,1-4-4A4,4,0,0,1,50.14,161.84Z" style="fill:#2b2b2b"/><path d="M55,162.75a10.89,10.89,0,1,1,0-1.82,8.9,8.9,0,1,0,0,1.82Z" style="fill:#5980c4"/><path d="M55,160.93a10.37,10.37,0,1,0,0,.91A9.1,9.1,0,0,0,55,160.93Zm-8.86,4.91a4,4,0,1,1,4-4A4,4,0,0,1,46.13,165.84Z" style="fill:#e8e1db"/><path d="M244.29,86.68C211.82,83.57,190,95.58,166,101.41s-56.49-3.17-44.5-15.17,66.3-21.35,66.3-21.35c60-7.57,74.72-2.67,81.94,2.76S276.77,89.79,244.29,86.68Z" style="fill:#507399"/><path d="M202.26,161.52c-7.13,13.14-34.28,7.37-22.13,6.71,10.29-.54,14.68-7.18,15.91-9.51,6.16-.76,6.23,1.07,6.2,2.35h0A2.06,2.06,0,0,0,202.26,161.52Z" style="fill:#395675"/><path d="M509.06,125.37c0,1.67-36-28.62-43-30.82s-68.73,6.12-88.07,12.81c-5.24,1.81-11.63,3.58-18.41,5.2a26.45,26.45,0,0,1,2.15-2.71,5.71,5.71,0,0,0,1.45-4.91c25.92-5.76,63.21-13.09,82.53-14.26,22-1.34,42.7-17.35,51-25s-4,9.34-14.34,18-1.67,17,10.34,24.36S509.06,123.71,509.06,125.37Z" style="fill:#414142"/><path d="M353,107.25a3.8,3.8,0,0,1-1.08,2.6c-1.24,1.41-3.4,3.38-5.52,5.61-14.25,2.92-28.12,5-35.17,5.68-12.24,1.12-17.65,8-17.65,9.81a6.18,6.18,0,0,1,2.74-6.78c6.06-4.15,2.23-6.28,3.46-12.33C299.79,111.84,327.75,113.16,353,107.25Z" style="fill:#414142"/><path d="M47,159.74a3.17,3.17,0,1,1,3.17,3.17A3.17,3.17,0,0,1,47,159.74Z" style="fill:#e8e1db"/><path d="M386,82.35q-2.73-.48-5.39-1.2l-1.47-.42c-10.56-3.12-20.55-9.07-30.89-13.08-6.31-2.45-12.87-5-19.58-7.17q-4.54-1.53-9.16-2.86c-.54-.15-1.06-.31-1.59-.45-1.38-2.58-2.52-6.06-.2-7.86,4-3.11,1.79-6.23,4-8.45a4.43,4.43,0,0,0,1.23-3.52S342.63,10.08,347,8.07s-18.44,27-21.77,35.37,13.11-16.68,21.15-25,8.82-3.75,0,8.14-15.52,21.89-15.26,23.39,11.61-11.27,20.29-21,9.18-7.61-.83,5.94-14.1,21.71-10.14,19.88,20.45-22.86,21.22-19S349.77,51.6,348,56.61s7.74-1.83,13.67-8,6.47-4.48,1.53,3.92S356.61,66,358.78,65.45s13.85-15.6,12.51-10.06S365.61,66,365.78,68.12s4.85-.45,8.18-4.4-1.51,7.23-2.17,9.74,4,.83,6.33-.84,4-2.62,3,2.11,1,5,2.67,3.23S385.62,78.76,386,82.35Z" style="fill:#414142"/><path d="M384.8,122.32c-1.23-.33-3,.23-2.9,6.34s-1.21,3.78-3.21,2.48-1.67,1.09-2.57,2.19.9,11.24,0,11.49-1.56-2-1.56-2c-1.11-2-2-5.11-3.24-4s-.76,6.9-.09,13.57-2.67.44-5.5-5.78-3.62,3.34-1,12-.67,11.6-5.24,0-8.1-7.53-3.21.92,4.1,19.76,1.55,13.57-12.45-12.68-6.72-1.33,2.72,10.44-3.14,5.56-14.6-15.34-13.49-10.53,15.35,21.42,12.5,23-7.6-5.11-15.88-14.17-11.51-2.74,0,10.17,13.12,23.16,4.05,14.24S306.51,174.14,313,184.41s25,29.27,18.18,25.32S301,176.67,305.63,186.37s23.35,28.69,17.6,26.92-20-18.58-20-18.58a86.56,86.56,0,0,1-2.26-20.52c6.25-2.24,12.45-4.71,18.54-7.46h0A209.55,209.55,0,0,0,340.16,156c14.23-8.44,27.25-18.67,38-31.09,0,0,2.59-3.45,8.73-6.82C387.68,121.24,386,122.66,384.8,122.32Z" style="fill:#414142"/><path d="M68.21,122.66c-2.66,9.34-13.67,14.68-26.08,16s-12,9.67-16,17.91-9.67,6.34-9.67,6.34a41.36,41.36,0,0,1-5,.54A186.68,186.68,0,0,1,30.34,133a161.57,161.57,0,0,1,30.74-31.34C67.57,107.47,69.82,117.05,68.21,122.66Z" style="fill:#608bb2"/></g></g></svg>