<svg xmlns="http://www.w3.org/2000/svg" viewBox="0 0 280.63 180.97"><title>emporer-angelfish</title><g id="Layer_2" data-name="Layer 2"><g id="Ñëîé_2" data-name="Ñëîé 2"><path d="M32.57,95.39c-2.23,3.3-2.44,4.78-2.23,7.32.19,2.28-7.93,5.24-16.71,2.79A8.44,8.44,0,0,1,10,100.34C8.59,94.12-.11,88.6,0,82.45S0,76.08,2.12,76s3.71,3.82,3.71,3.82.21,1.28,1.06.33c0,0-2.33-5.52-3.18-6.79S4.13,71,8.38,70.14C10,69.83,13.23,68,17,65.41c1.32,1.41,3.4,3.34,5.25,3.67,3,.53,3.2,1.38,6.06,3.82s5.4,3.18,5.62,6.79S34.8,92.1,32.57,95.39Z" style="fill:#65c3e8"/><path d="M45.3,66.53C43.57,61.17,41,53.28,31.51,53A85.43,85.43,0,0,1,19.15,63.9a8.24,8.24,0,0,0,4,2.21c2.87.53,5,2.55,7.75,5.09s5,2.13,5.41,7.74,2.23,13.38,0,16c-1.6,1.9-1.54,4.7-1,6.69,0-.1,0-.2.07-.3s.1-.41.17-.62.19-.56.31-.85c.05-.14.11-.28.17-.42.16-.42.35-.84.54-1.27l.23-.5c.27-.62.55-1.24.82-1.88.38-.9,1.06-2.53,1.91-4.58,0,0,0-.13.16-.38l.1-.25C41,87.24,46.92,71.53,45.3,66.53ZM33.42,69.29a6.47,6.47,0,1,1,6.48-6.47A6.48,6.48,0,0,1,33.42,69.29Z" style="fill:#2b2b2b"/><path d="M78.44,39.71a14,14,0,0,0-5-1.4c-6.8-1-6.91,2.76-11.68,9.34s-6,15.91-5.84,19.52.43,9.13-4.66,19.41S43.39,100,47.11,102.82s7.32,5.1,7,7-3.5,1-13.69,0S32.36,107,29.81,107.7s-10.75,0-10.75,0a14.21,14.21,0,0,1-5.43-2.2c8.78,2.45,16.9-.51,16.71-2.79-.21-2.54,0-4,2.23-7.32S34.16,83.3,34,79.69s-2.76-4.34-5.62-6.79-3.08-3.29-6.06-3.82c-1.85-.33-3.93-2.26-5.25-3.67.7-.47,1.41-1,2.13-1.51a8.24,8.24,0,0,0,4,2.21c2.87.53,5,2.55,7.75,5.09s5,2.13,5.41,7.74,2.23,13.38,0,16c-1.6,1.9-1.54,4.7-1,6.69h0a1.46,1.46,0,0,0,0,.22,2.71,2.71,0,0,0,.43,2,2,2,0,0,0,.41.33l.16.09.38.17.23.07c3.28,1,8.06,1.69,8.59,1.91s-.85-1.91-.85-1.91S42,102.29,43.82,97s8.59-18,8.59-23.14,2.12-10.39,2.12-15.06.32-5.31,1.7-8,6.16-10.06,9.45-12.66S74.83,37.35,78.44,39.71Z" style="fill:#0070bc"/><path d="M48.38,68.55c-1,3.28-5.67,14.86-8.66,22.06,1.3-3.37,7.2-19.08,5.58-24.08C43.57,61.17,41,53.28,31.51,53a36.16,36.16,0,0,0,2.69-3.3s7.16.88,9,3.64S49.66,64.2,48.38,68.55Z" style="fill:#0070bc"/><path d="M224.62,16.45c-1.27.43-5.09.85-11.46,2.13S192.93,22,190.1,22.52s-6.51-.12-10,1.15a95.1,95.1,0,0,1-10.62,2.6c-5.51.21-22.21,9.14-24.61,10.61s-8.49,4-11.32,6.31-10.75,5.8-12.45,7.92-5.8,3.26-9.48,4.81-5.94,1.7-7.78,2.83a67.39,67.39,0,0,1-11.88,5c-4.67,1.45-6.37.81-6.38-.89s2.84-2,8.78-3.82,10.05-4.39,15.81-6.94,10.36-6.08,14.18-8.91,7.51-6.08,13-8.21,18-8.2,20.8-9.89S169,22,173.54,21.55s7.36-1.56,9.63-2a100,100,0,0,1,11.46-1c2.4,0,17.54-2.27,21.22-2.83S225.89,16,224.62,16.45Zm-8.91-3c-1.91.75-7.64,1.7-11.79,2.07a82.21,82.21,0,0,1-10.28,0c-2.66-.11-16.23,2.6-20.7,3s-11.77,2.54-14.12,3.94-8.26,3.37-11.12,4.54-17.4,8.28-19.42,9.82S115.22,46.06,113,47.65,92.84,58.05,90.18,58.79s-4.77.32-5.27-1.07.5-2,4.64-3.17a76.46,76.46,0,0,0,12.74-5.37c4.13-2.08,15-8.43,16-10.13s8.18-5.3,10.4-7.11,11.14-5.09,14.64-6.47,12.74-5.94,16.24-6.89,10.93-2,15.81-2.86,7-1.29,10.61-1.79,3.82-1.08,9.86,0S208,12.53,213,12.21,217.62,12.74,215.71,13.48ZM89.13,24.09c.88-.93,2.32-.74,7.1-4s3-1.11,5.1-2.28,5.62-3.4,8.8-3.82a15,15,0,0,0,6.59-2.75c1.47-1,3-.43,2.43.88s-5.94,3.14-6.9,3.41S103.45,19,101.64,20s-2.12,1.6-3.5,3.51S94,26.64,91.35,28.13s-5.51,1.8-5.57.56S89.13,24.09,89.13,24.09ZM85.54,33c1.11-1.23,9-3.72,12-6.74s2.54-1.43,4.78-3.8,3.7-1.56,6-3,3.92-1.69,5.94-2.64a64.4,64.4,0,0,0,6.89-4.64c1.5-1,5.84-2.48,10-2.82s10.07-4.43,10.5-3.11-4.14,3.24-5.41,3.88-8.49,1.91-10.3,2.65-2.43,1.38-3.93,2.12-2.22,2-3.49,3a23.84,23.84,0,0,1-6.9,3.08,17.67,17.67,0,0,0-5.2,2.33,32.37,32.37,0,0,0-6,5.45c-2.23,2.59-5.62,3.37-10.08,5.64s-6.58,2.17-6.6,1.32S85.54,33,85.54,33Zm-.63,5.16s11.54-4.74,14.61-6.54,4.35-3.19,5.2-4.79,8.7-3.07,10.19-4.87,11.35-6.26,12.09-7.43,6.69-2,9.87-3.18,8.6-2.65,10.83-4.24,8.69-2.45,11.12-3.3,7-.95,7.76,0,1,2.13-1,1.81-7.54,1.49-8.51,1.81S142.81,11.89,141,12.85s-8,1.48-9.86,2.7-4.25,2-5.84,3-6.79,4.24-8.07,4.56-7.64,4.87-9.12,5.55a18.07,18.07,0,0,0-5.1,4.53c-1.69,2-9.87,6.15-13.58,7.53s-6.47,1.38-6.92,0S84.91,38.17,84.91,38.17Zm-2.37,8.32c-.31-2,3.24-2.66,3.24-2.66,1.79-.6,10.77-4,12.26-4.46s4.87-3.61,7.11-5.41,3.39-3.82,6.68-5.27a88.49,88.49,0,0,0,10.72-5.23A83.42,83.42,0,0,0,132,17.09c1.17-1,7.32-1.59,9.23-2.55s5.94-1.91,11.67-3.71,10.83-1.69,14.76-3.08,27.68-1.69,31.83-1.48,3.92,1.17,1,1.87-16.88.35-19.2,0-8.07,1.38-10.72,1.58-12.85,3.09-15.35,3.51-7.36,1.81-10.65,2.28-19.42,9.18-21.33,10.14-9.33,4.13-10.5,5.52a58.94,58.94,0,0,1-5.41,5.67c-2,1.76-6.26,3.24-8.18,3.66S91.35,44.89,89,46,82.86,48.5,82.54,46.49Zm1.17,5c-.32-1.49,2.06-2.29,2.06-2.29,1.14-.58,13.75-5.78,15.67-6.62a84.32,84.32,0,0,0,8.16-4.39c2-1.32,3.3-2.62,3.72-4.21s10.61-6.05,14.53-9,9.76-3.07,10.51-4.34,12.62-4.25,16.23-5.05,7.54-3,12.21-3.41a53.7,53.7,0,0,0,11.35-1.84c3.08-1,9.54-1,13.79-1s15.38-.2,17.5.65-5.83,2-9.65,2.15a54.93,54.93,0,0,1-12.94-1.31c-2.45-.74-5.42.74-9.66,2.13s-12,2.22-13.9,2-4.35,1.48-6.17,2.12S149,21.22,146.2,21.65s-22.38,10.41-23.65,11.46-6.06,3.61-7.33,5.06a27.2,27.2,0,0,1-8,5.12c-2.55,1-15.07,8.29-18.68,10S84,53,83.71,51.47Zm143-32.75c-2.83.7-11,1.55-15.13,2.26s-6.23.69-10.33,1.54-9.91,2.42-12.46,2.42S175.53,27.07,173,28.69s-13,3-17.12,5.27-23.34,11-28.15,15.22-12.45,7.59-21.08,11.27S92.77,66.81,89.8,67.1s-4.2,1-4,2.13,2.6,2.12,11.09-.72,15.7-6.5,17.83-7.07,10.75-6.53,13.86-8.15,19.94-10.24,22.92-11.37,21.08-8.49,24.05-9.19,8.49-4.81,14.43-4,19.24-3.75,19.24-3.75,12.3-3,16-3.82S229.57,18,226.74,18.72Z" style="fill:#0070bc"/><path d="M226.74,18.72c-2.83.7-11,1.55-15.13,2.26s-6.23.69-10.33,1.54-9.91,2.42-12.46,2.42S175.53,27.07,173,28.69s-13,3-17.12,5.27-23.34,11-28.15,15.22-12.45,7.59-21.08,11.27S92.77,66.81,89.8,67.1s-4.2,1-4,2.13,2.6,2.12,11.09-.72,15.7-6.5,17.83-7.07,10.75-6.53,13.86-8.15,19.94-10.24,22.92-11.37,21.08-8.49,24.05-9.19,8.49-4.81,14.43-4,19.24-3.75,19.24-3.75,12.3-3,16-3.82S229.57,18,226.74,18.72Z" style="fill:#0070bc"/><path d="M89.8,67.1c3-.29,8.2-3,16.83-6.65s16.27-7.07,21.08-11.27,24-12.92,28.15-15.22,14.58-3.64,17.12-5.27,13.3-3.75,15.84-3.75,8.36-1.55,12.46-2.42,6.22-.83,10.33-1.54,12.3-1.56,15.13-2.26,2.12,1.55-1.55,2.4-16,3.82-16,3.82S195.9,29.47,190,28.69s-11.46,3.32-14.43,4-21.08,8.06-24.05,9.19-19.81,9.76-22.92,11.37-11.74,7.58-13.86,8.15-9.34,4.25-17.83,7.07S86,70.35,85.78,69.23,86.83,67.38,89.8,67.1Zm1.83,4.56c7.36-1,9.91-1.87,14-3.71s10-3.11,13.44-5.09,14.86-8.21,19-10.61,25.89-11.48,31.55-14.08,18.1-6.58,23-6.72,16.28-4,16.28-4,19.37-5.24,22.35-4.95.84,2-1.28,2.47-20.23,6.49-24.75,9-3.4,2.59-11.18,3.57S169.18,44.32,162.45,47s-12.25,3.12-15.35,5.52-10.19,7.21-16,8.77-13.58,4.11-16.83,6.36-9.06,5.39-12.31,5.67-15.17,3.82-16.42,2S84.28,72.69,91.63,71.66Z" style="fill:#0070bc"/><path d="M250.08,77.57a80.88,80.88,0,0,0,21.76-2.8c6.75-2,3.43-4.14-11.57-1.44s-17.68,1-13.44,0,26.74-5.8,24.9-8.77-14.71,4.8-21.65,5.79,5.95-3,14.43-6.6,7.07-7.55-4.24-.61-17.4,6.65-15.56,5.8,12-9.48,19.66-14.29l1.05-.66.2-.13.23-.13,0,0-1,.61-.41.26c-3.58,2.19-11.33,6.93-16.81,10-9.06,5.08-10.75,4.24-6.64,2.25,3.2-1.54,17.35-13,23.41-18a10.91,10.91,0,0,0-2.06,0c-5.37.56-15.28,13-24,16.69s-10.18,2.27-9.33,0,11-11.31,15-22.35S249.66,8.11,202.12,1.6,97.51,9.88,71.4,20.49,40.63,39.8,34.91,48.71c-.23.34-.46.69-.71,1,0,0,7.16.88,9,3.64s6.49,10.82,5.21,15.17c-1,3.28-5.67,14.86-8.66,22.06l-.1.25c-.11.25-.16.38-.16.38-.85,2.05-1.53,3.68-1.91,4.58-.27.64-.55,1.26-.82,1.88l-.23.5c-.19.43-.38.85-.54,1.27-.06.14-.12.28-.17.42-.12.29-.22.58-.31.85s-.12.42-.17.62-.05.2-.07.3h0a1.46,1.46,0,0,0,0,.22,2.71,2.71,0,0,0,.43,2,2,2,0,0,0,.41.33l.16.09.38.17.23.07c3.28,1,8.06,1.69,8.59,1.91s-.85-1.91-.85-1.91S42,102.29,43.82,97s8.59-18,8.59-23.14,2.12-10.39,2.12-15.06.32-5.31,1.7-8,6.16-10.06,9.45-12.66,9.15-.82,12.76,1.54l.07,0c2,1.23,2.23,3.22,2.23,6.74,0,5.4,1.8,15.16,2.76,17.4s1.06,2.22,0,6.25S83,78.84,83.39,83a41.22,41.22,0,0,1-1.7,14.32c-1.16,3.19-2.32,21.12-.1,25.68s.75,3.72,4.46,9.44c-.5-.8,6.15-.81,7.14-1.09s22.35,2.12,24.2,1.84,11.74,1.13,14,.85,4.1.42,8.07.42,9.47.71,12.3.57,11.89.42,14.57,0a63.38,63.38,0,0,1,11.75-1c4.52.14,15.41-2.13,26-5s20.24-13.16,19.39-14.44-1.56-1.55-2.55,0-7.36,6.23-8.35,7.08-7.77,4-8.77,4.39-15.7,4.24-21.22,4.24-4.24,1-11.18,1.41-5.51-.14-6.64-.28-5.24.7-7.66.42a17.46,17.46,0,0,0-6.23.41c-1.57.41-4.51-.41-6.49-.13a34.14,34.14,0,0,1-5.51,0c-.85,0-5.66-.7-6.79-.84s-4.53-.14-6.37-.85-4.67.42-6.47,0-4.56.14-6.58-.56-5.77-.29-8.74-1-2.55,0-4.52,0-7.92-.15-10.47,0-3.54-2.12-3.17-3.11,4-.71,5.72-.71,7.07.43,11,.15,7.08,1.41,10.16,1.41,7.53.57,10.08.42a83.22,83.22,0,0,1,8.63.6,37,37,0,0,0,7.07,0c2.4-.28,5.1.14,9.48,0s5.66,0,9.18-1.13,7.23.28,10,0a105.94,105.94,0,0,0,11.66-1.5c3.25-.79,7.64-.62,11.61-1.33s5.22-.85,6.64-1.41,9.34-3.4,12.77-5.1,9.45-5.23,9-6.79-3-1-3.54,0-6.22,3.54-7.36,4.38-4.52,1.85-7.07,2.55-2.82,1.14-4.95,1.84-6.36,1.42-8.06,1.84-9.63,1.7-14.86.85-7.92,1.13-10.53,2A34.48,34.48,0,0,1,153,125c-2.13-.09-5.52-.61-7.64-.19s-6.94,0-9.63,0-6.22-.14-8.34-.92-6.79.36-9.2-.07-2.69.28-5.55,0-3.78-.85-5.48-.79a68.88,68.88,0,0,1-9.91-1.33c-3.82-.71-6.64.85-9.9,1.27s-4.38-1.55-3.71-3.82,3.15-.57,5-.57,11.75-.13,13.86,0,10.33,2.55,12.32,2.27,10.32.28,11.31,0,6.37.7,8.21.7a143.09,143.09,0,0,0,15.14-.84A57.12,57.12,0,0,0,163.93,117c4.95-2,7.78.14,12-.7s3.67-.15,7.35-1.28,8.48-1.7,12-2.83,9.2-2.12,11.74-4.1,10.61-5.66,13.59-8.35a10,10,0,0,1,4.13-1.87,27.42,27.42,0,0,1,2.81-.57l.87-.13c.77-.1,1.49-.18,2.11-.23a0,0,0,0,1,0,0,3.57,3.57,0,0,1,2.14-.13,43.21,43.21,0,0,1,5.33,1.25A36.47,36.47,0,0,1,243,100c-3.53-3.29-3.24-4.59,7.13.06,13.59,6.09,17.83,4.1,17.83,2.83s-9.62-3-19.52-6S239.9,90.73,244,92.7s28.3,8.07,26.74,5.69-25.89-8.66-24.62-9.29,24.9,6.15,26.6,5.43-1.56-2.81-15.7-5.43-14-4-9.2-3.3,17,3.37,22.92,3.3,3.54-2-8.6-3.3-20.12-3.71-13-3.14c5.59.45,19.48-1.28,25.07-2-2.42-1.3-6.61-1.73-13.61-1.23C246.69,80.4,242.87,77.57,250.08,77.57Zm-12.75-5.91c2.51.47-.55,3.36-2,4.17S226,78.14,224.79,79s-10.93,2.77-10.93,2.77-2.4,1-4.06,1.9-3.43,1.27-5,2.14-3.82,1.25-5.1,1.9-4.39.76-6.51,1-2.4,1.13-3,1.27-6.08,1.56-7.21,2a25.68,25.68,0,0,1-6.23.85c-1.84,0-3,.85-4.81.69s-4.1,1.29-5.52,1.71-4.38,1-6.05,1.42a6.48,6.48,0,0,0-3.3,1.72c-.72.74-4.93,2-7.05,2.1s-7.22,1.27-8.4,1.27-4.76.28-6.59.28-5,1-8.5.71-3.82.71-5.66.43-3.4.13-4.67-.43-2.55,1.13-5.23,1-4.67.41-7.5-.17-1.84.58-4,0-2.69,0-4.24-.27-7.93.72-9.54,0-2.49-1.55-1-2.52,3.59.12,7-.09,4.39.36,6.79-.07,9.05.28,10.18,0,10.76-1.27,14.58-2.22,6.92-.19,11.75,0a23.37,23.37,0,0,0,11-2.29,39.52,39.52,0,0,1,6.37-2.56c2.12-.73,5.09-1.12,5.37-2.3s9.91-1.64,11.32-2.49,4.53-1,5.8-2.12,6.37-1,10.33-2.27,4.67-1.27,6.79-2.6,4-.52,5.66-1.45,6.51-1.47,9.33-3.65,5-.22,6.79-.83,8.78-3.92,10.93-3.65S234.8,71.2,237.33,71.66ZM236.12,40l-10,10.82c-3.21,3.48-6.46,7-10.44,9.57-5.88,3.79-12.91,5.24-19.72,6.86C160.37,75.8,126.07,91.17,89.52,93.52c-1.1.07-2.43,0-3-.94a2.07,2.07,0,0,1,1-2.64,6.22,6.22,0,0,1,3.06-.55c23.18-.29,45.55-8,67.46-15.54l46.75-16.18c4.38-1.51,8.8-3.05,12.7-5.57,7.71-5,12.75-13.43,20.64-18.14C239.32,35.93,237.67,38.32,236.12,40Zm1.09-11.25a3.38,3.38,0,0,1-.85,3.25C235,33.29,225.19,41.21,220,44.89s0,5-13.86,9.06-63.53,19.23-68.33,22.2S116.67,82.09,109,83.51s-19.23,3-21.5,2-3.11-2.4,2.4-2.4,24.62-1.42,31.28-6.23,10.74-2,17.82-6.65,28.72-11,35.51-12.93,9.05-3.33,14.85-5.6S201.7,49,205.24,48s5.09-2.41,7.5-4.81,7.78-2.56,11.45-5S236.36,27.91,237.21,28.76ZM86.36,78.56c1.88-1.13,2.73-1.13,5.84-.85s15.7-2.26,19.24-3.82,6-3.11,10.61-5.09,16.69-7.64,20.38-8.91,20.08-10.33,23.48-10.33,19.66-7.79,23.63-8.35,13.86-.58,16-3,10-5.31,13.16-6.44,12.73-4.95,12.73-4.95,3-1.13,3.82,0-5.52,4-9.06,6.51-5.09,4.37-9.76,4.88a15.2,15.2,0,0,0-9.19,4.45c-1.84,1.7-7.5,1.28-21.08,6.66s-37.35,11.68-42,14.47-15.7,4.41-20.79,7.91-5,6.19-13.2,6.48S97,80.68,91.35,80.26,84.48,79.69,86.36,78.56ZM83.68,95.82c0-.57,1.16-1.32,4-1.29s13.43-1,15.7-1,3.11.27,4.67,0,4.1-1,5.52-1.12,5.51-.28,6.92-.56,6.94-1.41,8.92-1.56,5.09-2,7.07-2A38.39,38.39,0,0,0,147.8,85.8c3.82-1.58,9.62-3.1,12-4s13.58-5.18,15-5.18,3.11-1.84,5.8-2.13,5.8-2.3,7.5-2.27,4-1.67,5.52-1.61,3.54-1.63,5.94-1.28,11.78-2.23,11.78-2.23a40.33,40.33,0,0,1,6.26-2c3.6-.85,4.66-4.78,6-7.11s3.28-4.24,5.72-7.21,7.05-9.24,7.94-7.75-.09,7.39-4.6,11a29,29,0,0,0-7.94,10.61c-1.23,2.5,1.31,3.15,3,3.46s2.23.53,2.23,1-5.73-1-8.38,0-14.71,3.78-18.11,5.76-12.59,2.55-15.14,4-11.88,3.2-13.58,4.08-2.12.91-5.66,2.38a35.66,35.66,0,0,1-6.71,2.32c-2.34.56-14.79,1.69-15.71,3.1s-25.46,3.82-27.48,5.24-3.08-1.42-9.13,0-6.75,1-12,1.7-9.14,1.13-11.78.7S83.65,96.39,83.68,95.82Zm154.87-5.09c-1.22,1.84-4.17,2.82-7.56,3.8l-13.44,3.86s-7.64,4.36-9.91,5.13-3.39,1.07-5,2.92S190,110.67,188.12,111a67.09,67.09,0,0,1-10,.43c-3.4-.14-4,1.14-7.93,1.84s-6.08.42-9.5,1.84-8,.56-10.45,1.28a37.15,37.15,0,0,1-8.53.84c-2,0-4.48-.14-6.59-.14s-7.65-.28-9.63-1.13-3.68.85-5.38,1.55-5.52.57-9.94,0-7.74-.28-9.86-1-6.94-.42-10.9-.56-6.08,0-6.85-1.51.49-1.75,1.5-2.31,4.79.56,7.19-.14,8.21,1,11.31,2,10,.14,11.47,0,9.05.14,13.29-1,7.51.87,10.05-.27,9,1,11.6,0,7.5-1.7,12.22-2.26,6.74-2.26,8.44-3.11,4.1-.57,6.79-.84,7.5-.43,10.19-1.43,5.51-1,8.2-2.12,6.65-2.55,8.91-3.68,3.54-1,6.79-2.4,3.68-1.27,5.8-2.28a94.94,94.94,0,0,1,15.84-4.93C236.93,88.75,239.75,88.88,238.55,90.73Zm2.2-8.35c-1.13,1.7-9.91,4.1-9.91,4.1s-5.65,1.84-8.49,2.69A20,20,0,0,0,217,91.24c-2.25,1.23-14.45,5.43-16.15,6.42s-6.79,2.26-6.79,2.26l-5.24,1s-5.23.85-6.22.85-3.25.43-3.82.43-3,.84-4,1-2.68.7-3.25.68-5.66,1.44-6.65,1.72-4.24.57-5.09.86-5.81,0-5.81,0-5.8,1.12-6.5,1.12-2.84.14-2.84.14l-2.11.57s-5,.85-6.51,1.13a14.49,14.49,0,0,1-3.54,0c-.7,0-.85.14-1.55.14h-3.82a9.93,9.93,0,0,0-3.26.67c-1.28.39-2.4,0-4.63-.1s-1.45.28-2.87,0a16.44,16.44,0,0,0-3.71,0,5.51,5.51,0,0,1-2.55-.71c-.88-.28-1.95,0-4.07,0a9.5,9.5,0,0,0-3.54.59,11,11,0,0,1-3.81-.16c-1.14-.15-1.56.42-3.26,0s-7.49,0-9.67,0-3.76-1.42-3.3-2.51,1.09-1.59,3.88-1.46,7.82.43,8.24.58a25.92,25.92,0,0,0,3.54,0s3.54.84,4.38.87a11.18,11.18,0,0,0,4.11-.87c.43-.41,4.1.69,5.24.78a19.59,19.59,0,0,0,4.67-.09c1-.28,1.55.29,4.24,0s2,0,4-.69,3.62.27,5.32,0a16.52,16.52,0,0,0,3.39-.75c2.13-.6,3.25.46,3.82-.11s3,.43,4.34,0,2.73-.42,3.73-1,1.7,0,3.1-.73a7.59,7.59,0,0,1,3.26-.68s4.67-1,6.23-1.56,2.26-.56,4.46-1.13,1.48-.71,2.9-1.42,1.83-.42,3.1-.68a8.29,8.29,0,0,1,3.69,0c.84.32,1.69-.59,4-1.15s2.84-.15,5-.85a29.9,29.9,0,0,0,4.8-1.86,7.29,7.29,0,0,1,3.54-1A50.57,50.57,0,0,0,195.76,92c2.55-.7,4.67-1,6.87-1.7a27,27,0,0,0,4.87-1.84c1.27-.7,4-1.13,6.08-2s6.37-2.69,8.64-4.72,6.92-.94,12.16-1.45S241.88,80.68,240.75,82.38Z" style="fill:#f0c90c"/><path d="M277.1,99.21c.29,2.27-3.1,3.12-4.24,5.1s-5.94,3.11-6.22,4-3.12-2-4.53,0c-1.14,1.6-11.49-4.73-19.16-8.27-3.53-3.29-3.24-4.59,7.13.06,13.59,6.09,17.83,4.1,17.83,2.83s-9.62-3-19.52-6S239.9,90.73,244,92.7s28.3,8.07,26.74,5.69-25.89-8.66-24.62-9.29,24.9,6.15,26.6,5.43-1.56-2.81-15.7-5.43-14-4-9.2-3.3,17,3.37,22.92,3.3,3.54-2-8.6-3.3-20.12-3.71-13-3.14c5.59.45,19.48-1.28,25.07-2a6.23,6.23,0,0,1,1,.68c1.53,1.27,2,3.1,1.92,5.44-.12,4.92-3.65,5.07,1.72,9.36C278.35,97.27,276.9,97.56,277.1,99.21Z" style="fill:#e4b905"/><path d="M110.1,150.89c-3.13,0-6.66-.15-10.4-.38-3.93-.25-8.09-.62-12.29-1.15a125.59,125.59,0,0,1-20.27-4.1c-1.34-.4-2.63-.83-3.88-1.29h0c-.89-.32-1.75-.66-2.58-1a33.72,33.72,0,0,1-8.51-5C38,126.1,19.06,107.7,19.06,107.7s8.21.75,10.75,0,.43,1.17,10.61,2.13,13.37,1.9,13.69,0-3.29-4.15-7-7-1-5.94,4.14-16.24S56,70.78,55.91,67.17,57,54.23,61.75,47.65s4.88-10.3,11.68-9.34a14,14,0,0,1,5,1.4l.07,0c2,1.23,2.23,3.22,2.23,6.74,0,5.4,1.8,15.16,2.76,17.4s1.06,2.22,0,6.25S83,78.84,83.39,83a41.22,41.22,0,0,1-1.7,14.32c-1.16,3.19-2.32,21.12-.1,25.68s.75,3.72,4.46,9.44a23,23,0,0,1,1.52,2.75h0c.4.84.75,1.66,1.06,2.46.42,1.1.79,2.14,1.16,3.1a18.83,18.83,0,0,0,1,2.2,6.58,6.58,0,0,0,2.47,2.65A45.75,45.75,0,0,0,110.1,150.89Z" style="fill:#002251"/><path d="M224.09,103.86c-.64.71.21,3,.7,4.37a5.09,5.09,0,0,1,0,2.87s-2.93,1.12-2.72-.71-1.8-3.21-.63-5.13a21.82,21.82,0,0,1,2-3.18c.74-.85,1.34-4.17,1.34-4.17a27.42,27.42,0,0,1,2.81-.57c0,1.84-1.61,3.67-2,4.42A11.67,11.67,0,0,1,224.09,103.86Z" style="fill:#f0c90c"/><path d="M240.32,123.3c-1.37-2.76-.52-3.93-.52-6.16a9.32,9.32,0,0,0-1.51-4.45s-1-1.55-1.58-1.25-.05,3.69-1.4,6.5-1.35,4.09-3.05,5.79-4.25,2.44-6.69,5.41a26,26,0,0,1-7.22,6.47c-3.07,1.9-6.46,1.7-7.74,1.06a12.36,12.36,0,0,0-4.69-1.16,1.08,1.08,0,0,0-.82.31c-.64.85-2.13.85-5,1.8a78.1,78.1,0,0,1-7.63,1.81,8.13,8.13,0,0,0-5.84.78c-3,1.66-6.9,1.87-9.87,2.4s-4.77-.53-6.14,0-1.6.22-4.57.64a59.42,59.42,0,0,1-7.23.43c-2.53.1-7.95-.54-8.47-.54S133.79,141,132,141a133.07,133.07,0,0,1-13.8-.81c-3.39-.57-7.74-2.16-10.07-2.05s-.54-.65-5.1-.54-3.08-.42-5.62-.11-2.55,0-4.25.22a25.27,25.27,0,0,1-4.51-.1c.42,1.1.79,2.14,1.16,3.1,0,0,4-1,5-.52s7.64,1,8.49,1.23,5.63.85,6.16.85a5.79,5.79,0,0,1,2.33,0c1,.32,4.24-.74,5.51,0s4.15,1.09,5.32,1.4,7.42,1.36,8.38,1.36,4.13-.75,5.72-.52,3.93.42,5,.52,3.49.64,6.46,1.17,4.46.43,7.32.74a59.85,59.85,0,0,0,6.31,0,16.23,16.23,0,0,0,4.41.12c2.34-.23,3-.54,4.67-.54h3.93a97.13,97.13,0,0,0,12.41-2.24c1.8-.62,6.58-2.86,9.55-2.75a34.77,34.77,0,0,0,5.39-.41h0c1.65-.21,3.07-.42,3.68-.42,1.3,0,5.75-.35,8.09-.5a16.25,16.25,0,0,0,6.26-2c.95-.64.53-.1,1.9-1.8s6.06-6.11,7.86-6.14,1.48-1,3.29-2.25,2.52-1.69,2.8-3.29a22,22,0,0,1,1.21-4.56c.45-1,1.46-2.12,1.22,0s-.14,4.14-.94,5.41-.63,2.12-2.3,3.08-1.88,2.12-5.07,4.14a51.71,51.71,0,0,0-5.3,3.82c-2.12,1.59-5.2,3-4.67,3.54s2.18.81,4.06.6a7.53,7.53,0,0,0,4.21-1.17c2.55-1.28,3.61-.53,4.19-2a31,31,0,0,1,2.58-5.51c.87-1.17,1.35-3.4,2-3.4s.66,2.55-.4,4.14-.06,2.34-1.62,4.77-.82,1.7-2.57,3.71-.8,2.55-2.18,3.51-1.48,1.81-2.22,1,1.16-1.92.31-2.66,1.59-1.91-1.7-1.06.11,1.49-3.28.85-4.25-2.12-5.63-1.7-3,.53-5.83,1.06-4.47-.53-7.33.22-5.2.44-6.79,1.18c-1.3.6-.82-.08-3.2.3-.51.09-1.17.22-2,.42-4.67,1.17-3.82.43-5.2,1.28s-.1,1-3.18,1.48-6.47.43-8.6,1.28-5,.74-6.25.85a29,29,0,0,1-6.2,0c-1.87-.43-9.29-.16-11.42.18s-7-1-7-1-7.1-.53-7.85-1.17-7.85-.74-9.66-.43-6.26-1.16-10.08-1.16-.84-1.7-5.94-1-6.15.11-9.65,0-11.07-1.8-11.07-1.8a6.58,6.58,0,0,0,2.47,2.65,45.75,45.75,0,0,0,16.84,5.31h0c3.38,0,6.3,0,8.53-.18,13.58-.85,16.42,1.7,16.42,1.7,20.65,8.34,53,14.8,77.74,8.69a4.41,4.41,0,0,1,2.36-1.83,62.87,62.87,0,0,0,10.39-4.92c2.44-1.54,1.17-2.3,1.27-4s3.51-1.59,5.89-3a18.39,18.39,0,0,0,6.19-6.68c1.78-3,1.61-6.27,2.11-10S241.7,126.05,240.32,123.3Zm-18.77,31.05c-1.6.17-3.51-.39-3.93,0a20.79,20.79,0,0,1-5.41,3.22,14.61,14.61,0,0,1-4.57.43c-1.27,0-2.22,1.8-3.29,2.23a78.3,78.3,0,0,1-11.7,2.22,41.79,41.79,0,0,1-6.23,0,44.24,44.24,0,0,1-7.21-1.27,19.71,19.71,0,0,0-4.46-.54,16.41,16.41,0,0,0-4.88,0c-1.8.37,0-1.32.75-2.06s5,1.05,7.42,1.48,8.17,1.07,11.45,0,5.95-.85,9.56-1.92,2.86-.73,5.62-1.58,4.57-.85,6.89-1.48,1.28-2.24-.42-2.55a26.13,26.13,0,0,0-6.47-.21c-1.59.21-5.52,2.76-6.79,3.07a22.72,22.72,0,0,1-5.23.32c-2.48,0-4.32-.1-6-.21a35.66,35.66,0,0,0-5.94.21,20.64,20.64,0,0,1-3.61,0h-6.26c-1.7,0-3.28.75-5.3,1.91s-1.91,0-3.07,0-1.17-.42.53-1.27,8.06-1.38,11.77-2,5.2-.39,9.94-.6,4.6-.53,9.05-1,5.63-1.47,8-2.66,7.43-.09,10.61-.59,6.15.28,8.76,0,2.6,1.35,2.6,1.35C223.83,151.44,223.13,154.18,221.55,154.35Zm-.48-6.92c-1.32.15-7.7.8-11.59.17a23.87,23.87,0,0,0-8.73.74s-12.31,2.55-13.58,2.55-5.74.74-7.33,1-5.94,1.38-7.21,1.38-5.52-.32-7.22-.32-5.94,0-7.3-.21-3.2.1-6.07.53-2.33,0-4.14.85a2.52,2.52,0,0,1-3.5-1.48c-.42-1.07,3.61.31,6.9-.85s14.75-.64,16.55-.85a115.1,115.1,0,0,0,17.09-2.55c7.75-1.91,8.06-.32,11.24-1s3.4-1.07,7.54-1.81,3.82-.32,7.53.22,5.41-.11,9.82-1.07,3.34.11,3.87,1.17S222.39,147.28,221.07,147.43Z" style="fill:#002251"/><path d="M212.71,133.39a2.1,2.1,0,0,1-2.52,1c-1.8-.75-4.27,1.17-4.27,1.17a1.08,1.08,0,0,0-.82.31c-.64.85-2.13.85-5,1.8a78.1,78.1,0,0,1-7.63,1.81,8.13,8.13,0,0,0-5.84.78c-3,1.66-6.9,1.87-9.87,2.4s-4.77-.53-6.14,0-1.6.22-4.57.64a59.42,59.42,0,0,1-7.23.43c-2.53.1-7.95-.54-8.47-.54S133.79,141,132,141a133.07,133.07,0,0,1-13.8-.81c-3.39-.57-7.74-2.16-10.07-2.05s-.54-.65-5.1-.54-3.08-.42-5.62-.11-2.55,0-4.25.22a25.27,25.27,0,0,1-4.51-.1c-.31-.8-.66-1.62-1.06-2.46.27,0,5-.4,6.6,0s11.75,1,13.44,1.39,7.78.28,11.6,1,13.33,1,15.86,1.13,18.92.42,22,1,18.84.85,21.52,0a79.19,79.19,0,0,1,9.76-2.08c2.27-.33,11-2.59,14.23-3.44s4.23-3,7.17-1.7A16.47,16.47,0,0,0,212.71,133.39Z" style="fill:#f0c90c"/><path d="M231.83,152.41a51,51,0,0,1-19,8.69,4.41,4.41,0,0,1,2.36-1.83,62.87,62.87,0,0,0,10.39-4.92c2.44-1.54,1.17-2.3,1.27-4s3.51-1.59,5.89-3a18.39,18.39,0,0,0,6.19-6.68c1.78-3,1.61-6.27,2.11-10s.67-4.67-.71-7.42-.52-3.93-.52-6.16a9.32,9.32,0,0,0-1.51-4.45s-1-1.55-1.58-1.25-.05,3.69-1.4,6.5-1.35,4.09-3.05,5.79-4.25,2.44-6.69,5.41a26,26,0,0,1-7.22,6.47c-3.07,1.9-6.46,1.7-7.74,1.06a12.36,12.36,0,0,0-4.69-1.16s2.47-1.92,4.27-1.17a2.1,2.1,0,0,0,2.52-1c2.24.47,4.46.47,5.54-.22,1.56-1,11.18-10.89,12.74-11s2-4.61,2.69-6.13-.28-6.46,1.63-6.46.06-2-1.5-4.66-4.94-5.82-5.34-7.67c.77-.1,1.49-.18,2.11-.23-.7.45-.2,1.66,1.82,3.93C236.93,106,255.88,134,231.83,152.41Z" style="fill:#65c3e8"/><path d="M280.5,78.84c0,3.12-2.55,12.74-1.7,15.56a2.51,2.51,0,0,1,0,1.72c-5.37-4.29-1.84-4.44-1.72-9.36.06-2.34-.39-4.17-1.92-5.44a6.23,6.23,0,0,0-1-.68c-2.42-1.3-6.61-1.73-13.61-1.23-13.86,1-17.68-1.84-10.47-1.84a80.88,80.88,0,0,0,21.76-2.8c6.75-2,3.43-4.14-11.57-1.44s-17.68,1-13.44,0,26.74-5.8,24.9-8.77-14.71,4.8-21.65,5.79,5.95-3,14.43-6.6,7.07-7.55-4.24-.61-17.4,6.65-15.56,5.8,12-9.48,19.66-14.29l1.05-.66.2-.13.23-.13a1.53,1.53,0,0,0,.23-.17l-.13.09-.05,0-1,.61-.41.26c-3.58,2.19-11.33,6.93-16.81,10-9.06,5.08-10.75,4.24-6.64,2.25,3.2-1.54,17.35-13,23.41-18,4.61.43,8.76,3.73,9.26,5.95.57,2.54,2.54,2.54,2.54,5.09s2.27,5.09,2.27,6.79,1.7,1.94,2,5.5A50.91,50.91,0,0,1,280.5,78.84Z" style="fill:#e4b905"/><path d="M36.64,62.82a4.28,4.28,0,1,1-4.28-4.28A4.28,4.28,0,0,1,36.64,62.82Z" style="fill:#2b2b2b"/><path d="M33.42,56.35a6.47,6.47,0,1,0,6.48,6.47A6.48,6.48,0,0,0,33.42,56.35ZM32.36,67.1a4.28,4.28,0,1,1,4.28-4.28A4.28,4.28,0,0,1,32.36,67.1Z" style="fill:#5b5b5b"/><path d="M236.12,40l-10,10.82c-3.21,3.48-6.46,7-10.44,9.57-5.88,3.79-12.91,5.24-19.72,6.86C160.37,75.8,126.07,91.17,89.52,93.52c-1.1.07-2.43,0-3-.94a2.07,2.07,0,0,1,1-2.64,6.22,6.22,0,0,1,3.06-.55c23.18-.29,45.55-8,67.46-15.54l46.75-16.18c4.38-1.51,8.8-3.05,12.7-5.57,7.71-5,12.75-13.43,20.64-18.14C239.32,35.93,237.67,38.32,236.12,40Z" style="fill:#0070bc"/><path d="M236.36,32C235,33.29,225.19,41.21,220,44.89s0,5-13.86,9.06-63.53,19.23-68.33,22.2S116.67,82.09,109,83.51s-19.23,3-21.5,2-3.11-2.4,2.4-2.4,24.62-1.42,31.28-6.23,10.74-2,17.82-6.65,28.72-11,35.51-12.93,9.05-3.33,14.85-5.6S201.7,49,205.24,48s5.09-2.41,7.5-4.81,7.78-2.56,11.45-5,12.17-10.26,13-9.41A3.38,3.38,0,0,1,236.36,32Z" style="fill:#0070bc"/><path d="M226.17,33.29c-3.53,2.54-5.09,4.37-9.76,4.88a15.2,15.2,0,0,0-9.19,4.45c-1.84,1.7-7.5,1.28-21.08,6.66s-37.35,11.68-42,14.47-15.7,4.41-20.79,7.91-5,6.19-13.2,6.48S97,80.68,91.35,80.26s-6.87-.57-5-1.7,2.73-1.13,5.84-.85,15.7-2.26,19.24-3.82,6-3.11,10.61-5.09,16.69-7.64,20.38-8.91,20.08-10.33,23.48-10.33,19.66-7.79,23.63-8.35,13.86-.58,16-3,10-5.31,13.16-6.44,12.73-4.95,12.73-4.95,3-1.13,3.82,0S229.71,30.74,226.17,33.29Z" style="fill:#0070bc"/><path d="M230,25c-2.12.5-20.23,6.49-24.75,9s-3.4,2.59-11.18,3.57S169.18,44.32,162.45,47s-12.25,3.12-15.35,5.52-10.19,7.21-16,8.77-13.58,4.11-16.83,6.36-9.06,5.39-12.31,5.67-15.17,3.82-16.42,2-1.26-2.61,6.09-3.64,9.91-1.87,14-3.71,10-3.11,13.44-5.09,14.86-8.21,19-10.61,25.89-11.48,31.55-14.08,18.1-6.58,23-6.72,16.28-4,16.28-4,19.37-5.24,22.35-4.95S232.11,24.51,230,25Z" style="fill:#0070bc"/><path d="M225.19,21.12c-3.69.85-16,3.82-16,3.82S195.9,29.47,190,28.69s-11.46,3.32-14.43,4-21.08,8.06-24.05,9.19-19.81,9.76-22.92,11.37-11.74,7.58-13.86,8.15-9.34,4.25-17.83,7.07S86,70.35,85.78,69.23s1-1.85,4-2.13,8.2-3,16.83-6.65,16.27-7.07,21.08-11.27,24-12.92,28.15-15.22,14.58-3.64,17.12-5.27,13.3-3.75,15.84-3.75,8.36-1.55,12.46-2.42,6.22-.83,10.33-1.54,12.3-1.56,15.13-2.26S228.86,20.27,225.19,21.12Z" style="fill:#0070bc"/><path d="M224.62,16.45c-1.27.43-5.09.85-11.46,2.13S192.93,22,190.1,22.52s-6.51-.12-10,1.15a95.1,95.1,0,0,1-10.62,2.6c-5.51.21-22.21,9.14-24.61,10.61s-8.49,4-11.32,6.31-10.75,5.8-12.45,7.92-5.8,3.26-9.48,4.81-5.94,1.7-7.78,2.83a67.39,67.39,0,0,1-11.88,5c-4.67,1.45-6.37.81-6.38-.89s2.84-2,8.78-3.82,10.05-4.39,15.81-6.94,10.36-6.08,14.18-8.91,7.51-6.08,13-8.21,18-8.2,20.8-9.89S169,22,173.54,21.55s7.36-1.56,9.63-2a100,100,0,0,1,11.46-1c2.4,0,17.54-2.27,21.22-2.83S225.89,16,224.62,16.45Z" style="fill:#0070bc"/><path d="M215.71,13.48c-1.91.75-7.64,1.7-11.79,2.07a82.21,82.21,0,0,1-10.28,0c-2.66-.11-16.23,2.6-20.7,3s-11.77,2.54-14.12,3.94-8.26,3.37-11.12,4.54-17.4,8.28-19.42,9.82S115.22,46.06,113,47.65,92.84,58.05,90.18,58.79s-4.77.32-5.27-1.07.5-2,4.64-3.17a76.46,76.46,0,0,0,12.74-5.37c4.13-2.08,15-8.43,16-10.13s8.18-5.3,10.4-7.11,11.14-5.09,14.64-6.47,12.74-5.94,16.24-6.89,10.93-2,15.81-2.86,7-1.29,10.61-1.79,3.82-1.08,9.86,0S208,12.53,213,12.21,217.62,12.74,215.71,13.48Z" style="fill:#0070bc"/><path d="M199.79,12.14a54.93,54.93,0,0,1-12.94-1.31c-2.45-.74-5.42.74-9.66,2.13s-12,2.22-13.9,2-4.35,1.48-6.17,2.12S149,21.22,146.2,21.65s-22.38,10.41-23.65,11.46-6.06,3.61-7.33,5.06a27.2,27.2,0,0,1-8,5.12c-2.55,1-15.07,8.29-18.68,10S84,53,83.71,51.47s2.06-2.29,2.06-2.29c1.14-.58,13.75-5.78,15.67-6.62a84.32,84.32,0,0,0,8.16-4.39c2-1.32,3.3-2.62,3.72-4.21s10.61-6.05,14.53-9,9.76-3.07,10.51-4.34,12.62-4.25,16.23-5.05,7.54-3,12.21-3.41a53.7,53.7,0,0,0,11.35-1.84c3.08-1,9.54-1,13.79-1s15.38-.2,17.5.65S203.61,12,199.79,12.14Z" style="fill:#0070bc"/><path d="M200.43,8.14c-3,.7-16.88.35-19.2,0s-8.07,1.38-10.72,1.58-12.85,3.09-15.35,3.51-7.36,1.81-10.65,2.28-19.42,9.18-21.33,10.14-9.33,4.13-10.5,5.52a58.94,58.94,0,0,1-5.41,5.67c-2,1.76-6.26,3.24-8.18,3.66S91.35,44.89,89,46s-6.16,2.55-6.48.54,3.24-2.66,3.24-2.66c1.79-.6,10.77-4,12.26-4.46s4.87-3.61,7.11-5.41,3.39-3.82,6.68-5.27a88.49,88.49,0,0,0,10.72-5.23A83.42,83.42,0,0,0,132,17.09c1.17-1,7.32-1.59,9.23-2.55s5.94-1.91,11.67-3.71,10.83-1.69,14.76-3.08,27.68-1.69,31.83-1.48S203.4,7.44,200.43,8.14Z" style="fill:#0070bc"/><path d="M165.63,5.63c-1.91-.31-7.54,1.49-8.51,1.81S142.81,11.89,141,12.85s-8,1.48-9.86,2.7-4.25,2-5.84,3-6.79,4.24-8.07,4.56-7.64,4.87-9.12,5.55a18.07,18.07,0,0,0-5.1,4.53c-1.69,2-9.87,6.15-13.58,7.53s-6.47,1.38-6.92,0,2.39-2.58,2.39-2.58,11.54-4.74,14.61-6.54,4.35-3.19,5.2-4.79,8.7-3.07,10.19-4.87,11.35-6.26,12.09-7.43,6.69-2,9.87-3.18,8.6-2.65,10.83-4.24,8.69-2.45,11.12-3.3,7-.95,7.76,0S167.54,6,165.63,5.63Z" style="fill:#0070bc"/><path d="M136.24,10.09c-1.27.63-8.49,1.91-10.3,2.65s-2.43,1.38-3.93,2.12-2.22,2-3.49,3a23.84,23.84,0,0,1-6.9,3.08,17.67,17.67,0,0,0-5.2,2.33,32.37,32.37,0,0,0-6,5.45c-2.23,2.59-5.62,3.37-10.08,5.64s-6.58,2.17-6.6,1.32S85.54,33,85.54,33c1.11-1.23,9-3.72,12-6.74s2.54-1.43,4.78-3.8,3.7-1.56,6-3,3.92-1.69,5.94-2.64a64.4,64.4,0,0,0,6.89-4.64c1.5-1,5.84-2.48,10-2.82s10.07-4.43,10.5-3.11S137.51,9.45,136.24,10.09Z" style="fill:#0070bc"/><path d="M119.15,12.14c-.53,1.31-5.94,3.14-6.9,3.41S103.45,19,101.64,20s-2.12,1.6-3.5,3.51S94,26.64,91.35,28.13s-5.51,1.8-5.57.56,3.35-4.6,3.35-4.6c.88-.93,2.32-.74,7.1-4s3-1.11,5.1-2.28,5.62-3.4,8.8-3.82a15,15,0,0,0,6.59-2.75C118.19,10.3,119.69,10.83,119.15,12.14Z" style="fill:#0070bc"/><path d="M232.73,54a29,29,0,0,0-7.94,10.61c-1.23,2.5,1.31,3.15,3,3.46s2.23.53,2.23,1-5.73-1-8.38,0-14.71,3.78-18.11,5.76-12.59,2.55-15.14,4-11.88,3.2-13.58,4.08-2.12.91-5.66,2.38a35.66,35.66,0,0,1-6.71,2.32c-2.34.56-14.79,1.69-15.71,3.1s-25.46,3.82-27.48,5.24-3.08-1.42-9.13,0-6.75,1-12,1.7-9.14,1.13-11.78.7-2.71-1.83-2.68-2.4,1.16-1.32,4-1.29,13.43-1,15.7-1,3.11.27,4.67,0,4.1-1,5.52-1.12,5.51-.28,6.92-.56,6.94-1.41,8.92-1.56,5.09-2,7.07-2A38.39,38.39,0,0,0,147.8,85.8c3.82-1.58,9.62-3.1,12-4s13.58-5.18,15-5.18,3.11-1.84,5.8-2.13,5.8-2.3,7.5-2.27,4-1.67,5.52-1.61,3.54-1.63,5.94-1.28,11.78-2.23,11.78-2.23a40.33,40.33,0,0,1,6.26-2c3.6-.85,4.66-4.78,6-7.11s3.28-4.24,5.72-7.21,7.05-9.24,7.94-7.75S237.24,50.37,232.73,54Z" style="fill:#0070bc"/><path d="M235.31,75.83c-1.48.81-9.27,2.31-10.52,3.16s-10.93,2.77-10.93,2.77-2.4,1-4.06,1.9-3.43,1.27-5,2.14-3.82,1.25-5.1,1.9-4.39.76-6.51,1-2.4,1.13-3,1.27-6.08,1.56-7.21,2a25.68,25.68,0,0,1-6.23.85c-1.84,0-3,.85-4.81.69s-4.1,1.29-5.52,1.71-4.38,1-6.05,1.42a6.48,6.48,0,0,0-3.3,1.72c-.72.74-4.93,2-7.05,2.1s-7.22,1.27-8.4,1.27-4.76.28-6.59.28-5,1-8.5.71-3.82.71-5.66.43-3.4.13-4.67-.43-2.55,1.13-5.23,1-4.67.41-7.5-.17-1.84.58-4,0-2.69,0-4.24-.27-7.93.72-9.54,0-2.49-1.55-1-2.52,3.59.12,7-.09,4.39.36,6.79-.07,9.05.28,10.18,0,10.76-1.27,14.58-2.22,6.92-.19,11.75,0a23.37,23.37,0,0,0,11-2.29,39.52,39.52,0,0,1,6.37-2.56c2.12-.73,5.09-1.12,5.37-2.3s9.91-1.64,11.32-2.49,4.53-1,5.8-2.12,6.37-1,10.33-2.27,4.67-1.27,6.79-2.6,4-.52,5.66-1.45,6.51-1.47,9.33-3.65,5-.22,6.79-.83,8.78-3.92,10.93-3.65,10-1,12.54-.52S236.78,75,235.31,75.83Z" style="fill:#0070bc"/><path d="M240.75,82.38c-1.13,1.7-9.91,4.1-9.91,4.1s-5.65,1.84-8.49,2.69A20,20,0,0,0,217,91.24c-2.25,1.23-14.45,5.43-16.15,6.42s-6.79,2.26-6.79,2.26l-5.24,1s-5.23.85-6.22.85-3.25.43-3.82.43-3,.84-4,1-2.68.7-3.25.68-5.66,1.44-6.65,1.72-4.24.57-5.09.86-5.81,0-5.81,0-5.8,1.12-6.5,1.12-2.84.14-2.84.14l-2.11.57s-5,.85-6.51,1.13a14.49,14.49,0,0,1-3.54,0c-.7,0-.85.14-1.55.14h-3.82a9.93,9.93,0,0,0-3.26.67c-1.28.39-2.4,0-4.63-.1s-1.45.28-2.87,0a16.44,16.44,0,0,0-3.71,0,5.51,5.51,0,0,1-2.55-.71c-.88-.28-1.95,0-4.07,0a9.5,9.5,0,0,0-3.54.59,11,11,0,0,1-3.81-.16c-1.14-.15-1.56.42-3.26,0s-7.49,0-9.67,0-3.76-1.42-3.3-2.51,1.09-1.59,3.88-1.46,7.82.43,8.24.58a25.92,25.92,0,0,0,3.54,0s3.54.84,4.38.87a11.18,11.18,0,0,0,4.11-.87c.43-.41,4.1.69,5.24.78a19.59,19.59,0,0,0,4.67-.09c1-.28,1.55.29,4.24,0s2,0,4-.69,3.62.27,5.32,0a16.52,16.52,0,0,0,3.39-.75c2.13-.6,3.25.46,3.82-.11s3,.43,4.34,0,2.73-.42,3.73-1,1.7,0,3.1-.73a7.59,7.59,0,0,1,3.26-.68s4.67-1,6.23-1.56,2.26-.56,4.46-1.13,1.48-.71,2.9-1.42,1.83-.42,3.1-.68a8.29,8.29,0,0,1,3.69,0c.84.32,1.69-.59,4-1.15s2.84-.15,5-.85a29.9,29.9,0,0,0,4.8-1.86,7.29,7.29,0,0,1,3.54-1A50.57,50.57,0,0,0,195.76,92c2.55-.7,4.67-1,6.87-1.7a27,27,0,0,0,4.87-1.84c1.27-.7,4-1.13,6.08-2s6.37-2.69,8.64-4.72,6.92-.94,12.16-1.45S241.88,80.68,240.75,82.38Z" style="fill:#0070bc"/><path d="M238.55,90.73c-1.22,1.84-4.17,2.82-7.56,3.8l-13.44,3.86s-7.64,4.36-9.91,5.13-3.39,1.07-5,2.92S190,110.67,188.12,111a67.09,67.09,0,0,1-10,.43c-3.4-.14-4,1.14-7.93,1.84s-6.08.42-9.5,1.84-8,.56-10.45,1.28a37.15,37.15,0,0,1-8.53.84c-2,0-4.48-.14-6.59-.14s-7.65-.28-9.63-1.13-3.68.85-5.38,1.55-5.52.57-9.94,0-7.74-.28-9.86-1-6.94-.42-10.9-.56-6.08,0-6.85-1.51.49-1.75,1.5-2.31,4.79.56,7.19-.14,8.21,1,11.31,2,10,.14,11.47,0,9.05.14,13.29-1,7.51.87,10.05-.27,9,1,11.6,0,7.5-1.7,12.22-2.26,6.74-2.26,8.44-3.11,4.1-.57,6.79-.84,7.5-.43,10.19-1.43,5.51-1,8.2-2.12,6.65-2.55,8.91-3.68,3.54-1,6.79-2.4,3.68-1.27,5.8-2.28a94.94,94.94,0,0,1,15.84-4.93C236.93,88.75,239.75,88.88,238.55,90.73Z" style="fill:#0070bc"/><path d="M233.81,104.88c-1.55-2.69-4.94-5.82-5.34-7.67l-.87.13c0,1.84-1.61,3.67-2,4.42a11.67,11.67,0,0,1-1.48,2.1c-.64.71.21,3,.7,4.37a5.09,5.09,0,0,1,0,2.87s-2.93,1.12-2.72-.71-1.8-3.21-.63-5.13a21.82,21.82,0,0,1,2-3.18c.74-.85,1.34-4.17,1.34-4.17a10,10,0,0,0-4.13,1.87c-3,2.69-11,6.37-13.59,8.35s-8.2,3-11.74,4.1-8.34,1.7-12,2.83-3.11.43-7.35,1.28-7.08-1.28-12,.7a57.12,57.12,0,0,1-14.43,3.68,143.09,143.09,0,0,1-15.14.84c-1.84,0-7.21-1-8.21-.7s-9.33-.28-11.31,0-10.19-2.12-12.32-2.27-12,0-13.86,0-4.31-1.69-5,.57.46,4.25,3.71,3.82,6.08-2,9.9-1.27A68.88,68.88,0,0,0,107.2,123c1.7-.06,2.61.51,5.48.79s3.14-.42,5.55,0,7.08-.71,9.2.07,5.66.92,8.34.92,7.51.43,9.63,0,5.51.1,7.64.19a34.48,34.48,0,0,0,9.41-1.18c2.61-.85,5.3-2.83,10.53-2s13.16-.42,14.86-.85,5.94-1.13,8.06-1.84,2.41-1.13,4.95-1.84,5.94-1.7,7.07-2.55,6.79-3.4,7.36-4.38,3.12-1.57,3.54,0-5.59,5.1-9,6.79-11.35,4.53-12.77,5.1-2.69.7-6.64,1.41-8.36.54-11.61,1.33a105.94,105.94,0,0,1-11.66,1.5c-2.77.28-6.48-1.14-10,0s-4.8,1-9.18,1.13-7.08-.28-9.48,0a37,37,0,0,1-7.07,0,83.22,83.22,0,0,0-8.63-.6c-2.55.15-7-.42-10.08-.42s-6.2-1.7-10.16-1.41-9.33-.15-11-.15-5.33-.28-5.72.71.62,3.26,3.17,3.11,8.49,0,10.47,0,1.55-.7,4.52,0,6.72.27,8.74,1,4.78.13,6.58.56,4.63-.71,6.47,0,5.24.71,6.37.85,5.94.84,6.79.84a34.14,34.14,0,0,0,5.51,0c2-.28,4.92.54,6.49.13a17.46,17.46,0,0,1,6.23-.41c2.42.28,6.53-.56,7.66-.42s-.28.7,6.64.28,5.66-1.41,11.18-1.41,20.23-3.82,21.22-4.24,7.79-3.54,8.77-4.39,7.36-5.53,8.35-7.08,1.7-1.27,2.55,0-8.78,11.6-19.39,14.44-21.5,5.09-26,5a63.38,63.38,0,0,0-11.75,1c-2.68.42-11.74-.14-14.57,0s-8.35-.57-12.3-.57-5.81-.7-8.07-.42-12.17-1.13-14-.85-23.21-2.12-24.2-1.84-7.64.29-7.14,1.09a23,23,0,0,1,1.52,2.75h0c.27,0,5-.4,6.6,0s11.75,1,13.44,1.39,7.78.28,11.6,1,13.33,1,15.86,1.13,18.92.42,22,1,18.84.85,21.52,0a79.19,79.19,0,0,1,9.76-2.08c2.27-.33,11-2.59,14.23-3.44s4.23-3,7.17-1.7a16.47,16.47,0,0,0,2.91.93c2.24.47,4.46.47,5.54-.22,1.56-1,11.18-10.89,12.74-11s2-4.61,2.69-6.13-.28-6.46,1.63-6.46S235.37,107.56,233.81,104.88Zm-1.08,7c.05,2.32-2,3.81-2.92,6.09s-3.71,4.52-5.72,6.32-4.35,3.29-5.31,4a10.39,10.39,0,0,1-4.67,2c-1.8.22-1.16-1,.65-2.12s3-2.65,5-3.92a26.51,26.51,0,0,0,5.52-4.89c2.54-2.65,1.91-2.75,2.53-4.77a10.34,10.34,0,0,0,.22-6.15c-.63-2,.22-4.78.46-5.63s2.57-1.68,2.57-1.68,1.8,2.26,1.69,3.69S232.68,109.5,232.73,111.85Z" style="fill:#0070bc"/><path d="M232.73,111.85c.05,2.32-2,3.81-2.92,6.09s-3.71,4.52-5.72,6.32-4.35,3.29-5.31,4a10.39,10.39,0,0,1-4.67,2c-1.8.22-1.16-1,.65-2.12s3-2.65,5-3.92a26.51,26.51,0,0,0,5.52-4.89c2.54-2.65,1.91-2.75,2.53-4.77a10.34,10.34,0,0,0,.22-6.15c-.63-2,.22-4.78.46-5.63s2.57-1.68,2.57-1.68,1.8,2.26,1.69,3.69S232.68,109.5,232.73,111.85Z" style="fill:#f0c90c"/><path d="M220.27,140.21c.53.6,2.18.81,4.06.6a7.53,7.53,0,0,0,4.21-1.17c2.55-1.28,3.61-.53,4.19-2a31,31,0,0,1,2.58-5.51c.87-1.17,1.35-3.4,2-3.4s.66,2.55-.4,4.14-.06,2.34-1.62,4.77-.82,1.7-2.57,3.71-.8,2.55-2.18,3.51-1.48,1.81-2.22,1,1.16-1.92.31-2.66,1.59-1.91-1.7-1.06.11,1.49-3.28.85-4.25-2.12-5.63-1.7-3,.53-5.83,1.06-4.47-.53-7.33.22-5.2.44-6.79,1.18c-1.3.6-.82-.08-3.2.3a6.34,6.34,0,0,1,1.51-1.81c.95-.63,2.54.43,2.86,0s2.66-1,3-1h0c1.65-.21,3.07-.42,3.68-.42,1.3,0,5.75-.35,8.09-.5a16.25,16.25,0,0,0,6.26-2c.95-.64.53-.1,1.9-1.8s6.06-6.11,7.86-6.14,1.48-1,3.29-2.25,2.52-1.69,2.8-3.29a22,22,0,0,1,1.21-4.56c.45-1,1.46-2.12,1.22,0s-.14,4.14-.94,5.41-.63,2.12-2.3,3.08-1.88,2.12-5.07,4.14a51.71,51.71,0,0,0-5.3,3.82C222.82,138.26,219.74,139.62,220.27,140.21Z" style="fill:#65c3e8"/><path d="M202.21,141.14c-.29.07-2.65.64-3,1s-1.91-.63-2.86,0a6.34,6.34,0,0,0-1.51,1.81c-.51.09-1.17.22-2,.42-4.67,1.17-3.82.43-5.2,1.28s-.1,1-3.18,1.48-6.47.43-8.6,1.28-5,.74-6.25.85a29,29,0,0,1-6.2,0c-1.87-.43-9.29-.16-11.42.18s-7-1-7-1-7.1-.53-7.85-1.17-7.85-.74-9.66-.43-6.26-1.16-10.08-1.16-.84-1.7-5.94-1-6.15.11-9.65,0-11.07-1.8-11.07-1.8a18.83,18.83,0,0,1-1-2.2s4-1,5-.52,7.64,1,8.49,1.23,5.63.85,6.16.85a5.79,5.79,0,0,1,2.33,0c1,.32,4.24-.74,5.51,0s4.15,1.09,5.32,1.4,7.42,1.36,8.38,1.36,4.13-.75,5.72-.52,3.93.42,5,.52,3.49.64,6.46,1.17,4.46.43,7.32.74a59.85,59.85,0,0,0,6.31,0,16.23,16.23,0,0,0,4.41.12c2.34-.23,3-.54,4.67-.54h3.93a97.13,97.13,0,0,0,12.41-2.24c1.8-.62,6.58-2.86,9.55-2.75A34.77,34.77,0,0,0,202.21,141.14Z" style="fill:#65c3e8"/><path d="M221.07,147.43c-1.32.15-7.7.8-11.59.17a23.87,23.87,0,0,0-8.73.74s-12.31,2.55-13.58,2.55-5.74.74-7.33,1-5.94,1.38-7.21,1.38-5.52-.32-7.22-.32-5.94,0-7.3-.21-3.2.1-6.07.53-2.33,0-4.14.85a2.52,2.52,0,0,1-3.5-1.48c-.42-1.07,3.61.31,6.9-.85s14.75-.64,16.55-.85a115.1,115.1,0,0,0,17.09-2.55c7.75-1.91,8.06-.32,11.24-1s3.4-1.07,7.54-1.81,3.82-.32,7.53.22,5.41-.11,9.82-1.07,3.34.11,3.87,1.17S222.39,147.28,221.07,147.43Z" style="fill:#65c3e8"/><path d="M221.55,154.35c-1.6.17-3.51-.39-3.93,0a20.79,20.79,0,0,1-5.41,3.22,14.61,14.61,0,0,1-4.57.43c-1.27,0-2.22,1.8-3.29,2.23a78.3,78.3,0,0,1-11.7,2.22,41.79,41.79,0,0,1-6.23,0,44.24,44.24,0,0,1-7.21-1.27,19.71,19.71,0,0,0-4.46-.54,16.41,16.41,0,0,0-4.88,0c-1.8.37,0-1.32.75-2.06s5,1.05,7.42,1.48,8.17,1.07,11.45,0,5.95-.85,9.56-1.92,2.86-.73,5.62-1.58,4.57-.85,6.89-1.48,1.28-2.24-.42-2.55a26.13,26.13,0,0,0-6.47-.21c-1.59.21-5.52,2.76-6.79,3.07a22.72,22.72,0,0,1-5.23.32c-2.48,0-4.32-.1-6-.21a35.66,35.66,0,0,0-5.94.21,20.64,20.64,0,0,1-3.61,0h-6.26c-1.7,0-3.28.75-5.3,1.91s-1.91,0-3.07,0-1.17-.42.53-1.27,8.06-1.38,11.77-2,5.2-.39,9.94-.6,4.6-.53,9.05-1,5.63-1.47,8-2.66,7.43-.09,10.61-.59,6.15.28,8.76,0,2.6,1.35,2.6,1.35C223.83,151.44,223.13,154.18,221.55,154.35Z" style="fill:#65c3e8"/><path d="M124.6,179.43c-4.67-3.68-28-7.5-34.8-9.48s-28.45-26.24-29.13-27c.83.35,1.69.69,2.58,1h0c.58.64,19.27,21.16,26.54,22.73,6.93,1.49,27.4,7.49,32.21,9.55a.11.11,0,0,1,.06,0l.69.33C128.85,179.43,129.27,183.1,124.6,179.43Z" style="fill:#65c3e8"/><path d="M122,176.25c-4.81-2.06-25.28-8.06-32.21-9.55-7.27-1.57-26-22.09-26.54-22.73,1.25.46,2.54.89,3.88,1.29,0,0,20.09,17.72,25.86,19.31s11.51,4.35,14,5.1,1.28-1.49-1.07-2.23-14-3-16.08-5.49-13.33-9.73-15-12.41,4,1.45,11.56,7,12.21,5.94,15.82,7.54c2.44,1.08,4.74,2.15,7.26,3.33a1.69,1.69,0,0,0,.69.45c1.24.42,2.16,2.41,4.42,3.39S116.68,173.63,122,176.25Z" style="fill:#f0c90c"/><path d="M107,169.67c-2.44-.75-8.17-3.5-14-5.1s-25.86-19.31-25.86-19.31a125.59,125.59,0,0,0,20.27,4.1c3,1.54,6.39,2.38,8,2.16s6.16,1.49,6.16,1.49a1.38,1.38,0,0,0,.28.53c.57.57-.56,1.55,1.14,1.84,1.39.23.59,2.07.65,3.35A38.64,38.64,0,0,1,95.49,156c-2.86-1.61-4.77-1.69-5.69-2.34s-8.31-4.34-9.91-4.28,2.23,2.06,4.67,3.23,4.77,3,8.44,4.95c2.79,1.51,8.64,2.83,11.25,3.38a2.16,2.16,0,0,0,1.53,1.65c2,.83.85,2.43,2.12,3,1,.41,1,1.24,1.54,1.81-2.52-1.18-4.82-2.25-7.26-3.33-3.61-1.6-8.28-2-15.82-7.54s-13.23-9.65-11.56-7,12.94,9.94,15,12.41,13.76,4.75,16.08,5.49S109.39,170.41,107,169.67Z" style="fill:#65c3e8"/><path d="M101.54,153s-4.57-1.69-6.16-1.49-4.92-.62-8-2.16c4.2.53,8.36.9,12.29,1.15.06.07.74.75,1.13.38S101.24,152.1,101.54,153Z" style="fill:#f0c90c"/><path d="M104.25,160.92c-2.61-.55-8.46-1.87-11.25-3.38-3.67-2-6-3.79-8.44-4.95s-6.26-3.18-4.67-3.23,9,3.65,9.91,4.28,2.83.73,5.69,2.34a38.64,38.64,0,0,0,8.12,2.75,1.46,1.46,0,0,0,.19.75A4.35,4.35,0,0,1,104.25,160.92Z" style="fill:#f0c90c"/><circle cx="36.05" cy="64.55" r="2.19" style="fill:#e6dfd9"/><path d="M97.15,119c-1.69,0-2.54,3.38-4.51,3.81s-4.4,3.39-6.85,3-4.55,3.39-6.27,3.23a33.29,33.29,0,0,1-9.13-3.68,17.48,17.48,0,0,1-5.81-4.86c-3.29-4.88-5.62-15.7-5.84-19.36s5.84-5.86,5.84-5.86c8.38-5.5,25.11,8.25,33.57,11.16a6,6,0,0,1,3.07,2.09h0C104.05,112.46,98.55,119,97.15,119Z" style="fill:#65c3e8"/><path d="M97.15,119c-1.69,0-2.54,3.38-4.51,3.81s-4.4,3.39-6.85,3-4.55,3.39-6.27,3.23a33.29,33.29,0,0,1-9.13-3.68c-7.8-7.54-9.45-20.24-7.12-15,2.39,5.44,10,15.06,13.87,15.63s-.15-1.42-7.93-11.19S61.57,98,65.39,106.42s16.13,19.18,17,18.36-5.83-7.67-8.52-11.21-6.79-8.35-3.84-6.22,14,16.4,15.72,14.71-4.1-5.23-7.31-9.48-10.51-9.62-7.82-8.73,17.54,17.22,19.17,15.8-3.75-4.52-12.53-11.45-4.66-5.67-2.4-4.35S94,117.25,93.4,115,69.07,99.43,71.62,98.39s18,11.08,22.85,12.54.77-2.31-9.68-7.08-14.16-8.39-10.34-6.51,26.77,11.19,26.77,11.19h0C104.05,112.46,98.55,119,97.15,119Z" style="fill:#48b1d2"/></g></g></svg>