<svg xmlns="http://www.w3.org/2000/svg" viewBox="0 0 269.18 166.83"><title>fan-tail-guppy</title><g id="Layer_2" data-name="Layer 2"><g id="Ñëîé_2" data-name="Ñëîé 2"><path d="M160.11,67a26,26,0,0,1-.23,3.41c0,.3-.1.59-.16.87s-.06.29-.1.43a9,9,0,0,1-.56,1.58c-.05.12-.11.24-.17.37a1.74,1.74,0,0,0-.1.19l-.11.19-.22.38a5.39,5.39,0,0,1-.33.5l0,.07h0l-.37.48c-.16.19-.32.39-.49.57l-.37.39c-.18.18-.36.36-.55.52l-.11.1-.09.07c-.15.14-.32.27-.49.4a16.21,16.21,0,0,1-1.51,1l-.6.34c-.2.12-.4.22-.6.33l-.63.31a28.65,28.65,0,0,1-5.42,1.89l-.35.08-.35.08-.17.05a.85.85,0,0,0-.22,0l-.5.1-.23,0-.66.12-.86.15c-.13,0-.26,0-.39.06l-.67.09-.49.06-.47.05-.85.09h-.08l-.49,0-.47,0-.31,0h-.54s-1.22-.12-3.45-.3c-.2-.21-4.46-4.81-14.07-8-2.69-3.7-11.69-8.56-22-10.15C86.75,62.24,87.55,54,93.29,52.45A20,20,0,0,1,97.76,52h0c9.3-.16,27.38,1.94,32.93,2.74,6.72,1,8.83-1.34,9.79-3.07h0a61.08,61.08,0,0,1,8.49,2c.71.23,1.39.47,2,.73l.63.25c.41.18.8.36,1.19.56l.56.29a5.54,5.54,0,0,1,.53.3l.51.3.51.33.46.33.34.27.17.14.36.3.36.33.42.42a0,0,0,0,1,0,0h0l.09.1.32.37c.17.21.34.42.49.64s.24.34.35.53l.08.12.06.11c.09.14.17.29.25.44l.3.63,0,.1.23.59c0,.1.07.2.1.3l.09.3c.09.27.16.56.23.84,0,0,0,0,0,.06.06.26.1.53.15.81s.09.59.12.9a1,1,0,0,1,0,.24.49.49,0,0,0,0,.12c0,.18,0,.37,0,.56V66c0,.15,0,.31,0,.47Z" style="fill:#51738c"/><path d="M97.77,52a0,0,0,0,1,0,0,19.86,19.86,0,0,0-4.46.43,40.24,40.24,0,0,0-18.06,3.07l-1.36.54c-2.57,1-4.16,1.64-5.39,2.16.2-.21,3.66-3.91,2.91-5.87s-7.29,1.06-11.13.87a10.27,10.27,0,0,1-5.45-2.08C60.88,49.42,66.47,48,71,47.07a73.05,73.05,0,0,1,12.14-1.23c2.51-.08,5.12-.07,7.8,0,.23,2.35,3.6,1.87,6.8,3.54S98,51.93,97.77,52Z" style="fill:#fed94e"/><path d="M68.49,58.22h0c-2.78,1.19-3.67,1.94-9.75,6.12-4.91,3.37-7.53,5.32-9.45,6.05-1.7.63-2.86.3-4.56-.87-3.65-2.5-3.27-4.61-8.64-5.18-4-.43-4.94-2.38-3.91-6.1,7.49-2.58,15.38-5.06,22.63-7.11h0a10.27,10.27,0,0,0,5.45,2.08c3.84.19,10.37-2.88,11.13-.87S68.69,58,68.49,58.22Z" style="fill:#ef6522"/><path d="M99.23,64.16C86.76,62.24,87.56,54,93.3,52.45a40.24,40.24,0,0,0-18.06,3.07l-1.36.54c9.78-.41,8.65,2.15,3.28,5.47S66.41,73,63.92,79.7s-7.1,12.09-12.86,11.52-8.64-4.61-6.91-9.55A96,96,0,0,1,49.29,70.4c-1.7.63-2.86.3-4.56-.87-3.65-2.5-3.27-4.61-8.64-5.18-4-.43-4.94-2.38-3.91-6.1C14.76,64.25-.42,70.76,0,73.56c.77,5,16.89,13.82,23.41,15.35,0,0,7.3-3.45,7.1-13.24s8.6-1.45,5.94,15.59c.6.3,1.3.62,2.08.95,5.17,1.55,11.21.32,16.31-.93a20.88,20.88,0,0,0,7.91-3.8c2.55-2,4.83-4.32,7.32-6.38,7.65-6.3,16.84-9.08,26.66-9.61a66.58,66.58,0,0,1,24.5,2.82C118.55,70.61,109.55,65.74,99.23,64.16ZM14.3,79.51a5.18,5.18,0,1,1,5.19-5.18A5.18,5.18,0,0,1,14.3,79.51Z" style="fill:#fed022"/><path d="M36.46,91.26c-.43-.21-.81-.43-1.14-.62-5.18-3.07-5.37-.19-11.9-1.73,0,0,7.3-3.45,7.1-13.24S39.12,74.22,36.46,91.26Z" style="fill:#ef6522"/><path d="M77.16,61.53C71.79,64.85,66.41,73,63.92,79.7s-7.1,12.09-12.86,11.52-8.64-4.61-6.91-9.55A96,96,0,0,1,49.29,70.4c1.92-.73,4.54-2.68,9.45-6.05,6.08-4.18,7-4.93,9.75-6.12h0c1.23-.52,2.82-1.13,5.39-2.16C83.66,55.65,82.53,58.21,77.16,61.53Z" style="fill:#51738c"/><path d="M124.2,81.67c-3.75-.14-8.09-.24-12.88-.24-14.74,0-18.82,3.61-32.08,9.39-1.41.63-2.93,1.26-4.57,1.93A43.28,43.28,0,0,1,67.2,95a50.58,50.58,0,0,1-28.66-2.8c5.17,1.55,11.21.32,16.31-.93a20.88,20.88,0,0,0,7.91-3.8c2.55-2,4.83-4.32,7.32-6.38,7.65-6.3,16.84-9.08,26.66-9.61a66.58,66.58,0,0,1,24.5,2.82,3.44,3.44,0,0,1,.83,2.13A6,6,0,0,0,124.2,81.67Z" style="fill:#efbc1d"/><path d="M135.31,82.28c-2.52-.18-6.33-.43-11.11-.61a6,6,0,0,1-2.13-5.23,3.44,3.44,0,0,0-.83-2.13C130.85,77.47,135.11,82.07,135.31,82.28Z" style="fill:#46667a"/><path d="M263.51,64.35c-10-1.34-8.25-1.34-7.67,2.69s4.41,4.79-3.46,3.83c-3.67-.44-5.25-.1-5,1a44.66,44.66,0,0,0-8-4.77c-5.23-2.46-7.3-4.71-4-5S242.1,60.89,248,59.6s2.05-2.55-2-9.19h0c-4.09-6.63-3.82-5.38,7.69-7.32s2.55-2.67-1.8-4.2-6.39-3.84-2.56-6.35a22.92,22.92,0,0,1,5.14-2.33c-.61.16-2.1.54-4.88,1.18-9.72,2.22-13.31-3-2.84-6.83s6.42-3.33,0-2.05-5.86-3.84-1.51-5.62-1.53-2.31-7.17-2.57-7.67-.77-7.16-3.32c.32-1.61-4.21-5.55-7.62-8.24,2.83-3.52,2.72-3.74,5.55-.2,3.08,3.84,3.08,6.53,11.52,2.3S251-.71,252.38,5.43s1.92,6.52,4,7.29-2.11,4-5.18,5.57-.38.77,4.61-.19,7.67-1.73,6.52,3.45-3.07,7.29,1.15,11.71,8.06,4.8,3.84,8.25S262,45,263.13,48.61s-.58,2.69-9.41,2.88-2.49,2.88,5,3.65,4.42.19,5.38,4.22S273.49,65.69,263.51,64.35Z" style="fill:#dbd3ce"/><path d="M253.62,43.08c-11.51,1.94-11.78.69-7.69,7.32a56,56,0,0,1-4.73-4.61c-1.34-1.68,2.31-3.9,6.34-4.48s2.11-.57,0-1.13-3.84-1.36-4.42-4.4-2.49-3.87-6.52-3.25-2.5-2.93.19-4.9.77-3.21,1.34-5.13-2.49-3.07-5-2.19-5.95.08-2.49-1.91S227,15.79,227,13s-4.8.12-4.17-1.22-4.27,0-4.27-1.16a18.08,18.08,0,0,0-.71-3.19,15.41,15.41,0,0,0,4.59-3.71c.29-.34.54-.66.78-1,3.41,2.69,7.94,6.63,7.62,8.24-.51,2.55,1.54,3.07,7.16,3.32s11.52.77,7.17,2.57-4.92,6.9,1.51,5.62,10.46-1.79,0,2.05-6.88,9.05,2.84,6.83c2.78-.64,4.27-1,4.88-1.18a22.92,22.92,0,0,0-5.14,2.33c-3.83,2.51-1.78,4.81,2.56,6.35S265.13,41.14,253.62,43.08Z" style="fill:#2e3d44"/><path d="M255.07,87.57c-7.1-1-10.56-.44-3.46,1.61s-1.92,1.85-3.07,8.18,2.11,7.87-1.15,7.29-12.09-3-5.18.12,3.84,3.72,2.11,8.13-3.26,4-1.53,6.72,3.83,3.07-5.95,0-1.54,1.92,4,4-4.42.39-3.84,4,1.92,6.91-5,5c-6.48-1.79-8.91-3.43-9.18-3.62.53.51,8.4,7.79,13.59,11.68,5.38,4,4.8,6,.58,5.18s-2.88,2.88.77,5.57.95,3.84-3.65,6.14-6.14,1.54-5,4.61,1,2.88-7.68-1.73-2.68,1.05,2.88,3.79-3.84,4-10.36,0a85.16,85.16,0,0,0-7.48-4.3c2.3-.63,5.37.52,6.92,1.21,2.3,1,.76-3.84-1.28-5.64s3.84-2.8,10.67,0,1.1,0,5.19,1,3.07-2.3,1.28-4.6-5.12-8.19-2.05-7.94c1.74.15.62-2.33-1.34-5.42-1.5-2.39-3.49-5.14-5-7.37-3.58-5.12,6.91-3.33-.77-6.66s.52-7.42,6.14-5.88,3.84-.51,3.33-4.86,1.79.51,5.89,0-.26-6.91,2.05-7.93-13.82-5.12-17.92-9.51,3.84-1.24,7.42-3.48-.51-6.21,7.16-8.64.26-4.47,11.52-6c4.1-.55,5.08-1.86,4.41-3.42,1.32,1.08,3.12,2.37,5.36,3.86,9.21,6.14,4.22,5.76,6.34,8.83S262.17,88.53,255.07,87.57Z" style="fill:#2e3d44"/><path d="M235.45,62.17c3.32-.26,6.65-1.28,12.53-2.56s2.05-2.56-2-9.2h0a54.38,54.38,0,0,1-4.73-4.61c-1.34-1.67,2.31-3.9,6.34-4.48s2.11-.57,0-1.12-3.84-1.37-4.42-4.41-2.49-3.87-6.52-3.25-2.5-2.92.19-4.9.77-3.2,1.34-5.12-2.49-3.07-5-2.2-5.95.09-2.49-1.9S227,15.79,227,13s-4.8.12-4.17-1.22-4.27,0-4.27-1.15a18.14,18.14,0,0,0-.71-3.2c-2.56,1.45-6.22,3-12.15,5.8.19,1.43.49,2.56,2.36,2.56,4.13,0,4.61-.9,6.41,1.58s-1,1.23.72,4.17,4.27.64,5.16,2.81,1.41,1.42,2.47,4.61-1.32,4.87-3.63,7-1.59,5-4,7.13-1.49,3,0,4.28,2.22,2.57,1.06,4.92c-.59,1.19-.11,1.79.5,2.09a1.69,1.69,0,0,1,1.27.29h0s2.06,1.52,1.77,3.47-3,4,.77,6.25,5.82,4.76,9.15,7.52,5.53,2.75,2.75,4.38-.39,4.65-7,4.53-8.67-1.64-8,1.43,1.32,7.28-2.31,8.15-7.29,1-7.57,3.46.87,6.14,2.88,6.52.84-.29,1.48,2.69-.72,5.2.69,7,2.45,4.75-.69,4.75-4.17,1.92-7.88-1.67-6.91-9.21-9.21-7.16-.9,4,1.79,5.76,7.53,6.82,8.3,6.39,1,.09,1.34-.62,1.83-1.64,4.13-1.35,6.28,1.11,5.42,5.33,1.14,10.84-2.55,10.84-3.78-1.06-7.52-2-3.66-.77,0,2,4.7,4.61,2.69,8.16-2.31,8-6.63,5.18-2.4-2.4-6.72-2.59-10.47-1.63-14.35-2.3-11.77-.86-11-5.57.95-6.72-2.59-8.83a24.86,24.86,0,0,0-11.81-2.81,169.27,169.27,0,0,0,14.26,17.56,77.08,77.08,0,0,0,8.91,8.11,11.28,11.28,0,0,1,6.21,1.86c5,3.07,3.65,3.27,8.42,3.07s1.18-.76.2-2.88,1.55-2.3,8.65,0,6.34,1.54,5.95-1.91,3.07-.39,9,.76.4-2.88,2.51-4.6-1-4.42,0-6.9,6.39,0,6.39,0c-1.5-2.38-3.49-5.14-5-7.37-3.58-5.12,6.91-3.33-.77-6.65s.52-7.43,6.14-5.89,3.84-.51,3.33-4.86,1.79.51,5.89,0-.26-6.91,2.05-7.93-13.82-5.12-17.92-9.5,3.84-1.25,7.42-3.49-.51-6.2,7.16-8.64.26-4.47,11.52-6c4.1-.55,5.08-1.86,4.41-3.41a8.7,8.7,0,0,0-2.68-3h0a44.66,44.66,0,0,0-8-4.77C234.19,64.67,232.12,62.43,235.45,62.17Zm-14.4,47.28c4.8-3.46,0,0,1.77-4s5.49-.77,5.49-.77c4,2.11,2.91,3.07,1.41,3.84s-4.45.38-4.22,3.83-.61,2.31-2.68,3.27-5.61.77-7.14-1.15S216.25,112.9,221.05,109.45Zm12.41-51.22c-.07,1.36-3.39,2.66-5.15,3.22s-5.34-1.14-5.48-3.62,1.1-1,6.89-.39S233.46,58.23,233.46,58.23ZM229.72,52c-3.05.51-4.45-.14-4.48-2.63s.23-3.08-5.53-3.59-1.15-8.51,3.15-10.23,5.87-.58,3.57,1.4-1,4.35,3.29,6.13,3.74,5.53,3.74,5.53C235.12,51.13,232.76,51.49,229.72,52Z" style="fill:#ef6522"/><path d="M229.72,71.9c-3.33-2.76-5.41-5.31-9.15-7.52s-1-4.31-.77-6.25S218,54.66,218,54.66h0a1.52,1.52,0,0,1,.35,1.36c-.58,5.25-3.46,7.37,1.72,11.11s15,7.87,5.95,9.64-12.09,3.22-14.2,0-3.26-5.8-6.72-3.45-5,2.54-6.91,2.16-4.79-2.22-3.64,3.2,3.84,6.39,10.74,9.08-2.49-.19-2.49,5.18-.19,5.18,2.88,6.72,3.26.38,3.07,5.37,5,7.1,1.34,7.1-1.72-.38-7.29-4.41-7.1-8.71-10-4.55S187.47,110,195,113.28s10.94,8.45,11.52,6.53,2.11-5.37,5.56-1.54,2.3,2.88,1.73,7.3-1.34,5.57-5.57,3.46-10.36-.58-5.95,3.45,7.1,4.6,4.8,8.63-3.64,3.46-5.76,1.73-3.26-4.41-2.11-6.33,1.15-2.69-.57-5.57-1-3.65.77-6,2.49-3.26-3.65-6.52-6.33-4-8.83-2.88-6.33,1.72,0,5,8.83,3.64,7.29,5.56-3.26,3.46-7.87-.57-6.52-8.83-10.36-7.1,1.34,8.44,6,11.7,7.29,2.11,9.6,5.76,7.48,6.14,1,5.57-10.56-2.31-14.59-3.07-6.14-1-6.14-5.76-2.37-6.72-6.27-10.17-6.19-1.35-8.79-4.8-4.9-4.42-3.94-8.25,2.23-2.69-3.78-8.26c-3.61-3.34-6.1-3.7-8-4.64,3,9,8.53,18.59,14.49,27a24.86,24.86,0,0,1,11.81,2.81c3.54,2.11,3.37,4.13,2.59,8.83s7.11,4.89,11,5.57,10,2.11,14.35,2.3,2.4-.19,6.72,2.59,4.61-1.63,6.63-5.18.95-5.38-2.69-8.16-3.75-3,0-2,3.84,2,7.52,2,1.69-6.61,2.55-10.84-3.12-5-5.42-5.33-3.75.63-4.13,1.35-.58.19-1.34.62-5.61-4.61-8.3-6.39-4.09-3.72-1.79-5.76,5.5,3.58,9.21,7.16,4.73,1.67,7.88,1.67,2.1-3,.69-4.75-.06-4-.69-7,.53-2.3-1.48-2.69-3.17-4-2.88-6.52,3.94-2.6,7.57-3.46,3-5.09,2.31-8.15,1.44-1.54,8-1.43,4.19-2.9,7-4.53S233.05,74.65,229.72,71.9Zm-18.2,11.77c-2.18.9-.39,1.66-1.15,2.58s-2.69-.92-7.8-4-1.92-3.49,1.38-4,4.76-.65,8,1.53S211.52,83.67,211.52,83.67Z" style="fill:#dbd3ce"/><path d="M211.52,83.67c-2.18.9-.39,1.66-1.15,2.58s-2.69-.92-7.8-4-1.92-3.49,1.38-4,4.76-.65,8,1.53S211.52,83.67,211.52,83.67Z" style="fill:#2e3d44"/><path d="M220.09,67.13c-5.18-3.74-2.3-5.86-1.72-11.11a1.52,1.52,0,0,0-.35-1.36,1.69,1.69,0,0,0-1.27-.29c-3.44.21-11.57,5-17.19,3.86-7.49-1.52,1.72-3.29,5.95-3.67s6,.57,7.87-2.55,1.34-4.36-4.14-1.6-5.08.5-9.87-1.79.38-2.7,9.21-4.62,3.45-1.34,9.59-9.59,0-3.84,1-6.78-1.92-4-4.6-4-3.65-2.31-2.5-4.55,0-2.75-4-.7-4.6-.89-4.05-2.62a1.51,1.51,0,0,0-.48-1.53h0c-1.9.9-4,1.92-6.37,3.09a23.2,23.2,0,0,1,1.51,3c.19.85.57.66,2.88,2.2s4,1,2.47,3.64-1.71,3.27,1.75,2.69,8.06-5.74,5.56.2,2.12,5.37-5.37,8.63-10,.78-8.64-2.11-1.53-5.68-5.56-4.18-1.51-1.5-8.05,0c-3.67.84-6.38.45-7.77-.57-1.86,1.41-3.69,2.84-5.48,4.26-.79.63-1.57,1.26-2.34,1.9.18.2,3.07,3.42,6.77,3.22s5.54,1.22,5.16,2.9.15,4.77,3.1,5.44a4.68,4.68,0,0,0,.56.09c3.44.37,7.47-.59,6.51,3.73s1.54,7.55-2.11,9.1-6.33,3.8-5.18,6.89,3.84,11.17,2.49,11.74.77,1.15-.57,4.22-3.62,4.32-1.14,7,4.21,3.12,1.91,4.71-3.84,4.19-5.38,7.2-1,5.51-3.64,3.21-8.62-4.61-6.14-6.72.57-6.72,2.87-6.72,6.34,1.44,4.61-1.68-3.6-6.56-3.05-8.68,1-3.17,0-5.81-2.85-3.14,0-6a8.74,8.74,0,0,0,2.86-7.33c0-2.31,1.34-1.47,2.88-2.46s3.64-.19,1.15-2.7-3.92-2.43-2.53-4.59c.58-.91.57-1.52.21-2a6.64,6.64,0,0,0-2.86-1.28c-2.11-.65-.58-3.53-4-2.95s-6.21-1.73-7-1.54-3.39-2.62-6.81-1c-4.88,4.26-8.37,7.52-9.37,8.47l-.12.12-.17.15c.71.23,1.39.47,2,.73l.63.26c.41.17.8.36,1.19.55l.56.29a5.54,5.54,0,0,1,.53.3c.18.1.35.2.51.31s.35.22.51.33a4.84,4.84,0,0,1,.46.33,4,4,0,0,1,.34.27l.17.13.36.3.36.33.42.43c0-.05-.06-.13-.1-.25a2,2,0,0,1-.07-.19,4,4,0,0,1-.18-.77,2.16,2.16,0,0,1,.06-1.07.53.53,0,0,1,.06-.14,1.28,1.28,0,0,1,.27-.4c.45-.46,1.36-.7,3-.4,5.09.92,11.81-2.1,12.58,1s2.3,3.14,1.15,6-1.13,2.7-3.45,5.09-6.53.86-7.68-1.25a5.29,5.29,0,0,0-3-2.59.42.42,0,0,0,0,.06c.06.27.1.53.15.81s.09.59.12.91a.85.85,0,0,1,0,.23.49.49,0,0,0,0,.12c0,.18,0,.38,0,.57V66c0,.15,0,.31,0,.47V67a26,26,0,0,1-.23,3.41c0,.3-.1.59-.16.88,0,.14-.06.28-.1.42a9,9,0,0,1-.56,1.58c-.05.13-.11.25-.17.37a8.89,8.89,0,0,1,6.57,3.11c3.07,3.32,4.5,1.86,4.93,5.53s3.89,6.75,1.34,7.39-3.93,3.58-4.52,5.12-5,2-4.82-1.86.32-6.76-2.28-8.14-6.08-3.78-6-6.23c-.2.12-.39.24-.6.35s-.4.23-.6.33-.42.21-.63.3a28,28,0,0,1-5.42,1.89,2.25,2.25,0,0,0-.35.09l-.35.07-.17.05-.22,0-.5.1-.23,0-.66.12-.86.15-.39.06-.67.09a4.1,4.1,0,0,1-.49.06l-.47.06c-.3,0-.59.07-.85.08h-.08l-.49,0c-.17,0-.33,0-.47,0h-.85a37.1,37.1,0,0,0,2.15,14c1.94.94,4.43,1.3,8,4.64,6,5.57,4.74,4.42,3.78,8.26s1.34,4.79,3.94,8.25,4.89,1.34,8.79,4.8,6.27,5.37,6.27,10.17,2.11,5,6.14,5.76,8.06,2.49,14.59,3.07,1.34-1.92-1-5.57-5-2.49-9.6-5.76-9.79-10-6-11.7,5.76,3.07,10.36,7.1,6.34,2.49,7.87.57-1-2.3-7.29-5.56-2.49-3.84,0-5,2.69-.39,8.83,2.88,5.37,4.22,3.65,6.52-2.5,3.07-.77,6,1.72,3.65.57,5.57,0,4.6,2.11,6.33,3.46,2.3,5.76-1.73-.38-4.6-4.8-8.63,1.73-5.57,5.95-3.45,5,.95,5.57-3.46,1.73-3.46-1.73-7.3-5-.38-5.56,1.54-4-3.26-11.52-6.53-5-6-2.11-10.11,4.41.52,10,4.55,3.65,4.41,7.29,4.41-1.53-2.11-1.34-7.1,0-3.84-3.07-5.37-2.88-1.35-2.88-6.72,9.4-2.49,2.49-5.18-9.59-3.65-10.74-9.08,1.72-3.59,3.64-3.2,3.46.19,6.91-2.16,4.61.24,6.72,3.45,5.18,1.78,14.2,0S225.27,70.87,220.09,67.13ZM153.3,94.54c-2.05,2.82-2.17-.89-4.5-3.2a5.48,5.48,0,0,1-1.64-5c.9-2.18,2.44-2.18,3.39-2.94s1.86,0,3.56,1.39,2.27,2.06,3.29,4.88S155.35,91.73,153.3,94.54Zm12.8,22.39c-2,.77-4.48-2.17-7.45-5s-3.94-6.78-2.41-8.54,7,3.87,7,3.87C167.44,110.7,168.14,116.16,166.1,116.93Zm9,13.69c.39-2.81,3.07.38,3.46.64a11.84,11.84,0,0,0,3.84,1.92c2.68.89,4.86,1.79,4.1,4.35s-2-.39-6.41-1.79S174.67,133.44,175.05,130.62Z" style="fill:#2e3d44"/><path d="M170.39,82.29c-.43-3.68-1.86-2.21-4.93-5.54a8.86,8.86,0,0,0-6.57-3.1,1.74,1.74,0,0,0-.1.19l-.11.19-.22.38a5.39,5.39,0,0,1-.33.5l0,.07h0l-.37.48c-.16.19-.32.39-.49.57l-.37.39c-.18.18-.36.36-.55.52l-.11.1-.09.07c-.15.14-.32.27-.49.4a16.21,16.21,0,0,1-1.51,1c-.08,2.45,3.42,4.83,6,6.22s2.41,4.25,2.28,8.15,4.22,3.39,4.82,1.86,2-4.49,4.52-5.13S170.83,86,170.39,82.29Zm-4,9.56C164.18,94,164.44,91,165,88.52s-1.34-4.47-3.65-7.28,2-2.44,5.25-1,2.54,4.1,2.69,4.58C170.38,88.29,168.53,89.67,166.35,91.85Z" style="fill:#dbd3ce"/><path d="M172.69,56c-.77-3.14-7.49-.12-12.58-1-1.65-.3-2.56-.07-3,.39a1.57,1.57,0,0,0-.27.4.58.58,0,0,0-.06.15,2.16,2.16,0,0,0-.06,1.07,3.69,3.69,0,0,0,.18.76c0,.07.05.14.07.2a2.55,2.55,0,0,0,.1.24,0,0,0,0,1,0,0h0l.09.1.32.37c.17.21.34.42.49.64s.24.34.35.53l.08.12.06.11c.09.14.17.29.25.44l.3.63,0,.1.23.59c0,.1.07.2.1.3l.09.3c.09.27.16.56.23.84a5.29,5.29,0,0,1,3,2.59c1.15,2.11,5.37,3.64,7.68,1.25s2.3-2.21,3.45-5.09S173.46,59.16,172.69,56Zm-3.26,7.3c-1.54,1.15-3.71.25-4.74-1.87s3.61-3,4.22-3.23C171.61,57.38,171,62.17,169.43,63.32Z" style="fill:#dbd3ce"/><path d="M183.08,48.53s-3.47,1.19-3.69,3.15a6.53,6.53,0,0,0-2.86-1.27c-2.11-.65-.58-3.53-4-3s-6.21-1.72-7-1.53-3.39-2.62-6.81-1l1.58-1.38,1.13-1,2.78-2.37h0q1.89-1.59,3.9-3.21c.18.2,3.07,3.41,6.77,3.21s5.54,1.22,5.16,2.9S180.13,47.86,183.08,48.53Z" style="fill:#ef6522"/><path d="M183.64,48.62a4.68,4.68,0,0,1-.56-.09s-3.47,1.19-3.69,3.15c.36.44.37,1-.21,2-1.39,2.16,0,2.07,2.53,4.58s.38,1.71-1.15,2.71-2.88.15-2.88,2.45a8.73,8.73,0,0,1-2.86,7.33c-2.85,2.91-1,3.42,0,6.06s.56,3.69,0,5.8,1.32,5.57,3.05,8.69-2.3,1.68-4.61,1.68-.38,4.6-2.87,6.71,3.45,4.42,6.14,6.72,2.11-.19,3.64-3.2,3.07-5.63,5.38-7.21.57-2.06-1.91-4.7-.2-3.89,1.14-7-.77-3.65.57-4.22-1.34-8.64-2.49-11.74S184.4,63,188,61.45s1.15-4.79,2.11-9.1S187.08,49,183.64,48.62Zm-.57,32.62c.47,2.05-.59,4.21-1.84,6s1.12,5.12,1.84,7.17-2,3.58-3.68,5.76-2.16,3.32-5.14,1.79-.22-4.35,1.19-6.41,2.3.65,3.95-1,1-3.45-.62-6,1-2.94.77-5.94-3.46-3.78-2.44-7.49.9-5.12,2.29-5.24S182,72.64,182,72.64C183.9,75.29,182.61,79.18,183.07,81.24Zm2.48-24.19a3.23,3.23,0,0,1-2.47-3.41c.09-1.87,3.13-1.27,3.52-1.29C189,52.2,186.83,57.3,185.55,57.05Z" style="fill:#dbd3ce"/><path d="M211.26,29c-2.49,5.94,2.12,5.36-5.37,8.62s-10,.79-8.64-2.1-1.53-5.68-5.56-4.18-1.51-1.5-8.05,0c-3.67.83-6.38.44-7.77-.57a133.05,133.05,0,0,1,19.32-12.52l1.9-.95a23.07,23.07,0,0,1,1.51,3c.19.85.57.66,2.88,2.19s4,1,2.47,3.65-1.71,3.26,1.75,2.69S213.76,23.1,211.26,29Z" style="fill:#ef6522"/><path d="M228,156.59c-4.09-1,1.64,1.79-5.19-1s-12.72-1.78-10.67,0,3.58,6.66,1.28,5.64c-1.55-.69-4.62-1.84-6.92-1.21a11.55,11.55,0,0,0-7.11-1.22c-3.47.58-11.84-2.54-20.84-9.54a11.28,11.28,0,0,1,6.21,1.86c5,3.07,3.65,3.26,8.42,3.07s1.18-.77.2-2.88,1.55-2.3,8.65,0,6.34,1.54,5.95-1.92,3.07-.38,9,.77.4-2.88,2.51-4.61-1-4.41,0-6.89,6.39,0,6.39,0c2,3.09,3.08,5.57,1.34,5.42-3.07-.25.27,5.63,2.05,7.94S232.12,157.61,228,156.59Z" style="fill:#2e3d44"/><path d="M170.39,35.06c-.79.64-1.57,1.27-2.34,1.91q-2,1.62-3.9,3.21h0c-.58-.51-9.5-7.95-33.41-7.62a207.77,207.77,0,0,1,24-1.16l1.57,0,3.22.06.52,0,.72,0,1.14,0,.64,0,1.19.06.55,0,1,.05,1.35.08.3,0,.62,0,.34,0,.28,0C168.05,33,168,34,170.39,35.06Z" style="fill:#eae3dd"/><path d="M168.13,31.88a220.08,220.08,0,0,0-37.42.66A122.85,122.85,0,0,0,116.15,35c-9.27,2.18-17.63,5.61-22.85,10.94L91,45.84c-2.23-.06-4.43-.07-6.56,0h0c-.42,0-.83,0-1.24,0,0,0,8.72-20.64,23.81-24.23,10.19-2.42,16.76-2.62,22.87-3.21h0c2.51,1,6.94,3.11,8.86,5.65,2.19,2.91,10.44,3.73,17.78,3.57.16.24.9.46,2.43.65,8.45,1,6.4-1.28,8.45,1A3.1,3.1,0,0,1,168.13,31.88Z" style="fill:#dbd3ce"/><path d="M156.49,27.61c-7.34.17-15.6-.66-17.78-3.57-1.92-2.54-6.35-4.61-8.86-5.64a59.37,59.37,0,0,0,8.86-1.4c9.46-2.3,12.28-1.53,4.6,1.29s-1,2.05,8.45-.77,14.32-7.57,13.05-1.87.76,7,3.07,8C169.8,24.51,155.67,26.36,156.49,27.61Z" style="fill:#eae3dd"/><path d="M112.34,102.56c-4.34-2.22-8.44-1.11-20-.08C83.17,103.29,71.5,97.4,67.2,95a43.28,43.28,0,0,0,7.47-2.26c1.64-.67,3.16-1.3,4.57-1.93,4.2,3.26,15.77-1.33,19.42-1.14s3.26,1-1.54,2.12-.64,1,2.94.18,7.94,1,8.45,3.16,1.28,2.22,3.83,3.71S116.7,104.78,112.34,102.56Z" style="fill:#51738c"/><path d="M164.14,40.18l-2.78,2.37-1.13,1-1.58,1.38c-4.88,4.26-8.37,7.52-9.37,8.46l-.12.13-.17.15a61.08,61.08,0,0,0-8.49-2h0l-1-.18-.42-.09-.67-.12-.38-.07-.84-.15-.95-.17-1.05-.18h0c-.36-.07-.72-.14-1.12-.2s-.89-.14-1.36-.23l-1.28-.2c-2.32-.38-5-.8-7.9-1.22l-1.78-.25-5.67-.75-.24,0-.74-.08-1-.12-1-.12-.51-.06-.5-.05-1-.12-1-.11-1-.1L107.93,47l-1-.09-1-.1-3.14-.28c-1.1-.08-2.2-.17-3.31-.24-.13,0-.26,0-.39,0L95.92,46l-.53,0-.53,0-.52,0-1,0c5.22-5.33,13.58-8.76,22.86-10.94a122.34,122.34,0,0,1,14.55-2.44c23.91-.33,32.83,7.11,33.41,7.62h0Z" style="fill:#db541f"/><path d="M17.77,74.33a3.46,3.46,0,1,1-3.47-3.46A3.46,3.46,0,0,1,17.77,74.33Z" style="fill:#30353f"/><path d="M14.3,69.15a5.18,5.18,0,1,0,5.19,5.18A5.17,5.17,0,0,0,14.3,69.15Zm0,8.63a3.46,3.46,0,1,1,3.47-3.45A3.45,3.45,0,0,1,14.3,77.78Z" style="fill:#eae3dd"/><path d="M140.49,51.68c-1,1.73-3.07,4-9.78,3.07-5.56-.8-23.63-2.9-32.94-2.74.24-.08,3.06-1,0-2.63s-6.57-1.19-6.8-3.54c.77,0,1.55,0,2.34.08C115.57,46.77,140.49,51.68,140.49,51.68Z" style="fill:#5b8199"/><path d="M14.63,73.07a2.21,2.21,0,1,1,2.21,2.21A2.21,2.21,0,0,1,14.63,73.07Z" style="fill:#eae3dd"/><path d="M56.53,91.2a42.29,42.29,0,0,1-7.74.62s-2.7-1.15,2.86-1.76,13.6-2.69,9-2.3-11.16,1.72-11.35.76,3.36-1.15,7.39-2.78,3.45-2.21-5.47.77-.67-1.49,3.07-3.1,4.39-3.23-1.31-1.12-6.75,2-7.23,1.37,4-2,5.93-3.29.79-1.92-4.59,1-3.93-.33-.76-1.87,4.51-1.83,4.51-2.41-1.36-.63-5.55,1.71c-3.95,2.21-3.62,1.61-3.58,1.53h0c17.79-13,14.46-4,16.66-3.61s-.29,1.31,1.76,1.93.13,1.3,1.79,1,2.44.17,3.2,4.65S60.5,90.57,56.53,91.2Z" style="fill:#ef6522"/><path d="M51.65,90.06c-5.56.61-2.86,1.76-2.86,1.76-2.52-.09-4.54-.63-4.54-2.15,0-3.07-.39-3.33-2.56-5.37a2.57,2.57,0,0,1,0-4c0,.08-.37.68,3.58-1.53,4.19-2.34,5.55-2.28,5.55-1.71s-1.35.87-4.51,2.41-4.61,4.79.76,1.87,6.53-2.26,4.59-1-6.41,2.69-5.93,3.29,1.54.73,7.23-1.37,5-.48,1.31,1.12-12,6.07-3.07,3.1,9.5-2.4,5.47-.77-7.59,1.82-7.39,2.78,6.71-.38,11.35-.76S57.21,89.44,51.65,90.06Z" style="fill:#efbc1d"/><path d="M121.74,48.62c-8.45-1.17-18.69-2.33-28.44-2.7L91,45.84c-2.23-.06-4.43-.07-6.56,0h0S94.85,22.69,126.71,22.5c0,0-24.41,2.69-33.41,16.32S96,32.1,112.7,28.45s1.34.66-4.8,4.07-8.61,5.34-8.72,5.91,10.36-3.34,16.54-6.27,17.45-2.94,24.78-2.56A116.13,116.13,0,0,0,116.15,35a64.54,64.54,0,0,0-11.51,5.2c-14.59,8.62,16.89-6.87,32.05-4.4s-10.94.24-27.44,7.3c0,0-3,1.58,6.47,0s23.46-.43,31.53,1.11S129.83,42.87,121.74,48.62Z" style="fill:#51738c"/><path d="M229.72,52c-3.05.51-4.45-.14-4.48-2.64s.23-3.07-5.53-3.58-1.15-8.51,3.15-10.23,5.87-.58,3.57,1.4-1,4.35,3.29,6.12,3.74,5.54,3.74,5.54C235.12,51.13,232.76,51.48,229.72,52Z" style="fill:#2e3d44"/><path d="M233.46,58.22c-.07,1.36-3.39,2.67-5.15,3.23s-5.34-1.14-5.48-3.63,1.1-1,6.89-.39S233.46,58.22,233.46,58.22Z" style="fill:#2e3d44"/><path d="M229.72,108.48c-1.51.77-4.45.39-4.22,3.84s-.61,2.3-2.68,3.26-5.61.77-7.14-1.15.57-1.53,5.37-5,0,0,1.77-4,5.49-.77,5.49-.77C232.31,106.76,231.22,107.72,229.72,108.48Z" style="fill:#2e3d44"/><path d="M186.45,137.52c-.77,2.55-2-.38-6.41-1.78s-5.37-2.31-5-5.12,3.07.38,3.46.64a11.84,11.84,0,0,0,3.84,1.92C185,134.07,187.21,135,186.45,137.52Z" style="fill:#ef6522"/><path d="M166.1,116.93c-2,.77-4.48-2.18-7.45-5s-3.94-6.78-2.41-8.54,7,3.87,7,3.87C167.44,110.7,168.14,116.16,166.1,116.93Z" style="fill:#ef6522"/><path d="M157.4,89.67c-1-2.81-1.59-3.5-3.29-4.88s-2.6-2.14-3.56-1.38-2.49.76-3.39,2.94a5.48,5.48,0,0,0,1.64,5c2.33,2.3,2.45,6,4.5,3.19S158.42,92.49,157.4,89.67Zm-5.06,1.25c-.49-1.15-4.7-3.74-1.79-4.67s3.14,1.6,3.14,1.6C154.93,90.73,152.83,92.07,152.34,90.92Z" style="fill:#dbd3ce"/><path d="M169.43,63.32c-1.54,1.15-3.71.25-4.74-1.87s3.61-3,4.22-3.23C171.61,57.38,171,62.17,169.43,63.32Z" style="fill:#ef6522"/><path d="M185.55,57.05a3.23,3.23,0,0,1-2.47-3.41c.09-1.87,3.13-1.27,3.52-1.29C189,52.2,186.83,57.3,185.55,57.05Z" style="fill:#ef6522"/><path d="M179.39,100.17c-1.69,2.17-2.16,3.32-5.14,1.79s-.22-4.35,1.19-6.41,2.3.65,3.95-1,1-3.45-.62-6,1-2.94.77-5.94-3.46-3.78-2.44-7.49.9-5.12,2.29-5.24S182,72.64,182,72.64c1.94,2.65.65,6.54,1.11,8.6s-.59,4.21-1.84,6,1.12,5.12,1.84,7.17S181.07,98,179.39,100.17Z" style="fill:#ef6522"/><path d="M166.35,91.85C164.18,94,164.44,91,165,88.52s-1.34-4.47-3.65-7.28,2-2.44,5.25-1,2.54,4.1,2.69,4.58C170.38,88.29,168.53,89.67,166.35,91.85Z" style="fill:#ef6522"/><path d="M152.34,90.92c-.49-1.15-4.7-3.74-1.79-4.67s3.14,1.6,3.14,1.6C154.93,90.73,152.83,92.07,152.34,90.92Z" style="fill:#ef6522"/><path d="M211.52,83.67c-2.18.9-.39,1.66-1.15,2.58s-2.69-.92-7.8-4-1.92-3.49,1.38-4,4.76-.65,8,1.53S211.52,83.67,211.52,83.67Z" style="fill:#ef6522"/><path d="M219.19,36c-2.3,2.14-1.59,5-4,7.13s-1.49,3,0,4.28,2.22,2.57,1.06,4.92c-.59,1.19-.11,1.79.5,2.09-3.44.21-11.57,5-17.19,3.86-7.49-1.52,1.72-3.29,5.95-3.67s6,.57,7.87-2.55,1.34-4.36-4.14-1.6-5.08.5-9.87-1.79.38-2.7,9.21-4.62,3.45-1.34,9.59-9.59,0-3.84,1-6.78-1.92-4-4.6-4-3.65-2.31-2.5-4.55,0-2.75-4-.7-4.6-.89-4.05-2.62a1.51,1.51,0,0,0-.48-1.53l2.23-1c.19,1.43.49,2.56,2.36,2.56,4.13,0,4.61-.9,6.41,1.58s-1,1.23.72,4.17,4.27.64,5.16,2.81,1.41,1.42,2.47,4.61S221.5,33.81,219.19,36Z" style="fill:#dbd3ce"/></g></g></svg>