<svg xmlns="http://www.w3.org/2000/svg" viewBox="0 0 522.68 293.14"><title>freshwater-butterflyfish</title><g id="Layer_2" data-name="Layer 2"><g id="Ñëîé_2" data-name="Ñëîé 2"><path d="M32.92,33.56A28.72,28.72,0,0,1,29.8,39.8l0,0h0a11.81,11.81,0,0,0-4.71,9.44c0,.17,0,.34,0,.51a29,29,0,0,0-7.74.9c-3,1-5.41-1-7.87-4.37-1.22-1.68-4.65-2.39-7.76-2.69,5.76-6.76,24.13-10.54,24.13-10.54,2.14-.61,4.32-1.2,6.56-1.77A3.43,3.43,0,0,1,32.92,33.56Z" style="fill:#bba391"/><path d="M26.35,54.65S22.1,57,19.39,56s-3.52-2.71-5.82-2.83-5.52-3.74-8-3.87A14,14,0,0,0,.55,50.65a18.43,18.43,0,0,1-.49-2.14A6,6,0,0,1,1.7,43.63c3.11.3,6.54,1,7.76,2.69,2.46,3.34,4.91,5.4,7.87,4.37a29,29,0,0,1,7.74-.9A11.69,11.69,0,0,0,26.35,54.65Z" style="fill:#4c5562"/><path d="M27.26,62.94A38.24,38.24,0,0,0,23,67.51a101.26,101.26,0,0,1-6.6-8.44c-3.19-4.88-10.71-3.9-13.93-3.21A32.56,32.56,0,0,1,.55,50.65a14,14,0,0,1,5.06-1.37c2.44.13,5.67,3.74,8,3.87S16.68,55,19.39,56s7-1.33,7-1.33a11.11,11.11,0,0,0,1.21,1.9,0,0,0,0,0,0,0C27.72,56.91,29.47,61.21,27.26,62.94Z" style="fill:#bba391"/><path d="M54.06,94.72c-.14,1.2-4.64,2.49-13.67-5.75-2.94-2.69-6.39-6-9.79-9.46s-6.92-7.05-9.75-10.08-5.12-5.65-6.12-7c-2.23-3-6.45-4-10.7-3.47q-.86-1.59-1.53-3.09c3.22-.69,10.74-1.67,13.93,3.21A101.26,101.26,0,0,0,23,67.51c2.32,2.73,5,5.78,7.88,8.8,7.72,8.15,16.5,16.09,21.47,16.91C52.38,93.22,54.18,93.52,54.06,94.72Z" style="fill:#2b2b2b"/><path d="M20.85,69.43a1.94,1.94,0,0,1-.29.21c-2.85,1.8-3.75,2.58-5.67,2.83a1.15,1.15,0,0,0-.85.72A80.41,80.41,0,0,1,4,59c4.25-.51,8.47.44,10.7,3.47C15.73,63.78,18,66.33,20.85,69.43Z" style="fill:#bba391"/><path d="M30.6,83.81c-.32.59-1.72,1.27-3.12,1.81h0A83.22,83.22,0,0,1,14,73.19a1.15,1.15,0,0,1,.85-.72c1.92-.25,2.82-1,5.67-2.83a1.94,1.94,0,0,0,.29-.21c2.83,3,6.27,6.6,9.75,10.08C30.74,81.18,31,83.07,30.6,83.81Z" style="fill:#4c5562"/><path d="M259.37,91.08c-2,1.44-4.15,3-6.5,4.84a108.3,108.3,0,0,1-20.66,12.84c-14.82,6.9-34,11.24-65.93,13.45-1.71.12-3.45.21-5.22.25-3.26.09-6.6.06-10-.09q-3.37-.12-6.83-.41c-1.21-.09-2.42-.19-3.65-.32-1.69-.16-3.39-.35-5.1-.56-1.27-.16-2.55-.32-3.83-.51-1.69-.24-3.39-.49-5.09-.76s-3.59-.6-5.37-.93l-4.13-.79C80.36,110.82,44.89,96.39,32.53,89c-1.73-1-3.41-2.17-5.05-3.35,1.4-.54,2.8-1.22,3.12-1.81.41-.74.14-2.63,0-4.3,3.4,3.43,6.85,6.77,9.79,9.46,9,8.24,13.53,7,13.67,5.75s-1.68-1.5-1.68-1.5c-5-.82-13.75-8.76-21.47-16.91.64-1.33,1.79-2.8.72-4.61-1.28-2.18,3.36-5.93,5.28-7.09a6.8,6.8,0,0,0,2.49-3.73,11.88,11.88,0,0,0,9.37-11.6,11.71,11.71,0,0,0-2.47-7.22h0a34,34,0,0,0,6.2-3.34,29.37,29.37,0,0,1,3.29-1.56h0c.53-.1,6.94-1.32,10.72,0,4,1.38,5.67.86,13.22.27s16.5-.15,20.8-.89a25.83,25.83,0,0,1,7-.4c-1,2.88-1.77,5.63-2.43,8.24,0,0-9.16,5.18-16.64,3s-10-.74-12.88,1A27.23,27.23,0,0,1,69,51c-4.46-4.17-2.92-5.51-4.12-7.5s-3.43-.62-6-1.14-6,3.62-7.22,7a8.57,8.57,0,0,0-1.37,4.9c0,3.09-.28,4.46-4.27,7S36,64.92,38,70.54,40.85,85.28,46,84.76s11.49-1.55,11,3.26-2.23,3.78-.69,6.7S56.07,98,62.94,99c6.47,1,11.58,2.7,11-5.72.47.16,12.14,4,22-6.65,2.83,3.86,8.76,4.38,13.14,7,3.55,2.08,7.77,1.13,12.12-1.91,0,0,30.92,11.57,71.63,8.15a171.54,171.54,0,0,0,24.65-3.8s17.1,4.26,23,2.19C246.24,96.24,258.61,91.39,259.37,91.08Z" style="fill:#816f61"/><path d="M107.52,69.05c-.12.33-.06.19.2-.4A3.63,3.63,0,0,0,107.52,69.05Zm10,21.22-.87.9c.32-.31,1.09-1.06,2.31-2.2A18.46,18.46,0,0,0,117.57,90.27Zm-10-21.22c-.12.33-.06.19.2-.4A3.63,3.63,0,0,0,107.52,69.05Zm10,21.22-.87.9c.32-.31,1.09-1.06,2.31-2.2A18.46,18.46,0,0,0,117.57,90.27Zm-10-21.22c-.12.33-.06.19.2-.4A3.63,3.63,0,0,0,107.52,69.05Zm10,21.22-.87.9c.32-.31,1.09-1.06,2.31-2.2A18.46,18.46,0,0,0,117.57,90.27Zm-10-21.22c-.12.33-.06.19.2-.4A3.63,3.63,0,0,0,107.52,69.05Zm10,21.22-.87.9c.32-.31,1.09-1.06,2.31-2.2A18.46,18.46,0,0,0,117.57,90.27Zm-10-21.22c-.12.33-.06.19.2-.4A3.63,3.63,0,0,0,107.52,69.05Zm10,21.22-.87.9c.32-.31,1.09-1.06,2.31-2.2A18.46,18.46,0,0,0,117.57,90.27Zm78.82-66.7a8,8,0,0,1,.1.84A1.93,1.93,0,0,0,196.39,23.57Zm-78.82,66.7-.87.9c.32-.31,1.09-1.06,2.31-2.2A18.46,18.46,0,0,0,117.57,90.27Zm-10-21.22c-.12.33-.06.19.2-.4A3.63,3.63,0,0,0,107.52,69.05Zm10,21.22-.87.9c.32-.31,1.09-1.06,2.31-2.2A18.46,18.46,0,0,0,117.57,90.27Zm-10-21.22c-.12.33-.06.19.2-.4A3.63,3.63,0,0,0,107.52,69.05Zm10,21.22-.87.9c.32-.31,1.09-1.06,2.31-2.2A18.46,18.46,0,0,0,117.57,90.27Zm-10-21.22c-.12.33-.06.19.2-.4A3.63,3.63,0,0,0,107.52,69.05Zm10,21.22-.87.9c.32-.31,1.09-1.06,2.31-2.2A18.46,18.46,0,0,0,117.57,90.27Zm-10-21.22c-.12.33-.06.19.2-.4A3.63,3.63,0,0,0,107.52,69.05Zm10,21.22-.87.9c.32-.31,1.09-1.06,2.31-2.2A18.46,18.46,0,0,0,117.57,90.27Zm-10-21.22c-.12.33-.06.19.2-.4A3.63,3.63,0,0,0,107.52,69.05ZM287.85,79.93c1.39,0,3-.18,4.67-.36A22.43,22.43,0,0,0,287.85,79.93Z" style="fill:#4c5562"/><path d="M275.47,32.53s-23.89.52-26.21,0-17.78-.77-27.06-2.76S212.41,30,208,32s-12-2.2-12-2.2a20.75,20.75,0,0,0,.47-5.33v0a1.93,1.93,0,0,0-.1-.84.09.09,0,0,0,0-.05,9.44,9.44,0,0,0-1.71-4.28h0c33.48,1.42,59.58,4.9,67.21,9.08a29,29,0,0,0,4,1.8A49.74,49.74,0,0,0,275.47,32.53Z" style="fill:#816f61"/><path d="M331.11,37.05c-.55.08-22.23,3.19-34.95,1.67-12.89-1.55-45.61-3.1-55.66-1.29S219.88,40,211.63,38.72a107,107,0,0,0-17-1,9,9,0,0,1,.22-2.82c.31-1.51.8-3.25,1.17-5.09,0,0,7.62,4.23,12,2.2s4.89-4.19,14.17-2.2,24.74,2.23,27.06,2.76,26.21,0,26.21,0c10.54,1.61,21.84.41,32-1,5.78-.81,11.56-1.71,17.35-2.59A20.78,20.78,0,0,1,331.11,37.05Z" style="fill:#d2b77c"/><path d="M329.14,66.29a44.19,44.19,0,0,1-14.2,13.29c-7.66-1.77-16-.66-22.41,0h0a21.64,21.64,0,0,0-4.67.36h-.2a34.72,34.72,0,0,0-15.58,3.44,83.92,83.92,0,0,0-12.66,7.68h0c-.76.31-13.13,5.16-18.87,7.16-5.93,2.07-23-2.19-23-2.19,25.05-5.81,39.88-15.71,50.86-20.61a92.16,92.16,0,0,1,36.59-7.83C313.68,67.58,329.14,66.29,329.14,66.29Z" style="fill:#816f61"/><path d="M351.56,47.36c-5.15,3.47-6.27,3.47-7.78,13.26s-5.1,13.92-7.68,15.72-5.52.77-7,5.41c-.46,1.48-1,3-1.56,4.55-1-.8-1.93-1.54-2.82-2.23a24.81,24.81,0,0,0-9.82-4.49,44.19,44.19,0,0,0,14.2-13.29,29.77,29.77,0,0,0,2-3.51,26.45,26.45,0,0,0,2.66-10,36.64,36.64,0,0,0-.36-8,27.9,27.9,0,0,0-2.31-7.68,20.78,20.78,0,0,0-6.25-8.12c6.52-1,13-2,19.58-2.82.55,3.37,1.53,6.52,3.26,8C352.34,37.94,356.72,43.89,351.56,47.36Z" style="fill:#bba391"/><path d="M374.5,38c-.77,8-1.55,13.88-8.76,16.5S359,67.06,355.17,74.79s-8,4.9-15.58,8.6a14.11,14.11,0,0,0-6.79,7.15c-1.81-1.49-3.57-2.93-5.22-4.24.54-1.53,1.1-3.07,1.56-4.55,1.44-4.64,4.39-3.61,7-5.41s6.19-5.93,7.68-15.72,2.63-9.79,7.78-13.26.78-9.42-3.86-13.28c-1.73-1.45-2.71-4.6-3.26-8,2.9-.37,5.79-.72,8.7-1q8.07-.84,16.15-1.59h0C372.89,27.64,375.05,32.3,374.5,38Z" style="fill:#4c5562"/><path d="M389.45,43.2c-3.1,8.4-.26,5.57-9,12.52S363.93,65.6,366,73.55s6.55,13.1-.34,12.58-10.22-3.86-12.8,1.55-3.35,5.5-5.92,7.25c-1,.65-2.09,2.49-3.06,4.77-3.56-2.92-7.42-6.15-11.07-9.16a14.11,14.11,0,0,1,6.79-7.15c7.59-3.7,11.72-.87,15.58-8.6s3.35-17.7,10.57-20.31,8-8.47,8.76-16.5c.55-5.68-1.61-10.34-5.2-14.48q6.87-.63,13.75-1.19a8.21,8.21,0,0,0,2.53,4.29C391.76,32.27,392.54,34.81,389.45,43.2Z" style="fill:#bba391"/><path d="M418.11,53.48c.71,6.11-.06,8.38-6.76,9.3S397.43,65,397.69,70.54s-3.86,13.53-7.47,15.33S383,90.69,382,94.72s-1.29,7.9-6.18,7.9c-2.23,0-5.59,2.48-8.08,5.91a2.66,2.66,0,0,0-2.23,0c-2.32,1.29-6.44-1.54-7.73.52-.41.66-2.75-.76-6.13-3.25.76-4.11,2.18-8,4.84-9.12,6.44-2.84,1.8-5.85,7.47-5.63s13.66.4,12.12-7.68,1.54-14.27,9.53-17.1,14.69-8.91,17.52-14.76S397.18,41.37,401.56,38s5.92-2.33,5.67-7.11c-.14-2.38-1.6-6.33-2.56-10.1,4.07-.25,8.14-.48,12.22-.66-.61,5.5-.34,11.46,2.71,14.74C426.3,42.07,417.39,47.35,418.11,53.48Z" style="fill:#bba391"/><path d="M433.25,40.78c-.77,8.24-2.31,9-2.83,15.46S426,68.09,419.85,68.87s-10.05,6.7-11.33,10.71-9.54,8.1-12.37,14-4.64,9-11.6,11.59a7.8,7.8,0,0,0-3.84,3.33,18.45,18.45,0,0,0-5.7.79c-3.08,1.46-5.39-.15-7.3-.79,2.49-3.43,5.85-5.91,8.08-5.91,4.89,0,5.15-3.86,6.18-7.9s4.64-7,8.25-8.85,7.73-9.79,7.47-15.33,7-6.83,13.66-7.76,7.47-3.19,6.76-9.3,8.19-11.41,1.49-18.63c-3.05-3.28-3.32-9.24-2.71-14.74q6.8-.34,13.6-.55C428.32,28.32,433.88,34,433.25,40.78Z" style="fill:#4c5562"/><path d="M448.72,60.36c-9,3.35-15,1-19.59,10.18S423.46,80.72,419.85,82s-11.8,10.56-12.59,14.69c-.67,3.44-8.9,5.09-9.16,11.11-6,.65-12.65.54-17.39.72a7.8,7.8,0,0,1,3.84-3.33c7-2.58,8.76-5.67,11.6-11.59s11.08-10,12.37-14,5.15-9.94,11.33-10.71,10-6.19,10.57-12.63,2.06-7.22,2.83-15.46c.63-6.74-4.93-12.46-2.76-21.22q8.17-.27,16.36-.37c-.82,6.43-1,14.84,1.87,21.07C454.13,51.86,457.74,57,448.72,60.36Z" style="fill:#bba391"/><path d="M465.65,51.71a7.88,7.88,0,0,1-.84,3.19c-1.75,3.58-5.95,6.54-10.6,7.88l-1,.31a39,39,0,0,0-9,3.75,19.45,19.45,0,0,0-6.62,6.38l-.2.32a39,39,0,0,1-2.33,3.38c-3.1,4-7.28,7.62-14.17,11.27a16.54,16.54,0,0,0-4.56,3.29,12.41,12.41,0,0,0-2.22,3.86,11.33,11.33,0,0,1-4.3,5.14c-.22.16-.43.33-.63.49a6.8,6.8,0,0,0-2.71,5.15,37.48,37.48,0,0,1-8.11,1.66l-.25,0a.34.34,0,0,1,0-.1c.2-3.54,3.17-5.55,5.68-7.33,1.7-1.21,3.19-2.3,3.47-3.69a9.07,9.07,0,0,1,1.09-2.64,28.58,28.58,0,0,1,2.32-3.51c2.91-3.82,6.94-7.73,9.18-8.53,3-1.07,4.2-2,7.14-7.35.37-.69.77-1.46,1.21-2.3l.93-1.83a15.72,15.72,0,0,1,3.37-4.64c2.28-2.08,4.87-2.75,7.91-3.38a53,53,0,0,0,8.31-2.15c3.8-1.41,5.37-3.16,5.48-5.56a9.51,9.51,0,0,0-.5-3.25,40.53,40.53,0,0,0-2-4.91c-.42-.9-.87-1.85-1.35-2.86s-1.09-2.27-1.67-3.52a23.26,23.26,0,0,1-1.57-4.71,30.89,30.89,0,0,1-.54-3.22,39.68,39.68,0,0,1-.29-4.5c0-1.56,0-3.11.14-4.6s.22-2.76.39-4l3.73,0c3.27,0,6.54,0,9.81,0h0a13.42,13.42,0,0,1,.84,4.58,2.88,2.88,0,0,1-.93,2.11,5.44,5.44,0,0,0-1.52,2.37,12.84,12.84,0,0,0-.68,4.86,18.39,18.39,0,0,0,.37,3.11,19.77,19.77,0,0,0,3.67,8c.31.41.65.81,1,1.21A11.57,11.57,0,0,1,464.33,47,7.9,7.9,0,0,1,465.65,51.71Z" style="fill:#4c5562"/><path d="M471.25,60.62a33.83,33.83,0,0,0-6.47,3.09c-2.51,1.49-5,3.24-7.43,4.93a87.73,87.73,0,0,1-8.58,5.66,8.26,8.26,0,0,1-4.18,1.26c-1.32-.11-3.36.92-5.82,2.65-4.58,3.23-10.59,8.91-16.11,14.26-1.36,1.32-2.7,2.63-4,3.86-1.92,1.87-3.7,3.6-5.26,5-1.07,1-2,1.86-2.84,2.54a13.65,13.65,0,0,1-4.12,2.21,6.8,6.8,0,0,1,2.71-5.15c.2-.16.41-.33.63-.49a11.33,11.33,0,0,0,4.3-5.14,12.41,12.41,0,0,1,2.22-3.86,16.54,16.54,0,0,1,4.56-3.29c6.89-3.65,11.07-7.25,14.17-11.27a39,39,0,0,0,2.33-3.38l.2-.32a19.45,19.45,0,0,1,6.62-6.38,39,39,0,0,1,9-3.75l1-.31c4.65-1.34,8.85-4.3,10.6-7.88a7.84,7.84,0,0,0-.48-7.91,11.57,11.57,0,0,0-1.18-1.58c-.35-.4-.69-.8-1-1.21a19.77,19.77,0,0,1-3.67-8,18.39,18.39,0,0,1-.37-3.11,12.84,12.84,0,0,1,.68-4.86,5.44,5.44,0,0,1,1.52-2.37,2.88,2.88,0,0,0,.93-2.11,13.42,13.42,0,0,0-.84-4.58c2.67,0,5.35,0,8,.09a39,39,0,0,0-.91,4.81c-.23,2-.14,3.58.53,4.27a1.62,1.62,0,0,1,.29.37c.89,1.26.71,3.13.48,5.22-.13,1-.26,2-.31,3a9.92,9.92,0,0,0,.89,5.12,7.16,7.16,0,0,1,.65,2.48,19.53,19.53,0,0,1,.1,2.71c0,1.4-.09,2.93-.1,4.55a29.6,29.6,0,0,0,.1,3.24A20,20,0,0,0,471.25,60.62Z" style="fill:#bba391"/><path d="M479,60c-1.2-.07-2.35-.11-3.46-.11a13.35,13.35,0,0,0-4.27.77c-2.57-7,0-14.86-1.86-18.55-2.51-4.9,1.23-11.09-1.35-13.76-1.16-1.19-.59-5.12.38-9.08q6.07.12,12.13.38a18.32,18.32,0,0,0,.12,14c2.84,6.7.52,10.31-2.83,13.8C475.65,49.63,477.41,55.57,479,60Z" style="fill:#4c5562"/><path d="M488.92,30.87C492,36.65,493.3,44.66,491,47.36c-1.25,1.45-1.74,7.55-1.14,13.81-3.65-.55-7.41-1-10.86-1.21-1.57-4.39-3.33-10.33-1.14-12.6,3.35-3.49,5.67-7.1,2.83-13.8a18.32,18.32,0,0,1-.12-14q6.19.29,12.38.79C489.88,23.78,487.31,27.87,488.92,30.87Z" style="fill:#bba391"/><path d="M500.77,51.53c-1.64,3.07-1.71,7.9-1.47,11.21-2.89-.5-6.14-1.07-9.46-1.57-.6-6.26-.11-12.36,1.14-13.81,2.32-2.7,1-10.71-2.06-16.49-1.61-3,1-7.09,4-10.47,3.29.27,6.56.59,9.84,1-.78,4.74,0,10.25-2,12.45C497.42,37.43,503.35,46.7,500.77,51.53Z" style="fill:#4c5562"/><path d="M513.14,36.61c-3.09,4.42-2.06,6.92-2.32,11.72-.21,4-4.93,8.3-2.64,15.71A11.23,11.23,0,0,1,507,64c-1.93-.24-4.6-.7-7.66-1.23-.24-3.31-.17-8.14,1.47-11.21,2.58-4.83-3.35-14.1,0-17.71,2-2.2,1.22-7.71,2-12.45l2.75.34A106.24,106.24,0,0,1,519,23.79C517.25,28.37,514.87,34.13,513.14,36.61Z" style="fill:#bba391"/><path d="M522.68,25.83a14.12,14.12,0,0,1-.79,3.91,35.25,35.25,0,0,1-2.35,5.65,21.6,21.6,0,0,1-2.07,3.32c-.11.16-.23.3-.33.46a7.68,7.68,0,0,0-1.27,6.31,12.37,12.37,0,0,0,.53,1.81c.17.48.38,1,.61,1.47a4.39,4.39,0,0,1-.44,4.6,3.05,3.05,0,0,1-.38.49,14,14,0,0,1-3.57,2.9c-1.25.77-1.46,2.09-1.56,3.39-.17,1.93-.09,3.83-2.88,3.9a13.45,13.45,0,0,1-.6-4.86,17.84,17.84,0,0,1,1.56-5.77c.25-.58.49-1.12.71-1.66a10.51,10.51,0,0,0,1-3.42c0-.51,0-1,0-1.43,0-1,0-2,0-2.87A11.43,11.43,0,0,1,512,38.52a15.69,15.69,0,0,1,1.14-1.91,22,22,0,0,0,1.36-2.33c.78-1.51,1.62-3.36,2.43-5.29.74-1.75,1.46-3.55,2.1-5.2C521.16,24.35,522.68,25,522.68,25.83Z" style="fill:#4c5562"/><path d="M80.6,84.84c-4.26,2.84-5.18,5.65-7,5.4-.9-5.92-2.25-10.25-2.64-14.8,0,0,3.61.9,7.47-3.22s10.31-9.17,10-3.17,0,7.55,1.81,9.61S84.85,82,80.6,84.84Z" style="fill:#c96369"/><path d="M97.47,74.54s-4.38,8.24-1.54,12.11c-9.85,10.6-21.52,6.81-22,6.65,0-.52-.09-1.08-.18-1.67s-.12-.94-.19-1.39c1.85.25,2.77-2.56,7-5.4s11.46-4.12,9.66-6.18-2.06-3.61-1.81-9.61-6.18-1-10,3.17-7.47,3.22-7.47,3.22a27.47,27.47,0,0,1,.6-8.72c.36-1.6.65-3,.86-4.22,0,0,8.08-4.46,12.71-2.65s13.18,3.6,16.51,1.28C100.62,66.14,99.51,70.56,97.47,74.54Z" style="fill:#bba391"/><path d="M105.09,44.38c-1.6,6.27-2.49,11.8-3.48,16.75-3.33,2.32-11.87.52-16.51-1.28S72.39,62.5,72.39,62.5c1-5.81.25-8.1-3.44-11.54a27.23,27.23,0,0,0,6.62-2.63c2.83-1.71,5.41-3.17,12.88-1S105.09,44.38,105.09,44.38Z" style="fill:#4c5562"/><path d="M117.77,19.79a43.8,43.8,0,0,0-10.25,16.35,25.83,25.83,0,0,0-7,.4c-4.3.74-13.23.29-20.8.89s-9.27,1.11-13.22-.27c-3.78-1.33-10.19-.11-10.72,0,3.64-1.58,8.32-3.63,7.75-6.17-.45-2.06-2-3.67-3.06-5.32A566.62,566.62,0,0,1,117.77,19.79Z" style="fill:#d2b77c"/><path d="M39.4,60.88a6.8,6.8,0,0,1-2.49,3.73c-1.92,1.16-6.56,4.91-5.28,7.09,1.07,1.81-.08,3.28-.72,4.61-2.85-3-5.56-6.07-7.88-8.8a38.24,38.24,0,0,1,4.23-4.57c2.21-1.73.46-6,.31-6.37a11.82,11.82,0,0,0,9.34,4.56A12.82,12.82,0,0,0,39.4,60.88Z" style="fill:#4c5562"/><path d="M55.83,37.15h0a29.37,29.37,0,0,0-3.29,1.56,34,34,0,0,1-6.2,3.34h0A11.84,11.84,0,0,0,29.8,39.8a28.72,28.72,0,0,0,3.12-6.24,3.43,3.43,0,0,0-.53-2.24c8.73-2.2,18.19-4.08,28.13-5.66,1,1.65,2.61,3.26,3.06,5.32C64.15,33.52,59.47,35.57,55.83,37.15Z" style="fill:#4c5562"/><path d="M107.72,68.65c-.26.59-.32.73-.2.4A3.63,3.63,0,0,1,107.72,68.65Z" style="fill:#4c5562"/><path d="M119,89c-1.22,1.14-2,1.89-2.31,2.2l.87-.9A18.46,18.46,0,0,1,119,89Z" style="fill:#4c5562"/><path d="M176.59.85C172.8,5.13,167.27,11.4,161,18.57c-10.36,11.77-22.83,26-33.11,37.79l0,.06c-10.64,12.24-18.92,21.93-20.07,23.71-3.55,5.48-6.64,4.46-1.23-4.69,2.09-3.55,10.24-13.74,19.91-25.87,7.87-9.88,16.76-21,24.21-30.92,4.85-6.44,9.11-12.34,12.07-17,1.12,0,2.32,0,3.58,0A66.23,66.23,0,0,0,173,1.09c.46-.06.93-.12,1.37-.15A21.61,21.61,0,0,1,176.59.85Z" style="fill:#b8ab9a"/><path d="M154.94.89c-3,4.17-7.55,10.62-12.71,17.92-14,19.78-32.28,45.81-34.51,49.84,1.67-4,11.38-27.55,21.25-49.41,1.85-4.1,3.71-8.13,5.53-12,2-.53,3.31-1.25,2.4-2.57a2.37,2.37,0,0,1-.25-.46c-.33-.88.56-1.27,1.93-1.47.67-.1,1.46-.17,2.28-.22,2.58-.18,5.47-.35,6.09-1.71.55-1.2,2.29-.92,5.39-.38C153.11.59,154,.75,154.94.89Z" style="fill:#b8ab9a"/><path d="M126.58,11.65c-1,2-2.15,4.72-3.43,7.85-9,22.06-23.62,66.07-23.62,60.08s15.88-48,20.45-59.91c.71-1.89,1.15-3,1.2-3.17h0C123.55,14.37,125.54,12.79,126.58,11.65Z" style="fill:#b8ab9a"/><path d="M190.1,32.91c3.26-3.07,6.16-6.36,6.39-8.47,0,0,0,0,0,0a8.15,8.15,0,0,0-.1-.83.09.09,0,0,0,0-.05,2,2,0,0,0,0-.24,9.34,9.34,0,0,0-1.67-4s-76.58,67.92-79.93,68.69-.74-2.57,6.45-9.27c6-5.53,50.3-45.78,65.66-59.71l2-1.77,3.25-2.95c-.14-.31-.27-.62-.4-.94-.53-1.24-1.11-2.53-1.75-3.79l-9.61,9.28c-22.79,22-65.16,62.7-68.91,65.52-5.16,3.89-5.21,1.32,1.91-6,2.54-2.63,12.19-12.36,23.84-24.23l1-1,1.7-1.75C150.27,40.63,162,28.63,171.44,18.62h0c5.62-5.93,10.48-11.15,13.86-15a12.52,12.52,0,0,0-4.95-2.35L180,1.2a18.22,18.22,0,0,0-3.45-.35C172.8,5.13,167.27,11.4,161,18.57c-10.36,11.77-22.83,26-33.11,37.79l0,.06c-10.64,12.24-18.92,21.93-20.07,23.71-3.55,5.48-6.64,4.46-1.23-4.69,2.09-3.55,10.24-13.74,19.91-25.87,7.87-9.88,16.76-21,24.21-30.92,4.85-6.44,9.11-12.34,12.07-17a60.73,60.73,0,0,1-6.08-.52L154.94.89c-3,4.17-7.55,10.62-12.71,17.92-14,19.78-32.28,45.81-34.51,49.84-.26.58-.32.73-.2.4a3.63,3.63,0,0,1,.2-.4c1.67-4,11.38-27.55,21.25-49.41,1.85-4.1,3.71-8.13,5.53-12l-.45.13c-3,.76-7,1.21-6.68,2.71.08.4-.21.89-.78,1.52h0c0,.08-.07.15-.1.22-1,2-2.09,4.62-3.33,7.64-9,22.06-23.62,66.06-23.62,60.07s15.88-48,20.44-59.91l1.21-3.16c-1,.9-2,1.88-3.12,3-.1.09-.19.19-.29.3A46.4,46.4,0,0,0,110.2,30a40.57,40.57,0,0,0-2.68,6.15c-1,2.89-1.77,5.63-2.43,8.25-1.6,6.27-2.49,11.79-3.48,16.75s-2.1,9.42-4.14,13.4c0,0-4.38,8.25-1.54,12.11s8.76,4.38,13.14,7c3.54,2.08,7.77,1.14,12.12-1.9a33.14,33.14,0,0,0,3.08-2.48C128.91,85,133,82.9,148.55,77.5h0c2.57-.89,5.45-1.88,8.7-3,11.91-4,19.8-8.17,24.58-11.75h0c4.43-3.3,6.2-6.1,6.07-7.83a5.7,5.7,0,0,1,.2-1.91c.69-2.6,2.9-4.6,2.9-7.11,0-3.09,4.12-4.38,3.6-8.25a9.09,9.09,0,0,1,.23-2.82l-2.87,2c-2.39,1.64-6.11,4.2-10.65,7.36C162,57.6,128,81.41,119.2,88.78c7.22-6.78,28.91-26.33,61.51-48C180.71,40.77,185.72,37,190.1,32.91ZM116.7,91.17c.16-.18.45-.47.87-.91s.81-.77,1.44-1.3C117.79,90.11,117,90.86,116.7,91.17Z" style="fill:#765045"/><path d="M194.67,19.23h0s-76.58,67.92-79.93,68.69-.74-2.57,6.45-9.27c6-5.53,50.3-45.78,65.66-59.71l2-1.77,3.25-2.95a34.35,34.35,0,0,0,2,4.07,8.78,8.78,0,0,0,.61.93Z" style="fill:#b8ab9a"/><path d="M196,29.77c-.37,1.84-.86,3.58-1.17,5.09-1,.71-63.33,43.56-75.65,53.92,7.22-6.78,28.91-26.33,61.51-48,0,0,15.25-11.38,15.78-16.34A20.75,20.75,0,0,1,196,29.77Z" style="fill:#b8ab9a"/><path d="M46.3,42.06A11.84,11.84,0,0,0,29.8,39.8l0,0h0a11.81,11.81,0,0,0-4.71,9.44c0,.17,0,.34,0,.51a11.69,11.69,0,0,0,1.28,4.86,11.11,11.11,0,0,0,1.21,1.9,0,0,0,0,0,0,0,11.82,11.82,0,0,0,9.34,4.56,12.82,12.82,0,0,0,2.49-.25,11.88,11.88,0,0,0,9.37-11.6A11.71,11.71,0,0,0,46.3,42.06ZM39.73,59.47a10.9,10.9,0,0,1-2.82.38A10.58,10.58,0,0,1,26.4,50.36c0-.36,0-.72,0-1.08a10.54,10.54,0,0,1,8.92-10.43,10,10,0,0,1,1.64-.13A10.59,10.59,0,0,1,47.48,49.28,10.57,10.57,0,0,1,39.73,59.47Z" style="fill:#2b2b2b"/><path d="M40.39,49.28a4.89,4.89,0,0,1-2.09,4,4.76,4.76,0,0,1-2.8.89,4.9,4.9,0,0,1,0-9.8,4.85,4.85,0,0,1,4.43,2.86.53.53,0,0,1,.06.1h0A5.2,5.2,0,0,1,40.39,49.28Z" style="fill:#2b2b2b"/><path d="M30.81,42.92c-1.71.43-4.41,7.44-4.41,7.44,0-.36,0-.72,0-1.08a10.54,10.54,0,0,1,8.92-10.43C36,41.3,32.53,42.5,30.81,42.92Z" style="fill:#e8e1db"/><path d="M45.28,42.85a9.76,9.76,0,0,0-1.67,3.08c-.17.69-2.36,1.1-3.68,1.31a4.85,4.85,0,0,0-4.43-2.86,4.9,4.9,0,0,0,0,9.8,4.76,4.76,0,0,0,2.8-.89,22.38,22.38,0,0,1,1.45,4.1,6.93,6.93,0,0,1,0,2.08,10.9,10.9,0,0,1-2.82.38A10.58,10.58,0,0,1,26.4,50.36s2.7-7,4.41-7.44S36,41.3,35.27,38.85a10,10,0,0,1,1.64-.13A10.46,10.46,0,0,1,45.28,42.85Z" style="fill:#843a29"/><path d="M47.48,49.28a10.57,10.57,0,0,1-7.75,10.19,6.93,6.93,0,0,0,0-2.08,22.38,22.38,0,0,0-1.45-4.1,4.89,4.89,0,0,0,2.09-4A5.2,5.2,0,0,0,40,47.34h0a.53.53,0,0,0-.06-.1c1.32-.21,3.51-.62,3.68-1.31a9.76,9.76,0,0,1,1.67-3.08A10.4,10.4,0,0,1,47.48,49.28Z" style="fill:#e8e1db"/><path d="M62.94,99c-6.87-1-5.15-1.37-6.7-4.3s.18-1.89.69-6.7-5.84-3.77-11-3.26S40.09,76.16,38,70.54s4-6.91,7.93-9.41,4.27-3.86,4.27-7a8.57,8.57,0,0,1,1.37-4.9c1.26-3.34,4.64-7.47,7.22-7s4.81-.85,6,1.14S64.49,46.79,69,51c3.69,3.44,4.44,5.73,3.44,11.54-.21,1.22-.5,2.62-.86,4.22a27.47,27.47,0,0,0-.6,8.72c.39,4.55,1.74,8.88,2.64,14.8.07.45.13.91.19,1.39s.14,1.15.18,1.67C74.52,101.72,69.41,100,62.94,99Z" style="fill:#765045"/><path d="M333.42,44.73c-.37-.12-8.67-2.87-23.94-.69-15.64,2.23-27.67,3.1-37.63,2.23s-29,.87-38.83,2.58-40.64,6-44.9,4.19c.69-2.59,2.9-4.59,2.9-7.11,0-3.09,4.12-4.38,3.61-8.25a107,107,0,0,1,17,1c8.25,1.28,18.82.51,28.87-1.29s42.77-.26,55.66,1.29c12.72,1.52,34.4-1.59,34.95-1.67A27.9,27.9,0,0,1,333.42,44.73Z" style="fill:#4c5562"/><path d="M333.78,52.75s-9.79-.63-13.66-1.16S304.66,54.43,299,54.25s-14.94,1.47-20.87,2.3-25.51,2.27-31.7,1.75-6.7,1-16.49,4.48S207,64.49,203.39,64.23s-21-1.41-21.54-1.45c4.43-3.29,6.2-6.1,6.08-7.83a5.45,5.45,0,0,1,.19-1.91c4.26,1.78,35.12-2.47,44.9-4.19s28.86-3.43,38.83-2.58,22,0,37.63-2.23c15.27-2.18,23.57.57,23.94.69A36.64,36.64,0,0,1,333.78,52.75Z" style="fill:#d2b77c"/><path d="M333.78,52.75a26.45,26.45,0,0,1-2.66,10S273.17,68.61,259.41,72,243.33,70.68,240,75.44s6.44,10.1-8.5,8-20.42-4.47-35.46-1.9-21.75,3.8-26.91,1.9-20-5.74-20.55-5.89c2.57-.88,5.45-1.87,8.7-3,11.92-4,19.8-8.18,24.58-11.76h0c.51,0,18,1.19,21.54,1.45s16.75,2,26.54-1.45,10.31-5,16.49-4.48,25.77-.92,31.7-1.75,15.2-2.48,20.87-2.3,17.27-3.2,21.13-2.66S333.78,52.75,333.78,52.75Z" style="fill:#4c5562"/><path d="M331.12,62.78a29.77,29.77,0,0,1-2,3.51s-15.46,1.29-24.22,1.32a92.16,92.16,0,0,0-36.59,7.83c-11,4.9-25.81,14.8-50.86,20.61a171.54,171.54,0,0,1-24.65,3.8c-40.71,3.42-71.63-8.15-71.63-8.15a31.58,31.58,0,0,0,3.08-2.48c4.64-4.2,8.72-6.31,24.28-11.72h0c.55.15,15.49,4,20.55,5.89s11.86.68,26.91-1.9,20.51-.25,35.46,1.9,5.15-3.19,8.5-8,5.67-.13,19.43-3.48S331.12,62.78,331.12,62.78Z" style="fill:#bba391"/><path d="M270.13,93.58c-1.55,4.62-5.67,4.66-13.91,6.27s-6.45,7.41-10.05,10.37c-2.08,1.69-3.85,5.21-5,7.89-5.15-5.38-9-9.35-9-9.35a108.3,108.3,0,0,0,20.66-12.84c2.35-1.8,4.5-3.4,6.5-4.84h0a83.92,83.92,0,0,1,12.66-7.68C269.37,86.06,271.68,89,270.13,93.58Z" style="fill:#4c5562"/><path d="M287.84,79.94c-3.78.7-8.65,2.67-9.72,8.11-1.8,9.16,2.58,15.35-8.5,15.09s-13.92,2.06-15,4.9c-.66,1.82-6.09,8.29-8.89,14.88-1.59-1.68-3.14-3.31-4.59-4.81,1.13-2.68,2.9-6.2,5-7.89,3.6-3,1.8-8.75,10.05-10.37s12.36-1.65,13.91-6.27-.76-7.52,1.94-10.19A34.72,34.72,0,0,1,287.65,80Z" style="fill:#bba391"/><path d="M292.47,98.81c.17,8.8-5.33,9.74-14.87,11.55s-7.73,13.4-16.26,17.76a21.33,21.33,0,0,0-6.26,4.61c-3-3.21-6.23-6.6-9.3-9.81,2.8-6.59,8.23-13.06,8.89-14.88,1-2.84,3.86-5.16,15-4.9s6.7-5.93,8.5-15.09c1.07-5.44,5.94-7.41,9.72-8.11h0c1.39,0,3-.19,4.67-.36h0a42.78,42.78,0,0,1,8.54,2.69C292.8,85.77,292.29,90,292.47,98.81Z" style="fill:#4c5562"/><path d="M296.67,98.81c1.55,8.71,2.58,19.28-2.06,20.18s-7,.53-13.66,2.65-14.43,6.74-14.68,11.65c-.16,3-2.34,3.59-5.31,5.74-1.78-1.92-3.78-4.06-5.88-6.3a21.33,21.33,0,0,1,6.26-4.61c8.53-4.36,6.73-16,16.26-17.76s15-2.75,14.87-11.55.33-13,8.6-16.54a18.91,18.91,0,0,1,3.13,1.8C301,86.87,295.57,92.62,296.67,98.81Z" style="fill:#bba391"/><path d="M308.79,111.9c-2.32,5.16-4.38,5.41-3.87,10.61s-.26,6.4-3.87,10.62-7.73,4.28-11.08,1.14-8.5.82-14.5,3.9c-3.42,1.75-5.69,5.54-7,8.61a44.92,44.92,0,0,1-4.57-4.47c-.89-1-1.9-2.09-3-3.28,3-2.15,5.15-2.75,5.31-5.74.25-4.91,8-9.53,14.68-11.65s9-1.75,13.66-2.65,3.61-11.47,2.06-20.18c-1.1-6.19,4.31-11.94,7.53-14.74,2.24,1.55,4.1,3.46,7.56,6.11C304.69,97.68,310.78,107.49,308.79,111.9Z" style="fill:#4c5562"/><path d="M316.23,137.16c-5.12,0-2.55-4.64-9.51,3.6s-6.7,13.6-14.43,7.45-7.47-8.94-15.2-1.36c-1.27,1.24-2.43,2.43-3.49,3.55a35.53,35.53,0,0,1-5.08-3.62c1.26-3.07,3.53-6.86,7-8.61,6-3.08,11.15-7,14.5-3.9s7.48,3.06,11.08-1.14,4.39-5.43,3.87-10.62,1.55-5.45,3.87-10.61c2-4.41-4.1-14.22,3-21.72a.47.47,0,0,1,.12.09,23.52,23.52,0,0,1,3.73,3.34s-2.44-.67-1.93,6.87,1.79,11.17,1.93,17.61,3.23,6.7,3.23,12.37S321.34,137.16,316.23,137.16Z" style="fill:#bba391"/><path d="M320.38,156c-6.81-2.31-9.09-1.1-9.34.87-.21,1.75,1.17,4.09,2.38,5.07,2.58,2.07-6.95-2.59-17.26-7.22-2.58-1.17-4.06-1.34-4.94-1-2.63.94.17,6.36-4.85,3.07-4.12-2.69-8.13-3.63-12.77-6.34q1.59-1.68,3.49-3.56c.81-.8,1.54-1.48,2.19-2.06a13.38,13.38,0,0,1,3-2.13c3.1-1.43,4.58,1.23,10,5.55,0,0,0,0,0,0,2.36,1.89,4,2.69,5.27,2.67,2.39,0,3.73-2.85,6.69-6.94.71-1,1.53-2.06,2.46-3.17l1.35-1.57c5.28-6,3.4-2,8.16-2,1.65,0,2.5-.11,2.9-.44.86-.7-.29-2.41-.29-6.26,0-.2,0-.41,0-.61-.14-3-1.19-4.41-2.07-6.33a12.92,12.92,0,0,1-1.14-5.07c0-.11,0-.23,0-.36,0-1.92-.19-3.6-.38-5.2-.24-1.93-.54-3.75-.84-5.8-.27-1.87-.52-3.92-.7-6.41,0-.06,0-.13,0-.19a22.61,22.61,0,0,1,0-3.5c.34-3.82,1.94-3.38,1.94-3.38A4.63,4.63,0,0,1,316.87,98a23.83,23.83,0,0,0-.61,3.6v0c-.15,3,2.72,4.7,4.11,6.73a3.35,3.35,0,0,1,.27,3.81,5.09,5.09,0,0,0-.54,1.87,12.44,12.44,0,0,0,1.1,5.6,31.36,31.36,0,0,0,2.9,5.4,41.05,41.05,0,0,0,5,6.2c.15.14.28.28.42.42,3.52,3.8,1.48,5.67-1.48,7.06-1.17.55-2.5,1-3.68,1.54a2.6,2.6,0,0,0-1.49,3c.33,3.42,4.1,8.69,8,11.84l.17.14C336.71,159.57,333.27,160.35,320.38,156Z" style="fill:#4c5562"/><path d="M172.83,268.4c0,24.1-6.56,34-3.46,14.1a63.6,63.6,0,0,0,.07-13.64C170.59,268.72,171.72,268.56,172.83,268.4Z" style="fill:#4c5562"/><path d="M172.83,268.4c-1.11.16-2.24.32-3.39.46-.23-3.09-.58-6.47-1.05-10.06,1.35-.19,2.69-.4,4-.63C172.71,261.81,172.83,265.22,172.83,268.4Z" style="fill:#d9d1cc"/><path d="M172.43,258.17c-1.35.23-2.69.44-4,.63-.79-6.11-1.89-12.85-3.2-19.86,1.54-.23,3.1-.49,4.66-.77,1.05,6.13,1.86,12,2.36,17.27C172.29,256.37,172.37,257.27,172.43,258.17Z" style="fill:#4c5562"/><path d="M169.85,238.17c-1.56.28-3.12.54-4.66.77-1.39-7.39-3-15.08-4.75-22.67,1.61-.29,3.22-.62,4.84-1C167,223,168.6,230.8,169.85,238.17Z" style="fill:#d9d1cc"/><path d="M165.28,215.29c-1.62.36-3.23.69-4.84,1-.75-3.28-1.52-6.53-2.31-9.72,1.6-.34,3.21-.72,4.84-1.16C163.76,208.66,164.54,212,165.28,215.29Z" style="fill:#4c5562"/><path d="M163,205.39c-1.63.44-3.24.82-4.84,1.16-1.47-5.93-3-11.66-4.49-17q2.43-.6,4.91-1.38C160,193.62,161.53,199.44,163,205.39Z" style="fill:#d9d1cc"/><path d="M158.55,188.16q-2.48.78-4.91,1.38c-.77-2.75-1.55-5.4-2.32-7.92q2.46-.65,5-1.55C157,182.66,157.78,185.36,158.55,188.16Z" style="fill:#4c5562"/><path d="M187.19,172.91c-.75.57-1.49,1.13-2.23,1.66-1.92-2.6-3.88-5.16-5.84-7.62.67-.52,1.34-1.07,2-1.63Z" style="fill:#4c5562"/><path d="M199.05,188.12c-1.13.8-2.24,1.58-3.36,2.31-3.26-5.3-6.93-10.68-10.73-15.86.74-.53,1.48-1.09,2.23-1.66C191.39,178.18,195.54,183.41,199.05,188.12Z" style="fill:#d9d1cc"/><path d="M205.81,197.9c-1.45.94-2.91,1.85-4.35,2.71-1.69-3.3-3.64-6.72-5.77-10.18,1.12-.73,2.23-1.51,3.36-2.31C201.78,191.77,204.12,195.11,205.81,197.9Z" style="fill:#4c5562"/><path d="M213.39,222.94q-2.32,1.26-4.65,2.42c-.17-2.24-.4-4.49-.71-6.77-.69-5-3.11-11.25-6.57-18,1.44-.86,2.9-1.77,4.35-2.71.33.57.65,1.1.93,1.62A55.87,55.87,0,0,1,213.39,222.94Z" style="fill:#d9d1cc"/><path d="M212.15,244.67c-1.18.63-2.36,1.22-3.54,1.8a134.48,134.48,0,0,0,.13-21.11q2.32-1.16,4.65-2.42A101.55,101.55,0,0,1,212.15,244.67Z" style="fill:#4c5562"/><path d="M212.15,244.67c-.17,1.1-.34,2.2-.52,3.3-.55,3.4-1.28,7.08-2.06,10.64-.8.33-1.64.66-2.48,1,.6-4,1.15-8.4,1.52-13.12C209.79,245.89,211,245.3,212.15,244.67Z" style="fill:#d9d1cc"/><path d="M209.57,258.61c-2.82,13-6.37,24.55-5.15,16.67.58-3.72,1.67-9.12,2.67-15.69C207.93,259.27,208.77,258.94,209.57,258.61Z" style="fill:#4c5562"/><path d="M199.54,146.53c-.85,1-1.7,2-2.53,3a104.47,104.47,0,0,0-11.4-11.09,33.45,33.45,0,0,0-7.37-4.58l-.07,0c-1-.67-13-8.81-17.11-11.37,1.77,0,3.51-.13,5.22-.25A139.92,139.92,0,0,1,199.54,146.53Z" style="fill:#d9d1cc"/><path d="M206.88,154.58c-1,1.1-2,2.17-3,3.21-2.37-3-4.7-5.81-6.9-8.26.83-1,1.68-2,2.53-3Q203.53,150.52,206.88,154.58Z" style="fill:#4c5562"/><path d="M218.52,171.44c-1.1,1.11-2.2,2.2-3.3,3.24a144.9,144.9,0,0,0-11.31-16.89c1-1,2-2.11,3-3.21A111.33,111.33,0,0,1,218.52,171.44Z" style="fill:#d9d1cc"/><path d="M224.41,183.59c-1.1,1-2.19,1.93-3.28,2.85a125.31,125.31,0,0,0-5.91-11.76c1.1-1,2.2-2.13,3.3-3.24A108.36,108.36,0,0,1,224.41,183.59Z" style="fill:#4c5562"/><path d="M231.63,211.11c-1,.74-1.94,1.46-2.92,2.15a97.05,97.05,0,0,0-7.58-26.82c1.09-.92,2.18-1.88,3.28-2.85A105.32,105.32,0,0,1,231.63,211.11Z" style="fill:#d9d1cc"/><path d="M231.19,232.46c-.87.65-1.73,1.3-2.6,1.93,0-.11,0-.23,0-.34a78.27,78.27,0,0,0,.07-20.79c1-.69,1.95-1.41,2.92-2.15.36,2.95.52,5.49.58,7.48A97.84,97.84,0,0,1,231.19,232.46Z" style="fill:#4c5562"/><path d="M231.19,232.46c-.82,6.14-1.95,12.46-2.9,16.69-.5.32-1,.64-1.59,1,.25-3.11.85-8.17,1.89-15.73C229.46,233.76,230.32,233.11,231.19,232.46Z" style="fill:#d9d1cc"/><path d="M120.13,156.53a140.26,140.26,0,0,0,1.06-14.22c-.49-13.14-9-6.44-9-6.44-5.15,3.07-10,7.84-14.48,13.77,4.33-9.67,23.51-30.76,23.51-30.76,1.78.33,3.58.64,5.37.93C125.77,121.26,120.13,156.53,120.13,156.53Z" style="fill:#c96369"/><path d="M131.65,120.57c-4.4,10.71-8.51,53.85-8.65,55.39v0c-.34,1.87-.63,3.77-.9,5.67-1.37-.36-2.72-.77-4-1.22.6-9.21,1.41-17.38,2.07-23.92,0,0,5.64-35.27,6.43-36.72C128.26,120.08,130,120.33,131.65,120.57Z" style="fill:#d9d1cc"/><path d="M122.1,181.67c-.38,2.85-.68,5.74-.91,8.62-1.21-.21-2.42-.48-3.61-.77.13-3.11.29-6.14.48-9.07C119.38,180.9,120.73,181.31,122.1,181.67Z" style="fill:#4c5562"/><path d="M120.71,207.37c-1.16-.17-2.29-.38-3.41-.59-.08-5.94,0-11.73.28-17.26,1.19.29,2.4.56,3.61.77C120.75,196,120.6,201.71,120.71,207.37Z" style="fill:#d9d1cc"/><path d="M121.08,217c-1.19-.16-2.36-.34-3.52-.52-.15-3.28-.23-6.54-.26-9.74,1.12.21,2.25.42,3.41.59C120.76,210.62,120.88,213.86,121.08,217Z" style="fill:#4c5562"/><path d="M123.51,239.83c-1.26-.12-2.51-.25-3.75-.4a215.86,215.86,0,0,1-2.2-22.91c1.16.18,2.33.36,3.52.52C121.56,225,122.45,232.71,123.51,239.83Z" style="fill:#d9d1cc"/><path d="M127,258.69c-1.09-.15-2.16-.3-3.23-.47a157.49,157.49,0,0,1-4-18.79c1.24.15,2.49.28,3.75.4C124.55,246.74,125.76,253.12,127,258.69Z" style="fill:#4c5562"/><path d="M129.62,270l-2-.13a122.63,122.63,0,0,1-3.86-11.67c1.07.17,2.14.32,3.23.47C127.88,263,128.8,266.8,129.62,270Z" style="fill:#d9d1cc"/><path d="M132.77,281.18a100.45,100.45,0,0,1-5.18-11.29l2,.13C131.34,276.72,132.65,280.82,132.77,281.18Z" style="fill:#4c5562"/><path d="M56.87,255.78c-.63,2.86-1,4.62-1.06,5,.1-1.75.23-3.49.37-5.22Z" style="fill:#4c5562"/><path d="M61.29,237.57c-2,7.73-3.5,14.1-4.42,18.21l-.69-.22q.84-10,2.49-19.37Z" style="fill:#d9d1cc"/><path d="M64.64,225.36c-1.25,4.33-2.36,8.43-3.35,12.21l-2.62-1.38q1.09-6.27,2.5-12.27C62.22,224.37,63.37,224.86,64.64,225.36Z" style="fill:#4c5562"/><path d="M72.37,201.1c-3,8.38-5.54,16.65-7.73,24.26-1.27-.5-2.42-1-3.47-1.44a226.1,226.1,0,0,1,7.33-25Q70.16,199.92,72.37,201.1Z" style="fill:#d9d1cc"/><path d="M76.09,191c-1.29,3.35-2.54,6.72-3.72,10.08q-2.2-1.18-3.87-2.16,1.84-5.24,3.88-10.17C73.54,189.49,74.77,190.24,76.09,191Z" style="fill:#4c5562"/><path d="M83.49,173.78c-2.65,5.56-5.11,11.36-7.4,17.24-1.32-.78-2.55-1.53-3.71-2.25,2.51-6.13,5.17-11.91,7.88-17.31C81.29,172.23,82.36,173,83.49,173.78Z" style="fill:#d9d1cc"/><path d="M89.24,162.63c-2,3.54-3.92,7.28-5.75,11.15-1.13-.77-2.2-1.55-3.23-2.32q3.08-6.08,6.19-11.52C87.32,160.8,88.25,161.7,89.24,162.63Z" style="fill:#4c5562"/><path d="M121.19,118.88S102,140,97.68,149.64l0,0a114.55,114.55,0,0,0-8.42,13c-1-.93-1.92-1.83-2.79-2.69,15.34-26.84,30.61-41.85,30.61-41.85Z" style="fill:#d9d1cc"/><path d="M147.83,170.9c-2.31-6.52-4.41-11.21-6-13.13-8.76-10.31-14.69,2.06-14.69,2.06A112.08,112.08,0,0,0,123,176c.14-1.54,4.25-44.68,8.65-55.39,1.28.19,2.56.35,3.83.51C135,127.47,147.1,168.42,147.83,170.9Z" style="fill:#c96369"/><path d="M403.1,51.53c-2.83,5.85-9.53,11.92-17.52,14.76s-11.08,9-9.53,17.1-6.45,7.9-12.12,7.68-1,2.79-7.47,5.63c-2.66,1.16-4.08,5-4.84,9.12-2.22-1.66-4.89-3.79-7.75-6.12,1-2.28,2.1-4.12,3.06-4.77,2.57-1.75,3.35-1.84,5.92-7.25s5.93-2.06,12.8-1.55,2.41-4.64.34-12.58,5.67-10.87,14.44-17.83,5.92-4.12,9-12.52,2.31-10.93-3.87-16.6a8.21,8.21,0,0,1-2.53-4.29q10.81-.89,21.62-1.54c1,3.77,2.42,7.72,2.56,10.1.25,4.78-1.29,3.72-5.67,7.11S405.94,45.67,403.1,51.53Z" style="fill:#4c5562"/><path d="M189.91,9.5l-9.61,9.28c-22.79,22-65.16,62.7-68.91,65.52-5.16,3.89-5.21,1.32,1.91-6,2.54-2.63,12.19-12.36,23.84-24.23l1-1,1.7-1.75C150.27,40.63,162,28.63,171.44,18.62h0c5.62-5.93,10.48-11.15,13.86-15a14.85,14.85,0,0,1,1.18,1A19.66,19.66,0,0,1,189.91,9.5Z" style="fill:#b8ab9a"/><path d="M160.93,146.85c-3.88-3.54-7-5.67-8.82-5.83-5.61-.46-7.64.2-7.22,3.69-1.57-6.51-4.7-20.13-4.31-23.07,1.23.13,2.44.23,3.65.32Z" style="fill:#c96369"/><path d="M156.3,180.07q-2.52.9-5,1.55c-1.17-3.88-2.34-7.45-3.45-10.59v0s0-.05,0-.1c-.73-2.48-12.82-43.43-12.35-49.82,1.71.21,3.41.4,5.1.56-.39,2.94,2.74,16.56,4.31,23.07v0a18.68,18.68,0,0,0,.79,3.24c0,.15.07.24.07.24.63,2,1.59,4.45,2.8,7.5C150.28,160.09,153.15,169,156.3,180.07Z" style="fill:#d9d1cc"/><path d="M178.17,133.83c-7.36-3.18-12.44-.77-14.21,4.36-.4,1.15.34,3.23,1.89,6-.42-.56-13.61-18.26-14.79-21.82,3.4.15,6.74.18,10,.09C165.21,125,177.21,133.16,178.17,133.83Z" style="fill:#c96369"/><path d="M181.14,165.32c-.68.56-1.35,1.11-2,1.63a178.55,178.55,0,0,0-18.19-20.1L144.23,122q3.45.29,6.83.41c1.18,3.56,14.37,21.26,14.79,21.82h0C168.8,149.45,174.67,157.13,181.14,165.32Z" style="fill:#d9d1cc"/><path d="M36.34,45.19a4,4,0,1,1,4,4A4,4,0,0,1,36.34,45.19Z" style="fill:#e8e1db"/><path d="M409.17,101c1.44.15,2.86.28,4.25.4-1.07,1-2,1.86-2.84,2.54a13.65,13.65,0,0,1-4.12,2.21,37.48,37.48,0,0,1-8.11,1.66,1.27,1.27,0,0,1-.24-.07c-4-1-7.89-2.17-11.58-3.33-2.65-.83-5.21-1.68-7.68-2.53-7.19-2.5-13.59-5.07-19.11-7.51q-4.58-2-8.32-3.85c-5.85-2.86-10.11-5.26-12.58-6.71-1.45-.86-2.29-1.38-2.45-1.5.81.5,1.66,1,2.53,1.46A91.88,91.88,0,0,0,352,89.44c2.78,1,5.69,1.93,8.69,2.78,6.59,1.91,13.62,3.51,20.73,4.82,3.93.74,7.88,1.39,11.8,2,3.57.52,7.12,1,10.59,1.38C405.61,100.59,407.4,100.79,409.17,101Z" style="fill:#e2c6b3"/><path d="M416.32,91.48c2.14.35,4.27.68,6.34,1-1.36,1.32-2.7,2.63-4,3.86l-4.58-1-5.75-1.29c-3.62-.85-7.28-1.72-10.9-2.61-3.84-1-7.65-1.91-11.37-2.87-3.39-.87-6.7-1.75-9.87-2.6l-6.87-1.85c-7-1.93-13.11-3.65-17.56-4.93S344.6,77.1,344,76.91c.64.15,3.63.85,8.26,1.89,4.34,1,10.13,2.25,16.78,3.66,2.26.48,4.64,1,7.1,1.48,4.1.86,8.42,1.72,12.84,2.6,3.6.7,7.26,1.4,10.94,2.08s7.19,1.31,10.75,1.92C412.57,90.86,414.45,91.18,416.32,91.48Z" style="fill:#e2c6b3"/><path d="M437.58,73.22l11.19,1.08a8.26,8.26,0,0,1-4.18,1.26c-1.32-.11-3.36.92-5.82,2.65q-1.84-.67-3.72-1.29c-2.62-.85-5.31-1.62-8.06-2.26a137.78,137.78,0,0,0-13.72-2.58c-5.21-.72-10.46-1.2-15.58-1.49-6.46-.37-12.74-.44-18.53-.34-4.92.09-9.49.29-13.5.55-3.5.23-6.58.49-9.13.73-4.9.48-7.8.89-7.8.89a65.93,65.93,0,0,1,8-1.59c2.78-.38,5.78-.67,9-.86,4.41-.29,9.15-.41,14.11-.37,5.73,0,11.75.2,17.84.51,5.53.28,11.11.65,16.64,1.08,4.71.36,9.36.75,13.87,1.17C431.41,72.65,434.55,72.93,437.58,73.22Z" style="fill:#e2c6b3"/><path d="M453.18,63.09q5.93.3,11.6.62c-2.51,1.49-5,3.24-7.43,4.93-4-.73-8.45-1.31-13.15-1.8-3.75-.38-7.67-.7-11.7-1l-6-.34c-8.15-.38-16.55-.54-24.67-.57-4.53,0-9,0-13.21.06-7.7.09-14.79.29-20.68.49-3.76.14-7,.27-9.68.4-4.52.2-7.16.36-7.16.36,2.38-.52,4.86-1,7.45-1.4,3.67-.57,7.55-1.07,11.57-1.47,7.45-.75,15.43-1.21,23.68-1.43,7-.21,14.21-.24,21.46-.16,4.53.05,9.09.15,13.62.27q5.82.16,11.55.41Q446.89,62.77,453.18,63.09Z" style="fill:#e2c6b3"/><path d="M509.14,53.41c3,.17,5.37.32,7.05.44a14,14,0,0,1-3.57,2.9c-1.25.77-1.46,2.09-1.56,3.39q-1.65-.51-3.48-1c-2.54-.63-5.31-1.18-8.29-1.66s-6.28-.9-9.69-1.24c-3.83-.39-7.86-.69-12.06-.92q-3.63-.2-7.4-.32c-1.76-.06-3.54-.1-5.33-.14q-5.22-.12-10.61-.1c-7.74,0-15.72.18-23.69.47-4.07.14-8.15.32-12.19.52-6.41.31-12.73.69-18.87,1.11-8.07.53-15.79,1.13-22.89,1.73-5.94.49-11.44,1-16.36,1.47-6.83.66-12.51,1.26-16.62,1.71-4.6.5-7.22.82-7.22.82q3.54-1.14,7.44-2.13c5.71-1.46,11.94-2.7,18.52-3.75,6.39-1,13.1-1.85,20-2.53,6.58-.65,13.34-1.16,20.18-1.55,5.18-.31,10.4-.54,15.6-.71,4.35-.15,8.7-.25,13-.33,7.71-.13,15.31-.15,22.59-.08q6.15,0,11.95.16l4.39.09,6.85.19c4.55.13,8.85.29,12.83.45,3.78.16,7.29.32,10.45.48C503.56,53.09,506.58,53.26,509.14,53.41Z" style="fill:#e2c6b3"/><path d="M517.14,39.17a7.68,7.68,0,0,0-1.27,6.31c-1.64-.51-3.31-1-5-1.45q-5.09-1.39-10.51-2.51c-2.75-.58-5.56-1.11-8.41-1.59-3.28-.56-6.61-1-10-1.5-4.4-.58-8.9-1.08-13.43-1.49-3.32-.3-6.66-.57-10-.77q-5.66-.39-11.33-.62-7.31-.31-14.56-.4c-4.29-.08-8.57-.09-12.79-.07-4.81,0-9.54.11-14.16.23-5,.13-9.79.31-14.43.52-5.89.25-11.46.57-16.64.9-8.92.59-16.64,1.24-22.63,1.79-8.51.79-13.52,1.41-13.52,1.41q5.88-1.73,12.21-3a231,231,0,0,1,23.67-3.64c5.23-.55,10.56-1,16-1.25,5.61-.32,11.29-.5,17-.58q5.16-.08,10.35,0c4.66,0,9.3.13,13.93.27,5.07.17,10.11.39,15.08.67,3.88.22,7.71.45,11.5.73q5.43.39,10.7.84c4.25.35,8.4.73,12.42,1.13,3.37.33,6.65.67,9.81,1l8.68,1c4.36.51,8.47,1,12.28,1.5C513.78,38.73,515.5,39,517.14,39.17Z" style="fill:#e2c6b3"/><path d="M517,48.76a4.39,4.39,0,0,1-.44,4.6c-2.12-.58-4.37-1.11-6.72-1.61-2.73-.57-5.61-1.08-8.61-1.53-3.49-.55-7.14-1-10.92-1.43-4.11-.44-8.37-.81-12.75-1.1-2.45-.18-4.92-.32-7.43-.44-1.92-.11-3.86-.19-5.81-.26-4.15-.17-8.36-.28-12.59-.35-6.43-.1-12.91-.11-19.35,0-4.15,0-8.28.11-12.36.21-5.66.14-11.23.31-16.62.54s-10.58.46-15.55.73c-5.57.29-10.84.62-15.68.94-11,.72-19.83,1.45-25.37,1.94-4.06.36-6.33.59-6.33.59a53.49,53.49,0,0,1,9.43-3.09,168.78,168.78,0,0,1,23.65-3.52c4.95-.45,10.19-.79,15.64-1q6-.28,12.34-.43c6.55-.16,13.28-.21,20.06-.18,3.78,0,7.57,0,11.35.1,5.87.09,11.71.23,17.44.4,4,.13,7.91.26,11.76.42,2.68.1,5.32.21,7.89.34,3.37.14,6.65.3,9.82.46,4.2.22,8.21.44,12,.66,3.37.2,6.53.39,9.46.59,3.57.22,6.8.44,9.58.65l5.54.39C516.57,47.77,516.78,48.27,517,48.76Z" style="fill:#e2c6b3"/><path d="M521.89,29.74a35.25,35.25,0,0,1-2.35,5.65q-2.47-.59-5-1.11c-4.11-.86-8.38-1.6-12.78-2.26q-6.36-1-13-1.67c-3-.33-6.09-.63-9.19-.88Q474,29,468.33,28.68c-3.16-.19-6.35-.35-9.54-.48q-6.23-.25-12.47-.37c-5.32-.12-10.64-.16-15.89-.15q-6.9,0-13.63.15c-3.4.07-6.76.15-10.06.25-6.55.21-12.87.47-18.86.77-5.15.26-10,.54-14.62.84-11.32.72-20.73,1.52-27.21,2.12-6.17.56-9.69.95-9.69.95,3.1-.66,6.21-1.27,9.31-1.85,8.77-1.64,17.51-3,26.13-4.05q6.42-.8,12.74-1.4,10.66-1,21-1.58,5.61-.3,11.1-.47c4.53-.16,9-.25,13.37-.28q8.46-.06,16.45.1c5.09.1,10,.27,14.78.49l6.27.32q6.12.34,11.78.79c3.45.27,6.76.54,9.93.84,4.71.45,9.09.92,13.1,1.38,5.65.67,10.55,1.33,14.61,1.94Z" style="fill:#e2c6b3"/><path d="M248.63,106.37c-.85-.64-1.27-1-1.27-1,.46.24.94.47,1.4.69q2.79,1.38,5.56,2.66c5.47,2.55,10.88,4.85,16.17,6.93,4.7,1.85,9.32,3.52,13.8,5h0c7.24,2.43,14.16,4.43,20.63,6.06,4.91,1.24,9.56,2.27,13.9,3.1,3.83.75,7.42,1.34,10.73,1.81,3.52,3.8,1.48,5.67-1.48,7.06-3.07-.64-6.05-1.3-8.95-2-6.09-1.46-11.8-3.06-17.11-4.73a224.2,224.2,0,0,1-24.29-9.16c-3.19-1.41-6.13-2.82-8.81-4.18a157.2,157.2,0,0,1-15.3-8.78C251.32,108.35,249.66,107.15,248.63,106.37Z" style="fill:#e2c6b3"/><path d="M261,99a40.59,40.59,0,0,1-3.12-2.64q2.41,1.2,4.76,2.31,4.9,2.37,9.52,4.42,7,3.12,13.23,5.58c4.43,1.76,8.6,3.29,12.52,4.62,3,1,5.91,1.95,8.62,2.74,3.26,1,6.31,1.77,9.12,2.44,2,.47,3.83.86,5.58,1.19a31.36,31.36,0,0,0,2.9,5.4q-3.78-.7-7.34-1.52-6.3-1.44-11.9-3.13c-2.91-.86-5.67-1.77-8.3-2.71a151.62,151.62,0,0,1-17.71-7.55,119.53,119.53,0,0,1-12.09-7C264.32,101.52,262.39,100.1,261,99Z" style="fill:#e2c6b3"/><path d="M270.54,91.92c-1.31-.87-2-1.38-2-1.38l2.1.9q3.61,1.55,7,2.93c5.44,2.23,10.37,4.15,14.86,5.8q2.46.9,4.74,1.69c4.35,1.52,8.21,2.75,11.63,3.73,2,.58,3.88,1.07,5.58,1.49q3.38.83,6,1.27a3.35,3.35,0,0,1,.27,3.81,5.09,5.09,0,0,0-.54,1.87c-1.63-.33-3.25-.72-4.87-1.15-2.08-.56-4.15-1.18-6.18-1.85-3.89-1.29-7.68-2.76-11.27-4.31-2.13-.91-4.18-1.86-6.15-2.82-5.46-2.63-10.26-5.3-14.06-7.57C274.5,94.51,272.1,93,270.54,91.92Z" style="fill:#e2c6b3"/><path d="M279.24,85.07c-.69-.34-1.21-.61-1.55-.79.47.23,1,.47,1.59.72,3.36,1.46,8.39,3.3,13.77,5.17,1.58.56,3.21,1.11,4.83,1.66,3.8,1.28,7.59,2.51,10.88,3.59L313.67,97c1.24.41,2.32.74,3.2,1a23.83,23.83,0,0,0-.61,3.6v0c-.84-.3-1.69-.62-2.57-1-1.75-.68-3.58-1.4-5.42-2.17-3.7-1.53-7.51-3.21-11.14-4.87-1.5-.68-3-1.36-4.38-2C286.86,88.86,281.87,86.39,279.24,85.07Z" style="fill:#e2c6b3"/><path d="M296.16,154.68c-2.58-1.17-4.06-1.34-4.94-1-4.12-2.91-8.14-5.93-11.94-8.89-2.15-1.68-4.22-3.34-6.19-4.94-2.49-2-4.8-4-6.93-5.75-2.29-2-4.35-3.74-6.09-5.29-3.83-3.37-6.22-5.59-6.49-5.85q3.63,2.85,7.19,5.46,2.84,2.09,5.62,4,4.47,3.1,8.81,5.88c2.39,1.51,4.75,3,7.08,4.33q5.13,3,10,5.55s0,0,0,0c1.79,1,3.54,1.83,5.27,2.67,4.69,2.29,9.18,4.26,13.47,6-.21,1.75,1.17,4.09,2.38,5.07C316,164,306.47,159.31,296.16,154.68Z" style="fill:#e2c6b3"/><path d="M331,155.05c-8.39-2.94-17.55-6.85-26.69-11.12-6.92-3.23-13.82-6.68-20.4-10.1-4.6-2.38-9-4.75-13.19-7q-2.48-1.35-4.82-2.66c-6.22-3.44-11.64-6.54-15.8-9-2.21-1.29-4.06-2.38-5.49-3.23l-2.91-1.75c1,.57,1.95,1.15,2.93,1.71q2.78,1.62,5.55,3.13c5.45,3,10.9,5.75,16.29,8.28q2.81,1.32,5.58,2.55c8.76,3.89,17.37,7.19,25.61,10,3.56,1.22,7.05,2.32,10.46,3.34,5.15,1.55,10.11,2.88,14.84,4C323.24,146.63,327,151.9,331,155.05Z" style="fill:#e2c6b3"/><path d="M118.06,19.49c-6.17,14.91-12.66,34.83-13,35.77.11-.66,2.28-12.67,5.1-25.28a46.4,46.4,0,0,1,7.57-10.19C117.87,19.68,118,19.58,118.06,19.49Z" style="fill:#e2c6b3"/><path d="M134.05,7.4c-7.77,10.85-17.34,36.18-20.7,45.4,2.9-8.19,10.17-29.11,13.13-40.94,0-.07.07-.14.1-.22h0c.57-.63.86-1.12.78-1.52C127.07,8.61,131.07,8.16,134.05,7.4Z" style="fill:#e2c6b3"/><path d="M136.65,4.24c-.33-.88.56-1.27,1.93-1.47A8.37,8.37,0,0,0,136.65,4.24Z" style="fill:#e2c6b3"/><path d="M140.86,2.55c2.58-.18,5.47-.35,6.09-1.71.55-1.2,2.29-.92,5.39-.38-12,12.71-31.15,43.92-31.15,43.92C123.16,30.6,142.48,5.62,140.86,2.55Z" style="fill:#e2c6b3"/><path d="M126.4,49.57c6.36-16.48,23.28-38.13,30.2-48.43a60.73,60.73,0,0,0,6.08.52c1.12,0,2.32,0,3.58,0-13.79,16.88-41.4,52.51-41.4,52.51A45.16,45.16,0,0,1,126.4,49.57Z" style="fill:#e2c6b3"/><path d="M180,1.2c-15.29,18.18-67.63,77.61-63.34,69.87,1.17-2.11,5.38-7.58,11.09-14.65l0-.06C142,38.86,165.23,11.59,174.35.94a21.61,21.61,0,0,1,2.24-.09A18.22,18.22,0,0,1,180,1.2Z" style="fill:#e2c6b3"/><path d="M181.33,44.21c4.54-3.16,8.26-5.72,10.65-7.36-23.52,27.71-54.63,43.5-29.29,24.94A112.08,112.08,0,0,0,181.33,44.21Z" style="fill:#e2c6b3"/><path d="M137.14,54l1-1,1.7-1.75c13.62-14.31,32.41-39.07,40.54-50a12.52,12.52,0,0,1,4.95,2.35,14.85,14.85,0,0,1,1.18,1C170.23,26.37,121.5,70.15,137.14,54Z" style="fill:#e2c6b3"/><path d="M194.05,18.3c-13.89,14.06-40.75,35.09-41.73,35.85,17.56-15,29.18-27.43,36.49-37,1-1.36,2-2.65,2.85-3.89.13.32.26.63.4.94A34.35,34.35,0,0,0,194.05,18.3Z" style="fill:#e2c6b3"/><path d="M196.49,24.4s0,0,0,0c-.23,2.11-3.13,5.4-6.39,8.47,2.39-3.4,4.48-6.67,6.24-9.63a2,2,0,0,1,0,.24.09.09,0,0,1,0,.05A8.15,8.15,0,0,1,196.49,24.4Z" style="fill:#e2c6b3"/></g></g></svg>