<svg xmlns="http://www.w3.org/2000/svg" viewBox="0 0 306.84 183.43"><title>frontosa</title><g id="Layer_2" data-name="Layer 2"><g id="Ñëîé_2" data-name="Ñëîé 2"><path d="M28.54,104.59h0a33.64,33.64,0,0,1-3.21,3.9l-1.2-.74,0,0a8.56,8.56,0,0,0-1.85-9.55c-4.37-4.36-5.49-2.33-7.72-6.8a18.72,18.72,0,0,0-11-8.51A10.09,10.09,0,0,1,6.4,81.64a31.31,31.31,0,0,1,7.11,3.86c4.06,2.85,7.51,7.11,12.59,10S30.57,102.15,28.54,104.59Z" style="fill:#a98fcc"/><path d="M56.12,113.5c-3.55,2.17-8.85,3-15.81,1.45-15.5-3.58-11.94-10.08-11.78-10.35h0c2-2.44,2.64-6.29-2.44-9.14s-8.53-7.1-12.59-10A31.31,31.31,0,0,0,6.4,81.64c.6-3.86,4.87-7.11,11.78-9.13A5.93,5.93,0,0,0,21,70.81,11.51,11.51,0,0,0,29,76.06c7.62.91,5.33,4.87,11.88,7.31s10.21-2.29,12.49,6.55,3.66,17.36-5.48,17.21S43.15,113,56.12,113.5Z" style="fill:#4453aa"/><path d="M60.83,101.29C59.06,95.89,60.66,86,58.5,77.4h0a19.68,19.68,0,0,0-6.8-11.16c-11.38-9-12.8-13.65-14.42-21.46a21.86,21.86,0,0,0-5.47-9.93C18,43.28,22,60.52,22,60.52S24.11,67.29,21,70.81A11.51,11.51,0,0,0,29,76.06c7.62.91,5.33,4.87,11.88,7.31s10.21-2.29,12.49,6.55,3.66,17.36-5.48,17.21-4.78,5.88,8.19,6.37h0A10.31,10.31,0,0,0,60.83,101.29Zm-18-21.88a8.91,8.91,0,1,1,8.92-8.91A8.91,8.91,0,0,1,42.82,79.41Z" style="fill:#353f9b"/><path d="M290.93,91.59c-6.49,4.88-5.07,9.75-3.45,16.86s2.23,10.15-4.06,12-9.75,4.07-13.61,5.89-9.74.41-15.43-5.89a55.93,55.93,0,0,0-10.58-8.55,111,111,0,0,0-8.67-8.11c14.22-.28,32.7,18.36,29,10.57-4.05-8.53-32.9-15-12.38-12.19s33,17.82,29.24,8.13-41.23-15.64-39.8-18.67,29,5.47,37.77,7.09,2.44-5.28-15-10.15-13.6-5.69,7.52-5.49S297,79,285.86,77.58s-34.73-.41-21.74-3.86,43.87-.2,26-4.47-52.8,5.69-41-2.23,33.1-3.65,20.71-7.31c-9.6-2.83-32.13,4.45-41.78,7.88-.16-.59-.31-1.14-.46-1.65,4.9-1.62,10.43-3.7,16.55-6a75.27,75.27,0,0,1,13.41-3.7s24.67-1,29.75,5.12,14.42,6.91,15.84,12.19S297.43,86.72,290.93,91.59Z" style="fill:#353f9b"/><path d="M186,111.09a29.32,29.32,0,0,1-3.13,2.44,30.93,30.93,0,0,1-8.32,4c1.06-2.35,8-18.49,1.89-27.14-5.17-7.36-4.14-28.09-1.82-37.54.63-2.55,1.34-4.27,2.05-4.71,3.35-2,11.46,2.86,9.13,10.26s-2.34,22.29.41,29.27C188.72,94,189.12,102.21,186,111.09Z" style="fill:#d0c7ff"/><path d="M226.89,98.9c-3.46-1.28-7.43-1.89-12.91-2.22,3.37-6.48.74-14,2-19.15a14.29,14.29,0,0,0-.74-8.36,78.28,78.28,0,0,0,12.32-3.23c.15.51.3,1.06.46,1.65C229.81,74.52,231.59,86.68,226.89,98.9Z" style="fill:#25243d"/><path d="M216,77.53c-1.27,5.14,1.36,12.67-2,19.15l-2.46-.13a37.61,37.61,0,0,0-6.58.23c-.56-1.53,0-3,1.3-6,2-4.67-.2-7.72-2.64-13.25-1.5-3.41-.15-7.38,1.11-9.92.23.17.47.33.72.49,2.28,1.47,5.58,1.72,9.82,1.07A14.29,14.29,0,0,1,216,77.53Z" style="fill:#d0c7ff"/><path d="M206.24,90.78c-1.29,3-1.86,4.47-1.3,6a17,17,0,0,0-10,4.51,34.72,34.72,0,0,0-3,3.33l-1.51,1.82a38.81,38.81,0,0,1-4.37,4.64c3.1-8.87,2.7-17.11.21-23.42-2.75-7-2.73-21.86-.41-29.27S180,46.1,176.69,48.13c-.71.44-1.42,2.16-2.05,4.71-2.32,9.45-3.35,30.18,1.82,37.54,6.08,8.65-.83,24.79-1.89,27.14l-.46.14a48.89,48.89,0,0,1-12.74,1.72c-1.81.05-3.72,0-5.74,0-2.37-.07-4.91-.2-7.62-.37,2.47-4.47,3.6-12,1.81-16.43-2.41-5.89,1-13.4,1.59-18.69s2.43-15.43-2.44-23.15-4.67-14.41-2.84-20.11-7.72-7.51-13.74-4-.48,12.18,3.27,21.83,1.33,26.91,0,32.19-6,12.18-3.27,20a7.11,7.11,0,0,1-1,7.14,85.29,85.29,0,0,0-17.72.36c4-4.09,4.78-7.8,1.75-12.07a28.67,28.67,0,0,1-5.41-16c-.33-6.3,2.16-16.45-.06-22.13s-5.7-14.83-6.31-24.38S99.82,31.88,95,31.51,89.87,37,89.67,42.44s7.11,27.42,5.68,34.12a27.45,27.45,0,0,0,.17,10.85h0a30.21,30.21,0,0,0-13.1,8.11h0c-.12.11-.23.23-.33.34l-.3.32-.32.36-.52.6c-.33.4-.61.74-.81,1l-.19.25-.25.36a.35.35,0,0,0-.06.09l0,0a12.42,12.42,0,0,0-1.81,5.4c-.25,4.17,2.63,7.31,6.69,10.6,5.63,4.57,2-1.52,6.24-14.17a17.5,17.5,0,0,1,5.94-7.94c.51,2.22,1.11,4.63,1.73,7.33,2.4,10.42-4.47,23.1-4.66,23.44h0c-12.55-1.06-17.28-8.81-19.23-22.27s7.64-11.52,5.61-24.93-29.65-19.7-23-11c6.57,8.56,1.53,11.88,1.33,12h0a19.68,19.68,0,0,0-6.8-11.16c-11.38-9-12.8-13.65-14.42-21.46a21.86,21.86,0,0,0-5.47-9.93c.29-.18.59-.36.9-.53,8.54-4.71,18.17-6.82,35.64-7.14l1.79,0c1.41,0,2.87,0,4.38,0,12.28.05,28,.78,49,2a183.38,183.38,0,0,1,18.4,2c0,.13-.1.27-.14.4l.37-.36q3,.48,5.93,1.08c13.27,2.71,26.63,7.23,37.74,15.16a50.23,50.23,0,0,1,7.95,6.89,37.91,37.91,0,0,1,3.18,4.11C198,59.94,199,61.5,200.12,63a21.47,21.47,0,0,0,4.59,4.64c-1.26,2.54-2.61,6.51-1.11,9.92C206,83.06,208.28,86.11,206.24,90.78Z" style="fill:#25243d"/><path d="M298,90.07c-12.79,8.84-6.39,23.76-6.7,28.64s-8.22,3.35-14.62,6.7-8.84,11-26.51-7c-2.39-2.43-4.51-4.6-6.41-6.52a55.93,55.93,0,0,1,10.58,8.55c5.69,6.3,11.57,7.72,15.43,5.89s7.32-4.06,13.61-5.89,5.68-4.87,4.06-12-3-12,3.45-16.86,13.61-12.79,12.19-18.07-10.76-6.1-15.84-12.19-29.75-5.12-29.75-5.12c14.48-2.64,27.28-.86,29.85,2.18,3.35,4,4.27,4,12.49,7.92S310.84,81.24,298,90.07Z" style="fill:#8c9af1"/><path d="M285.86,77.58c11.17,1.42,6.7,5.69-14.42,5.48s-25,.61-7.52,5.49,23.76,11.78,15,10.15-36.35-10.13-37.77-7.09,36,9,39.8,18.67-8.73-5.28-29.24-8.13,8.33,3.66,12.38,12.19c3.71,7.79-14.77-10.85-29-10.57h0a28.25,28.25,0,0,0-8.23-4.87c4.7-12.22,2.92-24.38,1.14-31.31,9.65-3.43,32.18-10.71,41.78-7.88,12.39,3.66-8.93-.61-20.71,7.31s23.15-2,41,2.23-13,1-26,4.47S274.69,76.16,285.86,77.58Z" style="fill:#202035"/><path d="M238.53,153.94c-9.95-8.32-22.74-22.69-32.69-26.88s4.36,7,9.89,10.84-9.28-3.45-17.41-7.11-12.18-7.66-9.95-3.73-2.44,3.78-8.73,0-10.56-6.42-10.36-3.58c.16,2.26-3.68.66-7.91-4.1a48.89,48.89,0,0,0,12.74-1.72c1.28,1,2.65,2.18,3.7,3,2.54,2.1,7.72,5.32,6.7,2.86s7.82,0,14.42,3.46-.91-6,1.83-6-9.45-7.41-9.45-7.41-3.24-1.83.31-3.35c2.16-.93.45-2.63-1.23-3.84l1.51-1.82c7.07,2.21,17.94,6.28,22.67,11.63,7.31,8.25-4.21-6-16.86-5.16s13,4.58,30.47,25.13,22.54,22.8,27.62,25S248.49,162.27,238.53,153.94Z" style="fill:#353f9b"/><path d="M151.41,83.87c-.61,5.29-4,12.8-1.59,18.69,1.79,4.41.66,12-1.81,16.43-4.65-.29-9.84-.72-15.69-1.2l-.89-.06a7.11,7.11,0,0,0,1-7.14c-2.71-7.83,1.93-14.73,3.27-20s3.74-22.53,0-32.19S126.37,40,132.39,36.56s15.57-1.63,13.74,4.06-2,12.39,2.84,20.1S152,78.6,151.41,83.87Z" style="fill:#d0c7ff"/><path d="M113.71,118.09a74.66,74.66,0,0,0-16.32,4.14c-1.25.44-2.46.89-3.65,1.33.19-.34,7.06-13,4.66-23.44-.62-2.7-1.22-5.11-1.73-7.33,7-5.64,15.73-6.71,5.18-6.38a26.2,26.2,0,0,0-6.33,1,27.45,27.45,0,0,1-.17-10.85c1.43-6.7-5.88-28.63-5.68-34.12s.4-11.3,5.28-10.93,8.12,2.4,8.73,12,4.09,18.71,6.31,24.38-.27,15.83.06,22.13a28.67,28.67,0,0,0,5.41,16C118.49,110.29,117.68,114,113.71,118.09Z" style="fill:#d0c7ff"/><path d="M17.06,107.74A64.62,64.62,0,0,1,5.28,102a6.84,6.84,0,0,1-3.49-7.48h0c3.35-1.3,10.49,1.92,10.86,2.09h0a25.73,25.73,0,0,1,2.87,3.57c2.14,3.2,6.09,6,8.56,7.62l0,0C25,108.41,21.27,109.45,17.06,107.74Z" style="fill:#d0c7ff"/><path d="M25.32,108.5a10.6,10.6,0,0,1-5.72,2.79C14.54,109,11.32,107,7.72,107.13c-5,.15-8.43-5.18-7.59-10.58a2.48,2.48,0,0,1,1.66-2.08A6.84,6.84,0,0,0,5.28,102a64.62,64.62,0,0,0,11.78,5.79c4.21,1.71,7.93.67,7.06,0Z" style="fill:#c0baf7"/><path d="M93.74,123.56a70.69,70.69,0,0,1-9.86,3.07l-.37.07c-13.09,2.44-47.4-9.7-56.9-12.71a65.36,65.36,0,0,1-7-2.7,10.6,10.6,0,0,0,5.72-2.79,33.64,33.64,0,0,0,3.21-3.9c-.16.27-3.72,6.77,11.78,10.35,7,1.6,12.26.72,15.81-1.45h0a10.31,10.31,0,0,0,4.7-12.21C59.06,95.89,60.66,86,58.5,77.4c.2-.13,5.24-3.45-1.33-12-6.7-8.73,20.92-2.43,23,11s-7.56,11.48-5.61,24.93S81.19,122.5,93.74,123.56Z" style="fill:#8c9af1"/><path d="M149.82,15.61a61.24,61.24,0,0,0-7.94,15.5,183.38,183.38,0,0,0-18.4-2c-21-1.22-36.69-1.95-49-2a23.51,23.51,0,0,1,5-11,.21.21,0,0,1,.37.19,20.62,20.62,0,0,0-.5,10.57L86.11,14a14.24,14.24,0,0,0,0,12.71l7.77-14a38,38,0,0,0-2.76,13.84l13.09-14.41A45.48,45.48,0,0,0,98,23.21a2,2,0,0,0,.35,2c1.16,1.24,2.86-.12,3.79-1.35Q106,18.68,110,13.47c-2.76,3.79-5.18,8.12-4.09,12.56L120,11.8l-5.68,14.81a70.67,70.67,0,0,0,14.41-14l-7,13.93A154.84,154.84,0,0,0,140.08,14a25.88,25.88,0,0,0-5.22,13.2Z" style="fill:#202035"/><path d="M279.75,4.07h0c-5.7-.77-16.46-.35-32.69,5.88-25.38,9.75-30.86,8.73-38.17,11.37s-5.9-4.67-13.62-2.23-10.35-2.85-14.41-1.42-7.31-4.87-13-2.44-6.1-5.08-12.19-3.25-7.31-4.47-13.81-2.23S131.1,6.9,125.41,8.93s-10.15-3-18.07-.4-4.88-2.44-11.58.2S89.87,6.49,86,9.34s-4.87.51-8.73,3.5-5.48,2.59-6.7,5.64c-1,2.61-2.39,3.88-.45,8.68l-1.79,0c-2.23-6.93-1-7.68,0-11.34s5.28-.41,6.7-4.47,5.69.21,7.72-3.66,5.28.82,8.13-2,6.29.61,8.73-1.41,6.7,2.63,10.76-.21,4.27,3,7.31.61,9.14,3.86,12.8,1.62,12.79,3.25,15.64,1.22,5.48,2.85,10.36,1.83,7.71,4.87,12.18,3.66,6.7,3.24,11.78,2.23,4.27,4.06,12.59,1.83,10.16,2,16.05.2,7.51,1.42,18-3.25,45.34-14,55.7-14C288.15,0,286,1.67,279.75,4.07Z" style="fill:#8c9af1"/><path d="M203.57,48.8a28.15,28.15,0,0,0,17.85-6.31c-.47,4.48-4.94,7.28-8.92,9.38-4.95,2.63-10.18,5.31-15.59,6.52a37.91,37.91,0,0,0-3.18-4.11,50.23,50.23,0,0,0-7.95-6.89C174.67,39.46,161.31,34.94,148,32.23q-3-.6-5.93-1.08a46,46,0,0,1,18-10.73,14.49,14.49,0,0,0-7,12.12l19.37-11.31a48.79,48.79,0,0,0-7.81,12.82l25.11-11.46a24.51,24.51,0,0,0-10.4,14.47l18.66-10.89a69.18,69.18,0,0,0-8,14c6.38,0,11.58-4.75,16.7-8.54A67.4,67.4,0,0,1,233.1,19.81a55.72,55.72,0,0,0-27.15,23,142.92,142.92,0,0,1,19.44-12.46A58.46,58.46,0,0,1,203.57,48.8Z" style="fill:#202035"/><path d="M279.75,4.07c-5.87,2.26-15.34,5.15-25.58,7.91C233.05,17.67,226,39.8,218.43,52.4c-4.8,8-13,10.12-18.31,10.57-1.12-1.47-2.14-3-3.21-4.58,5.41-1.21,10.64-3.89,15.59-6.52,4-2.1,8.45-4.9,8.92-9.38a28.15,28.15,0,0,1-17.85,6.31,58.46,58.46,0,0,0,21.82-18.48A142.92,142.92,0,0,0,206,42.78a55.72,55.72,0,0,1,27.15-23A67.4,67.4,0,0,0,206.86,31.6c-5.12,3.79-10.32,8.56-16.7,8.54a69.18,69.18,0,0,1,8-14L179.45,37.06a24.51,24.51,0,0,1,10.4-14.47L164.74,34.05a48.79,48.79,0,0,1,7.81-12.82L153.18,32.54a14.49,14.49,0,0,1,7-12.12,46,46,0,0,0-18,10.73l-.23,0a61.24,61.24,0,0,1,7.94-15.5l-15,11.55A25.88,25.88,0,0,1,140.08,14a154.84,154.84,0,0,1-18.34,12.56l7-13.93a70.67,70.67,0,0,1-14.41,14L120,11.8,105.9,26c-1.09-4.44,1.33-8.77,4.09-12.56Q106,18.68,102.11,23.9c-.93,1.23-2.63,2.59-3.79,1.35a2,2,0,0,1-.35-2,45.48,45.48,0,0,1,6.26-11.15L91.14,26.47A38,38,0,0,1,93.9,12.63l-7.77,14a14.24,14.24,0,0,1,0-12.71L79.34,26.86a20.62,20.62,0,0,1,.5-10.57.21.21,0,0,0-.37-.19,23.51,23.51,0,0,0-5,11c-1.51,0-3,0-4.38,0-1.94-4.8-.6-6.07.45-8.68,1.22-3.05,2.84-2.64,6.7-5.64s4.87-.65,8.73-3.5,3,2,9.75-.61,3.66,2.44,11.58-.2,12.38,2.44,18.07.4,10,3.05,16.45.82,7.72,4.06,13.81,2.23,6.5,5.69,12.19,3.25,8.93,3.86,13,2.44,6.7,3.86,14.41,1.42,6.3,4.87,13.62,2.23S221.68,19.7,247.06,10C263.29,3.72,274.05,3.3,279.75,4.07Z" style="fill:#353f9b"/><path d="M228,151.51c-21.52-15.24-25.79-14.83-26-11.78s-13.2-8.94-13-5.69-17.06-7-17.06-4.13c0,2.53-10.58-3.75-16.29-10.55,2,0,3.93.07,5.74,0,4.23,4.76,8.07,6.36,7.91,4.1-.2-2.84,4.06-.2,10.36,3.58s11,3.94,8.73,0,1.83.07,9.95,3.73,23,11,17.41,7.11-19.85-15-9.89-10.84,22.74,18.56,32.69,26.88,22.35,9.55,17.27,7.31-10.16-4.46-27.62-25-43.11-24.32-30.47-25.13,24.17,13.41,16.86,5.16c-4.73-5.35-15.6-9.42-22.67-11.63a34.72,34.72,0,0,1,3-3.33c7,.16,18.65,2.66,27.34,15.89,13.2,20.11,18.89,35.75,47.12,48.55S249.5,166.74,228,151.51Z" style="fill:#8c9af1"/><path d="M132.39,175.83c-13.71-7.83-17.63-17.78-15.41-16.1,2.54,1.93,5.18.91,2.13-1s-6.49-8.63-1.58-5.89,1.18-1.32-2.47-4.37-7.32-10.56-.41-6.7,0-4.27-6.11-9.26-1.61-4.35,3.15-2.59c3,1.11-.8-2.3-4-4.93-6.22-1.51-10.32-2.75-10.32-2.75-1.25.44-2.46.89-3.65,1.33h0a70.69,70.69,0,0,1-9.86,3.07l-.37.07A49.12,49.12,0,0,0,101.44,157c17.88,14.42,36.36,27.22,38.6,26.41C141.11,183,137.07,180.46,132.39,175.83Zm-24.75-18.28c-9.14-6.4-16.91-17.67-19.34-25.74s6.55-3.51,6.55-3.51c7.92,3.81,9,4.57,8.53,13.1S116.78,164,107.64,157.55Z" style="fill:#353f9b"/><path d="M132.39,175.83c-13.71-7.83-17.63-17.78-15.41-16.1,2.54,1.93,5.18.91,2.13-1s-6.49-8.63-1.58-5.89,1.18-1.32-2.47-4.37-7.32-10.56-.41-6.7,0-4.27-6.11-9.26-1.61-4.35,3.15-2.59c3,1.11-.8-2.3-4-4.93l3.08.73c7.92,1.83,7.92,8.74,9.75,27.74C121.49,163.33,127.32,170.81,132.39,175.83Z" style="fill:#8c9af1"/><path d="M138.92,179a60.23,60.23,0,0,1-6.53-3.2Z" style="fill:#d0c7ff"/><path d="M24.09,107.74c-2.47-1.58-6.42-4.42-8.56-7.62a25.73,25.73,0,0,0-2.87-3.57h0a27.78,27.78,0,0,0-8.28-5.77C.51,89-.92,88.55.91,85.5a7.87,7.87,0,0,1,2.65-2.62,18.72,18.72,0,0,1,11,8.51c2.23,4.47,3.35,2.44,7.72,6.8A8.56,8.56,0,0,1,24.09,107.74Z" style="fill:#9a89b8"/><path d="M96.67,92.79a17.5,17.5,0,0,0-5.94,7.94c-4.26,12.65-.61,18.74-6.24,14.17-4.06-3.29-6.94-6.43-6.69-10.6,5.43,8.06,6,2.9,6.49-1.43.5-4.57,6-4.47,3.24-7.72-1.32-1.58-3.36-.82-5.11.38a30.21,30.21,0,0,1,13.1-8.11h0a26.2,26.2,0,0,1,6.33-1C112.4,86.08,103.69,87.15,96.67,92.79Z" style="fill:#353f9b"/><path d="M84.29,102.87c-.49,4.33-1.06,9.49-6.49,1.43a12.42,12.42,0,0,1,1.81-5.4l0,0a.35.35,0,0,1,.06-.09l.25-.36.19-.25c.2-.27.48-.61.81-1l.52-.6.32-.36.3-.32c.1-.11.21-.23.33-.34h0c1.75-1.2,3.79-2,5.11-.38C90.28,98.4,84.79,98.3,84.29,102.87Z" style="fill:#202035"/><path d="M107.64,157.55c-9.14-6.4-16.91-17.67-19.34-25.74s6.55-3.51,6.55-3.51c7.92,3.81,9,4.57,8.53,13.1S116.78,164,107.64,157.55Z" style="fill:#4453aa"/><path d="M198.93,127c-6.6-3.44-15.43-5.91-14.42-3.46s-4.16-.76-6.7-2.86c-1.05-.86-2.42-2-3.7-3l.46-.14a30.93,30.93,0,0,0,8.32-4,29.32,29.32,0,0,0,3.13-2.44,39.64,39.64,0,0,0,4.37-4.65c1.68,1.21,3.39,2.91,1.23,3.84-3.55,1.52-.31,3.35-.31,3.35S203.5,121,200.76,121,205.53,130.45,198.93,127Z" style="fill:#202035"/><path d="M42.82,61.59a8.91,8.91,0,1,0,8.92,8.91A8.91,8.91,0,0,0,42.82,61.59Zm0,15.92a7,7,0,1,1,7-7A7,7,0,0,1,42.82,77.51Z" style="fill:#202035"/><path d="M42.82,63.49a7,7,0,1,0,7,7A7,7,0,0,0,42.82,63.49Zm0,12.49a5.48,5.48,0,1,1,5.49-5.48A5.48,5.48,0,0,1,42.82,76Z" style="fill:#2a3887"/><path d="M45.48,70.5a2.66,2.66,0,1,1-2.66-2.66A2.67,2.67,0,0,1,45.48,70.5Z" style="fill:#202035"/><path d="M44,68.93a1.72,1.72,0,1,1,1.72,1.72A1.72,1.72,0,0,1,44,68.93Z" style="fill:#eae3dd"/></g></g></svg>