<svg width="167" height="72" viewBox="0 0 167 72" fill="none" xmlns="http://www.w3.org/2000/svg">
<path fill-rule="evenodd" clip-rule="evenodd" d="M83.1534 30.8538C80.0446 30.3742 77.7664 30.0228 75.3285 28.5753C73.4479 27.2203 72.3692 26.1891 71.49 25.1339C71.0535 24.61 70.992 23.9982 70.9373 23.4543C70.8563 22.6478 70.7902 21.9906 69.5389 21.9906C67.0148 22.1053 65.7957 22.9783 64.2123 24.1123C62.9186 25.0387 61.3818 26.1393 58.6916 27.1427C56.9633 26.8934 55.526 26.7598 54.5787 26.7598C53.0099 26.7598 51.5267 27.126 50.2099 27.7777C48.2827 28.1839 43.7857 31.4337 40.9697 33.9127C40.3988 34.2965 39.6122 34.5231 38.8904 34.7311L38.8903 34.7311C37.9715 34.9959 37.1574 35.2304 37.026 35.7207C36.9039 36.1762 37.2192 36.7774 37.814 37.3405C37.4521 37.344 37.1931 37.4304 37.1276 37.6424C36.9684 38.1572 38.149 39.0292 39.2237 39.5063C39.4307 39.5982 39.9194 39.8539 40.539 40.1782C41.9707 40.9273 44.1015 42.0422 45.0716 42.3475C46.5349 43.2234 47.7567 43.877 48.0922 44.0544C49.6355 45.4026 51.6025 46.2778 53.7673 46.4541C55.9716 48.4336 59.6038 50.5574 64.0314 50.1724C67.8188 49.843 66.5144 48.6242 64.5291 46.7692C64.057 46.3281 63.5464 45.851 63.0566 45.3414C68.0761 44.3276 73.9263 42.7046 77.71 40.7315C78.6864 40.3485 79.6239 39.9599 80.4673 39.5797C82.2445 39.145 84.8633 38.7064 87.5774 38.2518L87.5774 38.2518C93.3796 37.28 99.6173 36.2353 98.9996 34.9999C91.5384 32.1471 86.7806 31.4132 83.1534 30.8538Z" fill="#D9D9D9" fill-opacity="0.5"/>
<path fill-rule="evenodd" clip-rule="evenodd" d="M123 35.9189L122.037 35.6561C119.681 34.1572 111.766 31.5321 104.589 29.1519C98.568 27.1552 93.0671 25.3308 91.8032 24.488C86.7869 21.1434 84.3182 18.8932 82.3892 16.5781C81.6122 15.6456 81.5028 14.5566 81.4055 13.5885C81.2612 12.153 81.1437 10.9832 78.9165 10.9832C74.4239 11.1874 72.2539 12.7413 69.4355 14.7596C67.1329 16.4086 64.3974 18.3676 59.6087 20.1536C56.5326 19.7099 53.9743 19.4722 52.2881 19.4722C49.4957 19.4722 46.8555 20.1241 44.5116 21.2841C41.0808 22.0084 33.0797 27.7904 28.0681 32.202C27.0517 32.8862 25.6506 33.2899 24.3646 33.6604C22.7291 34.1317 21.2801 34.5492 21.0463 35.4218C20.829 36.2325 21.3901 37.3026 22.4487 38.3049C21.8044 38.311 21.3432 38.4647 21.2264 38.8422C20.9431 39.7584 23.0446 41.3105 24.9573 42.1597C25.3257 42.3233 26.1956 42.7785 27.2985 43.3556L27.2985 43.3556L27.2986 43.3556C29.8485 44.6899 33.644 46.6759 35.3692 47.2178C37.9688 48.7739 40.1399 49.9355 40.7411 50.2533C43.8277 52.9506 47.8671 54.5847 52.2881 54.5847C53.2697 54.5847 54.547 54.5042 56.0499 54.3493C59.9523 57.9216 66.5014 61.8409 74.514 61.1442C81.2553 60.558 78.9335 58.3886 75.3999 55.0869C74.265 54.0265 73.0051 52.8492 71.8803 51.5701C79.6344 49.7751 87.8292 47.2761 93.4569 44.3419C95.2086 43.6549 96.89 42.9578 98.4006 42.2759C101.211 41.5947 104.929 41.0246 108.624 40.4579C116.404 39.265 124.084 38.0872 123 35.9189Z" fill="#D9D9D9" fill-opacity="0.5"/>
<path fill-rule="evenodd" clip-rule="evenodd" d="M109.455 26.0926C113.727 26.8578 120.114 25.5667 124.005 23.6258C137.999 19.5748 146.641 11.203 146.641 11.203C154.202 7.96226 169.412 11.1235 166.674 15.7941C165.658 17.5279 162.496 19.9975 158.935 22.7792C152.968 27.44 145.879 32.9773 145.879 37.3989C145.879 41.1208 152.746 43.9712 158.541 46.3768C162.059 47.8372 165.182 49.1336 166.134 50.3616C169.583 54.8111 153.711 59.5436 149.12 57.6532C149.12 57.6532 136.096 53.0823 124.005 49.2813C122.698 48.8706 121.402 48.4797 120.134 48.0975C117.171 47.2038 114.364 46.3571 111.937 45.4123C111.385 47.4693 114.41 50.7161 117.21 53.7216C120.608 57.3678 123.674 60.6587 119.62 61.0391C109.921 61.949 96.4587 55.2803 91.3614 51.9468C87.7505 53.2516 83.8736 54.4581 79.9308 55.5484C81.8409 58.2062 84.4044 60.6014 86.6258 62.677C91.5721 67.2987 94.8222 70.3355 85.3857 71.156C73.2026 72.2154 63.4365 65.6509 58.2103 60.3663C52.0579 61.4051 46.884 61.974 43.7977 61.974C37.6103 61.974 31.957 59.6874 27.6367 55.9131C26.8007 55.4713 23.7564 53.8428 20.1105 51.6603C17.6936 50.8998 12.3848 48.122 8.81764 46.2554L8.81761 46.2554L8.81754 46.2554C7.27366 45.4475 6.05605 44.8104 5.54036 44.5814C2.86286 43.3927 -0.0787272 41.22 0.317854 39.9376C0.481232 39.4093 1.12643 39.1941 2.02798 39.1854C0.546094 37.7825 -0.239326 36.2845 0.064767 35.1496C0.392069 33.9281 2.42046 33.3436 4.70982 32.684L4.70984 32.684C6.50845 32.1658 8.46813 31.6012 9.89058 30.6448C16.9067 24.4683 28.1111 16.3714 32.9127 15.3593C36.1937 13.7358 39.8891 12.8233 43.7977 12.8233C46.158 12.8233 49.7391 13.156 54.0451 13.7772C60.7479 11.2772 64.5769 8.53516 67.8 6.22698L67.8001 6.22694L67.8001 6.2269C71.7453 3.40166 74.7828 1.22644 81.0716 0.940674C84.1892 0.940674 84.3538 2.57812 84.5557 4.58748C84.6919 5.94268 84.8451 7.46706 85.9327 8.77237C88.6329 12.0131 92.0885 15.163 99.1104 19.8448C100.513 20.7797 102.141 21.7145 103.829 22.683L103.829 22.6831C105.709 23.7624 107.662 24.8833 109.455 26.0926Z" fill="#D9D9D9" fill-opacity="0.5"/>
</svg>
