<svg xmlns="http://www.w3.org/2000/svg" viewBox="0 0 300.7 167.99"><title>Asset 12</title><g id="Layer_2" data-name="Layer 2"><g id="Ñëîé_2" data-name="Ñëîé 2"><path d="M135.5,142.43c-1.35.13-2.7.21-4.07.21q3.21,0,6.24-.06Zm-13.57-54c.37-.11.71-.2,1-.28C122.64,88.26,122.3,88.35,121.93,88.46ZM105.2,106.81a3.27,3.27,0,0,0,.34-.48l.09-.13.07-.06s0,0,0,0a.24.24,0,0,1,.09-.06A.57.57,0,0,1,106,106l.08,0A1.21,1.21,0,0,0,105.2,106.81Zm20.59-12.2.85-.2Zm-23.54,17-.28.25a4.35,4.35,0,0,1,2.4-.86A2.49,2.49,0,0,0,102.25,111.62Zm.86,1-.09,0,.63.19Z" style="fill:#d8bcd6"/><path d="M298.61,42c-14.22-4.59-36-.54-24.46-3.17a83,83,0,0,1,21.11-1.67C296,38.55,297.83,40.4,298.61,42Z" style="fill:#b8c6dd"/><path d="M298.19,44.54a1.37,1.37,0,0,0-.2.13c-24.49-7.44-55.74,4.51-37.28-4.67,13-6.47,27.28-7.07,35.14-6.79.86.78.93,1.45-.12,1.87s-.94,1.13-.47,2.05a83,83,0,0,0-21.11,1.67c-11.5,2.63,10.24-1.42,24.46,3.17C299.13,43,299.19,43.93,298.19,44.54Z" style="fill:#ced9ef"/><path d="M299.55,56.77C285,52.6,263.09,54,269.94,52.33c6.34-1.55,23.76-.56,29.82-.15a1,1,0,0,1-.78.58C297.3,53.22,298.48,55,299.55,56.77Z" style="fill:#b8c6dd"/><path d="M300.63,59.76c-21.13-8.12-53.78-3-41.8-8.75,9.81-4.67,30.11-3.11,39.57-2,.78,1.27,1.62,2.48,1.36,3.21-6.06-.41-23.48-1.4-29.82.15-6.85,1.68,15.05.27,29.61,4.44C300.27,58,300.93,59.09,300.63,59.76Z" style="fill:#ced9ef"/><path d="M297.13,76.41a4.65,4.65,0,0,1,1.12,2c-29.12-5.47-51.17-23-38.55-18.31,10.47,3.87,31.54,5.07,39.92,5.54a8.69,8.69,0,0,1,.41,2.22c-4.86.28-18.19.83-24.83-.86-7.69-2,2,5,21.42,8.8A5,5,0,0,0,297.13,76.41Z" style="fill:#ced9ef"/><path d="M292.58,89c-3.16,0,.82,4.58-1.48,5.46h0c-25.82-7.48-30.75-17.1-24-13.58,5.43,2.84,20.56,5.59,26.77,6.63C294,88.37,293.77,89,292.58,89Z" style="fill:#b8c6dd"/><path d="M291.09,94.48a2.78,2.78,0,0,1-1,.14c-1.13,0-1.5.49-1.55,1.2-43.11-17-33-25.78-26.91-20.37,4.76,4.19,22.37,7.5,31.69,9-.23.79.33,2.06.46,3.07-6.21-1-21.34-3.79-26.77-6.63C260.34,77.38,265.27,87,291.09,94.48Z" style="fill:#ced9ef"/><path d="M288.87,100.18c-.26.74-1,1.26-2.6,1.3l-.27,0h0c-5.23-1.87-16.66-6.07-20.65-8.32-4.88-2.74-7.32-.28,14.89,11.1a14.27,14.27,0,0,1-1.36.86c-6.6-3.74-20.61-12.07-26.14-18.4C245.85,78.87,270.5,95.63,288.87,100.18Z" style="fill:#ced9ef"/><path d="M300.63,59.76a1.07,1.07,0,0,1-.82.54c-1.89.39-.85,3-.19,5.32-8.38-.47-29.45-1.67-39.92-5.54-12.62-4.67,9.43,12.84,38.55,18.31.74,2.46,0,5.64-3.22,5.37-1.06-.09-1.53.21-1.67.7-9.32-1.51-26.93-4.82-31.69-9-6.14-5.41-16.2,3.32,26.91,20.37-.09,1.22.74,3.1.29,4.36-18.37-4.55-43-21.31-36.13-13.44,5.53,6.33,19.54,14.66,26.14,18.4-2.1,1.17-4.76,1.76-9.42,0C259.3,101.28,250.55,93.57,245.29,88c13.58-22.54,8.11-41.31,4.57-49.22l.34-.17c9.1-4.9,21.19-12.26,30.65-10.68,6.62,1.1,13,3.49,15,5.31-7.86-.28-22.16.32-35.14,6.79-18.46,9.18,12.79-2.77,37.28,4.67-1.43,1-.56,2.72.41,4.3-9.46-1.07-29.76-2.63-39.57,2C246.85,56.73,279.5,51.64,300.63,59.76Z" style="fill:#d8bcd6"/><path d="M135.5,142.43c-1.35.13-2.7.21-4.07.21h0l-1.35,0c-12.34-.29-23.18-.87-32.74-1.69-5.44-.46-10.47-1-15.12-1.61-26-3.42-40.37-9.05-50.22-15.61,0,0,21.63,6.92,34.77-5.69s17.34-30.1,14.71-35.8c-1.86-4-4-6.4-7.18-7.71.33,0,13.48,2.41,13,14S81.74,113,79.36,117,63.34,137.15,135.5,142.43Z" style="fill:#b3a7c6"/><path d="M90.43,37C70.77,43,64.37,57.32,60.78,51.49c-2.26-3.66-7.17-7.31-10.51-9.5A227.67,227.67,0,0,1,115,23.71C121.69,32.28,108.79,31.44,90.43,37Z" style="fill:#c8bcd8"/><path d="M249.86,38.75c-9.07,4.67-21.13,1.93-29.09,1.93a9.32,9.32,0,0,1-3.16-.69h0c-9.19-3.35-27.39-17.92-71.09-18.23a232.2,232.2,0,0,0-26.26,1.32c-1.78.2-3.55.41-5.3.63,6.74,8.57-6.16,7.73-24.52,13.33C70.77,43,64.37,57.32,60.78,51.49c-2.26-3.66-7.17-7.31-10.51-9.5-2.35,1.07-4.57,2.15-6.65,3.22,12.66,3.65,12,14.92,13.46,20.25,1.64,6.05,6.5,7.1,12.55,7.88a18.41,18.41,0,0,1,4.64,1.16h0c.33,0,13.48,2.41,13,14S81.74,113,79.36,117s-16,20.2,56.14,25.48c8.23-.83,16.08-4,23.78-6.88,9-3.42,18.05-7.21,25.6-13.33a72,72,0,0,0,12.53-13.62c5.53-7.53,9.89-18,17.5-23.71.17-.14.36-.27.54-.4l.56-.36h0l.57-.35.57-.32c.39-.2.78-.39,1.18-.56l.8-.33.8-.28c.27-.09.53-.18.81-.25l.73-.2.58-.13.53-.11c.34-.07.69-.13,1-.18l.41-.06.81-.09.41,0,.81-.06.8,0h.79l.94,0H229l.39,0,.3,0,.51,0,.6.05.67.07.66.08.36,0,.36.06.39.06.38.06.68.12.39.08.66.14.32.07.45.11.9.23h0l.2.06.36.1.16,0,.12,0,.17,0,.1,0,.19.06.38.12.06,0c2.17.78,4,2.4,6.48,5C258.87,65.43,253.4,46.66,249.86,38.75ZM237.94,72.2c-12.61,5.26-16.11,1.9-30.13,12.69-9.07,7-41.55,10.83-69.56,9.69.36,1.83-.37,3.81,1.08,4.6,1.93,1,.35,3-1.57,4.9s-1,1.75-1.23,7.88-10.86,14.54-12.26,13.63-2.63.21-4,1.09-3,2.45-5.61.85-3.5-1.21-5.43-.68-2.8,1.23-5.08,0-5.08-3-6.83-3c-1,0-4.08-3.11-6.87-6.92a36.54,36.54,0,0,1-4.69-8.14c-1.77-4.76,2.85-7.71,6.47-9.66l.64-.34c2.66-1.41,5.36-2.73,8.08-4,2.48-1.2,5-2.37,7.46-3.58l.75-.36A46.16,46.16,0,0,1,101,88C78,77,74,56.1,114.29,46.64c0,0,36.78-9.46,76.71-4.56s31.17,8.06,43.78,6S250.55,67,237.94,72.2Z" style="fill:#c2b4d3"/><path d="M13.81,111.52a28.6,28.6,0,0,1-7-4.71c-1.15-1-2.91-2.4-3.2-4-.67-3.81,6.23-2,7.69-.81A24.67,24.67,0,0,1,17,109.46l.66,1.24C19.08,113.52,14.81,112,13.81,111.52ZM26,74.31c-1.23-5.08-1.41-11.21,3.5-15.94s10-2.1,10-2.1c4.21,3.15,4.21,4.73,1.06,8.65S27.24,79.39,26,74.31ZM40.56,93.75a6.31,6.31,0,1,1,6.3-6.31A6.3,6.3,0,0,1,40.56,93.75ZM81.45,82.21c-1.86-4-4-6.4-7.18-7.71h0a18.41,18.41,0,0,0-4.64-1.16c-6-.78-10.91-1.83-12.55-7.88-1.45-5.33-.8-16.6-13.46-20.25-2.58,1.32-4.95,2.62-7.09,3.88C16.21,61,13,84,12,83.76c0,0,10.69,6.83,14.19,13.14s5.43,4.38,9.28,7.88S37.05,112,32,112s-9.11.18-11.91-4.55C17.48,103.05,9.11,98.11.7,97.83-.69,103.7-.21,110,4,113.89c9.81,9.11,28,9.81,28,9.81S53.6,130.62,66.74,118,84.08,87.91,81.45,82.21ZM75.85,101c-2,3.94-4.6,8-8,10.88A13.83,13.83,0,0,1,66,113.23c-1.3.77-4.49,2.09-5.11-.18-.34-1.27.37-3.06.68-4.27.84-3.23,2.62-7.61,1.25-10.91-1.93-4.65-.53-8.26,1.92-9.69s6.31-4.06,6.48-7,7-2.7,8.06,6.3C79.83,92.1,77.93,97,75.85,101Z" style="fill:#ead3e9"/><path d="M35.47,104.78c-3.85-3.5-5.78-1.58-9.28-7.88S12,83.76,12,83.76c-4.13-1-9.42,6.11-11.3,14.07,8.41.28,16.78,5.22,19.36,9.58C22.86,112.14,26.89,112,32,112S39.33,108.29,35.47,104.78Zm-.92,3a2,2,0,0,1-1.43,0,22.19,22.19,0,0,1-7.53-3,26,26,0,0,1-5.06-5.21,24.45,24.45,0,0,0-8.17-6.63c-6.7-3.44-3.94-7.08,0-6l.21.07c3.48,1.17,6.36,5.15,8.57,7.88,1,1.2,1.92,2.41,2.77,3.69.09.14.18.27.28.4,1.78,2.49,4.46,3.53,7,5C31.87,104.24,36.48,106.75,34.55,107.76Z" style="fill:#c2b4d3"/><path d="M40.56,81.14a6.31,6.31,0,1,0,6.3,6.3A6.3,6.3,0,0,0,40.56,81.14Zm0,8.84a3.11,3.11,0,1,1,3.1-3.11A3.12,3.12,0,0,1,40.56,90Z" style="fill:#f2f3f4"/><path d="M43.66,86.87a3.11,3.11,0,1,1-3.1-3.11A3.1,3.1,0,0,1,43.66,86.87Z" style="fill:#2b2b2b"/><path d="M208.6,30c5.44-5.09,18.66-10.35,26.85-13.29-1.3.91-1.87,1.69-1.12,2.25a1.54,1.54,0,0,1,.72,1.17c-23.21,9.09-23.47,15.34-19.22,12,3-2.43,12.71-6,18.49-8.06a10.72,10.72,0,0,0-1.29,4c-.69,4.48-15,11.7-15.42,11.92h0c-9.19-3.35-27.39-17.92-71.09-18.23a232.2,232.2,0,0,0-26.26,1.32c1.23-1.31,2.48-2.53,3.75-3.69,7.07,1.38,14.92.89,10.39-.69a9.24,9.24,0,0,1-5-3.78c1.67-1.24,3.36-2.37,5.06-3.41A14,14,0,0,0,140,18.63c4.77,2.84-1.49-3.42-1.32-9.51.88-.45,1.75-.87,2.63-1.28,1.3,3.27,3.14,9.2,6.57,11.5,5.34,3.57-1.51-5.8-.59-13.94,2.36-.84,4.71-1.54,7-2.11-1,3-1.63,8-.25,15.41,0,0,1.44,4.07,3.15-3.41,1.16-5.09,2.2-9.87,4.51-13.48,1.38-.21,2.73-.38,4.05-.52-5.55,14.56,2.21,23.07,2.21,16,0-4.56,3-11.56,5.42-16.45,2.81-.06,5.38,0,7.66.12-7.43,14.13-1.88,29.68-1.12,20.14.57-7.26,5.16-15.62,7.63-19.65a17.63,17.63,0,0,0,3.92.2,3.83,3.83,0,0,1,1.16-.26C182.4,16.76,190.23,29.84,191,20c.52-6.72,5.95-13.76,9.55-17.74h0c.66.15,1.68.07,3.57-.81C206.94.16,210.87.19,216,1.06c-17.15,9-20.52,19.46-20.28,22.63.26,3.42,2.63,0,2.63,0,8.77-12,21.25-18.63,26-20.83l2.73.69a23.11,23.11,0,0,0,2.66.52c-3.56,4.34-10.5,6.73-19.3,11.87-11.69,6.83-10.83,15.61-8.54,13.14s12.74-14.32,24.37-18a73.32,73.32,0,0,0,17.36-8.24c4.17-1.1,7.62-2.47,9.72-2.79,3.19-.49,2.08,2.8-.8,6C210,13.47,200.55,37.53,208.6,30Z" style="fill:#d8bcd6"/><path d="M234.32,24c-5.78,2-15.44,5.63-18.49,8.06-4.25,3.37-4-2.88,19.22-12,0,1.42-2.42,2.84-1.32,3.39C234.24,23.77,234.38,23.84,234.32,24Z" style="fill:#ced9ef"/><path d="M252.55,6.07a21.32,21.32,0,0,1-4.45,3.79c-3.81,2.38-9.89,4.92-12.65,6.85C227.26,19.65,214,24.91,208.6,30,200.55,37.53,210,13.47,252.55,6.07Z" style="fill:#ced9ef"/><path d="M243.63,2.84a73.32,73.32,0,0,1-17.36,8.24c-11.63,3.68-22.07,15.53-24.37,18s-3.15-6.31,8.54-13.14c8.8-5.14,15.74-7.53,19.3-11.87A35.05,35.05,0,0,0,243.63,2.84Z" style="fill:#ced9ef"/><path d="M224.35,2.86c-4.74,2.2-17.22,8.81-26,20.83,0,0-2.37,3.42-2.63,0C195.49,20.52,198.86,10,216,1.06,218.51,1.48,221.28,2.1,224.35,2.86Z" style="fill:#ced9ef"/><path d="M200.55,2.26c-3.6,4-9,11-9.55,17.74-.77,9.84-8.6-3.24,1.68-18.64,1.94-.19,4.23.7,5.68.26C199.37,1.32,199.62,2,200.55,2.26Z" style="fill:#ced9ef"/><path d="M187.6,1.42c-2.47,4-7.06,12.39-7.63,19.65-.76,9.54-6.31-6,1.12-20.14C183.69,1.06,185.89,1.26,187.6,1.42Z" style="fill:#ced9ef"/><path d="M173.43.81C171,5.7,168,12.7,168,17.26c0,7.1-7.76-1.41-2.21-16h0C168.48,1,171,.87,173.43.81Z" style="fill:#ced9ef"/><path d="M161.75,1.81c-2.31,3.61-3.35,8.39-4.51,13.48-1.71,7.48-3.15,3.41-3.15,3.41-1.38-7.41-.71-12.45.25-15.41C156.87,2.66,159.35,2.18,161.75,1.81Z" style="fill:#ced9ef"/><path d="M147.91,19.34c-3.43-2.3-5.27-8.23-6.57-11.5,2-.92,4-1.73,6-2.44C146.4,13.54,153.25,22.91,147.91,19.34Z" style="fill:#ced9ef"/><path d="M140,18.63a14,14,0,0,1-5.57-7.12c1.41-.86,2.83-1.65,4.25-2.39C138.54,15.21,144.8,21.47,140,18.63Z" style="fill:#ced9ef"/><path d="M124,19.39a66.55,66.55,0,0,1,5.4-4.47,9.24,9.24,0,0,0,5,3.78C138.92,20.28,131.07,20.77,124,19.39Z" style="fill:#ced9ef"/><path d="M233.87,85.35s-13.32,7.38-18.44,19.43-16.11,26.78-52.45,34c32.05-9.29,42.57-32.58,46.93-39.94,5.61-9.46,10.16-13.31,18.92-15.41A47.33,47.33,0,0,1,233.87,85.35Z" style="fill:#d1c7e0"/><path d="M269,108.55c-.52,1.57-5.25,7.35-8.4,7.62s-1.58,3.67-5.34,5-3.07,1.57-6.22,5.52-20.76,11-29.16,13.39-5.26,4.21-25.22,9.2c-11.22,2.8-26.12.26-37-2.51h0c-5.32-6.63,2.86-4,8.94-1.17,7.35,3.42,6.83,2.36,3.54-3.94s4.08,3.28,12.09,6.3,3.94.53.26-5.3-2.76-5.6,5.26.6,10.5,2.6,5.25-3.94-3.94-7.12,4.73,0,8.8,3.39,3.86-1.73-8.2-11.17.6-3.94,12.09,5.38,7.49,1.87-14.05-17.64-2.76-7.29,16.29,8.57,7.36,1.61-8.83-10.15.26-3.15,18,5.91,7.49.26-13.53-14.19-.79-5.39,16.42,7.75,5.78-.65-16.42-16.29-4.6-6.84,22.86,10.91,16,7.75S206,94,224.63,106.81s28.79,15.08,14.71,6.65S212.28,89,227.78,101.33s32.14,15,19.18,9.23-28.9-25-13.93-13.7,34.55,16.94,21.55,11.08-23-19-18.39-15.15c2.9,2.4,8.67,4.48,12.54,5.69l.85,1.14C255.36,107.23,269.55,107,269,108.55Z" style="fill:#ced9ef"/><path d="M233,96.86c-15-11.3,1,8,13.93,13.7s-3.68,3.12-19.18-9.23-2.53,3.7,11.56,12.13,3.94,6.19-14.71-6.65,7,11.85,13.79,15-4.2,1.71-16-7.75-6-1.57,4.6,6.84,7,9.45-5.78.65-9.72-.26.79,5.39,1.61,6.73-7.49-.26-9.19-3.81-.26,3.15,3.94,8.73-7.36-1.61-1.84,3.78,2.76,7.29,1.32,5.35-7.49-1.87-5.54-1.19-.6,3.94,4.81,8.84-3.86,1.73-10-6.55-4.73,0,2.76,10.13-5.25,3.94-8.94-6.42-5.26-.6,7.75,8.33-.26,5.3-15.37-12.61-12.09-6.3,3.81,7.36-3.54,3.94c-6.08-2.82-14.26-5.46-8.94,1.17A152.65,152.65,0,0,1,143,142.29a99.2,99.2,0,0,0,20-3.52c36.34-7.21,47.33-22,52.45-34s18.44-19.43,18.44-19.43c7.23,3.26,10.48,7.36,14.86,13.13-3.87-1.21-9.64-3.29-12.54-5.69-4.6-3.81,5.38,9.28,18.39,15.15S248,108.15,233,96.86Z" style="fill:#d8bcd6"/><path d="M159.47,166.34c-7.09-5.51-12.34-5.78-36-6.56s-41.29-20.47-41.29-20.47c4.65.61,9.68,1.15,15.12,1.61,9,21.22,40,15.31,52.64,18.2S166.57,171.86,159.47,166.34Z" style="fill:#d8bcd6"/><path d="M105.42,104.8v0a9.24,9.24,0,0,1-.06,1.05,6.37,6.37,0,0,1-.16.94h0a8.3,8.3,0,0,1-.29,1,6.77,6.77,0,0,1-.42,1,9,9,0,0,1-.83,1.32,3.75,3.75,0,0,1-.26.33c-.1.13-.2.25-.31.37a11.18,11.18,0,0,1-.84.85l-.28.25s0,0,0,0l-.37.3a11.6,11.6,0,0,1-1.2.87c-.35.23-.73.46-1.13.68s-1,.56-1.6.82c-.33.16-.67.31-1,.46l-1.36.52q-.51.19-1,.36l-.85.27c-.59.18-1.2.35-1.84.52l-1.08.26a36.54,36.54,0,0,1-4.69-8.14c-1.77-4.76,2.85-7.71,6.47-9.66l.64-.34c2.66-1.41,5.36-2.73,8.08-4v0l0,0s0,0,0,0l.2.22.18.22c.14.17.31.37.49.61s.39.51.6.81.39.57.59.9l.13.21c.08.14.16.28.25.42.24.42.48.88.71,1.36q.18.41.36.84c.13.31.24.63.34,1,0,.15.1.3.14.45s.13.48.19.72.14.75.19,1.14h0c0,.05,0,.09,0,.14A7.56,7.56,0,0,1,105.42,104.8Z" style="fill:#c8bcd8"/><path d="M103.65,112.82l-.63-.19.09,0Z" style="fill:#d8bcd6"/><path d="M123,88.18c-.33.08-.67.17-1,.28C122.3,88.35,122.64,88.26,123,88.18Z" style="fill:#d8bcd6"/><path d="M106.85,123.87l-.2,0-.21,0a1.06,1.06,0,0,1-.23,0,10.24,10.24,0,0,1-1.38-.42,2.12,2.12,0,0,1-.29-.11,20.26,20.26,0,0,1-2.17-1c-.27-.14-.55-.28-.83-.44l-.89-.5-.53-.32-.76-.47a1.1,1.1,0,0,1-.14-.09l-.5-.32-1-.69c-.17-.13-.35-.25-.54-.38l-.55-.39-.56-.41-1.22-.91a3.89,3.89,0,0,0-3.3-.63c.64-.17,1.25-.34,1.84-.52l.85-.27q.54-.16,1-.36a3,3,0,0,1,2.6.3h0l.34.22.81.54c3.3,2.17,6.58,4.31,7.87,5.33.09.06.16.13.23.18C108.46,123.27,108.31,124,106.85,123.87Z" style="fill:#d8bcd6"/><path d="M103.65,112.82l-.63-.19.09,0Z" style="fill:#d8bcd6"/><path d="M121.27,119.5a.83.83,0,0,1-.17.15l-.11.06a1.81,1.81,0,0,1-.28.12,7,7,0,0,1-2.52.15l-.64-.06a30.11,30.11,0,0,1-4-.8L113,119c-.53-.14-1.09-.31-1.67-.49l-.65-.19a95.73,95.73,0,0,1-9.91-3.87,3.53,3.53,0,0,0-2.93,0l-.21.1c.57-.26,1.1-.53,1.6-.82s.78-.45,1.13-.68a3.28,3.28,0,0,1,2.64-.43l.63.19.64.19a.16.16,0,0,1,.09,0l2,.58,2,.58.65.2.28.07,1,.29,1.32.39,1.4.42.94.29c1.25.37,2.38.72,3.34,1l.42.14.63.2.39.13.36.13.21.07.08,0,.28.1.33.13a4.47,4.47,0,0,1,1.13.67l.09.09C121.44,118.93,121.5,119.25,121.27,119.5Z" style="fill:#d8bcd6"/><path d="M112.83,112.38l-1.11-.15c-2-.28-4.15-.63-6.54-1.07l-.8-.15h0a2.49,2.49,0,0,0-2.12.61,11.18,11.18,0,0,0,.84-.85c.11-.12.22-.25.31-.37a3.75,3.75,0,0,0,.26-.33,9,9,0,0,0,.83-1.32,1.5,1.5,0,0,1,1.57-.8l1.57.24.7.1,2.44.35,1.22.17,3.24.44.82.12,1.68.22,2.34.32,1.41.2.55.08,1,.15.4.06.59.09.31.05.15,0,.48.08C130.31,111.62,129.21,114.59,112.83,112.38Z" style="fill:#d8bcd6"/><path d="M130.8,103.54l-.16.08a3.44,3.44,0,0,1-.4.15l-.5.15-.5.14-.3.06a2.71,2.71,0,0,1-.41.09l-.18,0-.66.13-.45.08-.76.13c-.64.1-1.34.2-2.1.29l-.91.11-.82.1-.53,0-.85.08c-.82.08-1.68.15-2.58.22l-2.1.14-.72,0-1.63.08-1.7.06-.41,0-.77,0-.83,0-.77,0c-1.06,0-2.15,0-3.26,0h-.26l-.11,0a.32.32,0,0,0-.09,0,1.21,1.21,0,0,0-.84.88,6.37,6.37,0,0,0,.16-.94,9.24,9.24,0,0,0,.06-1.05v0a1,1,0,0,1,.92-1h0l1.46-.08,1.19-.07h.19l.6,0,.72,0,1.19-.07,6.49-.38.75,0c2.08-.11,4-.21,5.71-.26l1,0h.66l1.36,0c.5,0,.94,0,1.3,0C131,102.87,131.5,103.16,130.8,103.54Z" style="fill:#d8bcd6"/><path d="M126.64,94.41l-.85.2Z" style="fill:#d8bcd6"/><path d="M123,88.18c-.33.08-.67.17-1,.28C122.3,88.35,122.64,88.26,123,88.18Z" style="fill:#d8bcd6"/><path d="M128.84,94.65l-.09.1,0,0-.18.17a8.49,8.49,0,0,1-1.2.8l-.15.09c-.4.23-.86.47-1.39.72l-.27.13-.29.13L125,97l-.23.1-.65.28c-.49.21-1,.41-1.55.62l-.69.26c-1.06.4-2.22.8-3.49,1.2l-1,.3-.5.14-.5.15-.52.15-1.6.43-.8.21-.89.22-.58.14-.59.14-.75.17-.76.17h-.06l-1.51.32-.89.17-.92.18a1.44,1.44,0,0,0-1.14,1.37c0-.39-.11-.76-.19-1.14s-.12-.48-.19-.72-.09-.3-.14-.45a.24.24,0,0,0,0-.08.87.87,0,0,1,.35-1,.92.92,0,0,0,.18-.15h0L106,100l.53-.14L111,98.68l1.58-.45c2.21-.61,4.42-1.24,6.45-1.81l.79-.21,1.14-.32,1.08-.3,2-.53.44-.12.44-.11.54-.14.32-.08.85-.2.09,0,.29-.06.49-.09C128.75,94,129.17,94.2,128.84,94.65Z" style="fill:#d8bcd6"/><path d="M126.64,94.41l-.85.2Z" style="fill:#d8bcd6"/><path d="M137.76,104.08c-1.93,1.93-1,1.75-1.23,7.88s-10.86,14.54-12.26,13.63-2.63.21-4,1.09-3,2.45-5.61.85-3.5-1.21-5.43-.68-2.8,1.23-5.08,0-5.08-3-6.83-3c-1,0-4.08-3.11-6.87-6.92l1.08-.26a3.89,3.89,0,0,1,3.3.63l1.22.91.56.41.55.39c.19.13.37.25.54.38l1,.69.5.32a1.1,1.1,0,0,0,.14.09l.76.47.53.32.89.5c.28.16.56.3.83.44a20.26,20.26,0,0,0,2.17,1,2.12,2.12,0,0,0,.29.11,10.24,10.24,0,0,0,1.38.42,1.06,1.06,0,0,0,.23,0l.21,0,.2,0c1.46.16,1.61-.6.26-1.75-.07-.05-.14-.12-.23-.18-1.29-1-4.57-3.16-7.87-5.33l-.81-.54-.34-.22h0a3,3,0,0,0-2.6-.3l1.36-.52c.37-.15.71-.3,1-.46l.21-.1a3.53,3.53,0,0,1,2.93,0,95.73,95.73,0,0,0,9.91,3.87l.65.19c.58.18,1.14.35,1.67.49l.5.13a30.11,30.11,0,0,0,4,.8l.64.06a7,7,0,0,0,2.52-.15,1.81,1.81,0,0,0,.28-.12l.11-.06a.83.83,0,0,0,.17-.15c.23-.25.17-.57-.16-.91l-.09-.09a4.47,4.47,0,0,0-1.13-.67l-.33-.13-.28-.1-.08,0-.21-.07-.36-.13-.39-.13-.63-.2-.42-.14c-1-.31-2.09-.66-3.34-1l-.94-.29-1.4-.42-1.32-.39-1-.29-.28-.07-.65-.2-2-.58-2-.58a.16.16,0,0,0-.09,0l-.64-.19-.54-.17-.09,0a3.28,3.28,0,0,0-2.64.43,11.6,11.6,0,0,0,1.2-.87l.37-.3s0,0,0,0a4.35,4.35,0,0,1,2.4-.86h0l.8.15c2.39.44,4.57.79,6.54,1.07l1.11.15c16.38,2.21,17.48-.76,12.14-1.73l-.48-.08-.15,0-.31-.05-.59-.09-.4-.06-1-.15-.55-.08-1.41-.2-2.34-.32-1.68-.22-.82-.12-3.24-.44-1.22-.17-2.44-.35-.7-.1-1.57-.24a1.5,1.5,0,0,0-1.57.8,6.77,6.77,0,0,0,.42-1,8.76,8.76,0,0,0,.29-1h0a3.27,3.27,0,0,0,.34-.48l.09-.13.07-.06s0,0,0,0a.24.24,0,0,1,.09-.06A.57.57,0,0,1,106,106l.17-.06.11,0h.26c1.11,0,2.2,0,3.26,0l.77,0,.83,0,.77,0,.41,0,1.7-.06,1.63-.08.72,0,2.1-.14c.9-.07,1.76-.14,2.58-.22l.85-.08.53,0,.82-.1.91-.11c.76-.09,1.46-.19,2.1-.29l.76-.13.45-.08.66-.13.18,0a2.71,2.71,0,0,0,.41-.09l.3-.06.5-.14.5-.15a3.44,3.44,0,0,0,.4-.15l.16-.08c.7-.38.15-.67-1.85-.77-.36,0-.8,0-1.3,0l-1.36,0h-.66l-1,0c-1.67,0-3.63.15-5.71.26l-.75,0-6.49.38-1.19.07-.72,0-.6,0H109l-1.19.07-1.46.08h0a1,1,0,0,0-.92,1,7.56,7.56,0,0,0,0-1s0-.09,0-.14h0a1.44,1.44,0,0,1,1.14-1.37l.92-.18.89-.17,1.51-.32h.06l.76-.17.75-.17.59-.14.58-.14.89-.22.8-.21,1.6-.43.52-.15.5-.15.5-.14,1-.3c1.27-.4,2.43-.8,3.49-1.2l.69-.26c.55-.21,1.06-.41,1.55-.62l.65-.28L125,97l.29-.14.29-.13.27-.13c.53-.25,1-.49,1.39-.72l.15-.09a8.49,8.49,0,0,0,1.2-.8l.18-.17,0,0,.09-.1c.33-.45-.09-.63-1.33-.41l-.49.09-.29.06-.09,0-.85.2-.32.08-.54.14-.44.11-.44.12-2,.53-1.08.3-1.14.32-.79.21c-2,.57-4.24,1.2-6.45,1.81l-1.58.45-4.46,1.22L106,100l-.66.17h0a.92.92,0,0,1-.18.15.87.87,0,0,0-.35,1,.24.24,0,0,1,0,.08c-.1-.32-.21-.64-.34-1s-.24-.57-.36-.84a1.48,1.48,0,0,1,.71-2h.06c2.4-1,5-2,7.51-3l.44-.18.27-.1.61-.24a2.85,2.85,0,0,0,.31-.12c.15-.06.31-.11.46-.18l.1,0,.81-.31,1.32-.52.76-.3h0l.43-.17,2.07-.84.53-.22.34-.15.34-.14c.91-.39,1.72-.76,2.39-1.1l.36-.18c.31-.17.58-.32.82-.47l.16-.11.15-.1.13-.1c.53-.4.69-.72.35-1l-.14-.08a4.4,4.4,0,0,0-2.19.13l-.28.07c-.33.08-.67.17-1,.28s-.75.23-1.15.36h0l-.84.28c-.16.06-.32.11-.48.18l-.47.16c-.13.06-.27.1-.42.16l-1.13.43-.45.18-.75.3-.06,0q-.59.23-1.17.48l-.89.37-.76.32-.07,0-.09,0-.66.28-.89.39-.72.32c-1.46.65-2.84,1.28-4.06,1.84l-1,.45-.08,0-.5.24-.62.29-.41.2-.23.11-.6.29a1,1,0,0,0-.4,1.38c-.2-.33-.41-.63-.59-.9s-.41-.57-.6-.81-.35-.44-.49-.61a2.13,2.13,0,0,0-.18-.22l-.2-.22s0,0,0,0l0,0v0c2.48-1.2,5-2.37,7.46-3.58l.75-.36c3.87-1.87,7.73-3.72,11.64-5.49a42,42,0,0,1,7.69-3.14c4.56-1,6.14,1.73,6.31,4.66s.7,3.9,2.63,6a3.52,3.52,0,0,1,.84,1.71c.36,1.83-.37,3.81,1.08,4.6C141.26,100.23,139.68,102.15,137.76,104.08Z" style="fill:#ced9ef"/><path d="M125.23,89l-.13.1-.15.1-.16.11c-.24.15-.51.3-.82.47l-.36.18c-.67.34-1.48.71-2.39,1.1l-.34.14-.34.15-.53.22-2.07.84-.43.17h0l-.76.3-1.32.52-.81.31-.1,0c-.15.07-.31.12-.46.18a2.85,2.85,0,0,1-.31.12l-.61.24-.27.1-.44.18c-2.52,1-5.11,2-7.51,3h-.06a1.48,1.48,0,0,0-.71,2c-.23-.48-.47-.94-.71-1.36-.09-.14-.17-.28-.25-.42l-.13-.21a1,1,0,0,1,.4-1.38l.6-.29.23-.11.41-.2.62-.29.5-.24.08,0,1-.45c1.22-.56,2.6-1.19,4.06-1.84l.72-.32.89-.39.66-.28.09,0,.07,0,.76-.32L115,91q.58-.25,1.17-.48l.06,0,.75-.3.45-.18,1.13-.43c.15-.06.29-.1.42-.16l.47-.16c.16-.07.32-.12.48-.18l.84-.28h0c.4-.13.78-.26,1.15-.36s.71-.2,1-.28l.28-.07a4.4,4.4,0,0,1,2.19-.13l.14.08C125.92,88.29,125.76,88.61,125.23,89Z" style="fill:#d8bcd6"/><path d="M123,88.18c-.33.08-.67.17-1,.28C122.3,88.35,122.64,88.26,123,88.18Z" style="fill:#d8bcd6"/><path d="M234.78,48c-12.61,2.1-3.85-1.06-43.78-6s-76.71,4.56-76.71,4.56C74,56.1,78,77,101,88a46.16,46.16,0,0,0,8.16,2.87c3.87-1.87,7.73-3.72,11.64-5.49a42,42,0,0,1,7.69-3.14c4.56-1,6.14,1.73,6.31,4.66s.7,3.9,2.63,6a3.52,3.52,0,0,1,.84,1.71c28,1.14,60.49-2.71,69.56-9.69,14-10.79,17.52-7.43,30.13-12.69S247.39,45.93,234.78,48ZM211,60.47c0,.12,0,.24,0,.36-1,8.51-11.91,10.49-18.74,11.28-10.3,1.18-20.68.08-30.86-1.58-5-.83-18.67-2.29-19.56-9.18-1.14-8.85,11.39-15.06,41.43-13.51C189.74,48.17,211.84,49.39,211,60.47Z" style="fill:#c8bcd8"/><path d="M300,67.84a1.37,1.37,0,0,1-1.15,1.56c-3.17.64-3.76,4.17-2.26,6.38C277.21,72,267.51,65,275.2,67,281.84,68.67,295.17,68.12,300,67.84Z" style="fill:#b8c6dd"/><path d="M286,101.5c-2.45.15-4,1.54-5.76,2.78C258,92.9,260.47,90.44,265.35,93.18,269.34,95.43,280.77,99.63,286,101.5Z" style="fill:#b8c6dd"/><path d="M79.26,87.44c-1.11-9-7.88-9.28-8.06-6.3s-4,5.6-6.48,7-3.85,5-1.92,9.69c1.37,3.3-.41,7.68-1.25,10.91-.31,1.21-1,3-.68,4.27.62,2.27,3.81,1,5.11.18a13.83,13.83,0,0,0,1.83-1.31c3.44-2.87,6-6.94,8-10.88S79.83,92.1,79.26,87.44ZM76,94.78c-4.38,8.56-5.69,2.64-8-1.64s2.89-4.38,4.2-8.25,2.28-3.49,4.64,0S76,94.78,76,94.78Z" style="fill:#c2b4d3"/><path d="M76,94.78c-4.38,8.56-5.69,2.64-8-1.64s2.89-4.38,4.2-8.25,2.28-3.49,4.64,0S76,94.78,76,94.78Z" style="fill:#dacbef"/><path d="M13.81,111.52a28.6,28.6,0,0,1-7-4.71c-1.15-1-2.91-2.4-3.2-4-.67-3.81,6.23-2,7.69-.81A24.67,24.67,0,0,1,17,109.46l.66,1.24C19.08,113.52,14.81,112,13.81,111.52Z" style="fill:#f4e4f4"/><path d="M34.55,107.76a2,2,0,0,1-1.43,0,22.19,22.19,0,0,1-7.53-3,26,26,0,0,1-5.06-5.21,24.45,24.45,0,0,0-8.17-6.63c-6.7-3.44-3.94-7.08,0-6l.21.07c3.48,1.17,6.36,5.15,8.57,7.88,1,1.2,1.92,2.41,2.77,3.69.09.14.18.27.28.4,1.78,2.49,4.46,3.53,7,5C31.87,104.24,36.48,106.75,34.55,107.76Z" style="fill:#dacbef"/><path d="M40.56,64.92C37.4,68.85,27.24,79.39,26,74.31s-1.41-11.21,3.5-15.94,10-2.1,10-2.1C43.71,59.42,43.71,61,40.56,64.92Z" style="fill:#f4e4f4"/><path d="M238.37,82.8c-2.36-.7-5.16-.43-9.54.62-8.76,2.1-13.31,6-18.92,15.41-4.36,7.36-14.88,30.65-46.93,39.94a99.2,99.2,0,0,1-20,3.52c-1.73.13-3.51.23-5.34.29l-2.17-.15c8.23-.83,16.08-4,23.78-6.88,9-3.42,18.05-7.21,25.6-13.33a72,72,0,0,0,12.53-13.62c5.53-7.53,9.89-18,17.5-23.71.17-.14.36-.27.54-.4l.56-.36h0l.57-.35.57-.32c.39-.2.78-.38,1.18-.56l.8-.33.8-.28c.27-.09.53-.18.81-.25l.73-.2.58-.13.53-.11c.34-.07.69-.13,1-.18l.41-.06.81-.09.41,0,.81-.06.8,0h.79l.94,0H229l.39,0,.3,0,.51,0,.6.05.67.07.66.08.36,0,.36.06.39.06.38.06.68.12.39.08.66.14.32.07.45.11.9.23h0l.2.06.36.1.16,0,.12,0,.17,0,.1,0Z" style="fill:#b3a7c6"/><path d="M211,60.47c0,.12,0,.24,0,.36-1,8.51-11.91,10.49-18.74,11.28-10.3,1.18-20.68.08-30.86-1.58-5-.83-18.67-2.29-19.56-9.18-1.14-8.85,11.39-15.06,41.43-13.51C189.74,48.17,211.84,49.39,211,60.47Z" style="fill:#d1c7e0"/><path d="M42.19,86.69a2,2,0,1,1,2,2A2,2,0,0,1,42.19,86.69Z" style="fill:#f2f3f4"/><path d="M91.45,113.89a14.46,14.46,0,0,1-2.16-3.42,5.74,5.74,0,0,1-.7-4.61c1.14-3.06,3-4.11,7.27-5.42s5.51-.35,3.5,2.89-5.48,4.65-5,7.23c.22,1.2-.61,4.78-2.41,3.71A3.19,3.19,0,0,1,91.45,113.89Z" style="fill:#d9ceea"/></g></g></svg>