<svg xmlns="http://www.w3.org/2000/svg" viewBox="0 0 646.89 353.32"><title>Asset 4</title><g id="Layer_2" data-name="Layer 2"><g id="Ñëîé_2" data-name="Ñëîé 2"><path d="M483,242.47c-1.54-15-16.27-22.87-16.27-22.87a29.37,29.37,0,0,1-4.71-.32h0c-11.83-1.6-26.22-9-41.79-12.74,0,0-4.52-2.39-12.58-6.24-5.53-2.67-12.74-6-21.28-9.78h0v0l-6.2-2.68-.12-.05a5.75,5.75,0,0,1-.55-.23l-.62-.27h0s-.05,0-.09,0,0,0-.05,0h0c-.05,0-.07-.05-.12-.05s-.07,0-.09-.07c-40.8-17.47-105.42-41.16-166-46.33-27.46-2.34-51-1.9-71,.42-51.84,6-80.47,24.68-94.86,40.13C26.69,202.73-19.41,218,9,245.57c17.38,16.85,58.11,30.86,104.05,37.95-13.84-35.38.78-50.94,17.7-38.13,18.94,14.35,32.9,26.4,32.9,26.4a80.17,80.17,0,0,0,14.72,9.6l0,0a144.29,144.29,0,0,0,16.3,6.73h0c2.51-.14,5-.28,7.44-.46,17.66-1.29,37.84-3.47,59-5.88,32.51-3.7,67.34-7.88,99-10,2.94-.21,5.86-.37,8.73-.55,30.55-1.65,57.55-1.08,75.74,4.16,9,2.59,18.55,4.91,28.37,6.93C491.07,271.28,484.36,255.65,483,242.47Zm-239.54-1.54c-76.91-2.32-96.8-16.39-120.53-14.48S64,223.76,57.52,207.32s10.73-53.19,118.24-57,221.18,72.32,221.18,72.32C424.1,244.42,320.4,243.27,243.49,240.93Z" style="fill:#31313f"/><path d="M617.68,287a112,112,0,0,0-14.74,1.59c-33.93,5.74-84.87,3-129.92-6.2,18.05-11.07,11.34-26.7,10-39.88-1.54-15-16.27-22.87-16.27-22.87,6.86-.09,12.69-2.91,17.12-10.76,8.73-15.41,35.11-30.47,55.61-39.77a17.8,17.8,0,0,1-.21,8.77,23.71,23.71,0,0,0-1.12,7.63,141.68,141.68,0,0,0-27.58,21.85c-23,23.72-1.15,8.66,35.36-5,3.63,3.83,11.62,4.91,11.32,8.81-.1,1.22-.19,2.12-.26,2.85-23.76,7.25-46.65,14.69-55.85,20.5-17.52,11.07,17.35-2.32,57.05-11.8,2.94,3.7,11.48,7,13.24,10.54-16.94,3.72-33.77,8.13-45.18,13.5-25.18,11.84,14.65-.83,58.22-2.66A147.67,147.67,0,0,1,599,253.24a45.35,45.35,0,0,1,13.36,15.1c-19.21-1-42.17-.87-65.79,3.47-53.73,9.92,11,1.22,70.2,8.27A38.7,38.7,0,0,1,617.68,287Z" style="fill:#2c2c3a"/><path d="M645.76,285.22a240.57,240.57,0,0,0-29-5.14,42,42,0,0,0-4.41-11.74c10.47.56,19.86,1.45,27.62,2.19v0c1.1,2.91,2.44,6.5,4.32,11C644.87,283,645.37,284.21,645.76,285.22Z" style="fill:#d1bb18"/><path d="M619.13,245.59a175.09,175.09,0,0,0-34.65-1.53c-8-4.5-12.69-6.52-12.69-9.58a2.61,2.61,0,0,0-.35-1.26c12.13-2.66,24.29-4.94,34.58-7-.28,2.94-2.87,4.53,2.16,7.07C613.69,236.13,615.94,240.91,619.13,245.59Z" style="fill:#d1bb18"/><path d="M597.36,215.59a309.42,309.42,0,0,0-39.16,7.09,4.16,4.16,0,0,1-.94-2A19.18,19.18,0,0,1,557,214c9.85-3,19.86-6,29.12-8.77A40.76,40.76,0,0,0,597,215.36Z" style="fill:#d1bb18"/><path d="M588.71,180.53a17,17,0,0,0-6.54,10.9,260.55,260.55,0,0,0-36.23,10.89,6,6,0,0,1-1.7-3.81c-.3-5.7-5.79-6-6.08-13a200.75,200.75,0,0,1,51.22-21.95C591.67,169.19,595.71,174.86,588.71,180.53Z" style="fill:#d1bb18"/><path d="M589.38,163.52a200.75,200.75,0,0,0-51.22,21.95,23.71,23.71,0,0,1,1.12-7.63,17.8,17.8,0,0,0,.21-8.77,186.47,186.47,0,0,1,21.62-8.45c15.59-4.59,31.11-13.77,27.6-5.34C587.56,158,588.25,160.76,589.38,163.52Z" style="fill:#e2d02d"/><path d="M606,226.24v0c-10.29,2-22.45,4.3-34.58,7-1.76-3.49-10.3-6.84-13.24-10.54a309.42,309.42,0,0,1,39.16-7.09h0C605,220.75,606.23,223.9,606,226.24Z" style="fill:#e2d02d"/><path d="M228.43,9.1c-.16,1.24-.3,2.32-.39,3.24a248.9,248.9,0,0,0-21.4,26.47c-8-2.07-19-3.9-33.41,2.5A122.22,122.22,0,0,1,182,29C215.71-12.32,229.67-.08,228.43,9.1Z" style="fill:#e2d02d"/><path d="M327.33,71.46A216.12,216.12,0,0,0,299.18,85c-5.53-14.41-5.85-20.47-9.5-22.61,6.61-5.33,13-10.38,18.55-15a44.92,44.92,0,0,1,7.92,8.43C320.6,61.84,324.28,67,327.33,71.46Z" style="fill:#d1bb18"/><path d="M356.3,118.59a173.8,173.8,0,0,0-24,2.32,70.66,70.66,0,0,1-21.67-16.44c8.66-5.17,18.44-10.29,27.53-15,1.45,3.17,1.74,5.1,1.28,6.15-1.3,3.06,18,4.6,14.49,13C351.69,114,354.19,115.9,356.3,118.59Z" style="fill:#d1bb18"/><path d="M375.57,156.75c-3.88-.53-7.88-.9-11.9-1.15a20,20,0,0,0-3.46-1.47c-9-3-3.63-11.62-10.75-14.79,5.58-1.51,11.16-2.84,16.39-4a4.34,4.34,0,0,1,1.06,3.85C366.27,142.05,371.36,149.15,375.57,156.75Z" style="fill:#d1bb18"/><path d="M386.36,190.49l-6.2-2.68-.12-.05a5.75,5.75,0,0,1-.55-.23l-.62-.27h0s-.05,0-.09,0,0,0-.05,0h0c-.05,0-.07-.05-.12-.05s-.07,0-.09-.07a17.17,17.17,0,0,1-9.09-14.19c-.67-9.78-.21-14.3-5.72-17.28,4,.25,8,.62,11.9,1.15,3.69,6.68,6.7,13.72,4.56,18.61C377.65,181.06,383,185.24,386.36,190.49Z" style="fill:#e2d02d"/><path d="M363.67,155.6c-30.49-2-61.36,2.06-36.39-8.75a170.83,170.83,0,0,1,22.18-7.51c7.12,3.17,1.72,11.78,10.75,14.79A20,20,0,0,1,363.67,155.6Z" style="fill:#22222b"/><path d="M332.33,120.91c-32.5,5.23-57.69,16.11-42.93-.55,4.5-5.1,12.29-10.52,21.26-15.89A70.66,70.66,0,0,0,332.33,120.91Z" style="fill:#22222b"/><path d="M299.18,85c-38.5,21.59-71.49,50.26-59.14,26.38,7.44-14.41,29.55-32.87,49.64-49C293.33,64.48,293.65,70.54,299.18,85Z" style="fill:#22222b"/><path d="M378.48,187.07c-40.8-17.47-105.42-41.16-166-46.33-27.46-2.34-51-1.9-71,.42.14-1.5,6-58.73,31.75-99.85,14.38-6.4,25.44-4.57,33.41-2.5-10.22,14.67-19.93,32.46-24.36,51.42-8.77,37.33,8-10.6,43.83-49.42,3.76,2.5,7.44,7.69,16.23,5.41,3.51-.89,5.69-.82,7.18-.25-15.88,17.52-32.62,37.4-40,53.82-15.2,33.65,17.12-13.8,56.4-46.93,4.71,2.2,1.84,9.62,14,8.68,5-.39,7.9-.35,9.83.8-20.09,16.12-42.2,34.58-49.64,49-12.35,23.88,20.64-4.79,59.14-26.38.16.46.37,1,.55,1.45a62.19,62.19,0,0,0,10.93,18.07c-9,5.37-16.76,10.79-21.26,15.89-14.76,16.66,10.43,5.78,42.93.55,2.35,1.19,4.53,2.16,6.43,3,10.72,4.59,2.69,12.26,10.33,15.29a1.79,1.79,0,0,1,.37.16,170.83,170.83,0,0,0-22.18,7.51c-25,10.81,5.9,6.73,36.39,8.75,5.51,3,5.05,7.5,5.72,17.28A17.17,17.17,0,0,0,378.48,187.07Z" style="fill:#2c2c3a"/><path d="M459.84,201.19c-.09,6.41,1.66,12.56,2.19,18.09-11.83-1.6-26.22-9-41.79-12.74,0,0-4.52-2.39-12.58-6.24,12.47-5.1,30.21-11.21,45.23-12C479.15,186.84,460.05,188,459.84,201.19Z" style="fill:#2c2c3a"/><path d="M185.91,299.64c-3.17,4.47-8,.48-23-11.34-1.31-1-2.73-2.14-4.22-3.31-9.21-7.21-8.41-3.93-3.38,2.94h0A206,206,0,0,0,177,312.26c15.2,14.33-10.72,8-30.33-15.68s3.06,21.13,27.74,34.33-17.22,2.8-38.73-20.94c-12.51-13.8-7.23-2,3,13.84A112.35,112.35,0,0,1,119.28,297a131.57,131.57,0,0,1-6.22-13.52c-13.84-35.38.78-50.94,17.7-38.13,18.94,14.35,32.9,26.4,32.9,26.4a80.17,80.17,0,0,0,14.72,9.6l0,0a63.55,63.55,0,0,1,4.94,7.09C185.7,292.5,187.65,297.16,185.91,299.64Z" style="fill:#2c2c3a"/><path d="M351.73,301.63a146.53,146.53,0,0,1-23.67-.27c-7.82-6.64-29.66-14.35-9.57-11.78,31.27,4,23.83-2.29,36.16-2.29s-7.19-8,5.53-8.32,0-7.16,0-7.16c2.94-.21,5.86-.37,8.73-.55,3.12,7.67,12.44,8.75,9.52,10.54-3.74,2.25,6.89,5.49,3.15,10.08S400.52,298.19,351.73,301.63Z" style="fill:#e2d02d"/><path d="M360.18,279c-12.72.28,6.8,8.32-5.53,8.32s-4.89,6.31-36.16,2.29c-20.09-2.57,1.75,5.14,9.57,11.78a186.12,186.12,0,0,1-66.9-19.56c32.51-3.7,67.34-7.88,99-10C360.18,271.81,372.88,278.68,360.18,279Z" style="fill:#2c2c3a"/><path d="M396.94,222.61S283.3,146.48,175.76,150.29,51,190.86,57.52,207.32s41.72,21,65.44,19.13,43.62,12.16,120.53,14.48S424.1,244.42,396.94,222.61ZM92,201.19a12.92,12.92,0,1,1,12.9-12.9A12.91,12.91,0,0,1,92,201.19Z" style="fill:#39394c"/><path d="M92,175.36a12.92,12.92,0,1,0,12.9,12.93A12.92,12.92,0,0,0,92,175.36Zm-2.29,19.52a6.6,6.6,0,1,1,6.58-6.59A6.61,6.61,0,0,1,89.74,194.88Z" style="fill:#54546b"/><path d="M96.32,188.29a6.6,6.6,0,1,1-6.58-6.61A6.58,6.58,0,0,1,96.32,188.29Z" style="fill:#212121"/><path d="M616.74,280.08c-59.18-7.05-123.93,1.65-70.2-8.27,23.62-4.34,46.58-4.48,65.79-3.47A42,42,0,0,1,616.74,280.08Z" style="fill:#22222b"/><path d="M584.48,244.06c-43.57,1.83-83.4,14.5-58.22,2.66,11.41-5.37,28.24-9.78,45.18-13.5a2.61,2.61,0,0,1,.35,1.26C571.79,237.54,576.5,239.56,584.48,244.06Z" style="fill:#22222b"/><path d="M558.2,222.68c-39.7,9.48-74.57,22.87-57.05,11.8,9.2-5.81,32.09-13.25,55.85-20.5a19.18,19.18,0,0,0,.26,6.73A4.16,4.16,0,0,0,558.2,222.68Z" style="fill:#22222b"/><path d="M545.94,202.32c-36.51,13.66-58.34,28.72-35.36,5a141.68,141.68,0,0,1,27.58-21.85c.29,7.07,5.78,7.34,6.08,13A6,6,0,0,0,545.94,202.32Z" style="fill:#22222b"/><path d="M212.42,342.39c-5,4,2.71,11.47-13.24,10.9-12.1-.44-38.3-6.82-60.5-29.46l0,0c-10.19-15.82-15.47-27.64-3-13.84,21.51,23.74,63.41,34.14,38.73,20.94s-47.36-58-27.74-34.33,45.53,30,30.33,15.68a206,206,0,0,1-21.72-24.33h0c-5-6.87-5.83-10.15,3.38-2.94,1.49,1.17,2.91,2.27,4.22,3.31,15,11.82,19.86,15.81,23,11.34,1.74-2.48-.21-7.14-2.57-11.14a63.55,63.55,0,0,0-4.94-7.09,144.29,144.29,0,0,0,16.3,6.73h0c7.21,2.59,13.48,4.84,18.21,9,10.74,9.46,6.22,18.28,0,25.17S217.43,338.37,212.42,342.39Z" style="fill:#e2d02d"/><path d="M226.11,40.81c-35.79,38.82-52.6,86.75-43.83,49.42,4.43-19,14.14-36.75,24.36-51.42,5.92,1.51,10.15,3.17,12.76,1.67A5.67,5.67,0,0,1,226.11,40.81Z" style="fill:#22222b"/><path d="M251,18.47a159.13,159.13,0,0,0-24.93,22.34,5.67,5.67,0,0,0-6.71-.33c-2.61,1.5-6.84-.16-12.76-1.67A248.9,248.9,0,0,1,228,12.34c-.46,5.94,1.65,5.94,14.69,5.94C246.17,18.28,248.9,18.33,251,18.47Z" style="fill:#d1bb18"/><path d="M265.23,29c-4.87,5.21-10.24,11-15.71,17-1.49-.57-3.67-.64-7.18.25-8.79,2.28-12.47-2.91-16.23-5.41A159.13,159.13,0,0,1,251,18.47c7.23.46,7.92,2,8.08,6.7C259.26,29.37,262.93,28.18,265.23,29Z" style="fill:#e2d02d"/><path d="M265.89,52.86c-39.28,33.13-71.6,80.58-56.4,46.93,7.41-16.42,24.15-36.3,40-53.82,4.23,1.61,3.13,7.23,11.64,6.38A9.45,9.45,0,0,1,265.89,52.86Z" style="fill:#22222b"/><path d="M280,41.91c-4.75,3.35-9.46,7.05-14.1,11a9.45,9.45,0,0,0-4.73-.51c-8.51.85-7.41-4.77-11.64-6.38,5.47-6,10.84-11.78,15.71-17,1,.37,1.81,1.15,1.79,3.08,0,6.13,5.65-3.05,7,6.89C274.43,41.93,276.62,42.23,280,41.91Z" style="fill:#d1bb18"/><path d="M308.23,47.37c-5.58,4.59-11.94,9.64-18.55,15-1.93-1.15-4.78-1.19-9.83-.8-12.12.94-9.25-6.48-14-8.68,4.64-3.9,9.35-7.6,14.1-11C286.37,41.31,297.05,38.49,308.23,47.37Z" style="fill:#e2d02d"/><path d="M338.19,89.43c-9.09,4.75-18.87,9.87-27.53,15A62.19,62.19,0,0,1,299.73,86.4c-.18-.5-.39-1-.55-1.45a216.12,216.12,0,0,1,28.15-13.49C333.05,79.81,336.47,85.55,338.19,89.43Z" style="fill:#e2d02d"/><path d="M365.85,135.33c-5.23,1.17-10.81,2.5-16.39,4a1.79,1.79,0,0,0-.37-.16c-7.64-3,.39-10.7-10.33-15.29-1.9-.82-4.08-1.79-6.43-3a173.8,173.8,0,0,1,24-2.32,9.35,9.35,0,0,1,2.39,6.08C358.81,130.16,363.6,132.48,365.85,135.33Z" style="fill:#e2d02d"/><path d="M617.68,287a38.7,38.7,0,0,0-.94-6.88,240.57,240.57,0,0,1,29,5.14C649.82,295.46,643.46,285.89,617.68,287Z" style="fill:#e2d02d"/><path d="M640,270.53c-7.76-.74-17.15-1.63-27.62-2.19A45.35,45.35,0,0,0,599,253.24a147.67,147.67,0,0,0-14.49-9.18,175.09,175.09,0,0,1,34.65,1.53,26.83,26.83,0,0,0,8.52,8.41C635.29,258.61,636.51,261.5,640,270.53Z" style="fill:#e2d02d"/><path d="M557,214c.07-.73.16-1.63.26-2.85.3-3.9-7.69-5-11.32-8.81a260.55,260.55,0,0,1,36.23-10.89c-.65,4.32.59,9.07,4,13.78C576.86,208,566.85,211,557,214Z" style="fill:#e2d02d"/><circle cx="96.32" cy="183.11" r="4.3" style="fill:#fff"/><path d="M240.84,166c0,1.67-2.27,3-5.07,3s-5.07-1.35-5.07-3,2.27-3,5.07-3S240.84,164.34,240.84,166Z" style="fill:#e2d02d"/><path d="M205.34,150.16a3.83,3.83,0,1,1-3.83-4A3.9,3.9,0,0,1,205.34,150.16Z" style="fill:#e2d02d"/><path d="M279.9,258.84a3.17,3.17,0,1,1-3.17-3.12A3.15,3.15,0,0,1,279.9,258.84Z" style="fill:#e2d02d"/><path d="M297.38,258.84a2.83,2.83,0,1,1-2.81-3.12A3,3,0,0,1,297.38,258.84Z" style="fill:#e2d02d"/><path d="M306.12,247a2.5,2.5,0,1,1-2.5-2.59A2.54,2.54,0,0,1,306.12,247Z" style="fill:#e2d02d"/><path d="M291.76,245.23c0,2.39-1.52,4.33-3.39,4.33s-3.4-1.94-3.4-4.33,1.52-4.33,3.4-4.33S291.76,242.84,291.76,245.23Z" style="fill:#e2d02d"/><path d="M269.6,253.85c0,1-1.41,1.87-3.16,1.87s-3.15-.84-3.15-1.87,1.41-1.88,3.15-1.88S269.6,252.81,269.6,253.85Z" style="fill:#e2d02d"/><path d="M308.92,233.91c0,.93-1.18,1.68-2.65,1.68s-2.65-.75-2.65-1.68,1.19-1.68,2.65-1.68S308.92,233,308.92,233.91Z" style="fill:#e2d02d"/><path d="M89.46,210.27c0,1.16-1.53,2.11-3.43,2.11s-3.43-.95-3.43-2.11,1.53-2.12,3.43-2.12S89.46,209.1,89.46,210.27Z" style="fill:#e2d02d"/><path d="M69.37,207.26c0,2-2.17,3.59-4.84,3.59s-4.83-1.61-4.83-3.59,2.16-3.59,4.83-3.59S69.37,205.28,69.37,207.26Z" style="fill:#e2d02d"/><path d="M45,199.12c0,1.2-1.54,2.18-3.44,2.18s-3.43-1-3.43-2.18,1.54-2.19,3.43-2.19S45,197.91,45,199.12Z" style="fill:#e2d02d"/><path d="M118.48,176.81a4.37,4.37,0,1,1-4.37-4.37A4.36,4.36,0,0,1,118.48,176.81Z" style="fill:#e2d02d"/><path d="M133.15,167.44a3.18,3.18,0,1,1-3.17-3.12A3.14,3.14,0,0,1,133.15,167.44Z" style="fill:#e2d02d"/><path d="M63.64,175.36a1.73,1.73,0,1,1-1.72-1.56A1.64,1.64,0,0,1,63.64,175.36Z" style="fill:#e2d02d"/><path d="M114.11,206.49a4.23,4.23,0,1,1-4.21-3.78A4,4,0,0,1,114.11,206.49Z" style="fill:#e2d02d"/><path d="M121.29,193a2.34,2.34,0,1,1-2.34-2.49A2.43,2.43,0,0,1,121.29,193Z" style="fill:#e2d02d"/><path d="M103.82,216.46a4.06,4.06,0,1,1-4.06-4.08A4.07,4.07,0,0,1,103.82,216.46Z" style="fill:#e2d02d"/><path d="M131.59,210.37a4.4,4.4,0,1,1-4.37-3.88A4.15,4.15,0,0,1,131.59,210.37Z" style="fill:#e2d02d"/><path d="M122.85,223a4.41,4.41,0,0,1-8.74,0c0-2.09,2-3.78,4.37-3.78A4.1,4.1,0,0,1,122.85,223Z" style="fill:#e2d02d"/><path d="M105.69,231.42c0,1.55-.77,2.8-1.72,2.8s-1.71-1.25-1.71-2.8.76-2.81,1.71-2.81S105.69,229.86,105.69,231.42Z" style="fill:#e2d02d"/><path d="M128.94,290c0,1.55-.77,2.81-1.72,2.81s-1.72-1.26-1.72-2.81.77-2.81,1.72-2.81S128.94,288.45,128.94,290Z" style="fill:#e2d02d"/><ellipse cx="88.45" cy="229.12" rx="2.42" ry="2.3" style="fill:#e2d02d"/><path d="M130.43,196.07c0,1.69-.81,3.05-1.82,3.05s-1.81-1.36-1.81-3.05.81-3,1.81-3S130.43,194.39,130.43,196.07Z" style="fill:#e2d02d"/><path d="M130.43,227.3a1.82,1.82,0,1,1-1.82-1.81A1.81,1.81,0,0,1,130.43,227.3Z" style="fill:#e2d02d"/><path d="M140.64,274.28c0,1.71-1.08,3.09-2.42,3.09s-2.42-1.38-2.42-3.09,1.09-3.09,2.42-3.09S140.64,272.57,140.64,274.28Z" style="fill:#e2d02d"/><path d="M130.43,237.33a1.84,1.84,0,1,1-1.82-1.55A1.69,1.69,0,0,1,130.43,237.33Z" style="fill:#e2d02d"/><path d="M131.79,256.34A1.83,1.83,0,1,1,130,254.8,1.7,1.7,0,0,1,131.79,256.34Z" style="fill:#e2d02d"/><path d="M147.19,219.75c0,1.81-1.74,3.28-3.9,3.28s-3.9-1.47-3.9-3.28,1.75-3.29,3.9-3.29S147.19,217.93,147.19,219.75Z" style="fill:#e2d02d"/><path d="M145,205.43a2.81,2.81,0,1,1-2.81-2.72A2.77,2.77,0,0,1,145,205.43Z" style="fill:#e2d02d"/><path d="M147.19,191.78c0,.69-1.11,1.25-2.49,1.25s-2.5-.56-2.5-1.25,1.12-1.24,2.5-1.24S147.19,191.09,147.19,191.78Z" style="fill:#e2d02d"/><path d="M143.29,183.34c0,1.66-2.27,3-5.07,3s-5.07-1.36-5.07-3,2.27-3,5.07-3S143.29,181.67,143.29,183.34Z" style="fill:#e2d02d"/><path d="M150.63,167.44a2.83,2.83,0,1,1-2.81-3.12A3,3,0,0,1,150.63,167.44Z" style="fill:#e2d02d"/><path d="M159.36,155.58a2.5,2.5,0,1,1-2.49-2.59A2.54,2.54,0,0,1,159.36,155.58Z" style="fill:#e2d02d"/><path d="M145,153.83c0,2.4-1.52,4.34-3.4,4.34s-3.39-1.94-3.39-4.34,1.52-4.33,3.39-4.33S145,151.44,145,153.83Z" style="fill:#e2d02d"/><path d="M122.85,162.45c0,1-1.41,1.87-3.16,1.87s-3.16-.84-3.16-1.87,1.42-1.87,3.16-1.87S122.85,161.42,122.85,162.45Z" style="fill:#e2d02d"/><path d="M185.73,162.32c0,2.1-2.16,3.79-4.84,3.79s-4.83-1.69-4.83-3.79,2.16-3.79,4.83-3.79S185.73,160.23,185.73,162.32Z" style="fill:#e2d02d"/><path d="M173.25,178.43a4.76,4.76,0,1,1-4.76-4.75A4.76,4.76,0,0,1,173.25,178.43Z" style="fill:#e2d02d"/><path d="M159.52,182.39a3.83,3.83,0,1,1-3.82-4A3.9,3.9,0,0,1,159.52,182.39Z" style="fill:#e2d02d"/><path d="M191.19,180.07a3.78,3.78,0,1,1-3.74-3.26A3.53,3.53,0,0,1,191.19,180.07Z" style="fill:#e2d02d"/><circle cx="172.16" cy="196.78" r="3.74" style="fill:#e2d02d"/><path d="M195.64,198c0,1.37-1.83,2.49-4.1,2.49s-4.09-1.12-4.09-2.49,1.83-2.5,4.09-2.5S195.64,196.65,195.64,198Z" style="fill:#e2d02d"/><path d="M160.92,198c0,1.37-1.46,2.49-3.27,2.49s-3.28-1.12-3.28-2.49,1.47-2.5,3.28-2.5S160.92,196.65,160.92,198Z" style="fill:#e2d02d"/><path d="M159.36,213.41a3.12,3.12,0,1,1-3.12-3A3.08,3.08,0,0,1,159.36,213.41Z" style="fill:#e2d02d"/><path d="M178.09,214.42c0,1.13-1.33,2-3,2s-3-.91-3-2,1.32-2,3-2S178.09,213.29,178.09,214.42Z" style="fill:#e2d02d"/><path d="M187.45,207.9c0,1.36-1.47,2.47-3.28,2.47s-3.28-1.11-3.28-2.47,1.47-2.47,3.28-2.47S187.45,206.53,187.45,207.9Z" style="fill:#e2d02d"/><path d="M209.92,186.94c0,2-1.26,3.6-2.81,3.6s-2.81-1.62-2.81-3.6,1.26-3.6,2.81-3.6S209.92,185,209.92,186.94Z" style="fill:#e2d02d"/><path d="M222.32,172.9c0,2.16-2.43,3.91-5.42,3.91s-5.42-1.75-5.42-3.91,2.42-3.9,5.42-3.9S222.32,170.75,222.32,172.9Z" style="fill:#e2d02d"/><path d="M204.3,172.9c0,1.3-1.94,2.35-4.33,2.35s-4.33-1.05-4.33-2.35,1.94-2.34,4.33-2.34S204.3,171.61,204.3,172.9Z" style="fill:#e2d02d"/><path d="M193.07,219.75a2.85,2.85,0,1,1-2.81-3.29A3.07,3.07,0,0,1,193.07,219.75Z" style="fill:#e2d02d"/><path d="M202.43,213.41c0,1.69-1.05,3.05-2.34,3.05s-2.34-1.36-2.34-3.05,1-3,2.34-3S202.43,211.73,202.43,213.41Z" style="fill:#e2d02d"/><path d="M214.36,201.69c0,1.42-1.78,2.58-4,2.58s-4-1.16-4-2.58,1.78-2.57,4-2.57S214.36,200.27,214.36,201.69Z" style="fill:#e2d02d"/><path d="M214,227.28a6.24,6.24,0,1,1-6.24-6.29A6.26,6.26,0,0,1,214,227.28Z" style="fill:#e2d02d"/><path d="M222.42,217c0,1.17-1.54,2.12-3.43,2.12s-3.43-1-3.43-2.12,1.53-2.11,3.43-2.11S222.42,215.84,222.42,217Z" style="fill:#e2d02d"/><path d="M228.66,205.86c0,2-2.16,3.59-4.84,3.59s-4.83-1.61-4.83-3.59,2.16-3.59,4.83-3.59S228.66,203.87,228.66,205.86Z" style="fill:#e2d02d"/><path d="M238.65,195.09c0,1.21-1.54,2.19-3.44,2.19s-3.43-1-3.43-2.19,1.54-2.18,3.43-2.18S238.65,193.88,238.65,195.09Z" style="fill:#e2d02d"/><path d="M251.44,183.54a4.37,4.37,0,1,1-4.37-4.36A4.36,4.36,0,0,1,251.44,183.54Z" style="fill:#e2d02d"/><path d="M266.11,174.18a3.18,3.18,0,1,1-3.18-3.12A3.14,3.14,0,0,1,266.11,174.18Z" style="fill:#e2d02d"/><path d="M235.21,182a1.72,1.72,0,1,1-1.71-1.56A1.63,1.63,0,0,1,235.21,182Z" style="fill:#e2d02d"/><path d="M247.07,213.23a4.23,4.23,0,1,1-4.21-3.78A4,4,0,0,1,247.07,213.23Z" style="fill:#e2d02d"/><path d="M254.25,199.77a2.34,2.34,0,1,1-2.34-2.49A2.43,2.43,0,0,1,254.25,199.77Z" style="fill:#e2d02d"/><path d="M236.78,223.2a4.06,4.06,0,1,1-4.06-4.08A4.07,4.07,0,0,1,236.78,223.2Z" style="fill:#e2d02d"/><path d="M264.55,217.11a4.4,4.4,0,1,1-4.37-3.88A4.15,4.15,0,0,1,264.55,217.11Z" style="fill:#e2d02d"/><path d="M255.81,229.77a4.41,4.41,0,1,1-4.37-3.79A4.12,4.12,0,0,1,255.81,229.77Z" style="fill:#e2d02d"/><path d="M238.65,238.15c0,1.56-.77,2.81-1.72,2.81s-1.72-1.25-1.72-2.81.77-2.8,1.72-2.8S238.65,236.6,238.65,238.15Z" style="fill:#e2d02d"/><path d="M223.82,235.86a2.42,2.42,0,1,1-2.41-2.3A2.35,2.35,0,0,1,223.82,235.86Z" style="fill:#e2d02d"/><path d="M263.38,202.81c0,1.68-.81,3.05-1.81,3.05s-1.81-1.37-1.81-3.05.81-3,1.81-3S263.38,201.13,263.38,202.81Z" style="fill:#e2d02d"/><path d="M263.38,234a1.81,1.81,0,1,1-1.81-1.81A1.82,1.82,0,0,1,263.38,234Z" style="fill:#e2d02d"/><path d="M251.91,245.61c0,1.71-1.08,3.09-2.42,3.09s-2.42-1.38-2.42-3.09,1.09-3.09,2.42-3.09S251.91,243.91,251.91,245.61Z" style="fill:#e2d02d"/><path d="M263.38,244.07a1.83,1.83,0,1,1-1.81-1.55A1.69,1.69,0,0,1,263.38,244.07Z" style="fill:#e2d02d"/><path d="M280.15,226.48c0,1.82-1.75,3.29-3.9,3.29s-3.9-1.47-3.9-3.29,1.75-3.28,3.9-3.28S280.15,224.67,280.15,226.48Z" style="fill:#e2d02d"/><path d="M278,212.17a2.81,2.81,0,1,1-2.81-2.72A2.77,2.77,0,0,1,278,212.17Z" style="fill:#e2d02d"/><path d="M280.15,198.52c0,.69-1.12,1.25-2.5,1.25s-2.49-.56-2.49-1.25,1.12-1.24,2.49-1.24S280.15,197.83,280.15,198.52Z" style="fill:#e2d02d"/><path d="M276.25,190.08c0,1.66-2.27,3-5.07,3s-5.07-1.36-5.07-3,2.27-3,5.07-3S276.25,188.41,276.25,190.08Z" style="fill:#e2d02d"/><path d="M283.58,174.18a2.82,2.82,0,1,1-2.8-3.12A3,3,0,0,1,283.58,174.18Z" style="fill:#e2d02d"/><path d="M310.58,146.19a2.5,2.5,0,1,1-2.5-2.59A2.55,2.55,0,0,1,310.58,146.19Z" style="fill:#e2d02d"/><path d="M297.28,170.56c0,2.4-1.52,4.34-3.4,4.34s-3.39-1.94-3.39-4.34,1.52-4.33,3.39-4.33S297.28,168.17,297.28,170.56Z" style="fill:#e2d02d"/><path d="M255.81,169.19c0,1-1.41,1.87-3.16,1.87s-3.16-.84-3.16-1.87,1.42-1.87,3.16-1.87S255.81,168.16,255.81,169.19Z" style="fill:#e2d02d"/><path d="M325.24,132.67c0,2.1-2.16,3.79-4.83,3.79s-4.84-1.69-4.84-3.79,2.16-3.79,4.84-3.79S325.24,130.58,325.24,132.67Z" style="fill:#e2d02d"/><path d="M306.21,185.17a4.76,4.76,0,1,1-4.76-4.75A4.76,4.76,0,0,1,306.21,185.17Z" style="fill:#e2d02d"/><path d="M292.48,189.13a3.83,3.83,0,1,1-3.83-4A3.9,3.9,0,0,1,292.48,189.13Z" style="fill:#e2d02d"/><ellipse cx="320.41" cy="186.81" rx="3.74" ry="3.27" style="fill:#e2d02d"/><path d="M308.86,203.52a3.75,3.75,0,1,1-3.74-3.75A3.75,3.75,0,0,1,308.86,203.52Z" style="fill:#e2d02d"/><path d="M328.6,204.76c0,1.38-1.84,2.5-4.1,2.5s-4.09-1.12-4.09-2.5,1.83-2.49,4.09-2.49S328.6,203.39,328.6,204.76Z" style="fill:#e2d02d"/><path d="M293.88,204.76c0,1.38-1.47,2.5-3.28,2.5s-3.27-1.12-3.27-2.5,1.47-2.49,3.27-2.49S293.88,203.39,293.88,204.76Z" style="fill:#e2d02d"/><path d="M292.32,220.15a3.12,3.12,0,1,1-3.12-3A3.09,3.09,0,0,1,292.32,220.15Z" style="fill:#e2d02d"/><path d="M311,221.16c0,1.12-1.32,2-3,2s-3-.92-3-2,1.32-2,3-2S311,220,311,221.16Z" style="fill:#e2d02d"/><path d="M320.41,214.64c0,1.36-1.47,2.47-3.28,2.47s-3.28-1.11-3.28-2.47,1.47-2.47,3.28-2.47S320.41,213.27,320.41,214.64Z" style="fill:#e2d02d"/><path d="M342.87,193.68c0,2-1.25,3.6-2.8,3.6s-2.81-1.62-2.81-3.6,1.26-3.6,2.81-3.6S342.87,191.69,342.87,193.68Z" style="fill:#e2d02d"/><path d="M472.18,249.56c0,2.16-2.43,3.9-5.42,3.9s-5.43-1.74-5.43-3.9,2.43-3.9,5.43-3.9S472.18,247.41,472.18,249.56Z" style="fill:#e2d02d"/><path d="M177.58,147.47c0,1.29-1.94,2.34-4.33,2.34s-4.33-1.05-4.33-2.34,1.94-2.34,4.33-2.34S177.58,146.18,177.58,147.47Z" style="fill:#e2d02d"/><path d="M326,226.48a2.84,2.84,0,1,1-2.8-3.28A3.07,3.07,0,0,1,326,226.48Z" style="fill:#e2d02d"/><path d="M335.39,220.15c0,1.68-1.05,3-2.35,3s-2.34-1.37-2.34-3,1.05-3,2.34-3S335.39,218.47,335.39,220.15Z" style="fill:#e2d02d"/><path d="M347.32,208.43c0,1.42-1.78,2.58-4,2.58s-4-1.16-4-2.58,1.79-2.57,4-2.57S347.32,207,347.32,208.43Z" style="fill:#e2d02d"/><path d="M334.73,260.56a6.24,6.24,0,1,1-6.24-6.29A6.26,6.26,0,0,1,334.73,260.56Z" style="fill:#e2d02d"/><path d="M343.16,250.29c0,1.16-1.54,2.11-3.43,2.11s-3.44-1-3.44-2.11,1.54-2.12,3.44-2.12S343.16,249.12,343.16,250.29Z" style="fill:#e2d02d"/><path d="M349.4,239.14c0,2-2.17,3.59-4.84,3.59s-4.83-1.61-4.83-3.59,2.16-3.59,4.83-3.59S349.4,237.16,349.4,239.14Z" style="fill:#e2d02d"/><path d="M359.39,228.37c0,1.21-1.54,2.19-3.44,2.19s-3.43-1-3.43-2.19,1.54-2.18,3.43-2.18S359.39,227.17,359.39,228.37Z" style="fill:#e2d02d"/><path d="M372.18,216.83a4.37,4.37,0,1,1-4.37-4.37A4.37,4.37,0,0,1,372.18,216.83Z" style="fill:#e2d02d"/><path d="M386.85,207.47a3.18,3.18,0,1,1-3.18-3.13A3.15,3.15,0,0,1,386.85,207.47Z" style="fill:#e2d02d"/><path d="M356,215.27a1.72,1.72,0,1,1-1.71-1.56A1.64,1.64,0,0,1,356,215.27Z" style="fill:#e2d02d"/><path d="M367.81,246.51a4.23,4.23,0,1,1-4.21-3.78A4,4,0,0,1,367.81,246.51Z" style="fill:#e2d02d"/><path d="M375,233.05a2.34,2.34,0,1,1-2.34-2.49A2.43,2.43,0,0,1,375,233.05Z" style="fill:#e2d02d"/><path d="M357.51,256.48a4.06,4.06,0,1,1-4.05-4.08A4.07,4.07,0,0,1,357.51,256.48Z" style="fill:#e2d02d"/><path d="M385.29,250.39a4.4,4.4,0,1,1-4.37-3.88A4.14,4.14,0,0,1,385.29,250.39Z" style="fill:#e2d02d"/><path d="M376.55,263.05a4.41,4.41,0,0,1-8.74,0c0-2.09,2-3.78,4.37-3.78S376.55,261,376.55,263.05Z" style="fill:#e2d02d"/><path d="M384.12,236.1c0,1.68-.81,3-1.81,3s-1.81-1.36-1.81-3,.81-3,1.81-3S384.12,234.42,384.12,236.1Z" style="fill:#e2d02d"/><path d="M400.89,259.77c0,1.81-1.75,3.28-3.9,3.28s-3.9-1.47-3.9-3.28,1.74-3.29,3.9-3.29S400.89,258,400.89,259.77Z" style="fill:#e2d02d"/><path d="M398.7,245.45a2.81,2.81,0,1,1-2.8-2.72A2.76,2.76,0,0,1,398.7,245.45Z" style="fill:#e2d02d"/><path d="M400.89,231.81c0,.69-1.12,1.24-2.5,1.24s-2.49-.55-2.49-1.24,1.11-1.25,2.49-1.25S400.89,231.12,400.89,231.81Z" style="fill:#e2d02d"/><path d="M397,223.36c0,1.67-2.27,3-5.07,3s-5.07-1.35-5.07-3,2.27-3,5.07-3S397,221.69,397,223.36Z" style="fill:#e2d02d"/><path d="M404.32,207.47a2.83,2.83,0,1,1-2.81-3.13A3,3,0,0,1,404.32,207.47Z" style="fill:#e2d02d"/><path d="M300.63,290a2.5,2.5,0,1,1-2.5-2.59A2.54,2.54,0,0,1,300.63,290Z" style="fill:#e2d02d"/><path d="M333.36,150.16c0,2.39-1.52,4.33-3.4,4.33s-3.39-1.94-3.39-4.33,1.52-4.34,3.39-4.34S333.36,147.76,333.36,150.16Z" style="fill:#e2d02d"/><path d="M376.55,202.47c0,1-1.42,1.87-3.16,1.87s-3.16-.83-3.16-1.87,1.41-1.87,3.16-1.87S376.55,201.44,376.55,202.47Z" style="fill:#e2d02d"/><path d="M282.55,284c0,.93-1.18,1.68-2.65,1.68s-2.65-.75-2.65-1.68,1.19-1.68,2.65-1.68S282.55,283,282.55,284Z" style="fill:#e2d02d"/><path d="M454.43,195.6a3.29,3.29,0,1,1-3.28-3A3.17,3.17,0,0,1,454.43,195.6Z" style="fill:#e2d02d"/><path d="M346.44,280.93a3.29,3.29,0,1,1-3.28-3A3.17,3.17,0,0,1,346.44,280.93Z" style="fill:#e2d02d"/><path d="M314.67,282.29c0,1.2-2,2.18-4.45,2.18s-4.45-1-4.45-2.18,2-2.19,4.45-2.19S314.67,281.08,314.67,282.29Z" style="fill:#e2d02d"/><path d="M466.17,268.24c0,2.1-2.17,3.79-4.84,3.79s-4.83-1.69-4.83-3.79,2.16-3.79,4.83-3.79S466.17,266.15,466.17,268.24Z" style="fill:#e2d02d"/><path d="M427,218.45a4.76,4.76,0,1,1-4.76-4.74A4.76,4.76,0,0,1,427,218.45Z" style="fill:#e2d02d"/><path d="M413.22,222.42a3.83,3.83,0,1,1-3.83-4A3.9,3.9,0,0,1,413.22,222.42Z" style="fill:#e2d02d"/><ellipse cx="441.14" cy="220.09" rx="3.74" ry="3.27" style="fill:#e2d02d"/><path d="M429.6,236.8a3.75,3.75,0,1,1-3.75-3.75A3.74,3.74,0,0,1,429.6,236.8Z" style="fill:#e2d02d"/><path d="M449.34,238.05c0,1.38-1.84,2.49-4.1,2.49s-4.1-1.11-4.1-2.49,1.84-2.5,4.1-2.5S449.34,236.67,449.34,238.05Z" style="fill:#e2d02d"/><path d="M414.62,238.05c0,1.38-1.47,2.49-3.28,2.49s-3.27-1.11-3.27-2.49,1.46-2.5,3.27-2.5S414.62,236.67,414.62,238.05Z" style="fill:#e2d02d"/><path d="M413.06,253.44a3.12,3.12,0,1,1-3.12-3.05A3.08,3.08,0,0,1,413.06,253.44Z" style="fill:#e2d02d"/><path d="M431.78,254.44c0,1.13-1.32,2-3,2s-3-.91-3-2,1.33-2,3-2S431.78,253.31,431.78,254.44Z" style="fill:#e2d02d"/><path d="M441.14,247.92c0,1.36-1.46,2.47-3.27,2.47s-3.28-1.11-3.28-2.47,1.47-2.47,3.28-2.47S441.14,246.56,441.14,247.92Z" style="fill:#e2d02d"/><path d="M446.76,259.77a2.85,2.85,0,1,1-2.81-3.29A3.07,3.07,0,0,1,446.76,259.77Z" style="fill:#e2d02d"/><path d="M191.65,271.26c0,1.67-2.27,3-5.07,3s-5.07-1.35-5.07-3,2.27-3,5.07-3S191.65,269.59,191.65,271.26Z" style="fill:#e2d02d"/><path d="M118.48,255.56a2.57,2.57,0,1,1-2.53-3A2.8,2.8,0,0,1,118.48,255.56Z" style="fill:#e2d02d"/><path d="M155.66,271.81a2.57,2.57,0,1,1-2.54-3A2.81,2.81,0,0,1,155.66,271.81Z" style="fill:#e2d02d"/><path d="M153.79,240.61a2.83,2.83,0,1,1-2.81-3.12A3,3,0,0,1,153.79,240.61Z" style="fill:#e2d02d"/><path d="M176.41,251.6a4.76,4.76,0,1,1-4.76-4.75A4.75,4.75,0,0,1,176.41,251.6Z" style="fill:#e2d02d"/><path d="M162.68,255.56a3.83,3.83,0,1,1-3.82-4A3.89,3.89,0,0,1,162.68,255.56Z" style="fill:#e2d02d"/><path d="M194.35,253.24a3.78,3.78,0,1,1-3.74-3.27A3.52,3.52,0,0,1,194.35,253.24Z" style="fill:#e2d02d"/><path d="M213.08,260.1c0,2-1.26,3.6-2.81,3.6s-2.81-1.61-2.81-3.6,1.26-3.6,2.81-3.6S213.08,258.11,213.08,260.1Z" style="fill:#e2d02d"/><path d="M225.48,246.07c0,2.15-2.43,3.9-5.42,3.9s-5.42-1.75-5.42-3.9,2.42-3.9,5.42-3.9S225.48,243.91,225.48,246.07Z" style="fill:#e2d02d"/><path d="M207.46,246.07c0,1.29-1.94,2.34-4.33,2.34s-4.33-1-4.33-2.34,1.94-2.34,4.33-2.34S207.46,244.78,207.46,246.07Z" style="fill:#e2d02d"/><path d="M98.82,244.75a4,4,0,1,1-4-3.42A3.73,3.73,0,0,1,98.82,244.75Z" style="fill:#e2d02d"/><path d="M126.17,271.26c0,1.5-1.49,2.72-3.32,2.72a2.77,2.77,0,1,1,0-5.44C124.68,268.54,126.17,269.76,126.17,271.26Z" style="fill:#e2d02d"/><path d="M143.29,245.29a3.51,3.51,0,1,1-3.49-3.12A3.32,3.32,0,0,1,143.29,245.29Z" style="fill:#e2d02d"/><path d="M160.92,228.73a3.57,3.57,0,1,1-3.57-3.74A3.66,3.66,0,0,1,160.92,228.73Z" style="fill:#e2d02d"/><path d="M182.46,230.19c0,1.86-2.07,3.37-4.61,3.37s-4.6-1.51-4.6-3.37,2.06-3.37,4.6-3.37S182.46,228.33,182.46,230.19Z" style="fill:#e2d02d"/><path d="M198.8,236.1a3.69,3.69,0,1,1-3.63-3A3.37,3.37,0,0,1,198.8,236.1Z" style="fill:#e2d02d"/><path d="M173.25,240.16c0,1.11-1.42,2-3.18,2s-3.18-.9-3.18-2,1.42-2,3.18-2S173.25,239.05,173.25,240.16Z" style="fill:#e2d02d"/><path d="M186.86,242.3a2.21,2.21,0,1,1-2.2-2.45A2.33,2.33,0,0,1,186.86,242.3Z" style="fill:#e2d02d"/><path d="M63.64,191.78c0,1.7-2,3.07-4.35,3.07S55,193.48,55,191.78s1.95-3.06,4.34-3.06S63.64,190.09,63.64,191.78Z" style="fill:#e2d02d"/><path d="M73.11,242a3.77,3.77,0,1,1-3.74-3.33A3.55,3.55,0,0,1,73.11,242Z" style="fill:#e2d02d"/><path d="M48.92,214.89a3.72,3.72,0,0,1-4,3.39,3.43,3.43,0,1,1,0-6.78A3.72,3.72,0,0,1,48.92,214.89Z" style="fill:#e2d02d"/><path d="M68.86,229.12c0,1.24-1.94,2.25-4.33,2.25s-4.33-1-4.33-2.25,1.94-2.25,4.33-2.25S68.86,227.87,68.86,229.12Z" style="fill:#e2d02d"/><path d="M98.93,162.32a2.61,2.61,0,1,1-2.61-2.5A2.56,2.56,0,0,1,98.93,162.32Z" style="fill:#e2d02d"/><path d="M89,258.61a5.17,5.17,0,1,1-5.15-4.76A5,5,0,0,1,89,258.61Z" style="fill:#e2d02d"/><path d="M242.28,256.77c0,1.84-1.87,3.33-4.18,3.33s-4.17-1.49-4.17-3.33,1.87-3.33,4.17-3.33S242.28,254.93,242.28,256.77Z" style="fill:#e2d02d"/><path d="M228,260.28c0,.93-1.16,1.68-2.58,1.68s-2.59-.75-2.59-1.68,1.16-1.67,2.59-1.67S228,259.36,228,260.28Z" style="fill:#e2d02d"/><path d="M200.72,71a2.85,2.85,0,1,1-2.81-3.29A3.08,3.08,0,0,1,200.72,71Z" style="fill:#e2d02d"/><path d="M220.24,59.14A6.25,6.25,0,1,1,214,52.86,6.27,6.27,0,0,1,220.24,59.14Z" style="fill:#e2d02d"/><path d="M230.07,68.28c0,1.17-1.53,2.11-3.43,2.11s-3.43-.94-3.43-2.11,1.54-2.12,3.43-2.12S230.07,67.11,230.07,68.28Z" style="fill:#e2d02d"/><path d="M248.64,70.39a4.06,4.06,0,1,1-4-4.08A4.07,4.07,0,0,1,248.64,70.39Z" style="fill:#e2d02d"/><path d="M275.55,74.47a4.41,4.41,0,1,1-4.37-3.79A4.12,4.12,0,0,1,275.55,74.47Z" style="fill:#e2d02d"/><path d="M246.3,89.43c0,1.55-.77,2.81-1.71,2.81s-1.72-1.26-1.72-2.81.77-2.81,1.72-2.81S246.3,87.88,246.3,89.43Z" style="fill:#e2d02d"/><path d="M231.48,87.13a2.42,2.42,0,1,1-2.42-2.3A2.36,2.36,0,0,1,231.48,87.13Z" style="fill:#e2d02d"/><path d="M259.56,96.89c0,1.7-1.08,3.09-2.41,3.09s-2.42-1.39-2.42-3.09,1.08-3.09,2.42-3.09S259.56,95.18,259.56,96.89Z" style="fill:#e2d02d"/><path d="M199.3,122.53c0,1.67-2.27,3-5.07,3s-5.07-1.35-5.07-3,2.27-3,5.07-3S199.3,120.87,199.3,122.53Z" style="fill:#e2d02d"/><path d="M184.06,102.87a4.76,4.76,0,1,1-4.76-4.75A4.75,4.75,0,0,1,184.06,102.87Z" style="fill:#e2d02d"/><path d="M283.47,91.43a4.76,4.76,0,1,1-4.76-4.74A4.75,4.75,0,0,1,283.47,91.43Z" style="fill:#e2d02d"/><path d="M168.49,122.53a4.76,4.76,0,1,1-4.76-4.74A4.76,4.76,0,0,1,168.49,122.53Z" style="fill:#e2d02d"/><path d="M191.62,50.72A4.76,4.76,0,1,1,186.86,46,4.75,4.75,0,0,1,191.62,50.72Z" style="fill:#e2d02d"/><path d="M264.32,135.33a4.76,4.76,0,1,1-4.76-4.75A4.75,4.75,0,0,1,264.32,135.33Z" style="fill:#e2d02d"/><path d="M170.33,106.83a3.82,3.82,0,1,1-3.82-4A3.89,3.89,0,0,1,170.33,106.83Z" style="fill:#e2d02d"/><path d="M202,104.51a3.78,3.78,0,1,1-3.75-3.27A3.53,3.53,0,0,1,202,104.51Z" style="fill:#e2d02d"/><path d="M221.8,120.91c0,2-1.26,3.6-2.81,3.6s-2.81-1.61-2.81-3.6,1.26-3.6,2.81-3.6S221.8,118.92,221.8,120.91Z" style="fill:#e2d02d"/><path d="M233.13,97.34c0,2.16-2.42,3.9-5.42,3.9s-5.42-1.74-5.42-3.9,2.43-3.9,5.42-3.9S233.13,95.19,233.13,97.34Z" style="fill:#e2d02d"/><path d="M215.11,97.34c0,1.29-1.94,2.34-4.33,2.34s-4.33-1.05-4.33-2.34S208.39,95,210.78,95,215.11,96.05,215.11,97.34Z" style="fill:#e2d02d"/><path d="M176.76,68.28c0,1.86-2.06,3.37-4.6,3.37s-4.61-1.51-4.61-3.37,2.07-3.37,4.61-3.37S176.76,66.42,176.76,68.28Z" style="fill:#e2d02d"/><path d="M206.45,87.37a3.68,3.68,0,1,1-3.62-3A3.37,3.37,0,0,1,206.45,87.37Z" style="fill:#e2d02d"/><path d="M180.9,91.43c0,1.11-1.42,2-3.18,2s-3.17-.9-3.17-2,1.42-2,3.17-2S180.9,90.33,180.9,91.43Z" style="fill:#e2d02d"/><path d="M194.52,93.57a2.22,2.22,0,1,1-2.21-2.44A2.34,2.34,0,0,1,194.52,93.57Z" style="fill:#e2d02d"/><path d="M248.6,125.55c0,1.84-1.87,3.34-4.17,3.34s-4.17-1.5-4.17-3.34,1.86-3.33,4.17-3.33S248.6,123.71,248.6,125.55Z" style="fill:#e2d02d"/><path d="M235.68,111.56c0,.92-1.16,1.67-2.59,1.67s-2.59-.75-2.59-1.67,1.16-1.68,2.59-1.68S235.68,110.63,235.68,111.56Z" style="fill:#e2d02d"/><path d="M535.35,221.82a2.85,2.85,0,1,1-2.81-3.29A3.08,3.08,0,0,1,535.35,221.82Z" style="fill:#e2d02d"/><path d="M547.32,214a6.24,6.24,0,1,1-6.24-6.28A6.26,6.26,0,0,1,547.32,214Z" style="fill:#e2d02d"/><path d="M513,200a6.25,6.25,0,1,1-6.25-6.28A6.27,6.27,0,0,1,513,200Z" style="fill:#e2d02d"/><path d="M589.55,257.18c0,1.17-1.54,2.11-3.44,2.11s-3.43-.94-3.43-2.11,1.54-2.12,3.43-2.12S589.55,256,589.55,257.18Z" style="fill:#e2d02d"/><path d="M601.44,283.77a4.06,4.06,0,1,1-4.05-4.08A4.07,4.07,0,0,1,601.44,283.77Z" style="fill:#e2d02d"/><path d="M549,261.6c0,1.55-.77,2.81-1.72,2.81s-1.71-1.26-1.71-2.81.76-2.81,1.71-2.81S549,260.05,549,261.6Z" style="fill:#e2d02d"/><path d="M566.11,237.93a2.42,2.42,0,1,1-2.42-2.29A2.37,2.37,0,0,1,566.11,237.93Z" style="fill:#e2d02d"/><path d="M599.81,264a2.42,2.42,0,1,1-2.42-2.3A2.36,2.36,0,0,1,599.81,264Z" style="fill:#e2d02d"/><path d="M533.93,273.34c0,1.67-2.27,3-5.07,3s-5.07-1.35-5.07-3,2.27-3,5.07-3S533.93,271.67,533.93,273.34Z" style="fill:#e2d02d"/><path d="M518.69,253.67a4.76,4.76,0,1,1-4.76-4.74A4.76,4.76,0,0,1,518.69,253.67Z" style="fill:#e2d02d"/><path d="M503.12,273.34a4.76,4.76,0,1,1-4.76-4.75A4.75,4.75,0,0,1,503.12,273.34Z" style="fill:#e2d02d"/><path d="M534.49,195a4.76,4.76,0,1,1-4.76-4.74A4.76,4.76,0,0,1,534.49,195Z" style="fill:#e2d02d"/><path d="M505,257.63a3.83,3.83,0,1,1-3.82-4A3.9,3.9,0,0,1,505,257.63Z" style="fill:#e2d02d"/><path d="M536.63,255.31a3.78,3.78,0,1,1-3.74-3.26A3.52,3.52,0,0,1,536.63,255.31Z" style="fill:#e2d02d"/><path d="M519.28,226.38a3.78,3.78,0,1,1-3.75-3.27A3.53,3.53,0,0,1,519.28,226.38Z" style="fill:#e2d02d"/><path d="M525.92,212a3.78,3.78,0,1,1-3.75-3.27A3.54,3.54,0,0,1,525.92,212Z" style="fill:#e2d02d"/><path d="M500.25,238.66a3.78,3.78,0,1,1-3.75-3.27A3.53,3.53,0,0,1,500.25,238.66Z" style="fill:#e2d02d"/><path d="M568.88,281.68a3.78,3.78,0,1,1-3.75-3.26A3.53,3.53,0,0,1,568.88,281.68Z" style="fill:#e2d02d"/><path d="M552.55,278.08c0,2-1.26,3.6-2.81,3.6s-2.81-1.61-2.81-3.6,1.26-3.6,2.81-3.6S552.55,276.1,552.55,278.08Z" style="fill:#e2d02d"/><path d="M567.76,248.15c0,2.15-2.43,3.9-5.42,3.9s-5.42-1.75-5.42-3.9,2.43-3.91,5.42-3.91S567.76,246,567.76,248.15Z" style="fill:#e2d02d"/><path d="M549.74,248.15c0,1.29-1.94,2.34-4.33,2.34s-4.33-1.05-4.33-2.34,1.94-2.34,4.33-2.34S549.74,246.85,549.74,248.15Z" style="fill:#e2d02d"/><path d="M511.39,219.08c0,1.86-2.06,3.37-4.61,3.37s-4.6-1.51-4.6-3.37,2.06-3.37,4.6-3.37S511.39,217.22,511.39,219.08Z" style="fill:#e2d02d"/><path d="M541.08,238.17a3.68,3.68,0,1,1-3.63-3A3.38,3.38,0,0,1,541.08,238.17Z" style="fill:#e2d02d"/><path d="M515.53,242.24c0,1.11-1.42,2-3.18,2s-3.18-.89-3.18-2,1.43-2,3.18-2S515.53,241.13,515.53,242.24Z" style="fill:#e2d02d"/><path d="M529.14,244.38a2.21,2.21,0,1,1-2.2-2.45A2.33,2.33,0,0,1,529.14,244.38Z" style="fill:#e2d02d"/><path d="M583.23,276.36c0,1.84-1.87,3.33-4.17,3.33s-4.18-1.49-4.18-3.33,1.87-3.34,4.18-3.34S583.23,274.52,583.23,276.36Z" style="fill:#e2d02d"/><path d="M570.3,262.36c0,.93-1.15,1.68-2.58,1.68s-2.59-.75-2.59-1.68,1.16-1.67,2.59-1.67S570.3,261.43,570.3,262.36Z" style="fill:#e2d02d"/><path d="M316.8,260.92c0,2.3-2.39,4.16-5.34,4.16s-5.34-1.86-5.34-4.16,2.39-4.15,5.34-4.15S316.8,258.63,316.8,260.92Z" style="fill:#e2d02d"/><path d="M319.35,244.85c0,1.18-1.23,2.13-2.75,2.13s-2.75-.95-2.75-2.13,1.23-2.12,2.75-2.12S319.35,243.68,319.35,244.85Z" style="fill:#e2d02d"/><path d="M295.87,231.67c0,1-1.18,1.89-2.63,1.89s-2.64-.85-2.64-1.89,1.18-1.9,2.64-1.9S295.87,230.62,295.87,231.67Z" style="fill:#e2d02d"/><path d="M279.71,242.92a3.73,3.73,0,1,1-3.68-3.1A3.43,3.43,0,0,1,279.71,242.92Z" style="fill:#e2d02d"/><path d="M330,238.23c0,1.31-1.69,2.38-3.78,2.38s-3.78-1.07-3.78-2.38,1.69-2.37,3.78-2.37S330,236.92,330,238.23Z" style="fill:#e2d02d"/><path d="M417.43,262.4c0,2.1-1.08,3.8-2.41,3.8s-2.4-1.7-2.4-3.8,1.08-3.79,2.4-3.79S417.43,260.31,417.43,262.4Z" style="fill:#e2d02d"/><path d="M455.54,208.43c0,2-2,3.55-4.39,3.55s-4.39-1.59-4.39-3.55,2-3.55,4.39-3.55S455.54,206.47,455.54,208.43Z" style="fill:#e2d02d"/><path d="M463.6,232.23a2.32,2.32,0,1,1-2.27-1.81A2.08,2.08,0,0,1,463.6,232.23Z" style="fill:#e2d02d"/><path d="M439.82,199.12c0,2.26-2.34,4.09-5.23,4.09s-5.23-1.83-5.23-4.09,2.34-4.1,5.23-4.1S439.82,196.86,439.82,199.12Z" style="fill:#e2d02d"/><path d="M361.87,202.84c0,2.06-2.18,3.73-4.87,3.73s-4.88-1.67-4.88-3.73,2.18-3.72,4.88-3.72S361.87,200.79,361.87,202.84Z" style="fill:#e2d02d"/><ellipse cx="280.15" cy="141.18" rx="4.91" ry="3.15" style="fill:#e2d02d"/><path d="M309.16,116.86a2.94,2.94,0,1,1-2.89-3.47A3.22,3.22,0,0,1,309.16,116.86Z" style="fill:#e2d02d"/><path d="M340,138a1.8,1.8,0,1,1-1.8-1.84A1.82,1.82,0,0,1,340,138Z" style="fill:#e2d02d"/><path d="M298.13,105.17c0,.79-1,1.43-2.26,1.43s-2.26-.64-2.26-1.43,1-1.44,2.26-1.44S298.13,104.38,298.13,105.17Z" style="fill:#e2d02d"/><path d="M332.32,280.93a3.84,3.84,0,1,1-3.83-3.52A3.68,3.68,0,0,1,332.32,280.93Z" style="fill:#e2d02d"/><path d="M489.77,225c0,1.82-2,3.29-4.42,3.29s-4.43-1.47-4.43-3.29,2-3.29,4.43-3.29S489.77,223.17,489.77,225Z" style="fill:#e2d02d"/><path d="M278.71,120.34c0,2.54-2.85,4.59-6.36,4.59s-6.36-2.05-6.36-4.59,2.85-4.59,6.36-4.59S278.71,117.8,278.71,120.34Z" style="fill:#e2d02d"/><ellipse cx="299.18" cy="132.67" rx="3.59" ry="2.65" style="fill:#e2d02d"/><path d="M317.17,174.84c0,1.07-1.28,1.94-2.86,1.94s-2.85-.87-2.85-1.94,1.28-1.94,2.85-1.94S317.17,173.77,317.17,174.84Z" style="fill:#e2d02d"/><path d="M345.18,163.53c0,1.51-1.65,2.75-3.67,2.75s-3.67-1.24-3.67-2.75,1.64-2.75,3.67-2.75S345.18,162,345.18,163.53Z" style="fill:#e2d02d"/><path d="M352.51,185.17a3.48,3.48,0,1,1-3.42-2.83A3.17,3.17,0,0,1,352.51,185.17Z" style="fill:#e2d02d"/><path d="M357,164.18a2.29,2.29,0,1,1-2.24-2.74A2.54,2.54,0,0,1,357,164.18Z" style="fill:#e2d02d"/><path d="M376.77,163.57a3.75,3.75,0,1,1-3.72-4.26A4,4,0,0,1,376.77,163.57Z" style="fill:#e2d02d"/><path d="M220,156.75c0,1.86-2,3.38-4.44,3.38s-4.45-1.52-4.45-3.38,2-3.39,4.45-3.39S220,154.88,220,156.75Z" style="fill:#e2d02d"/><path d="M226.79,187.65c0,.82-1.65,1.48-3.69,1.48s-3.68-.66-3.68-1.48,1.65-1.48,3.68-1.48S226.79,186.83,226.79,187.65Z" style="fill:#e2d02d"/></g></g></svg>