<svg xmlns="http://www.w3.org/2000/svg" viewBox="0 0 343.72 127.71"><title>green-swordtail</title><g id="Layer_2" data-name="Layer 2"><g id="Ñëîé_2" data-name="Ñëîé 2"><path d="M258.79,49.32c-2.06,2.46-3.08,8.42-2.47,11.5s-.21,2.26-2.06,4.42-1,3.39-1,6.68,0,1-2.88,6.78a3.37,3.37,0,0,0,.44,4c-.31-.18-10-6-12-8s-1.39-1.51-6.94-4.31c-.53-.27-1-.52-1.37-.76a.71.71,0,0,1,.13-.16s6.47,1.63,15.26,3.33S245,71,237.72,68.48s-12.8-5.55-2.62-4,15.57,1.24,9.71,0-14.18-4.31-13.88-5.08,12.95,1.85,18,1.69-13.72-3.54-19-4.78,13.41-1.39,17.73-1.39S234.48,52.6,230.93,52s19.89-.47,21.59-1.7-22.82-.46-25.29-1.7,21.74-1.38,27.14-3.08-23.74,1.39-27.14,0,16.5-3.24,23.1-5.09-17.55,1.85-22,1.85,10.64-3.54,19-7.55-2.32-2-8.64.77-10.17,5.09-15.08,5.86S245.89,29.17,244.81,27,227.39,37,222.73,38.06s14.53-10.28,19.15-14.44-7.55,3.54-17.57,9.4,12.48-11.1,18-16.34-19.11,14.18-26.67,17.58,3.86-3.24,9.25-9.1,12.49-10.17,4.63-5.55-11.72,11.25-18.19,13.72,4.62-6.47,6.16-7.86-15.21,12.59-15.21,12.59c-.79-.82-1.28-1.29-1.28-1.29,2.67-3.28,10.89-10.48,12.53-12.12s3.91-1,8.23-4.11S227.54,15.81,229,16s4.32-1.65,14.8-6.38,8.43-.2,7.2,4.93,1.43,8.43,2.88,10.28,1.23,2.67.82,5.35S256.11,34.92,259,39,260.84,46.85,258.79,49.32Z" style="fill:#9fa4a5"/><path d="M53.34,81.12c-2.47-1.69-5.4.31-9.87,0s-6.94-4.62-9.09-6.63-4.94,1.24-6.74-1-3.9-1.16-5.29-.25-2.77-.91-4.93-2-.93-2.32,0-2.42,3.88-.74,4-.78h0a6.48,6.48,0,0,0,8.78-2.61s4.07,1.13,5.71.32c1.19-.58,1.63-1.83,1-3.41,2.74-.4,4.5-.51,11.59,1.53a31,31,0,0,0,6.81,1.22,12.88,12.88,0,0,1,1.93,2.14,13.42,13.42,0,0,1,1.11,1.82,15,15,0,0,1,.94,2.19l0,.1c1.52,4.37,2.29,4.88,3.35,7.08S56.58,80.35,53.34,81.12Z" style="fill:#6cdbea"/><path d="M68.28,84.51c-1.75-.25-3.41-.42-4.46-.61-2.46-.47-8-1.08-10.48-2.78,3.24-.77,10.48-.46,9.4-2.68,3.09.86,1.85,1.29,4.17,4.22C67.32,83.19,67.78,83.82,68.28,84.51Z" style="fill:#aab2b5"/><path d="M112.85,86.36c-7.09.47-7.25.62-12.65.16-3.64-.32-4.75,0-6,.63-1.56-2.08.54-2.3.15-3.67,1.33-.18,2.88-.47,4.78-.66,5.85-.62,14.18,1.08,20.12,1.39S119.94,85.9,112.85,86.36Z" style="fill:#8beff7"/><path d="M215.44,74.7c-.69.17-.94.19-1.31.72-.12.16-.39.23-.78.26-1.51.12-4.81-.29-7.59,2.82-6.58-.82-33.92,2.47-43.28,4.93s-32.57,6.79-46.14,9.25l-.59.1-.24,0-.89.12c-.47,0-1,.1-1.46.13a3,3,0,0,1-.43,0l-.67,0-1.41,0h-2.28c-3.36,0-7.21-.28-11.37-.7-2.64-.27-5.39-.59-8.24-1,1.3-.46,3.46-.72,3-1.61C91,88.52,96,89.6,94.2,87.15c1.25-.63,2.36-1,6-.63,5.4.46,5.56.31,12.65-.16s12.35-1.85,6.4-2.15-14.27-2-20.13-1.39c-1.89.2-3.44.48-4.77.66a2.87,2.87,0,0,0-.47-.82c-1.69-2.15-1.54-2.15,1.08-1.54,1.45.34,1.2-.5-.12-1.87a9.77,9.77,0,0,0,2.28-.81c4.32-2.25,8.17.25,14,0s12-4.1,18.24-2.1,9.35,3.39,17.37,3.24,15,1.23,17.27-.31,4.16-.89,10.79-.83,3.85.06,7.4-1.63,10.48.61,13.57-.47S210.29,72.45,215.44,74.7Z" style="fill:#aab2b5"/><path d="M215.46,63.86s-76.86,1.55-102.61,0-37,.15-45,.69c-5.14.34-8.7.81-12.46.56a31,31,0,0,1-6.81-1.22c-7.09-2-8.85-1.93-11.59-1.53a7.37,7.37,0,0,0-1.21-2c1.85-1.64,6.17-2,15.42-.82s37.2-1.44,60,0,102.93.95,102.93.95A13.26,13.26,0,0,0,215.46,63.86Z" style="fill:#e21a29"/><path d="M214.13,60.54S134,61,111.2,59.59s-50.77,1.23-60,0-13.57-.82-15.42.82c-2-2.46.42-3.7,2.88-4.52s10.07-2.06,15.83,0c3.44,1.23,7.11,0,9.94-2h0c14-2,41.13-1.55,71.47,1.3,17.67,1.65,40.22,2,56.44,2,12.23,0,20.86-.21,21.07-.21l0-.92A27.61,27.61,0,0,0,214.13,60.54Z" style="fill:#8beff7"/><path d="M213.23,55.18c-2.48,0-47,1-77.17-1.8-28.5-2.68-54.23-3.26-69-1.65a11.79,11.79,0,0,0,1.62-2c2.06-3.28,2.47-2.87,15.21-5.2s45,.89,66.76,4.38,60.55.78,60.55.78A19,19,0,0,1,213.23,55.18Z" style="fill:#8beff7"/><path d="M227.23,45.51c-3.39-1.39,16.5-3.24,23.1-5.09s-17.55,1.85-22,1.85,10.64-3.54,19-7.55-2.32-2-8.64.77-10.17,5.09-15.08,5.86S245.89,29.17,244.81,27,227.39,37,222.73,38.06s14.53-10.28,19.15-14.44-7.55,3.54-17.57,9.4,12.48-11.1,18-16.34-19.11,14.18-26.67,17.58,3.86-3.24,9.25-9.1,12.49-10.17,4.63-5.55-11.72,11.25-18.19,13.72,4.62-6.47,6.16-7.86-15.21,12.59-15.21,12.59a56.33,56.33,0,0,1,8.86,11.62,19,19,0,0,1,2.06,5.5c.06.31.1.62.13.92a27.61,27.61,0,0,0,.77,4.44,13.26,13.26,0,0,0,1.33,3.32,7.09,7.09,0,0,0,.76,1.12,6.68,6.68,0,0,0,2.07,1.77c10.17-.47,8.51.6,12.21,2.88a.71.71,0,0,1,.13-.16s6.47,1.63,15.26,3.33S245,71,237.72,68.48s-12.8-5.55-2.62-4,15.57,1.24,9.71,0-14.18-4.31-13.88-5.08,12.95,1.85,18,1.69-13.72-3.54-19-4.78,13.41-1.39,17.73-1.39S234.48,52.6,230.93,52s19.89-.47,21.59-1.7-22.82-.46-25.29-1.7,21.74-1.38,27.14-3.08S230.63,46.9,227.23,45.51Zm-2.46,19.22c-6.89-3.19-8.33-.41-10.64-12.44A12.58,12.58,0,0,0,211,44.07c-3.29-3.49-4.63-4.52-2.47-5.85a8.44,8.44,0,0,1,8.84,0c3.39,1.94,8.83,6.67,7.81,10.37s-2.47,5.76-.72,10.18S231.66,67.91,224.77,64.73Z" style="fill:#fed022"/><path d="M330.83,106.69c-.1.55-10,.18-10,.18-39.4,1.13-98.07-26.6-107.51-31.19.39,0,.66-.1.78-.26.37-.53.62-.55,1.31-.72h0a10.81,10.81,0,0,0,1.61-.52,62.13,62.13,0,0,1,8.63-2.46c2.17-.52,1.8-1.4.43-2.23.33.12,3.06,1.17,5.7,2.41h0c2.57,1.2,5.06,2.55,5.16,3.37.21,1.72,12.14,8.65,12.14,8.65,22.2,15.2,50.24,18.62,57.13,19.75S330.94,106.15,330.83,106.69Z" style="fill:#fed022"/><path d="M224.77,64.73c-6.89-3.19-8.33-.41-10.64-12.44A12.52,12.52,0,0,0,211,44.07c-3.29-3.49-4.63-4.52-2.47-5.85a8.44,8.44,0,0,1,8.84,0c3.39,1.94,8.84,6.67,7.81,10.37s-2.46,5.76-.72,10.18S231.66,67.91,224.77,64.73Z" style="fill:#fed94e"/><path d="M112.85,28.77c-.9-.05-1.83-.08-2.79-.1-.8-.79-5.83-6-8.64-16.9.77-4.52.85-.87,4.18-4.12a12.05,12.05,0,0,0,1-1.06C106.75,11.72,107.8,21.42,112.85,28.77Z" style="fill:#9fa4a5"/><path d="M117.57,29.13c-1.49-.15-3.06-.27-4.72-.36-5-7.35-6.1-17-6.28-22.18h0c3-3.52,4-7.85,4.43-5.48a2.72,2.72,0,0,0,3.07,2.36C113.49,7.24,113.42,15,117.57,29.13Z" style="fill:#cadbe0"/><path d="M120,29.4c-.77-.1-1.56-.19-2.39-.27-4.15-14.11-4.08-21.89-3.5-25.66a3.3,3.3,0,0,0,2.17-1.28c1.69-2.16,1.39-3.39,2.46-.46a3.76,3.76,0,0,0,2.07,2.5C119.35,8,117.84,15.65,120,29.4Z" style="fill:#9fa4a5"/><path d="M123.43,29.9c-1.08-.18-2.23-.35-3.47-.5-2.12-13.75-.61-21.4.81-25.17a3.42,3.42,0,0,0,3-.81c2.16-1.54,2.62-4,4.16.16a3.59,3.59,0,0,0,.23.48C126.26,7.39,122.83,15.47,123.43,29.9Z" style="fill:#cadbe0"/><path d="M135.23,5a51.18,51.18,0,0,0-10.5,25.17l-1.3-.22c-.6-14.43,2.83-22.51,4.75-25.84C129.66,6.81,133.1,3.2,135.23,5Z" style="fill:#9fa4a5"/><path d="M141.46,9.07a70.75,70.75,0,0,0-8.68,23,60.63,60.63,0,0,0-8-1.93A51.18,51.18,0,0,1,135.23,5a3.22,3.22,0,0,1,.89,1.25C137.66,9.62,139.55,9.7,141.46,9.07Z" style="fill:#cadbe0"/><path d="M147.64,10.26a74.58,74.58,0,0,0-13.92,22.05l-.94-.26a70.75,70.75,0,0,1,8.68-23c.59-.2,1.18-.46,1.76-.71,2.46-1.08,4.31-2.93,3.85,0A2.24,2.24,0,0,0,147.64,10.26Z" style="fill:#9fa4a5"/><path d="M157.2,10.75a72.52,72.52,0,0,0-14.54,23.72c-3-.64-6-1.35-8.94-2.16a74.58,74.58,0,0,1,13.92-22.05c1.34,1.57,4.71,2.14,7.14,1.33C155.93,11.21,156.7,10.89,157.2,10.75Z" style="fill:#cadbe0"/><path d="M160.46,15.74c-4.18,4-13.62,13.27-16.16,19.07l-1.64-.34A72.52,72.52,0,0,1,157.2,10.75h0c.92-.24,1,.14,1.11,1.92A3.63,3.63,0,0,0,160.46,15.74Z" style="fill:#9fa4a5"/><path d="M172,19.3c-6.39,3.77-16.18,10.08-22.1,16.53q-2.79-.46-5.55-1c2.54-5.8,12-15.12,16.16-19.07a5.31,5.31,0,0,0,4.34,0c3.08-1.27,5.39-1.27,4.32.89C168.33,18.25,169.75,19,172,19.3Z" style="fill:#cadbe0"/><path d="M191,30.56c-2.12.53-2.85,1.2-1.72,1.86-8.11.62-25,2.07-34.86,4.13l-1.13-.16c10.82-4.8,26.5-7.37,34.19-8.41h0a15.4,15.4,0,0,0,3.52.73C195.63,29.17,194.09,29.79,191,30.56Z" style="fill:#9fa4a5"/><path d="M187.49,28c-7.69,1-23.37,3.61-34.19,8.41h0l-2-.32c10.35-8,23.46-12.69,27.87-14.13.63,1,3.76,1.24,6.15,1.83,3.09.77,4.63.93,1.39,1.7C184.4,26,185.2,27.18,187.49,28Z" style="fill:#cadbe0"/><path d="M179.29,20.84a.93.93,0,0,0-.14,1.1c-4.41,1.44-17.52,6.15-27.87,14.13-.48-.07-.95-.16-1.43-.24,5.92-6.45,15.71-12.76,22.1-16.53h0a20.85,20.85,0,0,0,2.72.16C178.21,19.46,180.68,18.84,179.29,20.84Z" style="fill:#9fa4a5"/><path d="M158.53,37.11c-1.37-.17-2.73-.35-4.1-.56,9.88-2.06,26.75-3.51,34.86-4.13a10,10,0,0,0,2.8.91C196.4,34.26,180.93,39.35,158.53,37.11Z" style="fill:#cadbe0"/><path d="M110.06,28.67c-1.86,0-3.83,0-5.87,0,0,0-4.14-7.87-3.06-15.11.11-.73.2-1.33.29-1.83C104.23,22.64,109.26,27.88,110.06,28.67Z" style="fill:#cadbe0"/><path d="M124.73,111.8c-4-3.85-7.84-8.48-7.16-5.55s6.38,12.18,4.83,10-5.85-7.44-7.78-11.51-1.29,3,4.63,11c5.16,7-1.75.84-7.24-7.31v0a47.45,47.45,0,0,1-3.62-15.28h2.27c.48,0,.95,0,1.41,0l.67,0c.15,0,.29,0,.43,0,.51,0,1-.08,1.46-.13a50.3,50.3,0,0,0,7.78,9.15c5.38,5.15-2.89-.62-4.83-2.47s.52,4.26,3.6,7.37S128.74,115.65,124.73,111.8Z" style="fill:#9fa4a5"/><path d="M124.73,124.75a54.67,54.67,0,0,1-8.2-7.64h0a47.62,47.62,0,0,1-4.52-8.6c5.49,8.15,12.4,14.29,7.24,7.31-5.92-8-6.56-15.11-4.63-11s6.24,9.35,7.78,11.51-4.16-7.09-4.83-10,3.14,1.7,7.16,5.55-.48-1.7-3.56-4.81-5.55-9.22-3.6-7.37,10.21,7.62,4.83,2.47a50.3,50.3,0,0,1-7.78-9.15l.89-.12.24,0,.59-.1c11.72,6,8.84,8,10,8.84a4.9,4.9,0,0,1,1.88,4.32c-.2,1.64-1.64,2.06-.2,4.26s.62,2.52,1.33,6,.31,4.73-3,1.64-2.43-1,0,2.26S134.23,132.35,124.73,124.75Z" style="fill:#cadbe0"/><path d="M27.64,62.36a3.08,3.08,0,1,1-3.08-3.08A3.08,3.08,0,0,1,27.64,62.36Z" style="fill:#2b2b2b"/><path d="M24.56,55.89a6.48,6.48,0,0,0-3.09,12.17h0a6.47,6.47,0,1,0,3.08-12.17Zm0,10.69a4.21,4.21,0,1,1,4.21-4.22A4.21,4.21,0,0,1,24.56,66.58Z" style="fill:#414142"/><path d="M24.56,58.16a4.21,4.21,0,1,0,4.21,4.2A4.2,4.2,0,0,0,24.56,58.16Zm0,7.29a3.09,3.09,0,1,1,3.08-3.09A3.08,3.08,0,0,1,24.56,65.45Z" style="fill:#fed94e"/><path d="M90.61,81.15c-3.08-1.38-5.76-1.93-10.69-3.51s-6.89-1.43-2.67.81,9.36,4,11.51,6.06,4.41,4.92-.93,1.83-5.65-3.49-9.55-5.19-5-2.41-7.31-3.34,3.4,4.86,8.64,7.11,5.45,3.17,7,4.51.93,2.26-2.68,0-4.52-2.16-7.4-3.7-3.9-3.89-5.64-4.26,3.49,5.8,6.16,8.16,5,3,4.32,3.58S76.83,91.69,75,89.63s-5-5.78-6.16-6.95-2.44-.78-.9,1.32c-.37-.49-.7-.94-1-1.34-2.31-2.93-1.07-3.36-4.16-4.22-1.06-2.2-1.84-2.71-3.35-7.08,8.4.36,26.82,1.42,30.49,3.9,0,0-9.35-.65-14.69-1.41s7.09,1.8,12.13,4.07S93.69,82.55,90.61,81.15Z" style="fill:#9fa4a5"/><path d="M95,81.12c-2.62-.61-2.77-.61-1.08,1.54a2.87,2.87,0,0,1,.47.82c.39,1.37-1.71,1.59-.15,3.67C96,89.6,91,88.52,91.72,89.91c.5.89-1.66,1.15-3,1.61h0c-.73.28-1.18.61-.73,1.16,1.23,1.55-6.17-.15-5.09,1.08s-.06,2.16-5.11,0a17.64,17.64,0,0,1-6.16-4.87h0c-1.3-1.48-2.42-3-3.38-4.38h0c-.12-.18-.25-.34-.36-.51-1.54-2.1-.23-2.49.9-1.32s4.31,4.9,6.16,6.95,5.66,4.11,6.38,3.58S79.71,92,77,89.63s-7.92-8.53-6.16-8.16,2.77,2.72,5.64,4.26,3.81,1.44,7.4,3.7,4.22,1.33,2.68,0-1.75-2.26-7-4.51-10.89-8-8.64-7.11,3.4,1.65,7.31,3.34,4.21,2.11,9.55,5.19,3.09.21.93-1.83-7.3-3.82-11.51-6.06-2.27-2.38,2.67-.81,7.61,2.13,10.69,3.51,1.74-1-3.29-3.23-17.47-4.83-12.13-4.07,14.69,1.41,14.69,1.41a34,34,0,0,1,5,4C96.16,80.62,96.41,81.46,95,81.12Z" style="fill:#cadbe0"/><path d="M225.69,71.72a62.13,62.13,0,0,0-8.63,2.46,10.81,10.81,0,0,1-1.61.52h0c-5.15-2.25-16.57.56-19.65,1.64s-10-1.23-13.57.47-.77,1.69-7.4,1.63-8.48-.71-10.79.83-9.25.16-17.27.31-11.1-1.23-17.37-3.24-12.38,1.85-18.24,2.1-9.71-2.25-14,0a9.77,9.77,0,0,1-2.28.81,34,34,0,0,0-5-4c-3.67-2.48-22.09-3.54-30.49-3.9l0-.1a15,15,0,0,0-.94-2.19A79.9,79.9,0,0,0,68,68.31c4.5-.66,11.7.32,20,1.45,6.64.9,14.18,1.92,21.64,2.27,3.16.14,7.16.21,11.62.21,18.4,0,44.7-1.13,53.06-2.49,8.88-1.44,37.54-2.72,44-3a7.55,7.55,0,0,0,2.47.85,17.8,17.8,0,0,1,5.33,1.87l0,0h0C227.49,70.32,227.86,71.2,225.69,71.72Z" style="fill:#8beff7"/><path d="M213.38,57c-.2,0-8.83.21-21.06.21-16.22,0-38.77-.36-56.44-2-30.34-2.85-57.44-3.32-71.47-1.3A17.15,17.15,0,0,0,67,51.73c14.8-1.61,40.52-1,69,1.65,30.16,2.82,74.69,1.85,77.17,1.8.06.31.1.62.13.92Z" style="fill:#e21a29"/><path d="M211.17,49.68s-38.81,2.72-60.55-.78-54-6.71-66.76-4.38-13.15,1.92-15.21,5.2a11.79,11.79,0,0,1-1.62,2,17.15,17.15,0,0,1-2.62,2.19h0c-2.83,1.93-6.5,3.2-9.94,2-5.76-2-13.36-.82-15.83,0S33.71,58,35.76,60.41a7.37,7.37,0,0,1,1.21,2c.63,1.58.19,2.83-1,3.41-1.64.81-5.71-.32-5.71-.32A6.55,6.55,0,0,0,31,62.36a6.48,6.48,0,1,0-9.56,5.7c-.17,0-3.15.68-4,.78s-2.16,1.34,0,2.42,3.54,2.89,4.93,2,3.5-2,5.29.25,4.58-1,6.74,1,4.62,6.32,9.09,6.63,7.4-1.69,9.87,0,8,2.31,10.48,2.78c1.05.19,2.71.36,4.46.61h0c1,1.34,2.08,2.9,3.38,4.38-9.6-1.63-19.26-3.48-27.69-5C19.73,79.32.61,65.24.1,62.78s1-3.39,2.47-3,4.62,1.85,3.8,0-2.26-3.5,0-4.32S21,49.11,33.91,44.38s29.4-8.63,54.47-13.77a96.5,96.5,0,0,1,15.81-1.9c2-.07,4-.08,5.87,0,1,0,1.89,0,2.79.1,1.66.09,3.23.21,4.72.36.83.08,1.62.17,2.39.27,1.23.15,2.39.32,3.47.5l1.3.22a60.63,60.63,0,0,1,8,1.93l.94.26c2.9.81,5.9,1.52,8.94,2.16l1.63.34q2.78.55,5.55,1l1.44.24,2,.32h0l1.13.16c1.37.21,2.73.39,4.1.56,21.18,2.68,40.6,2,42.5-.34,0,0,.49.47,1.28,1.29A56.33,56.33,0,0,1,211.17,49.68Z" style="fill:#aab2b5"/><path d="M218.29,66.75c-6.42.28-35.08,1.56-44,3-8.36,1.36-34.66,2.49-53.06,2.49-4.46,0-8.45-.07-11.62-.21-7.46-.35-15-1.37-21.64-2.27-8.34-1.13-15.54-2.11-20-1.45a79.9,79.9,0,0,1-9.56.76,13.42,13.42,0,0,0-1.11-1.82,84.61,84.61,0,0,0,10.39-.76c4.77-.71,12.09.28,20.57,1.44,6.61.89,14.1,1.91,21.48,2.25,16.14.74,54-.58,64.29-2.25,8.37-1.36,33.19-2.55,42.19-3A6.68,6.68,0,0,0,218.29,66.75Z" style="fill:#e21a29"/><path d="M216.22,65c-9,.4-33.82,1.59-42.19,3-10.3,1.67-48.15,3-64.29,2.25-7.38-.34-14.87-1.36-21.48-2.25-8.48-1.16-15.8-2.15-20.57-1.44a84.61,84.61,0,0,1-10.39.76,12.88,12.88,0,0,0-1.93-2.14c3.76.25,7.32-.22,12.46-.56,8-.54,19.27-2.24,45-.69s102.61,0,102.61,0A6.66,6.66,0,0,0,216.22,65Z" style="fill:#8beff7"/><circle cx="26.99" cy="61.11" r="2.08" style="fill:#fed94e"/><path d="M343.68,106.25c-1.64,1.23-3.91,3.08-35.66,2.16S212.33,79.32,205.76,78.5c2.78-3.11,6.08-2.7,7.59-2.82,9.44,4.59,68.11,32.32,107.51,31.19,0,0,9.87.37,10-.18s-17.68-1.88-24.56-3-34.93-4.55-57.13-19.75c0,0-11.93-6.93-12.14-8.65-.1-.82-2.59-2.17-5.16-3.37h0c-2.64-1.24-5.37-2.29-5.7-2.41h0l0,0a17.8,17.8,0,0,0-5.33-1.87,7.55,7.55,0,0,1-2.47-.85c10.17-.47,8.51.6,12.21,2.88.39.24.84.49,1.37.76,5.55,2.8,4.94,2.28,6.94,4.31s11.68,7.8,12,8h0c2.88,3.51,12.5,6.52,26.08,12.47C295.17,103.17,345.32,105,343.68,106.25Z" style="fill:#2b2b2b"/><path d="M156.33,46.31s-34.6-5.7-55.38-5.24-29.64.77-36.54,5.86S55.66,53,44.56,52.68s-16-2.51-7.24-6.52,41.62-11.44,52.1-13.74,15.61-3.25,33.94-.15,22.18,6.95,40.06,8.18,27.14-.63,31.14,1.07S209.83,52.32,156.33,46.31Z" style="fill:#c1c4c6"/><path d="M47.24,78.44s-7.51.3-8.74-1.86-3-4.43-4.63-4.94,1.24-3.45,3.81-2.8,5.75.34,7.09-1.1a6.41,6.41,0,0,1,7.6-.93c3.29,1.65,3.07,2,4.93,5.41s6,6.23,1.65,6.22-5.34-.63-6.06-1.14S51.25,78.57,47.24,78.44Z" style="fill:#4eced8"/><path d="M89.68,45.16S84.85,45,84.23,47s3.09,3.3,11,2.57,20.35.62,29.5,1.29,21.59,2,26.83,2.41,10.06,1.13,9.35-.57-15.11-1.87-21.18-3.22-14.18-3.3-24.15-3.3S99.14,44.58,89.68,45.16Z" style="fill:#c0feff"/><path d="M69.85,58.77c-.24,0-5.71.57-5.86-1.13s2.39-3.77,5.47-3,7.79,2.23,10,1.54,6.4-1.21,13-.8,14.87-1.05,18.34-.36,10.21-.07,12.51,1.16,3.09,2.56-2.59,2.59-7.08-.43-14.2-.51-16.48-.77-22.4-.23S73.1,58.7,69.85,58.77Z" style="fill:#c0feff"/><path d="M173.61,74.7a8.77,8.77,0,0,0,6.07,0c3-1.26,7.52-3.67,13.13-2.46s8.23.92,11.77,0,12.18,1.13,12.65-1.83-4.91-2.61-11.47-1.55-11.3,1.62-15.2.65-10.33,1.16-14,2.17-15.37.45-19.33,1.58S140,73.17,141.46,74.7s4.93,4.73,9.82,3.74,6.83.06,9.18,0,4.35-1.91,7.43-2.07S169.9,74.16,173.61,74.7Z" style="fill:#c0feff"/><path d="M113.78,65.77S100.67,64.07,96,65s-2.67,2.91-.72,3.09,2.47-.54,9.35.54,8.61,1.29,14.33.57,11,.92,12.5-.57,2.67-3.78-3.91-2.84A47.63,47.63,0,0,1,113.78,65.77Z" style="fill:#c0feff"/></g></g></svg>