<svg xmlns="http://www.w3.org/2000/svg" viewBox="0 0 620.85 289.5"><title>Asset 11</title><g id="Layer_2" data-name="Layer 2"><g id="Ñëîé_2" data-name="Ñëîé 2"><path d="M601,219h0c-3.55,1.15-7.69,2.3-12.51,3.39-34.86,7.93-75.93-15.88-100.08-26.58-14.21-6.29-25.07-9-34.49-9.11,3.33-8.79,1.45-14.54-.72-21.95-2.41-8.28,3.11-10.7,2.07-20.71s-11.69-20.51-11.69-20.51a43.12,43.12,0,0,0,14.8-6.64c55.22-33.35,85.59-46,115.61-46,23.6,0,41,10.23,37.68,15.61-.91,1.46-3.36,2.58-7.65,3-20,2.07-30.72,18-32.79,25.2s-12.42,16.91-21.39,24.16,6.9,19.67,16.56,25.54,9,6.9,15.88,22.77,33.13,17.26,36.93,17.26C622.42,204.4,623.12,211.83,601,219Z" style="fill:#555757"/><path d="M171.52,167.47c-6.21-3.45-11.73-6.55-11.38-10.78s-2.42-10.27-7.85-9.23-4.58,2.07-1.47,9.23,1,7.33-3.8,10.09a5.47,5.47,0,0,1-4.58.29,22,22,0,0,1-38.66,18.53,29.65,29.65,0,0,1-10.25-2.25c-5.18-2.42-14.84,8.28-25.89,15.53s.35,6.21,4.49,8.28,6.21,8.28-3.8,8.28-7.24,3.8-13.46,6.91,1.38,3.79,6.56,1,10.7-4.48,10.35,0,3.11,6.56,4.49,7.94c0,0,6.12,5.07,14,10.41h0c14.47,2.9,38.5,7.05,50.19,6.5,2.93-.14,5.36-.16,7.51-.1h0c3.81-4.73,4.77-9.65,5.24-14.39.69-6.91-2.07-5.87,10.36-15.88S177.74,170.92,171.52,167.47Zm-32.78,61c-4.14,10.12-33.37,6.67-41.65,3.22s3.45-8,3.45-8,37.27-21.4,45.79-38.66,16.11-2.76,16.11,12.43S142.88,218.32,138.74,228.45Z" style="fill:#e2d02d"/><path d="M453.86,186.66a48.62,48.62,0,0,0-11.47,1.2c4.15-5.91,5.19-10.56,3-13.48-3.61-4.84-.18-13.12-.18-13.12s-1.38-2.07,0-11.73-5.52-13.81-14.14-15.19-10.7-1.72-14.84-5.52-13.12-4.79-15.88-5.33-8.63-5.71-12.42-5.71-22.09-3.11-25.2-6.91-13.8-10.7-19.67-10.35S326.14,98.45,322,98.1,304.05,96,298.87,91.55s-30.37-7.25-39-6.22-17.26-.69-16.92,7.6,2.42,24.5-3.79,21-11.39-11.39-13.81-16.91-9-2.76-17.6-5.87-20.7-2.76-24.5,1.73-8.28,7.59-13.46,14.49-11,5.18-6.9,14.15,2.41,14.5,12.08,10.7,21.05-16.22,21.39-5.87-1,11.74,7.25,20.37.69,10.89-6.21,9.92-15.53-.61-12.08,7.68,7.59,32.78,2.42,44.17,8.62,6.9,14.15,13.46,8.28,1.73,15.53,8.63,11.73,9,17.94,8.63c5.73-.32,37.32,1.71,42.44,14.49-5.7.61-11.35,1.07-16.9,1.41-44.08,2.73-81.74-1.6-90.08-3.13-10.46-1.94-14.34-3.65-22.84-3.9,3.81-4.73,4.77-9.65,5.24-14.39.69-6.91-2.07-5.87,10.36-15.88s14.15-46.94,7.93-50.39-11.73-6.55-11.38-10.78-2.42-10.27-7.85-9.23-4.58,2.07-1.47,9.23,1,7.33-3.8,10.09a5.47,5.47,0,0,1-4.58.29,20.61,20.61,0,0,0-1.87-5.06,22,22,0,1,0-38.47,21.16,2.94,2.94,0,0,0,.17.26,19.11,19.11,0,0,0,1.51,2.17,29.65,29.65,0,0,1-10.25-2.25c-5.18-2.42-14.84,8.28-25.89,15.53s.35,6.21,4.49,8.28,6.21,8.28-3.8,8.28-7.24,3.8-13.46,6.91,1.38,3.79,6.56,1,10.7-4.48,10.35,0,3.11,6.56,4.49,7.94c0,0,6.12,5.07,14,10.41-3.48-.69-6.4-1.31-8.47-1.78-10.7-2.42-17.25,1.72-21.74,6.56s-10.7,7.93-10,14.84,11.63,16.11,11.63,16.11c-12.9-1.85-19.33-12.43-20.26-18.88s-4.59-8.73-6.44-3.68-7.82,12.42-15.19,14.27S0,277.46,0,277.46s2.76-5.53,10.12-9.67,19.79-6.44,21.63-27.61,28.07-64.42,48.77-82.37,41.89-27.61,62.13-44.63c18.63-15.67,42.71-29.78,80.85-35.87,3.31-.53,6.72-1,10.26-1.4C266.61,72.14,334.35,93.58,378.07,109q5.43,1.91,10.3,3.67c10.31,3.71,18.65,6.85,23.94,8.82A53.87,53.87,0,0,0,431.76,125a49,49,0,0,0,11.76-1.51S454.18,134,455.21,144s-4.48,12.43-2.07,20.71C455.31,172.13,457.19,177.87,453.86,186.66Z" style="fill:#98a563"/><path d="M445.38,174.38c-3.61-4.84-.18-13.12-.18-13.12s-1.38-2.07,0-11.73-5.52-13.81-14.14-15.19-10.7-1.72-14.84-5.52-13.12-4.79-15.88-5.33-8.63-5.71-12.42-5.71-22.09-3.11-25.2-6.91-13.8-10.7-19.67-10.35S326.14,98.45,322,98.1,304.05,96,298.87,91.55s-30.37-7.25-39-6.22-17.26-.69-16.92,7.6,2.42,24.5-3.79,21-11.39-11.39-13.81-16.91-9-2.76-17.6-5.87-20.7-2.76-24.5,1.73-8.28,7.59-13.46,14.49-11,5.18-6.9,14.15,2.41,14.5,12.08,10.7,21.05-16.22,21.39-5.87-1,11.74,7.25,20.37.69,10.89-6.21,9.92-15.53-.61-12.08,7.68,7.59,32.78,2.42,44.17,8.62,6.9,14.15,13.46,8.28,1.73,15.53,8.63,11.73,9,17.94,8.63c5.73-.32,37.32,1.71,42.44,14.49,4.84-.48,9.72-1.07,14.6-1.78h0a283.61,283.61,0,0,0,46.13-10.3,318.76,318.76,0,0,0,39.61-15.4c35.79-17,46.48-32.37,57.37-36.36q.65-.24,1.29-.45a54.2,54.2,0,0,1,5.56-1.6C446.54,182,447.58,177.3,445.38,174.38ZM228.12,123.49c15.19-3.6,15.88-5,24.16-17.1s51.43,3.79,80.42,17.1,63.15,12.58,84.55,15.34,15.19,22.09,15.19,22.09c-.69,8.47-26.58,6.55-51.77,1.89s-41.07-2.93-70.24-1.89-51.94,11.38-82.31-2.08S212.94,127.09,228.12,123.49ZM424.5,189.91c-8.28,2.41-29,20.7-55.22,35.54s-83.52,23.82-88.19,19.33-25-9-37.44-9.64-20.36-9.69-33.06-13.83-8.35-15.18-5.93-31.4,10.35-6.91,25.54,0,25.53,13.11,73.8,19,88.75-19.67,102.9-28,28,0,28,0C438,184.38,432.78,187.49,424.5,189.91Z" style="fill:#a4ba56"/><path d="M127.64,163a15.73,15.73,0,0,0-7.88-2.07c-7.62,0-13.81,5.17-13.81,11.55,0,4.58,3.19,8.55,7.8,10.41a15.89,15.89,0,0,0,6,1.16c7.62,0,13.8-5.18,13.8-11.57A11.15,11.15,0,0,0,127.64,163Zm-7.54,16.52a8.21,8.21,0,0,1-4.36-1.24,8.34,8.34,0,0,1,4.36-15.46,8.17,8.17,0,0,1,3.88,1,8.35,8.35,0,0,1-3.88,15.74Z" style="fill:#e8e1db"/><path d="M162.44,197.39c0,15.18-19.56,20.93-23.7,31.06s-33.37,6.67-41.65,3.22,3.45-8,3.45-8,37.27-21.4,45.79-38.66S162.44,182.2,162.44,197.39Z" style="fill:#f2db38"/><path d="M128.45,171.16a8.35,8.35,0,0,1-8.35,8.35,8.21,8.21,0,0,1-4.36-1.24,8.34,8.34,0,0,1,4.36-15.46,8.17,8.17,0,0,1,3.88,1A8.33,8.33,0,0,1,128.45,171.16Z" style="fill:#2b2b2b"/><path d="M143,172a22,22,0,0,1-39.22,13.59,19.11,19.11,0,0,1-1.51-2.17c1,1.24,2.54-1.63,4.61-2.61,1.52-.72,3.49,1.52,4.9,3.52.61.87,1.1,1.7,1.42,2.22,1,1.73,6.45,1.16,15.87-1.38s6.91-8,7.36-12.07.69-5.29.89-8.12,3.25-3,3.25-3a20.61,20.61,0,0,1,1.87,5.06A21.81,21.81,0,0,1,143,172Z" style="fill:#bee2b3"/><path d="M121,150.11a21.91,21.91,0,0,0-18.93,33.06,2.94,2.94,0,0,0,.17.26c1,1.24,2.54-1.63,4.61-2.61,1.52-.72,3.49,1.52,4.9,3.52.61.87,1.1,1.7,1.42,2.22,1,1.73,6.45,1.16,15.87-1.38s6.91-8,7.36-12.07.69-5.29.89-8.12,3.25-3,3.25-3A22,22,0,0,0,121,150.11ZM119.76,184a15.89,15.89,0,0,1-6-1.16c-4.61-1.86-7.8-5.83-7.8-10.41,0-6.38,6.19-11.55,13.81-11.55a15.73,15.73,0,0,1,7.88,2.07,11.15,11.15,0,0,1,5.92,9.48C133.56,178.86,127.38,184,119.76,184Z" style="fill:#74765e"/><path d="M432.44,160.92c-.69,8.47-26.58,6.55-51.77,1.89s-41.07-2.93-70.24-1.89-51.94,11.38-82.31-2.08-15.18-31.75,0-35.35,15.88-5,24.16-17.1,51.43,3.79,80.42,17.1,63.15,12.58,84.55,15.34S432.44,160.92,432.44,160.92Z" style="fill:#b1cb67"/><path d="M424.5,189.91c-8.28,2.41-29,20.7-55.22,35.54s-83.52,23.82-88.19,19.33-25-9-37.44-9.64-20.36-9.69-33.06-13.83-8.35-15.18-5.93-31.4,10.35-6.91,25.54,0,25.53,13.11,73.8,19,88.75-19.67,102.9-28,28,0,28,0C438,184.38,432.78,187.49,424.5,189.91Z" style="fill:#e2d02d"/><path d="M383.82,93.17c-.18,4.77-1.8,10-5.75,15.8C334.35,93.57,266.61,72.13,233.76,75.9c-3.54.4-6.95.87-10.26,1.41,9.39-9.68,62.88-64.31,83.31-73.43C318.09-1.15,322-.6,323,1.68s-.78,6.18-1.1,8.07c-.62,3.8,7.31,4.83,6.28,6.56s4.68,5.18.1,11.73c-2.71,3.88-3.81,8.71-1.63,12a6.49,6.49,0,0,0,2.26,2.07,14,14,0,0,0,7.55,1.5c12.77-.34,17.95-.69,19,6.22s7.25,3.45,7.25,7.24,9,3.8,8.63,8.29C371.09,68.71,384.35,78.43,383.82,93.17Z" style="fill:#555757"/><path d="M435.76,119.67v0a15.7,15.7,0,0,1-4,5.3,53.62,53.62,0,0,1-19.45-3.53c-5.29-2-13.63-5.11-23.94-8.82,0,0,14.14-9.08,26.75-15.52l.32-.16.06,0c6.64-3.37,12.81-6,16.25-6.08C440.06,90.56,441.05,109,435.76,119.67Z" style="fill:#555757"/><path d="M338.36,277.45c-1.22-1.11-18.39-4.88-19.46-5.12L335.11,279s12.43,14.84-11.39,9.31c-14.23-3.3-33.9-14.48-47.42-22.95-9.08-5.69-15.39-10.15-15.39-10.15,5.55-.35,11.2-.8,16.9-1.41,4.84-.48,9.72-1.08,14.6-1.78h0c.77,0,29.59,1.15,31.29,5.23.4.95.75,1.78,1.08,2.53a11.74,11.74,0,0,0,5.13,5.76C333.73,267.9,339.6,278.6,338.36,277.45Z" style="fill:#555757"/><path d="M458.32,252c-7.63.41-23.73-4.36-39.69-10-17.27-6.09-34.37-13.17-40.46-15.72,35.79-17,46.48-32.38,57.37-36.37l1.29-.44c1.17.54,2.38,1.2,3.24,1.47A30,30,0,0,1,457,203.49a29.22,29.22,0,0,1,3.76,8.1c1.38,5.12.34,6.27,3.45,14.11s.69,3.55,5.52,5.62,1.72,7.94,5.18,12.42S476.27,251,458.32,252Z" style="fill:#555757"/><path d="M121.9,166.14a6.56,6.56,0,1,1,6.55,6.56A6.55,6.55,0,0,1,121.9,166.14Z" style="fill:#e8e1db"/><path d="M310.15,50.5c-17.49,12.43-10.82,3.22,6.91-11.51s12.7-18.11-7.38-3-24.61,15.4-7.35-.24,33.82-25.54,14.73-19.09-92.28,76.84-71.79,49.46S323,1.68,323,1.68c1,2.25-.78,6.18-1.1,8.07-.62,3.8,7.31,4.83,6.28,6.56s4.68,5.18.1,11.73c-2.71,3.88-3.81,8.71-1.63,12A150.09,150.09,0,0,0,310.15,50.5Z" style="fill:#e2d02d"/><path d="M383.82,93.17c-2.6,1.14-6.49,2.78-13.62,5.18-17,5.76-2.07-2.53,8.51-9.66S376,85,362.83,90.85s-2.52-2.62,9.9-11.59-7.83-3.91-23.7,3.68-5.29-2.07,10.59-13.58-6.22-4.83-21.17,4.83-8.75-1.38,9.89-14.95-2.76-6-20.24,4.14-9,.69,8.5-13.11-9.88.92-21.85,8.28-5.29,1.15,9.66-12.19c1.95-1.74,3.44-3.16,4.53-4.29a14,14,0,0,0,7.55,1.5c12.77-.34,17.95-.69,19,6.22s7.25,3.45,7.25,7.24,9,3.8,8.63,8.29C371.09,68.71,384.35,78.43,383.82,93.17Z" style="fill:#e2d02d"/><path d="M325.24,81.46c-1.19-.7-27.12-15.31-32.44-21.74s-14.42-4.88-23.08,2-3.67,8,16.14,14.76S344.42,92.81,325.24,81.46Z" style="fill:#f2db38"/><path d="M601,219h0c-43.23,4.95-108.87-25.59-124.66-32.37-19.31-8.28-14.16-15.53-6.92-12.42s24.16,11,62.83,19.32,40.36-3.79,33.12-4-42.11-7.36-63.85-13-21.4-12.65-13.11-11.61,44.86,7.94,58.67,7.25,4.83-5.31,4.83-5.31c-3.11-5-42.8-6.08-63.85-9.19s-13.8-5.87,14.49-3.45,35.21-1.38,34.86-6.32-11.39-2.65-42.79-.44-25.89-4.63-12.08-7,45.9.7,59.36-5.9,10.7-14.11-22.43-6.86-61.78,9.31-24.51,0S576,100.31,565,98.45s-23.47,7.38-53.84,17-51.42,12.08-6.9-6.53,80.07-23.86,80.07-23.86c-23.81-8.63-73.51,16.24-88.35,22.82s-39.69,16.19-30.37,9.64,66.61-35.21,95.94-42.11c23.8-5.59,43.5,6.3,50.1,11-.73,1.17-2.46,2.14-5.36,2.69a22.06,22.06,0,0,1-2.29.33c-20,2.07-30.72,18-32.79,25.2s-12.42,16.91-21.39,24.16,6.9,19.67,16.56,25.54c8.95,5.42,9,6.72,14.44,19.46l1.44,3.31a19.9,19.9,0,0,0,3.2,5.07c6.28,7.26,17.31,10.23,25.14,11.43a63.68,63.68,0,0,0,8.59.76C622.42,204.4,623.12,211.83,601,219Z" style="fill:#b1cb67"/><path d="M435.76,119.67c1.62-5.25-1.14-13.49-8.54-8.43s-5.94,1.15,1.18-6.07-1.14-3.13-9.66,1.7-15.18,9-11.26,4.83,21.39-16.57,13.33-13.35-22.54,14.73-21.4,10.62c1-3.73,13.41-10.59,15.71-11.85l.32-.16.06,0c6.64-3.37,12.81-6,16.25-6.08C440.06,90.56,441.05,109,435.76,119.67Z" style="fill:#e2d02d"/><path d="M458.32,252c-7.63.41-23.73-4.36-39.69-10,40.12,5.44,49.75,2.53,14.65-6.85-39.21-10.45-34.43-20-27.07-15.64s28.64,10.58,45.9,12-2.07-6.22-20.35-14.15-6.57-8.63,9.7-4.14,15.13.34-2.44-7-14.66-9.24-7.26-6.09S457,203.49,457,203.49h0a29.22,29.22,0,0,1,3.76,8.1c1.38,5.12.34,6.27,3.45,14.11s.69,3.55,5.52,5.62,1.72,7.94,5.18,12.42S476.27,251,458.32,252Z" style="fill:#e2d02d"/><path d="M338.36,277.45c-1.22-1.11-18.39-4.88-19.46-5.12L335.11,279s12.43,14.84-11.39,9.31c-14.23-3.3-33.9-14.48-47.42-22.95,2,.13,5.15,1.13,9.6,3,14.52,6.12,33,13.52,36,12.14s.41-2.76-13.34-8.13-12.48-7.74-2.81-6.71,16.91,1.73,16.15,0-2.35-2.07-18.27-5.89-12.72-3.77-8.58-3.42,29,3.34,29.72,3.42a11.74,11.74,0,0,0,5.13,5.76C333.73,267.9,339.6,278.6,338.36,277.45Z" style="fill:#e2d02d"/><path d="M610.56,203.64c-7.07,4.24-21.25,10.39-41.11,8-29.34-3.6-49-10.34-53.5-13s-3.09-3.9,16.24,0,42.12,5.84,47.27-.78c2.39-3.06,4.11-4.59,6-5.6C591.7,199.47,602.73,202.44,610.56,203.64Z" style="fill:#e2d02d"/><path d="M529.76,176.46c-1-2,26.17-.91,35-1.6s7.44-8.29-6.37-12.77-23.46-3.45-20.7-6.56,1.72-7.94,2.07-11.39,3.1-5.93,9.32-9.7,8.28-7.57,4.48-11.53-9.32-2.24,4.49-9.14,17.6-13.46,15.53-16.91-1.38-3.74,7.25-6,11.73-5,9.32-7.8-28.65-3.11-43.83,2.06c-14.89,5.1,25.38-23.15,59.92,4a22.06,22.06,0,0,1-2.29.33c-20,2.07-30.72,18-32.79,25.2s-12.42,16.91-21.39,24.16,6.9,19.67,16.56,25.54c8.95,5.42,9,6.72,14.44,19.46-3.79-.57-8.13-1-12.71-1.38C549.78,181.07,530.79,178.42,529.76,176.46Z" style="fill:#e2d02d"/></g></g></svg>