<svg xmlns="http://www.w3.org/2000/svg" viewBox="0 0 304.17 166.26"><title>green-terror</title><g id="Layer_2" data-name="Layer 2"><g id="Ñëîé_2" data-name="Ñëîé 2"><path d="M285.23,136.39a29.91,29.91,0,0,1-9.31,2.75,25.85,25.85,0,0,1-8.6-.38c-1-.21-2-.46-2.88-.73a32.27,32.27,0,0,1-6.5-2.61,46.59,46.59,0,0,0,7.65,1h0a50.71,50.71,0,0,0,7.86-.33c1.13-.13,2.21-.31,3.24-.52a28.52,28.52,0,0,0,10-4c11.7-7.67,12.64-22.21,10.44-26.78-1.77-3.68-5.16-17.48-7.47-29.67-1.39-7.4-2.39-14.21-2.39-17.83,0-9.59-.44-12.1-11.17-18-4-2.2-8.94-2.37-13.6-1.72A60.84,60.84,0,0,1,270,33.79C289.23,25.9,298.87,51.32,296.83,63s6.43,42.08,7.3,50.54C304.73,119.34,296.76,131,285.23,136.39Z" style="fill:#e8b62a"/><path d="M286.68,131.5a28.52,28.52,0,0,1-10,4c-1,.21-2.11.39-3.24.52a50.71,50.71,0,0,1-7.86.33h0a46.59,46.59,0,0,1-7.65-1,32.32,32.32,0,0,1-7-5.09,61.55,61.55,0,0,1-5.13-5.59c3.71,4.43,5,2.8,6.52,2.41.71-.2,1.45-.11,2.5,1,2.38,2.54,3.61,1.63,6.36,1.67a12.93,12.93,0,0,1,3.94.7,7.76,7.76,0,0,0,3,.46c3.17-.19,4.14-3,8.14-2.61a4.3,4.3,0,0,0,.71,0c4-.12,1.28-5.06,5.64-5.06s.44-4.7,3.86-5.73a4,4,0,0,1,1-.18c5-.44-1.75-7.67,2.41-8.23a2.14,2.14,0,0,0,1.21-.45c1.53-1.37-2.37-5.09-.11-6.22,2.63-1.31-3.51-5.48.87-6.93s-5.69-4.25-2.63-7.32c1.76-1.75-.43-3.22-2-4.74-1.19-1.13-2-2.29-.62-3.61,3.29-3.1-5.25-4.36-2.19-7.14,1.36-1.24.06-2.29-1.5-3.32-2-1.32-4.4-2.61-2.44-4.19,3.5-2.85-6.57-4.61-4.6-7s-11.83-2.63-9.21-4.71C268,52.46,265,52.12,262,51.84c-2.77-.28-5.52-.51-4.79-1.24,1.47-1.47-6.21-.15-9.6,1.88a5.66,5.66,0,0,0-.48.31,3.12,3.12,0,0,1-3.84.19c.65-.68,1.34-1.39,2.05-2.1a94.63,94.63,0,0,1,10.08-8.73,72.18,72.18,0,0,1,7-4.67c4.66-.65,9.61-.48,13.6,1.72,10.73,5.92,11.17,8.43,11.17,18,0,3.62,1,10.43,2.39,17.83,2.31,12.19,5.7,26,7.47,29.67C299.32,109.29,298.38,123.83,286.68,131.5Z" style="fill:#eb6601"/><path d="M255.41,59.12a24,24,0,0,0-7.69,6.21,30.41,30.41,0,0,0-2.18-3.07c2.66-1.87,5.42-3.69,7.89-5.07C254.1,57.81,254.76,58.46,255.41,59.12Z" style="fill:#6aa2ec"/><path d="M261.06,67c-3.73,1.39-7.47,2.88-10.58,4.21a23.54,23.54,0,0,0-.83-2.22,95.31,95.31,0,0,0,10.18-4.29A22.18,22.18,0,0,1,261.06,67Z" style="fill:#6aa2ec"/><path d="M262.19,74.72c-3.62.56-7.35,1.12-10.75,1.69a17.61,17.61,0,0,0-.18-1.81c3.35-.67,7.33-1.61,11.09-2.58A10.69,10.69,0,0,1,262.19,74.72Z" style="fill:#6aa2ec"/><path d="M260.43,80.69c-.46,1.64-.8,3.08-1.05,4.38-2.69.15-5.62.18-8.79.07.19-1.17.39-2.46.57-3.87C254.06,81.16,257.24,81,260.43,80.69Z" style="fill:#6aa2ec"/><path d="M259.35,92.83c-3.73-.32-7.19-.7-9.92-1.08.18-1,.4-2.21.64-3.56,2.81.51,5.86,1,8.86,1.37A13.25,13.25,0,0,0,259.35,92.83Z" style="fill:#6aa2ec"/><path d="M262.54,100.09c-4.4.37-8.65.69-12,1a10,10,0,0,1-1.42-3.77c3.45.08,7.61,0,11.9-.15.41.83.87,1.71,1.39,2.67Z" style="fill:#6aa2ec"/><path d="M267.76,112.2c-5-.23-9.9-.53-13-.69h-.19a22.17,22.17,0,0,0-1.63-6.29,49,49,0,0,0,7.53-.86c1.28-.25,2.58-.47,3.89-.67.34.71.7,1.48,1.05,2.28-4.53,1-6.09,1.92.28,2.79l.9.11C267,109.92,267.42,111.05,267.76,112.2Z" style="fill:#6aa2ec"/><path d="M261.19,129.83c-2.75,0-4,.87-6.36-1.67-1.05-1.12-1.79-1.21-2.5-1,.37-1,.69-1.89,1-2.81a22.4,22.4,0,0,0,7.2,1.48C267.61,126,274.33,127.12,261.19,129.83Z" style="fill:#6aa2ec"/><path d="M269.41,121.24a49.31,49.31,0,0,1-15.3-.09,32.85,32.85,0,0,0,.64-5.12A65.19,65.19,0,0,0,269,117.72,33.83,33.83,0,0,1,269.41,121.24Z" style="fill:#6aa2ec"/><path d="M250.48,71.22a62.36,62.36,0,0,0-5.64,2.7,13.36,13.36,0,0,0-3-9c1.19-.88,2.44-1.79,3.71-2.68a30.41,30.41,0,0,1,2.18,3.07l-.56.75c-2.63,3.65-.9,4,2.49,2.92A23.54,23.54,0,0,1,250.48,71.22Z" style="fill:#81ede2"/><path d="M251.44,76.41c-2.6.43-5,.86-7,1.29,0-.19.07-.39.1-.59q.14-.77.21-1.47a53.52,53.52,0,0,0,6.52-1A17.61,17.61,0,0,1,251.44,76.41Z" style="fill:#81ede2"/><path d="M251.16,81.27c-.18,1.41-.38,2.7-.57,3.87q-1.87-.08-3.87-.21c-1.3-.1-2.43-.17-3.4-.21.14-1,.3-2.17.51-3.45C245.87,81.39,248.39,81.38,251.16,81.27Z" style="fill:#81ede2"/><path d="M250.07,88.19c-.24,1.35-.46,2.51-.64,3.56a29.93,29.93,0,0,0-6.47-.29,22,22,0,0,1,.11-4.72C245,87.21,247.43,87.71,250.07,88.19Z" style="fill:#81ede2"/><path d="M250.51,101l-4.18.29s0-.07,0-.12c-.7-1.66-1.28-3-1.77-4.17,1.3.12,2.84.19,4.57.23A10,10,0,0,0,250.51,101Z" style="fill:#81ede2"/><path d="M247.2,110.94a25.5,25.5,0,0,0,0-6,35.87,35.87,0,0,0,5.73.25h0a22.17,22.17,0,0,1,1.63,6.29C252.12,111.37,249.49,111.13,247.2,110.94Z" style="fill:#81ede2"/><path d="M253.3,124.34c-.28.92-.6,1.86-1,2.81-1.49.39-2.81,2-6.52-2.41h0l-1.94-2.38c.39-.81.75-1.64,1.08-2.48A36.2,36.2,0,0,0,253.3,124.34Z" style="fill:#81ede2"/><path d="M254.75,116a32.85,32.85,0,0,1-.64,5.12,20.21,20.21,0,0,1-3.88-1.16c-1.73-.74-3.28-1.45-4.59-2.06a34.67,34.67,0,0,0,1.09-4.11A78.8,78.8,0,0,0,254.75,116Z" style="fill:#81ede2"/><path d="M236.55,111.53c-1.32-.92-3.2-2.66-6.2-4.75l-.49-.33c-.92-.63-1.94-1.28-3.07-2-10.74-6.36-24.32,3.06-37,10.3s-32,11.61-57.19,14.68S92,129.26,94.66,114.8s-17.09-24.11-23-32.94,4.6-20.53,7.89-36.09C81.4,37,85,33.65,87.79,32.42c-8.1-.82-14.86-1.79-17.23-2.86,0,0-26.45-.16-38.13,20.6-9,16-19.36,26.05-25.9,32.49,4,.71,9.24,1.77,10.56,2.56a17.44,17.44,0,0,0,7.16,2.05c2.48.29,1,2.19-1.17,2.19a19.85,19.85,0,0,1-7.74-1.61,55.09,55.09,0,0,0-11-3.06C1.7,87.47,0,89.37,0,90.73c2.18-.06,6.58.09,9.35,1.79,3.8,2.34,10.52,3.36,12.56,2.19s3.36-3.8,4.82-2.77-2.19,4.23-4.82,5.4a11.37,11.37,0,0,1-9,0c-2.72-1-8.8-3.76-12.53-4.58C1.51,96,5.43,98,7.89,99c2.92,1.16-2.63.14-4.82,0s-2,2,1.75,4.23S33.31,120.49,45.36,126a111.58,111.58,0,0,0,14.35,5.23,47,47,0,0,1-4.06-10.29,22.15,22.15,0,0,1-.54-3c-1-10.66,3.18-13.54,3.18-13.54,16.46-10.51,29.43,12.24,32.39,15,1.34,1.26,1,2.06.29,2.94-.86,1.06-2.27,2.23-1.89,4.49.67,4.14-4.81,2.61-4.43,6.67.21,2.27-2.33,2.27-4.6,2.4a215.12,215.12,0,0,0,48.2,2.52,243.29,243.29,0,0,0,26.33-2.81q3.45-.59,6.58-1.24c19.25-4,29.67-10,35.46-14.94,2.61-2.26,5.5-4.89,8.69-7.2a35.14,35.14,0,0,1,6.83-4c5.59-2.37,11.9-2.7,19,1.81,5.58,3.57,9.24,8,12.76,12.31ZM23.22,78.35A7.75,7.75,0,1,1,31,86.1,7.76,7.76,0,0,1,23.22,78.35Zm16.51,33.16c-2.19.59-4.08-.88-5.26-2.92s4.24-1.81,4.24-1.81C41.48,107.75,41.92,110.92,39.73,111.51Zm.15-22.06c-2.19,2.63-2.19,6.13-4.82,6.43s-9.35,7.15-12,8.77-3.65,2.77-6.72,1.75-2-3.51-2-3.51c1.62-3.5,7-1.17,8.48-3.36s5.11-2.77,8-3.93,3.94-5.42,5.39-7.47,1.76-3.94,3.66-3.69S42.07,86.82,39.88,89.45Zm8.76,12c-.87,1.6-4.38,1.6-5.4-1s.87-5.54,2.49-5.9,2.91,3.77,2.91,3.77A3.45,3.45,0,0,1,48.64,101.43Zm2.78-27.32c-1,2.34-1.9,2.49-3.36.88s0-5.11,0-5.11C48.51,68.39,52.44,71.78,51.42,74.11ZM49.79,53.66c-1-2.63.88-5.56,2.48-5.91s2.92,3.77,2.92,3.77a3.45,3.45,0,0,1,0,3.16C54.31,56.29,50.81,56.29,49.79,53.66Zm10,47.38c-1.9.88-3.65-1.46-3.92-3.8s3.92-1.89,3.92-1.89C64.46,95.35,61.69,100.17,59.78,101Zm5-17.29c-.17,2.34-3.32,3.94-5.95,3.94s-4.53,3.81-5.3,1.76.62-4.24,0-6.87,6-2.48,6-2.48C64.6,79.29,65,81.42,64.82,83.75Zm-1.13-11c-3.8,0-3.5-6.86-2.19-9.93s4.23,2.45,4.38,3.36c.44,2.63,1.9,1.46,2.92,3.66S67.49,72.79,63.69,72.79Zm1.76-12.56c-2.2-1.9-.59-4.38,0-6.72A2.29,2.29,0,0,1,69,52.2c2.15,4.24.35,8,0,9.74S67.64,62.14,65.45,60.23Z" style="fill:#db6f26"/><path d="M243.33,112.53c1,.44,2.19.87,3.41,1.28a34.38,34.38,0,0,1-1.1,4.12c-4.16-1.91-6-2.79-3.44-.32a25.23,25.23,0,0,0,2.74,2.26c-.32.84-.68,1.67-1.08,2.48l-7.31-10.82c.17.12.33.22.48.31a3.65,3.65,0,0,0,.43.23c1.29.59,2-.11,3.13-2.87,2.63-6.46-7.67-16.18-4.38-28.08,1.9-6.88,1.6-10.51-.25-11.67,1.5-1.2,3.56-2.8,5.88-4.51a13.36,13.36,0,0,1,3,9h0c-1.52.85-2.18,1.46-1.5,1.65a4.79,4.79,0,0,0,1.41.06c-.05.48-.12,1-.2,1.48,0,.2-.07.4-.11.59-4.81,1-7.26,2-4.44,3a16.17,16.17,0,0,0,3.85.59c-.22,1.28-.38,2.42-.52,3.44-7.29-.31-5.59.74-.25,2a22.66,22.66,0,0,0-.11,4.72c-6.71.5-7.52,3.91-.47,5.3.58.11,1.27.2,2,.28.48,1.17,1.07,2.51,1.76,4.17a.56.56,0,0,1,0,.12l-1.36.1c-5.5.38-3.82,2.73,2.27,3.53a25.52,25.52,0,0,1,0,6C241.56,110.46,237.94,110.25,243.33,112.53Z" style="fill:#6aa2ec"/><path d="M23.08,89.45a19.85,19.85,0,0,1-7.74-1.61,55.09,55.09,0,0,0-11-3.06l2.15-2.13c4,.71,9.24,1.77,10.56,2.56a17.44,17.44,0,0,0,7.16,2.05C26.73,87.55,25.27,89.45,23.08,89.45Z" style="fill:#81ede2"/><path d="M21.91,97.34a11.37,11.37,0,0,1-9,0c-2.72-1-8.8-3.76-12.53-4.58a5.47,5.47,0,0,1-.35-2v-.06c2.18-.06,6.58.09,9.35,1.79,3.8,2.34,10.52,3.36,12.56,2.19s3.36-3.8,4.82-2.77S24.54,96.17,21.91,97.34Z" style="fill:#81ede2"/><path d="M39.88,89.45c-2.19,2.63-2.19,6.13-4.82,6.43s-9.35,7.15-12,8.77-3.65,2.77-6.72,1.75-2-3.51-2-3.51c1.62-3.5,7-1.17,8.48-3.36s5.11-2.77,8-3.93,3.94-5.42,5.39-7.47,1.76-3.94,3.66-3.69S42.07,86.82,39.88,89.45Z" style="fill:#81ede2"/><path d="M63.69,72.79c-3.8,0-3.5-6.86-2.19-9.93s4.23,2.45,4.38,3.36c.44,2.63,1.9,1.46,2.92,3.66S67.49,72.79,63.69,72.79Z" style="fill:#81ede2"/><path d="M69,61.94c-.34,1.71-1.4.2-3.59-1.71s-.59-4.38,0-6.72A2.29,2.29,0,0,1,69,52.2C71.19,56.44,69.39,60.23,69,61.94Z" style="fill:#81ede2"/><path d="M64.82,83.75c-.17,2.34-3.32,3.94-5.95,3.94s-4.53,3.81-5.3,1.76.62-4.24,0-6.87,6-2.48,6-2.48C64.6,79.29,65,81.42,64.82,83.75Z" style="fill:#81ede2"/><path d="M51.42,74.11c-1,2.34-1.9,2.49-3.36.88s0-5.11,0-5.11C48.51,68.39,52.44,71.78,51.42,74.11Z" style="fill:#81ede2"/><path d="M48.64,101.43c-.87,1.6-4.38,1.6-5.4-1s.87-5.54,2.49-5.9,2.91,3.77,2.91,3.77A3.45,3.45,0,0,1,48.64,101.43Z" style="fill:#81ede2"/><path d="M55.19,54.68c-.88,1.61-4.38,1.61-5.4-1s.88-5.56,2.48-5.91,2.92,3.77,2.92,3.77A3.45,3.45,0,0,1,55.19,54.68Z" style="fill:#81ede2"/><path d="M39.73,111.51c-2.19.59-4.08-.88-5.26-2.92s4.24-1.81,4.24-1.81C41.48,107.75,41.92,110.92,39.73,111.51Z" style="fill:#81ede2"/><path d="M59.78,101c-1.9.88-3.65-1.46-3.92-3.8s3.92-1.89,3.92-1.89C64.46,95.35,61.69,100.17,59.78,101Z" style="fill:#81ede2"/><path d="M255.41,59.12c-.65-.66-1.31-1.31-2-1.93,3.3-1.85,6.1-2.94,7.47-2.36C264,56.14,260.26,56.56,255.41,59.12Z" style="fill:#81ede2"/><path d="M267.49,64.71c-2.05.71-4.24,1.49-6.43,2.3a22.18,22.18,0,0,0-1.23-2.3c2.57-1.2,5-2.34,6.63-3C266.83,62.7,267.17,63.71,267.49,64.71Z" style="fill:#81ede2"/><path d="M262.19,74.72a10.69,10.69,0,0,0,.16-2.7c2.38-.6,4.67-1.21,6.66-1.77q.39,1.66.66,3.27C267.37,73.92,264.81,74.32,262.19,74.72Z" style="fill:#81ede2"/><path d="M270.32,79.8a27.3,27.3,0,0,1-.18,3.93,74.65,74.65,0,0,1-10.76,1.34c.25-1.3.59-2.74,1.05-4.38C263.82,80.42,267.22,80.1,270.32,79.8Z" style="fill:#81ede2"/><path d="M268.35,90.44a19.74,19.74,0,0,0-.49,3c-2.85-.16-5.75-.38-8.51-.63a13.25,13.25,0,0,1-.42-3.27C262.27,90,265.56,90.32,268.35,90.44Z" style="fill:#81ede2"/><path d="M268.22,99.6l-5.68.49-.16-.3c-.52-1-1-1.84-1.39-2.67l6.84-.26A22.58,22.58,0,0,0,268.22,99.6Z" style="fill:#81ede2"/><path d="M269.77,105.17c-1.61.27-3.08.53-4.33.79-.35-.8-.71-1.57-1.05-2.28,1.57-.24,3.15-.46,4.69-.65C269.29,103.72,269.51,104.43,269.77,105.17Z" style="fill:#81ede2"/><path d="M272.42,112.4c-1.53-.06-3.11-.12-4.66-.2-.34-1.15-.73-2.28-1.14-3.34,1.64.22,3.19.39,4.66.52C271.64,110.34,272,111.33,272.42,112.4Z" style="fill:#81ede2"/><path d="M275.36,120.21c-1.76.39-3.8.75-5.95,1a33.83,33.83,0,0,0-.37-3.52c.82,0,1.62,0,2.38-.11,1.05-.09,2-.15,2.92-.18l.65,1.75C275.12,119.53,275.25,119.87,275.36,120.21Z" style="fill:#81ede2"/><path d="M268.2,64.47l-.7.24h0c-.32-1-.66-2-1-3l1.15-.43C273,59.51,279.44,60.67,268.2,64.47Z" style="fill:#6aa2ec"/><path d="M274.41,72.66c-1.38.28-3,.57-4.74.86q-.27-1.6-.66-3.27l2.69-.78C279.89,67,286.73,70.12,274.41,72.66Z" style="fill:#6aa2ec"/><path d="M281.61,78.73c-.11.25-.21.48-.31.73s-.19.48-.28.72h0a42.93,42.93,0,0,1-10.87,3.55,27.3,27.3,0,0,0,.18-3.93C275.29,79.3,279.49,78.85,281.61,78.73Z" style="fill:#6aa2ec"/><path d="M278.62,91.37c0,.81,0,1.63,0,2.44-3.19,0-6.94-.13-10.79-.35a19.74,19.74,0,0,1,.49-3c1.11,0,2.14.06,3.07,0,2.95-.06,5.33-.16,7.25-.24h0c0,.21,0,.43,0,.64S278.62,91.21,278.62,91.37Z" style="fill:#6aa2ec"/><path d="M279.25,98.47c-3.21.38-7.05.76-11,1.13a22.58,22.58,0,0,1-.39-2.74c4-.16,7.84-.33,11.06-.42C279,97.12,279.11,97.79,279.25,98.47Z" style="fill:#6aa2ec"/><path d="M280.7,103.53c-3.54.53-7.51,1.08-10.93,1.64-.26-.74-.48-1.45-.69-2.14,4.15-.51,8.07-.83,11.13-1C280.36,102.55,280.52,103,280.7,103.53Z" style="fill:#6aa2ec"/><path d="M276.38,120l-1,.22c-.11-.34-.24-.68-.37-1l-.65-1.75C280.28,117.29,282.41,118.55,276.38,120Z" style="fill:#6aa2ec"/><path d="M284.62,112.26a88.17,88.17,0,0,1-12.2.14c-.4-1.07-.78-2.06-1.14-3,5.52.5,9.81.56,12.41.85C284,110.92,284.34,111.6,284.62,112.26Z" style="fill:#6aa2ec"/><path d="M283.1,78.79A6.51,6.51,0,0,1,281,80.18c.09-.24.18-.48.28-.72s.2-.48.31-.73C282.62,78.67,283.15,78.68,283.1,78.79Z" style="fill:#81ede2"/><path d="M285.9,90.4c0,.26-.07.51-.09.77s-.06.5-.07.74-.05.49-.06.74l0,.71a42.47,42.47,0,0,1-7,.45c0-.81-.06-1.63,0-2.44,0-.16,0-.32,0-.48s0-.43,0-.64h0C282.73,90.07,284.75,90,285.9,90.4Z" style="fill:#81ede2"/><path d="M283,103.18l-2.24.35h0c-.18-.49-.34-1-.49-1.46C286.37,101.79,289,102.23,283,103.18Z" style="fill:#81ede2"/><path d="M286.05,97.47c-1.45.31-3.85.66-6.8,1-.14-.68-.25-1.35-.36-2,3-.08,5.39-.11,6.92,0A7.57,7.57,0,0,0,286.05,97.47Z" style="fill:#81ede2"/><path d="M286.52,111.51c0,.34-.73.59-1.9.75-.28-.66-.59-1.34-.93-2C285.59,110.44,286.59,110.78,286.52,111.51Z" style="fill:#81ede2"/><path d="M285.65,93.36l0-.71c0-.25,0-.49.06-.74s0-.49.07-.74.06-.51.09-.77a2.63,2.63,0,0,1,1.58,1.79C287.69,92.72,287,93.1,285.65,93.36Z" style="fill:#81ede2"/><path d="M286.05,97.47a7.57,7.57,0,0,1-.24-1,3.83,3.83,0,0,1,1.71.33C287.77,97,287.21,97.21,286.05,97.47Z" style="fill:#6aa2ec"/><path d="M291.86,95.6c-4.38,1.45,1.76,5.62-.87,6.93-2.26,1.13,1.64,4.85.11,6.22a2.14,2.14,0,0,1-1.21.45c-4.16.56,2.63,7.79-2.41,8.23a4,4,0,0,0-1,.18c-3.42,1,.4,5.73-3.86,5.73S281,128.28,277,128.4a4.3,4.3,0,0,1-.71,0c-4-.35-5,2.42-8.14,2.61a7.76,7.76,0,0,1-3-.46,12.93,12.93,0,0,0-3.94-.7c13.14-2.71,6.42-3.86-.69-4a22.4,22.4,0,0,1-7.2-1.48,36.2,36.2,0,0,1-8.36-4.47,26.45,26.45,0,0,1-2.75-2.26c-2.55-2.47-.72-1.59,3.45.32,1.31.61,2.86,1.32,4.59,2.06a20.21,20.21,0,0,0,3.88,1.16,49.31,49.31,0,0,0,15.3.09c2.15-.28,4.19-.64,5.95-1l1-.22c6-1.44,3.9-2.7-2-2.56-.89,0-1.87.09-2.92.18-.76.07-1.56.11-2.38.11A65.19,65.19,0,0,1,254.75,116a78.8,78.8,0,0,1-8-2.21c-1.21-.42-2.35-.85-3.41-1.29-5.39-2.28-1.77-2.07,3.88-1.59,2.29.19,4.92.43,7.4.56h.19c3.07.16,8,.46,13,.69,1.55.08,3.13.14,4.66.2a88.17,88.17,0,0,0,12.2-.14c1.17-.16,1.86-.41,1.9-.75.07-.73-.93-1.07-2.83-1.28-2.6-.29-6.89-.35-12.41-.85-1.47-.13-3-.3-4.66-.52l-.9-.11c-6.37-.87-4.81-1.82-.28-2.79,1.25-.26,2.72-.52,4.33-.79,3.42-.56,7.39-1.11,10.93-1.64h0l2.24-.35c6.06-1,3.42-1.39-2.74-1.11-3.06.13-7,.45-11.13,1-1.54.19-3.12.41-4.69.65-1.31.2-2.61.42-3.89.67a49,49,0,0,1-7.53.86h0a35.87,35.87,0,0,1-5.73-.25c-6.08-.79-7.76-3.15-2.26-3.53l1.36-.1,4.18-.29c3.38-.26,7.63-.58,12-1l5.68-.49c4-.37,7.82-.75,11-1.13,2.95-.34,5.35-.69,6.8-1,1.16-.26,1.72-.5,1.47-.71a3.83,3.83,0,0,0-1.71-.33c-1.53-.1-4-.07-6.92,0-3.22.09-7.06.26-11.06.42l-6.84.26c-4.29.14-8.45.23-11.9.15-1.73,0-3.27-.11-4.57-.23-.77-.08-1.45-.17-2-.28-7.05-1.39-6.24-4.8.47-5.3a29.93,29.93,0,0,1,6.47.29c2.73.38,6.19.76,9.92,1.08,2.76.25,5.66.47,8.51.63,3.85.22,7.6.35,10.79.35a42.47,42.47,0,0,0,7-.45c1.35-.26,2-.64,1.83-1.17a2.63,2.63,0,0,0-1.58-1.79c-1.15-.42-3.17-.33-7.23-.16-1.92.08-4.3.18-7.25.24-.93,0-2,0-3.07,0-2.79-.12-6.08-.45-9.42-.88-3-.39-6.05-.86-8.86-1.37-2.64-.48-5.06-1-7-1.45-5.35-1.29-7-2.34.25-2,1,0,2.1.11,3.4.21s2.62.16,3.87.21c3.17.11,6.1.08,8.79-.07a74.65,74.65,0,0,0,10.76-1.34A42.93,42.93,0,0,0,281,80.18h0a6.51,6.51,0,0,0,2.08-1.39c0-.11-.48-.12-1.49-.06-2.12.12-6.32.57-11.29,1.07-3.1.3-6.5.62-9.89.89-3.19.26-6.37.47-9.27.58s-5.29.12-7.33,0a15.84,15.84,0,0,1-3.85-.59c-2.81-.93-.36-1.94,4.45-3,2-.43,4.41-.86,7-1.29,3.4-.57,7.13-1.13,10.75-1.69,2.62-.4,5.18-.8,7.48-1.2,1.75-.29,3.36-.58,4.74-.86,12.32-2.54,5.48-5.65-2.71-3.19l-2.69.78c-2,.56-4.28,1.17-6.66,1.77-3.76,1-7.74,1.91-11.09,2.58a53.52,53.52,0,0,1-6.52,1,5.15,5.15,0,0,1-1.42-.07c-.67-.19,0-.8,1.51-1.65h0a62.36,62.36,0,0,1,5.64-2.7c3.11-1.33,6.85-2.82,10.58-4.21,2.19-.81,4.38-1.59,6.43-2.3h0l.7-.24c11.24-3.8,4.82-5-.59-3.21l-1.15.43c-1.66.68-4.06,1.82-6.63,3A95.31,95.31,0,0,1,249.65,69c-3.39,1.06-5.12.73-2.49-2.92l.56-.75a24,24,0,0,1,7.69-6.21c4.85-2.56,8.57-3,5.49-4.29-1.37-.58-4.17.51-7.47,2.36-2.47,1.38-5.23,3.2-7.89,5.07-1.27.89-2.52,1.8-3.71,2.68-2.31,1.71-4.37,3.32-5.88,4.51-1.35-.86-3.54-.4-6.32,1.08-6.56,3.51-20.55,5.34-24.95-2.35a9.38,9.38,0,0,0,2.45,1.55c3.5,1.27,9.93,1.08,15.64-.12h0c4.77-1,9-2.7,10.63-4.83.66-.88,1.66-2.23,3-3.89,1-1.26,2.19-2.69,3.55-4.25,1-1.16,2.13-2.39,3.34-3.65a3.12,3.12,0,0,0,3.84-.19,5.66,5.66,0,0,1,.48-.31c3.39-2,11.07-3.35,9.6-1.88-.73.73,2,1,4.79,1.24,3,.28,6,.62,4.63,1.71-2.62,2.08,11.18,2.3,9.21,4.71s8.1,4.17,4.6,7c-2,1.58.45,2.87,2.44,4.19,1.56,1,2.86,2.08,1.5,3.32-3.06,2.78,5.48,4,2.19,7.14-1.4,1.32-.57,2.48.62,3.61,1.58,1.52,3.77,3,2,4.74C286.17,91.35,296.25,94.16,291.86,95.6Z" style="fill:#2b2b2b"/><path d="M89.08,126.8c.67,4.14-4.81,2.61-4.43,6.67.21,2.27-2.33,2.27-4.6,2.4h0c-1.79.11-3.39.3-3.34,1.76.13,3.3-3.85-3.17-4.09,2.24s-3.8-2.18-4.31,1.59c-.32,2.33-4.89-3.18-8.58-10.26h0a47,47,0,0,1-4.06-10.29c1.68-3.8,3.75,4.32,9.17,13.43,5.78,9.69-3.36-10.46-5.11-16.15s4.17,6.47,7.49,11.72,4.57,1.86,2.87-2.52-7.95-14-7.72-18.73,9.42,17.21,13.36,21.87-1-6.75-3.3-12.45,3.19,4.28,8.23,7.23-.11-5-3-9.52-10-12.61-3.39-8.33S91,122.31,91,122.31C90.11,123.37,88.7,124.54,89.08,126.8Z" style="fill:#2b2b2b"/><path d="M91,122.31s-10.12-10.58-16.69-14.85.55,3.83,3.39,8.33,8,12.48,3,9.52-10.52-12.92-8.23-7.23,7.24,17.11,3.3,12.45S62.58,104,62.35,108.66s6,14.35,7.72,18.73.46,7.78-2.87,2.52S58,112.49,59.71,118.19,70.6,144,64.82,134.34c-5.42-9.11-7.49-17.23-9.17-13.43a22.15,22.15,0,0,1-.54-3c-1-10.66,3.18-13.54,3.18-13.54,16.46-10.51,29.43,12.24,32.39,15C92,120.63,91.68,121.43,91,122.31Z" style="fill:#eb6601"/><path d="M212.54,96.86c-17.75-3.32-26.73,6.53-43.82,14.09s-51.93,14.8-59.82,6.48,7.45-16-12.27-32.44c0,0-11.26-8.85-6.94-20.64s9.57-14.81,39.81-9.68,43.16,2.9,57.62,12.34,19.29,12.85,29.8,12.79,11-3.57,11.4,5.85S230.29,100.19,212.54,96.86Z" style="fill:#a7f9ef"/><path d="M257.94,9.25a17.07,17.07,0,0,0-4.29,4.15,15.07,15.07,0,0,0-9.22.6c-7.57,3.07-7.13-4.38-12-3.28s-5-2.63-8.11-1.21-11.39.77-16,1.86S201.59,7,198.74,9.51s-5.48,2-9.21,2.68-3.06-1.38-8.32,0-4.38-2.57-9-1-3.6-1.31-6.95-.43-6.94-.25-8.21,0-.61-2.2-5-1.21-5-1-7.67,0-9.86-.33-11.4,0-9-3.18-10.52-2.08-3.85-2.51-7.66-.21-6.36-.67-9.87,1.3-7.88.66-10.29,1-7.45.77-10.08,2.74-4,.44-5.7,3.29A5.49,5.49,0,0,1,73,17.92c1-3.41,2.14-5.85,3.23-4.29,2.63,3.81,7.3-9.93,8.48-5.83S95.24-.68,95.53,4s7.89-3.86,8.77-1.05,8.47-6.32,11.1-.59S122.35-.09,123.69,4s8.65-2.33,9.53,1.76,12.59-10.52,13-4.09,8.32-1.17,8.61,2.92,2.4-6.42,6,.29,13.55-3.21,13,1.46,7.89-5.55,8.47,0,9.36-5,9.36-1.75,14.62-4.38,13-1.46,11-5.26,9.49-1.76S229.05.2,227.29,2.83s18.81-1.76,16.57,1.75S267.26,2.83,257.94,9.25Z" style="fill:#eb6601"/><path d="M246.48,32.42c-4.58,4.59,4,3.71-2.62,9.56s-3.42,7-6.34,9.77.88,2.4-1.31,5.44a60.8,60.8,0,0,1-5.56,7.16,18.81,18.81,0,0,1-7.85,5.25h0c-5.71,1.2-12.14,1.39-15.64.12a9.38,9.38,0,0,1-2.45-1.55h0c-1.09-.88-2.36-2.06-3.91-3.46.49.14,14.61,4.26,26-2.46,11.62-6.84-12.27,2.32-21.25-3.14s17.09-1.89,25.64-8.82,11.61-10.66,0-5.18-26.08,3.28-15.78-2.63,43.15-32,29.13-24.32S186.47,56.29,202,42.93s24.11-26.74,13.81-18.63-29.36,23.23-25.42,14.9S218.24,14,208.6,18s-25,23.72-32.87,19.2,21-26.43,8.33-18.77-17.91,21.48-23.19,19.73-1.67-4.83,4.4-11,11.46-16.87,0-7.45-26.79,22.49-20,12S162.58,3.92,151.41,14s-28.49,20.82-20.82,11.62,9.64-20.16,1.75-12.06S113.06,32.63,115,26.71s15.34-21.69,5-14.24-16.87,23.22-18.4,14.46,14.46-21,7.67-16.42S101.45,20.58,94.88,24.3s-5.48,2-3.29-3.29,4.82-13.36,0-7.88S80.41,33.5,81.73,25.4s3.81-13.59-.18-8.33S78.17,32,73.26,24.52l-1.37-2.09c.34-1.53.71-3.1,1.13-4.51a5.49,5.49,0,0,0,5.86-2.38c1.75-2.85,3.07-1.32,5.7-3.29s7.67-2.41,10.08-2.74,6.79,1,10.29-1,6,1,9.87-1.3,6.13,1.3,7.66.21,9,2.41,10.52,2.08,8.77,1,11.4,0,3.28,1,7.67,0,3.72,1.45,5,1.21,4.87.87,8.21,0,2.35,2,6.95.43,3.73,2.41,9,1,4.6.72,8.32,0,6.36-.16,9.21-2.68,5,3,9.64,1.86,12.93-.44,16-1.86,3.29,2.3,8.11,1.21,4.38,6.35,12,3.28a15.07,15.07,0,0,1,9.22-.6c-3.88,5.45-2.36,11.13-6.26,13.68C242.49,30.29,251.05,27.82,246.48,32.42Z" style="fill:#6aa2ec"/><path d="M236.21,81.12c1.9-6.88,1.6-10.51-.25-11.67-1.35-.86-3.55-.4-6.32,1.08-6.57,3.51-20.56,5.34-25-2.35h0c-1.08-.88-2.35-2.06-3.9-3.46h0c-8.91-8-27-23.06-72.2-29.45,0,0-23.45-1.09-40.76-2.84C85,33.65,81.4,37,79.54,45.77,76.25,61.33,65.74,73,71.65,81.86s25.64,18.47,23,32.94,12.71,17.74,37.91,14.68,44.48-7.45,57.19-14.68,26.29-16.66,37-10.3c1.13.67,2.15,1.32,3.07,2l.49.33c3,2.09,4.88,3.83,6.2,4.75.17.12.33.22.48.31a3.65,3.65,0,0,0,.43.23c1.29.59,2-.11,3.13-2.87C243.22,102.74,232.92,93,236.21,81.12Zm-9.5,15.43a5.12,5.12,0,0,1-1.39.77,16.51,16.51,0,0,1-6.93.4c-1.17-.1-2.49-.28-3.94-.52-.61-.1-1.25-.21-1.91-.34a37,37,0,0,0-5.51-.63l-1.27,0c-12.44,0-20.81,6.91-33.52,13.11-.58.29-1.18.57-1.78.85l-1.74.79a130.63,130.63,0,0,1-23.12,7.3c-1,.24-2.08.45-3.12.66-12.46,2.51-24.88,3.29-31.1.27l-.51-.27a7.73,7.73,0,0,1-2-1.49,8.32,8.32,0,0,1-2.43-5.13A29.45,29.45,0,0,1,107,106c.59-4.5.64-9.77-5.89-16.78-.65-.7-1.38-1.43-2.18-2.17s-1.49-1.34-2.32-2a24.41,24.41,0,0,1-4-4.31c-.33-.45-.66-.93-1-1.44a0,0,0,0,1,0,0c-2.32-3.69-4.12-8.91-1.94-14.87,4-10.87,8.76-14.29,33.25-10.72l1.12.16c1.72.27,3.53.55,5.44.88,2.68.46,5.22.85,7.64,1.2,1.7.25,3.33.47,4.91.68,4.29.56,8.16,1,11.72,1.4,2.51.28,4.87.55,7.1.83,2.62.32,5.06.67,7.37,1.09,1.51.27,2.95.58,4.36.92a45.68,45.68,0,0,1,11.63,4.47c.47.26.94.54,1.42.83s1,.6,1.48.92c2.14,1.4,4.06,2.66,5.83,3.8l2,1.3A77.84,77.84,0,0,0,203.53,77a33.7,33.7,0,0,0,3.69,1.47,27.17,27.17,0,0,0,5.59,1.16c.42,0,.84.08,1.28.1.9.07,1.85.1,2.84.09a44.71,44.71,0,0,0,5.1-.32c.48,0,.92-.1,1.32-.16,4.33-.53,4.65-.59,5,6.33C228.56,90.79,229.13,94.65,226.71,96.55Z" style="fill:#81ede2"/><path d="M231.17,45.12c11.61-5.48,8.55-1.76,0,5.18s-34.62,3.36-25.64,8.82,32.87-3.71,21.26,3.14c-11.41,6.72-25.53,2.6-26,2.46h0c-8.91-8-27-23.06-72.2-29.45,0,0-23.45-1.09-40.76-2.84-8.1-.82-14.86-1.79-17.23-2.86,0,0,.53-3.42,1.34-7.14l1.36,2.1c4.91,7.45,4.31-2.19,8.3-7.45s1.49.22.17,8.32,5-6.79,9.86-12.27,2.19,2.63,0,7.89-3.29,7,3.29,3.29,7.67-9.2,14.46-13.8-9.2,7.66-7.67,16.43,8.11-7,18.41-14.46c8.94-6.47,0,4.56-3.75,11.46A18.11,18.11,0,0,0,115,26.71c-1.06,3.18,1.74,1.48,5.78-2,3.48-3,7.87-7.38,11.53-11.13,7.89-8.1,5.91,2.85-1.76,12s9.65-1.53,20.82-11.61.66,7.23-6.13,17.71,8.54-2.59,20-12,6.07,1.31,0,7.45-9.71,9.2-4.41,11c1.32.44,2.64-.09,4.06-1.26a30.38,30.38,0,0,0,3.5-3.6h0c3.73-4.33,8.49-10.55,15.62-14.86,12.71-7.67-16.22,14.25-8.33,18.77S199,21.89,208.6,17.94,194.36,30.87,190.41,39.2s15.12-6.79,25.42-14.9,1.75,5.26-13.8,18.62c-.55.48-1,.89-1.42,1.26-3.81,3.42-1.42,2.31,3.9-.92,10.18-6.22,31.14-20.23,40-25.1,14-7.67-18.84,18.41-29.14,24.33S219.56,50.59,231.17,45.12Z" style="fill:#2b2b2b"/><path d="M256.81,164.1c-7.68-1.75-11.14-2.06-8.86.17s-2.32,3-7.36,0-2.41,3.33-9.2.7-5,3.07-13.59-.43-3.29,3.06-10.08-.44-7.45,1.75-14-1.75-2.85,2.41-9.86-1.54S176,162.35,172,156.87s-5.76-10.08-9.23-8.55c-2.27,1-3.82-1.86-5.44-5.84,1.83,1.23,3.39,1.67,3.53-.48.24-3.9,18.15,11.8,15.52,7.86s12.49,5,12.93,1.09,14.68,5.7,14.46,2,16.65,7,14.46,3.51,11.17,3.07,10.32.46,10.93,2.61,9.18,0,3.07-2.21,8.42-.24,6-8.8,2.42-13.15c-2-2.48-.79-3.2.63-3.36,1.2,1.92,2,3.49,1,3.58-2.6.22,7.74,9.2,3.45,9.64S264.5,165.85,256.81,164.1Z" style="fill:#2b2b2b"/><path d="M246.17,156.65c-5.36-2-10.18-2.38-8.43.23s-10.05-2.61-9.18,0-12.51-4-10.32-.45-14.68-7.23-14.46-3.51-14-5.91-14.46-2-15.56-5-12.93-1.1S161.11,138.1,160.87,142c-.14,2.15-1.69,1.71-3.53.47-.85-2.12-1.73-4.55-2.76-6.89q3.45-.59,6.58-1.24l3,4.42c2,2.93,2.63-.08,2.38-3.81s4.63,5.7,8.95,9.21.72-2,.06-7.75,3.73,5.78,9.86,10.38-1.75-5.7-1.53-11.4,7.89,6.8,15.56,12.81,6.13,1,2.79-2.95-17.47-15.77-8.93-11.36,12.05,12.9,19.72,17.5c4.6,2.76,6,2.36,4.67.19a28.54,28.54,0,0,0-5.31-5.75c-.22-.18-.44-.38-.67-.58-7.67-6.57-13.15-18.4-7-12.27S220,148.76,228.56,152.7c.63.29,1.13.51,1.51.65h0a4.19,4.19,0,0,0,.49.15.58.58,0,0,0,.18,0c1.2.19-.88-1.72-3.91-4.67-3.42-3.33-8.05-8-10.57-12.46-5.48-9.72,15.34,13,23.66,17.39s8.55-.22,3.39-4l-2.21-1.58c-1.89-1.34-4.37-3.12-7-5h0c-7.19-5.22-15.34-11.37-14.77-12.23.87-1.32,15.77,9,26.2,15.12s-4.07-8.77-11.74-13.37-26.08-14.68-13.37-12.55,17.75,9.92,11.84,1.58-27-9.59-27-9.59a35.14,35.14,0,0,1,6.83-4s15.74,2.25,14.87,4,9,2.22,6.79,3.83,10.3,7.78,7,8.31,7.25,8.64,4.83,8.64c-1.5,0,1.6,4,3.57,7.16-1.42.16-2.64.88-.62,3.36C252.11,147.85,251.51,158.62,246.17,156.65Z" style="fill:#5f9ce0"/><path d="M245.54,146.13c-10.43-6.14-25.33-16.44-26.2-15.12-.57.86,7.58,7,14.77,12.23h0c2.62,1.9,5.1,3.68,7,5l2.21,1.58c5.16,3.73,4.94,8.33-3.39,4s-29.14-27.11-23.66-17.39c2.52,4.48,7.15,9.13,10.57,12.46,3,2.95,5.11,4.86,3.91,4.67a.58.58,0,0,1-.18,0,4.19,4.19,0,0,1-.49-.15h0c-.38-.14-.88-.36-1.51-.65-8.56-3.94-17.75-13.58-23.89-19.72s-.67,5.7,7,12.27c.23.2.45.4.67.58a28.54,28.54,0,0,1,5.31,5.75c1.3,2.17-.07,2.57-4.67-.19-7.67-4.6-11.17-13.08-19.72-17.5s5.59,7.42,8.93,11.36,4.88,9-2.79,2.95-15.34-18.5-15.56-12.81,7.67,16,1.53,11.4-10.51-16.16-9.86-10.38,4.25,11.25-.06,7.75-9.19-12.93-8.95-9.21-.41,6.74-2.38,3.81l-3-4.42c19.25-4,29.67-10,35.46-14.94,2.61-2.26,5.5-4.89,8.69-7.2,0,0,21,1.25,27,9.59s.87.55-11.84-1.58,5.7,8,13.37,12.55S256,152.26,245.54,146.13Z" style="fill:#2b2b2b"/><path d="M31,70.59a7.76,7.76,0,1,0,7.75,7.76A7.76,7.76,0,0,0,31,70.59Zm0,13.33a5.57,5.57,0,1,1,5.56-5.57A5.58,5.58,0,0,1,31,83.92Z" style="fill:#414142"/><path d="M31,72.79a5.57,5.57,0,1,0,5.57,5.56A5.57,5.57,0,0,0,31,72.79Zm-1.23,7.53a2.78,2.78,0,1,1,2.77-2.77A2.77,2.77,0,0,1,29.73,80.32Z" style="fill:#eae3dd"/><path d="M34.3,77.91a3.86,3.86,0,1,1-3.85-3.86A3.86,3.86,0,0,1,34.3,77.91Z" style="fill:#2b2b2b"/><path d="M31,78.35a1.77,1.77,0,1,1,1.77,1.77A1.77,1.77,0,0,1,31,78.35Z" style="fill:#eae3dd"/><path d="M83.88,79.17c0,2.9-1.37,5.25-3.07,5.25s-3.07-2.35-3.07-5.25,1.38-5.25,3.07-5.25S83.88,76.27,83.88,79.17Z" style="fill:#2b2b2b"/><path d="M96.81,75.74c0,3-1.31,5.49-2.92,5.49S91,78.77,91,75.74s1.3-5.49,2.92-5.49S96.81,72.7,96.81,75.74Z" style="fill:#2b2b2b"/><path d="M87.38,66.42c0,2.11-1,3.83-2.19,3.83S83,68.53,83,66.42s1-3.83,2.19-3.83S87.38,64.3,87.38,66.42Z" style="fill:#2b2b2b"/><path d="M96.81,60.79c0,2-.76,3.56-1.7,3.56s-1.7-1.59-1.7-3.56.76-3.57,1.7-3.57S96.81,58.82,96.81,60.79Z" style="fill:#2b2b2b"/><path d="M107.11,60.79c0,2-.79,3.56-1.76,3.56s-1.75-1.59-1.75-3.56.78-3.57,1.75-3.57S107.11,58.82,107.11,60.79Z" style="fill:#2b2b2b"/><ellipse cx="108.64" cy="72.99" rx="1.53" ry="2.75" style="fill:#2b2b2b"/><path d="M123.7,80.5c0,2.17-1.12,3.92-2.49,3.92s-2.49-1.75-2.49-3.92,1.11-3.92,2.49-3.92S123.7,78.34,123.7,80.5Z" style="fill:#2b2b2b"/><ellipse cx="134.49" cy="83.64" rx="2.63" ry="3.14" style="fill:#2b2b2b"/><path d="M145.67,75.33c0,2.26-.78,4.1-1.75,4.1s-1.76-1.84-1.76-4.1.79-4.11,1.76-4.11S145.67,73.06,145.67,75.33Z" style="fill:#2b2b2b"/><ellipse cx="119.09" cy="67.96" rx="2.12" ry="3.26" style="fill:#2b2b2b"/><ellipse cx="110.5" cy="86.38" rx="1.86" ry="3.18" style="fill:#2b2b2b"/><path d="M101,95.56c0,2.23-1.31,4-2.93,4s-2.93-1.81-2.93-4,1.31-4,2.93-4S101,93.32,101,95.56Z" style="fill:#2b2b2b"/><path d="M91.59,89.61a2.11,2.11,0,1,1-2.1-2.14A2.12,2.12,0,0,1,91.59,89.61Z" style="fill:#2b2b2b"/><path d="M89.49,53.6c0,2-1,3.62-2.15,3.62s-2.15-1.62-2.15-3.62,1-3.63,2.15-3.63S89.49,51.6,89.49,53.6Z" style="fill:#2b2b2b"/><path d="M101,49.36c0,2-.93,3.53-2.08,3.53s-2.08-1.58-2.08-3.53.93-3.53,2.08-3.53S101,47.41,101,49.36Z" style="fill:#2b2b2b"/><path d="M118.72,48.07c0,2.32-1.42,4.2-3.18,4.2s-3.18-1.88-3.18-4.2,1.43-4.21,3.18-4.21S118.72,45.74,118.72,48.07Z" style="fill:#2b2b2b"/><path d="M131.87,62.23c0,1.71-.89,3.1-2,3.1s-2-1.39-2-3.1.88-3.11,2-3.11S131.87,60.51,131.87,62.23Z" style="fill:#2b2b2b"/><path d="M134.49,74.27a2.37,2.37,0,1,1-2.3-1.79A2.09,2.09,0,0,1,134.49,74.27Z" style="fill:#2b2b2b"/><ellipse cx="139.64" cy="55.44" rx="2.52" ry="3.68" style="fill:#2b2b2b"/><path d="M129.89,45.42a2.32,2.32,0,1,1-2.3-2.65A2.5,2.5,0,0,1,129.89,45.42Z" style="fill:#2b2b2b"/><path d="M125.29,56a2.06,2.06,0,1,1-2-2.36A2.21,2.21,0,0,1,125.29,56Z" style="fill:#2b2b2b"/><ellipse cx="108.37" cy="41.19" rx="2.14" ry="2.67" style="fill:#2b2b2b"/><path d="M117,100.63a2.31,2.31,0,1,1-2.31-2.13A2.23,2.23,0,0,1,117,100.63Z" style="fill:#2b2b2b"/><path d="M102.72,86.22c0,1.67-.86,3-1.91,3s-1.92-1.35-1.92-3,.86-3,1.92-3S102.72,84.56,102.72,86.22Z" style="fill:#2b2b2b"/><path d="M125.29,95.69c0,1.29-.46,2.33-1,2.33s-1-1-1-2.33.46-2.33,1-2.33S125.29,94.4,125.29,95.69Z" style="fill:#2b2b2b"/><path d="M139.64,96.22c0,1.58-.9,2.86-2,2.86s-2-1.28-2-2.86.91-2.86,2-2.86S139.64,94.64,139.64,96.22Z" style="fill:#2b2b2b"/><path d="M129.89,106.63c0,2-1,3.6-2.3,3.6s-2.3-1.61-2.3-3.6,1-3.6,2.3-3.6S129.89,104.64,129.89,106.63Z" style="fill:#2b2b2b"/><path d="M108.37,109.18c0,1.78-.68,3.22-1.51,3.22s-1.51-1.44-1.51-3.22S106,106,106.86,106,108.37,107.4,108.37,109.18Z" style="fill:#2b2b2b"/><path d="M101,107.7a2.12,2.12,0,1,1-2.08-2.53A2.34,2.34,0,0,1,101,107.7Z" style="fill:#2b2b2b"/><ellipse cx="120.11" cy="113.86" rx="3.14" ry="3.63" style="fill:#2b2b2b"/><path d="M112.36,121.32a2,2,0,1,1-2-2.5A2.29,2.29,0,0,1,112.36,121.32Z" style="fill:#2b2b2b"/><path d="M118.72,92.86c0,1.36-.71,2.46-1.59,2.46s-1.59-1.1-1.59-2.46.71-2.46,1.59-2.46S118.72,91.5,118.72,92.86Z" style="fill:#2b2b2b"/><path d="M148,90.07c0,1.82-.92,3.29-2,3.29s-2-1.47-2-3.29.91-3.29,2-3.29S148,88.25,148,90.07Z" style="fill:#2b2b2b"/><path d="M160.87,58.68a3.61,3.61,0,1,1-3.59-4A3.82,3.82,0,0,1,160.87,58.68Z" style="fill:#2b2b2b"/><path d="M148,66.11c0,1.36-.53,2.46-1.17,2.46s-1.17-1.1-1.17-2.46.52-2.45,1.17-2.45S148,64.76,148,66.11Z" style="fill:#2b2b2b"/><path d="M161.15,79.89c0,1.83-1,3.31-2.26,3.31s-2.26-1.48-2.26-3.31,1-3.31,2.26-3.31S161.15,78.06,161.15,79.89Z" style="fill:#2b2b2b"/><ellipse cx="168.43" cy="72.99" rx="1.93" ry="2.75" style="fill:#2b2b2b"/><ellipse cx="175.69" cy="65.51" rx="1.24" ry="1.86" style="fill:#2b2b2b"/><path d="M157.34,70.78a1.85,1.85,0,1,1-1.82-2.21A2,2,0,0,1,157.34,70.78Z" style="fill:#2b2b2b"/><ellipse cx="157.35" cy="93.24" rx="1.9" ry="3.63" style="fill:#2b2b2b"/><path d="M150.34,101.89c0,1-.52,1.79-1.16,1.79s-1.17-.8-1.17-1.79.52-1.8,1.17-1.8S150.34,100.89,150.34,101.89Z" style="fill:#2b2b2b"/><path d="M143.33,108.23c0,1.81-1,3.27-2.33,3.27s-2.34-1.46-2.34-3.27,1-3.27,2.34-3.27S143.33,106.43,143.33,108.23Z" style="fill:#2b2b2b"/><path d="M134.91,118.12c0,1.16-.68,2.09-1.52,2.09s-1.52-.93-1.52-2.09.68-2.09,1.52-2.09S134.91,117,134.91,118.12Z" style="fill:#2b2b2b"/><path d="M129.89,124.19a2.81,2.81,0,1,1-2.81-3A2.89,2.89,0,0,1,129.89,124.19Z" style="fill:#2b2b2b"/><ellipse cx="151.29" cy="114.46" rx="0.95" ry="1.93" style="fill:#2b2b2b"/><path d="M162.77,106.84c0,1.29-.79,2.34-1.76,2.34s-1.76-1.05-1.76-2.34.79-2.35,1.76-2.35S162.77,105.54,162.77,106.84Z" style="fill:#2b2b2b"/><path d="M145.67,117.62a1.81,1.81,0,1,1-1.75-2.25A2,2,0,0,1,145.67,117.62Z" style="fill:#2b2b2b"/><path d="M170.94,98.32a2.71,2.71,0,1,1-2.7-3A2.86,2.86,0,0,1,170.94,98.32Z" style="fill:#2b2b2b"/><path d="M174.45,88.16c0,1.3-.79,2.35-1.76,2.35s-1.75-1.05-1.75-2.35.79-2.34,1.75-2.34S174.45,86.87,174.45,88.16Z" style="fill:#2b2b2b"/><path d="M180.88,75.59c0,1.71-.89,3.1-2,3.1s-2-1.39-2-3.1.88-3.11,2-3.11S180.88,73.87,180.88,75.59Z" style="fill:#2b2b2b"/><path d="M172.69,59.72c0,2.17-1,3.94-2.22,3.94s-2.23-1.77-2.23-3.94,1-3.94,2.23-3.94S172.69,57.55,172.69,59.72Z" style="fill:#2b2b2b"/><ellipse cx="150.71" cy="48.76" rx="1.53" ry="2.05" style="fill:#2b2b2b"/><ellipse cx="187.01" cy="72.26" rx="1.46" ry="2.01" style="fill:#2b2b2b"/><path d="M194.46,79.59a1.57,1.57,0,1,1-1.53-1.89A1.73,1.73,0,0,1,194.46,79.59Z" style="fill:#2b2b2b"/><ellipse cx="199.94" cy="79.59" rx="0.95" ry="1.88" style="fill:#2b2b2b"/><ellipse cx="194.25" cy="70.33" rx="1.32" ry="2.15" style="fill:#2b2b2b"/><ellipse cx="185.48" cy="64.16" rx="1.53" ry="1.94" style="fill:#2b2b2b"/><path d="M183.94,89c0,.84-.46,1.52-1,1.52s-1-.68-1-1.52.46-1.52,1-1.52S183.94,88.15,183.94,89Z" style="fill:#2b2b2b"/><path d="M189.49,83.3c0,1-.55,1.84-1.24,1.84S187,84.32,187,83.3s.56-1.83,1.24-1.83S189.49,82.29,189.49,83.3Z" style="fill:#2b2b2b"/><path d="M199,91.52c0,1.26-.77,2.29-1.71,2.29s-1.71-1-1.71-2.29.77-2.28,1.71-2.28S199,90.26,199,91.52Z" style="fill:#2b2b2b"/><path d="M208.18,94.19A1.8,1.8,0,1,1,206.42,92,2,2,0,0,1,208.18,94.19Z" style="fill:#2b2b2b"/><ellipse cx="188.41" cy="97.7" rx="1.4" ry="2.39" style="fill:#2b2b2b"/><path d="M181.36,101.84c0,1.47-.86,2.65-1.92,2.65s-1.92-1.18-1.92-2.65.86-2.65,1.92-2.65S181.36,100.37,181.36,101.84Z" style="fill:#2b2b2b"/><path d="M172.69,111c0,1.15-.52,2.08-1.16,2.08s-1.17-.93-1.17-2.08.52-2.09,1.17-2.09S172.69,109.8,172.69,111Z" style="fill:#2b2b2b"/><ellipse cx="209.29" cy="85.91" rx="1.83" ry="2.27" style="fill:#2b2b2b"/><path d="M214.77,81.32c0,1-.63,1.88-1.39,1.88S212,82.36,212,81.32s.62-1.89,1.39-1.89S214.77,80.28,214.77,81.32Z" style="fill:#2b2b2b"/><path d="M224.11,80.8a1.34,1.34,0,1,1-1.31-1.63A1.49,1.49,0,0,1,224.11,80.8Z" style="fill:#2b2b2b"/><path d="M220,88.63a1.63,1.63,0,1,1-1.6-1.89A1.76,1.76,0,0,1,220,88.63Z" style="fill:#2b2b2b"/><path d="M202.69,102.08c0,.8-.4,1.45-.9,1.45s-.9-.65-.9-1.45.4-1.45.9-1.45S202.69,101.28,202.69,102.08Z" style="fill:#2b2b2b"/><ellipse cx="190.11" cy="107.7" rx="1.86" ry="2.53" style="fill:#2b2b2b"/><path d="M218.42,98a2.2,2.2,0,1,1-2.12-1.61A1.92,1.92,0,0,1,218.42,98Z" style="fill:#2b2b2b"/><path d="M227.47,98.27c0,1-.52,1.82-1.16,1.82s-1.17-.82-1.17-1.82.52-1.83,1.17-1.83S227.47,97.26,227.47,98.27Z" style="fill:#2b2b2b"/><path d="M234.63,92.3a1.63,1.63,0,1,1-1.6-1.9A1.76,1.76,0,0,1,234.63,92.3Z" style="fill:#2b2b2b"/><path d="M231.42,77.75c0,1.34-.64,2.43-1.44,2.43s-1.43-1.09-1.43-2.43.64-2.42,1.43-2.42S231.42,76.41,231.42,77.75Z" style="fill:#2b2b2b"/><path d="M207.46,77.2c0,1.44-.88,2.6-2,2.6s-2-1.16-2-2.6.88-2.6,2-2.6S207.46,75.77,207.46,77.2Z" style="fill:#2b2b2b"/><ellipse cx="167.58" cy="84.13" rx="2.05" ry="2.65" style="fill:#2b2b2b"/><path d="M222.07,44.67A25.57,25.57,0,0,0,237,39.58c6.72-5.29,5-8.94-.58-5.87s-24.84,11-19.58,11Z" style="fill:#81ede2"/><path d="M226.31,26.41s9.49-6.54,9.2-8.31-11.25,5.09-13.44,8.31S223.42,28.49,226.31,26.41Z" style="fill:#81ede2"/><path d="M213.38,19.69s-4,1.15-3.29,3.42,5.7-.94,8.33-4.3S216.28,18,213.38,19.69Z" style="fill:#81ede2"/><path d="M182.92,26s-4.33,2.48-3.48,4.53,7-2.05,11.22-5.41S194.46,18.37,182.92,26Z" style="fill:#81ede2"/><path d="M203.52,14.57a10.19,10.19,0,0,0-.83.65A33,33,0,0,0,199,19c-2.78,3.21-.64,1.78,3.7-.86S206.4,12.09,203.52,14.57Z" style="fill:#81ede2"/><path d="M177.52,14.57s-7.16,6-6,7.6,7.84-3.65,9.83-6.28S180.34,12,177.52,14.57Z" style="fill:#81ede2"/><path d="M160,15.16s-3.07,3.56-3.36,5.36-.15.44,4.52-2.68S162.73,11.33,160,15.16Z" style="fill:#81ede2"/><path d="M142.16,12.53a10.19,10.19,0,0,0-4.54,5.57c-1,3.63-.13,3,4.54-.29S144.9,10.24,142.16,12.53Z" style="fill:#81ede2"/><path d="M129.16,9.51s-6,6.15-5.91,7.65.36.92,4.67-2.73S131.77,6.67,129.16,9.51Z" style="fill:#81ede2"/><path d="M99.06,11.24c-1.7,1.71-2.84,5.1-4,6.69-2,2.92-5,6.14,1,1.32,1.73-1.4,6.76-5.52,6.32-8.24-.19-1.15-.89-1-1.92-.73A3.53,3.53,0,0,0,99.06,11.24Z" style="fill:#81ede2"/><path d="M108.93,15.38s-5,3.72-5.33,6.79,2.23-.07,4.77-2.85S113.46,11.94,108.93,15.38Z" style="fill:#81ede2"/><path d="M85.85,16.76s3.42-4.74,1.49-4.3-4,4.35-3.61,6.33S85.49,17.28,85.85,16.76Z" style="fill:#81ede2"/><path d="M76.65,23.05s.73-2.34,0-3.14-3.73,1.38-2.27,3.87S76.49,23.66,76.65,23.05Z" style="fill:#81ede2"/><path d="M197.74,45.42s-12.48,7.14-5.76,6.33,14.3-4.16,16.2-7.08S201,43.42,197.74,45.42Z" style="fill:#81ede2"/><path d="M168.43,33.24c-.24.11-2.79,1.77-3.5,3.6s.75,2.43,4.7,1S174.54,30.29,168.43,33.24Z" style="fill:#81ede2"/><path d="M139.64,27.14s-5.07,5.36-3,5.16,6.29-.5,8.38-1.95S148.81,19.83,139.64,27.14Z" style="fill:#81ede2"/><path d="M115.91,24.29a12.06,12.06,0,0,0-2,2.17c-1.22,2-3.87,7.22.79,4.58,2.13-1.2,6.49-4.45,6.25-7.4C120.69,20.92,117.93,22.54,115.91,24.29Z" style="fill:#81ede2"/><path d="M209.29,121.79c-3.9,1.11-1.91,5,4.89,8.17S215.71,120,209.29,121.79Z" style="fill:#81ede2"/><path d="M241.83,132.94s-5.81-4.87-8.8-5.17-1.79,1.77,3.9,4.62S246.63,136.39,241.83,132.94Z" style="fill:#81ede2"/><path d="M232.55,140.14s-.8.51,1.57,3.11,9.66,7.32,7.71,4.15S232,137.17,232.55,140.14Z" style="fill:#81ede2"/><path d="M232.42,151.45s-4-5.92-5.46-5.48.66,6.73,3.4,7.47S233.81,153.35,232.42,151.45Z" style="fill:#81ede2"/><path d="M192.93,144.44c-.54-1-6.32-7.82-5.92-4.3s1.32,7.19,5,8.32S194.39,147.07,192.93,144.44Z" style="fill:#81ede2"/><path d="M171.53,143.94c-.26-1.12-2.16-7.16-3.95-5.64s1.46,5.37,3.36,6.69S171.9,145.55,171.53,143.94Z" style="fill:#81ede2"/><path d="M159.25,136.41s-.48-1.72-.62,1.13.89,1.7,2.24,1.89S160.23,138.46,159.25,136.41Z" style="fill:#81ede2"/><path d="M197.28,129.32s-4.21-.77-2.82,2.08,8.93,11.33,9.06,7.74S201.12,130.52,197.28,129.32Z" style="fill:#81ede2"/><path d="M220,149.48s-8-4.76-8.91-3.53,2.71,4.18,7.31,5.94S224.71,152,220,149.48Z" style="fill:#81ede2"/><path d="M269.05,41.81s-7.28,2.38-9.32,5.08,5-.44,11.67,4.09S284.56,63.12,283,54.5,277.13,40.15,269.05,41.81Z" style="fill:#f97115"/></g></g></svg>