<svg xmlns="http://www.w3.org/2000/svg" viewBox="0 0 299.26 127.87"><title>harlequin-rasbora</title><g id="Layer_2" data-name="Layer 2"><g id="Ñëîé_2" data-name="Ñëîé 2"><path d="M41.77,83.75h0a13,13,0,0,1-20.75,0h0a13,13,0,1,1,20.77,0Zm20.94-1c-3.16,16-24.38,23.71-16.48,9.94s-2.71-28.23-1.86-31.56c.93-3.62,4.84-2.67,8.41-.72A23.48,23.48,0,0,1,58.85,65,22.26,22.26,0,0,1,62.71,82.71Zm33,28.68c-8.58,0-29.58-4.06-30.71-7.68a3.73,3.73,0,0,1,2.53-4.92,5.56,5.56,0,0,1,2-.24c1.37.09,2.66.55,4,.72,1.94.25,3.88.48,5.82.71q5.81.69,11.64,1.25c9.48.9,10.38,4.29,12,4.54s.46,2.68,1.36,4S104.26,111.39,95.68,111.39Z" style="fill:#f85e3a"/><path d="M235.26,69c-6.28,2.29-9.52-1.16-8.17-3.19s.23-2.71,0-4.69,6-.92,6-.92a26.84,26.84,0,0,1,2.38-4.78c2.53-4.21,1.21-8.58-.15-11.29a96,96,0,0,1-11.9,2.77c-2.14,3.14-8.05,7.08-24.31,5.81-26-2-51.7-7.67-66.15-14.45s-45.16-3.14-59.17,7.34S54.42,55.88,48.49,52.92s-10.16,3.37-12.87,5.63-14.45,3.61-21,8.7C10,70.84,6.27,69.54,4,67.11A14.88,14.88,0,0,0,2,69C13.19,79.73,13.6,86.44,12,83.84S.85,70.57.85,70.57a5.37,5.37,0,0,0,.22,6.16c16.26,21,35.9,23,35.9,23,15.58,8.13,28.11,14.56,59.27,15.58a162.09,162.09,0,0,0,16.65-.2c12.74-.88,21-3.59,28.1-7.79h0l1.39-.85a87.05,87.05,0,0,0,8.73-6.4c1.32-1.08,2.65-2.1,4-3.07a95.67,95.67,0,0,1,23.66-12.62c4.65-1.77,9.62-3.37,15-5,10.51-3.09,26-2,41.69,1.39C237.36,76.44,237.67,72.35,235.26,69Zm-14.71,0c-2,2.39-20.78.19-34,.76s-26.25,7.11-38.09,19.19-22.25,17.28-29.3,16.82-1.08-8.8,2-15.35,2.51-9.26.48-17,3.16-13.22,1.35-17.74,1.13-7.22,11.56-2.71S178.09,61.26,191.2,63s30-1.25,31.16,1.85A3.12,3.12,0,0,1,220.55,69Z" style="fill:#f88670"/><path d="M223.4,46.87c-2.14,3.14-8.05,7.08-24.31,5.81-26-2-51.7-7.67-66.15-14.45s-45.16-3.14-59.17,7.34S54.42,55.88,48.49,52.92s-10.16,3.37-12.87,5.63-14.45,3.61-21,8.7C10,70.84,6.27,69.54,4,67.11A28.92,28.92,0,0,1,9.2,64C22.75,57.42,39,51.78,41.26,50.65c5.17-2.59,9.81-6.28,15-8.87,12.52-6.19,26.25-10.1,39.94-12.84l1.62-.31a69.59,69.59,0,0,1,15-1.26c1,0,2.09.08,3.13.15a58.62,58.62,0,0,1,21.92,5.85,130.22,130.22,0,0,0,20.48,8.06h0c5.14,1.56,10.26,2.8,15.2,3.79a181.58,181.58,0,0,0,23.6,3.06A115.58,115.58,0,0,0,223.4,46.87Z" style="fill:#fab6a8"/><path d="M282.9,92.42c-4.28-.37-2.14,1,.86,2.59a68.9,68.9,0,0,1-19.18-5.07,171.89,171.89,0,0,0-29.1-9.11c1.88-4.39,2.19-8.48-.22-11.86s-3.35-5.42-2.19-8.8a26.84,26.84,0,0,1,2.38-4.78c2.53-4.21,1.21-8.58-.15-11.29q3-.89,5.57-1.92c9.53-3.75,29.32-14.89,41.52-18.51,0,0-1.33,3.27-7.43,6.43s-12.87,7.45-8.35,6.32S279,27,278.13,30.14,265,39.66,259.38,41.43s-1.8.94,4.52,0-1.35,3.12-6.1,4.7-7.9,2.94-4.51,2.94,9.48.22,3.61,1.36-12.42,2.93-7.68,3.38,5,2.48,1.13,3.16-7,1.58-.45,2.26,7.45,2.26,1.58,2.48-4.29,1.36,2,2.26,7.45,3.39,1.35,3.39-.91,2.26,5.42,3.39,13.77,3.15,6.1,3.15-6.33,1.81,1.12,2.94,8.58,3.16,4.3,3.16-6.33,2.49,3.83,4.74,8.36,3.62,2.49,3.17-6.32.67.22,2.25S290.6,93.1,282.9,92.42Z" style="fill:#f85e3a"/><path d="M284.37,95.07l-.6-.06h0c-3-1.59-5.15-3-.86-2.58,7.7.67,2-.68-4.56-2.27s-6.09-2.71-.22-2.25,7.67-.9-2.49-3.16S267.51,80,271.81,80a5.76,5.76,0,0,0,2.05-.27c.57-.23.59-.61,0-1-.82-.62-2.92-1.34-6.39-1.86-7.45-1.13-8.8-2.94-1.12-2.94s.22-2-6.1-3.16-11.51-3.39-5.42-3.39,5-2.48-1.35-3.38-7.91-2-2-2.27,5-1.8-1.59-2.48-3.38-1.58.46-2.26,3.61-2.71-1.14-3.16,1.81-2.26,7.69-3.38-.23-1.36-3.62-1.36-.22-1.35,4.52-2.94,12.41-5.64,6.09-4.7-10.16,1.77-4.51,0,17.84-8.17,18.74-11.29-7,5.15-11.52,6.29,2.26-3.17,8.36-6.32,7.42-6.44,7.42-6.44A26.07,26.07,0,0,1,288,22.54c3.66-.24,4.64.42,4.22,1.5-.78,2-6.51,5.53-8.28,7.31-2.71,2.71-2.71,6.09-4.74,6.43s.67,3.39-1.7,5.08,1,4.49-2.71,5.63-2,3.85-4.06,5.55-4.41,8.47.68,12.19S281.52,71,280.84,72s6.1.69,4.74,3.05,5.76,2.71,5.08,4.74,4.4,5.08,3.39,5.76.19,5.42,4.5,6.77C301.42,93.22,295.42,96.09,284.37,95.07Z" style="fill:#e9e2dc"/><path d="M177.87,11.36c1.58,2.26,3.17,3.61.46,5.2s-.46,2.48-1.59,3.83,1.81,3.8-2.48,7-6.32,7.7-3.38,10.41,3.16,3.81,2.71,7.44c-2-.39-3.93-.81-5.92-1.29-3.06-.72-6.17-1.55-9.28-2.5l.74-.1c5.37-.87,6.46-4.57,4.3-7.16s.9-4.74-.46-7.68S165,22,167,21.07s0-3.39,0-7.68,5.87-2.25,4.74-3.84,0-2.48,2.48-4.74-3.38-1.58-3.38-1.58c-24.08-.7-44.14,14.63-51.69,21.29l-.07,0c-2,1.81-3.14,3-3.14,3-1-.07-2.09-.12-3.13-.15,0,0,11.73-16.69,40.18-23.46,21.38-5.09,29.5-4.44,30.78-2.37.42.68.1,1.53-.74,2.37C179.68,7.3,176.3,9.11,177.87,11.36Z" style="fill:#e9e2dc"/><path d="M154.67,39c.73,1.54,4.46,2.37,4.46,2.37l-.75.1h0a130.22,130.22,0,0,1-20.48-8.06A58.62,58.62,0,0,0,116,27.52s1.1-1.15,3.14-3l.07,0C120.66,23.46,144.88,6.3,156.7,7c0,0-22.52,7.76-31,15.64,0,0,8.81-3.45,13.72-5.48l1-.4c-1.46.65-7.67,3.5-10.11,5.88-3.38,3.32-3.89,3.83,2.71,1.12s11.52-5.27,6.78-1.12-10,5.69-5.42,5.53,12.19-2.86,8.3,0-4.24,3.71-.34,3,8.93-1.76,5.05.23-.48,2,10.36,1.81c0,0,1.86.5-6.1,1.18s1,2.54,7.45,1.69S153.94,37.43,154.67,39Z" style="fill:#2b2b2b"/><path d="M174.26,4.81c-2.49,2.26-3.62,3.16-2.49,4.74S167,9.1,167,13.39s2,6.78,0,7.68-5.42,2.48-4.06,5.42-1.81,5,.45,7.68,1.07,6.28-4.29,7.16c0,0-3.73-.83-4.46-2.37s10.84-3.72,4.4-2.88-15.41-1-7.45-1.69,6.1-1.18,6.1-1.18c-10.84.16-14.23.16-10.36-1.81s-1.16-.9-5.05-.23-3.56-.17.34-3-3.73-.18-8.3,0,.68-1.36,5.42-5.53S139.6,21,133,23.72s-6.09,2.2-2.71-1.12c2.44-2.38,8.65-5.23,10.11-5.88l-1,.4c-4.91,2-13.72,5.48-13.72,5.48,8.47-7.88,31-15.64,31-15.64-11.82-.66-36,16.5-37.51,17.55,7.54-6.65,27.61-22,51.68-21.28C170.87,3.23,176.74,2.55,174.26,4.81Z" style="fill:#f85e3a"/><path d="M235.26,69c-6.28,2.29-9.52-1.16-8.17-3.19s.23-2.71,0-4.69,6-.92,6-.92C231.91,63.55,232.86,65.59,235.26,69Z" style="fill:#2b2b2b"/><path d="M145.43,127.2c-15.05-2.3-28.69-9.8-32.53-12.06,12.73-.88,21-3.58,28.09-7.79h0l1.38-.85a10.05,10.05,0,0,1,1.71.31c2.82.78,3.95,2.65,5.54,3.45,2.25,1.13,1.83,2.49,1.83,2.49l-4.1,1.58a31.16,31.16,0,0,0,5.23.82c1.35-.09-.23,2.11,1.35,2.34s.68,1.13.22,3.68c-.21,1.22,1.83,3.26,2.1,4.77C156.56,127.6,154.73,128.61,145.43,127.2Z" style="fill:#e9e2dc"/><path d="M178.55,113.43C159.36,110.26,155.08,97,155.08,97a96.19,96.19,0,0,1,23.66-12.62c.07,0,.45.27.94.61,1.17.81,2.94,2.26,2.48,3.34-.68,1.58.23,1.58,1.84,2.94s1.33,2.71,0,2.48a61.35,61.35,0,0,0-6.58,0A22.63,22.63,0,0,0,184,95.14c3,0,2.68,2.93,1.33,3.38s1.57,4.29,0,5,0,2.27,1,5.86c.06.22.11.45.17.69C187.36,114.1,178.55,113.43,178.55,113.43Z" style="fill:#e9e2dc"/><path d="M41.77,83.75a11.52,11.52,0,1,0-21.9-5,11.42,11.42,0,0,0,1.13,5,13,13,0,1,1,20.77,0Z" style="fill:#c68a51"/><circle cx="31.38" cy="78.76" r="7.11" style="fill:#2b2b2b"/><path d="M31.38,67.25A11.52,11.52,0,0,0,21,83.75h0a13,13,0,0,0,20.75,0h0a11.52,11.52,0,0,0-10.39-16.5Zm0,18.62a7.11,7.11,0,1,1,7.12-7.11A7.11,7.11,0,0,1,31.38,85.87Z" style="fill:#f4cea1"/><path d="M220.55,69c-2,2.39-20.78.19-34,.76s-26.25,7.11-38.09,19.19-22.25,17.28-29.3,16.82-1.08-8.8,2-15.35,2.51-9.26.48-17,3.16-13.22,1.35-17.74,1.13-7.22,11.56-2.71S178.09,61.26,191.2,63s30-1.25,31.16,1.85A3.12,3.12,0,0,1,220.55,69Z" style="fill:#2b2b2b"/><path d="M62.71,82.71c-3.16,16-24.38,23.71-16.48,9.94s-2.71-28.23-1.86-31.56c.93-3.62,4.84-2.67,8.41-.72A23.48,23.48,0,0,1,58.85,65,22.26,22.26,0,0,1,62.71,82.71Z" style="fill:#ec7c69"/><path d="M95.68,111.39c-8.58,0-29.58-4.06-30.71-7.68a3.74,3.74,0,0,1,2.53-4.92,5.59,5.59,0,0,1,2-.24c1.37.09,2.66.55,4,.73,1.93.24,3.87.48,5.81.7q5.81.69,11.64,1.25c1.26.12,2.37.29,3.34.48,6.4,1.26,7.26,3.84,8.63,4.06,1.58.26.45,2.68,1.35,4h0C105.17,111.16,104.25,111.39,95.68,111.39Z" style="fill:#e9e2dc"/><path d="M284.37,95.07a40.41,40.41,0,0,1,6.31-1.9c6.91-1.83,2.48-3.27-5.76-3.39s-4.74-.79,1.68-1.47,1.93-3.38-5.52-3.9-9-.63-.34-2.08,2.48-2.82-4.4-2.59c-1.09,0-1.9,0-2.48,0-1.72-.11-1.32-.52,0-1a43.46,43.46,0,0,1,4.36-1.23c4.54-1.1,1.47-2.26-3.84-2.35s-7.36-1.23-1.73-1.94,1.39-3.84-4.48-3.72-10.95-1.14-5.53-2.15-.23-4.63-3.95-5.08-1.36-1.24.86-2.35,1.73-2.28-5.38-2.62-.11-.79,5.38-1.81,4.1-2.37-2.45-2.25S254,53,260.31,51.85s10.61-4.18,5-3.45-5.53-.73,1.13-3.18,12.75-7.44,7.12-6.24-7,.9-1.7-1.36,14.34-9.7,13.33-9.36-7,1.88-4.69.56c1.89-1.07,9.06-3.79,11.71-4.78-.78,2-6.51,5.53-8.28,7.31-2.71,2.71-2.71,6.09-4.74,6.43s.67,3.39-1.7,5.08,1,4.49-2.71,5.63-2,3.85-4.06,5.55-4.41,8.47.68,12.19S281.52,71,280.84,72s6.1.69,4.74,3.05,5.76,2.71,5.08,4.74,4.4,5.08,3.39,5.76.19,5.42,4.5,6.77C301.42,93.22,295.42,96.09,284.37,95.07Z" style="fill:#2b2b2b"/><path d="M177.87,11.36c1.58,2.26,3.17,3.61.46,5.2s-.46,2.48-1.59,3.83,1.81,3.8-2.48,7-6.32,7.7-3.38,10.41,3.16,3.81,2.71,7.44c-2-.39-3.93-.81-5.92-1.29a10,10,0,0,1-.84-6.31c.75-3.3-1.7-3.64-1.7-6.85s.6-3.48,2.63-5.08A8,8,0,0,0,170.29,18c-.75-2.54.77-4.06,3.14-5.42s.09-3.89,1.44-4.74,2.37-3,2.71-5.68c.23-1.81,3.84-1.2,6.23-.6.42.68.1,1.53-.74,2.37C179.68,7.3,176.3,9.11,177.87,11.36Z" style="fill:#f0ece8"/><path d="M186.29,109.35c-3.35.5-12.28,1.15-20.48-4.38-10.34-7,4,2.09,12.92,3.1s-6.15-1.12-12.41-5.72-5.93-4.61.76-1a31.52,31.52,0,0,0,15.5,3.59c1.69-.11-5.76-1.72-11.35-4.27s-11.86-8.12-7.11-5.5,12.61,6.27,17.27,6.27-4.32-2.46-8.81-4.15-5.08-2.22-5.5-2.8,5.94,2,11.65,3.48,8.5-.17,2.83-1.7-6.94-2.71-10.41-4.56,3.9,1.3,8.63,1.2,4.24-.6,1.69-1.79-2.71-.69-6.18-1.79.2-1.17,3.44-.51,1.42-1.44,0-1.77-3,.1-4.63,0c-1.26-.09,2.27-1.64,5.57-2.06,1.17.81,2.94,2.26,2.48,3.34-.68,1.58.23,1.58,1.84,2.94s1.33,2.71,0,2.48a61.35,61.35,0,0,0-6.58,0A22.63,22.63,0,0,0,184,95.14c3,0,2.68,2.93,1.33,3.38s1.57,4.29,0,5S185.35,105.76,186.29,109.35Z" style="fill:#f85e3a"/><path d="M156.26,125.94c-6.25-.65-24.88-2.87-33.92-7.25-11-5.31,15.24,4.06,25.52,5s-8-3.15-15.47-4.28S128,117.1,139,118.8s20.67,1.92,9.16.23-16.71-4.18-7.79-2.83,11.06.66,5.75-.74-6-.77-1.69-2,6.1-3.61-.68-2.08-7.11,1.88-7.67,1.54,4.4-1.37,6.54-2,1.7-1.91.57-2-4.06,2.56-5.76,2.52c-1.3,0,3.44-2.92,6.62-4.58,2.82.78,3.95,2.65,5.54,3.45,2.25,1.13,1.83,2.49,1.83,2.49l-4.1,1.58a31.16,31.16,0,0,0,5.23.82c1.35-.09-.23,2.11,1.35,2.34s.68,1.13.22,3.68C154,122.39,156,124.43,156.26,125.94Z" style="fill:#f85e3a"/><path d="M104.26,109.81s-23.23-.83-31.37-4,2.83-.16,9.71.73,16.26,1.82,6.21,0-17.27-3.84-9.48-2.94,9,.12,8.35-.22-.67-1,.91-.57,1.35-.07,2.82-.16a7.22,7.22,0,0,0,2.87-.9c6.4,1.26,7.26,3.84,8.63,4.06C104.49,106,103.36,108.45,104.26,109.81Z" style="fill:#f85e3a"/><path d="M34,75.12a3.48,3.48,0,1,1,3.48,3.48A3.47,3.47,0,0,1,34,75.12Z" style="fill:#e9e2dc"/></g></g></svg>