<svg xmlns="http://www.w3.org/2000/svg" viewBox="0 0 331.2 105.15"><title>horseface-loach</title><g id="Layer_2" data-name="Layer 2"><g id="Ñëîé_2" data-name="Ñëîé 2"><path d="M331.19,31.89a60.76,60.76,0,0,0-34.42,17.44c.59-.41,19.53-13.41,28.33-13.9S304.9,42,297.16,52c0,0,16.72-10.54,22.71-10.16s-15.59,5.43-22.34,13c.36-.17,12.71-6.3,17.87-5.31S298,57.1,298,57.1s13.16-.42,15-1.1-1.19,3.88-13.83,3.63c0,0,8.87,3.82,13.4,5.23s-1.18,1.86-12-1.94,17.38,8,18.12,8.26l-19.88-5.8c.64.25,20.83,8.26,21.58,10.64s-16.62-7.61-22.18-8,20.16,9.27,22.18,13.83-7.72-5.9-23.29-9.44c.55.3,16.94,9.31,23.45,20.4-4.23-.29-11.45-10.51-17.28-13.91-4.25-2.48-6.92-4.78-10.44-6.35a24.31,24.31,0,0,0,2.84-5.06,17.88,17.88,0,0,0,1.41-7.26,17.6,17.6,0,0,0-.7-4.5,20.22,20.22,0,0,0-3.85-7.2,25.23,25.23,0,0,0,6.69-4.38c5.4-4.39,13.49-13.16,27-13.84C330,30.18,331.3,30.76,331.19,31.89Z" style="fill:#ddbb8e"/><path d="M292.6,48.58a14.9,14.9,0,0,1-6.75.84,1.41,1.41,0,0,0,1,1.19c1.51.5-.68,2.19-2.87,1.68s-4.43-.58-3.71-2.14c.46-1-.76-1.43-1.83-2.26h0l-.36-.11-5-1.57c-.81.68-1.34,1.48-1,2,.85,1.51-1.18,2.87-3,2.36s-4.73-.17-3.88-1,1.35.54,2.7-.91c.8-.87.78-2.37-.07-4.09h0c-2.27-.68-4.81-1.43-7.6-2.24a9.21,9.21,0,0,0-.59,2.35c-.34,2.87.17,3-2.36,3.88a13.6,13.6,0,0,1-5.91.17,9.41,9.41,0,0,1,2.2-2.61c1-.59,3-1.61,2.53-2.45s-2.2-2.87-3.71-2-6.92-.87-8.61-1.78-4.38-.25-3.37,1.27,3.54,4.05,3.71,4.72-1-.25-3,0-3.2-.55-3.54-2.41-5.23-2.37-3.88-4.05c.77-.95,1.89-2.07,2.86-3.42q-3-.75-6.26-1.49c0,.12.78,2.87,0,3s-3.51.19-3.68,2.89-1.18,3.38-3,1.94a2.57,2.57,0,0,1,0-4.2c.85-.52,1.59-1,0-5.19-2.13-.48-4.31-.94-6.53-1.41,0,0,3,2.78,2.57,4.25s-1.92,2.47-3.27,1-1.91-1.58-4.72-1-2.81,1.12-2.47-2,3.68-3.09,3.92-3.09l-2.57-.52q-5-1-10.13-1.9c1.56,2.42,2.14,5.34,1,6.62s-1.69,1.3-2.59-1.11-3.71-2.2-3.48-3.61S198,28,198,28c-7-1.22-14.29-2.35-21.81-3.34a8.18,8.18,0,0,1,4.88,8.5c-.46,2.13-2.92-2.14-4.83-2.88s-2.14,1.3-3.38,0-1.55-6.24-1.55-6.24c-7.58-.91-15.37-1.68-23.3-2.24,1.68,1.35,2.81,6.86,2.13,9s-2.92,2-3.37.67.34-2.25-1.91-4.84a7.52,7.52,0,0,1-2-5.17L137,21.15c-2.9-.14-5.69-.24-8.39-.33h0c-.49,2.74,3.74,4,4.21,7.07.57,3.6-2.24,5.51-2.69,3.15s.45-3.26-2.47-5.18a8.84,8.84,0,0,1-3.78-5.14c-5.28-.11-10.14-.08-14.6,0,.16.85,1.39,1.78,2.18,2.74a6.7,6.7,0,0,1,1.91,5c.12,2.36-2.24,3.71-2.47,1.12s-3.82-4.28-5.62-5.74c-.6-.48-1.67-1.65-2.94-2.82-3,.15-5.69.34-8.27.57h0c-.26,3.37,4.09,4.72,3.9,7.2-.23,2.92.11,5.06-4.62-.11-4.17-4.57-2.2-3.79-3.55-6.67-4.28.48-8,1-11.16,1.65.49,2.17,3.76,3.93,3.58,6.64-.22,3.43-.11,3.32-4.61-2.41a8,8,0,0,1-1.93-3.62,72.73,72.73,0,0,0-8.78,2.46c1.09,2.68,4.5,4.17,2.73,7.18-2,3.42-1.13-.06-2.48-2a49.47,49.47,0,0,1-2.52-4.33,21.18,21.18,0,0,0-3,1.51c-3.21,1.95-7.09.74-9.79.23s-3.37-.33-6.24,1.86-3.54,3-15.52,7.42S6.8,52.63,1.74,60.9C-1,65.29-.17,69,1.74,71.52a9.28,9.28,0,0,0,4,3,5.52,5.52,0,0,0,2.06.37,6.74,6.74,0,0,0,4.61-2.22,7.55,7.55,0,0,0,1.12-1.49c.68-3.21,5.57-6.08,12.32-8.27S56.39,55.33,60.6,49.25s.68-14.16,10.13-9.83a36.54,36.54,0,0,0,18.38,3.09c81.81.67,104.08,2.36,136.63,7.42,32.29,5,70.08,5.84,70.71,5.85A20.22,20.22,0,0,0,292.6,48.58ZM55.27,42.29a5.11,5.11,0,0,1-6.41-1.94,4.48,4.48,0,0,1-.35-.65,5.06,5.06,0,0,1-.41-2.58,3.41,3.41,0,0,1,.06-.43,2.23,2.23,0,0,1,0-.23c0-.09,0-.18.08-.28s0-.14.07-.22a1.39,1.39,0,0,1,.1-.26.64.64,0,0,1,.08-.19,1.68,1.68,0,0,1,.16-.33,1.92,1.92,0,0,1,.18-.31,4.43,4.43,0,0,1,.46-.61,2.5,2.5,0,0,1,.22-.24l.27-.25a3.07,3.07,0,0,1,.29-.24,2.83,2.83,0,0,1,.28-.2l.13-.08.26-.15L51.1,33a5.11,5.11,0,0,1,4.17,9.34Zm111.21-9.82a7.61,7.61,0,0,1-4.82-2.17c-1.36-1.06-1.92.47-2.49.62,0,0-.68-.67-.9,1.58s-2.58,1.7-2.81-.83,3.15-4.68,4.38-5.91,3.87-1,5.76,2S169.18,32.77,166.48,32.47Zm24.85,5.65c-1,.56,0-1.23-2.14-2.36s-3.48-.56-3-2.81,3-.48,3-.48,1.81,0,3.49,2.55S192.34,37.56,191.33,38.12Z" style="fill:#ddbb8e"/><path d="M69.66,33.91c-2,3.42-1.13-.06-2.48-2a49.47,49.47,0,0,1-2.52-4.33c.65-.27,1.4-.57,2.27-.88C68,29.41,71.43,30.9,69.66,33.91Z" style="fill:#7d6a48"/><path d="M82.25,30.3c-.22,3.43-.11,3.32-4.61-2.41a8,8,0,0,1-1.93-3.62c.93-.21,1.92-.41,3-.61C79.16,25.83,82.43,27.59,82.25,30.3Z" style="fill:#7d6a48"/><path d="M98,28.79c-.23,2.92.11,5.06-4.62-.11-4.17-4.57-2.2-3.79-3.55-6.67,1.37-.15,2.78-.29,4.27-.42C93.84,25,98.19,26.31,98,28.79Z" style="fill:#7d6a48"/><path d="M113.4,28.46c.12,2.36-2.24,3.71-2.47,1.12s-3.82-4.28-5.62-5.74c-.6-.48-1.67-1.65-2.94-2.82q3.3-.16,6.94-.26c.16.85,1.39,1.78,2.18,2.74A6.7,6.7,0,0,1,113.4,28.46Z" style="fill:#7d6a48"/><path d="M130.16,31c-.45-2.36.45-3.26-2.47-5.18a8.84,8.84,0,0,1-3.78-5.14c1.54,0,3.11.06,4.73.1-.49,2.74,3.74,4,4.21,7.07C133.42,31.49,130.61,33.4,130.16,31Z" style="fill:#7d6a48"/><path d="M219.45,35.88c-.45,1.47-1.92,2.47-3.27,1s-1.91-1.58-4.72-1-2.81,1.12-2.47-2,3.68-3.09,3.92-3.09h0l4,.81S219.89,34.41,219.45,35.88Z" style="fill:#7d6a48"/><path d="M230.1,37.6c-.81.19-3.51.19-3.68,2.89s-1.18,3.38-3,1.94a2.57,2.57,0,0,1,0-4.2c.85-.52,1.59-1,0-5.19,2.28.5,4.51,1,6.69,1.51h0C230.13,34.68,230.88,37.43,230.1,37.6Z" style="fill:#7d6a48"/><path d="M260.07,42.35a9.21,9.21,0,0,0-.59,2.35c-.34,2.87.17,3-2.36,3.88a13.6,13.6,0,0,1-5.91.17,9.41,9.41,0,0,1,2.2-2.61c1-.59,3-1.61,2.53-2.45s-2.2-2.87-3.71-2-6.92-.87-8.61-1.78-4.38-.25-3.37,1.27,3.54,4.05,3.71,4.72-1-.25-3,0-3.2-.55-3.54-2.41-5.23-2.37-3.88-4.05c.77-.95,1.89-2.07,2.86-3.42h0C245.48,38.28,253.47,40.46,260.07,42.35Z" style="fill:#7d6a48"/><path d="M272,48.25c.85,1.51-1.18,2.87-3,2.36s-4.73-.17-3.88-1,1.35.54,2.7-.91c.8-.87.78-2.37-.07-4.09L273,46.21C272.18,46.89,271.65,47.69,272,48.25Z" style="fill:#7d6a48"/><path d="M283.94,52.29c-2.19-.5-4.43-.58-3.71-2.14.46-1-.76-1.43-1.83-2.26a36.39,36.39,0,0,0,7.45,1.53,1.41,1.41,0,0,0,1,1.19C288.32,51.11,286.13,52.8,283.94,52.29Z" style="fill:#7d6a48"/><path d="M297.15,60.28a17.88,17.88,0,0,1-1.41,7.26s-14.11-6.62-45.59-3.9S111.6,65,98.11,61,78.54,54,79,60.05s3.27,10.78-12.52,14.17h0c-2-.17-4.26-.38-6.63-.63,0,0,17-.89,17.15-16.83S66.85,38.63,67.18,41.33,71,66.21,50.82,67.81,24.7,66.06,18.58,69.35h0a17,17,0,0,0-5,1.84c.68-3.21,5.57-6.08,12.32-8.27S56.39,55.33,60.6,49.25s.68-14.16,10.13-9.83a36.54,36.54,0,0,0,18.38,3.09c81.81.67,104.08,2.36,136.63,7.42,32.29,5,70.08,5.84,70.71,5.85A17.6,17.6,0,0,1,297.15,60.28Z" style="fill:#cdad7e"/><path d="M59.82,73.59c-5.67-.57-12.08-1.37-17.94-2.4-11.25-2-18.05-2.89-23.3-1.84,6.12-3.29,12.08.06,32.24-1.54S67.52,44,67.18,41.33s10-.51,9.79,15.43S59.82,73.59,59.82,73.59Z" style="fill:#c49d69"/><path d="M295.74,67.54a24.31,24.31,0,0,1-2.84,5.06c-3.2-1.42-7.1-2.25-13.52-2.09-9,.22-37.29,3.48-66.12,6.11h0c-4.62.42-9.25.83-13.82,1.2-9.49.78-18.72,1.42-27,1.8-22.1,1-52.11-.86-72.76-2.54h0S92.94,71.3,88.89,67s-6.53-1.57-5.18,2.26A25.41,25.41,0,0,0,87.43,76C80.32,75.37,76,74.9,76,74.9s-3.85-.21-9.48-.68c15.79-3.39,13-8.09,12.52-14.17s5.62-3.15,19.12.9,120.55,5.4,152,2.69S295.74,67.54,295.74,67.54Z" style="fill:#eae3dd"/><path d="M53.18,42.46a4.28,4.28,0,1,1,4.27-4.28A4.28,4.28,0,0,1,53.18,42.46Zm4.67-6.93a5.11,5.11,0,0,0-9.34,4.17,4.48,4.48,0,0,0,.35.65,5.11,5.11,0,0,0,9-4.82Z" style="fill:#7d6a48"/><path d="M53.18,33.91a4.28,4.28,0,1,0,4.27,4.27A4.27,4.27,0,0,0,53.18,33.91Zm0,5.51c-1.3,0-2.36-.7-2.36-1.55s1.06-1.55,2.36-1.55,2.36.7,2.36,1.55S54.48,39.42,53.18,39.42Z" style="fill:#ebd7c1"/><path d="M55.54,37.87c0,.85-1.06,1.55-2.36,1.55s-2.36-.7-2.36-1.55,1.06-1.55,2.36-1.55S55.54,37,55.54,37.87Z" style="fill:#2b2b2b"/><path d="M48.86,40.35S34,48.25,22.73,52s-11,7.42-12.56,8.77-3.88-.09.67-4.05,11.56-7.25,16.37-9.11S45.74,40.51,48.1,37.12a5.06,5.06,0,0,0,.41,2.58A4.48,4.48,0,0,0,48.86,40.35Z" style="fill:#7d6a48"/><path d="M201.23,35c-1.13,1.28-1.69,1.3-2.59-1.11s-3.71-2.2-3.48-3.61S198,28,198,28l2.18.38C201.77,30.82,202.35,33.74,201.23,35Z" style="fill:#7d6a48"/><path d="M181.1,33.18c-.46,2.13-2.92-2.14-4.83-2.88s-2.14,1.3-3.38,0-1.55-6.24-1.55-6.24l4.88.62A8.18,8.18,0,0,1,181.1,33.18Z" style="fill:#7d6a48"/><path d="M150.17,30.82c-.67,2.13-2.92,2-3.37.67s.34-2.25-1.91-4.84a7.52,7.52,0,0,1-2-5.17c1.69.1,3.41.21,5.17.34C149.72,23.17,150.85,28.68,150.17,30.82Z" style="fill:#7d6a48"/><path d="M210.34,30.3q-5-1-10.14-1.9L198,28c-7-1.22-14.29-2.34-21.8-3.33l-4.88-.62c-7.59-.92-15.37-1.69-23.31-2.25l-5.16-.33c-2-.13-3.94-.23-5.84-.33,0,0,23.09-17.95,64.76-21.15,0,0,3,.21.78,1.94a16.32,16.32,0,0,1-3.14,1.77l-2.31,1.07-1.71.8-3.24,1.5a26.71,26.71,0,0,0,6.08-1.18,1.6,1.6,0,0,1,2.05.31,1.47,1.47,0,0,1,.14,1.55c-.51.84.17,3.37,1.35,3.54s.5,2.53-1.69,3.38-7.2,2.72-7.57,2.86c.46-.07,7.81-1.2,10.1-1.85s1,1.52.77,2.53.24,2.16,1.76,2.93A11.37,11.37,0,0,1,209.41,26,9.64,9.64,0,0,1,210.34,30.3Z" style="fill:#cdad7e"/><path d="M331.19,31.89c-.29,3-10.47,9.68-12.67,15.89-3,8.56-.68,8.22-3,8.56s.68,3-.34,3.71-2,3.38,1.35,5.74,9.11,8.09,7.43,21.93c-.48,3.87-1.66,5.26-3.3,5.14-6.51-11.09-22.9-20.1-23.45-20.4,15.57,3.54,25.32,14,23.29,9.44s-27.75-14.17-22.18-13.83,22.94,10.37,22.18,8-20.94-10.39-21.58-10.64l19.88,5.8c-.74-.31-28.78-12-18.12-8.26s16.51,3.35,12,1.94-13.4-5.23-13.4-5.23c12.64.25,15.68-4.3,13.83-3.63s-15,1.1-15,1.1,22.6-6.49,17.38-7.51-17.51,5.14-17.87,5.31c6.75-7.59,28.33-12.65,22.34-13S297.16,52,297.16,52C304.9,42,334,34.92,325.1,35.43s-27.74,13.49-28.33,13.9A60.76,60.76,0,0,1,331.19,31.89Z" style="fill:#eae3dd"/><path d="M125.09,102.34C110.7,94.68,87.42,76,87.42,76a25.71,25.71,0,0,1-3.71-6.75c-1.35-3.82,1.13-6.52,5.18-2.25s10.76,10,10.76,10h0A68.71,68.71,0,0,0,108.92,80a20.29,20.29,0,0,0,4.93.56c5-.22,11.69,5.4,9,5a33.32,33.32,0,0,0-7.43.15c-1.17.16-1.78.35-1.12.52l.66.17,9.24,2.3c1.64.41,1.2,1.57,1,2.62a1.59,1.59,0,0,0-.06.3c-.1.55-.07,1,.44,1.34.86.48,1,1.31.92,2.31,0,.31-.06.64-.11,1a15.07,15.07,0,0,0-.13,1.66c0,.93,2.77,3.54,4.41,5.38C132.57,105.4,132.91,106.48,125.09,102.34Z" style="fill:#cdad7e"/><path d="M237.87,91.49c-.69.12-3-.12-8-.91a68.38,68.38,0,0,1-30.47-12.76c4.57-.38,9.2-.78,13.82-1.21h0l8.55,3.6,1.79.76s1.8.89,1.8,2.47c0,.39,0,.69,0,.94a.61.61,0,0,0,0,.14c0,.66.31,1,2.05,2.3S239.81,91.16,237.87,91.49Z" style="fill:#cdad7e"/><path d="M166.48,32.47a7.61,7.61,0,0,1-4.82-2.17c-1.36-1.06-1.92.47-2.49.62,0,0-.68-.67-.9,1.58s-2.58,1.7-2.81-.83,3.15-4.68,4.38-5.91,3.87-1,5.76,2S169.18,32.77,166.48,32.47Z" style="fill:#7d6a48"/><path d="M191.33,38.12c-1,.56,0-1.23-2.14-2.36s-3.48-.56-3-2.81,3-.48,3-.48,1.81,0,3.49,2.55S192.34,37.56,191.33,38.12Z" style="fill:#7d6a48"/><path d="M73.21,48.2a2.25,2.25,0,0,0-.84-.39,2.82,2.82,0,0,0-3.16,1.44c-.9,2.37,2.81,10.8-5.63,16.15s-3.26,5.34,1.58,3.54c2.78-1,5.86-2,7.63-4.59s2-6,2.08-8.95C75,53.07,75.36,49.79,73.21,48.2Z" style="fill:#ddbb8e"/><path d="M19.45,81.56a10.94,10.94,0,0,0-6.58-6.66s-2,1-.45,2.24,2.3,2.39,1.63,4.46-.88-.63-2.21-2.49-4.11-1.51-4-4.21a6.74,6.74,0,0,0,4.61-2.22s5.2,2.3,6.16,4.92A9.61,9.61,0,0,1,19.45,81.56Z" style="fill:#cdad7e"/><path d="M4.35,78.35C2.92,77,3.83,73.5,2.74,74.94s-.16,5.44-1,5.44S.05,78.61,0,75.91a6.29,6.29,0,0,1,1.74-4.39,9.28,9.28,0,0,0,4,3C4.28,76.09,5.78,79.7,4.35,78.35Z" style="fill:#cdad7e"/><path d="M195.41,5.58c-20.56,1.84-50,13.53-50,13.53C163.52,6,192.85,2.71,202.57,1.94a16.32,16.32,0,0,1-3.14,1.77l-2.31,1.07Z" style="fill:#eae3dd"/><path d="M209.41,26a91.27,91.27,0,0,0-11.68.38c.93-2.16,6.58-3.42,6.58-3.42a31.74,31.74,0,0,0-16.37,2.07c1.86-3.51,13.88-5.94,13.88-5.94-7.9-1.52-26.87,4.55-26.87,4.55,5.07-6.08,19.4-8.51,19.4-8.51-7.16-.81-30.7,5.5-30.7,5.5,6-7,44.54-10.31,32.56-10.23s-40,8.69-40,8.69c11.82-7.66,34.33-11.53,44.07-12.9a1.47,1.47,0,0,1,.14,1.55c-.51.84.17,3.37,1.35,3.54s.5,2.53-1.69,3.38-7.2,2.72-7.57,2.86c.46-.07,7.81-1.2,10.1-1.85s1,1.52.77,2.53.24,2.16,1.76,2.93A11.37,11.37,0,0,1,209.41,26Z" style="fill:#eae3dd"/><path d="M112,85c-9.34-.9-17.32-5.73-10.35-3.26s28.46,2.93,11.78.57-19.31-6.19-13.91-4A26,26,0,0,0,108.92,80a20.29,20.29,0,0,0,4.93.56c5-.22,11.69,5.4,9,5a33.32,33.32,0,0,0-7.43.15A12.75,12.75,0,0,0,112,85Z" style="fill:#eae3dd"/><path d="M115,86.31l9.24,2.3c1.64.41,1.2,1.57,1,2.62a13.85,13.85,0,0,0-2.5-.49c-8.32-1.12-20.24-5.85-16.19-4.5A19.33,19.33,0,0,0,115,86.31Z" style="fill:#eae3dd"/><path d="M130.63,103.21c-8.36-2.54-19.07-10.28-19.44-10.55a45.51,45.51,0,0,0,15.16,3.51,15.07,15.07,0,0,0-.13,1.66C126.22,98.76,129,101.37,130.63,103.21Z" style="fill:#eae3dd"/><path d="M123.91,94.79c-9.89-1.12-27.34-10.35-16.34-6.3,7.61,2.8,15.9,3.34,17.53,3-.1.55-.07,1,.44,1.34.86.48,1,1.31.92,2.31C125.81,95.05,125,94.91,123.91,94.79Z" style="fill:#eae3dd"/><path d="M222.69,82.48c5.45.11-6.35-1.47-8.77-3.41-2.13-1.71,2,.89,7.89,1.14l1.79.76s1.8.89,1.8,2.47c0,.39,0,.69,0,.94-1.46-.51-10.91-2.41-13.53-4.48C208.26,77.07,217.24,82.36,222.69,82.48Z" style="fill:#eae3dd"/><path d="M237.87,91.49c-3.15-.36-20.22-3.26-33.5-11.82.5.24,16.57,8.1,23.55,8.93S215.83,85.79,210,81s4.27,2.47,13,3.37c1.29.14,2,.19,2.35.19,0,.66.31,1,2.05,2.3S239.81,91.16,237.87,91.49Z" style="fill:#eae3dd"/><path d="M97.53,53.1c0,3-2.16,7.59-4.13,7.59s-3.57-4.27-3.57-7.31,1.6-5.49,3.57-5.49S97.53,50.06,97.53,53.1Z" style="fill:#7d6a48"/><path d="M136.78,53.72c0,3-2.16,7.59-4.13,7.59S129.08,57,129.08,54s1.6-5.5,3.57-5.5S136.78,50.69,136.78,53.72Z" style="fill:#7d6a48"/><path d="M198.34,54.36c0,2.78-2,6.94-3.78,6.94s-3.26-3.9-3.26-6.68,1.46-5,3.26-5S198.34,51.58,198.34,54.36Z" style="fill:#7d6a48"/><path d="M219.49,55.49c0,2.78-2,6.94-3.77,6.94s-3.27-3.9-3.27-6.68,1.46-5,3.27-5S219.49,52.71,219.49,55.49Z" style="fill:#7d6a48"/><path d="M257.84,57.42c0,1.78-1.26,4.45-2.42,4.45s-2.09-2.5-2.09-4.28.94-3.22,2.09-3.22A2.85,2.85,0,0,1,257.84,57.42Z" style="fill:#7d6a48"/><path d="M274.74,58.12c0,1.38-1,3.45-1.87,3.45s-1.62-1.94-1.62-3.32.72-2.49,1.62-2.49A2.22,2.22,0,0,1,274.74,58.12Z" style="fill:#7d6a48"/><path d="M291.45,59.71c0,1.62-1.14,4-2.19,4s-1.9-2.28-1.9-3.89.85-2.93,1.9-2.93A2.59,2.59,0,0,1,291.45,59.71Z" style="fill:#7d6a48"/><path d="M156.6,54.9c0,3.39-2.35,8.47-4.49,8.47s-3.89-4.76-3.89-8.15,1.74-6.13,3.89-6.13S156.6,51.52,156.6,54.9Z" style="fill:#7d6a48"/><path d="M117.25,53.71c0,3-1.87,9.59-3.84,9.59S109.56,57,109.56,54s1.6-5.5,3.57-5.5S117.25,50.68,117.25,53.71Z" style="fill:#7d6a48"/><path d="M177.53,53.59c0,3-1.87,9.59-3.85,9.59s-3.84-6.27-3.84-9.3,1.59-5.5,3.57-5.5S177.53,50.56,177.53,53.59Z" style="fill:#7d6a48"/><path d="M237.64,56.6c0,2.11-1.3,6.65-2.67,6.65s-2.67-4.34-2.67-6.45S233.41,53,234.78,53,237.64,54.5,237.64,56.6Z" style="fill:#7d6a48"/><path d="M86.23,37.87s-2.48,1-1,2.48,1.24,4.16,2.81,3.16,3.82-2.78,2.81-4.09S89.26,37.29,86.23,37.87Z" style="fill:#7d6a48"/><path d="M141.17,62s-2.47,1-1,2.48,1.24,4.16,2.81,3.16,3.82-2.78,2.81-4.09S144.21,61.43,141.17,62Z" style="fill:#7d6a48"/><path d="M182.67,62.62s-2.48,1-1,2.48,1.24,4.16,2.81,3.16,3.83-2.78,2.82-4.09S185.7,62,182.67,62.62Z" style="fill:#7d6a48"/><path d="M100,40.7s-1,1.56,1.68,3,3.55.9,4-1.51S104.67,37.67,100,40.7Z" style="fill:#7d6a48"/><path d="M118.62,40.35s-3.15-3.11-4.62-.93-.44,3.34,2.31,3.38S121.29,42,118.62,40.35Z" style="fill:#7d6a48"/><path d="M105.1,64.53s.45-4.4-2.17-4.17-2.88,1.75-1.18,3.92S105.51,67.65,105.1,64.53Z" style="fill:#7d6a48"/><path d="M126.47,33.16a4.22,4.22,0,0,0-3,1.47c-1.58,1.57,1.2,2.84,3,2.49S130.84,34.29,126.47,33.16Z" style="fill:#7d6a48"/><path d="M138.52,38.64s-1.46-1.71-2.7,0-.45,5.12,1.35,5.89S141.78,42.66,138.52,38.64Z" style="fill:#7d6a48"/><path d="M153.48,37.62a2.92,2.92,0,0,0-3.11,1c-1.05,1.61.74,3.84,3.11,3.23S157.07,37.69,153.48,37.62Z" style="fill:#7d6a48"/><path d="M165.4,42s-2,.41-.9,2,3.93,1.93,4.72.66S170.12,41.56,165.4,42Z" style="fill:#7d6a48"/><path d="M180.47,38.64s-3.6-1-3.6.78,2.36,3.78,3.6,3.32S183.73,39.63,180.47,38.64Z" style="fill:#7d6a48"/><path d="M163.37,64.48s-3.6-1-3.6.77,2.37,3.78,3.6,3.32S166.63,65.46,163.37,64.48Z" style="fill:#7d6a48"/><path d="M197,43.73s-1.67-.6-2.18.8,3.55,4.56,4.61,3.85S200.93,44.17,197,43.73Z" style="fill:#7d6a48"/><path d="M208.84,41.87a1.36,1.36,0,0,0-2,.93c-.45,1.61-.14,4.09,2.52,3.24S211.91,42.93,208.84,41.87Z" style="fill:#7d6a48"/><path d="M225.4,48.38a1.5,1.5,0,0,0-2,.63c-.78,1.25-1.16,3.5,1,3.05S228.17,50.1,225.4,48.38Z" style="fill:#7d6a48"/><path d="M205.84,63.67a1.49,1.49,0,0,0-2,.62c-.79,1.25-1.17,3.5,1,3S208.61,65.39,205.84,63.67Z" style="fill:#7d6a48"/><path d="M242.31,49.59s-3,.89-2.07,2.3,2.86,2.37,4.1,1.1S245.91,48.7,242.31,49.59Z" style="fill:#7d6a48"/><path d="M224,63.45s-3,.9-2.07,2.3,2.86,2.38,4.1,1.1S227.59,62.56,224,63.45Z" style="fill:#7d6a48"/><path d="M264.58,62s-3,.89-2.07,2.3,2.86,2.37,4.09,1.1S268.18,61.14,264.58,62Z" style="fill:#7d6a48"/><path d="M260.64,50.72s-1.81.13-.57,1.67,3.61,3.21,3.72,1.72S263.57,51,260.64,50.72Z" style="fill:#7d6a48"/><path d="M276.39,52.71s-1.33,1.56-.55,2.19,2.57,1.47,3.25.55S277.63,49.42,276.39,52.71Z" style="fill:#7d6a48"/><path d="M293.14,55.32s-.79-1.79-1.69-1-.89,2.17.23,2.21S294,56.39,293.14,55.32Z" style="fill:#7d6a48"/><path d="M283.88,65.33s-.79-1.79-1.69-1-.9,2.17.23,2.21S284.72,66.4,283.88,65.33Z" style="fill:#7d6a48"/><path d="M244.91,64.8s-.79-1.79-1.69-.95-.9,2.17.23,2.21S245.76,65.87,244.91,64.8Z" style="fill:#7d6a48"/><path d="M125.94,66.11s-.33-2.47-2.48-2.13-1.94,4-.47,4.26S127.53,68.71,125.94,66.11Z" style="fill:#7d6a48"/></g></g></svg>