<svg xmlns="http://www.w3.org/2000/svg" viewBox="0 0 618.73 318.15"><title>Asset 6</title><g id="Layer_2" data-name="Layer 2"><g id="Ñëîé_2" data-name="Ñëîé 2"><path d="M510.73,124.12c52.56-37.93,91.66-54.87,107.45-60.83a1.8,1.8,0,0,0-.1-.33c-2.74-7.67-39.12,3-85.38,37.76-13.25,10-24.3,16.21-33.31,20-3.14,5.06-10,12-23.87,12-21.91,0-154.34-37-232.61-22.31-60.46,11.31-108.81,28.57-154.56,26q-6.48,2.49-12.92,5.06C28,160.32-.15,179.17,0,195.48a66.25,66.25,0,0,1,6.47-6.78c2.05-2.06,6.16,1.64,10.26-4.16s15.6-5.69,18.88,0,2.47,3.34,13.55,3.34,11.08,6.56,11.9,13.54,12.32,3.29,22.58,8.62,27.5,6.57,33.66,2.46,17.24,0,23,4.11,17.24,2,25.86-.41c4.76-1.36,10.26.41,16.3,1.3,10.26-10.92-8.55-20.23,4.42-15.21,5.89,2.3,13.85,6.68,21.26,11.2,14.15-1.23,34.1,2.68,42.16,5.58,10.27,3.7,57.06-.82,62-7.39s25-8.62,25.45-16.42,7.79-21.75,4.92-30,9.44-19.29,22.58-15.6,87.43-4.92,91.12-8.21,30,.82,35.3,4.93,25.87,1.64,37.36-5.34,15.19,4.11,12.85,10.28a200.42,200.42,0,0,0-7.1,25c-.83,4.93,5.74,13.14,2.46,21.35-3.19,8,11,31.14,11.79,32.46a.14.14,0,0,0,0,.05c16.35,18.16,35.27,28.53,42.49,28.19a3,3,0,0,0,2.1-.92c-1.16-.76-2.46-1.59-3.85-2.53l-1.07-.7c-1.07-.71-2.2-1.48-3.38-2.3l-1-.66c-2.23-1.54-4.59-3.22-7-5l-2.09-1.56c-1.08-.83-2.18-1.66-3.28-2.53-.64-.5-1.27-1-1.89-1.5l-.89-.7c-.52-.43-1-.86-1.56-1.28-.85-.69-1.69-1.4-2.53-2.12l-2.48-2.15c-2.41-2.14-4.76-4.35-6.94-6.59h0c-.56-.56-1.1-1.12-1.61-1.68q-1.68-1.8-3.18-3.59c-.91-1.05-1.75-2.12-2.53-3.19-.41-.56-.82-1.13-1.22-1.71s-.75-1.13-1.11-1.69l-.65-1.06c-.14-.25-.29-.5-.42-.74-.3-.53-.56-1-.82-1.55s-.41-.85-.59-1.28a2.37,2.37,0,0,1-.17-.36.21.21,0,0,1,.05.07.24.24,0,0,1,.1.1.8.8,0,0,1,.13.13l.16.16.22.21c.16.15.34.33.54.55l.85.83,1.06,1,1,.94c2.61,2.46,6.31,5.85,10.72,9.54L560,226l.46.36,3.33,2.66.46.34c.64.5,1.28,1,1.94,1.48,1.31,1,2.68,2,4.07,3,.69.5,1.38,1,2.09,1.45.47.34.95.67,1.44,1l1.46,1c.61.41,1.22.78,1.84,1.16,1,.61,1.94,1.18,2.91,1.74.43.27.89.51,1.31.76s.63.36.94.52.64.36,1,.51c.51.28,1,.54,1.51.79s1,.51,1.53.75c1,.5,2,1,3,1.38.35.15.69.3,1,.43a1.32,1.32,0,0,0,.19.08c.49.22,1,.4,1.49.58.74.28,1.46.54,2.2.77a64.32,64.32,0,0,0-2.41-8.08c-15.47-8.32-38.21-21.47-48.36-38,.79.62,22.84,17.83,41.33,22.56-1.05-3.63-1.86-6.64-6.32-8.34a9.7,9.7,0,0,1-4.11-3.16c-11.95-5-24.79-12.06-30.91-22,0,0,12.18,5.3,22.72,7a4.6,4.6,0,0,0-2.48-3.48c-1.2-.56-2.59-2.43-4-5.1-.82-.27-1.64-.53-2.46-.83s-1.44-.5-2.17-.77-1.52-.59-2.26-.9-1.46-.61-2.17-.94a40.94,40.94,0,0,1-3.68-1.92l-1.26-.8c-.28-.18-.56-.38-.82-.58,0,0-.05,0-.09-.06-.26-.18-.52-.38-.78-.59a9.46,9.46,0,0,1-.78-.64c-.32-.3-.64-.59-.93-.89s-.44-.48-.64-.71-.38-.47-.56-.7-.33-.44-.46-.66a.05.05,0,0,1,0-.05,5.55,5.55,0,0,1-.41-.7l0-.1c.11,0,.51.19,1.16.46a2.49,2.49,0,0,1,.41.14c.51.19,1.12.42,1.83.66a3.38,3.38,0,0,0,.51.18c.65.23,1.37.5,2.16.76.27.08.53.16.79.26,1.08.34,2.27.72,3.5,1.07.33.11.66.2,1,.29.79.23,1.59.45,2.41.66a.2.2,0,0,0,.1,0c1,.26,2,.51,3.09.74-.56-1.76-1.05-3.63-1.46-5.55-5.78-2.12-11.56-5.05-14.42-9.3a96.41,96.41,0,0,0,13.37.69,34.92,34.92,0,0,1,.31-6.43,1.2,1.2,0,0,1,0-.2c-8.32-4.86-16.3-7.29-10.7-7.46,3-.08,7.29,1.14,11.57,2.63.36-1.62.77-3.27,1.23-4.91-5.2-2.23-9.8-3.74-9.8-3.74,2.09-.35,6.37-.08,10.85.25.6-1.88,1.25-3.68,2-5.42-10-1.33-19.44.11-14.45-3.22,2.61-1.74,10.2-2.84,17.85-3.86,1.92-3.28,4-5.63,6-6.35a5.78,5.78,0,0,0,2.11-1.4c-18.84.52-53.65,13-54.75,13.41,14.63-10.45,39.57-17.66,60.5-23a7.76,7.76,0,0,1,5.83-2.2c8.59,0,11.89-6.16,14.84-12-30.88,1.66-82,27.67-83.64,28.5,25.55-19,66.3-34.62,93.66-44.77l0,0c3-2.72,7.88-6.53,7.14-8.42a3,3,0,0,1,.26-2.23C572.39,85.35,514.59,121.67,510.73,124.12ZM93.47,199.45a14.91,14.91,0,1,1,14.91-14.91A14.91,14.91,0,0,1,93.47,199.45Zm248-60.6c-6.57,3.92-12,16.88-11.49,34.66s-17.1,27.39-17.1,27.39c-28.07,18.65-46.4,10.09-54.61,6.69s-18.6-2.06-27.91,0-19.7-3.16-33.64-10.82S182.14,201,171.2,200.9s-18.06,3-31.74-7.2-17.51-15-2.74-27,39.41-13.67,56.39-12.57,57.46-11.5,63.47-15.24,27.37-11.59,35.58-9.41,17.52,8.77,32.3,2.2S348,134.92,341.42,138.85Z" style="fill:#4c4c4c"/><path d="M499.39,120.77c-3.14,5.06-10,12-23.87,12-21.91,0-154.34-37-232.61-22.31-60.46,11.31-108.81,28.57-154.56,26,29.49-11.36,59.93-21.67,95.94-29.12a0,0,0,0,0,0,0c4-.84,8.16-1.63,12.35-2.4a578.13,578.13,0,0,1,61.83-7.73c1.35-.1,2.71-.18,4.09-.26,2.15-.12,4.34-.22,6.55-.27,6.62-.19,13.5-.16,20.58.07,32.67,1.07,69.22,6.26,100.61,11.9,19.31,3.48,36.67,7.13,50,10.12,1.83.41,3.61.8,5.28,1.2C459,123,467,125.07,467,125.07S476.91,130.36,499.39,120.77Z" style="fill:#414142"/><path d="M549,230.19c-1-1.09-1.94-2.19-2.89-3.32-17-20.24-44.89-58-65.68-60.21S441,182.54,401.07,218.12C384.37,233,369.79,241.63,351.19,247c-15,4.31-32.51,6.49-55.86,8.05a20.39,20.39,0,0,0-7-4.86c-2.76-1.28-10-1.92-17.38-1.71h-.05c-7.05.18-14.19,1.12-17.69,3-7.17,3.76-4.91,5.79-4.91,5.79a2.37,2.37,0,0,0,.17.2l-15,.66c-41.18,1.8-84.19-3.34-120.79-10.33-68.62-13.6-56.17-36.47-64.38-33.59s-34.28,1.51-34.28,1.51c-1.48-1.71-3-3.38-4.44-4.81a16.12,16.12,0,0,1,5.09-6.36c3.43-2.54,8-2.26,12.05-2.23,7.21.08,14.42.57,21.58,1.26-2.51-.24-5-.93-7.52-1.36-5.76-1-11.54-1.94-17.36-2.54-6.65-.71-13.61,3-17.81,8-3.7-2.05-4.93-7.8-4.93-7.8a14.2,14.2,0,0,1-.72-4.3,66.25,66.25,0,0,1,6.47-6.78c2.05-2.06,6.16,1.64,10.26-4.16s15.6-5.69,18.88,0,2.47,3.34,13.55,3.34,11.08,6.56,11.9,13.54,12.32,3.29,22.58,8.62,27.5,6.57,33.66,2.46,17.24,0,23,4.11,17.24,2,25.86-.41c4.76-1.36,10.26.41,16.3,1.3a28.89,28.89,0,0,1-7.93,5.58s6.47,20.65,41.08,25.33h0a109.69,109.69,0,0,0,15.53.94s8.67.93,3.4-4.34-9.3-6.4-7.42-8.76,0-8.26,1.85-8.26c.69,0-2.9-2.78-8.47-6.55-3.53-2.4-7.85-5.19-12.38-7.95,14.15-1.23,34.1,2.68,42.16,5.58,10.27,3.7,57.06-.82,62-7.39s25-8.62,25.45-16.42,7.79-21.75,4.92-30,9.44-19.29,22.58-15.6,87.43-4.92,91.12-8.21,30,.82,35.3,4.93,25.87,1.64,37.36-5.34,15.19,4.11,12.85,10.28a200.42,200.42,0,0,0-7.1,25c-.83,4.93,5.74,13.14,2.46,21.35C534,205.71,548.2,228.87,549,230.19Z" style="fill:#e8e1db"/><path d="M48.34,203.52c-7.16-.69-14.37-1.18-21.58-1.26-4.05,0-8.62-.31-12,2.23a16.12,16.12,0,0,0-5.09,6.36,20.28,20.28,0,0,0-4-3.27c4.2-4.91,11.16-8.67,17.81-8,5.82.6,11.6,1.54,17.36,2.54C43.3,202.59,45.83,203.28,48.34,203.52Z" style="fill:#414142"/><path d="M112.72,247.74c-52-9.92-91.11-23.56-93.53-26.2-1.54-1.7-3.31-3.81-5.13-5.88,0,0,26.07,1.36,34.28-1.51S44.1,234.14,112.72,247.74Z" style="fill:#d9d1cc"/><path d="M555.61,176c-5.78-2.12-11.56-5.05-14.42-9.3a96.41,96.41,0,0,0,13.37.69A51.8,51.8,0,0,0,555.61,176Z" style="fill:#2b2b2b"/><path d="M555.77,155.89c-.34,1.64-.64,3.27-.87,4.83-8.32-4.86-16.3-7.29-10.7-7.46C547.2,153.18,551.49,154.4,555.77,155.89Z" style="fill:#2b2b2b"/><path d="M558.05,147.49c-.37,1.14-.72,2.33-1,3.49-5.2-2.23-9.8-3.74-9.8-3.74C549.29,146.89,553.57,147.16,558.05,147.49Z" style="fill:#2b2b2b"/><path d="M559.66,188.11c-.82-.27-1.64-.53-2.46-.83s-1.44-.5-2.17-.77-1.52-.59-2.26-.9-1.46-.61-2.17-.94a40.94,40.94,0,0,1-3.68-1.92l-1.26-.8c-.28-.18-.56-.38-.82-.58,0,0-.05,0-.09-.06-.26-.18-.52-.38-.78-.59a9.46,9.46,0,0,1-.78-.64c-.32-.3-.64-.59-.93-.89s-.44-.48-.64-.71-.38-.47-.56-.7-.33-.44-.46-.66a.05.05,0,0,1,0-.05,5.55,5.55,0,0,1-.41-.7l0-.1c.11,0,.51.19,1.16.46a2.49,2.49,0,0,1,.41.14c.51.19,1.12.42,1.83.66a3.38,3.38,0,0,0,.51.18c.65.23,1.37.5,2.16.76.27.08.53.16.79.26,1.08.34,2.27.72,3.5,1.07.33.11.66.2,1,.29.79.23,1.59.45,2.41.66a.2.2,0,0,0,.1,0c1,.26,2,.51,3.09.74A45.24,45.24,0,0,0,559.66,188.11Z" style="fill:#2b2b2b"/><path d="M563.41,135a52.61,52.61,0,0,0-3.4,7.08c-10-1.33-19.44.11-14.45-3.22C548.17,137.11,555.76,136,563.41,135Z" style="fill:#2b2b2b"/><path d="M574.29,211.68c-11.95-5-24.79-12.06-30.91-22,0,0,12.18,5.3,22.72,7,.51,2.27.2,4.63,1.9,4.45C570.09,201,570.91,207.38,574.29,211.68Z" style="fill:#2b2b2b"/><path d="M577.23,117.7c-2.66,2.64-3.33,7.09-5.75,9.54-18.84.52-53.65,13-54.75,13.41C531.36,130.2,556.3,123,577.23,117.7Z" style="fill:#2b2b2b"/><path d="M591.75,238.61c-15.47-8.32-38.21-21.47-48.36-38,.79.62,22.84,17.83,41.33,22.56a23.5,23.5,0,0,0,3,7A44.82,44.82,0,0,1,591.75,238.61Z" style="fill:#2b2b2b"/><path d="M593.63,257.51c-1.16-.76-2.46-1.59-3.85-2.53l-1.07-.7c-1.07-.71-2.2-1.48-3.38-2.3l-1-.66c-2.23-1.54-4.59-3.22-7-5l-2.09-1.56c-1.08-.83-2.18-1.66-3.28-2.53-.64-.5-1.27-1-1.89-1.5l-.89-.7c-.52-.43-1-.86-1.56-1.28-.85-.69-1.69-1.4-2.53-2.12l-2.48-2.15c-2.41-2.15-4.76-4.37-6.94-6.59h0l-1.61-1.68q-1.68-1.8-3.18-3.59c-.89-1.05-1.73-2.12-2.53-3.19-.41-.56-.82-1.13-1.22-1.71s-.75-1.13-1.11-1.69l-.65-1.06c-.14-.25-.29-.5-.42-.74-.3-.53-.56-1-.82-1.55s-.41-.85-.59-1.28a2.37,2.37,0,0,1-.17-.36.21.21,0,0,1,.05.07.24.24,0,0,1,.1.1.8.8,0,0,1,.13.13l.16.16.22.21c.16.15.34.33.54.55l.85.83,1.06,1,1,.94c2.61,2.46,6.31,5.85,10.72,9.54L560,226l.46.36c1.07.89,2.18,1.77,3.33,2.66l.46.34c.63.51,1.28,1,1.94,1.48,1.31,1,2.68,2,4.07,3,.69.5,1.38,1,2.09,1.45.47.34.95.67,1.44,1l1.46,1c.61.41,1.22.78,1.84,1.16,1,.61,1.94,1.18,2.91,1.74.44.27.87.53,1.31.76s.63.36.94.52.64.36,1,.51c.51.28,1,.54,1.51.79s1,.52,1.53.75c1,.5,2,1,3,1.38.35.17.69.3,1,.43a1.32,1.32,0,0,0,.19.08c.49.22,1,.4,1.49.58.74.28,1.46.54,2.2.77C595.19,251.43,595.34,255.7,593.63,257.51Z" style="fill:#2b2b2b"/><path d="M605.77,90.05c.54,1.64-3.56,5.19-6.85,11.49-.34.66-.67,1.32-1,2-30.88,1.66-82,27.67-83.64,28.5,25.55-19,66.3-34.62,93.66-44.77C606.56,88.51,605.6,89.54,605.77,90.05Z" style="fill:#2b2b2b"/><path d="M615.34,76.59c-43,8.76-100.75,45.08-104.61,47.53,52.56-37.93,91.66-54.87,107.45-60.83C620.07,69.07,616.54,73.58,615.34,76.59Z" style="fill:#2b2b2b"/><circle cx="95.66" cy="185.49" r="8.21" transform="translate(-17.78 10.31) rotate(-5.65)" style="fill:#2b2b2b"/><path d="M93.47,169.63a14.91,14.91,0,1,0,14.91,14.91A14.91,14.91,0,0,0,93.47,169.63Zm2.19,24.07a8.21,8.21,0,1,1,8.21-8.21A8.21,8.21,0,0,1,95.66,193.7Z" style="fill:#e8e1db"/><path d="M309.37,11.78c-9,3.83-10.64,8.75-11.74,20.8s-1.08,19.44-6,23.14-4.92,5.55,2.73,4.88,6.56,1,4.38,8.65-5.47,9.31-6,13.13-8.27,11-23.56,14.25c-2.21.05-4.4.15-6.55.27,19.69-4.63,20.94-15.34,20.94-15.34-7.59-4-30.77,2.19-19.82-2.18s15.6-1.1,19.82-3.56,7.27-11.5,2.34-13.68-3.28-12.87.27-17.24-4.11-5.21,4.38-12.32-14.23-1.1-7-4.38,12.2-7.67,6.71-5.75-19.14,6.85-12.58,1.92,36.64-11.49,9.86-6.56c-.46.08-.92.16-1.38.26C260,23.63,240.31,49.64,232.5,70.89c-7.93,21.62-35.83,34-35.83,34-4.19.77-8.31,1.56-12.35,2.4,1.13-.66,37.86-21.89,42.71-38a82,82,0,0,1,5.47-13.53c1.64-2.89,3.23-5.72,4.84-8.46l0,0c12-18.62,35.44-40.13,79.43-43.12C316.79,4.11,318.37,8,309.37,11.78Z" style="fill:#2b2b2b"/><path d="M440.3,118.72c-13.3-3-30.66-6.64-50-10.12,0,0,17.39-1.31,29.2-7.66,0,0,16.3,4.43,19,10A15.84,15.84,0,0,1,440.3,118.72Z" style="fill:#707070"/><path d="M448.65,115.58a23.53,23.53,0,0,1-3.07,4.34c-1.67-.4-3.45-.79-5.28-1.2a15.84,15.84,0,0,0-1.81-7.8c-2.66-5.55-19-10-19-10A31.72,31.72,0,0,0,423,98.8a23.28,23.28,0,0,1,4.49-2.54h0c4.39.8,9.66,1.23,14.11,3.17C449.59,102.91,448.65,115.58,448.65,115.58Z" style="fill:#d9d1cc"/><path d="M448.65,115.58s.94-12.67-7.07-16.15c-4.45-1.94-9.72-2.37-14.11-3.17,9.89-4.21,19,.75,22.32,7.44C451.89,107.93,450.41,112.41,448.65,115.58Z" style="fill:#414142"/><path d="M456.35,182.82c2.75,1.64-5.46,3.55-4.77,5.75s-4.26.82-.76,3.54-6.5,3-4.32,4.93-4.1,3.56-2.46,4.66-5.75,2.73-3.71,5.19-4.5,2.46-4.2,4.38-4.68.55-.84,3.57-6.85,1.08-4.11,3.82,2.47,5.75-2.46,5.21-.28,7.65-5.75,6.37,3,10.31-.82,9.22.27,7.39-2.62,6.84-2.3-.55,1.05,5.2c2,3.47,6.53,6.44,9.78,8.24-.13.13-.28.25-.42.38-6.74,5.75-12.58,23-29.41,16.42-8.82-3.45-21.95-11.4-32.45-18.18,6.38-2,14.45,3.89,11.92.09-3-4.57,13.68,2.62,9-2s9-2.19,6-5.75,6-1.92,2.46-6.85,4.37-2.72,1.91-6.57,6-3.28,2.46-7,7.13-2,4.66-5,7.11-3.28,5.19-5.4,6-3.63,4.08-5.55,4.69-1.36,3.71-3.55,6.17-1.1,3.71-4.38,7.12-1.1,4.38-3.57,5.75-.54,4.11-2.46,6.28-1.64,4.92-4.1,6-2.73,3.68-4.93,17.12-14.78,19.59-13.13S453.61,181.18,456.35,182.82Z" style="fill:#2b2b2b"/><path d="M431.73,245.34c0,5.62,4.71,8.89-1.37,14.4-3.25-1.8-7.75-4.77-9.78-8.24-3.35-5.75-3.94-5.75-1.05-5.2s-1.22-7.94,2.62-6.84-4.66-10.52.82-9.22.82-6.93,5.75-6.37,5.19-2.47,2.46-5.21,7.93-.82,4.11-3.82,1.13-1.65.84-3.57,6.25-1.92,4.2-4.38,5.35-4.11,3.71-5.19,4.65-2.74,2.46-4.66,7.82-2.19,4.32-4.93,1.45-1.36.76-3.54,7.52-4.11,4.77-5.75,6-3,3.57-4.66-21.92,11-19.59,13.13-5,2.46-3.68,4.93-6.57,2.2-4.92,4.1-6.85,0-4.11,2.46-6.85.28-4.38,3.57-4.7,2.18-3.71,4.38-5.67,1.64-3.71,3.55-6,3.41-4.08,5.55-7.65,2.39-5.19,5.4-8.2,1.25-4.66,5-4.92,3.2-2.46,7-5.47,1.65-1.91,6.57-5.48,3.29-2.46,6.85-10.67,1.1-6,5.75-12-2.55-9,2c2.53,3.8-5.54-2.12-11.92-.09-9.53-6.17-16.89-11.38-16.89-11.38,18.6-5.35,33.18-14,49.88-28.86,40-35.58,58.57-53.64,79.37-51.46C457.31,180.36,431.73,239.6,431.73,245.34Z" style="fill:#707070"/><path d="M210.3,225.15c-12.74-6.29-22-7.41-9,0s19.27,11.36,11.37,9.27-24.39-12-27-11.85,23.25,16,29.76,17.42-6.51,3.94-28.33-8.59,14,14.29,28.49,17c-34.61-4.68-41.08-25.33-41.08-25.33a28.89,28.89,0,0,0,7.93-5.58c10.26-10.92-8.55-20.23,4.42-15.21,5.89,2.3,13.85,6.68,21.26,11.2,4.53,2.76,8.85,5.55,12.38,7.95-3.37,2.92-20.77-6.29-20.77-6.29-2.18-1.09-4-2-5.21-2.56-3.89-1.87-1.82.42,2.73,3.59a73.23,73.23,0,0,0,12.59,7.09C220.77,227.92,223,231.45,210.3,225.15Z" style="fill:#414142"/><path d="M231.15,249.35a109.69,109.69,0,0,1-15.53-.94h0c-14.45-2.72-50.32-29.55-28.49-17s34.83,10,28.33,8.59-32.32-17.31-29.76-17.42,19.07,9.75,27,11.85,1.63-1.87-11.37-9.27-3.71-6.29,9,0,10.47,2.77-.45-1.88a73.23,73.23,0,0,1-12.59-7.09c-4.55-3.17-6.62-5.46-2.73-3.59,1.2.57,3,1.47,5.21,2.56,0,0,17.4,9.21,20.77,6.29,5.57,3.77,9.16,6.55,8.47,6.55-1.85,0,0,5.89-1.85,8.26s2.16,3.51,7.42,8.76S231.15,249.35,231.15,249.35Z" style="fill:#707070"/><path d="M346.56,316.34c-24.33-4.17-45.35-15-61.62-26.3l-.08-.07c-1.47-1.25-22-19-29.36-32.87h0a24.4,24.4,0,0,1-2.25-5.68c3.5-1.84,10.64-2.78,17.69-3H271c10.86,1.5,17,4.78,19.6,6.88,1.64,1.32,1.94,2.15,1.18,1.81-2-.89,2.51,6.81,0,5.38s-2.31,0-.7,3.22,7.15,9.33.36,4.48-8.08-2.51-.36,3.6,9.13,11.46,3.21,7.52-21.51-15.06-19.53-12,25.45,17.91,29.4,21.67,4.83,4.12-4.66-.89-31-21.51-13.27-5.73C303.67,299.92,345.26,315.85,346.56,316.34Z" style="fill:#2b2b2b"/><path d="M284.86,290a190.47,190.47,0,0,1-36.37-32.56,2.37,2.37,0,0,1-.17-.2s-2.26-2,4.91-5.79a24.4,24.4,0,0,0,2.25,5.68h0C262.84,270.94,283.39,288.72,284.86,290Z" style="fill:#d9d1cc"/><path d="M375.1,317.92a122.61,122.61,0,0,1-28.51-1.56l0,0c-1.3-.49-42.89-16.42-60.36-31.94-17.75-15.78,3.76.71,13.27,5.73s8.6,4.67,4.66.89-27.42-18.64-29.4-21.67,13.62,8.06,19.53,12,4.49-1.43-3.21-7.52-6.46-8.42.36-3.6,1.25-1.24-.36-4.48-1.79-4.65.7-3.22-2-6.27,0-5.38c.76.34.46-.49-1.18-1.81-2.63-2.1-8.74-5.38-19.6-6.88,7.38-.21,14.62.43,17.38,1.71a20.39,20.39,0,0,1,7,4.86,11.69,11.69,0,0,1,2.87,6.42c.73,5.57,5.75,19,7,19.72s2.87,4.66,4.3,5.38,0,2.86,3.5,5.19-.1,3.06,2.59,4.49,6.64,3.21,6.27,4.12-3.39,0-3.39,0c12.18,12.9,55.9,12.54,58.42,15S375.1,317.92,375.1,317.92Z" style="fill:#707070"/><path d="M331.57,4.11c-5.34.15-7.39,1.1-10.26,3.57s-12.73,9-17.14,12.72-3.39,26.68-3,27.91-2.46,7.8,0,7.41,3.29,5.32,2.88,9-4.93,10.67-5.75,18.47-8.6,13.5-8.6,13.5c-7.08-.23-14-.26-20.58-.07,15.29-3.26,23-10.42,23.56-14.25s3.85-5.46,6-13.13,3.28-9.31-4.38-8.65-7.65-1.2-2.73-4.88,4.93-11.1,6-23.14,2.74-17,11.74-20.8,7.42-7.67,7.42-7.67c-44,3-67.4,24.5-79.43,43.12C251.26,23.31,264.61,5.57,300,1.52,339.37-3,336.9,4,331.57,4.11Z" style="fill:#707070"/><path d="M290.52,32.58c-8.49,7.11-.82,7.93-4.38,12.32s-5.19,15-.27,17.24,1.88,11.21-2.34,13.68-8.89-.83-19.82,3.56,12.23-1.81,19.82,2.18c0,0-1.25,10.71-20.94,15.34-1.38.08-2.74.16-4.09.26a578.13,578.13,0,0,0-61.83,7.73s27.9-12.38,35.83-34c7.81-21.25,27.53-47.26,53.64-52.82.46-.1.92-.18,1.38-.26,26.78-4.93-3.29,1.64-9.86,6.56s7.11,0,12.58-1.92.51,2.47-6.71,5.75S299,25.46,290.52,32.58Z" style="fill:#d9d1cc"/><path d="M341.42,138.85c-6.57,3.92-12,16.88-11.49,34.66s-17.1,27.39-17.1,27.39c-28.07,18.65-46.4,10.09-54.61,6.69s-18.6-2.06-27.91,0-19.7-3.16-33.64-10.82S182.14,201,171.2,200.9s-18.06,3-31.74-7.2-17.51-15-2.74-27,39.41-13.67,56.39-12.57,57.46-11.5,63.47-15.24,27.37-11.59,35.58-9.41,17.52,8.77,32.3,2.2S348,134.92,341.42,138.85Z" style="fill:#535354"/><path d="M96.19,178.19a4.72,4.72,0,1,1,4.72,4.72A4.72,4.72,0,0,1,96.19,178.19Z" style="fill:#e8e1db"/><path d="M343.63,238.61s30-4.11,44.82-19,42.14-40.06,58-48.81-32.22-10.4-51.41,7.39-40,39.57-60.51,46.46S323.84,243.48,343.63,238.61Z" style="fill:#ede7e2"/><path d="M232.5,83.78s14.5-18.88,18.11-30S270.06,28.36,271,36.16s.83,19.08,3.53,24.32-17,7.7-18.23,16.32S252.58,89.11,239.85,92,223.91,95.94,232.5,83.78Z" style="fill:#e8e1db"/></g></g></svg>