<svg xmlns="http://www.w3.org/2000/svg" viewBox="0 0 289.42 148.98"><title>jaguar-chichlid</title><g id="Layer_2" data-name="Layer 2"><g id="Ñëîé_2" data-name="Ñëîé 2"><path d="M271.3,90.63c-5,25.36,15.37,44.16,4.26,42.57a20.92,20.92,0,0,1-7.6-3.36c5.81.11,6.51-4.44,4.36-8-2.93-4.79-5.38-9.51-5.17-25.7S276,67.87,279.8,60s7.84-19.86,6.52-22.3a1.83,1.83,0,0,0-1.06-.81,10.45,10.45,0,0,0-4.42-.15c6.07-3.74,9.91-2.7,8.15,6.56C286.06,58.73,276.26,65.27,271.3,90.63Z" style="fill:#8d886c"/><path d="M281.72,46.72c.43,3-7,11.22-14.75,16.28s-9.21,8.21-2.21,3.56,13.34-8.44,11.27-4-3.71,8.65-10.28,8.59-7.45,2.63-2.3,2.84S269,76.2,268,77.5s-11.28,1.65-5.72,3.57,6,5.85,1.2,6.06-6.47-.5-2.77,1.84,4.85,3.62,3.49,7.5-1.9,3.47-4.9,1.51-1.45,0,.27,1.84,7.91,9.29,6.24,14.33-10.62-8.38-11.48-6.49,9.59,11.09,11.23,13.57-2.77,4.08-9.76-2.75c-4.31-4.2-5.31-4-4.7-1.85-3.64-3.08-7.28-6.15-10.69-8.81,2.2-3.11,4.7-7.27,3.53-8.73-1.95-2.44-.16-3.34-2.79-6s-1.24-3,.16-6.58,4.5-3.21,3-5.58S243.16,75.36,246,74s4.13-2.41,1.68-5a9.59,9.59,0,0,0-3-2c9.22-2,13.49-7.81,21.91-17.4,5.06-5.77,10.14-10.43,14.21-12.94a10.45,10.45,0,0,1,4.42.15s-21.47,21.91-25.36,26,6-2.48,10.24-6.61S281.29,43.74,281.72,46.72Z" style="fill:#2b2b2b"/><path d="M246,74c-2.85,1.33-3.18,4.54-1.72,6.9s-1.62,2-3,5.58-2.78,3.93-.16,6.58.84,3.56,2.79,6c1.17,1.46-1.33,5.62-3.53,8.73l-1.11-.86c-.11-2.16-.24-4.13-1.2-5.26-2.29-2.71,2.1-4.15-.22-8s-1.3-3.49.17-4.34,3-3.48.34-7.59,2.7-4.53,3.13-7.11-1.09-3.09-3.11-4.87a3.41,3.41,0,0,1-1.07-2,38.09,38.09,0,0,0,7.42-.76h0a9.59,9.59,0,0,1,3,2C250.14,71.62,248.86,72.72,246,74Z" style="fill:#ccc4be"/><path d="M238.36,69.82a3.41,3.41,0,0,1-1.07-2c-1.84,0-3.86,0-6.08-.18,2.13,4.13,1.74,6.31-2.64,6.39-4.63.08-3.9.67-6.78-2.59s-4.41-2.88-8.07-2-2.76,3.44-2.13,7.78-1,3.22-5.59,4.49,1.19,6,4.27,7.37,5.9-.16,3.94-3.74,3.17-5.72,7.52-7.74,6.24,2.24,5.33,5.88-3.6,2.78-5.82,4,3.07,4.57,7.27,3.8,3.36,1.12,5.77,4.45.36,2.5-4.68-.28-7.91-1.58-11.74-.38-5.92,2.14-10.31,2.78-4.29-5.3-7-8.74-3.31-7.36,1.33-10.66,4.16-6.62.48-11,.95-12.49.95-12.49a95.62,95.62,0,0,0-16.86-11.35,15.23,15.23,0,0,1-6.49-1.42c-2.62-1.46-5.52,4.15-1,7.27s8.31,2.91-.89,11.49-19.32.68-25.12-2.53-7.73-.37-8.9,1.71-6.85,4.42-12.26,3.83-12.81-4.45-13.26-7.58,2.35-4.4,9.87-4.42,4.48-1.08,6-5.35,1.51-4.27-9.07-6.58-6.71-9-6.71-9c-4.65,0-9,.13-13.06.36-2.77.17-5.42.38-7.93.65C98,33,99.11,34.7,101.9,36.09c4.6,2.32,6.08,6.59,1.64,11.29s-8.14,7.15-5.82,12.79,3.36,8.47,9.62,6.07,12.88-5.38,16.57-2,1.83,5.4-1.12,6.33-6.52-3-10.31-1.21-8.92,4.5-13.52,1.54-6.1-8.93-9.33-7.61-3,2.79-1.38,6.6.94,8,9.45,9.3,8.23,6.7,5.47,8.27S98,90,100.88,95.12,102.42,116,96,118.66s-3.22,5.74-5.2,8.3c-1.68,2.17-8.32.88-10,6.26,7.69-.9,13.71-1.09,19.7-.19,3.14.48,6.94.9,10.76,1.26-.28,0-1.07-.2-1.07-.63s8.29-.2,10-1.45,8.37-2.45,12.13-1.76,5.24-.23,6.4-2.16,6.66-1.51,6.66-1.51,2.82-.3,3.7,1.23,1.32,1.36,3.9,1.51,5.5-.67,6.55,2.73c15.8-2.58,33.16-6.89,38.84-13.75,1.86-2.24,3.59-4.35,5.26-6.29h0c8.39-9.8,14.83-15.26,24.95-11.74,3,1,6.66,3.44,10.68,6.5-.11-2.16-.24-4.13-1.2-5.26-2.29-2.71,2.1-4.15-.22-8s-1.3-3.49.17-4.34,3-3.48.34-7.59,2.7-4.53,3.13-7.11S240.38,71.6,238.36,69.82ZM116.12,55.43c-.08,2.75-1.79,2-4.71,2s-4.11-2.12-2.74-4.38,3.58-1.19,4.06-1.12C114.32,52.11,116.2,52.68,116.12,55.43Zm39.87,30c2.68-1.4,3.54-4.3,1.33-7.34a5.81,5.81,0,0,1,.61-8c2-1.92,5.52,3.88,6.33,5.07s2.89,2.27-.24,6,2.13,6.94,2.13,6.94c2.73,1.21.34,1.24,2.47,3.79s4.86.43,10.14-2.9,3.79,5.21,2.12,7-10.81,1.41-15.42,2.72-9-2.37-11.58-5.35S153.32,86.81,156,85.41Zm-7.28,7c1.69,3-5.81,10.76-2.44,14.11s-2,4.13-.43,8.06-7.51,5.57-6.7,9c.74,3.1-13.2,12.55-31.76,0a56.65,56.65,0,0,1-5.69-4.45,29.4,29.4,0,0,0,6.67-23.42c-.14-1-.34-2-.59-3.06,0,0,31.12-36.84,39.52-27.5s-1.17,16.17,2.77,19.11S147,89.48,148.71,92.44Zm19.49,34.39c-1.81,1.54-4.23.3-7.76.22s-1.28-3-1.28-3c1.23-1.78,8.16-2.57,9-2.48S170,125.29,168.2,126.83Zm-2.64-14.23c-.65,1.69-2.18.85-4.59,1.94s-4.91-.77-5.78-3.1a5.91,5.91,0,0,1,1.45-6.93c2.32-2.36,4.24.56,6,1.69s4.43-.32,5.83-2.45,5.87,1.49,6.77,4-5,1.37-5,1.37C168.36,108.35,166.2,110.91,165.56,112.6ZM178.05,122c-5.24.66-1.88-1.21-.48-3.34s4.7.07,4.7.07c2,.86,3.36.36,3.5,1.3S183.29,121.33,178.05,122Zm7.2-12.13c-3.62.09-5,.29-7.33-1.71s-2.9-6.3.42-6.89,3.53,0,3.58,2,4.11,3.14,4.11,3.14C190.08,107.87,188.86,109.75,185.25,109.85ZM179.5,81.29c-8.9.38-5.08-4.11-4.46-7.18s8.06-3.31,8.87-7.48,6.21-6.23,10.34-4.19-1.16,6.7-1.25,11.94-2.81,4.14-7.12,5.83S179.5,81.29,179.5,81.29Zm16.19,26.08c-3.16.78-5.89-2.87-6.46-4.82s-.47-3.77,2.2-4.48,2,.58,2.07,3.22c.06,1.67,1.13.47,3,1s4.89-2.34,5.7.34S198.85,106.59,195.69,107.37Z" style="fill:#2b2b2b"/><path d="M211.59,77.18c.63,4.34-1,3.22-5.59,4.49s1.19,6,4.27,7.37,5.9-.16,3.94-3.74,3.17-5.72,7.52-7.74,6.24,2.24,5.33,5.88-3.6,2.78-5.82,4,3.07,4.57,7.27,3.8,3.36,1.12,5.77,4.45.36,2.5-4.68-.28-7.91-1.58-11.74-.38-5.92,2.14-10.31,2.78-4.29-5.3-7-8.74-3.31-7.36,1.33-10.66,4.16-6.62.48-11,.95-12.49.95-12.49a94.67,94.67,0,0,0,11.14,8.31,28.43,28.43,0,0,0,11.55,4c1.87.21,3.61.37,5.24.48,2.13,4.13,1.74,6.31-2.64,6.39-4.63.08-3.9.67-6.78-2.59s-4.41-2.88-8.07-2S211,72.84,211.59,77.18Z" style="fill:#ccc4be"/><path d="M123.91,64.21c-3.69-3.35-10.3-.38-16.57,2s-7.31-.44-9.62-6.07,1.38-8.09,5.82-12.79,3-9-1.64-11.29C99.11,34.7,98,33,97.58,32a131.47,131.47,0,0,0-16.5,2.71c2.11,5.75,9.74,5.47,13.81,3.08,5.3-3.11,7,5.81,3.52,9.51s-6,5.37-13.57,6.46-4.31,7-3,11.32-5.58,2.73-10.63-1.22-2.22-5,1-8.26,4.25-6.81-.07-13a5.68,5.68,0,0,1-1.11-5q-1.76.63-3.36,1.29c.34,2.35,2.27,4.54,2.87,5.81.93,2-1.22,4.87-4.47,6s-.61,6-4.55,3.9-4.58-.69-10.16.55c-2.86.63-4.26-.63-4.94-2-2.2,2.1-3.95,3.77-5.77,4.62a65.08,65.08,0,0,0-8.29,4.53,12.86,12.86,0,0,0,8.81.52c5.07-1.8,10.47-7.28,14-4.81s1.18,6.66,4.45,11.51,2.62,12.21,9,13.21,8-5.14,12.13-.13,4.43,9.88-1.24,12-9.69,2.27-8.21,6.63,1.76,6.24,6.48,7.91-.62,11.82.19,17.46a9.09,9.09,0,0,1-1.72,7.21c1.6-.23,3.13-.42,4.61-.6,1.64-5.38,8.28-4.09,10-6.26,2-2.56-1.25-5.66,5.2-8.3s7.77-18.41,4.9-23.54-.47-6.12,2.29-7.69,3-7-5.47-8.27-7.83-5.48-9.45-9.3-1.84-5.28,1.38-6.6,4.74,4.65,9.33,7.61,9.74.29,13.52-1.54,7.36,2.13,10.31,1.21S127.59,67.56,123.91,64.21ZM81.77,78c-3.58,2-9.34,2.64-13.54-2s-4.14-8.68-1.48-10.18,3.8,6.32,6.65,7.19,3.71.22,3.71.22c3.71.22,3.89-4,5-2.11S85.36,76,81.77,78ZM91,116.5c-2.68,2-4.38,1.12-4.59-3.22s.7-4.37-3.34-5.76-3.69-4.53-1.64-5.79,5,.39,6.5,1.92,3.16,6.17,3.16,6.17C92.3,112.79,93.67,114.51,91,116.5Zm1.66-33.27c2.08.66,8.35,2.38,5.67,4.91s-2.45,5.1,1,9,.49,5.57-1.12,7.73-5.47-2.41-10.53-4.23-2.86-5.35.09-8.18-3.22-9-1.46-10S92.64,83.23,92.64,83.23ZM92.26,60.8C90,59.69,88.34,60.25,86.07,63s-3.56,0-2.95-4.53,9.42-2.33,9.42-2.33C98.08,58.88,94.51,61.92,92.26,60.8Z" style="fill:#ccc4be"/><path d="M79.47,94.61c-5.67,2.1-9.69,2.27-8.21,6.63s1.76,6.24,6.48,7.91-.62,11.82.19,17.46a9.09,9.09,0,0,1-1.72,7.21c-5.15.72-11,1.68-18,2.81C37.85,139.89,3.11,96.39,2,95c2.61,2.58,7.2,4.36,10.43,5.25,5.56,1.54,2.61,4.74,9.9,5s8.89-.43,15.71,2.42c3,1.26,5.77,2.51,7.78,2.82-5.23,2.9-6.89,10.7-3.61,15.66s7.15,9.51,19.46,8.37,12.44-20,6.3-24.91-3.65-7.47-1.31-11.22-.93-6.37-5.4-12.94-5.18-2.59-9.63-4.57-4.18-11.16-7.48-6.52c-2.57,3.59-10.76,5.19-14.3,5.73h0c-4.74-1.26-8.26-1.9-9.62-4.18a11.9,11.9,0,0,0-3-3.25c5-1.15,7.63-2.23,9.48-5a19.22,19.22,0,0,1,5.63-5.39,12.86,12.86,0,0,0,8.81.52c5.07-1.8,10.47-7.28,14-4.81s1.18,6.66,4.45,11.51,2.62,12.21,9,13.21,8-5.14,12.13-.13S85.14,92.5,79.47,94.61Z" style="fill:#2b2b2b"/><path d="M48.06,101.07c-4-7.51-15.46-9-15.46-9S8.45,83,8.5,78.89s2.7-4.87,8.08-6.08l.65-.15a11.9,11.9,0,0,1,3,3.25c1.36,2.28,4.88,2.92,9.62,4.18h0a54.55,54.55,0,0,1,8.2,2.76C45.31,86,46.82,93.86,48.06,101.07Z" style="fill:#8d886c"/><path d="M45.85,110.48c-2-.31-4.77-1.56-7.78-2.82-6.82-2.85-8.43-2.19-15.71-2.42s-4.34-3.42-9.9-5C9.23,99.39,4.64,97.61,2,95a0,0,0,0,1,0,0s0,0,0,0H2C.14,93.15-.7,90.9.69,88.27,4,82,8.49,86.14,13.16,90.37S32.6,92,32.6,92s11.44,1.53,15.46,9h0c.24,1.43.48,2.82.74,4.16C49.7,109.75,48.37,110.87,45.85,110.48Z" style="fill:#827d63"/><path d="M66.05,50.73c-3.24,1.15-.61,6-4.55,3.9s-4.58-.69-10.16.55c-2.86.63-4.26-.63-4.94-2A63,63,0,0,1,67.65,38.9c.34,2.35,2.27,4.54,2.87,5.81C71.45,46.71,69.3,49.58,66.05,50.73Z" style="fill:#2b2b2b"/><path d="M98.41,47.26c-3.52,3.7-6,5.37-13.57,6.46s-4.31,7-3,11.32-5.58,2.73-10.63-1.22-2.22-5,1-8.26,4.25-6.81-.07-13a5.68,5.68,0,0,1-1.11-5,90.2,90.2,0,0,1,10.07-2.94c2.11,5.75,9.74,5.47,13.81,3.08C100.19,34.64,101.92,43.56,98.41,47.26Z" style="fill:#2b2b2b"/><path d="M267.15,96.19c-.21,16.19,2.24,20.91,5.17,25.7,2.15,3.51,1.45,8.06-4.36,8-5-3.19-11-8.19-16.91-13.21h0c-.61-2.12.39-2.35,4.7,1.85,7,6.83,11.4,5.23,9.76,2.75s-12.1-11.68-11.23-13.57,9.81,11.53,11.48,6.49-4.53-12.46-6.24-14.33S256.24,96,259.25,98s3.54,2.36,4.9-1.51.21-5.15-3.49-7.5-2-1.63,2.77-1.84,4.36-4.15-1.2-6.06,4.63-2.28,5.72-3.57.65-3.28-4.5-3.49-4.26-2.9,2.3-2.84S274,67,276,62.58s-4.26-.66-11.27,4S259.22,68.06,267,63s15.18-13.3,14.75-16.28-7.38,5.39-11.58,9.52S256,66.93,259.9,62.85s25.36-26,25.36-26a1.83,1.83,0,0,1,1.06.81C287.64,40.1,283.61,52,279.8,60S267.36,80,267.15,96.19Z" style="fill:#ccc4be"/><path d="M159.51,132.25c-11.81,1.94-22.75,2.92-27.28,3.27l-2.21.16s-9.34-.51-18.63-1.38h-.11c-.28,0-1.07-.2-1.07-.63s8.29-.2,10-1.45,8.37-2.45,12.13-1.76,5.24-.23,6.4-2.16,6.66-1.51,6.66-1.51,2.82-.3,3.7,1.23,1.32,1.36,3.9,1.51S158.46,128.85,159.51,132.25Z" style="fill:#ccc4be"/><path d="M246.49,3.57c-2.07,6.28,1.16,7.94-2.34,11s2.62,5.59.18,9.78,3.3,4.64-.87,8.24,1.74,6.14-3.92,15.29-25.12,15.3-25.12,15.3a94.67,94.67,0,0,1-11.14-8.31,95.62,95.62,0,0,0-16.86-11.35c-11.76-6.08-28.74-11.23-56.54-12.35-4-.16-7.72-.24-11.31-.23-4.65,0-9,.13-13.06.36,3.52-5.65,9.76-10.23,17.41-13.59-1.59,2.79-5.24,5.65-8.8,8.5-5.55,4.43,4.92,1.62,8,2.05s3.36-4.77,8.14-9.3,4.71-2.18,3.22,2.52-5.18,5.23,2.58,5.81,1.9-4.54,3-8.11,5.36-3.55,8.27-4.89,4.84.42,4.29,2-3.83,2.05-8.38,3.56,1.5,5.33,4.07,6.92,5.91,1,4.81-.7,2.61-5.54,4.89-8.43-2.15-3.53,2.41-5-.43,8-2.81,10.65.25,4.65,3.35,6.85,6.55,1.09,3.77-2.13-5.57-5.81,1.57-7.06,8.61-4.88,11.08-7.16S178,19.29,170,21.3s-2.78,4.88,1,7.21,6.83-3,13.09-6.05,8.58-4.88,10.36-8.76,5.47-.58,5.18,3.31-2.68,3.58-13.79,9.34,1.29,8.89,5.23,5.22,5.69-2,10.24-1.49S210.42,24,211.4,17.46s-.65-5.92,4.81-9.49,1.55,3.4,2.16,7.58-1.72,4.3-5.08,10.55-4.37,8.1-11.4,8.13-11.71,4.62-9.5,6.61,9.31,6.78,11.21,3.72,9.37-.07,12.66-1,7.39-4.91,4.43-9.17,3.35-6.25,5-10.11.71-11-.4-14.24,3.67-2.67,4.12-1,.32,6.56.16,9.57-.36,6.67-2.57,10-1.89,6.69-.64,10.85S221.2,49.7,215,54s8.45.9,13.89-2a14.5,14.5,0,0,0,7.85-11.38c.51-3.91.15-7.7,1.87-9.23s3.16-4.51.55-9,1.09-8.9-.42-14.87c-1.11-4.38,4.34-6.49,7.31-7.3h0C246.91.53,247.17,1.53,246.49,3.57Z" style="fill:#262626"/><path d="M238.74,7.47c1.51,6-2.19,10.34.42,14.87s1.18,7.51-.55,9-1.36,5.32-1.87,9.23A14.5,14.5,0,0,1,228.89,52c-5.44,2.92-20.09,6.33-13.89,2s12.56-10.43,11.32-14.58-1.57-7.55.64-10.85,2.42-6.95,2.57-10,.29-7.93-.16-9.57-5.23-2.23-4.12,1,2,10.37.4,14.24-7.93,5.84-5,10.11-1.15,8.26-4.43,9.17-10.76-2.09-12.66,1-9-1.72-11.21-3.72,2.46-6.58,9.5-6.61,8-1.88,11.4-8.13,5.69-6.37,5.08-10.55S221.66,4.41,216.21,8s-3.84,3-4.81,9.49-5.57,13.12-10.12,12.62S195,27.89,191,31.57s-16.34.55-5.23-5.22S199.31,20.9,199.6,17s-3.39-7.2-5.18-3.31-4.1,5.71-10.36,8.76-9.35,8.38-13.09,6.05-8.9-5.19-1-7.21,8.8-9.82,6.32-7.54-3.94,5.91-11.08,7.16-4.35,3.83-1.57,7.06-.68,4.35-3.77,2.13-5.72-4.15-3.35-6.85,7.36-12.17,2.81-10.65-.13,2.14-2.41,5-6,6.72-4.89,8.43-2.23,2.29-4.81.7-8.63-5.4-4.07-6.92,7.82-2,8.38-3.56-1.38-3.33-4.29-2-7.2,1.32-8.27,4.89,4.79,8.69-3,8.11-4.05-1.12-2.58-5.81,1.55-7-3.22-2.52-5.09,9.72-8.14,9.3-13.52,2.38-8-2.05c3.56-2.85,7.21-5.71,8.8-8.5h0c12-5.29,27.36-7.62,41.05-6.61C186.4,12.77,202,5.77,206,5s7,0,9.83-1.27,6.58,1.19,9.87-1,4.71,1.45,10.43-.24c3.86-1.13,8.18-3.11,10-2.35C243.08,1,237.63,3.09,238.74,7.47Z" style="fill:#ccc4be"/><path d="M215.9,120.38c-3-3-2.28-5.37-1.42-9.72a6.13,6.13,0,0,1,.55-1.6,21.3,21.3,0,0,0-3.26.33h0a3.16,3.16,0,0,0-.42,1.72c.15,4-4.63,10.55-7.45,11s-8.32,2.34-9,5-1.74,2.7-7,7.36-13.62,7.57-17.54,4.09-13.17-4.27-15.12-1.43-10.33,8.33-13.8,5a5.38,5.38,0,0,0-5.49-.88c4.6,4.76,11.62,6.83,18.11,7.48a51.61,51.61,0,0,0,5.18-8.11c1.26-2.32,7.75-.28,10.62,1.44s9.31-.08,13.76.17,5.76-.45,7.83-3.79,7.74-2.56,9.24-1.71,7.6-1.32,11.78-4.91S218.9,123.41,215.9,120.38Zm-2.61,1.5c.17,2.32,1.07,4.06-2.42,6.53s-3.29,1.55-4.38,3.36-6.27,1.5-10.58,1.54,1.45-6.55,1.45-6.55c1.44-1.87,4.32-1.06,6.26-.91s3.61-1.6,5.9-3.43S213.11,119.56,213.29,121.88Z" style="fill:#ccc4be"/><path d="M223.27,119c1.42,4.28,3.09,10.28-1.4,13.49s-5.81,4-8.38,7.3-14.2,2.8-16.31,7.38c-2.11-.74-4.16-2.08-4.75-2.23,1.44-2.38,5-2.5,6.34-3.17,1.81-.91,9.31-.71,12.39-4.84s7-6,9-7.49,1.52-7.16-.17-11.07c-1.09-2.52,1.32-5.65,3.18-7.55a14.8,14.8,0,0,1,2.53,1.68C224.14,114.1,222.44,116.52,223.27,119Z" style="fill:#ccc4be"/><path d="M249.23,140.23c-3,1.08-8.06-.43-11.67-3.26S230.15,130,226,131.28s-.76.27,5.5,4.8,9.52,6.78,12.06,6.89-4.54,3.06-8.26,2.8-5.3-1.15-9.75-4.34-3.74-2.66-2.32.5,3.57,5.88-.71,5.06-6.25-.27-6.08-3.39c.17-2.88-2-4-2.64,4.27-8.9-1.26-9.88-2.56-12.37-.7-1.08.81-2.69.58-4.26,0,2.12-4.58,13.75-4.13,16.31-7.38s3.89-4.08,8.38-7.3,2.82-9.2,1.4-13.49c-.83-2.51.87-4.93,2.42-6.5q.66.54,1.29,1.17c9.38,9.52,13.68,10.5,11.8,13a.08.08,0,0,0,0,0,11.32,11.32,0,0,1-2.39-1.26c-5-3.47-11.32-6.32-8.77-3.12s4.67,5.76,7.9,7.06,4.13,4.19,8.59,6.27S252.27,139.15,249.23,140.23Z" style="fill:#262626"/><path d="M223.12,148.82c-3.83-.27-6.87-.61-9.31-.95.63-8.28,2.81-7.15,2.64-4.27-.17,3.12,1.8,2.57,6.08,3.39s2.13-1.91.71-5.06-2.14-3.69,2.32-.5,6,4.08,9.75,4.34,10.81-2.69,8.26-2.8-5.8-2.36-12.06-6.89-9.64-3.56-5.5-4.8,7.93,2.85,11.55,5.69,8.63,4.34,11.67,3.26-.68-2.46-5.14-4.53-5.36-5-8.59-6.27-5.36-3.87-7.9-7.06,3.78-.35,8.77,3.12a11.32,11.32,0,0,0,2.39,1.26c-1.75,2.46,7,1.53,5.81,4.56s8.75,5.13,11.49,8.57S240.9,150.08,223.12,148.82Z" style="fill:#ccc4be"/><path d="M220,118.4c1.69,3.91,2.19,9.55.17,11.07s-5.91,3.36-9,7.49-10.58,3.93-12.39,4.84c-1.34.67-4.9.79-6.34,3.17-.19-.05-.23,0-.12.21a2,2,0,0,0,.26.39c.39.52.08.71-.65.7-3,0-12.7-3.17-10.54-.67,2.69,3.13-3.68,1.16-4.48,2.25s-6.86-3.16-6.54-1c.16,1.1-7.63,2.74-16.33,1.85a51.12,51.12,0,0,0,5.18-8.12c1.26-2.32,7.75-.27,10.62,1.44s9.31-.07,13.76.18,5.76-.45,7.83-3.79,7.74-2.57,9.24-1.72,7.6-1.31,11.78-4.91,6.46-8.4,3.46-11.43-2.28-5.38-1.42-9.73a6.05,6.05,0,0,1,.55-1.59,16.2,16.2,0,0,1,8.13,1.79C221.3,112.75,218.89,115.88,220,118.4Z" style="fill:#262626"/><path d="M131.22,88.15c11.07-4.59,16.59-3.26,1.62,2.32s-32.1,8.09-15.15,7.33,29.64-1.53,21.29-.32-21.62,1.85-12,3.66,21.83,3.77,13.58,4.27-31.43-4-24.48-1.4,30.05,7.43,21.64,6.8-10.65-1.39-17.23-1.17-4.56,2.41,3.87,4.64,15.6,6,10.93,6.21-23.41-8.55-24.4-5.78,11,7.52,16.49,8.6,2.79,4.55-6.89,1-15.65-6.83-13.1-.75a56.65,56.65,0,0,1-5.69-4.45,29.4,29.4,0,0,0,6.67-23.42c2.18-1.93,19.9-17.55,29.79-23,10.55-5.8-14,13.48-18.84,17.17S120.15,92.74,131.22,88.15Z" style="fill:#262626"/><path d="M150.06,84.24c3.95,3-3,5.24-1.35,8.2s-5.81,10.76-2.44,14.11-2,4.13-.43,8.06-7.51,5.57-6.7,9c.74,3.1-13.2,12.55-31.76,0-2.55-6.08,3.41-2.79,13.1.75s12.38.08,6.89-1-17.48-5.82-16.49-8.6,19.73,6,24.4,5.78-2.5-4-10.93-6.21-10.45-4.42-3.87-4.64,8.82.55,17.23,1.17S123,106.62,116.07,104s16.24,1.9,24.48,1.4-4-2.46-13.58-4.27,3.65-2.45,12-3.66-4.34-.44-21.29.32.18-1.73,15.15-7.33,9.45-6.91-1.62-2.32-16.71,5.42-11.91,1.73,29.39-23,18.84-17.17c-9.89,5.43-27.61,21.05-29.79,23-.14-1-.34-2-.59-3.06,0,0,31.12-36.84,39.52-27.5S146.12,81.3,150.06,84.24Z" style="fill:#8d886c"/><path d="M99.31,97.17c3.45,3.93.49,5.57-1.12,7.73s-5.47-2.41-10.53-4.23-2.86-5.35.09-8.18-3.22-9-1.46-10,6.35.76,6.35.76c2.08.66,8.35,2.38,5.67,4.91S95.86,93.24,99.31,97.17Z" style="fill:#2b2b2b"/><path d="M92.26,60.8C90,59.69,88.34,60.25,86.07,63s-3.56,0-2.95-4.53,9.42-2.33,9.42-2.33C98.08,58.88,94.51,61.92,92.26,60.8Z" style="fill:#2b2b2b"/><path d="M81.77,78c-3.58,2-9.34,2.64-13.54-2s-4.14-8.68-1.48-10.18,3.8,6.32,6.65,7.19,3.71.22,3.71.22c3.71.22,3.89-4,5-2.11S85.36,76,81.77,78Z" style="fill:#2b2b2b"/><path d="M178.92,49.38c-4.51-3.12-1.61-8.73,1-7.27a15.23,15.23,0,0,0,6.49,1.42c-11.76-6.08-28.74-11.23-56.54-12.35-4-.16-7.72-.24-11.31-.23,0,0-3.86,6.7,6.71,9s10.58,2.31,9.07,6.58,1.54,5.32-6,5.35S118,53.17,118.49,56.3s7.84,7,13.26,7.58,11.09-1.74,12.26-3.83,3.1-4.93,8.9-1.71S168.82,69.47,178,60.87,183.42,52.52,178.92,49.38Zm-3.39,6.1c-1.66.24-8.25,3.33-11.06,1.6s-5.63-4.94-13.13-3.69-8.16,2.52-10.46-1.55.6-4.64,3.9-7.81-6.66-3.81-11.61-4.17-6.49-3.52-3.75-5.2,13.12,6.63,17.47,4.29,13.22,2.86,13.22,2.86c3.56,1.75,5.88,2.25,6.69,4.91s.55,3.76,6.06,3.54S177.21,55.23,175.53,55.48Z" style="fill:#ccc4be"/><path d="M175.53,55.48c-1.66.24-8.25,3.33-11.06,1.6s-5.63-4.94-13.13-3.69-8.16,2.52-10.46-1.55.6-4.64,3.9-7.81-6.66-3.81-11.61-4.17-6.49-3.52-3.75-5.2,13.12,6.63,17.47,4.29,13.22,2.86,13.22,2.86c3.56,1.75,5.88,2.25,6.69,4.91s.55,3.76,6.06,3.54S177.21,55.23,175.53,55.48Z" style="fill:#2b2b2b"/><path d="M194.25,62.44c-4.13-2-9.52,0-10.34,4.19S175.66,71,175,74.11s-4.44,7.56,4.46,7.18c0,0,2.08.61,6.38-1.08s7-.59,7.12-5.83S198.39,64.48,194.25,62.44ZM190,68.36a4.62,4.62,0,0,1-3.71,4.38c-2.8,1.7,0,4.32-3.82,5.67s-6.41-2.27-2.55-4.75,5.71-3.23,6.6-5.92S190.1,64.67,190,68.36Z" style="fill:#ccc4be"/><path d="M190,68.36a4.62,4.62,0,0,1-3.71,4.38c-2.8,1.7,0,4.32-3.82,5.67s-6.41-2.27-2.55-4.75,5.71-3.23,6.6-5.92S190.1,64.67,190,68.36Z" style="fill:#ccc4be"/><path d="M180.88,96.08c-1.68,1.85-10.81,1.41-15.42,2.72s-9-2.37-11.58-5.35-.56-6.64,2.11-8,3.54-4.3,1.33-7.34a5.81,5.81,0,0,1,.61-8c2-1.92,5.52,3.88,6.33,5.07s2.89,2.27-.24,6,2.13,6.94,2.13,6.94c2.73,1.21.34,1.24,2.47,3.79s4.86.43,10.14-2.9S182.55,94.24,180.88,96.08Z" style="fill:#ccc4be"/><path d="M170.25,109.15c-1.89-.8-4.05,1.76-4.69,3.45s-2.18.85-4.59,1.94-4.91-.77-5.78-3.1a5.91,5.91,0,0,1,1.45-6.93c2.32-2.36,4.24.56,6,1.69s4.43-.32,5.83-2.45,5.87,1.49,6.77,4S170.25,109.15,170.25,109.15Z" style="fill:#ccc4be"/><path d="M185.25,109.85c-3.62.09-5,.29-7.33-1.71s-2.9-6.3.42-6.89,3.53,0,3.58,2,4.11,3.14,4.11,3.14C190.08,107.87,188.86,109.75,185.25,109.85Z" style="fill:#ccc4be"/><path d="M195.69,107.37c-3.16.78-5.89-2.87-6.46-4.82s-.47-3.77,2.2-4.48,2,.58,2.07,3.22c.06,1.67,1.13.47,3,1s4.89-2.34,5.7.34S198.85,106.59,195.69,107.37Z" style="fill:#ccc4be"/><path d="M185.77,120c.13.94-2.48,1.32-7.72,2s-1.88-1.21-.48-3.34,4.7.07,4.7.07C184.24,119.57,185.63,119.07,185.77,120Z" style="fill:#ccc4be"/><path d="M168.2,126.83c-1.81,1.54-4.23.3-7.76.22s-1.28-3-1.28-3c1.23-1.78,8.16-2.57,9-2.48S170,125.29,168.2,126.83Z" style="fill:#ccc4be"/><path d="M54.39,120.43a4.24,4.24,0,0,0,.85.84c1.49,1.15,3.42,3.09,1.45,4.8-1.18,1-4.64,0-7.56-2.39s-.92-7.89.82-9.65,4.89-3.91,6.42-2.19,1.08,3-1,4.82C53.76,118,53.52,119.27,54.39,120.43Z" style="fill:#2b2b2b"/><path d="M61.76,100.8c-1.31,2-.22,4-2.06,5.69s-4-.87-6.24-2.66,5.21-4.44,5.21-4.44C61.13,98.36,63.07,98.8,61.76,100.8Z" style="fill:#2b2b2b"/><path d="M58.53,92.9c-1.32.83-3.33,2.4-6.07.08s1.94-3.21,2.7-3.43C57.35,88.91,59.85,92.07,58.53,92.9Z" style="fill:#2b2b2b"/><path d="M68,109.6c-6.15-4.86-3.65-7.47-1.31-11.22s-.93-6.37-5.4-12.94-5.18-2.59-9.63-4.57-4.18-11.16-7.48-6.52c-2.57,3.59-10.76,5.19-14.3,5.73a54.55,54.55,0,0,1,8.2,2.76c7.23,3.17,8.74,11,10,18.23h0c.24,1.43.48,2.82.74,4.16.9,4.51-.43,5.63-2.95,5.24-5.23,2.9-6.89,10.7-3.61,15.66s7.15,9.51,19.46,8.37S74.14,114.47,68,109.6Zm-12.84-20c2.19-.64,4.69,2.52,3.37,3.35s-3.33,2.4-6.07.08S54.4,89.77,55.16,89.55Zm.17,27.11c-1.57,1.31-1.81,2.61-.94,3.77a4.24,4.24,0,0,0,.85.84c1.49,1.15,3.42,3.09,1.45,4.8-1.18,1-4.64,0-7.56-2.39s-.92-7.89.82-9.65,4.89-3.91,6.42-2.19S57.45,114.86,55.33,116.66Zm-1.87-12.83c-2.28-1.79,5.21-4.44,5.21-4.44,2.46-1,4.4-.59,3.09,1.41s-.22,4-2.06,5.69S55.74,105.62,53.46,103.83Zm9.81,22.8c-2.79.58-2.94-3.75-1.81-4.74s5.55.72,5.55.72C70.27,123.53,66.06,126,63.27,126.63Z" style="fill:#ccc4be"/><path d="M63.27,126.63c-2.79.58-2.94-3.75-1.81-4.74s5.55.72,5.55.72C70.27,123.53,66.06,126,63.27,126.63Z" style="fill:#2b2b2b"/><path d="M91,116.5c-2.68,2-4.38,1.12-4.59-3.22s.7-4.37-3.34-5.76-3.69-4.53-1.64-5.79,5,.39,6.5,1.92,3.16,6.17,3.16,6.17C92.3,112.79,93.67,114.51,91,116.5Z" style="fill:#2b2b2b"/><path d="M116.12,55.43c-.08,2.75-1.79,2-4.71,2s-4.11-2.12-2.74-4.38,3.58-1.19,4.06-1.12C114.32,52.11,116.2,52.68,116.12,55.43Z" style="fill:#ccc4be"/><path d="M211.77,109.39a3.16,3.16,0,0,0-.42,1.72c.15,4-4.63,10.55-7.45,11s-8.32,2.34-9,5-1.74,2.7-7,7.36-13.62,7.57-17.54,4.09-13.17-4.27-15.12-1.43-10.33,8.33-13.8,5a5.38,5.38,0,0,0-5.49-.88,17.56,17.56,0,0,1-3.69-5.73c4.53-.35,15.47-1.33,27.28-3.27,15.8-2.58,33.16-6.89,38.84-13.75,1.86-2.24,3.59-4.35,5.26-6.29h0A28,28,0,0,1,211.77,109.39Z" style="fill:#262626"/><path d="M213.29,121.88c.17,2.32,1.07,4.06-2.42,6.53s-3.29,1.55-4.38,3.36-6.27,1.5-10.58,1.54,1.45-6.55,1.45-6.55c1.44-1.87,4.32-1.06,6.26-.91s3.61-1.6,5.9-3.43S213.11,119.56,213.29,121.88Z" style="fill:#262626"/><circle cx="58.06" cy="71.26" r="8.47" transform="translate(-22.92 114.75) rotate(-79.07)" style="fill:#6d6750"/><path d="M52.07,72.45A6.1,6.1,0,1,1,59,77.61,6.11,6.11,0,0,1,52.07,72.45Z" style="fill:#c09f6b"/><path d="M53.93,73.14a4.36,4.36,0,1,1,4.94,3.68A4.37,4.37,0,0,1,53.93,73.14Z" style="fill:#262626"/><path d="M59.06,70.13a2.11,2.11,0,1,1,2.4,1.78A2.1,2.1,0,0,1,59.06,70.13Z" style="fill:#eae3dd"/></g></g></svg>