<svg xmlns="http://www.w3.org/2000/svg" viewBox="0 0 656.46 247.58"><title>knifefish</title><g id="Layer_2" data-name="Layer 2"><g id="Ñëîé_2" data-name="Ñëîé 2"><path d="M621.52,74.62l-.11.13c-2.07,2.8-38.14,49.35-130.39,40.85-95.1-8.77-265.16-71.45-338.35-29.37l-2.17,1.09a156,156,0,0,0,10.17,19.55c8.87,13.77,1.31,44,0,48.94,0,0,4.77,2,10.4,4.87a76.54,76.54,0,0,1,23.68-1.37c1.81-10.63,9.21-11.28,31.55-10.6s47.34,15.09,70.56,17.5,39.44,18.32,39.44,18.32c16.23,15.89-27.61,16.09-77.57,19.6s-53.36-7.23-53.36-7.23c-1.14.51-2.54,1.17-3.93,1.75,1.07,2.13,2,3.93,2.62,5.15,1.79,3.39,8.06,7.06,12.71,9.42,71.74,1.4,184.86-4.4,288.06-38.12,0,0,97-21.59,116.69-83.06C621.52,92,624.48,82.84,621.52,74.62ZM226.3,116.23c-27.61-8.14-40.76-16.41-21.48-23.86s85,7.89,85,7.89,19.29,3.06,13.58,11.83S253.92,124.36,226.3,116.23ZM325.51,157c-8.05,7.08-20.21,5-23.5-6.4s6.91-27.78,20.05-26.3,11.18,15.45,11.18,15.45S333.57,149.89,325.51,157Zm55.68-4.39c-1,4.16-3.38,7.81-5.6,11.42-.33.53-.66,1.07-1,1.6a18.42,18.42,0,0,1-20.93,8c-7.35-2.06-13.75-7.91-13.52-16,.23-7.65,4.74-15,9.54-20.66,9-10.67,29.42-10.83,32,3.78A28.67,28.67,0,0,1,381.19,152.56ZM421.58,170c-10.9,10.8-28.46,8.81-34.15-7.13s7.45-40.29,26.37-39.32,17.32,21.11,17.32,21.11S432.48,159.16,421.58,170ZM479,147.62c-1.11,4.18-3.61,7.86-6,11.49-.37.54-.71,1.08-1.07,1.6-4.8,7.22-13.75,10.34-22.42,8-7.86-2.08-14.72-8-14.47-16.12.25-7.69,5.07-15.07,10.21-20.77,9.68-10.76,31.49-10.93,34.22,3.78A27.34,27.34,0,0,1,479,147.62Zm25.17,12.77c-.7,4.47-5.4,5.91-9.28,6.4a10.75,10.75,0,0,1-2.19,0c-5.87-.55-9.65-7.86-7.4-13.19,1.38-3.25,4.84-4.84,8.13-5.39C500.29,147.08,505.31,153.27,504.21,160.39ZM533,136.6c-.86,3.48-2.82,6.55-4.69,9.56-.28.45-.55.91-.83,1.34A15.49,15.49,0,0,1,510,154.21c-6.16-1.74-11.52-6.64-11.33-13.43.19-6.41,4-12.56,8-17.32,7.57-8.95,24.65-9.08,26.78,3.17A24,24,0,0,1,533,136.6ZM572,133.69c-.12.41-.22.82-.34,1.23a12.4,12.4,0,0,1-12.08,8.9c-5.12,0-10.3-2.64-11.6-7.92-1.22-5,.38-10.5,2.46-15,3.91-8.52,17-12.27,21.3-3.31a19.54,19.54,0,0,1,1.84,7.76A27.2,27.2,0,0,1,572,133.69ZM603.06,114a9,9,0,0,1-.93,1.77c-3,4.51-10.63,4.31-13.93.13-2-2.55-1.76-6-.76-9,2.09-6,9.32-7.34,14.58-3.29C605.31,106.2,604.39,110.63,603.06,114Z" style="fill:#afb8bc"/><path d="M216.77,213.22c-5.94-.12-11.6-.28-16.93-.49-25.52-1-43.91-2.81-52-4.22-30.24-5.26-57.2-7.19-57.2-7.19-4.85.42-9.57.59-14.13.54,36.17-3.91,43.07-22.67,43.07-22.67,4.88-.17,15.48-6,22.62-13.87l0,0c5.17-4.86,18.44-9.48,18.44-9.48s4.77,2,10.4,4.87a63.44,63.44,0,0,0-26.18,12.41s7.34,8.77,7.78,17.43c0,0,5.8,2.08,12.24,4.26,6,2,12.48,4.12,15.48,4.75,6.25,1.31,3.29-1.64,7.56,0s5.92-.29,7.89.34c1.21.4,3.4-.31,5.6-1.22,1.07,2.13,2,3.93,2.62,5.15C205.85,207.19,212.12,210.86,216.77,213.22Z" style="fill:#a1aaad"/><path d="M258.73,204.13c-50,3.51-53.36-7.23-53.36-7.23,3-1.32,9.86-12.37,9.86-12.37l-12.82-3.74s14.12,2.3,15.78.66-.33-3.91,1.32-5.4.33-6.93,1.31-9c.28-.57-2.88-2.38-8.3-4.16h0a81.09,81.09,0,0,0-17.74-3.59c1.81-10.63,9.21-11.28,31.55-10.6s47.34,15.09,70.56,17.5,39.44,18.32,39.44,18.32C352.53,200.42,308.69,200.62,258.73,204.13Z" style="fill:#c4ccce"/><path d="M621.41,74.75c-2.07,2.8-38.14,49.35-130.39,40.85-95.1-8.77-265.16-71.45-338.35-29.37l-2.17,1.09c-4.76-10.61-8.29-20.18-8.29-20.18,24.08-16.06,55.21-28.89,95.7-29.67,87.11-1.64,153.18,35.18,200.52,46S541.27,108.36,578.92,94.3h0C608.83,89.5,620.22,76.25,621.41,74.75Z" style="fill:#8b9eae"/><path d="M578.92,94.3c-37.65,14.06-93.17,0-140.49-10.81S325,35.83,237.91,37.47c-40.49.78-71.62,13.61-95.7,29.67-27.72,18.47-46.11,41.2-58.75,54.67-13.94,14.84-28.22,18.39-37.58,18.81,12.3-9.94,25.9-25.1,39-48.62,33.87-60.81,138.57-61.57,138.57-61.57,54.17-1.78,103.74,8.18,139.12,18.21,10.51,3,19.77,6,27.51,8.64h0c6.82,2.35,12.46,4.48,16.78,6.16C432.73,73.53,486.09,92,544.6,95.66A156.22,156.22,0,0,0,578.92,94.3Z" style="fill:#7d919e"/><path d="M160.67,106.87A156,156,0,0,1,150.5,87.32c-4.76-10.61-8.29-20.18-8.29-20.18-27.72,18.47-46.11,41.2-58.75,54.67-13.94,14.84-28.22,18.39-37.58,18.81C26.4,156.4,10.25,159,4.82,160.9c-8.85,3.09-3.46,11.94,0,15.4s-.76,3.85,3.47,7.7c3.77,3.43,31,17.54,68.23,17.86,36.17-3.91,43.07-22.67,43.07-22.67-3.85.14-4.11-3.26,3.79-12,21.55-23.87-1-53.9-2.58-57.49-1.21-2.82.2-3.22,2.43-2.58a35.16,35.16,0,0,1,9.5,5.16c4.32,4,7.6,9.11,10.49,14.21,4.85,8.6,8.68,19.66,5.05,29.4a30.21,30.21,0,0,1-6,9.39c5.17-4.86,18.44-9.48,18.44-9.48C162,150.88,169.54,120.64,160.67,106.87Zm-119,72.71a61.86,61.86,0,0,0-10-.39,14.81,14.81,0,0,1-10-3.14c-2.32-2-3.3-4.13-6.43-6.11s3.34-1.93,3.94-7.88a4,4,0,0,1,3.29-4c3.46-.79,14.3-6.57,15.62-5s2.47,7.87,5.42,9.82,3.45,3.09,3.45,8.19S46,180,41.67,179.58Zm68.61-14.18c-3.59,21.81-42.59,38.23-42.34,22.06,0,0,.78-20.79-9.49-30.53s17.45-19,26.43-24.13S113.89,143.58,110.28,165.4Z" style="fill:#c4ccce"/><path d="M110.28,165.4c-3.59,21.81-42.59,38.23-42.34,22.06,0,0,.78-20.79-9.49-30.53s17.45-19,26.43-24.13S113.89,143.58,110.28,165.4Z" style="fill:#ccd4d6"/><path d="M148.27,155.9a30.21,30.21,0,0,1-6,9.39l0,0c-7.14,7.87-17.74,13.7-22.62,13.87-3.85.14-4.11-3.26,3.79-12,21.55-23.87-1-53.9-2.58-57.49-1.21-2.82.2-3.22,2.43-2.58a35.16,35.16,0,0,1,9.5,5.16c4.32,4,7.6,9.11,10.49,14.21C148.07,135.1,151.9,146.16,148.27,155.9Z" style="fill:#959da0"/><path d="M652.31,105.52c-5.48,7.89-7,12.27-7.45,17.31s-4.06,9-5.87,9.64-.48,4.6-2.24,5.26-3.29-.22-3.73,2-4.82,4-5,7.67-1.54,3.94-5.16,4.82-3.39.23-6.46,3.29-3.07,1.54-5.26,4.38-4.38,1.54-4.82,4.6-5.48,6.14-5.48,6.14-7,.23-9.64,2.86-2.85,8.54-8.77,7.23-7.89-1.32-9.2-1.11.22,2-.88,3.51.22,0-4,2.41-2-.21-6.12,3.51-8.12,1.54-11,5.26-5.26,4.6-8.1,6.14-14.69.76-16,3.39-7.89,1.32-10.19,4.6-8.22,3.09-9.2,5-.33-1.91-5.26,0-4.61,1.83-11.18.55-12.82-.62-15.45,3-8.87,4-11.18,4-8.21-2.63-10.84,0-3.95,1.64-6.91,3.28-9.86-.66-12.16,2.3-11.17-.65-14.79,0-8.55-1.25-12.49,1.19-5.92,1.44-12.49,3.09-15.45,0-15.45,0-9.53,0-11.51,2.3S357.24,237,354.28,238s-3-1.65-7.56,0-10.19-1.84-11.84.22-9.4,2.41-11.93,2.08-11.65-1.42-11.54.1-7.75.23-8.08,2.2-4.6.66-7.56,2.3-6.25-.33-10.52,1.64-7.23.66-15.78,0-26.3-5.91-27.94-6.9-1.64,4.27-1.64,4.27-15.43-.89-28.67-16.19c0,0,12.89,7,14.2,7s10.52,3.62,12.82.66,6.91,3.61,7.89,3.29,10.82,5.58,14.47,2.1,10.19,2.5,12.81,0,6.91,1.51,9.87-.79,5.91,2.63,8.21,0,11.84,2.63,16.11-2.3,21.37-2.3,21.37-2.3,11.5.33,16.1-1.65,8.88.33,10.85-2.62,7.89-1,11.51-2.63,9.86,1,12.82,0,5.26,1.31,9.2-1.65,11.18-.66,15.45-5.26,19.06,3.29,20.71.66,13.49,2.67,16.1,0,4.28.33,5.59-2.63,15.45-1.31,16.11-6.18,18.54.25,19.07-2,14.46-1.31,16.43-5.26,11.51-.33,13.48-2.63,9.53-2.63,11.83-5.26,7.89,1.32,11.83-3.61,9.21-1,12.5-4.6,5.26-3.29,7.88-5.92,13.15-3.29,13.48-7.89,12.16.33,11.18-3.62,11.83-3.28,12.49-6.9,3.29-2,5.26-5.26,4.93-1.64,8.87-5.59,5.26-2.63,6.58-5.26,3-2.3,4.6-4.93,6.9-1,7.56-3.61,1.64-.66,1.64-3.29,3,0,5.92-5.92c.84-1.67,1.2-2.39,1.34-2.68l0,0a.08.08,0,0,1,0,0,.41.41,0,0,1,0-.09l.88-1.75c2.3-4.6.33-2.3,3.29-7.89s1.64-3.61,2-5.26,2-8.21,3.42-13.14,5.13-4.94,6.77-9.54-.66-4.93-4.47-10.52-2.1-6.57-.46-13.8a16.3,16.3,0,0,0-.09-8.06c5.68-1.32,5.13.81,5.13,4.44,0,4.6-2.38,7.89,0,8.55s-.22,3.94,2,5.92.45,3.51.88,5.26-1.68,4.37.25,5.91S657.78,97.63,652.31,105.52Z" style="fill:#dce2e6"/><path d="M651.76,91.39a9.23,9.23,0,0,1-2.54,3.78,20.21,20.21,0,0,0-3,3.15,9.53,9.53,0,0,0-1.21,2.6c-.3,1-.6,2.12-.92,3.23-.23.86-.47,1.73-.68,2.58-.88,3.31-1.6,6.3-1.81,7.34a2.16,2.16,0,0,0-.06.43c0,.82.62,0-1.52,4.06l-.4.77c-2,3.85-1.73,4-2.1,5.15a19.77,19.77,0,0,1-1.18,2.74c-.32.61-.53,1.05-.69,1.34l-.19.4a.64.64,0,0,0,0,.1h0l0,.07c-.15.28-.5,1-1.34,2.68a9.63,9.63,0,0,1-2.45,3.29c-1.95,1.56-3.47.74-3.47,2.62v.11c0,2.47-1,.59-1.64,3.18-.39,1.53-2.31,1.62-4.17,1.92-1.37.24-2.71.59-3.4,1.7a7.35,7.35,0,0,1-1,1.3c-1.3,1.31-2.55,1.54-3.59,3.63a4.36,4.36,0,0,1-2.49,2.25,13.88,13.88,0,0,0-4.08,3,12.41,12.41,0,0,1-2,1.63c-3,1.88-5.25,1.25-6.87,4a5.41,5.41,0,0,1-2.72,2.32c-1.16.53-2.17.88-2.54,2.94-.17.93-1.15,1.59-2.51,2.1-1.71.66-4,1.1-6,1.64-2.46.69-4.39,1.54-4,3.16.62,2.5-3.88,1.43-7.35,1.48-2,0-3.69.44-3.82,2.13a3.21,3.21,0,0,1-1,2.07c-1.4,1.47-4.15,2.4-6.75,3.26-2.4.8-4.67,1.52-5.71,2.56a12.67,12.67,0,0,1-1.45,1.24c-1.84,1.31-3.53,1.7-5.89,4.1-.18.18-.37.37-.55.58-2.52,2.77-6.19,1.1-9.54,2.39a6.65,6.65,0,0,0-3,2.21,6.47,6.47,0,0,1-3.62,2.39c-2.56.68-5.22-.15-7,.45a2.64,2.64,0,0,0-1.19.78c-1.29,1.47-4.22,2.22-6.91,3-2.11.61-4.06,1.24-4.93,2.26-1,1.22-4.2.77-7.24.68a16.66,16.66,0,0,0-3.12.12,3.78,3.78,0,0,0-3.11,1.83c-.69,1.35-2.78,2.13-5.26,2.65-1.78.38-3.74.63-5.53.87-3,.41-5.44.8-5.65,1.74-.16.69-1.92.71-4.3.52-1.47-.12-3.18-.3-4.92-.46-4.69-.39-9.52-.51-9.85,2s-4.33,3.3-8.28,3.87c-3.61.53-7.19.91-7.82,2.31-1.32,3-3,0-5.59,2.63l-.12.11c-1.35,1.16-4.72.59-8,0a29.77,29.77,0,0,0-6.14-.8,2.16,2.16,0,0,0-1.82.73c-.8,1.28-4.68.08-9-1a37.67,37.67,0,0,0-6.4-1.13c-2.23-.13-4.13.18-5.3,1.39l-.06.06c-2.34,2.51-5.54,3-8.63,3.34a26.57,26.57,0,0,0-4.42.77,7.51,7.51,0,0,0-2.4,1.15c-3.94,3-6.24.65-9.2,1.64a4.73,4.73,0,0,1-1.25.21c-2.3.13-5.57-.76-8.41-.76a7.61,7.61,0,0,0-3.16.55c-1.87.85-4.36.74-6.6.84-2.09.08-4,.36-4.9,1.79a4,4,0,0,1-3.47,1.64c-2.08.15-4.67-.17-7.38,1a16.58,16.58,0,0,1-3.58,1,71.17,71.17,0,0,1-10.38.71c-1.31,0-2.15,0-2.15,0s-2.31-.35-5.44-.56a54,54,0,0,0-7.43,0,20.37,20.37,0,0,0-5.8,1.15,6.63,6.63,0,0,0-2.69,1.73c-1.71,2-4.25,2.32-6.84,2.19-2-.11-4-.49-5.73-.64s-2.87,0-3.54.75c-2.1,2.41-4.76-1.51-7.46-.44h0a2.93,2.93,0,0,0-.76.43c-1.71,1.33-3.86.56-5.88.15-1.47-.3-2.88-.41-4,.64s-2.6.67-4.39.15c-2-.61-4.31-1.51-6.27-1.21a3.94,3.94,0,0,0-2.16,1.06c-2.35,2.25-7.3.58-10.77-.8-1.89-.75-3.34-1.42-3.69-1.3-.65.21-2.83-2.51-4.92-3.6-1.11-.6-2.17-.71-3,.31-1.08,1.38-3.66,1.33-6.23.88-2.95-.51-5.89-1.54-6.59-1.54a17.21,17.21,0,0,1-3.64-1.51c-2-.94-4.37-2.19-6.38-3.26-2.35-1.23-4.18-2.22-4.18-2.22s-.23-.26-.34-.4c-1.35-1.53-3-3.49-4.79-5.65a68.85,68.85,0,0,1-6.26-8.93q8,.32,16.94.49c71.73,1.41,184.85-4.39,288-38.12,0,0,97-21.59,116.69-83.06,0,0,3-9.2,0-17.42a44.12,44.12,0,0,1,19.18-13.8,59.26,59.26,0,0,1,6-1.82,15.73,15.73,0,0,1,.32,6.87c0,.39-.13.78-.22,1.19-.43,1.84-.85,3.28-1.17,4.49a15.47,15.47,0,0,0-.65,3.11c-.14,1.82.4,3.46,2.28,6.21.28.42.56.81.84,1.18,1.26,1.72,2.32,2.88,3.06,3.88C652.35,87.53,652.69,88.77,651.76,91.39Z" style="fill:#646363"/><path d="M220.82,167.07c-1,2.05.33,7.48-1.31,9s.33,3.76-1.32,5.4-15.78-.66-15.78-.66l12.82,3.74s-6.9,11.05-9.86,12.37c-1.14.51-2.54,1.17-3.93,1.75-2.2.91-4.39,1.62-5.6,1.22-2-.63-3.62,1.3-7.89-.34s-1.31,1.31-7.56,0c-3-.63-9.52-2.74-15.48-4.75,3.94-4.31.91-6.2,2-6.86s30.47,8.76,26.73,4.81-25-6.57-25.19-8.2,13.15.54,27,2c10.4,1.14,6.62.45-.37-.73-2.29-.4-4.93-.84-7.52-1.3-10.52-1.87-26.3-4.95-19.73-4.95,4.75,0,20.33,2,25.26,2.42,1.9.15,2.21,0-.27-.52h0c-9-2.07-33.08-4.3-27.85-5.58,3.41-.83,17.14.5,25.3.84,4.45.19,7.25.07,5.85-.84s-4-1.34-7.28-1.64c-6.77-.63-16.06-.5-20.78-1.25-7-1.09-2-1.53-2-1.53a88,88,0,0,1,20.37-.54A70.39,70.39,0,0,1,205,175.07c-.89-.46-2.13-1.13-3.72-2.06-4.6-2.68-11-3.85-17.31-4.29-14.8-1-29.42,1.95-20.82-1,5.5-1.87,12.49-1.62,18-1.11h0c6.8.62,11.38,1.64,8.2-.43-2.11-1.37-6.57-1.74-11.37-1.64a143.27,143.27,0,0,0-17.38,1.64,38.24,38.24,0,0,1,13-4.19h0c16.82-2.75,37.91.72,38.86.88h0C217.94,164.69,221.1,166.5,220.82,167.07Z" style="fill:#94a6ba"/><path d="M166,171.48s-5,.44,2,1.53c4.72.75,14,.62,20.78,1.25,3.3.3,6,.79,7.28,1.64s-1.4,1-5.85.84c-8.16-.34-21.89-1.67-25.3-.84-5.23,1.28,18.86,3.51,27.85,5.58h0c2.48.56,2.17.67.27.52-4.93-.37-20.51-2.43-25.26-2.42-6.57,0,9.21,3.08,19.73,4.95,2.59.46,5.23.9,7.52,1.3,7,1.18,10.77,1.87.37.73-13.81-1.49-27.18-3.68-27-2s21.47,4.26,25.19,8.2-25.64-5.47-26.73-4.81,1.94,2.55-2,6.86c-6.44-2.18-12.24-4.26-12.24-4.26-.44-8.66-7.78-17.43-7.78-17.43a63.44,63.44,0,0,1,26.18-12.41,76.54,76.54,0,0,1,23.68-1.37,81.09,81.09,0,0,1,17.74,3.59c-1-.16-22-3.63-38.86-.88h0a38.24,38.24,0,0,0-13,4.19,143.27,143.27,0,0,1,17.38-1.64c4.8-.1,9.26.27,11.37,1.64,3.18,2.07-1.4,1-8.2.43h0c-5.52-.51-12.51-.76-18,1.11-8.6,2.92,6-.05,20.82,1,6.35.44,12.71,1.61,17.31,4.29,1.59.93,2.83,1.6,3.72,2.06a70.39,70.39,0,0,0-18.64-4.13A88,88,0,0,0,166,171.48Z" style="fill:#8598aa"/><path d="M419.59,35.4c-.88,2.18,1.31,3.94,0,7s2.18,3.69-1.77,6.23c-3.48,2.23-3.14,5.34-20,7.73-6.86-.44,1.29-4.92,11.27-9.14,12.92-5.48.43-1.1-12.72,1.53s-3.72-.44,6.14-7.89-11.17,1.54-.22-6.58-10.74,4.39-2.43-2.84,3.31-3.94-7.87,1.75S388,33,394.81,24.43s10.75-12.7,3.08-6.13-21.69,20.16-14,9c4.38-6.37,14.9-16,23.12-23.16,6.94-4,10.84-5.3,10.84-2.91,0,4.38,1.32,5.69,0,9.2s4.4,5.26,3.08,8.33,1.28,7,.2,9.2S420.45,33.2,419.59,35.4Z" style="fill:#94a6ba"/><path d="M409.07,47.23c-10,4.22-18.13,8.7-11.27,9.14-2.25.31-4.8.62-7.71.91h0c-7.74-2.69-17-5.67-27.51-8.64,0,0,0-14.12,21.07-29C393.22,12.83,401.17,7.5,407,4.12c-8.22,7.12-18.74,16.79-23.12,23.16-7.66,11.18,6.35-2.4,14-9s3.72-2.42-3.08,6.13-14,14.46-2.84,8.77,16.19-9,7.87-1.75,13.38-5.26,2.43,2.84,10.08-.87.22,6.58-19.29,10.52-6.14,7.89S422,41.75,409.07,47.23Z" style="fill:#8598aa"/><path d="M35.23,167.58a5.52,5.52,0,1,1-5.52-5.52A5.51,5.51,0,0,1,35.23,167.58Z" style="fill:#2b2b2b"/><path d="M43.48,162.91c-2.95-1.95-4.11-8.24-5.42-9.82s-12.16,4.21-15.62,5a4,4,0,0,0-3.29,4c-.6,5.95-7.06,5.91-3.94,7.88s4.11,4.11,6.43,6.11a14.81,14.81,0,0,0,10,3.14,61.86,61.86,0,0,1,10,.39c4.28.44,5.26-3.39,5.26-8.48S46.45,164.84,43.48,162.91ZM30.62,176.05a9,9,0,1,1,9-9A9,9,0,0,1,30.62,176.05Z" style="fill:#959da0"/><path d="M30.62,158.09a9,9,0,1,0,9,9A9,9,0,0,0,30.62,158.09Zm-.91,15a5.52,5.52,0,1,1,5.52-5.51A5.51,5.51,0,0,1,29.71,173.09Z" style="fill:#acb09f"/><path d="M303.43,112.09c-5.69,8.77-49.51,12.27-77.13,4.14s-40.76-16.41-21.48-23.86,85,7.89,85,7.89S309.14,103.32,303.43,112.09Z" style="fill:#c4ccce"/><path d="M325.35,145.31s-2,8.54-7.25,10.5-13.15-2.32-11-10.54,9.08-15.43,15.88-13.12S325.35,145.31,325.35,145.31Z" style="fill:#2b2b2b"/><path d="M322.06,124.25c-13.14-1.48-23.33,14.95-20.05,26.3s15.45,13.48,23.5,6.4,7.73-17.25,7.73-17.25S335.21,125.74,322.06,124.25Zm3.29,21s-2,8.55-7.23,10.52-13.15-2.3-11-10.52,9.06-15.45,15.86-13.15S325.35,145.29,325.35,145.29Z" style="fill:#e8e1db"/><path d="M420.34,153.3s-2.08,12.4-9.43,15.67-19-2.14-16.67-14.08,11.59-22.86,21.52-20.17S420.34,153.3,420.34,153.3Z" style="fill:#2b2b2b"/><path d="M431.12,144.63s1.61-20.14-17.32-21.11-32.06,23.4-26.37,39.32,23.25,17.93,34.15,7.13S431.12,144.63,431.12,144.63Zm-10.78,8.67s-2.08,12.4-9.43,15.67-19-2.14-16.67-14.08,11.59-22.86,21.52-20.17S420.34,153.3,420.34,153.3Z" style="fill:#e8e1db"/><path d="M374.16,152.19c-2,16.11-12.15,17.1-18.24,16.11s-12.16-8.72-6.57-19.79,14.95-14.07,20.86-11.94S374.16,152.19,374.16,152.19Z" style="fill:#2b2b2b"/><path d="M381.64,140.68c-2.54-14.61-22.92-14.45-32-3.78-4.8,5.68-9.31,13-9.54,20.66-.23,8.1,6.17,13.95,13.52,16a18.42,18.42,0,0,0,20.93-8c.34-.53.67-1.07,1-1.6,2.22-3.61,4.56-7.26,5.6-11.42A28.67,28.67,0,0,0,381.64,140.68Zm-7.48,11.51c-2,16.11-12.15,17.1-18.24,16.11s-12.16-8.72-6.57-19.79,14.95-14.07,20.86-11.94S374.16,152.19,374.16,152.19Z" style="fill:#e8e1db"/><path d="M527.15,136.28c-1.65,13.51-10.19,14.34-15.29,13.51s-10.2-7.31-5.51-16.58,12.53-11.81,17.49-10S527.15,136.28,527.15,136.28Z" style="fill:#2b2b2b"/><path d="M533.41,126.63c-2.13-12.25-19.21-12.12-26.78-3.17-4,4.76-7.81,10.91-8,17.32-.19,6.79,5.17,11.69,11.33,13.43a15.49,15.49,0,0,0,17.56-6.71c.28-.43.55-.89.83-1.34,1.87-3,3.83-6.08,4.69-9.56A24,24,0,0,0,533.41,126.63Zm-6.26,9.65c-1.65,13.51-10.19,14.34-15.29,13.51s-10.2-7.31-5.51-16.58,12.53-11.81,17.49-10S527.15,136.28,527.15,136.28Z" style="fill:#e8e1db"/><path d="M571.69,117.57c-4.26-9-17.39-5.21-21.3,3.31-2.08,4.52-3.68,10.05-2.46,15,1.3,5.28,6.48,7.91,11.6,7.92a12.4,12.4,0,0,0,12.08-8.9c.12-.41.22-.82.34-1.23a27.2,27.2,0,0,0,1.58-8.36A19.54,19.54,0,0,0,571.69,117.57ZM560,140c-4.1.46-9.42-3.44-7.79-11.59s7.13-11.75,11.34-11.44,5.34,9.36,5.34,9.36C570.54,137.1,564.14,139.56,560,140Z" style="fill:#e8e1db"/><path d="M560,140c-4.1.46-9.42-3.44-7.79-11.59s7.13-11.75,11.34-11.44,5.34,9.36,5.34,9.36C570.54,137.1,564.14,139.56,560,140Z" style="fill:#2b2b2b"/><path d="M471.52,147.25c-2.11,16.21-13,17.2-19.54,16.21s-13-8.77-7-19.92,16-14.16,22.34-12S471.52,147.25,471.52,147.25Z" style="fill:#2b2b2b"/><path d="M479.52,135.65c-2.73-14.71-24.54-14.54-34.22-3.78-5.14,5.7-10,13.08-10.21,20.77-.25,8.15,6.61,14,14.47,16.12,8.67,2.29,17.62-.83,22.42-8,.36-.52.7-1.06,1.07-1.6,2.38-3.63,4.88-7.31,6-11.49A27.34,27.34,0,0,0,479.52,135.65Zm-8,11.6c-2.11,16.21-13,17.2-19.54,16.21s-13-8.77-7-19.92,16-14.16,22.34-12S471.52,147.25,471.52,147.25Z" style="fill:#e8e1db"/><path d="M602,103.65c-5.26-4.05-12.49-2.73-14.58,3.29-1,2.9-1.25,6.4.76,9,3.3,4.18,10.88,4.38,13.93-.13a9,9,0,0,0,.93-1.77C604.39,110.63,605.31,106.2,602,103.65Zm-2.18,8c-1,2.91-3.66,4.66-6.06,3.89s-3.59-3.78-2.66-6.7,3.66-4.66,6.06-3.89S600.77,108.69,599.84,111.61Z" style="fill:#e8e1db"/><path d="M599.84,111.61c-1,2.91-3.66,4.66-6.06,3.89s-3.59-3.78-2.66-6.7,3.66-4.66,6.06-3.89S600.77,108.69,599.84,111.61Z" style="fill:#2b2b2b"/><path d="M493.47,148.25c-3.29.55-6.75,2.14-8.13,5.39-2.25,5.33,1.53,12.64,7.4,13.19a10.75,10.75,0,0,0,2.19,0c3.88-.49,8.58-1.93,9.28-6.4C505.31,153.27,500.29,147.08,493.47,148.25Zm2,14.23c-3.28.63-6.36-1-6.88-3.74s1.71-5.39,5-6,6.35,1,6.88,3.72S498.78,161.83,495.51,162.48Z" style="fill:#e8e1db"/><path d="M495.51,162.48c-3.28.63-6.36-1-6.88-3.74s1.71-5.39,5-6,6.35,1,6.88,3.72S498.78,161.83,495.51,162.48Z" style="fill:#2b2b2b"/><path d="M32.82,169.51a3,3,0,1,1,3,3A3,3,0,0,1,32.82,169.51Z" style="fill:#fff"/><path d="M214.27,219.48c-1.34,1.45-2.5,4.47-3.39,7.83-1.35-1.53-3-3.49-4.79-5.65C214.69,213.27,218.16,215.28,214.27,219.48Z" style="fill:#9b9a9a"/><path d="M224.46,226.38a29,29,0,0,0-2.68,6.81c-2-.94-4.37-2.19-6.38-3.26a86,86,0,0,1,6.76-9.47C229.66,211.39,230.37,216.19,224.46,226.38Z" style="fill:#9b9a9a"/><path d="M242.87,222.44c2.36,2.36-1.15,6.82-1.66,12.61-1.11-.6-2.17-.71-3,.31-1.08,1.38-3.66,1.33-6.23.88C236.58,227.79,241,220.56,242.87,222.44Z" style="fill:#9b9a9a"/><path d="M264.89,225.07c-.42,3.73-1.47,9.61-2.14,14.62a3.94,3.94,0,0,0-2.16,1.06c-2.35,2.25-7.3.58-10.77-.8a62.64,62.64,0,0,0,5.87-10.61C262.59,214.15,265.88,216.19,264.89,225.07Z" style="fill:#9b9a9a"/><path d="M279.68,219.48c.2.39-1.79,11.77-2.29,20.63-1.47-.3-2.88-.41-4,.64s-2.6.67-4.39.15C274,231.71,279.43,219,279.68,219.48Z" style="fill:#9b9a9a"/><path d="M295,239.21c-1.6-.11-2.87,0-3.54.75-2.1,2.41-4.76-1.51-7.46-.44,1.86-10,2.74-23.21,4.86-23S292.88,230,295,239.21Z" style="fill:#9b9a9a"/><path d="M310.29,235.93a6.63,6.63,0,0,0-2.69,1.73c-1.71,2-4.25,2.32-6.84,2.19.16-9-1.43-22.21.63-22.67C303.06,216.81,306.81,227.18,310.29,235.93Z" style="fill:#9b9a9a"/><path d="M323.52,234.8a54,54,0,0,0-7.43,0c-1.5-8.94-3.55-19.25-1.24-19.25S320.27,226.33,323.52,234.8Z" style="fill:#9b9a9a"/><path d="M340.14,232.3c.48.83.93,1.62,1.35,2.38a71.17,71.17,0,0,1-10.38.71c-1.6-5.51-4.28-12.19-2.78-16.9C331,210.27,333.92,221.78,340.14,232.3Z" style="fill:#9b9a9a"/><path d="M347.15,216.52c1.34,2.12,3.36,9.53,5.3,16.21-2.08.15-4.67-.17-7.38,1C343.08,218.36,344.44,212.25,347.15,216.52Z" style="fill:#9b9a9a"/><path d="M368.1,218.82c.73,2.29,1.6,5.69,2.48,9.09a7.61,7.61,0,0,0-3.16.55c-1.87.85-4.36.74-6.6.84a100.86,100.86,0,0,0,.28-11.47C360.66,204.36,365.8,211.59,368.1,218.82Z" style="fill:#9b9a9a"/><path d="M389.47,216.52a28.55,28.55,0,0,1,2.37,9.15,7.51,7.51,0,0,0-2.4,1.15c-3.94,3-6.24.65-9.2,1.64a4.73,4.73,0,0,1-1.25.21,98.78,98.78,0,0,0,3.07-15.27C383.19,203.38,384.54,207,389.47,216.52Z" style="fill:#9b9a9a"/><path d="M402.62,208.63c1.16,1.55,1.81,7.13,2.33,12.87l-.06.06c-2.34,2.51-5.54,3-8.63,3.34C399.4,209.62,400,205.11,402.62,208.63Z" style="fill:#9b9a9a"/><path d="M416.65,221.24a37.67,37.67,0,0,0-6.4-1.13c1-8.53,2.24-16.74,5.19-15.28C417.58,205.9,417.06,213.52,416.65,221.24Z" style="fill:#9b9a9a"/><path d="M433.56,222.28a29.77,29.77,0,0,0-6.14-.8c.25-9.48-1.32-19.32,2.15-19.62S432.89,213.56,433.56,222.28Z" style="fill:#9b9a9a"/><path d="M451.93,210.27c1,2.24,2.1,4.7,3.19,7-3.61.53-7.19.91-7.82,2.31-1.32,3-3,0-5.59,2.63l-.12.11c.84-6.17.05-14.43,1-22.12C444.1,187.84,446.67,198.77,451.93,210.27Z" style="fill:#9b9a9a"/><path d="M470.33,200.2a96.53,96.53,0,0,1,2.92,11.23c-4.69-.39-9.52-.51-9.85,2C462.73,187.92,467.05,191.21,470.33,200.2Z" style="fill:#9b9a9a"/><path d="M488.12,209.63c-3,.41-5.44.8-5.65,1.74-.16.69-1.92.71-4.3.52-.71-10.2-1.81-21.67,3.34-21.67S486.93,202.15,488.12,209.63Z" style="fill:#9b9a9a"/><path d="M500.56,200.2c.57,1.61,1,3,1.46,4.08a3.78,3.78,0,0,0-3.11,1.83c-.69,1.35-2.78,2.13-5.26,2.65-.08-4.89-1.15-11.63-1-17.55C493,180.69,495.32,185.29,500.56,200.2Z" style="fill:#9b9a9a"/><path d="M514.05,187.26c1.05,2.9,2.11,8.62,3.26,14-2.11.61-4.06,1.24-4.93,2.26-1,1.22-4.2.77-7.24.68.29-3,.62-7.42,1.35-12.95C508.79,173.79,511.42,180,514.05,187.26Z" style="fill:#9b9a9a"/><path d="M532.43,197c-2.56.68-5.22-.15-7,.45,0-10.07-1-21.38,2-23.13C530.71,172.42,530.15,186.38,532.43,197Z" style="fill:#9b9a9a"/><path d="M547.5,186.61c.53,1,1.07,2,1.59,2.81-.18.18-.37.37-.55.58-2.52,2.77-6.19,1.1-9.54,2.39-1.29-5.28-2.49-11-2.27-15.67C537.39,163.23,542,175.76,547.5,186.61Z" style="fill:#9b9a9a"/><path d="M556.46,168.57c1,2.54,3.3,8,5.68,13-2.4.8-4.67,1.52-5.71,2.56a12.67,12.67,0,0,1-1.45,1.24,78.83,78.83,0,0,0-1.81-8.6C547.91,156.66,553.5,161.3,556.46,168.57Z" style="fill:#9b9a9a"/><path d="M570.59,162.61a74.15,74.15,0,0,1,3.14,11.45c-2,0-3.69.44-3.82,2.13a3.21,3.21,0,0,1-1,2.07C565.8,153.72,566,151.71,570.59,162.61Z" style="fill:#9b9a9a"/><path d="M591.06,167.78c-1.71.66-4,1.1-6,1.64-5-11-13.34-19.39-7.58-19.4C582.7,150,587.22,159.92,591.06,167.78Z" style="fill:#9b9a9a"/><path d="M586.68,142.63c1.28-.61,11.43,9.09,19,13.83-3,1.88-5.25,1.25-6.87,4a5.41,5.41,0,0,1-2.72,2.32C591.88,153.49,585.51,143.18,586.68,142.63Z" style="fill:#9b9a9a"/><path d="M617.87,145.94c-1.3,1.31-2.55,1.54-3.59,3.63a4.36,4.36,0,0,1-2.49,2.25c-5.67-6.37-19.91-13.17-18.74-15.89C594.06,133.59,608.22,141.51,617.87,145.94Z" style="fill:#9b9a9a"/><path d="M628.09,137.84c0,2.47-1,.59-1.64,3.18-.39,1.53-2.31,1.62-4.17,1.92-7.3-5.63-20.76-13.09-19.8-14.83S619.24,134.75,628.09,137.84Z" style="fill:#9b9a9a"/><path d="M635.62,128.56l-.19.4a.64.64,0,0,0,0,.1h0l0,.07c-.15.28-.5,1-1.34,2.68a9.63,9.63,0,0,1-2.45,3.29c-6.64-5.2-24.4-13-22.29-14.9S627,126.24,635.62,128.56Z" style="fill:#9b9a9a"/><path d="M640,118.56l-.4.77c-2,3.85-1.73,4-2.1,5.15-6.56-3.88-19.67-8.33-19.67-9.75C617.82,112.9,623.8,116.33,640,118.56Z" style="fill:#9b9a9a"/><path d="M643.38,106.73c-.88,3.31-1.6,6.3-1.81,7.34a2.16,2.16,0,0,0-.06.43c-6.29-2.55-14.07-5.46-16-7C621.33,104.13,626.43,104.78,643.38,106.73Z" style="fill:#9b9a9a"/><path d="M646.19,98.32a9.53,9.53,0,0,0-1.21,2.6c-.3,1-.6,2.12-.92,3.23-6-1.81-13.64-4-17-5.58C619.77,95.17,630.31,97.42,646.19,98.32Z" style="fill:#9b9a9a"/><path d="M625.49,77c2-4.13,15.2-9,21.56-11.16,0,.39-.13.78-.22,1.19-.43,1.84-.85,3.28-1.17,4.49C633.55,74.85,623,82.14,625.49,77Z" style="fill:#9b9a9a"/><path d="M631.84,80.11c3.52-1.37,8.82-3.52,13.17-5.45-.14,1.82.4,3.46,2.28,6.21.28.42.56.81.84,1.18-3,.4-6.16.92-9.3,1.57C619.75,87.56,622.82,83.62,631.84,80.11Z" style="fill:#9b9a9a"/><path d="M651.76,91.39a9.23,9.23,0,0,1-2.54,3.78c-5.55-1.34-12.83-2.57-16.73-2.57-9,0-8.32-1.1,18.7-6.67C652.35,87.53,652.69,88.77,651.76,91.39Z" style="fill:#9b9a9a"/></g></g></svg>