<svg xmlns="http://www.w3.org/2000/svg" viewBox="0 0 311.63 137.19"><title>koi-carp</title><g id="Layer_2" data-name="Layer 2"><g id="Ñëîé_2" data-name="Ñëîé 2"><path d="M263.81,85.42a11.11,11.11,0,0,1-2.32,1.49c-1.11-.72-2-1.33-2.67-1.79-5.62-3.93-17.76-8.92-33.6-1.84-1,.44-2,.92-3,1.45A126.79,126.79,0,0,1,201.33,93a265.73,265.73,0,0,1-38.7,8.68h0c-7.7,1.14-15.62,2-23.49,2.44q-3.36.19-6.71.29c-1,0-2.09.06-3.13.07a10.09,10.09,0,0,0-3.57-2.25c-1.41-.44-6-1.4-11.74-2.47h0c-12-2.24-29-4.93-32.22-4.24,0,0-4,.1-5,3.81-1.24-.25-2.36-.5-3.36-.72a23.26,23.26,0,0,0,7.8-7c18.28-5.18,33.93-3.87,57.93.9S191,88.9,201.33,82s18.33-10.75,36.94-10.35A31.58,31.58,0,0,1,263.81,85.42Z" style="fill:#c4c2c8"/><path d="M310.89,29.25h0c-4.72.12-17.81,2-41.34,16.32,0,0-2.08,1.49,0,1.49s24.26-13.47,30.56-13-16.25,7.08-22.06,11.1S286.84,42,292.21,41s-.45,1.49-8.79,4.47-1.94,2.39,3.72.75,3.13.86-4.62,2.89-8.35,2.47-.74,1.43,5.21-.07-.15,1.53-11.48,2.35-3.88,2,7.6.89.9,2.23-10.59.82-3.73,1.23,6.71,2,2.24,2.65-7.46,1.49-1.94,1.49,7.3,1.64,2.83,1.94-8.5-.57-3.13,2,10.43,5.5,4.62,4.46-9.54-1-3.13,2.38,8.94,4.18,8.35,5.82-7.75-.75-10.88-1.79,6.41,5,13.71,7.5-5.22,2-11.63-.65.45,2.29,10.88,5.1,4.33,2.79-3.27,1.68,4.47,3.51,10.73,4.55,9.24,7.86-4.47,2.44-19.38-10.13-19.38-8.67,21.53,15.73,39.44,18.74c-1.07.55-3.14.75-6.75.27-10.43-1.42-32.68-14.65-41.65-20.48a11.11,11.11,0,0,0,2.32-1.49c4.1-3.34,5.06-8.78,3.76-12.22-2.19-5.76-.6-3.78,1.19-12.13S257.23,49,257.23,49c8.35-5.45,32.38-19,43.33-21.27C310.1,25.71,313.24,25.78,310.89,29.25Z" style="fill:#9a9a9d"/><path d="M158.85,87c-1.2,2.06-3,1.31-6.84,2.67s-2.11-1-3.9-3.54,0-4.18,1.4-5.37,7.15,0,7.15,0C161.43,81.28,160,84.92,158.85,87Zm80.29-22.93c-2.38,1.78-5.17,1.19-8.74,0s-3-3.39-5.76-4.18-4-5.37-1.79-8.65,5.36-2.48,6.56,0,4.68,4.43,6,5.07C241.33,59.28,241.53,62.27,239.14,64.06ZM257.23,49l-1.19.79-.31.21c2.06,1.53,4.28,3.67,3.49,5.36-1.4,3,1.79,6.16-1.59,8.15s-9.35,5.79-9.94,2.1,1.59-6.4,0-8c-.4-.4-.82-.83-1.25-1.23a13,13,0,0,0-3.89-2.78c-1.1-.41-2.25-1.64-1.81-2.89-3.75-1.29-8.55-3.31-15.11-6.05a177.47,177.47,0,0,0-19.35-6.5s-5.3,3.51-2.51,6.7,5.16,5.7,3.58,8.61a18.6,18.6,0,0,0-1.94,4.14c-.85,2.15-1.48,3.54-2.45,1.76s.21-3.39-2.77-.6-6.56,3.8-5.77,6.87,2.19,5.65-1.59,7.64-5,8.55-8.74,5.76-1.79-6.56-1.19-9.14c.27-1.19-1-1.87-2.43-2.41h0c-1.64-.62-3.43-1-3.11-1.85.6-1.5,1.72-3.49,0-5.48s-3.34-3.44-4.53-1.22-5.57,1.56-5.57,0-2.38.22-3.37-2.56-3.78-6.17-4.57-5.07,1.38,13.16-1.39,15.88-5,8.27-7.16,8.27-6-1.59-6.36-5-1.19-5.37,0-6.76-4.57-3-1.79-4.8,1.59-2.61,4.17-5.47-2.18-5-.4-9,8.75-4.25,1.4-6.3-6.36,1.73-9.94-3.84-.6-7.52-6.76-8.63-5.61,1.08-9.76,1.88-2.16,1.58-8.12.19.19,0-4.18,5.37-10.13,8.15-8.55,13.71S103.6,59.09,98,60.28s-4.57,2.86-4.18,8.38.4,8.91-2.58,9.31c-1.56.2-3.4,2.27-5.45,4.13h0a30.4,30.4,0,0,1-4.63,9.47c18.28-5.18,33.93-3.87,57.93.9S191,88.9,201.33,82s18.33-10.75,36.94-10.35a31.58,31.58,0,0,1,25.54,13.81c4.1-3.34,5.06-8.78,3.76-12.22-2.19-5.76-.6-3.78,1.19-12.13S257.23,49,257.23,49ZM134,81.9c-3.19-.43-1.79-1.55-6.17-.36s-8.54-.79-10.14-3.17-3.37-3.78-6.16-1.07S109,77,105.38,74.6s.8-6,2.11-5.94,3.26-.63,5.4-5.4,4-3.78,6.41-3.78,3.77-3.18,4.17-6.25,7.15.49,10.37,2.08,1.55,4.77.36,7.95,1,9.54,1,9.54C140.76,80.35,137.18,82.34,134,81.9Z" style="fill:#d4d3d6"/><path d="M154.7,32.68c-1.57,1.19-3.28,1-3.95,0s-4.62-2.16-4.4-3.21,4.4-1,4.4-1c3.95.45,5.29,1,6.56,2.23S156.26,31.49,154.7,32.68Zm16.4,1.26c-.3.3-2.91-.37-4.33-.43s-1.19-.83-1.12-1.8,2.24-.74,2.24-.74C174.45,32.17,171.4,33.65,171.1,33.94Zm9.68,3c-1.26.07-.07,1.34-1.56,2.11s-2.16-1.59-2.46-2.41-3.06-1.12-2.84-2.48,1-2.82,4.55-1.33,3.73,2.19,4.18,2.54C183.86,36.29,182.05,36.85,180.78,36.93Z" style="fill:#d4d3d6"/><path d="M85.8,53.72c-1.49.69-5,.79-5.86-.89s-1-5.77.6-7.16,3.28.6,2.88,1.69,1.49,2.09,1.49,2.09C90.32,51.24,87.29,53,85.8,53.72Zm21.47-21.24c-1.39,4.71-5.16,4.05-5.25,2.66s.18-2.19-2.6-2.66-3.28-1.62-2.59-3.31,2.79-.79,4-1.19,6-.89,6.46,0S107.27,32.48,107.27,32.48Zm96.5,12.3c-2.79-3.19,2.51-6.7,2.51-6.7C186.51,32.49,161.46,27.59,143,24.7a104.93,104.93,0,0,0-21.69-1.1h0c-14.74.71-28.92,4.15-45.09,7.54.11.34.06,1.08-2,1.81-2.78,1-3.28-.9-6.26,2s-6.06,3.28-3.38,5.46,7.55-.45,3.88,4.8-3.28,8.12-5.77,6.63-7-.18-4.17,1.4S63,55.31,60.27,56.6s-3,2.09-5.07,0S52.91,54.91,54,52.23s1.67-3-.66-4.08S49,47,50.13,45.2s-2.09-1.61.49-3.8c1.66-1.4,1.81-2.32,1-3.68A98.8,98.8,0,0,0,28.31,50.64c.35,2.49-.24,4.37-1.24,5.07s-2.28,1.89-3.86,2.17,0,1.6,0,3.19-3.09,1.39-3.79.5-.7-.3-2.68-.5a1.39,1.39,0,0,1-1-.61A99.29,99.29,0,0,0,5.3,69.41c2.16.06,5.21-.64,6.4.16,2,1.34-.33,4.32-2,5.81s4.33,3.88,3.58,5.67c-.54,1.29.42,4.37,1,6,1.43.16,3.27.69,3.63,2.38,0,0,3.58-.9,5.28-.11s4.86.21,8.83-.91,2.59-2.66,6.56-4,5.57-2.58,5.76-5.77S52.12,73,56.69,76.18s4.77,4.57,4.37,7.1,5,3.43,7,3.71,7.15-2.26,11.73-1.87a4,4,0,0,0,1.1-.05,39.43,39.43,0,0,0,4-16.24c.6-14.6-19.53-21.17-8.66-17s11,15.8,11,15.8A41.7,41.7,0,0,1,85.82,82.1c2.05-1.86,3.89-3.93,5.45-4.13,3-.4,3-3.78,2.58-9.31S92.46,61.47,98,60.28s4-8,2.38-13.52,4.18-8.34,8.55-13.71-1.79-6.76,4.18-5.37,4,.6,8.12-.19,3.6-3,9.76-1.88,3.18,3.07,6.76,8.63,2.58,1.79,9.94,3.84.39,2.32-1.4,6.3,3,6.16.4,9-1.39,3.71-4.17,5.47,3,3.41,1.79,4.8-.4,3.38,0,6.76,4.17,5,6.36,5,4.37-5.56,7.16-8.27.59-14.78,1.39-15.88c0,0-1.51,0-3.43-2.17s.44-5.43,0-7.22,3.28-1.49,4.92-2.23,9.09-1.19,12.22,1.49,4.92,4.92,8.35,8-.3,2.77-.15,4.33,1.64,1.57,3.13,0,4.17-1.11,8.35,1.12-.45,4-.75,6.55.3,3.59-2.24,3.19-.14-3-2.83-3.18-2.38,1.49-3.28,4.11a2.85,2.85,0,0,1-3.07,2.23c1.42.54,2.7,1.22,2.43,2.41-.6,2.58-2.59,6.36,1.19,9.14s5-3.77,8.74-5.76,2.39-4.57,1.59-7.64,2.79-4.09,5.77-6.87,1.79-1.19,2.77.6,1.6.39,2.45-1.76a18.6,18.6,0,0,1,1.94-4.14C208.93,50.48,206.55,48,203.77,44.78ZM43,74a7,7,0,1,1,7-7A7,7,0,0,1,43,74Z" style="fill:#f85e3a"/><path d="M14.3,87a9.81,9.81,0,0,0-1.72,0,38.88,38.88,0,0,0-6.87-3.91c-3.21-1.55-4,0-4,0A8.06,8.06,0,0,1,0,79.16C-.35,76.27,2,72.83,5.29,69.41h0c2.16.06,5.21-.64,6.4.16,2,1.34-.33,4.32-2,5.81s4.33,3.88,3.58,5.67C12.77,82.34,13.73,85.42,14.3,87Z" style="fill:#d4d3d6"/><path d="M27.07,55.71c-1,.7-2.28,1.89-3.86,2.17s0,1.6,0,3.19-3.09,1.39-3.79.5-.7-.3-2.68-.5a1.39,1.39,0,0,1-1-.61c2.4-1.84,4.59-3.47,6.17-4.75s3.71-3.07,6.4-5.07C28.66,53.13,28.07,55,27.07,55.71Z" style="fill:#2b2b2b"/><path d="M74.18,33c-2.78,1-3.28-.9-6.26,2s-6.06,3.28-3.38,5.46,7.55-.45,3.88,4.8-3.28,8.12-5.77,6.63-7-.18-4.17,1.4S63,55.31,60.27,56.6s-3,2.09-5.07,0S52.91,54.91,54,52.23s1.67-3-.66-4.08S49,47,50.13,45.2s-2.09-1.61.49-3.8c1.66-1.4,1.81-2.32,1-3.68a109,109,0,0,1,18.16-5.27q3.22-.64,6.36-1.31C76.28,31.48,76.23,32.22,74.18,33Z" style="fill:#2b2b2b"/><path d="M14.68,91.78,13,91.58h0c-1.46-.17-2.45-.31-2.83-.4-3.43-.74-6.26-1.93-7-2.08s-1.53-1.69-.44-2.19S7,87.91,7.5,88.1s3.62,1.4,3.68.6c0-.5-6.31-1.57-9.47-5.62,0,0,.79-1.55,4,0A38.88,38.88,0,0,1,12.58,87a2,2,0,0,1,.43.47c.46.74,1.25,2.15.82,3.24C13.83,90.7,14.23,91.16,14.68,91.78Z" style="fill:#c4c2c8"/><path d="M191.89,61.06c-.3,2.53.3,3.59-2.24,3.19s-.14-3-2.83-3.18-2.38,1.49-3.28,4.11a2.85,2.85,0,0,1-3.07,2.23h0c-1.64-.62-3.43-1-3.11-1.85.6-1.5,1.72-3.49,0-5.48s-3.34-3.44-4.53-1.22-5.57,1.56-5.57,0-2.38.22-3.37-2.56-3.78-6.17-4.57-5.07c0,0-1.51,0-3.43-2.17s.44-5.43,0-7.22,3.28-1.49,4.92-2.23,9.09-1.19,12.22,1.49,4.92,4.92,8.35,8-.3,2.77-.15,4.33,1.64,1.57,3.13,0,4.17-1.11,8.35,1.12S192.19,58.54,191.89,61.06Z" style="fill:#2b2b2b"/><path d="M257.63,63.46c-3.38,2-9.35,5.79-9.94,2.1s1.59-6.4,0-8c-.4-.4-.82-.83-1.25-1.23,0,0,1.8-1,1.57-4A11.87,11.87,0,0,0,255.73,50c2.06,1.53,4.28,3.67,3.49,5.36C257.82,58.29,261,61.47,257.63,63.46Z" style="fill:#f85e3a"/><path d="M246.44,56.3a13,13,0,0,0-3.89-2.78c-1.1-.41-2.25-1.64-1.81-2.89l.77.27h0a5.79,5.79,0,0,0,.89.28l.13,0A22.56,22.56,0,0,0,248,52.34C248.24,55.25,246.44,56.3,246.44,56.3Z" style="fill:#2b2b2b"/><path d="M242.42,51.19a5.79,5.79,0,0,1-.89-.28Z" style="fill:#d4d3d6"/><path d="M22.25,103c-2.08,3,0-1.19-1.49-3.88s-5.14-3.35-4.92-4.62c.14-.74-.56-1.91-1.16-2.76-.45-.62-.85-1.08-.85-1.08.43-1.09-.36-2.5-.82-3.24a2,2,0,0,0-.43-.47,9.81,9.81,0,0,1,1.72,0c1.43.16,3.27.69,3.63,2.38a12.65,12.65,0,0,1,.16,2.77c0,.9.28,1.64,1.86,2.89C22.77,97.3,24.34,100.06,22.25,103Z" style="fill:#e44b2c"/><path d="M136.44,124c-.6,5.66-15.06,6-15.06,6-25.28.56-37.26-11.41-42.08-20.28,7.62,10.23,32.24,18.69,21.41,13.62s-16.1-12.52-14.61-12.22S96.34,120.4,104.88,122s1-.59-9.14-6.66-11.13-10.73-2.28-4.47,33.49,13,14.61,5.17-22.86-16.6-13.92-10.14,38.16,16.4,26.9,11.23-19.94-11.62-12.59-8.24,16.7,5.66,10.94,3.37-15.31-7.65-15.71-8.26,17.5,6.08,17.57,5.18c0-.6-7.55-3.2-13.28-5.43a33.79,33.79,0,0,1-6-2.72c-1.73-1.37,8.66,1.81,14.28,3.24,2.13.54,3.58.84,3.42.54a1.81,1.81,0,0,0-.69-.44c-3.15-1.39-16-4.34-18-5.23-2.24-1,12.35.55,12.94.62h0c5.74,1.07,10.33,2,11.74,2.47a10.09,10.09,0,0,1,3.57,2.25c3.14,2.83,5.86,7.23,6,8.27C135.39,114.17,137,118.31,136.44,124Z" style="fill:#9a9a9d"/><path d="M94.15,105.89c-8.94-6.46-5,2.29,13.92,10.14s-5.77,1.09-14.61-5.17-7.85-1.59,2.28,4.47,17.69,8.25,9.14,6.66S87.59,111.36,86.1,111.06s3.78,7.15,14.61,12.22-13.79-3.39-21.41-13.62h0a23.13,23.13,0,0,1-2.64-7.15,8.06,8.06,0,0,1,.09-3.19c.94-3.71,5-3.81,5-3.81,3.23-.69,20.21,2,32.22,4.24-.59-.07-15.18-1.59-12.94-.62,2,.89,14.85,3.84,18,5.23a1.81,1.81,0,0,1,.69.44c.16.3-1.29,0-3.42-.54-5.62-1.43-16-4.61-14.28-3.24a33.79,33.79,0,0,0,6,2.72c5.73,2.23,13.33,4.83,13.28,5.43-.07.9-18-5.79-17.57-5.18s9.94,6,15.71,8.26-3.58,0-10.94-3.37,1.34,3.07,12.59,8.24S103.1,112.35,94.15,105.89Z" style="fill:#d4d3d6"/><path d="M158.35,111.8c-6.75-5.21,1.19,2.08,7.35,7.63s4.87,6-3.67.67-5.12-1.79.57,2.79,2.8,3.77-4-.1-11-5.33-1.89,2,4.27,4.65.3,1.76-4-1.59.2,2-.1,4.37-4.77-1.49-5.67-7.06-4.18-4.17a48.73,48.73,0,0,0,8.16,11.3c-16.84-8.08-17.25-30.08-17.25-30.08,7.87-.45,15.79-1.3,23.49-2.44h0c.74.12,1.47.27,2.18.44h0l5.94,3.57s-6.46-1.09-9.54-2.48.7,2,7,4.45,1.44,2.41-5.59-1.07-5.34-1.29,2.51,1.89,1.29,4-4.37.49-3.39.4,9.34,6.66S165.11,117,158.35,111.8Z" style="fill:#d4d3d6"/><path d="M166,117.87c2.69,2.53,20.13,10.73,20.13,10.73-1.49,10.14-17.15,8.5-17.15,8.5a31.41,31.41,0,0,1-12.56-2.91,48.73,48.73,0,0,1-8.16-11.3c-1.49-2.89-.49-1.7,4.18,4.17s8.94,5.07,4.77,1.49-4.18-4.87-.2-2,8.84,5.57-.3-1.76-5-5.89,1.89-2,9.74,4.67,4,.1-9.12-8.15-.57-2.79,9.84,4.87,3.67-.67-14.1-12.84-7.35-7.63,24.45,10.09,11.73,3.83-15-10.13-9.34-6.66,12.22,2.68,4.37-.49-9.54-5.37-2.51-1.89,11.85,3.57,5.59,1.07-10-5.84-7-4.45,9.54,2.48,9.54,2.48l-5.94-3.57c11.07,2.77,17.37,12,17.37,12-2.17.14-9.67-1.36-10.12-1.45,1.83,1.08,10.27,3.24,10.27,3.24a55.52,55.52,0,0,1,3.73,11C176.83,123.68,163.27,115.33,166,117.87Z" style="fill:#9a9a9d"/><path d="M228,93.47c-2.78.1-4.86.2-1.69.59s-3.38.7-8.15-.89.4,4.22,6.26,5.64,4,1.81-.44,1.22-5.91-.6-1.74,1.09,3.67,3,.4,2.39-3.76.39-.93,1.49c2.46,1-.88,2.82,3.63,4.47a14.88,14.88,0,0,1-2.6,0C210.82,108.77,201.33,93,201.33,93a126.79,126.79,0,0,0,20.92-8.26c1-.53,2-1,3-1.45a14.05,14.05,0,0,1,4.94,1c-1.67.63-5.08,1.88-6.62,2.32-2.09.6,1.34.7,3.8.4s-2,2.82-6.08,2.65,2.38.93,7.65,1.82S230.8,93.37,228,93.47Z" style="fill:#d4d3d6"/><path d="M220.21,95.4C224.09,98.88,238.1,98,238.1,98s-2.92,10.41-12.75,11.43c-4.51-1.65-1.17-3.52-3.63-4.47-2.83-1.1-2.35-2.09.93-1.49s3.78-.7-.4-2.39S219.57,99.43,224,100s6.31.2.44-1.22-11-7.23-6.26-5.64,11.33,1.29,8.15.89-1.09-.49,1.69-.59,6.17-1.09.9-2-11.73-2-7.65-1.82,8.54-3,6.08-2.65-5.89.2-3.8-.4c1.54-.44,5-1.69,6.62-2.32a38.44,38.44,0,0,1,5.26,2.42c-2.54,2.39-9.69,3.13-9.69,3.13,4.92.9,11.48-1.79,11.48-1.79,1.64,2.09.89,7.91.89,7.91C231.24,97.74,220.21,95.4,220.21,95.4Z" style="fill:#9a9a9d"/><path d="M240.77,50.54a.16.16,0,0,0,0,.09c-3.75-1.29-8.55-3.31-15.11-6.05a177.47,177.47,0,0,0-19.35-6.5C186.51,32.49,161.46,27.59,143,24.7a104.93,104.93,0,0,0-21.69-1.1c.3-.05,10.2-1.77,15.31-7.44a61.24,61.24,0,0,1,5-4.8A12.83,12.83,0,0,1,140.16,15c-1.63,2.83-3.13,4,0,4.62s5.35,0,6.18,1.94,2.9,4,5.67,3.73,8.13.15,9.92,1,5.66,2.39,9.09,2.09,6.26.59,9.09,1.49,4.92,2.25,6.12,1-.9-1.95-1.94-2.54.56-4.44,2.29-2.82,1.73.77,4.27,0,6.11-.86,5.51-2.15-3.13-1.14-3.58-2,3.71-2.16,7.33-1.71l.43.62c-2.17,3-4.63,6.09-6.17,8.1-4.29,5.61,4,.18,9.72-4.94h0a4.79,4.79,0,0,0,2.07.2,39.85,39.85,0,0,1-6,7.28c-3.56,3,5-1.92,13.22-8a7.08,7.08,0,0,1,.49.73A8.64,8.64,0,0,0,215,25.14c-2.79,3-6.3,6.24-8.61,7.34-5.37,2.57-1.43,5.07,11.76-5.41a6.61,6.61,0,0,0,1.69.21c1.22,0,2.09-.21,2.86.32-3.13,3.63-7,7.39-9,8.09-4.94,1.75.31,4.47,12.7-5.32h0a11,11,0,0,0,1.61.1c.41,0,.74,0,1,0-3.26,3.35-7.55,7.23-9.38,7.82-4,1.3,3.37,2.59,14.59-5.89,1,.4,2,.77,2.85,1.2-3.14,3.19-7.23,6.54-10.48,7.48-7.44,2.16,3.37,1.7,13.17-3a8.42,8.42,0,0,1-1.12,2.27v0c-3.3,2.32-6.55,4.4-7.53,4.5-2.25.25,1.8,1.44,6.46,1.08C238.22,47.64,238.88,49.46,240.77,50.54Z" style="fill:#e44b2c"/><path d="M192.78,21.42c.45.9,3,.75,3.58,2s-3,1.39-5.51,2.15-2.54,1.63-4.27,0-3.34,2.22-2.29,2.82,3.13,1.34,1.94,2.54-3.28-.16-6.12-1-5.66-1.79-9.09-1.49-7.3-1.19-9.09-2.09-7.16-1.34-9.92-1-4.84-1.79-5.67-3.73-3-1.34-6.18-1.94-1.63-1.79,0-4.62a12.83,12.83,0,0,0,1.39-3.65c5.13-4.48,12.16-9.62,16.89-11-1.8,3.69-6,11.89-9.43,16.19-4.32,5.36,7.76-1.82,15.32-14.32a24,24,0,0,0,2.58,2.18,143.37,143.37,0,0,1-11.86,14.73c-4.59,4.61,2.38,2.62,16.48-13.71a11.45,11.45,0,0,1,2.6.23c-3.51,5.18-8.2,11.57-11.11,15-6.5,7.58,3.56-.57,14.54-12.33A9.4,9.4,0,0,0,180,10.14a82.66,82.66,0,0,1-9.94,11.78c-7.89,7.26,9-5,15.94-11l.39.07c-3.76,4.2-10.69,11.81-13.44,14.32-3.84,3.51,7-4.24,15.9-11,.26.82.34,1.43.55,1.88h0c-4.1,4.1-9.46,9-11.61,10-4.36,2.13,5.34.21,18.87-9.26h0c1.09,0,1.81.42,2.88,2l.52.77C196.49,19.26,192.4,20.66,192.78,21.42Z" style="fill:#d4d3d6"/><path d="M164.33,2.23c-7.56,12.5-19.64,19.68-15.32,14.32,3.47-4.3,7.63-12.5,9.43-16.19h0c1.79-.53,3.25-.51,4.15.29Z" style="fill:#9a9a9d"/><path d="M171.53,5.43c-14.1,16.33-21.07,18.32-16.48,13.71A143.37,143.37,0,0,0,166.91,4.41a5.66,5.66,0,0,0,3.66,1Z" style="fill:#9a9a9d"/><path d="M177.56,8.3c-11,11.76-21,19.91-14.54,12.33,2.91-3.4,7.6-9.79,11.11-15a5.05,5.05,0,0,1,2.81,2A8,8,0,0,0,177.56,8.3Z" style="fill:#9a9a9d"/><path d="M186,10.91c-6.94,6-23.83,18.27-15.94,11A82.66,82.66,0,0,0,180,10.14a7.58,7.58,0,0,0,3.45.85C184.53,11,185.34,10.84,186,10.91Z" style="fill:#9a9a9d"/><path d="M188.89,14.27c-8.88,6.79-19.74,14.54-15.9,11,2.75-2.51,9.68-10.12,13.44-14.32.74.2,1.36.76,2,2.2A10.12,10.12,0,0,1,188.89,14.27Z" style="fill:#9a9a9d"/><path d="M196.7,16.91c-13.53,9.47-23.23,11.39-18.87,9.26,2.15-1,7.51-5.91,11.61-10,.33.71,1,1,3.2,1C194.56,17.15,195.77,16.89,196.7,16.91Z" style="fill:#9a9a9d"/><path d="M204.09,23.49c-5.67,5.12-14,10.55-9.72,4.94,1.54-2,4-5.13,6.17-8.1A7.9,7.9,0,0,0,204.09,23.49Z" style="fill:#d23d24"/><path d="M213.41,23c-8.24,6.05-16.78,11-13.22,8a39.85,39.85,0,0,0,6-7.28,8.14,8.14,0,0,0,1.18-.23C210.93,22.42,211.93,21.06,213.41,23Z" style="fill:#d23d24"/><path d="M218.11,27.07c-13.19,10.48-17.13,8-11.76,5.41,2.31-1.1,5.82-4.33,8.61-7.34A6.5,6.5,0,0,0,218.11,27.07Z" style="fill:#d23d24"/><path d="M226.4,30.37c-12.39,9.79-17.64,7.07-12.7,5.32,2-.7,5.83-4.46,9-8.09a2.76,2.76,0,0,1,.78.88A3.72,3.72,0,0,0,226.4,30.37Z" style="fill:#d23d24"/><path d="M234.25,32.42C223,40.9,215.7,39.61,219.66,38.31c1.83-.59,6.12-4.47,9.38-7.82,1.39.08,1.7.41,4.34,1.56Z" style="fill:#d23d24"/><path d="M239.94,37.22a4.07,4.07,0,0,1-.15.86c-9.8,4.72-20.61,5.18-13.17,3,3.25-.94,7.34-4.29,10.48-7.48C238.81,34.43,240.06,35.43,239.94,37.22Z" style="fill:#d23d24"/><path d="M237.16,44.78c.15.37.3.77.44,1.17-4.66.36-8.71-.83-6.46-1.08,1-.1,4.23-2.18,7.53-4.5C237.67,41.92,236.54,43.31,237.16,44.78Z" style="fill:#d23d24"/><path d="M239.14,64.06c-2.38,1.78-5.17,1.19-8.74,0s-3-3.39-5.76-4.18-4-5.37-1.79-8.65,5.36-2.48,6.56,0,4.68,4.43,6,5.07C241.33,59.28,241.53,62.27,239.14,64.06Z" style="fill:#2b2b2b"/><path d="M85.82,82.1h0a30.4,30.4,0,0,1-4.63,9.47,23.26,23.26,0,0,1-7.8,7c-3-.67-4.91-1.17-5.43-1.32A29.3,29.3,0,0,0,80.85,85.07a39.43,39.43,0,0,0,4-16.24c.6-14.6-19.53-21.17-8.66-17s11,15.8,11,15.8A41.7,41.7,0,0,1,85.82,82.1Z" style="fill:#d23d24"/><path d="M80.85,85.07A29.3,29.3,0,0,1,68,97.28l-.14,0S34,93.93,18.09,92.17a12.65,12.65,0,0,0-.16-2.77s3.58-.9,5.28-.11,4.86.21,8.83-.91,2.59-2.66,6.56-4,5.57-2.58,5.76-5.77S52.12,73,56.69,76.18s4.77,4.57,4.37,7.1,5,3.43,7,3.71,7.15-2.26,11.73-1.87A4,4,0,0,0,80.85,85.07Z" style="fill:#d4d3d6"/><path d="M154.7,32.68c-1.57,1.19-3.28,1-3.95,0s-4.62-2.16-4.4-3.21,4.4-1,4.4-1c3.95.45,5.29,1,6.56,2.23S156.26,31.49,154.7,32.68Z" style="fill:#2b2b2b"/><path d="M171.1,33.94c-.3.3-2.91-.37-4.33-.43s-1.19-.83-1.12-1.8,2.24-.74,2.24-.74C174.45,32.17,171.4,33.65,171.1,33.94Z" style="fill:#2b2b2b"/><path d="M180.78,36.93c-1.26.07-.07,1.34-1.56,2.11s-2.16-1.59-2.46-2.41-3.06-1.12-2.84-2.48,1-2.82,4.55-1.33,3.73,2.19,4.18,2.54C183.86,36.29,182.05,36.85,180.78,36.93Z" style="fill:#2b2b2b"/><path d="M107.27,32.48c-1.39,4.71-5.16,4.05-5.25,2.66s.18-2.19-2.6-2.66-3.28-1.62-2.59-3.31,2.79-.79,4-1.19,6-.89,6.46,0S107.27,32.48,107.27,32.48Z" style="fill:#2b2b2b"/><path d="M85.8,53.72c-1.49.69-5,.79-5.86-.89s-1-5.77.6-7.16,3.28.6,2.88,1.69,1.49,2.09,1.49,2.09C90.32,51.24,87.29,53,85.8,53.72Z" style="fill:#2b2b2b"/><path d="M134,81.9c-3.19-.43-1.79-1.55-6.17-.36s-8.54-.79-10.14-3.17-3.37-3.78-6.16-1.07S109,77,105.38,74.6s.8-6,2.11-5.94,3.26-.63,5.4-5.4,4-3.78,6.41-3.78,3.77-3.18,4.17-6.25,7.15.49,10.37,2.08,1.55,4.77.36,7.95,1,9.54,1,9.54C140.76,80.35,137.18,82.34,134,81.9Z" style="fill:#2b2b2b"/><path d="M158.85,87c-1.2,2.06-3,1.31-6.84,2.67s-2.11-1-3.9-3.54,0-4.18,1.4-5.37,7.15,0,7.15,0C161.43,81.28,160,84.92,158.85,87Z" style="fill:#2b2b2b"/><path d="M309.9,107.12h0c-17.91-3-39.44-17.41-39.44-18.74s5.66,3.25,19.38,8.67,10.73-1.39,4.47-2.44S276,89,283.57,90.06s13.71,1.12,3.27-1.68S269.55,80.6,276,83.28s18.93,3.16,11.63.65-16.84-8.55-13.71-7.5,10.28,3.43,10.88,1.79-1.94-2.39-8.35-5.82S273.73,69,279.54,70s.75-1.94-4.62-4.46-1.34-1.65,3.13-2,2.68-1.94-2.83-1.94-2.54-.89,1.94-1.49,4.62-2.24-2.24-2.65-3,.12,3.73-1.23,6.7-2.53-.9-2.23-1.49-.45,3.88-2,7.75-2.57.15-1.53-7,.6.74-1.43,10.29-4.53,4.62-2.89-12.07,2.23-3.72-.75,14.16-5.51,8.79-4.47-20,8.2-14.16,4.17S306.41,34.45,300.11,34s-28.47,13-30.56,13,0-1.49,0-1.49c23.53-14.3,36.62-16.2,41.34-16.32a26,26,0,0,1-2.18,2.61c-5.57,6-4.77,7-7.16,8.15s-1,2.18-3.18,3.58-2.58,3.77-4.37,5-3.18,4.92-6.36,7.53-6,8.37-4,12,5,10.93,7.15,12.12,3.78,3.38,2.78,4,3,3.38,2.59,4.57,5.16,3,4.77,5,5.36,8,7.35,8.74C309.68,103,312.29,105.89,309.9,107.12Z" style="fill:#d4d3d6"/><path d="M45.81,67.93a3.13,3.13,0,1,1-3.13-3.13A3.13,3.13,0,0,1,45.81,67.93Z" style="fill:#2b2b2b"/><path d="M43,60a7,7,0,1,0,7,7A7,7,0,0,0,43,60Zm0,12.73A5.69,5.69,0,1,1,48.67,67,5.69,5.69,0,0,1,43,72.68Z" style="fill:#414142"/><path d="M43,61.3A5.69,5.69,0,1,0,48.67,67,5.69,5.69,0,0,0,43,61.3Zm-.29,9.76a3.13,3.13,0,1,1,3.13-3.13A3.13,3.13,0,0,1,42.68,71.06Z" style="fill:#a1b494"/><path d="M43.35,65.74a2.46,2.46,0,1,1,2.46,2.46A2.46,2.46,0,0,1,43.35,65.74Z" style="fill:#e9e2dc"/></g></g></svg>