<svg xmlns="http://www.w3.org/2000/svg" viewBox="0 0 292.81 147.04"><title>kribensis</title><g id="Layer_2" data-name="Layer 2"><g id="Ñëîé_2" data-name="Ñëîé 2"><path d="M232,42.83a6.45,6.45,0,0,1-6.34-3,74.1,74.1,0,0,1,10.51-5.31l.38-.15.17.14C240.36,38,236.55,42.4,232,42.83Z" style="fill:#2b2b2b"/><path d="M210,60.61c-7.45,0-60.17-18.32-95.79-19.13C79,40.69,58.49,43.73,36.6,52.11a9.75,9.75,0,0,0-.47-2.26c-.1-.28-.2-.54-.31-.81a9,9,0,0,0-1-1.66c4.26-3.3,23-15.42,68.5-15.42,42.29,0,64.95,13.49,81.27,16.82h0c8.94,4.94,16,5.08,24.71,1h0a30.5,30.5,0,0,1,2.75,1.78,25.76,25.76,0,0,1,4.11,3.76v0C216.29,55.64,217.23,60.62,210,60.61Z" style="fill:#ead57d"/><path d="M221.08,68.08a19.07,19.07,0,0,1-4.86,13.07,20.25,20.25,0,0,1-1.53,1.54c.21-.32,6.22-9.12-3.47-10-9.86-.86-39.44-13-94.57-13.48-27.21-.23-44.37.31-55.75,1.4a3.53,3.53,0,0,0-.5-1c-.56-.8-1.52-.06-2.93,1.32-9.4,1.1-14.28,2.64-18,4.45.76-5.5-.11-5.23-1.05-4.39-.44.38-.85,3.62-2.62,7.06-3.88-6.45-10.32-4.21-16-1.23S11.92,66.74,8,64.83C4.22,63,4.19,66.6,4.19,66.89v0l0,0c-1.28-1.47-3.48-4.49-2.6-6.75a7.53,7.53,0,0,1,.76-1.41,30.25,30.25,0,0,1,5.48,3.53c3.51,2.86,2.8-1.39-4.44-4.89A33.6,33.6,0,0,1,7.85,53,119.53,119.53,0,0,1,57.4,27.83c1.93-.47,3.87-.91,5.84-1.31q4.6-.94,9.36-1.62a245.48,245.48,0,0,1,35.06-2.19c38.91,0,63.05,18,75.93,25.48l1,.59C168.32,45.45,145.66,32,103.37,32c-45.48,0-64.24,12.12-68.5,15.42a9,9,0,0,0-7.3-3.82,8.67,8.67,0,0,0-4.72,1.38,9.41,9.41,0,0,0-4.33,8,9.2,9.2,0,0,0,9.05,9.35,9.21,9.21,0,0,0,9.06-9.35c0-.27,0-.55,0-.81C58.49,43.73,79,40.69,114.23,41.48c35.62.81,88.34,19.12,95.79,19.13,7.21,0,6.27-5,6.21-5.28A19,19,0,0,1,221.08,68.08Z" style="fill:#2b2b2b"/><path d="M57.47,61c-3.36,3.31-9.32,10.28-18.68,8.69.31-1.7.53-3.1.7-4.24C43.19,63.65,48.07,62.11,57.47,61Z" style="fill:#2b2b2b"/><path d="M7.79,62.21a31,31,0,0,0-5.48-3.54,12.61,12.61,0,0,1,1-1.36C10.59,60.81,11.3,65.06,7.79,62.21Z" style="fill:#212121"/><path d="M6.18,73.85a38.87,38.87,0,0,1-4.83-3C-1,69,.14,65.94,1.35,66.74a8.16,8.16,0,0,0,3.06.94h0l.15.53,0,.06Z" style="fill:#77867d"/><path d="M287.16,65.05c-1.29-.08-2.83-.15-4.56-.2,7.18-5.7,9-6,2.87-8.48-7-2.82-29.78-23.14-34.2-22.74a44,44,0,0,1-10.69-.7c7.23-2.1,13.49-1.74,17.33,2.38,7.24,7.78,27.36,17.71,33.26,20.92C294.94,58.29,291.61,61.44,287.16,65.05Z" style="fill:#212121"/><path d="M132.34,100.84c-12.87,5.64-37.42,1-37.42,1-13.28-3.45-15.3-8.23-8.65-11.45s9.25-19.14,21.93-24.92,26.76,4,35.21,14.06S145.22,95.21,132.34,100.84Zm68.42-24.21c-9.06.07-39.24,4-52.92-2.78S130.94,57.18,110,62.21,94.36,85.37,81.23,84.6s-10.25,13-7.74,17.23l2.55.39c5.21.73,10.93,1.18,17.6,1.52h0c3.78.2,7.86.36,12.33.53,19.82.72,28.38.28,36.82-2.44C148.41,100,154,97.17,162.73,93a149.89,149.89,0,0,1,16.72-6.85c11.14-3.75,17-3.88,17-3.88s3.54-1.48,10,1.15C207.09,81.19,207.63,76.59,200.76,76.63Z" style="fill:#ef6a71"/><path d="M210.73,85.6l-4.3-2.18A32.3,32.3,0,0,1,210.73,85.6Z" style="fill:#ff9810"/><path d="M239.2,79.24l-.83-.08Z" style="fill:#ff9810"/><path d="M249.66,103.46c-9.66,5.23-13.49-1.61-21.33-6.48a32.9,32.9,0,0,0-7.68-3.69c-2.22-2-4.38-3.84-6.47-5.39l-1-.74c1.33-.75,4,0,8.8,3.42.54.4,1.1.78,1.65,1.17l.73.49.49.32,1,.63c1.29.82,2.55,1.59,3.75,2.25.14.09.29.17.44.25,1,.57,2,1.07,2.8,1.48l.35.17.66.3.31.13a9.55,9.55,0,0,0,1.26.47l.19.05c1,.25,1-.17-.57-1.53a66.51,66.51,0,0,0-5.34-4l-.89-.62-1.15-.8q-.72-.5-1.35-1c-.28-.2-.55-.4-.79-.59s-.5-.38-.71-.56-.48-.4-.67-.59l-.4-.42a1.81,1.81,0,0,1-.18-.23,1.37,1.37,0,0,1-.15-.21,1.24,1.24,0,0,1-.1-.2.9.9,0,0,1-.08-.46c0-.2.22-.24.55-.16a1,1,0,0,1,.23.06,1,1,0,0,1,.27.11,4.22,4.22,0,0,1,.52.22l.7.37a4.49,4.49,0,0,1,.47.26l.46.26.83.49c.89.55,1.89,1.2,3,1.88l4.23,2.79,1.1.74c1.23.79,2.46,1.6,3.64,2.34L240,97l.85.52c.56.34,1.1.66,1.63,1s1,.57,1.48.81c7,3.62-3.36-4.83-9.13-9.26-.27-.2-.5-.39-.71-.58l-.17-.15L233.6,89a3.32,3.32,0,0,1-.69-.87.34.34,0,0,1,0-.12l0-.08a.35.35,0,0,1,.12-.37l.1-.07.12,0a1,1,0,0,1,.32-.06,3.38,3.38,0,0,1,.63,0l.32,0a4,4,0,0,1,.46.08l.31.06.31.07c.68.17,1.49.41,2.4.73.39.14.81.29,1.24.46l1.5.61c2.26,1,4.91,2.22,7.84,3.81,12.08,6.58,5.51-.53-3.26-4.69l-.83-.39L243,87.47c-.22-.12-.44-.22-.65-.32l-1.06-.54-.6-.32c-.18-.09-.34-.19-.5-.28-1.81-1.05-1.3-1.3,2.12-.8l.9.13,1,.17,1.14.19.12,0,.81.15.34.06h0l3.43.63c13.73,2.55,20.48.54,4.65-2.15-.57-.1-1.14-.19-1.69-.3h0l-.88-.16a111.09,111.09,0,0,1-11.28-2.65l-.54-.17-1.09-.35-.6-.21a15.25,15.25,0,0,1-1.43-.61,1.51,1.51,0,0,1-.22-.11,1.25,1.25,0,0,1-.5-.4.31.31,0,0,1,0-.08c0-.08.08-.14.24-.19a2.6,2.6,0,0,1,.64-.06c.28,0,.63,0,1.05,0l.83.08c.45.06,1,.12,1.54.21l.7.11,1.51.2.81.11c.14,0,.29,0,.42.06l1.27.16s0,0,0,0l1.31.16s0,0,0,0l1.4.16.94.1.94.11,1.33.13,1.53.17.48,0,1.42.15c.31,0,.62,0,.92.09h.15l.67.07.53,0a3.42,3.42,0,0,1,.45,0c.58,0,1.15.1,1.69.15l1.94.16.27,0h0l.45,0,.9.07c2.25.15,3.53.19,3,0l-.18,0-.28-.05-.38-.08c-.51-.08-1.23-.2-2.19-.33h0c-1.36-.2-2.88-.46-4.5-.77l-1.41-.29-1.62-.35-2.69-.6-1.05-.25c-.55-.12-1.09-.26-1.64-.39-6.38-1.55-12.92-3.37-17.14-4.58,1.62-.15,3.43-.23,5.2-.24,5.83,0,11.47,2.85,20.52,1.24,4.23-.76,9.8,0,14.63,1.1h0a7.07,7.07,0,0,0,0,2.2c.29,2.23,1.44,4.13,1.89,6.2C276,89.29,259.31,98.23,249.66,103.46Z" style="fill:#9aa003"/><path d="M239.2,79.24l-.83-.08Z" style="fill:#ff9810"/><path d="M236.44,79.37a.31.31,0,0,0,0,.08,1.25,1.25,0,0,0,.5.4,1.51,1.51,0,0,0,.22.11,15.25,15.25,0,0,0,1.43.61l.6.21,1.09.35.54.17A111.09,111.09,0,0,0,252.12,84l.88.16h0c.55.11,1.12.2,1.69.3,15.83,2.69,9.08,4.7-4.65,2.15l-3.43-.63h0l-.34-.06-.81-.15-.12,0-1.14-.19-1-.17-.9-.13c-3.42-.5-3.93-.25-2.12.8.16.09.32.19.5.28l.6.32,1.06.54c.21.1.43.2.65.32l1.47.71.83.39c8.77,4.16,15.34,11.27,3.26,4.69-2.93-1.59-5.58-2.86-7.84-3.81l-1.5-.61c-.43-.17-.85-.32-1.24-.46-.91-.32-1.72-.56-2.4-.73l-.31-.07-.31-.06a4,4,0,0,0-.46-.08l-.32,0a3.38,3.38,0,0,0-.63,0,1,1,0,0,0-.32.06l-.12,0-.1.07a.35.35,0,0,0-.12.37l0,.08a.34.34,0,0,0,0,.12,3.32,3.32,0,0,0,.69.87l.35.32.17.15c.21.19.44.38.71.58,5.77,4.43,16.1,12.88,9.13,9.26-.47-.24-1-.52-1.48-.81s-1.07-.62-1.63-1L240,97l-.88-.55c-1.18-.74-2.41-1.55-3.64-2.34l-1.1-.74-4.23-2.79c-1.07-.68-2.07-1.33-3-1.88l-.83-.49L225.9,88a4.49,4.49,0,0,0-.47-.26l-.7-.37a4.22,4.22,0,0,0-.52-.22,1,1,0,0,0-.27-.11,1,1,0,0,0-.23-.06c-.33-.08-.52,0-.55.16a.9.9,0,0,0,.08.46,1.24,1.24,0,0,0,.1.2,1.37,1.37,0,0,0,.15.21,1.81,1.81,0,0,0,.18.23l.4.42c.19.19.42.38.67.59s.46.37.71.56.51.39.79.59.87.63,1.35,1l1.15.8.89.62a66.51,66.51,0,0,1,5.34,4c1.58,1.36,1.57,1.78.57,1.53a.77.77,0,0,1-.19-.05,9.55,9.55,0,0,1-1.26-.47l-.31-.13-.66-.3-.35-.17c-.84-.41-1.79-.91-2.8-1.48-.15-.08-.3-.16-.44-.25-1.2-.66-2.46-1.43-3.75-2.25l-1-.63-.49-.32-.73-.49c-.55-.39-1.11-.77-1.65-1.17-4.75-3.47-7.47-4.17-8.8-3.42-.83-.58-1.64-1.09-2.41-1.56a22.18,22.18,0,0,0,3.94-2.91h0a20.25,20.25,0,0,0,1.53-1.54c7,3,7.68-.63,6.67-2s6.85-.8,4.83-2.63c-1.4-1.27,1.31-2,5.06-2.39h0c4.22,1.21,10.76,3,17.14,4.58.55.13,1.09.27,1.64.39l1.05.25,2.69.6,1.62.35,1.41.29c1.62.31,3.14.57,4.5.77h0c1,.13,1.68.25,2.19.33l.38.08.28.05.18,0c.48.16-.8.12-3,0l-.9-.07-.45,0h0l-.27,0-1.94-.16c-.54,0-1.11-.11-1.69-.15a3.42,3.42,0,0,0-.45,0l-.53,0-.67-.07h-.15c-.3,0-.61-.07-.92-.09L253.44,81l-.48,0-1.53-.17-1.33-.13-.94-.11-.94-.1-1.4-.16s0,0,0,0l-1.31-.16s0,0,0,0l-1.27-.16c-.13,0-.28,0-.42-.06l-.81-.11-1.51-.2-.7-.11c-.57-.09-1.09-.15-1.54-.21l-.83-.08c-.42,0-.77,0-1.05,0a2.6,2.6,0,0,0-.64.06C236.52,79.23,236.44,79.29,236.44,79.37Z" style="fill:#2b2b2b"/><path d="M242.48,98.49c-.53-.3-1.07-.62-1.63-1C241.41,97.87,242,98.19,242.48,98.49Z" style="fill:#ff9810"/><path d="M39.49,65.46c-.17,1.14-.39,2.55-.7,4.24-.12.57-.23,1.16-.35,1.79A21.32,21.32,0,0,1,27.81,85.74a27.06,27.06,0,0,0-6.34-4.21c-4-1.76-10.66-5.09-15.29-7.68,19.15,7.14,26.5.38,29.64-5.72h0c1.77-3.44,2.18-6.68,2.62-7.06C39.38,60.23,40.25,60,39.49,65.46Z" style="fill:#77867d"/><path d="M35.82,68.13h0C32.68,74.23,25.33,81,6.18,73.85L4.59,68.27l0-.06-.15-.53h0l-.26-.84,0,0v0c0-.29,0-3.91,3.8-2.06,3.93,1.91,6.24,5,11.87,2.07S31.94,61.68,35.82,68.13Z" style="fill:#eac428"/><path d="M70.63,87.1c1.49,2-2,1.74-1.07,3.22s-2.27,1.61-1.34,3.08A2.46,2.46,0,0,1,65,96.76c-2.54-1-7.14-.23-5.77-4.5,4.25,2.9,6.91,2.65,4.2.74s-1.11-3.63,1.88-2.11S66.55,90,63.53,88s1.41-2.52,4.52-.87-1.4-2.25-4.62-4.57,0-1.41,3.41.61,3.83,1.41-.29-2.82,1.81.1,2.51-1.21S59.51,71,59.51,71c.31-8.38,7.95,4.11,10.46,5.68s-1.07,3.63,1,4.52S69.16,85.08,70.63,87.1Z" style="fill:#9aa003"/><path d="M66.84,83.14c-3.41-2-6.63-2.92-3.41-.61s7.74,6.21,4.62,4.57S60.51,86,63.53,88s4.77,4.42,1.78,2.92-4.6.19-1.88,2.11,0,2.16-4.2-.74c.07-.22.16-.47.27-.74,2.15-5.1,0-20,0-20,0-.18,0-.37,0-.54,0,0,10.25,6.85,9.55,8.16s-6.64-3-2.51,1.21S70.27,85.15,66.84,83.14Z" style="fill:#2b2b2b"/><path d="M282.6,64.85c-1.14,0-2.37,0-3.68,0,2.42-6.27-.25-8.39-3.1-9.44C272,54,261.73,45.11,253.23,38.87c-5.22-3.83-12.07-4.48-16.56-4.4l-.17-.14c1.39-.54,2.75-1,4.08-1.39a45,45,0,0,0,10.69.7c4.42-.41,27.16,19.92,34.2,22.73C291.64,58.85,289.78,59.15,282.6,64.85Z" style="fill:#c21f1f"/><path d="M278,88.43c-3.22,1.89-9.93,10.47-24.69,18-12,6.12-23-4.49-32.69-13.12A32.9,32.9,0,0,1,228.33,97c7.84,4.87,11.67,11.71,21.33,6.48S276,89.29,275,84.6c-.45-2.07-1.6-4-1.89-6.2a7.07,7.07,0,0,1,0-2.2c1.48.32,2.88.68,4.16,1C277.16,82.16,280.32,87.1,278,88.43Z" style="fill:#212121"/><path d="M287.16,65.05a85.41,85.41,0,0,0-7.52,6.44,8.28,8.28,0,0,0-2.34,5.73c-1.28-.34-2.68-.7-4.16-1h0c-4.83-1.07-10.4-1.86-14.63-1.1-9,1.61-14.69-1.27-20.52-1.24-1.77,0-3.58.09-5.2.24h0c-3.75.35-6.46,1.12-5.06,2.39,2,1.83-5.83,1.22-4.83,2.63s.33,5.09-6.67,2a19.59,19.59,0,0,0,0-25.82v0a25.76,25.76,0,0,0-4.11-3.76c6.12-1.59,6.76,2.81,10.18,2.05s-1.21,4.18,2.62,4.79,2.81,2.41,6.23,5.57,13.49,4.49,30.19,2.09a129.09,129.09,0,0,1,17.59-1.24c1.31,0,2.54,0,3.68,0C284.33,64.9,285.87,65,287.16,65.05Z" style="fill:#212121"/><path d="M244.89,48.86c-7,1.08-8.18-2.82-8.18-2.82-1.61-4.83,5.77-6.84,11.4-6S251.87,47.79,244.89,48.86Z" style="fill:#2b2b2b"/><path d="M272.53,60.53c-1.75,2.55-12.47,2.81-14.36,0s4.43-6.94,4.43-6.94C272.8,49.61,274.27,58,272.53,60.53Z" style="fill:#2b2b2b"/><path d="M257.83,54.49c-2.76,3.76-11.73,2.82-12.54-.9s7.94-5.47,7.94-5.47C257,47,260.59,50.74,257.83,54.49Z" style="fill:#2b2b2b"/><path d="M233.62,59.24c-4.83-1.83-2.81-3.27-2.81-3.27,4-3,7.78-3.35,10.33-.94S238.45,61.07,233.62,59.24Z" style="fill:#2b2b2b"/><path d="M275.82,55.37C272,54,261.73,45.11,253.23,38.87c-5.22-3.83-12.07-4.48-16.56-4.4,3.69,3.5-.12,7.93-4.72,8.36a6.45,6.45,0,0,1-6.34-3l-1.64,1q-2,1.23-3.89,2.57a77.3,77.3,0,0,1-10.72,6.41,30.5,30.5,0,0,1,2.75,1.78c6.12-1.59,6.76,2.81,10.18,2.05s-1.21,4.18,2.62,4.79,2.81,2.41,6.23,5.57,13.49,4.49,30.19,2.09a129.09,129.09,0,0,1,17.59-1.24C281.34,58.54,278.67,56.42,275.82,55.37ZM222.76,51.2C222,48.58,225.85,46,225.85,46c3.22-1.34,5.36-2.28,7.51,1.88S223.57,53.83,222.76,51.2Zm10.86,8c-4.83-1.83-2.81-3.27-2.81-3.27,4-3,7.78-3.35,10.33-.94S238.45,61.07,233.62,59.24ZM236.71,46c-1.61-4.83,5.77-6.84,11.4-6s3.76,7.79-3.22,8.86S236.71,46,236.71,46Zm8.58,7.55c-.8-3.72,7.94-5.47,7.94-5.47,3.78-1.14,7.36,2.62,4.6,6.37S246.1,57.31,245.29,53.59Zm27.24,6.94c-1.75,2.55-12.47,2.81-14.36,0s4.43-6.94,4.43-6.94C272.8,49.61,274.27,58,272.53,60.53Z" style="fill:#ff9810"/><path d="M222.76,51.2C222,48.58,225.85,46,225.85,46c3.22-1.34,5.36-2.28,7.51,1.88S223.57,53.83,222.76,51.2Z" style="fill:#2b2b2b"/><path d="M60.9,60.65a3.53,3.53,0,0,0-.5-1c-.56-.8-1.52-.06-2.93,1.32-3.36,3.31-9.32,10.28-18.68,8.69-.12.57-.23,1.16-.35,1.79A21.32,21.32,0,0,1,27.81,85.74a14.26,14.26,0,0,0,8.55,3.63A14.51,14.51,0,0,0,40.69,89C47,87.67,53.1,82.79,54.07,78.71c1.21-5,2.41-9,5.63-13.25C59.7,65.46,61.75,63.08,60.9,60.65ZM52.06,77.4c-1.34,3.47-4.57,5-7.89,6-.53.17-1.26.43-2,.67-2.09.62-4.65,1-5.46-1-.71-1.72,8.65-9.26,14-13.08S54.58,70.86,52.06,77.4Z" style="fill:#eac428"/><path d="M50.65,70.06c-5.33,3.82-14.69,11.36-14,13.08.81,2,3.37,1.57,5.46,1,.78-.24,1.51-.5,2-.67,3.32-1,6.55-2.55,7.89-6C54.58,70.86,56,66.23,50.65,70.06Zm.14,6a7.67,7.67,0,0,1-4.7,4.7c-5.28,2,1.28-4.9,3.35-6.94S51.86,72.54,50.79,76.09Z" style="fill:#efce43"/><path d="M50.79,76.09a7.64,7.64,0,0,1-4.7,4.69c-5.28,2,1.28-4.89,3.35-6.93S51.86,72.53,50.79,76.09Z" style="fill:#f7da61"/><path d="M143.41,79.52C135,69.45,120.88,59.69,108.2,65.46S92.91,87.16,86.27,90.38s-4.63,8,8.65,11.45c0,0,24.55,4.65,37.42-1S151.86,89.58,143.41,79.52ZM111.82,97c-15.49-3.86,7-7.2,10.87-18.89s11.26,1.84,11.66,2.44C144.58,95.87,127.31,100.84,111.82,97Z" style="fill:#df7f82"/><path d="M211.22,72.73c-9.86-.86-39.44-13-94.57-13.48-27.21-.23-44.37.31-55.75,1.4.85,2.43-1.2,4.81-1.2,4.81-3.22,4.27-4.42,8.22-5.63,13.25-1,4.08-7.12,9-13.38,10.33C52.8,96.39,62,99.93,73.49,101.83c-2.51-4.25-5.38-18,7.74-17.23S89.08,67.24,110,62.21,134.16,67,147.84,73.85s43.86,2.85,52.92,2.78c6.87,0,6.33,4.56,5.67,6.79a32.3,32.3,0,0,1,4.3,2.18h0a22.18,22.18,0,0,0,3.94-2.91h0C214.9,82.37,220.91,73.57,211.22,72.73ZM70.63,87.1c1.49,2-2,1.74-1.07,3.22s-2.27,1.61-1.34,3.08A2.46,2.46,0,0,1,65,96.76c-2.54-1-7.14-.23-5.77-4.5.07-.22.16-.47.27-.74,2.15-5.1,0-20,0-20,0-.18,0-.37,0-.54.31-8.38,7.95,4.11,10.46,5.68s-1.07,3.63,1,4.52S69.16,85.08,70.63,87.1Zm12.62-7.29c-8,3-10.37-4-12.88-12.88s21.83-4.21,23,0S83.25,79.81,83.25,79.81Z" style="fill:#ead57d"/><path d="M83.25,79.81c-8,3-10.37-4-12.88-12.88s21.83-4.21,23,0S83.25,79.81,83.25,79.81Z" style="fill:#eac428"/><path d="M208,92.33c-4.22-6.08-27.83-6.18-28.55-6.18A149.89,149.89,0,0,0,162.73,93c-8.77,4.17-14.32,7-19.93,8.83.7,1,1.48,2.09,2.37,3.21,2.73,1.54,6.89,3.56,7.16,1.78.4-2.69,10.2,6.56,11.41,4.42s19,5.5,14.75,2,9.53-1.11,13,.92,6.71-1.06,12.74.55,8.87-1.14,12.49.17c2.33.84,10.52,1.86,14.25.46C222.35,110.54,211.89,97.91,208,92.33ZM190,109c-11.92-2.13-14.89.4-25.63-3.62s9.66-18.11,26.84-15.3,23.47,14.23,26,19.8S190.55,109.05,190,109Z" style="fill:#9aa003"/><path d="M186.67,116.6c-12.47-1.07-13-2.14-15.83-3.35s-3.75,4.29-10.73-.13-2.81,1.34-7.38-1.21a26.2,26.2,0,0,1-7.56-6.88c2.73,1.55,6.89,3.57,7.16,1.78.4-2.68,10.2,6.57,11.41,4.43s19,5.5,14.75,2,9.53-1.1,13,.93,6.71-1.06,12.74.55,8.87-1.15,12.49.16c2.33.85,10.52,1.87,14.25.47a17.3,17.3,0,0,0,2.64,1.24C242.61,120,199.15,117.68,186.67,116.6Z" style="fill:#2b2b2b"/><path d="M206,100.9C196.6,95.27,185.87,90,175.41,97s-5.1,8.47-2.15,8.36c0,0,16-.81,24.82,1.07S215.38,106.53,206,100.9ZM204.6,104c-.4.67-1.68.75-2.35.8a21.84,21.84,0,0,1-4.57-.12c-7.71-.84-10.6-3.37-8.92-5.54,1-1.32,3.44-1,4.86-.84a33.46,33.46,0,0,1,4,1C201.27,100.31,205.76,102.1,204.6,104Z" style="fill:#ff9810"/><path d="M217.26,109.84c-2.55-5.57-8.85-17-26-19.8s-37.57,11.28-26.84,15.3S178.11,106.83,190,109C190.55,109.05,219.81,115.42,217.26,109.84Zm-19.18-3.43c-8.85-1.88-24.82-1.07-24.82-1.07-2.95.11-8.32-1.34,2.15-8.36S196.6,95.27,206,100.9,206.93,108.29,198.08,106.41Z" style="fill:#b5b509"/><path d="M206,100.9C196.6,95.27,185.87,90,175.41,97s-5.1,8.47-2.15,8.36c0,0,16-.81,24.82,1.07S215.38,106.53,206,100.9ZM204.6,104c-.4.67-1.68.75-2.35.8a21.84,21.84,0,0,1-4.57-.12c-7.71-.84-10.6-3.37-8.92-5.54,1-1.32,3.44-1,4.86-.84a33.46,33.46,0,0,1,4,1C201.27,100.31,205.76,102.1,204.6,104Z" style="fill:#c6c110"/><path d="M204.6,104c-.4.67-1.68.75-2.35.81a22.54,22.54,0,0,1-4.57-.12c-7.71-.85-10.6-3.37-8.92-5.54,1-1.32,3.44-1,4.86-.84a33.46,33.46,0,0,1,4,1C201.27,100.31,205.76,102.1,204.6,104Z" style="fill:#e2d71a"/><path d="M36.63,52.92a9.21,9.21,0,0,1-9.06,9.35,9.2,9.2,0,0,1-9-9.35,9.43,9.43,0,0,1,4.33-8c-.45,1.08-.84,2.56-.13,3A7.17,7.17,0,1,0,34,52.44c1,2.26,1.89-.29,2.17-2.6a10,10,0,0,1,.47,2.27C36.62,52.37,36.63,52.65,36.63,52.92Z" style="fill:#eac428"/><path d="M34,52.45v0a7.2,7.2,0,0,0-5.07-5.57,3.64,3.64,0,0,0-3.14-.19l-.18.08c-.68.34-1.23.9-1.94,1.17a1,1,0,0,1-.89,0h0a7.18,7.18,0,1,0,11.36,5.83A7,7,0,0,0,34,52.45Zm-7.72,6.34a5,5,0,1,1,5-5A5,5,0,0,1,26.24,58.79Z" style="fill:#9acae2"/><path d="M26.24,48.73a5,5,0,1,0,5,5A5,5,0,0,0,26.24,48.73Zm0,8.65a3.62,3.62,0,1,1,3.62-3.62A3.62,3.62,0,0,1,26.24,57.38Z" style="fill:#eae3dd"/><path d="M29.86,53.76a3.63,3.63,0,1,1-3.62-3.63A3.63,3.63,0,0,1,29.86,53.76Z" style="fill:#212121"/><path d="M36.13,49.84c-.28,2.31-1.19,4.86-2.17,2.6h0a7.2,7.2,0,0,0-5.07-5.57,3.68,3.68,0,0,0-3.14-.2l-.18.09c-.68.33-1.23.9-1.94,1.17a1,1,0,0,1-.89,0h0c-.71-.44-.32-1.92.13-3a8.75,8.75,0,0,1,4.72-1.37,9,9,0,0,1,7.3,3.81,9.47,9.47,0,0,1,1,1.67C35.93,49.3,36,49.57,36.13,49.84Z" style="fill:#ef6a71"/><path d="M111.82,97c-15.49-3.87,7-7.21,10.87-18.89s11.26,1.83,11.66,2.44C144.58,95.87,127.31,100.84,111.82,97Z" style="fill:#ea969d"/><path d="M234.26,10.8c-6,2.51-10.22,1.71-17.53,3.82s-7.72.5-11.64,1.91-7.65-.4-11.57,1.11-5.84-.91-9.26,0-5.84-3.62-11-2.11-9.16-4.33-12.78-2.76S150.15,11.2,146.83,12c-2.21.54-5.41-1.66-8.59-2.7,1.37,3.91,2.25,5.11,7.18,5.32s7,5.45,7,5.45c2.83.3,8.92-2.94,9.69-.32.94,3.21,9.52-.27,10.06,2.95s4.83,2,4.83,4.83,4.29,1.61,7.1,3.48,50-18.37,39.31-10.33-42.12,16.63-26.16,14.62,22.14-2.51,8.72,2.1-18.37,8-13.82,7,20.78-6.59,6.63,3.67a45.69,45.69,0,0,1,8-1.54c4.62-.33.8-5.5,6.74-6.75s1.71-5.39,6.54-7,5-2.41,8-11.27c1.63-4.76,12.29-9.7,22.23-13.7C245.1,8.37,237.86,9.3,234.26,10.8ZM183.05,27.9c-4.63,1-6.64-2.51-5.73-6.54s7.74-.9,7.74-.9C190.9,23.47,187.68,26.9,183.05,27.9ZM195.93,26c-3.32,1.51-5.84,1.31-5-3.28s7-1.44,7-1.44C199.86,22,199.25,24.49,195.93,26Zm7.55-3.28c-3.43-.28-1.61-2.35,2-4.07s3.72,2.22,3.72,2.22C209.36,21.76,206.89,23,203.48,22.71Z" style="fill:#ff9810"/><path d="M223.43,20.69c-10.73,8-42.12,16.63-26.16,14.62s22.14-2.51,8.72,2.1-18.37,8-13.82,7,20.78-6.58,6.63,3.68c-1.84.51-3.14.93-3.14.93a26.4,26.4,0,0,1-11-.27h0c-.35-.18-.69-.38-1-.58-12.88-7.51-37-25.49-75.93-25.49A247,247,0,0,0,72.6,24.89s7-10.11,8.23-7.29,7.51-3,8.32-.67,5.77-3.52,7-.55,6.58-4.16,8.72-.86,7.65-3,8.86.21,9.12-1.48,9.79.53,7.65-3.22,9.39.67,7.92-1.61,9.79,1.35,7.37-2,8.44.93a1.41,1.41,0,0,0,1.33.87c2.83.3,8.92-2.94,9.69-.32.94,3.21,9.52-.28,10.06,2.94s4.83,2,4.83,4.83,4.29,1.61,7.1,3.49S234.16,12.64,223.43,20.69Z" style="fill:#212121"/><path d="M268.17.43c-1.31,1.31-9.29,4-17.81,7.43-5.26.51-12.5,1.43-16.1,2.94-6,2.51-10.22,1.71-17.53,3.81s-7.72.51-11.64,1.92-7.65-.4-11.57,1.11-5.84-.91-9.26,0-5.84-3.62-11-2.12-9.16-4.32-12.78-2.76S150.15,11.2,146.83,12c-2.21.54-5.41-1.66-8.59-2.71a6.94,6.94,0,0,0-4.59-.22c-4.32,1.61-7-2.92-11.37-1.71s-9,3.32-11.47,1.31-2.61-.8-5.83.7S97.83,12.81,95.42,11s-2.92.11-6.74,1.67-6.33,1.05-6.64,0-3.22,1.15-5.84,3.56-4,3.93-4.22,2.42-1-.1-2.72,2-3.41.68-4,2.05c-.35.82-1.28,2.54-2,3.82-2,.39-3.91.84-5.84,1.31,2.84-4,8.78-11.77,10.15-9.49,1.81,3,6.24-10.06,8.25-5.83s8.45-9.66,9.86-3.63S97.73,1.44,99.14,6.27,109.81.11,110.61,5.2s15-3.76,15.45.46,13.3-4,13,2,11-2,11.79,2.41,13.88-4.63,14.28.81,12.28-1,13.08,2.61,16.12-1.21,18.32,1,13.57-3.42,15.54-1.81S226,9.49,233.62,9.49,271-2.38,268.17.43Z" style="fill:#c21f1f"/><path d="M152.44,20.08a1.41,1.41,0,0,1-1.33-.87c-1.07-2.95-6.56,2-8.44-.93s-8,2.54-9.79-1.35-8.72,1.35-9.39-.67-8.59,2.68-9.79-.53-6.71,3.08-8.86-.21-7.51,3.83-8.72.86-6.17,2.83-7,.55-7.11,3.49-8.32.67-8.23,7.29-8.23,7.29q-4.75.69-9.36,1.63c.71-1.28,1.64-3,2-3.82.62-1.37,2.32.07,4-2.05s2.52-3.52,2.72-2,1.61,0,4.22-2.42S81.73,11.6,82,12.66s2.82,1.55,6.64,0S93,9.19,95.42,11s6.34-.09,9.56-1.61,3.31-2.71,5.83-.7,7.14-.1,11.47-1.31,7.05,3.32,11.37,1.71a6.94,6.94,0,0,1,4.59.22c1.37,3.92,2.25,5.12,7.18,5.32S152.44,20.08,152.44,20.08Z" style="fill:#9acae2"/><path d="M183.05,27.9c-4.63,1-6.64-2.52-5.73-6.54s7.74-.9,7.74-.9C190.9,23.47,187.68,26.9,183.05,27.9Z" style="fill:#212121"/><path d="M195.93,26c-3.32,1.5-5.84,1.31-5-3.29s7-1.44,7-1.44C199.86,22,199.25,24.48,195.93,26Z" style="fill:#212121"/><path d="M209.21,20.86c.15.9-2.32,2.11-5.73,1.84s-1.61-2.35,2-4.06S209.21,20.86,209.21,20.86Z" style="fill:#212121"/><path d="M128.1,134.85c-1.19-3.82-7.63-8.65-5.21-8.25s-4.83-5.63-3.22-5.63-6.35-4-4.79-4.91-2.52-7.9-7.42-7.83-9.51-.92-13.81-4.49h0C87,103.4,81.25,103,76,102.22A70.2,70.2,0,0,0,88.11,120.5h0c16.08,12.6,37,20.69,42.08,22.79,3.49,1.46,4.41-.05,4.53-1.73C131.64,139.24,128.92,137.47,128.1,134.85ZM87.94,116.06c-11.48-12.22-5.9-11.93,0-8.92s22.27,7.59,22.27,7.59c2.5.71,2.41,2.55,3.22,3.64s.4,2.66,3.36,4.13.4,4.57,2.81,5.37,1.34,2.82,3.35,3.76,1.75,2.42,4.3,7.11S99.42,128.27,87.94,116.06Z" style="fill:#2b2b2b"/><path d="M103.17,132.84a65,65,0,0,1-15-12.34c16.08,12.61,37,20.7,42.08,22.8,3.49,1.46,4.41-.05,4.53-1.73a38,38,0,0,1,4.34,3.74C143.58,149.94,123.89,145.11,103.17,132.84Z" style="fill:#9acae2"/><path d="M127.25,138.74c-2.55-4.69-2.29-6.17-4.3-7.11s-.93-2.95-3.35-3.76.13-3.89-2.81-5.37-2.56-3-3.36-4.13-.72-2.93-3.22-3.64c0,0-16.36-4.59-22.27-7.59s-11.48-3.3,0,8.92S129.79,143.44,127.25,138.74Zm-4.22-1.8c-.55.3-1.7-.39-2.16-.63l-1.85-1c-2.33-1.25-4.63-2.59-6.85-4A166.38,166.38,0,0,1,93.78,117.7c-2.27-1.93-4.51-3.89-6.62-6-.89-.89-2.52-2.17-2.84-3.47-.67-2.75,13.15,8.11,18.38,10.14s1.74,3.87,5.76,4.13,2.29,3.5,5.64,3.92,5.5,3.2,8.45,8.17C122.84,135.07,123.83,136.51,123,136.94Z" style="fill:#ef6a71"/><path d="M123,136.94c-.55.3-1.7-.39-2.16-.64-.62-.31-1.23-.63-1.85-1-2.33-1.25-4.63-2.59-6.85-4A167.66,167.66,0,0,1,93.78,117.7c-2.27-1.93-4.51-3.89-6.62-6-.89-.89-2.52-2.17-2.84-3.48-.67-2.74,13.15,8.12,18.38,10.14s1.74,3.88,5.76,4.14,2.29,3.49,5.64,3.92,5.5,3.2,8.45,8.16C122.84,135.07,123.83,136.51,123,136.94Z" style="fill:#ea969d"/><path d="M27.88,51.79a1.4,1.4,0,1,1,1.4,1.4A1.4,1.4,0,0,1,27.88,51.79Z" style="fill:#eae3dd"/><path d="M76,56.59s38.6-3.89,64.62,0-2.41-13.17-35.28-12.15S61.74,50,63.24,53.76,76,56.59,76,56.59Z" style="fill:#3f3f3f"/><path d="M103.37,51.18c2.7.92,7.43.94,8.2,1,4.58.31,9.17.57,13.76.51.61,0,8.1,0,7.12-1.7-1.58-2.63-7.32-3.18-10-3.66a65.15,65.15,0,0,0-10.92-1.18c-2.85,0-7.77-.35-9.69,2.33C100.93,49.8,101.81,50.64,103.37,51.18Z" style="fill:#4f5051"/></g></g></svg>