<svg xmlns="http://www.w3.org/2000/svg" viewBox="0 0 289 177.11"><title>lionhead-goldfish</title><g id="Layer_2" data-name="Layer 2"><g id="Ñëîé_2" data-name="Ñëîé 2"><path d="M99.79,43.71c0,3.1-.09,7.66-.44,12.89,0,0-1.4,4.7-4.55,5s-2.36-3.4-7.35-2.49S80.36,55.79,77,54s-10.25-4.72-9.2-6.83,1.58-6.82-1.57-8.4-7.62-5-7.88-1.57-.79,4.72-5.78,4.2S46.67,40,45.13,42.92s-8.36,5.38-12.3,5.71-4.46,1.65-6.83,4-5.25,5-8.14,1.84-3.94-1-2.89,2.62.27,6.72-2.89,12S7.88,75.75,5.26,75a30.7,30.7,0,0,0-4.7-1.13C1.88,69,5.9,60.43,15.85,44.67,28,25.39,42.79,13.05,65.74,6.43A7,7,0,0,1,63.29,13C58.56,16.66,65.92,18.76,77,24c6.83,3.25,14,5.5,18.41,9.55A13,13,0,0,1,99.79,43.71Z" style="fill:#fc673b"/><path d="M94.8,61.57c-3.15.26-2.36-3.4-7.35-2.49S80.36,55.79,77,54s-10.25-4.72-9.2-6.83,1.58-6.82-1.57-8.4-7.62-5-7.88-1.57-.79,4.72-5.78,4.2S46.67,40,45.13,42.92s-8.36,5.38-12.3,5.71-4.46,1.65-6.83,4-5.25,5-8.14,1.84-3.94-1-2.89,2.62.27,6.72-2.89,12S7.88,75.75,5.26,75a30.7,30.7,0,0,0-4.7-1.13A14.22,14.22,0,0,0,0,76.93c8.44.33,12.15,6.58,8.79,4.51a7.2,7.2,0,0,0-7.13,0s-3,4.9,3.85,10c.31.24.74.55,1.28.93,0,0,5.55-2.67,16.31,3.37S43.15,107,47.44,107s21.74-.8,27.93-25.14,13.13,4.9,1.2,24.19c3.33-2.24,6.55-4.69,9.57-7.19,9.1-7.56,12.2-27.55,13.21-42.26C99.35,56.6,98,61.3,94.8,61.57ZM39.19,48.45a12,12,0,1,1-12.13,12A12.08,12.08,0,0,1,39.19,48.45ZM31,89.8c-11.29-7.74-10.77-15.89,4.2-11.69s13.66-7.61,19.7-14C59.68,59,62.75,72,63.4,74.67a47.52,47.52,0,0,1,.87,4.72C66.87,99.63,42.61,97.77,31,89.8Z" style="fill:#edcbb9"/><path d="M76.57,106.05c-6.67,4.48-13.77,8.08-20.65,9.5a26.65,26.65,0,0,1-10.77.18h0A394.43,394.43,0,0,1,6.8,92.34s5.55-2.67,16.31,3.37S43.15,107,47.44,107s21.74-.8,27.93-25.14S88.5,86.76,76.57,106.05Z" style="fill:#ddbaab"/><path d="M175.09,14C149.46,5.87,117.33,3.74,95.5,5.49c-5.17.41-17.76,2-17.1,9.77.73,8.52,12.53,9.56,19,10.59q3.24.52,6.49,1c.93,2.64-1.67,4.25-4.87,5.6a20.34,20.34,0,0,1-3.64,1.12C90.92,29.52,83.78,27.27,77,24c-11-5.26-18.39-7.36-13.66-11a7,7,0,0,0,2.45-6.56c16.64-4.81,37.58-6.61,65-5.87A214.87,214.87,0,0,1,161,3.31a132,132,0,0,1,13.87,3.06A27.11,27.11,0,0,1,175.09,14Z" style="fill:#ff8f29"/><path d="M221.9,51.15c-6.1,12.9-14.53,12.93-14.6,12.93a14.93,14.93,0,0,0-3.14-1.18h0c-.38-.32-19-15.92-37.93-11-19.17,4.93-17.59,11-15.49,25.06,1.41,9.46-7.05,36.9-36.2,45l-.05-.06c-1.53-1.82-3.09-3.61-4.69-5.34,1.56-.28,3.1-.63,4.58-1a46.79,46.79,0,0,0,7.13-2.43,40.18,40.18,0,0,0,15.31-11.18,32.79,32.79,0,0,0,5.42-9.58c7.64-21.26-7-22.06-25.38-14.18s-30.2,22.59-26.52,32.3a10,10,0,0,0,7,6c.23.07.47.12.7.18,1.62,2.28,3.46,4.75,5.43,7.26-12.64,1.12-28.31-1-47.53-8.31,6.88-1.42,14-5,20.65-9.5,3.33-2.24,6.55-4.69,9.57-7.19,9.1-7.56,12.2-27.55,13.21-42.26.35-5.23.44-9.79.44-12.89a13,13,0,0,0-4.43-10.14A20.34,20.34,0,0,0,99,32.45c3.2-1.35,5.8-3,4.87-5.6,5.52.81,11,1.56,16.57,2.32,1.15,3.32-.93,7.81-1.74,9-1,1.57,1.31,4.2,6.56,7.6s5.26,2.64,6,11,12.61,5.25,12.61,5.25c8.15-2.1,3.15-4.46.59-8.66s3.87-8.93,7.55-9.72,9.19-3.68,7.35-7.09l-.49-.92c4.18.89,8.33,1.85,12.46,2.92,7.88,2,15.45,5.08,23.21,7.5l1.32.4c5.45,1.65,13.39,3.64,17.77-.67,4.73-4.65-4-18.48-30.63-29q-3.85-1.52-7.95-2.82a27.11,27.11,0,0,0-.25-7.67,92.15,92.15,0,0,1,9.58,3.23,57.57,57.57,0,0,1,13.36,7.29,28.84,28.84,0,0,1,5.94,5.84c.48.66.9,1.3,1.34,1.88,2.9,3.82,8.28,4.3,12.75,2.91C217.81,27.52,228,38.2,221.9,51.15Z" style="fill:#eae3dd"/><path d="M152.05,43.71c-3.68.79-10.11,5.52-7.55,9.72s7.56,6.56-.59,8.66c0,0-11.82,3.15-12.61-5.25s-.78-7.65-6-11-7.61-6-6.56-7.6c.81-1.22,2.89-5.71,1.74-9,6.15.84,12.29,1.72,18.42,2.73l3,.51c5.71,1,11.41,2.07,17.08,3.29h0l.49.92C161.24,40,155.73,42.92,152.05,43.71Z" style="fill:#ff8f29"/><path d="M115.83,138.15c-1,0-1.93.08-2.91.1-19.86.27-46.12-10.94-67.77-22.52a26.65,26.65,0,0,0,10.77-.18c19.22,7.3,34.89,9.43,47.53,8.31A172.93,172.93,0,0,0,115.83,138.15Z" style="fill:#e0dad5"/><path d="M204.16,62.9a9.37,9.37,0,0,0-2.22-.28c-5.25,0-6.56,2.36-14.44,23.63-3.75,10.11-12.12,22.24-24,32.24a84.82,84.82,0,0,1-31.82,17.07q-3,.83-6.08,1.41c-2.92-5.46-7.22-10.49-11.07-15.09,29.15-8.07,37.61-35.51,36.2-45-2.1-14.06-3.68-20.13,15.49-25.06C185.2,47,203.78,62.58,204.16,62.9Z" style="fill:#e0dad5"/><path d="M282.56,15.88c-4.73,2.36-15.23,10.76-13.39,12.07s-3.94,7.09-2.37,8.67-1.05,6.83-4.72,8.4-3.42,7.88,0,12.35,3.41,14.7,6.3,16.54,1.05,6,3.15,7.88-.79,5.77,1.05,8.14.53,8.14.53,13.92,8.4,16.8-6.31,12.6c-5.62-1.61-12.2-5.56-18.63-10.49,7.72,3.48,14.68,5.56,11.54,3.84-5.42-3-13.3-9.11-1.51-3.68s8.51,1,7.46.7-8.22-5.95-14.35-10.68,0,0,7.71,2.45,11.55-1.4.17-6.82-19.61-13.66-13.83-9.28,14,7,18.38,7-6.13-6.13-13.83-10.33,6.3,2.63,14.53,4.9-2.63-4.55-11-8.4-14.35-9.46-6.13-5.78,17.16,5.61,15.59,3.68-19.26-9.46-26.39-15.05.13-1.23,11.85,4.2,12.08,3.15,12.08,2.27-9.8-6.3-17-10,6.13.7,12.78,1.75-4-4.73-14-8-2.63-3,5.25-1.75,12.25-1.4,3.5-3.15-3.68-3.15,4.55-2.8,6.48-3.16,0-3-30.81,0-12.08-2.1,21.89-5.08,16.84-5.08-4.06-1.75.85-2.27,6.47-2.28,2.27-2.63-2.8-1.4,1.05-1.57,6.65-4,3.33-3.15-7.53-1.76,1.05-3,13.48-5.08,4.38-4.2-7.71-2.46.69-3.51,11.73-3.67,5.95-4-22,2.1-19.25.87S279.25,4.14,278.27,3C277.05,1.61,271.66.84,267,.43c10.65-1.52,17.14,1.35,18.76,2.84,3.15,2.89.53,4.46,2.63,6S287.29,13.51,282.56,15.88Z" style="fill:#eae3dd"/><path d="M273.2,14c9.1-.88,4.2,3-4.38,4.2s-4.38,3.85-1.05,3,.52,3-3.33,3.15-5.25,1.22-1.05,1.57,2.63,2.1-2.27,2.63-5.9,2.27-.85,2.27,1.9,3-16.84,5.08S249,38.2,255.51,38s8.23,3.33,0,3-13.3,1-4.55,2.8,4.38,4.37-3.5,3.15-15.23-1.57-5.25,1.75,20.66,9.1,14,8-20-5.42-12.78-1.75,17,9.1,17,10-.34,3.15-12.08-2.27-19-9.81-11.85-4.2,24.81,13.13,26.39,15.05-7.36,0-15.59-3.68-2.27,1.93,6.13,5.78,19.26,10.68,11,8.4-22.23-9.1-14.53-4.9,18.21,10.33,13.83,10.33-12.6-2.62-18.38-7,2.45,3.85,13.83,9.28,7.52,9.28-.17,6.82-13.84-7.18-7.71-2.45,13.3,10.33,14.35,10.68,4.33,4.73-7.46-.7-3.91.7,1.51,3.68c3.14,1.72-3.82-.36-11.54-3.84h0C237.78,98,227.81,87.41,223,80c-5.52-8.46-11-13.57-15.65-15.87.07,0,8.5,0,14.6-12.93s-4.09-23.63-4.09-23.63a14.48,14.48,0,0,0,3.8-1.8,22.73,22.73,0,0,0,4.75-4.33C243.18,7.25,256.91,1.88,267,.43c4.71.41,10.1,1.18,11.32,2.58,1,1.13-14.88,3.15-17.68,4.37s13.48-1.22,19.25-.87,2.46,3-5.95,4S264.09,14.91,273.2,14Z" style="fill:#fc673b"/><path d="M8.8,81.44a7.2,7.2,0,0,0-7.13,0c-.57-1-1.79-1.75-1.66-4.51C8.45,77.26,12.16,83.51,8.8,81.44Z" style="fill:#414142"/><path d="M39.39,58.55a4.2,4.2,0,1,1-4.2-4.2A4.2,4.2,0,0,1,39.39,58.55Z" style="fill:#2b2b2b"/><path d="M39.19,48.45a12,12,0,1,0,12.15,12A12.07,12.07,0,0,0,39.19,48.45Zm-1.37,19.3a8.54,8.54,0,1,1,8.54-8.54A8.54,8.54,0,0,1,37.82,67.75Z" style="fill:#ddbaab"/><path d="M37.82,50.67a8.54,8.54,0,1,0,8.54,8.54A8.54,8.54,0,0,0,37.82,50.67ZM35.19,62.75a4.2,4.2,0,1,1,4.2-4.2A4.2,4.2,0,0,1,35.19,62.75Z" style="fill:#f2eeeb"/><path d="M31,89.8c-11.29-7.74-10.77-15.89,4.2-11.69s13.66-7.61,19.7-14C59.68,59,62.75,72,63.4,74.67a47.52,47.52,0,0,1,.87,4.72C66.87,99.63,42.61,97.77,31,89.8Z" style="fill:#f1d5c7"/><path d="M142.24,92.29a32.79,32.79,0,0,1-5.42,9.58,40.18,40.18,0,0,1-15.31,11.18,46.79,46.79,0,0,1-7.13,2.43c-1.48.37-3,.72-4.58,1-1.45-1.57-2.93-3.11-4.46-4.59-2.06-2-4.82-5.17-7.88-6.53a6,6,0,0,0-5.55.06c-.87.48,1.84,5.16,6.11,11.18-.23-.06-.47-.11-.7-.18a10,10,0,0,1-7-6c-3.68-9.71,8.14-24.42,26.52-32.3S149.88,71,142.24,92.29Z" style="fill:#f2eeeb"/><path d="M175.09,14a3.42,3.42,0,0,1-1,2.1c-2.63,2.1-1.84,3.94-2.89,8.14s-2.1,5.51-8.67,5.51c-6,0-5.21,2.82-3.64,5.91-5.67-1.22-11.37-2.29-17.08-3.29l-3-.51c-6.13-1-12.27-1.89-18.42-2.73a4.76,4.76,0,0,0-2-2.53c-4.48-2.89,1.3-6.83-4-8.66s-10-1.84-12.87-.53-.79,4.73,1.58,8.14a5.69,5.69,0,0,1,.66,1.26q-3.25-.48-6.49-1c-6.45-1-18.25-2.07-19-10.59C77.74,7.53,90.33,5.9,95.5,5.49,117.33,3.74,149.46,5.87,175.09,14Z" style="fill:#ffa554"/><path d="M120.44,29.17c-5.53-.76-11-1.51-16.57-2.32a5.69,5.69,0,0,0-.66-1.26c-2.37-3.41-4.47-6.83-1.58-8.14s7.62-1.31,12.87.53-.53,5.77,4,8.66A4.76,4.76,0,0,1,120.44,29.17Z" style="fill:#f2eeeb"/><path d="M213.67,45.85c-4.38,4.31-12.32,2.32-17.77.67l-1.32-.4c-7.76-2.42-15.33-5.47-23.21-7.5-4.13-1.07-8.28-2-12.46-2.92h0c-1.57-3.09-2.32-5.91,3.64-5.91,6.57,0,7.62-1.31,8.67-5.51s.26-6,2.89-8.14a3.42,3.42,0,0,0,1-2.1q4.09,1.31,7.95,2.82C209.65,27.37,218.4,41.2,213.67,45.85Z" style="fill:#f2eeeb"/><path d="M169.21,149.71c6.47,3-11-2.78-18.21-7s8.75,9.62,16.45,13.12-1.22,3.32-10-3.15.36,1.92,4.56,5.42,7.88,8.23-.53,4.73-15.06-9.44-4.37,1.24c9.86,9.85,5.53,7-7.6-.78-11.47-12.16-17.84-27.74-17.84-27.74a84.82,84.82,0,0,0,31.82-17.07c8.31-1.38,10.07-.2,11.76-1.35s2,1.94,3.83,5.88,2.62,15.75,5.25,17.85-1,5.25,2.1,5.78c2.17.36.6,3,.53,5a108.67,108.67,0,0,1-22.5-7C151.7,139.21,162.73,146.74,169.21,149.71Z" style="fill:#f2eeeb"/><path d="M188.55,165.29c2.36,1.58-3.94,1.58-2.89,2.63s-3.94,1.84-2.1,4.2-5.51.26-3.68,2.63-6.82,2.36-6.82,2.36c-9.27-1.4-17.18-7.08-23.53-13.81,13.13,7.8,17.46,10.63,7.6.78-10.69-10.68-4-4.74,4.37-1.24s4.73-1.22.53-4.73-13.31-11.9-4.56-5.42,17.69,6.65,10,3.15S143.82,138.51,151,142.72s24.68,10,18.21,7-17.51-10.5-4.73-5.07a108.67,108.67,0,0,0,22.5,7,1.94,1.94,0,0,0,1.31,2.1c3.41,1.31-1,5.25.8,6.56S186.19,163.72,188.55,165.29Z" style="fill:#ff8f29"/><path d="M128.39,148.09c-12.13-8.51-30.93-42.73-30.93-42.73,3.06,1.36,5.83,4.55,7.88,6.53,1.53,1.48,3,3,4.46,4.59q2.42,2.61,4.69,5.34l.05.06c3.85,4.6,8.15,9.63,11.06,15.09a36.35,36.35,0,0,1,1.77,3.81C129.78,147,131.73,150,128.39,148.09Z" style="fill:#ffa554"/><path d="M128.39,148.09c-1.26-.72-3.26-2.13-6.28-4.33a54.72,54.72,0,0,1-6.28-5.61,174.84,174.84,0,0,1-12.38-14.29c-2-2.51-3.81-5-5.43-7.26-4.28-6-7-10.7-6.1-11.18a5.91,5.91,0,0,1,5.54-.06S116.26,139.58,128.39,148.09Z" style="fill:#ff8f29"/><path d="M36.65,56.05a3.4,3.4,0,1,1,3.4,3.4A3.4,3.4,0,0,1,36.65,56.05Z" style="fill:#f2eeeb"/><path d="M226.83,50.86a40,40,0,0,1-4.53,10.52,7.51,7.51,0,0,1-2.07,2.54c-2.72,1.74,5.67,16.7,13.43,23.89s16.18,8.35,9.63,0-14.12-19.19-12.57-29.12a32,32,0,0,0,.43-8.89c-.15-1.19-.42-2.9-1.47-3.68a1.22,1.22,0,0,0-1.92.53,4.73,4.73,0,0,0-.35,1.34A29.14,29.14,0,0,1,226.83,50.86Z" style="fill:#ff8e5c"/><path d="M173,172.51c.69-.35,11.26-4.27,12.17-11.4s-6.09-7.25-9.2-2.33-6.08,9.21-8.67,11.6S166.87,175.62,173,172.51Z" style="fill:#ffa554"/></g></g></svg>