<svg xmlns="http://www.w3.org/2000/svg" viewBox="0 0 306.19 113.37"><title>lionhead</title><g id="Layer_2" data-name="Layer 2"><g id="Ñëîé_2" data-name="Ñëîé 2"><path d="M106.86,42.19c-6-8.57-9.79-13.14-9.91-16.14a67,67,0,0,0-7.4,3.56c-32,17.92-22.29,1.84-36.42-7h0c-7.2-2-25.85-5.62-34.73,6.65-11.13,15.39.55,19.66-4.46,27.26C9.81,62.73,2.68,67.61.59,72.34c1.12-.37,3.08-.29,6.48,1.1,5.3,2.17,13.4,5.86,17.4,9.71h0c4.28-.85,6.21,1.34,6.21,1.34a10.3,10.3,0,0,1,3.59-.75c9.64-.62,23.74-2.28,24.11-11.59S57.8,54.52,63.7,54.68c0,0,23-1.36,18.55,12.12-.93,2.81-1.74,5.62-2.53,8.32,3.36-1.88,5.88.34,7,1.7l2-1.68c5.27-4.47,11.81-10.28,16.1-12.72,2.53-1.43,4.28-1.7,4.52.18.74,5.8-4,15,5.82,17.3a10.53,10.53,0,0,1,3.45,1.55A65.37,65.37,0,0,0,106.86,42.19ZM49.55,79.35c-11.5,2-17.66,3.23-20.52.94s-.81-2.3,3.82-6.57,6.87-6.25.56-11.56C33,61.79,28,56.85,30.69,50.72s8.1-9.45,14.22-5.93,9.27,7.28,9.46,9.85,2.41,0,3,3.15S61.05,77.37,49.55,79.35Z" style="fill:#4c4c72"/><path d="M106.06,104.05c-36,2.62-78.77,1.62-85.26,1-7.8-.72-12.22-4.81-15.55-9.84,7.12.61,18.05-1.59,21-5.93,1.34-2,.37-4.07-1.79-6.15,4.28-.85,6.21,1.34,6.21,1.34-4.37,2,.37,7.21,8.65,10,9.89,3.34,14.84,5.44,25.85,2.22,8.71-2.54,11.53-11.36,14.53-21.6,3.36-1.88,5.88.34,7,1.7l-.13.11-1.37,1.12c-8.16,6.56,4.25,14.06,4.7,14.4a24.62,24.62,0,0,0,2.75,1.79c.65.35,1.37.73,2.17,1.09h0C95,95.6,97.74,100.89,106.06,104.05Z" style="fill:#70708e"/><path d="M240.78,48.47a112.9,112.9,0,0,1-12.21-1.58c-1.45-5.21-4.24-6.18-6.47-6.18-.93,0-1,1.78-.9,4.59a111,111,0,0,1-12.28-3.8h0c-.13-.27-.27-.54-.41-.79-6.92-12.37-13.55-10.25-11.72-4.39h0c-4.82-2-10.64-4.37-17.13-6.59-5.55-7.68-10.43-8.54-7.86-2.51a179.5,179.5,0,0,0-21.67-5.11,40.13,40.13,0,0,0-3.44-3.85s-12.13-4.21-11.75,2.15a96.91,96.91,0,0,0-25.39,1.78,7.52,7.52,0,0,0-6.87-1c-4.08,1.43-5.81,2.77-5.72,4.88a67,67,0,0,0-7.4,3.56c-32,17.92-22.29,1.84-36.42-7,1.82.51,2.91.9,2.91.9a20.5,20.5,0,0,0,6.86.92h0c1.41,0,2.81-.1,4.06-.19a35.28,35.28,0,0,0,8-1.49c2.37-.74,4.58-1.87,6.95-2.62A94.16,94.16,0,0,1,93,17.5a188.09,188.09,0,0,1,33.66-3.26c40.7-.36,68.26,13.11,86.08,20.75,3.18,1.36,6.05,2.54,8.63,3.41A31.93,31.93,0,0,0,227.55,40a50.93,50.93,0,0,0,11.73.2,39.06,39.06,0,0,1,1,4A36.42,36.42,0,0,1,240.78,48.47Z" style="fill:#383756"/><path d="M116.59,97.76c-.41,1.81-.87,3.66-1.41,5.54q-4.46.42-9.11.75h0C97.74,100.89,95,95.6,94.85,95.34a36.7,36.7,0,0,0,17.63,3.07l1.18-.09A13.86,13.86,0,0,0,116.59,97.76Z" style="fill:#4c4c72"/><path d="M159.16,86.11a108.87,108.87,0,0,1-12.46,5.23c6.08-36.15-4.86-55.82-10.41-66.71a10.74,10.74,0,0,1-1.36-4.21c-.38-6.36,11.75-2.15,11.75-2.15a40.13,40.13,0,0,1,3.44,3.85C164.64,40.55,162.23,69.39,159.16,86.11Z" style="fill:#8a86bf"/><path d="M185.77,71h0c-1.72.87-3.54,1.92-5.46,3.13-1.37.86-2.69,1.68-4,2.47,4.38-22.61-1.76-42.83-4.54-49.33-2.57-6,2.31-5.17,7.86,2.51a51.42,51.42,0,0,1,4.87,8.5C188.26,46.4,187.37,60.1,185.77,71Z" style="fill:#8a86bf"/><path d="M210.71,67.85c-.54.1-1.08.21-1.62.34A16.45,16.45,0,0,0,200,66.45a75.83,75.83,0,0,0-3.2-30.12h0c-1.83-5.86,4.8-8,11.72,4.39.14.25.28.52.41.79h0C212.39,48.57,211.85,59.54,210.71,67.85Z" style="fill:#8a86bf"/><path d="M209.09,68.19c-.28.07-.58.13-.87.21a69.14,69.14,0,0,0-8.95,2.85h0a136.63,136.63,0,0,0-14.72,6.93c-3.25,1.73-6.55,3.58-9.92,5.48h0l-2,1.13c-4.79,2.7-9.74,5.49-14.89,8.17-2,1-4,2-6,3a41.21,41.21,0,0,1-6.39,2.37c-1.17.34-2.4.67-3.7,1h0c-1-.28-1.47-.6-1-1,1.72-1.63-12.45-2.23-12.45-2.23,1.09-.26,2.23-.51,3.42-.76a115.4,115.4,0,0,0,15.11-4,108.87,108.87,0,0,0,12.46-5.23c4.91-2.4,10.53-5.49,17.17-9.55,1.29-.79,2.61-1.61,4-2.47,1.92-1.21,3.74-2.26,5.46-3.13h0c5.77-3,10.46-4.24,14.21-4.5A16.45,16.45,0,0,1,209.09,68.19Z" style="fill:#9d96ca"/><path d="M146.7,91.34a115.4,115.4,0,0,1-15.11,4c-1.19.25-2.33.5-3.42.76,2.65-10.44,3.63-29.68-8.94-59.46,0,0-3.7-10.51-9.69-14.43a96.91,96.91,0,0,1,25.39-1.78,10.74,10.74,0,0,0,1.36,4.21C141.84,35.52,152.78,55.19,146.7,91.34Z" style="fill:#4c4c72"/><path d="M176.33,76.56c-6.64,4.06-12.26,7.15-17.17,9.55,3.07-16.72,5.48-45.56-9-64a179.5,179.5,0,0,1,21.67,5.11C174.57,33.73,180.71,54,176.33,76.56Z" style="fill:#4c4c72"/><path d="M200,66.45c-3.75.26-8.44,1.52-14.21,4.5,1.6-10.85,2.49-24.55-1.25-32.71a51.42,51.42,0,0,0-4.87-8.5c6.49,2.22,12.31,4.54,17.13,6.59A75.83,75.83,0,0,1,200,66.45Z" style="fill:#4c4c72"/><path d="M218.44,66.94h0c-.59,0-1.18.06-1.78.11a48.28,48.28,0,0,0-5.95.8c1.14-8.31,1.68-19.28-1.79-26.35a111,111,0,0,0,12.28,3.8C221.37,50.54,222,59.35,218.44,66.94Z" style="fill:#4c4c72"/><path d="M238.32,64.46a33.47,33.47,0,0,1-1.88,3.94,49.13,49.13,0,0,0-6-1.1c-.77-.1-1.55-.17-2.35-.24a45,45,0,0,0,1.42-13.44,29.75,29.75,0,0,0-1-6.73,112.9,112.9,0,0,0,12.21,1.58A35.71,35.71,0,0,1,238.32,64.46Z" style="fill:#4c4c72"/><path d="M288.81,80.22c-7-.19-31.59-9.65-24.42-4.83s9.21,8.16-4.88.19c-11-6.24-15.81-9.41-21.19-11.12a35.71,35.71,0,0,0,2.46-16,36.42,36.42,0,0,0-.53-4.26c6.54-1.68,25.68-6.78,39.48-12.48,16.87-7-5.57,5.27-13.36,7.87s-4.08,3.71,6.86,3,5.57,1.3-6.86,2.23-11.5,2.41.19,3.71,21.51,3,13.91,3-31-.75-23.74,2.22,23,7.05,24.48,9.65S256.35,57,253,59.07s23.18,9.65,27.82,11.69-8.9-1.49-15-2.6-11.5-2.83,3,3.22S295.86,80.4,288.81,80.22Z" style="fill:#62628e"/><path d="M301.74,77.06a37.4,37.4,0,0,1-.5-39.32c9.65-16.32-18.79-14.59-50.2-1,0,0-3.95,2.59-11.76,3.42a39.06,39.06,0,0,1,1,4c6.54-1.68,25.68-6.78,39.48-12.48,16.87-7-5.57,5.27-13.36,7.87s-4.08,3.71,6.86,3,5.57,1.3-6.86,2.23-11.5,2.41.19,3.71,21.51,3,13.91,3-31-.75-23.74,2.22,23,7.05,24.48,9.65S256.35,57,253,59.07s23.18,9.65,27.82,11.69-8.9-1.49-15-2.6-11.5-2.83,3,3.22,27.08,9,20,8.84-31.59-9.65-24.42-4.83,9.21,8.16-4.88.19c-11-6.24-15.81-9.41-21.19-11.12a33.47,33.47,0,0,1-1.88,3.94c8.7,2.13,15.07,6.18,22.14,10.52,11.5,7,29.06,11.74,40.19,10.76S306.43,84,301.74,77.06Zm-1.36,7.24c-1.14.21-2.77-2-3.36-2.67a68.93,68.93,0,0,1-6.29-9C279,53.57,288,42.32,294,35.27c.55-.65,3.45-4.53,4.55-3.3s-1.41,5.63-1.85,6.63a44.88,44.88,0,0,0-4,21.44,21.64,21.64,0,0,0,.52,3.51c1.2,5.2,4.06,9.44,6.43,14.43C300.11,78.93,302.46,83.91,300.38,84.3Z" style="fill:#8a86bf"/><path d="M299.67,78c-2.37-5-5.23-9.23-6.43-14.43a21.64,21.64,0,0,1-.52-3.51,44.88,44.88,0,0,1,4-21.44c.44-1,2.87-5.49,1.85-6.63s-4,2.65-4.55,3.3c-6,7-15,18.3-3.28,37.34a68.93,68.93,0,0,0,6.29,9c.59.68,2.22,2.88,3.36,2.67C302.46,83.91,300.11,78.93,299.67,78Zm-7.61-31.09a96.19,96.19,0,0,0-1.69,11.81c.25,8.07-3.41,1.67-3.69-4.81S293,43.39,292.06,46.89Z" style="fill:#9d96ca"/><path d="M228.1,67.06a71.08,71.08,0,0,0-9.66-.12c3.59-7.59,2.93-16.4,2.76-21.64-.09-2.81,0-4.59.9-4.59,2.23,0,5,1,6.47,6.18a29.75,29.75,0,0,1,1,6.73A45,45,0,0,1,228.1,67.06Z" style="fill:#8a86bf"/><path d="M128.17,96.09c-7,1.65-11.67,3.51-11.61,7.07l-1.38.14c.54-1.88,1-3.73,1.41-5.54,8.21-2.54,7.87-12.21,2-16.31a65.37,65.37,0,0,0-11.74-39.26c-6-8.57-9.79-13.14-9.91-16.14-.09-2.11,1.64-3.45,5.72-4.88a7.52,7.52,0,0,1,6.87,1c6,3.92,9.69,14.43,9.69,14.43C131.8,66.41,130.82,85.65,128.17,96.09Z" style="fill:#8a86bf"/><path d="M21,87.73c-.09,2-8,1.11-11.59,1.86-3.09.63-4.89,1.12-7.55-.54C.06,84,5.4,84.3,5.4,84.3a13.63,13.63,0,0,1-4-4.54c.64-.43,2.1-.82,5.31.46C11.61,82.17,21.08,85.68,21,87.73Z" style="fill:#8282d1"/><path d="M26.27,89.3c-3,4.34-13.9,6.54-21,5.93-1-1.42-1.81-2.92-2.63-4.44a11.39,11.39,0,0,1-.78-1.74c2.66,1.66,4.46,1.17,7.55.54,3.62-.75,11.5.17,11.59-1.86S11.61,82.17,6.7,80.22c-3.21-1.28-4.67-.89-5.31-.46A11.29,11.29,0,0,1,0,75.39a6.16,6.16,0,0,1,.57-3c1.12-.37,3.08-.29,6.48,1.1,5.3,2.17,13.4,5.86,17.4,9.71h0C26.64,85.23,27.61,87.35,26.27,89.3Z" style="fill:#a5a4ec"/><path d="M63.7,54.68c-5.9-.16-4.94,8.16-5.31,17.47s-14.47,11-24.11,11.59a10.3,10.3,0,0,0-3.59.75c-4.37,2,.37,7.21,8.65,10,9.89,3.34,14.84,5.44,25.85,2.22,8.71-2.54,11.53-11.36,14.53-21.6.79-2.7,1.6-5.51,2.53-8.32C86.7,53.32,63.7,54.68,63.7,54.68Zm7,28.44C65.81,93.88,58.14,94.25,62,89.68s5.44-20.9,4.33-27.33,5.19-4.21,9.4-2.34S70.75,83.12,70.75,83.12Z" style="fill:#9d96ca"/><path d="M70.75,83.12C65.81,93.88,58.14,94.25,62,89.68s5.44-20.9,4.33-27.33,5.19-4.21,9.4-2.34S70.75,83.12,70.75,83.12Z" style="fill:#423f60"/><path d="M117.92,90.2s0,0,0,.08a19.24,19.24,0,0,1-.2,2.17,7,7,0,0,1-.32,1.28,8.5,8.5,0,0,1-4.91,4.68,36.7,36.7,0,0,1-17.63-3.07h0c-.8-.36-1.52-.74-2.17-1.09a22,22,0,0,0,.91-3c16.39,3.6,16.72,1.31,9.09-.54-8-2-5.17-4-1.75-3.71s15.49,1.48,15,.55-9.37-2.23-16-3.34.74-3,6.21-5-2.6-1-9.09-.65,2.78-6.31,5.94-10.39c2.51-3.25-8.15,5.26-12.6,8.87a15.86,15.86,0,0,0-1.75-1.89c5.27-4.47,11.81-10.28,16.1-12.72,1.79.78,2.55,3.24,1.59,7.13-1.58,6.4,2.4,10.11,6.58,11.88C116.58,82.94,118.11,85.77,117.92,90.2Z" style="fill:#8a86bf"/><path d="M116.59,97.76a13.86,13.86,0,0,1-2.93.56l-1.18.09a8.5,8.5,0,0,0,4.91-4.68,7,7,0,0,0,.32-1.28,19.24,19.24,0,0,0,.2-2.17s0-.06,0-.08c.19-4.43-1.34-7.26-4.94-8.77-4.18-1.77-8.16-5.48-6.58-11.88,1-3.89.2-6.35-1.59-7.13,2.53-1.43,4.28-1.7,4.52.18.74,5.8-4,15,5.82,17.3a10.53,10.53,0,0,1,3.45,1.55C124.46,85.55,124.8,95.22,116.59,97.76Z" style="fill:#9d96ca"/><path d="M93.58,91.24a22,22,0,0,1-.91,3,24.62,24.62,0,0,1-2.75-1.79c-.45-.34-12.86-7.84-4.7-14.4l1.37-1.12.13-.11,2-1.68A15.86,15.86,0,0,1,90.46,77,16.18,16.18,0,0,1,93.58,91.24Z" style="fill:#423f60"/><path d="M100.92,87c-3.42-.28-6.24,1.76,1.75,3.71,7.63,1.85,7.3,4.14-9.09.54A16.18,16.18,0,0,0,90.46,77c4.45-3.61,15.11-12.12,12.6-8.87-3.16,4.08-12.43,10.76-5.94,10.39s14.56-1.4,9.09.65-12.79,3.89-6.21,5,15.48,2.42,16,3.34S104.35,87.26,100.92,87Z" style="fill:#4c4c72"/><path d="M57.34,57.79c-.56-3.15-2.79-.57-3-3.15S51,48.31,44.91,44.79s-11.5-.19-14.22,5.93S33,61.79,33.41,62.16c6.31,5.31,4.08,7.3-.56,11.56S26.18,78,29,80.29s9,1,20.52-.94S57.89,60.93,57.34,57.79Zm-16,6a8.07,8.07,0,1,1,8.07-8.07A8.06,8.06,0,0,1,41.38,63.8Z" style="fill:#423f60"/><path d="M41.38,47.67a8.07,8.07,0,1,0,8.07,8.06A8.06,8.06,0,0,0,41.38,47.67Zm0,13.9a5.84,5.84,0,1,1,5.84-5.84A5.83,5.83,0,0,1,41.38,61.57Z" style="fill:#2b2a44"/><path d="M41.38,49.89a5.84,5.84,0,1,0,5.84,5.84A5.84,5.84,0,0,0,41.38,49.89Zm2.85,5.46a2.53,2.53,0,0,1,0,.38,2.88,2.88,0,1,1-2.88-2.87h.13a2,2,0,0,1,3.78.75A1.93,1.93,0,0,1,44.23,55.35Z" style="fill:#8da4b7"/><path d="M44.26,55.73a2.88,2.88,0,1,1-2.88-2.87h.13a1.86,1.86,0,0,0-.15.75,2,2,0,0,0,2,2,1.85,1.85,0,0,0,.9-.23A2.53,2.53,0,0,1,44.26,55.73Z" style="fill:#2b2b2b"/><path d="M45.29,53.62a1.93,1.93,0,0,1-1.06,1.73,1.85,1.85,0,0,1-.9.23,2,2,0,0,1-2-2,1.86,1.86,0,0,1,.15-.75,2,2,0,0,1,3.78.75Z" style="fill:#eae3dd"/><path d="M255,1.63C229.77,7.57,216.91,16,199.1,9.55S164.73,2.13,160,3.37,150.94.15,147,1.63s-7.23-2.47-12-.49-15.55-2-19,.49-6.69-1.73-10.24,1-5.32-2-10.87,1.23-9.36-.74-12,2.72-7.12.25-9.35,4.21-8.4,3.08-10.38,6.11S56,23.46,56,23.46a20.5,20.5,0,0,0,6.86.92h0A65.8,65.8,0,0,0,76.8,12c6.5-7.79.57,4.07-1.47,6.21s5.93-.28,10-5.84,6.31-7.79,2.6-1.85,3.52,5.75,10.2.18,12.7-8.53,7.92-2.6,2.1,6.13,8.77,1.49,16.7-10.2,9.65-3.71,3.81,7.23,10.44,2.6,12.56-8.54,7.37-2.23-3,6.68,5.91,2.78,16-5.93,9.48-1.67,1.3,9.28,11.5,6.31,23.56-5.94,15.95-2.23-16.88,7.3-4.45,5.5,29.86-7,20.59-1.6-13,9.2-.19,6.82,28.19-5,16.51,0-12.43,8.2-1.3,6.16,8.64,1.17-3.56,6.71c3.18,1.36,6.05,2.54,8.63,3.41,0,0,13.89-.66,17-3.87s2.08-6.63,5.3-8.5-6.43-3.51,4.7-9.13S265.63,2.63,283.68,5.34,280.22-4.3,255,1.63Zm16.32,1.61c-3.41.74-8.1,2.23-19.42,7.79-4,2-8.81,3.93-11,8-2,3.7-1.95,8.3-4.45,11.77a10.39,10.39,0,0,1-9.2,4.14h0c-.86-.08-1.91-.52-1.86-1.38a1.8,1.8,0,0,1,.48-1c2-2.44,9.36-4.6,7.8-8.76-1.16-3.07-5.77-4.63-8.59-5.35-7-1.82-15,.88-16.09-3.39s11.27,2.78,33.34-6.67S274.72,2.5,271.32,3.24Z" style="fill:#636391"/><path d="M242.26,8.44c-22.07,9.45-34.41,2.41-33.34,6.67s9,1.57,16.09,3.39c2.82.72,7.43,2.28,8.59,5.35,1.56,4.16-5.75,6.32-7.8,8.76a1.8,1.8,0,0,0-.48,1c0,.86,1,1.3,1.86,1.38h0a10.39,10.39,0,0,0,9.2-4.14c2.5-3.47,2.44-8.07,4.45-11.77,2.21-4.08,7.07-6.06,11-8,11.32-5.56,16-7,19.42-7.79S264.33-1,242.26,8.44Zm-3,8.46c-.37,5.25-3.95,7.61-4.21,3.85s-9-5-9-5c-2.93-.63.62-2,2.55-2.23S239.66,11.65,239.29,16.9Z" style="fill:#8a86bf"/><path d="M212.73,35c-17.82-7.64-45.38-21.11-86.08-20.75A188.09,188.09,0,0,0,93,17.5a94.16,94.16,0,0,0-11.11,2.58c-2.37.75-4.58,1.88-6.95,2.62a35.28,35.28,0,0,1-8,1.49c-1.25.09-2.65.18-4.06.19A65.8,65.8,0,0,0,76.8,12c6.5-7.79.57,4.07-1.47,6.21s5.93-.28,10-5.84,6.31-7.79,2.6-1.85,3.52,5.75,10.2.18,12.7-8.53,7.92-2.6,2.1,6.13,8.77,1.49,16.7-10.2,9.65-3.71,3.81,7.23,10.44,2.6,12.56-8.54,7.37-2.23-3,6.68,5.91,2.78,16-5.93,9.48-1.67,1.3,9.28,11.5,6.31,23.56-5.94,15.95-2.23-16.88,7.3-4.45,5.5,29.86-7,20.59-1.6-13,9.2-.19,6.82,28.19-5,16.51,0-12.43,8.2-1.3,6.16S224.93,29.45,212.73,35Z" style="fill:#423f60"/><path d="M231.13,96c-4.9-2.31-9.25-4.2-13.17-5.74a33.77,33.77,0,0,1,11.6,2.21c29.6,11.12,42.19,5.76,28.46,5s-15.76-4.46-6.67-3.53,3.52-1.11-8.35-2.6-24.48-9.08-10.2-6.55,19.85,1.32,5.52-1-27.78-9.37-18.13-7.36,18.31-.32,9.37-1.22-21.34-6.86-21.34-6.86c.29-.08.59-.14.87-.21.54-.13,1.08-.24,1.62-.34a48.28,48.28,0,0,1,5.95-.8c.6,0,1.19-.08,1.78-.11h0a71.08,71.08,0,0,1,9.66.12c.8.07,1.58.14,2.35.24,1.54,2.83,5,8.21,9,9.18,5.56,1.32.37,2.54,5,4s.93,4.31,8.17,5.66.74,2.53,4.08,3.7,7.6,6.91,23.92,7.1S259,109.15,231.13,96Z" style="fill:#636391"/><path d="M258,97.47c-13.72-.75-15.76-4.46-6.67-3.53s3.52-1.11-8.35-2.6-24.48-9.08-10.2-6.55,19.85,1.32,5.52-1-27.78-9.37-18.13-7.36,18.31-.32,9.37-1.22-21.34-6.86-21.34-6.86a69.14,69.14,0,0,0-8.95,2.85h0a136.63,136.63,0,0,0-14.72,6.93c-3.25,1.73-6.55,3.58-9.92,5.48h0l-2,1.13s4,1.36,11.95,0c6.58-1.13,15-1.74,33.38,5.45h0a33.77,33.77,0,0,1,11.6,2.21C259.16,103.57,271.75,98.21,258,97.47ZM211.58,84.79c-6.57-3.05-11.33-2.72-19-3.74s-1-2.22,7.82-6.3,14.36,4.17,14.76,4.63C221.31,86.52,218.15,87.82,211.58,84.79Z" style="fill:#423f60"/><path d="M211.58,84.79c-6.57-3.05-11.33-2.72-19-3.74s-1-2.22,7.82-6.3,14.36,4.17,14.76,4.63C221.31,86.52,218.15,87.82,211.58,84.79Z" style="fill:#383756"/><path d="M150.12,101.36c.85-1-5.71-1.27-8.47-2h0c-1-.28-1.47-.6-1-1,1.72-1.63-12.45-2.23-12.45-2.23-7,1.65-11.67,3.51-11.61,7.07l-1.38.14q-4.46.42-9.11.75c22.1,17,47.9,6.21,51.61,2.87S149,102.66,150.12,101.36ZM132.22,110c-12.87-1.1-13.8-3.2-11.38-7.24.55-.9,1.26-1.91,2-3,2.67-3.78,9.39-1.62,14.21.62,2.91,1.35,5.14,2.73,5.38,2.85C149.69,106.84,148,111.31,132.22,110Z" style="fill:#4c4c72"/><path d="M142.47,103.16c-.24-.12-2.47-1.5-5.38-2.85-4.82-2.24-11.54-4.4-14.21-.62-.78,1.11-1.49,2.12-2,3-2.42,4-1.49,6.14,11.38,7.24C148,111.31,149.69,106.84,142.47,103.16ZM134.79,107c-5.45-.86-6.91-2.59-5-5.43.58-.84,1.63-.85,2.85-.44,2.89,1,6.68,4.32,7.07,4.66C142,107.73,140.24,107.85,134.79,107Z" style="fill:#8a86bf"/><path d="M134.79,107c-5.45-.86-6.91-2.59-5-5.43.58-.84,1.63-.85,2.85-.44,2.89,1,6.68,4.32,7.07,4.66C142,107.73,140.24,107.85,134.79,107Z" style="fill:#9d96ca"/><path d="M292.06,46.89a96.19,96.19,0,0,0-1.69,11.81c.25,8.07-3.41,1.67-3.69-4.81S293,43.39,292.06,46.89Z" style="fill:#a8a4d8"/><path d="M239.29,16.9c-.37,5.25-3.95,7.61-4.21,3.85s-9-5-9-5c-2.93-.63.62-2,2.55-2.23S239.66,11.65,239.29,16.9Z" style="fill:#9d96ca"/></g></g></svg>