<svg xmlns="http://www.w3.org/2000/svg" viewBox="0 0 295.39 183.38"><title>mandarin-fish</title><g id="Layer_2" data-name="Layer 2"><g id="Ñëîé_2" data-name="Ñëîé 2"><path d="M291.75,118.05c1.65,1.85.82,2.47-9.06,4.53-4.38.91-11.75,1.06-20.44.29,0-.56-.17-1.25-.17-2.14,0-3.09,4.33-1-2.88-2.89s-16.89-5.14-1.65-2.57,15.45.92,13.18-3.47,3.92.48,1.86-1.37,3.71-.82,3.71-3.09-1-.62-9.48-1.44-8.65-3.3.42-3.3,15.24-.41,13.38-2.68-.41-4.94.21-7.21-17.3-3.09-21.84-3.09,3.92-1.64,16.69-1.85,4.32-1.44,4.12-3.92,2.06-2.88-13-2-12.15-1.86,1-3.26,6.8-4.78,9.69-5.4-5.57-2.26-1.86-3.7,1.44-3.51-2.88-2.74S271.56,65.52,274,62s-1.44-.85-11.74-.18-3.92-.46,2.88-3.65,5.77-3.2,3.71-4.64-7.42,1.44-10.3,2.06,3.3-3.71,6.18-6.8-1.65-4.33-12.15,2-7.62.08,7.21-7.87,1.85-3.58-4.1-1.32-7.23,1.24-1.88-3.51-2.05-1.43-6.38,1.66-4.12,1.44-2.27-3.09-4.53,1.64-9.1,5.15-1.82-2.06-.17-6.39c.55-1.42-.23-2-1.5-2.13a30.64,30.64,0,0,1,6.24-3.22c3.09-1.44,5.35,1.65,6.8-.21s3.5-4.53,13.18,0,17.1,19.16,19,20.93,1.85,11.21,3.49,12-.82,3.71,2.48,5.4.41,3.87,1.85,5.11-.41,4.12,1.45,5.19.61,4.7,1.85,5.52.2,4.53,2.68,5.56-1,6.59,1,6.59-4.95,6.6-2.07,7.83-.61,3.71,1,5.36-3.3,3.09.82,4.53S290.1,116.19,291.75,118.05Z" style="fill:#1717aa"/><path d="M259,89.62c4.54,0,22.46.83,21.84,3.09s-2.06,4.94-.21,7.21-4.32,2.68-13.38,2.68-8.87,2.47-.42,3.3,9.48-.83,9.48,1.44-5.77,1.23-3.71,3.09-4.12-3-1.86,1.37,2.07,6-13.18,3.47-5.56.72,1.65,2.57,2.88-.2,2.88,2.89c0,.89.17,1.58.17,2.14a151.48,151.48,0,0,1-35.8-7.6c-1-.37-2-.71-3-1a35.61,35.61,0,0,1-2.37-4.71s20.58,6.6,20.75,5.06-18.4-7.57-18.4-8.81,19,5.41,30.12,7.26,11-.46,6.65-2.47-38-7.88-38.63-9.73,10,0,28,0,11.28-1.39,9.11-2.16-29.35-1.24-30.74-3.25,2.16-.77,13.92-.77,7.09-.62,5.7-2.32-19.47-1.7-23.32-2.58-3.56-2.67,14.67-2.21,29.35-.93,27.65-2.63-30.43.78-39.44.78-7.53-2,8.85-3.25,19.93-4.79,19-5.87S235.46,80.76,228,80.76s-11.89-.77,11.44-4.43,33.32-9.63,27.81-9.63-39,9.63-43.1,9.63-6.5-1.64,7.82-5.87,24.1-10.6,22.88-11.53-8.67,3.4-20.62,8.24-17.82,2.36-4.94-3.61,17-12.88,10.92-8.44-21.94,12.77-19.67,9.58,23.38-20.29,21.52-21-11.54,7.83-16.58,13.49-6.49,4.64-4.43,1,12.67-17,10.4-16.89-16.64,20.54-16.64,20.54a13.64,13.64,0,0,0-2.17-2.49c9.72-15.84,16.95-22.76,21.74-26.06,1.27.14,2.05.71,1.5,2.13-1.65,4.33-4.39,9.89.17,6.39s11-9.69,9.1-5.15-2.06,6.18,2.27,3.09,11.74-6.41,6.38-1.66-4.08,5.78,1.88,3.51,18.93-6.64,4.1,1.32-17.72,14.17-7.21,7.87,15-5.07,12.15-2-9.06,7.42-6.18,6.8,8.24-3.5,10.3-2.06S272,55,265.17,58.21s-13.18,4.31-2.88,3.65,14.22-3.3,11.74.18-5.56,5.42-1.23,4.66,6.59,1.29,2.88,2.74,4.76,3.09,1.86,3.7,3.5,4-9.69,5.4-16.06,4.08-1,3.26,12.78-.42,13,2,8.65,3.71-4.12,3.92S254.46,89.62,259,89.62Z" style="fill:#2b2b2b"/><path d="M26.55,65c0-.34,0-.68,0-1-1.75.58-3.46,1.1-5,1.58a7.57,7.57,0,0,1,2.32,2.64c1,1.88,1.47,1.12,3,1.12h.36A13.09,13.09,0,0,1,26.55,65ZM48.13,76.38h0l-.48.25c-.19.09-.38.19-.57.27s-.37.18-.57.26l-.42.17-.39.15-.68.24-.53.16q-.35.1-.69.18l-.54.13-.14,0-.53.1h-.06l-.46.07a14,14,0,0,1-2,.15,13.49,13.49,0,0,1-12-7.36c-1.11.17-5.06.87-5.06-1.43,0-1.48-2.15-2.66-3.87-3.36-1,.32-1.84.63-2.58.94a28.36,28.36,0,0,0-8.42,4.93c4.6.53,12,1.72,14.87,4.11,4.32,3.58,8.94,8.11,15.49,6.88S48.42,79.59,48.13,76.38Zm172.93,33.16c-2.51-6-4.22-14.18-2.86-24.66,1.63-12.52-.86-19.41-3.35-23a13.2,13.2,0,0,0-2.17-2.48q-2.2,3.57-4.57,7.78s2.89,5,1.13,9.27S202.13,87.66,204.91,95s7,13,5.67,14.43-6.28,1.64-10-6.9-6.49-15.25-4.33-18.44,4-4.74,4.12-7.52,2.25-7.56,4.52-8.68a101.53,101.53,0,0,1-10.69,1.52s1.92,5.82-.9,9.32S186,86,183.9,86.53s-2.36,1.44-3.5,3.25-.3,4-7.93,1.8-11.77-4-11.39-7.32-1.38-5.35-5.35-6.69a12.44,12.44,0,0,1-8-8.55c-.59-1.86-1.33-4.81-2.21-7.67-3.06-.52-6.17-1-9.28-1.47a20.79,20.79,0,0,0,.43,6.2c1,3.35-.52,5.62-4.12,5s-6-2.57-6.18-4.66.1-3.88-1.24-6.41c-.26-.5-.55-1.08-.86-1.73-2.29-.24-4.53-.45-6.71-.61a18.23,18.23,0,0,1-.87,4.14c-.93,3.25,1.34,4.78-1.24,6.39S101.81,79.68,98.88,86s-4.92,6.75-7,3.77-4.5-4.23-.82-8.25,10.55-8.65,5.48-9S89,71.18,87.45,75.66,82,80.3,78.64,81.38s-6.78,4.17-8.18,3.55-6.91-4.79-3.08-8,10.64-4.76,13.73-5S87.2,70,84.54,68.71,67,65.82,65.66,62.51a28.08,28.08,0,0,1-5.15.1s8,7,5.15,9.28-4.53,3-4.63,9,1.65,9.46-2.79,10.71a15.13,15.13,0,0,0-8.75,6.18c-1.86,2.57-2.88,2.78-4.12,2.37s-.93-4.07,0-7.65.72-4.92,4.33-7.39,5.78-1.75,5.72-5.77-1.33-5.56.64-7-.64-3.76-.64-3.76a10.59,10.59,0,0,1-.43,1c-.07.17-.16.33-.24.49l-.2.34a8.78,8.78,0,0,1-.54.86l-.23.33c-.26.35-.54.69-.83,1l-.31.34-.47.48-.42.39a3.08,3.08,0,0,1-.27.24l-.32.28-.46.36q-.45.36-.93.69a26.93,26.93,0,0,1-1,5c-.72,2.06-5.05,4.74-11.64,5.26a14.27,14.27,0,0,1-10.62-3.51s-4.72-4.63-8.85-6.48c-3-1.35-8.34-1.72-11-1.83A9.11,9.11,0,0,0,5,77.4s-3.82-1.21-4.69.88A2.93,2.93,0,0,0,2.7,82.44c1.91.18,4.17-.68,4.52,0s-4,1.39-4.87,1.57-2.78,3.65-1,5.38a4.65,4.65,0,0,0,4,1.74c1.22,0,6.09-1.21,7.82,2.44a27.79,27.79,0,0,0,4.32,6c2.77-2.9,7.19-6.52,11.91-6.47,7.82.08,12-.3,11.95,1.33S36.47,105.43,48.15,109s15.93.69,18.13,4.59-.44,10.53-.54,10.78c1.2,0,2.36,0,3.49,0l.8,0,.5,0,.85-.07.78-.08q1-.1,1.92-.24c.18,0,.36-.07.54-.09l.77-.14.73-.14c.89-.18,1.73-.39,2.55-.61.22,0,.43-.12.64-.18l.18,0,1-.31c.31-.09.6-.2.89-.29.49-.17,1-.36,1.42-.54.2-.07.39-.14.57-.22L84,121h0l1-.44.13,0,.45-.22.36-.17c.24-.11.47-.24.71-.36a57.14,57.14,0,0,0,6.15-3.73c.91-.63,1.68-1.18,2.31-1.57,1.59-1,2.34-1.06,2.4.77a17.19,17.19,0,0,0,1.15,5.1c5.42-1.26,9.42-2.26,11.83-1.91a222.52,222.52,0,0,0,22.86.91c3.79,0,7.83-.06,11.95-.21-11.53-3.64-17.1-18.93-12.88-19.86s8.24,2.37,8.45,7,13.4,12.37,13.4,12.37c2.13-.14,4.25-.32,6.34-.53,1.52-.15,3-.31,4.51-.5,1.67-.2,3.32-.45,4.91-.71,1-.17,2.08-.35,3.08-.54l1.31-.25,4.39-.88c4.2-.87,7.94-1.69,11.44-2.37h0l.1,0h.08q3.15-.63,6.1-1.05c8.48-1.19,16.2-1,26.88,2.43A36.88,36.88,0,0,1,221.06,109.54Zm-33.5-3.49c-8.81,0-13.75,3.76-22.09,4.11s-13.6-8.23-13.6-8.23c-4-14.37-15.45-19.47-24.56-16.53s-7.57,13.9-7.85,19.31a9.52,9.52,0,0,0,1.82,6l0,.08c.23.33.41.6.56.86l0,.08a3.62,3.62,0,0,1,.74,3.13c-.93,2.86-11.43,3-14.68-11.51s4-19.16,10.66-26.42,11.13-3.56,21.44-.77,17.65,10.35,20,18.69S167,101,175.2,98.06s15.61-3.24,19.65,0S196.37,106.1,187.56,106.05Zm25.95-13.24s-3,1-4.16-1.23,2.78-5.57,5.5-3.71S213.51,92.81,213.51,92.81Z" style="fill:#ff6427"/><path d="M64.67,119.13c-.1,2.64-.26,4-.88,5h0c-20.32-2.36-40.94-19.65-40.94-19.65a30.83,30.83,0,0,1-4-3.53c1.77-2.08,4.54-5,6.49-5.59,3.09-.93,14.27-2.58,13.83,0s-2.34,12.06,4.79,14.43,13.52,3.29,16.3,3.18S64.88,113.81,64.67,119.13Z" style="fill:#ff6427"/><path d="M49.77,75.38a26.93,26.93,0,0,1-1,5c-.72,2.06-5,4.74-11.64,5.26a14.27,14.27,0,0,1-10.62-3.51s-4.72-4.63-8.84-6.49c-3-1.34-8.35-1.71-11-1.82A12.25,12.25,0,0,1,8.1,72.26c4.59.53,12,1.72,14.86,4.11,4.32,3.58,8.94,8.11,15.49,6.87s10-3.65,9.68-6.86h0l.61-.34C49.09,75.82,49.43,75.61,49.77,75.38Z" style="fill:#00bcf2"/><path d="M65.66,71.89c-2.88,2.28-4.53,3-4.63,9s1.65,9.46-2.78,10.7a15.18,15.18,0,0,0-8.76,6.19c-1.86,2.58-2.88,2.78-4.12,2.37s-.92-4.07,0-7.65.72-4.92,4.33-7.39,5.78-1.75,5.72-5.77-1.33-5.56.64-7-.64-3.76-.64-3.76a10.24,10.24,0,0,0,.5-1.86,11.18,11.18,0,0,1,1.7,2.74c.3,1,.11,2.57-1.56,4.32s.54,5.25.54,7.7-5.66,4.25-8.35,6.31-2.88,10.4-2,10.81,1-.51,3.19-2.16S51.55,93,53.41,92s5.66-1.75,6.1-3.4.39-6.7.59-10,3.2-6.32,4-7.32-4.61-8.68-4.61-8.68l1,.07S68.54,69.61,65.66,71.89Z" style="fill:#2b2b2b"/><path d="M64.12,71.22c-.82,1-3.82,4-4,7.32s-.14,8.4-.59,10S55.26,91,53.41,92s-1.76,2.78-3.92,4.43S47.23,99,46.3,98.58s-.72-8.75,2-10.81,8.35-3.87,8.35-6.31-2.2-5.95-.54-7.7,1.86-3.3,1.56-4.32a11.18,11.18,0,0,0-1.7-2.74,9.11,9.11,0,0,0,.14-1.65,15.44,15.44,0,0,0-.3-3c1.36.23,2.6.39,3.75.5C59.51,62.54,64.94,70.23,64.12,71.22Z" style="fill:#00bcf2"/><path d="M70,124.42c-1.06,3.46-1.44,14.19-1.25,16.39a34.83,34.83,0,0,1-.4,5.92c-.1,1.59.8,10.28.8,10.28-2-2.11-4.68-3.9-4.94-7-.36-4.45,4.61-24,5-25.56l0-.09.8,0A.65.65,0,0,1,70,124.42Z" style="fill:#f45721"/><path d="M193.31,78.71C190.5,82.2,186,86,183.9,86.53s-2.36,1.45-3.49,3.24-.31,4-7.94,1.81-11.77-4-11.39-7.31-1.38-5.36-5.34-6.7a12.38,12.38,0,0,1-8-8.55c-.6-1.86-1.34-4.81-2.22-7.67l1.73.29c.37,1.1.72,2.19,1,3.21.4,1.35.71,2.57.93,3.55a11.26,11.26,0,0,0,7.76,8.24c2.57.72,6.59,3.61,6.7,6.08s.1,5.15,6,7,8.86,2,10.3-1.39,5.05-4.84,7.93-5.76,6.66-8.56,5.14-13.14l1.25-.09S196.13,75.2,193.31,78.71Z" style="fill:#2b2b2b"/><path d="M187.82,82.62c-2.88.92-6.49,2.36-7.93,5.76s-4.43,3.3-10.3,1.39-5.87-4.58-6-7-4.13-5.36-6.7-6.08a11.26,11.26,0,0,1-7.76-8.24c-.22-1-.53-2.2-.93-3.55-.3-1-.65-2.11-1-3.21l1.19.21h0c3.82.67,7.53,1.36,11.05,2,1.51,3.86,4.16,9,4.16,9s3.5,5.47,8.13,6.08,13.79,1.75,13.33-9.43l2,.06c2,0,3.94,0,5.86-.16C194.48,74.06,190.7,81.69,187.82,82.62Z" style="fill:#00bcf2"/><path d="M108.3,57.28h-.19a2.12,2.12,0,0,0-.12,1.17c.3,1.63-2.93,6.09-4.63,7.72s1.16,3.23-1.34,3.91-2.75-.52-3-2.68-5.56-2.24-7.43-2.35a27,27,0,0,1-9-2.75,20.76,20.76,0,0,0-9-1.49l-.43.12s6.67.9,9.6,2.54,6.17,3.55,8.91,3,5.66-.64,6.39,1.83,2.06,3.5,3.55,3.24,2.89-.51,2.63-2.21.41-3,2-4.33,2.65-4.15,2.53-7.71Z" style="fill:#2b2b2b"/><path d="M117.52,57.71l-1-.07h0c.53-3.4-1.77-5.92-2.9-7.42s-5.65,0-5.65,0c0-.26,0-.52,0-.8.5-.26,5.16-2.59,7.69,2A11.43,11.43,0,0,1,117.52,57.71Z" style="fill:#2b2b2b"/><path d="M159.46,63.9c-3.52-.69-7.23-1.38-11.05-2,1.2-4.81,5.84-11.47,5.84-11.47,1.5,4,3.74,7.58,4.22,10.4A16.43,16.43,0,0,0,159.46,63.9Z" style="fill:#00b7e2"/><path d="M154.25,50.38s-4.64,6.66-5.84,11.47h0l-1.19-.21c-1.63-4.72-3.87-9.63-5.74-10.23l5.05-11.93c3.6-.29,5.87,5.33,7.32,9.76C154,49.62,154.1,50,154.25,50.38Z" style="fill:#00b7e2"/><path d="M161.3,64.26l-1.84-.36a16.43,16.43,0,0,1-1-3.12c-.48-2.82-2.72-6.42-4.22-10.4-.15-.37-.28-.76-.41-1.14-1.45-4.43-3.72-10.05-7.32-9.76s-3.5-2-5.05-3.94-3.4-1.4-6.9-3.07-5.15-5.89-9.07-4.86-2.88,1.65-7.62-.61-6.79-1.34-6.9,0,2.78,3.33,6.9,3.93,4.33,2.25,7.11,2.35,2.58.42,4.64,4,2.47,3.82,4.63,3.28,3.6,1.71,4.53,6-.2,3.91,2.68,4.84c1.87.6,4.11,5.51,5.74,10.23l-1.73-.29c-1.16-3.82-2.57-7.48-4.22-8.26-2.88-1.37-3.19-1.68-3.4-4s.21-6.41-2.47-7.12-5.15-1.22-6.8-3.7-1.44-3.91-3.91-3.91a6.4,6.4,0,0,1-4.32-1.13c-1.44-.83-3.51-.58-5.77-1.63s-5.15-2.9-4.12-5.17,4.53-2.85,8.54-.86,9,1,10.41,1,2.57,1.55,4.33,3.4,3.71,2.71,5.15,2.49,2.67,1.12,4.32,3.69,3.67,1.81,5.94,2.37,9.94,18.82,10.9,22.25A32.6,32.6,0,0,0,161.3,64.26Z" style="fill:#2b2b2b"/><path d="M198.07,60.06c0-1.55-5.25-2.78-8-2.78s-3.56-2.16-4.18-5-.46-3.55-2.16-3.86-4.33-1.7-6.64-5.41-7.42-5.09-8.66-5.25-5.25-2.78-7.1-5.71-2.94-2.94-5.56-1.86-9-.62-10.2-2.47-5.56-.93-8.5-2.58-2,.26-3.55-1.13-3.56-1.23-5.41,0-5.41,2.16-12.82-1.23c-2.64-1.21-4.31-1.41-5.38-1.15a36.1,36.1,0,0,0-.85,5.73c-.66,8.57-.91,16.49-1,22,.5-.26,5.16-2.59,7.69,2a11.43,11.43,0,0,1,1.8,6.3q3.27.26,6.71.63a45.77,45.77,0,0,1-3.46-10.24c-1-4.89,3.6-5.86,7.21-4.07s7.93,8.15,7.93,8.15a7.31,7.31,0,0,1,.67,3c-.06.67-.29,2.56-.38,4.7,3.11.46,6.22,1,9.28,1.48-1.16-3.82-2.57-7.48-4.22-8.26-2.88-1.37-3.19-1.68-3.4-4s.21-6.41-2.47-7.12-5.15-1.22-6.8-3.7-1.44-3.91-3.91-3.91a6.4,6.4,0,0,1-4.32-1.13c-1.44-.83-3.51-.58-5.77-1.63s-5.15-2.9-4.12-5.17,4.53-2.85,8.54-.86,9,1,10.41,1,2.57,1.55,4.33,3.4,3.71,2.71,5.15,2.49,2.67,1.12,4.32,3.69,3.67,1.81,5.94,2.37,9.94,18.82,10.9,22.25a32.6,32.6,0,0,0,1.24,3.48c11.18,2.22,20,4.27,22.81,4.95.63.14,1,.23,1,.23,1.73-.26,8.85-.9,14.46-2.89A41,41,0,0,1,198.07,60.06ZM112.12,31.65c2.16-.91,6.41,6.67,6.69,7,2.78,3.2.72,7-.41,8.14s-4.74-.1-5.15-2.74-2.16-4.36-3.91-6.11S110,32.56,112.12,31.65Zm34.78,2.76c-1.08.52-5.2-1.34-6.41-3.32s.52-2.93,2.68-2.29a6.41,6.41,0,0,1,3.35,2.85S148,33.9,146.9,34.41Zm10.33,7.52c-1.54.62-6.28-2-7.83-5.92s4.74-4.38,5.46-2.32,3.49,4,4.32,4.63C161.45,40.09,158.78,41.32,157.23,41.93ZM188.85,66.7a12.49,12.49,0,0,1-7.31-1.8,27.7,27.7,0,0,1-5.67-4.43c-2.26-2.37-7.31-4.94-8.86-6.28s-2.16-3.81-3.91-6.08-3.09-6.9-.83-8,3.09-.62,3.4,1.24,3.61,6.07,3.61,6.07c3.19,1.24,4.43,1.24,5.26,4.12s.82,3.19,5.35,3.19,3.09,1.45,3.3,4.33.62,3.5,4.32,3.5,4.74-.92,6.28,1.55S192.35,66.65,188.85,66.7Z" style="fill:#f45721"/><path d="M203.19,58.21a31.74,31.74,0,0,0-.78,7.1,22.9,22.9,0,0,1-2.88,1.24,41,41,0,0,1-1.46-6.49c0-1.55-5.25-2.78-8-2.78s-3.56-2.16-4.18-5-.46-3.55-2.16-3.86-4.33-1.7-6.64-5.41-7.42-5.09-8.66-5.25-5.25-2.78-7.1-5.71-2.94-2.94-5.56-1.86-9-.62-10.2-2.47-5.56-.93-8.5-2.58-2,.26-3.55-1.13-3.56-1.23-5.41,0-5.41,2.16-12.82-1.23c-2.64-1.21-4.31-1.41-5.38-1.15a24.33,24.33,0,0,1,.87-2.93c3.38-1.48,9-3.66,11.92-3,4.33.93,5.1.86,10.2-.11s8.5-2.28,11.59,0,12,.11,13.59,2.27,3.56,3.86,8.19,4.17,7.11-.15,8.19,2.32,5.56,2.16,6.64,4.48,5,1.76,5.57,4.43,4.79,5.46,5.87,5.15,10,4.48,8.8,7.26,2.17,2.78,1.86,6S204,55,203.19,58.21Z" style="fill:#2b2b2b"/><path d="M206.26,61.86a8.38,8.38,0,0,1-3.85,3.45,31.74,31.74,0,0,1,.78-7.1c.79-3.25-.33-3.25,0-6.49s-3.09-3.25-1.86-6-7.72-7.57-8.8-7.26-5.26-2.47-5.87-5.15-4.48-2.11-5.57-4.43-5.56-2-6.64-4.48-3.55-2-8.19-2.32-6.64-2-8.19-4.17-10.5,0-13.59-2.27-6.49-1-11.59,0-5.87,1-10.2.11c-2.91-.63-8.54,1.55-11.92,3,2.94-8.11,8.7-9.13,12.08-8.64,4.32.61,4.32-.21,8-1s7.21,3.09,9.89,2.68,2.89-1.85,6.95,0,3.56,3.5,9.12,3.92,3.5-1.86,7.83,0,14.21,7.62,15.45,7,3.5,3.09,4.32,3.09,3.3,3.09,5,2.68,3.09,3.7,3.91,3.5,3.09,3.09,3.91,2.47,2.89,3.91,4.12,3.51,1.24,5.35,2.27,5.35S210,54.19,206.26,61.86Z" style="fill:#1717aa"/><path d="M116.56,57.64a67,67,0,0,0-1,7c0,1.47-1.76,3.22-7.88,8.88S97.18,87.61,96,89.06s-2.67,1.9-3.65-.57-2.47-3.3-.46-5.77,8-8,7.57-9.32S95,71.2,91.6,71.22s-4.51,1-5.34,3.47-.25,4-5,4.68-7.06,1.91-8.5,2.94-3.45.77-4.74-1.65.21-3.65,3.4-5,10.87-3,12.82-3.5S87,69.79,86.32,69s-2.53-1.51-6.24-2.27-11.89-2.3-13.39-4.32c.94-.13,1.87-.31,2.83-.52,1.15-.26,2.35-.58,3.64-.93,0,0,6.67.9,9.6,2.54s6.17,3.55,8.91,3,5.66-.64,6.39,1.83,2.06,3.5,3.55,3.24,2.89-.51,2.63-2.21.41-3,2-4.33,2.65-4.15,2.53-7.71C111.2,57.32,113.82,57.45,116.56,57.64Z" style="fill:#00bcf2"/><path d="M115.41,68.24c-2.58,1.6-13.59,11.44-16.53,17.78s-4.91,6.74-7,3.75-4.5-4.22-.83-8.23,10.55-8.66,5.49-9S89,71.18,87.45,75.66,82,80.3,78.64,81.38s-6.78,4.17-8.18,3.55-6.91-4.78-3.07-8,10.63-4.76,13.72-5S87.2,70,84.54,68.71s-17.49-2.89-18.88-6.2c.35,0,.69-.08,1-.13,1.5,2,9.68,3.55,13.39,4.32s5.56,1.44,6.24,2.27-.11,2.73-2.07,3.19-9.63,2.16-12.82,3.5-4.69,2.58-3.4,5,3.3,2.68,4.74,1.65,3.76-2.27,8.5-2.94,4.17-2.27,5-4.68,1.91-3.46,5.34-3.47,7.43.89,7.85,2.18-5.56,6.85-7.57,9.32-.52,3.3.46,5.77,2.47,2,3.65.57,5.52-9.84,11.65-15.51,7.88-7.41,7.88-8.88a67,67,0,0,1,1-7l1,.07a18.31,18.31,0,0,1-.87,4.15C115.72,65.11,118,66.64,115.41,68.24Z" style="fill:#2b2b2b"/><path d="M121.89,111.63l-.56-.86A7.27,7.27,0,0,1,121.89,111.63Z" style="fill:#ff6427"/><path d="M210.58,109.4c-1.34,1.44-6.28,1.65-10-6.9s-6.49-15.25-4.33-18.44,4-4.74,4.13-7.52,2.25-7.56,4.51-8.67a0,0,0,0,1,0,0l.48-.09A29.41,29.41,0,0,0,202,76.54a13.37,13.37,0,0,1-2.78,5.66c-1,1.24-2.48,3.09-1.55,8.35s6.52,17.58,8.86,18.23,3,.1-1.86-10.61-.1-15.14,2.38-21.11a11.77,11.77,0,0,0-.06-9.65c.7-.14,1.08-.24,1.08-.24s2.89,4.94,1.13,9.27-7.1,11.23-4.32,18.54S211.92,108,210.58,109.4Z" style="fill:#2b2b2b"/><path d="M206.57,108.78c-2.34-.65-7.93-13-8.86-18.23s.51-7.11,1.55-8.35A13.37,13.37,0,0,0,202,76.54a29.41,29.41,0,0,1,3.35-8.77h0c.65-.13,1.19-.25,1.62-.35a11.77,11.77,0,0,1,.06,9.65c-2.48,6-7.22,10.4-2.38,21.11S208.9,109.43,206.57,108.78Z" style="fill:#00bcf2"/><path d="M55.75,62h0c-1.34-6.57-7-12.83-16.11-10.86a21.92,21.92,0,0,0-4.09,1.3c1.57.48,3,1.09,3.37,1.77.85,1.65-.75,1.82-2.79.94a14.26,14.26,0,0,0-3.76-.95A12.89,12.89,0,0,0,26.59,64c0,.33,0,.67,0,1a13.09,13.09,0,0,0,.71,4.32c1.19-.06,1.26-.41,2.09.16s-.45,1.54-1.13,1.62l-.2,0a13.49,13.49,0,0,0,12,7.36,14,14,0,0,0,2-.15l.46-.07h.06l.53-.1.14,0,.54-.13q.35-.08.69-.18l.53-.16.68-.24.39-.15.42-.17c.2-.08.39-.17.57-.26s.38-.18.57-.27l.48-.24h0l.61-.34c.35-.21.69-.42,1-.65s.63-.45.93-.69l.46-.36.32-.28a3.08,3.08,0,0,0,.27-.24l.42-.39.47-.48L53,72.6c.29-.34.57-.68.83-1l.23-.33a8.78,8.78,0,0,0,.54-.86l.2-.34c.08-.16.17-.32.24-.49a10.59,10.59,0,0,0,.43-1A10.08,10.08,0,0,0,56.06,65,14.77,14.77,0,0,0,55.75,62ZM43.86,70.72l-.28.18-.51.28a7.11,7.11,0,0,1-.8.34,7.74,7.74,0,0,1-.86.23,6.87,6.87,0,0,1-1.38.14,7,7,0,0,1-1.38-.14,8.19,8.19,0,0,1-.85-.23,7.27,7.27,0,0,1-.81-.34l-.51-.28-.27-.18a5.83,5.83,0,0,1-.78-.61,6.83,6.83,0,0,1-.76-9.3h0c.16-.2.33-.38.5-.56a5.47,5.47,0,0,1,.57-.51,4.51,4.51,0,0,1,.61-.44A6.74,6.74,0,0,1,40,58.2a6.89,6.89,0,0,1,2.91.65,7.65,7.65,0,0,1,1,.58l.46.36h0l.28.24c.09.08.17.17.26.26a6.86,6.86,0,0,1-.31,9.82A7.46,7.46,0,0,1,43.86,70.72Z" style="fill:#1717aa"/><path d="M44.41,59.79h0a5.19,5.19,0,0,0-.46-.36l.46.36h0l.28.24Zm-9.74,1Z" style="fill:#ff6427"/><path d="M23.82,22.26C15.25,10,10.11-.34,11.17,0,13.34.73,15.34,3.35,23,13.26A64,64,0,0,0,23.82,22.26Z" style="fill:#2b2b2b"/><path d="M108,53s-3.38-8.71-5.23-15.43c-2.92,3.84-9.08,2.76-10.52,1.32s-6.8-3.3-9.79-3.09-3.09-.61-4.74-2-7.62-.31-10,1.23-7.31,2.78-10.3,1S51.14,32.87,47.54,33c-2.36.07-6.49-4.6-9.09-7.87a32.47,32.47,0,0,1-5.13-1.95C47.49,49.12,62.6,48,64.94,48s5.77.2,7.93-1.55,11.64-2,15.15-1,5,1.64,9.88,1.75,7.42,3.91,7.42,6.52a2.8,2.8,0,0,1-4.54,2.13,10.45,10.45,0,0,0-6-2.56c-2.37-.29-3.19.6-7.31-.74S77,51.3,72.32,52.54s-11.81.55-11.81.55A51,51,0,0,1,29.35,20.72h0a16.08,16.08,0,0,1-2.8-2.79L23,13.26a64,64,0,0,0,.86,9c11.37,16.37,28.8,36.33,45.7,39.6,1.15-.26,2.35-.58,3.64-.93l.43-.12c7.56-2.08,21.9-2.6,21.9-2.6L108,57.28S108,55.68,108,53ZM88.73,40.69c-2.47-.62-5.66-1.75-9.27-1.32S77.2,41.83,73.18,42s-6-.3-11,1.17-14.73-6.82-14.31-7,4.83,1,4.83,1,4.64,2.25,5.77,3,4.12-.91,8.14-.79,6.59-1,10.51-2.26,13.39,1.73,14.41,2.37S91.2,41.32,88.73,40.69Z" style="fill:#f45721"/><path d="M105.32,53.71a2.8,2.8,0,0,1-4.54,2.13,10.45,10.45,0,0,0-6-2.56c-2.37-.29-3.19.6-7.31-.74S77,51.3,72.32,52.54s-11.81.55-11.81.55A51,51,0,0,1,29.35,20.72c.38.3.77.59,1.18.86,1.11,6.55,8.09,14.14,9.5,15.54a15,15,0,0,1,3.23,4.33c.62,1.38,8.88,7.1,13.82,9.36s6.65,1.06,11.91.91S80.57,49.94,83.74,50,90.23,52,94.09,51.79a10.71,10.71,0,0,1,7.57,3c1,.92,2,0,2.47-1.08s-.62-3-3.48-4.56-7.41-1.24-9.61-2a24.19,24.19,0,0,0-7.53-1.44c-3.56-.18-8.81,1.1-9.89,1.8s-7,5.09-20.94-1.8S32.25,22.62,32.25,22.62c.34.19.7.37,1.07.55C47.49,49.12,62.6,48,64.94,48s5.77.2,7.93-1.55,11.64-2,15.15-1,5,1.64,9.88,1.75S105.32,51.1,105.32,53.71Z" style="fill:#2b2b2b"/><path d="M104.13,53.73c-.46,1.08-1.46,2-2.47,1.08a10.71,10.71,0,0,0-7.57-3C90.23,52,86.91,50.1,83.74,50s-9.5,1.54-14.75,1.7-7,1.34-11.91-.91-13.2-8-13.82-9.36A15,15,0,0,0,40,37.12c-1.41-1.4-8.39-9-9.5-15.54.55.37,1.12.71,1.72,1,0,0,6.53,16.24,20.43,23.13s19.85,2.49,20.94,1.8,6.33-2,9.89-1.8A24.19,24.19,0,0,1,91,47.19c2.2.74,6.76.44,9.61,2S104.6,52.64,104.13,53.73Z" style="fill:#1140d3"/><path d="M102.76,37.52c-2.92,3.84-9.08,2.76-10.52,1.32s-6.8-3.3-9.79-3.09-3.09-.61-4.74-2-7.62-.31-10,1.23-7.31,2.78-10.3,1S51.14,32.87,47.54,33c-2.36.07-6.49-4.6-9.09-7.87,1.5.45,3.07.82,4.67,1.13h0c2.09,1.83,5.39,3.47,6.77,4.62a5,5,0,0,0,6.16.06c1-1,3.42-.23,5-1.42s8.14-1.07,9.68-1a37.2,37.2,0,0,0,7.83.1c3.7-.46,7.93.76,10.09.91s4.33,1.71,6.8,1.6,3.09,2.38,4.22,3.92a3.31,3.31,0,0,0,2.75,1.11C102.51,36.59,102.64,37.05,102.76,37.52Z" style="fill:#2b2b2b"/><path d="M102.4,36.14A3.31,3.31,0,0,1,99.65,35c-1.13-1.54-1.75-4-4.22-3.92s-4.63-1.47-6.8-1.6-6.39-1.37-10.09-.91a37.2,37.2,0,0,1-7.83-.1c-1.54-.06-8.14-.2-9.68,1s-4,.4-5,1.42a5,5,0,0,1-6.16-.06c-1.38-1.15-4.68-2.79-6.77-4.62,14.37,2.76,31.75.41,33.55.15,2.68-.4,5.16,1.21,8.86.21,3.46-.93,3.51,1.46,5.5.63a10.42,10.42,0,0,1,4.08,2.27c1.34,1.47,2,.37,4.12.47,1.52.08,2.28,2.29,2.59,3.59.06.29.11.59.18.9v0C102.13,35,102.26,35.57,102.4,36.14Z" style="fill:#1717aa"/><path d="M101.83,33.57c-.31-1.3-1.07-3.51-2.59-3.59-2.16-.1-2.78,1-4.12-.47A10.42,10.42,0,0,0,91,27.24a3.5,3.5,0,0,0,.47-.24c2.48-1.43,4.33,1.65,5.57.61s4.94-1.23,4.53,3.3A11,11,0,0,0,101.83,33.57Z" style="fill:#2b2b2b"/><path d="M111.29,173.67c-1,0-1,4.32-3.3,3.5s-1.43,4.12-4.32,3.3-2.89,2.68-4.94,1.85-3.3,1.65-7,.46-1.65,2.22-3.91-.46-3.3,1.85-5,0-3.09,0-4.53-1.44-2.88,0-3.91-2.89-3.3-1.23-3.3-3.29-3.91-1.85-5.38-3.5-2.86-3.09-3.06-6.59a5.65,5.65,0,0,0-1.4-3.64c4.13,1.37,10.42,10.69,10.56,9.56s6.8,4.63,6.8,4.63,6.49,2.47,10.35,0S96.41,175,97.8,173s1.23-5.41,2.75-6.95,2.5-4.48,0-10.66c-2.26-5.57,2.09-3.74,1.72-7.48a6.74,6.74,0,0,0-.3-1.44c-1.7-5.68-.15-6.53,2.27-6.84s3.72-3.67-3.51-8.32c-3.61-2.33-5-6.53-5.53-10.15a28.11,28.11,0,0,1-.11-6.66c1.6-1,2.34-1.06,2.4.77a17.19,17.19,0,0,0,1.15,5.1c2,5.63,6.2,11.68,7.3,12.31,1.44.82.62,2.67,3.09,4.12s2.26,15.65.82,21.42S112.32,173.67,111.29,173.67Z" style="fill:#1717aa"/><path d="M91.54,129C89,126.65,99,141,97.49,140c-1.16-.84-8.92-12.19-12.12-16.89L84,121s0,0,0,0c.32-.14.65-.28,1-.43l.13-.06.45-.21.36-.18.71-.35a55.45,55.45,0,0,0,6.15-3.74s.69,1.94.31,1.78-1.63-.07-.08.7,1.08,2.39-.23,1.78-2.4-.31-.78.72a3.7,3.7,0,0,1,.74.66c1.29,1.46,2.25,4.12,1.66,3.4s-4.17-1.77-1.31.23,5.33,7.19,4.78,6.8-4.16-4.09-6.39-5.25,6.55,7.41,7.4,9.27S94.09,131.44,91.54,129Z" style="fill:#00bcf2"/><path d="M104.24,139.63c-2.42.31-4,1.16-2.27,6.84a6.74,6.74,0,0,1,.3,1.44c-3.09,2.56-7.87-4.27-12.51-8a4.88,4.88,0,0,0-.69-.49,35.38,35.38,0,0,1-.75-5.19c-.1-2.31-.82-2.93-2.06-5.4a37.73,37.73,0,0,0-3.73-5.39c-.67-.85-1.15-1.42-1.15-1.42l1.43-.52.56-.23L84,121l1.37,2c3.2,4.7,11,16.05,12.12,16.89C99,141,89,126.65,91.54,129s8.19,9,7.34,7.11-9.62-10.43-7.4-9.27,5.85,4.87,6.39,5.25-1.93-4.78-4.78-6.8.62-1.07,1.31-.23-.37-1.94-1.66-3.4A3.7,3.7,0,0,0,92,121c-1.62-1-.54-1.34.78-.72s1.77-1,.23-1.78-.31-.85.08-.7-.31-1.78-.31-1.78c.91-.63,1.68-1.16,2.31-1.56a28.11,28.11,0,0,0,.11,6.66c.51,3.62,1.92,7.82,5.53,10.15C108,136,106.66,139.32,104.24,139.63Z" style="fill:#f45721"/><path d="M96.87,157s-4.32-1.57-6.28-4.35-2.68-4.23-4-9.23-1.75-6.74-4.12-8.28c-1.93-1.26-3.21-8.54-3.63-11.24-.1-.63-.15-1-.15-1,.22,0,.43-.12.64-.18l.18,0c.1.65.18,1.15.18,1.15a38.92,38.92,0,0,1,1.26,4.77c.19,1.62,1.34,5.18,3,6.18s2.86,5.41,4.32,10.62,5.8,8.69,5.73,8.23-3.17-6.41-4.64-8.87-1.7-6.81-1.61-9a6.66,6.66,0,0,0-1.56-5,76,76,0,0,1-4.94-7.12c-.27-.41-.56-.9-.78-1.28.31-.09.6-.19.89-.3,0,0,.48.57,1.15,1.42a37.73,37.73,0,0,1,3.73,5.39c1.24,2.47,2,3.09,2.06,5.4a35.38,35.38,0,0,0,.75,5.19C86.2,138,94.26,151.28,96.87,157Z" style="fill:#2b2b2b"/><path d="M100.55,155.38c2.5,6.18,1.51,9.12,0,10.66s-1.36,5-2.75,7-4.94-.31-8.81,2.16-10.35,0-10.35,0-6.64-5.87-6.8-4.64-6.43-8.18-10.56-9.56a4.05,4.05,0,0,1-.67-2.12c-.2-2.89-1.44-2.89-1.1-6s-.54-2.47-1.78-8.45,7.75-19.65,8-20.06h0c1.2,0,2.36,0,3.49,0l0,.09c-.39,1.56-5.36,21.11-5,25.56.26,3.13,2.94,4.92,4.94,7a9.09,9.09,0,0,1,1,1.12,6,6,0,0,1,1.13,2.35,22.25,22.25,0,0,0,.93,3.8,4.93,4.93,0,0,0,.74,1.1c.47.54,1.15,1.21,2.2,2.21,3.55,3.4,3.22-1.79,9.45,2.47a6.77,6.77,0,0,0,3.22,1.42h0c1.2.08,1.78-.73,2.3-1.52s1.15-1.81,2.48-1.44c3.24.92,5.87-5.41,6.64-5.87s.46.46-2.32-5.64c-2.61-5.73-10.67-19-7.8-17.56a6.41,6.41,0,0,1,.7.48c4.63,3.71,9.41,10.54,12.5,8C102.64,151.65,98.29,149.82,100.55,155.38Z" style="fill:#2b2b2b"/><path d="M70.53,124.41c-.07,1.49-.63,13.74-.44,15.54s-.41,4.54-.49,7.25.49,10.92.49,10.92a10.76,10.76,0,0,0-1-1.11s-.9-8.69-.8-10.28a34.83,34.83,0,0,0,.4-5.92c-.19-2.2.19-12.93,1.25-16.39a.65.65,0,0,0,0-.13l.5,0Z" style="fill:#2b2b2b"/><path d="M72.15,164.29a22.52,22.52,0,0,1-.93-3.8,6.12,6.12,0,0,0-1.13-2.37s-.57-8.21-.49-10.92.7-5.33.49-7.25.37-14,.44-15.54v-.15l.85-.07s0,.07,0,.2c-.07,1.85-.57,16,0,17.56s.62,11.74.77,13.44S72.15,164.29,72.15,164.29Z" style="fill:#1717aa"/><path d="M72.89,165.37a4.85,4.85,0,0,1-.74-1.08s.16-7.2,0-8.9S72,143.56,71.38,142s-.08-15.71,0-17.56c0-.13,0-.2,0-.2l.78-.07a1.58,1.58,0,0,1,0,.24c-.11,1.71-.72,11.79,0,15.09.81,3.63.81,4.86.61,10.53S74.13,161.2,72.89,165.37Z" style="fill:#2b2b2b"/><path d="M80.7,160.38c0-3.81-1.13-8.78-2.78-13.91s-3-9.36-3.3-11c-.27-1.46-.48-9.3-.53-11.19v-.41c-.63.1-1.27.18-1.93.26a1.58,1.58,0,0,1,0,.24c-.11,1.71-.72,11.79,0,15.09.81,3.63.81,4.86.61,10.53s1.36,11.22.12,15.39c.47.55,1.15,1.22,2.2,2.22,3.55,3.4,3.22-1.78,9.45,2.47a6.92,6.92,0,0,0,3.22,1.43C87.5,171.21,80.7,164.12,80.7,160.38Zm-5.15,2.78-.51-.51a62.32,62.32,0,0,0-1-7.73c-.75-3.7,1-2,2,.83a99.08,99.08,0,0,1,2.55,9.62C79.51,169,75.55,163.16,75.55,163.16Z" style="fill:#f45721"/><path d="M90.07,170c-.52.79-1.1,1.59-2.3,1.53h0c-.26-.28-7.06-7.37-7.06-11.11s-1.13-8.78-2.78-13.91-3-9.36-3.3-11c-.27-1.46-.48-9.3-.53-11.19v-.41l.53-.08s0,.21,0,.45c.17,1.84.94,10,.74,11.23-.23,1.39,2.62,6.95,4.11,12.76s2.68,9.48,2.26,12.45,6.71,10.74,6.6,7.61-4.71-11.19-6-14.63S81,143.34,79.88,141.33c-1-1.79-3.77-14.37-4.37-17.15l-.11-.54.72-.14s0,.23.12.63c.43,2.33,2,10.48,3.33,13.9,1.54,4,2.27,4,2.36,7.93a27.12,27.12,0,0,0,4.33,13.6A29.25,29.25,0,0,1,90.07,170Z" style="fill:#2b2b2b"/><path d="M88.37,168.28c.11,3.13-7-4.65-6.6-7.61s-.79-6.62-2.26-12.45-4.34-11.37-4.11-12.76c.2-1.23-.57-9.39-.74-11.23,0-.24,0-.45,0-.45l.78-.14.11.54c.6,2.78,3.33,15.36,4.37,17.15,1.16,2,1.16,8.88,2.47,12.32S88.27,165.16,88.37,168.28Z" style="fill:#1717aa"/><path d="M96.87,157s-4.32-1.57-6.28-4.35-2.68-4.23-4-9.23-1.75-6.74-4.12-8.28c-1.93-1.26-3.21-8.54-3.63-11.24-.1-.63-.15-1-.15-1-.81.22-1.66.43-2.55.61,0,0,0,.23.12.63.43,2.33,2,10.48,3.33,13.9,1.54,4,2.27,4,2.36,7.93a27.12,27.12,0,0,0,4.33,13.6A29.25,29.25,0,0,1,90.07,170c.61-.92,1.15-1.82,2.48-1.44,3.24.93,5.87-5.41,6.64-5.87S99.65,163.11,96.87,157Zm-3.29,8.36c-1.14-.57-2,1.4-3-.3s-1.7-4.28-2.82-6.44,1-.26.6-2.63-2.11-6-.6-5S94,162.39,94,162.39C95.48,165.53,94.71,165.94,93.58,165.37Z" style="fill:#f45721"/><path d="M93.58,165.37c-1.14-.57-2,1.4-3-.3s-1.7-4.28-2.82-6.44,1-.26.6-2.63-2.11-6-.6-5S94,162.39,94,162.39C95.48,165.53,94.71,165.94,93.58,165.37Z" style="fill:#1717aa"/><path d="M134.31,107.18c3.45,6.18,3.19,7.1,5.72,8.09a27.9,27.9,0,0,1,5.93,3.86l-.67,0c-11.54-3.62-17.1-18.92-12.88-19.85s8.23,2.37,8.44,7,13.4,12.37,13.4,12.37l-1.46.1s-7.36-4.8-8.9-6.08-3.71-4-4.07-6-1.54-5.51-4.27-6S130.86,101,134.31,107.18Z" style="fill:#2b2b2b"/><path d="M221.09,140.44c-2.06,3.45-1.65,4.8-5.77,9.95s3.92,9.68-6.59,8.24-14.83-10.92-16.07-7,2.68,9.89,2.68,9.89c-11.55.16-16.79-9-18.39-9.4A82.12,82.12,0,0,0,171.3,142a2.17,2.17,0,0,0,1.07-1.95,1.7,1.7,0,0,1,1.12-1.66c1.18,1.7,2.4,3.23,3.52,5,2.36,3.76,14.42,6.55,14.42,6.55-2.78-2.15-3.85-4.75-4.91-6.95a6.39,6.39,0,0,0,6.62-1.32c2.71,1.35,5,1.89,7.45,3.33,3.5,2.05,7.21,1.74,4.33,0s-2.37-2.68-3-4.74a9.93,9.93,0,0,0-2.3-3.13c.76,0,.89-.2-.48-1.4-3.37-3,5.31-1,4.92-3.24,1.25.78,2.29,1.38,3,1.73,5.36,2.64,7.11,1,8.55,1.4s6.49,1.66.82-1.85c-2.65-1.64-5.58-3.43-8.12-4.91,1.3-.44,3.21-.77,0-2.82-4.81-3.09-1.68-2.06,1.44-1.13,1.92.58,3.5.4,3.7-.54a21.09,21.09,0,0,0,2.86,1.33c1.21.31-1.63-4.63-4.59-7.33.48-.59.82-1.14-.25-2.06a3.91,3.91,0,0,1-1.72-2.8c4.71,1.68,7,4.18,7,5.82,0,2.76,3.92,10.63,6.39,14.34S223.15,137,221.09,140.44Z" style="fill:#1717aa"/><path d="M178.1,157a42.45,42.45,0,0,1-7.07-6.92c-2.37-3.3-3.81-2-6.07-5.35-1-1.51-2.49-3.9-4-6.51,1.11,0,2.25,1.32,3.85,3.21s4.78,1.78,6.45.61A82.12,82.12,0,0,1,177,152.12c-.35-.08-.52.25-.56,1.15A5.45,5.45,0,0,0,178.1,157Z" style="fill:#2b2b2b"/><path d="M191.43,150s-12.06-2.79-14.42-6.55c-1.12-1.77-2.34-3.3-3.52-5,2-1,6.37-.46,9.9,2.69a9.3,9.3,0,0,0,3.13,1.91C187.58,145.23,188.65,147.83,191.43,150Z" style="fill:#2b2b2b"/><path d="M211.76,118.41a10.26,10.26,0,0,0-.92-.76c-3.24-2.38-1-.48-7.67-3.15a26.5,26.5,0,0,0-12.73-1.63q3.15-.63,6.1-1.05a36.38,36.38,0,0,1,13.25,1.73,3.91,3.91,0,0,0,1.72,2.8C212.58,117.27,212.24,117.82,211.76,118.41Z" style="fill:#f45721"/><path d="M145.47,143.82h0c-.14,1.27-.19,2.44-.19,2.44a27.59,27.59,0,0,1-8.72-12,4,4,0,0,0,3.62-2A114.86,114.86,0,0,0,145.47,143.82Z" style="fill:#1717aa"/><path d="M171.3,142c-1.67,1.17-4.85,1.28-6.45-.61s-2.74-3.17-3.85-3.21a50.85,50.85,0,0,1-4.39-9.56c-1.34-4.74-5.15-9.58-2.88-8.24C155.4,121.4,164.8,132,171.3,142Z" style="fill:#2b2b2b"/><path d="M172.37,140.09A2.17,2.17,0,0,1,171.3,142c-6.5-10.08-15.9-20.64-17.57-21.62-2.27-1.34,1.54,3.5,2.88,8.24a50.85,50.85,0,0,0,4.39,9.56,1.94,1.94,0,0,0-1.4.64c-.48.44-1.07,1.08-1.73,1.6a13.75,13.75,0,0,1-1.36-3.8c0-2.33-8.15-13.06-8.81-15.31-.42-1.39-.58,3.17.35,8.53-2.42-3.13-4.87-5-5.42-3.08-.23.79-.53,1.71-.9,2.63-1.8-5.19-3-8.92-3.45-5.61-.25,1.94.63,5.12,1.9,8.47a4,4,0,0,1-3.62,2,47.44,47.44,0,0,1-3.23-14.89c3.79,0,7.83-.06,12-.22l.67,0q3.4-.13,6.83-.35l1.46-.1c2.13-.14,4.25-.32,6.34-.53,0,0,7.15,7.93,9.21,13.39a30.17,30.17,0,0,0,3.69,6.89A1.7,1.7,0,0,0,172.37,140.09Z" style="fill:#f45721"/><path d="M146.31,140.71c-.43.22-.69,1.72-.84,3.11a114.86,114.86,0,0,1-5.29-11.53,13.09,13.09,0,0,0,1.55-2.86A77.91,77.91,0,0,0,146.31,140.71Z" style="fill:#2b2b2b"/><path d="M160,150.49a.69.69,0,0,0-.55.31,3.36,3.36,0,0,0,0,3.92c-10.71-3.3-12.36-14.42-13.18-14a77.91,77.91,0,0,1-4.58-11.28c.37-.92.67-1.84.9-2.63.55-1.9,3,0,5.42,3.08h0a28.88,28.88,0,0,0,3.3,9.8c4.34,7,5.67,11.23,6.5,10.3C158.36,149.4,159.07,149.57,160,150.49Z" style="fill:#1717aa"/><path d="M164.49,153.09c-2.09-1.53-3.59-2.67-4.45-2.6-1-.92-1.68-1.09-2.19-.51-.83.93-2.16-3.29-6.5-10.3a28.88,28.88,0,0,1-3.3-9.8,31.55,31.55,0,0,1,4.5,7.94c1.66,4.55,3.69,3.93,5.32,2.64C160.15,145.42,164.49,153.09,164.49,153.09Z" style="fill:#2b2b2b"/><path d="M177.63,159.87c-5.59-1.34-10-4.5-13.14-6.78,0,0-4.34-7.67-6.62-12.63.66-.52,1.25-1.16,1.73-1.6a1.94,1.94,0,0,1,1.4-.64c1.47,2.61,3,5,4,6.51,2.26,3.4,3.7,2.05,6.07,5.35A42.45,42.45,0,0,0,178.1,157h0C180.86,160.05,185.2,161.68,177.63,159.87Z" style="fill:#1717aa"/><path d="M228,80.76c7.42,0,25.9-5.25,26.85-4.17s-2.59,4.64-19,5.87-17.87,3.25-8.85,3.25,37.74-2.47,39.44-.78-9.42,3.09-27.65,2.63-18.54,1.34-14.67,2.21,21.93.88,23.32,2.58,6.06,2.32-5.7,2.32-15.31-1.24-13.92.77,28.58,2.47,30.74,3.25,8.81,2.16-9.11,2.16-28.58-1.86-28,0,34.3,7.72,38.63,9.73,4.48,4.33-6.65,2.47-30.12-8.49-30.12-7.26,18.57,7.26,18.4,8.81-20.75-5.06-20.75-5.06c-2.51-6-4.22-14.17-2.86-24.65,1.63-12.54-.86-19.42-3.35-23,0,0,14.38-20.48,16.64-20.54s-8.34,13.28-10.4,16.89-.62,4.63,4.43-1S240.25,43,242.1,43.68s-19.26,17.82-21.52,21,13.59-5.15,19.67-9.58,2,2.47-10.92,8.44-7,8.45,4.94,3.61,19.41-9.17,20.62-8.24S246.32,66.24,232,70.46s-11.94,5.87-7.82,5.87,37.58-9.63,43.1-9.63-4.49,6-27.81,9.63S220.63,80.76,228,80.76Z" style="fill:#f45721"/><path d="M159.18,38.32c-.83-.64-3.6-2.57-4.32-4.63s-7-1.64-5.46,2.32,6.29,6.54,7.83,5.92S161.45,40.09,159.18,38.32ZM156.38,41a11,11,0,0,1-5-3.25c-1.19-1.49-1.38-3.68.26-4.43s2.63,1.13,2.63,1.13,2.26,3.09,4.17,4.17S157.85,41.37,156.38,41Z" style="fill:#2b2b2b"/><path d="M193.79,64.08c-1.54-2.47-2.57-1.55-6.28-1.55s-4.12-.62-4.32-3.5,1.23-4.33-3.3-4.33-4.53-.31-5.35-3.19-2.07-2.88-5.26-4.12c0,0-3.3-4.22-3.61-6.07s-1.13-2.38-3.4-1.24-.92,5.77.83,8,2.37,4.74,3.91,6.08,6.6,3.91,8.86,6.28a27.7,27.7,0,0,0,5.67,4.43,12.49,12.49,0,0,0,7.31,1.8C192.35,66.65,195.34,66.55,193.79,64.08Zm-9.63,1.34c-2.31,0-5.82-4.07-7.46-5.25s-5.31-4.7-7.21-5.78-2.17-2.67-4.18-4.11-3.5-6.44-3.39-8,2.16-1.7,2.42-1.44a14.24,14.24,0,0,1,1,1.85c1,1.85,3.82,6,5.72,6.59s2.27,2.22,2.83,4a3.19,3.19,0,0,0,3.4,2.26A12.39,12.39,0,0,1,182,56.71c.77.52.36,4.23.72,5s3.81,1.34,6.23,1.34,3.61.41,3.66,1.95S186.48,65.42,184.16,65.42Z" style="fill:#2b2b2b"/><path d="M146.52,39.48l-5.05,11.93c-2.88-.93-1.75-.52-2.68-4.84s-2.37-6.6-4.53-6-2.58.27-4.63-3.28-1.86-3.87-4.64-4-3-1.75-7.11-2.35-7-2.59-6.9-3.93,2.16-2.27,6.9,0,3.71,1.65,7.62.61,5.57,3.2,9.07,4.86,5.36,1.12,6.9,3.07S142.91,39.77,146.52,39.48Z" style="fill:#00b7e2"/><path d="M184.11,69.21c-.06,7.23-5.87,11.14-12.15,8.86-4.83-1.74-8.7-9-10.66-13.81C172.48,66.48,181.29,68.53,184.11,69.21Z" style="fill:#ff6427"/><path d="M171.75,79c-4.63-.61-8.13-6.08-8.13-6.08s-2.65-5.17-4.16-9l1.84.36c2,4.82,5.83,12.07,10.66,13.81,6.28,2.28,12.09-1.63,12.15-8.86.63.14,1,.23,1,.23-.49.07-.54.11,0,.14C185.54,80.76,176.37,79.63,171.75,79Z" style="fill:#2b2b2b"/><path d="M192.61,65.05c0,1.55-6.13.37-8.45.37s-5.82-4.07-7.46-5.25-5.31-4.7-7.21-5.78-2.17-2.67-4.18-4.11-3.5-6.44-3.39-8,2.16-1.7,2.42-1.44a14.24,14.24,0,0,1,1,1.85c1,1.85,3.82,6,5.72,6.59s2.27,2.22,2.83,4a3.19,3.19,0,0,0,3.4,2.26A12.39,12.39,0,0,1,182,56.71c.77.52.36,4.23.72,5s3.81,1.34,6.23,1.34S192.56,63.51,192.61,65.05Z" style="fill:#1140d3"/><path d="M156.38,41a11,11,0,0,1-5-3.25c-1.19-1.49-1.38-3.68.26-4.43s2.63,1.13,2.63,1.13,2.26,3.09,4.17,4.17S157.85,41.37,156.38,41Z" style="fill:#1140d3"/><path d="M145.69,33.79c-1.85-.1-6.59-3.7-4.22-4.22s4.22,2.06,4.22,2.06S147.55,33.9,145.69,33.79Z" style="fill:#1140d3"/><path d="M146.52,31.65a6.41,6.41,0,0,0-3.35-2.85c-2.16-.64-3.89.31-2.68,2.29s5.33,3.84,6.41,3.32S146.52,31.65,146.52,31.65Zm-.83,2.14c-1.85-.1-6.59-3.7-4.22-4.22s4.22,2.06,4.22,2.06S147.55,33.9,145.69,33.79Z" style="fill:#2b2b2b"/><path d="M118.81,38.63c-.28-.31-4.53-7.89-6.69-7s-4.54,4.51-2.78,6.27,3.49,3.47,3.91,6.11,4,3.87,5.15,2.74S121.59,41.83,118.81,38.63Zm-1.7,7.06c-1.39.42-2.83-1.44-3-2.63a11.36,11.36,0,0,0-3.82-5.45c-2.07-1.6.32-3.77,1.3-4.45s2.52.94,2.52.94A37.25,37.25,0,0,1,119,40.53,3.53,3.53,0,0,1,117.11,45.69Z" style="fill:#2b2b2b"/><path d="M117.11,45.69c-1.39.42-2.83-1.44-3-2.63a11.36,11.36,0,0,0-3.82-5.45c-2.07-1.6.32-3.77,1.3-4.45s2.52.94,2.52.94A37.25,37.25,0,0,1,119,40.53,3.53,3.53,0,0,1,117.11,45.69Z" style="fill:#00b7e2"/><path d="M136.58,55.17c-.06.67-.29,2.56-.38,4.7L135,59.7a16.44,16.44,0,0,1,.29-2.84c.36-1.39.38-2.11.1-2.67,0,0-2.72-5.82-6.28-8.14s-8.19-2.37-7.57.46c.55,2.52,2,8.71,3.63,11.93l-.94-.1a45.77,45.77,0,0,1-3.46-10.24c-1-4.89,3.6-5.86,7.21-4.07s7.93,8.15,7.93,8.15A7.31,7.31,0,0,1,136.58,55.17Z" style="fill:#2b2b2b"/><path d="M132.51,71.13c-3.61-.56-6-2.57-6.18-4.66s.1-3.89-1.23-6.41c-.27-.5-.56-1.08-.87-1.72l.94.1a8.37,8.37,0,0,0,.59,1.05,8.54,8.54,0,0,1,1.7,5.72c0,1.39,1,3.76,4.28,4.48s4.32-.1,3.65-2.83A30.07,30.07,0,0,1,135,59.7l1.2.17a20.93,20.93,0,0,0,.43,6.22C137.61,69.44,136.11,71.7,132.51,71.13Z" style="fill:#2b2b2b"/><path d="M131.74,69.69c-3.25-.72-4.28-3.09-4.28-4.48a8.54,8.54,0,0,0-1.7-5.72,8.37,8.37,0,0,1-.59-1.05c3.22.36,6.52.79,9.83,1.26a30.07,30.07,0,0,0,.39,7.16C136.06,69.59,135,70.41,131.74,69.69Z" style="fill:#00bcf2"/><path d="M135.29,56.86A16.44,16.44,0,0,0,135,59.7c-3.31-.47-6.61-.9-9.83-1.26-1.59-3.22-3.08-9.41-3.63-11.93-.62-2.83,4-2.78,7.57-.46s6.28,8.14,6.28,8.14C135.67,54.75,135.65,55.47,135.29,56.86Z" style="fill:#00b7e2"/><path d="M91.51,39.48c-1-.64-10.5-3.6-14.41-2.37s-6.49,2.37-10.51,2.26-7,1.59-8.14.79-5.77-3-5.77-3-4.43-1.2-4.83-1,9.27,8.53,14.31,7,7-1,11-1.17,2.68-2.23,6.28-2.65,6.8.7,9.27,1.32S92.55,40.12,91.51,39.48Zm-1.05.68c-.73.27-7.15-1.38-8.73-1.46s-3.13-.08-4,.5a9.09,9.09,0,0,1-5.39,2.17c-2.72,0-10,1.11-11.84,1.27s-6.94-3-8.41-3.94-1.59-1.3-1.59-1.3c-.51-.56,1.86.41,3.37,1s3.82,2.18,5,2.56,3.05-.23,5.17-.58,6.72-.5,8.81-1.16,3.52-1.85,7.45-1.8S91.19,39.9,90.46,40.16Z" style="fill:#2b2b2b"/><path d="M90.46,40.16c-.73.27-7.15-1.38-8.73-1.46s-3.13-.08-4,.5a9.09,9.09,0,0,1-5.39,2.17c-2.72,0-10,1.11-11.84,1.27s-6.94-3-8.41-3.94-1.59-1.3-1.59-1.3c-.51-.56,1.86.41,3.37,1s3.82,2.18,5,2.56,3.05-.23,5.17-.58,6.72-.5,8.81-1.16,3.52-1.85,7.45-1.8S91.19,39.9,90.46,40.16Z" style="fill:#1140d3"/><path d="M108,58.45c.3,1.63-2.93,6.09-4.63,7.72s1.16,3.23-1.34,3.91-2.75-.52-3-2.68-5.56-2.24-7.43-2.35a27,27,0,0,1-9-2.75,20.76,20.76,0,0,0-9-1.49c7.56-2.08,21.9-2.6,21.9-2.6L108,57.28h.11A2.12,2.12,0,0,0,108,58.45Z" style="fill:#ff6427"/><path d="M116.56,57.64h0c-2.74-.19-5.36-.32-7.84-.35H108s0-1.6,0-4.33c0-.81,0-1.73,0-2.73,0,0,4.52-1.49,5.65,0S117.09,54.24,116.56,57.64Z" style="fill:#00bcf2"/><path d="M187.56,106.05c-8.8,0-13.75,3.76-22.09,4.11s-13.6-8.23-13.6-8.23c-4-14.37-15.45-19.47-24.56-16.53s-7.57,13.9-7.85,19.31a9.55,9.55,0,0,0,1.82,6c-.62-.87-1.49-2-2.54-3.43-3-4.16-4.41-22.48,11.35-24s22.17,14.83,24.16,19.32,8.75,6.72,12.61,6.33,14.37-3.71,20.62-3.86,7.73-2.09,7.37-4.41-3.73-3.7-8.37-3.7-16.22,4.86-18.85,4.94a9.35,9.35,0,0,1-4.17-.7s-2.93-1.31-3.79-3.78S156,89.88,152,84.09s-17.3-9.61-24.33-9.82S121.21,78.06,113,84.4s-4.94,17-2.31,24.1,9,6.41,10.79,5.31c.9-.55,1-1.14.44-2.11a3.63,3.63,0,0,1,.74,3.13c-.92,2.86-11.43,3-14.68-11.51s4-19.16,10.67-26.42,11.12-3.55,21.43-.77,17.65,10.35,20,18.69S167,101,175.2,98.07s15.61-3.25,19.65,0S196.37,106.1,187.56,106.05Z" style="fill:#2b2b2b"/><path d="M187.48,105.1c-6.25.15-16.76,3.49-20.62,3.86s-10.62-1.86-12.61-6.33-8.4-20.79-24.16-19.32-14.38,19.79-11.35,24c1.05,1.46,1.92,2.56,2.54,3.43a.22.22,0,0,1,0,.08l.56.86a.25.25,0,0,1,0,.07c.53,1,.46,1.56-.44,2.11-1.83,1.1-8.17,1.8-10.79-5.31S104.83,90.73,113,84.4s7.57-10.33,14.61-10.13,20.32,4,24.33,9.82,6.88,10.89,7.72,13.36,3.79,3.78,3.79,3.78a9.35,9.35,0,0,0,4.17.7c2.63-.08,14.22-4.94,18.85-4.94s8,1.39,8.37,3.7S193.74,104.94,187.48,105.1Z" style="fill:#00bcf2"/><path d="M121.89,111.63l-.56-.86A7.27,7.27,0,0,1,121.89,111.63Z" style="fill:#ff6427"/><path d="M152.79,118.78q-3.42.21-6.83.35a27.9,27.9,0,0,0-5.93-3.86c-2.53-1-2.27-1.91-5.72-8.09s-1.49-7.05,1.24-6.54,3.91,4,4.27,6,2.52,4.73,4.07,6S152.79,118.78,152.79,118.78Z" style="fill:#00bcf2"/><path d="M141.73,129.43a13.09,13.09,0,0,1-1.55,2.86c-1.27-3.35-2.15-6.53-1.9-8.47C138.7,120.51,139.93,124.24,141.73,129.43Z" style="fill:#2b2b2b"/><path d="M157.87,140.46c-1.63,1.29-3.66,1.91-5.32-2.64a31.55,31.55,0,0,0-4.5-7.94h0c-.93-5.36-.77-9.92-.35-8.53.66,2.25,8.81,13,8.81,15.31A13.75,13.75,0,0,0,157.87,140.46Z" style="fill:#2b2b2b"/><path d="M200.59,145c-2.44-1.44-4.74-2-7.45-3.33a6.71,6.71,0,0,0,1.71-2.55c.9-2.38,3.6-2,4.78-2a9.93,9.93,0,0,1,2.3,3.13c.62,2.06.11,3,3,4.74S204.09,147.09,200.59,145Z" style="fill:#2b2b2b"/><path d="M216.35,125.74a21.09,21.09,0,0,1-2.86-1.33c.12-.59-.28-1.47-1.47-2.65-1.75-1.76-.88-2.58-.26-3.35C214.72,121.11,217.56,126.05,216.35,125.74Z" style="fill:#ff6427"/><path d="M213.49,124.41c-.2.94-1.78,1.12-3.7.54-3.12-.93-6.25-2-1.44,1.13,3.19,2,1.28,2.38,0,2.82a34.88,34.88,0,0,0-6.19-3.16c-1.75-.38-10.71-5.63-13.5-7.59s5.88-2.22,13.71,1C207.3,121.19,211.06,123.15,213.49,124.41Z" style="fill:#f45721"/><path d="M215.63,135.66c-1.44-.41-3.19,1.24-8.55-1.4-.72-.35-1.76-.95-3-1.73a1.14,1.14,0,0,0-.08-.27c-1.13-2.67,4.84-.82,3.61-2.37-.42-.51.08-.77.73-1,2.54,1.48,5.47,3.27,8.12,4.91C222.12,137.32,217.07,136.07,215.63,135.66Z" style="fill:#2b2b2b"/><path d="M186.52,143a9.3,9.3,0,0,1-3.13-1.91c-3.53-3.15-7.88-3.68-9.9-2.69a30.17,30.17,0,0,1-3.69-6.89c-2.06-5.46-9.21-13.39-9.21-13.39,1.52-.15,3-.31,4.51-.5,0,0,16.23,19.77,19,21.93A9.18,9.18,0,0,1,186.52,143Z" style="fill:#2b2b2b"/><path d="M193.14,141.71a6.39,6.39,0,0,1-6.62,1.32,9.18,9.18,0,0,0-2.41-3.45c-2.78-2.16-19-21.93-19-21.93,1.67-.21,3.32-.44,4.91-.7.37.48,14.88,19.06,19.36,22.42A24.39,24.39,0,0,0,193.14,141.71Z" style="fill:#f45721"/><path d="M199.63,137.17c-1.18,0-3.88-.39-4.78,2a6.71,6.71,0,0,1-1.71,2.55,24.39,24.39,0,0,1-3.77-2.34c-4.48-3.36-19-21.94-19.36-22.42,1.05-.18,2.08-.36,3.08-.55l1.31-.25c1.62,1.91,12.08,10.86,16.51,13.74A54.06,54.06,0,0,1,199.63,137.17Z" style="fill:#2b2b2b"/><path d="M199.15,135.77c1.37,1.2,1.24,1.39.48,1.4a54.06,54.06,0,0,0-8.72-7.28C186.48,127,176,118.06,174.4,116.15l4.39-.88s17.19,12.26,25.28,17.26C204.46,134.79,195.78,132.79,199.15,135.77Z" style="fill:#f45721"/><path d="M188.64,118.15c2.79,2,11.75,7.21,13.5,7.59a34.88,34.88,0,0,1,6.19,3.16c-.65.22-1.15.48-.73,1,1.23,1.55-4.74-.3-3.61,2.37a1.14,1.14,0,0,1,.08.27c-8.09-5-25.28-17.26-25.28-17.26,4.21-.87,7.94-1.69,11.44-2.37h.21a26.5,26.5,0,0,1,12.73,1.63c6.63,2.67,4.43.77,7.67,3.15a10.26,10.26,0,0,1,.92.76c-.62.77-1.49,1.59.26,3.35,1.19,1.18,1.59,2.06,1.47,2.65-2.43-1.26-6.19-3.22-11.14-5.26C194.52,115.93,185.86,116.19,188.64,118.15Z" style="fill:#2b2b2b"/><path d="M214.85,87.87c-2.72-1.85-6.63,1.43-5.5,3.7s4.16,1.24,4.16,1.24S217.57,89.72,214.85,87.87Zm-1.34,3.23a3.14,3.14,0,0,1-2,.43c-1.08-.21-1-1.08-.26-2.47s2.21-.73,3,0S213.51,91.1,213.51,91.1Z" style="fill:#2b2b2b"/><path d="M213.51,91.1a3.14,3.14,0,0,1-2,.43c-1.08-.21-1-1.08-.26-2.47s2.21-.73,3,0S213.51,91.1,213.51,91.1Z" style="fill:#00bcf2"/><path d="M94,153.61c.07.46-4.26-3-5.73-8.23s-2.62-9.61-4.32-10.62-2.85-4.56-3-6.18a38.92,38.92,0,0,0-1.26-4.77s-.08-.5-.18-1.15c.34-.1.68-.2,1-.31.22.38.51.87.78,1.28a76,76,0,0,0,4.94,7.12,6.66,6.66,0,0,1,1.56,5c-.09,2.16.14,6.52,1.61,9S93.94,153.14,94,153.61Z" style="fill:#1717aa"/><path d="M75.55,163.16l-.51-.51a62.32,62.32,0,0,0-1-7.73c-.75-3.7,1-2,2,.83a99.08,99.08,0,0,1,2.55,9.62C79.51,169,75.55,163.16,75.55,163.16Z" style="fill:#2b2b2b"/><path d="M93.58,165.37c-1.14-.57-2,1.4-3-.3s-1.7-4.28-2.82-6.44,1-.26.6-2.63-2.11-6-.6-5S94,162.39,94,162.39C95.48,165.53,94.71,165.94,93.58,165.37Z" style="fill:#2b2b2b"/><path d="M43.94,65c0,1.77-1.75,3.2-3.91,3.2s-3.9-1.43-3.9-3.2,1.75-3.18,3.9-3.18S43.94,63.28,43.94,65Z" style="fill:#2b2b2b"/><path d="M50.41,60.05c-1.49-1-2.83-1.22-3.54-3.89s-3.62-2.06-5.57-1-4.44,1.69-8.11,1.94-2.4,3.66-2.09,5.41a5.63,5.63,0,0,1-.57,3.31c-1.38,1.76-1.39,3.29,0,5.37s2.52,3.17,4.69,3.39,3.5,1.63,6.49,2.31,5-1,6.12-3.77,1.19-3.09,3.86-4.91S51.9,61.1,50.41,60.05ZM44.64,70.11a9.1,9.1,0,0,1-.78.61l-.28.18-.51.28a7.11,7.11,0,0,1-.8.34,7.74,7.74,0,0,1-.86.23,6.87,6.87,0,0,1-1.38.14,7,7,0,0,1-1.38-.14,8.19,8.19,0,0,1-.85-.23,7.27,7.27,0,0,1-.81-.34l-.51-.28-.27-.18a6.78,6.78,0,0,1-.78-.61,6.83,6.83,0,0,1-.76-9.3h0c.16-.2.33-.38.5-.56a5.47,5.47,0,0,1,.57-.51,4.51,4.51,0,0,1,.61-.44A6.74,6.74,0,0,1,40,58.2a6.89,6.89,0,0,1,2.91.65,7.65,7.65,0,0,1,1,.58l.46.36h0l.28.24c.09.08.17.17.26.26a6.86,6.86,0,0,1-.31,9.82Z" style="fill:#b06dbc"/><path d="M45,60.29c-.09-.09-.17-.18-.26-.26l-.28-.24h0l-.46-.36a7.65,7.65,0,0,0-1-.58A6.89,6.89,0,0,0,40,58.2a6.74,6.74,0,0,0-3.68,1.09,7.35,7.35,0,0,0-.61.44,5.47,5.47,0,0,0-.57.51c-.17.18-.34.36-.5.56h0a6.82,6.82,0,0,0,1.54,9.91l.27.18.51.28a7.27,7.27,0,0,0,.81.34,8.19,8.19,0,0,0,.85.23,7,7,0,0,0,1.38.14,6.87,6.87,0,0,0,1.38-.14,7.74,7.74,0,0,0,.86-.23,7.11,7.11,0,0,0,.8-.34l.51-.28.28-.18a9.1,9.1,0,0,0,.78-.61A6.86,6.86,0,0,0,45,60.29ZM40,68.24c-2.15,0-3.9-1.43-3.9-3.2s1.75-3.18,3.9-3.18,3.91,1.42,3.91,3.18S42.19,68.24,40,68.24Z" style="fill:#f23622"/><path d="M36.13,55.19a14.19,14.19,0,0,0-3.75-.95,18,18,0,0,1,3.17-1.76c1.57.48,3,1.09,3.37,1.77C39.77,55.9,38.17,56.07,36.13,55.19Z" style="fill:#00bcf2"/><path d="M65.74,124.34h0c-.65,0-1.29-.11-1.94-.18.61-1,.78-2.4.87-5,.21-5.32-1.65-6.22-4.43-6.12s-9.16-.82-16.29-3.19S38.72,98,39.16,95.4s-10.74-.93-13.83,0c-2,.59-4.73,3.51-6.5,5.59-.46-.47-.93-1-1.38-1.47,2.77-2.9,7.18-6.52,11.9-6.47,7.82.08,12-.3,12,1.33s-4.84,11,6.84,14.59,15.94.69,18.14,4.59S65.84,124.09,65.74,124.34Z" style="fill:#00bcf2"/><path d="M99.4,102.19h0c-.32-.2-21.11-12.73-27.15-13s14,6.68,21.53,11.37,2,3.14-8.16-1.84S69.28,91.08,68.33,91s16.6,9.57,23.15,12.3,3.37,3.14-3.11,0-19.69-9.48-21-9.64-.49,1.77,8.23,5.79S93.34,108.87,93,109.82s-5.67-2.37-10.87-5.38S68.82,97.8,68.33,98.26s21.5,12.59,21.74,13.83-6.24-2-13.42-6.65-9.35-5.33-8.89-4.17,18.51,12.09,19,13.23-.14,1.53-6.32-2.88-11.36-7-12.74-7.33,4.09,4.55,9.19,8.11,5.22,4.7,4.62,4.94S71.37,111.08,70,109.15s-2.57-1.43-1,.67,6.52,8.37,8.4,9.34a5.62,5.62,0,0,1-3.38-1.51c-2.8-2.63-13.59-14.37-9.9-15.92s1.41-7.87.5-10.16a2.65,2.65,0,0,1,1-3.38c9.12-4,19.56,2,27.29,5.83C98.5,96.81,100,100.21,99.4,102.19Z" style="fill:#00bcf2"/><path d="M99.39,102.19a2.15,2.15,0,0,1-1.5,1.52c-2.62.73-.15,3.12-1.46,3.74s-.55,4.48-2.66,5.24-2.21,2.18-3.7,1.81-2.68,3.46-4.85,3.15-2.93,2-3.84,1.51c-.55-.31-2.13.18-3.91,0-1.88-1-6.77-7.23-8.4-9.34s-.38-2.6,1-.67,10.87,8.42,11.47,8.19S82,116,76.88,112.4s-10.59-8.42-9.19-8.11,6.56,2.93,12.74,7.33,6.8,4,6.32,2.88-18.52-12.07-19-13.23,1.7-.46,8.89,4.17,13.67,7.88,13.42,6.65S67.84,98.73,68.33,98.26s8.55,3.17,13.75,6.18,10.48,6.34,10.87,5.38-8.65-6.31-17.39-10.33S66,93.55,67.33,93.7s14.57,6.49,21,9.64,9.68,2.72,3.11,0S67.38,91,68.33,91s7.16,2.66,17.28,7.64,15.68,6.53,8.16,1.84S66.14,88.84,72.24,89.15,99.07,102,99.39,102.19Z" style="fill:#0ba9cb"/><path d="M28,71.17c-1.11.18-5.06.88-5.06-1.42,0-1.48-2.15-2.66-3.86-3.36l2.46-.78a7.6,7.6,0,0,1,2.33,2.64c1,1.88,1.47,1.12,3,1.12h.36A11.54,11.54,0,0,0,28,71.17Z" style="fill:#00bcf2"/><path d="M28.22,71.14l-.2,0a11.54,11.54,0,0,1-.76-1.81c1.19-.06,1.26-.41,2.09.16S28.9,71.06,28.22,71.14Z" style="fill:#0dccf9"/><path d="M42.86,61.37a4,4,0,1,1,4,4A4,4,0,0,1,42.86,61.37Z" style="fill:#e6dfd9"/></g></g></svg>