<svg xmlns="http://www.w3.org/2000/svg" viewBox="0 0 300.14 166.05"><title>Asset 5</title><g id="Layer_2" data-name="Layer 2"><g id="Ñëîé_2" data-name="Ñëîé 2"><path d="M292.31,94.32c-3.88.84-31.33-17.74-35.77-18.84-2.86-.72,7.62,6.27,17.89,14.52-15.27-8.44-35.51-19.31-37.19-17.59,6-16.14,3.16-25.87,1-30.09a12.15,12.15,0,0,0-1.55-2.49c10.63-1.42,20.92-5.38,30.61-9.83,17.88-8.2,26.39-8.28,30.14-5.91-9.21,4.72-27.61,13.62-39.29,15.74-16.08,2.93,16.92,1.81,27.73-4s3.05,6.1-17.19,8.32-12.75,3.61,3.33,2.5,24.4-7.49,16.08-1.11-39.93,5.54-31.61,6.93,32,3,22,4.44S252.94,55.79,264.58,60s27,10,13.92,7.48-27.51-10-19.19-4S287.87,74.64,289.26,78s-11.92-2.52-25-6.8,10.26,9,21.35,13.46S296.19,93.47,292.31,94.32Z" style="fill:#9799a6"/><path d="M237.24,72.41h0a.4.4,0,0,0-.11.29s-50.19,39.65-96.22,46a212.87,212.87,0,0,1-41.25,2l-11.87-2h0c-5.65-1-10.7-1.85-14.84-2.61h0c-3.2-.59-5.86-1.1-7.82-1.51A41.75,41.75,0,0,1,53.74,110c19.45-2.73,35.59,13.67,70.91,6.23,38.44-8.1,100.7-34.95,106.84-49.39s0-19.23,1.11-22.55,5.69-1.92,5.69-1.92C240.4,46.54,243.26,56.27,237.24,72.41Z" style="fill:#bdd0dc"/><path d="M238.29,42.32a12.15,12.15,0,0,0-1.55-2.49,49.74,49.74,0,0,1-14.92-.63c-4.74-.8-9.45-1.94-14.18-2.72-6.7-1.11-13.4-2.22-20.09-3.29h0c-.37.12-9.29,3.11-27,0C142.39,30,90.07,26.45,75.29,34.6s-15,16.47-22.74,20.73C46,58.93,35,59.22,30,62.15a7.91,7.91,0,0,1,1.1-.08,8.11,8.11,0,0,1,5,14.47c6.3-1.35,10.85-8.65,16.22-8.65,6.29,0,14.24-5.54,15.72,3.15S70,98.93,35.3,97.09A148.17,148.17,0,0,0,53.74,110c19.45-2.73,35.59,13.67,70.91,6.23,38.44-8.1,100.7-34.95,106.84-49.39s0-19.23,1.11-22.55S238.29,42.32,238.29,42.32Zm-174.13,21a3.33,3.33,0,0,1-1.94,1.49c-2.84.92-5.89.42-8.79.81-5.13.69-5.83,2.36-7.21,3.47S43,71.59,41.78,71s-.41-2.5-.41-2.5.83-1.38-.84-2.86-2-3.89,0-4.07A27,27,0,0,0,52.18,58.1c4.44-2.77,8-5,10.72-1.85C64.4,58,65.37,61.28,64.16,63.33Zm64.92,43.76a63.48,63.48,0,0,1-8,1.11c-5,.37-22.74-3.7-29.58-6.11s-12-2.77-12.57-4.88c-.51-2,.9-2.68,2.78-2.85a30.22,30.22,0,0,1,6.49.56c8.52,1.14,17,2.7,25.42,4.37,5.82,1.15,12.72,1.78,18.19,4.29C136.29,105.61,131.67,106.71,129.08,107.09Zm61.13-35.91-.17,0c-15.44,4.3-30.67,9.26-46.27,13-14.12,3.35-29.49,7.19-44.11,6C73.11,88,77.69,77.42,73,65.22s-3.58-29.12,45.5-29.4,94.83,9.43,94.28,20S198.19,69,190.21,71.18Z" style="fill:#c3c3d1"/><path d="M38.21,91.05c1.29-2.3,3.43-3,5.72-3.73l.28-.09A21.55,21.55,0,0,0,57,75.89c5.27-10.67,7.62-4.76,7.21,4.54S51.9,93.08,42.47,93.22C41.06,93.24,36.88,93.43,38.21,91.05ZM185.1,32.79l-14.2-2.26c-11.77-1.84-23.54-3.61-35.36-5.09L132,25c-1.47-.17-2.95-.33-4.44-.46-27.42-2.39-59.67,2.23-76,14.32C34.43,51.63,10,54.77,5.6,55.51A6.79,6.79,0,0,0,.24,60c14.1,7.43,17.55,17.51,11.18,10.16-5.11-5.89-9.68-7.53-11.4-8C.2,64.63,1.74,67.62,5.6,71c5.4,4.8,17.19,16.1,29.69,26.05h0C70,98.93,69.55,79.73,68.08,71s-9.43-3.15-15.72-3.15c-5.37,0-9.92,7.3-16.22,8.65A8.11,8.11,0,1,1,30,62.15c5-2.93,16-3.22,22.54-6.82,7.77-4.26,8-12.57,22.74-20.73s67.1-4.6,85.21-1.42c17.75,3.12,26.67.13,27,0Z" style="fill:#aeb1c1"/><path d="M64.24,80.43c-.41,9.3-12.34,12.65-21.77,12.79-1.41,0-5.59.21-4.26-2.17s3.43-3,5.72-3.73l.28-.09A21.55,21.55,0,0,0,57,75.89C62.3,65.22,64.65,71.13,64.24,80.43Z" style="fill:#9799a6"/><path d="M236.48,91.23c-5.73-1.71.05,2.4,4.37,6s5.91,6-2.56,2.48-12.16-5.18-7.72-.37,10.54,10.54,3.14,7-12.39-6.47-9.06-1.3,7.39,10.73.74,6.29-14.42-8.83-10-3.12,8.13,11.62,1.48,7.18-12.57-11.27-10-5.54,5.78,15.16-.63,9.8-12.5-10.17-9.73-4.44,8.14,13.49,1.11,7.39-12-9.61-7.95-3.7,6.69,11.47-1.46,6.85-16.84-12.05-10.37-4.73,9.43,11.85-.18,6.44-19.6-8.92-13.31-3.93,5.54,6.1-3.14,3.88c-7.56-1.93-13.7-3-12.33.52-15.43-1.92-33.52-4.63-49.26-7.18a212.87,212.87,0,0,0,41.25-2c46-6.38,96.22-46,96.22-46,0,4.16,6.19,10.91,12.85,16.82a36.9,36.9,0,0,1,3.12,3s-3.26-1.29-12.25-5,4.1,5.75,7.65,8.32S242.22,92.93,236.48,91.23Z" style="fill:#9799a6"/><path d="M243.69,106.53c-10.93,10.6-37.28,21.49-58.06,23.65-2,.2-3.94.33-5.8.36-.41,0-.81,0-1.21,0-2,0-4.56-.11-7.46-.31-2-.14-4.27-.33-6.66-.56-4.24-.4-9-.93-14-1.55l-1.56-.2c-1.37-3.5,4.77-2.45,12.33-.52,8.68,2.22,9.43,1.11,3.14-3.88s3.7-1.48,13.31,3.93,6.65.87.18-6.44,2.22.1,10.37,4.73,5.53-.93,1.46-6.84.93-2.41,7.95,3.69,1.66-1.66-1.11-7.39,3.33-.92,9.73,4.44,3.22-4.07.63-9.8,3.32,1.11,10,5.54,3-1.48-1.48-7.18,3.32-1.32,10,3.12,2.59-1.11-.74-6.29,1.67-2.22,9.06,1.3,1.3-2.22-3.14-7-.74-3.14,7.72.37,6.88,1.11,2.56-2.47-10.1-7.7-4.37-6,15.56,7.15,12,4.58-16.64-12-7.65-8.32,12.25,5,12.25,5A4.81,4.81,0,0,1,254,93.9C254.89,96.32,251.86,98.61,243.69,106.53Z" style="fill:#868896"/><path d="M279.06,53.4c6.23,1.11,6,3.77-1.53,5.14S261.31,58,273.09,62s14.15,5.95,13,7.2-18.86-4.79-16.36-2.08,19.82,6.1,20.52,8.87,1.94,6.24-4.3,4.58-16-7.92-14.84-5.13S291,84,294.31,87.79s2.46,10.51-3.19,9.43-15.39-9.29-16.22-9c-.53.18-.56.67.57,2.38l-1-.58c-10.27-8.25-20.75-15.24-17.89-14.52,4.44,1.1,31.89,19.68,35.77,18.84s4.44-5.26-6.66-9.69S251.27,66.88,264.3,71.17s26.35,10.13,25,6.8-21.63-8.59-29.95-14.56,6.1,1.53,19.19,4-2.27-3.32-13.92-7.48,3.88-1.67,13.92-3.05-13.64-3-22-4.44,23.29-.55,31.61-6.93,0,0-16.08,1.11-23.57-.28-3.33-2.5,28-14.14,17.19-8.32-43.81,6.94-27.73,4c11.68-2.12,30.08-11,39.29-15.74a5.37,5.37,0,0,1,2.35,3,79.11,79.11,0,0,0-13.3,4.1c-10,4-20.93,7.63-15.8,7.35s21.62-7,24.54-5.39S292.5,40.07,283.63,42s1.66,2.09,9.71-.82-2.22,3.33-3.47,6-9,3.75-14.28,4.58S272.82,52.29,279.06,53.4Z" style="fill:#868896"/><path d="M210.83,14.76a1.24,1.24,0,0,1-.32.82c-1.39,1.94.09,8.55-39.61,15-11.77-1.84-23.54-3.61-35.36-5.09L132,25c-1.47-.17-2.95-.33-4.44-.46.37-.35,15.56-14.7,32.75-21.3-19.16,15.06-14.29,15.36-9.27,10.92a82.06,82.06,0,0,1,9.18-7c2.7-1.78,5.46-3.86,8.83-3.91.75,0,2.91-.06,3.29.83.57,1.3-3.36,2.73-4.16,3.16-1.9,1-3.79,2.09-5.65,3.19-3.87,2.3-7.71,4.93-10.19,8.69a1.14,1.14,0,0,0-.27.75.82.82,0,0,0,1,.56,2.42,2.42,0,0,0,1.06-.68c6.44-5.93,14.07-9.8,21.68-14A19.62,19.62,0,0,1,184,3.21c1.17-.07,5,.4,3,2.44a4.25,4.25,0,0,1-1.39.83c-7.41,3.17-15.49,5.11-22.06,9.78a12.63,12.63,0,0,0-3.23,3.08c-.23.33-.42.79-.16,1.09a.9.9,0,0,0,.89.15,13.34,13.34,0,0,0,4.86-2.6c1.28-.9,2.59-1.74,3.94-2.54,5.38-3.17,11.13-4.84,16.91-7C188,8,196,4.79,195.84,7.93c-.05.87-1.17,1.57-1.82,2a23.36,23.36,0,0,1-5.6,2.53c-12,3.88-21.63,8-22.18,9.42s3,.88,3,.88C175.09,20.4,181,18.12,186.94,16c3.44-1.22,6.91-2.41,10.44-3.36a21.8,21.8,0,0,1,5.18-1c.47,0,1.33-.07,1.53.49.59,1.64-2.8,2.42-3.82,2.66-1.61.36-3.2.74-4.79,1.15-2.63.66-5.24,1.39-7.83,2.21a69,69,0,0,0-10.2,4c-.66.33-3.92,1.68-3.95,2.69,0,.79,1.4,0,1.79-.16C179.55,22.59,203.81,16.5,210.83,14.76Z" style="fill:#9799a6"/><path d="M210.83,14.76c-7,1.74-31.28,7.83-35.54,9.88-.39.19-1.81.95-1.79.16,0-1,3.29-2.36,3.95-2.69a69,69,0,0,1,10.2-4c2.59-.82,5.2-1.55,7.83-2.21,1.59-.41,3.18-.79,4.79-1.15,1-.23,4.41-1,3.82-2.66-.2-.56-1.06-.5-1.53-.49a21.8,21.8,0,0,0-5.18,1c-3.53.95-7,2.14-10.44,3.36-6,2.12-11.85,4.4-17.72,6.74,0,0-3.54.61-3-.87s10.16-5.54,22.18-9.43A23.36,23.36,0,0,0,194,9.91c.65-.41,1.77-1.1,1.82-2,.17-3.13-7.8.07-9.05.53-5.78,2.14-11.53,3.81-16.91,7-1.35.8-2.66,1.64-3.94,2.54a13.34,13.34,0,0,1-4.86,2.6.9.9,0,0,1-.89-.15c-.26-.3-.07-.76.16-1.09a12.8,12.8,0,0,1,3.23-3.08c6.57-4.67,14.65-6.61,22.06-9.78A4.08,4.08,0,0,0,187,5.65c2-2-1.86-2.51-3-2.44a19.62,19.62,0,0,0-8.15,2.57c-7.61,4.18-15.24,8.05-21.68,14a2.48,2.48,0,0,1-1.06.68.82.82,0,0,1-1-.55,1.14,1.14,0,0,1,.27-.76c2.48-3.76,6.32-6.39,10.19-8.69,1.86-1.1,3.75-2.16,5.65-3.19.8-.43,4.73-1.86,4.16-3.16-.38-.89-2.54-.84-3.29-.83-3.37.05-6.13,2.13-8.83,3.91a81.15,81.15,0,0,0-9.18,7c-5,4.44-9.89,4.14,9.27-10.92.48-.18,1-.36,1.45-.52a40.93,40.93,0,0,1,16-2.68c23,1.39,16.91,2.22,21.35,5.27s5.55-.27,7.49,4.44c1.53,3.71,3.92,4,4.18,4.88A.5.5,0,0,1,210.83,14.76Z" style="fill:#868896"/><path d="M212.73,55.79C212.17,66.3,198.19,69,190.21,71.18l-.17,0c-15.44,4.3-30.67,9.26-46.27,13-14.12,3.35-29.49,7.19-44.11,6C73.11,88,77.69,77.42,73,65.22s-3.58-29.12,45.5-29.4S213.28,45.25,212.73,55.79Z" style="fill:#d1d1e0"/><path d="M11.42,70.18c-5.11-5.89-9.68-7.53-11.4-8A6,6,0,0,1,.24,60C14.34,67.45,17.79,77.53,11.42,70.18Z" style="fill:#2b2b2b"/><path d="M129.08,107.09a63.48,63.48,0,0,1-8,1.11c-5,.37-22.74-3.7-29.58-6.11s-12-2.77-12.57-4.88c-.51-2,.9-2.68,2.78-2.85a30.22,30.22,0,0,1,6.49.56c8.52,1.14,17,2.7,25.42,4.37,5.82,1.15,12.72,1.78,18.19,4.29C136.29,105.61,131.67,106.71,129.08,107.09Z" style="fill:#9799a6"/><path d="M64.16,63.33a3.33,3.33,0,0,1-1.94,1.49c-2.84.92-5.89.42-8.79.81-5.13.69-5.83,2.36-7.21,3.47S43,71.59,41.78,71s-.41-2.5-.41-2.5.83-1.38-.84-2.86-2-3.89,0-4.07A27,27,0,0,0,52.18,58.1c4.44-2.77,8-5,10.72-1.85C64.4,58,65.37,61.28,64.16,63.33Z" style="fill:#e7e7f2"/><path d="M31.11,62.07a7.91,7.91,0,0,0-1.1.08,8.07,8.07,0,1,0,1.1-.08Zm-1.3,12.25a4.14,4.14,0,0,1-4.13-4.14,4,4,0,0,1,.59-2.12h0a4.13,4.13,0,1,1,3.54,6.26Z" style="fill:#f1c07c"/><path d="M34,70.18a4.13,4.13,0,0,1-7.4,2.54,4.13,4.13,0,0,1-.28-4.66h0A4.13,4.13,0,0,1,34,70.18Z" style="fill:#2b2b2b"/><path d="M242.58,166.05c-98.83-8.93-135.93-30.13-148.7-40.84-4.53-3.79-6-6.27-6.09-6.42l11.87,2c15.7,18.45,66.92,31.45,103.55,38.64C225.63,163.81,242.58,166.05,242.58,166.05Z" style="fill:#9799a6"/><path d="M31.62,70.8a2.87,2.87,0,1,1,2.87,2.87A2.87,2.87,0,0,1,31.62,70.8Z" style="fill:#f8f8f7"/><path d="M129.69,105.67a1,1,0,0,0,0-1.47c-1.12-1.41-3.88-1.6-5.52-2-7.85-1.66-32.25-6.38-33.82-5.82s-1.95,3.6,12.29,6.84c5.19,1.18,10.4,2.45,15.67,3.17a34.93,34.93,0,0,0,6.21.43,14.63,14.63,0,0,0,4.45-.75A2,2,0,0,0,129.69,105.67Z" style="fill:#bdd0dc"/><path d="M299.46,40c-1.17,1.11-4.1,3.05-4.38,6.1S291.2,53,285.65,56.62s0,6.38,5,11.09,5.26,8.6,6.1,11.93-.56,2.77,1.66,4.43.28,2.5,0,6.38,1.11,13.31-9.15,7.76c-2.77-1.49-7.85-4.34-13.79-7.63-1.13-1.71-1.1-2.2-.57-2.38.83-.27,10.57,7.93,16.22,9s6.51-5.69,3.19-9.43-22-9.55-23.16-12.34,8.6,3.46,14.84,5.13,5-1.8,4.3-4.58-18-6.16-20.52-8.87,15.25,3.33,16.36,2.08-1.25-3.19-13-7.2-3-2.09,4.44-3.47,7.76-4,1.53-5.14-8.74-.83-3.47-1.66,13-1.94,14.28-4.58,11.51-8.87,3.47-6S274.76,44,283.63,42s14.56-7.19,11.65-8.84-19.41,5.11-24.54,5.39,5.82-3.33,15.8-7.35a79.11,79.11,0,0,1,13.3-4.1,7.36,7.36,0,0,1-.38,5.1C297.46,36.38,300.63,38.87,299.46,40Z" style="fill:#bdd0dc"/><path d="M210.81,14.64a15.34,15.34,0,0,0-4.86.18c-3.15.64-8.32,2.86-9.62,2.86s6.1-2.5,7.76-3.61,2.87-2,1.21-3.14-7.94.1-13.68,2.78-4,.74,1.57-2,5.17-5.17,3.23-6.1S188,7,185.52,8.07s-1-.56,2-1.85.74-3-1.76-3.42-9.33,1.57-13.58,3.88-5.08,3.23-5.36,2.87,7.49-4.26,7.49-5.09-2.85-1.7-5.12-1.73-9.77,3.86-12.35,5.89-3.24,1-.47-1.11c2.17-1.66,4.39-2.48,5.4-4.78a40.93,40.93,0,0,1,16-2.68c23,1.39,16.91,2.22,21.35,5.27s5.55-.27,7.49,4.44C208.16,13.47,210.55,13.74,210.81,14.64Z" style="fill:#bdd0dc"/><path d="M157.88,127.48a25.13,25.13,0,0,1,6.62,2.21c-4.24-.4-9-.93-14-1.55C151.13,126,153.73,127,157.88,127.48Z" style="fill:#bdd0dc"/><path d="M169.43,124.53c2,.89,6.6,4.26,10.4,6-.41,0-.81,0-1.21,0-2,0-4.56-.11-7.46-.31C170.22,127.61,166.9,123.38,169.43,124.53Z" style="fill:#bdd0dc"/><path d="M243.69,106.53c-10.93,10.6-37.28,21.49-58.06,23.65.66-2-2.42-4.75-3.81-6.76-1.66-2.4,8,5.54,11,5.17s.83-5.63-.46-8.22,5.91,6.28,9.08,5.73-.3-5.36-1.69-8.6,5.45,5.46,10,4.53.84-6.65.46-9.52,7.68,6.47,10.64,6.28,1.2-4.7-1.85-9.05,6.65,3,9.24,4.25,3.7-1,1.38-4.06-3-5.46-.36-3.7,6.38,3,9,2-.64-4.25-3.23-7.4,2-.36,8,2,2.5-3.52,0-5.59-1.76-3,2.22-.79,6.66.65,3.23-2.08-3.14-4,0-2.54c1.45.67,3.55,1.45,5.46,2.09C254.89,96.32,251.86,98.61,243.69,106.53Z" style="fill:#bdd0dc"/><path d="M242.58,166.05c-98.83-8.93-135.93-30.13-148.7-40.84,1-.83,2.28-1.43,3.46-.88,2.27,1.06,43.45,29.08,105.87,35.07C225.63,163.81,242.58,166.05,242.58,166.05Z" style="fill:#bdd0dc"/><path d="M154.6,67.94S176.93,61,165.19,51.32,86.7,40.38,89.57,62.07,154.6,67.94,154.6,67.94Z" style="fill:#e7e7f2"/></g></g></svg>