<svg xmlns="http://www.w3.org/2000/svg" viewBox="0 0 295.97 101.7"><title>mosquitofish</title><g id="Layer_2" data-name="Layer 2"><g id="Ñëîé_2" data-name="Ñëîé 2"><path d="M75.25,18.21c-2,0-1.2-2.16-1.2-2.16A76.8,76.8,0,0,0,61.47,20.2c-8.31,3.16-15.28.34-29.56,1.78s-16.44,1.21-20.76.22-5.82,1.66-3.49,3.15a11.8,11.8,0,0,1,3.49,3.49C13,31.09,9.78,30.92,7.78,30s-3.36.13-5.6,1.75S-.44,34.28.43,35.52s6,4.86,10.22,9.1,12.45,8,15.44,11.46S38.3,62.8,43.78,62.8c3,0,5.9,2.67,7.94,5.09a7,7,0,0,0,.34-4.34c-.77-2-3.55-3-10-2.58s-11-3.24-13.11-5.39-1.83-2.83,2.82-3,4.48-2,6.47-.17,3.82,3,8.81,1.45,6.47-2.43,3.32,3.37,2.82,4.48,8,3.73,2.82-2.07,1-3.73,1-6.65-1.17-9.14-.82,4.32-2.65,4.32-3.82-1.66-.67-6.47-.17-3-2-1.5-4.32,1-2.82-1.89,2-2.76,1-3.26-2.15.67-4.65,2.49S44,42,44.65,39.14,46.35,37,48,37.27s1.16-2.28.5-4.61S44.19,31,44.69,29s2-4.82,5-3.66,4.66,3,2.83,5.81-.5,2.33,1.66,3.49,2.16,4,3.32,1.83,6-1.49,6.48-3.32,5.31-1.5,5.48-4.82,1.49-4.81,4.45-5.81S77.24,18.21,75.25,18.21ZM30.74,34.53a6.11,6.11,0,1,1-1.66-7.34h0a6.1,6.1,0,0,1,2.23,4.72A6.17,6.17,0,0,1,30.74,34.53Z" style="fill:#2b2b2b"/><path d="M226.54,52.52c0-3.05-4.81-1.93-4.81,0s-.84.9-3,1.35-1-3.61-3-5.43-1-1.83,3.32-7-2.66-2-3.32-2.7-3.82,1.89-4.32-1.43-5.32-.17-6,1.43-5.32-.1-6.64-5.67.33-1.24-1.83-2.52-3-.22-5.65,1.78-2-.5-4.31-1.78-5.32-3.37-2.66-3.36a6.81,6.81,0,0,0,4-1.78c-1-.41-2-.84-3-1.27a110.21,110.21,0,0,0-11.27-3.94c-4.29-1.25-8.42-2.26-12.59-3.08l-1-.18c.56,3.21-3.27,5.43-2.87,7.2.5,2.2,3.11,1.67,3.85,3.05s.39,5-4.5,5.34-2.34,3.49-1,6.11,1.37,7.22-.54,9.78,1.16,6.53-.58,7.78-.87,3,.37,6.53S151.89,66,150,66.91c-1.18.55-1.47-.25-2.44-.94q-.47.51-.93,1a42.33,42.33,0,0,1-3.86,3.46c2,3,.94,3.45-.36,5.47s-4,1.11-4.74-1.63L137.6,74a58.11,58.11,0,0,1-26.87,7.6,2.72,2.72,0,0,0-1.77,2.9c0,3.33-2.66,4.15,3.27,2.33s4-1,7.19,1.49,1.17,1.66-2,2.33-5.28.49-6.31,2.16-7.65-1.33-7.65-1.33c-5.9-2.13-.69-6,0-10.06a49.76,49.76,0,0,1-9.88-1.87,35.21,35.21,0,0,1-3.35-1.2h0C89.31,82,92,80.15,94.68,84.64s-2.16-.17-5.15,2.32-4.48,0-4.48,0-3.49-2.32-3.49-4.28-1-3.35-2.82-3.16-3.49.63-2.25,3.16-.74,1-3.23,2.29-.67,1-4-2.29a10.11,10.11,0,0,0-7.64-3.16c-1.49-.15-4-5.18-4.81-7.43s3.81.76,6.47-.73,4.49,1.16,6.48,4.53,4.15.78,3.65-.88,1-1.5,3.07-2,2.08,0,2.75,2,1.49.83,3.29,0a.92.92,0,0,0,.6-1.26A16.06,16.06,0,0,1,79.29,68a4.34,4.34,0,0,1-.55.07c-4.16.34-5.32.17-3.16-4.65s-.16-6-2-5.65-.87-2.15-2-3.86.84-2.61.34-4.44-1.16-2.49-3.65-3.15-.67-1.5,1-4.32S67.61,37.48,67,34.53s2.32-3.37,3.65-4.36,3-.66,4.48-3,.34-2,2.2-2.5,2.29,2.32,3,5-.66,3.15-2.32,4.86S78.4,38,78.4,38c1,1.37,3.66,1.13,6.48,0s3.49,1.29,5,2.85a22,22,0,0,1,7.4-2.58c-.3-.51-.61-1.07-.92-1.64-1.66-3,.16-3.32-1-4.73s-4.64-.08-4.81.91a6.93,6.93,0,0,1-1.09,3.66c-1.1,1.66-1.9,1.16-3.9,0s-2.82-2-3-7,.5-6.48,1.83-7S88.7,20,88.7,17.38c0-1.84,3.68-3,5.94-3.49a115.22,115.22,0,0,0-20.59,2.16s-.79,2.16,1.2,2.16,1.61,3.32-1.36,4.32S69.6,25,69.44,28.34s-5,3-5.48,4.82-5.32,1.16-6.48,3.32-1.16-.67-3.32-1.83S50.67,34,52.5,31.16s.16-4.64-2.83-5.81S45.19,27,44.69,29s3.16,1.32,3.82,3.65,1.16,4.9-.5,4.61-2.75-1-3.36,1.87-.79,4.48,1.7,2.65S50,38.8,51,39.3s.5.37-1,3.26,1,3.39,2.82,1.89,5.15-3.32,2,1.5-1.16,6.47.67,6.47.49-6.81,2.65-4.32-.66,7.48,1.17,9.14,4.15,3-1,3.73-11.12,2.07-8-3.73S52,52.33,47,53.87s-6.81.38-8.81-1.45-1.82,0-6.47.17-5,.83-2.82,3S35.56,61.38,42,61s9.26.59,10,2.58a7,7,0,0,1-.34,4.34,32.08,32.08,0,0,1,2.77,3.88s11,22.42,47.83,22.42q4.64,0,8.77-.36h0A80.63,80.63,0,0,0,125,91.54c12.93-3.39,21-9.53,26.53-15.44a94.39,94.39,0,0,0,7.14-8.81c3.15-4.24,12.2-5.87,22.91-6.32,3-.13,6.2-.17,9.4-.14-.43-1.58.36-1.94-1.25-2.35-2.32-.58-1.83-2.57-1.83-6s4-.93,4.65-4.42,2.49-2.32,5-1.31.5,2.15-1,4,3.16,4.82,6.48,6.31,4.48.17,2.92-1.49,3.72-2.16,6.71,1,4.15,1.16,11.79,1.83S226.54,55.58,226.54,52.52Zm-46.24,0c-1.23,1.6-3.25,2.39-.92,5.21s-.17,1.67-2.66,1.5-5.81-.33-7.64-3.15-.5-3.49-2.49-3.56-3.32,1.06-2.49,4-1,4-2.33,5-1.82-5.82-3.65-9,2.65-3.92,2.33-9.38,2.65-3.34,6.47-8.61,3.65-4.36,7.67-2.62,1.8,3.24.3,7.47,3.16,8.23,3.16,8.23C182,51.43,181.53,50.93,180.3,52.52Zm8.48-7c-2.22,2.74-1.43.42-6.08-1.25s.33-3.48,1-4.9,3.33,0,3.33,0C188.6,39.94,191,42.79,188.78,45.53Z" style="fill:#f4e9c9"/><path d="M94.68,84.64C92,80.15,89.31,82,90.25,78.33h0a22.66,22.66,0,0,1-7.12-4.57.92.92,0,0,1-.6,1.26c-1.8.83-2.63,2-3.29,0s-.69-2.49-2.75-2-3.57.34-3.07,2-1.66,4.26-3.65.88-3.82-6-6.48-4.53-7.31-1.53-6.47.73,3.32,7.28,4.81,7.43a10.11,10.11,0,0,1,7.64,3.16c3.32,3.29,1.5,3.62,4,2.29s4.46.24,3.23-2.29.42-3,2.25-3.16,2.82,1.21,2.82,3.16S85.05,87,85.05,87s1.49,2.5,4.48,0S97.34,89.12,94.68,84.64Zm-7.31-.42c-2.24,1-.87-.37-3-1.54s0-2.44,0-2.44c1.87-1,3.86-.62,4.61,1S89.61,83.23,87.37,84.22Z" style="fill:#2b2b2b"/><path d="M104.35,37.51c-.86,0-1.69.09-2.51.16C102.65,36.61,103.52,36.29,104.35,37.51Z" style="fill:#2b2b2b"/><path d="M147.58,66q-.47.51-.93,1a42.33,42.33,0,0,1-3.86,3.46c-.12-.16-.24-.33-.36-.52-2.5-3.49-3.49-6.53-2.75-8.93s-3-5.77.38-8.45,2.95-7.28,3.84-.8-2.6,13.32,1,13.45A4.55,4.55,0,0,1,147.58,66Z" style="fill:#2b2b2b"/><path d="M150.65,31.16c-2.87,1.25-5.24,1.14-6.48-.3s-2.86-5.42-5.35-3.06-5.49,4.11-5.24,6.73-.62,4.71,2.12,4.85c2.49.12,3.55-1.18,3.25,2.48a121.67,121.67,0,0,0-29.09-4.4,9.2,9.2,0,0,0,1.76-2.93c.16-1.21,3-1.21,4.32-2.62s2.49-4.32,0-6.1a7.77,7.77,0,0,1-3.32-3.95,4,4,0,0,0-5.15-1.66c-2.16,1.16-5.32,1.83-5.32,0s1.83-4,.5-4.15c-1-.12-3.05-1.63-4.75-2.25,2.86-.07,6-.09,9.4-.07,12.06.06,21.84.2,30.4.66,1.08,2.7,2.53,5.5,4,5.81,2.86.63,8.84,0,9.78,4.43S153.51,29.92,150.65,31.16Z" style="fill:#f4e9c9"/><path d="M288.73,71.09a15.15,15.15,0,0,0-2.24-1.42c-7.8-4.29-15.11-7.42-12.62-8s8.8,3.54,8.64-.69,2-5.56-1.67-5.39-4.48-.43-4.15-1.71,7.81,2.24,5.65-1.35-6.64-3.42-9.63-2.42-4.65,1.92-5.48-.62-1.83-5.74,1.16-5.55,7.14-.69,3.82-2.49-4-2.8-1.83-3.63,5.58,1,4.78-2.82-3.45-6.48-1.12-8.64,5.81-3,.33-5.31-8.3,1.49-12.79,0-7.64-.76-5,3.1,2.82,5,.83,6.41-6.81.95-5.65-2.54a7.84,7.84,0,0,0-1.88-8c-12.93,6.33-4.66,15.7-29.26,13.14-19.08-2-24.86-4.58-32.29-7.75a6.81,6.81,0,0,1-4,1.78c-2.66,0,.34,2.08,2.66,3.36s1.65,3.77,4.31,1.78,3.49-3.06,5.65-1.78.5-3,1.83,2.52,6,7.27,6.64,5.67,5.48-4.75,6-1.43,3.65.71,4.32,1.43,7.63-2.48,3.32,2.7-5.32,5.17-3.32,7,.82,5.89,3,5.43,3,.58,3-1.35,4.81-3.05,4.81,0,5.48,6.54-2.16,5.88-8.8,1.33-11.79-1.83-8.27-2.65-6.71-1,.4,3-2.92,1.49-8-4.48-6.48-6.31,3.49-2.95,1-4-4.32-2.17-5,1.31-4.65,1-4.65,4.42-.49,5.38,1.83,6c1.61.41.82.77,1.25,2.35,11.43.11,23.3,1,31.21,1.22,17.94.5,18.43,3.49,35.62,12.21q2.43,1.23,4.77,2.17A7.24,7.24,0,0,0,263.74,74c.66-2.49-1.83-6,4.65-3.49s8.64,8.25,12.79,5.37c2.26-1.57,6-2,7.59-2.78A16.94,16.94,0,0,1,288.73,71.09ZM232.52,42.77c-.67-1.85-2.32-3.47-6.15-3.39s-1.82-1.24-2-2.91,2-1.16,2-1.16A17.08,17.08,0,0,1,232,37.64c2.33,1.66,2.16,1.5,4.82,2s.83,2.1-.72,3.45S233.18,44.62,232.52,42.77Zm22.59,4c.16.69-2.66,2.47-2,2.81s.67,1.33,0,2.92-.49,3.39-1.49,3.72-2.49,0-4.49,2-2.66,3.16-6.64,2.74-1.82-1.91-.17-4.23-4.81-2.82-4.15-6.15,1.66-4.48,5.48-5.06,1.5-4.73-.49-9.06,2.32-4,4.64,0a21.48,21.48,0,0,0,5.82,6.67C257.76,44.32,254.94,46.11,255.11,46.79Z" style="fill:#2b2b2b"/><path d="M262.53,76.43A7.24,7.24,0,0,0,263.74,74c.66-2.49-1.83-6,4.65-3.49s8.64,8.25,12.79,5.37c2.26-1.57,6-2,7.59-2.78,0,.39.07.77.13,1.15C289.8,80.13,277.62,82.52,262.53,76.43Z" style="fill:#f4e9c9"/><path d="M293.13,53.83c-1.67,5-4.23,11.48-4.4,17.26a15.15,15.15,0,0,0-2.24-1.42c-7.8-4.29-15.11-7.42-12.62-8s8.8,3.54,8.64-.69,2-5.56-1.67-5.39-4.48-.43-4.15-1.71,7.81,2.24,5.65-1.35-6.64-3.42-9.63-2.42-4.65,1.92-5.48-.62-1.83-5.74,1.16-5.55,7.14-.69,3.82-2.49-4-2.8-1.83-3.63,5.58,1,4.78-2.82-3.45-6.48-1.12-8.64,5.81-3,.33-5.31-8.3,1.49-12.79,0-7.64-.76-5,3.1,2.82,5,.83,6.41-6.81.95-5.65-2.54a7.84,7.84,0,0,0-1.88-8,39.48,39.48,0,0,1,8.36-2.81c24.91-5.72,24.16-4.73,27.4,3s2.24,16.44,7.47,21.43S295.13,47.85,293.13,53.83Z" style="fill:#f4e9c9"/><path d="M205.18,21.81c-.45.22-.94.44-1.47.64-4,1.49-16.08-.59-18.38,1.69a110.21,110.21,0,0,0-11.27-3.94c-4.29-1.25-8.42-2.26-12.59-3.08,0,0,8.11-12.36,17.08-14.1s9.21-4.74,16.19-1.75S204.45,4,204,6.5c-.4,2-.15,3.69,1.14,4.41a18.51,18.51,0,0,1-3.46,1.16c-3.32.66-4.65-.74-8.47,1.45s-2.16,3.86.67,3.2,7.3-1.37,5.31.15-1.5,2.5.17,3.33C200.61,20.86,203.77,20.49,205.18,21.81Z" style="fill:#2b2b2b"/><path d="M209.19,14.72c0,3.67-1.13,5.65-4,7.09-1.41-1.32-4.57-.95-5.87-1.61-1.67-.83-2.17-1.82-.17-3.33s-2.49-.82-5.31-.15-4.49-1-.67-3.2,5.15-.79,8.47-1.45a18.51,18.51,0,0,0,3.46-1.16,2.9,2.9,0,0,0,1.11.33C208.44,11.49,209.19,10.49,209.19,14.72Z" style="fill:#f4e9c9"/><path d="M185.33,97.93c-6,0-13.94,1-17.19-2.57,1.93-1.21.85-2.55.61-3.91-.33-1.83-1-1.33-1.66-3.38s.49-3.1,3.89-1.44,3.74,1.5,3.08,4-.66,1.82-.16,2.66,1.32,2,4.65,2,2.32-.83.16-2-1-2.17,3.16-1.83a20.93,20.93,0,0,1,2.1.27c1.81.71,1.85.34,0,0l-.65-.27c-3.07-1.34-4.28-3.16-2.13-4.15s2.34-.67-1.31-1.33-4-4.15-7.81-10.08,3.32-1,7.47,1.15,3.33,1,3.78,3.95a2,2,0,0,0,1.93,1.73c-.81,2.81-1.09,5.19.08,8C187.51,95.93,191.86,97.93,185.33,97.93Z" style="fill:#f4e9c9"/><path d="M181.53,61c-10.71.45-19.76,2.08-22.91,6.32a94.39,94.39,0,0,1-7.14,8.81c-.66,6.57,13.36,13.11,15.86,18.09a4.84,4.84,0,0,0,.8,1.17c1.93-1.21.85-2.55.61-3.91-.33-1.83-1-1.33-1.66-3.38s.49-3.1,3.89-1.44,3.74,1.5,3.08,4-.66,1.82-.16,2.66,1.32,2,4.65,2,2.32-.83.16-2-1-2.17,3.16-1.83a20.93,20.93,0,0,1,2.1.27l-.65-.27c-3.07-1.34-4.28-3.16-2.13-4.15s2.34-.67-1.31-1.33-4-4.15-7.81-10.08,3.32-1,7.47,1.15,3.33,1,3.78,3.95a2,2,0,0,0,1.93,1.73c.71-2.46,1.84-5.25,2.76-9C190,65.79,181.53,61,181.53,61Zm-4.67,8.12c-2,.23-2.8-1.56-4.29.43s-.5-2.48-2.45-.66-4.36-.72-4.36-.72c-2.49-2-.17-2.93,1.16-3.6s3.82.34,6.48-.83,4.15,0,4.31,2S178.88,68.86,176.86,69.09Z" style="fill:#2b2b2b"/><path d="M135,101.66c-9.64-.49-23.64-7.71-23.85-7.83A80.63,80.63,0,0,0,125,91.54c2.74-.66,6,2.65,6,2.65C133.29,97.93,144.67,102.16,135,101.66Z" style="fill:#2b2b2b"/><path d="M30.74,34.53a6.11,6.11,0,1,1-1.66-7.34c-.07,0-.72.09-.81.61a.88.88,0,0,1-.27.44A3.36,3.36,0,1,0,29.18,33,8.14,8.14,0,0,1,30.74,34.53Z" style="fill:#f4e9c9"/><path d="M31.32,31.91a6.17,6.17,0,0,1-.58,2.62A8.14,8.14,0,0,0,29.18,33,3.38,3.38,0,0,0,28,28.24a.88.88,0,0,0,.27-.44c.09-.52.74-.6.81-.61h0A6.1,6.1,0,0,1,31.32,31.91Z" style="fill:#414142"/><path d="M29.7,31.16A3.36,3.36,0,1,1,28,28.24,3.36,3.36,0,0,1,29.7,31.16Z" style="fill:#2b2b2b"/><path d="M115.94,31.91c-1.33,1.41-4.16,1.41-4.32,2.62a9.2,9.2,0,0,1-1.76,2.93c-1.89-.05-3.73,0-5.51,0-.83-1.22-1.7-.9-2.51.16-1.61.14-3.14.34-4.58.61-.3-.51-.61-1.07-.92-1.64-1.66-3,.16-3.32-1-4.73s-4.64-.08-4.81.91a6.93,6.93,0,0,1-1.09,3.66c-1.1,1.66-1.9,1.16-3.9,0s-2.82-2-3-7,.5-6.48,1.83-7S88.7,20,88.7,17.38c0-1.84,3.68-3,5.94-3.49,1,0,2.13-.07,3.26-.09h0c1.7.62,3.77,2.13,4.75,2.25,1.33.17-.5,2.33-.5,4.15s3.16,1.16,5.32,0a4,4,0,0,1,5.15,1.66,7.77,7.77,0,0,0,3.32,3.95C118.43,27.59,117.27,30.5,115.94,31.91Z" style="fill:#2b2b2b"/><path d="M97.9,13.8c-1.13,0-2.21,0-3.26.09,1-.23,1.7-.34,1.7-.34A3.08,3.08,0,0,1,97.9,13.8Z" style="fill:#2b2b2b"/><path d="M79.29,68a4.34,4.34,0,0,1-.55.07c-4.16.34-5.32.17-3.16-4.65s-.16-6-2-5.65-.87-2.15-2-3.86.84-2.61.34-4.44-1.16-2.49-3.65-3.15-.67-1.5,1-4.32S67.61,37.48,67,34.53s2.32-3.37,3.65-4.36,3-.66,4.48-3,.34-2,2.2-2.5,2.29,2.32,3,5-.66,3.15-2.32,4.86S78.4,38,78.4,38c1,1.37,3.66,1.13,6.48,0s3.49,1.29,5,2.85C82,45.71,75.49,58.1,79.29,68Z" style="fill:#2b2b2b"/><path d="M117.4,90.62c-3.18.66-5.28.49-6.31,2.16s-7.65-1.33-7.65-1.33c-5.9-2.13-.69-6,0-10.06a58.27,58.27,0,0,0,7.25.18,2.72,2.72,0,0,0-1.77,2.9c0,3.33-2.66,4.15,3.27,2.33s4-1,7.19,1.49S120.59,90,117.4,90.62Z" style="fill:#2b2b2b"/><path d="M94.68,84.64C92,80.15,89.31,82,90.25,78.33h0a22.66,22.66,0,0,1-7.12-4.57.92.92,0,0,1-.6,1.26c-1.8.83-2.63,2-3.29,0s-.69-2.49-2.75-2-3.57.34-3.07,2-1.66,4.26-3.65.88-3.82-6-6.48-4.53-7.31-1.53-6.47.73,3.32,7.28,4.81,7.43a10.11,10.11,0,0,1,7.64,3.16c3.32,3.29,1.5,3.62,4,2.29s4.46.24,3.23-2.29.42-3,2.25-3.16,2.82,1.21,2.82,3.16S85.05,87,85.05,87s1.49,2.5,4.48,0S97.34,89.12,94.68,84.64Zm-7.31-.42c-2.24,1-.87-.37-3-1.54s0-2.44,0-2.44c1.87-1,3.86-.62,4.61,1S89.61,83.23,87.37,84.22Z" style="fill:#2b2b2b"/><path d="M87.37,84.22c-2.24,1-.87-.37-3-1.54s0-2.44,0-2.44c1.87-1,3.86-.62,4.61,1S89.61,83.23,87.37,84.22Z" style="fill:#2b2b2b"/><path d="M142.43,75.89c-1.38,2.13-4,1.11-4.74-1.63L137.6,74a47,47,0,0,0,5.19-3.55C144.8,73.43,143.73,73.87,142.43,75.89Z" style="fill:#2b2b2b"/><path d="M157,32.53c-4.88.38-2.34,3.49-1,6.11s1.37,7.22-.54,9.78,1.16,6.53-.58,7.78-.87,3,.37,6.53S151.89,66,150,66.91c-1.18.55-1.47-.25-2.44-.94,2.54-2.78,4.95-6.28,5.36-10.09a10.31,10.31,0,0,0-.05-2.6c-.63-4.23-4.15-7.29-7.77-9.13-.39-.19-.82-.39-1.28-.59.66-.44,1.44-.52,2.7.31,3.36,2.24,4.6,3.11,4.92-.13S148.21,39.36,146,38c0,0-4.28-3.48-4.53,0A13.26,13.26,0,0,1,140,42.19L139,41.86c.3-3.66-.76-2.36-3.25-2.48-2.74-.14-1.87-2.24-2.12-4.85s2.74-4.36,5.24-6.73,4.1,1.62,5.35,3.06,3.61,1.55,6.48.3,1.74-2.11.81-6.53-6.92-3.8-9.78-4.43c-1.45-.31-2.9-3.11-4-5.81a170.61,170.61,0,0,1,22.79,2.55c.56,3.21-3.27,5.43-2.87,7.2.5,2.2,3.11,1.67,3.85,3.05S161.86,32.16,157,32.53Z" style="fill:#2b2b2b"/><path d="M151.46,43.74c-.32,3.24-1.56,2.37-4.92.13-1.26-.83-2-.75-2.7-.31-1.08-.46-2.36-.92-3.8-1.37A13.26,13.26,0,0,0,141.43,38c.25-3.48,4.53,0,4.53,0C148.21,39.36,151.77,40.51,151.46,43.74Z" style="fill:#f4e9c9"/><path d="M180.3,52.52c-1.23,1.6-3.25,2.39-.92,5.21s-.17,1.67-2.66,1.5-5.81-.33-7.64-3.15-.5-3.49-2.49-3.56-3.32,1.06-2.49,4-1,4-2.33,5-1.82-5.82-3.65-9,2.65-3.92,2.33-9.38,2.65-3.34,6.47-8.61,3.65-4.36,7.67-2.62,1.8,3.24.3,7.47,3.16,8.23,3.16,8.23C182,51.43,181.53,50.93,180.3,52.52Z" style="fill:#2b2b2b"/><path d="M188.78,45.53c-2.22,2.74-1.43.42-6.08-1.25s.33-3.48,1-4.9,3.33,0,3.33,0C188.6,39.94,191,42.79,188.78,45.53Z" style="fill:#2b2b2b"/><path d="M255.11,46.79c.16.69-2.66,2.47-2,2.81s.67,1.33,0,2.92-.49,3.39-1.49,3.72-2.49,0-4.49,2-2.66,3.16-6.64,2.74-1.82-1.91-.17-4.23-4.81-2.82-4.15-6.15,1.66-4.48,5.48-5.06,1.5-4.73-.49-9.06,2.32-4,4.64,0a21.48,21.48,0,0,0,5.82,6.67C257.76,44.32,254.94,46.11,255.11,46.79Z" style="fill:#f4e9c9"/><path d="M236.12,43.14c-1.54,1.34-2.94,1.48-3.6-.37s-2.32-3.47-6.15-3.39-1.82-1.24-2-2.91,2-1.16,2-1.16A17.08,17.08,0,0,1,232,37.64c2.33,1.66,2.16,1.5,4.82,2S237.67,41.79,236.12,43.14Z" style="fill:#f4e9c9"/><path d="M176.86,69.09c-2,.23-2.8-1.56-4.29.43s-.5-2.48-2.45-.66-4.36-.72-4.36-.72c-2.49-2-.17-2.93,1.16-3.6s3.82.34,6.48-.83,4.15,0,4.31,2S178.88,68.86,176.86,69.09Z" style="fill:#f4e9c9"/><path d="M109.86,37.46A23.24,23.24,0,0,0,108.13,40c-1,1.82-2.16.66-3.48-2a4.4,4.4,0,0,0-.3-.5C106.13,37.43,108,37.41,109.86,37.46Z" style="fill:#3a3a3a"/><path d="M101.84,37.67a10.23,10.23,0,0,0-1.18,2.13c-1,2.16-2.11.7-3.4-1.52C98.7,38,100.23,37.81,101.84,37.67Z" style="fill:#3a3a3a"/><path d="M92.52,46.38c-5.31.28-2.82,2.22-4.15,5.21s1.66,1.83,1,3.32-1.53,2-.2,4.82-4.48,3.32-6.67,3.65.13,3.95-3.24,4.58C75.49,58.1,82,45.71,89.86,40.86c1.5,1.56,2,1.43,4.65,1.43s2.16.33,4.82,3.24S97.83,46.11,92.52,46.38Z" style="fill:#3a3a3a"/><path d="M94.18,71.19c-.33,2-3,3.48-3.93,7.13a22.66,22.66,0,0,1-7.12-4.57,13.58,13.58,0,0,0-1.9-2.56c-.83-1.16.16-1.83,1.3-3s3,.06,3.85,0,2.49-1.44,2.65-3.6,3.16.34,3.66,2.33S94.51,69.19,94.18,71.19Z" style="fill:#3a3a3a"/><path d="M119.42,77.83c-1.32,2-.82,2.16-4.31,2.82a26.14,26.14,0,0,0-4.38.92,58.27,58.27,0,0,1-7.25-.18,4.22,4.22,0,0,0,0-1.87c-1.19-4.63,2.53-.86,4.86,0s3.15-1,3.93-4.51,2.71-3.82,5.17-1.16S120.75,75.84,119.42,77.83Z" style="fill:#3a3a3a"/><path d="M136.45,50.1c2-.63,1.74-1.75,2.37-7,.06-.49.1-.91.13-1.28a121.67,121.67,0,0,0-29.09-4.4A23.24,23.24,0,0,0,108.13,40c-1,1.82-2.16.66-3.48-2a4.4,4.4,0,0,0-.3-.5c-.86,0-1.69.09-2.51.16a10.23,10.23,0,0,0-1.18,2.13c-1,2.16-2.11.7-3.4-1.52a22,22,0,0,0-7.4,2.58c1.5,1.56,2,1.43,4.65,1.43s2.16.33,4.82,3.24-1.5.58-6.81.85-2.82,2.22-4.15,5.21,1.66,1.83,1,3.32-1.53,2-.2,4.82-4.48,3.32-6.67,3.65.13,3.95-3.24,4.58a16.06,16.06,0,0,0,3.84,5.79,13.58,13.58,0,0,0-1.9-2.56c-.83-1.16.16-1.83,1.3-3s3,.06,3.85,0,2.49-1.44,2.65-3.6,3.16.34,3.66,2.33,1.82,2.32,1.49,4.32-3,3.48-3.93,7.13a35.21,35.21,0,0,0,3.35,1.2,49.76,49.76,0,0,0,9.88,1.87,4.22,4.22,0,0,0,0-1.87c-1.19-4.63,2.53-.86,4.86,0s3.15-1,3.93-4.51,2.71-3.82,5.17-1.16,3.35,2,2,4-.82,2.16-4.31,2.82a26.14,26.14,0,0,0-4.38.92A58.11,58.11,0,0,0,137.6,74c-.82-2.37-3-1.37-6.26-2.45s1.49-5.85,1.49-5.85c3.24-4.1,3.24-6.23,2.12-11S134.45,50.72,136.45,50.1ZM116.9,59.4c-1.2,1.49.37,2.16-.63,5s-4.82.16-5.18,0-.64-3.49-3.29-3.41.16,3.24-2.33,2.58-1.66-6.64-2-9.68a4.47,4.47,0,0,1,2.82-4.93c1-.17,2.5-2.17,3.16-6s3-4.16,3.49-3,1.33,1.66,3,3.49.83,2.82,0,4.15-.09,3.49,0,4.32c.36,3.41,3.82.32,5,1.94s.83,2.54-.67,3.2A6.64,6.64,0,0,0,116.9,59.4Zm10.66.66c-.83.17.83,2.66-1.33,4.48s-2.82,2.16-6.31-.83,1.83-2.32,3.82-6.14,3.82,0,3.82,0C129.11,59.2,128.39,59.9,127.56,60.06Z" style="fill:#fff8e6"/><path d="M120.25,57.07a6.64,6.64,0,0,0-3.35,2.33c-1.2,1.49.37,2.16-.63,5s-4.82.16-5.18,0-.64-3.49-3.29-3.41.16,3.24-2.33,2.58-1.66-6.64-2-9.68a4.47,4.47,0,0,1,2.82-4.93c1-.17,2.5-2.17,3.16-6s3-4.16,3.49-3,1.33,1.66,3,3.49.83,2.82,0,4.15-.09,3.49,0,4.32c.36,3.41,3.82.32,5,1.94S121.75,56.41,120.25,57.07Z" style="fill:#3a3a3a"/><path d="M127.56,60.06c-.83.17.83,2.66-1.33,4.48s-2.82,2.16-6.31-.83,1.83-2.32,3.82-6.14,3.82,0,3.82,0C129.11,59.2,128.39,59.9,127.56,60.06Z" style="fill:#3a3a3a"/><path d="M152.94,55.88c-.41,3.81-2.82,7.31-5.36,10.09a4.55,4.55,0,0,0-2.66-.8c-3.62-.13-.13-7-1-13.45s-.48-1.87-3.84.8.37,6-.38,8.45.25,5.44,2.75,8.93c.12.19.24.36.36.52A47,47,0,0,1,137.6,74c-.82-2.37-3-1.37-6.26-2.45s1.49-5.85,1.49-5.85c3.24-4.1,3.24-6.23,2.12-11s-.5-4,1.5-4.61,1.74-1.75,2.37-7c.06-.49.1-.91.13-1.28l1.09.33c-1.11,2.41-2.16,4.45-.11,4.19s2.79-2.06,3.91-2.82c.46.2.89.4,1.28.59,3.62,1.84,7.14,4.9,7.77,9.13A10.31,10.31,0,0,1,152.94,55.88Z" style="fill:#3a3a3a"/><path d="M143.84,43.56c-1.12.76-1.87,2.58-3.91,2.82s-1-1.78.11-4.19C141.48,42.64,142.76,43.1,143.84,43.56Z" style="fill:#fff8e6"/><path d="M147.58,66q-.47.51-.93,1a42.33,42.33,0,0,1-3.86,3.46c-.12-.16-.24-.33-.36-.52-2.5-3.49-3.49-6.53-2.75-8.93s-3-5.77.38-8.45,2.95-7.28,3.84-.8-2.6,13.32,1,13.45A4.55,4.55,0,0,1,147.58,66Z" style="fill:#f4e9c9"/><path d="M15.09,46.41a36.79,36.79,0,0,1-5.36-6.18c-1.87-3-2.74-4.68,0-5.7s3.33,1.87,9.39,4.84,11.29,2.07,14.4-1.09,2.85-8.76,4.72-5.4S49.59,46,42,47.45s-8.91-.37-14.36,2S17.76,49.13,15.09,46.41Z" style="fill:#3a3a3a"/><path d="M169.43,15.07s-1.68-1.87,1.95-5.11,4.4-3,9.81-4.23S186,1,192.82,3.73s4.74,7.21-2.49,8.34-8,3.75-12.22,5.24S172,17.19,169.43,15.07Z" style="fill:#3a3a3a"/></g></g></svg>