<svg xmlns="http://www.w3.org/2000/svg" viewBox="0 0 294.86 135.29"><title>neon-tetra</title><g id="Layer_2" data-name="Layer 2"><g id="Ñëîé_2" data-name="Ñëîé 2"><path d="M147.4,58.81a155.83,155.83,0,0,0-17.87,1c-30,3.47-56.47,4.75-69.79,2.92S42.59,61,40,62.6s-5.23.73-7.06.61-4.37.32-5.41,2.54a13.59,13.59,0,0,0-6.2-1.44A14.13,14.13,0,0,0,16,65.37a11.23,11.23,0,0,0-4.16,2.95h0a8,8,0,0,0-2.07,5.3,7.48,7.48,0,0,0,.52,2.73C7.9,73,2.92,69.42,2.92,69.42h0c-.29-.33-4.67-5.36.62-9.24C6.35,58.1,20.77,52.36,41.4,47.73c5.13,4.34,16.82,9.81,42.61,7.51C124.87,51.59,131.82,52.72,147.4,58.81Z" style="fill:#414142"/><path d="M167.82,98l-.49.17-1.76.61-.35.11c-.54.19-1.09.36-1.64.54-1.28.41-2.59.8-3.91,1.18l-2,.56-2,.55-4.12,1h0l-3.24.74c-3.46.79-6.95,1.5-10.38,2.14l-2.33.42c-8.16,1.47-15.83,2.55-21.76,3.29-7.11.87-11.73,1.27-11.73,1.27C27.62,111.88-.36,70.63,0,69.17s2.7.1,2.91.24h0s5,3.55,7.33,6.93c1.4,3.67,5.57,6.38,10.55,6.56,0,0,6.09,3.87,11.08-.68a7.79,7.79,0,0,0,2.63-4.17c.23-.11,4.25-1.9,6.49,0s3.29-2.33,9.25-.44l.93.32c.39,5.36-1.13,10.62-5.09,14.43a20.7,20.7,0,0,1-2.74,2.21.56.56,0,0,0,.29,1,13.45,13.45,0,0,0,1.42,0A12.52,12.52,0,0,0,51.94,93a16.86,16.86,0,0,0,6.32-12.57C67.65,83.78,82.57,88.39,97,87.8c15-.61,25.68-1.78,32.56-4.81,0,0-2.45,7.48-18.87,8.75s-2.19,3.48,0,6.3,6.43,3,7.5,1.37S124.71,97,126.9,98s9.54-.46,14.9,1.73,8.65.21,11.38-1.27S167.82,98,167.82,98Z" style="fill:#e3e2eb"/><path d="M294.86,70.16c-.06,2-1.81,4.46-2.24,5.89-.55,1.82-4,1.82-4,3.46s-3.47,1.28-3.65,2.74-4.56,1.46-4.74,2.74-3.29.18-3.47,1.47-2,1.81-4.93,2-6.94,2-7.85,6,4.2,10,5.84,10.77,0,2.92,1.28,3.1.85,4.5,2.31,4.74-.24,4.14,1.46,4.38-.24,3.66.49,4.63a4.79,4.79,0,0,1,0,5.11c-1.22,1.7,1.7,6.81-5.84,3.41-3.21-1.46-8.82-6.54-15-12.47-.62-3.26,5,1.48,11.58,5.9,8.15,5.47.73-2.07-4.87-8.28s1.34-1.22,6.82,2.43.73-2.55-5.72-8.27,2.07-.61,5.35.73.37-3-4-10,1.09-10.58,1.21-11S269,87.91,266,87.3s1-1.58,7.42-2.07,5.72-1.82-1.09-2.43-2.8-1.58,3.4-1.58,10.35-2.8,1.46-2.56-15-2.43-4.26-2.43,18.62-2.8,10.83-3.16-25.06,1.33-21.41-.78C265.44,70.49,288.27,70.2,294.86,70.16Z" style="fill:#cfcedd"/><path d="M272.9,76.23c-10.7,0-4.62,2.68,4.26,2.43s4.75,2.56-1.46,2.56-10.22,1-3.4,1.58,7.54,2,1.09,2.43S262.93,86.69,266,87.3s-1,2.07-1.1,2.43-5.59,4-1.21,11,7.3,11.32,4,10-11.8-6.45-5.35-.73,11.19,11.93,5.72,8.27-12.41-8.63-6.82-2.43,13,13.75,4.87,8.28c-6.57-4.42-12.2-9.16-11.58-5.9-5-4.83-10.37-10.2-15.11-14.64,3.48,1.42,5.45,1.4,3.21-.39-3-2.44-6.21-5-4.14-6.09s10.95,6.94,13.39,7.67-5-5.35-6.94-7.91,2.68-1.46,10.34,3.77,1.83-.36-3.16-4.15-6.21-4.49,2.92-1.2,4.5-1-.12-3.16-20.32-9.13-7.55-5.59,12.66,1.57,6.57,0-2.79-2.08,4.14-1.23-1.58-1.58-7.06-2.8-.6-2.43,9.49-1.21.61-1.83-7.17-2.44-7.43-2.06-1.1-1.94S250.88,75,247,74.77s5-2.19,2.68-2.43-9.25.66-9.25.66a8.35,8.35,0,0,0-1-2.22c3.71-.6,7.61-1,11.23-1.33,8.12-.75,16.28-1.13,24.43-1.5,4.45-.2,8.91-.39,13.37-.27,1.18,0,5.17-.34,6,.88a2.68,2.68,0,0,1,.42,1.6c-6.59,0-29.42.33-32.54,2.13-3.65,2.11,13.63.41,21.41.78S283.61,76.23,272.9,76.23Z" style="fill:#e3e2eb"/><path d="M260.49,81.22c-10.09-1.22-15,0-9.49,1.21s14,3.65,7.06,2.8-10.22-.35-4.14,1.23,6.21,3.53-6.57,0,2.92,3.4,7.55,5.59,9.24,6.44.12,3.16-7.91-2.58-2.92,1.2,10.83,9.38,3.16,4.15S243,94.24,244.92,96.79s9.37,8.64,6.94,7.91S240.54,95.94,238.47,97s1.1,3.65,4.14,6.09c2.24,1.79.27,1.81-3.21.39h0c-2.53-2.36-4.86-4.46-6.87-6.06,4.28-1.89,5.22-7.5,7.52-15.74,1.09-3.88,1-6.69.37-8.7,0,0,6.93-.91,9.25-.66s-6.57,2.19-2.68,2.43,11.56,2.19,5.23,2.07-6.69,1.34,1.1,1.94S270.59,82.43,260.49,81.22Z" style="fill:#ff6529"/><path d="M170.8,72.29a43.63,43.63,0,0,0,10.85-3.73,14.51,14.51,0,0,1,4-1s33.39,7,39,10.29S183,70.94,170.8,72.29Z" style="fill:#c93a18"/><path d="M240.05,81.71c-2.3,8.23-3.24,13.84-7.52,15.73-.52-.41-1-.79-1.48-1.13-6.11-4.48-16.33-8.68-28.77-8.51a58.42,58.42,0,0,0-25.74,6.56A77,77,0,0,1,167.82,98s-11.9-1-14.64.46-6,3.46-11.38,1.27S129.09,99,126.9,98s-7.66-.27-8.74,1.37-5.31,1.46-7.5-1.37-16.43-5,0-6.3S129.53,83,129.53,83a17.79,17.79,0,0,0,5.58-3.66c5.84-5.84,12.72-5,24.88-5.71a72.79,72.79,0,0,0,10.76-1.32h.05c12.15-1.35,59.57,8.86,53.92,5.56s-39-10.29-39-10.29c3.66-.49,7.39-.44,5.83-2.19-.91-1-6.63-2.77-15.16-4.2a30.46,30.46,0,0,1,13.17-3.47h0c22.23,7.08,37.74,13.78,37.74,13.78,3.74,1.55,7.77,0,11.54-.61l.6-.09a8.65,8.65,0,0,1,1,2.22C241,75,241.14,77.82,240.05,81.71Z" style="fill:#f75726"/><path d="M174,53c-7.16,6.9-29.89,2.24-46.68-3.6s-50-.18-62.06,0c-6.49.09-8.63-2.3-9.23-4.54a247.77,247.77,0,0,1,56-3.31c2.07.12,4.14.29,6.23.48l2.35.24a277.66,277.66,0,0,1,29.71,4.83C158.41,48.85,166.4,50.88,174,53Z" style="fill:#7f794a"/><path d="M189.52,57.69a30.61,30.61,0,0,0-13.17,3.48,178.94,178.94,0,0,0-28.94-2.36h0c-15.58-6.09-22.53-7.22-63.39-3.57-25.79,2.3-37.48-3.17-42.61-7.51,4.57-1,9.46-2,14.58-2.87.6,2.24,2.75,4.64,9.24,4.54,12-.18,45.26-5.83,62.05,0S166.79,59.9,174,53C179.41,54.55,184.62,56.12,189.52,57.69Z" style="fill:#564e21"/><path d="M203.79,91.8c3.54,2.56-3.28,0-6.68-1.33s1.33,2.42,1.7,5.22h0c.14,1-.47.93-1.35.32a56.46,56.46,0,0,1-4.86-4.46c-1-1-.07,2.42.5,5.37.11.57.2,1.11.27,1.61-.53.16-1.09.31-1.66.46-.29-.5-.61-1.07-1-1.67a10.74,10.74,0,0,0-3.37-3.82c-1.91-1.1-1.18,1.46-.29,4.34.2.67.41,1.35.6,2-.75.13-1.51.25-2.29.34-.38-.71-.78-1.42-1.19-2.06a6.67,6.67,0,0,0-1.82-2.09c-1.06-.65-1.07.46-.69,2.28.14.64.32,1.38.53,2.16a38.32,38.32,0,0,1-3.87,0c-.24-.38-.48-.73-.71-1.08a9.37,9.37,0,0,0-.72-1c-.46-.54-.61-.48-.57,0a13,13,0,0,0,.51,2,29.61,29.61,0,0,1-9.53-2.26l.49-.17a77,77,0,0,0,8.72-3.68,58.42,58.42,0,0,1,25.74-6.56s5.15,1.34,8,2.1C203.9,88.25,200.31,89.28,203.79,91.8Z" style="fill:#ef6522"/><path d="M178.35,100.55a38.32,38.32,0,0,0,3.87,0,50.75,50.75,0,0,1,1.5,6.63C184.05,110.85,181.36,105.26,178.35,100.55Z" style="fill:#ff6529"/><path d="M188.22,103.61c-.43,1.43-1.5-.92-2.83-3.4.78-.09,1.54-.21,2.29-.34A8.38,8.38,0,0,1,188.22,103.61Z" style="fill:#ff6529"/><path d="M193.33,100.44c-.32.81-.84,0-1.62-1.44.57-.15,1.13-.3,1.66-.46A4.38,4.38,0,0,1,193.33,100.44Z" style="fill:#ff6529"/><path d="M211.13,91.74s-8.95,1.4-10.13,3.32c-.45.72-3.39,2.22-7.63,3.48-.07-.5-.16-1-.27-1.61-.57-3-1.54-6.33-.5-5.37A56.46,56.46,0,0,0,197.46,96c.88.61,1.49.72,1.35-.32h0c-.37-2.8-5.11-6.56-1.7-5.22s10.22,3.89,6.68,1.33.11-3.55,6.46-1.9l.14,0,1.23.34C212.86,90.65,211.72,91.17,211.13,91.74Z" style="fill:#cfcedd"/><path d="M204.65,96.67c-7.85,2.56-17.89,14.78-19.71,14.78s-.91,4.2-2.92,4.2-.55,3.83-1.64,3.77-.19,4.63-1.83,4.63-.18,2.73-1.28,6,.55,8.94-7.66,1.69-21.33-28.22-21.33-28.22l3.24-.74c.32.45,13.41,19.35,18.94,23.68s-.61-2.9-6.69-10-8.16-16.25-4-11.69,18,25.25,14.24,16.73-14.11-22-8.64-17.88,15.08,17.66,12.53,12.84-10.46-20.51-6.69-14.79,11.14,14,9,8.15c-1.08-3-2.58-6.89-3.37-9.34l1.49.08c3,4.71,5.7,10.3,5.37,6.58a50.75,50.75,0,0,0-1.5-6.63c1.07-.06,2.13-.16,3.17-.29,1.33,2.48,2.4,4.83,2.83,3.4a8.38,8.38,0,0,0-.54-3.74c1.41-.25,2.76-.54,4-.87.78,1.39,1.3,2.25,1.62,1.44a4.38,4.38,0,0,0,0-1.9c4.24-1.26,7.18-2.76,7.63-3.48,1.18-1.92,10.13-3.32,10.13-3.32-.31.3-.47.61-.09.92C212.13,93.57,212.5,94.12,204.65,96.67Z" style="fill:#e3e2eb"/><path d="M178.35,100.55l-1.49-.08a13,13,0,0,1-.51-2c0-.48.11-.54.57,0a9.37,9.37,0,0,1,.72,1C177.87,99.82,178.11,100.17,178.35,100.55Z" style="fill:#cfcedd"/><path d="M185.39,100.21c-1,.13-2.1.23-3.17.29-.21-.78-.39-1.52-.53-2.16-.38-1.82-.37-2.93.69-2.28a6.67,6.67,0,0,1,1.82,2.09C184.61,98.79,185,99.5,185.39,100.21Z" style="fill:#cfcedd"/><path d="M191.71,99c-1.27.33-2.62.62-4,.87-.19-.67-.4-1.35-.6-2-.89-2.88-1.62-5.44.29-4.34a10.74,10.74,0,0,1,3.37,3.82C191.1,97.93,191.42,98.5,191.71,99Z" style="fill:#cfcedd"/><path d="M145.26,124.62c0,1.7-.71,3.24-3.46,2.35-3.87-1.28-27.63-17.34-28-17.58,5.93-.74,13.6-1.82,21.76-3.29a20.23,20.23,0,0,1,3.46,3.71c.73,1.28-1.46-.28-5.92-.73s6.11,2.74,7.57,5-8.22-2.83-13.5-3.93,12.68,6.3,14,8.76-4.75-.64-9.68-2.48-14.23-6.55-8.21-2.71C128,116.75,140.27,122.37,145.26,124.62Z" style="fill:#cfcedd"/><path d="M145.26,124.62c-5-2.25-17.26-7.87-22-10.88-6-3.84,3.29.87,8.21,2.71s10.95,5,9.68,2.48-19.26-9.85-14-8.76,15,6.21,13.5,3.93-12-5.47-7.57-5,6.65,2,5.92.73a20.23,20.23,0,0,0-3.46-3.71l2.33-.42a5.11,5.11,0,0,0,3.9,2.85c2.85.37-1,2,0,3s-.12,2.65,1,3.2-.73,3.1.55,3.57,1.09,2.27,1.64,4.28A8,8,0,0,1,145.26,124.62Z" style="fill:#e3e2eb"/><path d="M145.43,18.92c-9.59,8.77-21.49,20.08-24.92,23.35L118.16,42s13.3-13.91,25.24-25.53l.11-.11A8.92,8.92,0,0,1,145.43,18.92Z" style="fill:#cfcedd"/><path d="M164.86,12.11c-.24,9-.73,7.11-2.19,8.91s1.46,1.79.24,4,1,2.68-.24,4.14,1,.73-.24,5.35-3.17,3.83-1,6.66c1.59,2.05-5,4.26-8.8,5.31.21-.16,4.33-3.28,5.4-5.88s-4,2.07-8.28,3.28,4.75-5.72,7.06-9.61c1.93-3.24-4.91,4.39-9.65,7.46a14.35,14.35,0,0,1-.12-2.5c3.59-3.26,9.09-7.81,10-9.95,1.05-2.41-4.79,3.29-9.88,7.61.06-.82.12-1.69.18-2.63a50.29,50.29,0,0,0,7.15-8.38c5.22-8.1,1-3.25-7,4.76,0-.7,0-1.44,0-2.21s-.1-1.63-.18-2.37c7-8.25,12.35-16.24,1-3.83-.46.5-.91,1-1.36,1.47a20.06,20.06,0,0,0-.61-2.53c8.4-8.52,16.35-16.9,12.84-14.27-2.19,1.62-7.6,6.46-13.72,12a8.92,8.92,0,0,0-1.92-2.53c5-4.81,9.66-9.22,13.08-12.07C168.27-5.41,165.1,3.1,164.86,12.11Z" style="fill:#e3e2eb"/><path d="M146.92,23.68C131.88,39.86,126.78,40,131,36.2c1.92-1.71,8.73-8.42,15.27-15.05A20.06,20.06,0,0,1,146.92,23.68Z" style="fill:#cfcedd"/><path d="M147.48,30.62c-.78.78-1.61,1.59-2.45,2.41-9.61,9.37-14.36,9-6.33,2.07A88.43,88.43,0,0,0,147.25,26c.08.74.14,1.52.18,2.37S147.48,29.92,147.48,30.62Z" style="fill:#cfcedd"/><path d="M147.37,34.24c-.06.94-.12,1.81-.18,2.63-2.59,2.2-5,4.05-6.18,4.28C138.71,41.6,142.72,38.74,147.37,34.24Z" style="fill:#cfcedd"/><path d="M147.18,41.71a7.69,7.69,0,0,1-2.52,1.18c-1.71.3-.14-1.37,2.4-3.68A14.35,14.35,0,0,0,147.18,41.71Z" style="fill:#cfcedd"/><path d="M157.07,29.26c-.92,2.14-6.42,6.69-10,10,0-.73.07-1.51.13-2.34C152.28,32.55,158.12,26.85,157.07,29.26Z" style="fill:#ff6529"/><path d="M154.52,25.86a50.29,50.29,0,0,1-7.15,8.38c.06-1.11.11-2.3.11-3.62C155.54,22.61,159.74,17.76,154.52,25.86Z" style="fill:#ff6529"/><path d="M147.25,26c-.08-.86-.19-1.64-.33-2.36.45-.47.9-1,1.36-1.47C159.6,9.8,154.23,17.79,147.25,26Z" style="fill:#ff6529"/><path d="M146.31,21.15a15.24,15.24,0,0,0-.88-2.23c6.12-5.58,11.53-10.42,13.72-12C162.66,4.25,154.71,12.63,146.31,21.15Z" style="fill:#ff6529"/><path d="M150.22,47.1a277.66,277.66,0,0,0-29.71-4.83c3.43-3.27,15.33-14.58,24.92-23.35a15.24,15.24,0,0,1,.88,2.23C139.77,27.78,133,34.49,131,36.2c-4.26,3.78.84,3.66,15.88-12.52.14.72.25,1.5.33,2.36a88.43,88.43,0,0,1-8.55,9.06c-8,6.94-3.28,7.3,6.33-2.07.84-.82,1.67-1.63,2.45-2.41,0,1.32,0,2.51-.11,3.62-4.65,4.5-8.66,7.36-6.36,6.91,1.19-.23,3.59-2.08,6.18-4.28-.06.83-.1,1.61-.13,2.34-2.54,2.31-4.11,4-2.4,3.68a7.69,7.69,0,0,0,2.52-1.18A8.47,8.47,0,0,0,150.22,47.1Z" style="fill:#ef6522"/><path d="M158.05,40.58c-1.07,2.6-5.19,5.72-5.4,5.88h0c-1.42.41-2.42.64-2.42.64a8.47,8.47,0,0,1-3-5.39c4.74-3.07,11.58-10.7,9.65-7.46-2.31,3.89-11.31,10.83-7.06,9.61S159.15,37.9,158.05,40.58Z" style="fill:#ff6529"/><path d="M26.53,78.54c-.92,2.8-6.58,3.65-10,2s-7.16-6.09-1.32-6.21a5.11,5.11,0,0,0,9.6.64A2.66,2.66,0,0,1,26.53,78.54Z" style="fill:#5efef5"/><path d="M25.19,72.94a5.11,5.11,0,0,1-10,1.4,4.65,4.65,0,0,1-.2-1.4,4.9,4.9,0,0,1,.3-1.72,5.11,5.11,0,0,1,9.87,1A5,5,0,0,1,25.19,72.94Z" style="fill:#414142"/><path d="M29.63,71.67c-1.16,1.15-4.49.6-4.49.6a5.11,5.11,0,0,0-9.87-1s-4.13.61-3.47-2.9h0A11.23,11.23,0,0,1,16,65.37a3.7,3.7,0,0,0,3.45,1.31c2.43-.25,5.29,0,6.57,1.88s3.59,1.74,3.68.52C29.94,70,30.23,71.07,29.63,71.67Z" style="fill:#5efef5"/><path d="M29.66,69.07h0c-.09,1.22-2.4,1.36-3.68-.52s-4.14-2.13-6.57-1.88A3.7,3.7,0,0,1,16,65.37a14.13,14.13,0,0,1,5.4-1.06,13.59,13.59,0,0,1,6.2,1.44,11.81,11.81,0,0,1,2.07,1.33C29.16,67.39,29.41,68.19,29.66,69.07Z" style="fill:#169393"/><path d="M33,73.62c0,5.13-5.2,9.3-11.61,9.3H20.8c-5-.18-9.15-2.89-10.55-6.56a7.48,7.48,0,0,1-.52-2.73,8,8,0,0,1,2.07-5.3c-.66,3.51,3.47,2.9,3.47,2.9a4.9,4.9,0,0,0-.3,1.72,4.65,4.65,0,0,0,.2,1.4c-5.84.12-2.15,4.57,1.32,6.21s9.12.79,10-2A2.66,2.66,0,0,0,24.77,75a5.1,5.1,0,0,0,.42-2,5,5,0,0,0-.05-.67s3.33.55,4.49-.6c.6-.6.31-1.65,0-2.59h0c-.25-.88-.5-1.68,0-2a9.09,9.09,0,0,1,3,4.18A7.77,7.77,0,0,1,33,73.62Z" style="fill:#26bec6"/><path d="M34.51,78.05a7.81,7.81,0,0,1-2.63,4.18c-5,4.55-11.08.68-11.08.68h.56c6.41,0,11.61-4.17,11.61-9.3a7.77,7.77,0,0,0-.37-2.36C33.4,72.82,35.09,75.24,34.51,78.05Z" style="fill:#f75726"/><path d="M185.68,67.56a14.51,14.51,0,0,0-4,1,43.63,43.63,0,0,1-10.85,3.73h-.05A72.64,72.64,0,0,1,160,73.62c-12.16.66-19-.13-24.88,5.71A18,18,0,0,1,129.53,83c-6.88,3-17.61,4.2-32.56,4.81-14.4.58-29.32-4-38.71-7.33a14.3,14.3,0,0,0-1.21-6.42,67.89,67.89,0,0,1,8.53,2.3,89.1,89.1,0,0,0,39.34,3.14,68.45,68.45,0,0,0,13.86-3.4l.49-.18c4.48-1.66,8.68-4.08,13.36-5.15a29.16,29.16,0,0,1,5.59-.77c9.49-.33,27.92-.38,34.49-2.91s5.66-6.55-20.26-5.91-46.72,4.26-57.3,4.55-25.92,1.38-35.77-.35S46.72,62.05,43.1,64.31s-10,.47-8.47,4,.22,7.23,8.47,6a68.54,68.54,0,0,1,7.33-.82A26.59,26.59,0,0,1,51.08,77c0,.33.08.66.1,1l-.93-.32c-6-1.89-6.93,2.38-9.25.43s-6.26-.11-6.49,0c.58-2.81-1.11-5.23-1.91-6.79a9.09,9.09,0,0,0-3-4.18,11.81,11.81,0,0,0-2.07-1.33c1-2.22,3.59-2.66,5.41-2.54s4.51,1,7.06-.61,6.39-1.7,19.71.12,39.79.55,69.79-2.92a155.83,155.83,0,0,1,17.87-1h0a178.94,178.94,0,0,1,28.94,2.36c8.53,1.43,14.25,3.17,15.16,4.2C193.07,67.12,189.34,67.07,185.68,67.56Z" style="fill:#32d1e0"/><path d="M58.26,80.47c-3-1-5.4-2-7.08-2.53,0-.33-.06-.66-.1-1a26.59,26.59,0,0,0-.65-3.43,28.85,28.85,0,0,1,6.62.53A14.3,14.3,0,0,1,58.26,80.47Z" style="fill:#e84923"/><path d="M58.26,80.47A16.86,16.86,0,0,1,51.94,93a12.52,12.52,0,0,1-6.88,2.55,13.45,13.45,0,0,1-1.42,0,.56.56,0,0,1-.29-1,19.86,19.86,0,0,0,2.74-2.2c4-3.81,5.48-9.07,5.09-14.43C52.86,78.51,55.28,79.43,58.26,80.47Z" style="fill:#f75726"/><path d="M172.71,67.08c-6.57,2.53-25,2.58-34.49,2.91a29.16,29.16,0,0,0-5.59.77c-4.68,1.07-8.88,3.49-13.36,5.15l-.49.18a68.45,68.45,0,0,1-13.86,3.4,89.1,89.1,0,0,1-39.34-3.14,67.89,67.89,0,0,0-8.53-2.3c0-.08-.08-.17-.11-.25a17.31,17.31,0,0,0-4.85-6,14.28,14.28,0,0,0-3-2.07.54.54,0,0,0-.73.68A22.72,22.72,0,0,1,49,68.64c.52,1.62,1,3.24,1.44,4.88a68.54,68.54,0,0,0-7.33.82c-8.25,1.21-6.9-2.49-8.47-6s4.85-1.76,8.47-4,6.42-.67,16.28,1.06,25.18.64,35.77.35,31.39-3.91,57.3-4.55S179.28,64.55,172.71,67.08Z" style="fill:#5efef5"/><path d="M57.05,74.05a28.85,28.85,0,0,0-6.62-.53c-.4-1.64-.92-3.26-1.44-4.88a22.72,22.72,0,0,0-.66-2.19.54.54,0,0,1,.73-.68,14.28,14.28,0,0,1,3,2.07,17.31,17.31,0,0,1,4.85,6C57,73.88,57,74,57.05,74.05Z" style="fill:#ff6529"/><path d="M171.19,101.66c-3.77-5.72,4.13,10,6.69,14.79s-7-8.71-12.53-12.84,4.86,9.36,8.64,17.88-10.1-12.17-14.24-16.73-2.06,4.56,4,11.69,12.28,14.41,6.69,10-18.62-23.23-18.94-23.68h0c1.39-.33,2.76-.68,4.12-1l2-.55,2-.56c1.32-.38,2.63-.77,3.91-1.18.55-.18,1.1-.35,1.64-.54l.35-.11,1.76-.61a29.61,29.61,0,0,0,9.53,2.26c.79,2.45,2.29,6.36,3.37,9.34C182.33,115.65,175,107.38,171.19,101.66Z" style="fill:#ff6529"/><path d="M33.85,87.33a1.29,1.29,0,1,1-1.28-1.4A1.35,1.35,0,0,1,33.85,87.33Z" style="fill:#5efef5"/><path d="M39.08,81.66a1.06,1.06,0,1,1-1-1.27A1.17,1.17,0,0,1,39.08,81.66Z" style="fill:#5efef5"/><path d="M47.35,81.44a.86.86,0,1,1-.85-1A.91.91,0,0,1,47.35,81.44Z" style="fill:#5efef5"/><path d="M44.92,87.75a1.25,1.25,0,1,1-1.22-1A1.12,1.12,0,0,1,44.92,87.75Z" style="fill:#5efef5"/><path d="M61.71,91a.93.93,0,0,1-1.83,0,.93.93,0,0,1,1.83,0Z" style="fill:#5efef5"/><ellipse cx="65.78" cy="87.03" rx="1.16" ry="1.7" style="fill:#5efef5"/><path d="M75.58,93.41c0,.43-.52.78-1.16.78s-1.15-.35-1.15-.78.51-.79,1.15-.79S75.58,93,75.58,93.41Z" style="fill:#5efef5"/><ellipse cx="77.22" cy="89.41" rx="1.03" ry="1.56" style="fill:#5efef5"/><path d="M85.92,94.51a1,1,0,1,1-1-1.1A1.05,1.05,0,0,1,85.92,94.51Z" style="fill:#5efef5"/><path d="M93,92.18c0,.25-.38.44-.86.44s-.85-.19-.85-.44.38-.44.85-.44S93,91.94,93,92.18Z" style="fill:#5efef5"/><path d="M67.43,98.72c0,.34-.49.61-1.1.61s-1.09-.27-1.09-.61.49-.6,1.09-.6S67.43,98.39,67.43,98.72Z" style="fill:#5efef5"/><path d="M105.27,89.46a.94.94,0,1,1-.92-.73A.84.84,0,0,1,105.27,89.46Z" style="fill:#5efef5"/><path d="M113.8,89.85a1,1,0,1,1-1-1.12A1.08,1.08,0,0,1,113.8,89.85Z" style="fill:#32d1e0"/><path d="M62.07,86.05c0,.4-.49.72-1.09.72s-1.1-.32-1.1-.72.49-.73,1.1-.73S62.07,85.65,62.07,86.05Z" style="fill:#32d1e0"/><path d="M68.28,92.11a1,1,0,1,1-1-1.14A1.07,1.07,0,0,1,68.28,92.11Z" style="fill:#32d1e0"/><path d="M44.31,83.42a.92.92,0,1,1-.91-1A1,1,0,0,1,44.31,83.42Z" style="fill:#32d1e0"/><path d="M39.93,86.17c0,.47-.52.86-1.16.86s-1.15-.39-1.15-.86.51-.85,1.15-.85S39.93,85.7,39.93,86.17Z" style="fill:#32d1e0"/><path d="M20.8,85.31c0,.48-.59.86-1.32.86s-1.33-.38-1.33-.86.59-.87,1.33-.87S20.8,84.83,20.8,85.31Z" style="fill:#32d1e0"/><path d="M86.65,89.29c0,.31-.39.56-.87.56s-.87-.25-.87-.56.39-.56.87-.56S86.65,89,86.65,89.29Z" style="fill:#32d1e0"/><ellipse cx="94.98" cy="104.86" rx="0.91" ry="0.81" style="fill:#32d1e0"/><path d="M101.25,97a1,1,0,1,1-1-1.12A1.09,1.09,0,0,1,101.25,97Z" style="fill:#32d1e0"/><path d="M101.25,90.3c0,.37-.46.67-1,.67s-1-.3-1-.67.46-.66,1-.66S101.25,89.93,101.25,90.3Z" style="fill:#32d1e0"/><ellipse cx="110.1" cy="97.74" rx="1.19" ry="0.98" style="fill:#32d1e0"/><path d="M120.51,101.67c0,.51-.63.93-1.42.93s-1.41-.42-1.41-.93.63-.92,1.41-.92S120.51,101.16,120.51,101.67Z" style="fill:#32d1e0"/><ellipse cx="124.91" cy="95.53" rx="1.16" ry="1.03" style="fill:#32d1e0"/><path d="M122.3,90.85a1.1,1.1,0,1,1-1.08-.88A1,1,0,0,1,122.3,90.85Z" style="fill:#32d1e0"/><path d="M98.09,93.88c0,.35-.49.63-1.1.63s-1.09-.28-1.09-.63.49-.63,1.09-.63S98.09,93.53,98.09,93.88Z" style="fill:#32d1e0"/><path d="M93,97.86a.86.86,0,1,1-.86-.87A.85.85,0,0,1,93,97.86Z" style="fill:#32d1e0"/><ellipse cx="80.93" cy="93.88" rx="0.85" ry="0.63" style="fill:#32d1e0"/><path d="M72.66,87.26c0,.27-.3.49-.67.49s-.67-.22-.67-.49.3-.49.67-.49S72.66,87,72.66,87.26Z" style="fill:#32d1e0"/><ellipse cx="124.91" cy="101.99" rx="1.16" ry="0.61" style="fill:#32d1e0"/><path d="M129.11,86.52a.78.78,0,0,1-1.56,0,.78.78,0,0,1,1.56,0Z" style="fill:#32d1e0"/><path d="M123.76,86.9c0,.47-.21.85-.47.85s-.47-.38-.47-.85.21-.85.47-.85S123.76,86.43,123.76,86.9Z" style="fill:#32d1e0"/><path d="M80.93,99.2c0,.37-.6.67-1.34.67s-1.34-.3-1.34-.67.6-.66,1.34-.66S80.93,98.84,80.93,99.2Z" style="fill:#32d1e0"/><path d="M22.73,71.26a2.68,2.68,0,1,1,2.67,2.67A2.68,2.68,0,0,1,22.73,71.26Z" style="fill:#fff"/></g></g></svg>