<svg xmlns="http://www.w3.org/2000/svg" viewBox="0 0 299.57 166.83"><title>Asset 11</title><g id="Layer_2" data-name="Layer 2"><g id="Ñëîé_2" data-name="Ñëîé 2"><path d="M238.63,63.63c-5.41-6.92-2.64-4.15-3.66-9.44s-3.77-9.31-8.8-5.54-9.31,3.78-11.82,1.26-6-8.3-9.06.76-8.3,9-8.3,5.28,6.79-10.57,1.26-9.06-8.3,3.27-12.33.25-.62,1-5.47,6.8-8.14,12.11.43,12.72,8.31-1.15,11.08,6,5,7.67.75,13.46-4.58,4.53-10,3.27-6.39-6.54-4.88-12.33.76-2.82-3.52-8.2-2.52-6.89,0-11.17,5.53-8.8,2.51-12,1.77-9.68-5,2.39S162,61,162.52,56.2s9.56-4.78,6.54-10.82-3.26-8.8-7.79-2.77-8.56,6-7.3.51-5.1-14.8-4.19-7.28,3.68,8.79-2.85,15.08-6.38,4.53-7.72,10.56-4.61,1.26-2.09-4.27,7-2.77,5-12.33-5.28-16.6-7.54-15.1,3.27,5,0,14.6-6.29,12.08-7.29,11.82,1.23-7,2.12-11.57-3-9.56-3.58-12.58-6.85-4-5.09,3.52S118,45.63,116.23,47.4s2.27-1.77.51-9.56-5-8.05-5-2.27-3.27,15.6-.25,21.89,0,7.6,0,16.25,2.26,13.85-1.77,8.86-6-8.56-3.77-13.69a22.13,22.13,0,0,0,1.26-15.44c-1.51-4.79,2.77-11.58.25-15.6s-2.27-9.31-4.27-4.53.49,7.55-4.79,12.32-5,2.77-5.28-.49,1.76-7.3-1.51-9.57-4.27-6.74-3.52.27-2.52,8.54-4.78,8.28S73.46,42.79,72,40.06s-1.51,2.55-.25,5.32-2.52,3.27-3.78,5.79-5.53,3-5.53-.25,3.77-6,2.51-8.55-4-3.53-7,1-7.3,5-4.53,9.31S57.87,60,54.85,61s-9.56,2-7.54-3,2.51-5.79-1-8.81-7.34-2.77-6.43,0,.58,6.29-1.15,6.79-1,2,2.94,6-2.4,3-5.29,0-7.17-5-10.07-2.27c-2.41,2.31-3.16.59-7-2.38-5.42,3-8.92,4.94-12.1,6.54C2.31,66.31-1,68.94.28,73.57c2.3.06,5.64.61,8,2.91,1.87,1.8,5.59,5.88,9.61,9.87h0c.37.16,14,6.19,23.72,4.84a15,15,0,0,0,2.89-.68C54.35,87.14,59.13,68,63.16,72.68s6.79,11.7,9.55,8.93,7.8-.6,8.81,6.24,3.77,10.36,7.79,9.36,8.56-9.94,13.34-2.58,17.61,5.09,18.36-1.7-5.3-13.89,2-24.05,6.56.41,5.81,12.73-2.27,9.78,5.78,8.91,6.79,1.41,10.31-1.36,6.22-10.32,4.87-18.87S151.2,46.14,155,54.44s6,17,3.28,28.13.25,6.84-.76,10.36-5.85,4.53-7.71,9.06,6.64,4.28,9.69,1.76,4.31-3.52,4.06-12-2.26-21.21,3.27-15.32,8.55,6.13,3.77,15.32-3.77,9.18,1,6.17,3.15-3.53,8.87-1.26,11.51.62,13.77-2.08,5.28-5.57,9.06-6.78,4.52-17.51,8.05-11.37.75,14.34,3.77,11.37,4.78-2,5.79-6.24,1.25-7.74,7-5.13,7.26.6,8.92-3.8S244,70.54,238.63,63.63ZM39.5,78.52a9.05,9.05,0,1,1-6.91-14.89c.26,0,.53,0,.79,0a9.06,9.06,0,0,1,7.12,4.62,9,9,0,0,1-1,10.24ZM76,70c-2,5.53-1.77,12.63-4.79,6.44s-.25-7.18-2-11.34-1.59-11.77,2-7.53a32.57,32.57,0,0,1,4.79,6C78.25,67.27,78,64.5,76,70ZM98.37,84.25c-4.27,4.41-7.29,5.66-7.8,3.6a38.51,38.51,0,0,0-2.77-6.24c-2.4-5.1,3.28-9.81,6.07-16.5s1.48-9.91,3.5-5.39,2.77,6.8,1,13S102.65,79.85,98.37,84.25ZM206.8,68.88c-4.78-1.16-3.77,5.94-7.06,9.68s-1.49-8.27-2-11,4-2.43,4-2.43c5.28-.12,6-2.65,8-7.53s3,5.38,3,9S211.58,70,206.8,68.88Z" style="fill:#357290"/><path d="M27.12,101.2c-11.59-8.94-20-17.48-23-21.1A18.51,18.51,0,0,1,.28,73.57c2.3.06,5.64.61,8,2.91,1.87,1.8,5.59,5.88,9.61,9.87h0c4.61,4.57,9.66,9,12.84,9.84C35.14,97.31,31.86,99.9,27.12,101.2Z" style="fill:#b3c8ce"/><path d="M242.48,63.5c0,10.25-1.8,14.89-3,16.84,0,0-8.11-2.75-11.55,1.27S209.31,94.19,195,102s-18.36,6.54-49.05,17a76.34,76.34,0,0,1-43,1.58c.71-.85,1.57-1.38,4.05-1.58,4.27-.35,8.8-4,0-8.73-4.47-2.38-9-4.63-13.56-6.86l-1.66-.81q-3.85-1.89-7.71-3.75c-1.79-.87-3.81-2.73-5.92-3.74a5.23,5.23,0,0,0-3.86-.47A5.48,5.48,0,0,0,70.89,99a7.21,7.21,0,0,0,0,2.27c-11-8-29.2-10-29.2-10a15,15,0,0,0,2.89-.68C54.35,87.14,59.13,68,63.16,72.68s6.79,11.7,9.55,8.93,7.8-.6,8.81,6.24,3.77,10.36,7.79,9.36,8.56-9.94,13.34-2.58,17.61,5.09,18.36-1.7-5.3-13.89,2-24.05,6.56.41,5.81,12.73-2.27,9.78,5.78,8.91,6.79,1.41,10.31-1.36,6.22-10.32,4.87-18.87S151.2,46.14,155,54.44s6,17,3.28,28.13.25,6.84-.76,10.36-5.85,4.53-7.71,9.06,6.64,4.28,9.69,1.76,4.31-3.52,4.06-12-2.26-21.21,3.27-15.32,8.55,6.13,3.77,15.32-3.77,9.18,1,6.17,3.15-3.53,8.87-1.26,11.51.62,13.77-2.08,5.28-5.57,9.06-6.78,4.52-17.51,8.05-11.37.75,14.34,3.77,11.37,4.78-2,5.79-6.24,1.25-7.74,7-5.13,7.26.6,8.92-3.8,7.18-2.14,1.78-9.05S236,59.48,235,54.19s-3.77-9.31-8.8-5.54-9.31,3.78-11.82,1.26-6-8.3-9.06.76-8.3,9-8.3,5.28,6.79-10.57,1.26-9.06-8.3,3.27-12.33.25-.62,1-5.47,6.8-8.14,12.11.43,12.72,8.31-1.15,11.08,6,5,7.67.75,13.46-4.58,4.53-10,3.27-6.39-6.54-4.88-12.33.76-2.82-3.52-8.2-2.52-6.89,0-11.17,5.53-8.8,2.51-12,1.77-9.68-5,2.39S162,61,162.52,56.2s9.56-4.78,6.54-10.82-3.26-8.8-7.79-2.77-8.56,6-7.3.51-5.1-14.8-4.19-7.28,3.68,8.79-2.85,15.08-6.38,4.53-7.72,10.56-4.61,1.26-2.09-4.27,7-2.77,5-12.33-5.28-16.6-7.54-15.1,3.27,5,0,14.6-6.29,12.08-7.29,11.82,1.23-7,2.12-11.57-3-9.56-3.58-12.58-6.85-4-5.09,3.52S118,45.63,116.23,47.4s2.27-1.77.51-9.56-5-8.05-5-2.27-3.27,15.6-.25,21.89,0,7.6,0,16.25,2.26,13.85-1.77,8.86-6-8.56-3.77-13.69a22.13,22.13,0,0,0,1.26-15.44c-1.51-4.79,2.77-11.58.25-15.6s-2.27-9.31-4.27-4.53.49,7.55-4.79,12.32-5,2.77-5.28-.49,1.76-7.3-1.51-9.57-4.27-6.74-3.52.27-2.52,8.54-4.78,8.28S73.46,42.79,72,40.06s-1.51,2.55-.25,5.32-2.52,3.27-3.78,5.79-5.53,3-5.53-.25,3.77-6,2.51-8.55-4-3.53-7,1-7.3,5-4.53,9.31S57.87,60,54.85,61s-9.56,2-7.54-3,2.51-5.79-1-8.81-7.34-2.77-6.43,0,.58,6.29-1.15,6.79-1,2,2.94,6-2.4,3-5.29,0-7.17-5-10.07-2.27c-2.41,2.31-3.16.59-7-2.38C25.46,53.91,34.1,49,47.56,41.61c22.7-12.54,66.72-14.73,75.45-15h0l1.52,0,1.31-.09c21.12-1.29,29.57,2.25,35.67,6.12a59.21,59.21,0,0,0,16.74,7.51,109.68,109.68,0,0,0,13.82,2.87c13.2,2,27.82,3.07,42.18-1.67C237.61,45.5,242.48,53.41,242.48,63.5Z" style="fill:#cbdde6"/><path d="M239.48,80.34a4.33,4.33,0,0,1-1,1.27c-2.25-.8-4.62-.66-8.16,1-4,1.82-9.41,5.51-17.83,11.87-14.34,10.83-53,25.29-88.78,31.41a204.84,204.84,0,0,1-23.77,2.75c-2,.1-4,.17-5.94.18H92.88a64.67,64.67,0,0,1-7.08-.43c-21.91-2.49-43.18-15.17-58.68-27.14,4.74-1.3,8-3.89,3.65-5-3.18-.81-8.23-5.27-12.84-9.84.37.16,14,6.19,23.72,4.84,0,0,18.21,2.08,29.2,10a13,13,0,0,0,1.75,4.64,29.47,29.47,0,0,0,10.52,10.61l.16.09c11.32,6.29,15.41,8.57,17.67,6.3a24.6,24.6,0,0,0,1.93-2.36,76.34,76.34,0,0,0,43-1.58c30.69-10.41,34.71-9.16,49.05-17s29.52-16.36,33-20.38S239.48,80.34,239.48,80.34Z" style="fill:#bfd1d8"/><path d="M264,58c11.7.75,8.2,3.58-3,3s-7.78,1.51,1.08,2.84,11.51,4.71-.19,3.2-10.66,3-.89,5.1,12.59,5.66,1.46,4-11.51-.19-3.21,4,13.68,4.38,1.75,2.47-12.5,0-5.9,3.38,16,5.28,5.1,3.77c-3.24-.44-5.39-.74-6.74-.77a128.23,128.23,0,0,1-12.7-6.21,12.6,12.6,0,0,0-2.31-1.13,4.33,4.33,0,0,0,1-1.27c1.2-2,3-6.59,3-16.84,0-10.09-4.87-18-8.22-22.24a60.45,60.45,0,0,0,10.48-4.62c1.89,0,5.06-.21,10.36-.8,16.23-1.78-23.53,5.77-6.48,5.77s-6.31,1.89,10.46,3.77,13.85,1.89,1.92,3.4-14.58,1.51-2.5,3,19.81,4,6,3.58S252.27,57.27,264,58Z" style="fill:#6eb0d1"/><path d="M297.93,84.25c-1.88,1.71.57,2.83-1.32,4.34s-.94,3.78-1.7,6.79-9.62,3.21-9.62,3.21c-9.2-.71-22.08-5.39-31.83-9.64,1.35,0,3.5.33,6.74.77,10.94,1.51,1.51-.37-5.1-3.77s-6-5.28,5.9-3.38,6.55,1.68-1.75-2.47-7.92-5.66,3.21-4,8.3-1.89-1.46-4-10.8-6.61.89-5.1,9.06-1.88.19-3.2S249.82,60.48,261,61s14.67-2.26,3-3-13.21-3,.57-2.65,6-2.07-6-3.58-9.44-1.51,2.5-3,14.86-1.51-1.92-3.4,6.59-3.77-10.46-3.77,22.71-7.55,6.48-5.77c-5.3.59-8.47.79-10.36.8l.55-.31c17.74-10.19,38.87-9.62,40.76-6.79s3.2,2.45,3.2,4.34.95,3.58,4.91,6.22,6.23,4.72-.94,10.19-4.34,12.26-.57,16.23,2.83,9,5.28,11.13S299.82,82.55,297.93,84.25Z" style="fill:#357290"/><path d="M36.36,72.68a4.4,4.4,0,1,1-4.4-4.4A4.4,4.4,0,0,1,36.36,72.68Z" style="fill:#2b2b2b"/><path d="M33.38,63.66A4.53,4.53,0,0,1,32,65.26a3,3,0,0,0-1.18,1.39h0a6.29,6.29,0,0,0-1.42,11.42.75.75,0,0,1-.85.89c-1,0-2.35.08-2.35.08a9.05,9.05,0,0,1,6.44-15.42C32.85,63.63,33.12,63.64,33.38,63.66Z" style="fill:#ed492c"/><path d="M39.5,78.52a9,9,0,0,1-13.35.53S27.49,79,28.5,79a.75.75,0,0,0,.85-.89,6.3,6.3,0,0,0,8.24-1.59C37.43,77.44,38.6,78.14,39.5,78.52Z" style="fill:#e8eaa9"/><path d="M41.65,72.68a9,9,0,0,1-2.15,5.84c-.9-.38-2.07-1.08-1.91-2a6.21,6.21,0,0,0,1.29-3.81,6.31,6.31,0,0,0-1.28-3.81c1.49-2.27,2.9-.59,2.9-.59A9,9,0,0,1,41.65,72.68Z" style="fill:#ed492c"/><path d="M40.5,68.28s-1.41-1.68-2.9.59a6.33,6.33,0,0,0-6.82-2.22A3,3,0,0,1,32,65.26a4.53,4.53,0,0,0,1.42-1.6A9.06,9.06,0,0,1,40.5,68.28Z" style="fill:#e8eaa9"/><path d="M37.6,68.87a6.33,6.33,0,0,0-6.82-2.22h0a6.29,6.29,0,1,0,6.82,9.83,6.21,6.21,0,0,0,1.29-3.81A6.31,6.31,0,0,0,37.6,68.87ZM32,77.08a4.4,4.4,0,1,1,4.4-4.4A4.4,4.4,0,0,1,32,77.08Z" style="fill:#eae3dd"/><path d="M239.92,14.82c-4.31.92-13.36,2.16-21.8,7.92C205.67,31.23,194.64,40,178.26,40.06a59.21,59.21,0,0,1-16.74-7.51c-6.1-3.87-14.55-7.41-35.67-6.12,1.89-4.42,7.18-7.08,8.31-7.65s2.07,1.13,4.72,3.59,3.39,3.2,2.26.37-3-5.85-1.93-6,2.5-1.89,5.51-2.83,2.08,5.09,2.08,9.43,1.7,1.32,1.7,1.32c1.89-6.42,0-10.57,0-10.57a16.84,16.84,0,0,0,4.43-2.64,2.29,2.29,0,0,1,2.93-.56c.94,10.19-5.33,17-1.89,14.15s5.09-15.85,7-16,.38,3.4-.56,9.24-2.65,6.61-1.89,7,1.51-.38,1.51-.38c8.49-12.83,2.45-16.23,5.09-16s4-1.89,5.29.38-1.7,7.55-5.1,13-2.26,5.47-1.51,5.47,3.4-3.4,7.55-9.25S173.4,8.21,175.86,8s5.23-4.95,5.47.18-5.28,10.19-7.74,13.59-8.3,6.41-6.79,6.79,3.59-1.13,3.59-1.13C191.52,12,186.8,5.57,190.76,6.31s9.25-5.51,5.47,3-18.67,16.79-23,19.62,0,1.51,0,1.51c22.64-8.49,30.56-24.72,34-24.15s4.71.94.93,7.17S186.8,28,181.52,30.1s-11,3.59-3.21,2.64,15.09-4.15,27-12.71,12.45-15,16.6-11.82S221.71,12,218.5,16s-14.34,10.76-23.78,14.91-23.95,6.6-7,3.77,31.51-17,39.25-20.94C232.35,10.94,237.36,13.18,239.92,14.82Z" style="fill:#6eb0d1"/><path d="M239.92,14.82c-2.56-1.64-7.57-3.88-12.93-1.13-7.74,4-22.27,18.11-39.25,20.94s-2.45.38,7-3.77S215.29,19.91,218.5,16s7.55-4.53,3.39-7.74-4.71,3.26-16.6,11.82-19.24,11.77-27,12.71-2.08-.56,3.21-2.64,22.81-10.38,26.59-16.6,2.46-6.61-.93-7.17-11.32,15.66-34,24.15c0,0-4.34,1.32,0-1.51s19.24-11.07,23-19.62-1.51-2.3-5.47-3,.76,5.68-20.37,21.15c0,0-2.08,1.51-3.59,1.13s4.34-3.39,6.79-6.79,8-8.45,7.74-13.59-3-.37-5.47-.18-.38,4.52-4.53,10.37-6.79,9.25-7.55,9.25-1.89,0,1.51-5.47,6.42-10.76,5.1-13-2.65-.19-5.29-.38,3.4,3.21-5.09,16c0,0-.76.75-1.51.38s.94-1.14,1.89-7S162.84,8.78,161,9s-3.54,13.21-7,16,2.83-4,1.89-14.15a2.29,2.29,0,0,0-2.93.56,16.84,16.84,0,0,1-4.43,2.64s1.89,4.15,0,10.57c0,0-1.7,3-1.7-1.32s.94-10.38-2.08-9.43-4.42,2.64-5.51,2.83.8,3.2,1.93,6,.39,2.08-2.26-.37-3.59-4.16-4.72-3.59-6.42,3.23-8.31,7.65l-1.31.09-1.52,0c.09-.17,1.72-3,3.59-5.71h0c4.69-3,8.91-4,9.62-3.13.89,1.13,1.64.13,1.39-1.38s2.52-1.51,5.16-3.4,3.89-.13,6-.88,4.9-3.52,6.91-3,1,2.77,2.26.38,5-.76,6-2,4.28-1.51,6.54-.51,1.76,1.39,6.29-.62,5.41-1.39,5.89.62.9,2.77,3.54,0,3.91-2.39,9.06-3.52,3.65.51,3.53,3.52.88,2,4.15-.88,7.67-.25,9.05,1.77.38,2,3.27-.13,7.17-.25,8.94.75,1.38,3.53,5.15,1.76a10.09,10.09,0,0,1,4.42-.78.7.7,0,0,1,.11.53c-.38,2.27,6.23,1.08,8.3,3.37C242.94,14,242,14.38,239.92,14.82Z" style="fill:#357290"/><path d="M233.86,9.38a10.09,10.09,0,0,0-4.42.78c-3.77,1.77-3.39-.75-5.15-1.76s-6-2.89-8.94-.75-1.89,2.13-3.27.13S206.29,3.12,203,6s-4.28,3.9-4.15.88,1.63-4.65-3.53-3.52-6.41.75-9.06,3.52-3.07,2-3.54,0-1.36-2.64-5.89-.62-4,1.63-6.29.62S165,6.14,164,7.4s-4.78-.38-6,2-.25.13-2.26-.38-4.78,2.26-6.91,3-3.4-1-6,.88-5.41,1.89-5.16,3.4-.5,2.51-1.39,1.38c-.71-.91-4.93.15-9.62,3.13,2-2.92,4.32-5.67,5.28-4.7,1.89,1.89,4.72-6.23,6.42-4s7.55-5.85,9.25-3,8.11-5.1,8.86-2.83,9.25-4.53,11-2.27S174,2,176.8,3.6s10-4.44,10.94-2.37S200.39-1.91,200,.8s8.3.62,8.3,2.51,9.43-.76,9.43,1.7,7.36-.38,7.74,1.88C225.83,9,232.88,7.89,233.86,9.38Z" style="fill:#8fd4ef"/><path d="M257.62,112.05c-4.53.75-3,3.52-6,4.78s-.05,5.29-5.93,5.54-3.92,3.77-8.8,4.77-5.65,7-10.93,5.54-3.52,2.52-6.8,2.76-2.51,5-7,5-4.77,3.27-9.05,3.27-4,5.28-9.57,3.77-4.52,1.77-9.68,1.51-6.41,3.77-11.19,3.28-4.53.33-11.58,0-5.85,4.49-11.23,2.48-8.39.75-11.91-1c-2.37-1.18-17.21-4.58-27.68-11.76,2.07-.36,1.13-4.45-1.31-9.12-4.15-7.92,3.58,3.59,10,9.06s8.3,4,4.13-3.78,3.41,2.65,10.92,8.68,8,4.53,2.68-3.39-3-3.78,9.25,2.64,2.45-2.83-2.08-9.25,5.28.38,15.1,7.74,2.45-2.64-2.08-8.68.94-3,6.23,2.26,11.51,6,7.36,0-5.85-8.3,3.58-1.32,8.11,5.29,4.34-1.13,1.51-1.7,8.11,3.21,1.7-9.62,8.87-2.64-4-9.25,6-2.83-6.42-11.32,6.79-3.4S202.46,115,217,125.38s-8.49-14.52,5.66-4.9-13.77-16.79,6.79-2.83-8.87-15.28,5.85-4.77-11.51-14.67,6.42-2.78-15.29-18.68-5.66-10.75,14.9,11.13,9.43,5.09c-3.73-4.12-1.32-8.5.6-10.87,4.12,2.48,2.23,2.88.72,4.4-1.76,1.75,2.26,4,9.06,7.29S262.14,111.29,257.62,112.05Z" style="fill:#8fd4ef"/><path d="M236.05,99.35c-9.63-7.93,23.58,22.64,5.66,10.75s8.3,13.3-6.42,2.78,14.72,18.73-5.85,4.77,7.36,12.45-6.79,2.83,8.87,15.28-5.66,4.9,4.34,12.65-8.87,4.72,3.21,9.81-6.79,3.4,1.13,9.81-6,2.83-2.26,7.54-8.87,2.64-11.88-9.62-8.11-3.21,5.09,8.11-4.34,1.13-7.74-4.71-3.58,1.32-2.08,5.29-7.36,0-10.76-8.3-6.23-2.26,11.89,16,2.08,8.68-19.63-14.15-15.1-7.74,14.34,15.66,2.08,9.25-14.53-10.57-9.25-2.64,4.84,9.43-2.68,3.39-15.08-16.41-10.92-8.68,2.28,9.25-4.13,3.78-14.15-17-10-9.06c2.44,4.67,3.38,8.76,1.31,9.12-5.12-3.52-9.2-7.94-10.28-13.45a204.84,204.84,0,0,0,23.77-2.75C166.2,138,197.37,120.29,213,105.2c15.42-14.86,27.22-14.68,27.58-14.68h0c.94.58,1.91,1.14,2.91,1.66s1.87,1,2.55,1.39c-1.92,2.37-4.33,6.75-.6,10.87C251,110.48,245.67,107.27,236.05,99.35Z" style="fill:#357290"/><path d="M240.61,90.52c-.36,0-12.16-.18-27.58,14.68-15.66,15.09-46.83,32.82-89.35,20.65,35.81-6.12,74.44-20.58,88.78-31.41,8.42-6.36,13.87-10,17.83-11.87A64.59,64.59,0,0,0,240.61,90.52Z" style="fill:#6eb0d1"/><path d="M98.37,84.25c-4.27,4.41-7.29,5.66-7.8,3.6a38.51,38.51,0,0,0-2.77-6.24c-2.4-5.1,3.28-9.81,6.07-16.5s1.48-9.91,3.5-5.39,2.77,6.8,1,13S102.65,79.85,98.37,84.25Z" style="fill:#cbdde6"/><path d="M76,70c-2,5.53-1.77,12.63-4.79,6.44s-.25-7.18-2-11.34-1.59-11.77,2-7.53a32.57,32.57,0,0,1,4.79,6C78.25,67.27,78,64.5,76,70Z" style="fill:#cbdde6"/><path d="M212.84,66.66c0,3.66-1.26,3.38-6,2.22s-3.77,5.94-7.06,9.68-1.49-8.27-2-11,4-2.43,4-2.43c5.28-.12,6-2.65,8-7.53S212.84,63,212.84,66.66Z" style="fill:#cbdde6"/><path d="M95.51,114.25c-5.88-1.88-11.51-3.44-8.28-.75,1.09.9,2.23,1.85,3.13,2.64h0c1.75,1.55,2.52,2.5,0,1.51-3-1.21-7.26-3.3-7.27-1.16A29.47,29.47,0,0,1,72.6,105.88a13,13,0,0,1-1.75-4.64,7.21,7.21,0,0,1,0-2.27,5.48,5.48,0,0,1,3.33-4.39,5.23,5.23,0,0,1,3.86.47c2.11,1,4.13,2.87,5.92,3.74q3.85,1.86,7.71,3.75l1.66.81c0,.75.43,1.92,1.92,3.73a25.38,25.38,0,0,0,5.75,5.13c-.21-.1-1.38-.75-4.05-2-7.93-3.69-8.87-4-4.34,0S101.39,116.14,95.51,114.25Z" style="fill:#6eb0d1"/><path d="M106.93,110.21c-4.47-2.38-9-4.63-13.56-6.86,0,.75.43,1.92,1.92,3.73a25.38,25.38,0,0,0,5.75,5.13c-.21-.1-1.38-.75-4.05-2-7.93-3.69-8.87-4-4.34,0s8.74,5.93,2.86,4-11.51-3.44-8.28-.75c1.09.9,2.23,1.85,3.13,2.64h0c1.75,1.55,2.52,2.5,0,1.51-3-1.21-7.26-3.3-7.27-1.16l.16.09c11.32,6.29,15.41,8.57,17.67,6.3a24.6,24.6,0,0,0,1.93-2.36c.71-.85,1.57-1.38,4.05-1.58C111.2,118.59,115.73,114.92,106.93,110.21Zm-1,6.31a8.54,8.54,0,0,0-3.88,2.17l-.31.21c-.75.5-1.69.78-1.38-.59a14.1,14.1,0,0,1,2.16-4.25c1.52-2.26,1.14-3.48,4.44-1.51S108.5,116,106,116.52Z" style="fill:#357290"/><path d="M106,116.52a8.54,8.54,0,0,0-3.88,2.17l-.31.21c-.75.5-1.69.78-1.38-.59a14.1,14.1,0,0,1,2.16-4.25c1.52-2.26,1.14-3.48,4.44-1.51S108.5,116,106,116.52Z" style="fill:#4189a5"/><path d="M212.84,166.39c-16.1,1.76-51.57-1.76-88.3-11.07s-38.74-27-38.74-27a64.67,64.67,0,0,0,7.08.43,26,26,0,0,0,2.33,6.49,27.88,27.88,0,0,0,12.85,12.2C146.84,166,228.29,164.7,212.84,166.39Z" style="fill:#8fd4ef"/><path d="M33.13,69.62a3.24,3.24,0,1,1,3.23,3.24A3.23,3.23,0,0,1,33.13,69.62Z" style="fill:#eae3dd"/><path d="M281.13,37.27a1.9,1.9,0,1,1-1.89-1.7A1.8,1.8,0,0,1,281.13,37.27Z" style="fill:#8fd4ef"/><path d="M275.28,41.21c0,.64-.75,1.16-1.68,1.16s-1.68-.52-1.68-1.16.75-1.15,1.68-1.15S275.28,40.57,275.28,41.21Z" style="fill:#8fd4ef"/><ellipse cx="282.36" cy="47.37" rx="1.23" ry="1.42" style="fill:#8fd4ef"/><path d="M291.7,44.16a1.53,1.53,0,1,1-1.51-1.79A1.67,1.67,0,0,1,291.7,44.16Z" style="fill:#8fd4ef"/><path d="M267,34.58a1.53,1.53,0,1,1-1.51-1.27A1.41,1.41,0,0,1,267,34.58Z" style="fill:#8fd4ef"/><path d="M277.36,32a1.07,1.07,0,1,1-1-1.32A1.21,1.21,0,0,1,277.36,32Z" style="fill:#8fd4ef"/><path d="M287,55.31a1.13,1.13,0,1,1-1.13-1.06A1.1,1.1,0,0,1,287,55.31Z" style="fill:#8fd4ef"/><path d="M281.13,53.74a1.92,1.92,0,1,1-1.89-1.56A1.75,1.75,0,0,1,281.13,53.74Z" style="fill:#8fd4ef"/><ellipse cx="282.36" cy="91.89" rx="1.23" ry="0.66" style="fill:#8fd4ef"/><path d="M288.68,89.67c0,.47-.64.85-1.42.85s-1.41-.38-1.41-.85.63-.85,1.41-.85S288.68,89.2,288.68,89.67Z" style="fill:#8fd4ef"/><path d="M290.19,80.33a.77.77,0,1,1-1.51,0,.77.77,0,1,1,1.51,0Z" style="fill:#8fd4ef"/><ellipse cx="280.19" cy="77.6" rx="0.94" ry="1.28" style="fill:#8fd4ef"/><ellipse cx="284.1" cy="71.66" rx="1.75" ry="1.56" style="fill:#8fd4ef"/><ellipse cx="286.7" cy="64.91" rx="1.98" ry="1.04" style="fill:#8fd4ef"/><path d="M284.72,83.51c0,.51-.14.93-.31.93s-.31-.42-.31-.93.14-.94.31-.94S284.72,83,284.72,83.51Z" style="fill:#8fd4ef"/><path d="M276.32,65.43c0,.29-.44.52-1,.52s-1-.23-1-.52.44-.52,1-.52S276.32,65.15,276.32,65.43Z" style="fill:#8fd4ef"/><path d="M271.92,90a1.57,1.57,0,1,1-1.53-1.21A1.39,1.39,0,0,1,271.92,90Z" style="fill:#8fd4ef"/><ellipse cx="278.3" cy="87.76" rx="0.94" ry="1.06" style="fill:#8fd4ef"/><path d="M286.7,38.66a1.17,1.17,0,1,1-2.29,0,1.17,1.17,0,1,1,2.29,0Z" style="fill:#8fd4ef"/><path d="M284.1,32c0,.73-.11,1.32-.26,1.32s-.26-.59-.26-1.32.12-1.32.26-1.32S284.1,31.26,284.1,32Z" style="fill:#8fd4ef"/><ellipse cx="200.26" cy="14.41" rx="1.44" ry="0.79" style="fill:#8fd4ef"/><path d="M206.6,9.41c0,.56-.6,1-1.34,1s-1.35-.45-1.35-1,.6-1,1.35-1A1.21,1.21,0,0,1,206.6,9.41Z" style="fill:#8fd4ef"/><path d="M214.76,15.84c0,.79-.43,1.43-1,1.43s-1-.64-1-1.43.43-1.43,1-1.43S214.76,15.05,214.76,15.84Z" style="fill:#8fd4ef"/><ellipse cx="219.87" cy="11.85" rx="1.38" ry="1.43" style="fill:#8fd4ef"/><path d="M232.45,13.92a1.26,1.26,0,1,1-1.26-1.28A1.27,1.27,0,0,1,232.45,13.92Z" style="fill:#8fd4ef"/><path d="M171.51,13.52a1.52,1.52,0,1,1-3,0,1.52,1.52,0,1,1,3,0Z" style="fill:#8fd4ef"/><ellipse cx="179" cy="11.14" rx="1.64" ry="0.72" style="fill:#8fd4ef"/><path d="M190.75,9.41c0,.56-.21,1-.47,1s-.47-.45-.47-1,.21-1,.47-1S190.75,8.84,190.75,9.41Z" style="fill:#8fd4ef"/><path d="M186.79,17.24c0,.54-.83,1-1.86,1s-1.87-.43-1.87-1,.84-1,1.87-1S186.79,16.7,186.79,17.24Z" style="fill:#8fd4ef"/><path d="M193.56,13.08c0,.25-.29.44-.65.44s-.65-.19-.65-.44.29-.44.65-.44S193.56,12.84,193.56,13.08Z" style="fill:#8fd4ef"/><ellipse cx="156.83" cy="18.4" rx="1.28" ry="1.03" style="fill:#8fd4ef"/><path d="M155.55,16.41c0,1.1-.65,2-1.46,2s-1.45-.89-1.45-2,.65-2,1.45-2S155.55,15.3,155.55,16.41Z" style="fill:#8fd4ef"/><path d="M144.53,17.4c0,.56-.26,1-.57,1s-.56-.44-.56-1,.25-1,.56-1S144.53,16.85,144.53,17.4Z" style="fill:#8fd4ef"/><path d="M225.09,97.77a.9.9,0,1,1-.89-.82A.86.86,0,0,1,225.09,97.77Z" style="fill:#8fd4ef"/><path d="M229.93,90a1.19,1.19,0,1,1-1.19-1.21A1.19,1.19,0,0,1,229.93,90Z" style="fill:#8fd4ef"/><path d="M229.93,104.79a1.58,1.58,0,1,1-1.57-1.44A1.5,1.5,0,0,1,229.93,104.79Z" style="fill:#8fd4ef"/><ellipse cx="238.04" cy="93.47" rx="1.44" ry="0.92" style="fill:#8fd4ef"/><path d="M229.93,95.67c0,.71-.27,1.28-.6,1.28s-.59-.57-.59-1.28.27-1.28.59-1.28S229.93,95,229.93,95.67Z" style="fill:#8fd4ef"/><path d="M217.36,97.13c0,.81-.3,1.46-.66,1.46s-.66-.65-.66-1.46.29-1.46.66-1.46S217.36,96.32,217.36,97.13Z" style="fill:#8fd4ef"/><path d="M203.91,107c0,.44-.5.8-1.11.8s-1.1-.36-1.1-.8.49-.81,1.1-.81S203.91,106.59,203.91,107Z" style="fill:#8fd4ef"/><path d="M217.36,107a.67.67,0,1,1-.66-.81A.74.74,0,0,1,217.36,107Z" style="fill:#8fd4ef"/><path d="M212.84,114.49c0,.52-1.14,1-2.55,1s-2.56-.43-2.56-1,1.15-.94,2.56-.94S212.84,114,212.84,114.49Z" style="fill:#8fd4ef"/><path d="M213,104.28a1,1,0,1,1-.95-.93A.94.94,0,0,1,213,104.28Z" style="fill:#8fd4ef"/><path d="M225.09,109.7c0,1-.4,1.86-.89,1.86s-.9-.83-.9-1.86.4-1.86.9-1.86S225.09,108.67,225.09,109.7Z" style="fill:#8fd4ef"/><path d="M187.92,126.86c0,.82-1.08,1.48-2.43,1.48s-2.43-.66-2.43-1.48,1.09-1.48,2.43-1.48S187.92,126.05,187.92,126.86Z" style="fill:#8fd4ef"/><ellipse cx="197.43" cy="126.86" rx="1.39" ry="1.48" style="fill:#8fd4ef"/><ellipse cx="200.26" cy="119.31" rx="1.44" ry="1.25" style="fill:#8fd4ef"/><path d="M171.51,122.15a1.51,1.51,0,1,1-1.51-1.59A1.55,1.55,0,0,1,171.51,122.15Z" style="fill:#8fd4ef"/><ellipse cx="179" cy="124.87" rx="1.64" ry="1.99" style="fill:#8fd4ef"/><path d="M129.62,135.2a1.51,1.51,0,1,1-1.5-1.51A1.51,1.51,0,0,1,129.62,135.2Z" style="fill:#8fd4ef"/><path d="M123,132.55a1.28,1.28,0,1,1-1.28-1.13A1.21,1.21,0,0,1,123,132.55Z" style="fill:#8fd4ef"/><path d="M130.88,128.55c0,.74-.45,1.35-1,1.35s-1-.61-1-1.35.45-1.35,1-1.35S130.88,127.8,130.88,128.55Z" style="fill:#8fd4ef"/><path d="M140.57,126.86a1.18,1.18,0,1,1-1.14-1.48A1.34,1.34,0,0,1,140.57,126.86Z" style="fill:#8fd4ef"/><ellipse cx="139.06" cy="136.61" rx="1.51" ry="1.42" style="fill:#8fd4ef"/><path d="M151.65,128.55a1.39,1.39,0,1,1-1.39-1.35A1.37,1.37,0,0,1,151.65,128.55Z" style="fill:#8fd4ef"/><ellipse cx="154.47" cy="136.61" rx="1.08" ry="1.42" style="fill:#8fd4ef"/><path d="M187.92,134.44c0,.42-.25.76-.56.76s-.57-.34-.57-.76a.68.68,0,0,1,.57-.75C187.67,133.69,187.92,134,187.92,134.44Z" style="fill:#8fd4ef"/><path d="M162.46,128.89c0,.19-.25.34-.57.34s-.57-.15-.57-.34.26-.34.57-.34S162.46,128.7,162.46,128.89Z" style="fill:#8fd4ef"/><circle cx="189.81" cy="114.49" r="0.94" style="fill:#8fd4ef"/><path d="M192.91,122.94c0,.44-.48.8-1.08.8s-1.08-.36-1.08-.8.49-.79,1.08-.79S192.91,122.5,192.91,122.94Z" style="fill:#8fd4ef"/><path d="M142.14,80.43a1.36,1.36,0,1,1-1.35-1.31A1.34,1.34,0,0,1,142.14,80.43Z" style="fill:#8fd4ef"/><path d="M144,73.6a.91.91,0,1,1-.91-.92A.92.92,0,0,1,144,73.6Z" style="fill:#8fd4ef"/><ellipse cx="223.17" cy="64.43" rx="1.92" ry="1.52" style="fill:#8fd4ef"/><path d="M234.26,59.68c0,1.13-.41,2.06-.91,2.06s-.9-.93-.9-2.06.41-2.07.9-2.07S234.26,58.54,234.26,59.68Z" style="fill:#8fd4ef"/><path d="M219.87,73.09c0,.79-.31,1.43-.69,1.43s-.69-.64-.69-1.43.31-1.43.69-1.43S219.87,72.3,219.87,73.09Z" style="fill:#8fd4ef"/><path d="M102.39,53A2.43,2.43,0,1,1,100,50.67,2.38,2.38,0,0,1,102.39,53Z" style="fill:#8fd4ef"/><path d="M84.53,55.84c0,.29-.32.53-.71.53a.55.55,0,1,1,0-1.06C84.21,55.31,84.53,55.55,84.53,55.84Z" style="fill:#8fd4ef"/><path d="M123.68,49a1.61,1.61,0,1,1-1.61-1.65A1.63,1.63,0,0,1,123.68,49Z" style="fill:#8fd4ef"/><path d="M120.47,62.3a1.28,1.28,0,1,1-2.48,0,1.27,1.27,0,1,1,2.48,0Z" style="fill:#8fd4ef"/><path d="M88.55,65a1.38,1.38,0,1,1-1.37-1.32A1.34,1.34,0,0,1,88.55,65Z" style="fill:#8fd4ef"/><path d="M87.23,51.38c0,1.3-.77,2.36-1.71,2.36s-1.7-1.06-1.7-2.36S84.58,49,85.52,49,87.23,50.07,87.23,51.38Z" style="fill:#8fd4ef"/><path d="M54.84,75a1.66,1.66,0,1,1-1.63-1.36A1.51,1.51,0,0,1,54.84,75Z" style="fill:#8fd4ef"/><path d="M61.89,65.41c0,.54-.74,1-1.64,1s-1.63-.44-1.63-1,.73-1,1.63-1S61.89,64.87,61.89,65.41Z" style="fill:#8fd4ef"/><path d="M113,92.73c0,.47-.94.84-2.09.84s-2.09-.37-2.09-.84.94-.84,2.09-.84S113,92.27,113,92.73Z" style="fill:#8fd4ef"/><ellipse cx="116.23" cy="87.76" rx="1.76" ry="1.06" style="fill:#8fd4ef"/><ellipse cx="135.35" cy="72.53" rx="1.01" ry="2.43" style="fill:#8fd4ef"/><ellipse cx="166.38" cy="71.6" rx="2.11" ry="1.49" style="fill:#8fd4ef"/><path d="M186.79,58c0,.91-.42,1.66-.93,1.66s-.93-.75-.93-1.66.41-1.65.93-1.65S186.79,57.11,186.79,58Z" style="fill:#8fd4ef"/><path d="M192.91,53c0,.43-.14.78-.32.78s-.33-.35-.33-.78.15-.78.33-.78S192.91,52.53,192.91,53Z" style="fill:#8fd4ef"/><ellipse cx="197.43" cy="85.11" rx="1.39" ry="1.6" style="fill:#8fd4ef"/><path d="M156.83,102.65a1.74,1.74,0,1,1-1.72-1.45A1.6,1.6,0,0,1,156.83,102.65Z" style="fill:#8fd4ef"/><path d="M154,43a61.19,61.19,0,0,0-10-3.76c-11.42-2.74-23.54-2.68-35.19-2C73.53,39.34,59.69,47,57.43,53c0,0-10.32,10.47,7.29,16.66s57.23,11.1,75.85,4.9a121.13,121.13,0,0,1,53-5.64c17.07,1.9,35,10.69,38.89,1.22,2-4.88,4.22-11.67,2.26-16.91-2.45-6.56-10.69-4.47-16-3.73a122.18,122.18,0,0,1-15.88,1.06,152.29,152.29,0,0,1-27.63-2.36c-7-1.23-14.21-2.18-20.81-4.95Z" style="fill:#fff;opacity:0.33"/></g></g></svg>