<svg xmlns="http://www.w3.org/2000/svg" viewBox="0 0 280.56 229.31"><title>oranda-red-cap</title><g id="Layer_2" data-name="Layer 2"><g id="Ñëîé_2" data-name="Ñëîé 2"><path d="M76.7,69.52s.74,4.55-2,7.13-7,5.9-7,5.9a20.22,20.22,0,0,1-1,3.6c-.75,2-2,4.22-4,5.06a16.48,16.48,0,0,1-6.82,1.48s-5.16,1.1-7.56-2.21a17.29,17.29,0,0,1-3.78,4.63,9,9,0,0,1-4.7,2.19,9.24,9.24,0,0,1-1.4,0c-5-.19-11.14-3.73-11.14-3.73a26.1,26.1,0,0,1-4.36,3.55A8,8,0,0,1,19,98.59a4.18,4.18,0,0,1-4.24-3s-4.61-.74-4.8-2.21c0,0-3.5,1.66-6.08.73,0,0-4.06-4.24-3.87-8.11s2.21-5.56,2.21-5.56a24.56,24.56,0,0,1,.23-5.35,5.87,5.87,0,0,1,4.32,1,1.83,1.83,0,0,1,2.18,1A6.2,6.2,0,0,1,9.59,80c.19,4.79-3.32,3.68-2.76,7.19s4.79,5.34,7.37,4.61,3.87,3.68,5,2.21,5.35-.92,5.35-.92,1.47-6.27,6.91-7.38,6.73,7,7.84,4.8,4.79-3.14,4.79-3.14a8.35,8.35,0,0,1,9.22-3.87s5.16-.74,3.87-5S62.51,71,62.51,71s.73-.41,2.05-4.09,6.24-3.32,6.24-3.32.74-1.66-2.4-3.87S64.56,49,64.56,49c1.86.26,4.52.79,5.87,1.81a3.81,3.81,0,0,1,1.48,4S78,56.8,76.7,62.39C76.7,62.39,80.88,67.56,76.7,69.52Z" style="fill:#f98705"/><path d="M70.8,63.56s-4.93-.37-6.24,3.32S62.51,71,62.51,71s-6.64,3.28-5.35,7.52-3.87,5-3.87,5a8.35,8.35,0,0,0-9.22,3.87s-3.68.92-4.79,3.14-2.4-5.9-7.84-4.8c-.28-4.79-3.78-3.5-3.78-3.5s-.74-2.58-5.16-3.64S17,80.34,17,80.34c-1.85-5.17-8-3.23-8-3.23a1.83,1.83,0,0,0-2.18-1,5.87,5.87,0,0,0-4.32-1,6.16,6.16,0,0,1,1.61-3.65c2.4-2,2.77-3.14,2.77-3.14A7.87,7.87,0,0,1,14.94,66c5,1.47,5.16,2.39,5.16,2.39s2.77-2,7.38,0c4.21,1.85,2.88,4.17,2.62,4.56.39-.43,3.18-3.43,6.78-3.62C40.75,69.09,42.5,71,42.5,71s-1.93-6.86,2.31-8.89,5.71-1.66,5.71-1.66.37-3,2.21-4.05,3.32-2.21,3.32-2.21c.74-3.69,6.46-5.35,6.46-5.35s.86.06,2.05.22c0,0,.71,8.44,3.84,10.66S70.8,63.56,70.8,63.56Z" style="fill:#f27e0a"/><path d="M62.51,48.81s-5.72,1.66-6.46,5.35c0,0-4.42-4.06-6.08-2.67,0,0-2.77-5.26-9.77-2.68,0,0-7.56,0-6.27,5.35,0,0-1.84-3.88-5-2,0,0-3.5-2.21-6.45.18,0,0,2.76-5.71,5.71-6.45s4.06,0,4.06,0a11,11,0,0,1,8.66-2.4c5.35.74,5.72,2,5.72,2s6.27-1.47,10.69-.18S62.51,48.81,62.51,48.81Z" style="fill:#ea700c"/><path d="M56.05,54.16s-1.47,1.1-3.32,2.21-2.21,4.05-2.21,4.05-1.47-.36-5.71,1.66S42.5,71,42.5,71s-1.75-1.88-5.62-1.68c-3.6.19-6.39,3.19-6.78,3.62.26-.39,1.59-2.71-2.62-4.56-4.61-2-7.38,0-7.38,0s-.18-.92-5.16-2.39a7.87,7.87,0,0,0-8.11,2.39,13.16,13.16,0,0,1,4.79-11.24c5.72-4.8,10.88-4.8,10.88-4.8,2.95-2.39,6.45-.18,6.45-.18,3.14-1.85,5,2,5,2-1.29-5.35,6.27-5.35,6.27-5.35,7-2.58,9.77,2.68,9.77,2.68C51.63,50.1,56.05,54.16,56.05,54.16Z" style="fill:#f98705"/><path d="M31.44,85.68c-5.44,1.11-6.91,7.38-6.91,7.38s-4.24-.56-5.35.92-2.4-3-5-2.21-6.82-1.11-7.37-4.61S9.78,84.76,9.59,80A6.2,6.2,0,0,0,9,77.11s6.17-1.94,8,3.23c0,0,1.1-2.85,5.53-1.8s5.16,3.64,5.16,3.64S31.16,80.89,31.44,85.68Z" style="fill:#ea700c"/><path d="M30.65,111.15c-10.55,2.92-9.26,6.86-2.9,12.45-13.79-1.23-14-7.87-18.8-11.55s-4.9,2.19-4.9,2.19a15.7,15.7,0,0,1-2.57-7.19C1,97.3,3.88,94.16,3.88,94.16c2.58.93,6.08-.73,6.08-.73.19,1.47,4.8,2.21,4.8,2.21a4.18,4.18,0,0,0,4.24,3,8,8,0,0,0,3.93-1.43,5.75,5.75,0,0,0-.25,1.66c0,3.69,3.57,6.68,8,6.68s8-3,8-6.68a5.19,5.19,0,0,0-.2-1.48,9.24,9.24,0,0,0,1.4,0S41.21,108.23,30.65,111.15Z" style="fill:#f2f3f9"/><path d="M106.61,153.81a56,56,0,0,1-6.86,1.54,75,75,0,0,1-12.23.94s-29-1-36.39-8.6-13-8.11-23.34-13.28C19.89,130.46,9,122.25,4.05,114.24c0,0,.09-5.88,4.9-2.19s5,10.32,18.8,11.55c0,0,1.34-.53,3.69.73h0a13.78,13.78,0,0,1,3,2.22c4.17,3.93,6.87,4.91,12.28,4.43s15.85-6.4,15.8-11.8,9.27-9.71.18-28c2-.84,3.23-3.08,4-5.06,0,0,17,18,.39,42.9a18.53,18.53,0,0,0-2.16-1s-5.9.48-6.14,4.17c-.07,1.09,1.13,3.15,3.14,5.58C55,157,93.18,156.9,106.61,153.81Z" style="fill:#cacddd"/><path d="M164.46,89.43s-.65-.5-2.46-1.79l-1.83-1.29h0c-1.4-1-3.22-2.24-5.53-3.8-7.63-5.16-14.51-18.93-39.34-23.36-14.36-2.56-25-1.08-31.45.62a34.08,34.08,0,0,0-7.14,2.58s4.18,5.17,0,7.13c0,0,.74,4.55-2,7.13s-7,5.9-7,5.9a20.22,20.22,0,0,1-1,3.6s17,18,.39,42.9c5.25,2.86,9.21,7.66,11.5,8.31,2.6.72,2.32,2.22,4.38,2.22s2.61,4.18,3.69,7.13,8,8.54-2.79,6.39c-5-1-10.72-4.71-15.46-8.8a55.78,55.78,0,0,1-6.48-6.52C55,157,93.18,156.9,106.61,153.81l.92-.27c26.47-8.2,28.66-31.91,28.66-31.91h0c.08-.33,2.4-9.28,0-16.13s.25-12.38,25.81-5.75C160.28,95.58,164.46,89.43,164.46,89.43Zm-19.18,2.71c-8.35,1.23-17,1.9-14.5,13.36s1.32,33.83-24.17,35.06-28.68-12.11-25.24-29.41-10.79-26.43,2.47-34.4c0,0,24.6-12.64,47.19-3.79S153.64,90.9,145.28,92.14Z" style="fill:#eaebf4"/><path d="M157.84,107.05c-1,.7-2.08,1.44-3.21,2.29-1.68,1.25-4.35,3.07-7.13,4.94l-4.64,3-1.76,1.14-1.16.76-3.74,2.4c.08-.33,2.4-9.28,0-16.13s.24-12.38,25.81-5.75C163.32,103,161.15,104.73,157.84,107.05Z" style="fill:#ea700c"/><path d="M33.28,100.76a3,3,0,0,1-2.76,3.17,3.2,3.2,0,0,1,0-6.35A3,3,0,0,1,33.28,100.76Z" style="fill:#2b2b2b"/><path d="M38.43,97.34c-5-.19-11.14-3.73-11.14-3.73a26.1,26.1,0,0,1-4.36,3.55,5.75,5.75,0,0,0-.25,1.66c0,3.69,3.57,6.68,8,6.68s8-3,8-6.68A5.19,5.19,0,0,0,38.43,97.34Zm-7.91,6.59a3.2,3.2,0,0,1,0-6.35,3.21,3.21,0,0,1,0,6.35Z" style="fill:#938c7c"/><path d="M62.51,119.18c.05,5.4-10.39,11.3-15.8,11.8s-8.11-.5-12.28-4.43a13.78,13.78,0,0,0-3-2.22c25-6.9,13.09-29.22,13.09-29.22a17.29,17.29,0,0,0,3.78-4.63c2.4,3.31,7.56,2.21,7.56,2.21a16.48,16.48,0,0,0,6.82-1.48C71.78,109.47,62.45,113.76,62.51,119.18Z" style="fill:#f2f3f9"/><path d="M31.44,124.33h0c-2.35-1.26-3.69-.73-3.69-.73-6.36-5.59-7.65-9.53,2.9-12.45S39.83,97.3,39.83,97.3a9,9,0,0,0,4.7-2.19S56.48,117.43,31.44,124.33Z" style="fill:#f7f8fb"/><path d="M131,73c-22.59-8.85-47.19,3.79-47.19,3.79-13.26,8,1,17.1-2.47,34.4s-.24,30.64,25.24,29.41S133.24,117,130.78,105.5s6.15-12.13,14.5-13.36S153.61,81.81,131,73ZM126.46,121c-1,7.55-6.17,12.58-13.16,14.87-5.49,1.8-13.93,3-17.67-2.69-4.89-7.38,3.69-19.67,15.73-26.14,3-1.6,14.94-5,16,1.07C128.07,112,127,117.13,126.46,121ZM112.34,96.74c-18.43.56-24.58-5-25.56-10.59C85.14,76.86,97,74.92,103.71,74.44c1-.06,1.93-.12,2.9-.15,10-.36,20.69,1.12,28.86,6.93S130.78,96.18,112.34,96.74Z" style="fill:#f2f3f9"/><path d="M112.34,96.74c-18.43.56-24.58-5-25.56-10.59C85.14,76.86,97,74.92,103.71,74.44c1-.06,1.93-.12,2.9-.15,10-.36,20.69,1.12,28.86,6.93S130.78,96.18,112.34,96.74Z" style="fill:#f7f8fb"/><path d="M127.38,108.12c-1.08-6.07-13-2.67-16-1.07-12,6.47-20.62,18.76-15.73,26.14,3.74,5.64,12.18,4.49,17.67,2.69,7-2.29,12.16-7.32,13.16-14.87C127,117.13,128.07,112,127.38,108.12Zm-9.9,19.94c-3.18,3.23-7.45,5.24-11.51,4.38-5.5-1.17-4.39-6.71-2.17-10.46,7.31-12.3,18.07-10.67,18.62-6C122.92,120,120.79,124.71,117.48,128.06Z" style="fill:#f7f8fb"/><path d="M68.38,144.3a55.78,55.78,0,0,1-6.48-6.52c-2-2.43-3.21-4.49-3.14-5.58C59,128.51,64.9,128,64.9,128a18.53,18.53,0,0,1,2.16,1c5.25,2.86,9.21,7.66,11.5,8.31,2.6.72,2.32,2.22,4.38,2.22s2.61,4.18,3.69,7.13c0,0-10.72-2.7-16.57-8.12S61.85,134.8,68.38,144.3Z" style="fill:#f98705"/><path d="M83.84,153.1c-5-1-10.72-4.71-15.46-8.8-6.53-9.5-4.16-11.12,1.68-5.71s16.57,8.12,16.57,8.12C87.7,149.66,94.64,155.25,83.84,153.1Z" style="fill:#f7a107"/><path d="M117.48,128.06c-3.18,3.23-7.45,5.24-11.51,4.38-5.5-1.17-4.39-6.71-2.17-10.46,7.31-12.3,18.07-10.67,18.62-6C122.92,120,120.79,124.71,117.48,128.06Z" style="fill:#fff"/><path d="M160.17,86.35h0c-1.4-1-3.22-2.24-5.53-3.8-7.63-5.16-14.51-18.93-39.34-23.36-14.36-2.56-25-1.08-31.45.62,0,0-14.2-19.3,2.79-43.26A84.28,84.28,0,0,1,96.13,5a42,42,0,0,1,6,1.8c-9.16,8.55-21.43,25-15.53,48.73,0,0-.95-31.76,18.62-46-.41,2.33-.92,5.12,1.22,7-6.52,6.64-14.55,18.81-13,37.59,0,0,2.71-21.34,17.84-35.4a12.6,12.6,0,0,1,5,2.65c-6.63,6.29-14.22,16.72-16.6,32.72.28-.65,7.14-16.4,18.46-27.44a10.87,10.87,0,0,0,3.18,5.23c-4.79,4.41-9.86,11.42-13,22.47.3-.54,7.76-13.38,17.33-20.57h0a10.31,10.31,0,0,1,5.4,2.17A36.3,36.3,0,0,0,116.77,57.8c.31-.45,7.71-11.42,17.5-17a3.77,3.77,0,0,0,2.62,3.46,31.41,31.41,0,0,0-11,15.19s8.38-9.31,18.78-14.34c1.08.3,1.41,1.2,1.13,3.77a6.24,6.24,0,0,0-.05.83,23.12,23.12,0,0,0-10.26,13.86,47.3,47.3,0,0,1,14.91-10.07,29.62,29.62,0,0,1,3,.91,21.53,21.53,0,0,1,3.83,1.72c-5.57,1.89-13.39,5.39-16.13,10.7a38.82,38.82,0,0,1,16-3.76c-.57,1.48-.85,2.76-.4,3.82-3.81.44-7.69,1.54-9.24,4.09a53.52,53.52,0,0,1,14.51.81,3.58,3.58,0,0,1,0,3.93l-.49.58c-3.31-.73-7-1-9.83.46A71.9,71.9,0,0,1,161.6,80l.4.57C164.09,83.47,165.44,83,160.17,86.35Z" style="fill:#f98705"/><path d="M108.76,1.41a60.35,60.35,0,0,0-6.59,5.37h0a42,42,0,0,0-6-1.8C102.45-1.15,106.07-.68,108.76,1.41Z" style="fill:#eaebf4"/><path d="M112.59,5.48a33.21,33.21,0,0,0-7.34,4c.17-1-1.2-2-3.08-2.74a60.35,60.35,0,0,1,6.59-5.37,28,28,0,0,1,3.52,3.71Z" style="fill:#cacddd"/><path d="M114.24,10.29a38.4,38.4,0,0,0-7.77,6.28c-2.14-1.92-1.63-4.71-1.22-7h0a33.21,33.21,0,0,1,7.34-4C115.28,8.77,113.45,10.19,114.24,10.29Z" style="fill:#eaebf4"/><path d="M111.26,18.76c-15.13,14.06-17.84,35.4-17.84,35.4-1.5-18.78,6.53-30.95,13-37.59a7.24,7.24,0,0,0,2.34,1.33Z" style="fill:#ea700c"/><path d="M121.78,11.47a43.5,43.5,0,0,0-10.52,7.29l-2.45-.86a7.24,7.24,0,0,1-2.34-1.33,38.4,38.4,0,0,1,7.77-6.28,9.68,9.68,0,0,0,2.28-.38C119.92,9.18,121.15,10.05,121.78,11.47Z" style="fill:#cacddd"/><path d="M123,16.06a50.59,50.59,0,0,0-6.68,5.35,12.6,12.6,0,0,0-5-2.65,43.5,43.5,0,0,1,10.52-7.29,17.63,17.63,0,0,1,.72,2.5C122.66,14.6,122.78,15.33,123,16.06Z" style="fill:#eaebf4"/><path d="M118.13,26.69c-11.32,11-18.18,26.79-18.46,27.44,2.38-16,10-26.43,16.6-32.72a5.55,5.55,0,0,1,1.49,3.37A11.12,11.12,0,0,0,118.13,26.69Z" style="fill:#ea700c"/><path d="M126,20.39a45.91,45.91,0,0,0-7.9,6.3,11.12,11.12,0,0,1-.37-1.91,5.55,5.55,0,0,0-1.49-3.37A50.59,50.59,0,0,1,123,16.06C123.35,17.9,124,19.77,126,20.39Z" style="fill:#cacddd"/><path d="M131.35,25.54a32.29,32.29,0,0,0-10,6.38,10.87,10.87,0,0,1-3.18-5.23,45.91,45.91,0,0,1,7.9-6.3,5.28,5.28,0,0,0,1.57.21C131.44,20.6,130.26,21.44,131.35,25.54Z" style="fill:#eaebf4"/><path d="M125.67,33.82c-9.57,7.19-17,20-17.33,20.57,3.11-11,8.18-18.06,13-22.47A7.29,7.29,0,0,0,125.67,33.82Z" style="fill:#ea700c"/><path d="M133,29.81a25.14,25.14,0,0,0-7.34,4h0a7.29,7.29,0,0,1-4.36-1.9,32.29,32.29,0,0,1,10-6.38,20,20,0,0,0,.66,2.07A16.55,16.55,0,0,0,133,29.81Z" style="fill:#cacddd"/><path d="M135.43,33.34A31.57,31.57,0,0,0,131.08,36a10.31,10.31,0,0,0-5.4-2.17,25.14,25.14,0,0,1,7.34-4A21.69,21.69,0,0,0,135.43,33.34Z" style="fill:#eaebf4"/><path d="M134.27,40.79c-9.79,5.59-17.19,16.56-17.5,17A36.3,36.3,0,0,1,131.08,36C133,37.42,134.29,39.3,134.27,40.79Z" style="fill:#ea700c"/><path d="M140.61,38.14a25.54,25.54,0,0,0-6.34,2.65c0-1.49-1.28-3.37-3.19-4.8a31.57,31.57,0,0,1,4.35-2.65A29.43,29.43,0,0,0,140.61,38.14Z" style="fill:#cacddd"/><path d="M143.56,40.09a41,41,0,0,0-6.66,4.16h0a3.77,3.77,0,0,1-2.62-3.46,25.54,25.54,0,0,1,6.34-2.65C141.52,38.81,142.51,39.46,143.56,40.09Z" style="fill:#eaebf4"/><path d="M144.65,45.1c-10.4,5-18.78,14.34-18.78,14.34a31.41,31.41,0,0,1,11-15.19h0a10.07,10.07,0,0,0,4.2.77A16.47,16.47,0,0,1,144.65,45.1Z" style="fill:#ea700c"/><path d="M149.73,43.09a36,36,0,0,0-5.08,2A16.47,16.47,0,0,0,141.1,45a10.07,10.07,0,0,1-4.2-.77,41,41,0,0,1,6.66-4.16A44.83,44.83,0,0,0,149.73,43.09Z" style="fill:#cacddd"/><path d="M145.78,48.87c.28-2.57-.05-3.47-1.13-3.77a36,36,0,0,1,5.08-2l.67.26c2.62,1,4.42,1.64,5.67,2.15a32.6,32.6,0,0,0-10.34,4.2A6.24,6.24,0,0,1,145.78,48.87Z" style="fill:#eaebf4"/><path d="M150.38,53.49a47.3,47.3,0,0,0-14.91,10.07A23.12,23.12,0,0,1,145.73,49.7C145.79,52.29,147.78,52.81,150.38,53.49Z" style="fill:#ea700c"/><path d="M158.93,51.21a32.61,32.61,0,0,0-8.55,2.28c-2.6-.68-4.59-1.2-4.65-3.79a32.6,32.6,0,0,1,10.34-4.2c3.52,1.43,2.58,1.75,2.86,5.63Z" style="fill:#cacddd"/><path d="M159.28,55.46c-.63.19-1.32.41-2.05.66a21.53,21.53,0,0,0-3.83-1.72,29.62,29.62,0,0,0-3-.91,32.61,32.61,0,0,1,8.55-2.28A38.26,38.26,0,0,0,159.28,55.46Z" style="fill:#eaebf4"/><path d="M158.19,60.61c-.39.87-.76,1.69-1.05,2.45a38.82,38.82,0,0,0-16,3.76c2.74-5.31,10.56-8.81,16.13-10.7C158.74,57.1,159.21,58.32,158.19,60.61Z" style="fill:#ea700c"/><path d="M164.46,63.56a2.5,2.5,0,0,0-.41.38,27,27,0,0,0-6.91-.88c.29-.76.66-1.58,1.05-2.45,1-2.29.55-3.51-1-4.49.73-.25,1.42-.47,2.05-.66.26,1.14.88,1.49,2.72,2.35C165.2,59.32,166.67,61.9,164.46,63.56Z" style="fill:#cacddd"/><path d="M164.05,63.94a3.59,3.59,0,0,0-.87,2.72,46.29,46.29,0,0,0-6.44.22c-.45-1.06-.17-2.34.4-3.82A27,27,0,0,1,164.05,63.94Z" style="fill:#eaebf4"/><path d="M162,71.78A53.52,53.52,0,0,0,147.5,71c1.55-2.55,5.43-3.65,9.24-4.09a3.69,3.69,0,0,0,2,1.84A7.09,7.09,0,0,1,162,71.78Z" style="fill:#ea700c"/><path d="M168.34,73.82a29.06,29.06,0,0,0-6.33-2,7.09,7.09,0,0,0-3.27-3.06,3.69,3.69,0,0,1-2-1.84,46.29,46.29,0,0,1,6.44-.22,3.38,3.38,0,0,0,2.33,3.16A3.56,3.56,0,0,1,168.34,73.82Z" style="fill:#cacddd"/><path d="M168.34,73.82a2.94,2.94,0,0,1-.56,1.17c-.84,1-1.79,1.67-2,2.55a34.72,34.72,0,0,0-4.31-1.25l.49-.58a3.58,3.58,0,0,0,0-3.93A29.06,29.06,0,0,1,168.34,73.82Z" style="fill:#eaebf4"/><path d="M161.6,80a71.9,71.9,0,0,0-9.92-3.29c2.84-1.41,6.52-1.19,9.83-.46C160.54,77.42,160.23,78,161.6,80Z" style="fill:#ea700c"/><path d="M168.26,83.75A30.11,30.11,0,0,0,161.6,80c-1.37-2-1.06-2.62-.09-3.75a34.72,34.72,0,0,1,4.31,1.25c-.13.68.2,1.51,1.4,2.8S168.71,82.7,168.26,83.75Z" style="fill:#cacddd"/><path d="M168.26,83.75c-.6,1.48-2.74,2.77-6.26,3.89l-1.83-1.29c5.27-3.4,3.92-2.88,1.83-5.74l-.4-.57A30.11,30.11,0,0,1,168.26,83.75Z" style="fill:#eaebf4"/><path d="M105.25,9.52h0c-19.57,14.22-18.62,46-18.62,46C80.73,31.82,93,15.33,102.16,6.78h0C104.05,7.56,105.42,8.49,105.25,9.52Z" style="fill:#ea700c"/><path d="M159.52,159.09c-12.19-16.94-12-44.24-12-44.81,2.78-1.87,5.45-3.69,7.13-4.94,1.13-.85,2.22-1.59,3.21-2.29A76.9,76.9,0,0,0,159.52,159.09Z" style="fill:#ea700c"/><path d="M172.81,92.13s65.57-.2,98.08,28.2a18.38,18.38,0,0,1-8.11,5.15c-15.17-11.66-46.33-30.64-86-27.9,0,0,53.15,5.47,82.08,31.62.35,1.91,1.36,4.28,0,6.31a9.07,9.07,0,0,1-3.49,3.51c-12.92-10.93-43.48-33.65-75.17-34.38,0,0,39.94,12.34,62.73,32.59-1.8.57-3.13,2.2-6.19,3.41a10.9,10.9,0,0,1-2.21.62c-11-9.83-33.26-27.55-51.13-28.76,0,0,20.17,11.52,34,25.59-3.4-.14-5.2,1.15-7.9,4.63-7.74-5.65-18.62-14.3-24.89-22,.1.38,2.9,10.67,20.95,27.61-2.51,4.49.52,4.35,2.62,9.72-11-9.93-26.65-26.27-31.44-42.16,0,0-1.06,24.28,33.39,53.17a12.75,12.75,0,0,1-1.68,3.17,7.61,7.61,0,0,0-1.4,3.21c-13.21-10.93-32-31.13-38.61-61.46,0,0,1.23,45.24,42.76,72.49-.59,2-2.73,3.86-4.21,5.68-14.73-10.6-40.29-35-42.54-78.17,0,0-8.57,56.14,40.79,85.37a8.28,8.28,0,0,1-3,3.5A72.69,72.69,0,0,1,185.78,195c-6.37-4.08-12.3-9.22-15.67-14.83a134.54,134.54,0,0,1-10.59-21,76.9,76.9,0,0,1-1.68-52c3.31-2.32,5.48-4.08,4.16-7.3-1.72-4.17,2.46-10.32,2.46-10.32s46-10.57,84.31,2.7c15,5.2,23.7,9.64,28.08,14a18.28,18.28,0,0,1-1.73,8.08C259.74,103.23,223.46,83.21,172.81,92.13Z" style="fill:#f98705"/><path d="M279.85,117.77a32.07,32.07,0,0,1-4,7.41,55.43,55.43,0,0,0-5-4.85,21.92,21.92,0,0,0,4.23-6.14C277,115.55,278.61,116.77,279.85,117.77Z" style="fill:#cacddd"/><path d="M279.85,117.77c-1.24-1-2.83-2.22-4.73-3.58a18.28,18.28,0,0,0,1.73-8.08C280.72,109.93,281.26,113.67,279.85,117.77Z" style="fill:#eaebf4"/><path d="M275.85,125.18q-.94,1.38-2,2.85a12.17,12.17,0,0,1-3.45,3.79c-1.71-1.55-4.27-3.77-7.61-6.34a18.38,18.38,0,0,0,8.11-5.15A55.43,55.43,0,0,1,275.85,125.18Z" style="fill:#eaebf4"/><path d="M262.78,125.48a7.66,7.66,0,0,1-1,.19c-3,.41-3.28,1.78-3,3.53-28.93-26.15-82.08-31.62-82.08-31.62C216.45,94.84,247.61,113.82,262.78,125.48Z" style="fill:#ea700c"/><path d="M270.39,131.82a4.78,4.78,0,0,1-3.43.82c-1.6-.28-2,.89-2.36,2.44a62.72,62.72,0,0,0-5.77-5.88c-.31-1.75-.07-3.12,3-3.53a7.66,7.66,0,0,0,1-.19C266.12,128.05,268.68,130.27,270.39,131.82Z" style="fill:#cacddd"/><path d="M264.6,135.08c-.56,2.26-1.15,5.34-5.5,6-.39.06-.74.12-1.1.21h0c-.78-.7-1.65-1.46-2.64-2.3a9.07,9.07,0,0,0,3.49-3.51c1.34-2,.33-4.4,0-6.31A62.72,62.72,0,0,1,264.6,135.08Z" style="fill:#eaebf4"/><path d="M255.36,139c-1.76.83-4,.61-7.33-.94-2.4-1.11-3.87-1.23-5.11-.85-22.79-20.25-62.73-32.59-62.73-32.59C211.88,105.37,242.44,128.09,255.36,139Z" style="fill:#ea700c"/><path d="M258,141.32c-3.72.78-5.83,2.26-8,3.15a63.88,63.88,0,0,0-7.05-7.24c1.24-.38,2.71-.26,5.11.85,3.36,1.55,5.57,1.77,7.33.94C256.35,139.86,257.22,140.62,258,141.32Z" style="fill:#cacddd"/><path d="M250,144.47a9,9,0,0,1-5.62.5,6.63,6.63,0,0,0-4.94.79c-1.17-1.13-2.84-2.68-4.89-4.5a10.9,10.9,0,0,0,2.21-.62c3.06-1.21,4.39-2.84,6.19-3.41A63.88,63.88,0,0,1,250,144.47Z" style="fill:#eaebf4"/><path d="M239.41,145.76c-2.15,1.17-3.84,2.8-7.84,1-3.8-1.76-6-2.31-8.57-2.31a75.44,75.44,0,0,0-5.59-6.31,23.34,23.34,0,0,1,3.59.5c6.06,1.26,9.46,3.35,13.52,2.67C236.57,143.08,238.24,144.63,239.41,145.76Z" style="fill:#cacddd"/><path d="M223,144.4a54.94,54.94,0,0,0-6.18.56,10.43,10.43,0,0,0-3.1.78h0c-1.23-.87-2.65-1.88-4.2-3,2.7-3.48,4.51-4.77,7.9-4.63A75.44,75.44,0,0,1,223,144.4Z" style="fill:#eaebf4"/><path d="M209.51,142.72c-.69.89-1.44,1.92-2.28,3.1-.71,1-1.25,1.84-1.66,2.55-18-16.94-20.85-27.23-20.95-27.61C190.89,128.43,201.77,137.07,209.51,142.72Z" style="fill:#ea700c"/><path d="M215.19,156.79c-3.62-2.95-6.8-5.76-9.62-8.42.41-.71,1-1.55,1.66-2.55.84-1.18,1.59-2.21,2.28-3.1,1.55,1.14,3,2.15,4.2,3-3.26,1.49-2.8,4.83,1.14,10.55Z" style="fill:#cacddd"/><path d="M217.22,165.8c-2-1.62-5.25-4.29-9-7.71h0c-2.1-5.37-5.13-5.23-2.62-9.72,2.82,2.66,6,5.47,9.62,8.42h0C218.87,162.19,218.9,163.26,217.22,165.8Z" style="fill:#eaebf4"/><path d="M210.14,169.1c-34.45-28.89-33.39-53.17-33.39-53.17,4.79,15.9,20.47,32.23,31.44,42.16h0C210.06,162.88,211.25,165.78,210.14,169.1Z" style="fill:#ea700c"/><path d="M217.22,165.8c-.37.58-.85,1.25-1.38,2a12,12,0,0,0-1.93,4.33c-1.3-1-2.56-2.05-3.77-3.08,1.11-3.32-.08-6.22-1.95-11C212,161.51,215.2,164.18,217.22,165.8Z" style="fill:#cacddd"/><path d="M219.57,184.46a104.27,104.27,0,0,1-12.51-9,7.61,7.61,0,0,1,1.4-3.21,12.75,12.75,0,0,0,1.68-3.17c1.21,1,2.47,2.05,3.77,3.08-.52,2.74.47,5.35,3.4,8C219.65,182.22,220.06,183.2,219.57,184.46Z" style="fill:#eaebf4"/><path d="M211.21,186.51C169.68,159.26,168.46,114,168.46,114c6.62,30.33,25.39,50.53,38.6,61.46-.46,3.06,1.93,5.24,3.61,7.86A3.71,3.71,0,0,1,211.21,186.51Z" style="fill:#ea700c"/><path d="M219.57,184.46c-.44,1.13-1.59,2.47-2.75,5l-.18.36q-2.82-1.62-5.43-3.33a3.71,3.71,0,0,0-.54-3.17c-1.68-2.62-4.07-4.8-3.61-7.86A104.27,104.27,0,0,0,219.57,184.46Z" style="fill:#cacddd"/><path d="M216.64,189.84c-1.59,3.11-4.19,3.41-5.18,5.35-1.32-.83-2.82-1.83-4.46-3,1.48-1.82,3.62-3.64,4.21-5.68Q213.82,188.22,216.64,189.84Z" style="fill:#eaebf4"/><path d="M205.26,197.59a2.54,2.54,0,0,1,0,1.8C155.89,170.16,164.46,114,164.46,114c2.25,43.14,27.81,67.57,42.54,78.17C204.81,194.88,204,194.4,205.26,197.59Z" style="fill:#ea700c"/><path d="M211.92,203q-3.49-1.73-6.67-3.61a2.54,2.54,0,0,0,0-1.8c-1.22-3.19-.45-2.71,1.74-5.4,1.64,1.17,3.14,2.17,4.46,3-.6,1.15-.63,2.87.44,6.09A2.31,2.31,0,0,1,211.92,203Z" style="fill:#cacddd"/><path d="M211.92,203c-.8,1.66-4.59,1.47-9.65-.11a8.28,8.28,0,0,0,3-3.5Q208.43,201.28,211.92,203Z" style="fill:#eaebf4"/><path d="M184.21,201.23c-1.15.36-2.72-.86-3.9-1.06-2.21-.37-5.53-1.47-3.32,7a8.38,8.38,0,0,1,.34,2.63,83.8,83.8,0,0,1-6.77-6.9c-11.57-13.12-29.44-40.5-29.46-84.44l1.76-1.14c1.35,41.09,20.45,65.42,32.72,76.88A75.45,75.45,0,0,0,184.21,201.23Z" style="fill:#ea700c"/><path d="M184.21,201.23a75.45,75.45,0,0,1-8.63-7c-12.27-11.46-31.37-35.79-32.72-76.88l4.64-3c0,.57-.17,27.87,12,44.81a134.54,134.54,0,0,0,10.59,21c3.37,5.61,9.3,10.75,15.67,14.83C185.92,199.4,185.22,200.92,184.21,201.23Z" style="fill:#f27e0a"/><path d="M275.12,114.19a21.92,21.92,0,0,1-4.23,6.14c-32.51-28.4-98.08-28.19-98.08-28.19C223.46,83.21,259.74,103.23,275.12,114.19Z" style="fill:#ea700c"/><path d="M234.52,141.26c-4.06.68-7.46-1.41-13.52-2.67a23.34,23.34,0,0,0-3.59-.5c-13.85-14.07-34-25.59-34-25.59C201.26,113.71,223.48,131.43,234.52,141.26Z" style="fill:#ea700c"/><path d="M177.33,209.81c-.29,4.71-7.22,1.05-7.22,1.05-1.74-1.61-3.4-3.23-5-4.85-36.64-37.72-28.7-75.6-25.21-86.78l1.16-.76c0,43.94,17.89,71.32,29.46,84.44A83.8,83.8,0,0,0,177.33,209.81Z" style="fill:#f27e0a"/><path d="M135.07,226.76c-3,6.78-14.62-2.13-14.62-2.13C91.94,204,87.52,156.29,87.52,156.29a75,75,0,0,0,12.23-.94c4.08,15.34-4.24,18.27-2.22,26.94s12,21.87,12,21.87A56.25,56.25,0,0,0,135.07,226.76Z" style="fill:#eaebf4"/><path d="M137,219.07c-.4,2-.92,4.21-1.5,6.54a5.53,5.53,0,0,1-.4,1.15,56.25,56.25,0,0,1-25.55-22.6s-10-13.21-12-21.87,6.3-11.6,2.22-26.94a56,56,0,0,0,6.86-1.54l.92-.27c6.07,2.8,16.55,1.18,18.34,1.81,2.21.78-.74,2.18,1.54,2.18,1,0,1,1,.78,2.28a52.27,52.27,0,0,1-19.41-3.52c-9.81-3.85,6,5.3,20.41,8.58a8.47,8.47,0,0,1,0,2.3c-5.72-.47-13.74-2-19.1-5-11.19-6.29,8.28,10.7,21.12,14.3h0a2.6,2.6,0,0,0,.33,1.67,3.06,3.06,0,0,1,.39,1.71c-5.14-.75-13.23-3.74-22.21-11.42-19-16.23,3,9.85,21.76,19.71.14,1.17.2,2.6.28,4-7.75-2.7-18.44-8.51-25.13-18.22,0,0-2.1-3.32-4.2-2.58-1.84.64,11.65,20.9,34.44,33.05-.49,1.25-1.28,2.45-.13,3.46a4.21,4.21,0,0,1,1.13,2.94c-11.36-4.63-25.26-13.62-32.94-28.58,0,0-1.84-2.57-3.69-1.65S110.58,207.24,137,219.07Z" style="fill:#f98705"/><path d="M129.19,164.87c-14.41-3.28-30.22-12.43-20.41-8.58a52.27,52.27,0,0,0,19.41,3.52c-.24,1.62-.74,3.62.35,4.26A1.38,1.38,0,0,1,129.19,164.87Z" style="fill:#ea700c"/><path d="M131.19,176.49c-12.84-3.6-32.31-20.59-21.12-14.3,5.36,3,13.38,4.51,19.1,5a3.36,3.36,0,0,0,1.61,3.14C133.29,172,131.41,174.38,131.19,176.49Z" style="fill:#ea700c"/><path d="M130.78,185.79a5.2,5.2,0,0,1,.68,2.38c-18.79-9.86-40.75-35.94-21.76-19.71,9,7.68,17.07,10.67,22.21,11.42C131.83,182.16,130,184.82,130.78,185.79Z" style="fill:#ea700c"/><path d="M136.85,204.46c-22.79-12.15-36.28-32.41-34.44-33.05,2.1-.74,4.2,2.58,4.2,2.58,6.69,9.71,17.38,15.52,25.13,18.22.07.91.14,1.82.27,2.67.49,3.45-.74,3.45,3.46,5.9C137.52,202,137.32,203.25,136.85,204.46Z" style="fill:#ea700c"/><path d="M137,219.07c-26.39-11.83-37.47-37.58-35.75-38.44s3.69,1.65,3.69,1.65c7.68,15,21.58,23.95,32.94,28.58A31,31,0,0,1,137,219.07Z" style="fill:#ea700c"/><circle cx="33.72" cy="99.55" r="1.98" style="fill:#f7f8fb"/></g></g></svg>