<svg xmlns="http://www.w3.org/2000/svg" viewBox="0 0 306.94 138.34"><title>Asset 13</title><g id="Layer_2" data-name="Layer 2"><g id="Ñëîé_2" data-name="Ñëîé 2"><path d="M68,106.82c-1.78-.27-3.58-.59-5.4-.93-1.54-4.52-2-7.14.31-4.49A64.09,64.09,0,0,0,68,106.82Z" style="fill:#72f4f7"/><path d="M39.84,75.68c-3,.5-2.21,1-3.71,1.24s-2.36.35-3.24-.56a14.86,14.86,0,0,0-3.5-2,5.88,5.88,0,0,0,1-1.82,19.89,19.89,0,0,0,5.93,1.19c2.63,0,4-.45,4.7-.08S42.79,75.19,39.84,75.68Z" style="fill:#67d9e8"/><path d="M57.94,75.8h0c-2.08-10-11.73-13.55-16.85-13.74,0,0-2.52,4.11-3.72,4.9s-2.51,1-2.6,2.37c-.09,1.09-2.95,1-4.16.9a3.91,3.91,0,0,1,0,.49,5.68,5.68,0,0,1-.28,1.85,19.89,19.89,0,0,0,5.93,1.19c2.63,0,4-.45,4.7-.08s1.81,1.52-1.14,2-2.21,1-3.71,1.24-2.36.35-3.24-.56a14.86,14.86,0,0,0-3.5-2,6,6,0,0,1-1.65,1.43c.9.89,4.19,4.08,5.76,4.64,1.81.65,2.1,1.87,2.61,2.94s3.88,3.09,5.12,2.9,5.17.73,4.88-.72,2.84-2,4.33-2,1.28,3.24,2.63,3.85a32.52,32.52,0,0,1,3.37,1.92,21.38,21.38,0,0,0,1.05-3.08,25.29,25.29,0,0,0,.62-3.14A22,22,0,0,0,57.94,75.8Zm-6.37-1.16c0,.53,0,1.07,0,1.61,0,1.94-.31,4.33-2.55,4.82S43.93,79.82,45,78s.88-2.93.51-4.65.59-4.09,3.66-2.72C51,71.43,51.44,73,51.57,74.64Z" style="fill:#f9761e"/><path d="M102.5,39.62c-2.34-.14-3.07.65-3.52,1.53s-.59,1.57-1.41,2c-1.85.88-7.21.75-10.28.6a11.59,11.59,0,0,0-4.59.75A8.86,8.86,0,0,0,78.15,48c-1.32,2.17-4.8,2.53-7.77,2.61-1.17,0-2.28,0-3.13.07a7.23,7.23,0,0,0-1.92.43,30.15,30.15,0,0,0-7.51,4.47,2.7,2.7,0,0,1-1.71.3,52,52,0,0,1-6.56-1c-1.41-.25-5.29,3.52-5.09,4.87s-3.38,2.4-3.38,2.4-2.52,4.11-3.72,4.9-2.51,1-2.6,2.37c-.09,1.09-2.95,1-4.16.9a1.33,1.33,0,0,0,0-.28,5.8,5.8,0,1,0-2.83,5.87c.9.89,4.19,4.08,5.76,4.64,1.81.65,2.1,1.87,2.61,2.94s3.88,3.09,5.12,2.9,5.17.73,4.88-.72,2.84-2,4.33-2,1.28,3.24,2.63,3.85a32.52,32.52,0,0,1,3.37,1.92A18.6,18.6,0,0,1,48.91,98a18.8,18.8,0,0,1-6.59,2.5c-10-3.3-27.77-9.93-35-17.23-10.23-10.39-8-12.1-4.11-15.42s16.68-9.55,20.38-12.39S35,45.55,62.92,41q5.81-.94,11.42-1.43c1.6-.13,3.18-.25,4.75-.33A158.78,158.78,0,0,1,102.5,39.62Z" style="fill:#04a5b2"/><path d="M48.91,98a43.26,43.26,0,0,0-1.28,4.2c-1.24-.39-3.08-1-5.31-1.7A18.8,18.8,0,0,0,48.91,98Z" style="fill:#72f4f7"/><path d="M171.39,88.79a21.82,21.82,0,0,0-2.2-1.24c-.35-.18-.68-.33-1-.48,2.47-3.5-.11-9.89-.61-14.14s1.7-6.23.15-9-4.7-12.31-4.83-12.68a15.51,15.51,0,0,0,3.61-2S185.23,62.13,171.39,88.79Z" style="fill:#61c7da"/><path d="M168.18,87.07a13.66,13.66,0,0,0-3-.91,8.28,8.28,0,0,0-3.63.14,6.77,6.77,0,0,0-1.42.53,5.58,5.58,0,0,0-.91.57c-1.8-1.73-1.74-7.66-2.62-9.51a2.36,2.36,0,0,1-.12-.28,9.52,9.52,0,0,0,4.49-6.3c.44-2.39-1.2-4.33-3.38-5.83a13.61,13.61,0,0,0-1.89-8.14,5.58,5.58,0,0,1-.32-5.67,13.47,13.47,0,0,0,7.53-.42c.13.37,3.3,10,4.83,12.68s-.66,4.74-.15,9S170.65,83.57,168.18,87.07Z" style="fill:#f9761e"/><path d="M157.57,65.48a35.12,35.12,0,0,0-6.87-3.34,74.08,74.08,0,0,0-7.56-2.46c.45-2.74,1-5.19,2.79-7.38s-.52-3.49-1.23-3.78a91.12,91.12,0,0,0,10.66,3.15,5.58,5.58,0,0,0,.32,5.67A13.61,13.61,0,0,1,157.57,65.48Z" style="fill:#61c7da"/><path d="M159.2,87.4c-.34.26-.71.56-1.1.91-1,.89-2.15,2-3.65,3.35h0c-.74.64-1.56,1.33-2.48,2h0c-.71.53-1.47,1.08-2.29,1.64,0,0,2.6-7.3,1.61-10.93a22.39,22.39,0,0,1-.52-4.34,21.43,21.43,0,0,0,5.69-2.47,2.36,2.36,0,0,0,.12.28C157.46,79.74,157.4,85.67,159.2,87.4Z" style="fill:#61c7da"/><path d="M151.29,84.42c1,3.63-1.61,10.93-1.61,10.93-.41.28-.84.57-1.29.84-1,.65-2.14,1.29-3.36,1.93h0c-1.1.58-2.28,1.15-3.57,1.7l-.66.28a41.34,41.34,0,0,0-4.13-4.16c-1.8-1.55-2.41-8-2.44-12.73,2-.33,4.06-.69,6.09-1L146.83,81a36.31,36.31,0,0,0,3.94-.92A22.39,22.39,0,0,0,151.29,84.42Z" style="fill:#f9761e"/><path d="M145.93,52.3c-1.83,2.19-2.34,4.64-2.79,7.38q-3.88-1.05-7.85-1.78a6.22,6.22,0,0,1,1-2.73c1.54-2,4.11-8,4.11-8,1.48.45,2.85.9,4.14,1.31l.17.07C145.41,48.81,147.85,50,145.93,52.3Z" style="fill:#f9761e"/><path d="M140.39,47.14s-2.57,6-4.11,8a6.22,6.22,0,0,0-1,2.73q-2.67-.49-5.35-.88a25.5,25.5,0,0,0-2.21-6.09c-.94-2.22.1-7.16.1-7.16,2.72.64,5.35,1.31,7.91,2C137.39,46.24,138.94,46.7,140.39,47.14Z" style="fill:#61c7da"/><path d="M140.79,100.1c-.89.38-1.83.75-2.82,1.09s-2.26.79-3.49,1.15-2.39.69-3.68,1q-3,.74-6.43,1.32c5.13-1.47,3.64-4.25,4.87-5.66s.75-2.7-.66-6.09c-.84-2-.87-5.41-.82-8.73,2.16-.29,4.32-.63,6.46-1,0,4.74.64,11.18,2.44,12.73A41.34,41.34,0,0,1,140.79,100.1Z" style="fill:#61c7da"/><path d="M129.24,99c-1.23,1.41.26,4.19-4.87,5.66-.36.07-.74.12-1.12.18l-.29,0c-.23,0-.45.08-.68.11l-1.63.23c-.4.07-.81.12-1.21.18-1.77-1.65-1.84-6.2-.85-9.86.51-1.89-.38-6.1-1.53-10.22,1-.08,2-.16,3.08-.26,2.55-.23,5.09-.53,7.62-.88-.05,3.32,0,6.73.82,8.73C130,96.31,130.47,97.61,129.24,99Z" style="fill:#f9761e"/><path d="M129.94,57c-1.89-.27-3.8-.51-5.7-.73-2.36-.26-4.76-.5-7.17-.71a7,7,0,0,1,.51-2c1.49-3.31,3.13-11.3,3.13-11.3,2.43.47,4.81,1,7.12,1.53,0,0-1,4.94-.1,7.16A25.5,25.5,0,0,1,129.94,57Z" style="fill:#f9761e"/><path d="M120.71,42.24s-1.64,8-3.13,11.3a7,7,0,0,0-.51,2c-3.51-.27-7-.46-10.58-.47-1.21-2.2-2.35-10.87.07-15.08C111.45,40.59,116.18,41.34,120.71,42.24Z" style="fill:#61c7da"/><path d="M118.59,95.55c-1,3.66-.92,8.21.85,9.86l-3.59.51-.48.06c-1.51.21-3,.4-4.45.58l-.69.08-1.23.15c.08-1.05.69-7.32,2.62-9.14s1.17-9.3-.22-12c1.88-.08,3.77-.19,5.66-.33C118.21,89.45,119.1,93.66,118.59,95.55Z" style="fill:#61c7da"/><path d="M106.49,55.11c-2.55,0-5.09.06-7.63.26a9.78,9.78,0,0,1-1.43-1.89C96.54,51.61,99,41.15,99,41.15c.45-.88,1.18-1.67,3.52-1.53.17,0,.37,0,.56.05,1.18.11,2.35.23,3.5.36C104.14,44.24,105.28,52.91,106.49,55.11Z" style="fill:#f9761e"/><path d="M97.43,53.48a9.78,9.78,0,0,0,1.43,1.89q-2.06.15-4.08.42c-1.38.18-2.79.38-4.23.64A10.89,10.89,0,0,0,87.9,52c-2.3-2.1-.61-8.3-.61-8.3,3.07.15,8.43.28,10.28-.6.82-.39,1-1.21,1.41-2C99,41.15,96.54,51.61,97.43,53.48Z" style="fill:#61c7da"/><path d="M104.73,107.25l-2.15.19h0c-1.56.14-3.09.27-4.6.37-2,.14-3.93.24-5.87.31,0,0,2.94-7.76,1.09-11s.24-7.65.59-10.45a3.89,3.89,0,0,0,0-.89c2.06.06,4.12.1,6.17.09a27.62,27.62,0,0,1,.75,5.12c0,3.36-2.35,4.77-.93,8.22A44.12,44.12,0,0,0,104.73,107.25Z" style="fill:#61c7da"/><path d="M93.78,86.7c-.35,2.8-2.44,7.23-.59,10.45s-1.09,11-1.09,11l-2.57.07H89.3c-1.54,0-3.06,0-4.6,0,0,0,.6-4.53-1.06-7.18s-.27-8.36-.2-12a21,21,0,0,0-.38-4,55.32,55.32,0,0,0,8,.78l2.71.08A3.89,3.89,0,0,1,93.78,86.7Z" style="fill:#f9761e"/><path d="M90.55,56.43a47.06,47.06,0,0,0-10.21,2.84A13.59,13.59,0,0,1,82,54.7c1.49-1.65.74-9.4.66-10.24a11.59,11.59,0,0,1,4.59-.75s-1.69,6.2.61,8.3A10.89,10.89,0,0,1,90.55,56.43Z" style="fill:#f9761e"/><path d="M82.7,44.46c.08.84.83,8.59-.66,10.24a13.59,13.59,0,0,0-1.7,4.57,23,23,0,0,0-8.88,6.26c0-.3.08-.57.12-.81.38-1.81,3-6.63,1.22-8.95a20.39,20.39,0,0,1-2.42-5.21c3-.08,6.45-.44,7.77-2.61A8.86,8.86,0,0,1,82.7,44.46Z" style="fill:#61c7da"/><path d="M74.46,82c.16,1.91.19,3.35.19,3.5a41.79,41.79,0,0,0-8.09-.25s-4.51-9.89-3-11.94S64,62.71,64.67,59a51.59,51.59,0,0,0,.66-8,7.23,7.23,0,0,1,1.92-.43c.85,0,2,0,3.13-.07a20.39,20.39,0,0,0,2.42,5.21c1.78,2.32-.84,7.14-1.22,8.95,0,.24-.09.51-.12.81h0a19.12,19.12,0,0,0-1.19,1.61c-2.57,3.93-2.55,8.65.74,12.14A15.64,15.64,0,0,0,74.46,82Z" style="fill:#f9761e"/><path d="M63.57,73.31c-1.52,2,3,11.94,3,11.94a80.07,80.07,0,0,0-9.07,1,25.29,25.29,0,0,0,.62-3.14,22,22,0,0,0-.17-7.31h0a12,12,0,0,0,.29-5.67c-.68-2.5,1.53-6.17.59-7.9s-2.7-6.39-2.7-6.39a2.7,2.7,0,0,0,1.71-.3,30.15,30.15,0,0,1,7.51-4.47,51.59,51.59,0,0,1-.66,8C64,62.71,65.1,71.25,63.57,73.31Z" style="fill:#61c7da"/><path d="M58.22,70.12a12,12,0,0,1-.29,5.67c-2.08-10-11.73-13.55-16.85-13.74,0,0,3.58-1.06,3.38-2.4s3.68-5.12,5.09-4.87a52,52,0,0,0,6.56,1s1.75,4.65,2.7,6.39S57.54,67.62,58.22,70.12Z" style="fill:#67d9e8"/><path d="M74.46,82A15.64,15.64,0,0,1,71,79.29c-3.29-3.49-3.31-8.21-.74-12.14a19.12,19.12,0,0,1,1.19-1.61,16.92,16.92,0,0,0,1.43,8.07A30.5,30.5,0,0,1,74.46,82Z" style="fill:#f9761e"/><path d="M83.44,89c-.07,3.67-1.45,9.37.2,12s1.06,7.18,1.06,7.18l-1.21,0c-2,0-4.07-.16-6.12-.31,2.38-2.86,4.22-7.64,4.07-9.65-.24-3.17,2.37-1,.3-8.51-.68-2.47-3.55-3.68-7.09-4.2,0-.15,0-1.59-.19-3.5a26,26,0,0,0,8.6,3A21,21,0,0,1,83.44,89Z" style="fill:#61c7da"/><path d="M298.08,38.3C295,40.37,247,44.24,240.17,50.74S235.24,59.25,233,61s-5.2,3.52-.28,9,5.51,7.89,8.32,13,18.64,13,27.06,12.72,25.42-1.46,27.7,0,9.65,1.78,10.91,2.51-.83,2.18-34.67,4c0,0-12.2,1.11-12,2.68s-5.47,3.21-11.47,2.89-3.41,1.72-9.1,1.92-17.74-.76-21,.63-34.64-11.36-42-17.61a47.49,47.49,0,0,0-5.13-3.85,49,49,0,0,1,10,4.84A20.68,20.68,0,0,1,183.22,95c4.19,3.6,11.77,5.32,13.88,6.24s17.14,7.54,20.21,6.63a16.25,16.25,0,0,1,4.85-.64c1.58,0,3.57,0,6.51,0,5.89,0,9.78.36,11.89-.49a2.69,2.69,0,0,0,.51-.25,13.85,13.85,0,0,1,4.3-1c3-.4,6.77-.63,8.7-.9,2.73-.37,3-1.83,5.26-2.54a62.62,62.62,0,0,0,7.39-.84c8.79-.71,23.21-1.71,22.29-1.8-1.23-.12,0-2-4.85-1.88-1.28,0-2.84,0-4.54,0-4.77-.11-10.62-.33-14.36.22a13.61,13.61,0,0,1-7.06-1h0c-2.33-.93-4.57-2.23-6.82-3.29-1.22-.57-2.8-1.37-4.5-2.32A56.26,56.26,0,0,1,242,88h0a24.87,24.87,0,0,1-5.45-4.88,9,9,0,0,1-1-1.64c-.19-.44-.41-.9-.65-1.39-.56-1.12-1.24-2.34-2-3.59-.94-1.62-1.95-3.29-2.89-4.81h0c-.94-1.55-1.82-3-2.44-4-.29-.49-.52-.91-.69-1.24-.75-1.5-.06-3,1-4.33a32.65,32.65,0,0,1,2.41-2.51,11.17,11.17,0,0,0,1-1.22,27.36,27.36,0,0,0,2.75-4.57,26.31,26.31,0,0,0,1.2-2.81c1-2.82,5.73-4.63,11.75-6.32l1.59-.45c2.83-.76,5.78-1.73,9-2.57l.15,0h0a57.59,57.59,0,0,1,11-1.82h0c1.46-.1,3-.13,4.6-.09,10.72.25,13.16-1.79,7.76-1.15-3.06.37-7.63-.22-12.23-.89h0c-3.51-.52-7-1.09-9.9-1.32a34,34,0,0,1-7.3-1.55h0a51.86,51.86,0,0,1-7.39-3,24.15,24.15,0,0,1-2.51-1.44c-1.06-.73-4.5-1.35-8.66-1.82h0a156.31,156.31,0,0,0-17.12-.93s0,0-.05,0a125.14,125.14,0,0,0-16.36,1c-4.48.66-18.53,9.91-21.71,13.2s-8.77,5.44-9.18,5.6c.8-.7,1.62-1.5,2.49-2.39,11.38-11.76,22.32-20.39,43.45-19.85s29.41,2.76,27.65,3.24,13.62,2.34,11,3.19,10.35,1.9,10.52,3,19.48,1.71,29.75,0S301.21,36.24,298.08,38.3Z" style="fill:#72f4f7"/><path d="M222.16,107.2a16.25,16.25,0,0,0-4.85.64c-3.07.91-18.09-5.73-20.21-6.63s-9.69-2.64-13.88-6.24a20.68,20.68,0,0,0-1.78-1.34s1.35-1.22,2.51-.37a38.31,38.31,0,0,0,6.54,3.28c1.81.64,15,6,18.06,7.44S222.16,107.2,222.16,107.2Z" style="fill:#67d9e8"/><path d="M231.38,58.38a11.17,11.17,0,0,1-1,1.22,32.65,32.65,0,0,0-2.41,2.51s-14.14,2.14-18.66,3.27-13.44-.3-12.85-1.48,5.29-.84,13.3-1.68S231.38,58.38,231.38,58.38Z" style="fill:#67d9e8"/><path d="M234.9,80.1s-23.59-3.93-29.1-6.32-16.46-1.41-15.61-4.19,2.32-.25,7.06.31,9.27,1,11.6,2.06S233,76.51,233,76.51C233.66,77.76,234.34,79,234.9,80.1Z" style="fill:#67d9e8"/><path d="M235.33,51a26.31,26.31,0,0,1-1.2,2.81c-1.61.45-7.55,2.15-10.52,3.27-3.45,1.31-15,2.67-26.57,4.72s-12.85-1.88-5.36-1.5S235.33,51,235.33,51Z" style="fill:#67d9e8"/><path d="M258.16,96.64c-1.51-.27-50.24-9.23-68.47-15.71,0,0-3.46-.93-3.17-2.12s6.12.44,13.08,2.63S240,91.3,241.18,91s5.66.08,5.66.08c1.7,1,3.28,1.75,4.5,2.32C253.59,94.41,255.83,95.71,258.16,96.64Z" style="fill:#67d9e8"/><path d="M251.79,34.8c-.68,0-32.39-1.72-39.47,1.72s-22.84,9.61-27,11.41-4.81,1.48-5,.75,2.06-2.26,8.66-5.67,19.49-6.69,21.48-8,3.56-1.44,8.36-2.26,25.66-1,25.66-1A51.86,51.86,0,0,0,251.79,34.8Z" style="fill:#67d9e8"/><path d="M266.72,101.19c-3,.24-5.33.45-6.2.57a9.24,9.24,0,0,0-1.19.27c-12.45.82-39.3.16-70-15.54,0,0-3.17-4.88,7.28.75s47.53,16.45,83.05,10.24c1.7,0,3.26.07,4.54,0,4.86-.11,3.62,1.76,4.85,1.88C289.93,99.48,275.51,100.48,266.72,101.19Z" style="fill:#67d9e8"/><path d="M266.72,101.19a62.62,62.62,0,0,1-7.39.84,9.24,9.24,0,0,1,1.19-.27C261.39,101.64,263.73,101.43,266.72,101.19Z" style="fill:#f9761e"/><path d="M273.49,39.72c-1.61,0-3.14,0-4.6.09h0c-4.17-.92-35.11-1.39-37.11-1s-9.21,1.93-14.67,3-25.87,10-29.87,11.61-6.52.85-4.64-.92,16.3-6.07,22.68-8.65A119.14,119.14,0,0,1,228,37.24c7.58-1.32,40,.39,41,.43h0c4.6.67,9.17,1.26,12.23.89C286.65,37.93,284.21,40,273.49,39.72Z" style="fill:#67d9e8"/><path d="M134.5,42.78c.09,1.39,2.12,2,5.13-.75s12.76-11.4,19.15-14.63c5.23-2.63,24.66-8.76,31.61-10.91a24.89,24.89,0,0,0-3.47,4.16c-6,2-13.94,4.14-17.28,5.14-5.26,1.59-12.45,4.81-15.85,8.1S139.86,44.26,140.88,45s2.09,1,5.67-2.08,10.7-8.73,15.11-11c3.39-1.74,18.09-6.16,24.69-8.11-.72,1.58-4.41,3-6.43,4.62-18.37,4.75-30.09,14.13-31,15.35s-3.12,5.24,2.69.82c4.53-3.43,20.17-10.08,26.9-12.87-.48,1.3-2.37,2.5-4,3.47-2.87,1.48-5.8,2.94-9.59,4.47-7.15,2.88-15.09,9.43-12.1,8.68s17.52-7.58,18-7.78a16.35,16.35,0,0,0-3.11,4.64c-1.3,3.62-12.34,6.48-12.34,6.48a91.12,91.12,0,0,1-10.66-3.15l-.17-.07c-1.29-.41-2.66-.86-4.14-1.31s-3-.9-4.65-1.35c-2.56-.71-5.19-1.38-7.91-2-2.31-.54-4.69-1.06-7.12-1.53-4.53-.9-9.26-1.65-14.15-2.21-1.15-.13-2.32-.25-3.5-.36-.19,0-.39,0-.56-.05a158.78,158.78,0,0,0-23.41-.41,16.41,16.41,0,0,1,4-3.25s5.41,1.24,7.29.84,0-4.78,0-4.78A22.08,22.08,0,0,1,93,31.33s-.16,5.91.83,5.66S96,32,96.33,30.8c1.21-.16,2.43-.28,3.6-.39-2.49,4.87-1.5,6.81-.13,6.05s3.37-6.34,3.37-6.34l1.9-.18c.63-.06,1.17-.11,1.65-.12,0,0-4.25,7.72-1.89,7.33s4.78-7.18,4.86-7.39a8.5,8.5,0,0,0,2.93-.88c-3.77,7.19-2.8,9.3-1.58,9.32s5.45-9.15,6.4-11.19a20,20,0,0,1,3.7-.13c-6.5,8.07-6.48,11-4.61,10.51s7.83-10.3,7.83-10.3a19.77,19.77,0,0,0,3.44,0C125.93,31,118.69,38,120.92,38.61s11.15-12.23,11.15-12.23a51.24,51.24,0,0,0,5.74-1.78c-3.2,5-10.44,11-11.59,12.53s-2.09,3.62,1.08,3,17.53-18.35,17.53-18.35c1.1-.45,2.2-.88,3.28-1.28,7.53-2.8,10-6.52,16.72-5.67.83.1,1.62.17,2.4.19,0,0-11.83,4.93-15.8,6s-11.64,10.3-14.74,13.37-7.32,6.25-6.76,7,1.5.8,4.19-1.12,14.19-16.35,21.62-18.71,40.12-11.28,40.85-11.48l-2.44,2.54c-3,.88-25.86,7.72-30.23,9.21-4.66,1.61-12.42,5.85-19.74,12S134.41,41.41,134.5,42.78Z" style="fill:#67d9e8"/><path d="M199.4,7.16c-.8.83-1.8,1.85-2.8,2.91h0c-.73.2-33.49,9.14-40.85,11.48S136.8,38.32,134.12,40.26s-3.62,1.84-4.19,1.12,3.67-3.9,6.76-7S147.47,22.08,151.43,21s15.8-6,15.8-6c5.47.2,9.92-1.45,18.09-4,9.33-3,19.05-10,19.93-8.23S202.18,4.32,199.4,7.16Z" style="fill:#04a5b2"/><path d="M144.83,21.82S130.48,39.58,127.3,40.17s-2.22-1.5-1.08-3,8.39-7.53,11.59-12.53h0C140.19,23.72,142.54,22.74,144.83,21.82Z" style="fill:#04a5b2"/><path d="M132.07,26.38s-8.91,12.82-11.15,12.23,5-7.66,6.88-11.53A29,29,0,0,0,132.07,26.38Z" style="fill:#04a5b2"/><path d="M124.36,27.09s-6,9.77-7.83,10.3-1.89-2.44,4.61-10.51C122.05,26.91,123.1,27,124.36,27.09Z" style="fill:#04a5b2"/><path d="M109.69,29.76c-.08.21-2.56,7-4.86,7.39s1.89-7.33,1.89-7.33C108,29.76,108.83,29.84,109.69,29.76Z" style="fill:#04a5b2"/><path d="M103.17,30.12s-2,5.58-3.37,6.34-2.36-1.18.13-6.05Z" style="fill:#04a5b2"/><path d="M96.33,30.8C96,32,94.68,36.77,93.81,37S93,31.33,93,31.33C94,31.12,95.18,30.94,96.33,30.8Z" style="fill:#04a5b2"/><path d="M90.34,36.8c-1.88.4-7.29-.84-7.29-.84,1.79-1,3.77-2,5.24-3a8.27,8.27,0,0,1,2-.95S92.23,36.4,90.34,36.8Z" style="fill:#04a5b2"/><path d="M208.05,3.75c-4.42,1.59-11.46,6.79-16.33,11.41l2.43-2.55,2.44-2.54h0c1-1.06,2-2.08,2.8-2.91,2.78-2.84,6.75-2.61,5.85-4.37S194.65,8.06,185.32,11c-8.17,2.59-12.62,4.24-18.09,4-.78,0-1.57-.09-2.4-.19-6.69-.85-9.19,2.87-16.72,5.67-1.08.4-2.18.83-3.28,1.28-2.29.92-4.64,1.9-7,2.77h0a51.24,51.24,0,0,1-5.74,1.78,29,29,0,0,1-4.27.7,19.77,19.77,0,0,1-3.44,0c-1.26-.1-2.31-.18-3.22-.21a20,20,0,0,0-3.7.13c-1.82.28-2.74.92-4.63,1.79l-.19.08a8.5,8.5,0,0,1-2.93.88c-.86.08-1.68,0-3,.06-.48,0-1,.06-1.65.12l-1.9.18-3.24.29c-1.17.11-2.39.23-3.6.39s-2.29.32-3.35.53a22.08,22.08,0,0,0-2.65.69,8.27,8.27,0,0,0-2,.95c-1.47,1-3.45,2-5.24,3a16.41,16.41,0,0,0-4,3.25c-1.57.08-3.15.2-4.75.33,14-11.66,27.12-10.44,29.45-11.7s5.09.39,9.6-1.64,11.47.13,20.8-3.3,14.42-4.65,17.07-6.87,4.67-.92,6.23-2.75,4.68-.92,10.86-.92,13-1.69,28.72-8.59S215.66,1,208.05,3.75Z" style="fill:#72f4f7"/><path d="M172.05,37.45c.92.47,0,1.59-1.24,3.09h0c-.46.2-15,7-18,7.78s4.95-5.8,12.1-8.68c3.79-1.53,6.72-3,9.59-4.47C172.74,36.24,171.25,37,172.05,37.45Z" style="fill:#f9761e"/><path d="M179.92,28.41c-.92.74-1.49,1.52-1.3,2.35a1.63,1.63,0,0,1-.08.95c-6.73,2.79-22.37,9.44-26.9,12.87-5.81,4.42-3.64.51-2.69-.82S161.55,33.16,179.92,28.41Z" style="fill:#f9761e"/><path d="M186.36,22.73a1.17,1.17,0,0,1,0,1.06c-6.6,1.95-21.3,6.37-24.69,8.11-4.41,2.24-11.53,7.87-15.11,11s-4.65,2.78-5.67,2.08,9.49-7.77,12.91-11.06,10.59-6.51,15.85-8.1c3.34-1,11.26-3.19,17.28-5.14C186.37,21.56,186.15,22.29,186.36,22.73Z" style="fill:#f9761e"/><path d="M194.15,12.61l-2.43,2.55-.18.18,0,.06c-.38.36-.75.72-1.1,1.09-6.95,2.15-26.38,8.28-31.61,10.91-6.39,3.23-16.13,11.92-19.15,14.63s-5,2.14-5.13.75,2.36-2.88,9.68-9,15.08-10.35,19.74-12C168.29,20.33,191.19,13.49,194.15,12.61Z" style="fill:#f9761e"/><path d="M68.09,93c-8.77-1.27-5,.58,1.66,2.81s8,3.61,7.31,4.46S65.55,96,62.81,95.3s6.17,5.33,10.94,7.37,1.87,5.68-5.24.2S56.39,91.45,57.22,94.62c.12.49.28,1,.46,1.62,0,.2.11.39.18.6s.17.57.26.87l.28.91c.19.62.38,1.26.58,1.93.09.29.18.58.26.87,0,0,0,.09,0,.14.11.37.22.75.32,1.14s.21.78.31,1.17l.06.25c.11.42.21.86.32,1.3l.18.79c.05.23.09.46.13.69s.12.62.18.94c.84,5-.5,8.27-2.23,2-.12-.39-.22-.77-.31-1.14s-.17-.65-.25-1a.5.5,0,0,0,0-.13c-.15-.62-.28-1.19-.41-1.74-.09-.39-.18-.75-.26-1.11v0c0-.08,0-.15,0-.22-.06-.3-.13-.57-.19-.83s-.08-.34-.12-.49c-.06-.32-.14-.62-.22-.9s-.14-.53-.22-.77a1.47,1.47,0,0,0-.08-.25c0-.05,0-.09,0-.13a.64.64,0,0,0,0-.07,1,1,0,0,0-.08-.18,2.88,2.88,0,0,0-.13-.31,1.72,1.72,0,0,0-.19-.3.94.94,0,0,0-.14-.19l0,0a.21.21,0,0,0-.08-.06.48.48,0,0,0-.16-.13h0a.9.9,0,0,0-.23-.08.17.17,0,0,0-.17,0,.1.1,0,0,0-.06,0s0,0,0,.06a1,1,0,0,0-.09.26,3.08,3.08,0,0,0,0,.48c0,.15,0,.33,0,.53,0,0,0,0,0,.07a1.94,1.94,0,0,0,0,.24c0,.17,0,.36,0,.55l0,.29.06.42c0,.14,0,.28,0,.43,0,.35.1.72.15,1.09.09.56.17,1.14.25,1.73,0,.33.1.68.14,1v0l.06.51c0,.34.07.68.1,1s0,.43,0,.64a1.88,1.88,0,0,1,0,.33c0,.36,0,.7,0,1s0,.44,0,.64a6.85,6.85,0,0,1-.1.85c-.68,3.86-3.29.92-3.17-5.16,0-1.23,0-2.35,0-3.33a16.29,16.29,0,0,0-.35-3.33,2.39,2.39,0,0,0-.13-.38l0-.1a1.17,1.17,0,0,0-.18-.26.31.31,0,0,0-.27-.07l-.1,0-.1.07a.43.43,0,0,0-.12.11l-.14.17a4,4,0,0,0-.28.45c-.1.18-.2.39-.31.63a4.31,4.31,0,0,0-.15.43,1.27,1.27,0,0,0-.06.28,1.91,1.91,0,0,0-.06.33c0,.14,0,.29,0,.44a5,5,0,0,0,0,.55c0,.25,0,.51,0,.77s0,.36.05.55v.17s0,.11,0,.16,0,.37.07.55c.06.47.12.94.18,1.43a2.48,2.48,0,0,1,0,.27c0,.32.07.66.1,1s0,.36,0,.54,0,.54,0,.81a3.12,3.12,0,0,1,0,.43,1.94,1.94,0,0,1,0,.42c0,.15,0,.29,0,.43l-.06.41a1.45,1.45,0,0,1-.06.3,5,5,0,0,1-.12.49,3.73,3.73,0,0,1-.14.44c-.06.14-.12.29-.19.44s-.13.27-.22.42v0c-.09.13-.17.26-.26.38a3.58,3.58,0,0,1-.28.37,2.91,2.91,0,0,1-.24.27c-.08.07-.16.16-.25.23a.24.24,0,0,1-.09.08,2.65,2.65,0,0,1-.26.21,3.8,3.8,0,0,1-.38.29c-1.37-2.1-2.19-6.13-.58-12.61A43.26,43.26,0,0,1,48.91,98a18.6,18.6,0,0,0,7.53-8.68,21.38,21.38,0,0,0,1.05-3.08,80.07,80.07,0,0,1,9.07-1,41.79,41.79,0,0,1,8.09.25c3.54.52,6.41,1.73,7.09,4.2,0,0-14.58-.78-19.69-1.2s5.1,3.54,11.64,3.69S76.85,94.27,68.09,93Z" style="fill:#67d9e8"/><path d="M81.44,98.21c.15,2-1.69,6.79-4.07,9.65a9.21,9.21,0,0,1-1.19,1.22A3.18,3.18,0,0,1,73,110a15.79,15.79,0,0,1-5-3.17,64.09,64.09,0,0,1-5.09-5.42c-2.34-2.65-1.85,0-.31,4.49.16.47.34,1,.52,1.49.34,1,.72,1.94,1.11,3,1.47,3.9.43,5.42-1.24,5.87a8.27,8.27,0,0,1-4.12-.28c-2.63-.75-5.19-1.06-7.26.39-.83.58-2.3.15-3.41-1.53a3.8,3.8,0,0,0,.38-.29,2.65,2.65,0,0,0,.26-.21.24.24,0,0,0,.09-.08c.09-.07.17-.16.25-.23a2.91,2.91,0,0,0,.24-.27,3.58,3.58,0,0,0,.28-.37c.09-.12.17-.25.26-.38v0c.09-.15.15-.28.22-.42s.13-.3.19-.44a3.73,3.73,0,0,0,.14-.44,5,5,0,0,0,.12-.49,1.45,1.45,0,0,0,.06-.3l.06-.41c0-.14,0-.28,0-.43a1.94,1.94,0,0,0,0-.42,3.12,3.12,0,0,0,0-.43c0-.27,0-.54,0-.81s0-.36,0-.54-.07-.66-.1-1a2.48,2.48,0,0,0,0-.27c-.06-.49-.12-1-.18-1.43,0-.18-.05-.37-.07-.55s0-.11,0-.16v-.17c0-.19,0-.37-.05-.55s0-.51,0-.77,0-.38,0-.55,0-.3,0-.44a1.91,1.91,0,0,1,.06-.33,1.27,1.27,0,0,1,.06-.28,4.31,4.31,0,0,1,.15-.43c.11-.24.21-.45.31-.63a4,4,0,0,1,.28-.45l.14-.17a.43.43,0,0,1,.12-.11l.1-.07.1,0a.31.31,0,0,1,.27.07,1.17,1.17,0,0,1,.18.26l0,.1a2.39,2.39,0,0,1,.13.38,16.29,16.29,0,0,1,.35,3.33c0,1,0,2.1,0,3.33-.12,6.08,2.49,9,3.17,5.16a6.85,6.85,0,0,0,.1-.85c0-.2,0-.42,0-.64s0-.67,0-1a1.88,1.88,0,0,0,0-.33c0-.21,0-.42,0-.64s-.06-.66-.1-1l-.06-.51v0c0-.35-.09-.7-.14-1-.08-.59-.16-1.17-.25-1.73-.05-.37-.11-.74-.15-1.09,0-.15,0-.29,0-.43l-.06-.42,0-.29c0-.19,0-.38,0-.55a1.94,1.94,0,0,1,0-.24s0-.05,0-.07c0-.2,0-.38,0-.53a3.08,3.08,0,0,1,0-.48,1,1,0,0,1,.09-.26s0,0,0-.06a.1.1,0,0,1,.06,0,.17.17,0,0,1,.17,0,.9.9,0,0,1,.23.08h0a.48.48,0,0,1,.16.13.21.21,0,0,1,.08.06l0,0a.94.94,0,0,1,.14.19,1.72,1.72,0,0,1,.19.3,2.88,2.88,0,0,1,.13.31,1,1,0,0,1,.08.18.64.64,0,0,1,0,.07s0,.08,0,.13a1.47,1.47,0,0,1,.08.25c.08.24.15.49.22.77s.15.57.22.9c0,.15.08.31.12.49s.13.53.19.83c0,.07,0,.14,0,.22v0c.08.36.17.72.26,1.11.13.55.26,1.12.41,1.74a.5.5,0,0,1,0,.13c.08.3.17.62.25,1s.19.75.31,1.14c1.73,6.28,3.07,3,2.23-2-.06-.32-.11-.63-.18-.94s-.08-.46-.13-.69l-.18-.79c-.11-.44-.21-.88-.32-1.3l-.06-.25c-.1-.39-.2-.78-.31-1.17s-.21-.77-.32-1.14c0,0,0-.1,0-.14-.08-.29-.17-.58-.26-.87-.2-.67-.39-1.31-.58-1.93l-.28-.91c-.09-.3-.18-.59-.26-.87s-.13-.4-.18-.6c-.18-.58-.34-1.13-.46-1.62-.83-3.17,4.19,2.77,11.29,8.25s10,1.85,5.24-.2-13.67-8-10.94-7.37,13.57,5.83,14.25,5-.68-2.24-7.31-4.46S59.32,91.74,68.09,93s12.14-.69,5.6-.82-16.77-4.1-11.64-3.69,19.69,1.2,19.69,1.2C83.81,97.18,81.2,95,81.44,98.21Z" style="fill:#04a5b2"/><path d="M126.62,136.81c.14.9-.89.88-.89.88C77,142.81,63,116.24,63,116.24c1.67-.45,2.71-2,1.24-5.87-.39-1.05-.77-2-1.11-3a25.77,25.77,0,0,0,2.67,2.22c8.64,31.09,58.55,26.51,59.12,26.48S126.49,135.92,126.62,136.81Z" style="fill:#f9761e"/><path d="M27.36,70.41a2.57,2.57,0,1,1-2.92-2.17A2.56,2.56,0,0,1,27.36,70.41Z" style="fill:#2b2b2b"/><path d="M24,65a5.81,5.81,0,1,0,3.77,10.78,6,6,0,0,0,1.65-1.43,5.88,5.88,0,0,0,1-1.82,5.68,5.68,0,0,0,.28-1.85,3.91,3.91,0,0,0,0-.49,1.33,1.33,0,0,0,0-.28A5.81,5.81,0,0,0,24,65Zm1.52,10.31a4.6,4.6,0,1,1,3.89-5.23A4.6,4.6,0,0,1,25.49,75.34Z" style="fill:#61c7da"/><path d="M24.15,66.23a4.6,4.6,0,1,0,5.23,3.88A4.6,4.6,0,0,0,24.15,66.23Zm1,7.09a2.57,2.57,0,1,1,2.17-2.91A2.57,2.57,0,0,1,25.19,73.32Z" style="fill:#f7aa21"/><path d="M214.74,132.79c-27.73,1.34-37.28-5.95-41.53-5.32s-6.94-3.55-12.31-2.76-12.1-4.39-18.38-5.07-4.31-4.4-9.53-4.09-19.79-.74-38.4.41c-14.34.88-23.07-2.16-28.79-6.36a25.77,25.77,0,0,1-2.67-2.22c-.18-.51-.36-1-.52-1.49,1.82.34,3.62.66,5.4.93A15.79,15.79,0,0,0,73,110c3.29,4.62,21,4.15,28.12,3.51s31.15-.89,33.69-.2,4.54,1.78,9.23,4.59,6.17.46,9.47,3.18,5.47.88,9.68,1.63,6.63,2.37,12.19,2S185.73,129.59,205,131s34.88-.42,33.71-.56a119.79,119.79,0,0,1-18.35-1.79c31,2.23,32.3-1.64,38.64,1.7S242.47,131.44,214.74,132.79Z" style="fill:#72f4f7"/><path d="M204.5,125c-2.16-.61-4.4-1.3-6.7-2.07-23.1-7.76-28.49-34.8-28.61-35.38a21.82,21.82,0,0,1,2.2,1.24S181.76,115.15,204.5,125Z" style="fill:#f9761e"/><path d="M111.62,97.65c-1.93,1.82-2.54,8.09-2.62,9.14-1.44.17-2.87.32-4.27.45h0a44.12,44.12,0,0,1-5-8c-1.42-3.45,1-4.86.93-8.22a27.62,27.62,0,0,0-.75-5.12c3.82,0,7.64-.05,11.47-.24C112.79,88.35,113.68,95.71,111.62,97.65Z" style="fill:#f9761e"/><path d="M189.29,86.49c30.74,15.7,57.59,16.36,70,15.54-2.26.71-2.53,2.17-5.26,2.54-1.93.27-5.65.5-8.7.9-5.9-.89-21-3.19-25.29-3.92a82,82,0,0,1-11-2.33c-8.36-2.66-14.78-9.57-23.45-11.68a1.86,1.86,0,0,0-.41-.08c-1.73-.08-2.89,2.16,4.24,5.45s18.4,7.57,20.74,8.72c2.16,1.05,26.44,4.56,30.31,5.11-2.11.85-6,.46-11.89.49-2.94,0-4.93,0-6.51,0,0,0-10.55-1.81-13.61-3.22s-16.25-6.8-18.06-7.44A38.31,38.31,0,0,1,184,93.26c-1.16-.85-2.51.37-2.51.37a49,49,0,0,0-10-4.84h0c13.84-26.66-4.89-39.52-4.89-39.52a25.41,25.41,0,0,0,2.26-1.82h0c.41-.16,6.13-2.43,9.18-5.6s17.23-12.54,21.71-13.2a125.14,125.14,0,0,1,16.36-1s0,0,.05,0c-4.66,1-13.94,3.16-17,5.31-4.15,2.93-14.25,6.55-17.37,9s-2.51,2.88-.25,3,18.83-10,22.3-12,28.46-4.26,29.44-4.35h0c4.16.47,7.6,1.09,8.66,1.82a24.15,24.15,0,0,0,2.51,1.44s-20.86.12-25.66,1-6.38.94-8.36,2.26-14.89,4.6-21.48,8S180,48,180.24,48.68s.83,1.06,5-.75,19.89-7.93,27-11.41,38.79-1.76,39.47-1.72h0a34,34,0,0,0,7.3,1.55c2.87.23,6.39.8,9.9,1.32-1,0-33.43-1.75-41-.43a119.14,119.14,0,0,0-22.72,6.6c-6.38,2.58-20.81,6.89-22.68,8.65s.64,2.54,4.64.92S211.64,42.83,217.1,41.8s12.67-2.57,14.67-3,32.94.06,37.11,1a57.59,57.59,0,0,0-11,1.82h0q-7.5.41-15,1c-5.43.4-10.92.63-16.25,1.83-3.12.7-6.2,1.55-9.28,2.39q-10.86,3-21.58,6.47c-2,.65-4.1,1.28-6.1,2.08-4.53,1.81-1.77,4.26,1.43,2.65S206.37,53.9,210,52.11a48.36,48.36,0,0,1,8.72-2.86A72,72,0,0,1,227.21,47c1.92-.28,3.84-.56,5.76-.82,4-.53,8-1,12-1.31.64,0,1.41-.15,2.14-.15-6,1.69-10.77,3.5-11.75,6.32,0,0-36.16,9.69-43.65,9.3s-6.24,3.56,5.36,1.5,23.12-3.41,26.57-4.72c3-1.12,8.91-2.82,10.52-3.27a27.36,27.36,0,0,1-2.75,4.57s-13.65,3-21.67,3.84-12.7.5-13.3,1.68,8.32,2.61,12.85,1.48,18.66-3.27,18.66-3.27c-1.06,1.34-1.75,2.83-1,4.33.17.33.4.75.69,1.24,0,0-11.7.95-14.09.28s-6.64-1.54-7.2,0,4.34,2.22,6.92,2.3,7.62,1.62,9.84,1.18,6.7.19,7,.23h0c.94,1.52,1.95,3.19,2.89,4.81,0,0-21.77-3.52-24.1-4.55s-6.86-1.5-11.6-2.06-6.21-3.09-7.06-.31,10.1,1.8,15.61,4.19,29.1,6.32,29.1,6.32c.24.49.46,1,.65,1.39a9,9,0,0,0,1,1.64c-2.39.39-11.92-2-14.12-2.29S215.5,79,214,79.31s-20-5-24.22-5.67-4.22,1.65-.64,1.93S208.05,79.75,213.4,81s27.75,6.79,28.58,7h0a56.26,56.26,0,0,0,4.83,3s-4.45-.43-5.66-.08-34.61-7.32-41.58-9.51-12.8-3.82-13.08-2.63,3.17,2.12,3.17,2.12c18.23,6.48,67,15.44,68.47,15.71h0a13.61,13.61,0,0,0,7.06,1c3.74-.55,9.59-.33,14.36-.22-35.52,6.21-72.6-4.6-83.05-10.24S189.29,86.49,189.29,86.49Z" style="fill:#f9761e"/><path d="M230.05,71.7c-.27,0-4.81-.67-7-.23s-7.26-1.11-9.84-1.18-7.49-.73-6.92-2.3,4.81-.71,7.2,0,14.09-.28,14.09-.28C228.23,68.75,229.11,70.15,230.05,71.7Z" style="fill:#67d9e8"/><path d="M242,88c-.83-.2-23.35-5.75-28.58-7s-20.69-5.18-24.28-5.45-3.58-2.57.64-1.93,22.7,6,24.22,5.67,6.22,1.28,8.43,1.53,11.73,2.68,14.12,2.29A24.87,24.87,0,0,0,242,88Z" style="fill:#67d9e8"/><path d="M245.37,105.47a13.85,13.85,0,0,0-4.3,1,2.69,2.69,0,0,1-.51.25c-3.87-.55-28.15-4.06-30.31-5.11-2.34-1.15-13.62-5.43-20.74-8.72s-6-5.53-4.24-5.45a1.86,1.86,0,0,1,.41.08c8.67,2.11,15.09,9,23.45,11.68a82,82,0,0,0,11,2.33C224.39,102.28,239.47,104.58,245.37,105.47Z" style="fill:#67d9e8"/><path d="M233.2,28.53c-1,.09-26,2.39-29.44,4.35s-20,12.11-22.3,12-2.86-.6.25-3,13.22-6,17.37-9c3.06-2.15,12.34-4.32,17-5.31A156.31,156.31,0,0,1,233.2,28.53Z" style="fill:#67d9e8"/><path d="M257.86,41.62l-.15,0c-3.26.84-6.21,1.81-9,2.57l-1.59.45c-.73,0-1.5.11-2.14.15-4,.28-8,.78-12,1.31-1.92.26-3.84.54-5.76.82a72,72,0,0,0-8.53,2.29A48.36,48.36,0,0,0,210,52.11c-3.59,1.79-15.66,4.26-18.85,5.88s-6-.84-1.43-2.65c2-.8,4.07-1.43,6.1-2.08q10.71-3.45,21.58-6.47c3.08-.84,6.16-1.69,9.28-2.39,5.33-1.2,10.82-1.43,16.25-1.83Q250.36,42,257.86,41.62Z" style="fill:#67d9e8"/><path d="M117.44,27c-1,2-5.27,11.2-6.4,11.19s-2.19-2.13,1.58-9.32l.19-.08C114.7,27.93,115.62,27.29,117.44,27Z" style="fill:#04a5b2"/><path d="M214.21,129.36c-2.09,1.22-19.74-2-28.41-6.19s-19.22-13.36-24.27-36.87a8.28,8.28,0,0,1,3.63-.14c.83,3.32,7.37,27.63,23.61,34.89C206.22,128.85,216.29,128.14,214.21,129.36Z" style="fill:#f9761e"/><path d="M171.59,120.69c-4.77-2.62-17-28.61-17.14-29h0c1.5-1.3,2.66-2.46,3.65-3.35,0,0,8.63,26.54,20.4,32.27S176.42,123.34,171.59,120.69Z" style="fill:#f9761e"/><path d="M148.39,96.19c.45-.27.88-.56,1.29-.84.82-.56,1.58-1.11,2.29-1.64.27.52,11.14,22.32,14.46,25.76S158.06,120.71,148.39,96.19Z" style="fill:#04a5b2"/><path d="M141.45,99.82c1.29-.55,2.47-1.12,3.57-1.7h0c1.06,1.77,9.1,15.2,12.43,18.63C161,120.42,150,120.09,141.45,99.82Z" style="fill:#04a5b2"/><path d="M134.48,102.34c1.23-.36,2.39-.75,3.49-1.15,0,0,6.86,12.39,10.45,14.15S143,119,134.48,102.34Z" style="fill:#04a5b2"/><path d="M76.18,109.08a9.21,9.21,0,0,0,1.19-1.22c2,.15,4.09.26,6.12.31a40.71,40.71,0,0,0,5.37,3C91.56,112.44,81.74,113.62,76.18,109.08Z" style="fill:#04a5b2"/><path d="M89.3,108.2h.23l2.57-.07C94,108.06,96,108,98,107.82a14,14,0,0,0,4.82,3.22C105.34,111.74,95.54,114.35,89.3,108.2Z" style="fill:#04a5b2"/><path d="M115.37,106l.48-.06,3.59-.51c.4-.06.81-.11,1.21-.18,1.07,1.56,3.48,4.92,4.58,5.29C126.61,111,120.54,111.65,115.37,106Z" style="fill:#04a5b2"/><path d="M102.58,107.44l2.15-.19h0c1.4-.13,2.83-.28,4.27-.45l1.23-.15.69-.08c1.21,1.17,3.86,3.56,6.09,4.26C119.85,111.71,108.21,112.13,102.58,107.44Z" style="fill:#04a5b2"/><path d="M123.25,104.85c.38-.06.76-.11,1.12-.18q3.45-.58,6.43-1.32a32.5,32.5,0,0,0,5.81,6.46C139.65,112.13,130.66,113.22,123.25,104.85Z" style="fill:#04a5b2"/><path d="M205,131c-19.29-1.43-24.1-6.67-29.66-6.31s-8-1.26-12.19-2-6.37,1.09-9.68-1.63-4.79-.36-9.47-3.18-6.68-3.89-9.23-4.59-26.61-.42-33.69.2S76.27,114.61,73,110a3.18,3.18,0,0,0,3.2-.91c5.56,4.54,15.38,3.36,12.68,2.14a40.71,40.71,0,0,1-5.37-3l1.21,0c1.54,0,3.06,0,4.6,0,6.24,6.15,16,3.54,13.49,2.84A14,14,0,0,1,98,107.82c1.51-.1,3-.23,4.6-.37h0c5.63,4.69,17.27,4.27,14.43,3.38-2.23-.7-4.88-3.09-6.09-4.26,1.46-.18,2.94-.37,4.45-.58,5.17,5.67,11.24,5,9.86,4.54-1.1-.37-3.51-3.73-4.58-5.29l1.63-.23c.23,0,.45-.06.68-.11l.29,0c7.41,8.37,16.4,7.28,13.36,5a32.5,32.5,0,0,1-5.81-6.46c1.29-.32,2.51-.65,3.68-1,8.47,16.65,17.5,14.75,13.94,13S138,101.19,138,101.19c1-.34,1.93-.71,2.82-1.09l.66-.28c8.58,20.27,19.57,20.6,16,16.93-3.33-3.43-11.37-16.86-12.43-18.63,1.22-.64,2.34-1.28,3.36-1.93,9.67,24.52,21.4,26.75,18,23.28S152.24,94.23,152,93.71h0c.92-.7,1.74-1.39,2.48-2,.19.41,12.37,26.4,17.14,29s18.69,5.64,6.91-.11-20.4-32.27-20.4-32.27c.39-.35.76-.65,1.1-.91a5.58,5.58,0,0,1,.91-.57,6.77,6.77,0,0,1,1.42-.53c5.05,23.51,15.61,32.65,24.27,36.87s26.32,7.41,28.41,6.19-8-.51-25.44-8.31c-16.24-7.26-22.78-31.57-23.61-34.89a13.66,13.66,0,0,1,3,.91c.33.15.66.3,1,.48.12.58,5.51,27.62,28.61,35.38,2.3.77,4.54,1.46,6.7,2.07h0a149.78,149.78,0,0,0,15.85,3.66h0a119.79,119.79,0,0,0,18.35,1.79C239.9,130.6,224.3,132.45,205,131Z" style="fill:#67d9e8"/><path d="M51.57,74.64c0,.53,0,1.07,0,1.61,0,1.94-.31,4.33-2.55,4.82S43.93,79.82,45,78s.88-2.93.51-4.65.59-4.09,3.66-2.72C51,71.43,51.44,73,51.57,74.64Z" style="fill:#67d9e8"/><path d="M161,71.31a9.52,9.52,0,0,1-4.49,6.3c-.68-2,0-6.72.78-9.74a13.51,13.51,0,0,0,.33-2.39C159.75,67,161.39,68.92,161,71.31Z" style="fill:#ff8a29"/><path d="M157.24,67.87c-.73,3-1.46,7.69-.78,9.74a21.43,21.43,0,0,1-5.69,2.47,10.48,10.48,0,0,0-2.78-7.2c-3.73-4-5.69-8-5.13-11.43.09-.6.19-1.19.28-1.77a74.08,74.08,0,0,1,7.56,2.46,35.12,35.12,0,0,1,6.87,3.34A13.51,13.51,0,0,1,157.24,67.87Z" style="fill:#67d9e8"/><path d="M150.77,80.08a36.31,36.31,0,0,1-3.94.92l-6.52,1.17c-2,.35-4.06.71-6.09,1,0-1.25,0-2.37.08-3.26.28-4.31.18-7,.46-12.41.18-3.65.11-7.15.53-9.64q4,.74,7.85,1.78c-.09.58-.19,1.17-.28,1.77-.56,3.44,1.4,7.42,5.13,11.43A10.48,10.48,0,0,1,150.77,80.08Z" style="fill:#ff8a29"/><path d="M135.29,57.9c-.42,2.49-.35,6-.53,9.64-.28,5.37-.18,8.1-.46,12.41-.05.89-.09,2-.08,3.26-2.14.35-4.3.69-6.46,1,0-2.32.1-4.58,0-6.32-.31-4.23-1.28-9.72-.88-11.16s3.09-4.88,3.2-7.95a9,9,0,0,0-.11-1.74Q132.63,57.41,135.29,57.9Z" style="fill:#67d9e8"/><path d="M129.94,57a9,9,0,0,1,.11,1.74c-.11,3.07-2.8,6.52-3.2,7.95s.57,6.93.88,11.16c.13,1.74.06,4,0,6.32-2.53.35-5.07.65-7.62.88-1,.1-2,.18-3.08.26-1.09-3.85-2.41-7.61-3-9.33-1.29-3.55.23-6.67,2.16-9.86,1.59-2.6.51-7.17.88-10.56,2.41.21,4.81.45,7.17.71C126.14,56.51,128.05,56.75,129.94,57Z" style="fill:#ff8a29"/><path d="M116.19,66.14c-1.93,3.19-3.45,6.31-2.16,9.86.62,1.72,1.94,5.48,3,9.33-1.89.14-3.78.25-5.66.33l-.09-.17C109.87,83,107,76.15,108,72.75s-.2-15.51-1.43-17.58l0-.06c3.53,0,7.07.2,10.58.47C116.7,59,117.78,63.54,116.19,66.14Z" style="fill:#67d9e8"/><path d="M111.31,85.49l.09.17c-3.83.19-7.65.26-11.47.24a48.51,48.51,0,0,0-2.66-8.7c-1.34-2.85,1.17-11.64,3-15.72,1.24-2.8-.13-4.63-1.4-6.11,2.54-.2,5.08-.27,7.63-.26l0,.06c1.23,2.07,2.41,14.19,1.43,17.58S109.87,83,111.31,85.49Z" style="fill:#ff8a29"/><path d="M100.26,61.48c-1.82,4.08-4.33,12.87-3,15.72a48.51,48.51,0,0,1,2.66,8.7c-2.05,0-4.11,0-6.17-.09-.43-3.7-4.53-12.88-5.73-15.35-1.31-2.71,2.44-7.23,3-9.45a8.91,8.91,0,0,0-.51-4.58c1.44-.26,2.85-.46,4.23-.64s2.71-.32,4.08-.42C100.13,56.85,101.5,58.68,100.26,61.48Z" style="fill:#67d9e8"/><path d="M91.06,61c-.59,2.22-4.34,6.74-3,9.45,1.2,2.47,5.3,11.65,5.73,15.35l-2.71-.08a55.32,55.32,0,0,1-8-.78,19.3,19.3,0,0,0-2.88-7.39c-2-2.62-1.53-7.55-1.4-9.47a73.21,73.21,0,0,1,1.56-8.82,47.06,47.06,0,0,1,10.21-2.84A8.91,8.91,0,0,1,91.06,61Z" style="fill:#ff8a29"/><path d="M80.18,77.56A19.3,19.3,0,0,1,83.06,85a26,26,0,0,1-8.6-3,30.5,30.5,0,0,0-1.57-8.39,16.92,16.92,0,0,1-1.43-8.07h0a23,23,0,0,1,8.88-6.26,73.21,73.21,0,0,0-1.56,8.82C78.65,70,78.23,74.94,80.18,77.56Z" style="fill:#67d9e8"/><path d="M74.46,82A15.64,15.64,0,0,1,71,79.29c-3.29-3.49-3.31-8.21-.74-12.14a19.12,19.12,0,0,1,1.19-1.61,16.92,16.92,0,0,0,1.43,8.07A30.5,30.5,0,0,1,74.46,82Z" style="fill:#ff8a29"/><circle cx="27.16" cy="69.73" r="1.52" style="fill:#eae3dd"/><ellipse cx="176.37" cy="50.3" rx="1.05" ry="1.91" style="fill:#72f4f7"/><path d="M184.27,51.93c0,1.28-.41,2.31-.92,2.31s-.91-1-.91-2.31.41-2.3.91-2.3S184.27,50.66,184.27,51.93Z" style="fill:#72f4f7"/><path d="M184.27,59.13c0,.68-.21,1.23-.46,1.23s-.46-.55-.46-1.23.21-1.23.46-1.23S184.27,58.45,184.27,59.13Z" style="fill:#72f4f7"/><path d="M180.22,57.12c0,1.11-.63,2-1.4,2s-1.4-.9-1.4-2,.62-2,1.4-2S180.22,56,180.22,57.12Z" style="fill:#72f4f7"/><path d="M188,64.76c0,1-.48,1.77-1.06,1.77s-1.06-.79-1.06-1.77S186.36,63,187,63,188,63.77,188,64.76Z" style="fill:#72f4f7"/><path d="M194.47,65.64a.75.75,0,1,1-.74-.88A.82.82,0,0,1,194.47,65.64Z" style="fill:#72f4f7"/><path d="M201.31,68.75c0,.9-.34,1.64-.75,1.64s-.76-.74-.76-1.64.34-1.65.76-1.65S201.31,67.84,201.31,68.75Z" style="fill:#72f4f7"/><ellipse cx="182.88" cy="65.35" rx="0.93" ry="1.75" style="fill:#72f4f7"/><path d="M186.5,71.5c0,.9-.5,1.62-1.12,1.62s-1.11-.72-1.11-1.62.5-1.62,1.11-1.62S186.5,70.6,186.5,71.5Z" style="fill:#72f4f7"/><path d="M203.25,75.57c0,1.12-.43,2-1,2s-1-.92-1-2,.44-2,1-2S203.25,74.44,203.25,75.57Z" style="fill:#72f4f7"/><path d="M213.16,71.17c0,1-.45,1.85-1,1.85s-1-.83-1-1.85.44-1.85,1-1.85S213.16,70.15,213.16,71.17Z" style="fill:#72f4f7"/><path d="M218.16,64.47a1.77,1.77,0,1,1-1.75-2.07A1.92,1.92,0,0,1,218.16,64.47Z" style="fill:#72f4f7"/><path d="M193.73,52.54c0,.94-.46,1.7-1,1.7s-1-.76-1-1.7.46-1.7,1-1.7S193.73,51.6,193.73,52.54Z" style="fill:#72f4f7"/><path d="M198.9,44.74a1.18,1.18,0,1,1-1.15-1.43A1.31,1.31,0,0,1,198.9,44.74Z" style="fill:#72f4f7"/><path d="M202.94,36.08c0,.89-.53,1.62-1.19,1.62s-1.19-.73-1.19-1.62.53-1.63,1.19-1.63S202.94,35.18,202.94,36.08Z" style="fill:#72f4f7"/><path d="M212.16,39.3c0,1-.4,1.85-.9,1.85s-.9-.83-.9-1.85.4-1.85.9-1.85S212.16,38.28,212.16,39.3Z" style="fill:#72f4f7"/><path d="M222.9,32.37a2,2,0,1,1-3.91,0,2,2,0,1,1,3.91,0Z" style="fill:#72f4f7"/><path d="M196.59,34.56c0,.83-.51,1.52-1.14,1.52s-1.14-.69-1.14-1.52.51-1.53,1.14-1.53S196.59,33.72,196.59,34.56Z" style="fill:#72f4f7"/><path d="M187,38.3c0,.72-.36,1.31-.81,1.31s-.8-.59-.8-1.31.36-1.3.8-1.3S187,37.58,187,38.3Z" style="fill:#72f4f7"/><path d="M180.8,43.68a1.47,1.47,0,1,1-1.42-1.84A1.67,1.67,0,0,1,180.8,43.68Z" style="fill:#72f4f7"/><path d="M173.27,48.2a1,1,0,1,1-1-1.06A1,1,0,0,1,173.27,48.2Z" style="fill:#72f4f7"/><path d="M180.8,70.79c0,.5-.28.91-.62.91s-.61-.41-.61-.91.27-.91.61-.91S180.8,70.28,180.8,70.79Z" style="fill:#72f4f7"/><path d="M178.82,64.62a.92.92,0,1,1-.91-1A1,1,0,0,1,178.82,64.62Z" style="fill:#72f4f7"/><path d="M186.51,80c0,.88-.5,1.59-1.12,1.59s-1.12-.71-1.12-1.59.5-1.59,1.12-1.59S186.51,79.12,186.51,80Z" style="fill:#72f4f7"/><path d="M194.15,77.28c0,.62-.32,1.13-.72,1.13s-.73-.51-.73-1.13.33-1.13.73-1.13S194.15,76.66,194.15,77.28Z" style="fill:#72f4f7"/><path d="M204.5,89.38c0,1-.62,1.84-1.38,1.84s-1.37-.82-1.37-1.84.61-1.83,1.37-1.83S204.5,88.37,204.5,89.38Z" style="fill:#72f4f7"/><ellipse cx="207.17" cy="81.21" rx="0.89" ry="1.11" style="fill:#72f4f7"/><path d="M216.41,78.64a1.11,1.11,0,1,1-1.08-1.36A1.24,1.24,0,0,1,216.41,78.64Z" style="fill:#72f4f7"/><path d="M224.93,73.43a1.42,1.42,0,1,1-1.38-1.73A1.59,1.59,0,0,1,224.93,73.43Z" style="fill:#72f4f7"/><ellipse cx="217.66" cy="91.07" rx="0.5" ry="0.98" style="fill:#72f4f7"/><path d="M223.55,84.7c0,.81-.22,1.46-.49,1.46s-.48-.65-.48-1.46.22-1.45.48-1.45S223.55,83.9,223.55,84.7Z" style="fill:#72f4f7"/><path d="M223.55,95.92a1.32,1.32,0,1,1-1.3-1.57A1.46,1.46,0,0,1,223.55,95.92Z" style="fill:#72f4f7"/><path d="M212.16,87.63a.93.93,0,1,1-.9-1.15A1.05,1.05,0,0,1,212.16,87.63Z" style="fill:#72f4f7"/><path d="M180.22,77.72c0,.87-.31,1.57-.7,1.57s-.7-.7-.7-1.57.31-1.57.7-1.57S180.22,76.86,180.22,77.72Z" style="fill:#72f4f7"/><path d="M177,86.67a1.24,1.24,0,1,1-1.24-1.34A1.3,1.3,0,0,1,177,86.67Z" style="fill:#72f4f7"/><path d="M182.44,83.83c0,.83-.5,1.5-1.11,1.5s-1.11-.67-1.11-1.5.5-1.5,1.11-1.5S182.44,83,182.44,83.83Z" style="fill:#72f4f7"/><path d="M183.35,90.72a1.28,1.28,0,1,1-1.28-1.34A1.3,1.3,0,0,1,183.35,90.72Z" style="fill:#72f4f7"/><path d="M191.68,82.71c0,.62-.35,1.12-.77,1.12s-.77-.5-.77-1.12.35-1.12.77-1.12S191.68,82.09,191.68,82.71Z" style="fill:#72f4f7"/><path d="M187.3,85.43c0,.68-.32,1.24-.71,1.24s-.7-.56-.7-1.24.31-1.24.7-1.24S187.3,84.74,187.3,85.43Z" style="fill:#72f4f7"/><path d="M230.05,94.57c0,.89-.33,1.62-.74,1.62s-.75-.73-.75-1.62.33-1.61.75-1.61S230.05,93.68,230.05,94.57Z" style="fill:#72f4f7"/><path d="M245.37,99a1.14,1.14,0,1,1-1.13-1.08A1.11,1.11,0,0,1,245.37,99Z" style="fill:#72f4f7"/><ellipse cx="247.61" cy="95.52" rx="1.24" ry="1.13" style="fill:#72f4f7"/><path d="M256.49,98.22a1.33,1.33,0,1,1-1.31-1.12A1.23,1.23,0,0,1,256.49,98.22Z" style="fill:#72f4f7"/><path d="M235.33,92.71c0,.91-.48,1.64-1.07,1.64s-1.06-.73-1.06-1.64.48-1.64,1.06-1.64S235.33,91.81,235.33,92.71Z" style="fill:#72f4f7"/><path d="M231,85.75a1,1,0,1,1-1-.92A1,1,0,0,1,231,85.75Z" style="fill:#72f4f7"/><path d="M231.59,81c0,.92-.51,1.67-1.14,1.67s-1.14-.75-1.14-1.67.51-1.68,1.14-1.68S231.59,80,231.59,81Z" style="fill:#72f4f7"/><path d="M200.11,59.19c0,1.15-.61,2.08-1.36,2.08s-1.36-.93-1.36-2.08.61-2.07,1.36-2.07S200.11,58.05,200.11,59.19Z" style="fill:#72f4f7"/><path d="M204.92,56.65c0,.26-.37.47-.83.47s-.84-.21-.84-.47.37-.47.84-.47S204.92,56.39,204.92,56.65Z" style="fill:#72f4f7"/><path d="M213.88,54c0,1-.4,1.78-.9,1.78s-.9-.8-.9-1.78.4-1.78.9-1.78S213.88,53,213.88,54Z" style="fill:#72f4f7"/><path d="M221.45,53.11c0,.8-.42,1.44-.94,1.44s-.94-.64-.94-1.44.42-1.44.94-1.44S221.45,52.32,221.45,53.11Z" style="fill:#72f4f7"/><path d="M221.45,48.72a.94.94,0,1,1-.94-.91A.93.93,0,0,1,221.45,48.72Z" style="fill:#72f4f7"/><path d="M216.41,43.36c0,.84-.43,1.51-1,1.51s-1-.67-1-1.51.43-1.51,1-1.51S216.41,42.53,216.41,43.36Z" style="fill:#72f4f7"/><path d="M206.27,47.28c0,.61-.3,1.11-.67,1.11s-.68-.5-.68-1.11.31-1.11.68-1.11S206.27,46.66,206.27,47.28Z" style="fill:#72f4f7"/><path d="M224.93,42.1c0,.88-.31,1.58-.69,1.58s-.69-.7-.69-1.58.31-1.57.69-1.57S224.93,41.23,224.93,42.1Z" style="fill:#72f4f7"/><path d="M234.54,42.46c0,.72-.34,1.31-.77,1.31s-.78-.59-.78-1.31.35-1.31.78-1.31S234.54,41.74,234.54,42.46Z" style="fill:#72f4f7"/><path d="M231.38,49.05a1.05,1.05,0,1,1-1-1.24A1.16,1.16,0,0,1,231.38,49.05Z" style="fill:#72f4f7"/><path d="M234.13,35.22c0,.47-.26.86-.57.86s-.57-.39-.57-.86.25-.86.57-.86S234.13,34.75,234.13,35.22Z" style="fill:#72f4f7"/><path d="M235.86,30.25c0,.91-.47,1.65-1.05,1.65s-1-.74-1-1.65.46-1.66,1-1.66S235.86,29.33,235.86,30.25Z" style="fill:#72f4f7"/><path d="M244.24,41.79c0,.84-.51,1.52-1.13,1.52S242,42.63,242,41.79s.51-1.52,1.13-1.52S244.24,41,244.24,41.79Z" style="fill:#72f4f7"/><path d="M243.73,35.07a1,1,0,0,1-.88,1.16c-.48,0-.87-.52-.87-1.16s.39-1.17.87-1.17S243.73,34.42,243.73,35.07Z" style="fill:#72f4f7"/><path d="M227.83,57.28c0,.61-.36,1.1-.81,1.1s-.8-.49-.8-1.1.36-1.1.8-1.1S227.83,56.67,227.83,57.28Z" style="fill:#72f4f7"/><ellipse cx="210.76" cy="32.58" rx="0.4" ry="1.32" style="fill:#72f4f7"/><path d="M209,96.64c0,.71-.41,1.29-.92,1.29s-.91-.58-.91-1.29.41-1.29.91-1.29S209,95.93,209,96.64Z" style="fill:#72f4f7"/><path d="M197.39,87.58c0,1-.35,1.8-.78,1.8s-.79-.81-.79-1.8.35-1.8.79-1.8S197.39,86.58,197.39,87.58Z" style="fill:#72f4f7"/><ellipse cx="193.88" cy="96.79" rx="0.88" ry="1.43" style="fill:#72f4f7"/><path d="M214.25,104.17c0,1.06-.59,1.92-1.32,1.92s-1.31-.86-1.31-1.92.59-1.91,1.31-1.91S214.25,103.11,214.25,104.17Z" style="fill:#72f4f7"/><path d="M221,102.27c0,.6-.31,1.08-.69,1.08s-.69-.48-.69-1.08.3-1.08.69-1.08S221,101.67,221,102.27Z" style="fill:#72f4f7"/><ellipse cx="232.4" cy="107.01" rx="0.8" ry="0.92" style="fill:#72f4f7"/><path d="M243.73,103a1.21,1.21,0,1,1-1.21-1.21A1.21,1.21,0,0,1,243.73,103Z" style="fill:#72f4f7"/><path d="M254.6,38.27c0,.7-.39,1.27-.88,1.27s-.89-.57-.89-1.27.39-1.27.89-1.27S254.6,37.57,254.6,38.27Z" style="fill:#72f4f7"/><path d="M115.45,32.58a1.27,1.27,0,1,1-1.27-1.31A1.3,1.3,0,0,1,115.45,32.58Z" style="fill:#72f4f7"/><path d="M123.5,31a.85.85,0,1,1-1.7,0,.85.85,0,1,1,1.7,0Z" style="fill:#72f4f7"/><path d="M127.94,30a.7.7,0,1,1-.68-.89A.8.8,0,0,1,127.94,30Z" style="fill:#72f4f7"/><path d="M109.69,33.64a1,1,0,1,1-1-1A1,1,0,0,1,109.69,33.64Z" style="fill:#72f4f7"/><path d="M100.78,33.48c0,.53-.22,1-.48,1s-.49-.44-.49-1,.22-1,.49-1S100.78,32.94,100.78,33.48Z" style="fill:#72f4f7"/><path d="M97.23,34.78a1.5,1.5,0,1,1-1.49-1.3A1.41,1.41,0,0,1,97.23,34.78Z" style="fill:#72f4f7"/><path d="M90,34.56a.54.54,0,1,1-.53-.66A.61.61,0,0,1,90,34.56Z" style="fill:#72f4f7"/><path d="M119.44,36.31c0,.63-.3,1.14-.67,1.14s-.66-.51-.66-1.14.3-1.13.66-1.13S119.44,35.69,119.44,36.31Z" style="fill:#72f4f7"/><path d="M127.3,38.87c0,.72-.31,1.3-.69,1.3s-.7-.58-.7-1.3.31-1.29.7-1.29S127.3,38.16,127.3,38.87Z" style="fill:#72f4f7"/><path d="M132.78,34.13c0,.84-.45,1.52-1,1.52s-1-.68-1-1.52.45-1.53,1-1.53S132.78,33.29,132.78,34.13Z" style="fill:#72f4f7"/><path d="M140.39,28.34c0,.41-.73.75-1.62.75s-1.62-.34-1.62-.75.72-.75,1.62-.75S140.39,27.93,140.39,28.34Z" style="fill:#72f4f7"/><path d="M146.65,29.17c0,.49-.6.88-1.35.88s-1.35-.39-1.35-.88.6-.89,1.35-.89S146.65,28.67,146.65,29.17Z" style="fill:#72f4f7"/><ellipse cx="140.12" cy="37.27" rx="0.67" ry="1.03" style="fill:#72f4f7"/><ellipse cx="147.2" cy="34.22" rx="0.55" ry="0.84" style="fill:#72f4f7"/><path d="M153.15,26.72a.82.82,0,1,1-1.64,0,.82.82,0,1,1,1.64,0Z" style="fill:#72f4f7"/><path d="M162,23a.81.81,0,0,1-1.61,0A.81.81,0,0,1,162,23Z" style="fill:#72f4f7"/><path d="M190.63,12.83c0,.46-.25.83-.55.83s-.56-.37-.56-.83.25-.82.56-.82S190.63,12.38,190.63,12.83Z" style="fill:#72f4f7"/><path d="M184.27,16.94c0,.53-.31,1-.69,1s-.7-.43-.7-1,.31-1,.7-1S184.27,16.41,184.27,16.94Z" style="fill:#72f4f7"/><path d="M175.76,16.49c0,.6-.28,1.09-.62,1.09s-.62-.49-.62-1.09.28-1.1.62-1.1S175.76,15.88,175.76,16.49Z" style="fill:#72f4f7"/><path d="M164.38,17.75c0,.69-.34,1.26-.75,1.26s-.74-.57-.74-1.26.33-1.26.74-1.26S164.38,17.05,164.38,17.75Z" style="fill:#72f4f7"/><path d="M156.19,18.59a.74.74,0,1,1-1.46,0,.74.74,0,1,1,1.46,0Z" style="fill:#72f4f7"/><path d="M157.8,33a1,1,0,1,1-1-1.21A1.11,1.11,0,0,1,157.8,33Z" style="fill:#72f4f7"/><ellipse cx="164.82" cy="27.36" rx="1.19" ry="0.98" style="fill:#72f4f7"/><path d="M174.52,22.4a1.14,1.14,0,1,1-2.23,0,1.14,1.14,0,1,1,2.23,0Z" style="fill:#72f4f7"/><path d="M179.57,26.09a.81.81,0,1,1-.8-.91A.87.87,0,0,1,179.57,26.09Z" style="fill:#72f4f7"/><path d="M170.3,32.84A1.37,1.37,0,1,1,169,31.79,1.21,1.21,0,0,1,170.3,32.84Z" style="fill:#72f4f7"/><path d="M173.27,28c0,.2-.44.37-1,.37s-1-.17-1-.37.44-.38,1-.38S173.27,27.76,173.27,28Z" style="fill:#72f4f7"/><ellipse cx="163.4" cy="33.46" rx="1.42" ry="1.09" style="fill:#72f4f7"/><path d="M157.8,27.06c0,.67-.21,1.22-.47,1.22s-.48-.55-.48-1.22.21-1.21.48-1.21S157.8,26.39,157.8,27.06Z" style="fill:#72f4f7"/><path d="M147.2,43a1,1,0,1,1-.95-.92A.93.93,0,0,1,147.2,43Z" style="fill:#72f4f7"/><path d="M157.33,45c0,.29-.59.53-1.3.53s-1.3-.24-1.3-.53.58-.53,1.3-.53S157.33,44.7,157.33,45Z" style="fill:#72f4f7"/><path d="M167.06,42.7a1.12,1.12,0,1,1-1.12-1.08A1.1,1.1,0,0,1,167.06,42.7Z" style="fill:#72f4f7"/><path d="M160.37,39.11c0,.79-.4,1.42-.88,1.42s-.88-.63-.88-1.42.39-1.41.88-1.41S160.37,38.33,160.37,39.11Z" style="fill:#72f4f7"/><ellipse cx="152.6" cy="38.87" rx="1.08" ry="1.16" style="fill:#72f4f7"/><path d="M153.79,33.45c0,.24-.36.44-.8.44s-.81-.2-.81-.44.36-.45.81-.45S153.79,33.2,153.79,33.45Z" style="fill:#72f4f7"/><path d="M162.89,46.3a1.07,1.07,0,1,1-1.06-1.18A1.13,1.13,0,0,1,162.89,46.3Z" style="fill:#72f4f7"/><path d="M148.79,24.8a1.07,1.07,0,1,1-1.07-1A1.06,1.06,0,0,1,148.79,24.8Z" style="fill:#72f4f7"/><path d="M157.33,22.65c0,.61-.36,1.11-.8,1.11s-.79-.5-.79-1.11.35-1.1.79-1.1S157.33,22,157.33,22.65Z" style="fill:#72f4f7"/><path d="M167.06,91.54c0,1.2-.71,2.17-1.6,2.17s-1.59-1-1.59-2.17.71-2.16,1.59-2.16S167.06,90.35,167.06,91.54Z" style="fill:#72f4f7"/><path d="M174.52,98.45a1.64,1.64,0,1,1-1.6-2A1.83,1.83,0,0,1,174.52,98.45Z" style="fill:#72f4f7"/><path d="M169.24,102.27a1.41,1.41,0,1,1-1.37-1.08A1.25,1.25,0,0,1,169.24,102.27Z" style="fill:#72f4f7"/><path d="M157.71,95.77a1.53,1.53,0,1,1-1.49-1.2A1.37,1.37,0,0,1,157.71,95.77Z" style="fill:#72f4f7"/><path d="M164.32,104.77a1.82,1.82,0,1,1-1.77-2.24A2,2,0,0,1,164.32,104.77Z" style="fill:#72f4f7"/><path d="M174.52,111.85c0,.26-.5.47-1.12.47s-1.11-.21-1.11-.47.5-.47,1.11-.47S174.52,111.59,174.52,111.85Z" style="fill:#72f4f7"/><path d="M185.39,117.66a1.5,1.5,0,1,1-1.48-1.76A1.64,1.64,0,0,1,185.39,117.66Z" style="fill:#72f4f7"/><path d="M179.38,107.77a1.54,1.54,0,1,1-1.5-1.21A1.38,1.38,0,0,1,179.38,107.77Z" style="fill:#72f4f7"/><path d="M169.69,117.66a2.15,2.15,0,1,1-2.11-1.76A2,2,0,0,1,169.69,117.66Z" style="fill:#72f4f7"/><ellipse cx="178.82" cy="121.81" rx="1.4" ry="1.05" style="fill:#72f4f7"/><path d="M195.82,124.4a1.42,1.42,0,1,1-1.41-1.54A1.48,1.48,0,0,1,195.82,124.4Z" style="fill:#72f4f7"/><path d="M145.3,103.57a1.1,1.1,0,1,1-1.08-1.31A1.21,1.21,0,0,1,145.3,103.57Z" style="fill:#72f4f7"/><ellipse cx="150.99" cy="100.69" rx="1.19" ry="1.34" style="fill:#72f4f7"/><path d="M158.61,101.61c0,.51-.29.92-.64.92s-.64-.41-.64-.92.28-.92.64-.92S158.61,101.1,158.61,101.61Z" style="fill:#72f4f7"/><ellipse cx="164.89" cy="113.34" rx="1.05" ry="1.48" style="fill:#72f4f7"/><path d="M156.19,111c0,.66-.86,1.19-1.92,1.19s-1.93-.53-1.93-1.19.87-1.18,1.93-1.18S156.19,110.35,156.19,111Z" style="fill:#72f4f7"/><ellipse cx="146.11" cy="113.27" rx="1.09" ry="1.2" style="fill:#72f4f7"/><path d="M159.2,118a1.51,1.51,0,1,1-1.51-1.41A1.46,1.46,0,0,1,159.2,118Z" style="fill:#72f4f7"/><path d="M141.45,110.34c0,.83-.95,1.51-2.12,1.51s-2.11-.68-2.11-1.51.95-1.52,2.11-1.52S141.45,109.5,141.45,110.34Z" style="fill:#72f4f7"/><path d="M135.29,106.14c0,.68-.32,1.24-.71,1.24s-.72-.56-.72-1.24.32-1.25.72-1.25S135.29,105.45,135.29,106.14Z" style="fill:#72f4f7"/><path d="M81.74,111.28a.72.72,0,1,1-1.4,0c0-.51.31-.92.7-.92S81.74,110.77,81.74,111.28Z" style="fill:#72f4f7"/><path d="M87.75,109.89A1.19,1.19,0,1,1,86.6,109,1.05,1.05,0,0,1,87.75,109.89Z" style="fill:#72f4f7"/><path d="M94.82,111.21a1,1,0,1,1-1-1.12A1.06,1.06,0,0,1,94.82,111.21Z" style="fill:#72f4f7"/><path d="M100.75,109.32c0,.27-.33.5-.73.5s-.72-.23-.72-.5.32-.5.72-.5S100.75,109.05,100.75,109.32Z" style="fill:#72f4f7"/><path d="M109,110a1.27,1.27,0,1,1-1.24-1A1.14,1.14,0,0,1,109,110Z" style="fill:#72f4f7"/><path d="M104.15,111.33a1.13,1.13,0,1,1-1.13-1A1.07,1.07,0,0,1,104.15,111.33Z" style="fill:#72f4f7"/><path d="M114.22,109c0,.44-.55.8-1.22.8s-1.21-.36-1.21-.8.54-.8,1.21-.8S114.22,108.58,114.22,109Z" style="fill:#72f4f7"/><path d="M120.71,107a.64.64,0,1,1-1.27,0,.64.64,0,1,1,1.27,0Z" style="fill:#72f4f7"/><path d="M120.07,110.4a1.33,1.33,0,1,1-1.31-1.08A1.21,1.21,0,0,1,120.07,110.4Z" style="fill:#72f4f7"/><path d="M128.57,109.11a1.1,1.1,0,1,1-1.08-1.29A1.2,1.2,0,0,1,128.57,109.11Z" style="fill:#72f4f7"/><path d="M132,104.76a1.21,1.21,0,1,1-1.21-1.13A1.17,1.17,0,0,1,132,104.76Z" style="fill:#72f4f7"/><path d="M135.05,110.93c0,.3-.55.54-1.23.54s-1.24-.24-1.24-.54.55-.53,1.24-.53S135.05,110.64,135.05,110.93Z" style="fill:#72f4f7"/><path d="M141.45,104.79c0,.35-.59.62-1.32.62s-1.31-.27-1.31-.62.59-.62,1.31-.62S141.45,104.45,141.45,104.79Z" style="fill:#72f4f7"/><path d="M152.34,106.85a1.34,1.34,0,1,1-1.33-1.17A1.25,1.25,0,0,1,152.34,106.85Z" style="fill:#72f4f7"/><ellipse cx="99.88" cy="63.97" rx="0.9" ry="1.57" style="fill:#72f4f7"/><path d="M106.07,62.17a1.55,1.55,0,1,1-1.53-1.81A1.68,1.68,0,0,1,106.07,62.17Z" style="fill:#72f4f7"/><path d="M106.49,70.41a1.19,1.19,0,1,1-1.19-1.09A1.14,1.14,0,0,1,106.49,70.41Z" style="fill:#72f4f7"/><path d="M100.78,75.74a1.23,1.23,0,1,1-1.19-1.54A1.4,1.4,0,0,1,100.78,75.74Z" style="fill:#72f4f7"/><path d="M108.67,82.71a1.31,1.31,0,1,1-1.3-1.12A1.22,1.22,0,0,1,108.67,82.71Z" style="fill:#72f4f7"/><path d="M86.69,68.78a1.39,1.39,0,1,1-1.36-1.68A1.55,1.55,0,0,1,86.69,68.78Z" style="fill:#72f4f7"/><path d="M89.83,62.45c0,.66-.72,1.19-1.61,1.19s-1.62-.53-1.62-1.19.72-1.18,1.62-1.18S89.83,61.8,89.83,62.45Z" style="fill:#72f4f7"/><path d="M82.69,62.62a1.54,1.54,0,1,1-1.53-1.35A1.44,1.44,0,0,1,82.69,62.62Z" style="fill:#72f4f7"/><ellipse cx="84.83" cy="76.45" rx="1.87" ry="1.28" style="fill:#72f4f7"/><path d="M92.1,83.48A1.39,1.39,0,1,1,90.71,82,1.43,1.43,0,0,1,92.1,83.48Z" style="fill:#72f4f7"/><path d="M73.66,74.84c0,.73-.86,1.31-1.93,1.31s-1.94-.58-1.94-1.31.87-1.31,1.94-1.31S73.66,74.12,73.66,74.84Z" style="fill:#72f4f7"/><path d="M82.69,79.93a1.18,1.18,0,1,1-1.18-1.29A1.23,1.23,0,0,1,82.69,79.93Z" style="fill:#72f4f7"/><path d="M111.4,77.54a1.78,1.78,0,1,1-1.77-1.75A1.76,1.76,0,0,1,111.4,77.54Z" style="fill:#72f4f7"/><path d="M117.45,71.74a1.66,1.66,0,1,1-1.62-1.28A1.48,1.48,0,0,1,117.45,71.74Z" style="fill:#72f4f7"/><path d="M119.44,60.27a1,1,0,1,1-1-1A1,1,0,0,1,119.44,60.27Z" style="fill:#72f4f7"/><ellipse cx="127.38" cy="59.79" rx="1.95" ry="1.89" style="fill:#72f4f7"/><path d="M122.65,68.49a1.15,1.15,0,1,1-1.12-1.39A1.28,1.28,0,0,1,122.65,68.49Z" style="fill:#72f4f7"/><path d="M123.51,79.25a1.41,1.41,0,1,1-1.4-1.53A1.47,1.47,0,0,1,123.51,79.25Z" style="fill:#72f4f7"/><path d="M119.44,82.71a1,1,0,1,1-1-1.12A1.07,1.07,0,0,1,119.44,82.71Z" style="fill:#72f4f7"/><path d="M128.57,75a1.34,1.34,0,1,1-1.33-1.19A1.26,1.26,0,0,1,128.57,75Z" style="fill:#72f4f7"/><path d="M137.22,73.64c0,.85-1,1.53-2.22,1.53s-2.22-.68-2.22-1.53,1-1.53,2.22-1.53S137.22,72.8,137.22,73.64Z" style="fill:#72f4f7"/><path d="M141,65.25A1.09,1.09,0,1,1,139.9,64,1.19,1.19,0,0,1,141,65.25Z" style="fill:#72f4f7"/><ellipse cx="135.4" cy="61.22" rx="0.91" ry="0.95" style="fill:#72f4f7"/><path d="M145.3,74.13a1.75,1.75,0,1,1-1.73-2A1.89,1.89,0,0,1,145.3,74.13Z" style="fill:#72f4f7"/><ellipse cx="139.4" cy="80.11" rx="1.57" ry="0.86" style="fill:#72f4f7"/><ellipse cx="150.36" cy="77.43" rx="1.15" ry="0.98" style="fill:#72f4f7"/><ellipse cx="157.17" cy="70.96" rx="0.98" ry="0.73" style="fill:#72f4f7"/><path d="M152.34,67.78A1.33,1.33,0,1,1,151,66.53,1.29,1.29,0,0,1,152.34,67.78Z" style="fill:#72f4f7"/><path d="M132.58,67.6a.91.91,0,1,1-.89-1.07A1,1,0,0,1,132.58,67.6Z" style="fill:#72f4f7"/><path d="M133.82,83.89A1.79,1.79,0,1,1,132,82,1.84,1.84,0,0,1,133.82,83.89Z" style="fill:#72f4f7"/><path d="M140.12,88a1.46,1.46,0,1,1-1.45-1.33A1.39,1.39,0,0,1,140.12,88Z" style="fill:#72f4f7"/><ellipse cx="142.51" cy="96.72" rx="1.06" ry="1.2" style="fill:#72f4f7"/><ellipse cx="147.25" cy="87.48" rx="1.14" ry="1" style="fill:#72f4f7"/><path d="M162.89,81.05a.94.94,0,1,1-.93-.94A.94.94,0,0,1,162.89,81.05Z" style="fill:#72f4f7"/><path d="M165.94,74.76a1.17,1.17,0,0,1-1.29,1c-.72,0-1.3-.44-1.3-1a1.34,1.34,0,0,1,2.59,0Z" style="fill:#72f4f7"/><path d="M163.87,62.41a1.77,1.77,0,1,1-1.75-2A1.93,1.93,0,0,1,163.87,62.41Z" style="fill:#72f4f7"/><ellipse cx="139.31" cy="56.74" rx="1.48" ry="1.16" style="fill:#72f4f7"/><path d="M143.57,51.84a1.3,1.3,0,1,1-1.3-1.28A1.28,1.28,0,0,1,143.57,51.84Z" style="fill:#72f4f7"/><path d="M154.27,58.34A1.66,1.66,0,1,1,152.64,57,1.51,1.51,0,0,1,154.27,58.34Z" style="fill:#72f4f7"/><path d="M173.4,72.73a1,1,0,1,1-1-1A1,1,0,0,1,173.4,72.73Z" style="fill:#72f4f7"/><path d="M136.31,100.27c0,.51-.79.92-1.77.92s-1.76-.41-1.76-.92.79-.93,1.76-.93S136.31,99.76,136.31,100.27Z" style="fill:#72f4f7"/><ellipse cx="155.47" cy="85.75" rx="0.74" ry="0.92" style="fill:#72f4f7"/><path d="M122.65,50.49c0,.8-.43,1.44-1,1.44s-1-.64-1-1.44.44-1.44,1-1.44S122.65,49.7,122.65,50.49Z" style="fill:#72f4f7"/><ellipse cx="124.32" cy="46.33" rx="0.82" ry="0.81" style="fill:#72f4f7"/><ellipse cx="133.01" cy="52.41" rx="1.98" ry="1.57" style="fill:#72f4f7"/><path d="M126.76,54.54a.67.67,0,1,1-.67-.56A.62.62,0,0,1,126.76,54.54Z" style="fill:#72f4f7"/><path d="M110,46.67c0,.63-.77,1.14-1.72,1.14s-1.73-.51-1.73-1.14.77-1.15,1.73-1.15S110,46,110,46.67Z" style="fill:#72f4f7"/><path d="M115.83,45.53c0,.63-.37,1.14-.82,1.14s-.83-.51-.83-1.14.37-1.14.83-1.14S115.83,44.9,115.83,45.53Z" style="fill:#72f4f7"/><path d="M114.22,58.85a1,1,0,1,1-1-1A1,1,0,0,1,114.22,58.85Z" style="fill:#72f4f7"/><path d="M113.7,65.5a1,1,0,1,1-1-1A1,1,0,0,1,113.7,65.5Z" style="fill:#72f4f7"/><path d="M102.58,53.2a.91.91,0,1,1-.9-.79A.85.85,0,0,1,102.58,53.2Z" style="fill:#72f4f7"/><path d="M104.12,47.53a1.22,1.22,0,1,1-1.22-1.2A1.21,1.21,0,0,1,104.12,47.53Z" style="fill:#72f4f7"/><path d="M100.78,43.32a.75.75,0,1,1-.74-.62A.68.68,0,0,1,100.78,43.32Z" style="fill:#72f4f7"/><path d="M113.55,52.06A1.08,1.08,0,1,1,112.48,51,1.06,1.06,0,0,1,113.55,52.06Z" style="fill:#72f4f7"/><path d="M131.78,47c0,.79-.38,1.43-.86,1.43s-.87-.64-.87-1.43.39-1.43.87-1.43S131.78,46.17,131.78,47Z" style="fill:#72f4f7"/><path d="M106.07,91.33a1.44,1.44,0,1,1-1.43-1.24A1.35,1.35,0,0,1,106.07,91.33Z" style="fill:#72f4f7"/><path d="M112.92,89.77a1.46,1.46,0,1,1-1.45-1.3A1.38,1.38,0,0,1,112.92,89.77Z" style="fill:#72f4f7"/><path d="M127.49,88.86a1,1,0,1,1-1-1.23A1.14,1.14,0,0,1,127.49,88.86Z" style="fill:#72f4f7"/><path d="M123.25,96.1a.87.87,0,1,1-.86-1A.94.94,0,0,1,123.25,96.1Z" style="fill:#72f4f7"/><path d="M133.86,94.37c0,.54-.28,1-.64,1s-.64-.44-.64-1,.29-1,.64-1S133.86,93.83,133.86,94.37Z" style="fill:#72f4f7"/><path d="M118.11,95.23a1.18,1.18,0,1,1-1.14-.88A1,1,0,0,1,118.11,95.23Z" style="fill:#72f4f7"/><ellipse cx="121.4" cy="102.77" rx="0.99" ry="0.59" style="fill:#72f4f7"/><ellipse cx="107.11" cy="101.61" rx="0.55" ry="0.42" style="fill:#72f4f7"/><ellipse cx="101.64" cy="98.42" rx="0.86" ry="0.93" style="fill:#72f4f7"/><path d="M103.17,83.09c0,.61-.35,1.1-.77,1.1s-.76-.49-.76-1.1S102,82,102.4,82,103.17,82.49,103.17,83.09Z" style="fill:#72f4f7"/><ellipse cx="95.2" cy="84.02" rx="0.55" ry="0.93" style="fill:#72f4f7"/><path d="M93,74.35a1.21,1.21,0,1,1-1.21-1.23A1.22,1.22,0,0,1,93,74.35Z" style="fill:#72f4f7"/><path d="M97.23,68.07a.77.77,0,1,1-1.49,0,.77.77,0,1,1,1.49,0Z" style="fill:#72f4f7"/><path d="M93,65.27a.44.44,0,1,1-.43-.51A.48.48,0,0,1,93,65.27Z" style="fill:#72f4f7"/><ellipse cx="96.78" cy="58.85" rx="1.04" ry="0.94" style="fill:#72f4f7"/><path d="M92.84,52.32a1.15,1.15,0,0,1-2.29,0,1.15,1.15,0,0,1,2.29,0Z" style="fill:#72f4f7"/><ellipse cx="77.63" cy="52.27" rx="1.45" ry="1.71" style="fill:#72f4f7"/><path d="M84,47.86a1.11,1.11,0,1,1-1.11-1.19A1.15,1.15,0,0,1,84,47.86Z" style="fill:#72f4f7"/><path d="M93.76,46.45a1,1,0,1,1-1-1A1,1,0,0,1,93.76,46.45Z" style="fill:#72f4f7"/><path d="M86.69,55.21A1.37,1.37,0,1,1,85.33,54,1.3,1.3,0,0,1,86.69,55.21Z" style="fill:#72f4f7"/><path d="M77.23,58.59a.54.54,0,1,1-1,0c0-.38.24-.69.52-.69A.63.63,0,0,1,77.23,58.59Z" style="fill:#72f4f7"/><ellipse cx="68.64" cy="57.39" rx="1.15" ry="0.95" style="fill:#72f4f7"/><path d="M62.61,57.63a1,1,0,1,1-1-.89A.92.92,0,0,1,62.61,57.63Z" style="fill:#72f4f7"/><path d="M66.13,54.78a.74.74,0,1,1-1.47,0,.74.74,0,1,1,1.47,0Z" style="fill:#72f4f7"/><path d="M63.26,64.61a.83.83,0,1,1-.81-.64A.74.74,0,0,1,63.26,64.61Z" style="fill:#72f4f7"/><path d="M70.38,63.07c0,.5-.65.9-1.44.9s-1.45-.4-1.45-.9.65-.9,1.45-.9S70.38,62.57,70.38,63.07Z" style="fill:#72f4f7"/><path d="M66.56,76a1.14,1.14,0,0,1-1,1.26c-.53,0-1-.56-1-1.26s.42-1.26,1-1.26A1.14,1.14,0,0,1,66.56,76Z" style="fill:#72f4f7"/><path d="M76.18,67.51a.79.79,0,1,1-.76-1A.89.89,0,0,1,76.18,67.51Z" style="fill:#72f4f7"/><path d="M79.09,77.62a.93.93,0,1,1-.93-1A1,1,0,0,1,79.09,77.62Z" style="fill:#72f4f7"/><path d="M77.63,84a1.14,1.14,0,1,1-1.1-.87A1,1,0,0,1,77.63,84Z" style="fill:#72f4f7"/><path d="M87.75,90.2a1.17,1.17,0,1,1-1.15-1.34A1.25,1.25,0,0,1,87.75,90.2Z" style="fill:#72f4f7"/><path d="M91.18,97.9a1.16,1.16,0,1,1-1.13-1.45A1.31,1.31,0,0,1,91.18,97.9Z" style="fill:#72f4f7"/><path d="M99.3,94.31a1,1,0,1,1-1-.92A1,1,0,0,1,99.3,94.31Z" style="fill:#72f4f7"/><path d="M99.59,90.42a.62.62,0,0,1-.59.65.65.65,0,0,1,0-1.3A.62.62,0,0,1,99.59,90.42Z" style="fill:#72f4f7"/><ellipse cx="97.38" cy="105.9" rx="0.89" ry="0.66" style="fill:#72f4f7"/><path d="M115,102.89a1.27,1.27,0,1,1-1.27-1.28A1.27,1.27,0,0,1,115,102.89Z" style="fill:#72f4f7"/><path d="M93.83,94.36c0,.78-.39,1.41-.87,1.41s-.86-.63-.86-1.41S92.49,93,93,93,93.83,93.59,93.83,94.36Z" style="fill:#72f4f7"/><path d="M90.55,104.15c0,.7-.36,1.26-.81,1.26s-.81-.56-.81-1.26.36-1.26.81-1.26S90.55,103.46,90.55,104.15Z" style="fill:#72f4f7"/><path d="M83.06,105.77a1,1,0,1,1-1-1A1,1,0,0,1,83.06,105.77Z" style="fill:#72f4f7"/><path d="M86.6,98.22a1.34,1.34,0,1,1-1.32-1.12A1.23,1.23,0,0,1,86.6,98.22Z" style="fill:#72f4f7"/><path d="M71.4,82.21c0,.55-.62,1-1.38,1s-1.38-.45-1.38-1,.62-1,1.38-1S71.4,81.66,71.4,82.21Z" style="fill:#72f4f7"/><path d="M63.26,82.54a1,1,0,1,1-1-1A1,1,0,0,1,63.26,82.54Z" style="fill:#72f4f7"/><path d="M61.31,75.92c0,.29-.37.53-.83.53s-.83-.24-.83-.53.37-.53.83-.53S61.31,75.63,61.31,75.92Z" style="fill:#72f4f7"/><path d="M64.24,70.14A1.31,1.31,0,1,1,63,69,1.21,1.21,0,0,1,64.24,70.14Z" style="fill:#72f4f7"/><ellipse cx="54.14" cy="82.74" rx="0.8" ry="0.74" style="fill:#72f4f7"/><ellipse cx="54.14" cy="74.05" rx="0.8" ry="0.7" style="fill:#72f4f7"/><path d="M43.92,68.88a.8.8,0,1,1-.8-.85A.83.83,0,0,1,43.92,68.88Z" style="fill:#72f4f7"/><path d="M57.24,78.39c0,.47-.25.86-.57.86s-.56-.39-.56-.86.25-.85.56-.85S57.24,77.92,57.24,78.39Z" style="fill:#72f4f7"/><path d="M53.34,71a.87.87,0,0,1-1.73,0,.87.87,0,0,1,1.73,0Z" style="fill:#72f4f7"/><path d="M40.37,83c0,.26-.32.47-.7.47S39,83.27,39,83s.31-.47.7-.47S40.37,82.75,40.37,83Z" style="fill:#72f4f7"/><path d="M43.92,79.53a1,1,0,0,1-1.06.88.9.9,0,1,1,1.06-.88Z" style="fill:#72f4f7"/><path d="M41.08,53.65a1.7,1.7,0,0,1-1.89,1.45,1.5,1.5,0,1,1,0-2.9A1.71,1.71,0,0,1,41.08,53.65Z" style="fill:#72f4f7"/><path d="M35.59,54.11c0,.55-.65,1-1.45,1s-1.44-.44-1.44-1,.64-1,1.44-1S35.59,53.56,35.59,54.11Z" style="fill:#72f4f7"/><ellipse cx="33.42" cy="59.47" rx="0.72" ry="0.89" style="fill:#72f4f7"/><path d="M24.82,59.47a.79.79,0,1,1-.78-.88A.83.83,0,0,1,24.82,59.47Z" style="fill:#72f4f7"/><path d="M48.19,53a1.08,1.08,0,1,1-1.07-1A1,1,0,0,1,48.19,53Z" style="fill:#72f4f7"/><path d="M53,47.53c0,.47-.64.86-1.44.86s-1.45-.39-1.45-.86.65-.86,1.45-.86S53,47.05,53,47.53Z" style="fill:#72f4f7"/><path d="M63.83,46.69c0,.65-.75,1.17-1.68,1.17s-1.67-.52-1.67-1.17.75-1.17,1.67-1.17S63.83,46,63.83,46.69Z" style="fill:#72f4f7"/><path d="M13.84,67.94c0,.46-.52.84-1.15.84s-1.16-.38-1.16-.84.52-.84,1.16-.84S13.84,67.48,13.84,67.94Z" style="fill:#72f4f7"/><path d="M13.84,83.09c0,.61-.66,1.1-1.47,1.1s-1.46-.49-1.46-1.1S11.56,82,12.37,82,13.84,82.49,13.84,83.09Z" style="fill:#72f4f7"/><path d="M13.84,78.16c0,.6-.66,1.09-1.47,1.09s-1.46-.49-1.46-1.09.65-1.08,1.46-1.08S13.84,77.57,13.84,78.16Z" style="fill:#72f4f7"/><path d="M35.07,91.69a1.61,1.61,0,1,1-1.57-1.27A1.44,1.44,0,0,1,35.07,91.69Z" style="fill:#72f4f7"/><ellipse cx="33.04" cy="85.9" rx="1.11" ry="0.58" style="fill:#72f4f7"/><path d="M41.79,90.89c0,.44-.47.8-1.06.8s-1.06-.36-1.06-.8.47-.8,1.06-.8S41.79,90.45,41.79,90.89Z" style="fill:#72f4f7"/><path d="M53,91a1.45,1.45,0,1,1-1.44-1.6A1.53,1.53,0,0,1,53,91Z" style="fill:#72f4f7"/></g></g></svg>