<svg xmlns="http://www.w3.org/2000/svg" viewBox="0 0 283.66 122.81"><title>pearl-danio</title><g id="Layer_2" data-name="Layer 2"><g id="Ñëîé_2" data-name="Ñëîé 2"><path d="M157.09,76.22c-23.72,7.15-22.33,3.35-25.47,5.16s-11.68,2.45-13.43.74-8.63-2.11-11-1.65S95.34,79,94.82,75.35s-2.62-6.28-7.68-5.06S81.39,72,76.5,70s-7.85-5.63-15.35-4.67S49.46,67,48.77,69.94s-1.05,2.84-5.06,3.34-6.11-2.12-3.84-6.22-6.63-2.35-7.06-.61c-.35,1.39-3.52-.39-4.8-1.17h0a7.56,7.56,0,0,1-.83,0A10.64,10.64,0,0,1,16.5,54.68a9.67,9.67,0,0,1,.11-1.53c-1.31-.15-3.34-.21-4.08.76-1.14,1.48-2.4,1.35-3,2.45s-3.1,2.22-4,1.43a2.63,2.63,0,0,1-1.18-2.27,5.06,5.06,0,0,1-1-.23c-1.56-.53-3,0-3.31,2.79s6.81,8.81,6.81,8.81C32.2,86.51,62.55,89.65,95.25,92.27c2.2.18,4.38.3,6.56.39h0a176.36,176.36,0,0,0,32.79-1.91l1.87-.3c15.43-2.49,28.17-6.6,35.71-10.22,5.36-2.58,12.56-3,19.65-2.11a67.61,67.61,0,0,1,7.78,1.42l.22.06C194.32,77.08,176.7,70.31,157.09,76.22Zm-53.46,10c-1.83,1.44-5,2.49-6.54,1.83s-2.36,1.44-4.45.79-2.23,1-4.84.52-2,.26-3.67,0a2.85,2.85,0,0,1-.39-.11c-4.8-1.53-9.47-4.17-13.92-6.48l-1.08-.56c-.57-.3-1.15-.6-1.72-.92-.31-.17-.62-.33-.92-.51l-.8-.44-1-.6-.77-.47-1-.66c-1.17-.78-2.55-1.3-2.23-2.94a2.69,2.69,0,0,1,2.15-2.19c1.59-.44,3.67-.12,5-.08a55.46,55.46,0,0,1,6.44.61c.81.12,1.61.26,2.41.42.27,0,.54.1.8.15l.93.19,1.23.27,1,.25,1,.26q.93.24,1.86.51l1,.31.61.18,1.34.43c.57.19,1.14.38,1.71.59L89,78l.19.07,1,.36c.72.28,1.43.57,2.14.87q.63.26,1.26.54c.42.17.83.36,1.24.55h0l.5.23C95.82,80.88,104.66,85.44,103.63,86.25Z" style="fill:#e1130a"/><path d="M214.91,52.8C210,52.09,184.13,48,162,37.48c-24.6-11.67-68.21-13.76-99.61-3.82,0,0-14.65,4-20.75,8.2-4.18,2.86-7.17,3.69-8.64,3.93a10.64,10.64,0,0,0-16.37,7.36c-1.31-.15-3.34-.21-4.08.76-1.14,1.48-2.4,1.35-3,2.45s-3.1,2.22-4,1.43a2.63,2.63,0,0,1-1.18-2.27c.72.06.84-.23.39-.41,0,0-4.45-1.3-2.61-5S37,20,98,19.48h.12c2.25,0,4.54,0,6.87.06,2,0,3.88.12,5.75.2a5.83,5.83,0,0,1,.59,0h.07c29.68,2.14,52.24,13.8,63.36,19.13,12.74,6.11,39.55,11.69,39.55,11.69C214.48,51.27,214.7,52,214.91,52.8Z" style="fill:#ffc548"/><path d="M215.74,56.45c-.21-1.17-.49-2.38-.8-3.54l0-.11C210,52.09,184.13,48,162,37.48c-24.6-11.67-68.21-13.76-99.61-3.82,0,0-14.65,4-20.75,8.2-4.18,2.86-7.17,3.69-8.64,3.93a10.63,10.63,0,0,1-5,19.49c1.28.78,4.45,2.56,4.8,1.17.43-1.74,9.33-3.49,7.06.61s-.18,6.72,3.84,6.22,4.36-.37,5.06-3.34,4.88-3.66,12.38-4.62S71.62,68,76.5,70s5.58,1.52,10.64.3,7.16,1.4,7.68,5.06,9.94,5.58,12.34,5.12,9.29-.06,11,1.65,10.29,1.08,13.43-.74,1.75,2,25.47-5.16c19.61-5.91,37.23.86,42.74,3.38h0a57.92,57.92,0,0,1,11,3.86,23.17,23.17,0,0,0,1.61-2.55c2.3-4.29,2.43-8,1.91-9.77-.79-2.64.44-5,1.49-9.75A13.94,13.94,0,0,0,215.74,56.45ZM47.24,68.72c-3.27,3-8.63,3.53-6-1.31C43.64,62.94,43.93,57,44.43,52a18.67,18.67,0,0,1,.37-3.78,2.19,2.19,0,0,1,1.61-1.63c1.8-.44,4,1.2,5.25,2.26,2.4,2,5.92,5.47,5.92,8.86C57.58,62.7,50.51,65.71,47.24,68.72Z" style="fill:#636e6c"/><path d="M250.15,76.27c-10-3.12-21.72-6.44-29.91-7.75-15.7-2.5,12.08-1.83,32,.45A7.8,7.8,0,0,0,250.15,76.27Z" style="fill:#212121"/><path d="M256.33,85.85c-11.79-4.94-25.47-10.2-34.52-12.57-18.07-4.72,8.7.08,28.93,4.64A12.72,12.72,0,0,0,252,80C253.29,81.75,254.83,83.79,256.33,85.85Z" style="fill:#212121"/><path d="M262.25,95.17c-12.8-6-28.54-13.06-35.73-15.49-14.82-5,3.14-1.74,31.81,9A42.88,42.88,0,0,1,262.25,95.17Z" style="fill:#212121"/><path d="M269.86,121.48c-.65,1.09-2.38,1.65-6.1,1.14-11.51-1.57-41.59-29.29-47.09-35.32l.55.25.24.12.13.07a2.28,2.28,0,0,1,.28.13l.19.1.33.17c.83.43,1.92,1,3.24,1.85h0a61.74,61.74,0,0,0,5.24,5C243.43,110.06,262.17,118.44,269.86,121.48Z" style="fill:#2b2b2b"/><path d="M269.86,121.48c-7.69-3-26.43-11.42-43-26.48a61.74,61.74,0,0,1-5.24-5c.91.56,1.93,1.21,3,2l.61.42.83.59.85.61,1.79,1.35c.3.24.62.48.93.74,1.9,1.49,3.94,3.24,6.09,5.23.87.82,1.73,1.57,2.56,2.28l.79.65a55.42,55.42,0,0,0,5.65,4.12l1.2.73a26.81,26.81,0,0,0,4.73,2.22l.3.1.27.08a5.54,5.54,0,0,0,.61.16,8,8,0,0,0,1.89.27l.34,0h.08l.28,0a4.43,4.43,0,0,0,.58-.16,105.64,105.64,0,0,0,14.9,7A4.14,4.14,0,0,1,269.86,121.48Z" style="fill:#212121"/><path d="M255.91,110.32a4.32,4.32,0,0,0,.15-1.17c0-.11,0-.21,0-.32a1.63,1.63,0,0,0,0-.31,6.4,6.4,0,0,0-.17-1c0-.17-.08-.34-.12-.5a15.6,15.6,0,0,1-.45-1.79c4.75,2.3,9.32,4.5,13.28,6.49a2.72,2.72,0,0,1-.09.69c-.34,1.36.9,3.77,1.47,5.92a105.64,105.64,0,0,1-14.9-7,2,2,0,0,0,.45-.29.57.57,0,0,0,.11-.11.53.53,0,0,0,.09-.11l0,0a.83.83,0,0,0,.07-.13A1.07,1.07,0,0,0,255.91,110.32Z" style="fill:#2b2b2b"/><path d="M268.56,111.73c-4-2-8.53-4.19-13.28-6.49a2.2,2.2,0,0,1,0-.62,1.07,1.07,0,0,1,.06-.27,1,1,0,0,1,.28-.38.5.5,0,0,1,.14-.1l.17-.09a1.75,1.75,0,0,0,.39-.21.58.58,0,0,0,.15-.11.86.86,0,0,0,.28-.82s0-.08,0-.12,0-.19-.07-.29c3.65,1.84,7.19,3.59,10.44,5.14A9.15,9.15,0,0,1,268.56,111.73Z" style="fill:#212121"/><path d="M267.08,107.37c-3.25-1.55-6.79-3.3-10.44-5.14-.1-.33-.24-.71-.37-1.15a3,3,0,0,1-.08-.32q0-.14-.06-.3a2.61,2.61,0,0,1,0-.31,1.1,1.1,0,0,1,0-.18c0-.11,0-.22,0-.34V99.4a3.69,3.69,0,0,0,0-.47v-.21c0-.09,0-.19,0-.29,3.11,1.49,6.18,3,9.08,4.39C265.23,104.19,266.2,105.77,267.08,107.37Z" style="fill:#2b2b2b"/><path d="M265.09,102.82c-2.9-1.42-6-2.9-9.08-4.39,0-.05,0-.1,0-.15l-.05-.22v0c0-.14-.07-.28-.12-.42s-.06-.15-.08-.22l-.07-.16a1.19,1.19,0,0,0-.08-.2l-.05-.09-.11-.22-.12-.2a7.07,7.07,0,0,0-.48-.68l-.29-.33a8.81,8.81,0,0,0-1.38-1.2l-.37-.25a13.77,13.77,0,0,0-1.39-.77l-.27-.14c-.46-.21-1-.42-1.5-.62-1.14-.42-3.11-1.26-5.52-2.31l-1.2-.53L241.29,89l-1.06-.46-2.37-1-.59-.26-1.33-.58L234.48,86l-2-.85-2.34-1a227.14,227.14,0,0,1,32.31,11.56,2.87,2.87,0,0,1,.24,1.77c-.78,2.36,2.36,2.1,2.36,5A2.06,2.06,0,0,0,265.09,102.82Z" style="fill:#212121"/><path d="M283.66,36.89a12.76,12.76,0,0,1-.3,2.5c-2.81.25-5.92.7-9.18,1.3a16.77,16.77,0,0,0-1.61-2.32c-2.26-2.75-5.57,1.24-17.56,6.84-5.62,1.54-11,3.18-15.65,4.65a78.3,78.3,0,0,1-20.88-.34c21.62,1.17,41.15-9.3,48.16-13.51,6.19-3.71,13-5,15.78-2.65a54.82,54.82,0,0,0-19.25,5.81C269.63,36.83,277.28,36.47,283.66,36.89Z" style="fill:#2b2b2b"/><path d="M283.36,39.39c-.87,4-3.46,7.2-5.73,7.61a4.66,4.66,0,0,0-1.79.61c-1.75,0-3.63,0-5.64.08.33-1.61,1.68-2.37,3.76-2.69,1.68-.26,1.45-2.14.22-4.31C277.44,40.09,280.55,39.64,283.36,39.39Z" style="fill:#212121"/><path d="M275.84,47.61a5.06,5.06,0,0,1-2.4,1.49,3.29,3.29,0,0,0-1.44,1c-1.23.07-2.48.17-3.76.29,1-.74,1.81-1.49,1.89-2.25a2.22,2.22,0,0,1,.07-.45C272.21,47.62,274.09,47.6,275.84,47.61Z" style="fill:#2b2b2b"/><path d="M272,50.1c-1.77,1.91-2.9,5.64-3.53,5s-1,1-2.08,2.39c-1.58-.11-3.27-.21-5.07-.29a35.59,35.59,0,0,0,2.53-3.31c.84-1.26,2.86-2.39,4.39-3.51C269.52,50.27,270.77,50.17,272,50.1Z" style="fill:#212121"/><path d="M264.25,59.08c-2.51,1.49-7,6.13-9.91,8.07-.12.08-.24.16-.35.25a162.68,162.68,0,0,0-30.26-2.12c-14.31.34-9.07-1,2.75-2.54,4.25,1.49,12.12,1.85,19.23,2.49,5.53.5,10.26-2.65,13.53-5.81C261,59.29,262.64,59.18,264.25,59.08Z" style="fill:#212121"/><path d="M283.66,36.89c-6.38-.42-14-.06-20.49,2.28a54.82,54.82,0,0,1,19.25-5.81A3.53,3.53,0,0,1,283.64,36C283.66,36.31,283.66,36.6,283.66,36.89Z" style="fill:#212121"/><path d="M256.05,108.83c0,.11,0,.21,0,.32a4.32,4.32,0,0,1-.15,1.17,1.07,1.07,0,0,1-.13.31.83.83,0,0,1-.07.13l0,0a.53.53,0,0,1-.09.11.57.57,0,0,1-.11.11,2,2,0,0,1-.45.29,4.43,4.43,0,0,1-.58.16l-.28,0h-.08l-.34,0a8,8,0,0,1-1.89-.27,5.54,5.54,0,0,1-.61-.16L251,111l-.3-.1a26.81,26.81,0,0,1-4.73-2.22l-1.2-.73a55.42,55.42,0,0,1-5.65-4.12l-.79-.65c-.83-.71-1.69-1.46-2.56-2.28-2.15-2-4.19-3.74-6.09-5.23-.31-.26-.62-.5-.93-.74L227,93.58,226.1,93l-.83-.59-.61-.42c-1.1-.76-2.12-1.41-3-2h0c-1.32-.81-2.41-1.42-3.24-1.85l-.33-.17-.19-.1a2.28,2.28,0,0,0-.28-.13l-.13-.07-.24-.12-.55-.25h0a19.42,19.42,0,0,0-5.79-3.84,23.17,23.17,0,0,0,1.61-2.55c3.12,1,3.26-.65,7.06-.41a11.79,11.79,0,0,1,2.51.58l.56.18c1,.32,2.07.73,3.29,1.19l1.47.58.17.07.85.34.08,0,1.12.46.55.23c-6.31-1.62-8.86-1.66-6.59-.7,2.45,1,17.88,8,32.46,15,0,.1,0,.2,0,.29v.21a3.69,3.69,0,0,1,0,.47v.23c0,.12,0,.23,0,.34a1.1,1.1,0,0,0,0,.18,2.61,2.61,0,0,0,0,.31q0,.17.06.3a3,3,0,0,0,.08.32c.13.44.27.82.37,1.15-21.87-11-47.71-25.26-39.19-17.66,5.73,5.11,22.72,13.36,37.83,20.67a15.6,15.6,0,0,0,.45,1.79c0,.16.09.33.12.5a6.4,6.4,0,0,1,.17,1A1.63,1.63,0,0,1,256.05,108.83Z" style="fill:#ff2b15"/><path d="M256.45,103.46a.58.58,0,0,1-.15.11,1.75,1.75,0,0,1-.39.21l-.17.09a.5.5,0,0,0-.14.1,1,1,0,0,0-.28.38,1.07,1.07,0,0,0-.06.27,2.2,2.2,0,0,0,0,.62c-15.11-7.31-32.1-15.56-37.83-20.67-8.52-7.6,17.32,6.61,39.19,17.66,0,.1.05.2.07.29s0,.08,0,.12A.86.86,0,0,1,256.45,103.46Z" style="fill:#e1130a"/><path d="M270.2,47.69a2.22,2.22,0,0,0-.07.45c-.08.76-.87,1.51-1.89,2.25-18.65,1.67-41.33,6.72-46.22,8.5a15.92,15.92,0,0,0-6.28-2.44c-.21-1.17-.49-2.38-.8-3.54l0-.11c-.21-.77-.43-1.53-.65-2.22-.16-.54-.33-1-.49-1.5,1.58.22,3.15.36,4.71.44a78.3,78.3,0,0,0,20.88.34c-7.93,2.51-13.57,4.53-14,4.69A201.92,201.92,0,0,1,270.2,47.69Z" style="fill:#ff2b15"/><path d="M268.24,50.39c-1.53,1.12-3.55,2.25-4.39,3.51a35.59,35.59,0,0,1-2.53,3.31,170.82,170.82,0,0,0-33.58,1.57c-2.32.37-4,.59-5.07.68a7.16,7.16,0,0,0-.65-.57C226.91,57.11,249.59,52.06,268.24,50.39Z" style="fill:#e1130a"/><path d="M259.24,59.42c-3.27,3.16-8,6.31-13.53,5.81-7.11-.64-15-1-19.23-2.49C235.5,61.55,248.33,60.24,259.24,59.42Z" style="fill:#e1130a"/><path d="M274,45c-2.08.32-3.43,1.08-3.76,2.69a201.92,201.92,0,0,0-44.87,6.86c.46-.16,6.1-2.18,14-4.69A46.55,46.55,0,0,0,252,46.57c1.07-.46,2.08-.92,3-1.36,6.39-1.76,13.07-3.4,19.17-4.52C275.41,42.86,275.64,44.74,274,45Z" style="fill:#e1130a"/><path d="M274.18,40.69c-6.1,1.12-12.78,2.76-19.17,4.52,12-5.6,15.3-9.59,17.56-6.84A16.77,16.77,0,0,1,274.18,40.69Z" style="fill:#ff2b15"/><path d="M214.26,50.58S187.45,45,174.71,38.89c-11.12-5.33-33.68-17-63.36-19.13,33,1.56,52.59,8.75,67.45,15.66,12.14,5.64,21.15,11.11,31.84,13.15,1.05.2,2.09.38,3.13.51C213.93,49.54,214.1,50,214.26,50.58Z" style="fill:#212121"/><path d="M183.49,30.12a19.28,19.28,0,0,1-4.69,5.3c-14.86-6.91-34.41-14.1-67.45-15.66h-.07l-.56,0c.39-.21,5-2.68,10.89-5.38A11.64,11.64,0,0,0,125,16.83l-1.48.87,2-.61A52.56,52.56,0,0,0,137,20.78l.91.19c4,.84,7.78,1.38,10.33,1.66-2.83.85-.1.85,4.64.51,1.49.51,3.45,1.47,5.94,1.1a3.88,3.88,0,0,1,3.6,1.06,29.45,29.45,0,0,0-2.95.88c-.87.37,1.14.23,4.1,0a1.71,1.71,0,0,0,.65.13c1.59,0,3.61,1.44,5.14,2.49a6.19,6.19,0,0,0-1.63.8C165.55,31.34,176.88,29.88,183.49,30.12Z" style="fill:#2b2b2b"/><path d="M125.51,17.09l-2,.61,1.48-.87C125.17,16.92,125.33,17,125.51,17.09Z" style="fill:#e1130a"/><path d="M152.9,23.14c-4.74.34-7.47.34-4.64-.51a22.11,22.11,0,0,0,3.08.21A3.85,3.85,0,0,1,152.9,23.14Z" style="fill:#e1130a"/><path d="M163.59,26.2c-3,.21-5,.35-4.1,0a29.45,29.45,0,0,1,2.95-.88A4.69,4.69,0,0,0,163.59,26.2Z" style="fill:#e1130a"/><path d="M171.28,1.11a316,316,0,0,0-33,9.81l-.69-.11c-5.07-.8-14.29,2.83-15.79,3.44,5.82-2.68,12.78-5.58,18-6.76C150.64,5.05,157.27,3,162.33.86A10.67,10.67,0,0,1,171.28,1.11Z" style="fill:#2b2b2b"/><path d="M183.49,30.12c-6.61-.24-17.94,1.22-15.74-.5a6.19,6.19,0,0,1,1.63-.8c.16.11.3.21.45.3,1.57,1.05,7.85.35,9.77-1s1.57-2.1,1.13-2.1-4.27-3-3-3.31a6,6,0,0,0,2.78-2.27c.71-.87,0-1.92-1.74-4.18s-2.44-4.71-6.8-3.7a33.5,33.5,0,0,1-6.71.65c6.55-1.54,10.53-2.52,7.4-2.48a117.56,117.56,0,0,0-13.36,2.11,7.35,7.35,0,0,1-1.11-.28c-1.92-.73-3.84-.49-7.68,0l-.48.05c12-3.24,24-6.52,18.2-6.28-4.46.18-14.8,2.78-24.41,5.46-1.12,0-2.43-.34-5.47-.83a316,316,0,0,1,33-9.81,7.3,7.3,0,0,1,3.26,3.24c1.63,3.45-1.51,4.43-1.89,4.54.35-.05,3.13-.47,3.46-2.27s1.92,2.12,2.78,3.24,1.75,6.53,3.32,8.1a4.41,4.41,0,0,1,.87,4l-3,1.57h4S185.74,26.09,183.49,30.12Z" style="fill:#212121"/><path d="M150,12.57c-3.2.26-1.72-1.56-4-1.06a8.47,8.47,0,0,1-2.16.24c9.61-2.68,19.95-5.28,24.41-5.46C173.94,6.05,162,9.33,150,12.57Z" style="fill:#2b2b2b"/><path d="M165.21,13.17h0a35.87,35.87,0,0,1-5.95-.37,117.56,117.56,0,0,1,13.36-2.11C175.74,10.65,171.76,11.63,165.21,13.17Z" style="fill:#2b2b2b"/><path d="M180.43,114c-.27.33-.55.7-.83,1.08a4,4,0,0,1-1.68,1.26,126.68,126.68,0,0,1-21.27-11,14.42,14.42,0,0,0,1.66-1.62,1.65,1.65,0,0,1,.67-.45C166.43,107.79,174.67,112.24,180.43,114Z" style="fill:#2b2b2b"/><path d="M184.41,110.37a9.59,9.59,0,0,0-2.55,2c-2.72-1.41-6.72-3.33-11.18-5.61a6.87,6.87,0,0,0,2-1.89C177.26,107.18,181.43,109.18,184.41,110.37Z" style="fill:#2b2b2b"/><path d="M187.08,106c-.18.41-.35.81-.51,1.13-.44.89-.46,1.64-.82,2.25-2.73-1.52-7-3.69-11.74-6.11a6.71,6.71,0,0,1,2.88-1.55C180.79,103.4,184.4,104.94,187.08,106Z" style="fill:#2b2b2b"/><path d="M191.73,98.12a9.9,9.9,0,0,1-1.21,3.6c-2.33-1.28-5.21-2.84-8.27-4.46a9.21,9.21,0,0,0,.13-1.27,2.21,2.21,0,0,1,.75-1.36C186.34,95.91,189.36,97.13,191.73,98.12Z" style="fill:#2b2b2b"/><path d="M193.42,92.55a23.36,23.36,0,0,0-1.54,4.69c-1.93-1.16-4.3-2.54-6.81-4a31,31,0,0,1,4.67-2Z" style="fill:#2b2b2b"/><path d="M195.75,86.64a7.89,7.89,0,0,1-1.16,3.81,7.43,7.43,0,0,0-.72,1.18c-.73-.4-1.52-.83-2.36-1.27.14-1.88-2.32-3.57-4.94-4.72a3.51,3.51,0,0,0-3.18.61c-2.21-1.06-4.35-2-6.18-2.77.28-.11.55-.24.84-.38h0A129.17,129.17,0,0,1,195.75,86.64Z" style="fill:#2b2b2b"/><path d="M183.39,86.25a25.47,25.47,0,0,0-2.74,2.06c-3.47-1.12-6.82-2.17-9.36-3,.47-.09,1.09-.23,1.82-.42l.5-.14a31.35,31.35,0,0,0,3.14-1.12l.41-.17.05,0C179,84.22,181.18,85.19,183.39,86.25Z" style="fill:#212121"/><path d="M178.81,89.77a8,8,0,0,1-1.66,1,8.23,8.23,0,0,0-1.69.86l-8.1-3.14s0,0,0,0l.21-.14.19-.17h0l.32-.31a2,2,0,0,0,.2-.21c.12-.13.24-.26.36-.41l.14-.15c.12-.14.24-.27.35-.41l.47-.5a1.85,1.85,0,0,1,.14-.14l.15-.14.22-.17.14-.09.19-.09h0C172.76,86.57,175.71,88.09,178.81,89.77Z" style="fill:#212121"/><path d="M174.05,92.92a14.78,14.78,0,0,1-1.78,1.79c-.16.13-.33.27-.52.4C168,93.5,164.4,92,161.52,90.71c.31-.16.71-.35,1.14-.54l.45-.19.18-.07.63-.25h0l.72-.26c.45-.16.89-.31,1.29-.42l.28-.08.09,0C168.54,90,171.22,91.42,174.05,92.92Z" style="fill:#212121"/><path d="M169.94,96.22a17.47,17.47,0,0,1-2.69,1.12c-3.31-1.52-6.48-3-9.16-4.25a4.86,4.86,0,0,0,.7-.4,2.5,2.5,0,0,0,.24-.16l.24-.17c.43-.32.84-.65,1.22-1h0C163.17,92.88,166.48,94.54,169.94,96.22Z" style="fill:#212121"/><path d="M163.79,97.86a5.92,5.92,0,0,1-1.81-.32,8.09,8.09,0,0,0-3.91-.37C156,96,154,95,152.25,94l.29,0h.92l.17,0,.33,0,.35-.07h0l.42-.1.66-.15.31,0,.14,0,.32,0C158.45,94.9,161.06,96.38,163.79,97.86Z" style="fill:#212121"/><path d="M154.18,97.46a12.83,12.83,0,0,0-5-.23c-2.75-1.77-5-3.29-6.48-4.27a3.55,3.55,0,0,1,.43-.23,2.2,2.2,0,0,1,.45-.17s0,0,0,0l.1,0s0,0,0,0a.58.58,0,0,1,.14,0l.11,0h.12l.28,0a22,22,0,0,1,3.08.1A71.29,71.29,0,0,0,154.18,97.46Z" style="fill:#212121"/><path d="M147.1,98.19c-.68.33-1.48.68-2.25,1-2-1.93-3.75-3.72-5.13-5.17a3.16,3.16,0,0,0,.32,0l.27,0,.46-.09.08,0,.27-.08.15-.06a2.85,2.85,0,0,0,.31-.12c.21-.1.41-.21.59-.31A58.7,58.7,0,0,0,147.1,98.19Z" style="fill:#212121"/><path d="M195.75,86.64a129.17,129.17,0,0,0-17.67-3.55l.4-.2.41-.21c3-1.56,13,.54,16.73,1.4A10.21,10.21,0,0,1,195.75,86.64Z" style="fill:#212121"/><path d="M156.65,105.4a15,15,0,0,1-2.63,1.83,120.89,120.89,0,0,1-9.17-8c.77-.33,1.57-.68,2.25-1A82.45,82.45,0,0,0,156.65,105.4Z" style="fill:#ff2b15"/><path d="M159,103.33a1.65,1.65,0,0,0-.67.45,14.42,14.42,0,0,1-1.66,1.62,82.45,82.45,0,0,1-9.55-7.21c.52-.24,1-.47,1.27-.65a3,3,0,0,1,.8-.31C152,99.07,155.42,101.2,159,103.33Z" style="fill:#e1130a"/><path d="M170.68,106.78a4.51,4.51,0,0,1-4.55-.18c-3-1.55-5.52-3.86-7.15-3.27-3.56-2.13-6.95-4.26-9.81-6.1a12.83,12.83,0,0,1,5,.23A184.59,184.59,0,0,0,170.68,106.78Z" style="fill:#ff2b15"/><path d="M172.72,104.89a6.87,6.87,0,0,1-2,1.89,184.59,184.59,0,0,1-16.5-9.32l.47.08a12.92,12.92,0,0,0,3.42-.37C162.71,99.68,167.92,102.45,172.72,104.89Z" style="fill:#e1130a"/><path d="M174,103.23a7.41,7.41,0,0,0-.87,1.08l-.42.58c-4.8-2.44-10-5.21-14.65-7.72a8.09,8.09,0,0,1,3.91.37,5.92,5.92,0,0,0,1.81.32C167.14,99.68,170.68,101.52,174,103.23Z" style="fill:#ff2b15"/><path d="M176.89,101.68a6.71,6.71,0,0,0-2.88,1.55c-3.33-1.71-6.87-3.55-10.22-5.37a10.77,10.77,0,0,0,3.46-.52C170.44,98.8,173.76,100.3,176.89,101.68Z" style="fill:#e1130a"/><path d="M179.35,100.72l-.63.27c-.71.3-1.31.51-1.83.69-3.13-1.38-6.45-2.88-9.64-4.34a17.47,17.47,0,0,0,2.69-1.12C173.08,97.75,176.34,99.29,179.35,100.72Z" style="fill:#ff2b15"/><path d="M181.46,99.24a5.6,5.6,0,0,1-2.11,1.48c-3-1.43-6.27-3-9.41-4.5a15.41,15.41,0,0,0,1.81-1.11C175,96.49,178.32,97.92,181.46,99.24Z" style="fill:#e1130a"/><path d="M182.25,97.26a4.06,4.06,0,0,1-.79,2c-3.14-1.32-6.49-2.75-9.71-4.13.19-.13.36-.27.52-.4a14.78,14.78,0,0,0,1.78-1.79C176.74,94.33,179.56,95.82,182.25,97.26Z" style="fill:#ff2b15"/><path d="M183.13,94.63a2.21,2.21,0,0,0-.75,1.36,9.21,9.21,0,0,1-.13,1.27c-2.69-1.44-5.51-2.93-8.2-4.34a7.73,7.73,0,0,1,1.41-1.31C178,92.6,180.63,93.64,183.13,94.63Z" style="fill:#e1130a"/><path d="M185.07,93.26a9.57,9.57,0,0,0-1.94,1.37c-2.5-1-5.13-2-7.67-3a8.23,8.23,0,0,1,1.69-.86,8,8,0,0,0,1.66-1C180.88,90.9,183,92.1,185.07,93.26Z" style="fill:#ff2b15"/><path d="M189.74,91.29a31,31,0,0,0-4.67,2c-2-1.16-4.19-2.36-6.26-3.49.59-.43,1.21-.94,1.84-1.46C183.74,89.3,186.93,90.34,189.74,91.29Z" style="fill:#e1130a"/><path d="M191.51,90.36a1.32,1.32,0,0,1-.06.39s-.7.2-1.71.54c-2.81-1-6-2-9.09-3a25.47,25.47,0,0,1,2.74-2.06C186.16,87.58,189,89.05,191.51,90.36Z" style="fill:#ff2b15"/><path d="M191.51,90.36c-2.47-1.31-5.35-2.78-8.12-4.11a3.51,3.51,0,0,1,3.18-.61C189.19,86.79,191.65,88.48,191.51,90.36Z" style="fill:#e1130a"/><path d="M195.62,84.08c-3.74-.86-13.76-3-16.73-1.4l-.41.21-.4.2c-1.19-.18-2.26-.33-3.16-.45.68.22,1.45.5,2.29.84l-.05,0-.41.17a31.35,31.35,0,0,1-3.14,1.12l-.5.14c-.73.19-1.35.33-1.82.42-2.69-.83-4.48-1.36-4.61-1.36a9.45,9.45,0,0,0,1.07.39c.73.25,1.65.64,2.72,1.13l-.19.09-.14.09-.22.17-.15.14a1.85,1.85,0,0,0-.14.14l-.47.5c-.11.14-.23.27-.35.41l-.14.15c-.12.15-.24.28-.36.41a2,2,0,0,1-.2.21l-.32.31h0l-.19.17-.21.14s0,0,0,0l-6.76-2.58c.27.13,2.5,1.29,5.72,3l-.09,0L166,89c-.4.11-.84.26-1.29.42l-.72.26h0l-.63.25-.18.07-.45.19c-.43.19-.83.38-1.14.54L155,87.89a31.22,31.22,0,0,0,5.48,3.52c-.38.3-.79.63-1.22,1l-.24.17a2.5,2.5,0,0,1-.24.16,4.86,4.86,0,0,1-.7.4l-7.62-3.59a46.48,46.48,0,0,0,5.72,4l-.32,0-.14,0-.31,0-.66.15-.42.1h0l-.35.07-.33,0-.17,0h-.92l-.29,0c-4.66-2.57-7.89-4.4-8.06-4.49a37.16,37.16,0,0,0,3.25,3,22,22,0,0,0-3.08-.1l-.28,0H144l-.11,0a.58.58,0,0,0-.14,0s0,0,0,0l-.1,0s0,0,0,0a2.2,2.2,0,0,0-.45.17,3.55,3.55,0,0,0-.43.23l-1.81-1.23c.41.52.84,1,1.29,1.54-.18.1-.38.21-.59.31a2.85,2.85,0,0,1-.31.12l-.15.06-.27.08-.08,0-.46.09L140,94a3.16,3.16,0,0,1-.32,0c-2-2.17-3.25-3.58-3.25-3.58,15.43-2.49,28.17-6.6,35.71-10.22,5.36-2.58,12.56-3,19.65-2.11A9.48,9.48,0,0,1,195.62,84.08Z" style="fill:#ff2b15"/><path d="M142.69,93c-.17.09-.34.2-.52.31-.45-.51-.88-1-1.29-1.54Z" style="fill:#e1130a"/><path d="M152.25,94l-.19,0-.28,0-.19-.05a4.63,4.63,0,0,1-.52-.18,1,1,0,0,1-.18-.07l-.25-.11a11.9,11.9,0,0,0-1.8-.67l-.78-.18-.62-.1a37.16,37.16,0,0,1-3.25-3C144.36,89.59,147.59,91.42,152.25,94Z" style="fill:#e1130a"/><path d="M158.09,93.09l-.19.09a1,1,0,0,1-.18.07,1.71,1.71,0,0,1-.38.13l-.19.05a1.86,1.86,0,0,1-.33,0l-.25,0h-.38a46.48,46.48,0,0,1-5.72-4Z" style="fill:#e1130a"/><path d="M161.52,90.71l-.07,0a6.35,6.35,0,0,0-.95.66h0A31.22,31.22,0,0,1,155,87.89Z" style="fill:#e1130a"/><path d="M167.36,88.47l-.17.11-.23.11-.14,0-.14,0-.36.08c-3.22-1.68-5.45-2.84-5.72-3Z" style="fill:#e1130a"/><path d="M171.29,85.36l-.39.06-.2,0-.23.06h0c-1.07-.49-2-.88-2.72-1.13a9.45,9.45,0,0,1-1.07-.39C166.81,84,168.6,84.53,171.29,85.36Z" style="fill:#e1130a"/><path d="M178.08,83.09h0c-.29.14-.56.27-.84.38-.84-.34-1.61-.62-2.29-.84C175.82,82.76,176.89,82.91,178.08,83.09Z" style="fill:#e1130a"/><path d="M137.58,97.24a5.75,5.75,0,0,1-.2,1.14,13.9,13.9,0,0,1-.11,1.59h-.4a45.76,45.76,0,0,0-10.18-5l.72,0,.39,0h.07l.64,0,.54,0,.57,0,1.15.09.45,0,1.11.1c.27,0,.54.06.81.09h0A26.9,26.9,0,0,1,137.58,97.24Z" style="fill:#e1130a"/><path d="M136.87,100c-.25,0-.6,0-1,0h-.23l-.52,0h0a60,60,0,0,0-11.34-3.85,3.86,3.86,0,0,0,.16-.77c0-.13.19-.23.51-.29l.24,0h0l.3,0c.45,0,1,0,1.68,0h0A45.76,45.76,0,0,1,136.87,100Z" style="fill:#ff2b15"/><path d="M135.09,100l-.26,0-.53,0a9.12,9.12,0,0,0-1.34.23l-.23.06a2.41,2.41,0,0,0-.43.15.38.38,0,0,0-.13.06l-.17.08-.07,0-.08,0,0,0,0,0s0,0,0,0h0l-.13.16-.12.22c-2.44-1.14-5.74-2.54-10.2-4.22a1.6,1.6,0,0,1,.31,0,5.16,5.16,0,0,0,.76,0h.16l.23,0,.2,0,.11,0,.1,0,.13-.07s0,0,0,0l.14-.11.09-.11a0,0,0,0,0,0,0l0,0,.09-.15.06-.18A60,60,0,0,1,135.09,100Z" style="fill:#e1130a"/><path d="M127.06,103.48l-.6.23c-.12.06-.24.11-.36.18l-.28.15a3.36,3.36,0,0,0-.54.39l-.11.08-.15.14,0,0-.25.27A117.42,117.42,0,0,1,114,99.7a2.26,2.26,0,0,1,.29-.25l.08,0a1.88,1.88,0,0,1,.23-.16l.07,0A3.07,3.07,0,0,1,115,99l.32-.15h0a2.29,2.29,0,0,1,.37-.12l.27-.07.14,0h0C119.48,100.2,123.47,102,127.06,103.48Z" style="fill:#ff2b15"/><path d="M125.82,104a4.11,4.11,0,0,0-.54.39A3.36,3.36,0,0,1,125.82,104Z" style="fill:#e1130a"/><path d="M116.16,98.64h0l-.14,0-.27.07a2.29,2.29,0,0,0-.37.12h0A1.87,1.87,0,0,0,115,99a3.07,3.07,0,0,0-.31.17l-.07,0a1.88,1.88,0,0,0-.23.16l-.08,0a2.26,2.26,0,0,0-.29.25c-2.1-1.15-4.14-2.29-5.92-3.32a3.27,3.27,0,0,1,.51-.37l.23-.13.3-.13.25-.07.2-.05a1.75,1.75,0,0,1,.32,0l.25,0A67.34,67.34,0,0,0,116.16,98.64Z" style="fill:#2b2b2b"/><path d="M119.14,98.2a2.51,2.51,0,0,1-.74.43l-.1,0h0a.28.28,0,0,1-.13,0h-.1l-.16,0a1.9,1.9,0,0,1-.4,0,3.42,3.42,0,0,0-1-.06l-.18,0h-.13a67.34,67.34,0,0,1-6-3.07h.47l.24,0,.3,0,.19,0,.62.17.19.05.19.06Z" style="fill:#212121"/><path d="M121.3,97h-.17l-.11,0-.19,0-.17.06-.08,0a.81.81,0,0,0-.21.1.59.59,0,0,0-.17.1h0c-.37.24-.69.54-1,.8L112.35,96l.11,0h.08a.38.38,0,0,0,.25,0c.52-.34,2.22-.58,2.87,0a2,2,0,0,0,1.24.14l.26,0,.59-.11.3-.06.16,0h0Q119.85,96.48,121.3,97Z" style="fill:#2b2b2b"/><path d="M126.68,95c-.65,0-1.23,0-1.68,0l-.3,0h0l-.24,0c-.32.06-.5.16-.51.29a3.86,3.86,0,0,1-.16.77c-1.32-.32-2.59-.61-3.77-.86A6.33,6.33,0,0,0,122.07,94a1.58,1.58,0,0,1,.27-.18l.11,0,.08,0C124,94.14,125.38,94.56,126.68,95Z" style="fill:#2b2b2b"/><path d="M137.57,96l-.1,0h-.08l-.77-.1-.52,0-.39,0-.59-.07-1-.11-.69-.07-.31,0h0a53.82,53.82,0,0,0-9.83-1.91,11.37,11.37,0,0,1,1.48-.16l.43,0h.58a106.81,106.81,0,0,1,11.31.66A6.74,6.74,0,0,1,137.57,96Z" style="fill:#2b2b2b"/><path d="M137.11,94a106.81,106.81,0,0,0-11.31-.66h-.58l-.43,0a11.37,11.37,0,0,0-1.48.16h0c-1.53-.16-2.49-.21-2.49-.21l1.72.41-.08,0-.11,0a1.58,1.58,0,0,0-.27.18A6.33,6.33,0,0,1,120,95.32c-3.87-.83-6.78-1.25-7-1.28,1.88.64,3.62,1.26,5.24,1.85l-.16,0-.3.06-.59.11-.26,0a2,2,0,0,1-1.24-.14c-.65-.58-2.35-.34-2.87,0a.38.38,0,0,1-.25,0h-.08l-.11,0-3.06-1a9.15,9.15,0,0,0,.86.57,1,1,0,0,0-.25,0,1.75,1.75,0,0,0-.32,0l-.2.05-.25.07-.3.13-.23.13a3.27,3.27,0,0,0-.51.37c-3.54-2-6.09-3.61-6.28-3.72a176.36,176.36,0,0,0,32.79-1.91A8,8,0,0,1,137.11,94Z" style="fill:#ff2b15"/><path d="M112.35,96l-.19-.06-.19-.05-.62-.17-.19,0-.3,0-.24,0h-.47a9.15,9.15,0,0,1-.86-.57Z" style="fill:#e1130a"/><path d="M120,95.32l-.44.16-.39.14-.94.27h0c-1.62-.59-3.36-1.21-5.24-1.85C113.2,94.07,116.11,94.49,120,95.32Z" style="fill:#e1130a"/><path d="M123.3,93.57a6,6,0,0,0-.6.14l-.17.06-1.72-.41S121.77,93.41,123.3,93.57Z" style="fill:#e1130a"/><path d="M179.6,28.08c-1.92,1.39-8.2,2.09-9.77,1-.15-.09-.29-.19-.45-.3,3.7-1.29,10.36-1.51,7.25-2.64-2.19-.8-8.66-.31-13,0a4.69,4.69,0,0,1-1.15-.9c5.64-1.47,16.77-4,15.23-4.23-1.24-.21-16.26,1.47-24.77,2.07a3.85,3.85,0,0,0-1.56-.3,22.11,22.11,0,0,1-3.08-.21h0c7.94-2.38,36.6-4.7,27.7-6.27-6.78-1.19-32.47,4.09-38,4.61l-.91-.19a17.67,17.67,0,0,1,2.7-1c7.42-2.43,18.09-4.86,25.48-6.59h0a33.5,33.5,0,0,0,6.71-.65c4.36-1,5.06,1.43,6.8,3.7s2.45,3.31,1.74,4.18a6,6,0,0,1-2.78,2.27c-1.22.35,2.62,3.31,3,3.31S181.51,26.68,179.6,28.08Z" style="fill:#e1130a"/><path d="M165.2,13.17c-7.39,1.73-18.06,4.16-25.48,6.59a17.67,17.67,0,0,0-2.7,1,52.56,52.56,0,0,1-11.51-3.69c3.36-1,10.58-3.21,18.26-5.34a8.47,8.47,0,0,0,2.16-.24c2.33-.5.85,1.32,4,1.06-7.52,2-15.08,4-18.36,5.14-6,2,13.28-2.18,27.63-4.91A35.87,35.87,0,0,0,165.2,13.17Z" style="fill:#ff2b15"/><path d="M138.3,10.92A100.19,100.19,0,0,0,125,16.83a11.64,11.64,0,0,1-3.39-2.49h0l.08,0,.11-.05c1.5-.61,10.72-4.24,15.79-3.44Z" style="fill:#ff2b15"/><path d="M159.25,12.8c-14.35,2.73-33.58,6.93-27.63,4.91,3.28-1.11,10.84-3.11,18.36-5.14l.48-.05c3.84-.49,5.76-.73,7.68,0A7.35,7.35,0,0,0,159.25,12.8Z" style="fill:#e1130a"/><path d="M148.27,22.63h0c-2.55-.28-6.35-.82-10.33-1.66,5.57-.52,31.26-5.8,38-4.61C184.87,17.93,156.21,20.25,148.27,22.63Z" style="fill:#ff2b15"/><path d="M169.38,28.82c-1.53-1.05-3.55-2.49-5.14-2.49a1.71,1.71,0,0,1-.65-.13c4.38-.33,10.85-.82,13,0C179.74,27.31,173.08,27.53,169.38,28.82Z" style="fill:#ff2b15"/><path d="M162.44,25.3a3.88,3.88,0,0,0-3.6-1.06c-2.49.37-4.45-.59-5.94-1.1,8.51-.6,23.53-2.28,24.77-2.07C179.21,21.34,168.08,23.83,162.44,25.3Z" style="fill:#ff2b15"/><path d="M133.72,106.29c-.6.32-1.83.44-4.36.11a20.53,20.53,0,0,1-4.64-1.44l.25-.27,0,0,.15-.14.11-.08a4.11,4.11,0,0,1,.54-.39l.28-.15c.12-.07.24-.12.36-.18l.6-.23h0C129.59,104.56,131.94,105.55,133.72,106.29Z" style="fill:#2b2b2b"/><path d="M125.82,104a4.11,4.11,0,0,0-.54.39A3.36,3.36,0,0,1,125.82,104Z" style="fill:#e1130a"/><path d="M135.18,103.71a3.31,3.31,0,0,1-.59.6c-.54.42.12,1.46-.86,2h0c-1.78-.74-4.13-1.73-6.66-2.81l.31-.09a1.05,1.05,0,0,1,.24-.06l.15,0a6.16,6.16,0,0,1,.64-.11l.18,0H129a1.62,1.62,0,0,0,.66-.15,1.38,1.38,0,0,0,.22-.1,2.49,2.49,0,0,0,.3-.19,1.25,1.25,0,0,0,.19-.15.79.79,0,0,0,.2-.17,1.36,1.36,0,0,0,.24-.24C132.49,102.71,134,103.25,135.18,103.71Z" style="fill:#212121"/><path d="M135.51,103.27c-.11.15-.21.29-.33.44-1.2-.46-2.69-1-4.36-1.58a4.67,4.67,0,0,0,.68-.88C133.24,102.06,134.54,102.73,135.51,103.27Z" style="fill:#2b2b2b"/><path d="M137.06,101.09a2.12,2.12,0,0,1-.59,1.12,4.19,4.19,0,0,0-1,1.06c-1-.54-2.27-1.21-4-2l.12-.22.13-.16h0s0,0,0,0l0,0,0,0,.08,0,.07,0,.17-.08a.38.38,0,0,1,.13-.06,2.41,2.41,0,0,1,.43-.15l.23-.06a9.12,9.12,0,0,1,1.34-.23l.53,0,.26,0h0A22.16,22.16,0,0,1,137.06,101.09Z" style="fill:#212121"/><path d="M137.23,100.22a5.15,5.15,0,0,1-.17.87,22.16,22.16,0,0,0-1.95-1.06l.52,0h.23c.41,0,.76,0,1,0Z" style="fill:#2b2b2b"/><path d="M137.27,100a1.87,1.87,0,0,1,0,.25l-.36-.25Z" style="fill:#e1130a"/><path d="M33,45.79a10.64,10.64,0,1,0-5.84,19.53,7.56,7.56,0,0,0,.83,0h0a10.63,10.63,0,0,0,5-19.49Zm2.39,14.35a10.3,10.3,0,0,1-1.89,2.11,10.18,10.18,0,0,1-2.34,1.46,9.9,9.9,0,0,1-5.11.78,10.16,10.16,0,0,1-4.38-1.59,10,10,0,0,1-2.78-2.81,9.6,9.6,0,0,1-1.25-2.78c-.05-.2-.1-.4-.15-.58s-.06-.36-.08-.53a4.76,4.76,0,0,1-.1-.82l0-.7v0l0-.67a6.08,6.08,0,0,1,.09-.83c0-.16.05-.35.09-.53s.1-.38.15-.59a9.72,9.72,0,0,1,1.25-2.78A9.9,9.9,0,0,1,26,44.86c.41,0,.83-.06,1.27-.06a11.65,11.65,0,0,1,1.28.11,9.53,9.53,0,0,1,2.57.74,9.85,9.85,0,0,1,2.34,1.46,10.51,10.51,0,0,1,1.89,2.1,10.69,10.69,0,0,1,1.23,2.6,10,10,0,0,1,0,5.73A10.69,10.69,0,0,1,35.37,60.14Z" style="fill:#2b2b2b"/><path d="M36.6,51.81a10.69,10.69,0,0,0-1.23-2.6,10.51,10.51,0,0,0-1.89-2.1,9.85,9.85,0,0,0-2.34-1.46,9.53,9.53,0,0,0-2.57-.74,11.65,11.65,0,0,0-1.28-.11c-.44,0-.86,0-1.27.06a9.9,9.9,0,0,0-7.15,4.4A9.72,9.72,0,0,0,17.62,52c-.05.21-.1.41-.15.59s-.06.37-.09.53a6.08,6.08,0,0,0-.09.83l0,.67v0l0,.7a4.76,4.76,0,0,0,.1.82c0,.17,0,.34.08.53s.1.38.15.58a9.6,9.6,0,0,0,1.25,2.78,10,10,0,0,0,2.78,2.81A10.16,10.16,0,0,0,26,64.49a9.9,9.9,0,0,0,5.11-.78,10.18,10.18,0,0,0,2.34-1.46,10.3,10.3,0,0,0,1.89-2.11,10.69,10.69,0,0,0,1.23-2.6,10,10,0,0,0,0-5.73Zm-1.18,3.51a5,5,0,0,1-.05.62,8.71,8.71,0,0,1-.22,1.16,10.26,10.26,0,0,1-.94,2.27,9.41,9.41,0,0,1-1.55,1.89,10.32,10.32,0,0,1-2,1.39,8.77,8.77,0,0,1-2.24.78,7.7,7.7,0,0,1-1.16.16h-.58c-.2,0-.42,0-.6,0A9,9,0,0,1,22,62.31a9.32,9.32,0,0,1-2.71-2.52,8.49,8.49,0,0,1-1.25-2.6c0-.2-.1-.38-.14-.56s-.05-.35-.07-.5a5.07,5.07,0,0,1-.07-.79c0-.38,0-.6,0-.65s0-.23.07-.67a5.14,5.14,0,0,1,.12-.78c0-.16.06-.31.11-.49s.11-.34.16-.53a9.06,9.06,0,0,1,1.3-2.52,8.72,8.72,0,0,1,2.68-2.39,9.11,9.11,0,0,1,3.94-1.16,3.39,3.39,0,0,1,.55,0h.51a7.42,7.42,0,0,1,1.18.17c.17,0,.34.06.52.11l.54.18a4.87,4.87,0,0,1,.53.21,3.54,3.54,0,0,1,.53.23A9,9,0,0,1,34,50.11a9.6,9.6,0,0,1,1,2.17,10.11,10.11,0,0,1,.39,2.4Z" style="fill:#97a17e"/><path d="M35.05,52.28a9.6,9.6,0,0,0-1-2.17,9,9,0,0,0-3.5-3.06,3.54,3.54,0,0,0-.53-.23,4.87,4.87,0,0,0-.53-.21l-.54-.18c-.18,0-.35-.07-.52-.11a7.42,7.42,0,0,0-1.18-.17h-.51a3.39,3.39,0,0,0-.55,0,9.11,9.11,0,0,0-3.94,1.16,8.72,8.72,0,0,0-2.68,2.39,9.06,9.06,0,0,0-1.3,2.52c0,.19-.11.37-.16.53s-.07.33-.11.49a5.14,5.14,0,0,0-.12.78c-.05.44-.07.67-.07.67s0,.27,0,.65a5.07,5.07,0,0,0,.07.79c0,.15,0,.32.07.5s.09.36.14.56a8.49,8.49,0,0,0,1.25,2.6A9.32,9.32,0,0,0,22,62.31a9,9,0,0,0,4.05,1.29c.18,0,.4,0,.6,0h.58a7.7,7.7,0,0,0,1.16-.16,8.77,8.77,0,0,0,2.24-.78,10.32,10.32,0,0,0,2-1.39,9.41,9.41,0,0,0,1.55-1.89,10.26,10.26,0,0,0,.94-2.27,8.71,8.71,0,0,0,.22-1.16,5,5,0,0,0,.05-.62l0-.64A10.11,10.11,0,0,0,35.05,52.28ZM25.74,62.35a7.07,7.07,0,1,1,7.07-7.06A7.06,7.06,0,0,1,25.74,62.35Z" style="fill:#2b2b2b"/><path d="M25.74,48.22a7.07,7.07,0,1,0,7.07,7.07A7.07,7.07,0,0,0,25.74,48.22Zm0,11.78a4.71,4.71,0,1,1,4.71-4.71A4.71,4.71,0,0,1,25.74,60Z" style="fill:#ffc548"/><path d="M30.45,55.29a4.71,4.71,0,1,1-4.71-4.71A4.71,4.71,0,0,1,30.45,55.29Z" style="fill:#212121"/><path d="M57.58,57.73c0,5-7.07,8-10.34,11s-8.63,3.53-6-1.31C43.64,62.94,43.93,57,44.43,52a18.67,18.67,0,0,1,.37-3.78,2.19,2.19,0,0,1,1.61-1.63c1.8-.44,4,1.2,5.25,2.26C54.06,50.86,57.58,54.34,57.58,57.73Z" style="fill:#ffc548"/><path d="M110.72,19.72h0q-6.12-.42-12.64-.25Z" style="fill:#ffc548"/><path d="M177.92,116.38c-2.54,1.08-6.17.31-6.17.31-5.7-1.1-12-5-17.73-9.46a15,15,0,0,0,2.63-1.83A126.68,126.68,0,0,0,177.92,116.38Z" style="fill:#212121"/><path d="M193.87,91.63a8.76,8.76,0,0,0-.45.92l-3.68-1.26c1-.34,1.71-.54,1.71-.54a1.32,1.32,0,0,0,.06-.39C192.35,90.8,193.14,91.23,193.87,91.63Z" style="fill:#212121"/><path d="M191.88,97.24c0,.15,0,.29-.08.44s0,.29-.07.44c-2.37-1-5.39-2.21-8.6-3.49a9.57,9.57,0,0,1,1.94-1.37C187.58,94.7,190,96.08,191.88,97.24Z" style="fill:#212121"/><path d="M180.65,88.31c-.63.52-1.25,1-1.84,1.46-3.1-1.68-6.05-3.2-8.34-4.25l.23-.06.2,0,.39-.06C173.83,86.14,177.18,87.19,180.65,88.31Z" style="fill:#2b2b2b"/><path d="M189.59,102.63l-.23.11a3.73,3.73,0,0,0-1.72,2c-2.19-1.11-5.1-2.49-8.29-4a5.6,5.6,0,0,0,2.11-1.48C184.45,100.51,187.25,101.67,189.59,102.63Z" style="fill:#2b2b2b"/><path d="M190.52,101.72a2.6,2.6,0,0,1-.93.91c-2.34-1-5.14-2.12-8.13-3.39a4.06,4.06,0,0,0,.79-2C185.31,98.88,188.19,100.44,190.52,101.72Z" style="fill:#212121"/><path d="M175.46,91.61a7.73,7.73,0,0,0-1.41,1.31c-2.83-1.5-5.51-2.9-7.73-4.06l.36-.08.14,0,.14,0,.23-.11.17-.11Z" style="fill:#2b2b2b"/><path d="M187.64,104.72c-.21.41-.39.84-.56,1.24-2.68-1-6.29-2.56-10.19-4.28.52-.18,1.12-.39,1.83-.69l.63-.27C182.54,102.23,185.45,103.61,187.64,104.72Z" style="fill:#212121"/><path d="M171.75,95.11a15.41,15.41,0,0,1-1.81,1.11c-3.46-1.68-6.77-3.34-9.44-4.81a6.35,6.35,0,0,1,.95-.66l.07,0C164.4,92,168,93.5,171.75,95.11Z" style="fill:#2b2b2b"/><path d="M185.75,109.34a2.15,2.15,0,0,1-1.06.89l-.28.14c-3-1.19-7.15-3.19-11.69-5.48l.42-.58a7.41,7.41,0,0,1,.87-1.08C178.73,105.65,183,107.82,185.75,109.34Z" style="fill:#212121"/><path d="M167.25,97.34a10.77,10.77,0,0,1-3.46.52c-2.73-1.48-5.34-3-7.6-4.36h.38l.25,0a1.86,1.86,0,0,0,.33,0l.19-.05a1.71,1.71,0,0,0,.38-.13,1,1,0,0,0,.18-.07l.19-.09C160.77,94.34,163.94,95.82,167.25,97.34Z" style="fill:#2b2b2b"/><path d="M181.86,112.39c-.45.47-.92,1-1.43,1.65-5.76-1.8-14-6.25-21.45-10.71,1.63-.59,4.14,1.72,7.15,3.27a4.51,4.51,0,0,0,4.55.18C175.14,109.06,179.14,111,181.86,112.39Z" style="fill:#212121"/><path d="M158.07,97.17a12.92,12.92,0,0,1-3.42.37l-.47-.08a71.29,71.29,0,0,1-6.74-4.92l.62.1.78.18a11.9,11.9,0,0,1,1.8.67l.25.11a1,1,0,0,0,.18.07,4.63,4.63,0,0,0,.52.18l.19.05.28,0,.19,0C154,95,156,96,158.07,97.17Z" style="fill:#2b2b2b"/><path d="M149.17,97.23a3,3,0,0,0-.8.31c-.31.18-.75.41-1.27.65a58.7,58.7,0,0,1-4.93-4.92c.18-.11.35-.22.52-.31C144.16,93.94,146.42,95.46,149.17,97.23Z" style="fill:#2b2b2b"/><path d="M133.14,95.48c-.27,0-.54,0-.81-.09l-1.11-.1-.45,0-1.15-.09-.57,0-.54,0-.64,0h-.07l-.39,0-.72,0h0c-1.3-.45-2.68-.87-4.15-1.24l.17-.06a6,6,0,0,1,.6-.14h0A53.82,53.82,0,0,1,133.14,95.48Z" style="fill:#212121"/><path d="M137.58,97.24a26.9,26.9,0,0,0-4.43-1.76l.31,0,.69.07,1,.11.59.07.39,0,.52,0,.77.1h.08l.1,0A6.57,6.57,0,0,1,137.58,97.24Z" style="fill:#212121"/><path d="M123.75,96.18l-.06.18-.09.15,0,0a0,0,0,0,1,0,0l-.09.11-.14.11s0,0,0,0l-.13.07-.1,0L123,97l-.2,0-.23,0h-.16a5.16,5.16,0,0,1-.76,0,1.6,1.6,0,0,0-.31,0h0q-1.45-.56-3.09-1.14l.94-.27.39-.14.44-.16C121.16,95.57,122.43,95.86,123.75,96.18Z" style="fill:#212121"/><path d="M131.5,101.25a4.67,4.67,0,0,1-.68.88c-3.54-1.24-7.85-2.68-11.68-3.93.34-.26.66-.56,1-.8h0a.59.59,0,0,1,.17-.1.81.81,0,0,1,.21-.1l.08,0,.17-.06.19,0,.11,0h.17C125.76,98.71,129.06,100.11,131.5,101.25Z" style="fill:#ff2b15"/><path d="M130.82,102.13a1.36,1.36,0,0,1-.24.24l-.2.17a1.25,1.25,0,0,1-.19.15,2.49,2.49,0,0,1-.3.19l-.22.1a1.62,1.62,0,0,1-.66.15h-.43l-.18,0a6.16,6.16,0,0,0-.64.11l-.15,0a1.05,1.05,0,0,0-.24.06l-.31.09h0c-3.59-1.53-7.58-3.28-10.89-4.84h.12l.18,0a3.42,3.42,0,0,1,1,.06,1.9,1.9,0,0,0,.4,0l.16,0h.1a.28.28,0,0,0,.13,0h0l.1,0a2.51,2.51,0,0,0,.74-.43C123,99.45,127.28,100.89,130.82,102.13Z" style="fill:#e1130a"/><path d="M255,45.21c-.95.44-2,.9-3,1.36a46.55,46.55,0,0,1-12.62,3.29C244,48.39,249.39,46.75,255,45.21Z" style="fill:#e1130a"/><path d="M256,98.43c-14.58-7-30-13.94-32.46-15-2.27-1,.28-.92,6.59.7h0l2.34,1,2,.85,1.46.63,1.33.58.59.26,2.37,1,1.06.46,1.62.71,1.2.53c2.41,1,4.38,1.89,5.52,2.31.54.2,1,.41,1.5.62l.27.14a13.77,13.77,0,0,1,1.39.77l.37.25a8.81,8.81,0,0,1,1.38,1.2l.29.33a7.07,7.07,0,0,1,.48.68l.12.2.11.22.05.09a1.19,1.19,0,0,1,.08.2l.07.16c0,.07,0,.14.08.22s.08.27.12.42v0l.05.22S256,98.38,256,98.43Z" style="fill:#e1130a"/><path d="M222.67,59.46c-2,.18-2-.06-.65-.57A7.16,7.16,0,0,1,222.67,59.46Z" style="fill:#e1130a"/><path d="M261.32,57.21c-.61.7-1.3,1.46-2.08,2.21-10.91.82-23.74,2.13-32.76,3.32a4.85,4.85,0,0,1-2.93-2,4.26,4.26,0,0,0-.88-1.24c1.09-.09,2.75-.31,5.07-.68A170.82,170.82,0,0,1,261.32,57.21Z" style="fill:#ff2b15"/><path d="M262.47,95.73a227.14,227.14,0,0,0-32.31-11.56h0l-.55-.23-1.12-.46-.08,0-.85-.34-.17-.07-1.47-.58c-1.22-.46-2.33-.87-3.29-1.19l-.56-.18a11.79,11.79,0,0,0-2.51-.58c-3.8-.24-3.94,1.46-7.06.41,2.3-4.29,2.43-8,1.91-9.77-.79-2.64.44-5,1.49-9.75a13.94,13.94,0,0,0-.14-4.94A15.92,15.92,0,0,1,222,58.89c-1.39.51-1.34.75.65.57a4.26,4.26,0,0,1,.88,1.24,4.85,4.85,0,0,0,2.93,2c-11.82,1.55-17.06,2.88-2.75,2.54A162.68,162.68,0,0,1,254,67.4,11.6,11.6,0,0,0,252.22,69c-19.9-2.28-47.68-3-32-.45,8.19,1.31,19.92,4.63,29.91,7.75a9.65,9.65,0,0,0,.59,1.65c-20.23-4.56-47-9.36-28.93-4.64,9.05,2.37,22.73,7.63,34.52,12.57.68,1,1.36,1.89,2,2.81-28.67-10.72-46.63-14-31.81-9,7.19,2.43,22.93,9.52,35.73,15.49A5.85,5.85,0,0,1,262.47,95.73Z" style="fill:#2b2b2b"/><path d="M266.39,57.5a4.34,4.34,0,0,1-1.58,1.28,3.88,3.88,0,0,0-.56.3c-1.61.1-3.29.21-5,.34.78-.75,1.47-1.51,2.08-2.21C263.12,57.29,264.81,57.39,266.39,57.5Z" style="fill:#2b2b2b"/><path d="M143.77,11.75c-7.68,2.13-14.9,4.31-18.26,5.34-.18-.08-.34-.17-.51-.26a100.19,100.19,0,0,1,13.3-5.91C141.34,11.41,142.65,11.72,143.77,11.75Z" style="fill:#e1130a"/><path d="M103.63,86.25c-1.83,1.44-5,2.49-6.54,1.83s-2.36,1.44-4.45.79-2.23,1-4.84.52-2,.26-3.67,0a2.85,2.85,0,0,1-.39-.11c-4.8-1.53-9.47-4.17-13.92-6.48l-1.08-.56L67,81.32c-.31-.17-.62-.33-.92-.51l-.8-.44-1-.6-.77-.47c7.77,4.59,21.41,7.71,15,5.49A35.46,35.46,0,0,1,69,79.49c-1.19-1-1.65-1.55-.94-1.24l3,1.31c5.12,2.23,14.38,6.15,11.6,3.9a36.15,36.15,0,0,0-7.32-3.75c-3.91-1.66-7.25-2.92-4.8-2.77,2,.12,6.84,1.66,11,3h0c4.48,1.44,8.13,2.62,6.43,1.46a13.4,13.4,0,0,0-2.83-1.33c-4-1.44-9.26-2.33-7.11-2.33,2.68,0,16.15,2.55,16.76,2.67h0l.5.23C95.82,80.88,104.66,85.44,103.63,86.25Z" style="fill:#ff2b15"/><path d="M81.5,79.92h0c-4.13-1.32-9-2.86-11-3-2.45-.15.89,1.11,4.8,2.77a36.15,36.15,0,0,1,7.32,3.75c2.78,2.25-6.48-1.67-11.6-3.9l-3-1.31c-.71-.31-.25.27.94,1.24a35.46,35.46,0,0,0,9.53,5.3c6.41,2.22-7.23-.9-15-5.49l-1-.66c-1.17-.78-2.55-1.3-2.23-2.94a2.69,2.69,0,0,1,2.15-2.19c1.59-.44,3.67-.12,5-.08a55.46,55.46,0,0,1,6.44.61c.81.12,1.61.26,2.41.42.27,0,.54.1.8.15l.93.19,1.23.27,1,.25,1,.26q.93.24,1.86.51l1,.31.61.18,1.34.43c.57.19,1.14.38,1.71.59L89,78l.19.07,1,.36c.72.28,1.43.57,2.14.87q.63.26,1.26.54c.42.17.83.36,1.24.55-.61-.12-14.08-2.68-16.76-2.67-2.15,0,3.14.89,7.11,2.33a13.4,13.4,0,0,1,2.83,1.33C89.63,82.54,86,81.36,81.5,79.92Z" style="fill:#ffc548"/><path d="M27.82,53.15a2.12,2.12,0,1,1,2.12,2.11A2.12,2.12,0,0,1,27.82,53.15Z" style="fill:#e9e2dc"/><path d="M66.56,44.11c0,1.89-1.17,3.42-2.62,3.42S61.33,46,61.33,44.11s1.17-3.42,2.61-3.42S66.56,42.22,66.56,44.11Z" style="fill:#ffc548"/><path d="M74.93,38.73a2.09,2.09,0,1,1-2.09-2A2,2,0,0,1,74.93,38.73Z" style="fill:#ffc548"/><path d="M78.77,50.34c0,1.51-.86,2.73-1.92,2.73s-1.92-1.22-1.92-2.73.86-2.72,1.92-2.72S78.77,48.84,78.77,50.34Z" style="fill:#ffc548"/><ellipse cx="69.18" cy="57.29" rx="1.57" ry="1.91" style="fill:#ffc548"/><path d="M91,44.16a2.61,2.61,0,0,1-5.06,0,2.61,2.61,0,0,1,5.06,0Z" style="fill:#ffc548"/><path d="M91,36a1.66,1.66,0,1,1-1.66-1.66A1.66,1.66,0,0,1,91,36Z" style="fill:#ffc548"/><path d="M108.09,34.91a2.71,2.71,0,1,1-2.71-2.73A2.73,2.73,0,0,1,108.09,34.91Z" style="fill:#ffc548"/><path d="M99.92,44.16c0,1.09-.64,2-1.42,2s-1.41-.88-1.41-2,.63-2,1.41-2S99.92,43.07,99.92,44.16Z" style="fill:#ffc548"/><path d="M91,54.71a2.14,2.14,0,1,1-2.09-2.59A2.37,2.37,0,0,1,91,54.71Z" style="fill:#ffc548"/><ellipse cx="80.13" cy="61.8" rx="2.65" ry="1.81" style="fill:#ffc548"/><ellipse cx="52.52" cy="44.16" rx="1.83" ry="1.98" style="fill:#ffc548"/><path d="M101.81,53.52c0,.78-.84,1.41-1.87,1.41s-1.87-.63-1.87-1.41.84-1.4,1.87-1.4S101.81,52.75,101.81,53.52Z" style="fill:#ffc548"/><path d="M114.65,45.37a2,2,0,1,1-1.92-2.32A2.14,2.14,0,0,1,114.65,45.37Z" style="fill:#ffc548"/><path d="M125.51,36.34c0,1.78-1.12,3.22-2.49,3.22s-2.49-1.44-2.49-3.22,1.12-3.23,2.49-3.23S125.51,34.55,125.51,36.34Z" style="fill:#ffc548"/><path d="M127.51,49.33a2.3,2.3,0,1,1-2.24-2.79A2.56,2.56,0,0,1,127.51,49.33Z" style="fill:#ffc548"/><ellipse cx="110.22" cy="65.5" rx="2.13" ry="1.89" style="fill:#ffc548"/><path d="M99.92,64.56c0,.52-.64.94-1.42.94s-1.41-.42-1.41-.94.63-1,1.41-1S99.92,64,99.92,64.56Z" style="fill:#ffc548"/><ellipse cx="118.4" cy="60.2" rx="1.58" ry="2.15" style="fill:#ffc548"/><ellipse cx="121.64" cy="72.15" rx="1.66" ry="1.13" style="fill:#ffc548"/><path d="M135.09,66.8a2.39,2.39,0,1,1-2.39-2.25A2.32,2.32,0,0,1,135.09,66.8Z" style="fill:#ffc548"/><circle cx="139.98" cy="53.74" r="2.71" style="fill:#ffc548"/><path d="M142.17,40.84a2.7,2.7,0,1,1-5.3,0,2.7,2.7,0,1,1,5.3,0Z" style="fill:#ffc548"/><ellipse cx="156.48" cy="38.82" rx="3.44" ry="2.48" style="fill:#ffc548"/><path d="M136.47,32.4a1.67,1.67,0,1,1-1.65-1.93A1.8,1.8,0,0,1,136.47,32.4Z" style="fill:#ffc548"/><path d="M154.28,48.56a1.91,1.91,0,1,1-1.91-2A2,2,0,0,1,154.28,48.56Z" style="fill:#ffc548"/><path d="M170.89,50.34a2.85,2.85,0,1,1-2.84-2.72A2.78,2.78,0,0,1,170.89,50.34Z" style="fill:#ffc548"/><ellipse cx="151.6" cy="61.91" rx="2.43" ry="1.7" style="fill:#ffc548"/><path d="M147.44,72.36a2,2,0,1,1-2-2.1A2.05,2.05,0,0,1,147.44,72.36Z" style="fill:#ffc548"/><path d="M108.29,75.69a1.47,1.47,0,1,1-1.46-1.24A1.36,1.36,0,0,1,108.29,75.69Z" style="fill:#ffc548"/><path d="M166.68,62.74a2,2,0,1,1-1.94-2.54A2.3,2.3,0,0,1,166.68,62.74Z" style="fill:#ffc548"/><path d="M183.13,54.29c0,1.19-1.32,2.16-3,2.16s-3-1-3-2.16,1.33-2.17,3-2.17S183.13,53.09,183.13,54.29Z" style="fill:#ffc548"/><path d="M176.5,60.56c0,1-1.17,1.79-2.61,1.79s-2.6-.8-2.6-1.79,1.16-1.78,2.6-1.78S176.5,59.58,176.5,60.56Z" style="fill:#ffc548"/><path d="M197,54.81a2.77,2.77,0,1,1-2.77-2.69A2.73,2.73,0,0,1,197,54.81Z" style="fill:#ffc548"/><path d="M190.52,63.45c0,.61-.69,1.11-1.53,1.11s-1.53-.5-1.53-1.11.68-1.1,1.53-1.1S190.52,62.85,190.52,63.45Z" style="fill:#ffc548"/><path d="M203.67,68.83c0,.79-.86,1.43-1.92,1.43s-1.92-.64-1.92-1.43.86-1.43,1.92-1.43S203.67,68,203.67,68.83Z" style="fill:#ffc548"/><path d="M208.2,64.12c0,.76-.82,1.38-1.83,1.38s-1.83-.62-1.83-1.38.82-1.38,1.83-1.38S208.2,63.36,208.2,64.12Z" style="fill:#ffc548"/><path d="M213.77,58.75a1.45,1.45,0,1,1-1.45-1.46A1.45,1.45,0,0,1,213.77,58.75Z" style="fill:#ffc548"/><path d="M210.87,74.3a1.34,1.34,0,1,1-1.33-1.38A1.36,1.36,0,0,1,210.87,74.3Z" style="fill:#ffc548"/><path d="M194.27,73a1.38,1.38,0,1,1-1.38-1.35A1.36,1.36,0,0,1,194.27,73Z" style="fill:#ffc548"/><path d="M181.86,71.59c0,.74-.85,1.33-1.89,1.33s-1.89-.59-1.89-1.33.84-1.33,1.89-1.33S181.86,70.86,181.86,71.59Z" style="fill:#ffc548"/><path d="M159.25,71.21a.75.75,0,1,1-1.45,0c0-.52.32-.95.72-.95A.87.87,0,0,1,159.25,71.21Z" style="fill:#ffc548"/><path d="M132.13,76.7c0,.56-.65,1-1.45,1s-1.46-.46-1.46-1,.65-1,1.46-1S132.13,76.14,132.13,76.7Z" style="fill:#ffc548"/></g></g></svg>