<svg xmlns="http://www.w3.org/2000/svg" viewBox="0 0 275.21 197.24"><title>Asset 3</title><g id="Layer_2" data-name="Layer 2"><g id="Ñëîé_2" data-name="Ñëîé 2"><path d="M20.55,118.77c-6.21-4.59-10.65-9.78-14.34-14-6.18-7.11-7.55-10-5-12.24,0,0,4.72,9.62,12.41,14.35C19.62,110.53,21.31,115.52,20.55,118.77Z" style="fill:#dbd3ce"/><path d="M250,123.19a0,0,0,0,1,0,0h0Z" style="fill:#3b51f1"/><path d="M240.58,34.31S230.2,45.15,227.83,47.74s1.85-8.58,9.4-17.2C235.88,32.85,238.06,33.85,240.58,34.31Z" style="fill:#3b51f1"/><path d="M258.09,52.73c-19.42,11.07-23.16,11.14-19.34,7.72s13-9.07,9.59-10.91-12.75,9.73-14.2,10,16.51-20,16.51-20a7.22,7.22,0,0,1,1.77,4.2c-.2,3.16,1.38,4,3.74,7.3A5.88,5.88,0,0,0,258.09,52.73Z" style="fill:#3b51f1"/><path d="M266.57,74.55s-15.34,1.54-24.8,1.54,5.54-.62,14.39-3.63,4.82-4.26-3.5-1.69-14.55.92,9.36-6.54c1,2.35,3.09,4,3.21,6.34A5.84,5.84,0,0,0,266.57,74.55Z" style="fill:#3b51f1"/><path d="M262.2,107.85C243.85,101,241.37,97,246.08,99.64s10.15,3,10,1.69-7.61-1.84-8.53-3,17.09,1,17.09,1C261.9,101.41,261.69,104.8,262.2,107.85Z" style="fill:#3b51f1"/><path d="M258.13,117.69c-1,3.35-2.76,4.34-7.49,5.33a5.77,5.77,0,0,0-.66.17h0c-.16-.13-1.46-1.24-10.23-8.94-11.09-9.77-7.24-8.78-3.79-5.23s16.37,9.46,15.38,7.29-14.59-9.66-12.58-9.26S258.13,117.69,258.13,117.69Z" style="fill:#3b51f1"/><path d="M247.17,131a7.25,7.25,0,0,1-.27.87c-1.58,4.14-4.14,4.73-7.16,5.72a13,13,0,0,0-3.23,1.46c-.14-1.9-10.21-20.69-10.61-22.7s1.37.83,2.7,3.29,7.06,13.31,9.28,13.51,1.72-.69-4.19-8.48-7.1-11.63-1.3-4.73S247.17,131,247.17,131Z" style="fill:#3b51f1"/><path d="M231.53,143a6.07,6.07,0,0,1-4.16,0c-6.41-10.42-9.56-23.59-7.38-19.75S231.53,143,231.53,143Z" style="fill:#3b51f1"/><path d="M208.14,108.6a6.19,6.19,0,0,0-3.42-.22c-2.59.5-5.33,2.31-7.91,4.51-5.52,4.74-49.94,7.89-75.18,11.31-16.07,2.17-25.42,4.13-37.82,5.2-7.34-9.14-17.15-18.42-20.28-14.67a15.51,15.51,0,0,0-3.75,12.37c.13,1.07.28,2.13.43,3.15H57.75a70.6,70.6,0,0,1-21-3.15S57,121.83,58,101.58s4.93-31.8,11-13.4,30,33.12,56.81,27.34,48.64-3.41,58.89-6.31S199.24,103.78,208.14,108.6Z" style="fill:#dbd3ce"/><path d="M205.74,73.89c-6.35,4.77-13.46.62-36.14-12.79s-57.17-14.23-86.36-8.37-30,17.84-39.43,23.36c-5.38,3.14-11.21,2.7-15.23,1.75,3.44-2.08,7-4.36,10.5-6.75,12.36-8.41,30.76-25.23,79.13-24.18,4.48.09,8.79.38,12.9.82h0c27.28,2.94,46.1,12.66,55.38,18.59a63.91,63.91,0,0,1,6.63,4.77C197.56,74.21,202,75.05,205.74,73.89Z" style="fill:#dbd3ce"/><path d="M228.76,86.54c13,2.36,34.7,5.32,34.7,8.28s-13.8.39-28.39-1-4.74.4,10.64,7.69,16.76,15.64,9.86,12.35-25-16.09-29-13.14,11.31,14.4,17.68,21.1,1.84,7.49-4.28,3.15S225.54,106.06,221.53,107s5.65,16.76,10.38,24.65,1.38,10.65-4.14,2.17-11.49-23.73-17-23.42c11.61-19,2.33-35-.57-39.2a14.33,14.33,0,0,0,2.62-3.3,20.39,20.39,0,0,0,2.4-5.2c.42-1.71-.11-1.89,1.54-3.22,2.29-1.83,2.19-2.66,1.61-6.79-.09-.64-.19-1.34-.29-2.14-.79-6.05,1.32-4.47,3.15-14.47a13.37,13.37,0,0,0,.26-2.62,13.88,13.88,0,0,0-.09-2.05l-.06-.44-.06-.36c0-.22-.08-.43-.13-.65h0c2.32-2.24,6.25-5.32,8.92-3.52,4,2.68,1.42,6.62-6.67,24.76s-1.58,4.4,10.26-6,18.13-11.38,3.54,7.17S220,71.13,230.1,68s24.68-11.23,27.84-8.86-9.66,9.07-25.44,14.79-10.25,3.35,9.27,4.14,36.67,3.94,20.5,4.73S215.74,84.17,228.76,86.54Z" style="fill:#7394ff"/><path d="M210.8,110.44a6.52,6.52,0,0,0-2.65-1.84h0c-8.9-4.82-13.16-2.28-23.42.61s-32.07.53-58.89,6.31S75.1,106.58,69,88.18s-10-6.83-11,13.4S36.8,127.1,36.8,127.1a55,55,0,0,1-16.25-8.34c.76-3.24-.93-8.23-6.91-11.91C6,102.11,1.23,92.5,1.23,92.5a19.77,19.77,0,0,1,5-2.75A195.89,195.89,0,0,0,28.58,77.84c4,1,9.85,1.39,15.23-1.75,9.46-5.52,10.25-17.51,39.43-23.36s63.69-5,86.36,8.37,29.79,17.56,36.14,12.79a11.55,11.55,0,0,0,4.49-2.65C213.13,75.45,222.41,91.47,210.8,110.44Z" style="fill:#eae3dd"/><path d="M274.37,89.76c-2.89,6.31-2.89,4.21-2.89,9.46s-.27,5-3.68,9-3.95,4.46-4.48,8.93-3.94,7.89-7.61,10S252,130,251.23,133.4s-2.36,3.95-8.14,6.31-4.48,1.84-8.42,4.21-8.41,3.94-10.51,0a22.51,22.51,0,0,1-1-2.35c1.4.49,3.07,1.05,4.23,1.39a6.07,6.07,0,0,0,4.16,0,3.62,3.62,0,0,0,1-.62,34.75,34.75,0,0,1,4-3.27,13,13,0,0,1,3.23-1.46c3-1,5.58-1.58,7.16-5.72a7.25,7.25,0,0,0,.27-.87c.92-3.58-.72-6.72,2.8-7.83a0,0,0,0,1,0,0h0a5.77,5.77,0,0,1,.66-.17c4.73-1,6.5-2,7.49-5.33s5.13-5.12,4.34-8.48c-.1-.44-.2-.89-.27-1.36-.51-3-.3-6.44,2.44-8.49,2.26-1.71,3-4.52,3.9-7.14a17.41,17.41,0,0,1,1.23-2.92,15.8,15.8,0,0,0,1.37-3.3c.05-.18.1-.36.14-.54.67-2.71.55-5.73-1.51-7.79-1.46-1.46-2.49-2.28-3.2-3.12a5.84,5.84,0,0,1-1.34-4c-.12-2.34-2.17-4-3.21-6.34a7,7,0,0,1-.14-5.29c1.53-4.59-1.32-4.79-3.79-6.21a5.88,5.88,0,0,1-1.93-1.68c-2.36-3.35-3.94-4.14-3.74-7.3a7.22,7.22,0,0,0-1.77-4.2c-1.85-2.46-4.74-4.74-6.71-4.87a26.9,26.9,0,0,1-3.36-.37c-2.52-.46-4.7-1.46-3.35-3.77,2-3.35-2.56-6.84-5.71-6.67-2.47.13-8.43,1.05-12.54.66a19.06,19.06,0,0,0-4-4.7s2.11-2.1,7.36-3.15,4.47,3.94,12.1,3.94,12.35,3.42,13.41,8.94,2.88,6.31,7.36,7.62,8.41,8.94,9.46,12.62,2.11,4,2.37,7.1,2.1,3.68,5.52,7.1,1.31,8.15.26,11.3S277.26,83.45,274.37,89.76Z" style="fill:#5572ff"/><path d="M134.5,30.25c-.21,2.77,0,4.63-1.37,2.27a3.26,3.26,0,0,0-2.38-1.8c-.56-1.06-1.09-2.13-1.58-3.21h0c.09-1.88,1.54-3.49,3-5.64C132.77,24.25,133.59,27.22,134.5,30.25Z" style="fill:#303aa9"/><path d="M209.43,61.32c-6.12-1.34-15.8-2.9-22.47-1.4-8,1.82,2.41-4.72,17.18-6.84,5.15-4.14,7.09-11.76,3.07-12.8-10.55,5.18-23.76,12.12-27.94,16.29-5.78,5.77,6.17-10.84,24.82-22.45,3.15-3.52,5.36-6.94,3.17-8.51-4.14-2.95-5.12-2.16-13.21,1.58a34,34,0,0,0-5.12,3h0c-7.86,10.34-15.57,20.32-17.44,22.21-2.66,2.68,7.94-13.19,17-28,1.51-4,1.14-6.69-1.91-7.9a5.73,5.73,0,0,0-4.27-.32A175.05,175.05,0,0,0,166.06,44c-7.47,16.7-.48-9.13,9.27-29.91-.61-4.07-6-4-8.88.93-.28.49-.55,1-.8,1.44-2.94,8.56-5.74,18.31-6.1,25.18-.62,11.68-2.43-6.23.72-26.09-.87-3.36-2.43-3.58-4.66,1-.34.71-.65,1.32-.93,1.85-.8,8.4-1.3,18.05-.26,24.19,1.6,9.42-2.13-7.67-3-23.9-.23-.6-.48-1.31-.77-2.14-1.86-5.21-4.06-3.92-5.79,1,.6,7.67,1.9,17.81,4.67,25.24,4.14,11.12-4.46-4.77-8.38-21.49-1.18-.51-2.7.22-4.7,2.59-1.44,1.71-1.82,4.3-2,6.38,1.85,6.09,4.06,12.41,5.93,14.78a92.87,92.87,0,0,1-9.68-14.31c-.56-1.06-1.09-2.13-1.58-3.21a3.86,3.86,0,0,0,.08,1,6.81,6.81,0,0,1,.06,2.3c-.38,3.07-2.22,6.16-1.37,7.42,1.05,1.58-1,5.33,3.17,9.5h0c27.28,2.93,46.1,12.66,55.38,18.59C210.88,70.58,210,65.88,209.43,61.32ZM140.62,45.26c.51.58.75.87.77.91S141.06,45.8,140.62,45.26Z" style="fill:#7394ff"/><path d="M141.18,21.28c-1.18-.51-2.7.22-4.7,2.59-1.44,1.71-1.82,4.3-2,6.38-.91-3-1.73-6-2.37-8.39a15.8,15.8,0,0,0,2.38-5.33c1-4.43,3.44-3.19,5.16-3.71A70,70,0,0,0,141.18,21.28Z" style="fill:#3b51f1"/><path d="M144.56,18.52c-1.77,5.71,0,8.67-1.38,5.35a4.54,4.54,0,0,0-2-2.59,70,70,0,0,1-1.51-8.46,2.08,2.08,0,0,0,1.41-1.4c.65-1.7,1.88-1.45,3.37-1.38.08,1.93.21,4.53.44,7.49Q144.73,18,144.56,18.52Z" style="fill:#303aa9"/><path d="M151.45,18.67c-.23-.6-.48-1.31-.77-2.14-1.86-5.21-4.06-3.92-5.79,1-.23-3-.36-5.56-.44-7.49a5.09,5.09,0,0,0,5-2.57,6.32,6.32,0,0,1,2.16-2A81.41,81.41,0,0,0,151.45,18.67Z" style="fill:#3b51f1"/><path d="M156.38,4.27c-.44,3-1.14,8.27-1.7,14.11-1.71,3.36-2.14,3.24-3.23.29a81.41,81.41,0,0,1,.2-13.19A12,12,0,0,1,156.38,4.27Z" style="fill:#303aa9"/><path d="M163.11,2.48a110.33,110.33,0,0,0-2.84,13c-.87-3.36-2.43-3.58-4.66,1-.34.71-.65,1.32-.93,1.85.56-5.84,1.26-11.08,1.7-14.11C158.59,4,160.94,3.83,163.11,2.48Z" style="fill:#3b51f1"/><path d="M171.75.23c-1.33,3.21-3.76,9.31-6.1,16.18-3.12,5.77-4.18,9.67-4.72,3.29a23.79,23.79,0,0,0-.66-4.2,110.33,110.33,0,0,1,2.84-13h0a7.23,7.23,0,0,0,1.1-.79C166.23,0,169-.12,171.75.23Z" style="fill:#303aa9"/><path d="M183,.2A102,102,0,0,0,175.33,14c-.61-4.07-6-4-8.88.93-.28.49-.55,1-.8,1.44,2.34-6.87,4.77-13,6.1-16.18,4.06.51,8,2,9.29.94A4.39,4.39,0,0,1,183,.2Z" style="fill:#3b51f1"/><path d="M192.67,2.39c-2.47,3.07-6.26,7.93-10.38,13.82-1.78.66-3.16,2.48-5.19,4.87-3.35,3.94-6.71,6.31-2.76-2.17a8.61,8.61,0,0,0,1-4.87A102,102,0,0,1,183,.2C185.18-.37,188.42.28,192.67,2.39Z" style="fill:#303aa9"/><path d="M188.47,24.43c1.51-4,1.14-6.69-1.91-7.9a5.73,5.73,0,0,0-4.27-.32c4.12-5.89,7.91-10.75,10.38-13.82l.2.09c3.23,1.61,4,2.73,5.88,3.64A197.8,197.8,0,0,1,188.47,24.43Z" style="fill:#3b51f1"/><path d="M205.81,7.84c-3.45,4.6-10.23,13.63-16.88,22.37h0c-5,3.53-7.57,6.82-3.94.92a41.23,41.23,0,0,0,3.49-6.71A197.8,197.8,0,0,0,198.75,6.12,23.93,23.93,0,0,0,205.81,7.84Z" style="fill:#303aa9"/><path d="M204.09,34.12c3.15-3.52,5.36-6.94,3.17-8.51-4.14-2.95-5.12-2.16-13.21,1.58a34,34,0,0,0-5.12,3c6.65-8.74,13.43-17.77,16.88-22.37l1.26.16C217.58,9.31,215,19.83,215,19.83a19.06,19.06,0,0,1,4,4.7A19.79,19.79,0,0,1,220,26.48,75.49,75.49,0,0,0,204.09,34.12Z" style="fill:#3b51f1"/><path d="M99.59,152c-.32,1-.61,2.06-.84,3.06-.81-.1-1.6-.21-2.31-.34.44-1.28,1.1-3.19,1.92-5.37a.87.87,0,0,1,.07,1.27C97.86,151.41,98.5,151.83,99.59,152Z" style="fill:#273596"/><path d="M104.74,151.56c-.57,1.56-1.1,3-1.55,4.2a39.47,39.47,0,0,0-4.44-.7c.23-1,.52-2,.84-3.06A12.63,12.63,0,0,0,104.74,151.56Z" style="fill:#5572ff"/><path d="M108.21,153.12h0a37.23,37.23,0,0,0-.92,4.45,2.77,2.77,0,0,1-2-.78,4.32,4.32,0,0,0-2.14-1c.45-1.2,1-2.64,1.55-4.2a1.27,1.27,0,0,0,.59-.35C106,150.38,107.81,151.82,108.21,153.12Z" style="fill:#273596"/><path d="M113.38,155.08c-.19.73-.39,1.45-.58,2.13-1.59-.05-3.81.5-5.51.37a37.23,37.23,0,0,1,.92-4.45,1.34,1.34,0,0,1,.07.65C108.14,154.75,111.18,155.23,113.38,155.08Z" style="fill:#5572ff"/><path d="M117.88,154.07c-.23,1.49-.44,2.91-.6,4.23-1.17.18-2.22.29-2.75-.45a2.11,2.11,0,0,0-1.73-.64c.19-.68.39-1.4.58-2.13a3.87,3.87,0,0,0,2-.52A4.65,4.65,0,0,1,117.88,154.07Z" style="fill:#273596"/><path d="M123.56,157.17c-.31,1.1-.61,2.16-.94,3.14a2.42,2.42,0,0,1-.47-.62c-1.1-2-3.12-1.65-4.87-1.39.16-1.32.37-2.74.6-4.23,2,0,4.25.59,3.62,1.49S121.94,157,123.56,157.17Z" style="fill:#5572ff"/><path d="M127.64,156.57c-.29,1.69-.56,3.34-.79,4.88-1.75-.06-3.32-.28-4.23-1.14.33-1,.63-2,.94-3.14A9,9,0,0,0,127.64,156.57Z" style="fill:#273596"/><path d="M133.66,157.82c-.25,1.24-.58,2.56-.95,3.87a40.09,40.09,0,0,0-5.86-.24c.23-1.54.5-3.19.79-4.88a.19.19,0,0,1,.08,0C130.28,155.51,132.45,157.41,133.66,157.82Z" style="fill:#5572ff"/><path d="M137.21,157.51c-.25,2.16-.47,4.28-.65,6.27a5.24,5.24,0,0,1-1.26-.93,4.7,4.7,0,0,0-2.59-1.16c.37-1.31.7-2.63.95-3.87.43.15.74.11.9-.3C134.89,156.71,136.08,156.89,137.21,157.51Z" style="fill:#273596"/><path d="M148.44,160c-.1,3.42-.19,6.72-.26,9.61-2.24-.45-4.15-1.09-4.84-2.26h0a54.16,54.16,0,0,0,.81-5.42,3.21,3.21,0,0,0,2.19-1.08A2.42,2.42,0,0,1,148.44,160Z" style="fill:#273596"/><path d="M155.53,165a40.32,40.32,0,0,1-.79,5.77c-2-.39-4.41-.66-6.56-1.1.07-2.89.16-6.19.26-9.61,1.94.09,4.35,1.74,5.6,3.41A8,8,0,0,0,155.53,165Z" style="fill:#5572ff"/><path d="M158.61,166c0,2.43,0,4.75-.05,6.9a2.61,2.61,0,0,1-.39-.57c-.39-.77-1.71-1.22-3.43-1.57a40.32,40.32,0,0,0,.79-5.77A4.33,4.33,0,0,0,158.61,166Z" style="fill:#273596"/><path d="M166.62,175.76l0,0c-2.41-2.4-6.36-1.06-8-2.84,0-2.15,0-4.47.05-6.9a4.78,4.78,0,0,0,2.71-1.36c1.82-1.69,4.74.21,6.42,2,.07,1,.14,1.84.18,2.49A17.44,17.44,0,0,1,166.62,175.76Z" style="fill:#5572ff"/><path d="M166.62,175.76a17.44,17.44,0,0,0,1.3-6.61c0-.65-.11-1.49-.18-2.49.87,1,1.41,1.9,1.27,2.3s1,.87,2.64,1c.19,2.59.42,5.06.69,7.32C170.76,177,168.4,177.5,166.62,175.76Z" style="fill:#273596"/><path d="M130.55,140h0c-.27.06-.52.35-.76,1-.59,1.55-1.68,1.43-2.71,1.12,1.61-9.1,2-16.86,3.89-12.75C131.68,130.89,131.32,135,130.55,140Z" style="fill:#3b51f1"/><path d="M100.07,134.71c-.22,1.43-2.18,4.88-3.94,7.76A18.51,18.51,0,0,1,94.27,141C97.28,138.06,100.39,132.57,100.07,134.71Z" style="fill:#3b51f1"/><path d="M167.92,147.27c-.26,4.11,2.07,3.36-1.14,6-.77-10.95-1.56-23.12-1.17-23.73.64-1,3-5.79,4.39,9.53.11,1.19.2,2.47.29,3.82C169,143.48,168.07,144.88,167.92,147.27Z" style="fill:#3b51f1"/><path d="M225.7,152.17c-.24,1.52-.77,3-1.87,3.38a2.9,2.9,0,0,0-.65.37c-5.06-9-11.74-20.89-15.82-28.59,0-.3,0-.63.06-1,.17-4.74-1.93-6.31-.35-7.5,1.35-1-1.52-8.43-2.35-10.49a6.19,6.19,0,0,1,3.42.22h0a6.52,6.52,0,0,1,2.65,1.84,11.9,11.9,0,0,1,1.79,2.71c3.26,6.54,7.62,20.66,10.21,27.55h0c.11.3.22.59.33.85a20.75,20.75,0,0,0,1,2.35A24.51,24.51,0,0,0,225.7,152.17Z" style="fill:#3b51f1"/><path d="M227,161a10.43,10.43,0,0,1,0,1.68l-3.83-6.76a2.29,2.29,0,0,1,.65-.37c1.1-.42,1.63-1.87,1.87-3.39a9.18,9.18,0,0,0,1.34,2.26C229.94,157.85,226.78,156.28,227,161Z" style="fill:#3b51f1"/><path d="M227,162.69c-.14,1.67-.57,3.23-.75,4.79-1.66-2.42-3.21-4.73-4.67-6.95h0c.11-1.74.45-3.67,1.59-4.59Z" style="fill:#273596"/><path d="M229.38,183.82c-.36-.67-3.46-6.64-7.58-14.63h0a2.34,2.34,0,0,0-.27-.63c-1.71-2.95-.07-3.55,0-5.32,0-.62,0-1.63.06-2.71,1.46,2.22,3,4.53,4.67,6.95a8,8,0,0,0,2,6.67C232.28,178.86,227.37,179.41,229.38,183.82Z" style="fill:#5572ff"/><path d="M227.09,189.81a129.89,129.89,0,0,0-6.63-13.92l0,0a7.9,7.9,0,0,0-.49-1,.56.56,0,0,1,0-.08l-.06-.11c-.28-.53-.57-1.09-.88-1.65h0c-.13-1.58,3.35-1.86,2.84-3.87,4.12,8,7.22,14,7.58,14.63l0,.06C231.12,187.5,229.36,190.09,227.09,189.81Z" style="fill:#273596"/><path d="M227.09,189.81a3.37,3.37,0,0,1-1.62-.68c-2-1.48-5.26-2.26-7.16-1.37-1-2.33-2.28-5.33-3.74-8.77.55.15,1.13.29,1.76.42,5.13,1.05,5.19-1.24,4.13-3.52A129.89,129.89,0,0,1,227.09,189.81Z" style="fill:#5572ff"/><path d="M218.31,187.76a2.57,2.57,0,0,0-1.52,2.07,5,5,0,0,1-2.42,3.26c-1.06-4-3-9.55-5.27-15.73,1,.15,2.83.94,5.47,1.63C216,182.43,217.32,185.43,218.31,187.76Z" style="fill:#273596"/><path d="M214.37,193.09c-2.25,1.44-5.43,1.72-6.77-.8a2.4,2.4,0,0,0-1.51-1.28c-.92-2.86-2.24-7-3.76-11.75,2.16.31,6.54,3.89,5.82.42-.41-2-.13-2.48.95-2.32C211.4,183.54,213.31,189.08,214.37,193.09Z" style="fill:#5572ff"/><path d="M206.09,191c-1.55-.41-3.61.65-5.47.76-.56-2.87-1.44-6.53-2.55-10.75,1.49-.11,2.86-.54,3.22-1.34.17-.4.55-.49,1-.42C203.85,184,205.17,188.15,206.09,191Z" style="fill:#273596"/><path d="M200.62,191.77a3.24,3.24,0,0,1-3.28-1.85c-1.12-2-3.47-2.69-5.9-3.11-.53-2.76-1.33-7-2.27-11.85a4.54,4.54,0,0,0,.44-.28c2.25-1.78,5.23,2.36,4,4.53-.73,1.34,2,2,4.41,1.81C199.18,185.24,200.06,188.9,200.62,191.77Z" style="fill:#5572ff"/><path d="M191.44,186.81c-2.81-.49-5.74-.62-7-2.06a118.54,118.54,0,0,0-1.25-14.55,5.43,5.43,0,0,1,1,2.5c.17,1.12,2.8,3.43,5,2.26C190.11,179.85,190.91,184.05,191.44,186.81Z" style="fill:#273596"/><path d="M184.44,184.75a2.36,2.36,0,0,1-.5-.87c-1.32-3.94-9.21-2.63-10-5.26a1.81,1.81,0,0,0-1.6-1.32c-.27-2.26-.5-4.73-.69-7.32a22.22,22.22,0,0,0,7.62-.63c2-.61,3.21,0,3.92.85A118.54,118.54,0,0,1,184.44,184.75Z" style="fill:#5572ff"/><path d="M164.74,89c-13.67-2.37-14.72-2.1-40.48,2.36S79.56,86.6,76.93,77.4s5-25.23,43.64-25,54.16,20,54.16,20C187.09,84.23,178.41,91.33,164.74,89Z" style="fill:#f2ebe7"/><path d="M26.76,94.92a3.26,3.26,0,1,1-3.26-3.25A3.26,3.26,0,0,1,26.76,94.92Z" style="fill:#2b2b2b"/><path d="M23.5,88.51a6.41,6.41,0,1,0,6.41,6.41A6.41,6.41,0,0,0,23.5,88.51Zm0,9.66a3.25,3.25,0,1,1,3.26-3.25A3.26,3.26,0,0,1,23.5,98.17Z" style="fill:#bc7741"/><path d="M106.71,196.56c0,4.53-11.64-14.79-22.48-22.48-10.39-7.37-20.42-20.26-24-43.83-.15-1-.3-2.08-.43-3.15a15.51,15.51,0,0,1,3.75-12.37c1.12-1.35,3.1-1,5.52.39,0,0-.25,15.14,11.18,23.91s9.07,7.77,1.78,3.83,17.82,19.37,8.12,11.86,8.91,9.61,0,3.71,13.35,13.09,4.09,8.23,5.89,10.17,2.56,7.59c-2.81-2.17.21,4.18,7.11,10.11C107.86,190.48,106.71,192.08,106.71,196.56Z" style="fill:#eae3dd"/><path d="M103.89,184.36c-6.9-5.93-9.92-12.28-7.11-10.11,3.33,2.58-11.82-12.44-2.56-7.59s-13-14.12-4.09-8.23-9.7-11.21,0-3.71S74.71,138.94,82,142.86s9.66,4.95-1.78-3.83-11.18-23.91-11.18-23.91c4.32,2.49,10,8.41,14.76,14.28a87.37,87.37,0,0,1,6.31,8.81h0a22.49,22.49,0,0,1,2.18,4.32,23.06,23.06,0,0,1,1,4.4c.06.37.1.75.13,1.12.2,2.2.17,4.1.42,5.78a7.22,7.22,0,0,0,2,4.28c3.55,3.55-.39,4.34,2.17,7.49s1.58,12.23,5.72,18.54Z" style="fill:#9ab2ed"/><path d="M209.43,61.32c-6.12-1.34-15.8-2.9-22.47-1.4-8,1.82,2.41-4.72,17.18-6.84l-.42.34C197.6,58,208.9,56,209.36,60.71,209.39,60.92,209.41,61.11,209.43,61.32Z" style="fill:#436dd6"/><path d="M207.21,40.28c-10.55,5.18-23.76,12.12-27.94,16.29-5.78,5.77,6.17-10.84,24.82-22.45-2.82,3.16-6.4,6.4-8.26,8.45-4,4.34,3.35-1.58,9.66-2.37A4.55,4.55,0,0,1,207.21,40.28Z" style="fill:#436dd6"/><path d="M188.92,30.22c-7.86,10.34-15.57,20.32-17.44,22.21-2.66,2.68,7.94-13.19,17-28A41.23,41.23,0,0,1,185,31.14C181.35,37,183.88,33.75,188.92,30.22Z" style="fill:#436dd6"/><path d="M182.29,16.21A175.05,175.05,0,0,0,166.06,44c-7.47,16.7-.48-9.13,9.27-29.91a8.61,8.61,0,0,1-1,4.87c-4,8.48-.59,6.11,2.76,2.17C179.13,18.69,180.51,16.87,182.29,16.21Z" style="fill:#436dd6"/><path d="M165.65,16.41c-2.94,8.56-5.74,18.31-6.1,25.18-.62,11.68-2.43-6.23.72-26.09a23.79,23.79,0,0,1,.66,4.2C161.47,26.08,162.53,22.18,165.65,16.41Z" style="fill:#436dd6"/><path d="M151.45,18.67c1.09,2.95,1.52,3.07,3.23-.29-.8,8.4-1.3,18.05-.26,24.19C156,52,152.29,34.9,151.45,18.67Z" style="fill:#436dd6"/><path d="M141.18,21.28a4.54,4.54,0,0,1,2,2.59c1.38,3.32-.39.36,1.38-5.35q.16-.51.33-1c.6,7.67,1.9,17.81,4.67,25.24C153.7,53.89,145.1,38,141.18,21.28Z" style="fill:#436dd6"/><path d="M140.43,45a92.87,92.87,0,0,1-9.68-14.31,3.26,3.26,0,0,1,2.38,1.8c1.35,2.36,1.16.5,1.37-2.27C136.35,36.34,138.56,42.66,140.43,45Z" style="fill:#436dd6"/><path d="M221.52,33.5c-.29.13-6.58,3-14.31,6.78a4.35,4.35,0,0,0-1.72-.08c-6.31.79-13.61,6.71-9.66,2.37,1.86-2,5.44-5.29,8.26-8.45A75.49,75.49,0,0,1,220,26.48c.11.27.23.53.34.82s.22.55.31.84a.12.12,0,0,1,0,.08c0,.11.08.22.11.33s.07.23.11.35a3.38,3.38,0,0,1,.08.34c.07.24.13.5.18.76h0c0,.22.09.43.13.65l.06.36.06.44A13.88,13.88,0,0,1,221.52,33.5Z" style="fill:#303aa9"/><path d="M221.26,36.12c-1.83,10-3.94,8.42-3.15,14.47.1.8.2,1.5.29,2.14a57.71,57.71,0,0,0-14.26.34c5.15-4.13,7.09-11.75,3.07-12.79,7.73-3.8,14-6.65,14.31-6.78A13.37,13.37,0,0,1,221.26,36.12Z" style="fill:#3b51f1"/><path d="M215.25,62.74a20.39,20.39,0,0,1-2.4,5.2,14.33,14.33,0,0,1-2.62,3.3,11.55,11.55,0,0,1-4.49,2.65c-3.76,1.16-8.18.32-12.61-2.8a63.91,63.91,0,0,0-6.63-4.77c24.38,4.25,23.46-.44,22.93-5C212.91,62.06,215.25,62.74,215.25,62.74Z" style="fill:#3b51f1"/><path d="M216.79,59.52c-1.65,1.33-1.12,1.51-1.54,3.22,0,0-2.34-.68-5.82-1.43,0-.2,0-.4-.07-.6-.46-4.73-11.76-2.76-5.64-7.3.14-.11.28-.21.42-.34a57.71,57.71,0,0,1,14.26-.34C219,56.86,219.08,57.69,216.79,59.52Z" style="fill:#303aa9"/><path d="M268.54,92.21c-.89,2.62-1.64,5.44-3.9,7.14,0,0-18-2.23-17.09-1s8.38,1.71,8.53,3-5.3,1-10-1.68-2.23,1.32,16.12,8.21c.07.46.17.92.27,1.36.79,3.35-3.34,5.13-4.34,8.48,0,0-17.38-10.25-19.38-10.65s11.6,7.1,12.58,9.27S239.4,112.56,236,109s-7.3-4.53,3.79,5.23c8.77,7.71,10.07,8.82,10.23,9-3.52,1.11-1.88,4.25-2.8,7.83,0,0-9-4.16-14.78-11.07s-4.62-3,1.3,4.74,6.41,8.67,4.19,8.48-8-11-9.28-13.51-3.09-5.31-2.7-3.3,10.47,20.81,10.61,22.7a35.08,35.08,0,0,0-4,3.28,3.89,3.89,0,0,1-1,.62S222.15,127,220,123.2s1,9.34,7.38,19.76c-1.16-.34-2.83-.9-4.23-1.4-.11-.26-.22-.55-.33-.85h0c-2.59-6.89-7-21-10.21-27.55a11.9,11.9,0,0,0-1.79-2.71c5.48-.31,11.46,15,17,23.42s8.87,5.72,4.14-2.17S217.52,108,221.53,107,233.88,120.65,240,125s10.65,3.55,4.28-3.15-21.63-18.14-17.68-21.1,22.08,9.86,29,13.14,5.52-5.05-9.86-12.35-25.24-9.07-10.64-7.69,28.39,4,28.39,1-21.69-5.92-34.7-8.28,17.35-3,33.51-3.75-1-3.94-20.5-4.73-25,1.58-9.27-4.14,28.59-12.42,25.44-14.79S240.19,64.85,230.1,68s-7.46,3,7.13-15.56,8.29-17.55-3.54-7.17-18.34,24.12-10.26,6,10.65-22.08,6.67-24.76c-2.67-1.8-6.6,1.28-8.92,3.52a4.68,4.68,0,0,0-.18-.76,3.38,3.38,0,0,0-.08-.34c0-.12-.07-.24-.11-.35s-.07-.22-.11-.33a.12.12,0,0,0,0-.08c-.09-.29-.2-.57-.31-.84s-.23-.55-.34-.82A18.72,18.72,0,0,0,219,24.53c4.11.39,10.07-.54,12.54-.66,3.15-.18,7.69,3.32,5.71,6.67-7.55,8.61-11.76,19.78-9.4,17.19s12.75-13.42,12.75-13.42a28.93,28.93,0,0,0,3.36.37c2,.13,4.86,2.41,6.71,4.87,0,0-18,20.23-16.51,20s10.78-11.83,14.2-10-5.78,7.49-9.59,10.92-.08,3.35,19.34-7.72c2.47,1.42,5.32,1.62,3.79,6.2a6.94,6.94,0,0,0,.14,5.29c-23.91,7.47-17.69,9.11-9.36,6.54s12.36-1.31,3.5,1.7-23.86,3.63-14.39,3.63,24.8-1.54,24.8-1.54c.71.83,1.74,1.65,3.2,3.11,2.06,2.07,2.18,5.08,1.51,7.8a174.08,174.08,0,0,0-22.15.54C238,87.1,258.45,88.88,268.54,92.21Z" style="fill:#303aa9"/><path d="M271.28,85.46c0,.18-.09.36-.14.54a15.8,15.8,0,0,1-1.37,3.3,17.41,17.41,0,0,0-1.23,2.92C258.45,88.88,238,87.1,249.13,86A174.08,174.08,0,0,1,271.28,85.46Z" style="fill:#3b51f1"/><path d="M98.36,149.35c-.82,2.18-1.48,4.09-1.92,5.37a5.88,5.88,0,0,1-2.6-.89c-.25-1.68-.22-3.58-.42-5.77C93.42,148.06,97.22,148.29,98.36,149.35Z" style="fill:#5572ff"/><path d="M102.69,144.08a.88.88,0,0,0-.71.23,1.94,1.94,0,0,1-1.72.17c2.1-5.12,4.59-10.26,6.6-11.74C109.59,130.74,106,136.61,102.69,144.08Z" style="fill:#3b51f1"/><path d="M115.58,132.35c-1.16,3.45-3.52,9-5.45,14.59-1.56-1-3-1.42-3.27-.62-.06.21-.15.32-.28.35,2.26-6,4.72-12.23,5.85-14.32C114.79,128,118.14,124.72,115.58,132.35Z" style="fill:#3b51f1"/><path d="M110.13,146.94c-.73,2.1-1.4,4.19-1.92,6.18-.4-1.3-2.21-2.74-2.88-1.91a1.27,1.27,0,0,1-.59.35c.58-1.54,1.2-3.2,1.84-4.89.13,0,.22-.14.28-.35C107.12,145.52,108.57,146,110.13,146.94Z" style="fill:#303aa9"/><path d="M118.36,151.34c-1.66,1.65-3.51,1.95-4,.27a1.87,1.87,0,0,0-.07-.22h0c.72-2.84,1.44-5.7,2.17-8,2.83-9.07,5.58-18.34,6-14.4C122.71,131.23,120.06,141.9,118.36,151.34Z" style="fill:#3b51f1"/><path d="M118.36,151.34q-.26,1.4-.48,2.73a4.65,4.65,0,0,0-2.5.49,3.87,3.87,0,0,1-2,.52l1-3.69a1.87,1.87,0,0,1,.07.22C114.85,153.29,116.7,153,118.36,151.34Z" style="fill:#303aa9"/><path d="M127.07,142.08c-.25,1.4-.53,2.82-.84,4.24-.78,3.53-1.7,7.41-2.67,10.85-1.62-.15-2.63-.81-2.06-1.61s-1.63-1.47-3.62-1.49q.23-1.33.48-2.73a10.29,10.29,0,0,0,2.74-5.85c.79-5.91,3.35-1.57,3.75-3.35C125,141.24,126,141.76,127.07,142.08Z" style="fill:#3b51f1"/><path d="M130.54,140c-.76,5.06-1.95,11.11-2.9,16.59a9,9,0,0,1-4.08.6c1-3.44,1.89-7.32,2.67-10.85.31-1.42.59-2.84.84-4.24,1,.31,2.12.43,2.71-1.12C130,140.33,130.27,140,130.54,140Z" style="fill:#303aa9"/><path d="M137.81,152.4a11,11,0,0,1-3.23-.79c1.14-9.51,2.37-23.67,4.86-23.85C141.07,127.65,139.33,140,137.81,152.4Z" style="fill:#3b51f1"/><path d="M137.81,152.4c-.21,1.71-.42,3.43-.6,5.11-1.13-.62-2.32-.8-2.65,0-.16.41-.47.45-.9.3.1-.47.19-.93.26-1.37.22-1.35.44-3,.66-4.84A11,11,0,0,0,137.81,152.4Z" style="fill:#303aa9"/><path d="M144.15,162a54.16,54.16,0,0,1-.81,5.42,1.91,1.91,0,0,1-.16-.32c-1.13-3.16-4-1.85-6.62-3.27.18-2,.4-4.11.65-6.27a4.49,4.49,0,0,1,2.23,2.38C139.71,161.13,142.13,162.18,144.15,162Z" style="fill:#5572ff"/><path d="M145.2,149.46c-.38,4.55-.71,9.06-1,12.49-2,.23-4.44-.82-4.71-2.06a4.49,4.49,0,0,0-2.23-2.38c.18-1.68.39-3.4.6-5.11,1.82.11,3.08-.54,3.59-2C141.8,149.32,143.59,149.6,145.2,149.46Z" style="fill:#3b51f1"/><path d="M148.89,141.62c-.87.45-1.21,1.63-1,4.7.19,2.49-1.18,3-2.72,3.14.73-9,1.6-18.06,2.91-19.28C148.82,129.52,149,134.54,148.89,141.62Z" style="fill:#3b51f1"/><path d="M148.89,141.62c-.06,5.46-.26,12.15-.45,18.41a2.42,2.42,0,0,0-2.1.84,3.21,3.21,0,0,1-2.19,1.08c.34-3.43.67-7.94,1-12.49,1.54-.13,2.91-.65,2.72-3.14C147.68,143.25,148,142.07,148.89,141.62Z" style="fill:#303aa9"/><path d="M158.56,153a.54.54,0,0,0-.09.15c-.29.67-1.51.49-2.75-.13,0-11.33-.35-23.78,1.07-23.92C157.92,129,158.41,140.45,158.56,153Z" style="fill:#3b51f1"/><path d="M158.61,166a4.33,4.33,0,0,1-3.08-1c.19-3.28.22-7.52.19-11.92,1.24.62,2.46.8,2.75.13a.54.54,0,0,1,.09-.15C158.61,157.35,158.63,161.8,158.61,166Z" style="fill:#303aa9"/><path d="M171.65,170c-1.67-.15-2.8-.52-2.64-1s-.4-1.34-1.27-2.3c-.23-3.27-.6-8.21-1-13.41,3.21-2.62.88-1.87,1.14-6,.15-2.39,1.1-3.79,2.37-4.4C170.8,150.79,171,161.06,171.65,170Z" style="fill:#303aa9"/><path d="M207.36,127.33c-.23,2.39-1,3.69-2,3.89-5-11.92-3.3-14.91-1.17-10.18C204.78,122.39,205.91,124.59,207.36,127.33Z" style="fill:#3b51f1"/><path d="M201.18,128.59c-1.22-.7-2-.38-1.51,1.59.33,1.37-.12,1.94-.88,2.19-6.16-15.31-3.43-16.81-.14-9.16C199.16,124.38,200,126.23,201.18,128.59Z" style="fill:#3b51f1"/><path d="M195.06,133h0c-1.11,1-.19,4.51-1.4,6a.52.52,0,0,1-.1.11c-1.76-4.08-3.17-7.25-3.95-9-4.06-8.87-.68-12.29,3-3.08C193.1,128.32,193.94,130.38,195.06,133Z" style="fill:#3b51f1"/><path d="M190.27,140.62c-1.06-.12-2.12-.86-2.92-2.62-1.77-3.94-2.37-3.35-1.58-.39a1.57,1.57,0,0,1-.12,1.42c-3.94-15.58.14-16,2.12-7.42C188.18,133.38,189.08,136.57,190.27,140.62Z" style="fill:#3b51f1"/><path d="M182.12,139.23l-.69-.16c-1.1-.26-3.73-4.21-4.57-1.73a39.89,39.89,0,0,1-1.08-7.16c.27-5.59,3.15-3.87,4.89,2.56C181,133.81,181.47,136.12,182.12,139.23Z" style="fill:#3b51f1"/><path d="M183.19,170.2c-.71-.87-1.89-1.46-3.92-.85a22.22,22.22,0,0,1-7.62.63c-.65-8.92-.85-19.19-1.36-27.11a4.6,4.6,0,0,1,3.85.09c2.76,1.22,2-1.21,2.56-5a4,4,0,0,1,.16-.66C178.47,145.26,181.48,158,183.19,170.2Z" style="fill:#3b51f1"/><path d="M189.17,175c-2.19,1.17-4.82-1.14-5-2.26a5.43,5.43,0,0,0-1-2.5c-1.71-12.21-4.72-24.94-6.33-32.86.84-2.48,3.47,1.47,4.57,1.73l.69.16C184,148.09,187,163.42,189.17,175Z" style="fill:#303aa9"/><path d="M198.07,181c-2.42.19-5.14-.47-4.41-1.81,1.18-2.17-1.8-6.31-4-4.53a4.54,4.54,0,0,1-.44.28c-2.22-11.54-5.2-26.87-7-35.73,1.15.29,2.94.63,3.53-.2.55,2.14,1.24,4.57,2.12,7.29C191.74,158.76,195.52,171.35,198.07,181Z" style="fill:#3b51f1"/><path d="M202.33,179.26c-.49-.07-.87,0-1,.42-.36.8-1.73,1.23-3.22,1.34-2.55-9.67-6.33-22.26-10.3-34.7-.88-2.72-1.57-5.15-2.12-7.29a1.57,1.57,0,0,0,.12-1.42c-.79-3-.19-3.55,1.58.39.8,1.76,1.86,2.5,2.92,2.62h0C193.37,151.07,198.48,167.24,202.33,179.26Z" style="fill:#303aa9"/><path d="M208.15,179.68c.72,3.47-3.66-.11-5.82-.42-3.85-12-9-28.19-12.05-38.64a3.93,3.93,0,0,0,3.28-1.46c4.32,10,10.79,25.44,15.54,38.2C208,177.2,207.74,177.71,208.15,179.68Z" style="fill:#3b51f1"/><path d="M214.57,179c-2.64-.69-4.43-1.48-5.47-1.63-4.75-12.76-11.22-28.19-15.54-38.2a.52.52,0,0,0,.1-.11c1.21-1.51.29-5,1.4-6C199.63,144,208.6,165,214.57,179Z" style="fill:#303aa9"/><path d="M216.33,179.41c-.63-.13-1.21-.27-1.76-.42-6-14-14.94-35-19.51-46h0a1,1,0,0,1,.57-.29,22.48,22.48,0,0,0,3.16-.37c1.23,3.08,2.84,6.73,4.86,11,5.62,11.75,11,21.62,15.31,29.73h0a1.81,1.81,0,0,0,.34.82c.18.26.37.54.54.83l.06.11a.56.56,0,0,0,0,.08c.17.33.34.64.49,1l0,0C221.52,178.17,221.46,180.46,216.33,179.41Z" style="fill:#3b51f1"/><path d="M219,173.06c-4.31-8.11-9.69-18-15.31-29.73-2-4.23-3.63-7.88-4.86-11,.76-.25,1.21-.82.88-2.19-.47-2,.29-2.29,1.51-1.59,4.71,9.7,14,27.76,20.62,40.6h0C222.31,171.2,218.83,171.48,219,173.06Z" style="fill:#303aa9"/><path d="M221.8,169.19c-6.63-12.84-15.91-30.9-20.62-40.6a9.31,9.31,0,0,1,1.94,1.59,2.62,2.62,0,0,0,2.22,1c2.85,6.79,7.89,16.48,16.25,29.3h0c-.06,1.08,0,2.09-.06,2.71-.07,1.77-1.71,2.37,0,5.32A2.34,2.34,0,0,1,221.8,169.19Z" style="fill:#3b51f1"/><path d="M223.18,155.93c-1.14.92-1.48,2.85-1.59,4.59-8.36-12.82-13.4-22.51-16.25-29.3,1-.2,1.79-1.5,2-3.89C211.44,135,218.12,147,223.18,155.93Z" style="fill:#303aa9"/><path d="M102.69,144.08a79.25,79.25,0,0,0-3.1,7.92c-1.09-.17-1.73-.59-1.16-1.38a.87.87,0,0,0-.07-1.27c.57-1.54,1.21-3.2,1.9-4.87a1.94,1.94,0,0,0,1.72-.17A.88.88,0,0,1,102.69,144.08Z" style="fill:#303aa9"/><path d="M106.58,146.67c-.64,1.69-1.26,3.35-1.84,4.89a12.63,12.63,0,0,1-5.15.44,79.25,79.25,0,0,1,3.1-7.92C104.06,144.2,105.82,146.9,106.58,146.67Z" style="fill:#3b51f1"/><path d="M114.33,151.38h0l-1,3.69c-2.2.15-5.24-.33-5.1-1.3a1.34,1.34,0,0,0-.07-.65h0c.52-2,1.19-4.08,1.92-6.18C111.89,148,113.78,149.82,114.33,151.38Z" style="fill:#3b51f1"/><path d="M134.58,151.61c-.22,1.83-.44,3.49-.66,4.84-.07.44-.16.9-.26,1.37-1.21-.41-3.38-2.31-5.94-1.28a.19.19,0,0,0-.08,0c1-5.48,2.14-11.53,2.9-16.59h0c1.06-.22,2.18,3.43,2.18,5.32,0,2.36-1.77,4.93,1.83,6.31Z" style="fill:#3b51f1"/><path d="M155.53,165a8,8,0,0,1-1.49-1.53c-1.25-1.67-3.66-3.32-5.6-3.41.19-6.26.39-12.95.45-18.41a5.66,5.66,0,0,1,2.39-.27c2.59,0,2.55,4.74,1.57,7.5-.57,1.6,1.17,3.32,2.87,4.2C155.75,157.45,155.72,161.69,155.53,165Z" style="fill:#3b51f1"/><path d="M167.74,166.66c-1.68-1.83-4.6-3.73-6.42-2a4.78,4.78,0,0,1-2.71,1.36c0-4.18,0-8.63-.05-12.95.74-.92,2.38,4.73,7.05,1.14.46-.35.85-.65,1.17-.92C167.14,158.45,167.51,163.39,167.74,166.66Z" style="fill:#3b51f1"/><path d="M207.42,126.37q0,.51-.06,1c-1.45-2.74-2.58-4.94-3.19-6.29-2.13-4.73-3.83-1.74,1.17,10.18a2.62,2.62,0,0,1-2.22-1,9.31,9.31,0,0,0-1.94-1.59c-1.15-2.36-2-4.21-2.53-5.38-3.29-7.65-6-6.15.14,9.16a22.48,22.48,0,0,1-3.16.37,1,1,0,0,0-.57.29c-1.12-2.65-2-4.71-2.45-5.93-3.68-9.21-7.06-5.79-3,3.08.78,1.73,2.19,4.9,3.95,9a3.93,3.93,0,0,1-3.28,1.46h0c-1.19-4.05-2.09-7.24-2.5-9-2-8.59-6.06-8.16-2.12,7.42-.59.83-2.38.49-3.53.2-.65-3.11-1.16-5.42-1.45-6.49-1.74-6.43-4.62-8.15-4.89-2.56a39.89,39.89,0,0,0,1.08,7.16,4,4,0,0,0-.16.66c-.59,3.75.2,6.18-2.56,5a4.6,4.6,0,0,0-3.85-.09c-.09-1.35-.18-2.63-.29-3.82-1.38-15.32-3.75-10.51-4.39-9.53-.39.61.4,12.78,1.17,23.73-.32.27-.71.57-1.17.92-4.67,3.59-6.31-2.06-7.05-1.14-.15-12.58-.64-24-1.77-23.9-1.42.14-1.1,12.59-1.07,23.92-1.7-.88-3.44-2.6-2.87-4.2,1-2.76,1-7.5-1.57-7.5a5.66,5.66,0,0,0-2.39.27c.07-7.08-.07-12.1-.78-11.44-1.31,1.22-2.18,10.32-2.91,19.28-1.61.14-3.4-.14-3.8,1-.51,1.44-1.77,2.09-3.59,2,1.52-12.43,3.26-24.75,1.63-24.64-2.49.18-3.72,14.34-4.86,23.85h0c-3.6-1.38-1.83-4-1.83-6.31,0-1.89-1.12-5.54-2.18-5.32.77-5,1.13-9.09.41-10.65-1.88-4.11-2.28,3.65-3.89,12.75-1.06-.32-2-.84-2.22.06-.4,1.78-3-2.56-3.75,3.35a10.29,10.29,0,0,1-2.74,5.85c1.7-9.44,4.35-20.11,4.11-22.41-.39-3.94-3.14,5.33-6,14.4-.73,2.35-1.45,5.21-2.17,8-.55-1.56-2.44-3.35-4.2-4.44,1.93-5.57,4.29-11.14,5.45-14.59,2.56-7.63-.79-4.4-3.15,0-1.13,2.09-3.59,8.35-5.85,14.32-.76.23-2.52-2.47-3.89-2.59,3.35-7.47,6.9-13.34,4.17-11.34-2,1.48-4.5,6.62-6.6,11.74a14.23,14.23,0,0,1-4.13-2c1.76-2.88,3.72-6.33,3.94-7.76.32-2.14-2.79,3.35-5.8,6.33a3.86,3.86,0,0,1-.77-.87c-.77-1.33-3.21-1.92-3.37-2h0a87.35,87.35,0,0,0-6.31-8.8c12.4-1.08,21.75-3,37.82-5.21,25.24-3.42,69.66-6.57,75.18-11.3,2.58-2.2,5.32-4,7.91-4.51.83,2.06,3.7,9.47,2.35,10.49C205.49,120.06,207.59,121.64,207.42,126.37Z" style="fill:#7394ff"/><path d="M94.27,141a7.77,7.77,0,0,1-2,1.5,22.81,22.81,0,0,0-2.18-4.33c.16,0,2.6.63,3.37,2A3.86,3.86,0,0,0,94.27,141Z" style="fill:#3b51f1"/><path d="M100.26,144.48c-.69,1.67-1.33,3.33-1.9,4.87-1.14-1.06-4.94-1.29-4.94-1.29,0-.37-.07-.75-.13-1.13,0,0,1.34-2,2.84-4.46A14.23,14.23,0,0,0,100.26,144.48Z" style="fill:#3b51f1"/><path d="M96.13,142.47c-1.5,2.43-2.84,4.46-2.84,4.46a22.8,22.8,0,0,0-1-4.39,7.77,7.77,0,0,0,2-1.5A18.51,18.51,0,0,0,96.13,142.47Z" style="fill:#303aa9"/><path d="M24.44,93.29a2.32,2.32,0,1,1,2.32,2.32A2.32,2.32,0,0,1,24.44,93.29Z" style="fill:#eae3dd"/><path d="M42.18,117.38s10-11.27,6-22.46,5.78-2.65,6.84,6.4-6.84,17.64-12.88,19S42.18,117.38,42.18,117.38Z" style="fill:#f2ebe7"/><path d="M195.11,80.19c0,.68-.34,1.24-.77,1.24s-.78-.56-.78-1.24.35-1.23.78-1.23S195.11,79.51,195.11,80.19Z" style="fill:#7394ff"/><path d="M202.94,81.34c0,.64-.8,1.15-1.78,1.15s-1.77-.51-1.77-1.15.79-1.15,1.77-1.15S202.94,80.71,202.94,81.34Z" style="fill:#7394ff"/><ellipse cx="206.74" cy="81.34" rx="1.4" ry="1.15" style="fill:#7394ff"/><ellipse cx="200.65" cy="87.2" rx="1.26" ry="0.98" style="fill:#7394ff"/><path d="M205.81,89.34a2.2,2.2,0,0,1,0,.57,5.43,5.43,0,0,1,0-1.14A2.2,2.2,0,0,1,205.81,89.34Z" style="fill:#7394ff"/><path d="M206.74,89.34a.49.49,0,1,1-.48-.57A.54.54,0,0,1,206.74,89.34Z" style="fill:#7394ff"/><ellipse cx="198.04" cy="77.71" rx="0.75" ry="0.83" style="fill:#7394ff"/><path d="M196.81,90c0,.34-.4.61-.88.61s-.87-.27-.87-.61.39-.61.87-.61S196.81,89.61,196.81,90Z" style="fill:#7394ff"/><ellipse cx="210.46" cy="77.92" rx="1.03" ry="1.04" style="fill:#7394ff"/><path d="M213.45,85.31a1,1,0,1,1-1-.92A1,1,0,0,1,213.45,85.31Z" style="fill:#7394ff"/><path d="M212.83,93.17a1.21,1.21,0,1,1-1.18-1A1.08,1.08,0,0,1,212.83,93.17Z" style="fill:#7394ff"/><path d="M212.47,101a1.13,1.13,0,1,1-1.12-1A1.06,1.06,0,0,1,212.47,101Z" style="fill:#7394ff"/><path d="M188.92,75.63a1.49,1.49,0,1,1-1.47-1.24A1.37,1.37,0,0,1,188.92,75.63Z" style="fill:#7394ff"/><path d="M195.11,85.31a1.1,1.1,0,0,1-1.22.92c-.67,0-1.22-.42-1.22-.92s.55-.92,1.22-.92S195.11,84.8,195.11,85.31Z" style="fill:#7394ff"/><ellipse cx="206.62" cy="95.82" rx="0.81" ry="1.05" style="fill:#7394ff"/><path d="M204.07,92.69c0,.26-.49.48-1.08.48s-1.08-.22-1.08-.48.48-.47,1.08-.47S204.07,92.43,204.07,92.69Z" style="fill:#7394ff"/><path d="M203,102.65a1.18,1.18,0,1,1-1.17-1.33A1.26,1.26,0,0,1,203,102.65Z" style="fill:#7394ff"/><ellipse cx="206.48" cy="102.45" rx="0.73" ry="0.45" style="fill:#7394ff"/><path d="M210.32,107.45a1.1,1.1,0,1,1-1.09-.94A1,1,0,0,1,210.32,107.45Z" style="fill:#7394ff"/><path d="M193.56,104.63c0,.36-.48.66-1.07.66s-1.08-.3-1.08-.66.48-.66,1.08-.66S193.56,104.27,193.56,104.63Z" style="fill:#7394ff"/><path d="M180.67,69.35a.73.73,0,1,1-.73-.8A.77.77,0,0,1,180.67,69.35Z" style="fill:#7394ff"/><path d="M177.81,64.21c0,.38-.46.69-1,.69s-1-.31-1-.69.46-.69,1-.69S177.81,63.83,177.81,64.21Z" style="fill:#7394ff"/><path d="M166,62.42c0,.61-.27,1.1-.6,1.1s-.59-.49-.59-1.1.26-1.11.59-1.11S166,61.81,166,62.42Z" style="fill:#7394ff"/><path d="M160.87,58.09c0,.49-.7.89-1.57.89s-1.58-.4-1.58-.89.71-.89,1.58-.89S160.87,57.6,160.87,58.09Z" style="fill:#7394ff"/><ellipse cx="169.26" cy="59.72" rx="0.59" ry="0.74" style="fill:#7394ff"/><path d="M183.27,65.64c0,.41-.22.74-.49.74s-.49-.33-.49-.74.22-.74.49-.74S183.27,65.23,183.27,65.64Z" style="fill:#7394ff"/><path d="M172.55,70.88c0,.4-.6.72-1.35.72s-1.35-.32-1.35-.72.6-.72,1.35-.72S172.55,70.48,172.55,70.88Z" style="fill:#7394ff"/><path d="M153.13,62a.74.74,0,1,1-.74-.71A.73.73,0,0,1,153.13,62Z" style="fill:#7394ff"/><path d="M152.39,55.24a.84.84,0,0,1-.87.79.79.79,0,1,1,.87-.79Z" style="fill:#7394ff"/><path d="M199.69,97.42c0,.3-.54.54-1.2.54s-1.21-.24-1.21-.54.54-.55,1.21-.55S199.69,97.12,199.69,97.42Z" style="fill:#7394ff"/><path d="M182.29,105.24a1.18,1.18,0,1,1-1.17-1.27A1.22,1.22,0,0,1,182.29,105.24Z" style="fill:#7394ff"/><path d="M174.15,114c0,.49-.54.9-1.2.9s-1.2-.41-1.2-.9a1.25,1.25,0,0,1,2.4,0Z" style="fill:#7394ff"/><path d="M189.17,108.74c0,.49-.6.88-1.33.88s-1.34-.39-1.34-.88.6-.89,1.34-.89S189.17,108.25,189.17,108.74Z" style="fill:#7394ff"/><ellipse cx="191.38" cy="95.82" rx="1.29" ry="1.05" style="fill:#7394ff"/><path d="M171.06,105.56c0,.52-.7,1-1.58,1s-1.58-.43-1.58-1,.71-1,1.58-1S171.06,105,171.06,105.56Z" style="fill:#7394ff"/><path d="M42.57,87.08a.7.7,0,1,1-.69-.59A.64.64,0,0,1,42.57,87.08Z" style="fill:#7394ff"/><ellipse cx="45.18" cy="84.71" rx="0.64" ry="0.59" style="fill:#7394ff"/><path d="M47.32,88.46a.75.75,0,1,1-1.5,0,.75.75,0,1,1,1.5,0Z" style="fill:#7394ff"/><path d="M47.32,97.88c0,.46-.17.83-.37.83s-.38-.37-.38-.83S46.74,97,47,97,47.32,97.41,47.32,97.88Z" style="fill:#7394ff"/><path d="M38.43,84.71c0,.33-.71.6-1.58.6s-1.57-.27-1.57-.6.7-.59,1.57-.59S38.43,84.39,38.43,84.71Z" style="fill:#7394ff"/><path d="M45.82,93.71a1.28,1.28,0,1,1-1.28-1.21A1.24,1.24,0,0,1,45.82,93.71Z" style="fill:#7394ff"/><path d="M52.63,86.19a.89.89,0,1,1-.89-.88A.89.89,0,0,1,52.63,86.19Z" style="fill:#7394ff"/><path d="M48.29,78.7a1.25,1.25,0,1,1-1.23-1.08A1.17,1.17,0,0,1,48.29,78.7Z" style="fill:#7394ff"/><path d="M32.22,119.65a.79.79,0,1,1-.79-.88A.84.84,0,0,1,32.22,119.65Z" style="fill:#7394ff"/><path d="M37.94,115a.92.92,0,1,1-.89-.69A.81.81,0,0,1,37.94,115Z" style="fill:#7394ff"/><path d="M37.05,123c0,.21,0,.39-.1.39s-.1-.18-.1-.39,0-.4.1-.4S37.05,122.75,37.05,123Z" style="fill:#7394ff"/><path d="M37.05,119.88c0,.12-.2.23-.44.23s-.45-.11-.45-.23.2-.23.45-.23S37.05,119.75,37.05,119.88Z" style="fill:#7394ff"/><path d="M43.26,122.47c0,.28-.15.5-.34.5s-.35-.22-.35-.5.16-.49.35-.49S43.26,122.2,43.26,122.47Z" style="fill:#7394ff"/><path d="M37.94,122.92c0,.24-.4.44-.89.44s-.89-.2-.89-.44.4-.45.89-.45S37.94,122.67,37.94,122.92Z" style="fill:#7394ff"/><ellipse cx="63.62" cy="129.89" rx="0.64" ry="0.76" style="fill:#7394ff"/><path d="M71.16,134.42a1.09,1.09,0,1,1-1.06-.81A1,1,0,0,1,71.16,134.42Z" style="fill:#7394ff"/><ellipse cx="67.41" cy="136.29" rx="0.69" ry="1.05" style="fill:#7394ff"/><ellipse cx="68.76" cy="143.27" rx="1.34" ry="0.81" style="fill:#7394ff"/><ellipse cx="73.53" cy="150.57" rx="0.59" ry="0.82" style="fill:#7394ff"/><path d="M79.64,155.57a1.05,1.05,0,0,1-2.07,0,1.06,1.06,0,0,1,2.07,0Z" style="fill:#7394ff"/><ellipse cx="82.82" cy="159.63" rx="0.42" ry="0.67" style="fill:#7394ff"/><path d="M74.12,155.81a1,1,0,1,1-1-.75A.9.9,0,0,1,74.12,155.81Z" style="fill:#7394ff"/><path d="M69.58,150.54c0,.44-.18.8-.41.8s-.41-.36-.41-.8.18-.8.41-.8S69.58,150.1,69.58,150.54Z" style="fill:#7394ff"/><ellipse cx="66.03" cy="120.2" rx="0.69" ry="0.32" style="fill:#7394ff"/><path d="M76.09,143.73a1,1,0,0,1-2,0,1,1,0,0,1,2,0Z" style="fill:#7394ff"/><path d="M77.57,163.81a1.26,1.26,0,0,1-2.47,0,1.26,1.26,0,0,1,2.47,0Z" style="fill:#7394ff"/><ellipse cx="82.23" cy="169.92" rx="1.01" ry="0.82" style="fill:#7394ff"/><path d="M82.4,163.38a.59.59,0,1,1-.59-.59A.59.59,0,0,1,82.4,163.38Z" style="fill:#7394ff"/><path d="M78.6,160a.52.52,0,1,1-.51-.44A.47.47,0,0,1,78.6,160Z" style="fill:#7394ff"/><path d="M89.7,175.09a.6.6,0,1,1-1.19,0,.6.6,0,1,1,1.19,0Z" style="fill:#7394ff"/><ellipse cx="104.87" cy="193.11" rx="0.83" ry="0.84" style="fill:#7394ff"/><path d="M101.75,187.74a.66.66,0,1,1-.65-.79A.73.73,0,0,1,101.75,187.74Z" style="fill:#7394ff"/><ellipse cx="94.72" cy="178.37" rx="0.5" ry="0.59" style="fill:#7394ff"/><path d="M92.31,178.67c0,.16-.21.29-.47.29s-.47-.13-.47-.29.21-.3.47-.3S92.31,178.5,92.31,178.67Z" style="fill:#7394ff"/><path d="M70.1,78.08c0,.25-.44.46-1,.46s-1-.21-1-.46.44-.46,1-.46S70.1,77.82,70.1,78.08Z" style="fill:#7394ff"/><ellipse cx="73.59" cy="83.33" rx="0.66" ry="1.05" style="fill:#7394ff"/><ellipse cx="80.36" cy="87.34" rx="0.85" ry="1.12" style="fill:#7394ff"/><path d="M75.3,76.62a.86.86,0,1,1-.85-1A.94.94,0,0,1,75.3,76.62Z" style="fill:#7394ff"/><path d="M75.3,91.4a.88.88,0,1,1-.85-1.1A1,1,0,0,1,75.3,91.4Z" style="fill:#7394ff"/><path d="M95,94.66c0,.52-.63,1-1.41,1s-1.41-.43-1.41-1,.63-1,1.41-1S95,94.13,95,94.66Z" style="fill:#7394ff"/><path d="M87.13,97.27c0,.8-.44,1.44-1,1.44s-1-.64-1-1.44.44-1.45,1-1.45S87.13,96.47,87.13,97.27Z" style="fill:#7394ff"/><path d="M86.15,78.7a1.17,1.17,0,0,1-2.34,0,1.17,1.17,0,0,1,2.34,0Z" style="fill:#7394ff"/><path d="M92.2,84.85c0,.25-.46.46-1,.46s-1-.21-1-.46.46-.46,1-.46S92.2,84.59,92.2,84.85Z" style="fill:#7394ff"/><path d="M107.83,98a.81.81,0,0,1-.88.72.74.74,0,1,1,0-1.44A.81.81,0,0,1,107.83,98Z" style="fill:#7394ff"/><path d="M104,112.06a1.34,1.34,0,1,1-1.29-1A1.16,1.16,0,0,1,104,112.06Z" style="fill:#7394ff"/><ellipse cx="76.16" cy="111.3" rx="0.85" ry="0.76" style="fill:#7394ff"/><ellipse cx="76.16" cy="105.87" rx="0.85" ry="0.63" style="fill:#7394ff"/><path d="M63,99.44c0,.4-.19.72-.41.72s-.41-.32-.41-.72.18-.73.41-.73S63,99,63,99.44Z" style="fill:#7394ff"/><path d="M57.16,96.24c0,.35-.17.63-.39.63s-.4-.28-.4-.63.18-.63.4-.63S57.16,95.89,57.16,96.24Z" style="fill:#7394ff"/></g></g></svg>