<svg xmlns="http://www.w3.org/2000/svg" viewBox="0 0 501 315.78"><title>puffer-fish</title><g id="Layer_2" data-name="Layer 2"><g id="Ñëîé_2" data-name="Ñëîé 2"><path d="M39.47,135.3c-2.73,2.73-14.83,12.88-17.56,10.15s-5.86-7-3.52-9,16.4-6.25,14.45-9.76-28.89,0-28.89,0C1.73,127-.34,124.37.05,122l0-.07a.77.77,0,0,0,.06-.15c1.34-2,16.74-.53,29.58.22C43,122.8,42.21,132.56,39.47,135.3Z" style="fill:#e5bf55"/><path d="M249.85,29.65c-10.18-1-24.22-4-30.42-6.39a20,20,0,0,0-7.37-.79,43,43,0,0,1-.43-5.45,5.82,5.82,0,0,0,0-.61h.11c1.12,0,2.2.08,3.25.14.54,0,1.06,0,1.57.08,1,.06,2,.1,2.91.17.34,0,.67,0,1,.06l.81.06.64,0,.61.05.61,0,.66.05h.18l1.74.16c.29,0,.54,0,.76.08a2.29,2.29,0,0,1,.39,0,2.19,2.19,0,0,1,.28,0l.5,0a98.81,98.81,0,0,1,10.17,4.62A95.59,95.59,0,0,1,249.85,29.65Z" style="fill:#7f5b40"/><path d="M301.1,115.06c-6.17.47-15.7,1.5-23.89-3.62a35.76,35.76,0,0,0-28.11-4.5c-10.54,2.5-13.27,4.55-23.42,7.51s-15.62-5.7-27.72-7.51-12.1-7.55-17.17-14.58-17.18-13.66-28.5-12.23-17.57,2.86-21.47,0-2.34-19,0-23.17,7-8.71,9-16.85,4.29-5.92,22.64-16.85l.9-.51c.63-.34,1.27-.66,1.94-.95.34-.16.69-.32,1-.46s.78-.31,1.19-.45a.43.43,0,0,0,.12-.05l.11,0q.38-.15.75-.27l1.14-.39,1.16-.34c.28-.1.58-.17.89-.25.9-.27,1.82-.5,2.78-.7.56-.14,1.14-.25,1.71-.38l.85-.16c.65-.14,1.31-.25,2-.35.95-.16,1.91-.32,2.87-.44-2,4.09-4.81,9.62-7.07,14.16-5.43,2-12.27,3.81-17.43,5.25-7,2-7,6.63-8.19,10.27S148,59.57,157,65.42s20.69,13.67,27.72,20.3,9,10.15,14.44,14.84,18,3.51,23.43,1.89,25-3.85,34.35-7.61,19.12.64,26.93,3.37a124.44,124.44,0,0,0,13.54,3.67C298.83,106.47,300.05,110.89,301.1,115.06Z" style="fill:#f2ca66"/><path d="M227.61,17.47l-.5,0a2.19,2.19,0,0,0-.28,0,2.29,2.29,0,0,0-.39,0c-.22,0-.47-.06-.76-.08l-1.74-.16h-.18l-.66-.05-.61,0-.61-.05-.64,0-.81-.06c-.31,0-.64-.05-1-.06-.91-.07-1.88-.11-2.91-.17-.51,0-1-.05-1.57-.08-1.05-.06-2.13-.1-3.25-.14h-.11c-.09-2.92-.89-3.39-1.47-4.14l1.39.31,1.92.45,2.53.64,1.69.47c1.17.33,2.34.67,3.51,1l2.16.72C224.77,16.39,226.19,16.92,227.61,17.47Z" style="fill:#f9dc9b"/><path d="M304.52,204.47c-8,44.86-34.62,100.86-116.71,110C53.06,329.5,23,210.61,21.91,152.16c-.05-2.34-.05-4.57,0-6.71,0,0,.33,2.56,1.14,7,5.7,31.65,35.27,159.07,141.08,151.32C282.06,295.16,303.56,208.53,304.52,204.47Z" style="fill:#d9d1cc"/><path d="M183.19,11.51l-1.81.34c-3,.58-5.9,1.25-8.54,2-.53.14-1.06.28-1.56.43a.18.18,0,0,0-.11,0c-.47.12-.92.26-1.38.4-1.15.35-2.24.7-3.24,1.06-.57.19-1.11.39-1.61.6-.27.09-.52.2-.75.29-.95.39-1.81.78-2.53,1.16-8.2,4.29-22.64,12.49-24.59,16.68s-5.47,9.47-12.5,20,.39,23,2.74,34.36-5.86,13.66-8.2,6.63-11.71-7-9-10.15,2.73-9.37,2-17.56-1.56,3.12-10.15,5.7-4.68-6.48.78-13.14,7.81-9,14.45-16S125,37.71,136.68,28s-1.18-8.2-8.59-4.69-6.64,9.37-18.35,16.85S96.47,58,94.52,61,83.59,70.89,82.8,66.59s.4-7.41-9.36-9.63-20.69,6.12-24.6,13.15a42.55,42.55,0,0,0-2.64,5.78c-1.87,4.85-2.88,9.15-5.09,11.39-3.06,3.13-4,4.3-11,5.47l-.41.08c-6.26,1.31,2.28,6.66-1.55,11.79s-18.31,0-18.31,0a154.76,154.76,0,0,0-9.7,17.19c1.34-2,16.74-.53,29.58.22,13.27.78,12.49,10.54,9.75,13.27s-14.83,12.88-17.56,10.15c0,0,.33,2.56,1.14,7,2.56.7,8.85,2,12.91-.33,5.2-3,6.76.1,9.89,8.93s9.63,5.17,17,2.85,15.74-8.4,20.42-12.9,8.34-15.77,18.74-17.69,13.54-21.74,15.1-26.41,2.79-2.53,11.29-3.07,12.13,2.12,15.25-6.76,24.53-7.22,37.09-4.75c-5.08-7-17.18-13.66-28.5-12.23s-17.57,2.86-21.47,0-2.34-19,0-23.17,7-8.71,9-16.85,4.29-5.92,22.64-16.85l.9-.51c.63-.34,1.27-.66,1.94-.95.34-.16.69-.32,1-.46s.78-.31,1.19-.45a.43.43,0,0,0,.12-.05l.11,0a4,4,0,0,1,.75-.27l1.14-.39,1.16-.34c.28-.1.58-.17.89-.25.9-.27,1.82-.5,2.78-.7.56-.14,1.14-.25,1.71-.38l.85-.16c.65-.14,1.31-.25,2-.35.95-.16,1.91-.32,2.87-.44,1-1.94,1.78-3.56,2.3-4.59.28-.56.58-1.16.89-1.75C184.42,11.29,183.8,11.38,183.19,11.51ZM62.9,63.52a14,14,0,1,1-14,14A14,14,0,0,1,62.9,63.52Zm42.94,46c-3.91,4.68-3.52,9.36-10.93,14.44s-3.52-6.25-4.3-17-2-7.55-8.59,0-2.73,9.62.91,19.38-1.3,9.76-6,12.88-4.29,10.54-11.71,3.55-1.56-20.33,2.34-31.25-3.51-.4-8.59,6-2,13.93-4.68,19.78,8.59,14.05,5.07,15.62-3.51,7.8-8.19,2.34-6.25-12.88-5.47-20.47-5.86-12.32-6.64-14,6.64,3.19,7-6.34S55.48,101,71.48,97.12c5-1.2,9.44-4.23,10.89-9.38a16.68,16.68,0,0,0,.51-5.62c-.12-1.74-.86-3.14-.4-4.42a3,3,0,0,1,1.25-1.45,7.25,7.25,0,0,1,5.16-1c2.91.64,5.19,3.29,7.58,4.88,5.07,3.39,8.2,7.15,9.37,13S109.74,104.85,105.84,109.54Z" style="fill:#f9dc9b"/><path d="M307.65,165.34a160.61,160.61,0,0,0-1.17-18.72,199.68,199.68,0,0,0-5.38-31.56c-6.17.47-15.7,1.5-23.89-3.62a35.76,35.76,0,0,0-28.11-4.5c-10.54,2.5-13.27,4.55-23.42,7.51s-15.62-5.7-27.72-7.51-12.1-7.55-17.17-14.58c-12.56-2.47-34-4.12-37.09,4.75s-6.76,6.21-15.25,6.76-9.73-1.58-11.29,3.07-4.69,24.49-15.1,26.41S88,146.53,83.32,151s-13,10.58-20.42,12.9-13.93,6-17-2.85-4.69-12-9.89-8.93c-4.06,2.38-10.35,1-12.91.33,5.7,31.65,35.27,159.07,141.08,151.32,117.93-8.65,139.43-95.28,140.39-99.34a.59.59,0,0,1,0-.14A210.86,210.86,0,0,0,307.65,165.34ZM269.18,196.9c-.44,25.87-15.75,49.37-38.74,61-28.84,14.58-64,10.51-93.72,1a176.12,176.12,0,0,1-28.92-11.74C93,239.32,80.06,228.49,73.58,212.72c-12-29.14,13-40.41,31.74-38.68,16.27,1.5,33.46-.64,49.39-3.87,9.24-1.88,18.52-4.36,27.11-8.33,11.33-5.23,18-16.77,28.81-22,6.68-3.25,14.75-3.66,21.9-2C258.56,143.75,269.59,172.74,269.18,196.9Z" style="fill:#e8e1db"/><path d="M189.78,3.87A36,36,0,0,0,186,9.36c-.34.61-.67,1.22-1,1.82-.63.11-1.25.2-1.86.32s-1.22.22-1.81.35c-3,.58-5.9,1.25-8.54,2-.53.14-1.06.28-1.56.43a.29.29,0,0,0-.11,0l-1.38.41c-1.15.34-2.24.7-3.24,1.06-.57.19-1.11.39-1.61.59l-.75.3c-.95.39-1.81.78-2.53,1.16-8.2,4.29-22.64,12.49-24.59,16.67s-5.47,9.48-12.5,20,.39,23,2.74,34.35-5.86,13.67-8.2,6.64-11.71-7-9-10.15,2.73-9.37,2-17.57-1.56,3.13-10.15,5.7-4.68-6.48.78-13.13,7.81-9,14.45-16S125,37.71,136.68,28s-1.18-8.2-8.59-4.69-6.64,9.37-18.35,16.85S96.47,58,94.52,61,83.59,70.89,82.8,66.59s.4-7.41-9.36-9.63-20.69,6.12-24.6,13.15a43,43,0,0,0-2.64,5.77c-1.87,4.86-2.88,9.15-5.09,11.4-3.06,3.12-4,4.3-11,5.47l-.41.07c-6.26,1.32,2.28,6.67-1.55,11.79s-18.31,0-18.31,0c3.28-5.12,7.4-11.08,12.46-17.52A232.21,232.21,0,0,1,39.07,68a215,215,0,0,1,70.11-47.79,220.25,220.25,0,0,1,72-16.48S184.36,3.71,189.78,3.87Z" style="fill:#9c857b"/><path d="M304.25,30.29c-.67,0-20.53-.05-28.11-2.73s-9.47,1.56-18.06,2.34a46.22,46.22,0,0,1-8.23-.25,95.59,95.59,0,0,0-12.07-7.56,98.81,98.81,0,0,0-10.17-4.62c-1.4-.56-2.84-1.08-4.27-1.56l-2.16-.72c-1.17-.38-2.34-.72-3.51-1L216,13.67,213.45,13l-1.92-.45-1.39-.31h0a3.35,3.35,0,0,1-.64-2.33c0-3.56-6.25-2.48-6.64-5.46,25.72,1.61,68.61,6.68,96.34,22.65h0Q301.83,28.63,304.25,30.29Z" style="fill:#65462b"/><path d="M278.55,60.8c-5.11-.61-9.64-1.17-12.27-.47-5.86,1.58-17.57-2.09-23.43-3.37-1.73-.39-3.37-.85-5.12-1.2v0a54,54,0,0,0-11.67-8.59h0c1,0,2.06.06,3.15.06,16.79.14,13.27,2.61,28.89,0a62,62,0,0,1,9.66-.94A121.38,121.38,0,0,1,278.55,60.8Z" style="fill:#f2ca66"/><path d="M285.08,72c-7-.33-15.59,3-25.05.34-4.33-1.19-9-3-13.55-4.73a40.57,40.57,0,0,0-8.75-11.88c1.75.35,3.39.81,5.12,1.2,5.86,1.28,17.57,4.95,23.43,3.37,2.63-.7,7.16-.14,12.27.47Q282.11,66.32,285.08,72Z" style="fill:#7f5b40"/><path d="M354.65,64.73S337.32,63.2,324.05,61s-16.4-2.48-26.55,0c-5.58,1.36-12.71.55-18.95-.2a121.38,121.38,0,0,0-10.81-14.54c7.53-.09,10.95,1.72,20.91.94,13.38-1,15.88-4.81,23.72,0s19.89,3.59,19.89,3.59c3.48,2.39,6.92,4.65,10.28,6.76C346.68,60.16,350.7,62.55,354.65,64.73Z" style="fill:#e5bf55"/><path d="M368.49,71.67c-6.73,1.43-15.27,2.71-21.88,1.79-12.8-1.79-16.5-5.28-26.74-2.17s-20.73,7.25-28.56,2.48A12.7,12.7,0,0,0,285.08,72q-3-5.7-6.53-11.23c6.24.75,13.37,1.56,18.95.2,10.15-2.48,13.28-2.22,26.55,0s30.6,3.73,30.6,3.73Q361.76,68.68,368.49,71.67Z" style="fill:#65462b"/><path d="M422.64,97.09c-8.74.45-24.81-5.51-30.28-9.42s-13.66-2.73-26.93-2-24.59,2-30.06,1.17-16.79,1.17-25.76,4.33c-3.45,1.21-9.39.9-16,0A173.07,173.07,0,0,0,285.08,72a12.7,12.7,0,0,1,6.23,1.74c7.83,4.77,18.3.63,28.56-2.48s13.94.38,26.74,2.17c6.61.92,15.15-.36,21.88-1.79,13.11,5.87,25.18,9,36.36,9a38,38,0,0,0,6.45-.52h0a32.93,32.93,0,0,1,2.92,2.94A43.87,43.87,0,0,1,422.64,97.09Z" style="fill:#e5bf55"/><path d="M423.86,121.37c-6.25,25.76-34.79,21-34.79,21-8.2-7.33-19.89-11.05-36.13-10.22a105.36,105.36,0,0,0-18.58,2.56C316,139,306.48,146.62,306.48,146.62a199.68,199.68,0,0,0-5.38-31.56c6.16-.45,13.19-1.72,22.56-3.62s19.52-1.9,25.17-1.9,23.3-.79,36.15-1.18,23,12.76,28.46,12.43A49.47,49.47,0,0,1,423.86,121.37Z" style="fill:#65462b"/><path d="M464.46,94.82c16.13,2.1,25.49,6.51,8.58,4.44s-19,.78-.53,8,18,6.94,5.73,4.13-18.47-3.08-18.47-1.78,20.82,9.63,22.11,12-26.28-11.8-34.09-10.19,32.8,17.13,32.8,23.29-39.17-19.61-47.36-20.28,46.84,30.09,47.87,35.8-34.88-22.9-46.31-25,33.57,28.11,37.72,30.45S458,151.3,440.25,138.54s-1.82,3.39,15.62,19,4.15,9.63-7.56,0-16.64-17.69-19.25-17.44,34.08,44.64,32.27,50.16-22.9-28.3-29.66-36.89-12-12.49-8.86-2.86,26.55,46.06,29,51-3.76,8.87-28.49-39,2.87,23.42,7.55,33.82-13.53-12-19.26-30.7c-4.42-14.48-8.95-12.18-7.51,6.67-.32-1-.58-2-.82-3-2.54-11.29-7.05-20.46-14.22-26.86,0,0,28.54,4.73,34.79-21a43.53,43.53,0,0,0,1.26-10,39.74,39.74,0,0,0-2.46-14.32h0a43.87,43.87,0,0,0-8.4-14,32.93,32.93,0,0,0-2.92-2.94C430,77,436.13,60.6,461.6,52.88c-7.15,7.78-26.62,12.76-25.78,17.23,1,5.12,4.92,2.93,5.42,2.63a.07.07,0,0,0,0,0C453.26,63.08,470.44,61,477.2,61S453.26,65.89,447,72s14.32-1.92,26-3-16.92,8.34-24,11.07-10.15,4.18,14.05,2.94,37.74,1.6,13.54,3.43S448.31,92.75,464.46,94.82Z" style="fill:#ea8124"/><path d="M500.57,81c-2,3.12,1.49,7.41-1.25,11.32s.78,19.9-2.34,23.81-.78,6.63-2.73,11.32.78,6.63-1.56,9.76,1.17,7.41-1.17,10.15-1.57,22.25-5.08,25.37.39,5.47-3.51,10.54S481,186.43,476.29,195s1.17,14.45-6.24,18.74-2,15.61-19.13,9.76c-16.44-5.61-40-28-46.8-51.14a.28.28,0,0,0,0-.09c-1.44-18.85,3.09-21.15,7.51-6.67,5.73,18.74,23.95,41.11,19.26,30.7s-32.27-81.71-7.55-33.82,31,44,28.49,39-25.89-41.38-29-51,2.08-5.73,8.86,2.86,27.84,42.42,29.66,36.89-34.88-49.9-32.27-50.16,7.54,7.8,19.25,17.44,25,15.61,7.56,0-33.42-31.75-15.62-19,36.43,19.52,32.26,17.18-49.15-32.53-37.72-30.45,47.36,30.72,46.31,25-56.07-36.47-47.87-35.8,47.36,26.44,47.36,20.28-40.6-21.68-32.8-23.29,35.4,12.54,34.09,10.19-22.11-10.66-22.11-12,6.25-1,18.47,1.78,12.76,3.17-5.73-4.13-16.39-10.14.53-8,7.55-2.34-8.58-4.44-12-6.49,12.22-8.32,10.67-4.68-13.54-3.43-21.08-.21-14.05-2.94S484.75,68,473,69.06s-32.27,9.12-26,3,37-11,30.19-11-23.94,2.08-35.92,11.71a.07.07,0,0,1,0,0c-.5.3-4.44,2.49-5.42-2.63-.84-4.47,18.63-9.45,25.78-17.23a82.55,82.55,0,0,1,9.62-2.29C508.3,44,500.49,65.81,498.54,70.5S502.6,77.91,500.57,81Z" style="fill:#e5bf55"/><path d="M345.64,161.58c.66,1.83-10.39-14.57-9.49-10.93s7.15,13.3,4.56,11.85-7-7.68-9.9-10.93,7.87,10.79,9,16.91-7.57-7-10.76-11.45-.45,2.08,1,7.67.55,3.39-2.45-.78-5-9.46-5.09-5.51,2.61,11.69,1.68,11.66-4.29-7.45-5.32-9.66-1.44,2.6-.66,8.46-2.07,3.25-2.85,0-.39-8.2-1.83-8.07-1.48,7.73-.31,11.55a6,6,0,0,1-1.25-2c-.52-1.83-1.84-1.86-4.3-5a160.61,160.61,0,0,0-1.17-18.72S316,139,334.36,134.74c0,0,10.63,14.27,14.47,21.28,0,0-9.82-9-10.6-9.28S345,159.77,345.64,161.58Z" style="fill:#ea8124"/><path d="M350.2,166.65c.52-3.12,0-3.9,0-7.28a9.33,9.33,0,0,0-1.37-3.35s-9.82-9-10.6-9.28,6.77,13,7.41,14.84-10.39-14.57-9.49-10.93,7.15,13.3,4.56,11.85-7-7.69-9.9-10.93,7.87,10.79,9,16.91-7.57-7-10.76-11.45-.45,2.08,1,7.67.55,3.39-2.45-.78-5-9.46-5.09-5.51,2.61,11.69,1.68,11.66-4.29-7.45-5.32-9.67-1.44,2.61-.66,8.47-2.07,3.25-2.85,0-.39-8.2-1.83-8.08-1.48,7.73-.31,11.56a4.8,4.8,0,0,1,1.09,3.15c0,2.86,2.86,2.08,3.39,4.42s6,4.69,12.74,7.81,15.88,3.65,16.4,0,3.38-12,3.62-13.79S349.69,169.77,350.2,166.65Zm-5.65,15.49c-.59,3.51-6.24,5.86-17,1.36s-8.4-10.93-4.09-9.17,17.76,3.45,18.33,3.52C343.43,178,345.13,178.63,344.55,182.14Z" style="fill:#e8e1db"/><path d="M344.55,182.14c-.59,3.51-6.24,5.86-17,1.36s-8.4-10.93-4.09-9.17,17.76,3.45,18.33,3.52C343.43,178,345.13,178.63,344.55,182.14Z" style="fill:#f4efed"/><path d="M316.52,39.5c-6.4-1.09-20.14-3.09-24.87-1-6.25,2.73-12.88,1.89-18,.35-3.87-1.17-6.6-.48-13.07-.1a100.63,100.63,0,0,0-10.77-9.09,46.22,46.22,0,0,0,8.23.25c8.59-.78,10.37-5.08,18.06-2.34s27.44,2.73,28.11,2.73h0c1.31.87,2.56,1.79,3.77,2.73Q312.36,36.36,316.52,39.5Z" style="fill:#e5bf55"/><path d="M378.31,41.22c-18-1.17-20.69.78-13.66,2.34s19.13,4.17,4.29,3.64-14.44,3-6.63,4.17,11.36,2.57,11.53,5.59c-6.71,1.73-16.78,2.92-31.3.59-3.36-2.11-6.8-4.37-10.28-6.76-5.1-3.48-10.35-7.26-15.74-11.29Q312.35,36.36,308,33c-1.21-.94-2.46-1.86-3.77-2.73h0q-2.42-1.66-5-3.16c.39-.09,7-1.56,15.41-3.76h0c.52,0,11.54.48,17.63,0s2.75.67,0,2.62,30.94-5.55,21.85,0c-7,4.3-4.3,3.91,7.41,3.13s21.86,3.12,5.86,3.51-18.74.17-6.25,1.84S396.27,42.39,378.31,41.22Z" style="fill:#ea8124"/><path d="M392.75,35c-2.34,4.69.07,9.25-3.68,12.23s-1.39,4.56-6.08,6.51A60.12,60.12,0,0,1,373.84,57c-.17-3-3.73-4.42-11.53-5.59s-8.2-4.69,6.63-4.17,2.73-2.08-4.29-3.64-4.3-3.51,13.66-2.34-4.68-5.08-17.18-6.75-9.75-1.45,6.25-1.84,5.86-4.29-5.86-3.51-14.44,1.17-7.41-3.13c9.09-5.55-24.6,2-21.85,0s6.23-3.12,0-2.62-17.11,0-17.63,0c10.06-2.62,22.65-6.31,30-9.87,13.74-6.63,24.28-3.15,37.55,6.81S395.1,30.29,392.75,35Z" style="fill:#e8e1db"/><path d="M425.12,111.41a43.53,43.53,0,0,1-1.26,10,48.7,48.7,0,0,0-10.42-.58C408,121.12,397.83,108,385,108.36s-30.48,1.17-36.15,1.17-15.8,0-25.17,1.91-16.4,3.17-22.56,3.62c-1.05-4.17-2.27-8.59-3.72-13.18a50,50,0,0,1,5.2,1.3c1.56.67,12.1,1.28,19.91,0S333,99,342.79,99s23,0,34.74-3.12,17.18,1.17,29.57,9C414.86,109.73,421.34,111.08,425.12,111.41Z" style="fill:#e5bf55"/><path d="M332.26,50.79S320.21,52,312.37,47.2s-10.34-1-23.72,0c-10,.78-13.38-1-20.91-.94a100.77,100.77,0,0,0-7.12-7.52c6.47-.38,9.2-1.07,13.07.1,5.08,1.54,11.71,2.38,18-.35,4.73-2.08,18.47-.08,24.87,1C321.91,43.53,327.16,47.31,332.26,50.79Z" style="fill:#65462b"/><path d="M105.84,109.53c-3.91,4.69-3.52,9.37-10.93,14.45s-3.52-6.25-4.3-17-2-7.56-8.59,0-2.73,9.62.91,19.38-1.3,9.76-6,12.88-4.29,10.54-11.71,3.54-1.56-20.33,2.34-31.24-3.51-.41-8.59,6-2,13.93-4.68,19.79,8.59,14.05,5.07,15.61-3.51,7.81-8.19,2.34-6.25-12.88-5.47-20.47-5.86-12.32-6.64-13.94,6.64,3.19,7-6.34,9.37-13.51,25.37-17.33c5-1.2,9.44-4.23,10.89-9.39a16.63,16.63,0,0,0,.51-5.62c-.12-1.73-.86-3.14-.4-4.42a3,3,0,0,1,1.25-1.45,7.31,7.31,0,0,1,5.16-1c2.91.64,5.19,3.3,7.58,4.89,5.07,3.39,8.2,7.15,9.37,13S109.74,104.85,105.84,109.53Z" style="fill:#9c857b"/><path d="M69.91,77.52a7,7,0,1,1-7-7A7,7,0,0,1,69.91,77.52Z" style="fill:#2b2b2b"/><path d="M62.9,63.52a14,14,0,1,0,14,14A14,14,0,0,0,62.9,63.52Zm0,24.68A10.68,10.68,0,1,1,73.58,77.52,10.67,10.67,0,0,1,62.9,88.2Z" style="fill:#451c17"/><path d="M62.9,66.84A10.68,10.68,0,1,0,73.58,77.52,10.67,10.67,0,0,0,62.9,66.84Zm0,17.69a7,7,0,1,1,7-7A7,7,0,0,1,62.9,84.53Z" style="fill:#9e6e4d"/><path d="M39.07,68A232.21,232.21,0,0,0,22.3,87.09a13.14,13.14,0,0,1-2-7A13.29,13.29,0,0,1,39.07,68Z" style="fill:#8e7870"/><path d="M260.62,38.74c-2,.1-4.37.2-7.23.18-12.1,0-18.73-2.23-28.49-1.34a69.44,69.44,0,0,1-8,.09,44.74,44.74,0,0,1-4.86-15.2,20,20,0,0,1,7.37.79c6.2,2.38,20.24,5.4,30.42,6.39A100.63,100.63,0,0,1,260.62,38.74Z" style="fill:#f2ca66"/><path d="M267.74,46.26a62,62,0,0,0-9.66.94c-15.62,2.61-12.1.14-28.89,0-1.09,0-2.14,0-3.15-.06a23.51,23.51,0,0,1-9.12-9.47,69.44,69.44,0,0,0,8-.09c9.76-.89,16.39,1.3,28.49,1.34,2.86,0,5.23-.08,7.23-.18A100.77,100.77,0,0,1,267.74,46.26Z" style="fill:#7f5b40"/><path d="M246.48,67.64s-.44,9.54-10.15,15.83h0a18.32,18.32,0,0,0-5.17,1.47c-6.24,3.12-16,2-27.32,5.47-10.48,3.25-10.59-3.86-13.32-11.12h0c-.22-.59-.45-1.19-.72-1.76a17.48,17.48,0,0,0-3.51-5.1,22.66,22.66,0,0,0-2.09-1.92c-.48-.39-1-.76-1.5-1.15a42.09,42.09,0,0,0-4.12-16.85,36.43,36.43,0,0,0-4.78-7.7,8.53,8.53,0,0,1-2.53-2.43,2.85,2.85,0,0,1-.33-2.72c.42-1,2-4.14,3.89-8,2.26-4.54,5-10.07,7.07-14.16,1-1.94,1.78-3.56,2.3-4.59.28-.56.58-1.16.89-1.75s.64-1.2,1-1.81a36.15,36.15,0,0,1,3.75-5.5,10.23,10.23,0,0,1,5-3.64c4.15-1,7.68,1.28,8.07,4.25s6.64,1.91,6.64,5.46a3.35,3.35,0,0,0,.64,2.33h0c.58.75,1.38,1.22,1.47,4.14a5.92,5.92,0,0,1,0,.61,42.83,42.83,0,0,0,.43,5.45,44.79,44.79,0,0,0,4.86,15.21A23.49,23.49,0,0,0,226,47.14h0a54,54,0,0,1,11.67,8.59v0A40.7,40.7,0,0,1,246.48,67.64Z" style="fill:#e5bf55"/><path d="M182.66,69.36c-3.89-2.83-8.74-5.31-14-9-1-.72-1.93-1.41-2.76-2.06-6.79-5.34-7.35-8.4-3.87-11.07a53.74,53.74,0,0,1,9.18-4.83,8.48,8.48,0,0,0,2.53,2.44,36.09,36.09,0,0,1,4.78,7.7A42.09,42.09,0,0,1,182.66,69.36Z" style="fill:#ea8124"/><path d="M425.12,111.41c-3.78-.33-10.26-1.68-18-6.56-12.39-7.81-17.86-12.1-29.57-9S352.55,99,342.79,99s-12.49,2.91-20.3,4.19-18.35.67-19.91,0a50,50,0,0,0-5.2-1.3c-1.11-3.48-2.34-7.07-3.73-10.71,6.57,1,12.51,1.26,16,0,9-3.16,20.3-5.11,25.76-4.33s16.79-.39,30.06-1.17,21.47-2,26.93,2,21.54,9.87,30.28,9.42h0A39.74,39.74,0,0,1,425.12,111.41Z" style="fill:#65462b"/><path d="M297.38,101.88a124.44,124.44,0,0,1-13.54-3.67c-7.81-2.73-17.56-7.12-26.93-3.37s-28.89,6-34.35,7.6-18,2.8-23.43-1.89-7.41-8.19-14.44-14.83S166,71.28,157,65.42s-9-14.57-7.8-18.22,1.17-8.32,8.19-10.28c5.16-1.43,12-3.27,17.43-5.24-1.92,3.84-3.47,7-3.89,8a2.83,2.83,0,0,0,.33,2.71,53.74,53.74,0,0,0-9.18,4.83c-3.48,2.67-2.92,5.73,3.87,11.07.83.65,1.75,1.34,2.76,2.06,5.24,3.72,10.09,6.2,14,9,.52.39,1,.76,1.5,1.15a19,19,0,0,1,5.6,7c.27.58.5,1.17.72,1.77h0c2.73,7.26,2.84,14.36,13.32,11.11,11.32-3.51,21.08-2.34,27.32-5.46a18,18,0,0,1,5.17-1.47h0c7.93-1.26,20.36-.39,28.38,1.47,6.25,1.44,18.41,4.68,28.94,6.23C295,94.81,296.27,98.4,297.38,101.88Z" style="fill:#7f5b40"/><path d="M293.65,91.17c-10.53-1.55-22.69-4.79-28.94-6.23-8-1.86-20.45-2.73-28.38-1.47,9.71-6.29,10.15-15.83,10.15-15.83,4.57,1.7,9.22,3.54,13.55,4.73,9.46,2.61,18-.67,25.05-.34A173.07,173.07,0,0,1,293.65,91.17Z" style="fill:#f2ca66"/><path d="M232.53,137.8c-7.15-1.63-15.22-1.22-21.9,2-10.78,5.24-17.48,16.78-28.81,22-8.59,4-17.87,6.45-27.11,8.33-15.93,3.23-33.12,5.37-49.39,3.87-18.74-1.73-43.72,9.54-31.74,38.68,6.48,15.77,19.44,26.6,34.22,34.46a176.12,176.12,0,0,0,28.92,11.74c29.73,9.48,64.88,13.55,93.72-1,23-11.62,38.3-35.12,38.74-61C269.59,172.74,258.56,143.75,232.53,137.8Zm-49.87,99.9c-47-4.68-55.48-36.43-31-42.16s26.55-10.4,58.51-27c6.9-3.59,15-5.9,22.69-3.71,9.91,2.82,16.85,11.17,20,21C267,229.08,213.61,240.79,182.66,237.7Z" style="fill:#efe9e6"/><path d="M182.66,237.7c-47-4.69-55.48-36.43-31-42.16s26.55-10.4,58.51-27c6.9-3.59,15-5.9,22.69-3.72,9.91,2.83,16.85,11.18,20,21C267,229.08,213.61,240.79,182.66,237.7Z" style="fill:#f4efed"/><path d="M62.9,73a4.49,4.49,0,1,1,4.49,4.49A4.49,4.49,0,0,1,62.9,73Z" style="fill:#e8e1db"/><path d="M189.78,64.56c-1.84.77,29.76,3.58,33.23,6s-32.95-2.92-33.23-2S221.1,78.87,223,82s-31.68-11-36.76-9.56a22.66,22.66,0,0,0-2.09-1.92c-.48-.39-1-.76-1.5-1.15a42.09,42.09,0,0,0-4.12-16.85,36.43,36.43,0,0,0-4.78-7.7s15.49-29.74,18.86-33.63-3.76,9.23-9.43,20.5-2.53,11,4,2.94S210.84,10.34,201,23.25s-16.15,17.21-14.32,17.8,18.74-15.43,20.82-13.4S181,45.76,182.66,48.39s16-6.09,21.67-8.89,6.84,3.13-9.1,8.89-5.47,6.1,10.93,4.5,22.94,1.84,8.6,2.45-26.82,1.45-26.56,3.9,41.9.36,44,3S191.62,63.82,189.78,64.56Z" style="fill:#ea8124"/></g></g></svg>