<svg xmlns="http://www.w3.org/2000/svg" viewBox="0 0 295.48 156.57"><title>ranchu</title><g id="Layer_2" data-name="Layer 2"><g id="Ñëîé_2" data-name="Ñëîé 2"><path d="M99.5,68.31c2.69,6-1,9.76-1,9.76l-.82,6.86c-.37,3-3,5.9-5.82,8.23a47.73,47.73,0,0,1-7.68,5c-2.49,7.89-14.74,12.26-14.74,12.26-6.58,2.14-7.27-1.6-7.27-1.6,19.1-8.17,14.26-18.13,14.26-18.13s5.53-15.23-2.91-23.87c0,0,1-10.74-6-13.23,0,0,3.32-4.15.69-7.2h0c.28-.19,8.11-5.43,12.86,0,0,0,4.43-5.4,10.73-3.46C100.12,45.68,98,54,98,54a11.38,11.38,0,0,1,3.35,7.14A11.91,11.91,0,0,1,99.5,68.31Z" style="fill:#d1440c"/><path d="M46,56.73a6.21,6.21,0,1,0,1.82,4.4A6.22,6.22,0,0,0,46,56.73Zm-4.39,8.84A4.44,4.44,0,1,1,46,61.13,4.44,4.44,0,0,1,41.56,65.57Z" style="fill:#eae3dd"/><path d="M46,61.13a4.44,4.44,0,1,1-4.44-4.44A4.44,4.44,0,0,1,46,61.13Z" style="fill:#2b2b2b"/><path d="M46.43,54.55A8.18,8.18,0,0,0,36.24,67.33h0a8.09,8.09,0,0,0,5.32,2,8.19,8.19,0,0,0,4.87-14.76ZM41.56,67.33a6.21,6.21,0,1,1,6.21-6.2A6.21,6.21,0,0,1,41.56,67.33Z" style="fill:#f96c46"/><path d="M73.47,66.87c-8.44-8.64-25-1.3-25-1.3a8.18,8.18,0,0,1-6.87,3.74,8.09,8.09,0,0,1-5.32-2h0c-.24-.07-4.92-1.54-7.55,1.19a12.41,12.41,0,0,0-4-.2,6.09,6.09,0,0,0-4.94,3s-7.9,1-10,7.53a10.79,10.79,0,0,0-.52,3.4c0,9.56,4.82,24.51,27.88,26.58s25,0,25,0c19.1-8.17,14.26-18.13,14.26-18.13S81.91,75.51,73.47,66.87ZM35.35,81.33c-.71,2.62-2.71,3-4.06,3.6s-6.36-2.15-6.57-4.29a3,3,0,0,1,1.68-3c1.27-1.15,3.88-1.29,7-3.22S36.07,78.71,35.35,81.33Zm25.78,23.51c-3.42,2.15-6,0-12,2.41s-9.39-5.4-6.39-7.55,0,0,3.21-5.14,9.56,0,9.56,0c2.71,1.61,3.94-.86,7.81-2.28S64.57,102.7,61.13,104.84Z" style="fill:#da552c"/><path d="M202.36,33.74c7.11-.2,7-6.88,4.1-7.58s-4.79,3.28-11.22,3.32-10.92-1.33-18.08-4.78c-4.43-2.13-4.08-4-3.63-4.73l-.14.11c-1.93,1.58-4.5,4.21-15.42,0s-7.71,5.5-10.88,9.4-4.55,6.38,0,12.13-2.62,9-10.33,11.33-9.64-1-20.66-3.34-6.33-9.88-1.84-13.74,0-10.92-5.49-12.74-12.5.53-17,3.45-10.45,1.88-10.45,1.88a6.11,6.11,0,0,1,.69,7.22C89,36.12,91.81,43,91.81,43,100.12,45.68,98,54,98,54a11.38,11.38,0,0,1,3.35,7.14s9.17,1.58,7.38,4.44.35,8.87,5.49,7.36,13.31.21,13.3,3.21,3.15,4.71,7.57,6.43,8-2.64,11.12-3.68,3-6.17-2.05-6-10.9-.17-10.78-3.62,2.14-10.34,9.7-8.18,15.7,2,14.85,4.44,2.69,9.28.06,11c-2,1.3,3.48,2.59,8.36,2,5.07-10.15,4.28-21.65,12.43-25.67,1-.5,2-.95,3-1.33-2.67-2.07-3.57-5.1-.48-6.25,3.85-1.43,4.93-3.28,5.14-5.54s5.36-.67,5.36-.67c5.35-.66,4.28,7.21,6.21,9.35.75.84.4,1.8-.39,2.68A11.23,11.23,0,0,1,202.36,56a6.38,6.38,0,0,1,2.62.94,10.71,10.71,0,0,0,1.48-.2,22.91,22.91,0,0,0,4.68-1.48C200.28,53.13,195.24,33.93,202.36,33.74ZM131.51,65.1c-.32,1.82-2.35,2.47-4.39,2.79s-4.39,0-5.8-1.71.44-4.18,0-5.9,4.19-2,4.19-2C132.32,57.2,131.83,63.29,131.51,65.1Zm41.88-24.3c-1.28,1.4-3.85.52-6.42,1.76s-3.54,7.12-7.4,3.88-7.71-4.47-5.5-7.29a9.41,9.41,0,0,1,5.5-3.29c2.72-1,4.5-3.85,4.38-8s7.84,2.57,9.44,5.91S174.68,39.4,173.39,40.8Z" style="fill:#eae3dd"/><path d="M223.66,28.12h0A22.77,22.77,0,0,0,222,24.7q-2.44-1.59-4.87-3c.15.35,6,14.4,3.17,17.49s-2.89,7.39-7.39,5.9-7.39-6.37-4.5-7.78,1.59-3.94,2.72-6.37S208,20.46,205,22.54s-12.31,4.84-14.56,3.62-8.67-3.54-9-6.08,5.46-4.46,8.35-4.14.32-4.5-1.28-4.18-8.68-3-9.64-1.84,1.28,6.34,0,6.66-5.71-.32-8.15-1.93c-1.65-1.07-6.88-7.19-4.35-12.37q-2.73-.48-5.41-.86c1.22,2.21,2.45,4.83,1.73,5.31-1.29.85.22,3.19.22,3.19s1.07,3.66,2.78,3.66,2.78,1.72,1.93,3.64-8.14,2.36-11.57,0-6.22-2.35-7.28-2.14-1.85,4-1.67,5-3.26,2-5.4,0-7.07-2.79-9.43.61-3.16,7.38-6.72,5.81-5.7-6-2.92-5.81,6.43-3.47,7.28-5.82,1.51-4.93,0-6.64A7.76,7.76,0,0,1,128.55.48c-2.45.2-4.86.45-7.18.75,1.56,1.55,2.71,3.11,2.86,3.11.32,0-.32,6.46,2.57,7.41s-3.22,6.76-5.47,7.29-8.67,2-12.56,0-8-.85-9.61,1-9,2.29-12.85,0-1-2.21-1.66-6.07,5.84-1.61,5.84-1.61c2.54,3.07,5.78-.64,6.74-2.48.38-.72.12-2.18-.11-3.61a120,120,0,0,0-21.71,8.43C80.53,15,80,21,80,21c3.36,1.52,1.35,7.48,1.35,7.48s6,1.05,10.45-1.88,11.47-5.26,17-3.45,10,8.89,5.49,12.74-9.17,11.41,1.84,13.74,13,5.65,20.66,3.34,14.87-5.57,10.33-11.33-3.17-8.22,0-12.13S147,15.87,158,20.08s13.49,1.58,15.42,0l.14-.11c-.45.74-.8,2.6,3.63,4.73,7.16,3.45,11.66,4.83,18.08,4.78s8.29-4,11.22-3.32,3,7.38-4.1,7.58-2.08,19.39,8.78,21.47A27,27,0,0,0,222,46.44C227,39.79,225.33,32.34,223.66,28.12Zm-87.22-5c1.78-1.16,5.46-.43,6.42.87s-1,5.45-2.89,5.49-4.5,3.17-7.07,0S136.44,23.12,136.44,23.12ZM132.9,47.75c-1,2.25-4.17,1.93-8,1.85s-8-2.49-7.07-5.1,1.61-1.94,1.61-1.94c1.45-3.83,6.1-4.45,10.28-1.76S133.87,45.5,132.9,47.75Zm9-.35a11.94,11.94,0,0,1-6.16-1c-2.1-1,1.87-3.08,1.95-5.54s5.43-.1,5.43-.1C145.41,43.16,143.62,47.22,141.9,47.4ZM173.53,20c.26-.42.55-.47,0,0Z" style="fill:#ef9620"/><path d="M202.36,56a2.88,2.88,0,0,0-1.74.32c-1.26.7-2.05,2.6-2.43,4.73-4.22-5.17-11.69-1.7-14.51-.29-3.43,1.72-4.72,6.86-6.52,6.62s-1.63,7.52-6.45,10.09a12.25,12.25,0,0,1-4.32,1.19c5.07-10.15,4.28-21.65,12.43-25.67,1-.5,2-.95,3-1.33a9.82,9.82,0,0,0,2.31,1.33,16.25,16.25,0,0,0,9.28.94,10.54,10.54,0,0,0,4.25-2.7A11.23,11.23,0,0,1,202.36,56Z" style="fill:#dbd3ce"/><path d="M183.68,60.71c-3.43,1.72-4.72,6.86-6.52,6.62s-1.63,7.52-6.45,10.09a12.25,12.25,0,0,1-4.32,1.19,26.64,26.64,0,0,1-9.6,10.78c3.47,2.73,2.23,7.46-.75,8.47-4.07,1.38-5.78,6.77-8.1,9.85s-8,.78-15-1.58-9.64-7.07-4.5-6.71c3.34.24,4.34-1.27,4.57-3.41a149.38,149.38,0,0,1-25.15-.71,31.17,31.17,0,0,0-1,7.22c.4,0,.81,0,1.21,0,5.4,0,14.33,5,18.9,6.3,4,1.14,4.32,5.81,4.17,8.07,1-6.11,10.36-4.4,10.36-4.4,1.64.12,10.16.7,17.87,1.48a57.66,57.66,0,0,0,11.28-5.48c-5.71-2.14-9.52-6-10.45-7.77-1.25-2.35,8.11-7.07,7.77-13.06s5.69-6.86,9.25-6.86,6.52-10.93,10.37-11.54c2.55-.41,6.18,2,8.56,4.08a44.84,44.84,0,0,0,1.83-9.23,18.82,18.82,0,0,1,.27-3.16h0C194,55.83,186.5,59.3,183.68,60.71Zm-25.55,50.42c-3.54-.41-5.3-3.29-3.93-5.38s3.93,0,3.93,0C162.63,109.29,161.66,111.54,158.13,111.13Z" style="fill:#e0861b"/><path d="M85.38,104.65s8.51.6,11.21,7.67a13.69,13.69,0,0,0,4.08,5c-25.58-2-31.28-6.83-31.28-6.83s12.25-4.37,14.74-12.26a47.73,47.73,0,0,0,7.68-5q8.66,1.4,16,2.14a31.17,31.17,0,0,0-1,7.22c-5.11-.45-10.76-3.44-15-3.06C87.25,99.87,82.88,102,85.38,104.65Z" style="fill:#dbd3ce"/><path d="M287,44.64c-4.16,2.28-3.95,5.81-5.4,6S280.77,54,277.24,55s-2.91,4.36-8.1,6.23-9.76,5.61-8.72,13.91,2.28,12.25-.21,14.12,1.46,5.4-.41,6.65-6,6.23-4.57,8.72-3.11,5-2.91,7.47-10,6-8.31,7.68-5.18,3.54-8.51,1.67-5.19-1.67-6.85-1.25-23.46-11-23.67-63.33a10.71,10.71,0,0,0,1.48-.2c2.31,24.91,12.85,33.22,16.79,41.52S239,108.8,228,96.26s-18.69-34.59-16.2-33.6,7.48,11.47,23.47,31.82,16.4,11,12.45,8.09S211,59.8,215.15,58.76s9.76,8.1,16.2,14.17,16.4,9.5,10.38,1.61S217.23,56.27,221,54s22.85,15.15,32,22.42,5.39-2.28-5-10.84-26.63-18.27-16.2-14.7,25.13,9.14,28.66,6-7.06-3.12-22.84-8.51-13.92-11.21,4.15-5.82,39.87,3.33,23.88,0-38.62-10-25.13-7.89,54,3.33,32.81-.87-53.36-2-41-4.25,63.81-2.08,49.42-4.85-57.32,3.32-58,3.42h0A22.77,22.77,0,0,0,222,24.7S270.18,12,287,18.06,291.15,42.35,287,44.64Z" style="fill:#2b2b2b"/><path d="M220.31,39.15c-2.89,3.14-2.89,7.39-7.39,5.9s-7.39-6.37-4.5-7.78,1.59-3.94,2.72-6.37S208,20.46,205,22.54s-12.31,4.84-14.56,3.62-8.67-3.54-9-6.08,5.46-4.46,8.35-4.14.32-4.5-1.28-4.18-8.68-3-9.64-1.84,1.28,6.34,0,6.66-5.71-.32-8.15-1.93c-1.65-1.07-6.88-7.19-4.35-12.37a148.58,148.58,0,0,1,50.77,19.37h0C217.29,22,223.16,36.06,220.31,39.15Z" style="fill:#414142"/><path d="M165.68,13.58c-1.71,0-2.78-3.66-2.78-3.66s-1.51-2.34-.22-3.19c.72-.48-.51-3.1-1.73-5.31a147.94,147.94,0,0,0-32.4-.94,7.76,7.76,0,0,0,1.35,7.75c1.51,1.71.86,4.28,0,6.64s-4.5,6-7.28,5.82-.64,4.25,2.92,5.81,4.36-2.42,6.72-5.81,7.28-2.61,9.43-.61,5.56,1,5.4,0,.59-4.78,1.67-5,3.85-.21,7.28,2.14,10.71,1.93,11.57,0S167.4,13.58,165.68,13.58ZM154.75,9.92c-3.64-.88-7.5-1.05-10.12,0s-2.09,1.31-5.12,1.51-4.25-4.06-3.61-7.09,7.22-.82,7.22-.82c1.69.44,7.35,1.7,10.3.82s5.4.88,6.48,3.89S158.4,10.8,154.75,9.92Z" style="fill:#414142"/><path d="M75.41,14.74s-6-2.49-8.52,5.4c0,0-7.68,1.24-8.3,6.43A9.32,9.32,0,0,0,48.43,22s-2-8.31-11.31-6.44a12.61,12.61,0,0,0-4.47-5.18c3.8-6.55,15.78-4,15.78-4,3.33-4.15,8.91-.83,8.91-.83,4.15-2.28,9.14,2.08,9.14,2.08C76.24,4.77,75.41,14.74,75.41,14.74Z" style="fill:#d1440c"/><path d="M48.43,22s-7.7-.42-8.11,4.15c0,0-.79-4.8-6.94-4.16,0,0-6.77-5.46-11.75,2.05,0,0-3.6-2.95-7.48-.8,1-8.3,10.8-8.51,10.8-8.51.42-4.57,7.47-3.94,7.47-3.94s.15-.28.23-.41a12.61,12.61,0,0,1,4.47,5.18C46.38,13.7,48.43,22,48.43,22Z" style="fill:#414142"/><path d="M58.59,26.57s-9.12,0-10.16,5.4c0,0-6.66.83-5.83,8.93,0,0-5.56-1.45-7.25,4.15,0,0-1.26-8.19-9-5.23,0,0-2.28-4.94-8.72-2.65,0,0-.28-7.27-8.44-7.69-1.39-4.56,4.91-6.23,4.91-6.23,3.88-2.15,7.48.8,7.48.8,5-7.51,11.75-2.05,11.75-2.05,6.15-.64,6.94,4.16,6.94,4.16.41-4.57,8.11-4.15,8.11-4.15A9.32,9.32,0,0,1,58.59,26.57Z" style="fill:#ed562e"/><path d="M73.47,66.87c-8.44-8.64-25-1.3-25-1.3a8.19,8.19,0,0,0-2-11,7.16,7.16,0,0,1,4.48-4.1c0-5.6,4.57-5.4,4.57-5.4.61-4.15,9.13-4.15,9.13-4.15,5.4,1.09,3.7,5.32,3.61,5.53h0c2.63,3.05-.69,7.2-.69,7.2C74.44,56.13,73.47,66.87,73.47,66.87Z" style="fill:#ed562e"/><path d="M36.24,67.33c-.24-.07-4.92-1.54-7.55,1.19a12.41,12.41,0,0,0-4-.2c3.17-1.09,2.59-4.39,4.52-4.18s4.16-3,4.16-3A8.13,8.13,0,0,0,36.24,67.33Z" style="fill:#ed562e"/><path d="M55.48,45.05s-4.57-.2-4.57,5.4a7.16,7.16,0,0,0-4.48,4.1,8.18,8.18,0,0,0-13,6.58s-2.23,3.22-4.16,3-1.35,3.09-4.52,4.18a6.09,6.09,0,0,0-4.94,3s-7.9,1-10,7.53c-8.76,0-6.4-8.3-6.4-8.3a7.58,7.58,0,0,1,9.76-5s-2.91-4.94,2.07-7c0,0-2.7-7.26,6-8.3,0,0-4.37-7.15,5.18-10.43,7.69-3,9,5.23,9,5.23C37,39.45,42.6,40.9,42.6,40.9,50.07,37,55.48,45.05,55.48,45.05Z" style="fill:#d1440c"/><path d="M21.22,50.25c-8.73,1-6,8.3-6,8.3-5,2.08-2.07,7-2.07,7a7.58,7.58,0,0,0-9.76,5c-6.44-3.73-1.25-9.46-1.25-9.46-5.19-5.94.83-10.47.83-10.47-5.61-5.61,0-13.29,0-13.29a7.76,7.76,0,0,1,6.3-7.89c8.16.42,8.44,7.69,8.44,7.69,6.44-2.29,8.72,2.65,8.72,2.65C16.85,43.1,21.22,50.25,21.22,50.25Z" style="fill:#414142"/><path d="M91.81,43c-6.3-1.94-10.73,3.46-10.73,3.46-4.75-5.44-12.58-.2-12.86,0,.09-.21,1.79-4.44-3.61-5.53,4.15-9.55,13.29-4.77,13.29-4.77a12.48,12.48,0,0,1,4.15-.46C89,36.12,91.81,43,91.81,43Z" style="fill:#ed562e"/><path d="M82.05,35.67a12.48,12.48,0,0,0-4.15.46s-9.14-4.78-13.29,4.77c0,0-8.52,0-9.13,4.15,0,0-5.41-8.1-12.88-4.15C41.77,32.8,48.43,32,48.43,32c1-5.4,10.16-5.4,10.16-5.4.62-5.19,8.3-6.43,8.3-6.43,2.5-7.89,8.52-5.4,8.52-5.4C80.53,15,80,21,80,21c3.36,1.52,1.35,7.48,1.35,7.48A6.11,6.11,0,0,1,82.05,35.67Z" style="fill:#414142"/><path d="M273.29,33.8c21.18,4.2-19.31,3-32.81.87s9.14,4.56,25.13,7.89-5.81,5.39-23.88,0-19.94.42-4.15,5.82,26.37,5.39,22.84,8.51-18.23-2.45-28.66-6S237.58,57,248,65.57s14.12,18.11,5,10.84S224.71,51.7,221,54s14.75,12.66,20.77,20.55-3.95,4.47-10.38-1.61-12-15.21-16.2-14.17,28.66,40.91,32.6,43.81,3.53,12.25-12.45-8.09-21-30.83-23.47-31.82S217,83.72,228,96.26s-.83,10.26-4.78,1.95S208.77,81.6,206.46,56.69a22.91,22.91,0,0,0,4.68-1.48A27,27,0,0,0,222,46.44c5-6.65,3.32-14.1,1.65-18.32.69-.1,43.73-6.17,58-3.42s-37.1,2.63-49.42,4.85S252.12,29.6,273.29,33.8Z" style="fill:#414142"/><path d="M163.93,156a9.43,9.43,0,0,1-2.55.52c-6,.42-27.83-26-30.11-36.13a10.52,10.52,0,0,1-.28-2.22,3.09,3.09,0,0,1,0-.43v0c0-.2.07-.49.09-.82,1-6.1,10.35-4.4,10.35-4.4l7,.52c1.55,1.43,5.31,6.73,9,11s6.57,14.14,0,6.86-3.71-1.93-.66,6.42,3.81,9.21-1.55,3-14.78-15-12.94-13.07,10.58,15.43,16.6,20.57C162.62,151,163.67,154.14,163.93,156Z" style="fill:#2b2b2b"/><path d="M168.62,151.58a8.21,8.21,0,0,1-4.69,4.46c-.26-1.9-1.31-5-5-8.19-6-5.14-14.75-18.64-16.6-20.57s7.58,6.86,12.94,13.07,4.6,5.36,1.55-3-5.91-13.69.66-6.42,3.71-2.58,0-6.86-7.47-9.58-9-11c3.24.26,7.16.59,10.89,1,3.92.4,7.62.84,10.11,1.31,0,0-7.55.33-6.75,3.87s.84,1.92,3.72,8.35,0,1.45-5.24-3.69-1.22,3.85,2.8,8.67,4.35,7.23.81,6.59C161.54,138.53,165.68,142.77,168.62,151.58Z" style="fill:#ef9620"/><path d="M176.33,138.71c1.45,2.49-2.91,5.81-3.53,8.51s-4,3.74-4,3.74a6.39,6.39,0,0,1-.23.62c-2.94-8.81-7.08-13.05-3.86-12.46,3.54.64,3.22-1.77-.81-6.59s-8-13.82-2.8-8.67,8.11,10.12,5.24,3.69-2.91-4.82-3.72-8.35,6.75-3.87,6.75-3.87a12,12,0,0,1,2.75.74c3.33,1.66,3.33,7.06,4.58,9.14s-.84,5.19-.13,7.26S174.87,136.21,176.33,138.71Z" style="fill:#eae3dd"/><path d="M131.08,116.94c0,.33-.05.61-.08.82A6.7,6.7,0,0,1,131.08,116.94Z" style="fill:#da552c"/><path d="M130.93,130.88a13,13,0,0,1-3.4-.28c-6.14-1.13-19.83-7.28-26.86-13.29a13.88,13.88,0,0,1-4.08-5c-2.7-7.08-11.21-7.68-11.21-7.68-2.5-2.7,1.87-4.77,6.43-5.19,4.23-.38,9.89,2.61,15,3.06.4,0,.81.06,1.21.06,5.4,0,14.33,5,18.9,6.29a5.81,5.81,0,0,1,3.94,4.75s-15.34-7.73-24-8.39c-2.31-.17-4.11-.37-5.59-.56-4.1-.54-5.63-1.06-8.11-1.06-3.37,0,5.52,3.74,9.35,5s11,1.33,15.21,3.7c2.62,1.48.74.94-2.44.44h0a28.7,28.7,0,0,0-6.43-.43c-5.71.45-7.79.84-8.92,0s1.52,3.46,7,5.89C111.88,120.49,125.08,125.15,130.93,130.88Z" style="fill:#2b2b2b"/><path d="M130.93,130.88c-5.85-5.73-19.05-10.39-24.13-12.67-5.43-2.43-8.07-6.73-7-5.89s3.21.45,8.92,0,13.09,2.38,8.89,0-11.38-2.44-15.21-3.7-12.72-5-9.35-5,5,1,13.7,1.62,24,8.39,24,8.39a12.61,12.61,0,0,1,.24,3.32,5.28,5.28,0,0,0-.09.82v0a1.38,1.38,0,0,1-.15.43c-.64,1.37-2.94,2.39-1.24,4,1.86,1.82-.42,1.92,1.38,3.79C132.45,127.56,134.46,130.58,130.93,130.88Z" style="fill:#eae3dd"/><path d="M131.08,116.94c0,.33-.05.61-.08.82A6.7,6.7,0,0,1,131.08,116.94Z" style="fill:#da552c"/><path d="M61.13,104.84c-3.42,2.15-6,0-12,2.41s-9.39-5.4-6.39-7.55,0,0,3.21-5.14,9.56,0,9.56,0c2.71,1.61,3.94-.86,7.81-2.28S64.57,102.7,61.13,104.84Z" style="fill:#414142"/><path d="M121.33,19c-2.25.54-8.67,2-12.56,0s-8-.85-9.61,1-9,2.29-12.85,0-1-2.21-1.66-6.07,5.84-1.61,5.84-1.61c2.54,3.07,5.78-.64,6.74-2.48.38-.72.12-2.18-.11-3.61a156.59,156.59,0,0,1,24.25-5.08c1.56,1.55,2.71,3.11,2.86,3.11.32,0-.32,6.46,2.57,7.41S123.58,18.51,121.33,19Z" style="fill:#414142"/><path d="M132.9,47.75c-1,2.25-4.17,1.93-8,1.85s-8-2.49-7.07-5.1,1.61-1.94,1.61-1.94c1.45-3.83,6.1-4.45,10.28-1.76S133.87,45.5,132.9,47.75Z" style="fill:#414142"/><path d="M173.39,40.8c-1.28,1.4-3.85.52-6.42,1.76s-3.54,7.12-7.4,3.88-7.71-4.47-5.5-7.29a9.41,9.41,0,0,1,5.5-3.29c2.72-1,4.5-3.85,4.38-8s7.84,2.57,9.44,5.91S174.68,39.4,173.39,40.8Z" style="fill:#414142"/><path d="M140,29.48c-1.93.05-4.5,3.17-7.07,0s3.54-6.36,3.54-6.36c1.78-1.16,5.46-.43,6.42.87S141.9,29.44,140,29.48Z" style="fill:#414142"/><path d="M154.75,9.92c-3.64-.88-7.5-1.05-10.12,0s-2.09,1.31-5.12,1.51-4.25-4.06-3.61-7.09,7.22-.82,7.22-.82c1.69.44,7.35,1.7,10.3.82s5.4.88,6.48,3.89S158.4,10.8,154.75,9.92Z" style="fill:#ef9620"/><path d="M141.9,47.4a11.94,11.94,0,0,1-6.16-1c-2.1-1,1.87-3.08,1.95-5.54s5.43-.1,5.43-.1C145.41,43.16,143.62,47.22,141.9,47.4Z" style="fill:#414142"/><path d="M197.64,51.18c-3.18-1.74-8.23-2.61-15.84.43-2.67-2.07-3.57-5.1-.48-6.25,3.85-1.43,4.93-3.28,5.14-5.54s5.36-.67,5.36-.67c5.35-.66,4.28,7.21,6.21,9.35C198.78,49.34,198.43,50.3,197.64,51.18Z" style="fill:#414142"/><path d="M197.64,51.18a10.54,10.54,0,0,1-4.25,2.7,16.25,16.25,0,0,1-9.28-.94,9.82,9.82,0,0,1-2.31-1.33C189.41,48.57,194.46,49.44,197.64,51.18Z" style="fill:#2b2b2b"/><path d="M196.09,73.39c-2.84,9.84-9.73,25.23-25.5,35.15-5.71-2.14-9.52-6-10.45-7.77-1.25-2.35,8.11-7.07,7.77-13.06s5.69-6.86,9.25-6.86,6.52-10.93,10.37-11.54C190.08,68.9,193.71,71.3,196.09,73.39Z" style="fill:#dbd3ce"/><path d="M152.4,76.56c-.43-3.21,0-3.85-4.46-6s-6.25-3.88-4.82-6,6.09-.33,7.77,0c2.84.57,2.58,1.29,3.18,8.36S152.83,79.78,152.4,76.56Z" style="fill:#414142"/><path d="M131.51,65.1c-.32,1.82-2.35,2.47-4.39,2.79s-4.39,0-5.8-1.71.44-4.18,0-5.9,4.19-2,4.19-2C132.32,57.2,131.83,63.29,131.51,65.1Z" style="fill:#414142"/><path d="M158,76.56c2.63-1.71-.92-8.56-.06-11s-7.28-2.28-14.85-4.44-9.57,4.73-9.7,8.18,5.7,3.83,10.78,3.62,5.2,4.92,2.05,6-6.71,5.39-11.12,3.68-7.58-3.44-7.57-6.43-8.15-4.72-13.3-3.21-7.28-4.5-5.49-7.36-7.38-4.44-7.38-4.44a11.91,11.91,0,0,1-1.89,7.18c2.69,6-1,9.76-1,9.76l-.82,6.86a7.57,7.57,0,0,0,6,4.07c4.18.21,6.18,0,5.11,3.16-.21.6-.58,1.71-1,3.14A149.38,149.38,0,0,0,133,96a25.15,25.15,0,0,0-.07-3.85c-.25-3.83,2.57-5.09,4.79-3.16s6.35.64,6.94-1.51,6.26,0,6.26,0a10.47,10.47,0,0,1,5.89,1.9h0a26.64,26.64,0,0,0,9.6-10.78C161.51,79.15,156.05,77.86,158,76.56ZM121.35,93.49c-3,1.93-9-.43-9.23-2.57s-2.14-4.29-5.21-5.15-4-4.06-4.43-6.88,3.43-6,3.43-6c1.75-1.78,3,1.49,5.57,2.57s6.21.42,9.87,0,7.5,3.6,9.64,9.43S124.34,91.56,121.35,93.49ZM152.4,76.56c-.43-3.21,0-3.85-4.46-6s-6.25-3.88-4.82-6,6.09-.33,7.77,0c2.84.57,2.58,1.29,3.18,8.36S152.83,79.78,152.4,76.56Z" style="fill:#ef9620"/><path d="M108.77,92.16c-.21.6-.58,1.71-1,3.14q-7.36-.75-16-2.14c2.83-2.33,5.45-5.24,5.82-8.23a7.57,7.57,0,0,0,6,4.07C107.84,89.21,109.84,89,108.77,92.16Z" style="fill:#eae3dd"/><path d="M121.35,93.49c-3,1.93-9-.43-9.23-2.57s-2.14-4.29-5.21-5.15-4-4.06-4.43-6.88,3.43-6,3.43-6c1.75-1.78,3,1.49,5.57,2.57s6.21.42,9.87,0,7.5,3.6,9.64,9.43S124.34,91.56,121.35,93.49Z" style="fill:#414142"/><path d="M133,96a25.15,25.15,0,0,0-.07-3.85c-.25-3.83,2.57-5.09,4.79-3.16s6.35.64,6.94-1.51,6.26,0,6.26,0a10.47,10.47,0,0,1,5.89,1.9C151.52,92.77,144,95.23,133,96Z" style="fill:#414142"/><path d="M156,97.86c-4.07,1.38-5.78,6.77-8.1,9.85s-8,.78-15-1.58-9.64-7.07-4.5-6.71c3.34.24,4.34-1.27,4.57-3.41,11-.78,18.55-3.24,23.81-6.62h0C160.26,92.12,159,96.85,156,97.86Z" style="fill:#2b2b2b"/><path d="M158.13,111.13c-3.54-.41-5.3-3.29-3.93-5.38s3.93,0,3.93,0C162.63,109.29,161.66,111.54,158.13,111.13Z" style="fill:#2b2b2b"/><path d="M35.35,81.33c-.71,2.62-2.71,3-4.06,3.6s-6.36-2.15-6.57-4.29a3,3,0,0,1,1.68-3c1.27-1.15,3.88-1.29,7-3.22S36.07,78.71,35.35,81.33Z" style="fill:#414142"/><path d="M130.14,122.87s-10.47-4-15.08-5.11-6.64-2-10.17-2.59,12,6.18,16.49,7.7,11.78,8.55,12.43,8S132,123.56,130.14,122.87Z" style="fill:#ef9620"/><path d="M115.22,112.76c3.18.5,5.06,1,2.44-.44-4.2-2.37-11.38-2.44-15.21-3.7s-12.72-5-9.35-5c2.48,0,4,.52,8.11,1.06a122.1,122.1,0,0,0,12.89,4.52c8.25,2.35,11.78,4.57,13.39,6S115.92,113,115.22,112.76Z" style="fill:#ef9620"/><path d="M114.31,55.89s-3-1.46-4.33.8,0,4.21,3.37,4.44S115.92,57,114.31,55.89Z" style="fill:#414142"/><path d="M104.37,31.47s-4.32-1.34-3.94,1.1.9,4,3.94,3.56S108.88,33.4,104.37,31.47Z" style="fill:#414142"/><path d="M171,54.17s3.87-.62,2.5-3-3-3.54-6.2-1.58S163.24,55.4,171,54.17Z" style="fill:#414142"/><path d="M179.37,31.1s-.47-1.57-2.72-.2-3.05,4,0,5.31S183.53,35.24,179.37,31.1Z" style="fill:#414142"/><path d="M120.78,29.71s-2.29-2-2.45,1.39,3.21,4.4,5.14,3.83S122.91,31.64,120.78,29.71Z" style="fill:#414142"/><path d="M144.83,104.25s5.63-3.5,4.35-5-2.8-3.07-6.54-1.14-3.89,1.32-7.51,1.78-2.5,2.4,1.52,4.32S143.63,105.06,144.83,104.25Z" style="fill:#e0861b"/><path d="M179.37,87.6s-3.5-1.88-4.72,0S171,92,173.53,93.16,183.53,90.54,179.37,87.6Z" style="fill:#2b2b2b"/><path d="M150.37,31.1a2.26,2.26,0,0,0-2,2.37c0,2.18.6,3.63,2.85,2.74S154.45,29.45,150.37,31.1Z" style="fill:#414142"/><circle cx="44.47" cy="58.78" r="2.09" style="fill:#eae3dd"/></g></g></svg>