<svg xmlns="http://www.w3.org/2000/svg" viewBox="0 0 254.88 183.6"><title>red-eyed-tetra</title><g id="Layer_2" data-name="Layer 2"><g id="Ñëîé_2" data-name="Ñëîé 2"><path d="M75.06,82.77c-1.84,5.91-3.13-2-6.17-6.91a16.14,16.14,0,0,0-1.76-2.35c-2.56-2.8-5.43-3.25-9.39-2.68-4.89.7-9,2.16-11.92-.6a15.39,15.39,0,0,0-19.13-3.94s-11.08.78-12.6,3.94S12.57,76.37,13,79.92s-1.79,6.73-4.7,2.72C6.16,79.71,3,77.52,0,77.47a15.76,15.76,0,0,1,.46-3.74h0c.07-.18.69-1.72,1.88-1.45S9.8,78.35,9.8,78.35c-.14-4.15-6.45-9.24-6.45-9.24A5.7,5.7,0,0,1,4,68.67c15.61-9.31,38.28-11.84,49.19-16.79C57,55,65.15,61.56,69.9,64a10.82,10.82,0,0,1,5.28,6.88A21.49,21.49,0,0,1,75.06,82.77Z" style="fill:#a4a3ad"/><path d="M59.86,74.34C56.93,79.93,54.31,94,52.3,99.55c-2.95,8.11-9,17.7-20.1,13.7S2.17,88.5,1.72,88h0c-.19-.64-.36-1.28-.53-1.92A34.56,34.56,0,0,1,0,77.47c3,0,6.16,2.24,8.28,5.17,2.91,4,5.12.83,4.7-2.72s-.41-6.55,1.11-9.69,12.6-3.94,12.6-3.94a15.65,15.65,0,0,0-3.79,2.82,15.32,15.32,0,0,0-4.43,10.6v.21a15.39,15.39,0,1,0,30.78,0c0-.28,0-.55,0-.82h0A15.33,15.33,0,0,0,47.3,72.4C53,75.93,59.61,74.4,59.86,74.34Z" style="fill:#e8e8e8"/><path d="M62.62,124.07c-14.56,5-31.66,2-49.11-13.77A70.4,70.4,0,0,1,1.72,88c.45.49,19.55,21.29,30.48,25.24s17.15-5.59,20.1-13.7c2-5.54,4.63-19.62,7.56-25.21h0c1.36-2.59,2.78-3.36,4.24-.61C68.7,82.4,77.18,119.09,62.62,124.07Z" style="fill:#efefef"/><path d="M184.38,90.26c0,.15,0,.31,0,.47s0,.3,0,.45v.06c0,.15,0,.3,0,.45,0,.39-.05.77-.09,1.17,0,.22,0,.45-.08.67a2.35,2.35,0,0,1,0,.37,5.58,5.58,0,0,1-.08.57c0,.13,0,.27-.07.4s-.09.52-.15.78-.11.5-.17.76-.13.51-.2.76-.19.68-.3,1-.19.57-.29.85-.17.47-.26.7h0l-.31.76-.12.28c-.15.35-.32.69-.49,1l-.18.36q-.17.34-.36.69a32.64,32.64,0,0,1-2.37,3.69c-3.38.37-5.05,2.06-5.85,3.56l0,0a6.37,6.37,0,0,0-.76,2.48c-.43,8.23-6.24,17.48-11.6,23.41-1,1.16-2.15,2.27-3.3,3.33a62.62,62.62,0,0,1-18.71,11.72,74.53,74.53,0,0,1-14,4.22c-.64.12-1.28.24-1.92.34,23.5-4.79,16-36.31,22.44-49.1,6.79-13.46,39.37-17.08,39.37-17.08h0C184.37,89.74,184.38,90,184.38,90.26Z" style="fill:#ccccce"/><path d="M184.21,87.26c0-.12,0-.24,0-.36,0-.34-.08-.67-.13-1s-.11-.65-.17-1c-.12-.62-.25-1.21-.4-1.79-.07-.3-.15-.59-.23-.87l0-.16c-.09-.29-.17-.57-.26-.84,0,0-13.39,2.48-24.08-4.74S127,53.28,103.92,60.65C91.6,64.6,82,68.36,75.18,70.85a21.49,21.49,0,0,1-.12,11.92c-1.84,5.91-3.13-2-6.17-6.91a16.14,16.14,0,0,0-1.76-2.35,6.1,6.1,0,0,1-3,.22c4.6,8.67,13.08,45.36-1.48,50.34S31,126,13.51,110.3c1.37,1.8,2.8,3.55,4.26,5.23a113.26,113.26,0,0,0,37.79,28A136.22,136.22,0,0,0,83,152.79c4.6,1,9.31,2,14.06,2.65a84.27,84.27,0,0,0,25.46.23h.06c23.5-4.79,16-36.31,22.44-49.1,6.79-13.46,39.37-17.08,39.37-17.08C184.35,88.72,184.3,88,184.21,87.26Zm-60.69,56.17c-3.08,1.47-2.09,3.13-4.85,4.24s-3.32,1.84-5.9,2.21.18,1.66-11.8,0a94.22,94.22,0,0,1-11.24-2.29h0c-8.79-2.35-17.19-5.93-21.19-10.05-1.1-1.14-3-2.95-3-4.7A1.4,1.4,0,0,1,67,131.25c2.1-.15,5.85,1.78,7,2.14a121.86,121.86,0,0,0,11.87,3.12c6.48,1.34,13.21,2.5,19.85,2.31C118.66,138.45,126.59,142,123.52,143.43Zm26.86-51c-14,5.19-47.76,11.39-63-1.7s-5.72-19.17,19.91-26.18c10-3,20.94-.88,29.93,4,4.84,2.64,8.7,6.45,12.91,10,.51.43,1,.82,1.6,1.21a19.57,19.57,0,0,1,3.37,2.77C159.09,87.06,154.82,90.75,150.38,92.4Z" style="fill:#dbdbdb"/><path d="M67.13,73.51a6.1,6.1,0,0,1-3,.22c-1.46-2.75-2.88-2-4.24.61h0c-.25.06-6.85,1.59-12.56-1.94a14.44,14.44,0,0,0-1-1.57h0a6.8,6.8,0,0,0-.46-.6c2.91,2.76,7,1.3,11.92.6C61.7,70.26,64.57,70.71,67.13,73.51Z" style="fill:#a4a3ad"/><path d="M182.94,81.28s-13.39,2.48-24.08-4.74S127,53.28,103.92,60.65C91.6,64.6,82,68.36,75.18,70.85A10.82,10.82,0,0,0,69.9,64C65.15,61.56,57,55,53.19,51.88l.31-.14c10.62-5,37.08-14.05,68-16.69l1.4-.12c11-.86,20.48,3,28.16,8.36,14.35,10,22.44,25.38,22.44,25.38s1.66,3.6,5.12,3.73A32.52,32.52,0,0,1,182.94,81.28Z" style="fill:#afadb8"/><path d="M215.35,121.87c-5.29-2.9-10-5.47-12.8-6.74-8.44-3.87-17.42-9.26-23.78-8.57a32.64,32.64,0,0,0,2.37-3.69q.2-.34.36-.69l.18-.36c.17-.35.34-.69.49-1l.12-.28c.11-.25.21-.51.31-.76h0c.09-.23.18-.46.26-.7s.2-.56.29-.85.21-.67.3-1,.14-.51.2-.76.12-.51.17-.76.11-.52.15-.78.05-.27.07-.4a5.58,5.58,0,0,0,.08-.57,2.35,2.35,0,0,0,0-.37c0-.22.06-.45.08-.67,0-.4.07-.78.09-1.17,0-.15,0-.3,0-.45v-.06c0-.15,0-.3,0-.45s0-.32,0-.47,0-.52,0-.77h0c0-.76-.07-1.5-.16-2.22a3.6,3.6,0,0,0,0-.36c0-.34-.08-.67-.13-1s-.11-.65-.17-1c-.12-.62-.25-1.21-.4-1.79-.07-.3-.15-.59-.23-.87l0-.16c-.09-.29-.17-.57-.26-.84a32.52,32.52,0,0,0-4.31-8.88c3.45.14,9-3.73,9-3.73l2-1.17s9.39-2.79,13.81-4.27-1.48,2.58-4.79,5.35,5.16,2.21,2.39,3.5,4.65,3.32,4,3.88,2.48,5.16,5.24,5.53-2,2.94,0,3.5-3.21,2.76.89,4.42-4.76,3.14-1.44,5.16-.93,2.58,1.47,4.61-.37,4.24-4.42,3.88-6.83,1.65-3.32,4.23,6.08,4.43,3.5,4.43S214.31,118.57,215.35,121.87Z" style="fill:#414142"/><path d="M248.45,38.8a9.37,9.37,0,0,1-5,6.87h0l-1.44.7-.06,0h0c-12.11,5.7-27.53,13-30.69,14.62-5.34,2.77,19.91-6.29,29.87-10.88s-25.26,14.2-31.34,16.6.18,2.39,17.7-5.16,11.43-.75-1.11,4.23-25.07,5.9-15.12,5.9,23-7.56,24.52-5.34-13.45,7-21.2,8.29-4.06,2.77,6.82,1.66,21.7,3,11,3.51S206.24,80,218.22,82s24.83,4.24,14.08,4.42S212.13,87.75,219,89.23s21,2.28,13.34,3.17-20.9.88-14.45,3.28,24.28,7.74,14.45,6.63-20.53-6.81-15.74-2.76,26.54,12.35,19.35,13.09S210.44,99.18,215.35,104s24.07,14.6,23.33,17.9S219,113.19,212.87,109s-5.16,1.3,11.06,10.51c14.43,8.2,17.92,10.13,14.63,15-5.08-2.46-14.81-7.94-23.21-12.58-1-3.3-11-10.15-8.38-10.15s0-1.84-3.5-4.43-.74-4.6,3.32-4.23,6.82-1.85,4.42-3.88,1.85-2.58-1.47-4.61,5.53-3.5,1.44-5.16,1.14-3.87-.89-4.42,2.77-3.14,0-3.5-5.9-5-5.24-5.53-6.74-2.59-4-3.88-5.71-.74-2.39-3.5,9.22-6.82,4.79-5.35-13.81,4.27-13.81,4.27C222.42,48.78,240.12,40.89,248.45,38.8Z" style="fill:#efefef"/><path d="M243.42,45.67a10.19,10.19,0,0,1-1.44.7Z" style="fill:#f7f5f0"/><path d="M251.08,49.73a8.65,8.65,0,0,0-3.18,7.19A4.94,4.94,0,0,1,244.58,62c-1.52.56-1.93,3.88-2.07,6.5s-1.25,4.15-2.91,5,0,6.5-1.66,8.3.14,8.85.56,13-2.22,5.26,1.1,5.81,1.11,5.67,2.22,9.27,2.76,4.42,1.79,6.63,2.08,4.43.69,5.26,3.74,5,4.71,10.78-3.74,3.87-7.33,3.18a16.47,16.47,0,0,1-3.12-1.28c3.29-4.86-.2-6.79-14.63-15-16.22-9.21-17.14-14.75-11.06-10.51s25.07,16.23,25.81,12.92-18.43-13.1-23.33-17.9,13.37,9.41,20.56,8.67-14.56-9-19.35-13.09,5.9,1.66,15.74,2.76-8-4.23-14.45-6.63,6.82-2.4,14.45-3.28-6.52-1.7-13.34-3.17,2.57-2.58,13.34-2.77-2.1-2.4-14.08-4.42,3.31-1.66,14.08-2.21-.07-4.62-11-3.51-14.56-.36-6.82-1.66,22.68-6.08,21.2-8.29-14.56,5.34-24.52,5.34,2.58-.92,15.12-5.9S245,54,227.44,61.58s-23.79,7.55-17.7,5.16,41.3-21.2,31.34-16.6S205.87,63.79,211.21,61c3.16-1.63,18.58-8.92,30.69-14.62h0l.06,0a10.19,10.19,0,0,0,1.44-.7h0a9.37,9.37,0,0,0,5-6.87c3.81-1,5.66-.7,6.09.28a4.35,4.35,0,0,1,.31,1.23C255.22,43.65,252.67,48.63,251.08,49.73Z" style="fill:#fffaf2"/><path d="M186.33,31.68c-.94,2.51-5.54,4.7-8.39,6a56.46,56.46,0,0,1-26.87,5.59c-7.68-5.38-17.16-9.22-28.16-8.36l-1.4.12S151.94,7.28,164.39,1.47c0,0,4-2,7.08-1.34-6.71,5.09-35.54,26.93-38.79,29.37C129,32.22,148,26,174.29,2a6.23,6.23,0,0,0,2.24,1.31c-7.86,7.29-26.77,24.37-35.56,28.41-11.18,5.13,18.31-2.29,39.31-27.42,1,.32,1.7.82,1.8,1.88.18,1.91,2.31,2.08,3.6,2.9-7.05,4.79-36.84,25-40.21,27.29-3.67,2.46,14.46-2.44,40.83-23.58a3.9,3.9,0,0,0,.73,2.65C177.62,23.16,161.5,35.87,153.64,39c-10.5,4.18,13.8-.44,35.08-19.81v.27c0,2.43-1.9,4.74-2.62,7-4.69,3.68-12.74,9.35-20.06,11.34C155.42,40.69,173.58,39.57,186.33,31.68Z" style="fill:#fffaf2"/><path d="M186.33,31.68c-12.75,7.89-30.91,9-20.29,6.11,7.32-2,15.37-7.66,20.06-11.34a4.21,4.21,0,0,0,.13,3.23A2.42,2.42,0,0,1,186.33,31.68Z" style="fill:#efefef"/><path d="M188.72,19.18c-21.28,19.37-45.58,24-35.08,19.81,7.86-3.12,24-15.83,33.39-23.56C187.71,16.48,188.63,17.41,188.72,19.18Z" style="fill:#efefef"/><path d="M186.51,11.71a5.29,5.29,0,0,0-.21,1.07c-26.37,21.14-44.5,26-40.83,23.58,3.37-2.27,33.16-22.5,40.21-27.29A2,2,0,0,1,186.51,11.71Z" style="fill:#efefef"/><path d="M180.28,4.29c-21,25.13-50.49,32.55-39.31,27.42,8.79-4,27.7-21.12,35.56-28.41C177.85,3.78,179.22,4,180.28,4.29Z" style="fill:#efefef"/><path d="M174.29,2C148,26,129,32.22,132.68,29.5c3.25-2.44,32.08-24.28,38.79-29.37a4,4,0,0,1,2.32,1.34A4.1,4.1,0,0,0,174.29,2Z" style="fill:#efefef"/><path d="M199.78,121.87c-1.1,5.7-12.17,36.68-11.06,46.08s-4.58,7.74-12.25,3.87-8.49-5-11.25-3-5.26-2.22-8-1.39c-1.51.46-5.67-1.22-9.83-4.6,1.89-1.47-1.3-8.6-.68-11.25.73-3.13,3.13,9.4,6.82,12.35s-2.4-8.85-2.39-14,4.42,9,7.55,13.27,6.64,4.06,3.13-1.47-7.92-16.59-3.87-11.8,8.3,14.2,13.65,16.23-9-16.41-10.51-20.47,18.8,24.15,23.23,23.6-18.63-23-21.46-26.36,12.61,10,20.82,14.93-12.64-13.27-17.8-19,10,7.74,20.1,10.69-9.59-8.85-16.76-15.12,5,1.66,16.94,7.4,2.76-.57-7-8.32-6.83-5.9,5.71-.74,9.4,1.3-1.84-3.86-14.2-10.52-.93-4.06,15.67,4.28,6.64,0-14.38-9.77-8.85-7.93,19.13,8,14.8,5-21.44-9.6-14.06-8.49c5.73.85,14.67,5.27,19.23,8.15Z" style="fill:#fffaf2"/><path d="M194.67,121.87c4.33,3-9.27-3.15-14.8-5s-.18,3.64,8.85,7.93,6.64,6.45-6.64,0-10.32-1.09.93,4.06,14.38,9,1.84,3.86-15.49-7-5.71.74,19,14.06,7,8.32-24.1-13.66-16.94-7.4,26.89,18.07,16.76,15.12-25.26-16.41-20.1-10.69,26,24,17.8,19S160,139.56,162.84,142.88s25.88,25.8,21.46,26.36-24.71-27.66-23.23-23.6,15.85,22.49,10.51,20.47-9.59-11.44-13.65-16.23.37,6.27,3.87,11.8,0,5.71-3.13,1.47-7.55-18.43-7.55-13.27,6.08,17,2.39,14-6.09-15.48-6.82-12.35c-.62,2.65,2.57,9.78.68,11.25a29.42,29.42,0,0,1-8.85-11.69,62.62,62.62,0,0,0,18.71-11.72c1.15-1.06,2.26-2.17,3.3-3.33,5.36-5.93,11.17-15.18,11.6-23.41a6.37,6.37,0,0,1,.76-2.48l0,0c.28-.34,2.82-3.07,11.38,0,8.94,3.24,16.29,5.91,15.54,11.37-4.56-2.88-13.5-7.3-19.23-8.15C173.23,112.27,190.34,118.82,194.67,121.87Z" style="fill:#efefef"/><path d="M142.45,179.19c-1.29-3.13-.19-7.37-2.4-8.66s2.1-4.42-1.53-5.53c-3-.9-2.89-3-3-4.68-4.73-.72-13.62-2.1-15.13-2.6-2.08-.7,7.49,3.26,11.47,4.14s-4,.83-11.47-1.24-5.59-.79,7,4.56-7.44-.5-13.66-3.77-7.33-1.21,8.57,6.68c12.71,6.29.59,2.72-11.62-2.65,9.12,6.48,20.39,14.12,25.82,16.33C146.5,185.83,143.74,182.33,142.45,179.19Zm-7.84-1.75c-5.16-2.21-2.76-6.08-.83-9,.63-1,2.09-2.59,3.45-2.23,1.06.28,1.05,1.26.8,2.23-.15.6-.39,1.2-.52,1.61a6.45,6.45,0,0,0,1,5.85C141.16,179.29,139.77,179.66,134.61,177.44Z" style="fill:#fffaf2"/><path d="M120.42,160.62c-7.47-2.07-5.59-.79,7,4.56s-7.44-.5-13.66-3.77-7.33-1.21,8.57,6.68c12.71,6.29.59,2.72-11.62-2.65-7.59-5.4-13.69-10-13.69-10a84.27,84.27,0,0,0,25.46.23c-.63.13-1.29.24-2,.32,1.38.16,14.56,1.72,14.9,3.29a6.26,6.26,0,0,1,.11,1c-4.73-.72-13.62-2.1-15.13-2.6-2.08-.7,7.49,3.26,11.47,4.14S127.89,162.69,120.42,160.62Z" style="fill:#efefef"/><path d="M134.61,177.44c-5.16-2.21-2.76-6.08-.83-9,.63-1,2.09-2.59,3.45-2.23,1.06.28,1.05,1.26.8,2.23-.15.6-.39,1.2-.52,1.61a6.45,6.45,0,0,0,1,5.85C141.16,179.29,139.77,179.66,134.61,177.44Z" style="fill:#fffbf5"/><path d="M49.23,79.1c-.84,3.82-2.55,2-2.19-.75s-1.75-2.77-2.67-1.94-2.31.83-3.6-1a9.43,9.43,0,0,0-6.91-3.59c-2.58,0-2.95,1.29-4.61,1.19s-6,4.06-7,6a3.93,3.93,0,0,1-3.08,2,7,7,0,0,1,1.32,2c1.11,2.49,5.17,4.24,5.72,5.66s1.84,2.45,8.2,3.93,7.56-3.32,9.78-5.81,4.37-2.32,4.37-2.32a15.5,15.5,0,0,0,.69-4.59C49.25,79.64,49.25,79.37,49.23,79.1ZM33.86,86.83a6.92,6.92,0,1,1,6.91-6.91A6.91,6.91,0,0,1,33.86,86.83Z" style="fill:#fff"/><circle cx="33.86" cy="79.92" r="6.91" style="fill:#414142"/><path d="M48.56,84.51a15.4,15.4,0,0,1-30.09-4.59v-.21a2.26,2.26,0,0,0,.7,1.31,7,7,0,0,1,1.32,2c1.11,2.49,5.17,4.24,5.72,5.66s1.84,2.45,8.2,3.93,7.56-3.32,9.78-5.81S48.56,84.51,48.56,84.51Z" style="fill:#414142"/><path d="M46.28,70.83c-.17,0-4.07-.21-5.88-1.72s-7.74-3.39-10.78-2.65-5.42,3.46-6.72,2.65a15.65,15.65,0,0,1,3.79-2.82,15.39,15.39,0,0,1,19.13,3.94A6.8,6.8,0,0,1,46.28,70.83Z" style="fill:#414142"/><path d="M49.23,79.09h0c-.84,3.82-2.55,2-2.19-.75s-1.75-2.77-2.67-1.94-2.31.83-3.6-1a9.43,9.43,0,0,0-6.91-3.59c-2.58,0-2.95,1.29-4.61,1.19s-6,4.06-7,6a3.93,3.93,0,0,1-3.08,2,2.26,2.26,0,0,1-.7-1.31,15.32,15.32,0,0,1,4.43-10.6c1.3.81,3.68-1.92,6.72-2.65s8.94,1.11,10.78,2.65,5.71,1.71,5.88,1.72h0a14.44,14.44,0,0,1,1,1.57A15.33,15.33,0,0,1,49.23,79.09Z" style="fill:#ff7409"/><path d="M150.38,92.4c-14,5.19-47.76,11.39-63-1.7s-5.72-19.17,19.91-26.18c10-3,20.94-.88,29.93,4,4.84,2.64,8.7,6.45,12.91,10,.51.43,1,.82,1.6,1.21a19.57,19.57,0,0,1,3.37,2.77C159.09,87.06,154.82,90.75,150.38,92.4Z" style="fill:#e8e8e8"/><path d="M123.52,143.43S85.57,139.65,78,136.52s2.59,4.88,33.28,7.83c0,0,2.12.27,1.75,1.47s-24.42-3.2-29.4-5,1.73,3.71,25.26,6.86c0,0,1.19.27,1,1s-22-2.86-25-4.51c-2.12-1.19.23,1.34,4.78,3.41-8.79-2.35-17.19-5.93-21.19-10.05-1.1-1.14-3-2.95-3-4.7A1.4,1.4,0,0,1,67,131.25c2.1-.15,5.85,1.78,7,2.14a121.86,121.86,0,0,0,11.87,3.12c6.48,1.34,13.21,2.5,19.85,2.31C118.66,138.45,126.59,142,123.52,143.43Z" style="fill:#fffaf2"/><path d="M123.52,143.43c-3.08,1.47-2.09,3.13-4.85,4.24s-3.32,1.84-5.9,2.21.18,1.66-11.8,0a94.22,94.22,0,0,1-11.24-2.29h0c-4.55-2.07-6.9-4.6-4.78-3.41,2.95,1.65,24.8,5.25,25,4.51s-1-1-1-1c-23.53-3.15-30.24-8.66-25.26-6.86s29,6.21,29.4,5-1.75-1.47-1.75-1.47c-30.69-2.95-40.83-11-33.28-7.83S123.52,143.43,123.52,143.43Z" style="fill:#efefef"/><path d="M37.75,76.36a3.89,3.89,0,1,1,3.89,3.89A3.89,3.89,0,0,1,37.75,76.36Z" style="fill:#fff"/></g></g></svg>