<svg xmlns="http://www.w3.org/2000/svg" viewBox="0 0 278.91 161.41"><title>regal-bluetang</title><g id="Layer_2" data-name="Layer 2"><g id="Ñëîé_2" data-name="Ñëîé 2"><path d="M33.44,57.53a7.41,7.41,0,0,0-5.31,2.24h0A7.35,7.35,0,0,0,26,64.93a7.45,7.45,0,0,0,.39,2.37h0a7.41,7.41,0,0,0,7,5A7.55,7.55,0,0,0,35.68,72h0a7.41,7.41,0,0,0-2.25-14.47Zm0,13.75a6.34,6.34,0,0,1-6.34-6.35,6,6,0,0,1,.13-1.28q0-.13.06-.3a6.35,6.35,0,1,1,6.15,7.93Z" style="fill:#414142"/><path d="M33.44,58.59a6.36,6.36,0,0,0-6.15,4.76q0,.16-.06.3a6,6,0,0,0-.13,1.28,6.35,6.35,0,1,0,6.34-6.34Zm0,10.23a3.89,3.89,0,1,1,3.88-3.89A3.88,3.88,0,0,1,33.44,68.82Z" style="fill:#23b3b7"/><path d="M37.32,64.93a3.88,3.88,0,1,1-3.88-3.88A3.89,3.89,0,0,1,37.32,64.93Z" style="fill:#2b2b2b"/><path d="M278.4,77.19c-.38-1.52,0-4.94-.76-7.6s-1.52-10-2.47-11-.76-4.45-.95-5.37-2.09-2.63-1.9-4.53-39.81,18.43-42.47,20.24-5.34,3.21-7.13,3.13a27.23,27.23,0,0,1-6.66-.9h0a52.19,52.19,0,0,1-10.78-4h0c-1.8-.87-3.71-1.91-5.71-3.13-13.68-8.36-42.95-32.69-95.78-33.45C52.36,29.9,31,51.09,28.13,59.77a7.42,7.42,0,0,1,12.73,5.16s4-3.64,4.12-5.28a3.86,3.86,0,0,1,2.66-3,37.47,37.47,0,0,0,4-2.66c1-.64,4.31-6.21,11-6.21S75.76,49.42,76,58.59s4.56,25.06,28.13,31,35.54,3.54,49.79,4S187,96,193.46,96.77s7.6,0,12.73,0a67.63,67.63,0,0,0,8.48-.7h0c3.48-.46,6.87-1.07,9-1.58,4-.95,17.3,4,31.17,12.73s15,6.84,16,4,2.66-3.8,1.9-5.13,1.14-4,.19-4.94-1.14-4.56,3-8.74S278.78,78.71,278.4,77.19ZM141,79.47c-12,1.9-41-4.94-41-4.94-11.78-3.61-20-8-17.3-20.9s41.05-4.94,62.91,5S153,77.57,141,79.47Zm132.45,3.61c-1.9,1.71-1.9,5.51-4,6.46s0,3-2,4,.85,3.94,0,4.1-3,1.55-.29,5.35,2.66,4.18,1.71,6.65-3.42,0-3.42,0c-3.08-3.89-17.86-8.93-19.57-9.5a105.81,105.81,0,0,1-13.11-6.6c-6.66-3.74-15.78-4.43-17.11-4.43S207.52,88,198.4,85.44s-4.18-3.31,6.84-5.63a98.79,98.79,0,0,1,13.3-2.24c3.61-.57,7.6-1.71,9.15-2.66s7.77-2.09,11.38-4.43,6.84-4.88,11.59-5.55,11.21-7.12,14.82-10.16,6.27,1.71,6.27,3.82a10.28,10.28,0,0,1-1.56,4.77c-.43.8.23,2,1.75,3.19s-.38,4.94,1.52,6.46S275.36,81.37,273.46,83.08Z" style="fill:#2b2b2b"/><path d="M216.06,71.16h0a52.19,52.19,0,0,1-10.78-4C219.08,69.84,216.39,65.6,216,64s-3.17-1.26-7.48-1.14-7.47-.12-3.54-.88,4.94-2,3.8-3.55-10.52,1.52-10.9,1S200.68,58,205,56.1s-2.66-2.53-9.38-1.77-6.08.38.13-1.95,3.29-3.63-2.53-1.22-7.35.63-5.45,0,7.22-2.91,7.09-3.93-1.52-1.77-6.84.38-7.35.76-5.07,0a12.78,12.78,0,0,0,5.45-2.89c1.78-1.63,2.54-3.45-2.15-1.8s-12,3-7.61,0,6.47-2.66,2.54-4.43.38-2.67-6.85-.13-8.23,3-2.28-1.15,4.56-2.91,2.79-4.68-4.43,1.52-9.75,3.42-5.7,2,.12-2.41,5.07-3,.76-4.68,1.65-2.28-6.84,1.76-4.81,1.4,0-2.28,4.06-3.41.76-3.41-.38-1.77-5.32.76-8,3.93-4.81,1,5.83-4.68,2.79-5.57-7.22,5.19-10.77,6.08,5.83-5.83,8-7.6-3.55-.13-5.32.13-5.7,2.78-9.13,4.56,3.81-4.06,5.71-6.72-.51-1.9-4.69-2.15-2.79,1-5.62,2.79-9.84,8-5.53,3,7.22-8.62,4.43-7.5-3.67,0-6.71-.61-3.8,4.31-7.35,5.7-.89-1.39,3.42-6.21,1.14-1.77-2.41-2.66-3.67,0-5.44,1.27-4.44,4.18-6.46,5.32,3.8-6,5.84-8.74-1.41.13-4.58-.63-3.54,1.64-6.46,3.8-7,8.61-4.56,2.76,7.1-10.24,4.44-8S91.72,9,89.82,9.6s-2.53,4.06-4.18,5.58-.63-2.28,2-7.86-1.65-.88-5,0S78,9.22,75.57,12.26s-3.49,5.45-.95-1.77-.38-5.07-4.18-3.8-7.6,5.83-10.9,11.91c-2,3.68-3.24,4.34-3.92,4.29a27.08,27.08,0,0,0,4.18-7.71A15.69,15.69,0,0,1,75.5,3.78C84.12,4,92.23.74,97.05.23s4.56,0,9.37,0,5.32,2,11.15,3.29,9.62,3,14.81,3.8,8.5,0,31.81,11.15,54.33,39,54.33,41.18,1.92,5.06,2.43,8S216.38,71.12,216.06,71.16Z" style="fill:#2b2b2b"/><path d="M216,64c-.38-1.64-3.17-1.26-7.48-1.14s-7.47-.12-3.54-.88,4.94-2,3.8-3.55-10.52,1.52-10.9,1S200.68,58,205,56.1s-2.66-2.53-9.38-1.77-6.08.38.13-1.95,3.29-3.63-2.53-1.22-7.35.63-5.45,0,7.22-2.91,7.09-3.93-1.52-1.77-6.84.38-7.35.76-5.07,0a12.78,12.78,0,0,0,5.45-2.89c1.78-1.63,2.54-3.45-2.15-1.8s-12,3-7.61,0,6.47-2.66,2.54-4.43.38-2.67-6.85-.13-8.23,3-2.28-1.15,4.56-2.91,2.79-4.68-4.43,1.52-9.75,3.42-5.7,2,.12-2.41,5.07-3,.76-4.68,1.65-2.28-6.84,1.76-4.81,1.4,0-2.28,4.06-3.41.76-3.41-.38-1.77-5.32.76-8,3.93-4.81,1,5.83-4.68,2.79-5.57-7.22,5.19-10.77,6.08,5.83-5.83,8-7.6-3.55-.13-5.32.13-5.7,2.78-9.13,4.56,3.81-4.06,5.71-6.72-.51-1.9-4.69-2.15-2.79,1-5.62,2.79-9.84,8-5.53,3,7.22-8.62,4.43-7.5-3.67,0-6.71-.61-3.8,4.31-7.35,5.7-.89-1.39,3.42-6.21,1.14-1.77-2.41-2.66-3.67,0-5.44,1.27-4.44,4.18-6.46,5.32,3.8-6,5.84-8.74-1.41.13-4.58-.63-3.54,1.64-6.46,3.8-7,8.61-4.56,2.76,7.1-10.24,4.44-8S91.72,9,89.82,9.6s-2.53,4.06-4.18,5.58-.63-2.28,2-7.86-1.65-.88-5,0S78,9.22,75.57,12.26s-3.49,5.45-.95-1.77-.38-5.07-4.18-3.8-7.6,5.83-10.9,11.91c-2,3.68-3.24,4.34-3.92,4.29C51.71,28.31,45.7,34.34,39.79,37,30.65,41,12.54,55,2.09,89.35c0,0-3.86,8.94-1.08,10.33s4.06,3,2,4.44.13,4.94,2,4.94,6.58,4,9,7.85C50.71,117.4,60.17,109,62.7,99.4a15,15,0,0,1,.77-7.51C62.63,79.12,51.69,54,51.69,54a37.47,37.47,0,0,1-4,2.66,3.86,3.86,0,0,0-2.66,3c-.13,1.64-4.12,5.28-4.12,5.28A7.42,7.42,0,0,1,35.69,72h0c-1.53,1.13-3.56,2.06-5.28,1.57-2.66-.76-2.09,1.14-4.18,1.9s-1.71,0-2.66,0-3-.19,0-3.42a9.13,9.13,0,0,0,2.86-4.76h0A7.45,7.45,0,0,1,26,64.93a7.35,7.35,0,0,1,2.1-5.15h0C31,51.09,52.36,29.9,103.76,30.63c52.83.76,82.1,25.09,95.78,33.45,2,1.22,3.91,2.26,5.71,3.13h0C219.08,69.84,216.39,65.6,216,64ZM34.58,111.78c7.71-2.21,13.14-8,15.76-15.51a45.81,45.81,0,0,0,2.34-15.19c0-2.63-.45-5.29-.29-7.91,0-.24,0-.51.1-.77.2-1.34.79-2.74,2.24-1.33,3.17,3.09,4.13,9.59,4.79,13.69,1,5.93,1.27,12.65-1.18,18.28C52.45,116.53,11.4,118.43,34.58,111.78Z" style="fill:#038df4"/><path d="M35.68,72c-1.53,1.13-3.56,2.06-5.28,1.57-2.66-.76-2.09,1.14-4.18,1.9s-1.71,0-2.66,0-3-.19,0-3.42a9.13,9.13,0,0,0,2.86-4.76,7.41,7.41,0,0,0,7,5A7.55,7.55,0,0,0,35.68,72Z" style="fill:#2b2b2b"/><path d="M214.67,96.07a20.88,20.88,0,0,0-5.24,2.42c-13.21,8.37-20.7,30.37-90.28,39.51-1.31.18-2.61.34-3.88.49l-2.62.3q-6.48.69-12.43,1.05l-2.07.13a205.39,205.39,0,0,1-23.48-.05c-43.45-2.73-58.73-20-60.61-23C50.71,117.4,60.17,109,62.7,99.4a13.21,13.21,0,0,0,.82,3.07,23.37,23.37,0,0,0,5.7,7.9c-4.77,2.39-10.57,5.31-14.24,9.26-7.34,7.92-7.09,13.37,42.29,14.13,3.85.06,7.71,0,11.56-.23a150.56,150.56,0,0,0,47.71-10.39,151.06,151.06,0,0,0,19.68-9.29c4.74-2.76,11.7-11.85,2.3-13.8-4.45-.92-9-.5-13.53-.54-14.72-.12-29.43.87-44.13,1.42-13.94.53-28.16,1-41.44,5.27-.57-.65-1.1-1.27-1.55-1.83-1.37-1.74-2-6.61-2-11.38s.53-9.19,1.46-10.7c1.9-3.09-1.9-1.68-1.9-1.68q-1,.47-1.86.93h0a22.62,22.62,0,0,0-8.47,7.2,15.74,15.74,0,0,0-1.63,3.14C62.63,79.12,51.69,54,51.69,54c1-.64,4.31-6.21,11-6.21S75.76,49.42,76,58.59s4.56,25.06,28.13,31,35.54,3.54,49.79,4S187,96,193.46,96.77s7.6,0,12.73,0A67.63,67.63,0,0,0,214.67,96.07Z" style="fill:#047eed"/><path d="M108.78,160.52h0l-.05,0,.21.15Z" style="fill:#047eed"/><path d="M109.05,160.76l-.13-.12-.21-.15h0c-.7-.36-6.46-3.46-6.28-4.89a10.66,10.66,0,0,0-.38-5,10.81,10.81,0,0,0-2.66-5C98,144,96.16,142.88,98.15,140a205.39,205.39,0,0,1-23.48-.05c5,1.84,13.66,5.74,18.07,12,6.46,9.12,10.83,8.17,15.2,9.31C109.67,161.65,109.7,161.35,109.05,160.76Zm-8.71-5s-.38,1-1.9,0-6.84-9.4-10.65-11.59,1.24-2.47,7,3.23S101,154.54,100.34,155.77Z" style="fill:#038df4"/><path d="M108.71,160.48c-.7-.36-6.46-3.46-6.28-4.89a10.66,10.66,0,0,0-.38-5,10.81,10.81,0,0,0-2.66-5C98,144,96.16,142.88,98.15,140l2.07-.13c-.86,1.85.51,4.6,1.77,4.95s0,1.52.76,1.77,1.52,3.8,1.26,4.69.13,1.26.13,2.78a6.52,6.52,0,0,0,1,3.55A23.83,23.83,0,0,0,108.71,160.48Z" style="fill:#2b2b2b"/><path d="M224.37,110.45c-2.28.89-3.68,6.59-6,6.84s-5.06,5.83-7.09,6.08-4.18,3.93-5.45,4.18-3.54,5.57-5.57,5.7-2.66,3.68-4.69,3.8-2.4,2.79-3.92,2.7-4.06,3.77-6,3.77-2.92,2.66-5.07,1.83-3.8,1.84-7,1.84-2.79,1.52-5.19.89-2.92,2.28-6.34,1.65-1.52,1.77-5.95,1.64-5.7.64-8.74-.79-5.83,1.68-11.41,1.3-23.41-13.09-23.41-13.09l2.62-.3c12.84,11.12,25.93,10.54,25.93,9.95s-12.74-15.47-4.28-7.2,13.21,7.69,14.44,6.55-8.36-10.93-5.22-8,8,8.52,12.92,7-6.56-9.89-5-10.27,9.32,10.93,16.15,9-7.59-11.31-6.55-12,14.25,8.65,17.67,6.21-9.5-10.11-7.79-10.59,10.55,8.75,15.3,7.32-15.17-12.25-10.07-10.07,14.06,6.56,16.06,5-8.74-8.92-8.08-9.59,11.78,7.69,14.73,5.13-6.55-4.46-7.8-6.65,7.23,2.28,11.22,1.9,1-3.51-3.13-5.79-5.52-3,0-1.24,9.21,2.47,10.82.66-4.84-3-8.26-5.08.38-1.09.38-1.09c7.6,2.09,15,1.14,11.8,0a77.86,77.86,0,0,1-9.52-4.56c1,.38,10.64,2.28,14,0s-13.84-3.42-3.39-3.42c4.24,0,5.88-1,6.34-2.19a8.94,8.94,0,0,1,3.22,2.32C228.68,103.86,226.65,109.56,224.37,110.45Z" style="fill:#2b2b2b"/><path d="M141,79.47c-12,1.9-41-4.94-41-4.94-11.78-3.61-20-8-17.3-20.9s41.05-4.94,62.91,5S153,77.57,141,79.47Z" style="fill:#047eed"/><path d="M58.34,103c-5.89,13.49-46.94,15.39-23.76,8.74,7.71-2.21,13.14-8,15.76-15.51a45.81,45.81,0,0,0,2.34-15.19c0-2.63-.45-5.29-.29-7.91,0-.24,0-.51.1-.77.2-1.34.79-2.74,2.24-1.33,3.17,3.09,4.13,9.59,4.79,13.69C60.49,90.69,60.79,97.41,58.34,103Z" style="fill:#007fdd"/><path d="M273.46,83.08c-1.9,1.71-1.9,5.51-4,6.46s0,3-2,4,.85,3.93,0,4.1-3,1.54-.29,5.35c2.38,3.39,2.63,4,2,5.92-.09.22-.18.46-.28.73-.95,2.47-3.42,0-3.42,0-3.09-3.89-17.86-8.94-19.57-9.51a107.26,107.26,0,0,1-13.12-6.59c-6.65-3.74-15.77-4.43-17.1-4.43S207.52,88,198.4,85.44s-4.18-3.31,6.84-5.64a99.62,99.62,0,0,1,13.3-2.23c3.61-.57,7.6-1.71,9.15-2.66s7.77-2.09,11.38-4.43,6.84-4.88,11.59-5.55,11.21-7.12,14.82-10.16c3.06-2.57,5.43.43,6.09,2.69a4.12,4.12,0,0,1,.18,1.13,10.28,10.28,0,0,1-1.56,4.77c-.43.79.23,2,1.75,3.19s-.38,4.94,1.52,6.46S275.36,81.37,273.46,83.08Z" style="fill:#f7ca11"/><path d="M221,105.13c-3.39,2.28-13.08.38-14,0a77.86,77.86,0,0,0,9.52,4.56c3.21,1.14-4.2,2.09-11.8,0,0,0-3.8-.94-.38,1.09s9.88,3.28,8.26,5.08-5.32,1-10.82-.66-4.18-1,0,1.24,7.12,5.41,3.13,5.79-12.46-4.09-11.22-1.9,10.75,4.09,7.8,6.65-14.06-5.8-14.73-5.13,10.08,8.07,8.08,9.59-11-2.85-16.06-5,14.82,8.65,10.07,10.07-13.59-7.79-15.3-7.32,11.22,8.15,7.79,10.59-16.63-6.88-17.67-6.21,13.38,10.07,6.55,12-14.63-9.41-16.15-9,10,8.75,5,10.27-9.78-4.12-12.92-7,6.46,6.9,5.22,8-6,1.72-14.44-6.55,4.28,6.62,4.28,7.2-13.09,1.17-25.93-9.95c1.27-.15,2.57-.31,3.88-.49,69.58-9.14,77.07-31.14,90.28-39.51a21.18,21.18,0,0,1,14.5,1c-.46,1.19-2.1,2.19-6.34,2.19C207.14,101.71,224.37,102.85,221,105.13Z" style="fill:#038df4"/><path d="M100.34,155.77s-.38,1-1.9,0-6.84-9.4-10.65-11.59,1.24-2.47,7,3.23S101,154.54,100.34,155.77Z" style="fill:#35a4f6"/><path d="M87,116.42s-.28,0-.67,0l-.25,0a18.24,18.24,0,0,1-3.13-.6l-.51-.15a22.51,22.51,0,0,1-5.36-2.45l-.52-.35a19.39,19.39,0,0,1-2-1.48l-.57-.5A20.69,20.69,0,0,1,72.2,109a22.66,22.66,0,0,1-1.47-1.81c-.08-.1-.15-.21-.22-.31-.28-.39-.56-.8-.83-1.24-.11-.17-.22-.34-.32-.51-.34-.57-.68-1.17-1-1.8-.11-.2-.22-.41-.32-.62l-.3-.65c-.3-.65-.59-1.34-.86-2.05A24.48,24.48,0,0,1,65.1,88.75a22.62,22.62,0,0,1,8.47-7.2c-.24.37-7.87,12.17,1.65,26.14.28.41.57.82.88,1.24,0,0,1.36,1.2.45-1.74-.11-.37-.26-.8-.45-1.3-1.7-4.56-2.34-8.41-.22-12.9,0,4.77.62,9.64,2,11.38.45.56,1,1.18,1.55,1.83,2.93,3.31,7,7.33,5.52,7.4C84.07,113.64,85.67,115,87,116.42Z" style="fill:#35a4f6"/><path d="M75.88,93c-2.12,4.49-1.48,8.34.22,12.9.19.5.34.93.45,1.3.91,2.94-.45,1.74-.45,1.74-.31-.42-.6-.83-.88-1.24-9.52-14-1.89-25.77-1.65-26.14h0q.89-.47,1.86-.93s3.8-1.41,1.9,1.68C76.41,83.8,75.87,88.35,75.88,93Z" style="fill:#ffd422"/><path d="M87.79,119.57c-2.37.56-11.87-2.88-18.57-9.2a23.37,23.37,0,0,1-5.7-7.9,13.21,13.21,0,0,1-.82-3.07,15,15,0,0,1,.77-7.51,15.74,15.74,0,0,1,1.63-3.14A24.48,24.48,0,0,0,66.89,100c.27.71.56,1.4.86,2.05l.3.65c.1.21.21.42.32.62.31.63.65,1.23,1,1.8.1.17.21.34.32.51.27.44.55.85.83,1.24.07.1.14.21.22.31A22.66,22.66,0,0,0,72.2,109a20.69,20.69,0,0,0,1.86,1.88l.57.5a19.39,19.39,0,0,0,2,1.48l.52.35a22.51,22.51,0,0,0,5.36,2.45l.51.15a18.24,18.24,0,0,0,3.13.6l.25,0c.39,0,.62,0,.67,0C88.32,117.78,89.38,119.2,87.79,119.57Z" style="fill:#007fdd"/><path d="M176.22,113.85a151.06,151.06,0,0,1-19.68,9.29,150.56,150.56,0,0,1-47.71,10.39c-3.85.21-7.71.29-11.56.23C47.89,133,47.64,127.55,55,119.63c3.67-3.95,9.47-6.87,14.24-9.26,6.7,6.32,16.2,9.76,18.57,9.2,1.59-.37.53-1.79-.76-3.15s-3-2.78-2.09-2.82c1.43-.07-2.59-4.09-5.52-7.4,13.28-4.25,27.5-4.74,41.44-5.27,14.7-.55,29.41-1.54,44.13-1.42,4.5,0,9.08-.38,13.53.54C187.92,102,181,111.09,176.22,113.85Z" style="fill:#038df4"/><path d="M35.48,63.57a1.84,1.84,0,1,1,1.84,1.83A1.84,1.84,0,0,1,35.48,63.57Z" style="fill:#e6dfd9"/><path d="M273.46,83.08c-1.9,1.71-1.9,5.51-4,6.46s0,3-2,4,.85,3.93,0,4.1-3,1.54-.29,5.35c2.38,3.39,2.63,4,2,5.92-11-9-27.77-16.48-44-19.1s-38-9-1.27-3.33,41.3,2.66,36.87,1.26-23.7-2.66-33.7-2.94S195,82.21,221,82.28s65.41-21,34.37-10.18S180.22,84,210,80.57s61.56-23.11,61.56-23.11h0a4.12,4.12,0,0,1,.18,1.13,10.28,10.28,0,0,1-1.56,4.77c-.43.79.23,2,1.75,3.19s-.38,4.94,1.52,6.46S275.36,81.37,273.46,83.08Z" style="fill:#ffd422"/><path d="M17.05,71.56a.41.41,0,0,1,.81,0,.41.41,0,1,1-.81,0Z" style="fill:#2b2b2b"/><path d="M20.55,70.48A.47.47,0,1,1,21,71,.47.47,0,0,1,20.55,70.48Z" style="fill:#2b2b2b"/><path d="M17.6,67.73a.71.71,0,1,1,.71.71A.71.71,0,0,1,17.6,67.73Z" style="fill:#2b2b2b"/><path d="M20.11,65.4a.67.67,0,0,1,.67-.66.67.67,0,0,1,0,1.33A.67.67,0,0,1,20.11,65.4Z" style="fill:#2b2b2b"/><path d="M23,67.3a.34.34,0,1,1,.34.34A.34.34,0,0,1,23,67.3Z" style="fill:#2b2b2b"/><path d="M16.17,63.79a.57.57,0,0,1,.57-.57.56.56,0,0,1,.57.57.57.57,0,0,1-.57.57A.58.58,0,0,1,16.17,63.79Z" style="fill:#2b2b2b"/><path d="M13.79,69.25a.58.58,0,0,1,.57-.57.57.57,0,0,1,.57.57.56.56,0,0,1-.57.57A.57.57,0,0,1,13.79,69.25Z" style="fill:#2b2b2b"/><path d="M13.79,65.4a.58.58,0,0,1,.57-.57.57.57,0,0,1,.57.57.56.56,0,0,1-.57.57A.57.57,0,0,1,13.79,65.4Z" style="fill:#2b2b2b"/><path d="M23.56,61.05a.45.45,0,1,1,.45.45A.45.45,0,0,1,23.56,61.05Z" style="fill:#2b2b2b"/><path d="M19.24,62.22a.49.49,0,1,1,.49.49A.49.49,0,0,1,19.24,62.22Z" style="fill:#2b2b2b"/><path d="M21,59.08a.61.61,0,0,1,.61-.61.62.62,0,1,1,0,1.23A.61.61,0,0,1,21,59.08Z" style="fill:#2b2b2b"/><circle cx="27.55" cy="57.37" r="0.57" style="fill:#2b2b2b"/><path d="M23.75,53.5a.71.71,0,1,1,1.42,0,.71.71,0,1,1-1.42,0Z" style="fill:#2b2b2b"/><path d="M24,57.37a.36.36,0,1,1,.36.36A.36.36,0,0,1,24,57.37Z" style="fill:#2b2b2b"/><circle cx="28.12" cy="78.04" r="0.63" style="fill:#2b2b2b"/><path d="M22.6,79.37a.7.7,0,1,1,1.39,0,.7.7,0,1,1-1.39,0Z" style="fill:#2b2b2b"/><circle cx="18.31" cy="76.9" r="1.08" style="fill:#2b2b2b"/><path d="M19.72,74.49a.5.5,0,0,1,.5-.5.5.5,0,0,1,.51.5.51.51,0,0,1-.51.51A.5.5,0,0,1,19.72,74.49Z" style="fill:#2b2b2b"/><path d="M13,74.81a.83.83,0,1,1,.82.82A.82.82,0,0,1,13,74.81Z" style="fill:#2b2b2b"/><path d="M12.73,79.37a.7.7,0,0,1,1.4,0,.7.7,0,0,1-1.4,0Z" style="fill:#2b2b2b"/><path d="M18.58,82.1a1.14,1.14,0,1,1,1.14,1.14A1.14,1.14,0,0,1,18.58,82.1Z" style="fill:#2b2b2b"/><circle cx="16.17" cy="85.07" r="0.95" style="fill:#2b2b2b"/><circle cx="11.91" cy="86.91" r="1.08" style="fill:#2b2b2b"/><path d="M8.17,83a.7.7,0,0,1,1.4,0,.7.7,0,0,1-1.4,0Z" style="fill:#2b2b2b"/><circle cx="12.97" cy="83.24" r="0.51" style="fill:#2b2b2b"/><path d="M15.5,81a.67.67,0,1,1,.67.66A.67.67,0,0,1,15.5,81Z" style="fill:#2b2b2b"/><path d="M10.39,76.9a.45.45,0,1,1,.44.44A.44.44,0,0,1,10.39,76.9Z" style="fill:#2b2b2b"/><path d="M11.28,72a.63.63,0,1,1,1.26,0,.63.63,0,0,1-1.26,0Z" style="fill:#2b2b2b"/><path d="M8.63,79.89a.24.24,0,1,1,.24.24A.23.23,0,0,1,8.63,79.89Z" style="fill:#2b2b2b"/><path d="M7.36,87.88a.45.45,0,1,1,.9,0,.45.45,0,1,1-.9,0Z" style="fill:#2b2b2b"/><circle cx="15.22" cy="90.58" r="0.48" style="fill:#2b2b2b"/><path d="M9.33,91.72a.67.67,0,1,1,.66.67A.67.67,0,0,1,9.33,91.72Z" style="fill:#2b2b2b"/></g></g></svg>