<svg xmlns="http://www.w3.org/2000/svg" viewBox="0 0 535.23 258.34"><title>ropefish</title><g id="Layer_2" data-name="Layer 2"><g id="Ñëîé_2" data-name="Ñëîé 2"><path d="M448.69,31.19c-.56-.23-1.11-.44-1.64-.67-.8-.34-1.56-.67-2.26-1-2.55-1.19-4.34-2.17-4.48-2.25h0C416.58,25,374,14.09,374,14.09,300.81-5.71,177.22-6.57,98,24,80.73,30.66,68.22,38.07,59.32,45.73c6.22,7.61,19,20.4,38.25,25.84,37.85-9.11,86-14,135.26-13.34h0l0,0a133.75,133.75,0,0,1,26.65-8.07h0c2.83-.57,5.71-1.06,8.59-1.49h0c1.44-.2,2.89-.41,4.34-.58h0c1.45-.18,2.89-.34,4.34-.5,35.57-3.6,72.08,2,92.82,5.84,17.3,3.17,44.87,6.25,64.85,8.28l7.1.7,1.1.11,8.58.83v0h0C468.19,45.47,448.69,31.19,448.69,31.19ZM348.46,18.37c-12.91,9.54-79.4,5.58-91.36,12.82S233.66,49,202.57,41.3s-44.49-9.09-67-2.39S96.38,47.6,90.64,44,90.72,33.68,99,31.19c0,0,90.65-29.11,160-25.29S361.38,8.84,348.46,18.37Z" style="fill:#6b6356"/><path d="M520.49,30.77C514.12,40.34,510.93,69,468.2,69c-5.73,0-13.47-.49-22.65-1.29-9.34-.81-20.17-1.92-31.92-3.17-16.07-1.69-33.85-3.61-51.89-5.23h0c-41.27-3.72-83.81-5.94-109.86-.61-6.34-.27-12.69-.43-19-.51C278.14,38.78,340,48,369.67,53.42c23.06,4.21,64.39,8.29,81.63,9.9,4.92.46,7.89.72,7.89.72,4.46-.65,8.67-1,11.66-1.81A10,10,0,0,0,474,60.91c5.94-4.31,6.5-1.44,8.41-5.74s11.48-.48,14.83-4.78,6.69-2.4,6.69-4.66,5.27-4.91,4.79-9.94,3.35-7.41,10-14.58-6.22-2.87-15.78-4.13-5.26,1.74-10.53.3-4.78,2.87-8.61,2.39S481,26,475.69,27.27a32.67,32.67,0,0,0-8.45,3.45c-1.37.71-2.93,1.52-4.94,2.45-3.17,1.46-8.83-.1-13.61-2-1.39-.55-2.71-1.12-3.87-1.66h0c-2.54-1.18-4.32-2.16-4.47-2.25,6.16.6,11.05.6,13.59-.32,12.39-4.47,29-17.86,43-17.22s29.33,3.82,36.35,3.82S526.87,21.21,520.49,30.77Z" style="fill:#f2cd89"/><path d="M422.47,112.49c-13.35-10.55-24.34-15.5-33.8-16.79s-12.07-3.23-12.07-3.23C333.8,67.68,238,70.48,173.17,73.4c-17.35.78-32.48,1.57-43.75,1.85a106.57,106.57,0,0,1-31.85-3.68c-19.25-5.44-32-18.23-38.25-25.84-32,27.46-17.69,57.88-11.29,67,5.7,8.09,21,18.72,39.25,23.53h0c47.17-1.64,125.53-27.82,178.9-24.15,62.65,4.31,114.62,28.64,114.62,28.64l2.36-.34c.77-.12,1.55-.24,2.3-.38,1.51-.26,3-.55,4.42-.86l2.13-.49c1.41-.35,2.79-.71,4.11-1.09.66-.18,1.28-.37,1.91-.56s1.29-.41,1.9-.63,1.24-.42,1.86-.63l1.67-.61c2.84-1.09,5.46-2.26,7.9-3.48l.9-.47,1.88-1,.72-.42c.28-.16.56-.31.83-.48l.73-.43c.35-.21.69-.41,1-.63s.8-.49,1.2-.75l.21-.13,1-.68c.52-.35,1-.7,1.52-1.06l.75-.53,1.15-.88.85-.64a67.52,67.52,0,0,0,5.59-5C427.11,116.28,424.63,114.21,422.47,112.49Zm-269.65-3.74c-45.91,17.21-73.66,12.91-90.4-5.27-7.4-8-10.6-19.86-9.15-30.6.37-2.72,1-8,3.58-9.79,1.87-1.3,3.88-.82,5.88.46,4,2.59,7.92,8.45,10.47,10.12a74.89,74.89,0,0,0,16.88,7.9c20.63,6.88,43.25,6.93,64.65,4.69,73.19-7.65,111.94-4.67,127.72,1.25S198.74,91.52,152.82,108.75Z" style="fill:#60584e"/><path d="M380.81,140.72c-.65.09-1.3.17-2,.24-1.2.15-2.44.27-3.69.37l-.36,0-2,.15-2.23.12c-.72,0-1.44.07-2.17.09s-1.4.05-2.11.05c-1.92,0-3.88,0-5.9,0-15.65-.39-38-1.66-63.46-2.69h0c-2.27-.19-4.58-.36-6.9-.51-74.5-4.73-149.86-2.58-177.86,0a72,72,0,0,1-24.91-2.31c47.18-1.64,125.53-27.81,178.91-24.15C328.85,116.39,380.81,140.72,380.81,140.72Z" style="fill:#f2cd89"/><path d="M453.86,153.51a49.88,49.88,0,0,0-5.17-14.14l0-.06,0,0c-4.84-7.23-12.27-14.76-18.89-20.67a67.56,67.56,0,0,1-5.6,5l-.84.65-1.16.87-.76.55c-.48.35-1,.7-1.51,1.05-.33.23-.67.45-1,.68l-.21.13c-.39.26-.79.51-1.2.76s-.66.41-1,.62l-.74.43c-.28.16-.54.33-.83.48l-.72.41c-.61.33-1.24.67-1.88,1-.3.16-.6.32-.9.46a85.82,85.82,0,0,1-7.9,3.49c-.55.21-1.11.41-1.68.61s-1.22.43-1.84.64L398,137l-1.9.57c-1.33.38-2.71.74-4.13,1.09-.69.17-1.4.33-2.12.48-1.43.32-2.91.62-4.42.87-.75.14-1.53.26-2.3.38s-1.56.24-2.36.33c-.65.1-1.3.17-2,.24-1.2.15-2.44.27-3.69.37l-.36,0c-.65.06-1.3.11-2,.15l-2.23.12c-.72,0-1.44.07-2.17.09s-1.4.05-2.11.05c-1.92,0-3.88,0-5.9,0-15.65-.39-38-1.66-63.46-2.69h0c-57.67-2.35-131.55-3.45-181,10-11.5,3.11-21.68,7-30,11.85,0,0-2,1.52-9,2.86-1.3.26-2.78.5-4.45.73,14,6.14,14.67,9.8-7,15.23s-30.94,27.1-36.66,24c-3.36-1.83-9.74-1.75-14.66-1.23C9,208.1,4.54,214.06,2.06,219.53c0,0,7.27,5.21,11.57,5.92s8.85.24,14.11,3.83,27.74,0,31.81-6,8.85-12.2,18.89-11.24,25.83-3.59,31.57-9.81,9.57-17.45,2.63-23.19-8.85-4.31-13.15-3.59-2.87-4.78,8.85-5,22.72,15.78,23.44,22.48c.2,1.83,2,3.85,4.72,5.74a22.2,22.2,0,0,0,5.32-4.07c3.35-3.59,3.59-1.43,6.22-5.26s7.41-2.87,10.7-6.73,3.89,1.71,8.19,0,4.55,4.58,7.18,3.86,3.59,8.37,6.46,8.37c1.76,0,1.8,2.78,2.3,5.16,13.73-3.24,30.93-6.4,41.7-6.36,17.54.08,54.22-4.06,105.55,1.68s104.32,13.61,124.1-26.2A42.51,42.51,0,0,0,453.86,153.51ZM49,227.37A10.35,10.35,0,1,1,59.19,217,10.25,10.25,0,0,1,49,227.37Zm388.4-67.45c-2.08,14.67-19,26.79-65.22,22.69-10.41-.92-20.88-1.13-31.32-1.28-25.28-.35-50.57.13-75.85.08-10.29,0-20.59,0-30.86-.59-4-.22-16.74,2-16.94-4.55-.09-3.2,4.17-5.11,6.57-6.27,8.21-4,18-5,26.91-6.34,22.89-3.5,46.48-2.71,69.52-1.51,66.65,3.51,95.66-20.36,95.66-20.36C435.68,126.84,439.5,145.26,437.43,159.92Z" style="fill:#6b6356"/><path d="M65.45,179.7c-21.69,5.41-30.94,27.1-36.66,24-3.36-1.83-9.74-1.75-14.66-1.23a178.93,178.93,0,0,1,20.79-19.34c14.82-11.72,27-17.22,37.54-18.65C86.5,170.61,87.13,174.27,65.45,179.7Z" style="fill:#827a6e"/><path d="M454.22,169.12a38,38,0,0,1-2,7.07,45.27,45.27,0,0,1-12,17.45,87.68,87.68,0,0,1-10.52,6.78h0l0,0c-13.79,7.6-32,13.3-50.19,11.62-30.52-2.81-111.7-5.18-192.93-.29.27-1.27.55-2.37-.07-2.58-1.44-.48,1.43-5-1.68-6-1.19-.37-1.69-1.71-2-3.21,13.73-3.24,30.93-6.4,41.7-6.36,17.54.08,54.22-4.06,105.55,1.68S434.44,208.93,454.22,169.12Z" style="fill:#f2cd89"/><path d="M131.78,192.93c-.72-6.7-11.72-22.72-23.44-22.48s-13.16,5.74-8.85,5,6.22-2.15,13.15,3.59,3.11,17-2.63,23.19S88.49,213,78.44,212.06s-14.82,5.26-18.89,11.24-26.55,9.57-31.81,6-9.8-3.11-14.11-3.83-11.57-5.92-11.57-5.92c-2.66,5.87-3,11.19.57,15,0,0,19.13,13.39,30.61,12,8.82-1.1,43-17.72,95.9-27.74h0a13.68,13.68,0,0,0,.26-8.84c-1.44-5.26,3.58-8.85,3.58-8.85a18.48,18.48,0,0,1,3.53-2.39C133.79,196.78,132,194.76,131.78,192.93ZM39.26,240.76c-5.46,1.91-9.13,3.11-18.22-.72s-10.76-9.33-6.93-10.52S21,231.67,21,231.67c8.61,5,6.7,2.39,17.83,2.87S44.72,238.85,39.26,240.76Zm79.84-25.11c-12,2.15-16.26,5-17.22,5.26s-8.85.48,6.46-7.65c0,0,14.11-10.29,14.11-21s3.11-4.54,4.3,2.15S131.06,213.5,119.1,215.65Z" style="fill:#f2cd89"/><path d="M185.11,236.69c-2.63,1.68,1,4.55-2.15,5.26s-2.16,5.51-4.79,6.22-.47,2.87-4.06,3.83-2.15,4.3-5.5,4.07-2.39,6-8.61-1.2c-2.19-2.53-6.65-7.74-11.52-13.44-2.18-2.56-4.45-5.21-6.63-7.75,1.76.61,3.22,1.51,4.28,1.34,2.73-.46-2.63-4.78,2.87-2.15s.24-2.63,3.3-2.16,0-4.06,3.63-3.11-.48-4.78,2.8-5-2.08-2.63,1.75-2.8-3.33-5.34.82-5.89h.07c4.31-.51-3.52-3.73.43-4.69,1.91-.46.65-1.77-.65-3.24s-2.78-3.3-.43-4.41c4.54-2.16-6.94-1.92-3.35-6s-7.66.95-4.31-3.35-1.67.24-6.22,2.39-5,0-5,0c3.35-3.59,3.59-1.43,6.22-5.26s7.41-2.87,10.69-6.73,3.9,1.71,8.2,0a3.6,3.6,0,0,1,1.52-.29c2.89.12,3.37,4.77,5.66,4.15,2.63-.72,3.59,8.37,6.46,8.37,1.76,0,1.8,2.78,2.3,5.16.31,1.5.8,2.84,2,3.21,3.11,1,.24,5.5,1.67,6,.63.21.35,1.31.08,2.58-.35,1.69-.71,3.68,1,4.36,3,1.19-4.16,4.78-1.8,6.45s2.66,4.31-.69,7.12S187.74,235,185.11,236.69Z" style="fill:#5b5348"/><path d="M161.37,213.88h-.07c-4.15.55,3,5.72-.82,5.89s1.53,2.56-1.74,2.8.78,6-2.81,5-.57,3.57-3.63,3.1,2.2,4.79-3.3,2.16-.14,1.69-2.87,2.15c-1.06.17-2.52-.73-4.28-1.34-6.62-7.76-12.43-14.59-12.71-14.92h0a13.68,13.68,0,0,0,.26-8.84c-1.44-5.26,3.58-8.85,3.58-8.85a18.48,18.48,0,0,1,3.53-2.39,22.2,22.2,0,0,0,5.32-4.07s.48,2.15,5,0,9.57-6.7,6.22-2.39,7.89-.72,4.31,3.35,7.89,3.82,3.35,6c-2.35,1.11-.94,2.85.43,4.41s2.56,2.78.65,3.24C157.85,210.15,165.68,213.37,161.37,213.88Z" style="fill:#2b2b2b"/><path d="M54.28,219.66a3.66,3.66,0,1,1-3.65-4A3.83,3.83,0,0,1,54.28,219.66Z" style="fill:#2b2b2b"/><path d="M49.32,209.43a8.07,8.07,0,1,0,7.71,8A7.89,7.89,0,0,0,49.32,209.43Zm1.31,14.23a4,4,0,1,1,3.65-4A3.82,3.82,0,0,1,50.63,223.66Z" style="fill:#e8e1db"/><path d="M49,206.68A10.35,10.35,0,1,0,59.19,217,10.25,10.25,0,0,0,49,206.68Zm.29,18.87A8.07,8.07,0,1,1,57,217.48,7.9,7.9,0,0,1,49.32,225.55Z" style="fill:#414142"/><path d="M119.1,215.65c-12,2.15-16.26,5-17.22,5.26s-8.85.48,6.46-7.65c0,0,14.11-10.29,14.11-21s3.11-4.54,4.3,2.15S131.06,213.5,119.1,215.65Z" style="fill:#fcdba7"/><path d="M39.26,240.76c-5.46,1.91-9.13,3.11-18.22-.72s-10.76-9.33-6.93-10.52S21,231.67,21,231.67c8.61,5,6.7,2.39,17.83,2.87S44.72,238.85,39.26,240.76Z" style="fill:#fcdba7"/><path d="M115.9,149c-11.5,3.11-21.68,7-30,11.85,0,0-2,1.52-9,2.86,0,0-3.49-7.64-1.81-7.64s-1.87-4.79,1.81-4.31,4.64-4.54,6.56-3.11,6.38-4.3,7.85-2.39,8.41-1.75,9.13-.39S107.18,143.15,115.9,149Z" style="fill:#5b5348"/><path d="M518.74,21.21c-6.69,7.17-10.52,9.54-10,14.58s-4.79,7.67-4.79,9.94-3.34.35-6.69,4.66-12.92.47-14.83,4.78-2.47,1.43-8.41,5.74a10,10,0,0,1-3.13,1.32c-3,.79-7.2,1.16-11.66,1.81,0,0-3-.26-7.89-.72,16.89-17.84-2.61-32.13-2.61-32.13,4.78,1.88,10.44,3.44,13.61,2,2-.93,3.57-1.74,4.94-2.45a32.67,32.67,0,0,1,8.45-3.45c5.26-1.28,4.31-8,8.13-7.5s3.35-3.82,8.61-2.39,1-1.55,10.53-.3S525.44,14,518.74,21.21Z" style="fill:#5b5348"/><path d="M413.63,96.14c-9.19-.52-38.14-8.19-48.32-25a23.62,23.62,0,0,1-3.57-11.83c18,1.62,35.82,3.54,51.89,5.23a17.71,17.71,0,0,1,7.09,5.23,12.67,12.67,0,0,1,2.19,4c2.24,6.7,7,6.38,8.3,11s7,6.22,9.09,11.32S424.76,96.78,413.63,96.14Z" style="fill:#5b5348"/><path d="M437.43,159.92c-2.08,14.67-19,26.79-65.22,22.69-10.41-.92-20.88-1.13-31.32-1.28-25.28-.35-50.57.13-75.85.08-10.29,0-20.59,0-30.86-.59-4-.22-16.74,2-16.94-4.55-.09-3.2,4.17-5.11,6.57-6.27,8.21-4,18-5,26.91-6.34,22.89-3.5,46.48-2.71,69.52-1.51,66.65,3.51,95.66-20.36,95.66-20.36C435.68,126.84,439.5,145.26,437.43,159.92Z" style="fill:#827a6e"/><path d="M152.82,108.74c-45.92,17.22-73.66,12.92-90.4-5.26-7.4-8-10.6-19.86-9.15-30.6.38-2.72,1-8,3.58-9.79,1.87-1.29,3.88-.82,5.88.46,4,2.58,7.92,8.46,10.47,10.11a73.84,73.84,0,0,0,16.88,7.9c20.63,6.89,43.25,6.94,64.66,4.7,73.18-7.65,111.92-4.67,127.71,1.25S198.74,91.52,152.82,108.74Z" style="fill:#827a6e"/><path d="M348.46,18.37c-12.92,9.53-79.4,5.57-91.36,12.82S233.66,49,202.57,41.3s-44.49-9.09-67-2.39-39.22,8.68-45,5.06S90.73,33.68,99,31.19c0,0,90.65-29.11,160-25.29S361.37,8.84,348.46,18.37Z" style="fill:#827a6e"/><path d="M43.3,217a3.06,3.06,0,1,1,3.06,3.05A3.06,3.06,0,0,1,43.3,217Z" style="fill:#e8e1db"/><path d="M185.11,236.69c-2.63,1.68,1,4.55-2.15,5.26s-2.16,5.51-4.79,6.22-.47,2.87-4.06,3.83-2.15,4.3-5.5,4.07-2.39,6-8.61-1.2c-2.19-2.53-6.65-7.74-11.52-13.44,5.25.67,11.05,12.16,15.69,13.06,5.4,1,.8-3.68-4.31-9.09s-6.53-9.09-2.7-5.9,13.39,11.16,13.35,10-13-15.14-12.08-16.58,10.37,11.8,17.07,12.28,4.14-3.19.15-6.06-15.94-11.48-14.19-12.76,12.44,8.46,17.7,8.62,4.62-8.77-3-11.38-15.08-6.17-9.09-5.37,14.83,5.42,16.59,3.51,1.91-2.87-8.13-4.31-14.68-4.3-6.07-3.53,14.35,1,14.2-1.23-2.72-2.73-11.17-3.3-8.92-3.1-1.59-2.75,11.64-.5,10.52-1.79-9.24-.95-16.31-.9,3.24-2.6,11.53-4.84-2.87-3.66-11.53-1.75-6.49.48,2-6.3,2.55-5.34-.48-4.06-11.48,5.26-9.88,3.7c1.22-1.21,8.47-6.18,11.77-8.42,2.89.12,3.37,4.77,5.66,4.15,2.63-.72,3.59,8.37,6.46,8.37,1.76,0,1.8,2.78,2.3,5.16.31,1.5.8,2.84,2,3.21,3.11,1,.24,5.5,1.67,6,.63.21.35,1.31.08,2.58-.35,1.69-.71,3.68,1,4.36,3,1.19-4.16,4.78-1.8,6.45s2.66,4.31-.69,7.12S187.74,235,185.11,236.69Z" style="fill:#2b2b2b"/><path d="M413.63,96.14c-9.19-.52-38.14-8.19-48.32-25-.62-3.43.7-4.86,3.51.39,4.06,7.63,23.91,18,28.46,19.41s4.54-.24-10.53-10.29-20.59-20.94-10-11.65S413.54,91.69,415,91s-6.21-4.55-21.28-14.35-11.72-10.53,0-2.87,38.74,20.8,33.48,16S391.54,69,395.36,68s18.9,10,25.35,10.94-.24-4.25-9.8-8.55-7.42-4.79-2.63-3.11a82.91,82.91,0,0,0,12.44,2.51,12.67,12.67,0,0,1,2.19,4c2.24,6.7,7,6.38,8.3,11s7,6.22,9.09,11.32S424.76,96.78,413.63,96.14Z" style="fill:#2b2b2b"/><path d="M512.39,22.17C503.46,27,489,33,489.76,34.13s16.57-2.39,16.89-1.27-5.26,2.23-16.42,4.3-10.52,5.27,0,4.79,18.18.79,8.61,2.07-19.29.28-19.29,1.74,7.34,1.13,8.29,2.88,4.36,3.19-7.7,2.71-14.3.64-8.08,2.72,9.09,2.71,3,2.54-10.52-1.38-11,0c-.36,1,1.4,4.39,6.77,5.59a21.77,21.77,0,0,0,6.95.29c10.84-1.12,16.58-8.93,19.13-7.5S475.72,66.18,465,66.18s-13.74-2.86-13.74-2.86c16.89-17.84-2.61-32.13-2.61-32.13-1.39-.55-2.71-1.12-3.87-1.66.65.21,10.67,3.19,27.87-7.83,17.81-11.4,8.61-2.4,0,2.07s-18.19,7-8.85,6.86c1.27,0,2.39,0,3.4.09,6.35.43,8.21,2,16.61-3.92,9.73-6.86,15.47-9.56,7.34-3.11s-10.59,10.6,3.87,3.91S521.32,17.39,512.39,22.17Z" style="fill:#2b2b2b"/><path d="M199.49,14.2s-34.92,7.12-36.59,11.45,35.74,4.82,54.34,7.93,23.38-9.09,38-14.11S256.89,4.4,199.49,14.2Z" style="fill:#968d81"/><path d="M384.05,176s30.61,3.19,37.94-9.89,6.7-21.13-8.61-12.64-30.61,10.73-46.56,12.64S344.65,174.72,384.05,176Z" style="fill:#968d81"/><path d="M78.2,88.44c3.12,2.31,6,4.75,7.57,5.27,9.41,3.13,20.35,3,30.13,2.93,34.4-.32,29.94,7,4.74,11.16s-36.51,4.46-46-6.38c-2.06-2.35-10.75-12.61-7.78-16.35C69.09,82.27,73.86,85.23,78.2,88.44Z" style="fill:#968d81"/><path d="M232.83,58.23c-1.27.4-37.94,12.16-59.66,15.17-17.35.78-32.48,1.57-43.75,1.85a106.57,106.57,0,0,1-31.85-3.68C135.42,62.46,183.59,57.6,232.83,58.23Z" style="fill:#6b6356"/></g></g></svg>