<svg xmlns="http://www.w3.org/2000/svg" viewBox="0 0 293.95 122.41"><title>rummy-nose-tetra</title><g id="Layer_2" data-name="Layer 2"><g id="Ñëîé_2" data-name="Ñëîé 2"><path d="M50.1,67.94c-3-2.25-3.46-6.16-1.5-7.21s3-1.65,3.45-5.11-3.3-7.21-6.16-8.26-3.6,1.8-6.16,1.65c-1.66-.1-3.2-2.18-4.07-3.61-7.23,2.32-15.24,5-24.22,8.22,0,0-9,5.16-9.42,8.31s0,3.31.9,4.51-2.1,1.65-2.85,3,4.08,8.47,35,18a1.53,1.53,0,0,0-.11-2.64c-1.65-1.34,2.26-3.93,4.36-1.52s1.95,1.35,4.27.9,3.69-1.66,6.4-6.31S53.1,70.19,50.1,67.94ZM12.77,63.13A9.09,9.09,0,0,1,29.7,58.54h0a9,9,0,0,1,1.09,2.94h0a8.85,8.85,0,0,1,.15,1.64,9.09,9.09,0,0,1-18.14.75Q12.77,63.52,12.77,63.13ZM37.18,80.55c-5.31,2.37-11,2.82-16.38.32-1.51-.71-4-1.58-5.06-3-.67-.87.17-.86,1-.76a24,24,0,0,1,6,2,19.55,19.55,0,0,0,4.09,1.26A13.21,13.21,0,0,0,37,77.86c6.91-5.26,5.53-12.77,4.34-16.53S52.65,73.63,37.18,80.55Z" style="fill:#cb1811"/><path d="M224.58,59.14a25.6,25.6,0,0,0,5.75-1.71h0c5.62-2.34,11.85-6.79,13.83-12.88a42.66,42.66,0,0,1-8.91,3.31s-5.67,6.76-18.29,4.36S180.31,44,165.19,38.48c-5.7-1-11.52-2-17.19-2.9-11.81-1.88-23-3.36-31-3.83-1-.06-2-.12-3-.14s-1.65,0-2.4,0c-20.34.17-36.23,1.06-75.93,13.83.86,1.43,2.4,3.5,4.06,3.6,2.56.15,3.31-2.7,6.16-1.65s6.62,4.81,6.16,8.26-1.5,4.06-3.45,5.11-1.5,5,1.5,7.21,2.56,5.26-.15,9.92-4.09,5.86-6.4,6.31-2.16,1.5-4.27-.9-6,.18-4.35,1.51c1,.78,1.16,1.76.11,2.65.84.27,1.71.53,2.59.8C64,96.11,82.54,100.1,101.32,99.81h.4c2.18-.06,4.31-.16,6.38-.28l.86,0c4.45-.28,8.64-.67,12.6-1.16h0l2-.26h0c2.64-.33,5.17-.73,7.6-1.16h0C160.65,91.66,175.92,81,191,75.25c19.53-7.42,38.14,0,38.14,0a34.76,34.76,0,0,1,5.13,1.47,9.22,9.22,0,0,0-3-8.46,12.5,12.5,0,0,0-2.09-1.62C222.58,62.43,217.58,60.26,224.58,59.14ZM90.37,94.45a25.59,25.59,0,0,1-11.22,2c-4.21-.2-22.44-8.21-24-10-1.23-1.37.14-2,1.87-2.16a20.27,20.27,0,0,1,4,0,86.84,86.84,0,0,1,9.91,2.32,123.52,123.52,0,0,1,14.82,4.64C86.06,91.38,91.78,93.85,90.37,94.45ZM178.71,69.3c-27,5-22.54,8.86-54.09,9.46s-67-10.52-64.9-22.87C61.23,47,72.5,43.75,80,42a71.32,71.32,0,0,1,7.39-1.34c9.88-1.29,20.29-.94,29.88-.65a394.82,394.82,0,0,1,59.8,6.37c12.07,2.22,26.37,4.22,37.12,10.61C228.59,65.54,205.75,64.34,178.71,69.3Z" style="fill:#9cb7b6"/><path d="M235.26,47.86s-5.67,6.76-18.29,4.35S180.31,44,165.19,38.48c13.1,2.33,25.59,4.77,34.23,6.52,7.2,1.44,11.74,2.41,11.74,2.41s2.58,1,8.4,1.38h0a72.61,72.61,0,0,0,7.67.07A40.61,40.61,0,0,0,235.26,47.86Z" style="fill:#6d8888"/><path d="M108.1,99.52q-3.21.24-6.38.28Q105,99.7,108.1,99.52Z" style="fill:#6d8888"/><path d="M229.17,75.25c-.72-.15-1.47-.29-2.23-.39a41.94,41.94,0,0,0-8.36-.35c-14.87.75-29,8.45-40,13.27a54.43,54.43,0,0,1-5.64,2l-2,.56A176.58,176.58,0,0,1,150,94.45c-6,.86-12.36,1.65-18.9,2.44C160.65,91.66,175.92,81,191,75.25,210.56,67.83,229.17,75.25,229.17,75.25Z" style="fill:#6d8888"/><path d="M293.51,28.88c-2.39,3.45-3,6-3,8.71s-4.21,4.51-4.21,5.56-3.45,2.86-3.45,4.06c0,.66-1.37,2.33-3.51,4,4.84-6.54,9.58-15.09,7.4-13.22-2.56,2.2-10,5.31-5,1.38s6.42-9,3.31-5.49-13.21,6.84-9.31,4.21S288,27.27,282,31.28s-12.82,5.11-8.91,2.81,13.22-8.92,9.21-7.21-15.12,11-12.52,6.61c1.38-2.33,5.9-5.48,9.85-7.92h0C291.55,21.58,295.33,26.24,293.51,28.88Z" style="fill:#b7c4c2"/><path d="M281.14,88.27c-5.25-1.3-1.67,1.2,2.44,3.64s6.61,5.58,1.1,2.58-12.92-3.31-9.92-1.3,14.83,6.1,8.72,5.5-11.72-6.71-10.12-3a7,7,0,0,0,2.84,2.58c-1.25-.3-2.6-.65-4-1a51.2,51.2,0,0,1-10.25-4s5.94-6,9.95-7.4,4.4-4.78,5.61-7.1S270,77.66,270,77.66c-.29-1-3.32-3-6.69-5.71A48.41,48.41,0,0,1,259,68a5.67,5.67,0,0,1-1-1.44h0c-1.11-2.29-.33-5,1.22-7.33a14.72,14.72,0,0,1,6.21-5.44c4.2-1.61,5-3,4.41-4.81,0,0,8.64,1,7.73-2s-8.37-9.83-17.37-11.43L266.15,32a69.19,69.19,0,0,1,13.45-6.46c-4,2.44-8.47,5.59-9.85,7.92-2.6,4.39,8.52-4.91,12.52-6.61s-5.3,4.9-9.21,7.21,2.9,1.2,8.91-2.81-2.31,4.18-6.2,6.81,6.2-.7,9.31-4.21,1.7,1.56-3.31,5.49,2.39.82,5-1.38c2.18-1.87-2.56,6.68-7.4,13.22h0a22.29,22.29,0,0,1-6.4,3.5c-5.41,1.8-8.11,4.81-8.11,8.56s4.81,7.37,9.16,9.47,8.42,8.56,10.52,9.46a5.42,5.42,0,0,1,2.14,1.93,7.47,7.47,0,0,0-3.44-.77c-2.47.36,3.4,3.7,6,7.81S286.38,89.58,281.14,88.27Z" style="fill:#6d8888"/><path d="M269.86,49c-.6-1.8-16.08-9.64-16.08-9.64,1.95-1.13,4.08-2.39,6.44-3.79h0c9,1.6,16.45,8.42,17.37,11.43S269.86,49,269.86,49Z" style="fill:#eae3dd"/><path d="M265.45,53.82c-2.2-.9-5.91-1-10.42-.6s-7.81-.15-9.61-3.41,1.91-6.77,2.09-7h0c1.88-1,3.94-2.16,6.26-3.49,0,0,15.48,7.84,16.08,9.64S269.65,52.21,265.45,53.82Z" style="fill:#2b2b2b"/><path d="M265.45,53.82a14.72,14.72,0,0,0-6.21,5.44c-5.64-3-11.72,0-16.38.87s-12.24-2.57-12.52-2.7c5.62-2.34,11.84-6.79,13.83-12.88,1.05-.5,2.17-1.06,3.34-1.69-.18.18-3.85,3.78-2.09,7s5.1,3.86,9.61,3.41S263.25,52.92,265.45,53.82Z" style="fill:#eae3dd"/><path d="M263.34,72s-5.3,4.71-8.91,3.8-7.51,1.25-7.81,3-.78,3,2.69,6.54c-4.8-3.35-9.47-6.56-15-8.6a9.25,9.25,0,0,0-3-8.47C243,63.73,243.61,67.64,251,69c7.17,1.32,7.07-2.2,7-2.39A5.67,5.67,0,0,0,259,68,48.41,48.41,0,0,0,263.34,72Z" style="fill:#eae3dd"/><path d="M255.1,89.28h0c-2-1.3-3.9-2.64-5.79-4-3.47-3.51-3-4.76-2.69-6.54s4.2-3.93,7.81-3,8.91-3.8,8.91-3.8c3.37,2.75,6.4,4.72,6.69,5.71C270.46,79.06,264.38,85.27,255.1,89.28Z" style="fill:#2b2b2b"/><path d="M277.47,78.78c-1.21,2.32-1.6,5.69-5.61,7.1s-9.95,7.4-9.95,7.4a73.82,73.82,0,0,1-6.81-4c9.28-4,15.36-10.22,14.93-11.62C270,77.66,278.68,76.46,277.47,78.78Z" style="fill:#eae3dd"/><path d="M293.49,96.79c-.13,3.89-1.69,5.34-17.29,1.48a7,7,0,0,1-2.84-2.58c-1.6-3.71,4,2.4,10.12,3s-5.71-3.48-8.72-5.5,4.41-1.71,9.92,1.3,3-.15-1.1-2.58-7.69-4.94-2.44-3.64,10.65,7,8.05,2.91-8.48-7.45-6-7.81a7.47,7.47,0,0,1,3.44.77,5.9,5.9,0,0,0,2.52,2.28c2.25.9.3,2.4,1.95,3.46S293.64,92.58,293.49,96.79Z" style="fill:#b7c4c2"/><path d="M165.68,21c1-1.8-.6-2.8-.13-4.4s-.47-6.81-.06-11.42-.8-7.81-16.43-2S114,31.61,114,31.61c.93,0,1.92.07,3,.13,0,0,12.32-12.33,21.33-17.29S130,22.57,126.87,25.57s.37,1.81,7.77-3.75S149.56,10.1,143.1,16s-18.78,16.22-12.47,12.62,17.42-14.43,13.82-9.47-14.87,13.82-7.66,10.37S151.15,17.41,147,22.54s-11.56,9.64-7,8.44,12.11-9.46,9.56-5.71-9.17,7.81-5.11,7.06,10.22-6.91,8.42-4.5-7.82,6.16-4.06,5.86,8.41-4.81,6.61-2.86c-1.59,1.73-6.11,4.51-4,4.66l1.2-.08h0c4.21-.63,5.39-3,3.65-.49,7.92-1.56,6.15-5.55,8.21-7.14C167.09,25.77,164.69,22.77,165.68,21Zm-4.4,4.76c-1.65,8.55-5.11,1.05-6.46-5.11s-8-9.76-2.41-13.82,9.47-3.15,10.52,3.16S161.28,25.72,161.28,25.72Z" style="fill:#97a5a4"/><path d="M219.57,48.79h0c-5.82-.36-8.4-1.38-8.4-1.38s-4.54-1-11.74-2.41c0,0,7.94-1.8,11.54-4.21s6.61-1.8,8.21,2.11A8.21,8.21,0,0,1,219.57,48.79Z" style="fill:#97a5a4"/><path d="M216.76,80.56a14.15,14.15,0,0,1-7.08,6.31c-6.09,2.41-4.93,8-7.53,8.61s1.8,4.21,0,4.21c-.75,0-1,1.09-1.07,2.66-1.87,1.08-2.41,3.54-3.59,5.41-1.8,2.85-6.61-2.11-10.22-4.36-2.17-1.35-3-.37-3.38.62-10.73-7.44-13-13.63-13-13.63.67-.18,1.34-.38,2-.57.26.32,8.37,10.39,12.61,11.17s-.7-2.25-3.4-5.58.69-2.83,4.1,1,3,3.37,1-.92-4.29-8.8,0-3.59,6.51,7.69,3.91,1.49-3.61-10.9,1.6-5.1,5.31,5.11,3.6.51-2.44-7.82,1-4.11,5.63,5.43,4.42,1.21-1.3-6.15,1-2.83,3,4.83,2.6,1-.7-6.81,1.41-4,4,5.31,3.9,1.7C210.57,78.67,213.87,76.91,216.76,80.56Z" style="fill:#97a5a4"/><path d="M218.58,74.5a12.94,12.94,0,0,1-1.82,6.06c-2.89-3.65-6.19-1.89-6.1,1.2.1,3.61-1.8,1.1-3.9-1.7s-1.81.2-1.41,4-.3,2.3-2.6-1-2.21-1.39-1,2.83-1,2.49-4.42-1.21-2.69-.5-1,4.11,1.61,5.3-3.6-.51-4.21-1.1-1.6,5.1.4,3.72-3.91-1.49-2-.7,0,3.59,2.43,4.73-1,.92-6.81-4.31-4.1-1,7.71,6.38,3.4,5.58-12.35-10.85-12.61-11.17a51.64,51.64,0,0,0,5.65-2C189.58,83,203.7,75.26,218.58,74.5Z" style="fill:#6d8888"/><path d="M201.35,110.11c0,4-7,0-7,0A82.78,82.78,0,0,1,183.89,104c.35-1,1.21-2,3.38-.62,3.61,2.25,8.42,7.21,10.22,4.36,1.18-1.87,1.72-4.33,3.59-5.41C201,104.58,201.35,107.76,201.35,110.11Z" style="fill:#b7c4c2"/><path d="M155.67,106.71c1.09-1.23-.06-4.78-2.15-8,.28,2.89-1,2.09-2.38-.68-1.65-3.3-2-1.95-1.58,1.43s-.37,2-2.59-1.2-1.39-.08-.56,2.9.9,4.39-.83,1.63-5.64-7-2.78-.48.75,5-2.18,1-2.48-1.5-.52,2.78,2.18,6.39-1.67.6-4-4.8-1.54.53,1.93,6.16-1.08,1.26-7.43-8-4.5-4.35,8.11,10.75,4.13,7.52c-3.63-3-10.7-12-11.91-13.54h0l-2,.26h0c1.25,2.29,10.95,19.48,25.41,23.22,0,0,6.1,3.4,7.7-3.21s0-7,1-8.09S154.07,108.51,155.67,106.71Zm-5.51,12.62s-9.76-1-7.66-4.81,4.66-3.31,6.16-8.71,4.51-3.46,4.51,4.35S153,119.81,150.16,119.33Z" style="fill:#97a5a4"/><path d="M151.14,98c-1.65-3.3-2-1.95-1.58,1.43s-.37,2-2.59-1.2-1.39-.08-.56,2.9.9,4.39-.83,1.63-5.64-7-2.78-.48.75,5-2.18,1-2.48-1.5-.52,2.78,2.18,6.39-1.67.6-4-4.8-1.54.53,1.93,6.16-1.08,1.26-7.43-8-4.5-4.35,8.11,10.75,4.13,7.52c-3.63-3-10.7-12-11.91-13.54,2.64-.33,5.17-.73,7.6-1.16h0c6.54-.79,12.92-1.58,18.9-2.44a20.44,20.44,0,0,1,3.49,4.22C153.8,101.56,152.53,100.76,151.14,98Z" style="fill:#6d8888"/><path d="M37.18,80.55c-5.31,2.37-11,2.82-16.38.32-1.51-.71-4-1.58-5.06-3-.67-.87.17-.86,1-.76a24,24,0,0,1,6,2,19.55,19.55,0,0,0,4.09,1.26A13.21,13.21,0,0,0,37,77.86c6.91-5.26,5.53-12.77,4.34-16.53S52.65,73.63,37.18,80.55Z" style="fill:#b70f0f"/><path d="M21.85,72.22a9,9,0,0,1-3-.51,4.33,4.33,0,0,0,.4-3,6.54,6.54,0,0,0,1.27.43,2.21,2.21,0,0,0,1.33,1.27C22.9,70.87,21.85,72.22,21.85,72.22Z" style="fill:#2b2b2b"/><path d="M18.85,71.71a9.09,9.09,0,0,1-6.05-7.83c.09-.06,1.8-1.33,2.89-.75a2.72,2.72,0,0,1,1.58,1.73,7.92,7.92,0,0,0,1.35,2.26,3.5,3.5,0,0,1,.63,1.6A4.33,4.33,0,0,1,18.85,71.71Z" style="fill:#b70f0f"/><path d="M21.3,57a6.16,6.16,0,0,0-5.61,6.13c-1.09-.58-2.8.69-2.89.75q0-.36,0-.75a9.09,9.09,0,0,1,3.59-7.24s1.21,1.16,1.89,1.08S20.17,57,21.3,57Z" style="fill:#2b2b2b"/><path d="M30.79,61.48h0c-.1.1-1.23,1.46-2.1.78a.85.85,0,0,0-.77-.21,6.4,6.4,0,0,0-.83-2.18c.18.15,2.26-.11,2.61-1.34A9,9,0,0,1,30.79,61.48Z" style="fill:#2b2b2b"/><path d="M30.94,63.13a9.09,9.09,0,0,1-9.09,9.09s1-1.35,0-1.8a2.21,2.21,0,0,1-1.33-1.27.55.55,0,0,1,.13-.54c.45-.44,3.08-.12,4.44-1.49s2.1-2.33,2.1-3.46c0-.76.27-1.45.73-1.6a.85.85,0,0,1,.77.21c.87.68,2-.68,2.1-.78A8.85,8.85,0,0,1,30.94,63.13Z" style="fill:#b70f0f"/><path d="M29.7,58.54h0c-.35,1.23-2.43,1.49-2.61,1.34h0a29.53,29.53,0,0,1-3-1.55C22.83,57.42,22.45,57,21.32,57h0c-1.13,0-2.39-.1-3.05,0s-1.89-1.08-1.89-1.08A9.11,9.11,0,0,1,29.7,58.54Z" style="fill:#f22a2a"/><path d="M27.09,59.88h0a29.53,29.53,0,0,1-3-1.55C22.83,57.42,22.45,57,21.32,57h0a6.16,6.16,0,0,0-5.61,6.13,2.72,2.72,0,0,1,1.58,1.73,7.92,7.92,0,0,0,1.35,2.26,3.5,3.5,0,0,1,.63,1.6,6.54,6.54,0,0,0,1.27.43.55.55,0,0,1,.13-.54c.45-.44,3.08-.12,4.44-1.49s2.1-2.33,2.1-3.46c0-.76.27-1.45.73-1.6A6.4,6.4,0,0,0,27.09,59.88Zm-5.24,7.24a4,4,0,1,1,4-4A4,4,0,0,1,21.85,67.12Z" style="fill:#eae3dd"/><path d="M25.84,63.13a4,4,0,1,1-4-4A4,4,0,0,1,25.84,63.13Z" style="fill:#2b2b2b"/><path d="M90.36,94.44a25.39,25.39,0,0,1-11.22,2c-4.2-.2-22.43-8.22-24-10-1.22-1.38.15-2,1.88-2.16a20.15,20.15,0,0,1,4,0,88.46,88.46,0,0,1,9.91,2.31,121.94,121.94,0,0,1,14.83,4.65C86.06,91.38,91.78,93.84,90.36,94.44Z" style="fill:#6d8888"/><path d="M214.17,57c-10.75-6.39-25-8.39-37.12-10.61A394.82,394.82,0,0,0,117.25,40c-9.59-.29-20-.64-29.88.65A71.32,71.32,0,0,0,80,42c-7.48,1.76-18.75,5-20.26,13.9-2.11,12.35,33.35,23.47,64.9,22.87s27-4.51,54.09-9.46S228.59,65.54,214.17,57Zm-93.75,9.88c-14.23,4.82-50.29-2-51.29-9s5.81-12.09,29.85-15,32.05,7,32.05,7C138.25,57,134.64,62,120.42,66.86Z" style="fill:#b6cecc"/><path d="M258,66.6c0,.19.12,3.71-7,2.39-7.36-1.35-8-5.26-19.71-.74a13.35,13.35,0,0,0-2.09-1.61c-6.59-4.21-11.6-6.39-4.59-7.5a25.6,25.6,0,0,0,5.75-1.71h0c.28.13,7.95,3.58,12.52,2.7s10.74-3.88,16.38-.87c-1.55,2.34-2.33,5-1.22,7.33Z" style="fill:#2b2b2b"/><path d="M153.17,110.16c0,7.81-.2,9.66-3,9.16,0,0-9.76-1-7.66-4.8s4.66-3.31,6.16-8.72S153.17,102.35,153.17,110.16Z" style="fill:#b7c4c2"/><path d="M120.41,66.85c-14.22,4.82-50.28-2-51.28-8.95s5.81-12.09,29.85-15,32.05,7,32.05,7C138.24,57,134.64,62,120.41,66.85Z" style="fill:#bfd8d5"/><path d="M155.42,30.83c-1.59,1.73-6.11,4.51-4,4.66-1,.06-2.17.09-3.41.09-11.82-1.88-23-3.36-31-3.84,0,0,12.32-12.33,21.33-17.29S130,22.57,126.87,25.57s.37,1.81,7.77-3.75S149.56,10.1,143.1,16s-18.78,16.22-12.47,12.62,17.42-14.43,13.82-9.47-14.87,13.82-7.66,10.37S151.15,17.41,147,22.54s-11.56,9.64-7,8.44,12.11-9.46,9.56-5.71-9.17,7.81-5.11,7.06,10.22-6.91,8.42-4.5-7.82,6.16-4.06,5.86S157.22,28.88,155.42,30.83Z" style="fill:#6d8888"/><path d="M161.28,25.72c-1.65,8.55-5.11,1.05-6.46-5.11s-8-9.76-2.41-13.82,9.47-3.15,10.52,3.16S161.28,25.72,161.28,25.72Z" style="fill:#b7c4c2"/><path d="M23.22,61.76a2.62,2.62,0,1,1,2.62,2.62A2.63,2.63,0,0,1,23.22,61.76Z" style="fill:#eae3dd"/></g></g></svg>