<svg xmlns="http://www.w3.org/2000/svg" viewBox="0 0 296.14 229.56"><title>ryukin</title><g id="Layer_2" data-name="Layer 2"><g id="Ñëîé_2" data-name="Ñëîé 2"><path d="M22.53,106.91c-5.5,3.74-8.12,3.74-8.49,9,0,.13,0,.27,0,.39s0,.06,0,.09-.05.22-.08.33l0,.1a1.81,1.81,0,0,1-.13.34,3,3,0,0,1-.23.48s0,0,0,0a1.4,1.4,0,0,1-.1.16l-.11.16a3.51,3.51,0,0,1-.29.36l-.13.14c-.07.07-.13.14-.2.2a3.59,3.59,0,0,1-.36.32l-.18.15-.19.13-.19.13-.21.13-.27.16a8.14,8.14,0,0,1-.89.43l-.48.18c-.28.1-.58.19-.89.27l-.46.1a10.4,10.4,0,0,1-1.95.24,12.5,12.5,0,0,1-1.93-.07h-.1l-.64-.1q-.36-.06-.72-.15l-.42-.11c.08-.15.17-.29.25-.43.33-.59.69-1.18,1.06-1.76.08-.14.18-.28.26-.41l.11-.17.25-.37c.84-1.26,1.75-2.5,2.69-3.69l.3-.4c.36-.45.72-.9,1.09-1.33.14-.17.28-.35.43-.52l.21-.26.44-.5c.6-.69,1.19-1.37,1.78-2l.37-.41c.39-.43.79-.85,1.17-1.25l.59-.63s0,0,.06-.06.19-.2.29-.29l.47-.48.22-.22.66-.66.18-.18c.56-.56,1.07-1,1.51-1.46l.25-.24.12-.11.33-.31.2-.18a1.41,1.41,0,0,1,.18-.17c.33-.31.54-.49.6-.54a0,0,0,0,1,0,0A34.91,34.91,0,0,0,23,98.18C24.56,100.9,25.79,104.7,22.53,106.91Z" style="fill:#dfe1ea"/><path d="M65.08,131.89c0,.34,0,.66,0,1,0,.67-.06,1.34-.11,2s-.14,1.26-.24,1.87c0,.26-.08.53-.13.79,0,.09,0,.19,0,.29-.09.44-.18.88-.29,1.3q0,.19-.09.36c-.06.21-.11.43-.18.63s-.15.54-.24.79l-.24.72,0,0-.25.66a1.67,1.67,0,0,1-.08.2,6.57,6.57,0,0,1-.26.61c-.1.25-.22.5-.33.74s-.21.43-.32.63-.22.42-.33.62l-.17.3c-.19.33-.38.66-.58,1l0,0c-.25.39-.51.77-.77,1.13a23.9,23.9,0,0,1-2.21,2.61c-.31.31-.61.61-.93.9l-.35.32-.35.3c-.24.21-.48.4-.71.59a4.5,4.5,0,0,1-.37.28l-.35.27-.72.52-.72.48-.36.23c-.12.07-.24.14-.35.22-.47.28-.94.55-1.4.79l-.67.35-.34.16-.33.16-1.14.51-.1,0-.49.2-.47.18-.19.07-.69.24-.37.12-.47.15-.21.07-.2,0-.15.05-.27.07-.33.08-.26.06h0l-.21,0h0c-2.19-1.21-4.13-2.33-5.83-3.28,9.37-4.36,14.94-9.22,18-14.09,10.79-17-8.51-34-2-30.55,8.56,4.5,9.75,16.06,9.75,16.06A39.2,39.2,0,0,1,65.08,131.89Z" style="fill:#dfe1ea"/><path d="M56.81,140.3c-3.09,4.87-8.66,9.73-18,14.09-.75-.41-1.46-.79-2.13-1.13-1.81-.92-3.74-1.77-5.75-2.55l.21-.15.23-.18c.12-.08.25-.18.4-.3l.5-.41.59-.52.68-.63.36-.36c.54-.54,1.13-1.16,1.75-1.88l.64-.77c.12-.14.24-.3.36-.46s.33-.42.48-.63.33-.45.49-.68l.54-.78s0-.07.06-.09l.09-.14.29-.46c.17-.26.33-.52.48-.79l.52-.89,0,0c.14-.25.28-.5.4-.76s.31-.59.46-.9.22-.45.33-.69c.18-.4.36-.8.53-1.22,3.92-9.43-.84-20.4,5.6-16.31S47.09,139.31,56.81,140.3Z" style="fill:#dfe1ea"/><path d="M160.81,59.28c-2-2.08-2.36-5-1.31-6,2-1.87-.12-4.86-4.23-4.3s-5.61-.18-2.62-2.8,1.87-4.3,0-4.67-2.42-5.61-6.35-6.92-7.1-3-4.65-5.22-3-3.93-4.88-4.11a6,6,0,0,1-5.6-5.23c-.56-3.93-5.61-7.1-31.57-1.31C86.44,21.68,77.75,33,72.38,43.43a91.36,91.36,0,0,0-7.3,19.51h0c-.44.18-.87.38-1.31.57q-1.29.6-2.52,1.23c-.42.21-.83.43-1.24.65C60,64.91,53.74,15.61,98.79,1.71c0,0,15.89-3.85,20.94,0s6.75,5.78,9.64,6.27-.72,2.65-1.93,3.61,1.23.24,3-.49,3.48-.24,3.73,1.21,2.4,3.13,3.85,3.37,1.92,1.69,0,2.65.24,2.16,2.4,1.69,3.38.23,2.65,2.4,2.42,4.34,4.34,4.58,5.78,3.46,5.54,5.7,3.37,7.3,5.54,7.3,0,2.65-2.89,4.34,5.16-1.93,6.31.72-.53,5.29,3.08,5.78C167.34,51.15,165.51,55.22,160.81,59.28Z" style="fill:#cacddd"/><path d="M153,60c-10.29,3.13-22,9.86-22,9.86h0q-1.62-1.21-3.61-2.43l-.81-.49-1.27-.72c-.73-.41-1.48-.8-2.27-1.19l-.69-.33c-.34-.17-.69-.34-1.05-.49-1.44-.66-3-1.29-4.6-1.87l-1.25-.43-1.41-.46-1.17-.36-1.12-.31-1-.26-1-.25c-.66-.16-1.34-.31-2-.46q-.51-.12-1.05-.21l-1.07-.21-1.28-.22-.92-.14-.87-.13c-.46-.06-.93-.13-1.4-.18l-1.37-.16-.2,0-.69-.07h-.12l-1.25-.11c-.58-.05-1.17-.09-1.76-.12l-1.54-.08-1.21,0h-1l-1.73,0H89l-1.27,0-1.48,0h-.15c-1,.06-2.07.13-3.09.23s-2,.23-3,.37l-1.41.22-.18,0c-.41.07-.83.14-1.24.23l-.38.07-1.14.24A60.9,60.9,0,0,0,65.08,63h0a91.36,91.36,0,0,1,7.3-19.51C97.31,10,127.81,22.29,121.64,22.29s-12.33-.56-29.89,8.78S69.9,58.16,76.62,56.1s2.8-9,21.48-20.26,44.15-7.38,27.09-4.59S95.86,45.45,93.43,48.44s-5.72,9.62,15.51-4.29,34.67-10.57,25.6-8.31-32.89,17.27-29,17.46,15.32-8.6,28.21-12.52,1.87.94-7.47,5.61-17.55,8.21-13.46,9.41,20-9.79,34-13.15-6,3.74-14.76,9.34-20.33,13.57-2.69,6.72,26.23-7.47,13.16-3.17S125.4,66.19,133.77,63,163.31,56.83,153,60Z" style="fill:#eaebf4"/><path d="M160.81,59.28a35.24,35.24,0,0,1-10.17,6.12c-11.56,4.54-13.91,2.87-17.22,6.27h0c-.13-.12-.28-.24-.43-.36l-.44-.36-.35-.28-.37-.28-.76-.58s11.68-6.73,22-9.86-10.88-.27-19.26,3-4.28-3.11,8.8-7.41,4.49-3.67-13.16,3.17-6.09-1.12,2.69-6.72,28.77-12.7,14.76-9.34S117,57,112.85,55.8s4.12-4.74,13.46-9.41,20.35-9.54,7.47-5.61S109.5,53.49,105.57,53.3s19.88-15.21,29-17.46-4.37-5.61-25.6,8.31S91,51.43,93.43,48.44s14.71-14.39,31.76-17.19-8.4-6.71-27.09,4.59S83.34,54.05,76.62,56.1s-2.43-15.69,15.13-25,23.73-8.78,29.89-8.78S97.31,10,72.38,43.43C77.75,33,86.44,21.68,99.6,18.74c26-5.79,31-2.62,31.57,1.31a6,6,0,0,0,5.6,5.23c1.87.18,7.33,1.86,4.88,4.11s.73,3.92,4.65,5.22,4.48,6.54,6.35,6.92,3,2,0,4.67-1.49,3.36,2.62,2.8,6.23,2.43,4.23,4.3C158.45,54.28,158.79,57.2,160.81,59.28Z" style="fill:#dfe1ea"/><path d="M290.07,113.68a13.72,13.72,0,0,1-4.39,0h0c-.64-.25-44.51-17-66.79-14.47,0,0,40.73,5.24,61.9,16.65a17.33,17.33,0,0,0-.08,4.1c.48,6.6,1.27,9.39-.73,11.18-28.28-18.82-46-17.73-34.11-14.12,8.47,2.58,22.09,11,29.79,16.07l-1.45.4c-6.3,1.64-16,3.24-20.89,7-28.47-22.63-48.18-19.11-35.47-16.25,13.26,3,32.52,21.59,32.52,21.59,0,7.94-9.39,5.77-18.06,7.94l-.9.26c-11.49-4.68-32.13-20-24.4-13,8.79,8,21.25,16.12,21.25,16.12,0,2.58,2.52,6.41,0,12.16a20.67,20.67,0,0,0-1.67,5.25c-20.87-6.7-47.28-33.09-47.72-33.52,14.46,19.22,49.07,38.25,49.61,38.55h0c1.47,1.14,3.73,2,6.69,3.1,8,2.89,8.67,10.11,5.06,15.17-2.29,3.2-4.57,6.4-5,9.41-24.91-9.62-54.09-45-54.09-45,9.25,23.26,55.5,50,55.5,50,3.62,4.33-7.22,7.22-.72,15.89,1.56,2.08-1,1.62-6-.6h0c-.78-.51-41.53-27.18-48.75-40.3-6.12-11.12-5.46,4.11,21.13,24.88-16.38-10.4-34.1-23.67-41.84-34.54C150.71,164,146,145,143.68,131.24c.71-7.27,4.11-10.56,4.11-6,0,5.6,6.36,9.9,4.86,6.54s-3-8.78,0-12,3.18,1.88,5.42,7.67,2.05-1.12,1.43-8.52,4.92-2.87,10.9-.63,3.74-1.87,0-5.53-2.24-4.93,5.23-1.82,5.42-1.25.75-4.42-4.77-5.89,3.29-4.21,2.73-3.08-3.29-5.46-4.63-3.22,5.74-3.22,9.11-.84.42-1.82-9.81-4.91-3.22-6.73,4.62-3.08-.91-1.4-10.16-.42-8-1,7.83-4.09,8-4.2h0c5.89-1.44,11.73-3.6,14.89-6.85,7.5-7.7,22.73-13.93,51.77-11-35.47,7.1-43.34,17.94-28.34,11,17.09-8,62.71-7,62.71-7,9.38,1.17,12.08,2.41,9.94,7-1.47,3.14-3.29,6.19-4.28,9.14-34.26-2.68-57.33,4.39-39,3.68,19.07-.74,42.69,7.88,43.11,8h0c.28.21.58.41.89.61C300.21,99.63,295.82,112.55,290.07,113.68Z" style="fill:#eaebf4"/><path d="M143.68,131.24a164,164,0,0,1-2-17.56Z" style="fill:#dddee8"/><path d="M229.89,227.61a237.22,237.22,0,0,1-27.62-15.42c-26.59-20.77-27.25-36-21.13-24.87C188.36,200.43,229.11,227.1,229.89,227.61Z" style="fill:#cacddd"/><path d="M236.64,212.33s-46.25-26.77-55.5-50c0,0,29.18,35.37,54.09,45A6.11,6.11,0,0,0,236.64,212.33Z" style="fill:#cacddd"/><path d="M228.51,179.61c-.54-.3-35.15-19.33-49.6-38.55.43.43,26.84,26.82,47.71,33.52A4.91,4.91,0,0,0,228.51,179.61Z" style="fill:#cacddd"/><path d="M231.41,154.07c-2.43.76-3.13,1.77-3.15,3.1,0,0-12.46-8.14-21.25-16.12C199.29,134,219.92,149.4,231.41,154.07Z" style="fill:#cacddd"/><path d="M253.32,140.54a6.69,6.69,0,0,0-2.95,5.33s-19.26-18.59-32.52-21.58C205.14,121.42,224.85,117.9,253.32,140.54Z" style="fill:#cacddd"/><path d="M280,131.14a11.22,11.22,0,0,1-4.32,2c-7.7-5-21.32-13.48-29.79-16.06C234,113.41,251.7,112.32,280,131.14Z" style="fill:#cacddd"/><path d="M285.68,113.68c-2.53-.32-4.35-.69-4.88,2.18-21.17-11.41-61.9-16.65-61.9-16.65C241.17,96.71,285,113.43,285.68,113.68Z" style="fill:#cacddd"/><path d="M289.17,92.52c-.42-.15-24-8.77-43.11-8-18.29.72,4.78-6.36,39-3.67C283.74,84.92,284,88.83,289.17,92.52Z" style="fill:#cacddd"/><path d="M279.45,64.66s-45.63-.95-62.72,7c-15,7-7.13-3.85,28.34-11,1.72.18,3.48.39,5.3.63C263.55,63.11,273.05,63.86,279.45,64.66Z" style="fill:#cacddd"/><path d="M178.41,78.52a112.64,112.64,0,0,1-18,2.66Z" style="fill:#dddee8"/><path d="M77.59,191.32c-1.51.35-3.92-.4-7.7-4.18,0,0-2.65-3.86-2.17-4.82s-1-2.41-2.64-2.89a3.64,3.64,0,0,1-2.42-4.09c.49-1.45-1.13-2.65-3-3.86-1.16-.75-3-4.09-2.87-8a11.2,11.2,0,0,1,2.87-7.15,16.69,16.69,0,0,0,4.38-4.09s1.11,7.4-2.48,12.95a11.64,11.64,0,0,1-1.22,1.62c-3.78,4.19-.47,2.89,2.34-1.26a17.88,17.88,0,0,0,2.37-5.05c2-7.06,2.85.41.67,5.93a12.06,12.06,0,0,1-.67,1.45c-2.4,4.38.4,3.41,2.41-1a18.72,18.72,0,0,0,1.28-4c1.1-5.42,2-1.65,1.08,4.53a41.67,41.67,0,0,1-2,8.08c-3.21,8.61,3-.3,4.84-7.53a15.55,15.55,0,0,0,.47-2.84c.23-3.92,1-1.65,1.22,3.12a60.6,60.6,0,0,1-1.22,15.51c-2.53,11.22,4-4.19,4-15.11,0-.53,0-1.06,0-1.56-.33-5.17.8-3.38,1.55,1.73A61,61,0,0,1,77.59,191.32Z" style="fill:#d0d4e2"/><path d="M80,188.58s-.46,2.29-2.41,2.74a61,61,0,0,0,1-22.52c-.75-5.11-1.88-6.9-1.55-1.73,0,.5,0,1,0,1.56,0,10.92-6.51,26.33-4,15.11a60.6,60.6,0,0,0,1.22-15.51c-.23-4.77-1-7-1.22-3.12a15.55,15.55,0,0,1-.47,2.84c-1.83,7.23-8,16.14-4.84,7.53a41.67,41.67,0,0,0,2-8.08c.91-6.18,0-10-1.08-4.53a18.72,18.72,0,0,1-1.28,4c-2,4.41-4.81,5.38-2.41,1a12.06,12.06,0,0,0,.67-1.45c2.18-5.52,1.3-13-.67-5.93a17.88,17.88,0,0,1-2.37,5.05c-2.81,4.15-6.12,5.45-2.34,1.26a11.64,11.64,0,0,0,1.22-1.62c3.59-5.55,2.48-12.95,2.48-12.95a5.71,5.71,0,0,0,1-5.22,2.76,2.76,0,0,1-.19-1.2c0-.06,0-.11,0-.16l.06-.21a1.08,1.08,0,0,1,.12-.24,1,1,0,0,1,.15-.21l.13-.13a1.57,1.57,0,0,1,.3-.2,1.46,1.46,0,0,1,.36-.16,2.46,2.46,0,0,1,.41-.1,4,4,0,0,1,1,0l.58.06h0l.3,0a8.17,8.17,0,0,1,1,.25l.66.22.41.18.39.18.27.14.3.16.35.19.68.44c.22.15.45.32.66.49s.44.35.65.54l.46.45.45.48c.14.16.29.33.42.51s.27.34.4.53.25.38.36.57.23.39.34.6l.3.62c.1.22.18.44.26.66a101.2,101.2,0,0,1,4.71,17.4C82.5,175.88,82.62,183.11,80,188.58Z" style="fill:#cacddd"/><path d="M160.27,187.14c-1.44,1.28-4.17,1.28-4.17,1.28-43.33.32-60.77-19.13-61-19.43l1.21-.17.6-.08.6-.1.89-.16.5-.1.67-.14.65-.15.6-.14.88-.22.37-.11.81-.23h0l.37-.11.28-.09.28-.09c.28-.09.58-.18.85-.28l.08,0c.29-.09.57-.19.86-.3h0c4.27.59,8.12-.76,12.06-3,0,0,2.32,3.26,8.49,4.37s1.3,1.82-2.25,1.47,5.61,3.15,12.71,3.15,2,2.8-8.5,1.12,4.94,3.55,18,4.3-4.37,2.43-14.23,0,6.58,6.35,22.64,5c0,0,2.34.28,2.71.93s-12.8,1.87-21.3-.47S139.63,189.17,160.27,187.14Z" style="fill:#d0d4e2"/><path d="M160.26,187.14c-20.62,2-32.71-6-24.33-3.73s21.67,1.12,21.3.47-2.71-.93-2.71-.93c-16.06,1.3-32.5-7.48-22.64-5s27.31.75,14.23,0-28.58-6-18-4.3,15.59-1.12,8.5-1.12-16.26-3.51-12.71-3.15,8.41-.36,2.25-1.46-8.49-4.38-8.49-4.38c1.87-1.05,3.75-2.31,5.71-3.65,6.1-4.17,14.77-7.7,14.77-5.46s1.12,6.27,3.53,6,3.13,3.85,4.58,4.57,2.64,2.89,1.68,4-.48,2,1.93,2,2.08,1.37,8.83,9.39C161.76,184.07,161.48,186.07,160.26,187.14Z" style="fill:#eaebf4"/><path d="M92,70.87l1.3-.17a45,45,0,0,0-5.31,1L86.87,72c.38-.11.76-.21,1.15-.3.91-.22,1.81-.42,2.69-.58Z" style="fill:#eaebf4"/><path d="M94.56,70.57l.92-.08c-.63.05-1.26.1-1.91.18C93.9,70.63,94.23,70.59,94.56,70.57Z" style="fill:#eaebf4"/><path d="M92.24,135.6c1.28-.32,2.55-.69,3.8-1.12C94.79,134.9,93.52,135.28,92.24,135.6ZM81.5,137h0a37.51,37.51,0,0,0,4.24-.22A40,40,0,0,1,81.5,137ZM61.77,106.53a6.59,6.59,0,0,1-.57-.44,5.39,5.39,0,0,0,.57.45,16.84,16.84,0,0,1,1.9,1.62A15.18,15.18,0,0,0,61.77,106.53Z" style="fill:#eaebf4"/><path d="M1.77,135.8s0,0,0-.05l-.09-.16a2,2,0,0,1,.1.21l0,0c.07.12.13.25.19.37l0,0,.24.43c.15.28.31.54.48.8l.2.31c.1.16.2.31.31.46,0,0,0,0,0,0h0l0,0,.05.05c.08.07.18.17.32.28A18.28,18.28,0,0,1,1.77,135.8ZM27.65,98.88a1.76,1.76,0,0,1,0-.46,1.18,1.18,0,0,0,0,.46,2.36,2.36,0,0,0,.24.66A2.72,2.72,0,0,1,27.65,98.88ZM114.32,117a16.25,16.25,0,0,0-2.45-6.94c-3.34-5.34-9.52-7.25-15.52-7.38a37.19,37.19,0,0,0-4.6.21c-5.67.57-15.12,2.65-15.81,9.76C74.73,125.21,97.58,126,105.47,125,109.94,124.45,114.7,122.18,114.32,117ZM27.65,111a6.05,6.05,0,0,0-5.12,2.82,7.58,7.58,0,0,0-.4.74,3.52,3.52,0,0,0-.16.39,2,2,0,0,0-.07.23,1.52,1.52,0,0,0-.09.28A6.06,6.06,0,1,0,27.65,111Z" style="fill:#dddee8"/><path d="M133.41,85.62a1,1,0,0,1-.38.21,1.67,1.67,0,0,1-.64.06l-.23,0-.22,0-.22-.08-.19-.07-.26-.11-.26-.13c-.17-.09-.35-.19-.52-.3l-.25-.15,0,0-.46-.33-.23-.17c-.45-.33-.82-.65-1.08-.87-.09-.09-.18-.16-.23-.22l-.12-.11s-.3-.34-.89-.92l-.13-.13a.8.8,0,0,0-.13-.13l-.2-.19-.33-.31c-.1-.11-.23-.21-.35-.33-.75-.68-1.7-1.48-2.84-2.34l-.39-.29-.41-.29L122,78c-.57-.4-1.17-.79-1.81-1.19-.32-.2-.64-.41-1-.6l-.51-.3c-.35-.21-.71-.41-1.07-.6-.18-.1-.36-.2-.55-.29s-.38-.19-.57-.28-.37-.2-.57-.29c-.39-.19-.79-.38-1.2-.55l-.62-.28-.63-.26-.64-.25-.65-.25-.67-.24-.68-.23c-.46-.15-.92-.3-1.4-.43s-.85-.24-1.3-.36l-.32-.08c-.19,0-.37-.09-.57-.12l-.75-.17c-.51-.11-1-.21-1.55-.29l-.79-.13q-.69-.1-1.41-.18c-.38,0-.77-.09-1.16-.11s-1-.08-1.54-.1c-.26,0-.53,0-.81,0h-1c-.67,0-1.34,0-2,0l-.34,0-.38,0-.92.08c-.33,0-.66.06-1,.1l-.24,0c-.43,0-.86.11-1.3.17l-1.32.22c-.88.16-1.78.36-2.69.58-.39.09-.77.19-1.15.3s-.76.19-1.14.3-.75.2-1.12.32-.75.21-1.11.33c-.73.22-1.45.44-2.16.69l-1,.35-1.05.37-1,.38c-.35.12-.68.26-1,.38l-2,.8-1,.41-1.87.84L70.59,78l-1.76.89-1.69.91c-.83.46-1.64.92-2.43,1.39l-.78.47-1.52,1c-.74.47-1.47.95-2.17,1.42s-1.58,1.09-2.33,1.63l-.53.4a1.24,1.24,0,0,0-.23.17c-.3.21-.59.43-.87.65l-.89.67c-1.48,1.15-2.85,2.28-4.1,3.35l-1.51,1.31s0,0,0,0l-.87.77-.09.07-.77.7c-1.1,1-2.08,1.91-2.94,2.68-.2.18-.39.36-.58.52l-.61.54a17.32,17.32,0,0,1-11.73,4.13l-.2,0-.5,0-.4-.07-.23,0-.13,0-.22-.06a5.46,5.46,0,0,1-.61-.21l-.26-.1-.24-.12-.26-.15-.3-.2a3.11,3.11,0,0,1-.28-.23l-.25-.26a2.87,2.87,0,0,1-.39-.57,2.72,2.72,0,0,1-.24-.66,1.76,1.76,0,0,1,0-.46c0-.09,0-.19.07-.29a2.13,2.13,0,0,1,.11-.33,2.75,2.75,0,0,1,.15-.36,1.36,1.36,0,0,1,.11-.25c.05-.11.1-.22.16-.33s.09-.17.15-.26a5.05,5.05,0,0,1,.25-.45,26.87,26.87,0,0,1,1.92-2.79c.15-.21.32-.42.49-.64l.52-.65c.35-.44.74-.91,1.14-1.38s.83-.94,1.27-1.43a0,0,0,0,1,0,0c.44-.5.91-1,1.39-1.51l.75-.78.77-.79C38,85.11,39.08,84,40.28,82.93c.39-.37.8-.74,1.21-1.11,1.12-1,2.31-2,3.54-3l.77-.63.48-.39.8-.63C48.52,76,50,74.9,51.54,73.82c.56-.41,1.14-.8,1.72-1.17.29-.2.57-.4.87-.59.52-.34,1-.68,1.56-1s1-.65,1.56-1l0,0c.53-.32,1.08-.64,1.62-.94s1.33-.76,2-1.12l1-.54c1-.49,1.93-1,2.9-1.43l1.11-.5.2-.08c.74-.33,1.48-.64,2.23-.93,1-.42,2.1-.8,3.15-1.15l.9-.29c.74-.23,1.48-.45,2.22-.64.22-.07.43-.12.65-.17l.92-.22a4.15,4.15,0,0,1,.48-.11l1-.22,1.15-.22.51-.07,1-.16c.43-.06.86-.11,1.3-.15s.65-.06,1-.09l.64,0,.79,0,.51,0h1.07c.47,0,.94,0,1.41,0,29.14,1.16,37.55,12.71,41,15.51S134.91,84.31,133.41,85.62Z" style="fill:#f2f3f9"/><path d="M4.64,120.82a12.5,12.5,0,0,0,1.93.07A13.9,13.9,0,0,1,4.64,120.82Zm2.42,0a11.4,11.4,0,0,0,1.46-.21A11.4,11.4,0,0,1,7.06,120.86Zm20.59-22a1.76,1.76,0,0,1,0-.46,1.18,1.18,0,0,0,0,.46,2.36,2.36,0,0,0,.24.66A2.72,2.72,0,0,1,27.65,98.88Zm0,12.08a6.05,6.05,0,0,0-5.12,2.82,7.58,7.58,0,0,0-.4.74,3.52,3.52,0,0,0-.16.39,2,2,0,0,0-.07.23,1.52,1.52,0,0,0-.09.28A6.06,6.06,0,1,0,27.65,111Zm17,46.7h0Zm17.16-51.13a6.59,6.59,0,0,1-.57-.44,5.39,5.39,0,0,0,.57.45,16.84,16.84,0,0,1,1.9,1.62A15.18,15.18,0,0,0,61.77,106.53Zm3.31-43.59-1.31.58c.44-.19.87-.39,1.31-.57a60.9,60.9,0,0,1,10.55-3.43A59,59,0,0,0,65.08,62.94ZM80,58.72c1-.14,2-.27,3-.37C82,58.45,81,58.57,80,58.72ZM81.5,137h0a37.51,37.51,0,0,0,4.24-.22A40,40,0,0,1,81.5,137ZM83,58.35c1-.1,2-.17,3.09-.23C85,58.17,84,58.24,83,58.35Zm4.72-.29-1.48,0,1.48,0L89,58Zm4.53,77.54c1.28-.32,2.55-.69,3.8-1.12C94.79,134.9,93.52,135.28,92.24,135.6ZM92,70.87l-1.32.22c-.88.16-1.78.36-2.69.58-.39.09-.77.19-1.15.3L88,71.68a45,45,0,0,1,5.31-1Zm2.53-.3c-.33,0-.66.06-1,.1.65-.08,1.28-.13,1.91-.18ZM114.32,117a16.25,16.25,0,0,0-2.45-6.94c-3.34-5.34-9.52-7.25-15.52-7.38a37.19,37.19,0,0,0-4.6.21c-5.67.57-15.12,2.65-15.81,9.76C74.73,125.21,97.58,126,105.47,125,109.94,124.45,114.7,122.18,114.32,117Zm19.09-45.34a5,5,0,0,0-.43-.35c.15.12.3.24.43.36h0Zm27,9.51a38.72,38.72,0,0,1-.7,7.36A12.71,12.71,0,0,1,158,93.33C155.77,96.67,151.33,96.2,148,95a89,89,0,0,1,11.54,6.44c.35-.91.65-1.87.93-2.89C163.8,86,160.43,81.18,160.43,81.18ZM114.32,117a16.25,16.25,0,0,0-2.45-6.94c-3.34-5.34-9.52-7.25-15.52-7.38a37.19,37.19,0,0,0-4.6.21c-5.67.57-15.12,2.65-15.81,9.76C74.73,125.21,97.58,126,105.47,125,109.94,124.45,114.7,122.18,114.32,117Zm0,0a16.25,16.25,0,0,0-2.45-6.94c-3.34-5.34-9.52-7.25-15.52-7.38a37.19,37.19,0,0,0-4.6.21c-5.67.57-15.12,2.65-15.81,9.76C74.73,125.21,97.58,126,105.47,125,109.94,124.45,114.7,122.18,114.32,117Z" style="fill:#eaebf4"/><path d="M139.24,77.81a32,32,0,0,0-5.82-6.14h0c-.13-.12-.28-.24-.43-.36l-.44-.36-.35-.28-.37-.28-.76-.58h0q-1.62-1.21-3.61-2.43l-.81-.49-1.27-.72c-.73-.41-1.48-.8-2.27-1.19l-.69-.33c-.34-.17-.69-.34-1.05-.49-1.44-.66-3-1.29-4.6-1.87l-1.25-.43-1.41-.46-1.17-.36-1.12-.31-1-.26-1-.25c-.66-.16-1.34-.31-2-.46l-1.05-.21-1.07-.21-1.28-.22-.92-.14-.87-.13c-.46-.06-.93-.13-1.4-.18l-1.37-.16-.2,0-.69-.07h-.12l-1.25-.11c-.58-.05-1.17-.09-1.76-.12l-1.54-.08-1.21,0h-1l-1.73,0H89l-1.27,0-1.48,0h-.15c-1,.06-2.07.13-3.09.23s-2,.23-3,.37l-1.41.22-.18,0c-.41.07-.83.14-1.24.23l-.38.07-1.14.24A60.9,60.9,0,0,0,65.08,63c-.44.18-.87.38-1.31.57q-1.29.6-2.52,1.23c-.42.21-.83.43-1.24.65C43.15,74.5,32.52,89.83,23,98.18c1.54,2.72,2.77,6.52-.49,8.73-5.5,3.74-8.12,3.74-8.49,9,0,.13,0,.27,0,.39s0,.06,0,.09-.05.22-.08.33l0,.1a1.81,1.81,0,0,1-.13.34,3,3,0,0,1-.23.48s0,0,0,0l-.1.16-.11.16a3.51,3.51,0,0,1-.29.36.86.86,0,0,1-.13.14c-.07.07-.13.14-.2.2a3.59,3.59,0,0,1-.36.32l-.18.15-.19.13-.19.13-.21.13-.27.16c-.29.16-.59.3-.89.43s-.32.13-.48.18-.58.19-.89.27l-.46.1a11.4,11.4,0,0,1-1.46.21l-.49,0a12.5,12.5,0,0,1-1.93-.07h-.1l-.64-.1q-.36-.06-.72-.15l-.42-.11a28.15,28.15,0,0,0-1.38,2.82l-.11.27c0,.1-.08.19-.11.28a17.33,17.33,0,0,0-.91,3c0,.16-.07.33-.09.5s0,.27-.07.41l0,.33h0a9.47,9.47,0,0,0,.06,2.56,3.43,3.43,0,0,0,.06.34,17.14,17.14,0,0,1,9.6,3.91s-.2,1.5-1,1.37-4.21-2.32-7.56-1.71a1.48,1.48,0,0,0,.1.27l0,.07.08.18.12.27,0,.06v0c0,.05,0,.1.07.16s0,0,0,0l.09.16s0,0,0,.05a18.28,18.28,0,0,0,1.88,2.85c-.14-.11-.24-.21-.32-.28a17.78,17.78,0,0,0,5.37,4.82c.56.37,1.16.72,1.8,1.06l.16.08.68.28.16.06.09,0,.1,0h.06c6.64,1.85,13.25,3.64,19.15,6l.21-.15.23-.18c.12-.08.25-.19.4-.3l.5-.41.59-.52.68-.63.36-.36c.54-.54,1.13-1.16,1.75-1.88l.64-.77c.12-.14.24-.3.36-.46l.48-.63c.17-.22.33-.45.49-.68l.54-.78s0-.07.06-.09l.09-.14.29-.46.48-.79.52-.89,0,0c.13-.25.27-.5.4-.76s.31-.59.46-.9l.33-.69c.18-.4.36-.8.53-1.22,3.92-9.43-.84-20.4,5.6-16.31s.18,18.64,9.9,19.63c10.79-17-8.51-34-2-30.55,8.56,4.5,9.75,16.06,9.75,16.06a39.2,39.2,0,0,1,.49,6.08c0,.34,0,.66,0,1,0,.67-.06,1.34-.11,2s-.14,1.26-.24,1.87c0,.26-.08.53-.13.79,0,.09,0,.19,0,.29-.09.44-.18.88-.29,1.3q0,.19-.09.36c-.06.21-.11.43-.18.63s-.15.54-.24.79l-.24.72,0,0-.25.66a1.67,1.67,0,0,1-.08.2,6.57,6.57,0,0,1-.26.61c-.1.25-.22.5-.33.74s-.21.43-.32.63-.22.42-.33.62l-.17.3c-.19.34-.38.66-.58,1l0,0c-.25.39-.51.77-.77,1.13a23.9,23.9,0,0,1-2.21,2.61c-.31.31-.61.61-.93.9l-.35.32-.35.3c-.24.21-.48.4-.71.59a4.5,4.5,0,0,1-.37.28,3,3,0,0,1-.35.27l-.72.52-.72.48-.36.23c-.12.07-.24.14-.35.22-.47.28-.94.55-1.4.79l-.67.35-.34.16-.33.16-1.14.51-.1,0-.49.2-.47.18-.19.07-.69.24-.37.12-.47.15-.21.07-.2,0-.15.05-.27.07-.33.08-.26.06h0l-.21,0h0a104.58,104.58,0,0,0,12.2,5.79,11.2,11.2,0,0,1,2.87-7.15,16.69,16.69,0,0,0,4.38-4.09,5.71,5.71,0,0,0,1-5.22,2.76,2.76,0,0,1-.19-1.2c0-.06,0-.11,0-.16l.06-.21a1.08,1.08,0,0,1,.12-.24,1,1,0,0,1,.15-.21l.13-.13a.93.93,0,0,1,.3-.2,1.46,1.46,0,0,1,.36-.16,2.46,2.46,0,0,1,.41-.1,4,4,0,0,1,1,0,2.93,2.93,0,0,1,.58.06h0l.3,0a8.17,8.17,0,0,1,1,.25c.22.06.44.14.66.22l.41.18.39.18.27.14a2.19,2.19,0,0,1,.3.16l.35.19c.22.14.45.28.68.44a7.5,7.5,0,0,1,.66.49c.22.17.44.35.65.54l.46.45q.24.24.45.48c.14.16.29.33.42.51s.27.34.4.53.25.38.36.57.23.39.34.6l.3.62c.1.22.18.44.26.66a101.2,101.2,0,0,1,4.71,17.4c2.78.21,5.69.31,8.75.26,1.68,0,3.33-.15,4.94-.33h0l1.21-.17q.3,0,.6-.09c.2,0,.4,0,.6-.09l.89-.16.5-.1.67-.14.65-.15.6-.14.88-.23.37-.1.81-.23h0l.37-.12.28-.08.28-.09c.28-.09.58-.18.85-.28l.08,0c.29-.09.57-.2.86-.3h0a45.24,45.24,0,0,0,26.22-25.44h0c4.46-46.46-24.92-46.55-9.79-50.75a21.38,21.38,0,0,1,5.75-.74l.82,0,.54,0,.69,0,1.17.11.81.1.69.1c.59.08,1.18.19,1.76.3l1.31.29.82.2.81.21c.55.14,1.09.3,1.61.47s.86.26,1.28.4l.65.21.62.23.86.31q1,.34,1.86.72c.23.08.45.18.67.27,1.1.45,2.17.92,3.19,1.4l0,0c3.37,1.23,7.81,1.7,10.08-1.64a12.71,12.71,0,0,0,1.69-4.79,38.72,38.72,0,0,0,.7-7.36S145.15,84,139.24,77.81ZM32.33,120.87a6.05,6.05,0,0,1-10.52-5.45,1.52,1.52,0,0,1,.09-.28,2,2,0,0,1,.07-.23,3.52,3.52,0,0,1,.16-.39,7.58,7.58,0,0,1,.4-.74,6.06,6.06,0,1,1,9.8,7.09Zm87.42-8.16c1.37,4.71-.38,8.36-3.43,11.25-.29.28-.59.55-.91.82l-.63.51-.66.5c-.46.33-.92.65-1.4,1l-.72.45-.36.22c-.36.22-.73.44-1.11.64l-1.13.62-.75.39-.76.38-.75.36c-1,.48-2,.92-2.93,1.34l-.69.32-1.34.6-2.06.89c-.24.1-.47.2-.71.28-.59.24-1.18.47-1.78.69s-1.06.38-1.59.55c-1.25.43-2.52.8-3.8,1.12-.86.23-1.72.42-2.58.58-.43.09-.87.16-1.3.24l-1.31.2c-.43.06-.87.11-1.31.15a37.51,37.51,0,0,1-4.24.22H81l-.61,0-.66,0-.7,0-1-.11q-.51-.06-1-.15c-.34,0-.69-.12-1-.19l-.52-.12c-.34-.08-.67-.17-1-.27l-.49-.17c-.3-.1-.6-.22-.89-.35a8.91,8.91,0,0,1-1.23-.64,5.4,5.4,0,0,1-.71-.52,4.36,4.36,0,0,1-1.63-2.87c-.65-5.41,1-16.55-5.8-23.31a16.84,16.84,0,0,0-1.9-1.62,5.39,5.39,0,0,1-.57-.45l-.5-.44c-6.28-6.21,10.77-12.86,32.17-13.12,8.84-.11,17.1,3.45,22.25,10.74A34,34,0,0,1,119.75,112.71Zm13.66-27.09a1,1,0,0,1-.38.21,1.67,1.67,0,0,1-.64.06l-.23,0-.22,0-.22-.08-.19-.07-.26-.11-.26-.13c-.17-.09-.35-.19-.52-.3l-.25-.15,0,0-.46-.33-.23-.17c-.45-.33-.82-.65-1.08-.87-.09-.09-.18-.16-.23-.22l-.12-.11s-.3-.34-.89-.92l-.13-.13-.13-.13-.2-.19-.33-.31c-.1-.11-.23-.21-.35-.33-.75-.68-1.7-1.48-2.84-2.34l-.39-.29-.41-.29L122,78c-.57-.4-1.17-.79-1.81-1.19-.32-.2-.64-.41-1-.6l-.51-.3c-.35-.21-.71-.41-1.07-.6-.18-.1-.36-.2-.55-.29s-.38-.19-.57-.28-.37-.2-.57-.29c-.39-.19-.79-.38-1.2-.55l-.62-.28-.63-.26-.64-.25-.65-.25-.67-.24-.68-.23c-.46-.15-.93-.3-1.4-.43s-.85-.24-1.3-.36l-.32-.08c-.19,0-.37-.09-.57-.12l-.75-.17c-.51-.11-1-.21-1.55-.29l-.79-.13q-.69-.1-1.41-.18c-.38,0-.77-.09-1.16-.11s-1-.08-1.54-.1l-.81,0h-1c-.67,0-1.34,0-2,0l-.34,0-.38,0c-.63.05-1.26.1-1.91.18l-.24,0a45,45,0,0,0-5.31,1L86.87,72l-1.14.3-1.12.32q-.57.15-1.11.33c-.73.22-1.45.44-2.16.69l-1,.35-1.05.37-1,.38c-.35.12-.68.26-1,.38l-2,.8-1,.41-1.87.84L70.59,78l-1.76.89-1.69.91c-.83.46-1.64.92-2.43,1.39l-.78.47-1.52,1c-.74.47-1.47.95-2.17,1.42s-1.58,1.09-2.33,1.63l-.53.4a1.24,1.24,0,0,0-.23.17c-.3.21-.59.43-.87.65l-.89.67c-1.48,1.15-2.85,2.28-4.1,3.35l-1.51,1.31s0,0,0,0l-.87.77-.09.07-.77.7c-1.1,1-2.08,1.91-2.94,2.68-.2.18-.39.36-.58.52l-.61.54a17.32,17.32,0,0,1-11.73,4.13l-.2,0-.5,0-.4-.07-.23,0-.13,0-.22-.06a5.46,5.46,0,0,1-.61-.21l-.26-.1-.24-.12-.26-.15-.3-.2a3.11,3.11,0,0,1-.28-.23l-.25-.26a2.87,2.87,0,0,1-.39-.57,2.36,2.36,0,0,1-.24-.66,1.18,1.18,0,0,1,0-.46c0-.09,0-.19.07-.29a2.13,2.13,0,0,1,.11-.33,2.75,2.75,0,0,1,.15-.36,1.36,1.36,0,0,1,.11-.25c.05-.11.1-.22.16-.33s.09-.17.15-.26a5.05,5.05,0,0,1,.25-.45,26.87,26.87,0,0,1,1.92-2.79c.15-.21.32-.42.49-.64l.52-.65c.35-.44.74-.91,1.14-1.38s.83-.94,1.27-1.43a0,0,0,0,1,0,0c.44-.5.91-1,1.39-1.51l.75-.78.77-.79C38,85.11,39.08,84,40.28,82.93c.39-.37.8-.74,1.21-1.11,1.12-1,2.31-2,3.54-3l.77-.63.48-.39.8-.63C48.52,76,50,74.9,51.54,73.82c.56-.41,1.14-.8,1.72-1.17.29-.2.57-.4.87-.59.52-.34,1-.68,1.56-1s1-.65,1.56-1l0,0c.53-.32,1.08-.64,1.62-.94s1.33-.76,2-1.12l1-.54c1-.49,1.93-1,2.9-1.43l1.11-.5.2-.08c.74-.33,1.48-.64,2.23-.93,1-.42,2.1-.8,3.15-1.15l.9-.29c.74-.23,1.48-.45,2.22-.64.22-.07.43-.12.65-.17l.92-.22a4.15,4.15,0,0,1,.48-.11l1-.22,1.15-.22.51-.07,1-.16c.43-.06.86-.11,1.3-.15s.65-.06,1-.09l.64,0,.79,0,.51,0h1.07c.47,0,.94,0,1.41,0,29.14,1.16,37.55,12.71,41,15.51S134.91,84.31,133.41,85.62Z" style="fill:#eaebf4"/><path d="M119.75,112.71a34,34,0,0,0-4.63-9.44C110,96,101.71,92.42,92.87,92.53c-21.4.26-38.45,6.91-32.17,13.12l.5.44a6.59,6.59,0,0,0,.57.44,15.18,15.18,0,0,1,1.9,1.63c6.77,6.76,5.15,17.9,5.8,23.31a4.36,4.36,0,0,0,1.63,2.87,5.4,5.4,0,0,0,.71.52,8.91,8.91,0,0,0,1.23.64c.29.13.59.25.89.35l.49.17c.34.1.67.19,1,.27l.52.12,1,.19q.51.09,1,.15l1,.11.7,0,.66,0,.61,0h.55a40,40,0,0,0,4.24-.21c.44,0,.88-.09,1.31-.15l1.31-.2c.43-.08.87-.15,1.3-.24.86-.16,1.72-.35,2.58-.58,1.28-.32,2.55-.7,3.8-1.12.53-.17,1.06-.36,1.59-.55s1.19-.45,1.78-.69c.24-.08.47-.18.71-.28l2.06-.89,1.34-.6.69-.32c.94-.42,1.93-.86,2.93-1.34l.75-.36.76-.38.75-.39,1.13-.62c.38-.2.75-.42,1.11-.64l.36-.22.72-.45c.48-.31.94-.63,1.4-1l.66-.5.63-.51c.32-.27.62-.54.91-.82C119.37,121.07,121.12,117.42,119.75,112.71ZM105.47,125c-7.89,1-30.74.18-29.53-12.37.69-7.11,10.14-9.19,15.81-9.76a37.19,37.19,0,0,1,4.6-.21c6,.13,12.18,2,15.52,7.38a16.25,16.25,0,0,1,2.45,6.94C114.7,122.18,109.94,124.45,105.47,125Z" style="fill:#f2f3f9"/><path d="M176.38,96.87c6,2.38,11.35,7.14,3.29,5.46-3.66-.76-5.63-.62-6.27.06a.79.79,0,0,0-.19.33c-.26.87.92,2.29,3.17,3.81,4.67,3.18,6.72,7.55-.75,4.43s-9-1.83-5.23,1.83c3.28,3.2,5.4,6.75,1.84,6.07-.2,0-.41-.09-.65-.16h0c-.36-.1-.75-.23-1.19-.4-.66-.25-1.32-.52-2-.8l-.64-.29-1.24-.57c-4.29-2-7.54-3.46-7.06,2.3.62,7.4.81,14.31-1.43,8.52s-2.43-10.87-5.42-7.68-1.49,8.61,0,12-4.86-.93-4.86-6.54c0-4.54-3.39-1.25-4.11,6l-2-17.56c-7.06-.25-6.74,8.92-6.74,8.92A42,42,0,0,1,131.8,141c4.46-46.46-24.92-46.55-9.79-50.75a21.38,21.38,0,0,1,5.75-.74l.82,0,.54,0,.69,0,1.17.11.81.1.69.1c.59.08,1.18.19,1.76.3l1.31.29.82.2.81.21c.55.14,1.09.3,1.61.47s.86.26,1.28.4l.65.21.62.23.86.31q1,.34,1.86.72c.23.08.45.18.67.27,1.1.45,2.17.92,3.19,1.4l0,0c3.37,1.23,7.81,1.7,10.08-1.64a12.71,12.71,0,0,0,1.69-4.79,38.72,38.72,0,0,0,.7-7.36h.11c.4,0,2-.13,4.32-.37a108.12,108.12,0,0,0,13.55-2.28c-.18.11-5.9,3.64-8,4.2s2.48,2.66,8,1a13.37,13.37,0,0,1,4.53-.77,1.14,1.14,0,0,1,.4.11c.17.09.18.24,0,.43a5.74,5.74,0,0,1-1.77.92c-.59.22-1.34.46-2.25.71-.36.1-.69.2-1,.31s-.59.22-.85.34a7.08,7.08,0,0,0-.73.37c-3.45,2-1.49,4.88,5.8,5.71,8.69,1,10,1.82-.42,1.82S170.35,94.49,176.38,96.87Z" style="fill:#cacddd"/><path d="M31.88,116.74a2.23,2.23,0,0,0,0-.27,3.58,3.58,0,0,0-.09-.45,3.06,3.06,0,0,0-.13-.43,2.09,2.09,0,0,0-.17-.41,2.42,2.42,0,0,0-.21-.39,4.51,4.51,0,0,0-.53-.69,2.2,2.2,0,0,0-.27-.26l-.4-.31h0l-.26-.17-.26-.14-.3-.14-.31-.1a2,2,0,0,0-.33-.09,1.13,1.13,0,0,0-.18,0l-.2,0h0l-.18,0h-.36a4.24,4.24,0,1,0,0,8.48,4.18,4.18,0,0,0,1.66-.35,4.24,4.24,0,0,0,2.58-3.9A2.53,2.53,0,0,0,31.88,116.74Zm-4.23,3.93a3.65,3.65,0,0,1,0-7.29,2.42,2.42,0,0,1,.38,0,2,2,0,0,1,.24,0,.28.28,0,0,1,.13,0l.37.09.3.11a3.17,3.17,0,0,1,.45.23l.06,0a1.64,1.64,0,0,1,.22.14l.13.11a3.66,3.66,0,0,1,.77.85l.12.19.07.14s.05.11.08.17.1.24.14.36a3.71,3.71,0,0,1,.17.88,2.09,2.09,0,0,1,0,.25A3.64,3.64,0,0,1,27.65,120.67Z" style="fill:#eaebf4"/><path d="M31.29,117a3.64,3.64,0,1,1-3.64-3.65A3.64,3.64,0,0,1,31.29,117Z" style="fill:#2b2b2b"/><path d="M32.33,120.87a6.05,6.05,0,0,1-10.52-5.45,1.52,1.52,0,0,1,.09-.28,2,2,0,0,1,.07-.23,3.52,3.52,0,0,1,.16-.39,7.58,7.58,0,0,1,.4-.74,2.73,2.73,0,0,0,1.08.19c.31-.09,1.16-.46,1.3-.19a4.3,4.3,0,0,0-1.5,3.24,4.25,4.25,0,0,0,4.24,4.25,4.18,4.18,0,0,0,1.66-.35,2.22,2.22,0,0,0,1.49.35A5.17,5.17,0,0,1,32.33,120.87Z" style="fill:#ffa82a"/><path d="M33.71,117a6,6,0,0,1-1.38,3.85,5.17,5.17,0,0,0-1.53.4,2.22,2.22,0,0,1-1.49-.35,4.24,4.24,0,0,0,2.58-3.9,2.53,2.53,0,0,0,0-.28,1.12,1.12,0,0,0,0-.27,2.11,2.11,0,0,0-.09-.45,2.13,2.13,0,0,0-.13-.43,1.62,1.62,0,0,0-.17-.41,1.47,1.47,0,0,0-.21-.39,2.9,2.9,0,0,0-.25-.36,4,4,0,0,0-.55-.59l-.4-.31h0l-.26-.17-.26-.14-.3-.14-.31-.1a2,2,0,0,0-.33-.09,1.13,1.13,0,0,0-.18,0l-.22,0-.18,0h-.36a4.26,4.26,0,0,0-2.74,1c-.14-.27-1,.1-1.3.19a2.73,2.73,0,0,1-1.08-.19A6.06,6.06,0,0,1,33.71,117Z" style="fill:#df6817"/><path d="M105.47,125c-7.89,1-30.74.18-29.53-12.37.69-7.11,10.14-9.19,15.81-9.76a37.19,37.19,0,0,1,4.6-.21c6,.13,12.18,2,15.52,7.38a16.25,16.25,0,0,1,2.45,6.94C114.7,122.18,109.94,124.45,105.47,125Z" style="fill:#f7f8fb"/><path d="M29,115.12a1.74,1.74,0,1,1,1.73,1.73A1.73,1.73,0,0,1,29,115.12Z" style="fill:#eaebf4"/></g></g></svg>