<svg xmlns="http://www.w3.org/2000/svg" viewBox="0 0 181.06 411.84"><title>seahorse</title><g id="Layer_2" data-name="Layer 2"><g id="Ñëîé_2" data-name="Ñëîé 2"><path d="M128.83,49.54s19.23-8.5,21.83-9,7.57-4.14,1.37-4.46S131.75,44.5,128.83,49.54Z" style="fill:#fdf18a"/><path d="M113.69,39.72S126.44,24.84,128.83,23s-1-3.72-2.21-4-12.53,14.18-12.93,17S111.17,40.65,113.69,39.72Z" style="fill:#fdf18a"/><path d="M97.76,30.68s5.44-13.41,8.89-16.86-2.78-1.59-4.44-.66-3.09-2.93-3.64.79-2.41,15.94-1.88,16.73A.59.59,0,0,0,97.76,30.68Z" style="fill:#fdf18a"/><path d="M83,31s-.4-12.17.79-14.56-2.65-2.66-2.65-2.66-1.86-.8-2.26,0,2,16.11,2.57,17.22S83.05,32.72,83,31Z" style="fill:#fdf18a"/><path d="M61.63,31C61.51,30.5,57,10.23,58.58,6s-.12-5.44-2.65-5-4-2.66-4.83.53,7.21,21.11,7.21,21.31A43,43,0,0,1,59.64,31C59.78,35.07,62.47,34.68,61.63,31Z" style="fill:#fdf18a"/><path d="M43.57,48s-4.51-14.83-4-18.54-1.73-1.47-4.65,0S36.4,35.71,38.39,40,43.31,52.47,43.57,48Z" style="fill:#fdf18a"/><path d="M146.36,67.06s22.31-8.24,26.83-7.3,1.06,2.88,2.92,4.83,2.13,3.78-4.51,2.47-22,2.93-23.91,3.2S141.63,68.74,146.36,67.06Z" style="fill:#fdf18a"/><path d="M156.19,93.9s20.08-2.39,21.06-1.06,0,3.72,0,3.72,8.58,3.18,0,2.39-19.73-2.13-21.06-2.13S151.17,94.45,156.19,93.9Z" style="fill:#fdf18a"/><path d="M158.62,119.4s16.85,2.12,18.63,7.43-4.06-2.92-4.06,0-6.38-.53-8-1.32-7.44-4.25-8.23-4.25S155,118.8,158.62,119.4Z" style="fill:#fdf18a"/><path d="M146.89,143.57s12,9,13.83,12-2.86,1.59-2.1,3.19-1.33,4.51-3.6,0-6.53-10.63-9.72-13.28S140.79,140.91,146.89,143.57Z" style="fill:#fdf18a"/><path d="M45.08,71.5A7.53,7.53,0,1,1,52.6,64,7.52,7.52,0,0,1,45.08,71.5Zm15.05-6.9c-.54-8.77-12-14.08-12-14.08-2.59-1.44.18-2.66,5.49-2.49s12,0,12,4.09S60.66,73.36,60.13,64.6Z" style="fill:#fde848"/><path d="M125.91,392.7c-19.12,21.25-41,5.76-45.42-6.37s6.23-32,26.63-25c2.14,2.44,6.78,4.73,6.31,5.81-.53,1.23.18,3.89,2.12,6.55s-.18,5.14-.71,6.2-1.23,6.19-2.29,6.19-1.43.72-2.49,2.66-3,.88-4.78.53a17.44,17.44,0,0,1-4.6-1.59c-1.41-.71-1.78-2.84-.71-2.66s3.36-1.59,4.61-3a6.06,6.06,0,0,0,.7-6.74c-1.41-2.48-5.48-2.83-7.26-3s-2.47,1.6-4.07,2.48-3,2.65-2.48,4.61-.53,5.66,2,8.32,12.39,4.78,15.58,4.07,7.8-2.83,7.8-3.89,1.41-1.78,2.47-2,4.6-5.66,3.54-6.72.18-3.37.89-3.9,1.76-5.84.17-7.79-1.23-2.12,0-2.83,1.43-4.25-1.55-6.38-3-3.19-1.64-4.6,2.84-4.07,0-6.72-3.88-2.31-2.82-5a3.11,3.11,0,0,0,.11-1.63h0c.3-9.25-13-24.74-24.32-35.72S36,228.82,46.68,183.14s42.66-59.84,55.06-74c11.59-13.23,5.23-19.21,4.35-19.93l-.1-.07c-2.39-1.33-11.69-8.24-11.69-8.24C105.64,59.37,90.59,48.93,92.53,53s1.77,10.27-6.37,22.13-19.66-.35-21.6-3.63S61.72,77.25,55,82.74s-9.74-1.59-15.22,2S5.82,96.63,5.82,96.63a2.66,2.66,0,0,0-1-.87C3.2,95-.25,93.63,0,89.65s4.52-2.92,9.3-4.52,19.66-8.76,21-15.4,6.38-16.73,8.24-21c.93-2.13,3.25-2.6,5.34-2.52A11,11,0,0,0,54.37,40c.54-1.22,1-2.46,1.56-3.7A66.8,66.8,0,0,1,114.22,61.5c26,32.13,21.52,55.77,7.71,79.15S77.31,182.36,75.71,219s12,64,34,94S145,371.46,125.91,392.7Z" style="fill:#fde848"/><path d="M160.89,118.52c.7,4.6,1.94,6.72-4.08,12.74s-5.85,17-9.92,18.42c-3,1-8.37,10.32-15.89,25.71-.56,1.14-1.14,2.33-1.72,3.56-2.33,4.84-4.85,10.22-7.53,16.06-9.37,20.36-10.54,34.43-10.4,40.54a17.15,17.15,0,0,0,.3,3.37c.36,1.06,2,4.6.72,11s3.18,10.1,3.18,10.81-1.59.35-1.94,5.31,5.48,7.79,4.42,11,2.65,7.61,4.61,9.39,1.41,4.95,1.41,4.95c3.54,16.3,9.74,6.9,8.85,15.93s6.56,8.15,5.85,11.87,2.3,10.45,4.43,12.93.53,3.89.53,3.89c-.18,14.7,5.66,8.86,5,15.94s3.89,13.46,2.12,15.76-4.25,9.38-3,11.86a5.44,5.44,0,0,1-1.24,6.55c-1.15.91-4.67,5.76-6.49,9.22,10-27.66,7.22-48.21-19.78-90.67-27.95-44-33-85.7,0-133.87s30.36-68.87,30.36-68.87c-1.59-51-60.74-72.78-60.74-72.78,7.44,0,6.21-3,10.1,0s9,3.19,14.17,3.9,1.23,2.13,8.14,6.73,10.27,1.77,12.05,6.5,6.72,12.44,13.1,15.46,5.66,4.42,6,10.26,5.84,16.83,8,19.48,2.75,4.78,0,10.8S160.17,113.9,160.89,118.52Z" style="fill:#f29130"/><path d="M120.27,304.61c27,42.46,29.82,63,19.78,90.67a8.16,8.16,0,0,0-1.12,3,3.15,3.15,0,0,1-1.78,3s-5.13,2.84-8.67,5-3.72,4.43-9.56,2.13-11,5-12.4,3.18-9.21-2.12-11.68-1.24-3.19-1.41-5.67-4.78-6-2-6-3.36-.53-2.84-3.37-6.2-4.07-2.83-3.36-4.11,0-4.74-1.06-8.46-1.59-6.2.7-9.21.36-6,4.43-8.5,2.13-7.08,5.13-7.08,7.44-2.65,11.69-1.95,7.62.71,9,3.55a4.7,4.7,0,0,0,.78,1.09c-20.4-7-31.06,12.89-26.63,25s26.3,27.62,45.42,6.37S131.75,343,109.71,313s-35.59-57.37-34-94,32.41-55,46.22-78.35,18.32-47-7.71-79.15A66.8,66.8,0,0,0,55.93,36.29a15.66,15.66,0,0,1,1.19-2.24c2.84-4.43-1.41-6.2,6.19-5.67s11.16-3.54,14.53-1.76,4.6,2.47,12,2.47c0,0,59.15,21.78,60.74,72.78,0,0,2.66,20.71-30.36,68.87S92.32,260.64,120.27,304.61Z" style="fill:#edbe19"/><path d="M118,340.33c-.41-2.93-3.47-7.07-5.07-7.21-2-.18-4.78.17-4.25-3.36s1.59-5.14-2.45-7.62-5.34.71-5.52-1.23,3-6.74-2.48-8.86-8.41-1.68-8.15-4.34,1.07-4.78-5.57-9.29-8.5,2.92-8.5-6.11-10.1-14.61-12-15.14-1.6-3.72-1.6-3.72c1.06-11.42-11.15-17.27-14.08-19.13s1.33-4.25-2.92-15.14-11.68-4-8.76-14.6-2.39-21.25-5.58-25.5,2.92-3.45,4-15.14-6.9-14.08,0-18.59S51,141.44,51.28,137.46s3.18-4,3.18-4c21.52-9.29,14.35-21,25-21,10.47,0,28.4-21.38,26.66-23.3.88.72,7.24,6.7-4.35,19.93-12.4,14.18-44.42,28.35-55.06,74s35.69,110.49,47,121.47S118.27,331.08,118,340.33Z" style="fill:#fdf18a"/><path d="M94.3,80.88s-4.51,5.05-14.07,7.44S62.43,84.07,60,85.4,46.23,87.79,42,88.32,14.09,98.41,13.29,100.54s-5.84,2.39-6.37,0c-.38-1.71-.49-3-1.1-3.91,0,0,28.46-8.39,34-11.94s8.5,3.55,15.22-2,7.62-14.52,9.57-11.24S78,87,86.16,75.13,94.48,57.07,92.53,53,105.64,59.37,94.3,80.88Z" style="fill:#edbe19"/><path d="M46.68,64.6a3.11,3.11,0,1,1-3.11-3.1A3.1,3.1,0,0,1,46.68,64.6Z" style="fill:#2b2b2b"/><path d="M45.08,56.45A7.53,7.53,0,1,0,52.6,64,7.53,7.53,0,0,0,45.08,56.45ZM43.57,67.69a3.1,3.1,0,1,1,3.11-3.09A3.09,3.09,0,0,1,43.57,67.69Z" style="fill:#b0c613"/><path d="M65.62,52.12c0,4.11-5,21.24-5.49,12.48s-12-14.08-12-14.08c-2.59-1.44.18-2.66,5.49-2.49S65.62,48,65.62,52.12Z" style="fill:#fdf18a"/><path d="M142.11,188.45a73,73,0,0,1-9.22-2.06c.24.12,2.25.92,6,2.9,9,4.74,11.15,6.6,3.18,4.74s-11.42-2.82-9.29.71,13.54,7,13.28,8.85-17.27-7.43-19.66-7.43,11.95,10.62,15.14,13-8.23-1.59-13-4.78-4.25.8,4.51,7.44,5.93,8.23,1.9,5-11.19-10.62-13-8,13.63,14.87,15,18.85-15.7-13.38-19-13.68,11.64,16.07,14,20.32-12-13.81-14.5-13.81,8.66,11.95,10,16.74-4-6.91-10.35-9,7.17,7,8.5,19.95c-1.65-3.65-3.62-9.49-14.3-12.7-.14-6.11,1-20.18,10.4-40.54,2.68-5.84,5.2-11.22,7.53-16.06,5.68.24,23.67,1.05,21.39,1.27-2.71.27-13,1.06-15.69,1.59s.32.84,10.59,4S153.27,190.31,142.11,188.45Z" style="fill:#e57f23"/><path d="M157.42,187.74c-4,1.78-.08,4.25-2.56,5.68s0,3.53-1.77,5,1.06,5.31-.7,6.37,2.82,5,.7,6,4.25,5.66.36,6.37,1.87,5.31-2.78,6.72-1.47,6.74-2.89,6.74,1.42,1.06-1.77,3.54,2.76,3.9-1.62,4.25-.5,6-4.75,4.6-3.9,6-6.38,5.31-3.18,5-6,2.49a7.24,7.24,0,0,1-1.59-2.54c-1.33-13-14.88-22.08-8.5-19.95s11.68,13.81,10.35,9-12.48-16.74-10-16.74,16.89,18.06,14.5,13.81-17.33-20.62-14-20.32,20.4,17.67,19,13.68-16.91-16.2-15-18.85,9,4.78,13,8,6.87,1.6-1.9-5-9.29-10.63-4.51-7.44,16.2,7.17,13,4.78-17.53-13-15.14-13,19.39,9.29,19.66,7.43-11.16-5.31-13.28-8.85,1.32-2.57,9.29-.71,5.85,0-3.18-4.74c-3.79-2-5.8-2.78-6-2.9a73,73,0,0,0,9.22,2.06c11.16,1.86,13.72.49,3.46-2.65s-13.28-3.45-10.59-4,13-1.32,15.69-1.59c2.28-.22-15.71-1-21.39-1.27.58-1.23,1.16-2.42,1.72-3.56,5.06.94,18.39,3.22,23.51,1.77,6.38-1.81.35,2.79,0,4.21S161.4,186,157.42,187.74Z" style="fill:#fde848"/><path d="M45.52,64.59a2.79,2.79,0,1,1,2.79,2.79A2.78,2.78,0,0,1,45.52,64.59Z" style="fill:#e8e1db"/></g></g></svg>