<svg xmlns="http://www.w3.org/2000/svg" viewBox="0 0 612.06 239.37"><title>silver-arowana</title><g id="Layer_2" data-name="Layer 2"><g id="Ñëîé_2" data-name="Ñëîé 2"><path d="M146.11,58.93c-14.07-10.78-9.42-3.3-20.42,6S100.3,57.58,97.31,54.21,86.43,49.67,86,49.6A16.76,16.76,0,1,1,57.12,61.18c0-.54,0-1.07.08-1.6h0c-.59-.64-13-14.35-21.58-14.51h-.09c-3.76.56-6.67,1.44-8.58,2.8a5.1,5.1,0,0,0-.67.56,11.84,11.84,0,0,1,11.14,3.33c8,8,30.34,40.5,39.08,55C73.26,102.14,38.2,52.05,24.57,52a12.76,12.76,0,0,0,.27,4.22,27.74,27.74,0,0,0,1.43,4.7v0c4.85,12.53,18.53,30.63,27,44.37,8.35,13.52,25.42,23.36,37.34,28.61h.08c1.53.39,24.89,6,34.73-5,10.19-11.37,22.76-26.34,31.14-33.24S160.19,69.71,146.11,58.93ZM121.25,76c-2.68,4.49-4.7,14.83-5.15,32.1s-13.48,20.22-21.56,16.17S71.86,111,84.88,113.94s19.32-3.36,20.44-13.69S116.1,76,116.1,76C120.36,69,124,71.5,121.25,76Zm23.07,11.67c-7.2,2.4-21,16.77-21,13.78s1.81-5.09,13.77-15.57-1.48-26.3-1.48-26.3c-3-2.49-1.2-7.83,8.68,3.84S151.5,85.28,144.32,87.67Z" style="fill:#e8e1db"/><path d="M35.63,45.06c8.6-1.28,21.5-.9,36.33-.53Z" style="fill:#d9d1cc"/><path d="M76.5,106.77C73.27,102.13,38.2,52.05,24.57,52a5.84,5.84,0,0,1,1.72-3.59,11.85,11.85,0,0,1,11.13,3.32C45.43,59.76,67.77,92.25,76.5,106.77Z" style="fill:#414142"/><path d="M80.85,61.18a7,7,0,1,1-7-7A7,7,0,0,1,80.85,61.18Z" style="fill:#414142"/><path d="M73.88,44.42a15,15,0,0,0-1.92.11c1.52,0,3.05.08,4.62.11A17.16,17.16,0,0,0,73.88,44.42Z" style="fill:#d9d1cc"/><path d="M86,49.6h0a16.69,16.69,0,0,0-9.4-5c-1.57,0-3.11-.06-4.63-.11a16.77,16.77,0,0,0-14.75,15h0c0,.53-.08,1.06-.08,1.6A16.76,16.76,0,1,0,86,49.6ZM73.87,68.14a7,7,0,1,1,7-7A7,7,0,0,1,73.87,68.14Z" style="fill:#d88d59"/><path d="M72,44.53a16.77,16.77,0,0,0-14.75,15c-.59-.64-13-14.35-21.58-14.51Z" style="fill:#d9d1cc"/><path d="M24.84,56.24s-1.63-1.58-4.08-3.92h0C14.61,46.45,3.39,36,.59,34.68c-3.88-1.79,12.18,4.12,24,17.34A12.76,12.76,0,0,0,24.84,56.24Z" style="fill:#d9d1cc"/><path d="M26.27,60.94c-.61-.46-17.52-13.48-25.9-16.1,4.38,1.08,16,4.2,20.38,7.48h0c2.45,2.34,4.08,3.92,4.08,3.92A27.74,27.74,0,0,0,26.27,60.94Z" style="fill:#cec8c4"/><path d="M144.32,87.67c-7.19,2.4-21,16.77-21,13.77s1.81-5.08,13.78-15.56-1.49-26.3-1.49-26.3c-3-2.49-1.2-7.84,8.68,3.84S151.51,85.27,144.32,87.67Z" style="fill:#f2ece9"/><path d="M121.26,76c-2.69,4.5-4.71,14.83-5.15,32.11s-13.49,20.22-21.57,16.17S71.86,111,84.88,113.94s19.33-3.36,20.45-13.7S116.11,76,116.11,76C120.36,69,124,71.5,121.26,76Z" style="fill:#cec8c4"/><path d="M611,70.67c-3.82,1.55,3,19.15-1.82,20.35s-6.8,15.59-2.8,20.79-6.4,5.6-4.4,10-6.4,6-4.4,10-5.6,2.8-5.2,9.2-30.79,10.79-50.79-10q-3.12-3.27-6.11-5.87-1.69-1.48-3.34-2.79a20.17,20.17,0,0,0,11-10.68,13.11,13.11,0,0,0,.81-8.53c-1.87-6.65.53-8.25,1.6-22.92s-15.19-19-15.19-19a134.3,134.3,0,0,1,22.71-12.92c13.82-6.26,29-10.56,37.27-7.18,13.6,5.55,18.4,8.75,15.6,10.35s7.6,4,4.4,6.79S614.78,69.12,611,70.67Z" style="fill:#e8e1db"/><path d="M530.37,61.18a49,49,0,0,1-7.07,4.4l0,0c-11.37,5.69-21.47,3.12-32.11-14.17C483.06,38.25,443.33,30.37,398,26.07l-2.51-.24c-25.46-2.33-52.56-3.57-76.67-4-68-1.2-148.89,8-159.84,12.53-10.59,4.4-46.45,9.8-48.67,10.14l-.11,0c-11.49.52-23,.36-33.61.12a16.69,16.69,0,0,1,9.4,5h0c.43.07,8.4,1.35,11.31,4.61s17.37,20,28.38,10.72,6.35-16.78,20.42-6S165,88.87,156.59,95.75s-21,21.87-31.14,33.24c-9.84,11-33.2,5.35-34.73,5,6,2.64,10.68,4.11,12.28,4.32,1,.13,8,1.39,19.2,3.2h0c20.06-10,44.23-5.73,44.23-5.73-2.41-4.87-.19-7.56,3.52-9.11,4.29-1.8,10.56-2.08,13.95-2.47,7.59-.88,15.15-1.69,22.75-2.43,12.48-1.21,25-2.24,37.48-3,3.31-.19,64.27-3.5,64.27,1.44,0,2-3.6,5.2-3.6,5.68s6,5.92-29.11,13.12c-13,2.67-31.08,3.69-48.74,3.61,158.32,20,227.89-26.38,260.68-43.86s55.51,12.91,55.51,12.91a13.11,13.11,0,0,0,.81-8.53c-1.87-6.65.53-8.25,1.6-22.92S530.37,61.18,530.37,61.18ZM436.72,90.39c-36.79.55-90.65-2.14-143.44,3s-116.77,1.83-107.18-25A30.53,30.53,0,0,1,198,53.07c11.31-7.61,25.24-9.4,38.89-10.22,5.08-.3,10.14-.48,15-.77,19.6-1.13,39.74-2.09,59-2.76,42.54-1.52,85.49,0,127.08,9.75,14.78,3.46,30,7.88,43.19,15.51,4,2.33,13.15,7.15,13.15,12.89C494.31,89.61,473.51,89.85,436.72,90.39Z" style="fill:#d9d1cc"/><path d="M543.15,111.67a20.17,20.17,0,0,1-11,10.68c-9.55-7.58-17.71-10.46-23.4-10.68h0a16.87,16.87,0,0,0-2.4.08.15.15,0,0,0-.09,0C487.35,113,492.93,125,446.38,143.93c-19.69,8-51.5,12.48-82.36,14.93-20.81,1.66-41.18,2.41-57.09,2.73a.54.54,0,0,1-.18,0c-16.72.36-28.49.23-30.68.2H276c-3.34-.13-6.77-.28-10.27-.48-10.19-.55-21-1.43-32.14-2.51-4-.4-8.09-.85-12.17-1.3-28.06-3.2-56.64-7.77-79.25-12.91a.45.45,0,0,0-.11,0,.22.22,0,0,1-.11,0c-7.47-1.12-14.13-2.16-19.73-3.07,20.06-10,44.23-5.73,44.23-5.73,1.76,3.56,30.56,6.79,60.46,6.88H227c158.32,20,227.89-26.38,260.68-43.86S543.15,111.67,543.15,111.67Z" style="fill:#cec8c4"/><path d="M538.36,31.43c-2,5.2,0,9.2-2.8,13-1.79,2.43-1.53,8-6.38,14.81a35.68,35.68,0,0,1-5.88,6.35l0,0c-11.37,5.69-21.47,3.12-32.11-14.17C483.06,38.25,443.33,30.37,398,26.07c3.11-1.07,6.84-2.35,10.88-3.71,19.45-6.57,46.47-15.24,49.51-13.72,4.8,2.39,7.6-4.8,12.8-3.6s8.8-.28,12.8-.15S488.77-1,494.37,1s12.8-4.4,20.4,1.6,21.19,13.79,20,19.08S540.36,26.23,538.36,31.43Z" style="fill:#e8e1db"/><path d="M527.57,157c-4,1.23-2.4,5.63-4.8,5.63s-.67,2.13-3.75,3.46-1.85,4.54-5,4.94-5.6,3.6-7.6,4-4.4,3.6-6.8,3.6-4.8,3.2-8,3.2-2.4,2.8-6,2.8-7.6,3.6-12.4,2.8-2,2.4-8.8,2.4-10.8,4-16.8,3.6-6,3.59-13.19,2c0,0-22.13.27-23.73,4.52s-12.22-1.6-15.18,0-8.81-6.14-12.55-1.47-9.6-3.6-13.33,0-14.92,2-18.67,3.07-11.19-.56-16.52,0c-1.87.19-10.4-.14-20.89-2.46a.11.11,0,0,1-.08,0l-.24,0c-16.29-3.66-37.16-12.07-45.18-30.6a39.12,39.12,0,0,1-2.3-7.08c3.5.2,6.93.35,10.27.48h.08a297.56,297.56,0,0,0,30.68-.2.54.54,0,0,0,.18,0c14.19-.28,31.91-.91,50.34-2.22h0a2.55,2.55,0,0,0,.39,0l6.35-.48c30.86-2.45,62.67-6.9,82.36-14.93,46.55-19,41-31,59.82-32.16a.15.15,0,0,1,.09,0c.75,0,1.55-.07,2.4-.08h0s6.38,7.76,11.71,15.9c3.84,5.87,7.15,11.92,7.15,15.44C527.57,151.4,531.57,155.76,527.57,157Z" style="fill:#e8e1db"/><path d="M289,239.37c-55.94-11.23-67.63-81.87-67.63-81.87,4.08.45,8.14.9,12.17,1.3C233.53,211.2,287.36,238.52,289,239.37Z" style="fill:#d9d1cc"/><path d="M308.41,120.21a3.55,3.55,0,0,1-.52,1.62h0c-1,1.77-3.06,3.69-3.06,4.06s6,5.92-29.11,13.12c-1.92.4-3.95.75-6.08,1.07h0C257.34,142,242,142.69,227,142.62h-.06c-29.9-.09-58.7-3.32-60.46-6.88-2.41-4.87-.19-7.56,3.52-9.11,4.29-1.8,10.56-2.08,13.95-2.47,7.59-.88,15.15-1.69,22.75-2.43,12.48-1.21,25-2.24,37.48-3C247.45,118.58,308.41,115.27,308.41,120.21Z" style="fill:#e8e1db"/><path d="M494.31,77.47c0,12.14-20.8,12.38-57.59,12.92s-90.65-2.14-143.44,3-116.77,1.83-107.18-25A30.53,30.53,0,0,1,198,53.07c11.31-7.61,25.24-9.4,38.89-10.22,5.08-.3,10.14-.48,15-.77,19.6-1.13,39.74-2.09,59-2.76,42.54-1.52,85.49,0,127.08,9.75,14.78,3.46,30,7.88,43.19,15.51C485.21,66.91,494.31,71.73,494.31,77.47Z" style="fill:#e8e1db"/><path d="M74.91,58a5.94,5.94,0,1,1,5.94,5.94A5.94,5.94,0,0,1,74.91,58Z" style="fill:#e8e1db"/><path d="M304.81,125.89c0,.48,6,5.92-29.11,13.12-1.92.4-3.95.75-6.08,1.07h0c-46.6-.16-67.24-4.64-20.59-6s39.19-7.47,27-6.52-110.33,6-87.76,2.48c22.41-3.52,118.17-8.18,119.64-8.24C306.88,123.6,304.81,125.52,304.81,125.89Z" style="fill:#bcb6b3"/><path d="M538.36,31.43c-2,5.2,0,9.2-2.8,13-1.79,2.43-1.53,8-6.38,14.81-3.85,1-16.23,4-23.14,4.23-8.27.27,14.5-4.69,21.32-10.13s-11.57-1.6-23.1,5.07,2.05-4.27,19.9-14.14,13.07-14.13-5.06-2.67-20.54,12.54-22.39,10.94,19.35-14,28.79-21.07,12-15.72-1.34-5.87S497,46.93,494.31,46.93s17.32-15.47,24.25-20.79,9.34-12.27,3.74-11.2-29.06,26.65-32.79,27.45-2.94-4,12.25-16.8,16-14.12,13.87-16S495.37,25.11,485,34.15s-17.33,4-1.33-7.21S508.56,8.4,506.84,4.27,481,20.54,473,30.93s-9.05.26,6.94-13.34,5.6-15.72-4-4-11.19,17.07-14.14,17.34,5.87-15.61,10.14-20.53-4.38-4.53-10.71,8.27-7.68,12-9.55,9.86,7.2-12,2.67-16.26-7.74,12.79-7.47,16-3.47-.8-5.87-9.59-7.2-2.68-1.86,4.79,1.55,7.73-2.43,3.2-7.17-7.72-11.17-7.19-1.87,4.79,1.6,6.92-3.12,3.65-18.25-4c19.45-6.57,46.47-15.24,49.51-13.72,4.8,2.39,7.6-4.8,12.8-3.6s8.8-.28,12.8-.15S488.77-1,494.37,1s12.8-4.4,20.4,1.6,21.19,13.79,20,19.08S540.36,26.23,538.36,31.43Z" style="fill:#bcb6b3"/><path d="M611,70.67c-3.82,1.55,3,19.15-1.82,20.35s-6.8,15.59-2.8,20.79-6.4,5.6-4.4,10-6.4,6-4.4,10-5.6,2.8-5.2,9.2-30.79,10.79-50.79-10q-3.12-3.27-6.11-5.87a1.76,1.76,0,0,1,1.78-.9c6.4.53,28.52,25.33,23.19,16.8S539.63,120,543.15,118.12s28.39,27.77,36.47,26.39,8.8-5.07-10.13-15.47S540.43,108.55,553,115.17s34.94,18.4,37.07,15.47,6.92-4.53-18.8-15.2-29.46-13.86-3.6-7.47,29.87,5.35,29.32,1.35-28-7.47-40.52-11.73-8.52-6.41,18.4-2.22,24,1.95,23.47-2.27-16.8-3.78-39.47-6.72-15.19-5.33,12.4-5.6,34.79-2.93,33.47-8-8-1.85-36.8,1.07-27.19-.52-12.54-2.92,52-14.4,45.06-19.74-45.06,16.26-52.26,17.13-2.65-3.54,24.54-16.51,15.36-11.42-1.47-4.62-38.79,19.46-28.07,11.47a40.4,40.4,0,0,0,9.93-10.4c13.82-6.26,29-10.56,37.27-7.18,13.6,5.55,18.4,8.75,15.6,10.35s7.6,4,4.4,6.79S614.78,69.12,611,70.67Z" style="fill:#bcb6b3"/><path d="M313.2,199c-16.29-3.66-37.16-12.07-45.18-30.6,8.4-10.65,7.67-4.06,7.68,1.84,0,6.4,1.18,6.4,6.38-1.6s10.4-7.2,7-.4-6.86,17.53,0,14,11-17.6,13.84-16.4-10,20.4-6.8,23.6,6.4-1.6,12.33-14,11.67-10,6.07,4C311,188,310.93,198.16,313.2,199Z" style="fill:#bcb6b3"/><path d="M527.57,157c-4,1.23-2.4,5.63-4.8,5.63s-.67,2.13-3.75,3.46-1.85,4.54-5,4.94-5.6,3.6-7.6,4-4.4,3.6-6.8,3.6-4.8,3.2-8,3.2-2.4,2.8-6,2.8-7.6,3.6-12.4,2.8-2,2.4-8.8,2.4-10.8,4-16.8,3.6-6,3.59-13.19,2c0,0-22.13.27-23.73,4.52s-12.22-1.6-15.18,0-8.81-6.14-12.55-1.47-9.6-3.6-13.33,0-14.92,2-18.67,3.07-11.19-.56-16.52,0c-1.87.19-10.4-.14-20.89-2.46,1.45,0,3.69-3.3,6.56-12,8-24.4,10-23.2,10.79-9.6s2.8,21.2,8.85,16.4,3.15-30.8,7.55-32-2.4,33.2,3.2,33.64,3.2-34,6.8-36.1h0a.33.33,0,0,1,.39,0c2.54,1-4.39,34.47,4.8,34.09,9.59-.4,1.2-21.6,6.39-31.6s2,30.4,11.2,31.2-.4-23.2,5.6-28.8,6.8,20,12.33,28.59,7.67-5,4.87-20.59-.05-17.69,4-8.4,12,32.8,14.39,27.2-7.19-30.4-2.4-29.24,8.8,18.84,15,26.84,11.26,4.89,5-12.4-7.2-23.19,0-14.4,11.6,33.2,15.2,22.34-16.66-37.07-8-36.64,14,40.7,22.31,36.3-9.91-29.19-5.92-39.19,14,31.59,21.6,34.39,10.43,2-4-24-8.53-23.25,3-8.72,20.54,30.28,26.17,21.11-35-37.27-24.39-39.84,25.59,34.64,30.79,29.91S492,122.64,494.31,121.83,510,140.24,518,147.53s7.2,3.11,0-7.45-22.58-25.45-11.59-18.25c6.17,4,11,5.36,14,5.74,3.84,5.87,7.15,11.92,7.15,15.44C527.57,151.4,531.57,155.76,527.57,157Z" style="fill:#bcb6b3"/></g></g></svg>