<svg xmlns="http://www.w3.org/2000/svg" viewBox="0 0 270.6 157.79"><title>southern-platy</title><g id="Layer_2" data-name="Layer 2"><g id="Ñëîé_2" data-name="Ñëîé 2"><path d="M9.27,88.06A43.16,43.16,0,0,1,2.6,81.83c-3.61-4.38-3.05-7.11-.81-9,.4.94,1,1.86,1.63,2,1.41.35,5.41,1.52,5.17,2.82s-2,3.18,0,4.59C10.11,83.38,10.54,85.19,9.27,88.06Z" style="fill:#414142"/><path d="M116.41,40.43c-7.63.69-17.8,2.55-32.69,5.66C47.74,53.62,19.29,65.61,14.36,68,11.46,69.33,5,70.23,1.79,72.87c.4.94,1,1.86,1.63,2,1.41.35,5.41,1.52,5.17,2.82s-2,3.18,0,4.59c1.51,1.07,1.94,2.88.67,5.75C21,97.28,40,106.76,40,106.76l.67.32a21.75,21.75,0,0,0,15.08-9.49C66.09,82.31,64,75,63.74,70.78s4.46-4.7,7.52-4.23,3.06,1.35,6.11-.15,4.24-3.14,6.82-6.2,6.11-4.47,8.23-4,8,1.93,10.12-.1,4.23-5.55,7-5.55,6.58.71,8.7-1.88c1.5-1.83,2.37-4.9,7.73-6a30.74,30.74,0,0,1,9.28-.24C130.16,40.36,124.84,39.67,116.41,40.43ZM24.35,84.74h0a8.61,8.61,0,0,1-4.76-5.08v0a8.18,8.18,0,0,1-.47-2.77,8.55,8.55,0,1,1,11,8.2,8.41,8.41,0,0,1-2.41.35A8.58,8.58,0,0,1,24.35,84.74Zm33.59-5.52a55.57,55.57,0,0,1-6.29,15.25c-.46.78-.94,1.54-1.44,2.3-7.48,11.28-20.33,2.47-20.39,0,0-1.4,1.38-1,2.33-1a6.61,6.61,0,0,0,4.11-2.12,14.16,14.16,0,0,0,1.47-1.73,49.52,49.52,0,0,0,4-7.14c1.64-3.33,3.25-7,5.9-9.65,1.7-1.72,9.55-7.43,10.75-2.68C59,74.55,58.44,77.09,57.94,79.22Z" style="fill:#f3aca3"/><path d="M142.9,83.2a9,9,0,0,1-1-1.81c-12.61.76-23.87,1.81-23.87,1.81s-17.88,3.1-20.7-3.55,2.35-11.92,17.87-21.57c6.8-4.22,12.6-6,18-6,.52-3.8-.71-5-3-5-1.72,0-3.4-2.75-4.26-4.41-5.36,1.15-6.23,4.22-7.73,6-2.12,2.59-5.88,1.88-8.7,1.88s-4.94,3.53-7,5.55-8,.56-10.12.1-5.64.93-8.23,4-3.76,4.7-6.82,6.2-3.05.62-6.11.15-7.76,0-7.52,4.23,2.35,11.53-8,26.81a21.75,21.75,0,0,1-15.08,9.49,203.36,203.36,0,0,0,39.2,13.36c2-1.6,5.41-2,6.51-2.33,1.58-.53,9.17,1.76,10.23-.88s7.76.53,11.11,2.11,9.87-4.23,8.64-7.23,8.46-4.41,8.64-6.52,6.88-4.59,13.23-5.47,3.35-4.06,1.23-7.05S144.57,85.66,142.9,83.2ZM98.06,94.3c-2,1.76-.7,1.41,1,3.17s-1.76,2.23-.88,3.29S97,101.94,98,102.38s-2,1.91-1.3,2.61,0,0-1.64,1.77c-1.16,1.24-4,.27-4.82-.22-.82,0-1.88.11-1.88.9,0,1.63-6.12-.8-13-3.26l-3.16-1.13h0c-3.42-1.27-2.8-1.47-3.18-4.51a16.38,16.38,0,0,0-4.11-8.46c-1.66-2,1.76-4.12,1.76-4.12.27-.19.54-.38.82-.56l.05,0c8.49-5.73,18.06-10.44,18.06-9.86s.7,1,3.05.86,2.71.42,2.59,1.71,1.18,2.35,3.17,1.58,2,1.6.94,3.55-.7,1.1,1.65,1.84S98,87.13,97,88.42s-1.18,1.65,1.88,2.71S100.07,92.54,98.06,94.3Z" style="fill:#eccfc9"/><path d="M210.7,81.36a52.45,52.45,0,0,1-1.5,12.94c-.33-.09-8.5-2.24-14.72,3.76s-12.7,7-30.57,9.38-26.34,2.38-33.16,7.55-14.15,7.34-17.89,8.73c-1.48.16-3,.27-4.44.35-1.26.06-2.53.09-3.77.09-5.61,0-14.61-1.33-24.79-3.72,2-1.6,5.41-2,6.51-2.33,1.58-.53,9.17,1.76,10.23-.88s7.76.53,11.11,2.11,9.87-4.23,8.64-7.23,8.46-4.41,8.64-6.52,6.88-4.59,13.23-5.47,3.35-4.06,1.23-7.05,5.12-7.41,3.45-9.87a9,9,0,0,1-1-1.81c7.19-.44,14.8-.77,21-.76,17.17,0,26.11,5.16,29.4-3.87s-25.87-12.33-38.57-18.68c-7.14-3.57-13.53-6.17-20.52-6,.52-3.8-.71-5-3-5-1.72,0-3.4-2.75-4.26-4.41a30.74,30.74,0,0,1,9.28-.24,43,43,0,0,1,4.38,2.06c3.67,1.94,7.09,4,10.68,5.83l.74.38h0a56,56,0,0,0,28.78,6.48c12.62-.3,16,0,19.29-1.62C199.18,55.52,210.7,68.2,210.7,81.36Z" style="fill:#fc6a09"/><path d="M209.2,94.3c-1.86,7.29-5.48,13.06-11.07,16a44.4,44.4,0,0,0-12.12-1.4c-13.64,0-37.39-1.17-45.85,5.41-5,3.91-12.12,6.66-19.71,8.24h0a74.43,74.43,0,0,1-7.59,1.2c3.74-1.39,11.07-3.56,17.89-8.73s15.28-5.17,33.16-7.55,24.22-3.26,30.57-9.38S208.87,94.21,209.2,94.3Z" style="fill:#ea5a0a"/><path d="M236.8,87.71c-3.53.24-4.7.94-3.29,4s2.11,5.41.24,6.82-4.24,1.1-3.77,3.85-1.88,6.31-3.29,6.4-3.06-2.29-2.35,1.49-.14,2.84-2.07,4.49-6.63,0-8-2.82-4-.48-3.53,1.17c.3,1.07.17,2.19-1.64,2.54a37.49,37.49,0,0,0-10.93-5.38c5.59-2.91,9.21-8.68,11.07-16a52.45,52.45,0,0,0,1.5-12.94c0-13.16-11.52-25.84-11.52-25.84,1.8-.87,3.57-2.31,6.82-4.72,0,0,10.11-2.48,12.23,1.22s4.46,4.7,5.4,3.5S231.16,56.91,229,59s-2,6.58.42,6.81,7.11,6.93,5.23,7.23-3.06,5.8-2.12,6.58,3.53-.34,4.23,2.21S240.33,87.48,236.8,87.71Z" style="fill:#414142"/><path d="M258,94.3c1.94,1.59,6.88.71,6.88,3s-1.06,2.64-3.17,2.29,3.7,1.87.88,2.79-10.76-.85-5.29,2,7.58,3.92,4.76,4.43-4.41.51-3.53,2.63,1.77,1.3.71,4.36-1.76,2.16-3.88,1.46-5.47-.75-2.29.68,4.76,2.84,4.58,5.49-5.46,2.47-3.52,3,6,2.47,1.58,2.64-5.29.36-8.29,0-5.34-1.7-8.84,0c-10.14-3.06-20.85-7.66-26.2-11.18l-3.28-2.16c1.81-.35,1.94-1.47,1.64-2.54-.47-1.65,2.12-4,3.53-1.17s6.11,4.46,8,2.82,2.77-.71,2.07-4.49.94-1.4,2.35-1.49,3.76-3.67,3.29-6.4,1.88-2.44,3.77-3.85,1.17-3.76-.24-6.82-.24-3.76,3.29-4,.71-3.29,0-5.85-3.29-1.44-4.23-2.21.23-6.28,2.12-6.58-2.83-7-5.23-7.23-2.53-4.7-.42-6.81-4.46-4.71-5.41-3.51-3.29.21-5.4-3.5S206,50.8,206,50.8c6.38-4.75,15.49-12.23,24.25-17,0,0,12.9-1.81,10.78,0s7.94.41,4.77,3.76-8.82,5.92-3.35,5.17,7.58-3.61,10.22-.51,6.53,2.4,2.12,4.34-12.17,4.31-4.41,3.47,8.82-1.6,9,2,4.58,3.66-1.06,4.54-10.41,3-4.59,3.7,7.85,2.3,7.45,5.29.31,2.3-2.51,2.73-7.58.75-3.35,2.27,4.41-.2,4.94,2.69,2.29,2.73-1.77,3.52-6.87,1-1.94,1.67,3,2.9,3.71,4.44a1.4,1.4,0,0,0,.55.67,9.8,9.8,0,0,0-2.67.38c-4.23,1-5.11,1.24.88,2.54s6.18,3.61,4.06,3.78,5.64,1.94,1.23,2.3S256,92.71,258,94.3Z" style="fill:#2b2b2b"/><path d="M270.19,96.42c-1.17,3-4.47,5.64-3.05,8.93s1.88,3.29.23,7.52-5.17,7.76-3.53,12.7,1.65,7.53-10.34,6.58a75.36,75.36,0,0,1-15-3.16c3.5-1.65,5.85-.3,8.84,0s3.88.18,8.29,0,.35-2.11-1.58-2.64,3.35-.36,3.52-3-1.41-4.06-4.58-5.49.17-1.39,2.29-.68,2.82,1.58,3.88-1.46.18-2.25-.71-4.36.71-2.12,3.53-2.63.71-1.61-4.76-4.43,2.47-1.06,5.29-2-3-3.14-.88-2.79,3.17,0,3.17-2.29-4.94-1.41-6.88-3,1.94-1.41,6.35-1.76-3.35-2.12-1.23-2.3S265,87.77,259,86.46s-5.11-1.51-.88-2.54a9.8,9.8,0,0,1,2.67-.38c.27.15.39,0,0,0a1.4,1.4,0,0,1-.55-.67c-.71-1.54,1.23-3.74-3.71-4.44s-2.11-.88,1.94-1.67,2.3-.63,1.77-3.52-.71-1.16-4.94-2.69.53-1.82,3.35-2.27,2.12.27,2.51-2.73-1.63-4.58-7.45-5.29-1.06-2.82,4.59-3.7,1.23-.88,1.06-4.54-1.24-2.87-9-2,0-1.53,4.41-3.47.53-1.24-2.12-4.34-4.76-.25-10.22.51.17-1.82,3.35-5.17-6.88-1.94-4.77-3.76-10.78,0-10.78,0a38.33,38.33,0,0,1,11-4.35c11.28-2.12,9.64-.24,12,2.35s4,4.46,5.88,5.64,3.76,5.65,4.24,8.94-.24,4.23,1.41,6.11,2.35,3.06,1.17,6.35-1.88,7.31-.71,8.83.71,1.75,0,5.75S263.13,84,266.54,86.54,271.37,93.35,270.19,96.42Z" style="fill:#eccfc9"/><path d="M260.81,83.54c.39,0,.27.15,0,0Z" style="fill:#fc6a09"/><path d="M31.44,76.84a3.8,3.8,0,1,1-3.8-3.79A3.8,3.8,0,0,1,31.44,76.84Z" style="fill:#2b2b2b"/><path d="M24.35,84.74h0a8.61,8.61,0,0,1-4.76-5.08v0a2.25,2.25,0,0,1,.62-2.06c.92-.94-.18-1.65.35-3.18s1.41-1.41,1.82-1.13,1.78,0,1.78,0a5,5,0,0,0-1.51,3.6,4.94,4.94,0,0,0,.68,2.53c-.33.27-1,.95-.68,1.58a2.79,2.79,0,0,0,1.51,1.41c.63.3-.51.22,0,.84A2.16,2.16,0,0,1,24.35,84.74Z" style="fill:#9fcddd"/><path d="M30.17,84c.24.35-.12,1-.12,1a8.41,8.41,0,0,1-2.41.35,8.58,8.58,0,0,1-3.29-.65,2.16,2.16,0,0,0-.22-1.54c-.51-.62.63-.54,0-.84A2.79,2.79,0,0,1,22.62,81c-.35-.63.35-1.31.68-1.58a5,5,0,0,0,4.34,2.49,4.85,4.85,0,0,0,2.18-.5s1.47.3,1.62.77S29.93,83.65,30.17,84Z" style="fill:#414142"/><path d="M36.08,75.48c-.57,0-1.28,0-1.44-.29s-1.89-2.39-3.32-1.77a5,5,0,0,0-7.19-.18s-1.37.28-1.78,0-1.29-.4-1.82,1.13.57,2.24-.35,3.18a2.25,2.25,0,0,0-.62,2.06,8.18,8.18,0,0,1-.47-2.77,8.55,8.55,0,0,1,17-1.36Z" style="fill:#414142"/><path d="M36.19,76.84A8.53,8.53,0,0,1,30.05,85s.36-.68.12-1,1.41-1.41,1.27-1.88-1.62-.77-1.62-.77a5,5,0,0,0,1.5-7.94c1.43-.62,3,1.39,3.32,1.77s.87.29,1.44.29A8.61,8.61,0,0,1,36.19,76.84Z" style="fill:#9fcddd"/><path d="M31.32,73.42a5,5,0,0,0-8.7,3.42,4.94,4.94,0,0,0,.68,2.53,5,5,0,0,0,4.34,2.49,4.85,4.85,0,0,0,2.18-.5,5,5,0,0,0,1.5-7.94Zm-3.68,7.21a3.79,3.79,0,1,1,3.8-3.79A3.8,3.8,0,0,1,27.64,80.63Z" style="fill:#eae3dd"/><path d="M57.94,79.22a55.57,55.57,0,0,1-6.29,15.25c-.46.78-.94,1.54-1.44,2.3-7.48,11.28-20.33,2.47-20.39,0,0-1.4,1.38-1,2.33-1a6.61,6.61,0,0,0,4.11-2.12,14.16,14.16,0,0,0,1.47-1.73,49.52,49.52,0,0,0,4-7.14c1.64-3.33,3.25-7,5.9-9.65,1.7-1.72,9.55-7.43,10.75-2.68C59,74.55,58.44,77.09,57.94,79.22Z" style="fill:#e59791"/><path d="M99,97.47c1.64,1.77-1.76,2.23-.88,3.29S97,101.94,98,102.38s-2,1.91-1.3,2.61,0,0-1.64,1.77c-1.16,1.24-4,.27-4.82-.22-.82,0-1.88.11-1.88.9,0,1.63-6.12-.8-13-3.26l-3.16-1.13h0c-.07-.15-1.17-2.45,1-1.69s13.57,4.94,13.48,4.15-9.87-3-14-6.26,5.21,1.06,15.79,3.52,5.2.18-.27-1.41-17.19-5.11-14.81-4.76,21.43,4,21.43,3.18-19.23-3.35-22.14-4.5S94.74,97,94.13,96,78,94.48,71.46,93.42s11.82-.27,18.61-1.24S92.19,90.6,84,91.13,69.26,91.56,73.85,90s21-6,16.49-5.91-22.22,6-20.46,4.67S90,80.8,89.1,79.65s-12.7,4.95-19.75,8,9.43-5.9,14.9-10.05c5.32-4-15.7,7.14-16.82,7.73,8.49-5.73,18.06-10.44,18.06-9.86s.7,1,3.05.86,2.71.42,2.59,1.71,1.18,2.35,3.17,1.58,2,1.6.94,3.55-.7,1.1,1.65,1.84S98,87.13,97,88.42s-1.18,1.65,1.88,2.71,1.18,1.41-.83,3.17S97.36,95.71,99,97.47Z" style="fill:#f3aca3"/><path d="M88,101.35c5.47,1.59,10.85,3.88.27,1.41S68.38,96,72.52,99.24s13.94,5.46,14,6.26-11.28-3.36-13.48-4.15-1,1.54-1,1.69c-3.42-1.27-2.8-1.47-3.18-4.51a16.38,16.38,0,0,0-4.11-8.46c-1.66-2,1.76-4.12,1.76-4.12.27-.19.54-.38.82-.56l.05,0c1.12-.59,22.14-11.76,16.82-7.73-5.47,4.15-22,13.14-14.9,10.05s18.87-9.19,19.75-8-17.45,7.77-19.22,9.09,15.94-4.55,20.46-4.67S78.43,88.39,73.85,90,75.79,91.65,84,91.13s12.87.08,6.08,1.05-25.13.18-18.61,1.24S93.51,94.91,94.13,96s-24.52-1.85-21.61-.7,22.14,3.7,22.14,4.5-19-2.82-21.43-3.18S82.58,99.77,88,101.35Z" style="fill:#414142"/><path d="M142.45,73.07c-1.35,3.69-1.34,6.23-.52,8.32-12.61.76-23.87,1.81-23.87,1.81s-17.88,3.1-20.7-3.55,2.35-11.92,17.87-21.57c6.8-4.22,12.6-6,18-6-.05.32-.1.65-.17,1-.88,4.59.19,8.82,3.81,10.23S144.21,68.24,142.45,73.07Z" style="fill:#f4dbd7"/><path d="M192.36,76.76c-3.29,9-12.23,3.9-29.4,3.87-6.23,0-13.84.32-21,.76-.82-2.09-.83-4.63.52-8.32,1.76-4.83-1.94-8.4-5.54-9.81S132.22,57.62,133.1,53c.07-.35.12-.68.17-1,7-.12,13.38,2.48,20.52,6C166.49,64.43,195.65,67.73,192.36,76.76Z" style="fill:#fd883a"/><path d="M260.81,83.54c.39,0,.27.15,0,0Z" style="fill:#fc6a09"/><path d="M132.31,132.75c.09,1.23-2.65-.36-5.56-2.39s-2.38-1.59-3.17-1.49,2.29,2.64,5.64,4.58,2.2,3.79-.7,1.85-2-.26-3.27-.61-3.61-4.77-4.93-5-.27,1.41,1.58,5.11,2.38,6,.09,2.91-2.29-4.5-4.67-6.44,1.59,4.24,4.93,11.64-5.29-6.52-7.49-9.7-2.29.1-4.05-2.11-2,1.06-2,1.27a53.35,53.35,0,0,1-.32-8.27c1.47-.08,3-.19,4.44-.35a74.43,74.43,0,0,0,7.59-1.2h0A55.86,55.86,0,0,1,126.7,126c-.66.82,1.11,2.27,2.17,3.24S132.22,131.51,132.31,132.75Z" style="fill:#414142"/><path d="M141.88,139.44c-3.39.42-3.92.48-5.84-.94-2.23-1.64-1.88.48-.74,2.71s-4.67-2.12-7.37-4,1.06,3.65,0,3.53-1.65.82.82,4.29c1.64,2.3,4,5.73,5.39,7.76-1.32.76-1.56,2.71-2.27,2.71-.52,0-.55.65-1.05,1.27-5-5.22-13.43-17.58-14.65-19.44-1.53-2.35-2.47,0-2.47,0s-.17,1.76-3,0c-1.06-.66-1.66-2.7-2-5h0c0-.21.26-3.4,2-1.27s1.85-1.06,4.05,2.11,10.85,17.11,7.49,9.7-7.31-13.58-4.93-11.64,2.38,3.35,4.67,6.44,1.77.79-.09-2.91-2.91-5.37-1.58-5.11,3.7,4.67,4.93,5,.36-1.33,3.27.61,4,.09.7-1.85-6.43-4.5-5.64-4.58.27-.53,3.17,1.49,5.65,3.62,5.56,2.39-2.38-2.56-3.44-3.53S126,126.8,126.7,126c5.5,3.47,9.88,7.32,12.22,8.88C141.91,136.85,142.56,137.59,141.88,139.44Z" style="fill:#eccfc9"/><path d="M130.82,156.77a3,3,0,0,1-2.13,1c-2.82.35-15-20.46-15-20.46s.94-2.35,2.47,0C117.39,139.19,125.77,151.55,130.82,156.77Z" style="fill:#f4dbd7"/><path d="M141.88,139.44l-.14.36a16.66,16.66,0,0,0-1.41,4.76c-.35,2.12.71,1.59-1.23,4.59s-1.41,3.35-3.8,3.35a2.32,2.32,0,0,0-1.16.29c-1.4-2-3.75-5.46-5.39-7.76-2.47-3.47-1.88-4.41-.82-4.29s-2.71-5.41,0-3.53,8.51,6.23,7.37,4-1.49-4.35.74-2.71C138,139.92,138.49,139.86,141.88,139.44Z" style="fill:#f4dbd7"/><path d="M184.61,40.92c-3,1.76-.13,1.75-1.19,2.93s-.47,2,.42,2.3a26.34,26.34,0,0,0-5.71,1c-5.88,1.53-4.94,2-1.29,1.76s8.7-1.64,5.06.06-10.27,4.58-30,1.55a21.11,21.11,0,0,0,5.66-1.72c2-1.18-1.06-.35,2.23-1.76s11.05-4.24,2.47-2.71-11.87,4-12.11,3-1.41-.36,3.76-4.12,7.29-7.3,2-3.3-9.17,4.94-9.64,3.88.07-1.64,3.21-4.46,4.15-5.77,0-2.59-6.32,3.52-6.32,3.52-1-.93,2.06-5.64,2.81-7.17-2.06-1.41-5.47,6.47-5.7,5.41.81-2,3.17-8.76,2-8.54-.83-3.89S135.34,37.06,132.4,37s-1.29-.54-2.12-6.88-1.53-9.83-2.94-1.63-1.52,12-2.47,10.32-2.23-2.82-2.23-5.64-1.53-5.76-1.76-.35-.36,6.7-1.06,5.52-2.82-8.82-3.18-6,.67,6.1-.84,6.29c-1.26-4.11-3.8-14.32-.21-20.86,4.58-8.35,4.11-6.94,4.58-3.65s1.53-.82,4.7-6.23,5.76-6.82,6.59-6.7-5.76,6.58-5.29,12.35,3-8.47,8.11-11.64,2.58-1.41,3.88-1.3-3.77,7.65-4.58,13.52,1.12.71,3.33-4.58,2.77-7.64,4.43-7.53,4.22-3.17,1.82,2.12-4.77,7.88-1.24,4.35,4-5.06,4.82-4.35,3.53-2.7-.59,4-7.4,13.52-4.11,10.46,8-12.7,8-11.29,3.88,1.41,3.41,2.36,2.31-.71,0,1.41-4.27,4.94-2.39,3.64,3.88-5,5.88-3.64-.47,2.23-4.23,6.35S141.69,31.63,148,27.52,161,13.76,161.91,14.82s2.23.7,2.11,2.35,4.94,0,3.3,2.35,2.47-1.29-6.35,5.65-15.52,12-6.82,7.28,19.28-12.93,18.69-10.81-3.05,3.17-2.58,4.11,8-3.17,5.75-1.29,1.77,1.65,1.3,3.06.71-.48-4.47,2.35S166,34.1,171.55,33s9.52-2.23,8.34-1.06,5.18,0,1.54,2.24-2.83,2.47-.48,2.47,4.94.82,2.94,1.64-2.58.35-10.1,2.82-8.12,3.42-1.3,2.12S187.56,39.16,184.61,40.92Z" style="fill:#2b2b2b"/><path d="M184.13,46.21a1.36,1.36,0,0,1-.29-.06C184.63,46.13,184.63,46.27,184.13,46.21Z" style="fill:#fc6a09"/><path d="M159.79,47c-3.29,1.41-.23.58-2.23,1.76a21.11,21.11,0,0,1-5.66,1.72h0l-1.52-.24c-3.59-1.85-7-3.89-10.68-5.83a43,43,0,0,0-4.38-2.06c-5.14-2-10.46-2.72-18.89-2,0,0-.26-.67-.61-1.81,1.51-.19.49-3.46.84-6.29s2.47,4.83,3.18,6,.82-.11,1.06-5.52,1.76-2.47,1.76.35,1.29,4,2.23,5.64,1.06-2.11,2.47-10.32,2.12-4.72,2.94,1.63-.82,6.81,2.12,6.88,4.58-6.42,7.4-11.07,3.18-2.87.83,3.89-3.41,7.7-3.17,8.76.81.35,5.7-5.41,5.11-3.29,2.06,1.41-2.06,5.64-2.06,5.64,2.17-.35,6.32-3.52,3.14-.24,0,2.59-3.68,3.4-3.21,4.46,4.35.12,9.64-3.88,3.17-.47-2,3.3-4,3.05-3.76,4.12,3.53-1.42,12.11-3S163.08,45.62,159.79,47Z" style="fill:#eccfc9"/><path d="M29.47,74.15a2.34,2.34,0,1,1,2.34,2.33A2.34,2.34,0,0,1,29.47,74.15Z" style="fill:#eae3dd"/></g></g></svg>