<svg xmlns="http://www.w3.org/2000/svg" viewBox="0 0 832.17 215.88"><title>spotted-gar</title><g id="Layer_2" data-name="Layer 2"><g id="Ñëîé_2" data-name="Ñëîé 2"><path d="M133.06,108.35S17.59,98,1.33,100.67A3.71,3.71,0,0,1,.08,97.13c2.09-9.34,56.56-6.74,83-4.14,6.89.67,16.7.44,28.06-.5h0c.38.13,13.19,4,14.72,9.58C126.89,105.71,129.68,107.14,133.06,108.35Z" style="fill:#a3a290"/><path d="M144.33,116.84c-33.08-5-66.54-9.16-82-8.28-23.69,1.33-54.34-1.19-61-7.89,16.26-2.63,131.73,7.68,131.73,7.68,1.91.7,4,1.33,6.07,2.28C143.22,112.49,144.51,113.63,144.33,116.84Z" style="fill:#848370"/><path d="M213.72,128c3.1.5,6.7,1.06,10.76,1.65a40,40,0,0,1,.65-5.07A42.07,42.07,0,0,1,213.72,128Z" style="fill:#d1ae85"/><path d="M829.63,107s-4.14,10.37-4.14,12.45-5.71,5.7-5.71,9.85-8.83,5.71-8.3,8.83-9.86,3.62-13.49,9.34-24.9,3.62-68.48-13l-.28-.11c1-1.86,3.47-2.73,8.06-1.58,12.45,3.12,46.69,15.18,46.3,11.8s-59.53-24.25-55.25-26.25,64.2,24.57,68.87,23.4,5.45-6.22-12.84-10.52-37.35-13.6-9.79-8.54,36.25,5.45,36.25,3.19-82.49-18.37-80.54-20.41,80.15,10.21,83.65,6.67-1.17-6.57-28.79-10.34-54.86-6-34.24-6,70.42,4.67,73.54,1.79-10.9-6.46-46.69-8.36-54.76-1-35-3.55S806.16,78.33,812,74.28s-1.17-6.45-38.52,0-49,6.39-23.74,0,49-18.52,44.75-21.63S747,72.11,731.06,75.83s-1.55-3.34,20.63-13.45c14.41-6.57,12.23-11.18,8.93-13.6,20-6.21,33.62-3,38.93-3,6.73,0,6.22,3.11,9.33,5.2s3.63,9.34,8.3,9.85,6.75,15.57,12.45,22.3S829.63,107,829.63,107Z" style="fill:#a6693c"/><path d="M785.15,101.8c27.62,3.77,32.29,6.79,28.79,10.34s-81.71-8.72-83.65-6.67,80.54,18.17,80.54,20.41-8.69,1.87-36.25-3.19-8.5,4.23,9.79,8.54,17.51,9.36,12.84,10.52-64.59-25.41-68.87-23.4,54.86,22.87,55.25,26.25-33.85-8.68-46.3-11.8c-4.59-1.15-7-.28-8.06,1.58-6.32-2.4-12.28-4.39-17.92-6a41.16,41.16,0,0,0,7.6-10.18,45,45,0,0,0,4.89-15.84c1.66-13.62-3.51-22.61-8.69-28A33,33,0,0,0,712,71.36c9.73-4,20-9.42,31-15.21a104.87,104.87,0,0,1,17.6-7.37h0c3.3,2.42,5.48,7-8.93,13.6-22.18,10.11-36.58,17.17-20.63,13.45s59.15-26.29,63.43-23.18S775,67.9,749.74,74.28s-13.62,6.46,23.74,0,44.35-4,38.52,0-49.53,8.84-69.26,11.44-.78,1.65,35,3.55,49.8,5.5,46.69,8.36-52.92-1.79-73.54-1.79S757.52,98.05,785.15,101.8Z" style="fill:#d1ae85"/><path d="M718.91,118.17a41.16,41.16,0,0,1-7.6,10.18c-33-9.62-54.5-6.95-66.89-1.65-8.61,3.69-17,6.65-47.73,9.75-21.11,2.13-52.75,4.32-102.19,6.86-19.49,1-39,1.45-58.2,1.45q-10.17,0-20.21-.16a1589.4,1589.4,0,0,1-177.26-13c-2.68-3.48-4.76-6.21-4.76-6.21a11.55,11.55,0,0,0-4.63-3.42,14.2,14.2,0,0,0,6.18-9.85,24,24,0,0,0,0-5c29.09-6.63,76.75,8.18,107.88,18.76s202.33,3.42,253.16-4.14S718.91,118.17,718.91,118.17Z" style="fill:#c4c2b1"/><path d="M715.11,74.28c-7.64,11.91-23,16.11-43.19,10.4S621.08,72.76,600.84,79s-129.69,14.53-171.2,7.79-91.82-6.23-112.06-3.12-53.43-5.19-75.31-7.5a55.57,55.57,0,0,1-18.48-5c56.27-9.73,266-12.91,266-12.91,54.24-.22,90.34,1.64,115.65,4.45l.13,0a1.29,1.29,0,0,0,.23,0l.17,0,.68.06c28,3.19,42.56,7.55,54,11.48,2.1.72,4.09,1.42,6,2.11,14,4.88,28.82,1.8,45.23-5A33,33,0,0,1,715.11,74.28Z" style="fill:#848370"/><path d="M723.8,102.33a45,45,0,0,1-4.89,15.84s-71.39-4-122.22,3.57-222,14.74-253.16,4.14-78.79-25.39-107.88-18.76C234.58,94.38,225.4,79,220.84,79c-5,0-2.37,7.82-2.2,8.35a67.57,67.57,0,0,0-14-11.18q5.16-1.43,9.68-2.88a72.52,72.52,0,0,1,9.43-2.14h0a55.57,55.57,0,0,0,18.48,5c21.88,2.31,55.08,10.62,75.31,7.5S388.15,80,429.64,86.77s151-1.56,171.2-7.79,50.85,0,71.08,5.7,35.55,1.51,43.19-10.4C720.29,79.72,725.46,88.71,723.8,102.33Z" style="fill:#a3a290"/><path d="M235.62,112.14a14.2,14.2,0,0,1-6.18,9.85,4.64,4.64,0,0,0-3.16,0c-.46.19-.84,1.08-1.15,2.53A42.07,42.07,0,0,1,213.72,128l-1.44-.23-11.61-1.92c17.43,0,26.13-5.87,26.13-21.43,0-6.4-3.74-12.31-8.14-17a0,0,0,0,0,0,0c-.17-.53-2.83-8.35,2.2-8.35,4.56,0,13.74,15.4,14.81,28.14A24,24,0,0,1,235.62,112.14Z" style="fill:#848370"/><path d="M218.66,87.36a0,0,0,0,0,0,0,67.57,67.57,0,0,0-14-11.18c-26.55,7.36-64.93,14-93.49,16.34.38.13,13.19,4,14.72,9.58,1,3.64,3.78,5.07,7.16,6.28,1.91.7,4,1.33,6.07,2.28,4.09,1.86,5.38,3,5.2,6.21,20.35,3,40.57,6.38,56.34,9,17.43,0,26.13-5.87,26.13-21.43C226.8,98,223.06,92.09,218.66,87.36Zm-64.42,20.73a7.1,7.1,0,1,1,7.1-7.1A7.11,7.11,0,0,1,154.24,108.09Z" style="fill:#93917f"/><path d="M663.1,67.56c5.45-2.85,23.09-14.78,29.32-22.61a14.27,14.27,0,0,1,11-5.58c-5.24,9.83-9.66,14.15-14.38,17.3-6.22,4.15-7.78,8.31-14,10.89s-14.34,6.72-14.34,6.72c-11.45-3.93-26-8.29-54-11.48,4.81.28,22.95,0,34.1-20.14A159.75,159.75,0,0,1,663.3,12c-2.52,7.12-8.53,15.12-12.39,20.31-6,8-16.08,25.93-12.71,24.64S648.84,41.37,658,28.14,675.3,6.86,676,10s-9.28,15.82-22,32.94-10.11,18.68-7.81,18.17,7.3-9.61,20.78-29.33S689.31,4.53,692.16,8.17,680,24.51,676.08,30.74,656.36,54.08,658,54.08s13.29-7,21.55-20.23S700.2,10.24,699.42,16s-24.9,29-32.68,34.76-19.21,17.12-14.27,16.85,34.75-29.31,43.25-38.91,11.73-9.59,8.37-2.85-41.24,37.36-44.88,40S657.65,70.42,663.1,67.56Z" style="fill:#d1ae85"/><path d="M708.76,28.14c-1.88,4.4-3.64,8.09-5.34,11.23a14.27,14.27,0,0,0-11,5.58c-6.23,7.83-23.87,19.76-29.32,22.61s-7.52.78-3.89-1.8,41.51-33.22,44.88-40,.13-6.74-8.37,2.85S657.4,67.31,652.47,67.56,659,56.42,666.74,50.71,698.65,21.65,699.42,16s-11.67,4.7-19.92,17.9-20,20.23-21.55,20.23S672.19,37,676.08,30.74,695,11.8,692.16,8.17,680.48,12.06,667,31.76s-18.49,28.8-20.78,29.33S641.31,60,654,42.92,676.73,13.09,676,10s-9,4.93-18.07,18.16-16.38,27.5-19.75,28.79S645,40.32,650.91,32.29C654.77,27.1,660.78,19.1,663.3,12c7.61-8,14.05-12.65,15.89-10.81,3.63,3.62,14-3.4,14.52-.41S716.54,10,708.76,28.14Z" style="fill:#a6693c"/><path d="M690.33,172.88c-2.07,1.82-38.17-18.16-52.8-28.28s-16.7-3.11-5.56,3,51.89,29.63,51.36,32.65-23.16-10-37.12-18.77-26.16-21-31.36-20.49S629.64,156,640,163.54s39.42,22.57,37.09,24.39-29.05-8.78-50.84-28.39c-9.85-8.87-14.92-12.29-18.1-12.62-6.81-6.16-11.48-10.47-11.48-10.47,30.7-3.1,39.12-6.06,47.73-9.75a20.07,20.07,0,0,1,9.09-.56s-2.33,2.38,7.25,8.35,28,12.74,28,15.84-24.64-10.65-34-14.29-14.5-6-1.54,2.43,36.56,18.89,35.52,21.07S639.5,131.12,639,136,665.7,155,678.15,161.47,692.42,171.06,690.33,172.88Z" style="fill:#d1ae85"/><path d="M693.71,164.83c2.07,1.79,1,8.56-6.22,19.46s-15.57,11.42-29.54,3.64c-9.59-5.34-34.87-27.58-49.78-41,3.18.33,8.25,3.75,18.1,12.62,21.79,19.61,48.5,30.2,50.84,28.39S650.4,171.06,640,163.54s-30.35-22-25.17-22.56,17.38,11.67,31.36,20.49,36.61,21.79,37.12,18.77-40.2-26.55-51.36-32.65-9.07-13.1,5.56-3,50.73,30.1,52.8,28.28.27-4.93-12.18-11.41S638.46,141,639,136s48.78,25.68,49.81,23.5-22.57-12.6-35.52-21.07-7.8-6.05,1.54-2.43,34,17.39,34,14.29-18.41-9.87-28-15.84-7.25-8.35-7.25-8.35c13.56,1.82,30.23,12.91,34,14.57,4.67,2.09,3.62,10.9,7.17,14S691.64,163,693.71,164.83Z" style="fill:#a6693c"/><path d="M446.37,171.84c9.73,9.6,25.56,20.23,22.71,24.39s-29.84-27.5-34-30.35-4.14-1,4.67,10.89,23.61,27.5,21.79,29.84-19.71-22.9-22.82-26.37-4.93-1.4-2.09,3.8,19.72,25.68,17.65,27.24-13.38-9.53-23.61-31c-4.4-9.27-7-15-9.1-18.13-3.36-10-5.49-17.51-5.49-17.51q10,.15,20.21.16a52.68,52.68,0,0,1,8.08,3.61,2.47,2.47,0,0,0,.58,2c2.33,3.61,25.15,19.95,25.15,21.51s-24.64-14.52-27.75-17.12-8.05-.52,9.07,10.64,20,16.08,20,17.9-25.16-16.87-29.57-20S436.63,162.25,446.37,171.84Z" style="fill:#d1ae85"/><path d="M475.31,187.4c2.07,2.6-.53,5.2-3.65,11.94s-11.92,23.35-25.41,13.49c-8.67-6.33-18.65-32.68-24.67-50.72,2.1,3.13,4.7,8.86,9.1,18.13,10.23,21.51,21.53,32.59,23.61,31S439.51,189.22,436.64,184s-1-7.27,2.09-3.8,21,28.7,22.82,26.37-13-17.9-21.79-29.84S431,163,435.09,165.88s31.13,34.5,34,30.35-13-14.79-22.71-24.39-8.95-11.67-4.53-8.56,29.57,21.79,29.57,20-2.86-6.75-20-17.9-12.19-13.23-9.07-10.64,27.75,18.67,27.75,17.12-22.82-17.9-25.15-21.51a2.47,2.47,0,0,1-.58-2c11.81,6.3,24.37,16.62,27.28,18.29,3.65,2.07,2.09,6.73,4.39,9.85S473.22,184.82,475.31,187.4Z" style="fill:#a6693c"/><path d="M258.7,174.7c-2.59,11.67-7,17.64-9.6,15.82s-7.52,2.33-9.59,0c-1.24-1.41-2.11-1.31-3.93-2.5a8.31,8.31,0,0,0,.18-5c-1.34-5.87-2.22-7-5.34-23.18s-1.55-23.51,0-18.33,3.9,27.76,7,36.57,8.82,10.12,6.71,6.23-10.07-32.68-8.38-31.64,4.53,9.34,8.38,17.63,3.67,17.65,5.74,9.17-13.23-33.29-15.56-37.7-.25-6.22,8,5.89,12,15.9,12.54,14.35-8-13.75-12.54-21.28c-4.34-7.24-2.34-7.44-2.2-7.44h0c3.94,5.15,8.54,11.21,9.54,12.64,1.81,2.58,3.11,6,7.25,10.58S261.3,163,258.7,174.7Z" style="fill:#a6693c"/><path d="M254.81,162c-.51,1.55-4.32-2.26-12.54-14.35s-10.29-10.29-8-5.89S252,171,249.88,179.45s-1.91-.86-5.74-9.17-6.66-16.59-8.38-17.63,6.24,27.75,8.38,31.64-3.6,2.6-6.71-6.23-5.45-31.37-7-36.57-3.11,2.16,0,18.33,4,17.31,5.34,23.18a8.31,8.31,0,0,1-.18,5,29,29,0,0,1-5.4-5c-4.84-5.43-6.85-38.24-5.7-53.37a40,40,0,0,1,.65-5.07c.31-1.45.69-2.34,1.15-2.53a4.64,4.64,0,0,1,3.16,0,11.55,11.55,0,0,1,4.63,3.42s2.08,2.73,4.76,6.21c.39.53.82,1.08,1.24,1.65-.14,0-2.14.2,2.2,7.44C246.77,148.24,255.33,160.43,254.81,162Z" style="fill:#d1ae85"/><path d="M157.59,101a3.36,3.36,0,1,1-3.35-3.36A3.36,3.36,0,0,1,157.59,101Z" style="fill:#414142"/><path d="M154.24,93.9a7.1,7.1,0,1,0,7.1,7.09A7.1,7.1,0,0,0,154.24,93.9Zm0,10.45a3.36,3.36,0,1,1,3.35-3.36A3.35,3.35,0,0,1,154.24,104.35Z" style="fill:#e8e1db"/><path d="M155.06,98.93a2.53,2.53,0,1,1,2.53,2.52A2.53,2.53,0,0,1,155.06,98.93Z" style="fill:#e8e1db"/><path d="M196.05,116.84s-13.23-2.87-15.31-7,21.91-11.26,23.93-20.54,8.76,8.79,4.61,19.07S204,119.19,196.05,116.84Z" style="fill:#c4c2b1"/><path d="M771.93,105.27c0,4-6.27,7.19-14,7.19s-14-3.22-14-7.19,6.28-7.2,14-7.2S771.93,101.29,771.93,105.27Z" style="fill:#2b2b2b"/><path d="M776.21,89.9c0,1.93-3.27,3.5-7.3,3.5s-7.29-1.57-7.29-3.5,3.26-3.51,7.29-3.51S776.21,88,776.21,89.9Z" style="fill:#2b2b2b"/><ellipse cx="753.25" cy="82.6" rx="7.2" ry="3.79" style="fill:#2b2b2b"/><path d="M781.8,65.9c1,2.9-1.77,6.46-6.14,7.94s-8.72.34-9.71-2.56,1.77-6.45,6.14-7.94S780.81,63,781.8,65.9Z" style="fill:#2b2b2b"/><path d="M801.41,79.32c.17,2.47-4,4.78-9.39,5.16s-9.84-1.3-10-3.77,4-4.77,9.38-5.16S801.23,76.86,801.41,79.32Z" style="fill:#2b2b2b"/><path d="M815.51,89.9c0,1.93-2.88,3.5-6.42,3.5s-6.42-1.57-6.42-3.5,2.87-3.51,6.42-3.51S815.51,88,815.51,89.9Z" style="fill:#2b2b2b"/><path d="M803.64,98.07c0,2.58-4.18,4.67-9.34,4.67S785,100.65,785,98.07s4.18-4.67,9.34-4.67S803.64,95.49,803.64,98.07Z" style="fill:#2b2b2b"/><path d="M802.67,114.39c0,2.8-4.36,5.08-9.73,5.08s-9.73-2.28-9.73-5.08,4.36-5.08,9.73-5.08S802.67,111.58,802.67,114.39Z" style="fill:#2b2b2b"/><path d="M784.8,128.71c-.66,3.42-5.26,5.42-10.27,4.46s-8.54-4.53-7.88-8,5.26-5.43,10.27-4.46S785.46,125.28,784.8,128.71Z" style="fill:#2b2b2b"/><path d="M754.34,128.75c-.88,3.71-6.09,5.66-11.63,4.34s-9.32-5.38-8.44-9.09,6.09-5.66,11.63-4.35S755.22,125,754.34,128.75Z" style="fill:#2b2b2b"/><path d="M735.23,114.05c-.78,2.12-3.58,3-6.25,2s-4.2-3.5-3.42-5.62,3.58-3,6.25-2S736,111.94,735.23,114.05Z" style="fill:#2b2b2b"/><path d="M742.36,91.75c0,2.52-3.44,4.57-7.69,4.57s-7.68-2-7.68-4.57,3.44-4.58,7.68-4.58S742.36,89.22,742.36,91.75Z" style="fill:#2b2b2b"/><path d="M750,65.17c.52,1.64-2.09,3.94-5.82,5.13s-7.19.82-7.71-.82,2.08-3.93,5.82-5.12S749.48,63.54,750,65.17Z" style="fill:#2b2b2b"/><path d="M808.84,53.18c.73,2.87-2.19,6.08-6.51,7.18s-8.41-.34-9.14-3.2,2.19-6.08,6.51-7.18S808.11,50.32,808.84,53.18Z" style="fill:#2b2b2b"/><path d="M816.87,72.05c0,1.9-2.4,3.45-5.35,3.45s-5.35-1.55-5.35-3.45,2.39-3.46,5.35-3.46S816.87,70.14,816.87,72.05Z" style="fill:#2b2b2b"/><path d="M826.79,97c0,2-2,3.6-4.47,3.6S817.84,99,817.84,97s2-3.6,4.48-3.6S826.79,95,826.79,97Z" style="fill:#2b2b2b"/><path d="M826.79,110.71c0,2.37-3.42,4.28-7.63,4.28s-7.64-1.91-7.64-4.28,3.42-4.28,7.64-4.28S826.79,108.35,826.79,110.71Z" style="fill:#2b2b2b"/><path d="M811,132.81c-.85,2.44-5.18,3.14-9.67,1.57s-7.44-4.81-6.59-7.25,5.18-3.13,9.67-1.56S811.89,130.38,811,132.81Z" style="fill:#2b2b2b"/><path d="M798.06,143.31c-.42,1.84-3.06,2.79-5.89,2.14s-4.77-2.67-4.35-4.5,3.06-2.79,5.89-2.13S798.48,141.48,798.06,143.31Z" style="fill:#2b2b2b"/><path d="M775.41,141.88c-.59,1.9-4.08,2.51-7.8,1.36s-6.26-3.63-5.68-5.52,4.08-2.51,7.8-1.36S776,140,775.41,141.88Z" style="fill:#2b2b2b"/><path d="M819.16,120.44c0,1.18-1.71,2.14-3.82,2.14s-3.82-1-3.82-2.14,1.71-2.14,3.82-2.14S819.16,119.26,819.16,120.44Z" style="fill:#2b2b2b"/><path d="M656.07,38.46c1.79,1.42,1,5.37-1.76,8.84s-6.43,5.13-8.22,3.72-1-5.38,1.77-8.85S654.29,37,656.07,38.46Z" style="fill:#2b2b2b"/><path d="M679.91,20.55c1.81,1.44,1,5.42-1.71,8.88s-6.46,5.11-8.27,3.67-1-5.41,1.71-8.88S678.1,19.11,679.91,20.55Z" style="fill:#2b2b2b"/><path d="M680,39.42c1.88,2.18.81,6.17-2.39,8.91s-7.29,3.19-9.17,1-.8-6.17,2.39-8.91S678.11,37.24,680,39.42Z" style="fill:#2b2b2b"/><path d="M663,60.19c1.53,2,.41,5.4-2.5,7.69s-6.53,2.57-8.06.62-.42-5.4,2.5-7.69S661.46,58.24,663,60.19Z" style="fill:#2b2b2b"/><path d="M696.08,24.6c1.14,1.8-.63,4.95-3.94,7s-6.92,2.33-8,.53.63-5,3.94-7S695,22.8,696.08,24.6Z" style="fill:#2b2b2b"/><path d="M696.2,38.35c1,1.22.23,3.41-1.64,4.9s-4.16,1.71-5.13.5-.23-3.41,1.64-4.89S695.24,37.14,696.2,38.35Z" style="fill:#2b2b2b"/><path d="M638.27,53.39c1.33.78,1.44,3.08.24,5.15s-3.27,3.1-4.61,2.32-1.44-3.08-.24-5.15S636.93,52.61,638.27,53.39Z" style="fill:#2b2b2b"/><path d="M683.67,52.23c.92,1.35-.48,3.92-3.13,5.73s-5.54,2.18-6.47.83.48-3.92,3.13-5.73S682.74,50.88,683.67,52.23Z" style="fill:#2b2b2b"/><path d="M657.79,145.92c-1.08,2-5.11,1.92-9-.18s-6.19-5.43-5.11-7.43,5.12-1.93,9,.17S658.87,143.91,657.79,145.92Z" style="fill:#2b2b2b"/><path d="M679.62,166.22c-1.09,2-5.14,2-9-.12s-6.16-5.45-5.07-7.49,5.15-2,9,.12S680.72,164.18,679.62,166.22Z" style="fill:#2b2b2b"/><path d="M661.07,169.62c-1.82,2.23-5.94,1.88-9.2-.78s-4.42-6.62-2.6-8.85,5.93-1.88,9.19.78S662.88,167.39,661.07,169.62Z" style="fill:#2b2b2b"/><path d="M637.62,156.56c-1.65,1.86-5.23,1.36-8-1.1s-3.68-6-2-7.83,5.23-1.36,8,1.11S639.27,154.71,637.62,156.56Z" style="fill:#2b2b2b"/><path d="M672.32,141.6c-.92,1.71-4.15,1.76-7.21.11s-4.79-4.37-3.87-6.08,4.16-1.77,7.21-.12S673.24,139.88,672.32,141.6Z" style="fill:#2b2b2b"/><path d="M678.49,182.85c-1.57,1.44-5,.25-7.62-2.64s-3.52-6.39-2-7.83,5-.25,7.63,2.64S680.06,181.42,678.49,182.85Z" style="fill:#2b2b2b"/><path d="M665,185.4c-1,1.16-3.3.82-5.1-.75s-2.42-3.8-1.4-5,3.31-.83,5.11.75S666,184.23,665,185.4Z" style="fill:#2b2b2b"/><path d="M681.62,153.2c-.53,1.46-2.78,2-5,1.15s-3.63-2.67-3.1-4.12,2.78-2,5-1.15S682.15,151.75,681.62,153.2Z" style="fill:#2b2b2b"/><path d="M636.89,138.34c-.53,1.46-2.78,2-5,1.15s-3.63-2.67-3.1-4.12,2.78-2,5-1.15S637.42,136.89,636.89,138.34Z" style="fill:#2b2b2b"/><path d="M649.11,175.5c-1.17,1.15-3.94.23-6.19-2.06s-3.13-5.08-2-6.22,3.94-.23,6.19,2.06S650.27,174.36,649.11,175.5Z" style="fill:#2b2b2b"/><path d="M689.22,177.05c-.47.86-2.08.89-3.61.06s-2.39-2.18-1.93-3,2.07-.89,3.6-.06S689.68,176.2,689.22,177.05Z" style="fill:#2b2b2b"/><path d="M596.3,83.52c-1.58,2.93-7.49,2.82-13.19-.25s-9.05-8-7.47-10.88,7.49-2.81,13.19.26S597.87,80.59,596.3,83.52Z" style="fill:#2b2b2b"/><path d="M582.68,107.91c-1.6,3-7.52,2.9-13.22-.18s-9-8-7.41-11,7.52-2.9,13.22.17S584.29,104.93,582.68,107.91Z" style="fill:#2b2b2b"/><path d="M313.5,91.69c-1.61,3-7.53,2.9-13.23-.17s-9-8-7.41-11,7.52-2.9,13.22.17S315.1,88.72,313.5,91.69Z" style="fill:#2b2b2b"/><path d="M526.35,103.36c-2.66,3.26-8.68,2.75-13.45-1.14s-6.47-9.69-3.8-13,8.68-2.75,13.44,1.14S529,100.1,526.35,103.36Z" style="fill:#2b2b2b"/><path d="M456.54,111.4c-2.66,3.26-8.68,2.75-13.45-1.14s-6.47-9.69-3.81-13,8.69-2.75,13.45,1.14S459.2,108.14,456.54,111.4Z" style="fill:#2b2b2b"/><path d="M409.48,89.64c-2.66,3.26-8.68,2.75-13.45-1.14s-6.47-9.68-3.81-12.94,8.68-2.75,13.45,1.14S412.14,86.38,409.48,89.64Z" style="fill:#2b2b2b"/><path d="M475.46,94.32c-2.41,2.72-7.66,2-11.71-1.61s-5.38-8.73-3-11.45,7.66-2,11.72,1.62S477.88,91.61,475.46,94.32Z" style="fill:#2b2b2b"/><path d="M488.86,74c-2.42,2.72-7.66,2-11.72-1.61s-5.38-8.73-3-11.45,7.66-2,11.71,1.62S491.27,71.31,488.86,74Z" style="fill:#2b2b2b"/><path d="M365.36,92.16c-1.35,2.51-6.07,2.59-10.55.18s-7-6.4-5.65-8.91,6.07-2.59,10.55-.18S366.71,89.65,365.36,92.16Z" style="fill:#2b2b2b"/><path d="M330.47,80c-1.36,2.51-6.08,2.59-10.55.18s-7-6.4-5.66-8.91,6.08-2.59,10.55-.17S331.82,77.52,330.47,80Z" style="fill:#2b2b2b"/><path d="M552.24,113.16c-2.29,2.1-7.29.37-11.15-3.86s-5.14-9.36-2.85-11.45,7.29-.37,11.16,3.86S554.54,111.07,552.24,113.16Z" style="fill:#2b2b2b"/><path d="M633.4,86.78c-1.49,1.7-4.84,1.21-7.46-1.1s-3.54-5.56-2.05-7.26,4.84-1.21,7.47,1.1S634.9,85.08,633.4,86.78Z" style="fill:#2b2b2b"/><path d="M544.26,85.22c-.94,2.56-4.9,3.47-8.86,2S529,82.54,530,80s4.9-3.46,8.85-2S545.2,82.66,544.26,85.22Z" style="fill:#2b2b2b"/><path d="M516.21,67.72c-.78,2.13-4.07,2.88-7.35,1.68s-5.31-3.9-4.54-6,4.08-2.88,7.36-1.68S517,65.6,516.21,67.72Z" style="fill:#2b2b2b"/><path d="M422,69.67c-.78,2.13-4.07,2.88-7.36,1.68s-5.31-3.91-4.53-6,4.07-2.88,7.36-1.68S422.81,67.54,422,69.67Z" style="fill:#2b2b2b"/><path d="M448.36,69.67c-.78,2.13-4.07,2.88-7.36,1.68s-5.31-3.91-4.53-6,4.07-2.88,7.35-1.68S449.14,67.54,448.36,69.67Z" style="fill:#2b2b2b"/><path d="M498.61,92.17c-.78,2.13-4.07,2.88-7.35,1.68s-5.32-3.9-4.54-6,4.07-2.88,7.36-1.68S499.39,90,498.61,92.17Z" style="fill:#2b2b2b"/><path d="M435.72,87.82c-.78,2.13-4.07,2.88-7.36,1.68s-5.31-3.9-4.53-6,4.07-2.88,7.35-1.67S436.5,85.7,435.72,87.82Z" style="fill:#2b2b2b"/><path d="M390.8,107.68c-.78,2.13-4.07,2.88-7.35,1.68s-5.32-3.9-4.54-6,4.07-2.88,7.36-1.68S391.58,105.55,390.8,107.68Z" style="fill:#2b2b2b"/><path d="M281.08,94.07c-.78,2.12-4.08,2.88-7.36,1.67s-5.31-3.9-4.53-6,4.07-2.88,7.35-1.68S281.85,91.94,281.08,94.07Z" style="fill:#2b2b2b"/><path d="M255.79,84.78c-.78,2.13-4.07,2.88-7.35,1.67s-5.32-3.9-4.54-6,4.07-2.88,7.36-1.68S256.57,82.65,255.79,84.78Z" style="fill:#2b2b2b"/><path d="M52.7,97.57c0,2.27-2.79,4.13-6.29,4.16s-6.34-1.77-6.37-4,2.8-4.13,6.3-4.16S52.68,95.3,52.7,97.57Z" style="fill:#2b2b2b"/><path d="M27.55,98.89c0,1.43-1.77,2.61-4,2.63s-4-1.13-4-2.56,1.77-2.61,4-2.63S27.53,97.46,27.55,98.89Z" style="fill:#2b2b2b"/><path d="M72,96.3c0,1.43-1.76,2.6-4,2.62s-4-1.12-4-2.55,1.76-2.61,4-2.63S72,94.87,72,96.3Z" style="fill:#2b2b2b"/><path d="M95.25,105.46c0,1.43-1.77,2.61-4,2.63s-4-1.12-4-2.55,1.77-2.61,4-2.63S95.23,104,95.25,105.46Z" style="fill:#2b2b2b"/><path d="M115.17,96.83c0,1.43-1.76,2.61-4,2.63s-4-1.12-4-2.55,1.76-2.61,4-2.63S115.16,95.4,115.17,96.83Z" style="fill:#2b2b2b"/><path d="M340.64,98.49c-.78,2.13-4.07,2.88-7.36,1.68s-5.31-3.9-4.53-6,4.07-2.88,7.35-1.68S341.42,96.36,340.64,98.49Z" style="fill:#2b2b2b"/><path d="M494.86,116.15c-1.71,1.68-5.76.33-9.05-3s-4.58-7.42-2.87-9.1,5.76-.33,9.05,3S496.57,114.47,494.86,116.15Z" style="fill:#2b2b2b"/><path d="M657.91,95.34c-1.71,1.68-5.76.32-9-3s-4.58-7.43-2.87-9.11,5.76-.32,9,3S659.62,93.66,657.91,95.34Z" style="fill:#2b2b2b"/><path d="M608,94c-.67,1.26-3,1.3-5.27.09s-3.51-3.2-2.83-4.45,3-1.3,5.27-.09S608.67,92.72,608,94Z" style="fill:#2b2b2b"/><path d="M610.75,71.12c-.68,1.26-3,1.3-5.28.09s-3.5-3.2-2.83-4.45,3-1.3,5.28-.09S611.42,69.87,610.75,71.12Z" style="fill:#2b2b2b"/><path d="M676.62,87.75c-.68,1.26-3,1.3-5.28.09s-3.5-3.2-2.82-4.45,3-1.29,5.27-.09S677.29,86.5,676.62,87.75Z" style="fill:#2b2b2b"/><path d="M380.13,72.45c-.68,1.26-3,1.3-5.27.09s-3.51-3.2-2.83-4.45,3-1.3,5.27-.09S380.8,71.2,380.13,72.45Z" style="fill:#2b2b2b"/><path d="M341.1,71.55c-.68,1.25-3,1.29-5.28.09s-3.5-3.2-2.82-4.46,3-1.29,5.27-.08S341.77,70.3,341.1,71.55Z" style="fill:#2b2b2b"/><path d="M277.3,75.6c-.67,1.26-3,1.3-5.27.09s-3.5-3.2-2.83-4.45,3-1.3,5.28-.09S278,74.35,277.3,75.6Z" style="fill:#2b2b2b"/><path d="M246.88,99.81c-.68,1.26-3,1.3-5.28.09s-3.5-3.2-2.82-4.45,3-1.3,5.27-.09S247.55,98.56,246.88,99.81Z" style="fill:#2b2b2b"/><path d="M141.72,95.07c.39,1.37-1.28,3-3.73,3.73s-4.74.14-5.13-1.23,1.28-3,3.73-3.73S141.33,93.7,141.72,95.07Z" style="fill:#2b2b2b"/><path d="M174.92,89.32c.39,1.37-1.28,3-3.72,3.73s-4.74.14-5.13-1.23,1.28-3,3.72-3.74S174.54,88,174.92,89.32Z" style="fill:#2b2b2b"/><path d="M559.62,69.68c-.68,1.25-3,1.29-5.27.08s-3.51-3.2-2.83-4.45,3-1.29,5.27-.09S560.3,68.42,559.62,69.68Z" style="fill:#2b2b2b"/><path d="M448.55,163.45c-1.35,1.18-4.3,0-6.58-2.64s-3-5.72-1.68-6.89,4.3,0,6.58,2.65S449.9,162.28,448.55,163.45Z" style="fill:#2b2b2b"/><path d="M458.93,184.47c-1.38,1.19-4.34,0-6.62-2.61s-3-5.73-1.63-6.92,4.33,0,6.61,2.61S460.3,183.28,458.93,184.47Z" style="fill:#2b2b2b"/><path d="M444.34,181.79c-2,1.13-4.89-.27-6.54-3.14s-1.41-6.1.55-7.23,4.89.27,6.54,3.14S446.3,180.66,444.34,181.79Z" style="fill:#2b2b2b"/><path d="M430.75,165.65c-1.73.9-4.23-.46-5.58-3.05s-1-5.41.69-6.32,4.23.46,5.58,3.05S432.48,164.75,430.75,165.65Z" style="fill:#2b2b2b"/><path d="M472.59,187.5c-1,1.65-3.89,1.72-6.36.16s-3.61-4.16-2.57-5.81,3.89-1.73,6.36-.17S473.63,185.84,472.59,187.5Z" style="fill:#2b2b2b"/><path d="M460.43,164.33c-1.15,1-3.54.14-5.33-1.92s-2.3-4.55-1.14-5.56,3.54-.14,5.33,1.93S461.59,163.33,460.43,164.33Z" style="fill:#2b2b2b"/><path d="M453.45,196.39c-1.55.61-3.73-1.21-4.87-4.07s-.79-5.69.76-6.3,3.73,1.2,4.87,4.07S455,195.77,453.45,196.39Z" style="fill:#2b2b2b"/><path d="M452,209.88c-1.55.61-3.73-1.21-4.87-4.07s-.79-5.69.76-6.3,3.73,1.2,4.87,4.07S453.59,209.26,452,209.88Z" style="fill:#2b2b2b"/><path d="M442.8,194.48c-1.07.57-2.66-.31-3.54-2s-.72-3.47.36-4,2.66.31,3.54,2S443.88,193.91,442.8,194.48Z" style="fill:#2b2b2b"/><path d="M464,175.46c-.8.92-2.6.67-4-.56s-1.92-3-1.13-3.89,2.6-.67,4,.56S464.83,174.54,464,175.46Z" style="fill:#2b2b2b"/><path d="M435.3,152.05c-.8.92-2.6.67-4-.56s-1.93-3-1.13-3.9,2.6-.67,4,.56S436.09,151.13,435.3,152.05Z" style="fill:#2b2b2b"/><path d="M433.9,182.78c-1.18.52-3-.94-4-3.25s-.88-4.6.3-5.12,2.95.94,4,3.25S435.08,182.26,433.9,182.78Z" style="fill:#2b2b2b"/><path d="M463,195.12c-.57.5-1.77.07-2.66-1s-1.15-2.28-.57-2.78,1.77-.07,2.66,1S463.53,194.62,463,195.12Z" style="fill:#2b2b2b"/><path d="M233.84,143.31c-1.52.95-4.24-.69-6.08-3.64s-2.1-6.13-.58-7.07,4.24.69,6.08,3.64S235.36,142.37,233.84,143.31Z" style="fill:#2b2b2b"/><path d="M240.79,165.7c-1.54,1-4.28-.66-6.12-3.62s-2.07-6.13-.53-7.09,4.29.66,6.12,3.62S242.34,164.74,240.79,165.7Z" style="fill:#2b2b2b"/><path d="M230.11,157.35c-1.46.56-3.3-.71-4.12-2.84s-.3-4.31,1.16-4.87,3.3.72,4.12,2.84S231.56,156.79,230.11,157.35Z" style="fill:#2b2b2b"/><ellipse cx="249.85" cy="167.33" rx="3.54" ry="5.28" transform="translate(-40.84 244.32) rotate(-48.65)" style="fill:#2b2b2b"/><path d="M245.44,146c-1.3.81-3.53-.41-5-2.74s-1.56-4.85-.26-5.66,3.53.42,5,2.74S246.74,145.23,245.44,146Z" style="fill:#2b2b2b"/><path d="M233.52,176.61c-1.63.36-3.5-1.78-4.17-4.79s.1-5.74,1.73-6.1,3.5,1.78,4.17,4.78S235.15,176.24,233.52,176.61Z" style="fill:#2b2b2b"/><path d="M250.77,184.37c-1.24.28-2.66-1.35-3.17-3.64s.08-4.37,1.32-4.65,2.66,1.35,3.17,3.64S252,184.09,250.77,184.37Z" style="fill:#2b2b2b"/><path d="M239.23,185.7c-1.15.4-2.58-.72-3.19-2.5s-.17-3.54,1-3.94,2.58.73,3.19,2.51S240.38,185.31,239.23,185.7Z" style="fill:#2b2b2b"/><path d="M247.24,157.6c-.93.78-2.66.25-3.87-1.19s-1.44-3.24-.51-4,2.67-.26,3.88,1.18S248.18,156.81,247.24,157.6Z" style="fill:#2b2b2b"/><path d="M243.1,176.84c-.65.41-1.76-.21-2.48-1.37s-.78-2.43-.13-2.83,1.76.21,2.48,1.37S243.75,176.44,243.1,176.84Z" style="fill:#2b2b2b"/><path d="M689.91,3.11c1.52,1.21,1,4.4-1.16,7.12s-5.15,3.94-6.67,2.73-1-4.4,1.15-7.12S688.38,1.9,689.91,3.11Z" style="fill:#2b2b2b"/><path d="M667.45,16.29c1.34.78,1.44,3.09.24,5.15s-3.27,3.11-4.6,2.33-1.45-3.09-.25-5.15S666.11,15.51,667.45,16.29Z" style="fill:#2b2b2b"/><path d="M692.27,13c.76.61.5,2.2-.58,3.56s-2.58,2-3.34,1.37-.5-2.2.58-3.56S691.5,12.41,692.27,13Z" style="fill:#2b2b2b"/></g></g></svg>