<svg xmlns="http://www.w3.org/2000/svg" viewBox="0 0 685.64 151.4"><title>sterlet</title><g id="Layer_2" data-name="Layer 2"><g id="Ñëîé_2" data-name="Ñëîé 2"><path d="M91.43,67.54c0,3-2.1,5.37-4.72,5.37S82,70.5,82,67.54a5.61,5.61,0,0,1,1.78-4.19,4.34,4.34,0,0,1,2.94-1.18,4.17,4.17,0,0,1,2.39.74A5.5,5.5,0,0,1,91.43,67.54Z" style="fill:#3e494d"/><path d="M614.67,81.57c-12.41,4.65-25.13,5.07-43.91,0s-94.47-10.52-94.47-10.52-77-8.37-128.24-22.18-161-23.19-207.72-5.72c0,0-9.21,2.15-9,3.16s25.17-1.54,36.19-3.07,95.09.52,154.89,12.79c26,5.34,52,11.16,78.19,15.73,22.86,4,46,7.11,69.17,6.84,20.8-.25,41.58.83,62.33,2.33,14,1,28.88,1.18,42.46,5.29C592.71,91.7,593,89,583.81,92.86S545,77.69,488.38,88.69c0,0-78.72,14.37-120.54,7.23S226.66,58.38,192.49,70c-6.22,2.12-12,3.82-17.29,5.19-3.29,9-9,10.78-7.66,6.84a40.24,40.24,0,0,0,1.56-5.38C148.75,81.18,136,80.3,131.33,78c-6.28-3.07-12.12.5-21.12,3.57S87.28,81.34,83.46,79s-15.74-1.79-24.95,0C49.77,80.73,18.88,83.35,3.6,55.17c-2.23.74-3.91,3.72-3.55,9.3C.55,72.31,15.17,85.61,36,93.72l0,0c.33.07,2.38.57,5.41,1.16-1.67-5.78-1.7-9.48-.17-11.26,2.36-2.74,4.34-1.5,4.43,0A79.68,79.68,0,0,0,47.33,96c9.26,1.49,21.58,2.56,26.23-1.07,7.88-6.14,14.17-5.36,23.39.64s27,12.81,35.52,10.82,10.34-2.61,20.46,0,42.93,14.88,56.08,9.19,21.59-3.13,39.46,0,76.21-5.91,116,1.48c37.31,6.94,61.08,7.18,73.72,4.33,0,0,.06,0,.09,0l1.32-.32,1-.26a235.8,235.8,0,0,0,28.7-9.53c.83-.32,1.65-.66,2.47-1,1-.41,2-.81,3-1.19a107.16,107.16,0,0,1,19.5-5.34q2.53-.47,5.41-.92h.05l.89-.14c8.41-1.35,18.6-2.7,29-3.36a173.85,173.85,0,0,1,21.74-.17c1.15.08,2.27.15,3.39.26,9.14.85,17.24,2.81,22.93,6.46,4.11-1.17,9.51-4.46,20.46-11.17C615.3,84.1,627.08,76.94,614.67,81.57Zm-348,23.29c-9.67,6.4-12.59,3.83-24.05,2.56s-69-9-70.82-15.86c-1.45-5.58,1.69-9.51,5.78-11.93a22.58,22.58,0,0,1,7.75-2.78c11.33-1.81,23.12-.64,34.48.38,7.55.68,16.36,3.19,23.93,2.06,5.16-.77,5.16,2.56,7.65,2s8.76,1.54,14.16,8.44S276.35,98.46,266.68,104.86Z" style="fill:#e8e1db"/><path d="M41.69,95.76c-1.93-.63-3.83-1.3-5.67-2,.33.07,2.38.57,5.41,1.16C41.51,95.18,41.59,95.47,41.69,95.76Z" style="fill:#3e494d"/><path d="M438.19,121.35c-3.2.81-6.4,1.56-9.62,2.25-6.11,1.31-12.26,2.41-18.49,3.36-31.41,4.76-64.76,5.4-104.62,7.81-70.14,4.22-173.67-17.9-188.5-23s-26.08-7.41-58.24-12a97.94,97.94,0,0,1-11.06-2.24c-.12-.52-.23-1-.33-1.55,9.26,1.49,21.58,2.56,26.23-1.07,7.88-6.14,14.17-5.36,23.39.64s27,12.81,35.52,10.82,10.34-2.61,20.46,0,42.93,14.88,56.08,9.19,21.59-3.13,39.46,0,76.21-5.91,116,1.48C401.78,124,425.55,124.2,438.19,121.35Z" style="fill:#414142"/><path d="M684.34,44.65a56.38,56.38,0,0,1-2.66,7.06c-9.29-4.16-9.06-1.58-10.39,3.33-1.59,5.9-4.14,2.53-5.09,4.63s-2.86,1.27-3.5,3-2.22,2.1-2.55,4.63-3.81,1.69-3.81,3.79-2.23,1.26-3.19,3.79-1.58,2.53-1.58,3.37S649.66,85,639.48,93.4s-13.68,24.41-14.64,24.41-.31,4.63-2.23,4.63,2.23,5.47,0,5.06-1.26,4.2-2.79,4.2-.38,3.81,0,5.07c.2.69-4.31.62-8.4.41-8.93-8-20-18.3-30.16-28.5a20.63,20.63,0,0,0-3.6-2.87c4.11-1.17,9.51-4.46,20.46-11.17,17.18-10.54,29-17.7,16.55-13.07s-25.13,5.07-43.91,0-94.47-10.52-94.47-10.52-77-8.37-128.24-22.18-161-23.19-207.72-5.72c0,0-9.17-3.36-17.68-1,4.88-1.35,8.83-2.54,10.94-4,6.74-4.6,16.41-10.23,20.46-10.23a20.59,20.59,0,0,0,13.7-5.23c1.68,2.58,4.05,5.08,6.37,3.39a14.24,14.24,0,0,0,5.06-6.35,9,9,0,0,0,7.88-1.89c1.65,1.25,3.31,2.56,4.59,3.33,3.08,1.84,5.7-1.27,7.07-5.35a7.64,7.64,0,0,0,3.87-1.55h0a12.6,12.6,0,0,0,4.72,4.14c4.22,1.89,6.5-1.95,7.94-5.9A5.84,5.84,0,0,0,219,10.8c1.06,2.25,2.59,5.08,5,6.06,4.85,2,7.82-.91,10.11-8.88a17.25,17.25,0,0,0,5.44-1.81c1.36,2.43,2.94,5.61,4.84,7.62,4.62,4.86,12.1,6.21,16.23-9.93a35,35,0,0,0,8.16.69c.69,2.43,1.28,4.76,1.75,6.17,1.85,5.55,7.42,8.82,12.14,8.24,4.17-.51,7.81-6.24,10-12.06a20.24,20.24,0,0,0,6.12,0h0c1.1,2.12,2.14,4.57,2.92,6.31,2.2,4.8,4,7.48,8.75,8.05,4.28.52,10.2-3.65,12.29-10.26a8.54,8.54,0,0,0,2.89.2c.4,2.3.85,5,1.36,7,1.52,5.95,8.61,9.34,12,8.41,2.87-.79,8.05-6.86,9.74-12.5a9,9,0,0,0,2.57.58c.33,2,.62,4.25.85,6.58.83,8.44,9.43,10.17,10.94,10.17s6.46-2.42,8.08-10.51a8.53,8.53,0,0,0,2.48.29c.3,2.07.54,4.13.74,5.23.68,3.64,3.38,8.62,9.95,8.62,4.6,0,7.23-5.35,8.6-10a9.62,9.62,0,0,0,2.13,1.15c0,1.54,0,3.06-.11,4.25-.33,4.8,4.21,9.79,7.92,9.79,3.17,0,6.22-1.55,8.73-6.9a9,9,0,0,0,4.05,1.07c.59,3,1.49,6.11,3.25,7.36,4,2.84,10.36,4.36,14.5-1a31.63,31.63,0,0,0,8.7,3.29c8.6,1.49,17.76,3.36,27.12,5.54a550.09,550.09,0,0,1,66.19,19.74,78.83,78.83,0,0,0,8.85,2.76c23.86,6,40.78-1.64,40.78-1.64C688.57,25,688.57,30.05,684.34,44.65Z" style="fill:#2b2b2b"/><path d="M179.18,19.71a14.24,14.24,0,0,1-5.06,6.35c-2.32,1.69-4.69-.81-6.37-3.39l.69-.64c4.72-4.61,5.84-3.58,9.66-2.57C178.46,19.56,178.83,19.65,179.18,19.71Z" style="fill:#e8e1db"/><path d="M198.72,15.8c-1.37,4.08-4,7.19-7.07,5.35-1.28-.77-2.94-2.08-4.59-3.33a17,17,0,0,0,1.38-1.16c3.61-3.33,3.82-3.33,7.19-1.57A5.64,5.64,0,0,0,198.72,15.8Z" style="fill:#e8e1db"/><path d="M215.27,12.49c-1.44,4-3.72,7.79-7.94,5.9a12.6,12.6,0,0,1-4.72-4.14c.59-.43,1.2-.92,1.79-1.43,2.7-2.3,2.93-2.8,7.65-1A8.76,8.76,0,0,0,215.27,12.49Z" style="fill:#e8e1db"/><path d="M234.14,8c-2.29,8-5.26,10.84-10.11,8.88-2.44-1-4-3.81-5-6.06.48-.42,1-.86,1.59-1.31,2.7-2,2.25-4.6,6.53-2.8A12.85,12.85,0,0,0,234.14,8Z" style="fill:#e8e1db"/><path d="M260.65,3.86C256.52,20,249,18.65,244.42,13.79c-1.9-2-3.48-5.19-4.84-7.62.47-.22,1-.48,1.47-.76C247.56,1.82,246.89-2,253,1.21A28.72,28.72,0,0,0,260.65,3.86Z" style="fill:#e8e1db"/><path d="M292.7,6.9c-2.19,5.82-5.83,11.55-10,12.06-4.72.58-10.29-2.69-12.14-8.24-.47-1.41-1.06-3.74-1.75-6.17a27.66,27.66,0,0,0,5.73-.69c6.75-1.56,4.51-5.1,11,0A15.09,15.09,0,0,0,292.7,6.9Z" style="fill:#e8e1db"/><path d="M322.79,11c-2.09,6.61-8,10.78-12.29,10.26-4.75-.57-6.55-3.25-8.75-8C301,11.47,299.93,9,298.83,6.9a39.12,39.12,0,0,0,6.06-1.39c4.72-1.46,7.65-3.69,12.82,2.2A9.8,9.8,0,0,0,322.79,11Z" style="fill:#e8e1db"/><path d="M348.76,14.1c-1.69,5.64-6.87,11.71-9.74,12.5-3.37.93-10.46-2.46-12-8.41-.51-2-1-4.69-1.36-7,2.87-.23,5.8-1.67,8.67-3.24,5.61-3.07,2.47-4.08,8.31,1.8A18,18,0,0,0,348.76,14.1Z" style="fill:#e8e1db"/><path d="M371.2,20.92c-1.62,8.09-6.68,10.51-8.08,10.51S353,29.7,352.18,21.26c-.23-2.33-.52-4.62-.85-6.58a14.06,14.06,0,0,0,5.95-1.09c4.94-1.8,6.29-3.33,8.54,1.5C367.24,18.13,368.56,20.2,371.2,20.92Z" style="fill:#e8e1db"/><path d="M393,25.06c-1.37,4.65-4,10-8.6,10-6.57,0-9.27-5-9.95-8.62-.2-1.1-.44-3.16-.74-5.23a21.12,21.12,0,0,0,3.83-.46c7.42-1.53,6.52-4.6,10.79,0A29.47,29.47,0,0,0,393,25.06Z" style="fill:#e8e1db"/><path d="M411.64,33.35c-2.51,5.35-5.56,6.9-8.73,6.9-3.71,0-8.25-5-7.92-9.79.09-1.19.13-2.71.11-4.25a11.38,11.38,0,0,0,5.56.68c5.4-.52,3.83-2.06,5.62,0C407.49,28.25,408.5,31.61,411.64,33.35Z" style="fill:#e8e1db"/><path d="M433.44,40.79c-4.14,5.35-10.54,3.83-14.5,1-1.76-1.25-2.66-4.4-3.25-7.36a15.19,15.19,0,0,0,2.29-.09c8.54-1,5.39-2.59,10.56,2.77A20.61,20.61,0,0,0,433.44,40.79Z" style="fill:#e8e1db"/><path d="M681.68,51.71C676,64.36,666,76.93,665.25,78.35c-.85,1.69-2.13,2.24-3,6.18s-5.09,2.81-5.09,5.62-12.31,14.6-20.79,24.71-1.27,22.47-3,21.91-.42,6.73-2.53,7.3,1.26,7.87-1.7,7.3c-1.51-.29-8.51-6-17.78-14.19,4.09.21,8.6.28,8.4-.41-.38-1.26-1.52-5.07,0-5.07s.57-4.63,2.79-4.2-1.9-5.06,0-5.06,1.29-4.63,2.23-4.63,4.47-16,14.64-24.41,12.09-14.34,12.09-15.19.64-.84,1.58-3.37,3.19-1.69,3.19-3.79,3.5-1.27,3.81-3.79,1.92-3,2.55-4.63,2.55-.84,3.5-3,3.5,1.27,5.09-4.63C672.62,50.13,672.39,47.55,681.68,51.71Z" style="fill:#e8e1db"/><path d="M574.58,86.22c-13.58-4.11-28.51-4.29-42.46-5.29-20.75-1.5-41.53-2.58-62.33-2.33-23.17.27-46.31-2.85-69.17-6.84C374.47,67.19,348.47,61.37,322.43,56c-59.8-12.27-143.87-14.32-154.89-12.79s-36,4.1-36.19,3.07,9-3.16,9-3.16-9.17-3.36-17.68-1a.38.38,0,0,0-.1,0c-10.73,3-25.94,6.73-35.94,15.67C72,70.85,63,75,44.12,73.41s-30.58-10-34.4-15.34c-1.78-2.51-4.17-3.57-6.12-2.9C18.88,83.35,49.77,80.73,58.51,79c9.21-1.79,21.12-2.3,24.95,0s17.75,5.62,26.75,2.55S125.05,75,131.33,78c4.71,2.28,17.42,3.16,37.77-1.38.61-3.06.68-6.74-.55-12.23-2-9-14.84-13.81-14.84-13.81s-3.37-1.15-2.86-2.5,7.76-2.48,15.85,0,12.48,11.32,9.6,23.4a29.71,29.71,0,0,1-1.1,3.68c5.31-1.37,11.07-3.07,17.29-5.19C226.66,58.38,326,88.75,367.84,95.92s120.54-7.23,120.54-7.23c56.62-11,86.2,8,95.43,4.17S592.71,91.7,574.58,86.22ZM86.71,72.91c-2.6,0-4.72-2.41-4.72-5.37a5.61,5.61,0,0,1,1.78-4.19,4.34,4.34,0,0,1,2.94-1.18,4.17,4.17,0,0,1,2.39.74,5.5,5.5,0,0,1,2.33,4.63C91.43,70.5,89.33,72.91,86.71,72.91Z" style="fill:#414142"/><path d="M555.21,118.23c-1,.42-1.62,3-3.53,4.64s-1.53,2.53-3.63,5-8.78,8.86-20.87-3.35c-8.67-8.78-19.18-17.92-26.6-21.94,8.41-1.35,18.6-2.7,29-3.36,0,0-4.64,2.12-3.85,2.75s-3-.2-2.69,1-3.51,1.26-3.35,2.11-5.25,4.21-4.45,4.84,15,14.12,19.84,15.17,2.43-4.63,5.13-4.43,1.91-2.73,3.65-3.16,1.43-3.57,3.19-4.2,1.75-4.63,2.54-4.85-2.06-1.66,0-2.19,1.73-7.26,1.73-7.26c1.15.08,2.27.15,3.39.26.44,3.45,1,8.9.13,10C553.59,111.07,556.2,117.81,555.21,118.23Z" style="fill:#d9d1cc"/><path d="M549.61,108.54c-.79.22-.79,4.22-2.54,4.85s-1.43,3.79-3.19,4.2-.94,3.38-3.65,3.16-.33,5.48-5.13,4.43S516.05,110.64,515.26,110s4.61-4,4.45-4.84,3.66-.85,3.35-2.11,3.49-.41,2.69-1,3.85-2.75,3.85-2.75a173.85,173.85,0,0,1,21.74-.17s.34,6.72-1.73,7.26S550.41,108.33,549.61,108.54Z" style="fill:#414142"/><path d="M544.3,72.12a78.83,78.83,0,0,1-8.85-2.76,550.09,550.09,0,0,0-66.19-19.74s17.47-13.44,27.38-22.88c2.55-.1,6.53-3.29,10.15-4.35S540.05,62.63,541,63.9l0,0C543.1,67.84,544.41,70.81,544.3,72.12Z" style="fill:#414142"/><path d="M541,63.9c-.9-1.27-30.6-42.55-34.16-41.51s-7.6,4.25-10.15,4.35a62.82,62.82,0,0,0,4.78-5c7.15-8.64,8.27-9.91,15.11,2.31C521.63,33.18,534.76,52.51,541,63.9Z" style="fill:#e8e1db"/><path d="M265.56,89.78c-5.4-6.9-11.7-9-14.16-8.44s-2.49-2.82-7.65-2c-7.57,1.13-16.38-1.38-23.93-2.06-11.36-1-23.15-2.19-34.48-.38a22.58,22.58,0,0,0-7.75,2.78c-4.09,2.42-7.23,6.35-5.78,11.93,1.8,6.9,59.35,14.57,70.82,15.86s14.38,3.84,24.05-2.56S271,96.68,265.56,89.78Zm-12.14,13.81c-6.3.76-43.39-6.4-55.3-8.2S178.77,90,180.58,86s27-4.61,27-4.61C224,80.16,235.43,86.71,240.82,86s5.63,2.3,9.67,1,12.37,7.93,15.28,11.5S259.7,102.82,253.42,103.59Z" style="fill:#d9d1cc"/><path d="M253.42,103.59c-6.3.76-43.39-6.4-55.3-8.2S178.77,90,180.58,86s27-4.61,27-4.61C224,80.16,235.43,86.71,240.82,86s5.63,2.3,9.67,1,12.37,7.93,15.28,11.5S259.7,102.82,253.42,103.59Z" style="fill:#2b2b2b"/><path d="M45.69,106.35a105,105,0,0,1-4-10.59c-.1-.29-.18-.58-.26-.86-1.67-5.78-1.7-9.48-.17-11.26,2.36-2.74,4.34-1.5,4.43,0A79.68,79.68,0,0,0,47.33,96c.1.51.21,1,.33,1.55,1.56,6.77,4.33,14.68,9.27,20.65C67.49,130.94,51.14,118.94,45.69,106.35Z" style="fill:#d9d1cc"/><path d="M91.43,67.54c0,3-2.1,5.37-4.72,5.37S82,70.5,82,67.54a5.61,5.61,0,0,1,1.78-4.19,6.54,6.54,0,0,0-.32,2c0,2.54,1.38,4.6,3.06,4.6s3.08-2.06,3.08-4.6a6.18,6.18,0,0,0-.49-2.47A5.5,5.5,0,0,1,91.43,67.54Z" style="fill:#e8e1db"/><path d="M89.59,65.38c0,2.54-1.38,4.6-3.08,4.6s-3.06-2.06-3.06-4.6a6.54,6.54,0,0,1,.32-2,4.34,4.34,0,0,1,2.94-1.18,4.17,4.17,0,0,1,2.39.74A6.18,6.18,0,0,1,89.59,65.38Z" style="fill:#2b2b2b"/><path d="M176.3,71.5a29.71,29.71,0,0,1-1.1,3.68c-3.29,9-9,10.78-7.66,6.84a40.24,40.24,0,0,0,1.56-5.38c.61-3.06.68-6.74-.55-12.23-2-9-14.84-13.81-14.84-13.81s-3.37-1.15-2.86-2.5,7.76-2.48,15.85,0S179.18,59.42,176.3,71.5Z" style="fill:#2b2b2b"/><path d="M472.72,131.81c2,5.49,0,17.92-9.45,16.38S410.08,127,410.08,127c6.23-.95,12.38-2,18.49-3.36,0,0,22.74,11.75,30.5,11.94s5.55-4.93,5.05-6.87,1.51-4.67.66-5.62,6.1-4.52,4.48-11.84c.83-.32,1.65-.66,2.47-1,1-.41,2-.81,3-1.19,1,2.62-1.34,8.49-2.69,12S470.69,126.33,472.72,131.81Z" style="fill:#d9d1cc"/><path d="M464.78,123.05c.85,1-1.17,3.67-.66,5.62s2.7,7.07-5.05,6.87-30.5-11.94-30.5-11.94c3.22-.69,6.42-1.44,9.62-2.25,0,0,.06,0,.09,0,.46-.09.89-.22,1.32-.32l1-.26a235.8,235.8,0,0,0,28.7-9.53C470.88,118.53,464,122.12,464.78,123.05Z" style="fill:#414142"/><path d="M87.9,67.54a1.7,1.7,0,1,1,1.69,1.91A1.82,1.82,0,0,1,87.9,67.54Z" style="fill:#e8e1db"/><path d="M146.12,43.07c1.23,2.4,1.19,4.87-.08,5.51s-3.3-.76-4.52-3.16-1.18-4.87.09-5.51S144.9,40.67,146.12,43.07Z" style="fill:#e8e1db"/><path d="M156.29,40.58c1.23,2.4,1.19,4.86-.08,5.51s-3.3-.77-4.52-3.16-1.18-4.87.09-5.52S155.07,38.18,156.29,40.58Z" style="fill:#e8e1db"/><path d="M167.86,38.6c1.5,2.94,1.45,6-.11,6.76s-4-.94-5.54-3.88-1.45-6,.11-6.76S166.36,35.66,167.86,38.6Z" style="fill:#e8e1db"/><path d="M182.34,37.53c1.68,3.3,1.63,6.69-.12,7.59s-4.53-1.06-6.21-4.36-1.63-6.69.12-7.58S180.66,34.24,182.34,37.53Z" style="fill:#e8e1db"/><path d="M196.05,36.86c1.69,3.3,1.63,6.69-.12,7.58s-4.52-1-6.21-4.35-1.62-6.69.12-7.58S194.37,33.57,196.05,36.86Z" style="fill:#e8e1db"/><path d="M210.08,36.5c2.06,4,2,8.18-.14,9.27s-5.54-1.29-7.59-5.32-2-8.18.14-9.27S208,32.48,210.08,36.5Z" style="fill:#e8e1db"/><path d="M225.46,36.31c2.26,4.43,2.19,9-.16,10.19s-6.09-1.42-8.35-5.85-2.19-9,.16-10.2S223.2,31.87,225.46,36.31Z" style="fill:#e8e1db"/><path d="M243.77,37.23c2.62,5.14,2.54,10.43-.18,11.82s-7.06-1.65-9.68-6.79-2.53-10.42.19-11.81S241.15,32.1,243.77,37.23Z" style="fill:#e8e1db"/><path d="M261.89,38c2.62,5.13,2.53,10.42-.19,11.81s-7-1.64-9.67-6.78-2.54-10.42.18-11.81S259.27,32.9,261.89,38Z" style="fill:#e8e1db"/><path d="M280.58,40.08c2.62,5.14,2.54,10.43-.18,11.82s-7.06-1.65-9.68-6.78-2.54-10.43.19-11.82S278,35,280.58,40.08Z" style="fill:#e8e1db"/><path d="M300,41.62c2.85,5.59,2.76,11.35-.21,12.87s-7.68-1.8-10.54-7.39-2.76-11.35.21-12.87S297.13,36,300,41.62Z" style="fill:#e8e1db"/><path d="M320.71,45.45c2.85,5.6,2.76,11.36-.21,12.87s-7.68-1.79-10.53-7.38-2.77-11.36.2-12.87S317.85,39.86,320.71,45.45Z" style="fill:#e8e1db"/><path d="M341,49.49c2.86,5.6,2.77,11.36-.2,12.87s-7.68-1.79-10.54-7.39-2.76-11.35.2-12.86S338.18,43.9,341,49.49Z" style="fill:#e8e1db"/><path d="M360.46,53.84c2.86,5.59,2.77,11.36-.2,12.87s-7.68-1.8-10.54-7.39S347,48,349.92,46.45,357.61,48.25,360.46,53.84Z" style="fill:#e8e1db"/><path d="M381.25,58.57c2.85,5.59,2.76,11.35-.21,12.87s-7.68-1.8-10.54-7.39-2.76-11.35.21-12.87S378.39,53,381.25,58.57Z" style="fill:#e8e1db"/><path d="M403.1,62.66c2.86,5.59,2.77,11.36-.2,12.87s-7.68-1.8-10.54-7.39-2.76-11.35.21-12.87S400.25,57.07,403.1,62.66Z" style="fill:#e8e1db"/><path d="M423.16,65.93c2.64,5.18,2.56,10.51-.19,11.92s-7.11-1.67-9.76-6.84-2.56-10.52.19-11.92S420.52,60.75,423.16,65.93Z" style="fill:#e8e1db"/><path d="M442.33,68.06c2.64,5.18,2.56,10.51-.19,11.91s-7.11-1.66-9.75-6.84-2.56-10.51.19-11.91S439.69,62.88,442.33,68.06Z" style="fill:#e8e1db"/><path d="M460.13,70.31c2.23,4.36,2.15,8.86-.16,10s-6-1.4-8.22-5.77-2.16-8.85.16-10S457.9,65.94,460.13,70.31Z" style="fill:#e8e1db"/><path d="M479.16,71.2c2.23,4.37,2.16,8.86-.16,10s-6-1.4-8.22-5.76-2.15-8.86.16-10S476.94,66.84,479.16,71.2Z" style="fill:#e8e1db"/><path d="M496.43,73.31c1.89,3.71,1.83,7.53-.14,8.53s-5.09-1.19-7-4.89-1.83-7.53.13-8.53S494.54,69.61,496.43,73.31Z" style="fill:#e8e1db"/><path d="M513.45,74.39c1.71,3.34,1.65,6.79-.12,7.69s-4.6-1.07-6.3-4.42-1.65-6.79.12-7.69S511.74,71,513.45,74.39Z" style="fill:#e8e1db"/><path d="M527.93,75.23c1.7,3.35,1.65,6.79-.12,7.7s-4.6-1.08-6.31-4.42-1.65-6.79.13-7.7S526.22,71.89,527.93,75.23Z" style="fill:#e8e1db"/><path d="M542.09,77.2c1.58,3.11,1.53,6.31-.12,7.16s-4.27-1-5.86-4.11-1.54-6.32.11-7.16S540.5,74.08,542.09,77.2Z" style="fill:#e8e1db"/><path d="M555.12,78.44c1.59,3.11,1.54,6.32-.11,7.16s-4.27-1-5.86-4.11-1.54-6.32.11-7.16S553.54,75.33,555.12,78.44Z" style="fill:#e8e1db"/><path d="M568.74,80.34c1.59,3.11,1.53,6.32-.12,7.16s-4.27-1-5.86-4.11-1.54-6.32.11-7.16S567.15,77.23,568.74,80.34Z" style="fill:#e8e1db"/><path d="M582.32,83.84c1.47,2.88,1.42,5.85-.1,6.63s-4-.93-5.43-3.81-1.42-5.85.1-6.62S580.85,81,582.32,83.84Z" style="fill:#e8e1db"/><path d="M211.58,85.12h-.8c-3.25,0-15.48.35-17.89,2.62C190.1,90.38,217.63,98.08,232,97.91s-5.81-4.37-10.8-8.41S214.49,85.07,211.58,85.12Z" style="fill:#595b5b"/><path d="M512,56.58s-17-8.62-24-8.39.9-10,6.51-14.33,7.76-5.56,15.8,5S532.53,67.3,512,56.58Z" style="fill:#595b5b"/><path d="M589.77,76.87c.43.65,27.13,3.12,33-1s36-25.84,44.63-27.71,11.92-3.76,13.32-6.9-15.89-2.5-52.58,15.29S588.35,74.69,589.77,76.87Z" style="fill:#595b5b"/><path d="M591.89,113s11.68,12.74,16.59,15.7,8.65-10.77,13.56-17.46-4.65-7.16-10.62-.85-12.75,2.16-15.56.85S587.47,108.31,591.89,113Z" style="fill:#595b5b"/><path d="M399.56,115.45s27.17,6.45,50.56-2.48S476,98.73,460.55,100.51s-37.86,6.18-61,5.39S380.63,113.25,399.56,115.45Z" style="fill:#f2ece9"/></g></g></svg>