<svg xmlns="http://www.w3.org/2000/svg" viewBox="0 0 623.49 286.06"><title>Asset 5</title><g id="Layer_2" data-name="Layer 2"><g id="Ñëîé_2" data-name="Ñëîé 2"><path d="M612.07,52.79c-.2.78-5,19.24-26.22,35.69-8.67,1.77-18.12,4.32-25.72,7.94-19.38,9.24-29.86,15.31-43.3,9.26q3.61-.44,7.08-1c69.21-10.38,87.2-78.9,93.43-76.13A5.37,5.37,0,0,1,620,31.89c-6.7,12.16-22.48,38.25-41.84,52.93C552.35,104.42,597.3,78.61,612.07,52.79Z" style="fill:#e8e1db"/><path d="M598.46,86.31c-3.43,5-9.08,10.52-17.8,26.72a29.1,29.1,0,0,0-2,4.59,221.53,221.53,0,0,1-30,3.5c-9.82.47-18,.22-21.75-.71a21.57,21.57,0,0,0-11.18.42c-9.89-4.64-25.25-3.82-32.84-3.21-56.29,4.58-165.17,4.91-189.63-6.09-16.76-7.55-33.73-16.41-52.1-18.89a74.3,74.3,0,0,0-9-.66c-20.34-.23-43.4,2.23-61.64,11.72-19,9.92-13.58,16.32,11.67,23.37a12.35,12.35,0,0,0-4.1,2.08c-5.54,5-23.07.95-30-3.66s-16.61,3.7-21.69,0-16.61-2.31-33.22-5.08a21,21,0,0,1-7.72-2.52C113.67,105,144.75,97,179.25,89.5a243.73,243.73,0,0,1,35.36-5.13l.23,0H215l.48,0c39.91-2.56,68,6.55,91.78,11.42,4.49.92,10.84,2,18.65,3.1,4.93.71,10.44,1.44,16.42,2.16,36.93,4.49,91.77,8.83,139,7.28,12.48-.41,24.46-1.23,35.42-2.59h0c13.44,6,23.92,0,43.3-9.26,7.6-3.62,17-6.17,25.72-7.94C590.39,87.55,594.72,86.83,598.46,86.31Z" style="fill:#414142"/><path d="M534.11,134.65c11.76,3.24,36.22,4.63,38.76,8.55s-18.23,1.14-35.07-1.15c-13-1.79,10.44,3.19,28.13,9.51-28.71-5.07-51.43-1.29-55.62-.49l-.41.08a1.87,1.87,0,0,1-.28.06c-46.63,9.54-139,23.59-184.34,20-57.68-4.61-80.28-6-86.28-12.92S222.39,150,207.17,156c-10.79,4.23-24.82,3.15-34.7.69a24,24,0,0,0-1.53-2.56,20.81,20.81,0,0,0-8.88-7.52,24,24,0,0,0-7.55-2c-1-.11-5.2-.54-3.29,1.48a23.29,23.29,0,0,1,2.64,3.4c-7.68-2.39-16.72-3.75-20.52-1.85-5,2.49-31.34-4-40.55-5.32a18.15,18.15,0,0,0-28.18,12.5c-5,9.18-7.86,14.54-7.86,7.12,0-7.84-3.7-13.84,2.77-19.84,5.09-4.72,7.6-6.86,6.63-14.32,6.28-3.6,12.72-6.88,19.32-9.89a21,21,0,0,0,7.72,2.52c16.61,2.77,28.16,1.39,33.22,5.08s14.77-4.61,21.69,0,24.46,8.69,30,3.66a12.35,12.35,0,0,1,4.1-2.08c6.57,1.85,14.5,3.74,23.71,5.74,44.44,9.69,79.48,23.19,127.94,18.75,47.36-4.34,95.12-6.09,142.65-7.24,11-.28,49.84,7.54,48.29-11.58-.47-5.85-4.07-9.57-9.06-11.91a21.57,21.57,0,0,1,11.18-.42c3.7.93,11.93,1.18,21.75.71a89,89,0,0,1-11.73,3.62c-29.81,6.92,21.17.46,29.47,0s13.84,6.23-9.69,6.23S522.34,131.43,534.11,134.65Z" style="fill:#e8e1db"/><path d="M591.69,187.81a84,84,0,0,1-8.5-2.8c-9.69-3.69-30-18-67.82-22.15S446.63,181.32,435.08,185s-14.75-.93-24.44-8.28-44.76,2.29-56.29,3.67-20.31,6.45-26.3,6.51-12-.06-14.77,0-14.3,6.41-22.61,2.25-36,4.16-50.75,8.31-57.67,6.92-67.36,0A19.5,19.5,0,0,0,167.3,195a34.06,34.06,0,0,0,7.45-15.82c1.59-7.55,1.3-15.62-2.28-22.48,9.88,2.46,23.91,3.54,34.7-.69,15.22-6,25.83-4.63,31.83,2.29s28.6,8.31,86.28,12.92c45.34,3.63,137.71-10.42,184.34-20a1.87,1.87,0,0,0,.28-.06l.41-.08c4.19-.8,26.91-4.58,55.62.49a74.37,74.37,0,0,1,12.93,5.71c13.84,8.53,7.39,15.82-5.54,10.56s-27.45-13.1-36.9-12.87,49.14,18,56.06,28.14C594.62,186.26,594,187.63,591.69,187.81Z" style="fill:#414142"/><path d="M599.51,205.08c-36.68-14.66-57.61-36.68-81.14-37.37-4.08-.13-8.19-.07-12.25.12-19.35,1-37.79,5.72-48.65,13.72-4,2.91-15.45,7.95-32.35,13.69C416.94,198,407.48,201,397,203.93a9.16,9.16,0,0,1-.68-2.24c-.46-3.76-8.76-6.06-18.91-3.76s-52.38,7.39-47.19,21.46c-15.86,2.9-32.52,5.4-49.58,7.23-4.45-5.94-10.1-16.92-22.74-13.52-13.74,3.69-47.71,10.17-76.1,3.62a77.54,77.54,0,0,1-11.56-3.57s-6-.91-7.85,4.62c-.38,1.17,0,4.14,1.91,8.25A810.26,810.26,0,0,1,40.87,201.59h0c.2-.5,3.73-9.77-2.12-14.26-2.38-1.82-7.65,2.49-13.57,10.29-15.47-3.17-33.24-8.23,1.81-41,1.12-1.06,2.26-2.08,3.39-3.11,5.2,1.57,11.53,4.06,11.72,7,.35,5.08,4.5,10.87,9.57,11.2s15.23.8,19.38,7.27,21.23,1,25.84,7.89,12.91,6,25.84,5.48c7.39-.26,19.48-.83,30.27,0-8.34,9.64-21.2,13.6-13.89,13.35s19.76-1.2,28.19-10.82a19.5,19.5,0,0,1,5.26,2.52c9.69,6.92,52.6,4.15,67.36,0s42.45-12.46,50.75-8.31,19.84-2.21,22.61-2.25,8.77,0,14.77,0,14.77-5.12,26.3-6.51,46.6-11,56.29-3.67,12.91,12,24.44,8.28,42.46-26.3,80.29-22.15S573.5,181.32,583.19,185a84,84,0,0,0,8.5,2.8c-5.19.43-18.92-5-29.9-9.78-14.41-6.27,23.37,21.89,61,29.83h0C625.35,211.59,621.71,214,599.51,205.08Z" style="fill:#e8e1db"/><path d="M159.18,179.13A24.29,24.29,0,0,1,153,192.42c-10.79-.86-22.88-.29-30.27,0-12.93.47-21.23,1.38-25.84-5.48S75.2,185.47,71.05,179s-14.3-6.92-19.38-7.27-9.22-6.12-9.57-11.2c-.19-3-6.52-5.45-11.72-7a208.5,208.5,0,0,1,35.77-25.76c1,7.46-1.54,9.6-6.63,14.32-6.47,6-2.77,12-2.77,19.84,0,7.42,2.88,2.06,7.86-7.12a17.35,17.35,0,0,0-.18,2.51,18.15,18.15,0,1,0,28.36-15c9.21,1.32,35.56,7.81,40.54,5.32,3.81-1.9,12.85-.54,20.53,1.85C157.17,154.66,160.8,164.06,159.18,179.13Z" style="fill:#414142"/><path d="M40.87,201.58h0c-1,4.2-18.27,14.33-32.11,40.17s11.54,44.3,9.23,44.3-23.53-7.85-16.61-38.3c4.18-18.39,14.76-38.29,23.8-50.15,5.92-7.8,11.19-12.11,13.57-10.29C44.6,191.81,41.07,201.08,40.87,201.58Z" style="fill:#d6cec8"/><path d="M330.23,79.36C351.12,68.05,368.19,51,368.64,54s-26.3,27.23-41.05,34.15,15.23,2.08,28.14-8.54,8.76-.91,5.77,1.38-15,12.24-31.27,14.77c0,0-2.2,1,1.11,2.12q-2.58.5-5.41,1c-7.81-1.12-14.16-2.18-18.65-3.1-23.82-4.87-51.88-14-91.78-11.42,5.56-.45,36-3.8,51.64-23.87C284.44,38.29,321.82,3,362.65.22c9.68-.65,15.42.16,18.56,1.89,0,0-60.54,14.49-89.61,56.49,0,0-15.49,20.29-11.76,26.06s12.45-18.45,33.44-33.46S299.64,69.67,291.6,80.05s15.68-11.31,48-39.92,27.46-19.6-30.91,34.6c0,0-14.11,10.86-12,12.24s29.08-18.46,44.78-31.84,24.68-18.92,27.45-18-38.76,36.68-51,45S309.36,90.65,330.23,79.36Z" style="fill:#d9d1cc"/><path d="M384.45,32.75c-5.19,6.92,1.73,6.92-4.5,15.23s-1.38,6.23-5.53,15.22,2.07,9-4.16,14.54c-5.89,5.23-8.77,14.17-38.92,20.11-3.31-1.07-1.11-2.12-1.11-2.12C346.5,93.2,358.5,83.28,361.5,81s7.14-12-5.77-1.38S312.82,95,327.59,88.12,369.11,57,368.64,54s-17.52,14.08-38.41,25.39-24.57,11.07-12.33,2.77,53.75-44.08,51-45-11.77,4.61-27.45,18S298.74,88.36,296.65,87s12-12.24,12-12.24c58.37-54.2,63.21-63.2,30.91-34.6s-56,50.3-48,39.92,42.68-43.84,21.68-28.85-29.72,39.23-33.44,33.46S291.6,58.6,291.6,58.6c29.07-42,89.61-56.49,89.61-56.49,10.13,5.53-6.79,20.54-6.79,26.41C374.42,36.21,389.63,25.83,384.45,32.75Z" style="fill:#6b7775"/><path d="M304.52,282.36c0,3.7-7.87,0-7.87,0-10-1-19.36-2.23-28-3.68C195.12,266.46,170.8,239.87,164.31,226c-1.93-4.11-2.29-7.08-1.91-8.25,1.86-5.53,7.85-4.62,7.85-4.62a77.54,77.54,0,0,0,11.56,3.57,155,155,0,0,0,22.62,12.54c33.65,15.27,67.35,17.11,83.07,17,.34,2.24,2.05,3.06,3.16,4h0a2.13,2.13,0,0,1,.93,1.65c0,2.31,5,6.92,5,6.92-13.38,2.31-42-6.45-29.51-.91s25.85,4.6,29.51,5.53-.44,6.92,3.42,6.92S304.52,278.68,304.52,282.36Z" style="fill:#d9d1cc"/><path d="M287.45,245.46a5.05,5.05,0,0,0,.05.8c-15.72.11-49.43-1.73-83.07-17a155,155,0,0,1-22.62-12.54c28.39,6.55,62.36.07,76.1-3.62,12.64-3.39,18.29,7.58,22.74,13.52a11.36,11.36,0,0,0,3.1,3.16C289,232.7,287.45,241.31,287.45,245.46Z" style="fill:#6b7775"/><path d="M402.34,236.47c-11.55-6.2-41.07-2.56-52.6-5s-19.51-12.12-19.51-12.12c-5.19-14.07,37-19.15,47.19-21.46s18.45,0,18.91,3.76a9.16,9.16,0,0,0,.68,2.24c1.75,4.28,6.24,10.61,6.24,10.61s-.46,7.39.93,7.39,1.74,4.56,1.82,8.43c0,.4,0,.77,0,1.15C406,235.53,413.87,242.69,402.34,236.47Z" style="fill:#d9d1cc"/><path d="M514.45,212.46q-3.69-.15-7.46-.44c-38.88-3-81.87-16.78-81.87-16.78,16.9-5.74,28.4-10.78,32.35-13.69,10.86-8,29.3-12.71,48.65-13.72a18.39,18.39,0,0,1-.44,3.92,40.52,40.52,0,0,1-1.39,5s.47,8.28,2.77,10.18,2.56,8.33,2.56,8.33c-16.36,1.47-39-6.08-22.39,0s24.46,6.45,24.46,6.45a28.74,28.74,0,0,0,2.76,5.47C515.84,209,514.45,212.46,514.45,212.46Z" style="fill:#d9d1cc"/><path d="M481.4,108.27c-47.28,1.55-102.13-2.79-139.06-7.28,0,0,20.31-5.34,35.54-4.5s80.74,7.26,98.73,2.22,20.31-4,24.22-2.22C504.46,98.13,486.84,97.48,481.4,108.27Z" style="fill:#353535"/><path d="M174.75,179.13A34.06,34.06,0,0,1,167.3,195c-8.43,9.62-21,10.58-28.19,10.82s5.55-3.7,13.89-13.35a24.29,24.29,0,0,0,6.18-13.29c1.62-15.07-2-24.47-5.32-29.64a23.29,23.29,0,0,0-2.64-3.4c-1.91-2,2.32-1.59,3.29-1.48a24.26,24.26,0,0,1,7.55,2,20.88,20.88,0,0,1,8.88,7.52,24,24,0,0,1,1.53,2.56C176.05,163.52,176.34,171.59,174.75,179.13Z" style="fill:#353535"/><path d="M92.79,142.32a18.15,18.15,0,0,0-28.18,12.5,17.35,17.35,0,0,0-.18,2.51,18.15,18.15,0,1,0,28.36-15Zm-13.66,27A10.85,10.85,0,1,1,90,158.48,10.85,10.85,0,0,1,79.13,169.33Z" style="fill:#6b7775"/><path d="M90,158.48a10.85,10.85,0,1,1-10.84-10.84A10.85,10.85,0,0,1,90,158.48Z" style="fill:#2b2b2b"/><path d="M82.82,152.65A7.15,7.15,0,1,1,90,159.8,7.15,7.15,0,0,1,82.82,152.65Z" style="fill:#e8e1db"/><path d="M406,230.36c-6.64-1-24.48-3.44-35.57-3.74-13.84-.37-15.57-.72-25.61-4.87s4.5-2.08,18.69,0,28.78,3.47,35.41,3.29,0-4.51-18-5.69-24.44,1.16-29.07-1.4,15.92-2.78,27.47-2.09,20.52,1.39,19.14-1.62-24.22-3.11-34.84-1.78,1.38-3.52,10.38-4.21,19.38,2.53,19.16,0-9.9-4.15-18.11-3,5.51-5.64,22-1.32c1.75,4.28,6.24,10.61,6.24,10.61s-.46,7.39.93,7.39S405.92,226.49,406,230.36Z" style="fill:#6b7775"/><path d="M304.52,282.36c0,3.7-7.87,0-7.87,0-10-1-19.36-2.23-28-3.68-6-3.21-6.07-5.3,1.43-4.68,12.46,1,42.21,2.42-4.15-4.89-45.65-7.19-65.14-22.36-65.74-22.84,39.8,18.64,115.91,25.65,87.47,21.85-28-3.75-64.19-19.09-65.31-19.56,25.07,5.76,59.53,7,62.72,7.09-77.83-5.5-106.15-32-107-32.85,48.1,28.71,112.62,27.46,112.62,27.46h0a2.13,2.13,0,0,1,.93,1.65c0,2.31,5,6.92,5,6.92-13.38,2.31-42-6.45-29.51-.91s25.85,4.6,29.51,5.53-.44,6.92,3.42,6.92S304.52,278.68,304.52,282.36Z" style="fill:#6b7775"/><path d="M514.45,212.46q-3.69-.15-7.46-.44c-42.39-9.13-77.59-24.63-53.86-17.15,28.38,8.94,54.68,9,44.06,6.82s-41.52-12.58-34.13-12.82,35.75.46,35.75-1.84-2.53-2.31-2.53-2.31c-24.92,2.31-42.45.69-31.62,0s45-7.61,36.66-8.26-31.23,4.8-31.23,4.8c16.5-11.31,35.59-9.51,35.59-9.51a40.52,40.52,0,0,1-1.39,5s.47,8.28,2.77,10.18,2.56,8.33,2.56,8.33c-16.36,1.47-39-6.08-22.39,0s24.46,6.45,24.46,6.45a28.74,28.74,0,0,0,2.76,5.47C515.84,209,514.45,212.46,514.45,212.46Z" style="fill:#6b7775"/><path d="M619.42,54.9c-.7,5.54-9.69,11.07-8.31,16.61s-8.3,7.61-11.6,13.15c-.32.55-.68,1.09-1,1.65-3.74.52-8.07,1.24-12.61,2.17C607,72,611.87,53.57,612.07,52.79c-14.77,25.82-59.72,51.63-33.9,32C597.53,70.14,613.31,44.05,620,31.89,622.29,38.09,620,50.47,619.42,54.9Z" style="fill:#d6cec8"/><path d="M590.1,157.78a158.57,158.57,0,0,0-24.17-6.22c-17.69-6.32-41.16-11.3-28.13-9.51,16.84,2.29,37.6,5.06,35.07,1.15s-27-5.31-38.76-8.55-.93-3.68,22.6-3.68,18-6.7,9.69-6.23-59.28,6.92-29.47,0a89,89,0,0,0,11.73-3.62,221.53,221.53,0,0,0,30-3.5c-2.61,7.76-1.67,15.75.73,22.67C582.11,148.16,586.71,154.63,590.1,157.78Z" style="fill:#d6cec8"/><path d="M555.11,104.9a108.58,108.58,0,0,0,30.74-16.42c4.54-.93,8.87-1.65,12.61-2.17-3.43,5-9.08,10.52-17.8,26.72a29.1,29.1,0,0,0-2,4.59,221.53,221.53,0,0,1-30,3.5c24.51-9.37,43-27.24,32.51-22.29C569.06,104.55,506.66,122,555.11,104.9Z" style="fill:#353535"/><path d="M600.41,189.33a52.25,52.25,0,0,1-8.72-1.52c2.33-.18,2.93-1.55.79-4.71C585.56,173,527,155.2,536.42,155s24,7.61,36.9,12.87,19.38-2,5.54-10.56a74.37,74.37,0,0,0-12.93-5.71,158.57,158.57,0,0,1,24.17,6.22,1.88,1.88,0,0,0,.25.24c6.92,6.23,2.77,11.07,9.16,12.46s1.91,9,0,12.45C598.85,184.15,599.23,186.6,600.41,189.33Z" style="fill:#353535"/><path d="M622.75,207.86c-37.59-7.94-75.37-36.1-61-29.83,11,4.78,24.71,10.21,29.9,9.78a52.25,52.25,0,0,0,8.72,1.52c2.16,5,7,10.95,12.78,12.29A18.76,18.76,0,0,1,622.75,207.86Z" style="fill:#d6cec8"/><path d="M515.73,120.83c-6.8,1.92-12.71,6.21-16.05,8.32-5.08,3.18-14.76,1.88-25.37,0s-31.38,4.19-42.45,0-18.45,2.33-24.92,0-11.53,4.65-21.42,2.33-19.17,0-26.56,2.32-18,5.53-28.73.45-29.87,1.86-35.4,4.36-32.77-3.89-37.38-9.46-24-3.66-32.76-5.5c-7.46-1.58-31.95-.14-42.49,3.42-25.25-7-30.69-13.45-11.67-23.37,18.24-9.49,41.3-12,61.64-11.72a74.3,74.3,0,0,1,9,.66c18.37,2.48,35.34,11.34,52.1,18.89,24.46,11,133.34,10.67,189.63,6.09C490.48,117,505.84,116.19,515.73,120.83Z" style="fill:#515151"/><path d="M476.5,144.32c-47.53,1.15-95.29,2.9-142.65,7.24-48.46,4.44-83.5-9.06-127.94-18.75-9.21-2-17.14-3.89-23.71-5.74,10.54-3.56,35-5,42.49-3.42,8.78,1.84,28.15-.08,32.76,5.5s31.84,12,37.38,9.46,24.68-9.42,35.4-4.36,21.35,1.86,28.73-.45,16.67-4.61,26.56-2.32,15-4.69,21.42-2.33,13.85-4.2,24.92,0,31.84-1.89,42.45,0,20.29,3.18,25.37,0c3.34-2.11,9.25-6.4,16.05-8.32,5,2.34,8.59,6.06,9.06,11.91C526.34,151.86,487.53,144,476.5,144.32Z" style="fill:#f4ede9"/></g></g></svg>