<svg xmlns="http://www.w3.org/2000/svg" viewBox="0 0 241.37 205.77"><title>Asset 4</title><g id="Layer_2" data-name="Layer 2"><g id="Ñëîé_2" data-name="Ñëîé 2"><path d="M97.58,66.77c-1.26-.38-2.47-.76-3.65-1.15q-2.42-.81-4.92-1.46A94.82,94.82,0,0,0,54.25,62c-13.37,1.81-17.74,7-27,10.78a17,17,0,0,1-12.68.11C10.66,74.11,8,74.74,5.71,74.74c-5.21,0-4.13,2.61-2.82,5.44s-.88.76-1.85,0-2,2.06.54,5.1,21,17.6,27,19.67a11.41,11.41,0,0,0,4.08.54c6.08-.16,13.75-3.95,14.71-10.75,1.2-8.48,1.09-11-1.41-18.91s12.16-16.4,30-12.06c11.62,2.84,26.34,6.35,36.9,7C107.7,69.58,102.4,68.23,97.58,66.77Zm-80.9,18a3.26,3.26,0,1,1,3.26-3.26A3.26,3.26,0,0,1,16.68,84.74Zm17.87,15.54c-1.12.16-5.77,1-6.49-.62-.35-.77.58-1.41,1.44-1.84.4-.2.79-.36,1-.46a9.23,9.23,0,0,0,3.86-3.15,15.9,15.9,0,0,0,2.47-11.86c-1.8-12.06,2.39-5.54,4.29,2.93S41.24,99.3,34.55,100.28Z" style="fill:#2647a5"/><path d="M239.07,103.54c2.83,4-.86,5.75-1.74,6.19s-5.21,3.91-1.3,6.73,6.3,3.91,2,5.44-2.17,8.47-1.31,9.56,0,1.74-2.82,3-5.22,5.31-4.35,7.43,2.61,5.39-1.52,5.39-7.38-.43-8,3.69-2,5.65-5.22,5.44-9.56-.65-8.26,2.17-2.36,4.56-4.87,4.56-6-1.09-7.3,3.26.87,3.48-3.26,3.7-7.38.43-8.69,2.82-3.91,3.26-7.17,2.39-3.69-1.95-7.38.33-3.91,4.23-7.61,2.49-6.73-3.91-9.78-1.74c-1.16.84-2.33,1.81-3.47,2.52-1.55,1-3,1.47-4.44.56a4.23,4.23,0,0,1-.78-.67c-2.6-2.84-5.65-5.67-5.86-3.27A1.54,1.54,0,0,1,134.5,177a4.72,4.72,0,0,1-3.77-1.32,5.29,5.29,0,0,1-1.17-1.59c-1.52-3.26-2.17-3.7-4.56-3.7-.57,0-1-1.43-1.15-3.73a74.71,74.71,0,0,1,.07-10.64h0a8.86,8.86,0,0,0,3.25-2.13c3.33-3.45,13.47-25,13.57-33s2.08-10,2.77-3,0,11.52-9.38,28.46-5.66,20.65-3.4,20.86,3.4-7.38,8-19.12,3.91.43-.65,14.34,3.26,12.39,5.47,9.56,5.39-38.46,6.48-37.37.65,5.21-1.74,23.73.65,15.17,5,14,1.75-27.7,1.53-33.78,2.39-1.74,3.91,10.65.22,24.34,6.73,23-.86-22.6-2.39-33.68-7-19.77-4.34-16.73,5,10,8.91,21.73,1.08,24.55,6.74,25.2,4.56-2,2.82-10.44-2.17-12.59,1.09-6.29,6.95,14.35,8.24,10.65-9.55-26.29-8-26.29,5.43,8.25,8.91,17.38,9.08,9.93,6.52-7-18.69-33.9-16.52-33.9,4.14,2.83,4.14,2.83c16.07,22.37,13.9,35.63,20.11,33.89s2-6.3-4-14.77-8-10.86,1.53-4.35,19.33,11.52,21.51,8.26-10.65-11.95-17.39-18,8,6.29,17.17,8.9,6.08-3.91-3-9.34-28.25-13.25-29.12-15,9.34,3.26,27.81,10,15.43-3.91-3.69-7.54-14.56-5.93-2-4.08,22-1.85,2.61-6.85S173.73,92.78,179.1,90s22.17,1.08,43,0,1.3-6.3-10.43-6.52-19.77.65-10.09-2,13.56-2.39,17.47-5.74-5-4-15.42-.85-23.9,5.29-24.12,4.64,16.73-7,26.94-12.75,2.82-14-8.69-8.11-13,4.56-3.32-2.61,4.63-14.34-3.2-3.69-30.2,24.33-20.2,15.71,26.07-29.19,23-31.36-5.22,1.74-9.78,5.43-4.13.22-1.79-3.26-3.86-5.43-13.2,10.36-11.52,8-6.52-1.23,1.74-8.69,0-4.78-1.52-3.7-2.61-11.16-10.21-.36-9.34,12.44S150,58,146.73,43.46s-5.08-11.38-5.08-11.38a90.85,90.85,0,0,1-.91-11.64c0-6.27.93-10.44,2.89-10.44,4.18,0,6.58,2.17,5.7-2.61A16.34,16.34,0,0,1,149,4.56c0-2.42,1.29-2.75,5.11-.43,5,3,9.55,4.56,9.78,2.82S168,5,169.11,7.39s7.39,2.17,8.69,1.09,5.21-.66,5.65,1.95,4.56,3.48,7.17,2.82,6.74-.65,5.87,2.83,0,6.52,4.13,6.09,6.3-1.74,7.17,2.17-.22,5,5.86,6.3,6.52,2.17,5.87,6.08-.44,4.13,3.69,6.08,5.22,2.83,4.57,7-.44,5.43,3.47,6.73,6.74,5.22,5.65,8.7-2.57,4.56.24,7.17,3.45,4.56,1.93,6.73-1.74,5.65-.21,7.39,4.2,6.3,1,8.91S236.25,99.51,239.07,103.54Z" style="fill:#293a8a"/><path d="M143.63,10c-2,0-2.93,4.17-2.89,10.44-3.22,1.79-9,4.62-6.4.64,3.48-5.43,6.09-10.43,3.48-7.83s-4.56,7.83-6.3,8-2.17-3.47,1.09-8.47-.44-1.08-5.87,4.35-6.3,4.12-.44-4.78S123.91,12,119,19.12s-4.65,5.43-3.57,0,.87-3.26-4.13,4.35-7.61,17.16-7.82,12.38,5-15.64,0-7-3.26,28-5.91,23.9c-2.12-3.3-.85,7.56-.26,12.09l.26,1.88c-1.26-.38-2.47-.76-3.65-1.15q-2.42-.81-4.92-1.46S92.19,53.45,91.54,48s-2.65-6.52.08-4.78,2.31-1.52,3.83-7.17,6.08-20.21,7.82-19.12,4.13-.65,5.43-2.39.87-3.91,3-3.48,6.29-1.74,8.69-5.43,3.47-6.52,6.3-4.57,1.73-.84,4.13-.63,3.91-1.1,6.08,0S144.56,0,149,4.56a16.34,16.34,0,0,0,.32,2.83C150.21,12.17,147.81,10,143.63,10Z" style="fill:#21357c"/><path d="M140.57,75.65h-.12l-.58,0c-.56,0-1.15,0-1.79,0l-1.13,0s-1.53-.26-4.1-.73c-8.12-2.39-2.16-6.59-1.85-6.8a0,0,0,0,1,0,0c4-2,8.25-3.89,9.73-3.92,3.16-.06,2.08-4.27-12.7,2.62s-.65-5.07,7.17-11.15,11-10.22,5.53-7-20.13,14-22.17,18.11-6.82-4,16.64-22.26c0,0,3.8-2.58,3.23-3.64s-10.94,3.45-21.69,20.4-3.27-4.57,4.78-13.91,15-13.95,15.09-15.29-9.45,2.58-19.88,17.14S108.92,67,105.66,66.78s12.42-27.33,18.92-34.94,2.79-9.79-5.57,3.25S103.6,61.47,102.51,65.4s-1.41-3.26,2.5-13,7.49-17.28,6.63-19.12S99.72,63.83,97.32,64.89c-.59-4.53-1.86-15.39.26-12.09,2.65,4.13.91-15.21,5.91-23.9s-.22,2.17,0,7,2.82-4.78,7.82-12.38,5.22-9.78,4.13-4.35-1.33,7.17,3.57,0,13.16-15.64,7.29-6.73-5,10.21.44,4.78,9.13-9.35,5.87-4.35-2.83,8.69-1.09,8.47,3.69-5.43,6.3-8,0,2.4-3.48,7.83c-2.55,4,3.18,1.15,6.4-.64a90.85,90.85,0,0,0,.91,11.64,120.41,120.41,0,0,0,3.12,15.07A35.36,35.36,0,0,1,140.57,75.65Z" style="fill:#4663ce"/><path d="M213,96.69c19.34,5,10,8.69-2.61,6.85s-17.16.45,2,4.08,22.16,14.28,3.69,7.54-28.68-11.73-27.81-10,20,9.56,29.12,15,12.16,12,3,9.34-23.9-15-17.17-8.9,19.56,14.77,17.39,18-12-1.74-21.51-8.26-7.61-4.13-1.53,4.35,10.25,13,4,14.77-4-11.52-20.11-33.89c0,0-2-2.83-4.14-2.83s14,17,16.52,33.9-3,16.07-6.52,7-7.39-17.38-8.91-17.38,9.33,22.59,8,26.29-5-4.35-8.24-10.65-2.83-2.21-1.09,6.29,2.82,11.09-2.82,10.44-2.83-13.47-6.74-25.2-6.3-18.69-8.91-21.73,2.82,5.65,4.34,16.73,8.91,32.38,2.39,33.68-5.21-10.65-6.73-23-4.13-16.73-3.91-10.65,2.82,32.57-1.53,33.78-7.38,4.56-5-14,2.82-22.64,1.74-23.73-4.28,34.55-6.48,37.37-10,4.35-5.47-9.56,5.21-26.07.65-14.34-5.7,19.34-8,19.12-5.95-3.91,3.4-20.86,10.06-21.51,9.38-28.46-2.68-5-2.77,3-10.24,29.58-13.57,33a8.86,8.86,0,0,1-3.25,2.13,96.18,96.18,0,0,1,1.39-11.32,33.21,33.21,0,0,1,2.51-8.41c4.35-8.47,10.79-17,9.53-28.93h0a40.36,40.36,0,0,0,5.16-1.06s4.38.91,5.74,10.27-5.79,20.27-2.87,19.29,5.53-9.94,4.72-17.27.32-12.06,2.28-5,5.05,4.4,3.09.81-6.89-7.14-6.46-8.05a1.89,1.89,0,0,1,3-.73l.27.23c3.88,3.36,9.75,10.41,16.83,24,13.25,25.42-.65-15.86-15.64-26.18s10.86-1.63,28.89,28.35-3.47-15.86-16.08-25-14.55-11.74-11.73-11.52,28.25,16.08,42.81,28.24-10.43-18.9-41.94-30.85c0,0-1.95-2.17.22-3.26s15.2,4.35,32.59,10.22-1.3-2.4-10.43-5.66-23.25-5.43-23.25-7,16.73,1.52,30.64-2.39-.66-2.9-10.43-1.34a67,67,0,0,1-20.64,0c-2-.4,6.3-1.92,23.24-7.35s-14.77.65-22.16,3.69,5-5.21,12.82-15.43,9.56-15.86,4.35-11.51-3.48,10.86-21.08,25c0,0-3.26-.44-1.52-3.05s9.13-13,8.26-22.37-3.91-10.22-3.48-3.26-.65,17-8.69,25.2a1,1,0,0,1-.18.13l-.08,0a11.09,11.09,0,0,1-5,1.16,35.36,35.36,0,0,0,4.2-28.5,120.41,120.41,0,0,1-3.12-15.07s1.82-3.18,5.08,11.38,5,13.87,4.13,1.06,8.25-19.9,9.34-12.44.87,15.07,2.61,11.16,5-4.43,0,4.78-2.83,17,6.52,1.23,15.54-13.83,13.2-10.36-2.77,7,1.79,3.26,6.73-7.6,9.78-5.43-13,22.74-23,31.36,12.38-5.07,20.2-15.71,12.92-3.48,3.2,3.69-8.2,8.48,3.32,2.61,18.91,2.31,8.69,8.11-27.16,12.1-26.94,12.75,13.69-1.45,24.12-4.64,19.33-2.52,15.42.85-7.79,3.14-17.47,5.74-1.65,1.74,10.09,2S243,88.87,222.13,90s-37.65-2.83-43,0S193.66,91.69,213,96.69Z" style="fill:#5271dd"/><path d="M136.08,185.83c.48-3.35-1.5-8.65-1.58-8.87a1.54,1.54,0,0,0,1.37-1.39c.21-2.4,3.26.43,5.86,3.27a4.23,4.23,0,0,0,.78.67C143.56,186.88,135.59,189.26,136.08,185.83Z" style="fill:#4663ce"/><path d="M130.73,188.44c-.63,5.87-6.55,8.15-7,5.38s.15-27.2.15-27.2c.2,2.3.58,3.73,1.15,3.73,2.39,0,3,.44,4.56,3.7a5.29,5.29,0,0,0,1.17,1.59A76.58,76.58,0,0,1,130.73,188.44Z" style="fill:#4663ce"/><path d="M147,185.13c-1.74-.22-3.48-.44-3.26,2s-1.53,2.83-3.91,2.83-2.18,1.3-2.39,3.26-3.48,3.47-6.52,2.82-1.09,3-2.4,3.48-5.21,3.91-4.77,2.82-3.92,3.26-6.74,2.17-4.78-.21-5.86.88-6.52,0-7.17-1.53-4.79-1.73-5.66-2.17-3-.87-2.82-3.47-2-2-3.48-2.18-3.47-.43-3-3.47-3.56-2.83-5.51-3.7-2.83-.22-2.39-3.91-.87-5-3.48-4.92-1.52-1-1.52-3.56-3-6.73-6.52-4.56-5.21.65-6.73-2.08-2.83-.74-6.31-.09-4.12-2.17-4.12-6.3-1.09-3.26-5.65-4.13-.87-3-4.57-3.47-.65-3.48-1.08-3.7-3.92-2.61,0-6.08,5.86-8.48,4.58-8.91,2.37-3.05.42-3.48c-1.24-.27.37-2.52,3-5.23,4.12,2.15,9.35-2.81,13.91-6.5s3.7-6.74,5-6.74,2.17.65.66,4.35-7.61,7.6-13.46,10.64-7.4,8.91-4.9,8.91,6-2.17,15.31-10.43,8.48-5.65,6.3-1.95-13.47,13.69-21.61,17.38-10,10.67-1.2,6.95,23-19.55,31.07-28.22,8.91-8.06,8.09-3.72-10.92,14.34-20,21.08S50.9,151.23,52.82,152.32s.48,3,8.73.43,33.25-32.38,32.22-27.81-9.84,11.52-19.4,20.86S55.25,163.18,60.9,162.31s21.73-17.6,26.73-24.55,10.21-13.25,5.21-3.26S72.2,157.31,67.42,162.74s-.22,4.79,5.43,5.22,24.12-29.55,29.77-43,8-12.82,5-2.15S86.1,160.36,81.33,166s-2.4,7.83,1.51,9.78S98.49,152.32,102,141.93s4.78-10.47,4.48-5-3.4,13.25-7.52,22.6-11.52,23.68-9.92,28,4.92,1.95,5.79-4.57,2.82-10.86,11.3-32.15,6.3-29.34,8.47-28,1.52,8.67.22,13.07-7.39,19.06-14,40.36,3.13,22.16,3.78,16.95.65-21.3,4.12-32.38,11.3-28,11.74-37.16,1.3-13.46,3.26-5-3.26,23.47-10.22,39.59-5,38.2-2.38,39.28a6.08,6.08,0,0,0,4.77,0s2.36-1.74,2.7-9.56c.24-5.28.89-20.21,2.86-31.35,1-5.37,2.21-9.85,3.88-11.95A96.18,96.18,0,0,0,123.92,156h0a74.71,74.71,0,0,0-.07,10.64s-.64,24.43-.15,27.2,6.4.49,7-5.38a76.58,76.58,0,0,0,0-12.8A4.72,4.72,0,0,0,134.5,177c.08.22,2.06,5.52,1.58,8.87s7.48,1,6.43-6.32c1.39.91,2.89.4,4.44-.56C148.68,181.9,148.68,185.34,147,185.13Z" style="fill:#21357c"/><path d="M55.27,122.79a8,8,0,0,1-.67.63c-1.06.88-2.12,1.81-3.12,2.73C52.6,120.09,50.2,118,49.55,116s-2.77-3.53-3.1,0,.65,5.11-1,8.86-1.95,5.21-2.1,11-2.62,9.07-3.11,5,.32-10.92,2.44-17.44.65-9.45,0-5.8A30.78,30.78,0,0,1,38.63,128c-2,3.26-1.63,3.75-2.45,10.27s-2.6,4.56-2.6-.82,5.05-12.71,5.71-17.76-.82.49-2.78,3.12-3.42,8.12-5.16,15.46-1.52,8-1.52-.16,7.66-21.68,2.44-14.35-5.86,20-6.19,20.7-2.12,0-1.3-7.17c.39-3.42-.52-4.13-1.58-3.94A40.57,40.57,0,0,1,30.92,121c6.29-7.39,6-13.41,6-13.41a53.32,53.32,0,0,0,13.4,2.6s.32,4.72,2.27,6.24S55.27,122.79,55.27,122.79Z" style="fill:#5271dd"/><path d="M51.48,126.15c-.82.77-1.61,1.52-2.32,2.25-2.66,2.71-4.27,5-3,5.23,1.95.43-1.71,3-.42,3.48S45,142.54,41.13,146a13,13,0,0,0-4.16-.65c-1.32.21-2.58,2.38-3.45,4.77s-2.6.87-2.6,2.18-1.53,1.74-3.26,1.3-.88,11.95-4.79-2.17c-2-7.25-1.5-13.12.33-18.12,1.06-.19,2,.52,1.58,3.94-.82,7.17,1,7.82,1.3,7.17s1-13.36,6.19-20.7-2.44,6.2-2.44,14.35-.2,7.49,1.52.16,3.2-12.83,5.16-15.46,3.44-8.17,2.78-3.12-5.71,12.39-5.71,17.76,1.79,7.34,2.6.82.49-7,2.45-10.27a30.78,30.78,0,0,0,4.07-10.36c.65-3.65,2.12-.72,0,5.8s-2.93,13.36-2.44,17.44,3,.77,3.11-5,.47-7.23,2.1-11,.66-5.33,1-8.86,2.45-2,3.1,0S52.6,120.09,51.48,126.15Z" style="fill:#293a8a"/><path d="M34.55,100.28c-1.12.16-5.77,1-6.49-.62-.35-.77.58-1.41,1.44-1.84.4-.2.79-.36,1-.46a9.23,9.23,0,0,0,3.86-3.15,15.9,15.9,0,0,0,2.47-11.86c-1.8-12.06,2.39-5.54,4.29,2.93S41.24,99.3,34.55,100.28Z" style="fill:#2d55c4"/><path d="M18.63,81.38a2,2,0,1,1-2.06-1.85A2,2,0,0,1,18.63,81.38Z" style="fill:#2b2b2b"/><path d="M16.68,78.23a3.26,3.26,0,1,0,3.26,3.25A3.26,3.26,0,0,0,16.68,78.23Zm0,5.21a2,2,0,1,1,2-2A2,2,0,0,1,16.68,83.44Z" style="fill:#eae3dd"/><path d="M140.74,64.16c-1.48,0-5.69,1.92-9.73,3.92a0,0,0,0,0,0,0c-.31.21-6.27,4.41,1.85,6.8-2.67-.48-6.48-1.21-10.84-2.11-2.88-.6-6-1.28-9.21-2-5.1-1.18-10.4-2.53-15.22-4l-.26-1.88c2.4-1.06,13.45-33.49,14.32-31.64s-2.72,9.34-6.63,19.12-3.59,17-2.5,13,8.15-17.27,16.5-30.31,12.07-10.86,5.57-3.25S102.4,66.6,105.66,66.78s.65-3,11.08-17.56,20-18.48,19.88-17.14-7.06,6-15.09,15.29S106,78.23,116.75,61.28s21.12-21.46,21.69-20.4-3.23,3.64-3.23,3.64c-23.46,18.24-18.68,26.34-16.64,22.26s16.64-14.85,22.17-18.11,2.3.87-5.53,7-21.94,18-7.17,11.15S143.9,64.1,140.74,64.16Z" style="fill:#2647a5"/><path d="M127.82,136.24a33.21,33.21,0,0,0-2.51,8.41c-1.67,2.1-2.92,6.58-3.88,11.95-2,11.14-2.62,26.07-2.86,31.35-.34,7.82-2.7,9.56-2.7,9.56a6.08,6.08,0,0,1-4.77,0c-2.61-1.08-4.57-23.16,2.38-39.28s12.17-31.12,10.22-39.59-2.83-4.13-3.26,5-8.26,26.08-11.74,37.16-3.47,27.16-4.12,32.38-10.37,4.34-3.78-16.95,12.68-35.95,14-40.36,1.95-11.74-.22-13.07,0,6.71-8.47,28S95.67,176.43,94.8,183s-4.19,8.91-5.79,4.57,5.79-18.69,9.92-28,7.22-17.17,7.52-22.6-1-5.34-4.48,5-15.21,35.81-19.13,33.85-6.29-4.12-1.51-9.78,23.25-32.54,26.28-43.21.66-11.32-5,2.15S78.5,168.4,72.85,168s-10.21.22-5.43-5.22,20.42-18.25,25.42-28.24-.22-3.7-5.21,3.26S66.55,161.44,60.9,162.31s3.91-7.17,13.47-16.51,18.37-16.3,19.4-20.86-24,25.2-32.22,27.81-6.81.65-8.73-.43,6.34-5.43,15.47-12.17,19.22-16.73,20-21.08,0-4.95-8.09,3.72S57.94,147.3,49.17,151s-7-3.26,1.2-6.95S69.81,130.37,72,126.68s3-6.31-6.3,1.95-12.81,10.43-15.31,10.43-.94-5.86,4.9-8.91,11.93-7,13.46-10.64.65-4.35-.66-4.35-.43,3-5,6.74-9.79,8.65-13.91,6.5c.71-.73,1.5-1.48,2.32-2.25,1-.92,2.06-1.85,3.12-2.73a8,8,0,0,0,.67-.63c4.41-4.48,3-12.23,3-12.23.76,0,1.54,0,2.34,0,21.51-.32,51-2.75,64.53-2.51a75.25,75.25,0,0,0,12.19-.72C138.61,119.23,132.17,127.77,127.82,136.24Z" style="fill:#4663ce"/><path d="M110.66,78.23c-8-.64-15.91-1.69-23.8-3C80.25,74,73.56,71.46,66.8,71.6c-11.46.22-17.12,12-11.53,21.63,3.82,6.55,16.86,6.3,23.22,6.53a260.06,260.06,0,0,0,35-1.59c5.87-.59,11.73-1.24,17.55-2.2l1-.17c4.24-.74,9.32-1.9,10.6-6.71C144.34,82.57,130,79.74,110.66,78.23Zm17.94,13c-4,2.62-32.5,3.25-44.26,2.81s-13.88-6.73-10.62-12.6c2.7-4.85,9.6-3.66,14.12-3.13,2.46.29,5,.57,7.43.84,4.48.48,9,.91,13.31,1.24,6.67.49,13.8,1.3,19.59,4.91C130.86,87,131.45,89.41,128.6,91.27Z" style="fill:#2d55c4"/><path d="M155.42,92.78s-1.95-2.17.22-3.26,15.2,4.35,32.59,10.22-1.3-2.4-10.43-5.66-23.25-5.43-23.25-7,16.73,1.52,30.64-2.39-.66-2.9-10.43-1.34a67,67,0,0,1-20.64,0c-2-.4,6.3-1.92,23.24-7.35s-14.77.65-22.16,3.69,5-5.21,12.82-15.43,9.56-15.86,4.35-11.51-3.48,10.86-21.08,25c0,0-3.26-.44-1.52-3.05s9.13-13,8.26-22.37-3.91-10.22-3.48-3.26-.65,17-8.69,25.2a1,1,0,0,1-.18.13l-.08,0a11.09,11.09,0,0,1-5,1.16h-.12l-.58,0c-.56,0-1.15,0-1.79,0l-1.13,0s-1.53-.26-4.1-.73-6.48-1.21-10.84-2.11c-2.88-.6-6-1.28-9.21-2-10.56-.64-25.28-4.15-36.9-7-17.83-4.34-32.49,4.13-30,12.06s2.61,10.43,1.41,18.91c-1,6.8-8.63,10.59-14.71,10.75A15.69,15.69,0,0,0,37,107.62a53.32,53.32,0,0,0,13.4,2.6c2.35.2,5,.32,7.92.34.76,0,1.54,0,2.34,0,21.51-.32,51-2.75,64.53-2.51a75.25,75.25,0,0,0,12.19-.72h0a40.36,40.36,0,0,0,5.16-1.06s4.38.91,5.74,10.27-5.79,20.27-2.87,19.29,5.53-9.94,4.72-17.27.32-12.06,2.28-5,5.05,4.4,3.09.81-6.89-7.14-6.46-8.05a1.89,1.89,0,0,1,3-.73l.27.23c3.88,3.36,9.75,10.41,16.83,24,13.25,25.42-.65-15.86-15.64-26.18s10.86-1.63,28.89,28.35-3.47-15.86-16.08-25-14.55-11.74-11.73-11.52,28.25,16.08,42.81,28.24S186.93,104.73,155.42,92.78Zm-12.81-3.69c-1.28,4.81-6.36,6-10.6,6.71L131,96c-5.82,1-11.68,1.61-17.55,2.2a260.06,260.06,0,0,1-35,1.59c-6.36-.23-19.4,0-23.22-6.53-5.59-9.61.07-21.41,11.53-21.63,6.76-.14,13.45,2.44,20.06,3.58,7.89,1.36,15.82,2.41,23.8,3C130,79.74,144.34,82.57,142.61,89.09Z" style="fill:#2948b7"/><path d="M128.6,91.27c-4,2.62-32.5,3.25-44.26,2.81s-13.88-6.73-10.62-12.6c2.7-4.85,9.6-3.66,14.12-3.13,2.46.29,5,.57,7.43.84,4.48.48,9,.91,13.31,1.24,6.67.49,13.8,1.3,19.59,4.91C130.86,87,131.45,89.41,128.6,91.27Z" style="fill:#3665ce"/><path d="M54.25,62c-13.37,1.81-17.74,7-27,10.78a17,17,0,0,1-12.68.11c4.9-1.54,11.79-4,22.46-7.27A97.85,97.85,0,0,1,54.25,62Z" style="fill:#2d55c4"/><circle cx="18.56" cy="80.93" r="1.16" style="fill:#eae3dd"/></g></g></svg>