<svg xmlns="http://www.w3.org/2000/svg" viewBox="0 0 304.93 161.99"><title>swordtail-guppy</title><g id="Layer_2" data-name="Layer 2"><g id="Ñëîé_2" data-name="Ñëîé 2"><path d="M89.79,44.91c-4.54,4.84-7.59,6.2-12.14,5.77s-8.88,0-15.16,3.25-7.8,7.58-13,6.93A20.46,20.46,0,0,0,38,62.6c-3.25,1.3-7.58-.65-13-4.55s-14.51.65-14.73,6.06-5.5,7.64-5.5,7.64A37,37,0,0,1,.16,63.34c-.82-2.41,1.78-3.62,2.27-2.64s2.93,2.92,3.41,2.6-1-2.44-1.62-3.9S14.29,56,23.06,53.06s26.65-2.27,59.14-7.15Q86.17,45.33,89.79,44.91Z" style="fill:#f28400"/><path d="M82.2,87.31c-3-1.92-7.8-1.75-12.13-1.75a13.7,13.7,0,0,1-8.63-3.69c-6.19-.34-11.62-1.21-12.6-2-1.17-.88-1-2.4-.46-3.64.11-.28.24-.53.35-.76a11.84,11.84,0,0,1,3.38-4.11A31.25,31.25,0,0,1,66.27,66.1c2.39-5.14,6-6.39,12-7.77,6.29-1.44,10.4-4.62,11.49-9.38C90.23,47,92.47,45.5,95,44.39c-1.68.14-3.41.31-5.22.52-4.54,4.84-7.59,6.2-12.14,5.77s-8.88,0-15.16,3.25-7.8,7.58-13,6.93A20.46,20.46,0,0,0,38,62.6c-3.25,1.3-7.58-.65-13-4.55s-14.51.65-14.73,6.06-5.5,7.64-5.5,7.64a13.13,13.13,0,0,0,4.31,4.06c4.06,2,15,8,18,9.42,2.25,1.07,6.68,2.14,10,.66a6.26,6.26,0,0,0,3-2.77c2.77-5,4.23-9.1,2.6-12.35s3.41.49,2.28,5c-.75,3-1.57,8.44-4.3,11.91,5.38,2.62,15.79,7.22,24,7.91a113.74,113.74,0,0,0,14.81.18,91,91,0,0,0,18.4-2.69h0a45.51,45.51,0,0,0,6.42-2.2c.44-.2.88-.39,1.31-.56C99.91,92.36,85.24,89.24,82.2,87.31ZM12.5,67.65c0-.26,0-.51,0-.76a7.21,7.21,0,0,1,.66-2.35,7.62,7.62,0,0,1,14.15,1,7.19,7.19,0,0,1,.31,2.09,7.46,7.46,0,0,1-.09,1.16A7.59,7.59,0,0,1,12.5,67.65Zm26.92,8.7c-2.06,6.07-9.86,5.74-12.89,4.87s1.62-3.9,1.62-3.9,5.31-3.77,7.7-7.46S41.48,70.28,39.42,76.35Z" style="fill:#a0d4ab"/><path d="M196.42,75.16a16.27,16.27,0,0,1-12.74,12.15s10.52-5.44,9.65-12.8-2.81-6.72-3-9.1-2.62-7.36-6.62-8-17.21-3.25-21.54-5-21-2.6-28.16-3.25-18.42-5-20.8-1.51-7.58,8.12-12.35,8.06S92.39,58.26,92.6,63a18.08,18.08,0,0,1-4.11,12.35c-2.6,3,4.11,6.72,7.8,6.72s10-.43,12.56,1.3c2.38,1.58,4.57,3.21,7.59,3.78a50.89,50.89,0,0,0-10.83,3.19c-5.7,2-20.37-1.12-23.41-3s-7.8-1.75-12.13-1.75a13.7,13.7,0,0,1-8.63-3.69,69,69,0,0,0,14-.43c9.1-1.52,10.83-2.1,8.45-3.11s1.73-3.61-.44-4,.86-4.7-1.41-4.3c-.86.15-1.82-.51-2.54-.88A35.33,35.33,0,0,0,75.1,67a20.31,20.31,0,0,0-8.83-.92c2.39-5.14,6-6.39,12-7.77,6.29-1.44,10.4-4.62,11.49-9.38C90.23,47,92.47,45.5,95,44.39h0c4.2-.37,8-.56,11.38-.62,15.66-.27,22.92,2.14,22.92,2.14a13,13,0,0,0,3.74,1.1l.19,0c3.48.6,8.64.93,15.4,1.47,8.73.7,26.37,2.88,35.36,5,1,.22,1.81.46,2.55.68l.92.3C194.31,57,198.69,65.9,196.42,75.16Z" style="fill:#12aab5"/><path d="M193.33,74.51c-.86-7.37-2.81-6.72-3-9.1s-2.62-7.36-6.62-8-17.21-3.25-21.54-5-21-2.6-28.16-3.25-18.42-5-20.8-1.51-7.58,8.12-12.35,8.06S92.39,58.26,92.6,63a18.08,18.08,0,0,1-4.11,12.35c-2.6,3,4.11,6.72,7.8,6.72s10-.43,12.56,1.3c2.38,1.58,4.57,3.21,7.59,3.78,4.87-.85,9.2-.9,13.85-1.28,5.7-.46,26.84.52,40.3,1.15l5.41.24c2.94.14,5,.23,5.8.23a9.72,9.72,0,0,0,1.88-.2S194.2,81.87,193.33,74.51Zm-13.78,3.7a17.81,17.81,0,0,1-9,5.29c-7.13,1.5-14.52.32-21.66.32-5.06,0-10.59-.21-15.49-1.59-4.72-1.33-8.49-2.79-13.53-3-6.5-.21-14.52-1.08-18-5.63s2.17-8.23,6.07-10.83,8.67-1.3,14.3-4.76,13.21-2.39,31.19-1.09c6.85.5,14.8.81,20.72,4.75a34.9,34.9,0,0,1,5.54,4.83C183.6,70.55,182.5,74.89,179.55,78.21Z" style="fill:#108d9d"/><path d="M45,75.81c-.75,3-1.57,8.44-4.3,11.91-2.22-1.08-3.59-1.83-3.59-1.83a6.26,6.26,0,0,0,3-2.77c2.77-5,4.23-9.1,2.6-12.35S46.13,71.26,45,75.81Z" style="fill:#77b281"/><path d="M179.55,78.21a17.81,17.81,0,0,1-9,5.29c-7.13,1.5-14.52.32-21.66.32-5.06,0-10.59-.21-15.49-1.59-4.72-1.33-8.49-2.79-13.53-3-6.5-.21-14.52-1.08-18-5.63s2.17-8.23,6.07-10.83,8.67-1.3,14.3-4.76,13.21-2.39,31.19-1.09c6.85.5,14.8.81,20.72,4.75a34.9,34.9,0,0,1,5.54,4.83C183.6,70.55,182.5,74.89,179.55,78.21Z" style="fill:#0f7c84"/><path d="M75.63,71.75c-3.69-.79-5.53-1.81-9.86-1.57s4.76,1.32,8.17,2.46,1.3,1.41-2.48.76-6.83.1-1.58,1,4.66,2,.49,1.89-6.93.17-6,.82,5.3-.17,6,.65-4.22,1.57-7.9,1.3-2.34,1.13.54,1.13,1.25,1.25-1.57,1.71c-6.19-.34-11.62-1.21-12.59-2-1.17-.88-1-2.4-.47-3.64.12-.28.24-.53.36-.76a11.7,11.7,0,0,1,3.37-4.11,30.62,30.62,0,0,1,3.44-2l0,0C56.27,69,65.75,64.87,78,71.23,78,71.23,79.31,72.55,75.63,71.75Z" style="fill:#f28400"/><path d="M75.49,81.44a68.31,68.31,0,0,1-14,.43c2.82-.46,4.44-1.71,1.57-1.71s-4.23-1.4-.54-1.13,8.55-.49,7.9-1.3-5,0-6-.65,1.78-.92,6-.82,4.77-1-.49-1.89-2.21-1.62,1.58-1,5.9.37,2.48-.76-12.51-2.23-8.17-2.46,6.17.78,9.86,1.57S78,71.23,78,71.23c-12.2-6.36-21.68-2.2-22.36-1.89A30.58,30.58,0,0,1,66.28,66.1,20.27,20.27,0,0,1,75.1,67a35.33,35.33,0,0,1,4.45,2.09c.72.37,1.69,1,2.54.88,2.27-.4-.75,3.87,1.41,4.3s-2,3,.44,4S84.59,79.92,75.49,81.44Z" style="fill:#f7be7f"/><path d="M39.42,76.35c-2.06,6.07-9.86,5.74-12.89,4.87s1.62-3.9,1.62-3.9,5.31-3.77,7.7-7.46S41.48,70.28,39.42,76.35Z" style="fill:#b3e8bc"/><path d="M27.35,65.56a1.14,1.14,0,0,1-1.52,0c-1-.63-1.46-2.58-2.8-2.74s-2.64-1.46-3.62-1.22-3.18.25-3.62,1.38-2.59,1.57-2.59,1.57a7.62,7.62,0,0,1,14.15,1Z" style="fill:#957bad"/><path d="M27.66,67.65a7.46,7.46,0,0,1-.09,1.16c-1.08.9-2.39.88-2.07-.07s-1.38-1.87-1.38-3.17-1.87-1.95-3.25-1.86a4.52,4.52,0,0,1-2.19-.33c-1.06-.24-1.63.65-2.52,1.46s-1.06,1.79-2.12,2a7.55,7.55,0,0,1-1.5.08,7.21,7.21,0,0,1,.66-2.35s2.14-.43,2.59-1.57,2.65-1.13,3.62-1.38,2.28,1.06,3.62,1.22,1.82,2.11,2.8,2.74a1.14,1.14,0,0,0,1.52,0A7.19,7.19,0,0,1,27.66,67.65Z" style="fill:#d8b8ba"/><path d="M25.5,68.74c.33-1-1.38-1.87-1.38-3.17s-1.87-1.95-3.25-1.86a4.52,4.52,0,0,1-2.19-.33c-1.06-.24-1.63.65-2.52,1.46s-1.06,1.79-2.12,2a7.55,7.55,0,0,1-1.5.08c0,.25,0,.5,0,.76a7.59,7.59,0,0,0,15.07,1.16C26.49,69.71,25.18,69.69,25.5,68.74Zm-6.09,3.34A3.62,3.62,0,1,1,23,68.46,3.62,3.62,0,0,1,19.41,72.08Z" style="fill:#eae3dd"/><path d="M23,68.46a3.62,3.62,0,1,1-3.62-3.62A3.62,3.62,0,0,1,23,68.46Z" style="fill:#2b2b2b"/><path d="M116.65,99.69c8,3.74,14.46,6.34,15.76,8.07s-5.85,0-13.81-3.36-9.92-3.41-8.45-1.79,2.27,4.39-5.36-.64-8.29-3.58-6.28-2,1.89,2.11,0,3.24.91,2.77,5.14,5.85,1,3.74-3.74.65-4.55-1,1.79,4.07,5,7.79,1.62,4.38-14.78-11.53-16.41-13.48,1.63,14.94,0,11.37-7.3-19.89-7.44-20.29a91,91,0,0,0,18.4-2.69h0c7.61.64,21.69-3.32,22.67-2.25,1.13,1.26.81.37,4.54.13s3.74-.25,2.12.89-5.53,2.6-10.4,2.6S123.63,96.77,128,96s3.41-.34,7,1-1,1.62-9.26,1.62S108.68,96,116.65,99.69Z" style="fill:#f7be7f"/><path d="M181,50.68s-11.37-2.33-14.62-2.33S136,47.31,133.25,47l-.19,0a13,13,0,0,1-3.74-1.1s-7.26-2.41-22.92-2.14a38.88,38.88,0,0,1,11.63-29l2.08-.16c-4.43,5.17-9.75,13.55-9.75,23.93A86.37,86.37,0,0,1,127.91,14l2.19-.16c-6.92,6.37-13.61,14.49-15.84,23.41,0,0-1.51,3,3.25.87s23.83-19.7,36.83-16.24a35.41,35.41,0,0,1,4.18,1.41c-1,.47-2,.91-3,1.34h0a15.21,15.21,0,0,0-4-1c-8.63-.65-25.34,10-27.29,11.92s16.9-7.8,27.07-4.34c.57.2,1.17.4,1.78.63a23.38,23.38,0,0,1,1.64,3.13c-4.24-1.39-7.87-2.3-10-2.24-8,.22-20.53,6.06-23.35,8.23s3,3,7.58,2.82S165.17,47,170.8,47.21A21,21,0,0,1,181,50.68Z" style="fill:#35a09d"/><path d="M125.94,8.88a44.08,44.08,0,0,0-5.83,5.74l-2.08.16A40.93,40.93,0,0,1,125.94,8.88Z" style="fill:#55cec8"/><path d="M148.9,0a112.19,112.19,0,0,0-18.8,13.84l-2.19.16A65.15,65.15,0,0,1,148.9,0Z" style="fill:#55cec8"/><path d="M183.13,46.3c-.67-.3-16.78-7.59-28.41-11.36a23.38,23.38,0,0,0-1.64-3.13C163.57,35.67,181,44.19,183.13,46.3Z" style="fill:#55cec8"/><path d="M155.55,24.63c1-.43,2-.87,3-1.34,11.27,4.51,20.83,14.15,21.6,15.69S165.33,28.33,155.55,24.63Z" style="fill:#55cec8"/><path d="M242.55,29.74c-11.2,5.82-35.49,19.81-43.16,25.05a13.63,13.63,0,0,0-2.6-2.2,126,126,0,0,0,13.44-6.27c3.31-1.81,16-10.59,30.29-18.81A5.31,5.31,0,0,0,242.55,29.74Z" style="fill:#d90218"/><path d="M253,36c-15.46,6.61-44.62,20.14-51.78,23.47a13.12,13.12,0,0,1-.26-2c.43-.19.92-.41,1.46-.68,3.9-2,34.47-17.32,48.67-23.22A24.57,24.57,0,0,1,253,36Z" style="fill:#d90218"/><path d="M262.11,112.23c-.56.24-1,.09-3.3-.19a11.74,11.74,0,0,0-3.85.11c-24.56-12-52.64-26.11-54.32-26.76l-.31-.11a5.25,5.25,0,0,1,2.75-4.49c.32-.18.65-.36,1-.52C211.81,84,233.9,91.15,240.2,92.92c2.42.67,7,2.23,12.28,4,2,3.3,4.77,2.63,7.46,4.83l.63.55c-21.44-7-53.75-18.46-53.75-18.46s-2.84-1.3-3.42-.57S205,84.91,209,86.93C211.56,88.21,240.76,102.1,262.11,112.23Z" style="fill:#d90218"/><path d="M221.84,132.16c-1.19.15-2.44.26-3.64.33-7.62-9.27-14.72-17.81-15.93-19.48-2.6-3.57-13.22-17.82-13.22-17.82a1.46,1.46,0,0,0-1.52-.7c-1.13.11,2.93,6.88,2.93,6.88s2.37,4.24,5.06,8.75l-2.62-1.49C188.87,102.3,185,96,185,96s-.92-1.59-2.17-1.59.44,2.55,2,4.61,9.22,12.52,9.51,12.92c-.32-.29-5.53-5-6.42-6.16s-6.77-7.87-6.83-9.78S180,93.89,179,94.6s-2.33,5.36-3.47,7.64a2.47,2.47,0,0,0,.26,2.23c-1-.2-2-.58-1.94-1.37a4.83,4.83,0,0,0-1.46-3.47c.35-2.66.7-6,.28-7.09-.65-1.62-2.06-5.5-2.06-5.5l5.41.24s4.33,4.12,7.15,3.8-.11,1.19,2.27,1.19a33.65,33.65,0,0,1,4,.4c.52.92,1.09,1.74,1.09,1.74S208.48,116,221.84,132.16Z" style="fill:#d90218"/><path d="M180.65,109.83a3.07,3.07,0,0,0-1,1.54c-.45-.27-.93-.59-1.45-1-2.87-2-6.45-5.85-6.23-7.63.07-.61.25-1.79.43-3.15a4.83,4.83,0,0,1,1.46,3.47c-.08.79.93,1.17,1.94,1.37C176.8,106.48,179.42,108.75,180.65,109.83Z" style="fill:#17718f"/><path d="M184.28,112.47c-1.28.45-2.63.13-4.66-1.1a3.07,3.07,0,0,1,1-1.54l.22.21c1.52,1.35,2.34,1.89,5.59.59S185.86,111.93,184.28,112.47Z" style="fill:#2b9fba"/><path d="M200,117.2a6.54,6.54,0,0,0-.93.88c-1.68-2.44-3.95-5.94-6.17-9.45l2.62,1.49h0C197,112.64,198.64,115.23,200,117.2Z" style="fill:#efb000"/><path d="M205,122.13a3.48,3.48,0,0,0-.55,1c-1.36-.88-2.45-1.58-2.9-1.85a19,19,0,0,1-2.49-3.22,6.54,6.54,0,0,1,.93-.88,14.27,14.27,0,0,0,2.75,3.34C203.27,120.85,204.07,121.42,205,122.13Z" style="fill:#17718f"/><path d="M213.34,129c-.43-.28-5.48-3.61-8.88-5.82a3.48,3.48,0,0,1,.55-1C208.21,124.58,213,128.65,213.34,129Z" style="fill:#2b9fba"/><path d="M249.87,161.43s-6.5,2.12-10.39-1.9a20.07,20.07,0,0,1,2.9-.88,4.59,4.59,0,0,0,1,.83C245.32,160.62,249.87,161.43,249.87,161.43Z" style="fill:#2b9fba"/><path d="M242.38,158.65a20.07,20.07,0,0,0-2.9.88,8.68,8.68,0,0,1-1.15-1.51,90.28,90.28,0,0,0-5.43-7.36,14.7,14.7,0,0,0,2.17-2.42l.67.84C239.23,153.51,240.83,157,242.38,158.65Z" style="fill:#17718f"/><path d="M235.07,148.24a14.7,14.7,0,0,1-2.17,2.42c-4-5.06-9.45-11.79-14.7-18.17,1.2-.07,2.45-.18,3.64-.33C227.87,139.46,233,145.64,235.07,148.24Z" style="fill:#efb000"/><path d="M247.17,140a26.41,26.41,0,0,0-4.25-.42c-3-2.78-6.32-5.81-9.7-9,1.14,0,2.46.06,3.78.07Z" style="fill:#efb000"/><path d="M272.44,151.85a31.36,31.36,0,0,1-7.14,2.22l.55-1.77C271.14,152,272.3,151.86,272.44,151.85Z" style="fill:#2b9fba"/><path d="M264.89,141.11c-7.1-4-16.32-9.84-20.51-12.87h0a13,13,0,0,1-1.82-5.84c7.45,5.51,13.37,9.77,15.11,10.77l5.63,3.21A18.32,18.32,0,0,1,264.89,141.11Z" style="fill:#efb000"/><path d="M289.51,157.85c-.18-.17-3.33-3.21-7.24-6.39a27.26,27.26,0,0,0,3.6.72A20.56,20.56,0,0,1,289.51,157.85Z" style="fill:#2b9fba"/><path d="M304.93,126.34A53.28,53.28,0,0,1,294.7,129a19.67,19.67,0,0,1-.5-2,14,14,0,0,0,4.09.15Z" style="fill:#2b9fba"/><path d="M300.77,103.54s-3.93,1-8.65,2c-.13-.53-.26-1-.38-1.51C296.39,103.73,300.77,103.54,300.77,103.54Z" style="fill:#2b9fba"/><path d="M293.4,93.78c-.26-.07-3.78-1.17-8.49-2.44l-1.5-2.62A58.69,58.69,0,0,1,293.4,93.78Z" style="fill:#2b9fba"/><path d="M294,82c-.33-.11-5.31-1.69-11.71-3.42l.39-1.54C286.67,79,293.63,81.85,294,82Z" style="fill:#2b9fba"/><path d="M291.68,76.24s-4.19-2.67-9.53-5.5l-.83-2C286.5,71.88,291,75.08,291.68,76.24Z" style="fill:#2b9fba"/><path d="M283.94,60.44l1.88-1.81a42.27,42.27,0,0,1,10,5C298.48,65.69,292.68,63.17,283.94,60.44Z" style="fill:#2b9fba"/><path d="M276.17,31.47l-.84-1.88a22.2,22.2,0,0,1,8.12,1.65C287.82,33.21,283.54,31.8,276.17,31.47Z" style="fill:#2b9fba"/><path d="M277.6,12.12s-3.91,2-9.17,4.72a21.74,21.74,0,0,0-1.75-2A48.21,48.21,0,0,1,277.6,12.12Z" style="fill:#2b9fba"/><path d="M247.82,7.86h0a8.94,8.94,0,0,1-1.88-1.34l1.33-.46s8.23-1.74,11-1.74C259.68,4.32,254.7,5.34,247.82,7.86Z" style="fill:#2b9fba"/><path d="M227.35,19.14c-.91.8-1.79,1.64-2.61,2.51C213.14,34.09,199,50.09,196.42,52.39a3,3,0,0,0-1.25-.3c-2,0-7.15.69-8.61,2.13-.74-.22-1.6-.46-2.55-.68,0,0-1.08-17.59,6.07-21.49l2.59-1.39a13.55,13.55,0,0,0,1.83.6c-2.83,2.27-5.65,4.92-6.15,6.86-1.08,4.11-2.82,10.18-1.3,11.69s6.09-4.76,10-10.61a49.74,49.74,0,0,0,3.86-8.32,16.08,16.08,0,0,1,2.5,0c-3.49,6.87-8.84,16.94-10,18.71-1.56,2.38.39,3.62,6-3.28,3.77-4.61,11.86-16.94,24.82-27.34C225.1,19,226.18,19.06,227.35,19.14Z" style="fill:#d90218"/><path d="M200.9,26.64c-.23.15-3.33,2.16-6.4,4.62a13.55,13.55,0,0,1-1.83-.6C197.92,27.89,200.71,26.72,200.9,26.64Z" style="fill:#2b9fba"/><path d="M221,13.39c-2.11,1.32-5.27,3.37-8.16,5.5h0a18.13,18.13,0,0,1-3.35.32,10.71,10.71,0,0,1,1.17-.6A111.48,111.48,0,0,0,221,13.39Z" style="fill:#2b9fba"/><path d="M212.84,18.9c-3,2.2-5.67,4.5-6.59,6.17a12.07,12.07,0,0,1-2-.88,15.55,15.55,0,0,1,5.22-5A18.13,18.13,0,0,0,212.84,18.9Z" style="fill:#17718f"/><path d="M206.25,25.07l-.14.26c-.5,1.13-1.5,3.15-2.73,5.56a16.08,16.08,0,0,0-2.5,0,36.55,36.55,0,0,1,3.39-6.69A12.07,12.07,0,0,0,206.25,25.07Z" style="fill:#efb000"/><path d="M207.47,78.31c-4.85-.59-5.91-2.2-6.13,0,0,.41,1,1.08,2.72,1.94-.33.16-.66.34-1,.52a5.25,5.25,0,0,0-2.75,4.49c-2.76-1.07-4.77-1.63-6-1s1.52,2.93,4.21,5A16.37,16.37,0,0,1,197,90.64l-2.53-2s-1.9-1.74-2.6-1.33-1,1.22,1.56,3.56c.19.16.67.6,1.41,1.27a7.22,7.22,0,0,1-1.4.64h0L191.54,91s-1.54-1.42-2.6-.9c-.56.28-.07,1.5.5,2.57a33.65,33.65,0,0,0-4-.4c-2.38,0,.55-1.52-2.27-1.19s-7.15-3.8-7.15-3.8c2.94.14,5,.23,5.8.23a9.72,9.72,0,0,0,1.88-.2,16.27,16.27,0,0,0,12.74-12.15c2.27-9.26-2.11-18.2-8.94-20.64l-.92-.3c1.46-1.44,6.56-2.13,8.61-2.13a3,3,0,0,1,1.25.3c.13.06.25.13.37.2a13.63,13.63,0,0,1,2.6,2.2c-1.56,1.05-2.43,1.76-2.37,2,.38,1.15.59,2.13,3.95.68a13.12,13.12,0,0,0,.26,2l-1.61.75s-1.74,1-1.42,1.95c.16.47,2.24.16,4.63-.37a4.61,4.61,0,0,1,.52,1.25c-1.94.51-3.12,1-3.31,1.36-.93,2-.57,2.13,3.73,1.78a16.87,16.87,0,0,1-.07,2,9.43,9.43,0,0,0-1.27.22c-2.39.87-4.34,3.6,0,3.31l1.21,0c.6.64,1.83,1.26,3.66,3C208.94,76.3,208.62,77.38,207.47,78.31Z" style="fill:#f28400"/><path d="M265.85,152.3l-.55,1.77a12.19,12.19,0,0,1-5.36-.12c-1.47-.44-8.25-6.33-17-14.33a26.41,26.41,0,0,1,4.25.42l7.57,6.93s4.39,5.69,10.56,5.36Z" style="fill:#17718f"/><path d="M285.87,152.18a27.26,27.26,0,0,1-3.6-.72,0,0,0,0,0,0,0c-3.32-2.71-7.2-5.52-10.28-6.77a67.24,67.24,0,0,1-7.08-3.58,18.32,18.32,0,0,0-1.59-4.74c6.25,3.59,14.41,8.45,18.74,12.06A32.72,32.72,0,0,1,285.87,152.18Z" style="fill:#17718f"/><path d="M292.12,105.57c-4.75,1-10.29,2-13.44,1.87a11,11,0,0,1-1.38-.2h0c-1.35-1.48-2.5-2.49-3.05-2.59a5,5,0,0,1-2.44-1.44c4.88,1.43,8.69,2.31,9.91,2a75.76,75.76,0,0,1,10-1.14C291.86,104.54,292,105,292.12,105.57Z" style="fill:#17718f"/><path d="M282.72,77.07l-.39,1.54c-2.84-.76-6-1.56-9.08-2.27.44-.53.7-1,.67-1.18s-.45-.69-.92-1.09c3.53.68,6.67,1.43,8.06,2.17C281.51,76.48,282.08,76.76,282.72,77.07Z" style="fill:#17718f"/><path d="M282.15,70.74a92.29,92.29,0,0,0-9.71-4.55,15.94,15.94,0,0,1,.05-2.34c2.76,1.35,5.9,3.11,8.83,4.89Z" style="fill:#17718f"/><path d="M285.82,58.63l-1.88,1.81h0c-1.75-.55-3.62-1.11-5.56-1.64.38-.43.56-.84.41-1.19s-.42-.88-.71-1.45C280.88,56.91,283.47,57.75,285.82,58.63Z" style="fill:#17718f"/><path d="M276.17,31.47a52,52,0,0,0-12.31.8,8.72,8.72,0,0,0-2.47-1.56,76.45,76.45,0,0,1,13.94-1.12Z" style="fill:#17718f"/><path d="M247.82,7.86a86.1,86.1,0,0,0-9.21,4c-.48-.53-.93-1.05-1.27-1.48a70.43,70.43,0,0,1,8.6-3.81A8.94,8.94,0,0,0,247.82,7.86Z" style="fill:#17718f"/><path d="M268.43,16.84c-4.37,2.24-9.65,4.93-14.38,7.28-.22-.9,0-1.58.48-1.82A5.13,5.13,0,0,0,256.69,19h0c3.43-1.6,6.78-3,10-4.15A21.74,21.74,0,0,1,268.43,16.84Z" style="fill:#17718f"/><path d="M284.91,91.34c-3.64-1-8-2.07-12.07-2.87a1.9,1.9,0,0,0-.76-1.16,12,12,0,0,1-1.92-1.6c5.42,1,10.21,2.06,12.2,2.66.35.1.7.22,1.05.35Z" style="fill:#17718f"/><path d="M294.7,129a14.13,14.13,0,0,1-3.08.09c-1.31-.14-8.74-3.51-18.82-8.32a3.14,3.14,0,0,1,2.2-.46c2.49,1.09,4.33,2.93,6.71,3.25a3.09,3.09,0,0,0,2.71-.75l.22.1A26.29,26.29,0,0,0,294.2,127,19.67,19.67,0,0,0,294.7,129Z" style="fill:#17718f"/><path d="M284.42,122.82a3.09,3.09,0,0,1-2.71.75c-2.38-.32-4.22-2.16-6.71-3.25a3.14,3.14,0,0,0-2.2.46c-5.37-2.56-11.49-5.52-17.84-8.63a11.74,11.74,0,0,1,3.85-.11c2.3.28,2.74.43,3.3.19h0Z" style="fill:#efb000"/><path d="M277.29,107.24c-3-.61-9.15-2.49-16.7-4.92h0l-.63-.55c-2.69-2.2-5.51-1.53-7.46-4.83,6.28,2.13,13.55,4.59,19.31,6.28h0a5,5,0,0,0,2.44,1.44C274.79,104.75,275.94,105.76,277.29,107.24Z" style="fill:#efb000"/><path d="M272.84,88.47a53.16,53.16,0,0,0-9.32-1.16,66.06,66.06,0,0,1-13.14-1.9,3.41,3.41,0,0,0-.67-1.15,21.88,21.88,0,0,0-3.11-2.6c.92.16,1.74.29,2.41.37,3.38.43,13,2.09,21.15,3.68a12,12,0,0,0,1.92,1.6A1.9,1.9,0,0,1,272.84,88.47Z" style="fill:#efb000"/><path d="M273.92,75.16c0,.23-.23.65-.67,1.18A85.16,85.16,0,0,0,258.53,74c-1.5,0-3.37-.12-5.5-.19a3.54,3.54,0,0,1,2.19-1.32c1.41.05,3.19,0,4.26-.83l.57.09c2.85.59,8.24,1.4,12.95,2.32C273.47,74.47,273.87,74.85,273.92,75.16Z" style="fill:#efb000"/><path d="M263.73,64.1h-.21c-7.83.4-51.54,3-59.82,4.11a16.87,16.87,0,0,0,.07-2l2.34-.2c5.22-.45,37.25-4,52.81-4.65h0c1.46.67,3.17,1.21,4.27,1.81A.87.87,0,0,1,263.73,64.1Z" style="fill:#d90218"/><path d="M272.44,66.19c-3.3-1.29-6.4-2.15-8.71-2.09a.87.87,0,0,0-.54-1c-1.1-.6-2.81-1.14-4.27-1.81a38.66,38.66,0,0,1,7.85.18,31.77,31.77,0,0,1,5.72,2.34A15.94,15.94,0,0,0,272.44,66.19Z" style="fill:#efb000"/><path d="M258.16,53.3c-.5.91-1,1.69-1.28,2.37h0l-.72,0c-15.14,1-43.2,4.78-52.8,7.33a4.61,4.61,0,0,0-.52-1.25c2.59-.57,5.56-1.4,6.86-1.79C211.9,59.32,241.54,53.52,258.16,53.3Z" style="fill:#d90218"/><path d="M278.38,58.8c-6.91-1.88-14.74-3.45-21.5-3.13.33-.68.78-1.46,1.28-2.37a47.46,47.46,0,0,1,5.57.2,95,95,0,0,1,14.34,2.66h0c.29.57.55,1.09.71,1.45S278.76,58.37,278.38,58.8Z" style="fill:#efb000"/><path d="M263.86,32.27a35.48,35.48,0,0,0-6.63,1.95c-1.24.5-2.66,1.1-4.22,1.77a24.57,24.57,0,0,0-1.91-2.46,34.71,34.71,0,0,1,6.57-2.29c1.05-.13,2.31-.32,3.72-.53h0A8.72,8.72,0,0,1,263.86,32.27Z" style="fill:#efb000"/><path d="M238.61,11.81a53.75,53.75,0,0,0-11.26,7.33c-1.17-.08-2.25-.12-3.14-.16a79.78,79.78,0,0,1,13.13-8.65C237.68,10.76,238.13,11.28,238.61,11.81Z" style="fill:#efb000"/><path d="M256.69,19a5.13,5.13,0,0,1-2.16,3.31c-.51.24-.7.92-.48,1.82-3,1.47-5.71,2.8-7.86,3.81-.95.44-2.19,1.06-3.64,1.81a5.31,5.31,0,0,1-2-2.23h0C245.82,24.46,251.34,21.5,256.69,19Z" style="fill:#efb000"/><path d="M237,130.73c-1.32,0-2.64,0-3.78-.07-15.94-14.86-34.09-32.33-39.83-37.88a7.22,7.22,0,0,0,1.4-.64C200.5,97.34,221.46,116.52,237,130.73Z" style="fill:#d90218"/><path d="M244.38,128.23c-.82-.59-1.44-1.07-1.82-1.41-2.65-2.36-36.06-28.67-45.61-36.18a16.37,16.37,0,0,0,1.57-1.39l.26.2c1.91,1.47,26.83,20.42,43.78,32.94A13,13,0,0,0,244.38,128.23Z" style="fill:#d90218"/><path d="M259.48,71.66c-1.07.8-2.85.88-4.26.83A3.54,3.54,0,0,0,253,73.81h0c-14.1-.54-39.26-1.56-40.2.19-1.09,2-.22,1.81,7.36,2.67,6.68.77,19.57,3.79,26.4,5h0a21.88,21.88,0,0,1,3.11,2.6,3.41,3.41,0,0,1,.67,1.15c-6.58-1.48-12.92-3.29-16.11-3.38-5.41-.16-21.66-3.13-26.64-3.7l-.16,0c1.15-.93,1.47-2-.17-3.59-1.83-1.76-3.06-2.38-3.66-3C212.06,71.4,252.63,70.84,259.48,71.66Z" style="fill:#d90218"/><path d="M21,67.22a2.14,2.14,0,1,1,2.14,2.14A2.14,2.14,0,0,1,21,67.22Z" style="fill:#eae3dd"/></g></g></svg>