<svg xmlns="http://www.w3.org/2000/svg" viewBox="0 0 272.58 203.34"><title>tamasaba</title><g id="Layer_2" data-name="Layer 2"><g id="Ñëîé_2" data-name="Ñëîé 2"><path d="M264.59,46.23c-2.63-1-4.31-1.09-5.59-.6-10.62-5.91-32.7-14.35-58.44-2-36.2,17.43-40.77,17-45.73,17.81s3.43,4.19,16,0c12-4,41.63-30.31,84.36-12.38a21.87,21.87,0,0,1-1.66,1.71,40.22,40.22,0,0,1-6.62,4.58c-10.41-3.57-36-10.08-59.22,1.83-28.27,14.51,13.46-8,36.79,5.13a14.14,14.14,0,0,1-6,1.8,9.45,9.45,0,0,0-4.21,1.23c-19.52-6.49-37.54.38-42.28,2.3-5.43,2.19-22,2.09-14.58,3.23s10.58.57,26.87-2.86a65,65,0,0,1,27.5.53,35.21,35.21,0,0,1-4,6.62,14.06,14.06,0,0,1-9.1,5.52c-37.16-14.31-58,3-45.33-1.33,8.24-2.81,23.72.18,34.45,3-1.7,1.36-2.35,3.32-.23,4.26,3.36,1.5,4.53,2.26,6.37,5.51-7.2-.38-18.3-2-25.13-5.33-10.29-5-1.15,1.31,6,5.43,6.52,3.75,13.28,5.84,24.84,6.68,2.68,2.92,5.44,6.09,6.32,8.46-9.39-1.2-34.94-5.28-47.17-15.51-14.58-12.2,10.79,22.85,51.37,26.5.92,2.16,5.23,4.13,5.23,6.37a1.09,1.09,0,0,0,0,.18c-8.26-.15-21.31-1.24-28-6.28-9.82-7.36,1.2,12.63,34.06,13.45a4.88,4.88,0,0,1,.82,2.56c0,4.19,5,6.1,5.33,8.76a4.86,4.86,0,0,0,1.09,1.9c-9.61.65-19.58-3.71-24.15-6.05a.54.54,0,0,0-.64.85C215,152.29,229.63,156,238,157.05a47.21,47.21,0,0,1,4.8,9.65c-26.66.09-57.17-38.7-68.24-53.2-12-15.72-23.43-13.15-19-11.43s7,1.71,40.76,43.16c23.83,29.28,40.53,30.88,48.27,29.29.46,9.71-8.57,9.6-16.16,6.62-8.77-3.43-30.5-27.81-55.27-56.4C156.55,105.62,143.74,97.25,136.26,94a42.85,42.85,0,0,0,5-15.24c1.52-13-4.69-21.19-4.95-21.52a54.88,54.88,0,0,0,7.45-.52c9.38-1.35,20.29-5.65,44.62-16.57,37.35-16.77,69-8.39,78.89,0S271.45,48.9,264.59,46.23Z" style="fill:#dfecf4"/><path d="M136.3,57.23c-2.52,0-5.16-.12-8.15-.32a21,21,0,0,1-11.81-6.68c-5-5.71-17.53-15-37-14.29a57.7,57.7,0,0,0-13.79,2.14A67.52,67.52,0,0,0,82,39.37c6.1-.19-1.14-3.14,9.53.05s16.77,6.24,17.34,7.77,3.43,3.81,5.72,5.53,9.33,5,11.62,5.14,3.05.57,3.05,1.9-2.86,1.34-4,4.58-2.47,6.47-4.19,6.47-4-1.9-6.67-1.71-5.52-.95-4.19-3.24,3.62-3.62,1.33-5.71-2.28-5-5.71-4.58-5.34,3.43-4.38,4.58-3,1.14-3.4,2.86.54,3.43-2.89,3.23-6.86-1.33-8.57.57-3.82,3.24-2.49,5.72S87,77.49,86,79.2s-1,.19-2.67,2.48,1,5.71-1.14,6.1-3.81,1.52-3-1.15,2.48-4-.57-3.43S75.94,85.49,76.33,87s-1.15,2.29-1.91,3.43-2.48.19-3.43,2.29,1.52,3-2.29,5.33-6.48.39-6.67-1.14-.57-1.71-3.62-3-6.29-2.66-6.29-4.76S51.74,79,46.41,79s-9.91-.19-10.87,1.52-2.28,3.6-5.52,3.52-4.57-1-7.43-1.61-1.53-2.28-4-2.28c-2.14,0-5-.86-1.94-5.24a30.86,30.86,0,0,0-7.59,5C3.86,84.8,1,86.72.23,89.47c0,0,5.3,5.93,5.78,8.5.44,2.39-1.76-3.74-5.68-4.23.17.77.42,1.63.73,2.61,1.21,3.82,4.64,8.39,8.92,12.79l0,0c.44.35,9,7.12,16.78,4.34,8-2.86,10.67-21.15,9.72-25.25s-1.14-5.62,3.62-6.38c3-.48,6.18,2.36,8.81,6.36a38.3,38.3,0,0,1,4,8c2,5.62,2.81,12.34,1.25,18.24-2,7.37-7,9.54-13.85,11.23a24.19,24.19,0,0,1-8.09.58c3.89,2.72,4.23,3.81,6.77,7.63,2.94,4.41,7.84,12.17,20.91,14.9-2-3-3.8-5.87-4.91-7.66-3.07-4.95-10.47-15.24-7.8-16s6.48-.19,6.29,2.48A10.2,10.2,0,0,0,55,132.94c1.49,4.26,8,9.71,9.92,11.05s2.1,2.67,3.62,3.33c.86.38,1.18,1.12,1.47,2.47.88,0,1.78,0,2.71,0a66.11,66.11,0,0,0,9.71-1,50.38,50.38,0,0,0,27.91-14.3c16.08-41.28-13.22-45.6,1.26-52.7,13.43-6.59,27.68-3.54,29.68-3.07C142.77,65.72,136.56,57.56,136.3,57.23ZM21.64,98.08a7,7,0,1,1,7-7A7,7,0,0,1,21.64,98.08Zm84,28.43c-7.15,9.86-19.69,13.49-31.33,13.4a44.85,44.85,0,0,1-7.14-.58c-4.54-.82-8.87-2.76-7.54-7.4,1.66-5.77,7.49-8.66,12.53-10.92,6-2.7,12.22-5.38,17.32-9.7,3.93-3.33,7.28-6.3,12.77-5.76C113.69,106.67,110.19,120.24,105.63,126.51Z" style="fill:#f9f9f9"/><path d="M.33,93.74a8.42,8.42,0,0,1-.1-4.27S5.53,95.4,6,98C6.45,100.36,4.25,94.23.33,93.74Z" style="fill:#414142"/><path d="M54.14,114.45c-2,7.37-7,9.54-13.85,11.23a24.19,24.19,0,0,1-8.09.58,0,0,0,0,1,0,0c-.82-.56-1.8-1.21-3-2,22.73-3,21.12-27.16,19.72-36.06a38.3,38.3,0,0,1,4,8C54.92,101.83,55.7,108.55,54.14,114.45Z" style="fill:#efefef"/><path d="M29.21,124.29h0c-.77-.5-1.64-1-2.61-1.64A93.45,93.45,0,0,1,10,109.16c.44.35,9,7.12,16.78,4.34,8-2.86,10.67-21.15,9.72-25.25s-1.14-5.62,3.62-6.38c3-.48,6.18,2.36,8.81,6.36C50.33,97.13,51.94,121.27,29.21,124.29Z" style="fill:#f2f4f4"/><path d="M126.25,57.86c-2.29-.19-9.34-3.43-11.62-5.14s-5.15-4-5.72-5.53-6.67-4.58-17.34-7.77-3.43-.24-9.53-.05a67.52,67.52,0,0,1-16.46-1.29h0a39.73,39.73,0,0,0-15.28,8h0A27.94,27.94,0,0,0,43,55.76C38.4,66.05,35.9,69.61,31.54,70.44a53.2,53.2,0,0,0-14.89,4.48c-3,4.38-.2,5.24,1.94,5.24,2.47,0,1.14,1.71,4,2.28S26.78,84,30,84.05s4.58-1.8,5.52-3.52S41.07,79,46.41,79s5.71,8,5.71,10.1,3.24,3.43,6.29,4.76,3.43,1.53,3.62,3,2.86,3.43,6.67,1.14S70,94.82,71,92.73s2.67-1.14,3.43-2.29,2.28-1.9,1.91-3.43-.77-3.24,2.28-3.81,1.33.76.57,3.43.95,1.53,3,1.15-.57-3.82,1.14-6.1,1.72-.76,2.67-2.48-.57-4.19-1.91-6.67.77-3.81,2.49-5.72,5.14-.76,8.57-.57,2.48-1.52,2.89-3.23,4.35-1.72,3.4-2.86,1-4.2,4.38-4.58,3.43,2.48,5.71,4.58,0,3.43-1.33,5.71,1.53,3.43,4.19,3.24,5,1.71,6.67,1.71,3.05-3.23,4.19-6.47,4-3.24,4-4.58S128.53,58.05,126.25,57.86ZM98.56,54c-5.06,3.21-11,5.23-16.36,7.81-9.44,4.51-22,11.92-31.91,4.45-6.82-5.13,5.82-13.39,9.57-15.78A42.46,42.46,0,0,1,89.44,44.2C93.48,44.86,106.57,48.9,98.56,54Z" style="fill:#ff3a28"/><path d="M141.25,78.75a42.85,42.85,0,0,1-5,15.24c-3.69-1.6-6.08-2-7-1.74-2.67.67-4.29,3.15-4,6.48a45.54,45.54,0,0,1,0,6.77c-3.14,13-8.52,22.38-15,29,16.08-41.28-13.22-45.6,1.26-52.7C125,75.23,139.25,78.28,141.25,78.75Z" style="fill:#f2f4f4"/><path d="M199.68,98.92c-11.56-.84-18.32-2.93-24.84-6.68-7.15-4.12-16.29-10.47-6-5.43,6.83,3.35,17.93,5,25.13,5.33l.12.21C194.9,93.82,197.26,96.27,199.68,98.92Z" style="fill:#d3e0ea"/><path d="M198.71,80.72a37.25,37.25,0,0,1-6.91.2,6.58,6.58,0,0,0-4,1.45c-10.73-2.8-26.21-5.79-34.45-3C140.67,83.73,161.55,66.41,198.71,80.72Z" style="fill:#d3e0ea"/><path d="M210.2,118.37c-40.58-3.65-65.95-38.7-51.37-26.5,12.23,10.23,37.78,14.31,47.17,15.51a4,4,0,0,1,.28,1.36c0,4.19,4.57,5.71,3.81,8.38A1.8,1.8,0,0,0,210.2,118.37Z" style="fill:#d3e0ea"/><path d="M214.26,65.38a7.61,7.61,0,0,0-2.49,3.2,65,65,0,0,0-27.5-.53c-16.29,3.43-19.44,4-26.87,2.86s9.15-1,14.58-3.23C176.72,65.76,194.74,58.89,214.26,65.38Z" style="fill:#d3e0ea"/><path d="M221.47,132.09c-32.86-.82-43.88-20.81-34.06-13.45,6.72,5,19.77,6.13,28,6.28C215.66,127,219.7,129.24,221.47,132.09Z" style="fill:#d3e0ea"/><path d="M238,157.05c-8.36-1.09-23-4.76-34.07-16.94a.54.54,0,0,1,.64-.85c4.57,2.34,14.54,6.7,24.15,6.05C230.56,147.68,234.46,151.56,238,157.05Z" style="fill:#d3e0ea"/><path d="M244.55,174.52c-7.74,1.59-24.44,0-48.27-29.29-33.73-41.45-36.36-41.45-40.76-43.16s7-4.29,19,11.43c11.07,14.5,41.58,53.29,68.24,53.2.3.85.58,1.73.84,2.63A23.84,23.84,0,0,1,244.55,174.52Z" style="fill:#d3e0ea"/><path d="M246.92,55.39a25.91,25.91,0,0,1-7.1,3c-2.67.38-6.1,1.91-10.29,1.91-2.43,0-3.32,1-5,2-23.33-13.11-65.06,9.38-36.79-5.13C210.91,45.31,236.51,51.82,246.92,55.39Z" style="fill:#d3e0ea"/><path d="M259,45.63c-1.51.59-2.48,1.95-3.8,3.47-42.73-17.93-72.31,8.36-84.36,12.38-12.58,4.19-21,.76-16,0s9.53-.38,45.73-17.81C226.3,31.28,248.38,39.72,259,45.63Z" style="fill:#d3e0ea"/><path d="M144.93,42.69c-18.56-1.06-26.45,7.09-26.68,7.33A41.42,41.42,0,0,1,145,46.75c0,1.3.68,2.82-.66,3.48a.88.88,0,0,0-.39.37c-11.06-2.22-21,2.69-21,2.69,5.76-2.31,16.63-1.13,21.6-.41a5.69,5.69,0,0,1-.86,3.83,54.88,54.88,0,0,1-7.45.52c-2.52,0-5.16-.12-8.15-.32a21,21,0,0,1-11.81-6.68c-5-5.71-17.53-15-37-14.29a57.7,57.7,0,0,0-13.79,2.14h0c-5.4-1.12-1.83-5-2-7.62a3.36,3.36,0,0,0-1.06-2.32c4.18-4.87,9.17-9.53,14.59-12.2C92.14,8.5,112,2.22,116,1.46s6.46-2.85,5.53,0h0c-9.54,2.9-47.16,15-55.63,27.92C66.32,29,93.62,9,119.75,5.79A8.76,8.76,0,0,0,119,8.41C111.64,9.88,86.53,15.8,74,30.51c0,0,26.17-17.08,46.15-18.9a1.17,1.17,0,0,0,.24.32c.75.75.61,1.58.75,2.38-8.21,1.88-29,7.31-40.19,16.2,0,0,25.37-11,41.5-12.6a9.69,9.69,0,0,0,.73,2.24c-8.17,2-27.23,7.1-29.46,11.32,0,0,16.09-5.86,32-8a13.87,13.87,0,0,0,1.91,1.38c-.49.08-15.8,2.77-22.08,10.71,0,0,13.3-6.73,27-8h0c.79.49,1.53,1,2.24,1.52C113.81,32.35,111.09,42.25,111,42.59c6.47-8.08,19.79-10.88,25.93-11.76a33,33,0,0,1,3.54,3.6C122.9,36.52,115.15,46,114.89,46.3a45,45,0,0,1,28.82-7.25c1.56,2.46,2.27,2.66,1.4,3.18A.35.35,0,0,0,144.93,42.69Z" style="fill:#dfecf4"/><path d="M121.49,1.44v0c-.43,1.25-1.18,2.89-1.74,4.33C93.62,9,66.32,29,65.86,29.36,74.33,16.42,112,4.34,121.49,1.44Z" style="fill:#d3e0ea"/><path d="M120.1,11.61C100.12,13.43,74,30.51,74,30.51,86.53,15.8,111.64,9.88,119,8.41c0,.5.14.81.56.86C121.13,9.44,119.55,10.56,120.1,11.61Z" style="fill:#d3e0ea"/><path d="M122.4,17.91c-16.13,1.55-41.5,12.6-41.5,12.6,11.16-8.89,32-14.32,40.19-16.2a2.11,2.11,0,0,0,.6,1.25C122.08,16,122.15,16.8,122.4,17.91Z" style="fill:#d3e0ea"/><path d="M125.66,23.44c-15.9,2.17-32,8-32,8,2.23-4.22,21.29-9.3,29.46-11.32A9.45,9.45,0,0,0,125.66,23.44Z" style="fill:#d3e0ea"/><path d="M132.45,27.51c-13.66,1.29-27,8-27,8,6.28-7.94,21.59-10.63,22.08-10.71a16.91,16.91,0,0,0,1.54.83C130.3,26.24,131.41,26.86,132.45,27.51Z" style="fill:#d3e0ea"/><path d="M136.94,30.83c-6.14.88-19.46,3.68-25.93,11.76.08-.34,2.8-10.24,23.69-13.56C135.5,29.62,136.25,30.23,136.94,30.83Z" style="fill:#d3e0ea"/><path d="M143.71,39.05a45,45,0,0,0-28.82,7.25c.26-.32,8-9.78,25.59-11.87a28.62,28.62,0,0,1,2.73,3.8C143.39,38.53,143.55,38.8,143.71,39.05Z" style="fill:#d3e0ea"/><path d="M145.48,45.28a1.93,1.93,0,0,0-.47,1.47A41.42,41.42,0,0,0,118.25,50c.23-.24,8.12-8.39,26.68-7.33C145.14,43.32,146.52,44.24,145.48,45.28Z" style="fill:#d3e0ea"/><path d="M144.61,52.88c-5-.72-15.84-1.9-21.6.41,0,0,9.89-4.91,21-2.69C143.74,51.13,144.37,51.91,144.61,52.88Z" style="fill:#d3e0ea"/><path d="M65.58,38.08a39.73,39.73,0,0,0-15.28,8A105.5,105.5,0,0,1,62.5,28.14a3.36,3.36,0,0,1,1.06,2.32C63.75,33.09,60.18,37,65.58,38.08Z" style="fill:#ff3a28"/><path d="M25.25,91.87a3.62,3.62,0,1,1-3.61-3.62A3.61,3.61,0,0,1,25.25,91.87Z" style="fill:#414142"/><path d="M21.64,84.05a7,7,0,1,0,7,7A7,7,0,0,0,21.64,84.05Zm0,12.16a5.15,5.15,0,1,1,5.14-5.15A5.15,5.15,0,0,1,21.64,96.21Z" style="fill:#ff3a28"/><path d="M21.64,85.92a5.15,5.15,0,1,0,5.14,5.14A5.14,5.14,0,0,0,21.64,85.92Zm0,9.57a3.62,3.62,0,1,1,3.61-3.62A3.62,3.62,0,0,1,21.64,95.49Z" style="fill:#ff7f29"/><path d="M98.56,54c-5.06,3.21-11,5.23-16.36,7.81-9.44,4.51-22,11.92-31.91,4.45-6.82-5.13,5.82-13.39,9.57-15.78A42.46,42.46,0,0,1,89.44,44.2C93.48,44.86,106.57,48.9,98.56,54Z" style="fill:#ff6153"/><path d="M141.84,201.31a13.08,13.08,0,0,1-2.06,1.37c-3.81,2.1-15.06-.57-34.11-11.05-17.24-9.49-30.6-36.76-33-41.86a66.11,66.11,0,0,0,9.71-1c14.65,7.3,22.31-2.55,23.84-1.4s1.53,4.19,5.53,3.43c2.61-.5,2.46,1.44,2.94,3-6,2.81-18.47,6.56-31.33-2,.22.32,9.27,13.13,35.65,6.52.12.58.26,1.08.74,1.28.73.32.94,2.29,1.3,5.2-8,2.25-24.12,4.45-37.7-8.44,0,0,11.73,18,38.71,14.81.16.77.34,1.55.55,2.34.5,1.88.93,3.47,1.33,4.82,0,0-22.14-1.33-31.82-10C95,171,108.53,182.63,127,184.81a9.89,9.89,0,0,0,.92.91c2.48,2.09,1.91,3.43,4,4.95a2.11,2.11,0,0,1,1,1.61s-19.65-.91-33.61-10.74C100,182.07,118.25,198.29,141.84,201.31Z" style="fill:#dfecf4"/><path d="M119,158.33c-26.38,6.61-35.43-6.2-35.65-6.52,12.86,8.6,25.32,4.85,31.33,2a2.2,2.2,0,0,0,1.82,1.76C118.61,156,118.81,157.29,119,158.33Z" style="fill:#d3e0ea"/><path d="M122.08,171.18c-27,3.19-38.71-14.81-38.71-14.81,13.58,12.89,29.72,10.69,37.7,8.44C121.3,166.62,121.58,168.81,122.08,171.18Z" style="fill:#d3e0ea"/><path d="M127,184.81c-18.51-2.18-32-13.79-34.9-16.46,9.68,8.66,31.82,10,31.82,10C124.92,181.49,125.76,183.38,127,184.81Z" style="fill:#d3e0ea"/><path d="M141.84,201.31c-23.59-3-41.84-19.24-42.44-19.77,14,9.83,33.61,10.74,33.61,10.74.1.46.32.68,2.38.68,3.82,0,3.62,2.47,6.1,4.19C143.4,198.48,143.61,199.81,141.84,201.31Z" style="fill:#d3e0ea"/><path d="M105.63,126.51c-7.15,9.86-19.69,13.49-31.33,13.4a44.85,44.85,0,0,1-7.14-.58c-4.54-.82-8.87-2.76-7.54-7.4,1.66-5.77,7.49-8.66,12.53-10.92,6-2.7,12.22-5.38,17.32-9.7,3.93-3.33,7.28-6.3,12.77-5.76C113.69,106.67,110.19,120.24,105.63,126.51Z" style="fill:#fdfdfd"/><path d="M69.47,161c-2-1.1-6.07-6.85-9.59-12.16-2-3-3.8-5.87-4.91-7.66-3.07-4.95-10.47-15.24-7.8-16s6.48-.19,6.29,2.48A10.2,10.2,0,0,0,55,132.94c1.49,4.26,8,9.71,9.92,11.05s2.1,2.67,3.62,3.33c.86.38,1.18,1.12,1.47,2.47.21,1,.41,2.43.82,4.3C71.74,158.38,72.51,162.66,69.47,161Z" style="fill:#dfecf4"/><path d="M23.5,89.67a1.76,1.76,0,1,1,1.75,1.76A1.76,1.76,0,0,1,23.5,89.67Z" style="fill:#f9f9f9"/></g></g></svg>