<svg xmlns="http://www.w3.org/2000/svg" viewBox="0 0 258.92 184.9"><title>veil-tail-guppy</title><g id="Layer_2" data-name="Layer 2"><g id="Ñëîé_2" data-name="Ñëîé 2"><path d="M139.36,63.28a14.6,14.6,0,0,1-13.86,5.94c-5.44-2.47-23.58-8.74-38.92-8.08a28.5,28.5,0,0,0-8.74,1.69c13.82-8.67,15.46-1.58,29.19-2.3s13.19-11.27,1.15-16.64S80,32.44,64,37.34,33.3,45.63,20.77,47.28c-6.25.83-8.07,2.87-8,5.58a5,5,0,0,0,2,6.29c.47,1.08,1,2.19,1.4,3.31,1.3,3.41,5.47,6.34,9.59,8.51C13.23,68.72,4.21,64.09.64,57.51-4.64,47.78,23.57,40.19,50,32.6a98.26,98.26,0,0,1,27.88-4c13,.09,23,3.08,28.86,6.3,6.36,3.51,19.14,7,27,9,4,1,6.67,1.58,6.67,1.58S145.13,55.7,139.36,63.28Z" style="fill:#0f356d"/><path d="M108.18,43.89C96.14,38.52,80,32.44,64,37.34S33.3,45.63,20.77,47.28c-6.25.83-8.07,2.87-8,5.58a5,5,0,1,1,2,6.29c.47,1.08,1,2.19,1.4,3.31,1.3,3.41,5.47,6.34,9.59,8.51a110.69,110.69,0,0,0,20.1,1.55,49.48,49.48,0,0,0,16.61-2.64,52.74,52.74,0,0,0,6.09-2.64,85.51,85.51,0,0,1,9.3-4.41c13.82-8.67,15.46-1.58,29.19-2.3S120.22,49.26,108.18,43.89ZM35.83,68.78c-6.21.55-8.37.48-5.88-1.54,0,0,7.92-5.06,7.26-12.65s2.64-5.27,4.5,1.44S42,68.23,35.83,68.78Zm66.25-15.94C100,56.47,94.28,56,86,54.71s-18.92,8.46-18.92,8.46c-3.65,3.35-10.34,4.67-14.71,2-3.62-2.17-4.82-7.16-3.73-11s4.19-7.07,7.41-9.3a32,32,0,0,1,19.17-5.47C91.85,39.91,104.17,49.21,102.08,52.84Z" style="fill:#133b81"/><path d="M165.5,66.36c-2.94-.22,15.15,8.8,19.63,19.57s10.09,17.6,25.1,17.38c12.3-.18,28.29,1.85,40.9,10.33-3.5,2.19-3.41,4.33-3.29,7.23-18.53-10.93-36.79-6.54-40.71-7.89-4.46-1.53-14.22-7.69-7.65,0s11.46,3.08,27.08,6.38a41,41,0,0,1,17.9,9.17c-2.36.31-3.8,1.36-1.85,2.71,2.86,2,4.84,3.08,3.08,4.62-1.56,1.36-4.67,2.38-5.05,5-13.75-9.38-35.55-18.13-43.55-20.44-9.9-2.86-8.36-9.67-15.4-22.43S160.36,80.88,167.4,87.19A65.09,65.09,0,0,1,185.13,115c3.22,10.85,8.88,8.06,20.53,14.73l26.06,14.87c-.77.57,2.39,3.86,5.83,6.61,4.4,3.52,5.5,5.06-.22,7.92-5,2.48-6.45,2.81-6.61,5.31C219.08,151,196.6,133.1,188.51,132.4c-9.45-.81-11.66-11.94-18.26-27.55s-23.09-14.08-15.83-10.43,13.2,8,18.47,26.92,13.42,13,26.84,23.74,27.65,27.72,27.65,27.72a10.89,10.89,0,0,1-1.48.45c-4.84,1.09-2.64-.89-6.16,1.75s-7,.22-8.8,0a1.76,1.76,0,0,0-.51,0c-5.33-10.92-16.09-18.76-25.3-24.86-11.29-7.48-28.73-38.49-22.79-21.55s14.51,21.11,24.85,30.57c7.63,7,12,16.6,13.8,21.15q-.63-.24-1.35-.48c-6.07-2-6.73-.38-8.71,2.67-.13.2-.25.39-.37.56-3.9-10-14.32-20.61-21.84-29.84-9.68-11.88-17.16-27-21.22-35.61s-9.13-29.71-9.35-21.23,5.5,21.87,11,38.36c4.05,12.12,18.42,33.51,25.75,44-.22-.2-.44-.42-.68-.67-4.62-4.83-3.51-5.49-6.59-4s-15.19-14.07-25.41-35.84c-8.21-17.49-15.07-41.08-16.6-58a9,9,0,0,0,5.88-1.48c4.65-3,6.55,1,15,1.81S157.83,73.84,157,67.24s.49-5.94,11.21-9.4,9.57-10.39,4.29-15.27c-3.42-3.16-12.38-2.22-18.25-1.17h-1.64c6.69-2,14.72-4.07,20.27-4.29,11.22-.44,29.92-3.3,35.85-10.33S230.07,11.6,239.75,9s11.44-.22,10.12,4.4a14.37,14.37,0,0,1-1.55,3.37c-7.95.41-22.3,2.84-32.1,14.22C202,47.45,197.34,45,186.86,47.09s9.24,5.64,17.15,1.35a65.74,65.74,0,0,0,18.64-14.88c4.75-5.3,16.15-11.44,31.82-9.88h0c.85,1.17.15,2.41-1.52,4a6.5,6.5,0,0,0-1.72,3.76c-6-.6-16.31-.42-22.14,7.12-8.42,10.89-10.89,10.52-17.16,12s6.27,4.22,13.36-.1c6.3-3.84,10-13.3,26.66-11.36h0a3.54,3.54,0,0,0,.34.65c1.32,2,2.64,6.16,1.54,7s.87,3.74-2.64,7.7c-1.71,1.92-2.54,3-3,4.16-6.05-1-16.74-2.1-25.72,1-13.36,4.62-27.38,0-35.79-3.29s-1.49,5.27,11.05,10.06a46,46,0,0,0,33,0c4-1.65,10.16-.14,16.06,2.79a7.56,7.56,0,0,1-2.86,4.41c-2.64,2.2-.44,1.32-3.3,1.32s-6.6,1.54-1.54,4.84c.53.34,1,.66,1.48.94-6.79-1.64-16.79-3.44-23.25-1.82-10.55,2.64-12.1.94-16.72-.63s5.72,9.29,16.72,8.92c9.37-.32,17.7-4,34.64,6.72a.91.91,0,0,1-.11.16c-1.1,1.32,5.31,2.86,3,4.18s-3,3.08,1.84,5.5c2.84,1.41,2.73,3.36,1.05,5.31-6.84-4.71-21.94-13.73-38.43-14.64C196.87,93.19,190,83,183,75A24,24,0,0,0,165.5,66.36Z" style="fill:#133c77"/><path d="M190.56,183.07c-1.65,2.51-2.12,2.55-6.23-.56s-5.37,0-9.43-3.75h0c-7.33-10.49-21.7-31.88-25.75-44-5.49-16.49-11.21-29.89-11-38.36s5.28,12.67,9.35,21.23,11.54,23.73,21.22,35.61C176.24,162.46,186.66,173,190.56,183.07Z" style="fill:#536dad"/><path d="M210.43,175c-1.65.24-3.49,2.52-3.89,5.71s-.76,1.45-5.55-.4c-1.77-4.55-6.17-14.17-13.8-21.15-10.34-9.46-18.92-13.63-24.85-30.57s11.5,14.07,22.79,21.55C194.34,156.25,205.1,164.09,210.43,175Z" style="fill:#0f356d"/><path d="M227.38,172.8s-14.24-17-27.65-27.72-21.56-4.82-26.84-23.74-11.21-23.27-18.47-26.92,9.24-5.19,15.83,10.43,8.81,26.74,18.26,27.55c8.09.7,30.57,18.62,42.21,32.08,0,.37,0,.8,0,1.28C230.93,169.08,230.78,171.52,227.38,172.8Z" style="fill:#536dad"/><path d="M241.07,147.73c-1.1,1.54-3.52-1.32-7.7-2.85-.91-.34-1.43-.39-1.65-.24l-26.06-14.87C194,123.1,188.35,125.89,185.13,115A65.09,65.09,0,0,0,167.4,87.19c-7-6.31,7.25-1.92,14.29,10.84s5.5,19.57,15.4,22.43c8,2.31,29.8,11.06,43.55,20.44h0a3.74,3.74,0,0,0,0,1.11C241.07,145.54,242.17,146.19,241.07,147.73Z" style="fill:#0f356d"/><path d="M248.11,128.6a12.5,12.5,0,0,0-3.65-.07,41,41,0,0,0-17.9-9.17c-15.62-3.3-20.51,1.32-27.08-6.38s3.19-1.53,7.65,0c3.92,1.35,22.18-3,40.71,7.89,0,.56,0,1.16,0,1.79C247.89,126.84,252.06,129.26,248.11,128.6Z" style="fill:#536dad"/><path d="M257.73,109.06a19.09,19.09,0,0,1-5.44,3.92c-.42.22-.81.44-1.16.66-12.61-8.48-28.6-10.51-40.9-10.33-15,.22-20.62-6.6-25.1-17.38S162.56,66.14,165.5,66.36A24,24,0,0,1,183,75c7,8,13.87,18.2,36.3,19.43C235.79,95.33,250.89,104.35,257.73,109.06Z" style="fill:#0f356d"/><path d="M252,93.91c-16.94-10.76-25.27-7-34.64-6.72-11,.37-21.34-10.49-16.72-8.92s6.17,3.27,16.72.63c6.46-1.62,16.46.18,23.25,1.82h0c4,2.51,5.54,3.32,7.32,6.09C249.79,89.77,252.71,92.53,252,93.91Z" style="fill:#536dad"/><path d="M248.21,58.65c-.49,1.26-.54,2.69-.76,5.51a34.1,34.1,0,0,1-.66,5c-5.9-2.93-12-4.44-16.06-2.79a46,46,0,0,1-33,0c-12.54-4.79-19.47-13.36-11.05-10.06s22.43,7.91,35.79,3.29C231.47,56.55,242.16,57.62,248.21,58.65Z" style="fill:#0f356d"/><path d="M252,39.1c-16.7-1.94-20.36,7.52-26.66,11.36-7.09,4.32-19.63,1.61-13.36.1s8.74-1.13,17.16-12c5.83-7.54,16.17-7.72,22.14-7.12A15.91,15.91,0,0,0,252,39.1Z" style="fill:#536dad"/><path d="M254.47,23.68c-15.67-1.56-27.07,4.58-31.82,9.88A65.74,65.74,0,0,1,204,48.44c-7.91,4.29-27.63.72-17.15-1.35S202,47.45,216.22,31c9.8-11.38,24.15-13.81,32.1-14.22-1.24,2.1-1.95,3.16,1.93,4.55C252.53,22.09,253.88,22.87,254.47,23.68Z" style="fill:#0f356d"/><path d="M179.71,32.7c-2.75.63-7.68,1.4-11.44.12-5.49-1.87-7.69-2.86-10.55-2.31s5.5-4.06,10.88-2.41a25.19,25.19,0,0,0,8.33,1c.11-.16.23-.32.36-.49,1.65-2,4.13-.13,1.65-3.59a5.7,5.7,0,0,1-.8-1.44c-4-.29-9-.25-11.66,1.32-4.8,2.87-17.77,2.1-22.39,7.49s-7.48,4.94-7.48,4.94,3-2.31,3.75-5.06,3.4-4.94,10.21-6.48,12.94-2.19,14.61-3.85c1.46-1.44,11.69-3.13,19.83-1.42a11.59,11.59,0,0,0-1.45-1.11,34.26,34.26,0,0,0-6.07-3.75h0c-3.73-.52-11.62-1.16-15,2.22-4.45,4.51-12.37,3.08-17.86,6.27a71.1,71.1,0,0,0-7,4.41,25.4,25.4,0,0,1,9.88-8.75c6.81-3.47,10.11-3.14,12.86-5.12a13.38,13.38,0,0,1,6.31-1.94,13.56,13.56,0,0,1-1.37-1.47c-7.66,1-16.3,3.54-19.89,6.05C141,20.4,134,22.82,127.7,21.06s-13.86,2.19-13.86,2.19,1.44-6.59,9.35-6.59,7,2.53,17.84-2.31c7.68-3.44,17.17-4.88,22.44-5.39-.26-.34-.55-.7-.86-1.09-.64-.83-1.14-1.46-1.54-1.94C151,6.8,137.46,10.78,133.2,12c-5.61,1.63-11.77-1.95-14.63-2.94s-7.14.66-5.16-.59,1.54-1.28,10-.61,9.79,1.42,17.48-1.54a57.21,57.21,0,0,1,14.22-3.52h0c1.56-.32,2-.44-1.11-1.7C148.76-1,150.74.28,144,2.25s-9.08,2.81-15,2.48-8.09-2.15-24.74,3.14S77.84,28.61,77.84,28.61c13,.09,23,3.08,28.86,6.3,6.36,3.51,19.14,7,27,9,.44-2.24,3-3.7,7.65-3.86s6.26-1.16,8.41-3.63,6.6-2.31,16.33-1C175.45,36.68,181.76,33.67,179.71,32.7Zm-46.13,3.53c-1.15,3-4.61,4.18-4.61,4.18-2.25,1.23-10.23-2.86-15.18-5.83s-6.1-3.79-19.13-6-7.42-4.75-1.16-11.18S108.84,11,110.08,13.8s1.57,5.28.25,9.4,2.8,4.29,11.54,4S134.74,33.26,133.58,36.23Z" style="fill:#133c77"/><path d="M179.71,32.7c-2.75.63-7.68,1.4-11.44.12-5.49-1.87-7.69-2.86-10.55-2.31s5.5-4.06,10.88-2.41a25.19,25.19,0,0,0,8.33,1c-1.11,1.72-.06,2.75,2.51,3.5Z" style="fill:#0f4491"/><path d="M182.57,21.39c-2.61.41-5.1.25-4.43,2.19-4-.29-9-.25-11.66,1.32-4.8,2.87-17.77,2.1-22.39,7.49s-7.48,4.94-7.48,4.94,3-2.31,3.75-5.06,3.4-4.94,10.21-6.48,12.94-2.19,14.61-3.85c1.46-1.44,11.69-3.13,19.83-1.42C185.46,21,184.69,21.05,182.57,21.39Z" style="fill:#536dad"/><path d="M177.47,15.65c-3.73-.52-11.62-1.16-15,2.22-4.45,4.51-12.37,3.08-17.86,6.27a71.1,71.1,0,0,0-7,4.41,25.4,25.4,0,0,1,9.88-8.75c6.81-3.47,10.11-3.14,12.86-5.12a13.38,13.38,0,0,1,6.31-1.94c1.33,1.18,2.6,1.48,5.35,1.57A14.77,14.77,0,0,1,177.47,15.65Z" style="fill:#0f4491"/><path d="M165.3,11.27c-7.66,1-16.3,3.54-19.89,6.05C141,20.4,134,22.82,127.7,21.06s-13.86,2.19-13.86,2.19,1.44-6.59,9.35-6.59,7,2.53,17.84-2.31c7.68-3.44,17.17-4.88,22.44-5.39C164.19,9.88,164.78,10.65,165.3,11.27Z" style="fill:#536dad"/><path d="M161.07,5.93C151,6.8,137.46,10.78,133.2,12c-5.61,1.63-11.77-1.95-14.63-2.94s-7.14.66-5.16-.59,1.54-1.28,10-.61,9.79,1.42,17.48-1.54a57.21,57.21,0,0,1,14.22-3.52,11.76,11.76,0,0,0-4,1.42c-3.3,2.15,2.8.33,6.1.66C160,5.17,158.85,3.21,161.07,5.93Z" style="fill:#0f4491"/><path d="M90.4,81.73c-.3,1-2.17,1-2.17,1-15.34-.66-25.78-12.87-25.78-12.87a52.74,52.74,0,0,0,6.09-2.64c1.75,4.12,9.79,3,10.78,2.64s2,1.81,2.8,2.65c-3-.06-8.42-.35-11.87-1.74-5-2,4.33,3.28,8.82,3.79s-3.79,1.94-10.89-2.12C61.36,68.55,75.63,80.41,90.4,81.73Z" style="fill:#0f4491"/><path d="M168.22,57.84c-10.72,3.46-12,2.8-11.21,9.4s-2.15,14.19-10.56,13.36-10.31-4.78-15-1.81a9,9,0,0,1-5.88,1.48,58.84,58.84,0,0,1-.11-11,14.6,14.6,0,0,0,13.86-5.94c5.77-7.58,1-17.81,1-17.81s1.93-.72,4.94-1.73c.13,1,1.32,3.49,3.18,3.6s1.88,4.28-1,5.46-1.76,3.11-1.1,7-1.32,5.49-3.74,6-5.94,1.21-6,4.07a3.78,3.78,0,0,0,2.31,3.74s12.31,3.63,12.64-3.52-2.75-10.66,4.07-12.64,9.68-3.45,10.67-7c.94-3.39-1.5-8.73-12-9.06,5.87-1,14.83-2,18.25,1.17C177.79,47.45,178.94,54.38,168.22,57.84Z" style="fill:#0f4491"/><path d="M166.3,50.46c-1,3.55-3.85,5-10.67,7S151.89,63,151.56,70.1s-12.64,3.52-12.64,3.52a3.78,3.78,0,0,1-2.31-3.74c.11-2.86,3.62-3.52,6-4.07s4.4-2.2,3.74-6-1.75-5.8,1.1-7,2.86-5.35,1-5.46-3-2.58-3.18-3.6h0l3.53-1.16.09,0c.46-.12,2.55-.64,5.34-1.15C164.8,41.73,167.24,47.07,166.3,50.46Z" style="fill:#095096"/><path d="M121.87,27.16c-8.74.33-12.86.17-11.54-4s1-6.6-.25-9.4S99.77,11,93.5,17.43s-11.87,9,1.16,11.18,14.18,3,19.13,6,12.93,7.06,15.18,5.83c0,0,3.46-1.21,4.61-4.18S130.62,26.83,121.87,27.16Zm.5,7.86c-5-1.87-13.69-6.59-20.82-7.86s-9-1.7-8.71-3.91,5.78-5.87,10.84-6.81,4,4.4,2.8,7.59,3.78,4.58,3.78,4.58,1.28.69,8.31.75,11.77,2,11.55,5S127.32,36.89,122.37,35Z" style="fill:#0f4491"/><path d="M90.4,81.73c-14.77-1.32-29-13.18-22.22-9.27,7.1,4.06,15.38,2.63,10.89,2.12s-13.82-5.8-8.82-3.79c3.45,1.39,8.86,1.68,11.87,1.74.83.82,1,2.3,2.31,3.78s2-.16,4.95,3.14C90.34,80.52,90.56,81.25,90.4,81.73Z" style="fill:#0f356d"/><path d="M35.83,68.78c-6.21.55-8.37.48-5.88-1.54,0,0,7.92-5.06,7.26-12.65s2.64-5.27,4.5,1.44S42,68.23,35.83,68.78Z" style="fill:#0f356d"/><path d="M75.25,39.42a32,32,0,0,0-19.17,5.47c-3.22,2.23-6.31,5.4-7.41,9.3s.11,8.86,3.73,11c4.37,2.62,11.06,1.3,14.71-2,0,0,10.67-9.78,18.92-8.46s14,1.76,16-1.87S91.85,39.91,75.25,39.42ZM61.18,61.63c-5.69,1.16-8.42-2-7.92-6.36S61,45.22,66.78,46.71s5.28,5.69,5.28,5.69C72.72,57.27,66.86,60.48,61.18,61.63Zm29.28-8.24c-6.93-.58-14.44-3-12.62-6.92,1.56-3.34,7.34-2.34,8.91-2l.26.06c6.94,2.18,11.44,4.9,11.61,6.71S97.38,54,90.46,53.39Z" style="fill:#0f4491"/><path d="M90.46,53.39c-6.93-.58-14.44-3-12.62-6.92,1.56-3.34,7.34-2.34,8.91-2l.26.06c6.94,2.18,11.44,4.9,11.61,6.71S97.38,54,90.46,53.39Z" style="fill:#095096"/><path d="M61.18,61.63c-5.69,1.16-8.42-2-7.92-6.36S61,45.22,66.78,46.71s5.28,5.69,5.28,5.69C72.72,57.27,66.86,60.48,61.18,61.63Z" style="fill:#095096"/><path d="M130.12,34.31c-.22,2.91-2.8,2.58-7.75.71s-13.69-6.59-20.82-7.86-9-1.7-8.71-3.91,5.78-5.87,10.84-6.81,4,4.4,2.8,7.59,3.78,4.58,3.78,4.58,1.28.69,8.31.75S130.34,31.4,130.12,34.31Z" style="fill:#095096"/><path d="M17.35,49.86a5,5,0,1,0,5,5A5,5,0,0,0,17.35,49.86Zm0,8a3,3,0,1,1,3-3A3,3,0,0,1,17.35,57.84Z" style="fill:#455e51"/><path d="M20.32,54.87a3,3,0,1,1-3-3A3,3,0,0,1,20.32,54.87Z" style="fill:#2b2b2b"/><path d="M17.9,53.64a1.74,1.74,0,1,1,1.74,1.75A1.74,1.74,0,0,1,17.9,53.64Z" style="fill:#eae3dd"/></g></g></svg>