<svg viewBox="0 0 268.93 192.97"><title>Asset 6</title><g id="Layer_2" data-name="Layer 2"><g id="Ñëîé_2" data-name="Ñëîé 2"><path d="M60.06,28.82A4.87,4.87,0,0,0,61.4,27c.48-1.15.9-1.55,3-1.63s5.22-.57,5.3,1.3a2.52,2.52,0,0,0,.36,1.19c3.27-1.3,7.87-1.9,13.12-1.8a20.79,20.79,0,0,1,1.16-3.47c-3.62-.08-7.53,0-11.79.33a227.44,227.44,0,0,0-25.12,3,6.33,6.33,0,0,1,1.65,5c-.32,5.38,3.26,7.66,1.47,8.56s-3.42-.41-4.56,1.38c-.75,1.18-.64,2.65,1,4.84h0a29.63,29.63,0,0,0,4,4c5.37,4.65-.3,5.14,0,9.05S52,64.51,48,66c-3.36,1.21-8.81,4.85-11.17,8.65,2.06,1,4.22,2.05,6.46,3l1.15.45c.36.15.73.28,1.09.42a55.77,55.77,0,0,0,8,2.36,42.35,42.35,0,0,0,8.83,1H66l1.64,0-.28-2.66a21.46,21.46,0,0,1-2-1.13,42.75,42.75,0,0,1-8.92-7.75s4.72.16,6.19-7.17-4.07-8-4.07-8c3.42-7,9.12-9,9.94-9.62.5-.41,1.24.06,2.13.28a2.47,2.47,0,0,0,1.8-.11c1.65-.82,2.43,1.63,3.24.89s1.63,2.53,3.91,1.88,1.14,2.77,3.1,2.28c-1.4-1.52-1.3-4.53-1-7.3A62.23,62.23,0,0,1,72,41.21a21.49,21.49,0,0,1-3.86-1.67c-1,.89-2.49,1.18-4.3,1.91C61,42.59,62.78,40.06,63,37.62S60.18,34,59,32A2.29,2.29,0,0,1,60.06,28.82ZM57.42,77.53h-.1l-.65,0-1.33,0-.68,0-1,0c-2.06,0-4.18-.06-6.16,0l-1.08,0h-.05l-1,0h0C45.31,74,48.34,71,57.42,77.53Z" style="fill:#eae3dd"/><path d="M49.09,30.94a6.33,6.33,0,0,0-1.65-5h0c-12.41,2.35-18.5,5.3-24.74,8.08-9.46,4.21-15,6.17-16.3,5.95s-3.26-1.3-2,2.83,2.53,5,.17,3.5S.93,43.74.2,45.61s.48,6.11,5.29,9.21c3.31,2.12,5.11,5,8.68,7.69h0C44.76,70.92,41.92,51,40.62,46.5s6.14-.92,6.43-.78c-1.69-2.19-1.8-3.66-1-4.84,1.14-1.79,2.77-.49,4.56-1.38S48.77,36.32,49.09,30.94ZM20.81,53.51a7,7,0,1,1,7-7A7,7,0,0,1,20.81,53.51Z" style="fill:#c40e14"/><circle cx="19.18" cy="46.5" r="3.26" style="fill:#2b2b2b"/><path d="M20.81,39.5a7,7,0,1,0,7,7A7,7,0,0,0,20.81,39.5ZM19.18,49.76a3.26,3.26,0,1,1,3.26-3.26A3.25,3.25,0,0,1,19.18,49.76Z" style="fill:#eae3dd"/><path d="M51.06,58.81c.31,3.91,1,5.7-3.11,7.17-3.36,1.21-8.81,4.85-11.17,8.65-6.71-3.38-12.35-7-16.37-8.65a26.49,26.49,0,0,1-6.22-3.47C44.76,70.92,41.92,51,40.62,46.5s6.14-.92,6.43-.78h0a29.63,29.63,0,0,0,4,4C56.43,54.41,50.76,54.9,51.06,58.81Z" style="fill:#b20b18"/><path d="M57.42,77.53h-.1l-.65,0-1.33,0-.68,0-1,0c-2.06,0-4.18-.06-6.16,0l-1.08,0h-.05l-1,0h0C45.31,74,48.34,71,57.42,77.53Z" style="fill:#c40e14"/><path d="M170.3,57.69c0,.69-.11,1.39-.22,2.1a22.7,22.7,0,0,1-.7,3.26c-.16.52-.32,1-.5,1.5a19.49,19.49,0,0,1-1.79,3.69,16.69,16.69,0,0,1-1.32,1.84s-10.46-7.47-21.68-2.47-7.52,8.91-27.52,9.45q-3.64.1-7,.24a1.41,1.41,0,0,1,.2-.24c1.62-1.63,5.22-2,5.55-5.54s1.63-5.7.81-8.3,1.47-4.9,3.91-8.65a5.44,5.44,0,0,0,.62-1.26c2.46.68,5.66,1.3,8.11.45,2.85-1,2.3-3.73,1.21-5.88a32.22,32.22,0,0,0-4-5.64C122,37.58,116.62,34.31,111.05,32h0a30.7,30.7,0,0,1,1.75-3.56c7.28,3.07,13.72,7,21.06,11.12a51,51,0,0,0,5,2.43s-5.19,2.29-3.72,4.49.95,2.43-.26,5.82,3,1.27,6.13,1.19,2.28-2.2,2.93-2.85-1.3-4.48,0-6.89a43.38,43.38,0,0,0,4.72,1.08,41.24,41.24,0,0,0,18.43-.71,20.86,20.86,0,0,1,1.83,4c.23.67.46,1.42.67,2.23a26.4,26.4,0,0,1,.7,4.63A22.26,22.26,0,0,1,170.3,57.69Z" style="fill:#c40e14"/><path d="M144,50.66c-.65.65.17,2.77-2.93,2.85s-7.34,2.2-6.13-1.19,1.73-3.62.26-5.82S138.87,42,138.87,42A48.84,48.84,0,0,0,144,43.77C142.65,46.18,144.61,50,144,50.66Z" style="fill:#f4ede9"/><path d="M128.72,53.76c-2.45.85-5.65.23-8.11-.45,1-3.29-2-6.44-5.67-9.33-4.07-3.26-5-2.29-5.21-6.2A14.63,14.63,0,0,1,111,32h0c5.57,2.29,11,5.56,14.86,10.22a32.22,32.22,0,0,1,4,5.64C131,50,131.57,52.78,128.72,53.76Z" style="fill:#e21a29"/><path d="M120.61,53.31l-.36-.11c-5.15-1.48-10.19-3.35-15.25-5.08a71.64,71.64,0,0,0-7.08-2,17.46,17.46,0,0,1,5.21-5.58c2.36-1.46,2.68-2.44,3.41-7.74a14.11,14.11,0,0,0,.19-2.41c1.46.49,2.9,1,4.31,1.62a14.63,14.63,0,0,0-1.31,5.76c.16,3.91,1.14,2.94,5.21,6.2C118.56,46.87,121.66,50,120.61,53.31Z" style="fill:#f4ede9"/><path d="M106.73,30.4a14.11,14.11,0,0,1-.19,2.41c-.73,5.3-1.05,6.28-3.41,7.74a17.46,17.46,0,0,0-5.21,5.58c-5.68-1.31-11.18-2-16.2-2.77.32-2.57.86-4.91.62-5.66-.49-1.55,1.8-6.2.82-8.88a5.16,5.16,0,0,1,0-2.73A79.17,79.17,0,0,1,106.73,30.4Z" style="fill:#e21a29"/><path d="M82.34,37.7c.24.75-.3,3.09-.62,5.66A62.23,62.23,0,0,1,72,41.21a21.49,21.49,0,0,1-3.86-1.67,4.06,4.06,0,0,0,1.24-2.32c.65-3,2.7-2.53,2.62-5.22-.07-2.05-1.31-3-1.93-4.11,3.27-1.3,7.87-1.9,13.12-1.8a5.16,5.16,0,0,0,0,2.73C84.14,31.5,81.85,36.15,82.34,37.7Z" style="fill:#f4ede9"/><path d="M68.14,39.54c-1,.89-2.49,1.18-4.3,1.91C61,42.59,62.78,40.06,63,37.62S60.18,34,59,32a2.29,2.29,0,0,1,1-3.18A4.87,4.87,0,0,0,61.4,27c.48-1.15.9-1.55,3-1.63s5.22-.57,5.3,1.3a2.52,2.52,0,0,0,.36,1.19c-.45.18-.86.37-1.26.57C62.15,31.89,62.64,36.43,68.14,39.54Z" style="fill:#c40e14"/><path d="M72,32c.08,2.69-2,2.2-2.62,5.22a4.06,4.06,0,0,1-1.24,2.32c-5.5-3.11-6-7.65.67-11.08.4-.2.81-.39,1.26-.57C70.69,29,71.93,30,72,32Z" style="fill:#e21a29"/><path d="M106.73,30.4a79.17,79.17,0,0,0-23.54-4.31,20.79,20.79,0,0,1,1.16-3.47,82.12,82.12,0,0,1,16.87,2.05h0a5.94,5.94,0,0,0,2.15,2.52C105.34,28.44,106.67,27.89,106.73,30.4Z" style="fill:#c40e14"/><path d="M112.79,28.46A30.7,30.7,0,0,0,111,32c-1.41-.59-2.85-1.13-4.31-1.62-.06-2.51-1.39-2-3.36-3.21a5.94,5.94,0,0,1-2.15-2.52,70,70,0,0,1,9.56,3C111.46,27.91,112.13,28.18,112.79,28.46Z" style="fill:#eae3dd"/><path d="M65.47,63.78c2.53,1.71,20.38,1.8,17.12,3.1S62.3,64.6,65.14,66.23,80,70.14,79.66,72.1s-5.3.24-10.11-1.48-8.23-3.41-4.32-.15S76.48,76,74.85,77.06s-6.12-.49-9.62-3.18S58.38,68,61,71.52s6.83,6.39,6.76,7.76l-.36-.18a21.46,21.46,0,0,1-2-1.13,42.75,42.75,0,0,1-8.92-7.75s4.72.16,6.19-7.17-4.07-8-4.07-8c3.42-7,9.12-9,9.94-9.62.5-.41,1.24.06,2.13.28,0,0-8.08,6.24-8.81,7.79s3.83-2.93,7-4.89,5.31-2.49,1.07,1.16-8.65,6.58-2,3.32,11.16-4,6.28-1.22-16.63,5.7-7.83,4.48,22.49-2.93,12.14-1.3S61.88,58.48,69,58.23,87.48,59.71,79.41,60s-19.16,1.3-8.07,1.87,15.73,2.28,10.35,2.45S63,62.07,65.47,63.78Z" style="fill:#dbd3ce"/><path d="M87.72,66.8c-.16.32.82,2.11,0,2.93s0,2.12-1.63,4.07-.49,2.61-.92,3.26-.55,1.47-1.69,1.47a1.06,1.06,0,0,0-.84.47c-.44.55-.73,1.43-1.6,1.65-1.3.33-1,.94-8.8,0a14.63,14.63,0,0,1-4.49-1.37C67.82,77.91,63.6,75,61,71.52s.74-.32,4.24,2.36,8,4.24,9.62,3.18-5.71-3.33-9.62-6.59-.49-1.56,4.32.15,9.78,3.43,10.11,1.48S68,67.86,65.14,66.23s14.19,2,17.45.65S68,65.49,65.47,63.78s10.84.65,16.22.49.73-1.88-10.35-2.45,0-1.63,8.07-1.87S76.07,58,69,58.23s-.9-1.54,9.45-3.17-3.34.08-12.14,1.3,2.94-1.71,7.83-4.48.32-2-6.28,1.22-2.2.33,2-3.32,2.11-3.11-1.07-1.16-7.73,6.44-7,4.89,8.81-7.79,8.81-7.79a2.47,2.47,0,0,0,1.8-.11c1.65-.82,2.43,1.63,3.24.89s1.63,2.53,3.91,1.88,1.14,2.77,3.1,2.28,4.4,2.28,2.5,4.4,1.41,2,.76,2.77,3.75,2.93,2.12,4.08S87.88,66.47,87.72,66.8Z" style="fill:#e21a29"/><path d="M165.77,70.08a17,17,0,0,1-2.39,2.41h0a16,16,0,0,1-2.07,1.44h0a13,13,0,0,1-3.5,1.48A9.75,9.75,0,0,0,151.05,73a7.81,7.81,0,0,0-3.2,1,10.53,10.53,0,0,0-2.1,1.48,28.81,28.81,0,0,1-2.42,1.93,22.66,22.66,0,0,1-5.73,2.89h0a32.71,32.71,0,0,1-6.93,1.47c-1.4.15-2.91.25-4.53.29-1.78,0-3.7,0-5.78,0q-1.74-.06-3.63-.18c-2.12-.14-4.35-.23-6.67-.3l-3.58-.08q-3.54-.06-7.28-.06c-2.92,0-5.91,0-8.93.08-1.49,0-3,0-4.5.06a15.62,15.62,0,0,0,.48-2.8c4.89-.4,13.17-1,23.27-1.39q3.41-.14,7-.24c20-.54,16.3-4.45,27.52-9.45S165.77,70.08,165.77,70.08Z" style="fill:#b20b18"/><path d="M86.25,78.69a15.62,15.62,0,0,1-.48,2.8l-1.93,0-3.12.06-4.56.07-6.42.09-2.07,0-.28-2.66.36.18a14.63,14.63,0,0,0,4.49,1.37c7.83.94,7.5.33,8.8,0,.87-.22,1.16-1.1,1.6-1.65C83.45,78.92,84.68,78.82,86.25,78.69Z" style="fill:#c40e14"/><path d="M97.34,48.54c.49,2.2-.25,6-1.23,6.19s-3.74-.49-4.07,3.1.73,10.43-.57,11.57-5.29,7.42-5.22,8.72a3.61,3.61,0,0,1,0,.57c-1.57.13-2.8.23-3.61.31a1.06,1.06,0,0,1,.84-.47c1.14,0,1.26-.81,1.69-1.47s-.71-1.3.92-3.26.82-3.26,1.63-4.07-.16-2.61,0-2.93-1.3-3.75.33-4.89-2.77-3.26-2.12-4.08-2.66-.65-.76-2.77-.55-4.89-2.5-4.4c-1.4-1.52-1.3-4.53-1-7.3,5,.81,10.52,1.46,16.2,2.77A3.75,3.75,0,0,0,97.34,48.54Z" style="fill:#c40e14"/><path d="M120,54.57c-2.44,3.75-4.72,6-3.91,8.65s-.49,4.72-.81,8.3-3.93,3.91-5.55,5.54a1.41,1.41,0,0,0-.2.24c-10.1.4-18.38,1-23.27,1.39a3.61,3.61,0,0,0,0-.57c-.07-1.3,3.92-7.58,5.22-8.72s.25-8,.57-11.57,3.09-2.85,4.07-3.1,1.72-4,1.23-6.19a3.75,3.75,0,0,1,.58-2.41,71.64,71.64,0,0,1,7.08,2c5.06,1.73,10.1,3.6,15.25,5.08l.36.11A5.44,5.44,0,0,1,120,54.57Z" style="fill:#eae3dd"/><path d="M247,69.89c-3-3.1-4.49-4.34-4.93-4.31-1-1.26-2.85-3.5-4.88-5.83A21,21,0,0,0,234.36,55a41.05,41.05,0,0,0-16.52-14.86c-5.74-2.76-6.29-1.44-5.7,1.54-11.71-4.31-26.41-4.46-43.21,6.46a20.86,20.86,0,0,0-1.83-4,42.8,42.8,0,0,1,7.26-5.22,48.06,48.06,0,0,1,37.78-5.14,56.48,56.48,0,0,1,10.2,4c1,.52,2.07,1.09,3.11,1.7,33.25,19.31,17.28,14.24,7.82,8.62s9.46,6.45,17.61,21.77S256.42,79.67,247,69.89Z" style="fill:#c40e14"/><path d="M265.87,105.75c-9.47-8.63-18-24.16-18.23-22.82a83.79,83.79,0,0,0-9.82-14.82h0c-1.46-3.61-5.75-6.63-2.59-5.6,2.32.74,2.79-.52,1.92-2.76,2,2.33,3.86,4.57,4.88,5.83h0c-.86.17,3,6,6.92,11.78C254.79,85.87,277,115.86,265.87,105.75Z" style="fill:#dbd3ce"/><path d="M170.79,118.53c-.56.53-1.47.53-2.5-.5-1.91-1.91-5.57.71-5.76.85h0c-.43-.88-.8-1.73-1.1-2.54a14.1,14.1,0,0,1-.85-3.42c-.44-4.45-1-10.87-2.14-16.51a45.53,45.53,0,0,0-1.88-7.07c-2.39-6.3-1.2-8.69,1.25-13.91a13,13,0,0,0,3.5-1.48C161.18,74.4,157,90.41,170.79,118.53Z" style="fill:#dbd3ce"/><path d="M191,150a20.42,20.42,0,0,1-3.18-3c-5.43-6.08-4.34-8.91-8-8.91-2.56,0-2.5.74-2.21,1.19-.35-.41-.7-.81-1-1.19-5.27-5.74-11.06-13.07-14-19.14.19-.14,3.85-2.76,5.76-.85,1,1,1.94,1,2.5.5A179.87,179.87,0,0,0,191,150Z" style="fill:#c40e14"/><path d="M264.89,115.53a10.63,10.63,0,0,1-1.8.81c-6-8.16-13.06-20.51-23.53-33.75h0a12.55,12.55,0,0,0-.86-3.83c-1.73-4.62-.21-4.41-.43-8.75a5.86,5.86,0,0,0-.45-1.89,83.79,83.79,0,0,1,9.82,14.82h0a8,8,0,0,0,.63,2.27,56.89,56.89,0,0,0,14.67,22.59C269.78,114.55,266.85,114.23,264.89,115.53Z" style="fill:#eae3dd"/><path d="M263.09,116.34c-1.65.65-3.77,1.5-4.74,3.17-6.5-8.39-14.62-20.14-23.06-30.91h0c-.42-.83-.41-1.42.82-1.42,2.43,0,3.59-1.87,3.46-4.58C250,95.83,257.08,108.18,263.09,116.34Z" style="fill:#eae3dd"/><path d="M258.61,135.65c-2.42-2.45-5.16-5.41-8.11-8.69a3.87,3.87,0,0,0-.06-.46c-.87-4.56,6.52-1.33,3-7.62s-15.64-18-12.6-15.41S235,94.56,237,93.25c1.26-.84-.92-3.13-1.68-4.65,8.44,10.77,16.56,22.52,23.06,30.91-.77,1.33-.82,3.16.67,5.8C261,128.74,260.24,132.51,258.61,135.65Z" style="fill:#dbd3ce"/><path d="M258.61,135.65c-1.94,3.73-5.17,6.58-6.76,6.94a35.46,35.46,0,0,0-6,2c-1.36-1.78-2.94-3.84-4.68-6.07,2.05.41,3.18-.2,2.33-1.82-2-3.7,2.17-2,1.95-5.22s5.45-.62,5.06-4.54C253.45,130.24,256.19,133.2,258.61,135.65Z" style="fill:#eae3dd"/><path d="M239.47,150.41c-.3,3.83,2.07,7.39-4.2,8.28-3-6.21-7.74-12.54-12.42-18.73h0c-1.23-2.5-.15-3.21,2.38-2.36,3.92,1.3,0-13,5.87-5.87,3.31,4,7.43,6.28,10.06,6.82,1.74,2.23,3.32,4.29,4.68,6.07C242.71,146,239.66,148,239.47,150.41Z" style="fill:#dbd3ce"/><path d="M235.27,158.69a20.71,20.71,0,0,1-2.32.19c-2.25.08-4.15.18-5.77.33-2.15-3.17-4.7-6.75-7.47-10.55,5.95,3.81,12.58,3,7.26-3a28.92,28.92,0,0,1-4.12-5.67C227.53,146.15,232.27,152.48,235.27,158.69Z" style="fill:#eae3dd"/><path d="M227.18,159.21c-5,.44-7.4,1.29-9.16,3.26a6.11,6.11,0,0,1-3.17,1.69,244.9,244.9,0,0,1-24.33-28,16.15,16.15,0,0,1,2.1,1.88c4.36,4.57,8.49,5.88,7.84,4.79s2.17-2.18,8,3.9,2.39-5.86,8.69,0a16.87,16.87,0,0,0,2.52,1.95C222.48,152.46,225,156,227.18,159.21Z" style="fill:#dbd3ce"/><path d="M214.85,164.16a13.62,13.62,0,0,1-9.61-1.69c-3.63-2.23-3-3-6.35-3Q194.66,154.6,191,150c2.42,1.68,2.16-1-1.45-7.5-4-7.12-2.26-8.64.93-6.34A244.9,244.9,0,0,0,214.85,164.16Z" style="fill:#eae3dd"/><path d="M198.89,159.46c-.58,0-1.27,0-2.13.08-5.5.3-12.15-12-18.87-20l0,0-.26-.31h0c-.29-.45-.35-1.19,2.21-1.19,3.7,0,2.61,2.83,8,8.91a20.42,20.42,0,0,0,3.18,3h0Q194.67,154.6,198.89,159.46Z" style="fill:#dbd3ce"/><path d="M219.71,148.66a16.87,16.87,0,0,1-2.52-1.95c-6.3-5.86-2.82,6.09-8.69,0s-8.69-5-8-3.9-3.48-.22-7.84-4.79a16.15,16.15,0,0,0-2.1-1.88,180.22,180.22,0,0,1-13.43-20.94c.39.13.79.28,1.2.44,5,2,4.13-2,4.34-6.3.21-4,3.3-2,3-3.9C193.83,115,208.63,133.52,219.71,148.66Z" style="fill:#c40e14"/><path d="M219.71,148.66c-11.08-15.14-25.88-33.69-34.07-43.22a3.23,3.23,0,0,0-.18-.67c-1.08-3,2.39-1.52,6.95-2l.13,0c9.05,10.36,19.74,22.78,25.3,30.44,1.6,2.21,3.3,4.45,5,6.71h0a28.92,28.92,0,0,0,4.12,5.67C232.29,151.7,225.66,152.47,219.71,148.66Z" style="fill:#e21a29"/><path d="M241.16,138.54c-2.63-.54-6.75-2.79-10.06-6.82-5.87-7.17-1.95,7.17-5.87,5.87-2.53-.85-3.61-.14-2.38,2.36-1.71-2.26-3.41-4.5-5-6.71-5.56-7.66-16.25-20.08-25.3-30.44,4.43-.47,4.21-3.06,2.92-6.5s4.78,0,3.26-4.13c-.66-1.79-.79-2.6-.39-2.8,7.83,8.5,15.25,17,20.08,21.92C224.82,117.87,234.18,129.55,241.16,138.54Z" style="fill:#c40e14"/><path d="M245.44,131.5c.22,3.26-3.91,1.52-1.95,5.22.85,1.62-.28,2.23-2.33,1.82-7-9-16.34-20.67-22.75-27.25-4.83-5-12.25-13.42-20.08-21.92.53-.27,1.95.51,4.29,1.5,4.12,1.73,2-2.83.45-5s1.3-5.44,1.73-8.81a11.61,11.61,0,0,1,.28-1.52C216.2,86.39,235.91,110.69,250.5,127,250.89,130.88,245.23,128.36,245.44,131.5Z" style="fill:#e21a29"/><path d="M250.44,126.5a3.87,3.87,0,0,1,.06.46c-14.59-16.27-34.3-40.57-45.42-51.42.56-2,1.71-2.41,4.91-3.05,3.89-.76,1.33-4.44.25-7.94a4.63,4.63,0,0,1-.21-1,44.74,44.74,0,0,1,8,5.76c5.61,5.06,11.48,11.92,17.22,19.24h0c.76,1.52,2.94,3.81,1.68,4.65-2,1.31,6.95,12.83,3.91,10.22s9.13,9.13,12.6,15.41S249.57,121.94,250.44,126.5Z" style="fill:#c40e14"/><path d="M236.1,87.17c-1.23,0-1.24.59-.82,1.42-5.74-7.32-11.61-14.18-17.22-19.24a44.74,44.74,0,0,0-8-5.76h0c-.23-1.88.8-3.2,1.91-6a54,54,0,0,1,15.9,11.51,176.1,176.1,0,0,1,11.72,13.45h0C239.69,85.3,238.53,87.17,236.1,87.17Z" style="fill:#e21a29"/><path d="M242,65.58h0l-4.85-5.83C239.18,62.08,241,64.32,242,65.58Z" style="fill:#eae3dd"/><path d="M213.62,48.78c-11.76-5.25-26.47-6.58-44,1.57-.21-.81-.44-1.56-.67-2.23,16.8-10.92,31.5-10.77,43.21-6.46A63.64,63.64,0,0,1,213.62,48.78Z" style="fill:#eae3dd"/><path d="M237.15,59.75c-4.93-5.69-13.54-13.89-25-18.09-.59-3,0-4.3,5.7-1.54A41.05,41.05,0,0,1,234.36,55,21,21,0,0,1,237.15,59.75Z" style="fill:#c40e14"/><path d="M237.82,68.11c-5.68-6.93-13.77-14.67-24.2-19.33a63.64,63.64,0,0,0-1.48-7.12c11.47,4.2,20.08,12.4,25,18.09.87,2.24.4,3.5-1.92,2.76C232.07,61.48,236.36,64.5,237.82,68.11Z" style="fill:#e21a29"/><path d="M239.56,82.58a176.1,176.1,0,0,0-11.72-13.45,54,54,0,0,0-15.9-11.51,28.52,28.52,0,0,0,1.56-5.3,12.32,12.32,0,0,0,.12-3.54c10.43,4.66,18.52,12.4,24.2,19.33h0a5.86,5.86,0,0,1,.45,1.89c.22,4.34-1.3,4.13.43,8.75A12.55,12.55,0,0,1,239.56,82.58Z" style="fill:#c40e14"/><path d="M213.5,52.32a28.52,28.52,0,0,1-1.56,5.3C191,47.69,170.3,55,170.3,55a26.4,26.4,0,0,0-.7-4.63c17.55-8.15,32.26-6.82,44-1.57A12.32,12.32,0,0,1,213.5,52.32Z" style="fill:#dbd3ce"/><path d="M210,63.59c-18.38-10.35-39.73-5.9-39.73-5.9a22.26,22.26,0,0,0,0-2.71s20.69-7.29,41.64,2.64C210.83,60.39,209.8,61.71,210,63.59Z" style="fill:#eae3dd"/><path d="M210,72.49c-3.2.64-4.35,1-4.91,3.05-1.21-1.19-2.33-2.21-3.32-3.05a56.29,56.29,0,0,0-31.68-12.7c.11-.71.18-1.41.22-2.1,0,0,21.35-4.45,39.73,5.9h0a4.63,4.63,0,0,0,.21,1C211.32,68.05,213.88,71.73,210,72.49Z" style="fill:#dbd3ce"/><path d="M177.09,115.2c-4.18-1.44-6.15-1-5.75,1a2.54,2.54,0,0,1-.55,2.37C157,90.41,161.18,74.4,161.31,74h0a16,16,0,0,0,2.07-1.44C163.36,72.93,163.08,89.45,177.09,115.2Z" style="fill:#eae3dd"/><path d="M191,150h0a179.87,179.87,0,0,1-20.24-31.44,2.54,2.54,0,0,0,.55-2.37c-.4-1.92,1.57-2.4,5.75-1h0a180.22,180.22,0,0,0,13.43,20.94c-3.19-2.3-4.89-.78-.93,6.34C193.2,149,193.46,151.66,191,150Z" style="fill:#e21a29"/><path d="M182.63,109.34c-.21,4.34.66,8.26-4.34,6.3-.41-.16-.81-.31-1.2-.44h0c-14-25.75-13.73-42.27-13.71-42.7h0a17,17,0,0,0,2.39-2.41,16.69,16.69,0,0,0,1.32-1.84s4.68,22.19,14.68,32.84c1,1.07,2.32,2.55,3.87,4.36C185.93,107.38,182.84,105.37,182.63,109.34Z" style="fill:#dbd3ce"/><path d="M192.54,102.8l-.13,0c-4.56.43-8-1.09-6.95,2a3.23,3.23,0,0,1,.18.67c-1.55-1.81-2.87-3.29-3.87-4.36-10-10.65-14.68-32.84-14.68-32.84a19.49,19.49,0,0,0,1.79-3.69S172.64,80,181.33,90C184.17,93.26,188.16,97.78,192.54,102.8Z" style="fill:#eae3dd"/><path d="M195.46,96.3c1.29,3.44,1.51,6-2.92,6.5-4.38-5-8.37-9.54-11.21-12.81-8.69-10-12.45-25.44-12.45-25.44.18-.48.34-1,.5-1.5,6.77,3,18.25,14.7,29,26.32-.4.2-.27,1,.39,2.8C200.24,96.3,194.15,92.82,195.46,96.3Z" style="fill:#dbd3ce"/><path d="M203.07,85.87c1.52,2.17,3.67,6.73-.45,5-2.34-1-3.76-1.77-4.29-1.5-10.7-11.62-22.18-23.31-29-26.32a22.7,22.7,0,0,0,.7-3.26,56.29,56.29,0,0,1,31.68,12.7c1,.84,2.11,1.86,3.32,3.05a11.61,11.61,0,0,0-.28,1.52C204.37,80.43,201.54,83.69,203.07,85.87Z" style="fill:#eae3dd"/><path d="M222.34,37.8a56.48,56.48,0,0,0-10.2-4c-2.18-5-7.39-6.1-5-6.92s-8.21-3.42-8.12-4.26-5.47-2.75-2-3.7-.17-2-7-2.31-4.6-1.14-1-3.58-3.1-1.47-9.12-2.12.81-2.28-5.3-2.28,3.5-2.28,8-2.45,0-2.68,0-2.68a31.68,31.68,0,0,1,9.16,3.93c11.43,7.39,4.37,4.13-1.12,1.52s9.63,7.17,14.56,9.78,6,3.91,11.78,5.54,5.77,2.23-1.19,1.82S219.2,26.68,222.34,37.8Z" style="fill:#eae3dd"/><path d="M212.14,33.78a48.06,48.06,0,0,0-37.78,5.14c-1.54-3.26.56-3.91.16-5.41s-.9-.94-3.73-1.54-1.9-2.17-.49-3.51-.76-3.23-2.55-3.18-4.24-3-2-4.45-2.75-2.12-5.28-1.93-4-3-1.22-5.24.66-2.93-4.72-1.47-7.66-1.14-4.89-2.44-6.2-1.14-10.28-1.14,1.8-1.63,8-4.08c6-2.36,1.54-2.76,1.25-2.78A82.48,82.48,0,0,1,172.2.24l-7.6,2.17a49.57,49.57,0,0,1,17.88,1.07s4.45,2.52,0,2.68-14.07,2.45-8,2.45-.73,1.63,5.3,2.28,12.7-.33,9.12,2.12-5.81,3.26,1,3.58,10.4,1.36,7,2.31,2.11,2.85,2,3.7,10.46,3.45,8.12,4.26S210,28.82,212.14,33.78Z" style="fill:#e21a29"/><path d="M174.52,33.51c-.41-1.51-.9-.94-3.73-1.54s-1.9-2.17-.49-3.51-.76-3.23-2.55-3.18-4.24-3-2-4.45-2.75-2.12-5.28-1.93-4-3-1.22-5.24.66-2.93-4.72-1.47-7.66-1.14-4.89-2.44-6.2-1.14-10.28-1.14,1.8-1.63,8-4.08c6-2.36,1.54-2.76,1.25-2.78h0A60.3,60.3,0,0,0,118,18.22c1.68-.32,3.9-.54,3.59.68-.49,1.93,5.87,1.06,4.24,3.7s-2.89,4,.27,2.68,7.07-.37,5.76,1.75-3.56,3.09.26,2.6S140.59,28,138,32s1.36,3.86,3.15,3.2,4.89-2.06,3.59.36,0,3.06,1.3,3.39,2.59,1.42,2.6,5.93a41.24,41.24,0,0,0,18.43-.71,42.8,42.8,0,0,1,7.26-5.22C172.82,35.66,174.92,35,174.52,33.51ZM126.57,18c-.87,1.07-3.7,1.06-1.52-.67.34-.27,9.45-6.85,12.17-7.5S127.44,16.89,126.57,18Zm4.25,3.35s-2.08,1.19-2.4,0,7.38-5.43,13.69-8.26,5,.65,2,1.17S130.82,21.32,130.82,21.32Zm5.64,4.75s-2.61.79-2.61,0,3.91-3.45,12.93-7.17,11.73,1.55,7.17,1.44S136.46,26.07,136.46,26.07Zm6.4,5.9s-2.17.76-2.28,0,2.4-4.13,11.63-5.9,14,2,7.39,1.88S142.86,32,142.86,32ZM167.1,38.6c-5.33.23-18.43-.8-18.43-.8-3.65-2,12.56-3,19.19-2.63S172.42,38.38,167.1,38.6Z" style="fill:#eae3dd"/><path d="M167.1,38.6c-5.33.23-18.43-.8-18.43-.8-3.65-2,12.56-3,19.19-2.63S172.42,38.38,167.1,38.6Z" style="fill:#dbd3ce"/><path d="M148.67,44.85A43.38,43.38,0,0,1,144,43.77,48.84,48.84,0,0,1,138.87,42a51,51,0,0,1-5-2.43c-7.34-4.09-13.78-8-21.06-11.12-.66-.28-1.33-.55-2-.82A43.11,43.11,0,0,1,118,18.22c1.68-.32,3.9-.54,3.59.68-.49,1.93,5.87,1.06,4.24,3.7s-2.89,4,.27,2.68,7.07-.37,5.76,1.75-3.56,3.09.26,2.6S140.59,28,138,32s1.36,3.86,3.15,3.2,4.89-2.06,3.59.36,0,3.06,1.3,3.39S148.66,40.34,148.67,44.85Z" style="fill:#e21a29"/><path d="M126.57,18c-.87,1.07-3.7,1.06-1.52-.67.34-.27,9.45-6.85,12.17-7.5S127.44,16.89,126.57,18Z" style="fill:#dbd3ce"/><path d="M159.6,28c-6.63-.11-16.74,4-16.74,4s-2.17.76-2.28,0,2.4-4.13,11.63-5.9S166.23,28.06,159.6,28Z" style="fill:#dbd3ce"/><path d="M154,20.34c-4.57-.12-17.49,5.73-17.49,5.73s-2.61.79-2.61,0,3.91-3.45,12.93-7.17S158.51,20.45,154,20.34Z" style="fill:#dbd3ce"/><path d="M144.09,14.23c-3,.52-13.27,7.09-13.27,7.09s-2.08,1.19-2.4,0,7.38-5.43,13.69-8.26S147.1,13.71,144.09,14.23Z" style="fill:#dbd3ce"/><path d="M66.12,83.27c-1.54,1.36-3.79,3-4.75,1.69a1.46,1.46,0,0,0-.67-.52,23.37,23.37,0,0,1,1.6-2.65H66C66.08,82.24,66.11,82.74,66.12,83.27Z" style="fill:#e21a29"/><path d="M53.47,80.83a39.05,39.05,0,0,0-3.9,10.6h0c-.73.77-1.57.56-2.5-2.06-1-2.79-2.66-3.63-4.06-3.8.56-3.71,1.12-6.34,1.39-7.52A57.94,57.94,0,0,0,53.47,80.83Z" style="fill:#eae3dd"/><path d="M52.51,138.37c-.54,0-1-.71-1.14-2.23-.21-4-4.71-15.94-4.31-12.68.31,2.48-3.27-1.19-5.24-9.22h0A134.58,134.58,0,0,1,43,85.57c1.4.17,3.07,1,4.06,3.8.93,2.62,1.77,2.83,2.5,2.06-1.86,7.9-2.4,17.18-1,23.23C50,120.94,51.34,130.15,52.51,138.37Z" style="fill:#e21a29"/><path d="M63.12,168.27c-14.94-16.29-20.1-36.68-21.3-54,2,8,5.55,11.7,5.24,9.22-.4-3.26,4.1,8.69,4.31,12.68.09,1.52.6,2.25,1.14,2.23.59,4.16,1.14,8.06,1.64,11.21C54.86,154.1,59,161.65,63.12,168.27Z" style="fill:#eae3dd"/><path d="M72,176.49a73.86,73.86,0,0,1-8.88-8.22c-4.12-6.62-8.26-14.17-9-18.69-.5-3.15-1-7.05-1.64-11.21.87,0,1.79-2.07.87-6-.69-2.94.45-1.7,2.23,1.27v0h0a161.85,161.85,0,0,0,4.52,17.38c0,.23-.05.53-.07.94-.28,4.73,6.15,14.67,11,21.35S72,176.49,72,176.49Z" style="fill:#c40e14"/><path d="M72.94,169.6c-1-.9-3-3.31-6.57-7.46-5.37-6.25-6-13.47-6.24-11a161.85,161.85,0,0,1-4.52-17.38,141,141,0,0,1,6.69,13.21c1.1,2.51,1.78,4.22,2.17,5.3l.09.07h0A178.05,178.05,0,0,0,72.94,169.6Z" style="fill:#eae3dd"/><path d="M77,170.26c-1.49-1.73-3.85-2.07-3.47-.78.19.64,0,.7-.59.12h0a178.05,178.05,0,0,1-8.38-17.3c1.8,1.26,6.2,5.25,6.35,2.67.06-.88.21-1.29.45-1.33C73.82,159,76.18,164.38,77,170.26Z" style="fill:#c40e14"/><path d="M84.46,171.42a44.79,44.79,0,0,1-.57,5.41c-3.14-2.58-5.13-2.29-6-4.91a5,5,0,0,0-.93-1.66h0c-.82-5.88-3.18-11.24-5.64-16.62.71-.13,2.19,2.83,4.14,5.9,2.61,4.14-2.61-8.26-4.35-15.34s6.52,11.21,7.39,15,3,2.28,5.39,10.54C84.11,170.4,84.29,171,84.46,171.42Z" style="fill:#eae3dd"/><path d="M87,171.21c-.05,2.83-.21,5.58-.52,8.2l-.75-.8a19.81,19.81,0,0,0-1.88-1.78,44.79,44.79,0,0,0,.57-5.41C85.71,174.83,86.57,173.63,87,171.21Z" style="fill:#c40e14"/><path d="M92.06,167.84A36.08,36.08,0,0,1,90,178.07c-.26.76-.54,1.54-.86,2.36-.11.3-.24.62-.36.93a10.51,10.51,0,0,1-2.26-2c.31-2.62.47-5.37.52-8.2v-.11a30.26,30.26,0,0,0,.41-5C87.45,162.59,89.73,164.72,92.06,167.84Z" style="fill:#eae3dd"/><path d="M96.2,183.59a9.29,9.29,0,0,1-2.61-2.14A33,33,0,0,0,90,178.07a36.08,36.08,0,0,0,2.06-10.23c.84,1.13,1.69,2.36,2.43,3.53,0,0,0,0,0,0A62.71,62.71,0,0,0,96.2,183.59Z" style="fill:#c40e14"/><path d="M97.18,181.45c.91,1.64.54,2.87-1,2.14a62.71,62.71,0,0,1-1.7-12.19,2,2,0,0,0,.12.19c1.11,1.75,1.92,2.55,2.5,2.7a37.86,37.86,0,0,0,3.58,8.12C98.37,180.07,96.07,179.45,97.18,181.45Z" style="fill:#eae3dd"/><path d="M111.75,184.55a3.6,3.6,0,0,1-1.7-.89c-2.61-2.28-6.52-2.77-4.73.14s-.81,3.45-3.42,0a14,14,0,0,0-1.2-1.39,37.86,37.86,0,0,1-3.58-8.12c.88.24,1.2-1,1.2-2.7,0-2.72,2.39-5.75,5.44,0,1.4,2.64,2.47,3,3.07,2A97.24,97.24,0,0,0,111.75,184.55Z" style="fill:#c40e14"/><path d="M117,186.31a3.66,3.66,0,0,1-1.07-1c-1.25-1.75-2.49-.44-4.17-.74a97.24,97.24,0,0,1-4.92-10.94c.71-1.13.76-4.06-.09-7.12-1.19-4.26.44-1.84,4.07,2.68A63.5,63.5,0,0,0,117,186.31Z" style="fill:#eae3dd"/><path d="M120.91,187.89c-1.55-.82-2.85-.89-3.92-1.58a63.5,63.5,0,0,1-6.18-17.14c1.18,1.48,2.57,3.16,4.14,4.93,6.41,7.17,6.62,4.34,4.67.43-.6-1.2,0-1.28,1.17-.88C122.57,179.41,122.61,183.35,120.91,187.89Z" style="fill:#c40e14"/><path d="M133,189.1c-1.2.34-1.35,2.15-2.58.59-1.8-2.28-5.38-2.61-3.75.49s-.66,2.12-3.75-.82a9.21,9.21,0,0,0-2-1.47c1.7-4.54,1.66-8.48-.12-14.24,2.59.9,7.85,4.21,7.61,2.4-.05-.39.21-.54.67-.52a35.94,35.94,0,0,0,1.75,3.38A17.12,17.12,0,0,1,133,189.1Z" style="fill:#eae3dd"/><path d="M141.18,191.32c1.63,2.93-2,1.63-5.7-1.3-1.18-.92-1.93-1.07-2.47-.92a17.12,17.12,0,0,0-2.19-10.19,35.94,35.94,0,0,1-1.75-3.38c2,.1,7.71,3.17,10.93,3.38a31.39,31.39,0,0,1,2.08,9.74C140.45,188.1,140,189.19,141.18,191.32Z" style="fill:#c40e14"/><path d="M152.41,190.23c-.48-.27-1-.58-1.45-.87-2.12-1.3-3.09,3.26-6.52.66a8.46,8.46,0,0,0-2.36-1.37,31.39,31.39,0,0,0-2.08-9.74c1.09.06,1.89-.2,2.15-1,1.2-3.82,8.09,1.57,7.36,0A24.78,24.78,0,0,1,152.41,190.23Z" style="fill:#eae3dd"/><path d="M161.23,186c-2.09.25-5,2.05-5.22,3.84s-1.89,1.34-3.6.38a24.78,24.78,0,0,0-2.9-12.34h0c-.74-1.59,5.09,1.43,4.19-1.39-.65-2,2.64,0,4.75.06A19.89,19.89,0,0,1,161.23,186Z" style="fill:#c40e14"/><path d="M163,186.43a2.15,2.15,0,0,0-1.79-.42,19.89,19.89,0,0,0-2.78-9.46c.83,0,1.48-.23,1.63-1.15a3.4,3.4,0,0,1,1.76-2.33,20.86,20.86,0,0,1,3.14,5.54C167.59,186.43,164.49,187.9,163,186.43Z" style="fill:#eae3dd"/><path d="M161.84,173.07a3.4,3.4,0,0,0-1.76,2.33c-.15.92-.8,1.19-1.63,1.15a32.79,32.79,0,0,0-3.19-4.63c-8.7-10.59-12.61-15.5-10-27.31,2.46-11.16,2.63-29.12-.27-40.82,1.45,1.5,1.77-6,3.92-4.83.19.68.39,1.38.6,2.09,4.1,13.72.47,38.91.47,38.91s-1.46,2.3-1.14,11.92C149.1,159.31,157,166.55,161.84,173.07Z" style="fill:#e21a29"/><path d="M158.79,164.43A27.17,27.17,0,0,1,150,140s3.63-25.19-.47-38.91c-.21-.71-.41-1.41-.6-2.09a2.26,2.26,0,0,1,.6.52c2.7,3.12,2.08-3.69,4.19-1.23.65.76,1.15.87,1.6.65a54.26,54.26,0,0,1,2.51,18.44c-1.5-5.6-4.55-6.57-3.26-3.77,1.95,4.24,1.46,12.23-1,25.65S158.79,164.43,158.79,164.43Z" style="fill:#c40e14"/><path d="M158.13,129.7a30,30,0,0,0-.32-12.36A54.26,54.26,0,0,0,155.3,98.9c1-.47,1.74-2.55,3.14-2.49,1.1,5.64,1.7,12.06,2.14,16.51a14.1,14.1,0,0,0,.85,3.42C162.61,123,158.13,129.7,158.13,129.7Z" style="fill:#e21a29"/><path d="M158.44,96.41c-1.4-.06-2.13,2-3.14,2.49A118.5,118.5,0,0,0,151,87a18.8,18.8,0,0,1,.09-14,9.75,9.75,0,0,1,6.76,2.43c-2.45,5.22-3.64,7.61-1.25,13.91A45.53,45.53,0,0,1,158.44,96.41Z" style="fill:#eae3dd"/><path d="M155.3,98.9c-.45.22-1,.11-1.6-.65-2.11-2.46-1.49,4.35-4.19,1.23a2.26,2.26,0,0,0-.6-.52c-3.48-12.35-3.39-18.85-1.06-25a7.81,7.81,0,0,1,3.2-1A18.8,18.8,0,0,0,151,87,118.5,118.5,0,0,1,155.3,98.9Z" style="fill:#dbd3ce"/><path d="M148.91,99c-2.15-1.21-2.47,6.33-3.92,4.83h0c-.15-.67-.33-1.32-.52-1.94-3.44-11.57-2.57-18.49-1.13-24.48a28.81,28.81,0,0,0,2.42-1.93,10.53,10.53,0,0,1,2.1-1.48C145.52,80.11,145.43,86.61,148.91,99Z" style="fill:#eae3dd"/><path d="M145,103.78c-1.57-1.61-1.68,6-2.92,4-.47-.75-1.26.55-2.21,2.25A59.14,59.14,0,0,0,138,102.8c-3.28-10.34-.49-22.31-.43-22.55h0a22.66,22.66,0,0,0,5.73-2.89c-1.44,6-2.31,12.91,1.13,24.48C144.65,102.46,144.83,103.11,145,103.78Z" style="fill:#dbd3ce"/><path d="M139.85,110.05c-1.53,2.75-3.47,6.56-5.17,4.61l-.34-.36a44.86,44.86,0,0,0-1.91-11.5c-2.7-7.66-3.88-16.82-1.76-21.08a32.71,32.71,0,0,0,6.93-1.47c-.06.24-2.85,12.21.43,22.55A59.14,59.14,0,0,1,139.85,110.05Z" style="fill:#eae3dd"/><path d="M134.34,114.3c-2.38-2.1-2,5.1-4.61,1.83-.67-.85-1.18-1-1.6-.87a28.34,28.34,0,0,0-2-7.46c-5.22-12.39,0-25.79,0-25.79,1.62,0,3.13-.14,4.53-.29-2.12,4.26-.94,13.42,1.76,21.08A44.86,44.86,0,0,1,134.34,114.3Z" style="fill:#dbd3ce"/><path d="M128.13,115.26c-1.29.46-1.81,4-3.89,1.08-.88-1.23-1.64-1.35-2.33-1,0-3.14-.71-6.29-2.73-11.17C115,93.9,118.94,84.7,120.36,82c2.08.08,4,.09,5.78,0,0,0-5.22,13.4,0,25.79A28.34,28.34,0,0,1,128.13,115.26Z" style="fill:#eae3dd"/><path d="M121.91,115.29c-1.49.64-2.65,3.24-3.88,1-1.8-3.22-3.41,2.34-4.72-.21-.59-1.15-1.39-1-2.29-.84-.56-2.34-1.24-5-2-8.34-3.15-14.77,7.66-25.16,7.66-25.16q1.89.12,3.63.18c-1.42,2.73-5.41,11.93-1.18,22.15C121.2,109,121.91,112.15,121.91,115.29Z" style="fill:#dbd3ce"/><path d="M109.07,107c.71,3.34,1.39,6,2,8.34-1.08.17-2.29.25-3.36-2.26-2-4.56-4.13-1.09-3.9-3,.11-1-1-.72-2.35-.71-1.08-10.86.6-21.91,5.07-27.87l3.58.08c2.32.07,4.55.16,6.67.3C116.73,81.79,105.92,92.18,109.07,107Z" style="fill:#eae3dd"/><path d="M93.68,102.46c-1.05-.66-2.32-1.42-2.32-3.12,0-2.83-2.61-1.52-3-5-.26-2.64-1-3.65-1.88-4.35a40.43,40.43,0,0,1,3.74-8.56c3-.05,6-.08,8.93-.08A30.39,30.39,0,0,0,93.68,102.46Z" style="fill:#eae3dd"/><path d="M90.27,81.43A40.43,40.43,0,0,0,86.53,90c-.26-.23-.52-.42-.76-.62-1-.85,0-7.88,0-7.88C87.27,81.46,88.78,81.44,90.27,81.43Z" style="fill:#dbd3ce"/><path d="M96.25,142.18c-1.37,5.73-2.39,18.2-1.76,29.19-.74-1.17-1.59-2.4-2.43-3.53.32-8.28-3.29-12.83-2.43-22.21,1.3-14.34-1.09-15.87-5.7-31-4.22-13.85-.71-30.46-.09-33.14l1.93,0s-1,7,0,7.88c.24.2.5.39.76.62-1.62,5.3-2.51,12.27.45,18.91C92.89,122.16,98.53,132.64,96.25,142.18Z" style="fill:#c40e14"/><path d="M106.83,173.61c-.6.95-1.67.62-3.07-2-3.05-5.75-5.44-2.72-5.44,0,0,1.66-.32,2.94-1.2,2.7a37.14,37.14,0,0,1-.87-18.45c4.24-21.29,5.76-21.51,2.07-34.12-1.82-6.17-4-12.61-4.64-19.26.7.44,1.29.84,1.38,1.44.21,1.52.49-1.07,2.3,3a3.85,3.85,0,0,0,4,2.33,59.63,59.63,0,0,0,2.35,11.79c4.35,13.91,1.51,15.21-.46,31.51C102.48,159.35,104.36,167,106.83,173.61Z" style="fill:#c40e14"/><path d="M106.74,166.49c.85,3.06.8,6,.09,7.12-2.47-6.61-4.35-14.26-3.53-21,2-16.3,4.81-17.6.46-31.51a59.63,59.63,0,0,1-2.35-11.79c1.37,0,2.46-.25,2.35.71-.23,2,1.94-1.52,3.9,3,1.07,2.51,2.28,2.43,3.36,2.26,2,8,2.68,12.27-.24,26.89a67.08,67.08,0,0,0,0,27C107.18,164.65,105.55,162.23,106.74,166.49Z" style="fill:#e21a29"/><path d="M119.62,174.53c1.95,3.91,1.74,6.74-4.67-.43-1.57-1.77-3-3.45-4.14-4.93a67.08,67.08,0,0,1,0-27c2.92-14.62,2.19-18.86.24-26.89.9-.13,1.7-.31,2.29.84,1.31,2.55,2.92-3,4.72.21,1.23,2.19,2.39-.41,3.88-1,0,4.71-1.63,9.39-2.86,19.86-2,17.43-3.59,23.95.55,35,.46,1.24.86,2.39,1.19,3.47C119.64,173.25,119,173.33,119.62,174.53Z" style="fill:#c40e14"/><path d="M140,178.91c-3.22-.21-9-3.28-10.93-3.38-3.9-8.6-5-19.31-4.1-30.92.81-10.49,4.38-19.75,3.16-29.35.42-.15.93,0,1.6.87,2.59,3.27,2.23-3.93,4.61-1.83a121.46,121.46,0,0,1-1.69,27c-2.39,13.26-3,23.91,3.79,31.73A21.12,21.12,0,0,1,140,178.91Z" style="fill:#c40e14"/><path d="M129.07,175.53c-.46,0-.72.13-.67.52.24,1.81-5-1.5-7.61-2.4-.33-1.08-.73-2.23-1.19-3.47-4.14-11.08-2.59-17.6-.55-35,1.23-10.47,2.85-15.15,2.86-19.86.69-.3,1.45-.18,2.33,1,2.08,2.91,2.6-.62,3.89-1.08,1.22,9.6-2.35,18.86-3.16,29.35C124.08,156.22,125.17,166.93,129.07,175.53Z" style="fill:#e21a29"/><path d="M142.15,177.88c-.26.83-1.06,1.09-2.15,1a21.12,21.12,0,0,0-3.56-5.9c-6.83-7.82-6.18-18.47-3.79-31.73a121.46,121.46,0,0,0,1.69-27l.34.36c1.7,2,3.64-1.86,5.17-4.61,1.46,8,1.2,16.31-.47,28-2.16,15.21-1,23.69,5.61,32.6a48.45,48.45,0,0,1,4.52,7.26h0C150.24,179.45,143.35,174.06,142.15,177.88Z" style="fill:#e21a29"/><path d="M153.7,176.49c.9,2.82-4.93-.2-4.19,1.39a48.45,48.45,0,0,0-4.52-7.26c-6.58-8.91-7.77-17.39-5.61-32.6,1.67-11.66,1.93-20,.47-28,1-1.7,1.74-3,2.21-2.25,1.24,2,1.35-5.63,2.92-4h0c2.9,11.7,2.73,29.66.27,40.82-2.61,11.81,1.3,16.72,10,27.31a32.79,32.79,0,0,1,3.19,4.63C156.34,176.47,153.05,174.46,153.7,176.49Z" style="fill:#c40e14"/><path d="M92.06,167.84c-2.33-3.12-4.61-5.25-4.61-1.78a30.26,30.26,0,0,1-.41,5c.32-21.17-5.94-46.68-9.46-56.44-3.88-10.77,1.71-28.81,3.14-33.08l3.12-.06c-.62,2.68-4.13,19.29.09,33.14,4.61,15.1,7,16.63,5.7,31C88.77,155,92.38,159.56,92.06,167.84Z" style="fill:#e21a29"/><path d="M87,171.1v.11c-.47,2.42-1.33,3.62-2.58.21.18-4.54-.65-8.17-3-13.84-4-9.78-8.83-30.43-10.55-43.22C69.39,102.85,75,85.08,76.16,81.65l4.56-.07c-1.43,4.27-7,22.31-3.14,33.08C81.1,124.42,87.36,149.93,87,171.1Z" style="fill:#c40e14"/><path d="M84.46,171.42c-.17-.47-.35-1-.53-1.67-2.35-8.26-4.52-6.74-5.39-10.54s-9.13-22.1-7.39-15,7,19.48,4.35,15.34c-2-3.07-3.43-6-4.14-5.9-2.31-5.06-4.7-10.12-6-15.62-3-12.55,3.49-51,4.39-56.28l6.42-.09C75,85.08,69.39,102.85,71,114.36c1.72,12.79,6.55,33.44,10.55,43.22C83.81,163.25,84.64,166.88,84.46,171.42Z" style="fill:#e21a29"/><path d="M64.56,152.3l-.09-.07c-.39-1.08-1.07-2.79-2.17-5.3a141,141,0,0,0-6.69-13.21h0v0c-5-26.44,1.8-43.12,5.09-49.25a1.46,1.46,0,0,1,.67.52c1,1.26,3.21-.33,4.75-1.69.15,8.51-4.29,25.49-7.42,40.41C57.1,131.34,60.55,142.65,64.56,152.3Z" style="fill:#e21a29"/><path d="M101.41,109.28a3.85,3.85,0,0,1-4-2.33c-1.81-4.12-2.09-1.53-2.3-3-.09-.6-.68-1-1.38-1.44A30.39,30.39,0,0,1,99.2,81.35q3.73,0,7.28.06C102,87.37,100.33,98.42,101.41,109.28Z" style="fill:#dbd3ce"/><path d="M97.12,174.29c-.58-.15-1.39-.95-2.5-2.7a2,2,0,0,1-.12-.19s0,0,0,0c-.63-11,.39-23.46,1.76-29.19,2.28-9.54-3.36-20-9.27-33.28-3-6.64-2.07-13.61-.45-18.91.83.7,1.62,1.71,1.88,4.35.34,3.48,3,2.17,3,5,0,1.7,1.27,2.46,2.32,3.12.6,6.65,2.82,13.09,4.64,19.26,3.69,12.61,2.17,12.83-2.07,34.12A37.14,37.14,0,0,0,97.12,174.29Z" style="fill:#e21a29"/><path d="M62.3,81.79a23.37,23.37,0,0,0-1.6,2.65c-1.59-.56-3.93,2.14-5.63,1.1-2-1.19-2.39-.54-3.48,1.91-.56,1.26-1.23,3.17-2,4a39.05,39.05,0,0,1,3.9-10.6A42.35,42.35,0,0,0,62.3,81.79Z" style="fill:#c40e14"/><path d="M53.38,132.42c.92,3.88,0,5.92-.87,6-1.17-8.22-2.52-17.43-4-23.71-1.39-6-.85-15.33,1-23.23h0c.79-.81,1.46-2.72,2-4,1.09-2.45,1.53-3.1,3.48-1.91,1.7,1,4-1.66,5.63-1.1-3.29,6.13-10.09,22.81-5.09,49.25C53.83,130.72,52.69,129.48,53.38,132.42Z" style="fill:#c40e14"/><path d="M71.36,153.64c-.24,0-.39.45-.45,1.33-.15,2.58-4.55-1.41-6.35-2.67h0c-4-9.65-7.46-21-5.86-28.62,3.13-14.92,7.57-31.9,7.42-40.41,0-.53,0-1-.09-1.49l1.64,0,2.07,0c-.9,5.25-7.36,43.73-4.39,56.28C66.66,143.52,69.05,148.58,71.36,153.64Z" style="fill:#c40e14"/><path d="M85,127.05c1.28,2.5-2.16,1.63-1.11,5.08a4.8,4.8,0,0,1-.71,3.77,14.19,14.19,0,0,1-3.08,3.48c-.48-.58-.91-1.14-1.28-1.68a29.78,29.78,0,0,0-4.56-5.21c-3.31-3-6.91-4.81-9.71-5.1a7,7,0,0,0-1.29,0c-1.42-2.2-2.73-4.47-3.95-6.77a117.57,117.57,0,0,1-5.27-11.51c-.49-1.23-1-2.45-1.39-3.65-1.48-4-2.7-7.9-3.68-11.39h0c-.23-.82-.45-1.62-.65-2.4a133.83,133.83,0,0,1-2.88-13.17,5.87,5.87,0,0,1-.1-1c-.06-3.24,2.55-6,10.23-1.16h0c.58.36,1.18.77,1.81,1.23.42.29.85.6,1.28.94a36,36,0,0,1,3.71,3.32c.79.79,1.59,1.64,2.39,2.54.42.46.83.94,1.25,1.42.85,1,1.7,2,2.54,3.07,1.39,1.75,2.77,3.57,4.11,5.41s2.65,3.68,3.88,5.49c2.3,3.34,4.37,6.53,6,9.13,2.14,3.37,3.58,5.77,3.93,6.3,1.07,1.61-.51,3.37-.77,5.22a3,3,0,0,0,0,1C86.18,123.65,83.76,124.55,85,127.05Z" style="fill:#b20b18"/><path d="M108.5,164.16c-5.46-1-14.13-3.95-35.56-24.78a67.35,67.35,0,0,1-9.64-12C67.45,127,74.24,131,78.86,137.7c.37.54.8,1.1,1.28,1.68,5.81,7.15,18.18,16.44,18.18,16.44C107.09,161.56,114,165.19,108.5,164.16Z" style="fill:#dbd3ce"/><path d="M72.5,112.6c-3.81-5.55-6.47-10.7-7.26-8.61s1.77,5.12,5.43,13,2.41,8.63-.49,3.31-5.54-11.52-6.88-11.52,1.26,5,3.43,9.74,2.72,3.52,1.09,3.84-3.07-.44-4.42-4.89-1.17-5.16-3.43-4.43-.23.85-2.55-2.3-1.84-5.3-4.73-5.31c-1.48-4-2.7-7.9-3.68-11.39h0c-.23-.82-.45-1.62-.65-2.4a133.83,133.83,0,0,1-2.88-13.17,5.87,5.87,0,0,1-.1-1c-.06-3.24,2.55-6,10.23-1.16h0s10.59,15,15.75,21.4,2.33,6.2-3.54,0-6.08-4.49,1,5.85S76.3,118.14,72.5,112.6Z" style="fill:#c40e14"/><path d="M20.21,44.85A3.12,3.12,0,1,1,23.33,48,3.12,3.12,0,0,1,20.21,44.85Z" style="fill:#eae3dd"/></g></g></svg>
