<svg xmlns="http://www.w3.org/2000/svg" viewBox="0 0 291.5 130.31"><title>white-cloud-mountain-minnow</title><g id="Layer_2" data-name="Layer 2"><g id="Ñëîé_2" data-name="Ñëîé 2"><path d="M179.67,73.3c-22.81-2.5-65.95-3.58-76.45-1.92s-46.6,2.11-54.47.82a180.27,180.27,0,0,0-18.88-1.66h0C28.25,71,27,71.4,26,71.75c.58.06,13,1.4,14.75,5.29s3.33,6.86,3.33,6.86l.06-.16a1.9,1.9,0,0,0,.09-.36,1.14,1.14,0,0,0,.06-.25s0,0,0,0a2.33,2.33,0,0,0,0-.28,2.51,2.51,0,0,0,0-.27,2.91,2.91,0,0,0,0-.31h0a.76.76,0,0,0,0-.15.15.15,0,0,0,0-.07c0-.16,0-.32,0-.48s0-.21,0-.31c-.25-6.71,2.67,1.51-1.34,9.39,0,0,6.59,1.24,9.1,0s5.58-2.34,8.27-4.53,24.66-9.26,36.91-10,46.26-3.77,64.5,1.75,23.7,4.63,29.23,3.87c4-.56,8.8.52,11.71,1.39a71.93,71.93,0,0,1,23.26,3.33,37.17,37.17,0,0,0,4.63-6.66c.2-.36.39-.73.57-1.1C224.87,75.56,202.3,75.77,179.67,73.3Z" style="fill:#e2bd5c"/><path d="M191.15,81.7c-5.53.76-11,1.64-29.23-3.87s-52.25-2.48-64.5-1.75-34.24,7.8-36.91,10-5.75,3.29-8.27,4.53-9.1,0-9.1,0a17.63,17.63,0,0,1-4.61,5.71l0,0A149.7,149.7,0,0,0,59.36,104c-1.9-5.88-1.83-10.22-1.31-10.26,1.2-.11,3.05,1.75,3.05,1.75s5.58,3.5,7.12,6.42c.63,1.2,2.86,3.21,5.51,5.29,15.21,2.42,27.4,1.26,35.77-1,.5-.13,1-.27,1.48-.42,2.49-.75,6.36-1.84,11.12-3.13,3.86-1,8.3-2.24,13-3.48,18.27-4.84,41-10.67,52.34-13.54l.6-.15h0l4.5-1.14a47.76,47.76,0,0,1,10.28-1.23C200,82.22,195.2,81.14,191.15,81.7Zm-49.54,9.84c-19.36,8-53,14.44-71.37,7.22s-9.19-12.14,14.6-17.88,74.16-4.43,73.65,0S141.76,91.48,141.61,91.54Z" style="fill:#efc76c"/><path d="M44.09,83.9a2.22,2.22,0,0,1-.18.49c-.06.16-.13.32-.2.48a8.17,8.17,0,0,1-.47.87,5.22,5.22,0,0,1-.42.66l-.19.26a14.14,14.14,0,0,1-2,2.13l-.64.55-.12.1c-.23.18-.46.36-.7.53a27.63,27.63,0,0,1-2.48,1.62l-.59.33-.35.19a1.27,1.27,0,0,1-.23.12l-.9.46-1.15.53c-.25.12-.5.22-.73.31l-.65.27C25.76,91.68,7.26,84.59.51,72.18A32.23,32.23,0,0,1,0,66.55C3,68.39,6.86,74,6.86,74A15.17,15.17,0,0,0,1,64c1-1.38,2.31-3.64,5.39-3.64,2.12,0,4-1.08,6.32-2.31a9.39,9.39,0,0,0-1.91,5.72,9.51,9.51,0,0,0,12.67,9l0,0a8.24,8.24,0,0,0,1.18-.51h0c.34-.14.76-.31,1.28-.48h0c.58.06,13,1.39,14.75,5.29S44.09,83.9,44.09,83.9Z" style="fill:#dad2cd"/><path d="M6.86,74S3,68.39,0,66.55a3.19,3.19,0,0,1,.5-1.92A5.84,5.84,0,0,0,1,64,15.17,15.17,0,0,1,6.86,74Z" style="fill:#2b2b2b"/><path d="M43.13,90.59a17.5,17.5,0,0,1-4.6,5.72c-.33-.26-2.35-1.82-4.22-1.82,0,0-.81-.23-2.19-.69l.65-.27.73-.31,1.15-.53.9-.46a1.27,1.27,0,0,0,.23-.12l.35-.19.59-.33A27.63,27.63,0,0,0,39.2,90c.24-.17.47-.35.7-.53l.12-.1.64-.55a14.14,14.14,0,0,0,2-2.13,2.48,2.48,0,0,0,.19-.26,5.22,5.22,0,0,0,.42-.66,6.1,6.1,0,0,0,.47-.87,3.26,3.26,0,0,0,.2-.48,2.22,2.22,0,0,0,.18-.49.43.43,0,0,0,0-.16,2.12,2.12,0,0,0,.1-.36,1.14,1.14,0,0,0,.06-.25.09.09,0,0,0,0,0,2.3,2.3,0,0,0,.06-.28,2.51,2.51,0,0,0,0-.27,2.91,2.91,0,0,0,0-.31h0a.66.66,0,0,0,0-.15.13.13,0,0,0,0-.06c0-.16,0-.32,0-.48s0-.21,0-.32C44.22,74.5,47.14,82.72,43.13,90.59Z" style="fill:#f85e3a"/><path d="M238.25,56.76c.09,0,.46-.12,1.07-.3C238.71,56.62,238.34,56.72,238.25,56.76Zm-214.72,16a9.59,9.59,0,0,0,1.18-.52C24,72.51,23.64,72.69,23.53,72.75Z" style="fill:#00a5b8"/><path d="M272.64,109.37c2,3.4-25.24-16-35-18.1a65.54,65.54,0,0,0-11.49-4.86,37.23,37.23,0,0,0,4.63-6.65s3.8,1.13,9.43,2.95h0c0,.08.85,1.49,15.06,8,14.65,6.73,27.45,12.09,20.67,10S246.49,87.39,244,87.6s31.5,16.19,34.34,19.91c0,0-33.57-17.94-37.41-18.48S270.34,105.43,272.64,109.37Z" style="fill:#dad2cd"/><path d="M283.57,113c0,5.25-14.21,5.47-33.47-12.69a59.45,59.45,0,0,0-12.49-9c9.79,2.06,37,21.5,35,18.1-2.3-3.94-35.55-20.9-31.73-20.34s37.41,18.48,37.41,18.48c-2.84-3.72-36.86-19.69-34.34-19.91s25.15,11.05,31.94,13.13-6-3.28-20.67-10c-14.21-6.52-15-7.93-15.06-8,10.71,3.44,28,9.37,38.35,14.74h0C278.6,100.29,283.57,107.87,283.57,113Z" style="fill:#e9e2dc"/><path d="M277,93.07c0,1.72,1.07,1.68,1.43,2.85-7.59-4.2-30.19-13.42-28-13,2.54.49,21.74,8.36,19.28,5s-25.27-8-23.87-8.61,8.44.33,16.23,1.8,5.1-2.13-5.82-3.94-17.88-3.36-6.89-2.78,17.15-.91,14.35-3-15.9-2.21-16.07-2.79,9.43-.08,17.8-1.31-.66-1.89-10.66-1.8-1.64.16,10.66-2.71,6.65-4.18-7.68-1.56-18.41,3.11-12.34.9,32.55-7.72,33.38-7.89a26.55,26.55,0,0,0-2.91,4.23c-.66,1.53-1.1,2-3.72,3.06s.44,2.85-1.32,3.72-.44,2-1.75,3.72-3.06,8.53,1.31,13.13,4.38,3,3.73,5.68S277,90.88,277,93.07Z" style="fill:#05c2cc"/><path d="M286,46.26c-1.45,1.44-2.84,2.94-4.1,4.38h0c-11.6,3.09-33.62,7.92-44.29,10.22,1.15-2,13.57-5.87,15.09-6.35l.07,0,.09,0c13-3.31,27-6.95,27.89-7.56,1.49-1-34.46,7.72-41.37,9.53,6.71-2,43.83-13.63,43.83-13.63S271,43.74,233.9,54.26c1-.38,31.59-12.55,43.22-13.55,9-.77-.66-1.55-17.71,1.57,8.42-3,15.2-5,23.29-5C296.69,37.29,291,41.22,286,46.26Z" style="fill:#e9e2dc"/><path d="M281.88,50.64c-1.14,1.29-2.16,2.53-3,3.64h0c-.83.17-27.4,5.71-33.38,7.89s-2,1.73,12.34-.9,20-1.31,7.68,1.56-20.67,2.79-10.66,2.71,19,.57,10.66,1.8-18,.74-17.8,1.31,13.29.74,16.07,2.79-3.36,3.53-14.35,3-4,1,6.89,2.78,13.62,5.42,5.82,3.94-14.84-2.38-16.23-1.8,21.41,5.25,23.87,8.61-16.74-4.51-19.28-5c-2.21-.43,20.39,8.79,28,13h0a3.33,3.33,0,0,1,.1,1.3v.22c-10.33-5.37-27.64-11.3-38.35-14.74h0c-5.63-1.82-9.43-2.95-9.43-2.95.2-.36.39-.73.57-1.1a26.7,26.7,0,0,0,2.19-6.15c.13-.54.22-1.09.3-1.64a10.21,10.21,0,0,0-.29-3.82,17.84,17.84,0,0,0-1.26-3.38q-.36-.77-.78-1.5l6.11-1.31C248.26,58.56,270.28,53.73,281.88,50.64Z" style="fill:#f85e3a"/><path d="M201.85,53.69c-15.14,1.28-37.65-3.63-61.69-8.25-37.54-7.22-53.52.16-75.17,4.64-15.61,3.22-26.36,1.8-31.15.75C53.43,45,87.05,36.09,110.92,36.09c3.3,0,6.59.14,9.88.4h0c19.28,1.54,38.12,7.12,52.44,11.3,8.28,2.43,15.05,4.38,19.54,4.81C196,52.91,198.92,53.33,201.85,53.69Z" style="fill:#05c2cc"/><path d="M232.26,63.67S198,63,179,57.66,120,49.59,106.49,53.58c-7.47,0-13.9.57-18.37,1.87C68.92,61,33,62,27.42,57.42a9.47,9.47,0,0,0-5.31-3c2.78-.87,6.8-2.14,11.72-3.6h0c4.79,1.05,15.54,2.47,31.15-.75,21.65-4.48,37.63-11.86,75.17-4.64,24,4.62,46.55,9.53,61.69,8.25,0,0,0,0,0,0,6.86.86,13.59,1.45,22.9-.27a52.18,52.18,0,0,1,5.45,6.71c.44.66.86,1.35,1.26,2Q231.9,62.9,232.26,63.67Z" style="fill:#00a5b8"/><path d="M24.46,63.1a4.59,4.59,0,1,1-9.18,0,3.93,3.93,0,0,1,0-.49,3.57,3.57,0,0,1,.1-.57,4.59,4.59,0,0,1,4.47-3.53,4.49,4.49,0,0,1,2.95,1.08,3.8,3.8,0,0,1,.68.71A4.52,4.52,0,0,1,24.46,63.1Z" style="fill:#2b2b2b"/><path d="M23.53,72.75a9.59,9.59,0,0,0,1.18-.52C24,72.51,23.64,72.69,23.53,72.75Z" style="fill:#00a5b8"/><path d="M27.43,57.42a9.54,9.54,0,0,0-5.31-3,10.34,10.34,0,0,0-1.78-.16,9.52,9.52,0,1,0,3.17,18.49s0,0,0,0,.48-.24,1.18-.52h0a9.53,9.53,0,0,0,2.7-14.81ZM20.34,72.2a8.42,8.42,0,0,1-3.74-16h0a7.9,7.9,0,0,1,2-.7h0a8.65,8.65,0,0,1,1.69-.17,8.45,8.45,0,0,1,7.09,3.86,8.42,8.42,0,0,1-7.09,13Z" style="fill:#05949b"/><path d="M27.73,67.83a8.43,8.43,0,0,1-14.51.45s1.27-1,2.18,0a5.58,5.58,0,0,0,4.47,1.77c1.64-.28,4.26-1,4.59-1.64S27.73,67.83,27.73,67.83Z" style="fill:#05c2cc"/><path d="M26,63.1c0,.93-.92,2.57-2.07,3.88s-4.33,1.59-5.25,1.43a13.18,13.18,0,0,1-3.39-1.32,2.2,2.2,0,0,1-1.1-2.67,3,3,0,0,1,1.12-1.81,3.93,3.93,0,0,0,0,.49,4.59,4.59,0,1,0,9.18,0,4.52,4.52,0,0,0-1-2.8A2.58,2.58,0,0,1,26,63.1Z" style="fill:#f85e3a"/><path d="M28.77,63.78a8.38,8.38,0,0,1-1,4s-2.94,0-3.27.58-2.95,1.36-4.59,1.64a5.58,5.58,0,0,1-4.47-1.77c-.91-1-2.18,0-2.18,0a8.58,8.58,0,0,1-1.16-3,13.68,13.68,0,0,0,1.3-2.2c.39-.93,2-1.06,2-1.06a3.57,3.57,0,0,0-.1.57,3,3,0,0,0-1.12,1.81,2.2,2.2,0,0,0,1.1,2.67,13.18,13.18,0,0,0,3.39,1.32c.92.16,4.1-.12,5.25-1.43S26,64,26,63.1a2.58,2.58,0,0,0-2.49-2.8,3.8,3.8,0,0,0-.68-.71c.33-.24,2.14.17,2.84.34s1.76-.71,1.76-.71A8.28,8.28,0,0,1,28.77,63.78Z" style="fill:#e2bd5c"/><path d="M27.42,59.22s-1,.87-1.76.71-2.51-.58-2.84-.34a4.49,4.49,0,0,0-2.95-1.08A4.59,4.59,0,0,0,15.4,62s-1.65.13-2,1.06a13.68,13.68,0,0,1-1.3,2.2,8.42,8.42,0,0,1,4.54-9.07h0a8.29,8.29,0,0,1,2-.69h0a8.43,8.43,0,0,1,8.77,3.69Z" style="fill:#05c2cc"/><path d="M175.73,40c-1,.65-4.1.82-3.12-3.94a11.21,11.21,0,0,1,.94-2.93,7.11,7.11,0,0,1-2.25,1.62c-3.61,1.8-4.43,2.46-3-3.41s.65-3.16-2.46-1.19-3.45,1.81-2.79-2.95,2.46-6.73,0-4.92-3.94,4.43-4.6,1.59,0-6-2-2.74-2.79,2-3.94-1.64a4.36,4.36,0,0,1,.1-3.23c-.2.22-.48.52-.88.89-2.9,2.75-3.82,1.68-3.82-1.76s-4.43,3-5.57.16,5.74-12,2.46-8.37-8.53,13.46-8.53,8.7c0-3.15,1.22-9.56,2-13.54-2.07,2.76-4.76,8-6.64,16.49-3.21,14.49-10.67,17.52-10.95,17.64,19.29,1.53,38.12,7.12,52.44,11.3a10.52,10.52,0,0,1,1.89-2.95C174.14,43.08,176.6,39.45,175.73,40ZM136.36,20.12c-.36,3-4.71,12.25-4.71,12.25-.81,1.77-1-1.09-.43-5S136.71,17.15,136.36,20.12Zm4.81,12.79c-.08,2.06-.88,4.71-2.19-3.06s2.74-15,2.63-10.5S141.17,32.91,141.17,32.91Zm3.93,2.15c-1,.75-.21-6.79-.38-9.75s.61-4.59,2.35-4.43c0,0,1.26,0,1.32,2S146.15,34.32,145.1,35.06Zm5-5.37c1.59-6.23,1.48-8.13,2.73-6.83s2.09,1.44,1.84,2.12c0,0-3.74,10-4,12.64S148.5,35.92,150.08,29.69Zm5.42,9.68c1.64-2.41,5.14-13.78,5.14-12.85s.21,4.86,1.53,5.74-5.56,8.44-6,9C154.87,42.68,153.86,41.78,155.5,39.37ZM164.85,38c-1.75,1.37-3.83,4.26-2.51,1.8a45.48,45.48,0,0,0,2.51-6.29c.38-1.14,1.25-1.2,1.09.33S166.6,36.58,164.85,38Zm6.12-.11c-.05,1.53.22,2.13-1.85,3.71S164.3,44.62,166,42.7a25.52,25.52,0,0,0,3.12-4.86C170.26,35.75,171,36.3,171,37.84Z" style="fill:#f85e3a"/><path d="M178.19,42.25h0a16.16,16.16,0,0,0-3,2.59c-1-1.77,1.45-5.4.59-4.83s-4.1.82-3.12-3.93a11.06,11.06,0,0,1,.93-2.93c.2-.23.16-.28,0,0a7.05,7.05,0,0,1-2.24,1.61c-3.61,1.81-4.43,2.46-3-3.4s.65-3.16-2.47-1.19-3.44,1.8-2.78-2.95,2.46-6.73,0-4.93-3.94,4.43-4.6,1.6,0-6-2-2.74-2.79,2-3.93-1.64a4.37,4.37,0,0,1,.09-3.23c.64-.74.32-.68,0,0-.19.22-.48.52-.87.89-2.91,2.75-3.82,1.68-3.82-1.77s-4.43,3-5.58.17,5.75-12,2.46-8.37-8.53,13.45-8.53,8.7c0-3.15,1.22-9.56,2.05-13.54,1.55-2.06,2.76-2.71,3-2.21A1.29,1.29,0,0,0,142,.6c-2.1,4.79-4.63,13.6-2.27,10.27,1.71-2.41,4.28-6.64,6-8.39.27.1,1.18-.14,1.83.23a4,4,0,0,1,0,.51c0,5-5.22,12.06-2.13,10.39,2.22-1.2,4.35-6.54,5.72-8.94a2.08,2.08,0,0,1,.63.74,2.46,2.46,0,0,0,.49.65,27.16,27.16,0,0,0-1.59,4.76c-1.09,4.76-1,5.8,1.38,2.19,1.11-1.64,2.5-3.94,3.53-5.34a1.26,1.26,0,0,0,1.18.77q-.08.35-.18.75c-1.75,6.57-2.14,11.59.44,7.37,1-1.62,2.34-3.82,3.51-5.39.63.21,1.16.44,1.24,1.29a.94.94,0,0,0,.55.83c-2.35,9-2.63,9.89,1.09,5a20.1,20.1,0,0,1,2.68-2.91c.89,1.65,2.52,1.59,3.81,2.16-1.74,4.6-4.13,10-2.22,8A36.59,36.59,0,0,1,173.74,21a1.8,1.8,0,0,1,.35,1.18,4,4,0,0,0,.56,2.39c-1.63,2.26-4.09,5.89-4.88,8.08-1.08,3,2.89-1.32,7.34-2.8.25.27.55.59.92,1,.15.18.31.36.46.55-1.56,1.39-3.64,3.42-4.33,6,0,0-.35,2.18,3.75-.39C181.27,34.87,179.4,38.67,178.19,42.25Z" style="fill:#e2bd5c"/><path d="M145.75,2.13c-.15.21-.15.31,0,.35-1.74,1.75-4.31,6-6,8.39-2.36,3.33.17-5.48,2.27-10.27C143.29,1.28,146.35,1.29,145.75,2.13Z" style="fill:#f9d07d"/><path d="M151.15,4.67c-1.37,2.4-3.5,7.74-5.72,8.94-3.09,1.67,2.13-5.36,2.13-10.39a4,4,0,0,0,0-.51,1.35,1.35,0,0,1,.63.89C148.58,5.24,150,3.92,151.15,4.67Z" style="fill:#f9d07d"/><path d="M155.59,7.67c-1,1.4-2.42,3.7-3.53,5.34-2.42,3.61-2.47,2.57-1.38-2.19a27.16,27.16,0,0,1,1.59-4.76c1.18,1.11,2.85.05,3.28,1.48A.5.5,0,0,0,155.59,7.67Z" style="fill:#f9d07d"/><path d="M160.54,11.17c-1.17,1.57-2.52,3.77-3.51,5.39-2.58,4.22-2.19-.8-.44-7.37q.1-.4.18-.75c.71.11,1.52.1,1.9,1.23S159.83,10.93,160.54,11.17Z" style="fill:#f9d07d"/><path d="M166.1,15.35a20.1,20.1,0,0,0-2.68,2.91c-3.72,4.92-3.44,4.06-1.09-5,.92.42,2.73,0,3.72,2Z" style="fill:#f9d07d"/><path d="M173.74,21a36.59,36.59,0,0,0-6.05,4.51c-1.91,2,.48-3.36,2.22-8a2.69,2.69,0,0,1,1.55,1.68C172.2,21.27,173.21,20.43,173.74,21Z" style="fill:#f9d07d"/><path d="M177.11,29.81c-4.45,1.48-8.42,5.83-7.34,2.8.79-2.19,3.25-5.82,4.88-8.08a12.07,12.07,0,0,1,.59,1.71C175.89,28.6,176.13,28.76,177.11,29.81Z" style="fill:#f9d07d"/><path d="M178.19,42.25c1.21-3.58,3.08-7.38-.28-5.29-4.1,2.57-3.75.39-3.75.39.69-2.54,2.77-4.57,4.33-6,1.69,2,3.54,4.41,4.29,6.66C183.26,39.49,180.82,40.47,178.19,42.25Z" style="fill:#f9d07d"/><path d="M136.35,20.12c-.35,3-4.7,12.25-4.7,12.25-.81,1.77-1-1.09-.44-5S136.71,17.15,136.35,20.12Z" style="fill:#f97e61"/><path d="M141.6,19.35c-.11,4.46-.44,13.55-.44,13.55-.07,2.06-.87,4.72-2.18-3S141.71,14.87,141.6,19.35Z" style="fill:#f97e61"/><path d="M156.13,41.22c-1.26,1.46-2.27.56-.63-1.85s5.13-13.78,5.13-12.85.22,4.86,1.53,5.74S156.61,40.69,156.13,41.22Z" style="fill:#f97e61"/><path d="M171,37.84c-.05,1.53.22,2.13-1.86,3.71S164.3,44.62,166,42.7a25.24,25.24,0,0,0,3.11-4.86C170.26,35.74,171,36.3,171,37.84Z" style="fill:#f97e61"/><path d="M154.64,25s-3.74,10-4,12.64-2.14-1.7-.55-7.93,1.48-8.13,2.73-6.83S154.9,24.29,154.64,25Z" style="fill:#f97e61"/><path d="M148.38,22.86c.06,2-2.24,11.45-3.28,12.2s-.22-6.8-.38-9.75.6-4.59,2.35-4.43C147.07,20.88,148.33,20.9,148.38,22.86Z" style="fill:#f97e61"/><path d="M164.85,37.94c-1.75,1.37-3.83,4.27-2.52,1.81a44.72,44.72,0,0,0,2.52-6.29c.38-1.15,1.25-1.2,1.09.33S166.59,36.58,164.85,37.94Z" style="fill:#f97e61"/><path d="M233.51,72.51a26.7,26.7,0,0,1-2.19,6.15c-6.45-3.11-29-2.89-51.65-5.36-22.81-2.5-66-3.58-76.46-1.93s-46.59,2.12-54.47.83a180.16,180.16,0,0,0-18.87-1.66q.76-.23,1.65-.45C37.2,68.63,73,68.41,94.35,65.3s72.52,1.14,84.33,3.66S232.85,72.5,233.51,72.51Z" style="fill:#f85e3a"/><path d="M233.52,67.05s-33.35-1.2-52.21-5c-14.47-2.92-50.26-8.52-74.82-8.46C120,49.59,160,52.33,179,57.66s53.25,6,53.25,6A17.84,17.84,0,0,1,233.52,67.05Z" style="fill:#f85e3a"/><path d="M239.37,56.45c6.7-2,43.82-13.63,43.82-13.63S271,43.74,233.9,54.27c1-.38,31.59-12.56,43.22-13.56,9-.77-.66-1.55-17.71,1.57h0c-6.15,2.2-13.16,5-22.2,7.91a94.28,94.28,0,0,1-12.43,3.23,52,52,0,0,1,5.45,6.7q.67,1,1.26,2l6.11-1.31c1.15-2,13.57-5.87,15.09-6.34l.07,0,.09,0c13-3.31,27-6.95,27.89-7.55C282.23,45.87,246.27,54.63,239.37,56.45Zm-1.12.31c.09,0,.46-.14,1.07-.3C238.71,56.64,238.34,56.75,238.25,56.76Z" style="fill:#dad2cd"/><path d="M233.52,67.05s-33.34-1.2-52.21-5c-14.47-2.92-50.26-8.52-74.81-8.46-7.48,0-13.9.57-18.38,1.87C68.93,61,33,62,27.43,57.42a9.53,9.53,0,0,1-2.7,14.81c.35-.14.77-.3,1.28-.48h0c1-.35,2.24-.76,3.85-1.21h0l1.65-.44C37.2,68.63,73,68.41,94.36,65.3s72.51,1.14,84.32,3.66,54.17,3.54,54.83,3.56a15.89,15.89,0,0,0,.3-1.65A10,10,0,0,0,233.52,67.05Zm-54.07-.89c-8.6-1-17.19-2.15-25.8-3.1-9.9-1.09-19.84-2.05-29.8-2.42A123,123,0,0,0,108.5,61c-5.21.46-10.34,1.47-15.54,1.92-8.59.75-17.22,1.06-25.83,1.29-7.63.2-15.26.29-22.89.44-2.28,0-4.59,0-6.87.23a7.5,7.5,0,0,1-4.17-.39,3.32,3.32,0,0,1-1.53-2.25c-.25-1.65,1.2-1.72,2.4-1.53,1,.14,2,.4,2.9.55,1.56.24,3.13.42,4.7.56A105.23,105.23,0,0,0,56.84,62c1.82-.1,3.63-.24,5.45-.42,10.86-1.08,21.59-3.23,32.38-4.84a119.31,119.31,0,0,1,13.72-1.46,124.31,124.31,0,0,1,13.64.78c8.18.65,16.37,1.24,24.54,2,8.94.82,17.89,1.76,26.73,3.31a93,93,0,0,1,10.31,2.29C201.44,68.9,198.48,68.46,179.45,66.16Z" style="fill:#00b7b7"/><path d="M158.49,80.88c-.51,4.42-16.74,10.6-16.89,10.66-19.35,8-53,14.44-71.36,7.22s-9.19-12.14,14.6-17.88S159,76.45,158.49,80.88Z" style="fill:#f9d07d"/><path d="M179.45,66.16c-8.6-1-17.19-2.15-25.8-3.1-9.91-1.09-19.84-2.05-29.8-2.42A125,125,0,0,0,108.5,61c-5.21.46-10.34,1.47-15.54,1.93-8.59.75-17.22,1-25.83,1.28-7.63.21-15.26.3-22.89.45-2.28,0-4.59,0-6.87.23a7.59,7.59,0,0,1-4.17-.39,3.32,3.32,0,0,1-1.53-2.25c-.26-1.65,1.19-1.72,2.39-1.53,1,.14,1.95.4,2.9.55,1.57.24,3.14.42,4.71.56A105.21,105.21,0,0,0,56.84,62c1.81-.09,3.62-.23,5.44-.42,10.86-1.07,21.59-3.22,32.39-4.83a119.31,119.31,0,0,1,13.72-1.46,124.59,124.59,0,0,1,13.64.78c8.17.65,16.36,1.24,24.53,2,8.94.82,17.89,1.76,26.74,3.31a92.8,92.8,0,0,1,10.3,2.29C201.43,68.9,198.48,68.46,179.45,66.16Z" style="fill:#02ccc6"/><path d="M84.18,129.39c.11,2.07-2.62,0-2.62,0A43.15,43.15,0,0,1,59.36,104C57.45,98.11,57.53,93.77,58,93.72c1.2-.1,3.06,1.76,3.06,1.76s5.58,3.49,7.12,6.42c.63,1.2,2.86,3.21,5.51,5.28a82.62,82.62,0,0,0,10.56,7.11,3.47,3.47,0,0,1,2.06,2.91,77,77,0,0,1-16-10.61h0A34.21,34.21,0,0,1,66.9,103c-4.68-5.64-3.84-2.16.94,3.07h0a47,47,0,0,0,11,8.86c13.24,7.65-2.71,1.58-8.2-3.94s.76,5.14,9.08,8.42-7.42,4.15-15.91-11.6c-.74-1.37-1.34-2.39-1.8-3.12h0c-1.24-1.92-1.53-1.74-1-.27C62.55,108.76,71.28,124.23,84.18,129.39Z" style="fill:#dad2cd"/><path d="M83.53,125.55c-1.21,1.43.54,1.75.65,3.84-12.9-5.16-21.63-20.63-23.2-24.95-.52-1.47-.23-1.65,1,.27h0c.46.73,1.06,1.75,1.8,3.12,8.49,15.75,24.22,14.88,15.91,11.6S65.13,105.49,70.62,111s21.44,11.59,8.2,3.94a47,47,0,0,1-11-8.86h0c-4.78-5.23-5.62-8.71-.94-3.07a34.21,34.21,0,0,0,3.47,3.57h0a77,77,0,0,0,16,10.61,7.1,7.1,0,0,1-1.4,4.42C83.85,123,84.73,124.14,83.53,125.55Z" style="fill:#e9e2dc"/><path d="M136.43,116.48c-.18-1.92-1.62-3.65-6-4-10.64-.91-21.19-9.6-11.67-5.66s15.42.9,9.71.74-8.4-3.37-6-2.3,9,.64,9.31.62h0c.24.24.58.54,1.1,1.1,1.31,1.43,1,1.75,1.21,3.07s.1,2.51,1,2.62a2.57,2.57,0,0,1,2.52,2.11C137.82,115.53,137.17,116.1,136.43,116.48Z" style="fill:#e9e2dc"/><path d="M136.43,116.48a7.83,7.83,0,0,1-1.83.65c-14.65.11-25.11-10.95-25.11-10.95.51-.13,1-.28,1.49-.42,2.48-.75,6.36-1.84,11.12-3.13,5.05,3.71,9.11.72,9.22,1.92a1.69,1.69,0,0,0,.54,1.31c-.28,0-6.93.43-9.31-.62s.25,2.13,6,2.3-.2,3.19-9.71-.74,1,4.75,11.67,5.66C134.81,112.83,136.25,114.56,136.43,116.48Z" style="fill:#dad2cd"/><path d="M182.84,87.86c-3.94.61,4.26,1.7,7.21,5.86s-5.84-4.5-13-4.06,4.59.46,9.84,9.31c-.35-.21-12.67-7.73-19.35-6.12s4.6-.54,13.18,8.53c0,0-16.35-7.1-20.73-6.23s11.6,1.42,17,12.8c0,0-14.15-9.3-18.45-9s9.68,3.51,14.93,11.71c-.4-.25-13.16-8.12-18.78-9.3s15.84,12.75,16.33,13.38-14.18-6.93-19.15-10.64-6.28-1.1,5,7,10.6,9.84,10.6,9.84-19.44-15.9-21.65-15.67h0c-5-5.6-10.62-6.14-10.62-6.14,18.28-4.84,41-10.68,52.35-13.54,0,0,5.09,2.76,6.3,4.51S186.79,87.25,182.84,87.86Z" style="fill:#dad2cd"/><path d="M198.53,91.15c-1.15.09-2.79,1.21-4.1,3.51s-1,2.46-3.44,2.46-2.3.65-2.46,3-.83,2.24-3.61,2.5-5.42,3.67-5.42,7.13-1,2-3.58,3-3.14,1.79-3.14,4.41-.33,2.79-3.19,4.6.4,6.4-1.37,3.77-16.61-13-21.74-19.36c-.24-.29-.48-.58-.72-.85C148,105.06,167.41,121,167.41,121s.66-1.75-10.6-9.84-10-10.72-5-7,19.64,11.26,19.15,10.64-22-14.58-16.33-13.38,18.38,9.05,18.78,9.3c-5.25-8.2-19.24-11.38-14.93-11.71s18.45,9,18.45,9C171.58,96.57,155.6,96,160,95.15s20.73,6.23,20.73,6.23c-8.58-9.07-20-6.89-13.18-8.53s19,5.91,19.35,6.12c-5.25-8.85-17-8.87-9.84-9.31s16,8.23,13,4.06-11.15-5.25-7.21-5.86,12.14,4,10.94,2.26-6.3-4.51-6.3-4.51l.59-.15h0C193.86,85,199.68,91.05,198.53,91.15Z" style="fill:#e9e2dc"/><circle cx="17.63" cy="58.82" r="2.07" style="fill:#e9e2dc"/></g></g></svg>