<svg xmlns="http://www.w3.org/2000/svg" viewBox="0 0 274.44 91.08"><title>zebra-danio</title><g id="Layer_2" data-name="Layer 2"><g id="Ñëîé_2" data-name="Ñëîé 2"><path d="M20.85,54.8C2.07,45.07-.11,34.84,0,32.55c.09-1.59.85-1.34,1.87-.93C3.23,39.42,12,46,16.59,48.62S20.85,54.8,20.85,54.8Z" style="fill:#5f8687"/><path d="M138.63,62.55c-6.71,1.39-10.63,2-27.09,0s-37.6-.89-47.73-1.27-20.76-3.92-16.33-8.86a13.46,13.46,0,0,0,2.16-3.13,8.21,8.21,0,0,0,.76-2.57h0a9.73,9.73,0,0,0-.54-4.41,23,23,0,0,0-2.44-4.82c-.26-.41-.54-.84-.84-1.27a9.92,9.92,0,0,0-3.35-3.36c-2.92-1.57-5.56.45-10.32-1.33s-5.61-6.81-5.71-9.3C21.36,23.56,15.05,25.12,8.11,27c0,0-4.82.51-4.18,2.41s1.78,2.79-.06,2.79a5.52,5.52,0,0,1-2-.55C3.23,39.42,12,46,16.59,48.62s4.26,6.18,4.26,6.18c1.9,1,4,2,6.25,2.94,22.23,9.51,54,16,76.13,16.6,2.31.06,4.52.06,6.6,0,9.73-.34,15.2-1.47,19.43-2.92,3.67-1.25,6.39-2.74,10.15-4.15a50.89,50.89,0,0,1,5.81-1.8c2.56-.64,5.91-1.43,9.8-2.2h0a178.2,178.2,0,0,1,22.48-3.11C165.85,57.74,145.34,61.16,138.63,62.55ZM18,40.94c-3.65,0-6.6-2.63-6.6-5.86s3-5.87,6.6-5.87,6.6,2.63,6.6,5.87S21.61,40.94,18,40.94Zm26.73,7a9.35,9.35,0,0,1-.64,2.27c-1.58,3.56-5.76,5.05-9.38,5.34-3.14.26-8.63.16-10.87-2.57-2.91-3.55,5.45-1.9,8.87-9.62s6.58-7.85,9.74-4.56C44.43,40.85,45.2,44.72,44.69,47.89Z" style="fill:#416768"/><path d="M37.64,26.27A1.93,1.93,0,0,0,38,27,3.68,3.68,0,0,1,37.64,26.27Z" style="fill:#27626a"/><path d="M221.6,38c-.17-.54-.34-1-.51-1.48a4.05,4.05,0,0,1-1.43-.08c-.88,0-30.8-3.2-49.48-7.31-1.39-.3-2.71-.61-4-.92l-.11,0a44.09,44.09,0,0,1-8.37-2.77c-8.81-4.41-21.95-11.31-41.5-13l-.25,0h0a110.79,110.79,0,0,0-18.63.1C72.26,14.74,55,15.9,27.21,22.23c.1,2.49.93,7.52,5.71,9.3s7.4-.24,10.32,1.33c.41.2,6.84-.19,8.55,0s7.21.76,12.15,1,9.87.53,14.62,2,11.59-.38,15.19-1.71,13.87,1.52,19.56,2.51,22.79,1.67,28.11,0,15.57.15,19.18,1.42,23,2.72,24.68,2.82,9.31.66,10.64,2.1,12.53,1,16.14.17S222.86,45,222.86,45A29.59,29.59,0,0,0,221.6,38Zm-54-3c-2.46-.06-11.39-1.84-14.24-2.27s-13.86-1.66-18.8-2.23-9.3.38-14.24,1-12.15-.09-18-1.43S90,29.63,86.54,30a37.77,37.77,0,0,1-12-.8c-4.93-1-5.69,0-10.82,0s-12.15-.53-15.19-1.47-7.22-.2-9.12,0h-.27A1.47,1.47,0,0,1,38,27L38,27a1.93,1.93,0,0,1-.34-.69,0,0,0,0,0,0,0A1.15,1.15,0,0,1,38.06,25a1.76,1.76,0,0,1,.42-.24,8.38,8.38,0,0,1,3.2-.2h.66c.22,0,.44,0,.66,0l1.59,0c.72,0,1.45,0,2.16,0,.44,0,.88,0,1.32.05s.87,0,1.31.07l1.27.12c5.69.63,7,.88,12.15.12S73.62,27,79.7,26s17.66.19,22.64,1.71,10.59.95,18.57-1.14,16.9,2.66,22.41,2.62,23.54,3.84,27.72,5S170.09,35.14,167.62,35.08Z" style="fill:#476f72"/><path d="M39.17,27.73A1.47,1.47,0,0,1,38,27,1.86,1.86,0,0,0,39.17,27.73Z" style="fill:#27626a"/><path d="M220.45,59.46a37.89,37.89,0,0,1-2,4.38s-5.91-1.55-10.56-.88h0a51.23,51.23,0,0,0-9.55-2.25l-.1,0c-2.1-.31-4.27-.53-6.45-.66q-1.8-.1-3.6-.15s-16.52-3.65-19.37-2.51-10.82-.28-16.71-1.09-11.23,0-17,1.8-7.29,2.61-13.75,1.8-11-1.08-13.29-1.8-7.41-2.89-9.5-1.8-14,1.18-16.71-.67S73.43,54.05,71,52.76s-9.31-1.48-12.92-1.67-4.48-2.27-8.41-1.8a8.21,8.21,0,0,0,.76-2.57h0a17.59,17.59,0,0,1,6.12-.57c2.85.38,3.23-.57,6.08.57s8.55.57,9.68,1.52,3.8.77,5.7,1,6.65,1.23,8.55,1.8,4.37-.38,8.73,0,8.36.76,10.64.19,4.74-.75,9.3.29,16.11,1.43,19.83,0,5.62-2,9.23-1.43,9.3.62,12.72,1.45,8.17,1,12,2,7.79-.75,10.26,1.24,8.73-1,11.77,0,5.32-.18,8,1.47,9.11,3.37,12.91,3.18S220.45,59.46,220.45,59.46Z" style="fill:#476f72"/><path d="M188.13,59.87c-3.54-.07-7.11,0-10.63.28-11.65-2.41-32.16,1-38.87,2.4s-10.63,2-27.09,0-37.6-.89-47.73-1.27-20.76-3.92-16.33-8.86a13.46,13.46,0,0,0,2.16-3.13c3.93-.47,4.8,1.61,8.41,1.8S68.5,51.47,71,52.76s8.16,1,10.82,2.84,14.62,1.76,16.71.67,7.22,1.09,9.5,1.8,6.83,1,13.29,1.8,8,0,13.75-1.8,11.13-2.61,17-1.8,13.87,2.23,16.71,1.09S188.13,59.87,188.13,59.87Z" style="fill:#d7d183"/><path d="M218.4,63.84c-.56,1-1.19,2.1-1.9,3.18q-2.17-1.22-4.44-2.32A36.93,36.93,0,0,0,207.84,63C212.49,62.29,218.4,63.84,218.4,63.84Z" style="fill:#d7d183"/><path d="M244.72,33.56c-10,4.56,7-3.42,19.75-1.65,0,0-12.41,1.5-15.07,3.22s13.4-1,18,0-6,1-9.36,2.9c-2.84,1.58,2.91,0,8,2.49-1.68,1.27-2.52,2.35-2.52,3.92,0,1.82-.48,2.18-3.61,4.71-2-.16-4.52-.57-5.89-1.67a13.69,13.69,0,0,0-8.36-3c-2.4.13-6.07-.88-9.23-1.13s-4.69.18-7.48-1.11A37.38,37.38,0,0,1,221.6,38c-.17-.54-.34-1-.51-1.48A17.3,17.3,0,0,0,226,35.31a11.68,11.68,0,0,0,1.77.4c2.66.38,3.68,3,7.73,2.32s5.57.47,8.35,1.36,4.56.25,8.87,1.89a49.62,49.62,0,0,0,8.48,2.35s1.52-.32-2.4-2-7.22-3.35-9.88-3.63-6.84-1.81-7.34-2.32-3.42.11-5.32-.58c-1.36-.48-2.33-1.66-3.46-3.24,9.06-5,21.39-7.24,33.71-9,3.78-.52,5.87-.11,6.94.81-7.19.74-25.05,2.83-31.74,6.09-8.49,4.12,15.31-3.36,25.44-2.09S254.71,29,244.72,33.56Z" style="fill:#c4bc6c"/><path d="M261.18,43.63a49.62,49.62,0,0,1-8.48-2.35c-4.31-1.64-6.08-1-8.87-1.89s-4.3-2-8.35-1.36-5.07-1.94-7.73-2.32a11.68,11.68,0,0,1-1.77-.4,45.5,45.5,0,0,0,6.08-3l.72-.4c1.13,1.58,2.1,2.76,3.46,3.24,1.9.69,4.81.08,5.32.58s4.68,2,7.34,2.32,5.95,2,9.88,3.63S261.18,43.63,261.18,43.63Z" style="fill:#416768"/><path d="M259.85,49.15l-2.05,1.67a46.35,46.35,0,0,1-5.74-1.6c-1.52-.72-7.47-3-10.75-2.5s-9.88,1.26-12-.07S222.86,45,222.86,45a29.59,29.59,0,0,0-1.26-7,37.38,37.38,0,0,0,7.29,4.17c2.79,1.29,4.31.85,7.48,1.11s6.83,1.26,9.23,1.13a13.69,13.69,0,0,1,8.36,3C255.33,48.58,257.83,49,259.85,49.15Z" style="fill:#416768"/><path d="M257.8,50.82l-.92.77a7.55,7.55,0,0,0-2.07,2.51c-2.22,0-4.52.2-5.66-.3-2-.9-6-.87-8.73-1.63s-4.69-.25-6.78-1.08-3.48-.19-6.77,0a20.63,20.63,0,0,1-4.22,0,30.93,30.93,0,0,0,.21-6.07s4.26.31,6.41,1.63,8.74.58,12,.07,9.23,1.78,10.75,2.5A46.35,46.35,0,0,0,257.8,50.82Z" style="fill:#c4bc6c"/><path d="M254.67,57.6c-1.68.56-3.59,1-4.63.65-2.16-.76-5.07-2.31-7.6-2s-5.57-.16-8.23,0-4.94-.77-6.84-.77-5.62.14-5.62.14a33.29,33.29,0,0,0,.9-4.51,20.63,20.63,0,0,0,4.22,0c3.29-.19,4.68-.82,6.77,0s4,.32,6.78,1.08,6.7.73,8.73,1.63c1.14.5,3.44.33,5.66.3A4.26,4.26,0,0,0,254.67,57.6Z" style="fill:#416768"/><path d="M257.56,61.25a13.57,13.57,0,0,1-2.84.29c-4.68,0-7.47-2.6-10-1.36s-5.95.12-9.11-.72-4.94-.17-7.86,0-7.3,0-7.3,0a34.27,34.27,0,0,0,1.29-3.86h0s3.73-.14,5.62-.14,4.18.89,6.84.77,5.7.37,8.23,0,5.44,1.22,7.6,2c1,.36,3-.09,4.63-.65A9.63,9.63,0,0,0,257.56,61.25Z" style="fill:#c4bc6c"/><path d="M260.33,63.65a26.73,26.73,0,0,1-12.95.19c-3.55-.85-5.19-.15-8.48.58s-4.43,0-7.09-.58-6.21-1.29-10.06,0-3.35,0-3.35,0a37.89,37.89,0,0,0,2-4.38s4.39.18,7.3,0,4.69-.83,7.86,0,6.58,1.95,9.11.72,5.32,1.36,10,1.36a13.57,13.57,0,0,0,2.84-.29,17.83,17.83,0,0,0,1.6,1.17A3.67,3.67,0,0,1,260.33,63.65Z" style="fill:#416768"/><path d="M261,67.31a40,40,0,0,0-7.63,2c-2.79,1.27-4.43.51-7.35,0s-4.67-1.71-9.36-.79-6.08-.16-10.13,0c-2.74.11-4.49.14-6.16.74-1.26-.75-2.53-1.48-3.83-2.19.71-1.08,1.34-2.14,1.9-3.18,0,0-.51,1.3,3.35,0s7.4-.6,10.06,0,3.8,1.3,7.09.58,4.93-1.43,8.48-.58a26.73,26.73,0,0,0,12.95-.19A6.79,6.79,0,0,1,261,67.31Z" style="fill:#c4bc6c"/><path d="M261,67.31c0,.75,0,1.56,0,2.43h0c-1.83.91-3.89,2-5,2.61-2.28,1.33-4.18,1-8.55,0s-7.78-1.52-11.77-.19A39.64,39.64,0,0,1,227.79,74c-2.39-1.63-4.88-3.25-7.46-4.81,1.67-.6,3.42-.63,6.16-.74,4-.16,5.44.92,10.13,0s6.46.28,9.36.79,4.56,1.27,7.35,0A40,40,0,0,1,261,67.31Z" style="fill:#416768"/><path d="M233.64,77c-2.78-2.06-4.14-2.51-4.31-1.93-.5-.35-1-.7-1.54-1a39.64,39.64,0,0,0,7.82-1.85c4-1.33,7.4-.76,11.77.19s6.27,1.33,8.55,0c1.11-.65,3.17-1.7,5-2.61v0a40.19,40.19,0,0,0,0,4,55.81,55.81,0,0,1-10,1.24c-7.09.15.51,2.31,5.32,2.31s-4.85,2.4-13.13-1.27S246,80.91,258,82.93,247.88,87.49,233.64,77Z" style="fill:#c4bc6c"/><path d="M256.37,91c-6.41-.35-15.57-8.06-27-16,.17-.58,1.53-.13,4.31,1.93,14.24,10.5,36.4,8,24.38,5.94s-23.19-10.5-14.91-6.83,17.94,1.27,13.13,1.27-12.41-2.16-5.32-2.31a55.81,55.81,0,0,0,10-1.24,11,11,0,0,0,.26,1.27c.51,2,1.77,3.29,3,7.84S265.73,91.54,256.37,91Z" style="fill:#416768"/><path d="M181.49,23.56a12.47,12.47,0,0,1-4.83,4.16,4.26,4.26,0,0,0,.83-1.16c.75-1.47,1.39-4.39-.86-9.27-3.5-7.6-7.87-14.62-24.2-12.53-15.82,2-28.24,4.81-29,5C133.66,6.12,151.61.14,158.89,0c10.44-.19,14.24,3,16.52,7.59S182.82,22,181.49,23.56Z" style="fill:#476f72"/><path d="M177.49,26.56c-5.07-2.21-19.87-2.12-16.58-2.75s17.27-.13,10.13-1.39-20.6-.54-14.81-2.15,18-1.27,12.15-1.77-19.62.25-16.84-.89,16.71-2.79,14.69-3.22-17.85,2.46-20.63,1.67,12.78-3.39,16.33-4.91S144.71,13.94,141,13.94s13.46-3.8,18.66-5.7-29,4.94-23.85,2.78,23.59-4.18,20.43-4.18-34.42,3.48-34.42,3.48l1.58-.57h0c.76-.18,13.18-3,29-5,16.33-2.09,20.7,4.93,24.2,12.53C178.88,22.17,178.24,25.09,177.49,26.56Z" style="fill:#c4bc6c"/><path d="M177.49,26.56a4.26,4.26,0,0,1-.83,1.16,19,19,0,0,1-6.48,1.44c-1.39-.3-2.71-.61-4-.92l-.11,0a44.09,44.09,0,0,1-8.37-2.77c-8.81-4.41-21.95-11.31-41.5-13,1.4-.57,3.52-1.42,5.56-2.15,0,0,31.25-3.48,34.42-3.48S141,8.87,135.8,11s29-4.68,23.85-2.78-22.37,5.7-18.66,5.7,24.48-4.31,20.94-2.79-19.12,4.12-16.33,4.91,18.61-2.09,20.63-1.67-11.9,2.08-14.69,3.22,11,.38,16.84.89-6.36.16-12.15,1.77,7.66.89,14.81,2.15-6.83.76-10.13,1.39S172.42,24.35,177.49,26.56Z" style="fill:#416768"/><path d="M191.73,60s-5.31,1.33-7,.66-3.42,1-4.75,1.39-3.52-.15-5.31-.53-3.72.57-5.71.48-2.47.27-3.79,0-2,.41-4.09,1.19-5.82,0-6,0a178.2,178.2,0,0,1,22.48-3.11c3.52-.25,7.09-.35,10.63-.28Q189.93,59.92,191.73,60Z" style="fill:#c4bc6c"/><path d="M200.41,63.59c-2.34.19-5.85.23-8-.8-3.42-1.66-3.54,0-4.3.39a12.14,12.14,0,0,1-6.43.66,11.85,11.85,0,0,0-7,.89c-1.7.79-4,.73-5.9.73s-2.78.63-4.68,0-3.55,1-4.18,1.52-3.8-.38-6,0-3.16,1.65-6.7,1a9.67,9.67,0,0,0-6.1,1.32l-1.73-2a50.89,50.89,0,0,1,5.81-1.8c2.56-.64,5.91-1.43,9.8-2.2h0c.23,0,4,.74,6,0s2.76-1.42,4.09-1.19,1.8-.13,3.79,0,3.92-.86,5.71-.48,4,.87,5.31.53,3-2,4.75-1.39,7-.66,7-.66c2.18.13,4.35.35,6.45.66l.1,0A3.15,3.15,0,0,1,200.41,63.59Z" style="fill:#476f72"/><path d="M200.48,64.76a8.58,8.58,0,0,1-.15,1.45c-3.23,1-9.33,1.9-12.2.77-3.54-1.39-3.79,1.52-5.69,1s-5.2.26-6.59.66-4.43.61-4.56.1-3.67.89-4.17,1-3.67.68-4.94.17-4.94.26-6.39.64-5.64,1.26-6.95.88c-.81-.24-2.88.9-4.34,1.79-1.33-1.51-2.49-2.85-3.36-3.89a9.67,9.67,0,0,1,6.1-1.32c3.54.64,4.54-.63,6.7-1s5.33.51,6,0,2.28-2.15,4.18-1.52,2.78,0,4.68,0,4.2.06,5.9-.73a11.85,11.85,0,0,1,7-.89,12.14,12.14,0,0,0,6.43-.66c.76-.38.88-2,4.3-.39,2.13,1,5.64,1,8,.8A8.27,8.27,0,0,1,200.48,64.76Z" style="fill:#c4bc6c"/><path d="M200.33,66.21a8.41,8.41,0,0,1-.92,2.6l-7,1.72c-3,.76-6.83-.36-9,.58s-4.31-.08-7,.94a13.17,13.17,0,0,1-8,.88c-2.91-.63-5.57-.88-7.85,0s-3.93-.58-5.83.28-1.11,1.54-4,1a6.73,6.73,0,0,0-4.72.77L144.5,73.2c1.46-.89,3.53-2,4.34-1.79,1.31.38,5.51-.5,6.95-.88s5.12-1.14,6.39-.64,4.43-.08,4.94-.17,4-1.47,4.17-1,3.17.29,4.56-.1,4.69-1.16,6.59-.66,2.15-2.4,5.69-1C191,68.11,197.1,67.25,200.33,66.21Z" style="fill:#476f72"/><path d="M199.41,68.81a10.52,10.52,0,0,1-3.17,3.53c-3.87.63-8.84,1.14-10.39,1.23-2.27.12-3.16.63-6.07,2s-4.82.13-7.16.6a15.69,15.69,0,0,1-5.76,0c-1.64-.26-2.15.76-3.79,1.74a10.44,10.44,0,0,1-8.11.28c-1.75-.76-3.84.19-5.07.93-1.31-1.4-2.61-2.83-3.82-4.19a6.73,6.73,0,0,1,4.72-.77c2.93.53,2.14-.15,4-1s3.55.61,5.83-.28,4.94-.63,7.85,0a13.17,13.17,0,0,0,8-.88c2.66-1,4.82,0,7-.94s5.94.18,9-.58Z" style="fill:#c4bc6c"/><path d="M196.24,72.34A13.8,13.8,0,0,1,194,73.69c-1.33.66-3.36,1.94-5.58,3.36-2.24-.19-4.95-.19-6.74.57-3.57,1.52-8.93.91-11.76,1.59s-4.47.56-6.49,1.7-1.27,1.77-4.44,1-4.15-1.74-6.19.33c-1-1-1.95-2-2.93-3.07,1.23-.74,3.32-1.69,5.07-.93a10.44,10.44,0,0,0,8.11-.28c1.64-1,2.15-2,3.79-1.74a15.69,15.69,0,0,0,5.76,0c2.34-.47,4.24.8,7.16-.6s3.8-1.9,6.07-2C187.4,73.48,192.37,73,196.24,72.34Z" style="fill:#476f72"/><path d="M188.44,77.05c-2,1.3-4.21,2.72-6.16,3.89-3.69-1-9.73,1.44-10.86,1s-5.19,3-5.69,2.63-4.94.85-6.72,1.49a9.41,9.41,0,0,1-1.71.37c-1.33-1.11-2.87-2.59-4.48-4.22,2-2.07,3-1.09,6.19-.33s2.41.12,4.44-1,3.67-1,6.49-1.7,8.19-.07,11.76-1.59C183.49,76.86,186.2,76.86,188.44,77.05Z" style="fill:#c4bc6c"/><path d="M182.28,80.94c-2.62,1.61-4.8,2.78-5.54,2.62-1.88-.38-3.4,3-6,2.85,0,0,0,0-.06,0a7,7,0,0,0-4.18.61c-2.13,1.29-5.17.16-7.26.91a18.15,18.15,0,0,1-1.92-1.46A9.41,9.41,0,0,0,159,86.1c1.78-.64,6.21-1.84,6.72-1.49s4.42-3.08,5.69-2.63S178.59,80,182.28,80.94Z" style="fill:#476f72"/><path d="M170.66,86.41c-2.66-.19-.76,2.66-3.42,1.9s-2.08,2.85-7.4,0c-.2-.11-.4-.23-.62-.38,2.09-.75,5.13.38,7.26-.91A7,7,0,0,1,170.66,86.41Z" style="fill:#c4bc6c"/><path d="M123.76,74.22c1.49.06,4.14,1.18,6.42,2.37a4.87,4.87,0,0,1-1,1.07c-9.86-3.83-19.07-3.28-12.36-2,3.85.73,9,3.76,11.26,5.51-.09.22-.2.46-.32.71-.46-.22-1-.5-1.71-.88-8.84-4.85-13.49-5.34-13.49-5.34s18.61,9,12.25,7.14S107,74.38,109.89,76.94c2.23,2,11.7,6.46,15.93,8.43-1.18,1.74-2.73,2.56-6.24.09-5.13-3.61-16.35-11.12-16.35-11.12,2.31.06,4.52.06,6.6,0,9.73-.34,15.2-1.47,19.43-2.92,1.11.33,1.18,1.63,1.09,2.8C124.2,72.86,120.89,74.11,123.76,74.22Z" style="fill:#c4bc6c"/><path d="M130.21,76.16a.63.63,0,0,1,0,.43c-2.28-1.19-4.93-2.31-6.42-2.37-2.87-.11.44-1.36,6.59,0A12,12,0,0,0,130.21,76.16Z" style="fill:#476f72"/><path d="M129.17,77.66a2.71,2.71,0,0,0-.47.59c-.47.77.07,1.17-.63,2.92-2.31-1.75-7.41-4.78-11.26-5.51C110.1,74.38,119.31,73.83,129.17,77.66Z" style="fill:#476f72"/><path d="M127.75,81.88c-.11.23-.24.48-.38.73-.54,1-1,2-1.55,2.76-4.23-2-13.7-6.43-15.93-8.43C107,74.38,118.44,81,124.8,82.8s-12.25-7.14-12.25-7.14S117.2,76.15,126,81C126.72,81.38,127.29,81.66,127.75,81.88Z" style="fill:#476f72"/><path d="M222.65,51.09s-5.84-1-8.12-2.09a16.54,16.54,0,0,0-8.36-1.33c-3.22.19-11.58-1.71-15-2.65s-3.8-1.53-6.26-1.81-9.5,1.23-13.49,0-12.72-2-16.9-2.27-6.65,1-10.82,0-7.6-.48-11.78-.86-9.87.38-13.29,0-12.34-.76-16.29-1.17a76.88,76.88,0,0,0-13.14,0c-4,.36-13.11,0-16.15-1.13s-4.55-.17-6.07.34-9.5-.13-12.16-.63a32.54,32.54,0,0,0-7.39,0c-.26-.41-.54-.84-.84-1.27a9.92,9.92,0,0,0-3.35-3.36c.41.2,6.84-.19,8.55,0s7.21.76,12.15,1,9.87.53,14.62,2,11.59-.38,15.19-1.71,13.87,1.52,19.56,2.51,22.79,1.67,28.11,0,15.57.15,19.18,1.42,23,2.72,24.68,2.82,9.31.66,10.64,2.1,12.53,1,16.14.17S222.86,45,222.86,45A30.93,30.93,0,0,1,222.65,51.09Z" style="fill:#d7d183"/><path d="M222.65,51.09a33.29,33.29,0,0,1-.9,4.51h0c-.24,0-5.39-1-8.54,0s-10.06,1-11.39-.8-10.64-3.47-12.54-3.21a93.33,93.33,0,0,1-13.29-.5c-2.09-.38-7.22-1.71-9.68-2.28s-10.64.76-13.11,0S137.6,46,133.05,47.48s-15.18.44-19.74-.54a37.66,37.66,0,0,0-12-.79c-3.23.38-14.43.39-19.56-1.13s-7-2.47-10.82-1.81-5.32.28-10.07,0-11-.9-11-.9a23,23,0,0,0-2.44-4.82,32.54,32.54,0,0,1,7.39,0c2.66.5,10.64,1.14,12.16.63s3-1.5,6.07-.34,12.16,1.49,16.15,1.13a76.88,76.88,0,0,1,13.14,0c4,.41,12.87.79,16.29,1.17s9.12-.38,13.29,0,7.6-.18,11.78.86,6.64-.28,10.82,0,12.91,1,16.9,2.27,11-.28,13.49,0,2.84.86,6.26,1.81,11.78,2.84,15,2.65A16.54,16.54,0,0,1,214.53,49C216.81,50.14,222.65,51.09,222.65,51.09Z" style="fill:#476f72"/><path d="M44.69,47.89a9.35,9.35,0,0,1-.64,2.27c-1.58,3.56-5.76,5.05-9.38,5.34-3.14.26-8.63.16-10.87-2.57-2.91-3.55,5.45-1.9,8.87-9.62s6.58-7.85,9.74-4.56C44.43,40.85,45.2,44.72,44.69,47.89Z" style="fill:#5f8687"/><path d="M18,29.21c-3.65,0-6.6,2.63-6.6,5.87s3,5.86,6.6,5.86,6.6-2.63,6.6-5.86S21.61,29.21,18,29.21Zm-.61,8.91a3,3,0,0,1,0-6.08,3,3,0,0,1,0,6.08Z" style="fill:#e9e2dc"/><path d="M20.19,35.08a2.94,2.94,0,0,1-2.84,3,3,3,0,0,1,0-6.08A2.94,2.94,0,0,1,20.19,35.08Z" style="fill:#2b2b2b"/><path d="M167.62,35.08c-2.46-.06-11.39-1.84-14.24-2.27s-13.86-1.66-18.8-2.23-9.3.38-14.24,1-12.15-.09-18-1.43S90,29.63,86.54,30a37.77,37.77,0,0,1-12-.8c-4.93-1-5.69,0-10.82,0s-12.15-.53-15.19-1.47-7.22-.2-9.12,0h-.27A1.86,1.86,0,0,1,38,27L38,27a3.68,3.68,0,0,1-.34-.69,0,0,0,0,0,0,0A1.15,1.15,0,0,1,38.06,25a1.76,1.76,0,0,1,.42-.24,8.38,8.38,0,0,1,3.2-.2h.66c.22,0,.44,0,.66,0l1.59,0c.72,0,1.45,0,2.16,0,.44,0,.88,0,1.32.05s.87,0,1.31.07l1.27.12c5.69.63,7,.88,12.15.12S73.62,27,79.7,26s17.66.19,22.64,1.71,10.59.95,18.57-1.14,16.9,2.66,22.41,2.62,23.54,3.84,27.72,5S170.09,35.14,167.62,35.08Z" style="fill:#d7d183"/><path d="M38,27a1.93,1.93,0,0,1-.34-.69A3.68,3.68,0,0,0,38,27Z" style="fill:#27626a"/><path d="M221.74,55.6a34.27,34.27,0,0,1-1.29,3.86s-4.78-.2-8.58,0S201.62,57.93,199,56.27s-4.94-.43-8-1.47-9.3,2-11.77,0-6.46-.29-10.26-1.24-8.54-1.14-12-2-9.12-.88-12.72-1.45-5.51,0-9.23,1.43-15.27,1-19.83,0-7-.86-9.3-.29-6.27.19-10.64-.19-6.83.57-8.73,0-6.65-1.52-8.55-1.8-4.56-.1-5.7-1-6.83-.38-9.68-1.52-3.23-.19-6.08-.57a17.59,17.59,0,0,0-6.12.57,9.73,9.73,0,0,0-.54-4.41s6.28.62,11,.9,6.27.66,10.07,0,5.69.28,10.82,1.81,16.33,1.51,19.56,1.13a37.66,37.66,0,0,1,12,.79c4.56,1,15.2,2.06,19.74.54s17.67.57,20.14,1.33,10.64-.57,13.11,0,7.59,1.9,9.68,2.28a93.33,93.33,0,0,0,13.29.5c1.9-.26,11.21,1.4,12.54,3.21s8.16,1.8,11.39.8S221.5,55.56,221.74,55.6Z" style="fill:#d7d183"/><path d="M273.08,32.55c.25,2.53-.76,3.8-4.31,6.08-1.1.7-2,1.32-2.79,1.89-5.05-2.46-10.8-.91-8-2.49,3.32-1.87,13.94-1.87,9.36-2.9s-20.64,1.72-18,0,15.07-3.22,15.07-3.22c-12.79-1.77-29.74,6.21-19.75,1.65s32.54-4.56,22.41-5.83-33.93,6.21-25.44,2.09c6.69-3.26,24.55-5.35,31.74-6.09C276,25.87,272.9,30.77,273.08,32.55Z" style="fill:#416768"/><path d="M18.25,33.3a2.38,2.38,0,1,1,2.37,2.37A2.37,2.37,0,0,1,18.25,33.3Z" style="fill:#e9e2dc"/></g></g></svg>