<svg xmlns="http://www.w3.org/2000/svg" viewBox="0 0 676.61 307.9"><title>Asset 8</title><g id="Layer_2" data-name="Layer 2"><g id="Ñëîé_2" data-name="Ñëîé 2"><path d="M676.61,259.61A62.66,62.66,0,0,1,660,266.79a10.3,10.3,0,0,0,1.09-3.4,29,29,0,0,1,3.09-4.75C675.34,257.33,676.61,259.61,676.61,259.61Z" style="fill:#414142"/><path d="M664.2,258.64a29,29,0,0,0-3.09,4.75,10.3,10.3,0,0,1-1.09,3.4,115.9,115.9,0,0,1-25.11,3.84c1.5-2.4,1.81-4.93.09-7.24a2.14,2.14,0,0,1-.2-.32,1.91,1.91,0,0,1-.23-.64.49.49,0,0,1,0-.17,2.16,2.16,0,0,1,0-.44,1.59,1.59,0,0,1,.06-.3,1.81,1.81,0,0,1,.1-.27c0-.09.08-.15.12-.24h0a3.54,3.54,0,0,1,.26-.41l0,0,.15-.2c.06-.06.1-.13.17-.2l.25-.26a10.1,10.1,0,0,1,1.23-1c.23-.16.46-.33.72-.49l.78-.47c.26-.16.54-.31.81-.45,5.25,2.53,13.89,2.63,23.78,1.31C663.41,258.74,663.82,258.7,664.2,258.64Z" style="fill:#e8e1db"/><path d="M634.37,253.75c-6.22,1-14.46,2.3-22.58,3.31h0c.12-.15.24-.3.37-.44a3.42,3.42,0,0,1,.42-.43,1.89,1.89,0,0,1,.37-.32c.16-.14.33-.28.51-.41s.51-.33.77-.49a3.88,3.88,0,0,1,.46-.22,5,5,0,0,1,.72-.3,79.4,79.4,0,0,0,11.34-4.61A30.69,30.69,0,0,1,634.37,253.75Z" style="fill:#414142"/><path d="M634.91,270.63a197.49,197.49,0,0,1-22.37-.22,11.28,11.28,0,0,0-1.19-5.91,5.46,5.46,0,0,1-.32-.64c7.72-.44,16.16-1.23,23.59-2.34a1.59,1.59,0,0,0-.06.3,2.16,2.16,0,0,0,0,.44.49.49,0,0,0,0,.17,1.91,1.91,0,0,0,.23.64,1.55,1.55,0,0,0,.2.32C636.72,265.7,636.41,268.23,634.91,270.63Z" style="fill:#414142"/><path d="M639.23,257.48c-.27.14-.55.29-.81.45l-.78.47c-.26.16-.49.33-.72.49a10.1,10.1,0,0,0-1.23,1l-.25.26c-.07.07-.11.14-.17.2l-.15.19,0,0a3.54,3.54,0,0,0-.26.41h0c0,.09-.09.15-.12.24a1.81,1.81,0,0,0-.1.27c-7.43,1.11-15.87,1.9-23.59,2.34a3.42,3.42,0,0,1-.17-.4,4.13,4.13,0,0,1-.17-.45s0-.06,0-.08-.08-.29-.11-.42-.1-.44-.13-.66h0l0-.29v0c0-.18,0-.34,0-.51a5.69,5.69,0,0,1,.12-1.18,5.37,5.37,0,0,1,.28-1,0,0,0,0,1,0,0,3.46,3.46,0,0,1,.19-.43l.1-.24c0-.07.09-.15.14-.23a4,4,0,0,1,.27-.44c.08-.13.17-.25.26-.37l0-.05h0c8.12-1,16.36-2.29,22.58-3.31a13.64,13.64,0,0,1,1.72,1.51A10.31,10.31,0,0,0,639.23,257.48Z" style="fill:#303030"/><path d="M626.76,249.83a79.4,79.4,0,0,1-11.34,4.61,5,5,0,0,0-.72.3,3.88,3.88,0,0,0-.46.22c-.26.16-.52.32-.77.49a3.27,3.27,0,0,0-.51.41,1.89,1.89,0,0,0-.37.32,3.42,3.42,0,0,0-.42.43,3.91,3.91,0,0,0-.37.44h0c-9.48,1.2-18.81,2-24.55,1.68-.29,0-.59,0-.87-.06a3.37,3.37,0,0,1,.43-.55c.07-.09.15-.16.22-.24s.28-.26.43-.37a2.78,2.78,0,0,1,.41-.29l0,0c.15-.09.3-.18.46-.26l.5-.21.59-.22c.46-.14.95-.27,1.43-.39l.4-.11c.4-.1.8-.21,1.21-.34l.56-.2,0,0a3.68,3.68,0,0,0,.57-.26c.13-.05.26-.13.38-.19l.39-.26.34-.25a3.38,3.38,0,0,0,.35-.31l.31-.31c11.13-.67,21.86-2.08,29.56-4.65C625.59,249.42,626.18,249.61,626.76,249.83Z" style="fill:#e8e1db"/><path d="M612.54,270.41c-9.37-.58-19-1.71-28.54-3.21.08-.33.15-.66.23-1s.13-.58.19-.87c.15-.63.29-1.26.43-1.88a39.58,39.58,0,0,0,4,.6c4.17.42,12.63.37,22.17-.19a5.46,5.46,0,0,0,.32.64A11.28,11.28,0,0,1,612.54,270.41Z" style="fill:#e8e1db"/><path d="M595.44,253.87l-.31.31a3.38,3.38,0,0,1-.35.31l-.34.25-.39.26c-.12.06-.25.14-.38.19a3.68,3.68,0,0,1-.57.26l0,0-.56.2c-.41.13-.81.24-1.21.34l-.4.11c-.48.12-1,.25-1.43.39l-.59.22-.5.21c-.16.08-.31.17-.46.26l0,0a2.78,2.78,0,0,0-.41.29c-.15.11-.28.24-.43.37s-.15.15-.22.24a3.37,3.37,0,0,0-.43.55c-12.67-.6-10,3.06-1.52,4.77-.14.62-.28,1.25-.43,1.88-.06.29-.13.59-.19.87s-.15.67-.23,1c-8.66-1.36-17.26-3-25.57-4.85-.12-.53-.24-1.09-.35-1.64s-.16-.91-.23-1.35-.08-.61-.13-.91-.07-.67-.1-1a3.19,3.19,0,0,1,0-.42c0-.11,0-.2,0-.3a.57.57,0,0,1,0-.12.49.49,0,0,1,0-.12v-.28a0,0,0,0,1,0,0c0-.19,0-.38,0-.57s0-.49,0-.72,0-.36,0-.53.06-.45.1-.67A311.76,311.76,0,0,0,595.44,253.87Z" style="fill:#414142"/><path d="M611,246c-12.15.31-35.66.78-50.24.36.11-.11.22-.2.34-.3a2.92,2.92,0,0,1,.28-.21l.14-.08a2.18,2.18,0,0,1,.4-.22h0l.24-.1a1,1,0,0,1,.26-.1l.27-.09.52-.13a4,4,0,0,1,.5-.09,4.78,4.78,0,0,1,.58-.08l.35,0,.52,0c5.71-.28,12.78-1.36,16.31-1.91a52.33,52.33,0,0,0,10.47-2.78c3.61,3.17,11.47,4.77,18.9,5.77Z" style="fill:#414142"/><path d="M591.9,240.24A52.33,52.33,0,0,1,581.43,243c-3.53.55-10.6,1.63-16.31,1.91l-.52,0-.35,0a4.78,4.78,0,0,0-.58.08,4,4,0,0,0-.5.09l-.52.13a1.71,1.71,0,0,0-.27.09,1,1,0,0,0-.26.1l-.24.1h0a2.18,2.18,0,0,0-.4.22l-.14.08a2.92,2.92,0,0,0-.28.21,3.17,3.17,0,0,0-.34.3h0c-4-.12-7.31-.29-9.55-.56-13.59-1.63-12.74,3.67-7,6.1,1.47.62,6.52,1.29,13.57,1.77a11.75,11.75,0,0,0-.17,2.52c0,.08,0,.18,0,.28a5,5,0,0,0,0,.54,3.19,3.19,0,0,0,0,.42c0,.32.06.65.1,1s.09.6.13.91.14.9.23,1.35.23,1.11.35,1.64c-14.63-3.22-28.36-7-39.9-10.42,1.58-2.56,2.7-5.19,3.75-7,2.86-4.9,12.11-.28,17-1.91,1.07-.36,2.41-.76,3.84-1.22l1.26-.39.13,0,1.64-.52.15-.06,1.28-.43c1.47-.51,2.89-1.05,4.1-1.6h0c13.74-.34,28.66-.13,39.76,1.06A4.37,4.37,0,0,0,591.9,240.24Z" style="fill:#e8e1db"/><path d="M557.72,253.7a17.88,17.88,0,0,0,.13,5.66A17.59,17.59,0,0,1,557.72,253.7Z" style="fill:#e8e1db"/><path d="M589.82,235.66c-4.37,1-12.41,2.55-16.82.84-6.25-2.45-16.86-3-17.67-.43a1.54,1.54,0,0,1-.08.19c0,.05,0,.09-.08.15a8.21,8.21,0,0,1-3.47,2.35h0c-16.21.39-30.78,1.53-35.51,2.71C506,244,498.4,240.39,512,234.37c10.87-4.81,58.82-1.2,77.61.45l0,.13A3.5,3.5,0,0,1,589.82,235.66Z" style="fill:#414142"/><path d="M532.17,219.54c-2.59,1.15-4,4.26-6.21,3.9-3.26-.54-11.42,3.81-21.48,2.45-7-.94-9.49,1.23-12.63,4.21a74.28,74.28,0,0,0,4.25-18c5.28-.16,10.86-.16,14.71-.62,8.77-1,10.8-4.39,2.91-5.21-6.71-.69-1.2-1.78,10-3.6h0c11.87,1.13,27.47,2.64,40.55,5.68-.93,2.3.29,5.67,2.57,8.82-15.19-1.37-49.84-4.11-64.08-1.86-18.49,2.93,3.71,6.61,16.63,4.59A82.22,82.22,0,0,1,532.17,219.54Z" style="fill:#e8e1db"/><path d="M564.85,207.4a3.56,3.56,0,0,0-.59,1c-13.08-3-28.68-4.55-40.55-5.68l6.33-1c8.77-1.4,20.33-1.2,28.82-.76H559c1.57.07,3,.16,4.35.25h0c.08.12.17.23.24.35C564.87,203.44,566.23,205.75,564.85,207.4Z" style="fill:#d9d1cc"/><path d="M576,225c-7.65-.55-15.33-2-18.48-3.14-5.4-1.9-14.18,1.36-20.43-1.87l-.52-.25c10.8.47,24.26,1.68,36,3.22C573.6,223.6,574.77,224.27,576,225Z" style="fill:#e8e1db"/><path d="M488.16,163.47c-1.53,2.38-2,3.79-1.61,4.41a56.57,56.57,0,0,0-6.14,2.48c-1.37-1.27-2.74-2.4-4.06-3.4a49.06,49.06,0,0,0,4.2-4.7A141.17,141.17,0,0,1,495.8,146.6h0a9.49,9.49,0,0,0,3.77,1,1.17,1.17,0,0,1,.49,0l.36,0a15.69,15.69,0,0,1,1.6.37l.4.11,1.25.34C495.58,155.38,489.75,161,488.16,163.47Z" style="fill:#414142"/><path d="M520.38,149.14a159.59,159.59,0,0,0-21.64,20.64c-1.65,0-3-.37-3.51-1.54s-2.25-1.64-4.35-1.38a51,51,0,0,0,9.79-8.14c1.65-1.71,5.12-4.9,9.8-8.9l.53,0a9.29,9.29,0,0,0,3.54-.39,11.14,11.14,0,0,1,4.38-.41Z" style="fill:#414142"/><path d="M549.92,160.67c.44.67,1,1.37,1.48,2-4.49,1.21-8.85,1.94-11.3,1A44,44,0,0,1,549.92,160.67Z" style="fill:#414142"/><path d="M551.17,156.8l1.8-5.52C552.28,153.66,551.88,155.64,551.17,156.8Z" style="fill:#414142"/><path d="M553.29,148.75c-7,2.82-17.62,7.83-26.86,15.69-1.36,1.15-2.67,2.22-3.92,3.24-1.81-2.06-10.09,4.28-12.11,2.2,3.62-4,7.29-7.94,10.39-10.34,3.61-2.8,11.37-9.69,20.52-16.55a7.61,7.61,0,0,1,2.54,0,4.75,4.75,0,0,1,1.16.35,5.46,5.46,0,0,1,1,.54,4,4,0,0,1,.41.31,3.9,3.9,0,0,1,.38.33,8.13,8.13,0,0,1,1.21,1.53c.16.26.3.52.44.77s.26.49.37.72c0,0,.07.1.1.16a.88.88,0,0,0,.12.15c.59.66,1.86.89,3.34.89C552.66,148.78,553,148.77,553.29,148.75Z" style="fill:#414142"/><path d="M491.85,230.1a104.73,104.73,0,0,1-4.93,11.37c-4.34-1.4-9.3-2.88-14.79-4.38,4.32.3,10.58.1,14.67-2.72A39.38,39.38,0,0,0,491.85,230.1Z" style="fill:#414142"/><path d="M496.1,212.14a74.75,74.75,0,0,1-4.25,18,39.38,39.38,0,0,1-5.05,4.27c-4.09,2.82-10.35,3-14.67,2.72h-.08c-16.59-4.53-38-9.37-62.09-13.38,9.22-4.29,25.74.26,29,0,3.53-.27,19.31-1.9,23.93-1.63s16-3.26,18.76-7.07C483.15,212.88,489.38,212.37,496.1,212.14Z" style="fill:#d9d1cc"/><path d="M496.1,212.14c-6.72.23-13,.74-14.47,2.87-2.72,3.81-14.14,7.35-18.76,7.07s-20.4,1.36-23.93,1.63c-3.24.25-19.76-4.3-29,0h0c-9.42-1.57-19.23-3-29.31-4.26,1.75-3,5.21-6.29,12.07-7.92,13.87-3.31,14.41-10.92,23.12-7.11s24.74,3.9,42.69-1,25.83-3.71,30.45-7.45a15.92,15.92,0,0,1,5.58-3A51.27,51.27,0,0,1,496.1,212.14Z" style="fill:#414142"/><path d="M494.55,192.93a15.92,15.92,0,0,0-5.58,3c-4.62,3.74-12.51,2.52-30.45,7.45s-34,4.85-42.69,1-9.25,3.8-23.12,7.11c-6.86,1.63-10.32,5-12.07,7.92a575.18,575.18,0,0,0-80.38-4.61c-20.14.37-40.4,1.88-59.78,4.06-3,.33-6,.68-9,1.05,0,0,17.4-6.56,22.16-6s27.87-2.91,29-2.41,16.59,2.68,25.56-2,22.57-9,27.47-7.88,18.49-2.18,21.48-1.9,19-1.09,31.27-7.89,23.11-9.52,28-7.61,14.68-.65,21.48-.59,17.68,2,23.12-.87,11.42-8.33,16-10.78c.9-.48,2.08-1.07,3.39-1.69A48.53,48.53,0,0,1,494.55,192.93Z" style="fill:#d9d1cc"/><path d="M480.4,170.36c-1.31.62-2.49,1.21-3.39,1.69-4.62,2.45-10.61,7.88-16,10.78s-16.32.91-23.12.87-16.59,2.49-21.48.59-15.77.81-28,7.61-28.28,8.16-31.27,7.89-16.59,3-21.48,1.9-18.49,3.26-27.47,7.88-24.47,2.45-25.56,2-24.2,2.95-29,2.41-22.16,6-22.16,6c-8.79,1.09-17.36,2.3-25.62,3.58-11.16,1.73-21.75,3.61-31.52,5.5,0,0-.51-5.85-6.22-5s9.79-4.63,19.31-10.34,21.21-12.6,28-10.93,35.89-4.37,38.2-.25,4.22-3.77,19.17-3.23,55.47-12.51,59.55-9.52,17.41-7.07,21.21-5.43,13.21.54,20.34-3,21-11.42,26.16-9.51,13.6-5.44,19-3.54c4,1.39,12.5-.27,18.79-2.66a24.11,24.11,0,0,0,7.59,9.73c7.15,5.26,20.39,1.92,30.88-8.35C477.66,168,479,169.09,480.4,170.36Z" style="fill:#414142"/><path d="M437.88,165.58c-6.29,2.39-14.81,4-18.79,2.66-5.44-1.9-13.87,5.44-19,3.54s-19,6-26.16,9.51-16.53,4.63-20.34,3-17.13,8.43-21.21,5.43-44.59,10.07-59.55,9.52-16.86,7.34-19.17,3.23-31.41,1.94-38.2.25-18.5,5.22-28,10.93-25,11.15-19.31,10.34,6.22,5,6.22,5c-6.18,1.21-12,2.42-17.5,3.6a30.48,30.48,0,0,0-22.77-12.4,14.59,14.59,0,0,1,5.5-10.37c8.16-6.53,26.37-14.14,37.8-16s6.52-10.87,18.76-5.16,22.3-8.71,28-7.89S238.8,176.4,244,178.3s17.35,2.42,22-.42,20.42-2,24.22-4.2,14.15-6,20.4-3.53,30.73-3.54,39.43-7.07,19.85-2.45,29.64,0c7.84,1.95,11.84-1.15,16.63-6.52a105.48,105.48,0,0,0,21.31-6.36,19.36,19.36,0,0,1,2,2c1.63,2.17,3,7.34,8.43,4.08a61.61,61.61,0,0,1,9.86-4.26C435.5,155.72,435.85,160.85,437.88,165.58Z" style="fill:#d9d1cc"/><path d="M396.29,156.56c-4.79,5.37-8.79,8.47-16.63,6.52-9.79-2.45-20.94-3.54-29.64,0s-33.18,9.51-39.43,7.07-16.59,1.35-20.4,3.53S270.62,175,266,177.88s-16.84,2.33-22,.42-14.14,3.27-19.85,2.45-15.77,13.6-28,7.89-7.34,3.26-18.76,5.16-29.64,9.52-37.8,16a14.59,14.59,0,0,0-5.5,10.37,47.15,47.15,0,0,0-13.27,1.05s-1,.33-2.48,1a35.94,35.94,0,0,0-9.75-19.21c-7.89-7.62.27-4.62,4.35-9.25s3-5.16,2.45-12.23,0-11.7,3-14.14,3.53-7.89,1.9-14.14c-.92-3.57.17-9.34,1.3-13.64a273,273,0,0,1,29.22-5.73h0c1.1,3,5.26,4.3,9.17,3.05,6-1.9,14.14-1.09,20.12-2.18s13.87-1.08,28.56,3.27,12.23,0,23.38-3c1-.28,2-.57,2.95-.86,17.77,1.78,35.83,4.26,52.56,6.89-7,2.09-26.95,5.39-33.89,4.3s-6.93,2.72-12.37,1.67-21.48,7-34,3.5-16-4.08-21.76-3S169.19,153,161.57,153s-11.69,5.44-18.22,20.4,14.42,12.24,14.42,12.24c15.77.27,14.68-15,19.58-18.87s12.23-1.53,17.67-3.7,26.11.27,31.27,2.44,23.39,1.63,30.46-2.44,16-.82,22.57-2.45,12.23-1.63,18.22-7.92,26.1-3,34.26-.51c3.48,1,8.48.36,13.09-.77,11.19,2.25,17.91,3.76,17.91,3.76C373.42,159,385.63,158.54,396.29,156.56Z" style="fill:#414142"/><path d="M121.54,139.65q-9,2.25-17.53,5c-1.27,2.88-2.76,6.39-3.89,9.42-2.45,6.53-7.34,8.16-5.44,16.32s2.45,21.21-6.25,29.91S75.92,207.49,71,211.52s-19.11,8.39-18.22,22.53c.52,8.31.81,11.67,0,14.08a242.74,242.74,0,0,0,47.16-1.65,9.22,9.22,0,0,1-.89-4c.42-10.92,13.66-17.8,19.27-20.22a35.94,35.94,0,0,0-9.75-19.21c-7.89-7.62.27-4.62,4.35-9.25s3-5.16,2.45-12.23,0-11.7,3-14.14,3.53-7.89,1.9-14.14C119.32,149.72,120.41,144,121.54,139.65ZM90.33,241.12c-4-2.18-6.17-1.63-10.23,0s-7.36,2.72-7.2,0-4.33-3.45-2.53-7.8,4.19-6.16,6.18-10,1.27-1.09,5.44-7.26,8.88-7.25,12.34-9,2.52,4.44,2.52,7.88-1.81,6.71-4.35,10.7,2.89,11.72,3.27,12.15C100.66,243.29,94.32,243.29,90.33,241.12Z" style="fill:#e8e1db"/><path d="M100.12,154.1c-2.45,6.53-7.34,8.16-5.44,16.32s2.45,21.21-6.25,29.91S75.92,207.49,71,211.52s-19.11,8.39-18.22,22.53c.52,8.31.81,11.67,0,14.08-5.12-.3-9.81-.76-13.83-1.3-5-.69-8.32-1.14-10.62-1.39-.48-3.27-.18-6.78,2.47-8.94,6-4.9-.82-8.71,7.34-14.42s16-15.77,19-20.66c2.51-4.08,4.62-6.84,4.93-11.13a23.46,23.46,0,0,0,8.29,1.47c9.9,0,17.91-5.81,17.91-13a9.67,9.67,0,0,0-1-4.23c-1.76-3.71-5.76-6.65-10.83-8a24.31,24.31,0,0,0-10-.46,50.15,50.15,0,0,1,3.49-7.72A257.58,257.58,0,0,1,104,144.68C102.74,147.56,101.25,151.07,100.12,154.1Z" style="fill:#414142"/><path d="M52.45,178.78a10,10,0,0,0,.24,2.13,11.85,11.85,0,0,0,4.25,6.45,18.1,18.1,0,0,0,5.14,2.93c-.31,4.29-2.42,7.05-4.93,11.13-3,4.89-10.87,15-19,20.66s-1.36,9.52-7.34,14.42c-2.65,2.16-3,5.67-2.47,8.94-6.91-.77-4.47.3-8.14,2.75a26.45,26.45,0,0,0-3.2,2.68c-2.06-3.52-3.61-5.59-4.41-8.39-1.09-3.81-.55-7.07,3.8-12.24s8.71-13.87,13.87-23.11,14.14-6.53,14.14-11.06S50.63,187,49,182.83c-1-2.66,3.62-11.21,7.16-17.1q6.56-3.82,13.77-7.34a50.15,50.15,0,0,0-3.49,7.72C58.44,167.4,52.45,172.58,52.45,178.78Z" style="fill:#e8e1db"/><path d="M49,182.83c1.63,4.17-4.63,8.7-4.63,13.24s-9,1.81-14.14,11.06-9.51,17.94-13.87,23.11-4.89,8.43-3.8,12.24c.8,2.8,2.35,4.87,4.41,8.39-1.38,1.22-2.52,1.93-4.49.93-1.19-2.83-2.88-6.7-4-8.78-1.9-3.53-7.34-4.62-3.54-10.88s2.84-12,7.14-15.77,5.1-9.88,9.45-13.65c2.51-2.16,6.4-11.9,11.53-21a167.6,167.6,0,0,1,23.1-16C52.62,171.62,48,180.17,49,182.83Z" style="fill:#414142"/><path d="M33.06,181.69c-5.13,9.13-9,18.87-11.53,21-4.35,3.77-5.17,9.85-9.45,13.65s-3.33,9.52-7.14,15.77S6.58,239.49,8.48,243c1.12,2.08,2.81,5.95,4,8.78-1.37-.7-3.13-2.22-5.63-5-8.43-9.25-12.78-16.05,9.51-47.59A95.1,95.1,0,0,1,33.06,181.69Z" style="fill:#e8e1db"/><path d="M61.16,177.42a1.1,1.1,0,0,0-.12.33,1.23,1.23,0,0,1,.14-.25A.33.33,0,0,1,61.16,177.42Z" style="fill:#e8e1db"/><path d="M235,134.21c-.94.29-1.91.58-2.95.86-11.15,3-8.7,7.34-23.38,3s-22.57-4.35-28.56-3.27-14.14.28-20.12,2.18c-3.91,1.25-8.07-.08-9.17-3.05,7.15-1,14.39-1.71,21.68-2.12q4.49-.24,9.26-.32A468.8,468.8,0,0,1,235,134.21Z" style="fill:#d9d1cc"/><path d="M344.89,151.43c-4.61,1.13-9.61,1.81-13.09.77-8.16-2.45-28.28-5.77-34.26.51s-11.7,6.29-18.22,7.92-15.5-1.63-22.57,2.45-25.29,4.62-30.46,2.44-25.83-4.62-31.27-2.44-12.78-.21-17.67,3.7-3.81,19.14-19.58,18.87c0,0-20.94,2.71-14.42-12.24S154,153,161.57,153s18.22-4.35,23.93-5.43,9.25-.55,21.76,3,28.55-4.54,34-3.5,5.44-2.76,12.37-1.67,26.92-2.21,33.89-4.3c13.51,2.14,26.16,4.35,37.08,6.39C332.31,148.92,339.19,150.27,344.89,151.43Z" style="fill:#d9d1cc"/><path d="M440,149.75a9.78,9.78,0,0,0-2.11,2.27,61.61,61.61,0,0,0-9.86,4.26c-5.44,3.26-6.8-1.91-8.43-4.08a19.36,19.36,0,0,0-2-2l.4-.18C428.61,145.4,447.64,143.77,440,149.75Z" style="fill:#414142"/><path d="M574.17,122c-1.61,1.55-3.15,3.15-4.59,4.73h0c-9,2.79-19.31,9.49-28.26,16.21-.22,0-.44.06-.68.11a1.29,1.29,0,0,0-.19,0c-.19,0-.38.08-.58.14a19.55,19.55,0,0,0-3.45,1.31c-.23.11-.45.22-.68.35s-.27.13-.4.21c-.31.16-.62.34-.94.52a23.84,23.84,0,0,1-9.81,3.42l-.9.06a16.23,16.23,0,0,1-2,0c-.45,0-.86,0-1.26,0h-.06a321.94,321.94,0,0,1,31.2-21.94l.66,0,.76,0c.26,0,.54,0,.8-.07l.78-.07c.66-.08,1.35-.18,2-.29l.83-.15.82-.16c.53-.12,1.06-.25,1.57-.39s1-.3,1.47-.46l.69-.26.63-.27c.2-.09.4-.19.58-.29.5-.26,1.07-.52,1.68-.77l.89-.35,1-.32.6-.18c.46-.13.93-.26,1.42-.37l.66-.14.94-.18.21,0h0l.68-.09a.61.61,0,0,1,.13,0h0l.84-.09a3.75,3.75,0,0,1,.47,0l.56,0Z" style="fill:#d9d1cc"/><path d="M551.6,127.2a321.94,321.94,0,0,0-31.2,21.94h0l-1.46-.09a11.14,11.14,0,0,0-4.38.41,9.29,9.29,0,0,1-3.54.39l-.53,0h0l-.74-.08-1.05-.15-.78-.14c-1.47-.28-2.9-.66-4.18-1l-1.25-.34L502,148a15.69,15.69,0,0,0-1.6-.37l-.36,0a1.17,1.17,0,0,0-.49,0,9.49,9.49,0,0,1-3.77-1,319.12,319.12,0,0,1,30.62-24.41,36.67,36.67,0,0,0,3.07,2.27,4.1,4.1,0,0,0,.59.32l.32.13.34.11,0,0,.27.07a3.59,3.59,0,0,0,.47.12,13.57,13.57,0,0,0,1.4.24h0c.38.06.78.1,1.19.13.11,0,.22,0,.33,0l1,.05c.41,0,.83,0,1.24,0,.76,0,1.54,0,2.3,0h.78l2.25,0c2.46,0,4.41.08,4.91.68S549.26,127.26,551.6,127.2Z" style="fill:#e8e1db"/><path d="M569.57,126.78c-5.8,6.38-10.08,12.54-12.07,15.09a24.66,24.66,0,0,0-3.64,6.66h0a1.46,1.46,0,0,1-.07.19l-.47,0h0l-.93,0c-1.48,0-2.75-.23-3.34-.89a1.58,1.58,0,0,1-.12-.15c0-.06-.07-.11-.1-.16-.11-.23-.24-.47-.37-.72s-.28-.51-.44-.77a8.13,8.13,0,0,0-1.21-1.53,3.9,3.9,0,0,0-.38-.33,4,4,0,0,0-.41-.31,5.46,5.46,0,0,0-1-.54,4.75,4.75,0,0,0-1.16-.35,7.61,7.61,0,0,0-2.54,0C550.26,136.27,560.55,129.57,569.57,126.78Z" style="fill:#e8e1db"/><path d="M583,114.66a70.38,70.38,0,0,0-8.85,7.38l-.79,0-.56,0a3.75,3.75,0,0,0-.47,0l-.84.09h0a.61.61,0,0,0-.13,0l-.68.09h0l-.21,0-.94.18-.66.14c-.49.11-1,.24-1.42.37l-.6.18-1,.32-.89.35c-.61.25-1.18.51-1.68.77-.18.1-.38.2-.58.29l-.63.27-.69.26c-.47.16-1,.31-1.47.46s-1,.27-1.57.39l-.82.16-.83.15c-.67.11-1.36.21-2,.29l-.78.07c-.26,0-.54.06-.8.07l-.76,0-.66,0c8.75-5.46,16.94-10.11,23.55-13.69l.32-.18.89.13.93.15c.35,0,.71.09,1.05.16s.79.12,1.18.19l.64.11,1,.19c.33,0,.64.12,1,.19Z" style="fill:#303030"/><path d="M557.7,109.12c-7.8,4.54-16.37,10.29-24.76,16.35h0a13.57,13.57,0,0,1-1.4-.24,3.59,3.59,0,0,1-.47-.12l-.27-.07,0,0-.34-.11-.32-.13a4.1,4.1,0,0,1-.59-.32,36.67,36.67,0,0,1-3.07-2.27A226.25,226.25,0,0,1,554,105.37c.7.59,1.36,1.18,2,1.76.21.2.39.4.57.58A10.53,10.53,0,0,1,557.7,109.12Z" style="fill:#414142"/><path d="M575.47,113.33l-.32.18c-6.61,3.58-14.8,8.23-23.55,13.69-2.34.06-4.18-.2-4.7-.83s-2.45-.69-4.91-.68a194.25,194.25,0,0,1,24.75-14.62c1.58-.09,2.73,0,2.73.61,0,.15.12.29.34.42a.69.69,0,0,0,.17.1,4.55,4.55,0,0,0,.47.19l.6.16.34.09.37.07.32.07.46.09.49.08.63.1,1.12.18a3.47,3.47,0,0,0,.45.06Z" style="fill:#414142"/><path d="M603.34,107.78c-7.19-.36-14.11,2.57-20.32,6.88l-.93-.21c-.32-.07-.63-.14-1-.19l-1-.19-.64-.11c-.39-.07-.78-.14-1.18-.19s-.7-.12-1.05-.16l-.93-.15-.89-.13c9.18-5,15.21-7.84,15.21-7.84-3.48-.78-7.8-.29-12.64,1.12a79.8,79.8,0,0,0-11.3,4.46c-3.08.17-7.79.86-8.69-1.29a5.34,5.34,0,0,0-.35-.66c7.89-4.59,15-7.94,20.31-9.13,1-.23,2-.42,3-.56,2.2,2.1,4.43,3.82,5.82,3.82,3.54,0,10.06,2.18,12.78,1.91C600.75,105.05,602.1,106.17,603.34,107.78Z" style="fill:#d9d1cc"/><path d="M581.05,99.43c-1,.14-2,.33-3,.56-5.32,1.19-12.42,4.54-20.31,9.13a10.53,10.53,0,0,0-1.14-1.41c-.18-.18-.36-.38-.57-.58-.59-.58-1.25-1.17-2-1.76,2.08-1.05,4.15-2,6.18-2.93A98.17,98.17,0,0,1,578,96.31C579,97.33,580,98.43,581.05,99.43Z" style="fill:#e8e1db"/><path d="M575.47,113.33l-.24,0h0Z" style="fill:#e8e1db"/><path d="M613.52,110.59c-.54-.28-1.09-.54-1.63-.78-6.15-5.42-16.95-12.28-30.84-10.38-1-1-2.1-2.1-3-3.12C597,92,606.52,98,612.7,102.44,620.59,108.15,639.08,123.92,613.52,110.59Z" style="fill:#414142"/><path d="M611.89,109.81a24.06,24.06,0,0,0-8.54-2h0c-1.24-1.61-2.59-2.73-3.69-2.62-2.72.27-9.24-1.91-12.78-1.91-1.39,0-3.62-1.72-5.82-3.82C594.94,97.53,605.74,104.39,611.89,109.81Z" style="fill:#303030"/><path d="M278.3,268l.35.16.79.34.37.15c.25.1.48.2.7.27a6.35,6.35,0,0,0,.65.23Zm14.3,19.5c.79.62,1.58,1.22,2.33,1.76C294.18,288.75,293.39,288.15,292.6,287.54Z" style="fill:#e8e1db"/><path d="M301.33,291.71a2.88,2.88,0,0,0,0-.32,2.09,2.09,0,0,0,0-.24c0-.24,0-.47-.08-.69s-.07-.42-.12-.61-.07-.3-.11-.44-.16-.53-.26-.79a5.83,5.83,0,0,0-.23-.58c-.08-.18-.16-.37-.25-.55-.21-.45-.43-.86-.64-1.25,4.42,1.17,7.52,2.06,9.76,2.82-3.31-.06-4.3,1.73,2.45,4.81a27.64,27.64,0,0,1,5.56,3.41c-4.08-1.32-10.08-3.19-16.44-4.94a.65.65,0,0,0,.19-.18.54.54,0,0,0,.09-.17.84.84,0,0,0,.06-.24A.23.23,0,0,0,301.33,291.71Z" style="fill:#e8e1db"/><path d="M318.75,292.78a15.74,15.74,0,0,0-9.32-3.72h0c-2.24-.76-5.34-1.65-9.76-2.82a12.79,12.79,0,0,1-1.23-2.47,1,1,0,0,1,0-.23c0-.48.34-.73,1.32-.73a4.17,4.17,0,0,0,.52,0h0a2.2,2.2,0,0,0,.37-.07,2.91,2.91,0,0,0,.77-.27,1.24,1.24,0,0,0,.23-.12h0l.27-.17c.12-.08.22-.17.33-.25a3.51,3.51,0,0,0,.33-.34,2.41,2.41,0,0,0,.21-.24.38.38,0,0,0,.1-.12c.1-.12.19-.24.28-.37.22-.32.41-.62.61-.9a1.77,1.77,0,0,1,.12-.17,1.49,1.49,0,0,1,.15-.2,1.17,1.17,0,0,1,.21-.23,1,1,0,0,1,.21-.2c7.07,3.07,13.83,6.05,18.51,8.12h0C325.73,295.54,324,297.45,318.75,292.78Z" style="fill:#e8e1db"/><path d="M298.31,291.6c-4.2-1.11-8.45-2.14-12.32-2.89-9.64-1.89-28.95-9.29-45.57-22.31a.84.84,0,0,1,.2-.08,1.51,1.51,0,0,0,.6-.4,1.32,1.32,0,0,0,.23-.44,3.63,3.63,0,0,0,0-1.9v0a9.76,9.76,0,0,0-.32-1.23c-.08-.22-.15-.45-.23-.68s-.16-.46-.26-.7-.18-.48-.29-.73c-.2-.48-.42-1-.63-1.46s-.51-1.09-.79-1.63-.44-.9-.67-1.36-.34-.66-.51-1a3,3,0,0,1-.2-.4c11.26,11.15,25.13,22.45,38.76,25.91l9.86,2.5h0c2,1.36,4.26,3.11,6.4,4.75.79.62,1.58,1.22,2.33,1.76.25.2.5.38.74.55l.66.48,0,0,.51.36C297.4,291.05,297.86,291.35,298.31,291.6Z" style="fill:#d9d1cc"/><path d="M324.54,305.84c-4.35-7.26-44.22-11.61-44.22-11.61a83,83,0,0,1-40.9-19.18c2.32-5.09-.51-7.34.56-8.37a.29.29,0,0,1,.12-.1.89.89,0,0,1,.32-.18c16.62,13,35.93,20.42,45.57,22.31,3.87.75,8.12,1.78,12.32,2.89h0a1.79,1.79,0,0,0,.33.18c.21.12.43.23.63.32l.28.12a3,3,0,0,0,.42.14,1.74,1.74,0,0,0,.29.07l.25,0a1.07,1.07,0,0,0,.25,0l.18-.08h0c6.36,1.75,12.36,3.62,16.44,4.94,0,0,0,0,0,0C325.3,303.44,328.15,311.84,324.54,305.84Z" style="fill:#e8e1db"/><path d="M224,239.88a.7.7,0,0,0-.21.11.67.67,0,0,0-.21.13,2,2,0,0,0-.4.35,1.33,1.33,0,0,0-.16.17,5.75,5.75,0,0,0-.63.84c-.11.17-.22.36-.33.55h0c-.11.21-.23.43-.34.67s-.22.46-.33.71l-.32.78a6.65,6.65,0,0,1-.32.66,1.65,1.65,0,0,1-.14.26,64.78,64.78,0,0,1-4.35-7.93C209.66,222.9,213.94,228.57,224,239.88Z" style="fill:#d9d1cc"/><path d="M282.85,269.4a1,1,0,0,1-.38.06l-.26,0a5.44,5.44,0,0,1-1-.24h0L278.3,268l-.08,0c-1.73-.79-3.57-1.68-4.87-2.17l-.35-.12a3.42,3.42,0,0,0-1.05-.25h0c-13.91-5.77-30.14-13.71-40.47-27.34-12-15.77-2.86-7.17,12,4.16,5.69,4.33,16.77,10.65,29.19,17h0l.43.34.83.68a4.18,4.18,0,0,1,.42.34c.29.23.59.47.88.72.6.48,1.2,1,1.78,1.46.43.36.85.71,1.26,1.07l.81.69.39.35c.64.57,1.24,1.11,1.74,1.61l.3.29a7.59,7.59,0,0,1,1.42,1.79.77.77,0,0,1,.08.19C283.12,269.1,283.07,269.3,282.85,269.4Z" style="fill:#d9d1cc"/><path d="M316.21,265.71c-2.11-1.76-2.3-.84.12,5.23-16.31-6.37-59-23.58-71.27-33.75-15.23-12.66-5.17-7.19,5.71,0,9.23,6.1,43.8,21.7,65.82,25.44C322,268.88,318.45,267.58,316.21,265.71Z" style="fill:#d9d1cc"/><path d="M320.28,280.29c-3.62-1.19-8-2.85-12.84-4.83a5,5,0,0,0-.27-1.95A5.09,5.09,0,0,0,307,273a6.07,6.07,0,0,0-1.73-2.12c-.63-.51-2.24-2.78-10.4-7.46s-19.94-8.86-19.94-8.86-8.89-1.09-5.26,2.18c.52.46,1.2,1,2,1.69.16.13.31.27.49.4s.32.28.5.42a.46.46,0,0,1,.07.07c-12.42-6.35-23.5-12.67-29.19-17-14.89-11.33-24-19.93-12-4.16,10.33,13.63,26.56,21.57,40.47,27.34a.45.45,0,0,0-.28.07c-.27.18,0,.79,1.05,2,5.07,6,5.62,10.34,12.14,14.33.44.26.88.55,1.35.87l-9.86-2.5c-13.63-3.46-27.5-14.76-38.76-25.91h0l-.58-1.1c-.09-.2-.2-.38-.3-.56s-.2-.32-.29-.48-.1-.16-.16-.22a3,3,0,0,0-.25-.34,7.58,7.58,0,0,0-3-2.26,1.69,1.69,0,0,1-.29-.17l-.31-.18s0,0,0,0a7.86,7.86,0,0,1-.79-.6l-.25-.23a10.56,10.56,0,0,1-1.51-1.9,18.86,18.86,0,0,1-1.14-2.11,16.56,16.56,0,0,0-1.63-2.83,6.76,6.76,0,0,0-.51-.62,2.63,2.63,0,0,0-1.86-1,1.27,1.27,0,0,0-.34,0,1.17,1.17,0,0,0-.33.11c-10-11.31-14.32-17-7.75-2.69a64.78,64.78,0,0,0,4.35,7.93.53.53,0,0,1-.06.1c-.08.14-.17.28-.26.41a7,7,0,0,1-1,1.12c-.12.13-.25.25-.38.37l-.51.44a13.13,13.13,0,0,1-1.18.82,115.44,115.44,0,0,1-11.39-24.86c8.26-1.28,16.83-2.49,25.62-3.58,3-.37,6-.72,9-1.05a3,3,0,0,0,2.2,2.13c-.5.94-.43,2.25,1,4,4,5,13.59,12,18.49,14.66s13.41.3,18.85,2.83,8.15,3.64,7.07,0c-.56-1.83.95-3.67,1.95-5.68,6.47,5.42,12.8,11.88,19.26,18.19,3.36,3.28,5.7,5.75,7.27,7.56-22-3.74-56.59-19.34-65.82-25.44-10.88-7.19-20.94-12.66-5.71,0,12.23,10.17,55,27.38,71.27,33.75.91,2.29,2.18,5.29,3.86,9.15A1.76,1.76,0,0,1,320.28,280.29Z" style="fill:#e8e1db"/><path d="M288.11,242.56c1.08,3.64-1.63,2.55-7.07,0s-14-.17-18.85-2.83-14.5-9.67-18.49-14.66c-1.45-1.8-1.52-3.11-1-4,3,1.1,9.3,1.25,20.95,2.5,9.43,1,18.05,6.33,26.43,13.36C289.06,238.89,287.55,240.73,288.11,242.56Z" style="fill:#2b2b2b"/><path d="M239.42,275.05a108,108,0,0,1-22.19-26.67,13.13,13.13,0,0,0,1.18-.82l.51-.44c.13-.12.26-.24.38-.37a7,7,0,0,0,1-1.12c.09-.13.18-.27.26-.41a.53.53,0,0,0,.06-.1,87.45,87.45,0,0,0,19.84,21.28.89.89,0,0,0-.32.18.29.29,0,0,0-.12.1C238.91,267.71,241.74,270,239.42,275.05Z" style="fill:#2b2b2b"/><path d="M241.45,265.48a1.83,1.83,0,0,1-.23.44,1.51,1.51,0,0,1-.6.4.84.84,0,0,0-.2.08,87.45,87.45,0,0,1-19.84-21.28,1.65,1.65,0,0,0,.14-.26,6.65,6.65,0,0,0,.32-.66l.32-.78c.11-.25.22-.49.33-.71s.23-.46.34-.67h0c.11-.19.22-.38.33-.55a5.75,5.75,0,0,1,.63-.84,1.33,1.33,0,0,1,.16-.17,2,2,0,0,1,.4-.35.67.67,0,0,1,.21-.13.7.7,0,0,1,.21-.11,1.17,1.17,0,0,1,.33-.11,1.27,1.27,0,0,1,.34,0,2.63,2.63,0,0,1,1.86,1c.16.18.34.39.51.62a16.56,16.56,0,0,1,1.63,2.83,18.86,18.86,0,0,0,1.14,2.11,10.56,10.56,0,0,0,1.51,1.9l.25.23a7.86,7.86,0,0,0,.79.6s0,0,0,0l.31.18a1.69,1.69,0,0,0,.29.17,7.58,7.58,0,0,1,3,2.26,3,3,0,0,1,.25.34c.06.06.1.15.16.22s.19.31.29.48.21.36.3.56l.58,1.1h0a3,3,0,0,0,.2.4c.17.34.33.66.51,1s.46.9.67,1.36.54,1.1.79,1.63.43,1,.63,1.46c.11.25.2.49.29.73s.19.48.26.7.15.46.23.68c.13.43.24.85.32,1.23v0A3.63,3.63,0,0,1,241.45,265.48Z" style="fill:#212121"/><path d="M138.86,249.11a80.34,80.34,0,0,1-19.71-9.38c-1.6-1.08-3-1.95-4.23-2.63.25-.45.54-.93.85-1.44.21-.34.42-.7.66-1.07,2.15-3.32,2.6-7.73,1.87-12.33,1.53-.66,2.48-1,2.48-1a47.15,47.15,0,0,1,13.27-1.05c-.52,4.79.66,9.87,1.42,14.1.12.69.25,1.32.38,1.9a30,30,0,0,1-6.09-3.6c-7-5.69-6.22,2.65,7.92,10a16.28,16.28,0,0,1,1,5.61A3.52,3.52,0,0,0,138.86,249.11Z" style="fill:#2b2b2b"/><path d="M137.68,242.58c-14.14-7.31-14.94-15.65-7.92-10a30,30,0,0,0,6.09,3.6c.09.44.18.84.27,1.23C136.67,239.63,137.22,241.19,137.68,242.58Z" style="fill:#212121"/><path d="M150.52,261.29a143.63,143.63,0,0,1-16.17-6.44c-.13-.28-.27-.55-.4-.8s-.27-.49-.41-.73c-.24-.41-.46-.8-.7-1.15a6,6,0,0,0-.41-.58,10.72,10.72,0,0,0-1.19-1.39,7.46,7.46,0,0,0-.76-.66,8.22,8.22,0,0,0-3.61-1.46l-.44-.08-.45-.07-.45-.07-1.29-.21-.52-.09a17.07,17.07,0,0,1-1.73-.41c-.18-.05-.37-.1-.56-.17-.38-.12-.78-.26-1.19-.42l-1.33-.54h0a59.56,59.56,0,0,1-5.4-4.18,2.28,2.28,0,0,1,0-.45A6.58,6.58,0,0,1,114,239c.08-.19.15-.38.25-.59.18-.4.4-.84.65-1.3,1.22.68,2.63,1.55,4.23,2.63a80.34,80.34,0,0,0,19.71,9.38c1,4,8.7,5.94,10.48,10.5A4.56,4.56,0,0,0,150.52,261.29Z" style="fill:#212121"/><path d="M118.89,246c-.52-.2-1-.41-1.46-.61-.26-.12-.51-.22-.75-.34l-.49-.24-.4-.22a7.51,7.51,0,0,1-1-.7c-.13-.11-.26-.22-.37-.33h0a2,2,0,0,1-.24-.28.73.73,0,0,1-.14-.18h0a1.94,1.94,0,0,1-.2-.33,1.7,1.7,0,0,1-.18-.46,1.87,1.87,0,0,1-.11-.48A59.56,59.56,0,0,0,118.89,246Z" style="fill:#2b2b2b"/><path d="M150.09,271.28h0Z" style="fill:#2b2b2b"/><path d="M192,272.78a17.09,17.09,0,0,0-6.08-.91l-1.43,0c-.49,0-1,0-1.48.08l-1.3.09-1.77.17c-2.61-3.41-7.51-5.29-7.51-5.29q-6.13-1.15-11.7-2.63a35.08,35.08,0,0,0,9.8-.93,16.74,16.74,0,0,1,7.47.42A83,83,0,0,0,192,272.78Z" style="fill:#e8e1db"/><path d="M163.22,244.51c-4.91-1-18.28-4-27.37-8.29-.13-.58-.26-1.21-.38-1.9-.76-4.23-1.94-9.31-1.42-14.1a30.48,30.48,0,0,1,22.77,12.4A47.31,47.31,0,0,1,163.22,244.51Z" style="fill:#e8e1db"/><path d="M178,263.81a16.74,16.74,0,0,0-7.47-.42,35.08,35.08,0,0,1-9.8.93q-5.38-1.41-10.23-3a4.56,4.56,0,0,1-1.18-1.68c-1.78-4.56-9.43-6.52-10.48-10.5,19.56,6.41,35,4.36,13.88-1a70.44,70.44,0,0,1-15.06-5.55c-.46-1.39-1-3-1.56-5.13-.09-.39-.18-.79-.27-1.23,9.09,4.25,22.46,7.27,27.37,8.29l.26.69C166,252,171.24,258.37,178,263.81Z" style="fill:#d9d1cc"/><path d="M160.75,264.32c-4.24-.18-8.18-1.13-10.23-3Q155.37,262.91,160.75,264.32Z" style="fill:#2b2b2b"/><path d="M138.86,249.11a3.52,3.52,0,0,1-.13-.92,16.28,16.28,0,0,0-1-5.61,70.44,70.44,0,0,0,15.06,5.55C173.85,253.47,158.42,255.52,138.86,249.11Z" style="fill:#e8e1db"/><path d="M144.37,278.88c-19.47-7.63-40-22.14-44.45-32.4a9.22,9.22,0,0,1-.89-4c.42-10.92,13.66-17.8,19.27-20.22.73,4.6.28,9-1.87,12.33-.24.37-.45.73-.66,1.07-.31.51-.6,1-.85,1.44-7.86-4.39-8.14-1.15-1.43,4.73a1.87,1.87,0,0,0,.11.48,1.7,1.7,0,0,0,.18.46,1.94,1.94,0,0,0,.2.33h0a.73.73,0,0,0,.14.18,2,2,0,0,0,.24.28h0c.11.11.24.22.37.33a7.51,7.51,0,0,0,1,.7l.4.22.49.24c.24.12.49.22.75.34.45.2.94.41,1.46.61h0a107.06,107.06,0,0,0,15.44,8.83c.19.39.38.79.57,1.22.79,1.74,1.38,3.28,1.86,4.63.16.4.3.78.43,1.15.39,1.1.73,2.06,1.07,2.9a5.42,5.42,0,0,0,.22.56,9.84,9.84,0,0,0,1,1.89,77.7,77.7,0,0,1-20.61-12.88C103.11,240,116.63,263.66,144.37,278.88Z" style="fill:#e8e1db"/><path d="M114.92,237.1c-.25.46-.47.9-.65,1.3-.1.21-.17.4-.25.59a6.58,6.58,0,0,0-.57,2.39,2.28,2.28,0,0,0,0,.45C106.78,236,107.06,232.71,114.92,237.1Z" style="fill:#d9d1cc"/><path d="M134.35,254.85A107.06,107.06,0,0,1,118.91,246l1.33.54c.41.16.81.3,1.19.42.19.07.38.12.56.17a17.07,17.07,0,0,0,1.73.41l.52.09,1.29.21.45.07.45.07.44.08a8.22,8.22,0,0,1,3.61,1.46,7.46,7.46,0,0,1,.76.66,10.72,10.72,0,0,1,1.19,1.39,6,6,0,0,1,.41.58c.24.35.46.74.7,1.15.14.24.28.48.41.73S134.22,254.57,134.35,254.85Z" style="fill:#2b2b2b"/><path d="M203.45,285.71c-4.08-3.26-12-1.9-36.17-1.63-6.57.08-14.63-1.93-22.88-5.17l0,0c-27.74-15.22-41.26-38.86-25.49-24.56a77.7,77.7,0,0,0,20.61,12.88,5,5,0,0,0,.53.68.87.87,0,0,0,.13.15,1.53,1.53,0,0,0,.18.18,2.21,2.21,0,0,0,.28.26,2.42,2.42,0,0,0,.31.25,3.4,3.4,0,0,0,.59.4,2.82,2.82,0,0,0,.38.21l.44.23a12.9,12.9,0,0,0,2.44.81l.62.14c.54.12,1.13.23,1.77.34,1.17.18,2.1.32,2.87.42h.06c16.93,5.59,32.11,6.49,31.19,3.47a8.06,8.06,0,0,0-1.32-2.51l1.77-.17L183,272c.5,0,1-.07,1.48-.08l1.43,0a17.09,17.09,0,0,1,6.08.91l0,0,.25.13,1.52.82h0a33.44,33.44,0,0,0,3.18,2l.05,0C206,282,207,288.54,203.45,285.71Z" style="fill:#d9d1cc"/><path d="M150.09,271.28h0Z" style="fill:#2b2b2b"/><path d="M150.09,271.28l.79.09.37,0,.82.08.36,0c2.47.12,1.95-.39,9.69,1.15a30,30,0,0,0,5.83.51l1.41,0h.22c.46,0,.91,0,1.37-.07s.88,0,1.32-.08c2.6-.19,5.19-.5,7.69-.75a8.06,8.06,0,0,1,1.32,2.51C182.2,277.77,167,276.87,150.09,271.28Z" style="fill:#212121"/><path d="M197,275.74a33.44,33.44,0,0,1-3.18-2C195,274.41,196.06,275.08,197,275.74Z" style="fill:#e8e1db"/><path d="M236.28,10.49c-3.93,2.61-7.09,5.19-8.36,3.3-.08-.13-.17-.26-.28-.41a1.1,1.1,0,0,0-.11-.14A81.24,81.24,0,0,1,235,9.1,3.66,3.66,0,0,0,236.28,10.49Z" style="fill:#e8e1db"/><path d="M235,9.1a81.24,81.24,0,0,0-7.45,4.14c-.62-.86-1.49-1.92-2.44-3a96.19,96.19,0,0,1,9.54-6.39C234.32,6.06,234.28,7.82,235,9.1Z" style="fill:#d9d1cc"/><path d="M234.63,3.81a96.19,96.19,0,0,0-9.54,6.39c-1.42-1.63-3-3.39-4.3-4.76C224,3.6,227.38,1.84,231,.19,231,.19,235.35-1.26,234.63,3.81Z" style="fill:#e8e1db"/><path d="M266,22.85a104.61,104.61,0,0,0-10.42,11.67l-.87.08-.78.06-.91.05a2.3,2.3,0,0,0-.26,0l-1.34.07-1.18.08h-.09l-.61.05-1,.12c-.32,0-.62.1-.91.17a3.23,3.23,0,0,0-.47.11,5.53,5.53,0,0,0-.87.27,1.37,1.37,0,0,0-.31.13,1.77,1.77,0,0,0-.34.16,2.2,2.2,0,0,0-.4.23l-.26.17-.25.2c-4.62,4-7.88,6.1-12.23,1.35a4.91,4.91,0,0,0-4.16-1.34h0l-.46,0-.17,0a2.13,2.13,0,0,0-.25,0l-.24,0-.63.12c5.53-8.7,12.92-16,22.81-20.68-.35,3.78-.55,4.4,4.8,4.4C259.23,20.5,265.3,20.5,266,22.85Z" style="fill:#383838"/><path d="M249.49,15.06c0,.37-.05.72-.08,1-9.89,4.65-17.28,12-22.81,20.68l-.18,0c-.29.07-.58.13-.89.22-.53.14-1.09.3-1.63.47l-.84.26c-.28.09-.56.19-.84.27-1.13.37-2.26.75-3.35,1.07l-.92.25c-.3.09-.61.16-.91.22l-.77.15-.42.06c7.58-15.46,16.88-23.88,23.46-28.26a21.49,21.49,0,0,0,2.57.28C249.13,12.16,249.86,10.34,249.49,15.06Z" style="fill:#303030"/><path d="M239.31,11.52c-6.58,4.38-15.88,12.8-23.46,28.26a5.77,5.77,0,0,1-4.24-.7,5.14,5.14,0,0,0-1.21-.66,3.45,3.45,0,0,0-.42-.14l-.39-.1-.3,0h0l-.23,0-.24,0a3.91,3.91,0,0,0-.49,0l-.61,0-.41.05a2.42,2.42,0,0,0-.47.07l-.37.06a2.33,2.33,0,0,0-.38.08c-.81.19-1.62.44-2.41.69l-1.06.33-.25.08a73.3,73.3,0,0,1,25.18-26.2,1.1,1.1,0,0,1,.11.14c.11.15.2.28.28.41,1.27,1.89,4.43-.69,8.36-3.3A8,8,0,0,0,239.31,11.52Z" style="fill:#383838"/><path d="M225.09,10.2a102.59,102.59,0,0,0-26.76,29.63,2.41,2.41,0,0,1-.45-.16,1.73,1.73,0,0,1-.41-.2l-.05,0a1.82,1.82,0,0,1-.3-.21,3.1,3.1,0,0,1-.47-.43c-1.74-1.87-6.44-.65-10.77,1.07C193,27.1,204,15.09,220.79,5.44,222.07,6.81,223.67,8.57,225.09,10.2Z" style="fill:#383838"/><path d="M296.93,52.59c-3.59,2.94-8.66,5.8-12.45,2.8-.84-.66-1.66-1.37-2.46-2,3-5,5.68-9.27,7.61-12.34,6.23-.61-2.45,2,3,8.87A7.83,7.83,0,0,0,296.93,52.59Z" style="fill:#d9d1cc"/><path d="M289.63,41c-1.93,3.07-4.58,7.34-7.61,12.34l-1.32-1.12-.65-.54a5.15,5.15,0,0,0-.41-.32c-.26-.21-.52-.43-.79-.62l-.13-.1-.66-.48h0c-.22-.16-.45-.31-.67-.45s-.45-.29-.68-.42-.38-.23-.57-.33a6.27,6.27,0,0,0-.58-.29c-.29-.14-.57-.27-.87-.38a8.49,8.49,0,0,0-.89-.31l-.52-.14c-.25-.06-.5-.11-.76-.15l-.6-.08a1,1,0,0,0-.29,0c-.23,0-.46,0-.7,0h-.29a1.51,1.51,0,0,0-.3,0,10.54,10.54,0,0,0-1.85.26c-.33.08-.68.17-1,.29l-.61.2-.61.24-.63.27c-.33.14-.66.31-1,.49-.17.09-.36.19-.53.3a19.76,19.76,0,0,0-1.87,1.15c-.93.62-1.83,1.22-2.71,1.78s-1.47.94-2.18,1.36a1.2,1.2,0,0,1-.17.11l-1.43.85c-.4.23-.79.46-1.18.66-.75.42-1.48.8-2.18,1.15,4.53-9.48,9.91-18.3,15.82-25l.91,0c9.07.36,7.62-3.62,8.34,2.54s2.18,8,10.88,6.89Z" style="fill:#e8e1db"/><path d="M268.16,31.69c-5.91,6.69-11.29,15.51-15.82,25h0l-1.11.52c-.33.15-.67.3-1,.43-.53.23-1.05.43-1.54.59h-.05l-.46.15c-.45.13-.87.25-1.28.33-.19,0-.39.08-.57.1h-.07a1.05,1.05,0,0,1-.24,0h-.2a3.9,3.9,0,0,1-2.6-.52,1.49,1.49,0,0,1-.28-.23l-.09-.08a2.17,2.17,0,0,1-.24-.29,1.38,1.38,0,0,1-.19-.28.83.83,0,0,1-.07-.13.55.55,0,0,1-.1-.22,2.19,2.19,0,0,1-.18-.47,1.89,1.89,0,0,0-.06-.18h0a127.45,127.45,0,0,1,13.62-21.95h0c.38,0,.76-.08,1.15-.13l1.06-.15.16,0c.23,0,.47-.07.71-.13a7.9,7.9,0,0,0,.79-.16c.54-.11,1.07-.24,1.61-.4l.53-.16.38-.12.77-.28a6.19,6.19,0,0,0,.62-.25,5.59,5.59,0,0,0,.63-.26c.22-.1.44-.19.67-.31.46-.22.92-.46,1.37-.72A15.42,15.42,0,0,0,268.16,31.69Z" style="fill:#d9d1cc"/><path d="M255.62,34.52A127.45,127.45,0,0,0,242,56.47l-.1-.31c0-.09-.08-.2-.12-.31s-.21-.51-.34-.78l-.21-.43c-.07-.14-.16-.29-.24-.43a5.33,5.33,0,0,0-.31-.51.56.56,0,0,0-.05-.08c-.12-.2-.25-.39-.39-.59,0,0,0,0,0,0-.15-.18-.28-.37-.43-.56l-.36-.44-.11-.12a2.79,2.79,0,0,0-.28-.32l-.19-.2-.31-.31-.33-.3a4.15,4.15,0,0,0-.32-.27,7,7,0,0,0-.56-.43l-.13-.1c-.18-.13-.38-.26-.57-.37s-.21-.11-.31-.18a5.71,5.71,0,0,0-.61-.29.88.88,0,0,0-.2-.09c-.2-.09-.4-.16-.59-.23h0a5.06,5.06,0,0,0-.67-.17.24.24,0,0,0-.12,0l-.34-.06-.23,0-.36,0h-.36c-2.38,0-5,1.3-7.74,4.77-1.18,1.52-2.24,3-3.22,4.34l-.74,1c-.34.48-.67,1-1,1.4s-.71,1-1.05,1.46l-.78,1.05c-.23.31-.47.62-.7.9l-.39.46c-.22.27-.44.52-.65.75l0,0c-.1.12-.22.24-.33.35a3.33,3.33,0,0,1-.34.32,6.36,6.36,0,0,1-.63.55l0,0a3.32,3.32,0,0,1-.42.3c2.48-10.3,6.2-20.56,11.84-29.42l.63-.12.24,0a2.13,2.13,0,0,1,.25,0l.17,0,.46,0h0a4.91,4.91,0,0,1,4.16,1.34c4.35,4.75,7.61,2.6,12.23-1.35l.25-.2.26-.17a2.2,2.2,0,0,1,.4-.23,1.77,1.77,0,0,1,.34-.16,1.37,1.37,0,0,1,.31-.13,5.53,5.53,0,0,1,.87-.27,3.23,3.23,0,0,1,.47-.11c.29-.07.59-.12.91-.17l1-.12.61-.05h.09l1.18-.08,1.34-.07a2.3,2.3,0,0,1,.26,0l.91-.05.78-.06Z" style="fill:#e8e1db"/><path d="M226.6,36.78C221,45.64,217.24,55.9,214.76,66.2a4.17,4.17,0,0,1-1.18.58,2,2,0,0,1-.35.1h-.06l-.28,0-.32,0c-1.27,0-2.62-.69-4.22-2.3-.33-.33-.64-.67-.94-1h0a116.62,116.62,0,0,1,8.44-23.85l.42-.06.77-.15c.3-.06.61-.13.91-.22s.62-.15.92-.25c1.09-.32,2.22-.7,3.35-1.07.28-.08.56-.18.84-.27l.84-.26c.54-.17,1.1-.33,1.63-.47.31-.09.6-.15.89-.22Z" style="fill:#d9d1cc"/><path d="M198.33,39.83a93,93,0,0,0-9.51,22.32h0l-.1.08c-.17.16-.36.3-.53.45l-.63.51c-.84.67-1.66,1.26-2.47,1.79l-.6.37-.59.33-.62.32-.33.16-.2.09-.63.25-.39.13-.36.11a4.94,4.94,0,0,1-.52.13l-.51.1-.49.06h0l-.32,0h-.33a6.8,6.8,0,0,1-2.86-.62h0a89.41,89.41,0,0,1,9.58-26.56h0c4.33-1.72,9-2.94,10.77-1.07a3.1,3.1,0,0,0,.47.43,1.82,1.82,0,0,0,.3.21l.05,0a1.73,1.73,0,0,0,.41.2A2.41,2.41,0,0,0,198.33,39.83Z" style="fill:#e8e1db"/><path d="M188.81,62.16h0l-.1.07Z" style="fill:#e8e1db"/><path d="M202.35,39.44a85.43,85.43,0,0,0-7.3,17l-.85.77-2.54,2.38-1,.92c-.17.16-.36.31-.53.48l-.93.81-.38.32a93,93,0,0,1,9.51-22.32c.19.05.39.08.58.11a4.71,4.71,0,0,0,.53,0,6,6,0,0,0,1-.09l.4-.06.12,0a9.4,9.4,0,0,0,1-.25Z" style="fill:#d9d1cc"/><path d="M215.85,39.78a116.62,116.62,0,0,0-8.44,23.85,3.36,3.36,0,0,1-.34-.41l-.61-.78-.43-.61-.44-.64c-1.19-1.83-2.09-3.61-3-4.92-.14-.18-.27-.36-.39-.53s-.16-.18-.24-.27a1.65,1.65,0,0,0-.22-.24l-.19-.2c-.12-.12-.25-.21-.37-.31l-.35-.22a.27.27,0,0,0-.12-.06l-.13-.07a2.35,2.35,0,0,0-.51-.17,2.69,2.69,0,0,0-.57-.06h-.29l-.2,0-.29.06a1.12,1.12,0,0,0-.26.08,3.79,3.79,0,0,0-.58.22,3,3,0,0,0-.31.15,4.6,4.6,0,0,0-.66.38l-.69.47c-.37.27-.75.57-1.17.93a85.43,85.43,0,0,1,7.3-17l.25-.08,1.06-.33c.79-.25,1.6-.5,2.41-.69a2.33,2.33,0,0,1,.38-.08l.37-.06a2.42,2.42,0,0,1,.47-.07l.41-.05.61,0a3.91,3.91,0,0,1,.49,0l.24,0,.23,0h0l.3,0,.39.1.42.14a5.14,5.14,0,0,1,1.21.66A5.77,5.77,0,0,0,215.85,39.78Z" style="fill:#e8e1db"/><path d="M332.45,74.32c-3.05-.77-6-1.18-7.72-.53a3.5,3.5,0,0,1-1.23.21l-.36,0a1.33,1.33,0,0,1-.28,0,1.91,1.91,0,0,1-.33-.06l-.26,0a5,5,0,0,1-.59-.19l-.3-.1-.22-.09a2.67,2.67,0,0,1-.36-.14l-.37-.17a4,4,0,0,1-.37-.17l-.81-.39-1.11-.53-.7-.34c1.24-1.27,2.4-2.44,3.43-3.47a26.72,26.72,0,0,0,3.67.47C336.43,69.45,328.65,64.79,332.45,74.32Z" style="fill:#303030"/><path d="M320.87,68.25c-1,1-2.19,2.2-3.43,3.47l-.81-.37-.41-.16-.63-.27-.36-.13c-.37-.14-.76-.27-1.16-.39s-.64-.19-1-.27l-.12,0a5,5,0,0,0-.53-.12h-.08a3.12,3.12,0,0,0-.44-.09h-.07a11,11,0,0,0-1.17-.17.43.43,0,0,0-.19,0c-.37,0-.74-.07-1.13-.08h-.71l-.79,0c-.52,0-1.07.06-1.63.13l-.33,0c-.46.07-.92.15-1.4.25-.13,0-.26.06-.39.09l-.1,0h0l-.61.14c-.33.08-.66.18-1,.28s-.68.2-1,.32c-13.59,4.62-13.86,5.52-19.3,2.9,0,0,0,0-.05,0C288.36,66,295.73,58,302.49,52.84h0c4.58-.41,8.63-1.59,8.63,2.1C311.13,60.72,312.28,66.51,320.87,68.25Z" style="fill:#383838"/><path d="M302.49,52.84C295.73,58,288.36,66,282,73.76a5.52,5.52,0,0,1-.54-.28,5.45,5.45,0,0,1-.53-.29,3.37,3.37,0,0,1-.32-.19l-.63-.4-.56-.37-.57-.39c-.25-.17-.48-.33-.72-.48a1,1,0,0,1-.13-.09c-.26-.16-.5-.31-.76-.44a0,0,0,0,0,0,0,6.13,6.13,0,0,0-.86-.41,5.43,5.43,0,0,0-1.93-.36c-.18,0-.38,0-.58,0l-.28,0-.28,0-.15,0a4.2,4.2,0,0,0-.59.14l-.23.06-.33.11a.58.58,0,0,0-.17.06c3.55-6.18,7.07-12.09,10.2-17.23.8.68,1.62,1.39,2.46,2,3.79,3,8.86.14,12.45-2.8h0A16.92,16.92,0,0,0,302.49,52.84Z" style="fill:#303030"/><path d="M282,53.34c-3.13,5.14-6.65,11-10.2,17.23l-.06,0-.08,0-.44.17c-.21.08-.42.18-.62.28a10.57,10.57,0,0,0-1,.5l-.85.46-.83.5-.93.59-1,.67c-9.44,6.47-18.65,12.37-24.24,11.5a169,169,0,0,1,10.58-28.6h0c.7-.35,1.43-.73,2.18-1.15.39-.2.78-.43,1.18-.66l1.43-.85a1.2,1.2,0,0,0,.17-.11c.71-.42,1.44-.88,2.18-1.36s1.78-1.16,2.71-1.78a19.76,19.76,0,0,1,1.87-1.15c.17-.11.36-.21.53-.3.34-.18.67-.35,1-.49l.63-.27.61-.24.61-.2c.36-.12.71-.21,1-.29a10.54,10.54,0,0,1,1.85-.26,1.51,1.51,0,0,1,.3,0h.29c.24,0,.47,0,.7,0a1,1,0,0,1,.29,0l.6.08c.26,0,.51.09.76.15l.52.14a8.49,8.49,0,0,1,.89.31c.3.11.58.24.87.38a6.27,6.27,0,0,1,.58.29q.28.15.57.33c.23.13.45.27.68.42l.67.45h0l.66.48.13.1c.27.19.53.4.79.62a5.15,5.15,0,0,1,.41.32l.65.54Z" style="fill:#383838"/><path d="M252.33,56.69a169,169,0,0,0-10.58,28.6A5.37,5.37,0,0,1,240.7,85a19,19,0,0,0-6.15-1.44h-.13l-.44,0-.64.06h-.06l-.53.1-.66.15A134.71,134.71,0,0,1,242,56.48a1.89,1.89,0,0,1,.06.18,2.19,2.19,0,0,0,.18.47.55.55,0,0,0,.1.22.83.83,0,0,0,.07.13,1.38,1.38,0,0,0,.19.28,2.17,2.17,0,0,0,.24.29l.09.08a1.49,1.49,0,0,0,.28.23,3.9,3.9,0,0,0,2.6.52h.2a1.05,1.05,0,0,0,.24,0h.07c.18,0,.38-.06.57-.1.41-.08.83-.2,1.28-.33l.46-.15h.05c.49-.16,1-.36,1.54-.59.33-.13.67-.28,1-.43Z" style="fill:#303030"/><path d="M242,56.47h0a134.71,134.71,0,0,0-9.91,27.45L232,84l0,0c-.19,0-.38.11-.57.17l-.74.28c-.49.21-1,.45-1.54.73l-.18.1,0,0c-.15.09-.29.18-.45.26l-.8.48-.48.31c-.4.26-.83.54-1.27.86-.26.17-.52.36-.79.55-.53.39-1.07.78-1.62,1.16-.36.27-.73.53-1.1.78-.91.64-1.84,1.27-2.77,1.87-.18.13-.37.24-.55.36l-.57.35-1,.59c-1,.58-1.93,1.1-2.88,1.57l-.79.37-.8.34c-.33.14-.64.26-1,.37s-.39.14-.58.19c-.38.13-.75.23-1.12.32a190.48,190.48,0,0,1,4.41-29.82,3.32,3.32,0,0,0,.42-.3l0,0a6.36,6.36,0,0,0,.63-.55,3.33,3.33,0,0,0,.34-.32c.11-.11.23-.23.33-.35l0,0c.21-.23.43-.48.65-.75l.39-.46c.23-.28.47-.59.7-.9l.78-1.05c.34-.45.69-.94,1.05-1.46s.65-.92,1-1.4l.74-1c1-1.36,2-2.82,3.22-4.34,2.7-3.47,5.36-4.77,7.74-4.77h.36l.36,0,.23,0,.34.06a.24.24,0,0,1,.12,0,5.06,5.06,0,0,1,.67.17h0c.19.07.39.14.59.23a.88.88,0,0,1,.2.09,5.71,5.71,0,0,1,.61.29c.1.07.21.12.31.18s.39.24.57.37l.13.1a7,7,0,0,1,.56.43,4.15,4.15,0,0,1,.32.27l.33.3.31.31.19.2a2.79,2.79,0,0,1,.28.32l.11.12.36.44c.15.19.28.38.43.56,0,0,0,0,0,0,.14.2.27.39.39.59a.56.56,0,0,1,.05.08c.11.17.21.33.31.51l.24.43.21.43c.13.27.24.53.34.78s.08.22.12.31Z" style="fill:#383838"/><path d="M185.36,95a5.12,5.12,0,0,1-.53.25c-.33.17-.69.3-1.06.45h0l-.56.21-.61.21c-.3.09-.6.19-.91.27s-.48.14-.74.2c-.47.13-1,.24-1.45.35l-.66.13h0l-.66.12c-.22,0-.44.08-.67.11-.45.08-.92.14-1.38.2s-.91.11-1.36.14a115.69,115.69,0,0,1,1.58-31.19,6.8,6.8,0,0,0,2.86.62h.33l.32,0h0l.49-.06.51-.1a4.94,4.94,0,0,0,.52-.13l.36-.11.39-.13.63-.25.2-.09.33-.16.62-.32.59-.33.6-.37c.81-.53,1.63-1.12,2.47-1.79l.63-.51c.17-.15.36-.29.53-.45l.1-.07A102.36,102.36,0,0,0,185.36,95Z" style="fill:#383838"/><path d="M188.81,62.16h0l-.1.07Z" style="fill:#e8e1db"/><path d="M356.71,100c-.37.1-.72.18-1.08.29-.51-.1-1-.22-1.51-.35l-.74-.2c-.22-.07-.44-.13-.65-.21l-.17,0-.64-.23-.7-.27c-.48-.19-1-.4-1.42-.62l-.53-.27c-.31-.15-.62-.3-.92-.47s-.41-.22-.6-.34c-.69-.39-1.35-.81-2-1.25a1.3,1.3,0,0,0-.15-.1c-.39-.27-.77-.54-1.15-.83,2.33-1,4.46-1.85,6.3-2.53A20.47,20.47,0,0,0,356.71,100Z" style="fill:#d9d1cc"/><path d="M345.74,96c.66.44,1.32.86,2,1.25C347.06,96.89,346.4,96.47,345.74,96Z" style="fill:#e8e1db"/><path d="M350.74,92.56c-1.84.68-4,1.53-6.3,2.53h0L344,94.8c-6.8-5.19-10.88-7.86-15.23-6.23s-12,2.72-15.23.81l-.25-.14A176.4,176.4,0,0,1,333.14,76c3.61,8.26,5.87,7.62,11.71,7.62,6.17,0,2.91.71,4.71,6.15A22,22,0,0,0,350.74,92.56Z" style="fill:#e8e1db"/><path d="M333.14,76a176.4,176.4,0,0,0-19.81,13.27l-.22-.1-.37-.16-.41-.15a2.64,2.64,0,0,0-.45-.15c-.3-.1-.64-.21-1-.3-.19,0-.4-.11-.62-.15l-.66-.15c-.46-.1-.94-.19-1.43-.26l-.13,0c-.45-.07-.91-.14-1.39-.19-.27,0-.53-.07-.8-.09l-.82-.07c-.41,0-.84-.07-1.25-.09l-1.27,0c5.36-5.77,10.68-11.27,14.93-15.59l.7.34,1.11.53.81.39a4,4,0,0,0,.37.17l.37.17a2.67,2.67,0,0,0,.36.14l.22.09.3.1a5,5,0,0,0,.59.19l.26,0a1.91,1.91,0,0,0,.33.06,1.33,1.33,0,0,0,.28,0l.36,0a3.5,3.5,0,0,0,1.23-.21c1.71-.65,4.67-.24,7.72.53,0,.06.06.13.08.19C332.74,75,332.94,75.51,333.14,76Z" style="fill:#d9d1cc"/><path d="M317.44,71.72c-4.25,4.32-9.57,9.82-14.93,15.59-4-.08-8.21.45-11,2.07-6,3.54-15.22,7.89-18.76,5.42a8.45,8.45,0,0,0-5.64-1,229.93,229.93,0,0,1,14.84-20s0,0,.05,0c5.44,2.62,5.71,1.72,19.3-2.9.35-.12.69-.23,1-.32s.66-.2,1-.28l.61-.14h0l.1,0c.13,0,.26-.07.39-.09.48-.1.94-.18,1.4-.25l.33,0c.56-.07,1.11-.11,1.63-.13l.79,0h.71c.39,0,.76,0,1.13.08a.43.43,0,0,1,.19,0,11,11,0,0,1,1.17.17h.07a3.12,3.12,0,0,1,.44.09h.08a5,5,0,0,1,.53.12l.12,0c.34.08.66.17,1,.27s.79.25,1.16.39l.36.13.63.27.41.16Z" style="fill:#e8e1db"/><path d="M271.82,70.57c-5,8.7-10.06,17.93-14.13,26.25a40.22,40.22,0,0,0-4.07,2.35c-5.37,3.53-8.58,5.64-12.27,5.64a6.06,6.06,0,0,1-.73,0,7.75,7.75,0,0,1-.94-.11,6.73,6.73,0,0,1-.85-.17c-.27-.06-.54-.13-.82-.22l-.08,0q.57-3.06,1.14-6.61a120,120,0,0,1,2.68-12.35c5.59.87,14.8-5,24.24-11.5l1-.67.93-.59.83-.5.85-.46c.36-.19.7-.35,1-.5s.41-.2.62-.28l.44-.17.08,0Z" style="fill:#e8e1db"/><path d="M232.09,83.93a142.73,142.73,0,0,0-3.5,21.37l-.6.36c-.12.07-.24.15-.37.21-.45.26-1,.52-1.48.77l-.5.23-.52.23c-.32.13-.66.27-1,.39s-.72.26-1.11.38-.8.25-1.23.37l-.65.18a8.78,8.78,0,0,0-.95.26c-.26.06-.51.15-.77.23l-.87.29c-.38.14-.76.28-1.13.44s-.84.34-1.26.53l-.75.35-.74.36c-.43.21-.85.44-1.27.67-.74.4-1.44.82-2.14,1.24l-.65.39-1.11.68c.16-4.66.33-10.83.86-17.84.37-.09.74-.19,1.12-.32.19,0,.39-.12.58-.19s.63-.23,1-.37l.8-.34.79-.37c1-.47,1.9-1,2.88-1.57l1-.59.57-.35c.18-.12.37-.23.55-.36.93-.6,1.86-1.23,2.77-1.87.37-.25.74-.51,1.1-.78.55-.38,1.09-.77,1.62-1.16.27-.19.53-.38.79-.55.44-.32.87-.6,1.27-.86l.48-.31.8-.48c.16-.08.3-.17.45-.26l0,0,.18-.1c.54-.28,1-.52,1.54-.73l.74-.28c.19-.06.38-.13.57-.17l0,0Z" style="fill:#e8e1db"/><path d="M191.54,124.24q-.33.51-.72,1.05c-.12.17-.24.34-.38.52-.26.35-.54.72-.86,1.1a8.88,8.88,0,0,1-8.3,3.4,137,137,0,0,1-6.56-32.67c.45,0,.91-.09,1.36-.14s.93-.12,1.38-.2c.23,0,.45-.06.67-.11l.66-.12h0l.66-.13c.49-.11,1-.22,1.45-.35.26-.06.51-.13.74-.2s.61-.18.91-.27l.61-.21.56-.21h0c.37-.15.73-.28,1.06-.45a5.12,5.12,0,0,0,.53-.25A134.68,134.68,0,0,0,189.67,122S190.74,124.11,191.54,124.24Z" style="fill:#e8e1db"/><path d="M192.32,122.93h0c-.23.41-.49.85-.78,1.3-.8-.13-1.87-2.2-1.87-2.2A134.68,134.68,0,0,1,185.36,95c.27-.13.53-.27.77-.41l.4-.24.35-.23.29-.21.38-.32,0,0,0,0a3.8,3.8,0,0,0,.35-.34,3,3,0,0,1,.37-.35l.1-.09.06-.06.23-.2,0,0,0,0a3.4,3.4,0,0,1,.3-.23l.08,0,.13-.08.22-.13a.36.36,0,0,1,.15-.08,5,5,0,0,1,.51-.27A187.91,187.91,0,0,0,192,116.29,28.91,28.91,0,0,1,192.32,122.93Z" style="fill:#d9d1cc"/><path d="M202.78,117.26l-.74.19-.68.12-.32,0c-.11,0-.22,0-.34,0s-.46,0-.69,0h-.37a11.85,11.85,0,0,0-2.14.08l-.4.06a4.1,4.1,0,0,0-2.33,1.2c-.14.15-.27.31-.4.48,0,0-.05,0-.06.06s-.13.18-.19.28a7.17,7.17,0,0,0-.51.82h0l-.29.52c-.08.17-.19.35-.29.54s-.23.39-.34.6-.12.2-.17.31l-.18.31h0a28.91,28.91,0,0,0-.3-6.64,187.91,187.91,0,0,1-1.84-24.69l.48-.2.26-.1,0,0a.15.15,0,0,0,.07,0h0l.07,0h0a8.3,8.3,0,0,1,1-.26c.26,0,.53-.1.79-.13l.83-.07a10.46,10.46,0,0,1,1.12,0l1.14.1c.2,0,.38.06.57.09l.57.12c.22,0,.45.1.68.16s.53.14.79.23l.12,0,.07,0,.7.27a7.19,7.19,0,0,1,.76.32c.21.09.42.2.63.31a2,2,0,0,1,.29.15c.31.16.59.34.88.52a11,11,0,0,1,1,.68C202.61,101,202.49,108.8,202.78,117.26Z" style="fill:#e8e1db"/><path d="M192.33,122.93h0Z" style="fill:#e8e1db"/><path d="M357.63,100.59l-1-.13-1-.18c.36-.11.71-.19,1.08-.29h0C357,100.21,357.33,100.41,357.63,100.59Z" style="fill:#e8e1db"/><path d="M365.25,120.38q-.15.25-.3.48c-9.17,3.53-20.14,8.17-27.94,12.85-6,1.64-5.31,1-8.2-3.32-2.19-3.32-7.25-2-12.61.24,2-2.71,4.45-6.09,7.53-9.65,4,2.38,11.89-2.52,17.86-6.58,6.8-4.62,20.39-1.9,28.82-4.08S369.87,112.77,365.25,120.38Z" style="fill:#e8e1db"/><path d="M308.41,120.93c-6.2,8.42-8,13.44-7.51,16-6.65,2.21-13.39,4.12-13.39,4.12-16.73-2.63-34.79-5.11-52.56-6.89,9.22-2.93,14.06-6.49,15.54-3.82,1.64,2.94,7.89-.22,15.78-6.47s4.92,1.81,10-1.32c-3.4,9.27-2.93,9.49,1.44,8.83,2.38-.34,5-4.83,8.19-10.5a59.56,59.56,0,0,0,19.81-3.54c3.46-1.23,6-2.06,8-2.58A54.65,54.65,0,0,0,308.41,120.93Z" style="fill:#e8e1db"/><path d="M371,129.48c-7.46,7.79-23.87,16.72-46.38,18-10.92-2-23.57-4.25-37.08-6.39,0,0,6.74-1.91,13.39-4.12.76,3.91,6.75,2.38,11.05-1.32a32.78,32.78,0,0,0,4.25-5c5.36-2.23,10.42-3.56,12.61-.24,2.89,4.37,2.17,5,8.2,3.32-4.18,2.51-7.44,5-9,7.39C321.41,150.93,346.91,130.87,371,129.48Z" style="fill:#383838"/><path d="M316.2,130.63a32.78,32.78,0,0,1-4.25,5c-4.3,3.7-10.29,5.23-11.05,1.32,1.35-.44,2.7-.91,4-1.37C308.12,134.46,312.24,132.29,316.2,130.63Z" style="fill:#303030"/><path d="M371,129.48c-24.06,1.39-49.56,21.45-43,11.62,1.58-2.36,4.84-4.88,9-7.39,1.91-.51,4.5-1.26,8.11-2.18,14.63-3.72,15.47-3.54,19.83-10.67,3.8-1.46,7.28-2.72,10.11-3.72a7.57,7.57,0,0,0,.25,3.06C376,122.46,374.45,125.84,371,129.48Z" style="fill:#303030"/><path d="M375.06,117.14c-2.83,1-6.31,2.26-10.11,3.72q.15-.23.3-.48c4.62-7.61,13.59-12.23,5.16-10.06s-22-.54-28.82,4.08c-6,4.06-13.83,9-17.86,6.58,6.73-7.8,16.56-16.45,31.9-20.7l1,.18,1,.13h0a7.56,7.56,0,0,0,4.25,1.11c5.44-.36,1.08.73,5.44,2.54s9.06,3.27,12.68,1.81C383.15,104.81,375.79,110.82,375.06,117.14Z" style="fill:#383838"/><path d="M355.63,100.28c-15.34,4.25-25.17,12.9-31.9,20.7a3.9,3.9,0,0,1-1.45-1.41c-2.55-4.06-1.43-6.61-8.59-4.76,9.19-9.21,21.49-15.71,30.74-19.72h0c.38.29.76.56,1.15.83a1.3,1.3,0,0,1,.15.1c.66.45,1.32.87,2,1.25.19.12.4.23.6.34s.61.32.92.47l.53.27c.47.22.94.43,1.42.62l.7.27.64.23.17,0c.21.08.43.14.65.21l.74.2C354.62,100.06,355.12,100.18,355.63,100.28Z" style="fill:#303030"/><path d="M344.43,95.09c-9.25,4-21.55,10.51-30.74,19.72-2,.52-4.54,1.35-8,2.58a59.56,59.56,0,0,1-19.81,3.54c3.36-6,7.31-13.33,12.2-18.49a137.37,137.37,0,0,1,15.25-13.2l.25.14c3.26,1.91,10.88.82,15.23-.81s8.43,1,15.23,6.23Z" style="fill:#383838"/><path d="M302.51,87.31c-11.13,12-22.47,25.16-24.82,31.44-.54,1.44-1,2.71-1.44,3.85-5.06,3.13-2.14-4.9-10,1.32s-14.14,9.41-15.78,6.47c-1.48-2.67-6.32.89-15.54,3.82a468.8,468.8,0,0,0-53.24-2.73s-.16-.41-.43-1.17a8.88,8.88,0,0,0,8.3-3.4c.32-.38.6-.75.86-1.1.14-.18.26-.35.38-.52q.39-.54.72-1.05c.35.07.65-.26.78-1.3h0l.18-.31c.05-.11.12-.21.17-.31s.23-.4.34-.6.21-.37.29-.54l.29-.52h0a7.17,7.17,0,0,1,.51-.82c.06-.1.13-.19.19-.28s0,0,.06-.06c.13-.17.26-.33.4-.48a4.1,4.1,0,0,1,2.33-1.2l.4-.06a11.85,11.85,0,0,1,2.14-.08H200q.35,0,.69,0c.12,0,.23,0,.34,0l.32,0,.68-.12.74-.19c.07,2.28.18,4.61.31,7,0,0,3.6,6.93,5.8-2.21a55.46,55.46,0,0,0,.6-8.18l1.11-.68.65-.39c.7-.42,1.4-.84,2.14-1.24.42-.23.84-.46,1.27-.67l.74-.36.75-.35c.42-.19.83-.37,1.26-.53s.75-.3,1.13-.44l.87-.29c.26-.08.51-.17.77-.23a8.78,8.78,0,0,1,.95-.26l.65-.18c.43-.12.84-.24,1.23-.37s.76-.24,1.11-.38.68-.26,1-.39l.52-.23.5-.23c.53-.25,1-.51,1.48-.77.13-.06.25-.14.37-.21l.6-.36c-.33,3.54-.52,7.22-.59,11,0,0-1.85,9,.53,10.48,2.15,1.35,5.9-3.87,9.4-22.52l.08,0c.28.09.55.16.82.22a6.73,6.73,0,0,0,.85.17,7.75,7.75,0,0,0,.94.11,6.06,6.06,0,0,0,.73,0c3.69,0,6.9-2.11,12.27-5.64a40.22,40.22,0,0,1,4.07-2.35c-4.93,10.11-8.4,18.9-8.56,23.83-.54,17.68,12.1-17.52,18-26.84a8.45,8.45,0,0,1,5.64,1c3.54,2.47,12.78-1.88,18.76-5.42C294.3,87.76,298.47,87.23,302.51,87.31Z" style="fill:#383838"/><path d="M192.32,122.94c-.13,1-.43,1.37-.78,1.3C191.83,123.79,192.09,123.35,192.32,122.94Z" style="fill:#303030"/><path d="M192.33,122.93h0Z" style="fill:#e8e1db"/><path d="M209.49,113.86a55.46,55.46,0,0,1-.6,8.18c-2.2,9.14-5.8,2.21-5.8,2.21-.13-2.38-.24-4.71-.31-7a6.59,6.59,0,0,0,.71-.24,4.68,4.68,0,0,0,.48-.18,22.08,22.08,0,0,0,3-1.46l.8-.47C208.32,114.57,208.9,114.23,209.49,113.86Z" style="fill:#303030"/><path d="M237.93,104.25c-3.5,18.65-7.25,23.87-9.4,22.52-2.38-1.5-.53-10.48-.53-10.48.07-3.77.26-7.45.59-11l1-.67.46-.29a11.56,11.56,0,0,1,1.48-.81l.26-.1a4.53,4.53,0,0,1,.84-.24,1.35,1.35,0,0,1,.29,0,7.38,7.38,0,0,1,3.67.66C237.08,104,237.52,104.12,237.93,104.25Z" style="fill:#303030"/><path d="M267.15,93.81c-5.92,9.32-18.56,44.52-18,26.84.16-4.93,3.63-13.72,8.56-23.83l.07,0c.4-.2.79-.39,1.2-.57s.68-.31,1-.44.91-.38,1.37-.55.79-.28,1.17-.4l.57-.17.59-.18c.29-.08.58-.16.87-.21s.39-.1.58-.14a6.6,6.6,0,0,1,.73-.13,1.59,1.59,0,0,1,.3-.06C266.49,93.89,266.82,93.84,267.15,93.81Z" style="fill:#303030"/><path d="M347.75,97.27c-.69-.38-1.35-.8-2-1.25C346.4,96.46,347.06,96.88,347.75,97.27Z" style="fill:#e8e1db"/><path d="M557,181.84a1.13,1.13,0,0,0-.39,1.06l0,.15c-22.17-4-45.05,4.62-34.63-.65,8.48-4.29,24.25-5,33-5h0C556.22,179,558.56,180.24,557,181.84Z" style="fill:#d9d1cc"/><path d="M557.05,183.81c-5.07.33-9.4.33-11.24-1-3.53-2.56-12,4.17-16.86,4.17s-18.22,6-24.47,5.44c-3.79-.32-7-.36-9.92.49a48.61,48.61,0,0,0-14.15-22.57,56.57,56.57,0,0,1,6.14-2.48,22.55,22.55,0,0,1,4.31-1h0c2.1-.26,3.73.07,4.35,1.38s1.86,1.54,3.51,1.54c4.12,0,10.28-2.32,11.45-.18a.86.86,0,0,0,.21.28c2,2.08,10.3-4.26,12.11-2.2-12.75,10.24-20.13,13.4-22.11,16.69-2.18,3.64.54,6,12-2,7.61-5.33,16.58-13.85,27.73-18.69h0c2.45.92,6.81.19,11.3-1,1,1.27,1.75,2.34,1.21,2.56-1.36.54,3.81,6,1.9,9.25a2.33,2.33,0,0,0,.42,2.89c-8.71,0-24.48.72-33,5-10.42,5.27,12.46-3.3,34.63.65h0A2.14,2.14,0,0,0,557.05,183.81Z" style="fill:#e8e1db"/><path d="M563.34,201.19c-1.31-.09-2.78-.18-4.35-.25h-.13c-19.16-2.48-44-5-51.58-2.42-6.15,2.08,2.61,2.88,16.42,4.2-11.18,1.82-16.69,2.91-10,3.6,7.89.82,5.86,4.17-2.91,5.21-3.85.46-9.43.46-14.71.62a51.28,51.28,0,0,0-1.54-19.21c2.95-.85,6.13-.81,9.92-.49C510.73,193,524.06,187,529,187s13.33-6.73,16.86-4.17c1.84,1.31,6.17,1.31,11.24,1,1.54,1.87,5.83,3.93,2.63,6.73-4.35,3.81,6,7.34,3,7.61C561.3,198.27,562.21,199.53,563.34,201.19Z" style="fill:#414142"/><path d="M294.93,289.3c-.75-.54-1.54-1.14-2.33-1.76C293.39,288.15,294.18,288.75,294.93,289.3Z" style="fill:#e8e1db"/><path d="M304.47,279.12a.66.66,0,0,0-.21.2,1.17,1.17,0,0,0-.21.23,1.49,1.49,0,0,0-.15.2,1.77,1.77,0,0,0-.12.17c-.2.28-.39.58-.61.9-.09.13-.18.25-.28.37a.38.38,0,0,1-.1.12,2.41,2.41,0,0,1-.21.24,3.51,3.51,0,0,1-.33.34c-.11.08-.21.17-.33.25l-.27.17h0a1.24,1.24,0,0,1-.23.12,2.91,2.91,0,0,1-.77.27,2.2,2.2,0,0,1-.37.07h0a4.17,4.17,0,0,1-.52,0c-1,0-1.34.25-1.32.73a1,1,0,0,0,0,.23,12.79,12.79,0,0,0,1.23,2.47c-3.55-.94-7.94-2.06-13.45-3.45h0c-.47-.32-.91-.61-1.35-.87-6.52-4-7.07-8.35-12.14-14.33-1.06-1.25-1.32-1.86-1.05-2a.45.45,0,0,1,.28-.07h0c2.16.89,4.26,1.74,6.27,2.54l.08,0,.35.16.79.34.37.15c.25.1.48.2.7.27a6.35,6.35,0,0,0,.65.23h0C287.52,271.8,296.21,275.52,304.47,279.12Z" style="fill:#2b2b2b"/><path d="M273.35,265.84c1.3.49,3.14,1.38,4.87,2.17-2-.8-4.11-1.65-6.27-2.54a3.42,3.42,0,0,1,1.05.25Z" style="fill:#e8e1db"/><path d="M307.44,275.46c0,.12,0,.24,0,.35a3.92,3.92,0,0,1-.23,1c0,.1-.06.2-.1.3a3.52,3.52,0,0,1-1.07,1.46l-.17.11a1.36,1.36,0,0,1-.61.18l-.21,0a.52.52,0,0,0-.21.07.6.6,0,0,0-.16.08h0a1,1,0,0,0-.16.12c-8.26-3.6-17-7.32-23.28-9.92a5.44,5.44,0,0,0,1,.24l.26,0a1,1,0,0,0,.38-.06c.22-.1.27-.3.19-.57a.77.77,0,0,0-.08-.19,7.59,7.59,0,0,0-1.42-1.79l-.3-.29c-.5-.5-1.1-1-1.74-1.61l-.39-.35-.81-.69c-.41-.36-.83-.71-1.26-1.07-.58-.49-1.18-1-1.78-1.46-.29-.25-.59-.49-.88-.72a4.18,4.18,0,0,0-.42-.34l-.83-.68-.43-.34C284.22,265.19,296.9,271.11,307.44,275.46Z" style="fill:#212121"/><path d="M307.44,275.46c-10.54-4.35-23.22-10.27-34.74-16.16h0a.46.46,0,0,0-.07-.07c-.18-.14-.34-.29-.5-.42s-.33-.27-.49-.4c-.8-.65-1.48-1.23-2-1.69-3.63-3.27,5.26-2.18,5.26-2.18s11.78,4.18,19.94,8.86,9.77,6.95,10.4,7.46A6.07,6.07,0,0,1,307,273a5.09,5.09,0,0,1,.22.54A5,5,0,0,1,307.44,275.46Z" style="fill:#2b2b2b"/><path d="M61.18,177.5a1.23,1.23,0,0,0-.14.25,1.1,1.1,0,0,1,.12-.33A.33.33,0,0,0,61.18,177.5Z" style="fill:#e8e1db"/><path d="M72.93,179.05a1.34,1.34,0,0,1,0,.35c-.2,2.66-2.82,4.74-6,4.74s-6-2.27-6-5.09a4.29,4.29,0,0,1,.2-1.29h0a1.23,1.23,0,0,1,.14-.25.33.33,0,0,1,0-.08h0a5.07,5.07,0,0,1,2-2.34h0A6.89,6.89,0,0,1,66.88,174a6.82,6.82,0,0,1,3.13.74A5,5,0,0,1,72.93,179.05Z" style="fill:#212121"/><path d="M61.16,177.42a1.1,1.1,0,0,0-.12.33,1.23,1.23,0,0,1,.14-.25A.33.33,0,0,1,61.16,177.42Z" style="fill:#e8e1db"/><path d="M85.77,177.22c.62,1.29-.54,2.22-1.09,3.69s-1.15,4.31-2.92,4.18-3.87-1.56-3.46-2.26,1.83-2.14-1.09-2.21a7.43,7.43,0,0,1-4.31-1.22,1.34,1.34,0,0,0,0-.35A5,5,0,0,0,70,174.69a1.18,1.18,0,0,1,2.1.21c.14.75,1.63.89,2.18,0s.81-1.76,2-1.28,2.17-1,3.34-1.7-1.09-1.23-2.8-2.72-.38-2.63-.38-2.63c5.07,1.33,9.07,4.27,10.83,8C87.13,174.66,85.19,176,85.77,177.22Z" style="fill:#545456"/><path d="M62.08,190.29a18.1,18.1,0,0,1-5.14-2.93s1.37-2.93,2.93-3.22c1.36-.22,1.33-1,1.3-1.26a28.52,28.52,0,0,1,.88,4.67A15.8,15.8,0,0,1,62.08,190.29Z" style="fill:#828293"/><path d="M88.28,178.78c0,7.17-8,13-17.91,13a23.46,23.46,0,0,1-8.29-1.47,15.8,15.8,0,0,0,0-2.74,28.52,28.52,0,0,0-.88-4.67.18.18,0,0,1,0,0c-.55-2.11-1-3.57-.13-5.07a4.29,4.29,0,0,0-.2,1.29c0,2.82,2.71,5.09,6,5.09s5.82-2.08,6-4.74a7.43,7.43,0,0,0,4.31,1.22c2.92.07,1.49,1.49,1.09,2.21s1.7,2.14,3.46,2.26,2.38-2.71,2.92-4.18,1.71-2.4,1.09-3.69,1.36-2.56,1.54-2.67A9.67,9.67,0,0,1,88.28,178.78Z" style="fill:#828293"/><path d="M61.18,174.29a4.54,4.54,0,0,0,0,3.12h0a1.1,1.1,0,0,0-.12.33h0c-.84,1.5-.42,3,.13,5.07a.18.18,0,0,0,0,0c0,.21.06,1-1.3,1.26-1.56.29-2.93,3.22-2.93,3.22a11.85,11.85,0,0,1-4.25-6.45s3.92-3.15,3.71-5.12,1.57-2.24,2.66-2.93S61.84,172.86,61.18,174.29Z" style="fill:#545456"/><path d="M79.66,171.92c-1.17.74-2.11,2.17-3.34,1.7s-1.49.4-2,1.28-2,.75-2.18,0a1.18,1.18,0,0,0-2.1-.21,6.82,6.82,0,0,0-3.13-.74,6.89,6.89,0,0,0-3.77,1.11h0a5.07,5.07,0,0,0-2,2.34,4.54,4.54,0,0,1,0-3.12c.66-1.43-1-2.11-2.12-1.43s-2.86.95-2.66,2.93-3.71,5.12-3.71,5.12a10,10,0,0,1-.24-2.13c0-6.2,6-11.38,14-12.67a24.31,24.31,0,0,1,10,.46s-1.31,1.13.38,2.63S80.81,171.17,79.66,171.92Z" style="fill:#828293"/><path d="M90.33,241.12c-4-2.18-6.17-1.63-10.23,0s-7.36,2.72-7.2,0-4.33-3.45-2.53-7.8,4.19-6.16,6.18-10,1.27-1.09,5.44-7.26,8.88-7.25,12.34-9,2.52,4.44,2.52,7.88-1.81,6.71-4.35,10.7,2.89,11.72,3.27,12.15C100.66,243.29,94.32,243.29,90.33,241.12Z" style="fill:#414142"/><path d="M227.53,13.24a73.3,73.3,0,0,0-25.18,26.2l-.4.1a9.4,9.4,0,0,1-1,.25l-.12,0-.4.06a6,6,0,0,1-1,.09,4.71,4.71,0,0,1-.53,0c-.19,0-.39-.06-.58-.11A102.59,102.59,0,0,1,225.09,10.2C226,11.32,226.91,12.38,227.53,13.24Z" style="fill:#303030"/><path d="M207.41,63.63h0a174.64,174.64,0,0,0-4.34,30.12,11,11,0,0,0-1-.68c-.29-.18-.57-.36-.88-.52a2,2,0,0,0-.29-.15c-.21-.11-.42-.22-.63-.31a7.19,7.19,0,0,0-.76-.32l-.7-.27-.07,0-.12,0a7.15,7.15,0,0,0-.79-.23,4.44,4.44,0,0,0-.68-.16l-.57-.12c-.19,0-.37-.07-.57-.09-.38,0-.76-.08-1.14-.1a10.46,10.46,0,0,0-1.12,0,5.81,5.81,0,0,0-.83.07,4.2,4.2,0,0,0-.79.13,5,5,0,0,0-1,.26h0l-.07,0h0a.15.15,0,0,1-.07,0l0,0-.26.1-.48.2a120.2,120.2,0,0,1,4.87-35.13c.42-.36.8-.66,1.17-.93l.69-.47a4.6,4.6,0,0,1,.66-.38,3,3,0,0,1,.31-.15,3.79,3.79,0,0,1,.58-.22,1.12,1.12,0,0,1,.26-.08l.29-.06.2,0h.29a2.69,2.69,0,0,1,.57.06,2.35,2.35,0,0,1,.51.17l.13.07a.27.27,0,0,1,.12.06l.35.22c.12.1.25.19.37.31l.19.2a1.65,1.65,0,0,1,.22.24c.08.09.15.18.24.27s.25.35.39.53c.91,1.31,1.81,3.09,3,4.92l.44.64.43.61c.2.26.39.52.61.78A3.36,3.36,0,0,0,207.41,63.63Z" style="fill:#383838"/><path d="M195.05,56.47a120.2,120.2,0,0,0-4.87,35.13,5,5,0,0,0-.51.27.36.36,0,0,0-.15.08l-.22.13-.13.08-.08,0a3.4,3.4,0,0,0-.3.23l0,0,0,0-.23.2-.06.06-.1.09a3,3,0,0,0-.37.35c-.11.12-.23.23-.35.34l0,0,0,0-.38.32-.29.21-.35.23-.4.24c-.24.14-.5.28-.77.41a102.36,102.36,0,0,1,3.45-32.81h0l.38-.33.93-.81c.17-.17.36-.32.53-.48l1-.92,2.54-2.38Z" style="fill:#303030"/><path d="M210.35,96c-.53,7-.7,13.18-.86,17.84-.59.37-1.17.71-1.74,1l-.8.47a22.08,22.08,0,0,1-3,1.46,4.68,4.68,0,0,1-.48.18,6.59,6.59,0,0,1-.71.24c-.29-8.46-.17-16.28.29-23.5a11.93,11.93,0,0,1,1.2,1,5.26,5.26,0,0,0,3.87,1.49l.53,0a3.55,3.55,0,0,0,.55-.06,3.62,3.62,0,0,0,.46-.06C209.9,96.12,210.13,96.07,210.35,96Z" style="fill:#d9d1cc"/><path d="M214.76,66.2A190.48,190.48,0,0,0,210.35,96c-.22,0-.45.1-.67.13a3.62,3.62,0,0,1-.46.06,3.55,3.55,0,0,1-.55.06l-.53,0a5.26,5.26,0,0,1-3.87-1.49,11.93,11.93,0,0,0-1.2-1,174.64,174.64,0,0,1,4.34-30.12c.3.33.61.67.94,1,1.6,1.61,3,2.31,4.22,2.3l.32,0,.28,0h.06a2,2,0,0,0,.35-.1A4.17,4.17,0,0,0,214.76,66.2Z" style="fill:#303030"/><path d="M241.75,85.29a120,120,0,0,0-2.68,12.35q-.57,3.56-1.14,6.61c-.41-.13-.85-.28-1.3-.45a7.38,7.38,0,0,0-3.67-.66,1.35,1.35,0,0,0-.29,0,4.53,4.53,0,0,0-.84.24l-.26.1a11.56,11.56,0,0,0-1.48.81l-.46.29-1,.67a142.73,142.73,0,0,1,3.5-21.37l.66-.15.53-.1h.06l.64-.06.44,0h.13A19,19,0,0,1,240.7,85,5.37,5.37,0,0,0,241.75,85.29Z" style="fill:#d9d1cc"/><path d="M266.12,31.42c-.45.26-.91.5-1.37.72-.23.12-.45.21-.67.31a5.59,5.59,0,0,1-.63.26,6.19,6.19,0,0,1-.62.25l-.77.28-.38.12-.53.16c-.54.16-1.07.29-1.61.4a7.9,7.9,0,0,1-.79.16c-.24.06-.48.09-.71.13l-.16,0-1.06.15c-.39,0-.77.1-1.15.13h0A104.61,104.61,0,0,1,266,22.85a2,2,0,0,1-.07,1.27C264.88,27.25,261.22,30.4,266.12,31.42Z" style="fill:#303030"/><path d="M282,73.76a229.93,229.93,0,0,0-14.84,20c-.33,0-.66.08-1,.13a1.59,1.59,0,0,0-.3.06,6.6,6.6,0,0,0-.73.13c-.19,0-.39.08-.58.14s-.58.13-.87.21l-.59.18-.57.17c-.38.12-.77.25-1.17.4s-.91.35-1.37.55-.69.28-1,.44-.8.37-1.2.57l-.07,0c4.07-8.32,9.13-17.55,14.13-26.25a.58.58,0,0,1,.17-.06l.33-.11.23-.06a4.2,4.2,0,0,1,.59-.14l.15,0,.28,0,.28,0c.2,0,.4,0,.58,0a5.43,5.43,0,0,1,1.93.36,6.13,6.13,0,0,1,.86.41,0,0,0,0,1,0,0c.26.13.5.28.76.44a1,1,0,0,0,.13.09c.24.15.47.31.72.48l.57.39.56.37.63.4a3.37,3.37,0,0,0,.32.19,5.45,5.45,0,0,0,.53.29A5.52,5.52,0,0,0,282,73.76Z" style="fill:#d9d1cc"/><path d="M285.88,120.93c-3.18,5.67-5.81,10.16-8.19,10.5-4.37.66-4.84.44-1.44-8.83a.3.3,0,0,0,.08,0C278.72,121.06,281.73,121.05,285.88,120.93Z" style="fill:#d9d1cc"/><path d="M313.33,89.24a137.37,137.37,0,0,0-15.25,13.2c-4.89,5.16-8.84,12.48-12.2,18.49-4.15.12-7.16.13-9.55,1.63a.3.3,0,0,1-.08,0c.42-1.14.9-2.41,1.44-3.85,2.35-6.28,13.69-19.45,24.82-31.44l1.27,0c.41,0,.84.05,1.25.09l.82.07c.27,0,.53.06.8.09.48.05,1,.13,1.39.19l.13,0c.51.07,1,.17,1.43.26l.66.15c.22,0,.43.1.62.15.36.09.7.2,1,.3a2.64,2.64,0,0,1,.45.15l.41.15.37.16Z" style="fill:#303030"/><path d="M323.73,121c-3.08,3.56-5.52,6.94-7.53,9.65-4,1.66-8.08,3.83-11.32,5-1.28.46-2.63.93-4,1.37-.5-2.61,1.31-7.63,7.51-16a54.65,54.65,0,0,1,5.28-6.12c7.16-1.85,6,.7,8.59,4.76A3.9,3.9,0,0,0,323.73,121Z" style="fill:#d9d1cc"/><path d="M365,120.86c-4.36,7.13-5.2,7-19.83,10.67-3.61.92-6.2,1.67-8.11,2.18C344.81,129,355.78,124.39,365,120.86Z" style="fill:#d9d1cc"/><path d="M510.47,149.82c-4.68,4-8.15,7.19-9.8,8.9a51,51,0,0,1-9.79,8.14h0a22.55,22.55,0,0,0-4.31,1c-.36-.62.08-2,1.61-4.41s7.42-8.09,15.52-15c1.28.33,2.71.71,4.18,1l.78.14,1.05.15.74.08Z" style="fill:#303030"/><path d="M486.55,167.88a22.55,22.55,0,0,1,4.31-1C488.62,168.19,487,168.63,486.55,167.88Z" style="fill:#d9d1cc"/><path d="M566.74,111.07A194.25,194.25,0,0,0,542,125.69l-2.25,0H539c-.76,0-1.54,0-2.3,0-.41,0-.83,0-1.24,0l-1-.05c-.11,0-.22,0-.33,0-.41,0-.81-.07-1.19-.13,8.39-6.06,17-11.81,24.76-16.35a5.34,5.34,0,0,1,.35.66C559,111.93,563.66,111.24,566.74,111.07Z" style="fill:#303030"/><path d="M542,125.69a386.06,386.06,0,0,0-31.52,24.13h0l-.74-.08-1.05-.15-.78-.14c-1.47-.28-2.9-.66-4.18-1,8.13-7,18.54-15.22,29.25-23h0c.38.06.78.1,1.19.13.11,0,.22,0,.33,0l1,.05c.41,0,.83,0,1.24,0,.76,0,1.54,0,2.3,0h.78Z" style="fill:#d9d1cc"/><path d="M541.31,143c-9.15,6.86-16.91,13.75-20.52,16.55-3.1,2.4-6.77,6.37-10.39,10.34a.86.86,0,0,1-.21-.28c-1.17-2.14-7.33.18-11.45.18a159.59,159.59,0,0,1,21.64-20.64h.08c.4,0,.81,0,1.26,0a16.23,16.23,0,0,0,2,0l.9-.06a23.84,23.84,0,0,0,9.81-3.42c.32-.18.63-.36.94-.52.13-.08.27-.14.4-.21s.45-.24.68-.35a19.55,19.55,0,0,1,3.45-1.31c.2-.06.39-.1.58-.14a1.29,1.29,0,0,1,.19,0C540.87,143.05,541.09,143,541.31,143Z" style="fill:#303030"/><path d="M510.4,169.88c-6.22,6.85-12.21,13.65-14.59,12.37-3.78-2,0-8.84,0-8.84q1.4-1.83,2.93-3.63c4.12,0,10.28-2.32,11.45-.18A.86.86,0,0,0,510.4,169.88Z" style="fill:#d9d1cc"/><path d="M590.68,105.49s-6,2.86-15.21,7.84l-.24,0a3.47,3.47,0,0,1-.45-.06l-1.12-.18L573,113l-.49-.08-.46-.09-.32-.07-.37-.07-.34-.09-.6-.16a4.55,4.55,0,0,1-.47-.19.69.69,0,0,1-.17-.1c-.22-.13-.34-.27-.34-.42,0-.64-1.15-.7-2.73-.61a79.8,79.8,0,0,1,11.3-4.46C582.88,105.2,587.2,104.71,590.68,105.49Z" style="fill:#e8e1db"/><path d="M575.47,113.33l-.32.18.08-.21h0Z" style="fill:#d9d1cc"/><path d="M553.78,148.72c-.29.81-.54,1.62-.75,2.37l-.06.19-1.8,5.52h0a2.17,2.17,0,0,1-1.28,1.1c-1.19.32-.79,1.46,0,2.75h0a44,44,0,0,0-9.82,3h0a3.39,3.39,0,0,1-1.35-.91c-3.26-3.8-14.68,8.16-16,5.17a1,1,0,0,0-.19-.29c1.25-1,2.56-2.09,3.92-3.24,9.24-7.86,19.84-12.87,26.86-15.69h0Z" style="fill:#303030"/><path d="M540.09,163.71c-11.15,4.84-20.12,13.36-27.73,18.69-11.42,8-14.14,5.61-12,2,2-3.29,9.36-6.45,22.11-16.69a1,1,0,0,1,.19.29c1.36,3,12.78-9,16-5.17A3.39,3.39,0,0,0,540.09,163.71Z" style="fill:#d9d1cc"/><path d="M553,151.09c.21-.75.46-1.56.75-2.37l-.47,0,.54-.22h0Z" style="fill:#e8e1db"/><path d="M556.61,183.05h0l0-.15Z" style="fill:#d9d1cc"/><path d="M558.86,200.93c-8.49-.44-20.05-.64-28.82.76l-6.33,1h0c-13.81-1.32-22.57-2.12-16.42-4.2C514.91,195.94,539.7,198.45,558.86,200.93Z" style="fill:#303030"/><path d="M572.59,222.91c-11.74-1.54-25.2-2.75-36-3.22a5.17,5.17,0,0,0-4.42-.15,82.22,82.22,0,0,0-12.79.4c-12.92,2-35.12-1.66-16.63-4.59,14.24-2.25,48.89.49,64.08,1.86a25.72,25.72,0,0,0,4.27,4.6A15.58,15.58,0,0,0,572.59,222.91Z" style="fill:#d9d1cc"/><path d="M516.17,241.47c4.73-1.18,19.3-2.32,35.51-2.71-1.21.55-2.63,1.09-4.1,1.6l-1.28.43-.15.06-1.64.52-.13,0-1.26.39c-1.43.46-2.77.86-3.84,1.22-4.89,1.63-14.14-3-17,1.91-1,1.81-2.17,4.44-3.75,7-10.25-3.08-18.76-6-24.66-8.09-2.1-.76-4.41-1.55-6.95-2.37a104.73,104.73,0,0,0,4.93-11.37c3.14-3,5.68-5.15,12.63-4.21,10.06,1.36,18.22-3,21.48-2.45,2.18.36,3.62-2.75,6.21-3.9a5.17,5.17,0,0,1,4.42.15l.52.25c6.25,3.23,15,0,20.43,1.87,3.15,1.11,10.83,2.59,18.48,3.14,5.39,3,12.21,6,13.58,9.87-18.79-1.65-66.74-5.26-77.61-.45C498.4,240.39,506,244,516.17,241.47Z" style="fill:#414142"/><path d="M572.59,222.91a15.58,15.58,0,0,1-1.49-1.1,25.72,25.72,0,0,1-4.27-4.6Z" style="fill:#e8e1db"/><path d="M591.46,239.82c-11.1-1.19-26-1.4-39.76-1.06a8.21,8.21,0,0,0,3.47-2.35,1.15,1.15,0,0,0,.08-.15,1.54,1.54,0,0,0,.08-.19c.81-2.6,11.42-2,17.67.43,4.41,1.71,12.45.2,16.82-.84a3.43,3.43,0,0,1,0,.56A5,5,0,0,0,591.46,239.82Z" style="fill:#e8e1db"/><path d="M589.82,235.66c-4.37,1-12.41,2.55-16.82.84-6.25-2.45-16.86-3-17.67-.43a1.54,1.54,0,0,1-.08.19c0,.05,0,.09-.08.15a8.21,8.21,0,0,1-3.47,2.35h0c-16.21.39-30.78,1.53-35.51,2.71C506,244,498.4,240.39,512,234.37c10.87-4.81,58.82-1.2,77.61.45l0,.13A3.5,3.5,0,0,1,589.82,235.66Z" style="fill:#303030"/><path d="M560.7,246.39l-.22.25a1.53,1.53,0,0,0-.16.22,2,2,0,0,0-.16.24,4.16,4.16,0,0,0-.28.51c-.1.18-.18.37-.27.57a4.84,4.84,0,0,0-.22.61,3.82,3.82,0,0,0-.13.36c-.07.18-.14.38-.2.57s-.09.28-.14.43c-.17.49-.34,1-.55,1.55-.09.27-.2.56-.32.84a2,2,0,0,0-.12.34,1.27,1.27,0,0,0-.06.18s0,0,0,.06a1.09,1.09,0,0,0-.05.17c0,.09,0,.18-.07.28s0,.09,0,.13c-7.05-.48-12.1-1.15-13.57-1.77-5.74-2.43-6.59-7.73,7-6.1C553.39,246.1,556.7,246.27,560.7,246.39Z" style="fill:#d9d1cc"/><path d="M617,247.07l-.37.24c-.47.31-1,.6-1.43.86l-.49.25q-.55.27-1.11.48a7.59,7.59,0,0,1-.78.22,2.64,2.64,0,0,1-.53.11h0a2.9,2.9,0,0,1-.58.05c-4.08,0-12.24-2.18-15.23,3.26a6.71,6.71,0,0,1-.58.88l0,.08-.26.31s0,0-.06.06a311.76,311.76,0,0,1-37.72-.17s0-.08,0-.13,0-.19.07-.28a1.09,1.09,0,0,1,.05-.17s0-.05,0-.06a1.27,1.27,0,0,1,.06-.18,2,2,0,0,1,.12-.34c.12-.28.23-.57.32-.84.21-.55.38-1.06.55-1.55.05-.15.1-.29.14-.43s.13-.39.2-.57a3.82,3.82,0,0,1,.13-.36,4.84,4.84,0,0,1,.22-.61c.09-.2.17-.39.27-.57a4.16,4.16,0,0,1,.28-.51,2,2,0,0,1,.16-.24,1.53,1.53,0,0,1,.16-.22l.22-.25h0c14.58.42,38.09,0,50.24-.36h0l0,0C613,246.31,615,246.65,617,247.07Z" style="fill:#303030"/><path d="M625,249.22c-7.7,2.57-18.43,4-29.56,4.65,0,0,0,0,.06-.06l.26-.31,0-.08a6.71,6.71,0,0,0,.58-.88c3-5.44,11.15-3.26,15.23-3.26a2.9,2.9,0,0,0,.58-.05h0a2.64,2.64,0,0,0,.53-.11,7.59,7.59,0,0,0,.78-.22q.56-.21,1.11-.48a4.52,4.52,0,0,0,.49-.25c.48-.26,1-.55,1.43-.86l.37-.24A69.12,69.12,0,0,1,625,249.22Z" style="fill:#d9d1cc"/><path d="M611.79,257.06h0l0,.05c-.09.12-.18.24-.26.37a4,4,0,0,0-.27.44c-.05.08-.09.16-.14.23l-.1.24c-.07.13-.13.27-.19.41a.23.23,0,0,0,0,0,5.37,5.37,0,0,0-.28,1,5.69,5.69,0,0,0-.12,1.18c0,.17,0,.33,0,.51v0l0,.29h0c0,.22.08.44.13.66s.07.28.11.42,0,.05,0,.08a4.13,4.13,0,0,0,.17.45,3.42,3.42,0,0,0,.17.4c-9.54.56-18,.61-22.17.19a39.58,39.58,0,0,1-4-.6c.21-.94.42-1.86.66-2.75.06-.21.11-.41.18-.59a8.37,8.37,0,0,1,.34-.83.64.64,0,0,0,.08-.14,4.17,4.17,0,0,1,.26-.46c.28,0,.58,0,.87.06C593,259.09,602.31,258.26,611.79,257.06Z" style="fill:#d9d1cc"/><path d="M586.37,258.68a4.17,4.17,0,0,0-.26.46.64.64,0,0,1-.08.14,6.5,6.5,0,0,0-.34.83c-.07.18-.12.38-.18.59-.24.89-.45,1.81-.66,2.75C576.38,261.74,573.7,258.08,586.37,258.68Z" style="fill:#303030"/><path d="M301.35,291.39a2.88,2.88,0,0,1,0,.32.1.1,0,0,1,0,0,.83.83,0,0,1-.06.25.54.54,0,0,1-.09.17.65.65,0,0,1-.19.18h0l-.18.08a1.07,1.07,0,0,1-.25,0l-.25,0a1.74,1.74,0,0,1-.29-.07,3,3,0,0,1-.42-.14l-.28-.12c-.2-.09-.42-.2-.63-.32a1.79,1.79,0,0,1-.33-.18h0c-.45-.25-.91-.55-1.43-.89l-.51-.36,0,0-.66-.48c-.24-.17-.49-.35-.74-.55-.75-.55-1.54-1.15-2.33-1.76-2.14-1.64-4.38-3.39-6.4-4.75,5.51,1.39,9.9,2.51,13.45,3.45.21.39.43.8.64,1.25.09.18.17.37.25.55a5.83,5.83,0,0,1,.23.58c.1.26.18.52.26.79s.07.29.11.44.08.4.12.61.06.45.08.69A2.09,2.09,0,0,1,301.35,291.39Z" style="fill:#212121"/><path d="M323,287.24c-4.68-2.07-11.44-5.05-18.51-8.12l.16-.12h0a.6.6,0,0,1,.16-.08.52.52,0,0,1,.21-.07l.21,0a1.36,1.36,0,0,0,.61-.18l.17-.11a3.52,3.52,0,0,0,1.07-1.46c0-.1.07-.2.1-.3a3.92,3.92,0,0,0,.23-1c0-.11,0-.23,0-.35,4.82,2,9.22,3.64,12.84,4.83C321.43,283,322.34,285.28,323,287.24Z" style="fill:#e8e1db"/><path d="M180,272.24c-2.5.25-5.09.56-7.69.75l-1.32.08c-.46,0-.91.06-1.37.07h-.22l-1.41,0a30,30,0,0,1-5.83-.51c-7.74-1.54-7.22-1-9.69-1.15l-.36,0-.82-.08-.37,0-.79-.09h0a111.37,111.37,0,0,1-10.58-4.07,9.84,9.84,0,0,1-1-1.89,5.42,5.42,0,0,1-.22-.56c-.34-.84-.68-1.8-1.07-2.9-.13-.37-.27-.75-.43-1.15-.48-1.35-1.07-2.89-1.86-4.63-.19-.43-.38-.83-.57-1.22a143.63,143.63,0,0,0,16.17,6.44c2,1.9,6,2.85,10.23,3q5.56,1.47,11.7,2.63S177.35,268.83,180,272.24Z" style="fill:#2b2b2b"/><path d="M150.07,271.27h0c-.77-.1-1.7-.24-2.87-.42-.64-.11-1.23-.22-1.77-.34l-.62-.14a12.9,12.9,0,0,1-2.44-.81l-.44-.23a2.82,2.82,0,0,1-.38-.21,3.4,3.4,0,0,1-.59-.4,2.42,2.42,0,0,1-.31-.25,2.21,2.21,0,0,1-.28-.26,1.53,1.53,0,0,1-.18-.18.87.87,0,0,1-.13-.15,5.89,5.89,0,0,1-.53-.68A111.37,111.37,0,0,0,150.07,271.27Z" style="fill:#212121"/><path d="M70.09,182.26a3.44,3.44,0,1,1,3.44,3.43A3.44,3.44,0,0,1,70.09,182.26Z" style="fill:#e8e1db"/></g></g></svg>