<svg xmlns="http://www.w3.org/2000/svg" viewBox="0 0 304.91 129.24"><title>bala-shark</title><g id="Layer_2" data-name="Layer 2"><g id="Ñëîé_2" data-name="Ñëîé 2"><path d="M57.7,66.52h0Z" style="fill:#97876f"/><path d="M231.6,57.15h0c-6.05,1.23-10,.91-16.79-.7,0,0-24.16-5.65-45.74-11.18-4.65-1.19-9.18-2.38-13.32-3.5-5.08-1.37-9.59-2.65-13-3.73a98.55,98.55,0,0,0-19.4-3.91,120,120,0,0,0-12.08-.63,136.18,136.18,0,0,0-45.59,8c-4.95,1.76-10,3.62-15,5.54l-.07,0-.07,0c-8.54,3.28-16.9,6.7-24.28,10C12.05,63.4,1.46,69.3.17,72.76-1.19,76.39,6,81,14.14,84.82c3.2,1.49,6.53,2.85,9.57,4,11.5,2.74,26.07,4.44,31.83-2.37,5.93-7,3.69-15.05,2.17-19.9h0c-1.08-3.42-1.8-5.24,1-4a16.4,16.4,0,0,1,8.49,9.82c8.6,2.82,41.69,3.79,75.42-5.08S233,70.55,233,70.55c.78-1.89,1.88-3.94,2.92-6.41C238.41,58.15,231.88,57.19,231.6,57.15ZM34.8,82.92l-.23,0A8.08,8.08,0,0,1,33,83.1,7.94,7.94,0,0,1,31.45,83l-.23,0a10.26,10.26,0,1,1,3.58,0Zm193.81-17.4c-4.87,1.19-32.75-6.9-69.05-14.2s-43.79-3.75-65.3,2.37-35.9,5.12-38.07-1S71.78,41.77,71.78,41.77c41.23-12.44,56.48-3.87,71.87,0s62.73,16.39,74.83,17.7,11.18-1.31,13.11-.13S233.47,64.34,228.61,65.52Z" style="fill:#acb6ab"/><path d="M34.57,83A8.08,8.08,0,0,1,33,83.1,7.94,7.94,0,0,1,31.45,83a10.2,10.2,0,0,0,3.12,0Z" style="fill:#c6c296"/><path d="M67.37,83.14a15.33,15.33,0,0,1-6.53,8.39,29.2,29.2,0,0,1-8.2,3.78c-4.34,0-12.43-1.38-21.9-4.14-1.89-.55-4.34-1.37-7-2.37,11.5,2.74,26.07,4.44,31.83-2.37,5.93-7,3.69-15.05,2.17-19.9h0c-1.08-3.42-1.8-5.24,1-4a16.4,16.4,0,0,1,8.49,9.82A18.58,18.58,0,0,1,67.37,83.14Z" style="fill:#919a90"/><path d="M233.36,87.61a33.12,33.12,0,0,0-10.28-4.14c-3.42-.56-8.49.17-13.62,1.35-4,.9-8,2.07-11.26,3.12-4.49,1.43-7.67,2.64-7.67,2.64q-7.09,2-13.82,3.52c-11,2.58-21.24,4.44-30.71,5.75-4.08.57-8,1-11.8,1.39-6.75.66-13,1-18.83,1.19-29.38.79-46.45-3.92-49.51-4.75C60.73,96.3,57,95.31,52.64,95.31a28.87,28.87,0,0,0,8.2-3.78c4.27-2.36,11.33-3.52,24.94-2.14s68.85,3,96.07-8.87c26.93-11.71,51.65.61,52.18.87h0C235.51,84.52,235.91,86.19,233.36,87.61Z" style="fill:#818880"/><path d="M260.17,76.77c.59,3,7.69,6.9,14.2,12.42s13.22,18.15,16,19.73.2,4.54,2.17,4.93,3,4.74,3.35,6.12,5.33,9.67,0,8.09c-2.32-.69-7.56-3.32-13.65-6.8.08-2.28-2.23-3.11-1.93-3.26s1.18-.6-.4-3.46S274.17,99.45,270,98.27s-2.56-5.92-4.73-7.1-.4-3.36-3.75-3.56-8.68-6.5-6.51-7.49-3.36-4.34-1.58-4.73-2-4.15,2.76-5.53.59-2.76,4.93-4.14,8.09-4.73,11.64-8.57S284.23,45.2,287.43,43s-2.41-2.36,0-3.74,1.74-3,2.53-5.53-2.53-2.51-2.53-2.51c3.27-1.72,6.15-3.18,8.44-4.2,12.43-5.52,8.88,1.78,7.5,4.34s-7.69,8.49-7.69,10.46-4.54,2.56-4.54,3.75-3.55,2-3.95,4.34-13,16-19.72,18.34S259.58,73.81,260.17,76.77Z" style="fill:#2b2b2b"/><path d="M290,33.76c-.79,2.57-.12,4.14-2.53,5.53s3.2,1.57,0,3.74-11.09,10.29-14.64,14.12-7.3,7.19-11.64,8.57-.19,2.76-4.93,4.14-1,5.13-2.76,5.53,3.75,3.74,1.58,4.73,3.15,7.28,6.51,7.49,1.58,2.37,3.75,3.56.59,5.92,4.73,7.1,8.29,13.41,9.86,16.27.79,3.26.4,3.46,2,1,1.93,3.26c-6.44-3.67-13.82-8.27-19.71-12.5-4.75-6.29-10.43-10.69-13.78-13.45s-8.09-8.48-8.09-10.49-.59-6.28-3-8.17-1.78-3,0-5.41-.4-5.91,6.51-10.06S269,41.44,269.59,41h0c6.31-3.44,12.56-6.91,17.83-9.69C287.43,31.25,290.74,31.2,290,33.76Z" style="fill:#d3cc8c"/><path d="M262.51,108.76c-1.32-1-2.58-1.9-3.72-2.8-7.62-6-17.1-13.65-25.43-18.35,2.55-1.42,2.15-3.09.68-6.21h0c-.37-.79-.81-1.66-1.28-2.66-1.41-2.94-.93-5.39.24-8.18.78-1.89,1.88-3.94,2.92-6.41,2.5-6-4-7-4.31-7,2.62-.53,5.62-1.35,9.43-2.48,6.53-1.93,17.63-7.77,28.56-13.72-.56.49-18.61,16.15-25.4,20.23s-4.73,7.7-6.51,10.06-2.37,3.51,0,5.41,3,6.15,3,8.17,4.73,7.73,8.09,10.49S257.76,102.47,262.51,108.76Z" style="fill:#2b2b2b"/><path d="M175.93,8.71c-3.94,6.7-1.57,8.87-4.14,9.86S173,21.14,170,22.91s-1.78,3.35-4.74,7.3-2.76,6.51-.59,9.07,4.4,3.49,4.37,6c-4.65-1.19-9.18-2.38-13.32-3.5,0,0-.78-2.29-2.63-2.55s-3.94-1.58-.65-1.84.26-1.84-2-2-2-1,.39-2.1,2.11-1.18-1-1.18-.79-1.18,2.63-3,2.76-2.37-.66-1.44-2.76-.4,2.1-2.62,5.8-5.41.27-3.3-6.31,3.15-1.71-.14,8-6.83,3.81-4.73-7.76,2.89-3.16-.66,9.61-6.7,3.16-4.34-7.36,3.55-2.76.14,10.13-7.37,1.58-3.55c-7.71,3.44-27.87,22.05-31.76,25.68a120,120,0,0,0-12.08-.63C115.9,30.29,150.41,6.59,165.48,2,181.66-2.93,179.88,2,175.93,8.71Z" style="fill:#2b2b2b"/><path d="M146.47,126.21c-11.07-6.9-31.1-23.78-31.1-23.78,5.8-.16,12.08-.53,18.83-1.19,0,0,4.45,5.31,3.13,5.31s2.11,3,.79,2.9,1.8,2.89.31,2.63,1.27,3.81.42,3.55S140.29,121.3,146.47,126.21Z" style="fill:#d3cc8c"/><path d="M150.09,128.25a34.42,34.42,0,0,1-3.57-2l-.05,0c-6.18-4.91-8.48-10.84-7.62-10.58s-1.91-3.81-.42-3.55-1.62-2.76-.31-2.63-2.1-2.9-.79-2.9-3.13-5.31-3.13-5.31c3.79-.37,7.72-.82,11.8-1.39,9.72.19,7.44,6.51,8.43,6.9s-.2,2.57,1,4.54.19,2,.59,5.52S159.56,132.79,150.09,128.25Z" style="fill:#2b2b2b"/><path d="M207.39,119.44c-.07,2.9-1.57,4.65-5.22,1.91-5.52-4.14-25.46-27.25-25.46-27.25q6.73-1.57,13.82-3.52s3.18-1.21,7.67-2.64c1.42,1.63,1,2.7-1.29,2.3s-2.63.79-1.31,2,2.49,2.89,1.05,2.76-5.66-1.31-4.22,0,4.35,4.61,1.85,3.42-2,1.45-.66,2.63,2.1,3.42.66,2.74-2.63-.63-1.19.68,2.77,3.94,2,4.31-6.31-4.57,1.58,4.11C204.28,121.26,207.21,119.57,207.39,119.44Z" style="fill:#d3cc8c"/><path d="M206.51,114.54a13.57,13.57,0,0,1,.88,4.9c-.18.13-3.11,1.82-10.74-6.57-7.89-8.68-2.37-3.76-1.58-4.11s-.55-3-2-4.31-.26-1.37,1.19-.68.65-1.56-.66-2.74-1.84-3.81.66-2.63-.4-2.1-1.85-3.42,2.77-.13,4.22,0,.26-1.58-1.05-2.76-.93-2.37,1.31-2,2.71-.67,1.29-2.3c3.3-1,7.3-2.22,11.26-3.12,0,2.52-1.17,7.53-3.54,8.12s-.2,8.09-1.58,8.09,1.38,4,.39,4.14S204.73,109.71,206.51,114.54Z" style="fill:#2b2b2b"/><path d="M234,81.39c-.52-.26-25.25-12.59-52.18-.88-27.22,11.84-82.46,10.26-96.07,8.88s-20.67-.22-24.94,2.14a15.33,15.33,0,0,0,6.53-8.39,18.58,18.58,0,0,0-.19-10.76c8.6,2.82,41.69,3.79,75.42-5.08S233,70.55,233,70.55c-1.17,2.79-1.65,5.24-.24,8.18C233.22,79.73,233.66,80.6,234,81.39Z" style="fill:#98a497"/><path d="M153.11,16.2c-4.6,3.55-1.05,2.77,3.16.66s.79,1.45-3.81,4.73-3.81,2.24,1.71.14,4.6,1.09-.27,3.3-5.52,3.54-2.1,2.62,4.08-.4.66,1.44-5.78,3-2.63,3,3.42.13,1,1.18-2.63,2-.39,2.1,5.25,1.71,2,2-1.18,1.57.65,1.84,2.63,2.55,2.63,2.55c-5.08-1.37-9.59-2.65-13-3.73a98.55,98.55,0,0,0-19.4-3.91c3.89-3.63,24-22.24,31.76-25.68,8.55-3.82,3,.12-1.58,3.55s-3.68,2.23,2.76-.14S157.72,12.65,153.11,16.2Z" style="fill:#d3cc8c"/><path d="M57.71,66.52h0Z" style="fill:#c6c296"/><path d="M228.61,65.52c-4.87,1.19-32.75-6.9-69.05-14.2s-43.79-3.75-65.3,2.37-35.9,5.12-38.07-1S71.78,41.77,71.78,41.77c41.23-12.44,56.48-3.87,71.87,0s62.73,16.39,74.83,17.7,11.18-1.31,13.11-.13S233.47,64.34,228.61,65.52Z" style="fill:#b9c0b8"/><path d="M34.57,83A8.08,8.08,0,0,1,33,83.1,7.94,7.94,0,0,1,31.45,83a10.2,10.2,0,0,0,3.12,0Z" style="fill:#c6c296"/><path d="M43.27,72.82a10.25,10.25,0,0,1-8.47,10.1,8.73,8.73,0,1,0-3.58,0,10.26,10.26,0,1,1,12.05-10.1Z" style="fill:#887862"/><path d="M33,65.64a8.73,8.73,0,0,0-1.79,17.28l.23,0a10.2,10.2,0,0,0,3.12,0l.23,0A8.73,8.73,0,0,0,33,65.64ZM33,79a4.61,4.61,0,1,1,4.61-4.61A4.61,4.61,0,0,1,33,79Z" style="fill:#e9e2dc"/><path d="M37.61,74.37a4.6,4.6,0,1,1-4.6-4.6A4.61,4.61,0,0,1,37.61,74.37Z" style="fill:#2b2b2b"/><path d="M163.52,5.1a3,3,0,0,0-1.12,3.83c1,2.17,2.31,8.38.47,12.23s3.58,5.23,6.19-2,4-12,5.57-14a1.75,1.75,0,0,0-.12-2.45c-1.3-1.13-3.6-.58-5-.16S165.2,3.77,163.52,5.1Z" style="fill:#414142"/><path d="M282.15,41.77s-5.4-3.78-10,.7S260.31,54.56,254.66,59s-3.68,7.23,1.05,5.65,9.35-5.65,13.88-11,7.2-6,9.42-7.62S283.33,43.18,282.15,41.77Z" style="fill:#e1d89b"/><path d="M258.6,99.85s2.41,2.85,4.5,5.48,6.68,5.54,9.31,3.43-5.78-7.64-8-11.06-5.26-9.39-10.65-9.76S254.11,94.37,258.6,99.85Z" style="fill:#e1d89b"/><path d="M152.83,114.54s-.29-8.85-3.94-10-6.87.19-5,5.42c.88,2.4,1.89,4.76,2.69,7.19a18.6,18.6,0,0,1,.7,2.76c.27,1.78.27,3.37,1.58,4.75.79.85,2.37,2,3.63,1.66s1.39-2.28,1.41-3.39A39.44,39.44,0,0,0,152.83,114.54Z" style="fill:#414142"/><path d="M78.5,43c-1.91.75-3.79,1.55-5.65,2.37a29.86,29.86,0,0,0-5.39,2.92c-1.07.76-2.62,1.94-2.58,3.42C65,55.75,77.38,54,83,50.46s4.87-5,17.1-6.94,7-5.92-2.63-5.26A64.57,64.57,0,0,0,78.5,43Z" style="fill:#c9cbc9"/><path d="M89,89.48c1.77,1.38,1.35,2.85-1.07,1.72s-4.2-3-2-.47.46,1.78-1.71.13-2.7-.66,0,1.91.85,1.84-.46.85c-1-.76-1.54-.36-1.07.79-3.38-3-7-7-6.82-9.59.26-4,3.42-3.3,3.42-3.3C90.07,84.74,95.46,87.85,98,90.41a55.72,55.72,0,0,1-8.38-2.57c-3.22-1.45.85,1.12,2.56,2.1S87.24,88.1,89,89.48Z" style="fill:#d3cc8c"/><path d="M98.55,96.52c-1.44,0-2.37,1.58-3.68,1.32s-1.45,1.31-2.76.65-1.71.66-4.61-.65A20.38,20.38,0,0,1,84,95.45l-1.24-1c-.47-1.15.06-1.55,1.07-.79,1.31,1,3.16,1.71.46-.85s-2.17-3.55,0-1.91,4,2.44,1.71-.13-.46-.66,2,.47,2.84-.34,1.07-1.72,4.87,1.45,3.15.46-5.78-3.55-2.56-2.1A55.72,55.72,0,0,0,98,90.41l.23.24C101.46,94.14,99.38,96.52,98.55,96.52Z" style="fill:#e1d89b"/><path d="M34,71.07a2.57,2.57,0,1,1,2.56,2.56A2.57,2.57,0,0,1,34,71.07Z" style="fill:#e9e2dc"/><path d="M26.25,57.05c0,1.19-.43,2.75-2.54,4.16-4.13,2.76-10.45,6.51-9.85,9.86s1.3,5.94,0,6.72c-1.09.63-1.56,3.44.32,7C6,81-1.19,76.39.17,72.76,1.46,69.3,12.05,63.4,26.25,57.05Z" style="fill:#818880"/></g></g></svg>