<svg xmlns="http://www.w3.org/2000/svg" viewBox="0 0 272.48 177.4"><title>banded-butterflyfish</title><g id="Layer_2" data-name="Layer 2"><g id="Ñëîé_2" data-name="Ñëîé 2"><path d="M51.22,59.84c-1,3.57-3.49,10-4.48,10.25s-1.37,4.1-1.74,6.59c-.3,2-.13,4.54-1.26,6a12.6,12.6,0,0,0-5.37,22.19c-.09,2.17,3,8.91,2.89,11.15-.12,2.48.5,2.48-.49,4.47-.87,1.74,1.49,4,1.43,6.81-2.31.45-4.75.86-7.35,1.24-.7-.53-1.38-1.05-2.05-1.58,0,0-10.45-3.89-14.43-8.54s-9.29-8.13-13.93-10.78S-.3,101.07.2,100.69s5,2.86,6.73,2.12c.72-.31-6.47-3.49-6.72-5-.09-.55,2.22-1.44,5.43-2.77,2,.69,4.6,1.87,5.76,3.6,2,3,3.82,1.16,6.47,0s7.8-1.52,6.81-4.32,2.81-5.8,3.15-4.64,4.14-2.48,8.62-6.47,8.46-.84,7.3-5-2.82-5-1.16-6.46,4.31-7,5.31-9A7.36,7.36,0,0,1,51.22,59.84Z" style="fill:#e6dfd9"/><path d="M70.72,31.46c-2.31,7.21-8.26,14.39-10,14.61-2,.25-3,6-4.72,6s-3.74,4.23-4.73,7.79a7.36,7.36,0,0,0-3.32,3c-1,2-3.65,7.46-5.31,9s0,2.32,1.16,6.46-2.82,1-7.3,5-8.29,7.63-8.62,6.47-4.15,1.83-3.15,4.64-4.15,3.16-6.81,4.32-4.47,3-6.47,0c-1.16-1.73-3.77-2.91-5.76-3.6,5.51-2.27,13.66-5.82,17-11.16S46.35,52.28,70.72,31.46Z" style="fill:#e6d58b"/><path d="M272.23,83.9c-.54,1,1.45,28.61-8,42.8l-9.46,14.18c-.32.49-2.08-1.69-4.62-5.07,4.22-2,15.13-9.09,18.23-29.68,3.86-25.72,1.16-34.84,1.32-37.33.09-1.35-.76-3.43-1.62-5.29l.13,0c7-.74,2.74,1.49,3,7.47a58.12,58.12,0,0,0,1,9.45S272.79,82.9,272.23,83.9Z" style="fill:#333947"/><path d="M268.08,90.54c-1,2.53-.87,14.38-1.65,16.37s-4.95,12.45-5.94,14.44-2.12,5.1-3.36,5.47-.62,2.49-4,3.48a11,11,0,0,0-4.68,3.27l-1.41-1.9c20.93-11,20.11-47.58,18.82-52.91A110.22,110.22,0,0,1,264,64.51a23.87,23.87,0,0,1,2.4-.7c.48,1.18.15,2.79,1.15,4.91s1,5.6,1,7.09-.75,4.23-.5,5.47S269.07,88,268.08,90.54Z" style="fill:#e6dfd9"/><path d="M247.06,131.67c-2-2.7-4.31-5.71-6.64-8.55.26-1,1-1.19,2.24-1.07,1.82.17-.5-2.16,1.16-2.16s-.84-2.65,1.49-2.65,1-3.32,3.15-3.32.33-2.82,2.32-3-1.16-3.15,2.16-3.48-1.82-2.82.66-2.82-.83-4.15,1.68-4.31-1.84-2,.59-2.82-1.94-3.81.72-3.81-1.83-3.16-.72-3.15-1.77-3,0-3.49-.77-3.15,1-3.82-1.62-3.48,0-4-1.95-2.65,0-3.65-2.28-2.49,0-3.48-1.12-1.66.54-2.66-1.38-1.28-1.54-1.29A59.25,59.25,0,0,1,264,64.51a110.22,110.22,0,0,0,1.85,14.25C267.17,84.09,268,120.71,247.06,131.67Z" style="fill:#333947"/><path d="M256.88,72.12c-2.28,1,2,2.48,0,3.48s1.63,3.16,0,3.65,1.79,3.32,0,4,.77,3.32-1,3.82,1.11,3.5,0,3.49,3.37,3.15.72,3.15,1.72,3-.72,3.81,1.92,2.66-.59,2.82.81,4.31-1.68,4.31,2.66,2.49-.66,2.82-.17,3.32-2.16,3.48-.16,3-2.32,3-.83,3.32-3.15,3.32.16,2.65-1.49,2.65.66,2.33-1.16,2.16c-1.28-.12-2,.09-2.24,1.07-1.66-2-3.35-4-5-5.68.18-.35.6-.46,1.44-.53,1.8-.15,0-2.32,3.46-2.32s.36-3.82,1.85-3.82,0-2.65,2.32-2.82.5-2.49,2.47-2.65-.65-2.33,1.36-2.66-1.67-3.48.15-4.48-1.16-3.81.64-4.47-1.3-4,0-4.82-2-4,0-4.81-2.63-2.65-.64-3.81-2-3.16,0-5.15S247,73.5,247,73.5c3-2,6-3.78,8.92-5.33h0c.16,0,3.15.32,1.54,1.29S259.17,71.12,256.88,72.12Z" style="fill:#e6dfd9"/><path d="M249.1,93.69c-1.8.66,1.19,3.48-.64,4.47s1.87,4.15-.15,4.48.61,2.49-1.36,2.66-.15,2.48-2.47,2.65-.83,2.82-2.32,2.82,1.61,3.82-1.85,3.82-1.66,2.17-3.46,2.32c-.84.07-1.26.18-1.44.53l-.76-.78c1.68-1.58-2.13-3.69-4.4-5.39-2.48-1.87-.87-3.36,1.25-3.61s4.23,6,5.6,5.47,4-.37.74-1.86-6-6.6-4-6.84,3.86,4.6,5.6,4.85.13-1.5,1.39-2,3.09-.63,1-1.5-6.72-2.86-6.57-4.1.22-2,3.45-.25,6,1.74,6.6,0-4.11-3-7.09-3.28-2.86-5.06,2.09-3.19,5.37,1.62,5,0-4.85-1.24-7.72-2.12-1.36-3.6,2.72-3.6,4.75,2.11,5,1.29,3.73-3.62-2.84-3.16-6.62-1.24-4.38-2.36,7.84-4,7.22-5.35-.87-.38-5,2.42-5.05,0-5.05,0a18.69,18.69,0,0,0,2.33-1.68A106.71,106.71,0,0,1,247,73.5s3.5-.39,1.51,1.6,2,4,0,5.15,2.61,3,.64,3.81,1.3,4,0,4.81S250.9,93,249.1,93.69Z" style="fill:#f0ece9"/><path d="M238.22,98.16c3,.29,7.71,1.54,7.09,3.28s-3.36,1.74-6.6,0-3.29-1-3.45.25,4.45,3.23,6.57,4.1.29,1-1,1.5.35,2.24-1.39,2-3.61-5.1-5.6-4.85.75,5.35,4,6.84.63,1.37-.74,1.86-3.49-5.72-5.6-5.47-3.73,1.74-1.25,3.61c2.27,1.7,6.08,3.81,4.4,5.39a31.48,31.48,0,0,0-4.27-3.65c-6.14-4.2-10-5.25-13.07-5.27.38,0,.63-4.93,3-8.32s2.24-3,1.37-5.08S226.25,85,226.25,85a20.14,20.14,0,0,0,9-2.89s.92,2.8,5.05,0,4.38-3.79,5-2.42-5,4.23-7.22,5.35-2.19,2.82,4.38,2.36,3.09,2.33,2.84,3.16-.92-1.29-5-1.29-5.58,2.73-2.72,3.6,7.35.5,7.72,2.12-.05,1.87-5,0S235.23,97.87,238.22,98.16Z" style="fill:#e6d58b"/><path d="M231.41,136.31c-1.82,4.63-7.26,16-17.62,18.75-13.11,3.49-30.19,4.82-37.82,3.65s-14.11-.16-18.75-1-6-.2-9.3-2.67c18,1.48,51.51,2.38,60.31-10.19,10.82-15.45,15.37-17.78,21.46-15.68C230.36,131.92,230.93,134.27,231.41,136.31Z" style="fill:#333947"/><path d="M229.38,151.83c-4.72,3.48-7,5-7,5a31.94,31.94,0,0,1-3.74,2.49c-.74.25-6,1.25-7.21,1.5s-33.35,3.73-45.79,2.48-25.33-6.47-29.34-9.45c0,0,4.63.66,11.58,1.23,3.3,2.47,4.66,1.84,9.3,2.67s11.11-.17,18.75,1,24.71-.16,37.82-3.65c10.36-2.75,15.8-14.12,17.62-18.75C235,151.47,233.54,148.77,229.38,151.83Z" style="fill:#e6d58b"/><path d="M227.72,122.85c-4.16.37-12.5,1.81-15.26,7.33-3.73,7.46-8.46,16.67-17.17,18.41s6-7.3,8.72-20.07,5.52-18.42,11.45-19.28C218.89,110.49,224.12,113.81,227.72,122.85Z" style="fill:#333947"/><path d="M190,140.13c5,12.65-32.14-4.64-31.14-42.63.46-17.57,1.2-27.79,1.78-34.53,10.69,2.47,21.36,8.1,32.16,10a40.37,40.37,0,0,1-2.8,9.07C185.09,93.35,185,127.48,190,140.13Z" style="fill:#333947"/><path d="M126.61,66.48c-10.94,14.93-7,30.11-6,43.54s3.49,17.51,3.24,24.31,2.34,13,.47,18.23c-5.62-.6-12.37-1.35-18.25-2.09-1.57-1.52-1.38-6.85-1.63-8.27a160.08,160.08,0,0,0-4.23-17.33c-2.49-8-1-25.79-4.48-32.26-3.15-5.86-1.62-16.39-.93-25.85A50.25,50.25,0,0,0,109,64.94a115.37,115.37,0,0,1,20.51-3.38A26.57,26.57,0,0,1,126.61,66.48Z" style="fill:#333947"/><path d="M229.69,129.18c-6.09-2.1-10.64.23-21.46,15.68-8.8,12.57-42.32,11.67-60.31,10.19-6.95-.57-11.58-1.23-11.58-1.23s-5.17-.52-12-1.26c1.87-5.27-.72-11.43-.47-18.23s-2.24-10.87-3.24-24.31-5-28.61,6-43.54a26.57,26.57,0,0,0,2.85-4.92,137.65,137.65,0,0,1,25.61.45,49.88,49.88,0,0,1,5.59,1c-.58,6.74-1.32,17-1.78,34.53-1,38,36.17,55.28,31.14,42.63s-4.93-46.78,0-58.06a40.37,40.37,0,0,0,2.8-9.07,37.11,37.11,0,0,0,11.18.4,26.2,26.2,0,0,0,5.14-1.21,45.88,45.88,0,0,0,7.9-3.48c-1.15,6.89-2.66,12.91-3.46,14.07-1.37,2-1.24,5-2.36,8.58s1.24,7.09,1.24,9.83,4.48,6.55,4.85,6.55a24.77,24.77,0,0,0-4.6.54c-1.75.31-.14-.1,2.75,1-5.93.86-8.72,6.51-11.45,19.28s-17.43,21.82-8.72,20.07,13.44-11,17.17-18.41c2.76-5.52,11.1-7,15.26-7.33a46.8,46.8,0,0,1,1.91,6.09C229.65,129,229.67,129.1,229.69,129.18Z" style="fill:#e6dfd9"/><path d="M214.89,34.56a56.67,56.67,0,0,0-7.21-5.34c1.67-1.35,3.1-1.73,3.95-.73A23.18,23.18,0,0,1,214.89,34.56Z" style="fill:#333947"/><path d="M236.35,74.69c-5.73,4.82-8.51,8.15-13.2,8.84h0a11.92,11.92,0,0,1-1.23.12c-3.23.14-.41,1.67,4.33,1.33,0,0-5.45,7.23-4.58,9.36s1,1.69-1.37,5.08-2.61,8.31-3,8.32-4.85-3.81-4.85-6.55-2.36-6.22-1.24-9.83,1-6.59,2.36-8.58c.8-1.16,2.31-7.18,3.46-14.07h0c4.93-2.81,9-6.86,9.52-13,.53-5.81-3.28-13.85-11.67-21.16h0a23.18,23.18,0,0,0-3.26-6.07c-.85-1-2.28-.62-3.95.73-9.26-5.85-22-10.6-38.31-12.36A28.36,28.36,0,0,1,185.45,7h0c19.39,3.27,35.62,8.75,42.18,15.66C241.58,37.36,242.57,69.46,236.35,74.69Z" style="fill:#333947"/><path d="M130.1,172.23c1,3-.25,4-2.49,4.73s-6.47,0-6.47,0-3.48,1.74-10-1.74-33.84-22.15-36.83-25.13l-.86-.38a27.82,27.82,0,0,0,5.33.47s37.21,25.41,38.33,25.41-.75-1.86,1-1.12,4.48,2.24,4.36,1.12-10.58-7.09-14.56-8.83.25-.5,6.35,2-.62-2-7.22-5.66-8.09-4.79-1.62-2.43,5.48.75-2.61-3.61-8.12-5.22-2.88-3.73,9.13,2-4.44-4.21c5,1.27,18,4.46,21.63,4.46,4.48,0,3.48,1.49,4,3s3.48,1.74,3,2.73-4.73,1.5-4.73,1.5a63.43,63.43,0,0,0,6.72,1.74c1,0-.5.25,3,4S129.1,169.25,130.1,172.23Z" style="fill:#333947"/><path d="M53.08,117.86c-2.13,1.35-1.52,4.63-.66,7q-4.59,1.35-10.22,2.43c.06-2.76-2.3-5.07-1.43-6.81,1-2,.37-2,.49-4.47.11-2.24-3-9-2.89-11.15a12.6,12.6,0,0,0,12.22,2,2.39,2.39,0,0,0,.51,1.56C52.21,109.9,55.45,116.37,53.08,117.86Z" style="fill:#333947"/><path d="M53.36,132.13a11.81,11.81,0,0,1-3,6.18c-2.16-1.19-4.33-2.44-6.45-3.73A84.28,84.28,0,0,0,53.36,132.13Z" style="fill:#333947"/><path d="M75.77,118.73c-9.56,7.61-15.73,11.15-22.41,13.4a84.28,84.28,0,0,1-9.4,2.45l-1.59-1c-2.65-1.65-5.2-3.36-7.52-5.08,2.6-.38,5-.79,7.35-1.24q5.64-1.08,10.22-2.43c30.85-8.92,28.7-25.31,29-34.31.33-10.45,3-11.34,3-11.34S92,105.79,75.77,118.73Z" style="fill:#d6d1ce"/><path d="M122.51,175.59c.12,1.12-2.61-.37-4.36-1.12s.13,1.12-1,1.12-38.33-25.41-38.33-25.41a88.44,88.44,0,0,0,14.89-1.54l1.8.47h0c13.57,6.18,9.55,5.66,4.44,4.21s-5.21-.62,2.88,3.73,9.08,6,2.61,3.61-5-1.24,1.62,2.43,13.31,8.15,7.22,5.66S104,165,108,166.76,122.38,174.47,122.51,175.59Z" style="fill:#f0ece9"/><path d="M106.1,150.47c-4.47-.56-8.45-1.11-11-1.58-.5-.08-1-.17-1.34-.25a88.44,88.44,0,0,1-14.89,1.54,27.82,27.82,0,0,1-5.33-.47c-2.91-1.27-12.84-5.71-23.09-11.4a11.81,11.81,0,0,0,3-6.18c6.68-2.25,12.85-5.79,22.41-13.4C92,105.79,84.4,79.2,84.4,79.2s-2.66.89-3,11.34c-.29,9,1.86,25.39-29,34.31-.86-2.36-1.47-5.64.66-7,2.37-1.49-.87-8-2-9.45a2.39,2.39,0,0,1-.51-1.56,12.61,12.61,0,0,0,1.25-23.14,6.52,6.52,0,0,1,2.61-.06c1.37.12,10.21-11,10.21-17.67s6.46-12.44,8.84-19.91,4.59-5,5.33-10,7.53-16.73,7.53-16.73c1.88-1.29,3.78-2.51,5.67-3.66h0a100.56,100.56,0,0,1,9.37-5.09A155.64,155.64,0,0,0,95.84,27.8c-15.6,7.87-20.76,17.86-20.57,24.08.25,8,7.08,14.53,19.56,14.88-.69,9.46-2.22,20,.93,25.85,3.48,6.47,2,24.22,4.48,32.26a160.08,160.08,0,0,1,4.23,17.33C104.72,143.62,104.53,149,106.1,150.47Z" style="fill:#e6dfd9"/><path d="M86.36,19.39s-6.78,11.75-7.53,16.73-3,2.49-5.33,10S64.66,59.26,64.66,66,55.82,83.77,54.45,83.65a6.52,6.52,0,0,0-2.61.06,12.68,12.68,0,0,0-5.6-1.31,12.19,12.19,0,0,0-2.5.26c1.13-1.44,1-4,1.26-6,.37-2.49.74-6.35,1.74-6.59s3.48-6.68,4.48-10.25,3-7.79,4.73-7.79,2.73-5.73,4.72-6c1.79-.22,7.74-7.4,10-14.61A182.75,182.75,0,0,1,86.36,19.39Z" style="fill:#333947"/><path d="M268.37,106.13c-3.1,20.59-14,27.67-18.23,29.68-.53-.7-1.08-1.46-1.67-2.24a11,11,0,0,1,4.68-3.27c3.36-1,2.73-3.11,4-3.48s2.36-3.48,3.36-5.47,5.18-12.45,5.94-14.44.65-13.84,1.65-16.37.25-8,0-9.26.5-4,.5-5.47,0-5-1-7.09-.67-3.73-1.15-4.91a14.4,14.4,0,0,1,1.64-.3c.86,1.86,1.71,3.94,1.62,5.29C269.53,71.29,272.23,80.41,268.37,106.13Z" style="fill:#e6d58b"/><path d="M185.45,7a28.36,28.36,0,0,0-16.08,9.84,137.08,137.08,0,0,0-23.1-.48c-6.17.36-11.84.95-17.06,1.72,0-.22-.07-.44-.11-.64a14,14,0,0,1,5-13.52A246.63,246.63,0,0,1,185.45,7Z" style="fill:#e6dfd9"/><path d="M52.3,95a5.9,5.9,0,0,1-.43,2.23,6.06,6.06,0,0,1-10.35,1.57h0a6,6,0,0,1-.19-7.33h0a6.07,6.07,0,0,1,10.38,1A5.94,5.94,0,0,1,52.3,95Z" style="fill:#2b2b2b"/><path d="M43.74,82.66a2.64,2.64,0,0,1-1.23.86,2.49,2.49,0,0,0-1.63,3.3,9.79,9.79,0,0,0-1.07,15.57c-.43.43-.65,1.19-1.28,1.91a.79.79,0,0,0-.16.55,12.6,12.6,0,0,1,5.37-22.19Z" style="fill:#d1c07a"/><path d="M52.59,103.8a4.47,4.47,0,0,0-2,3,12.6,12.6,0,0,1-12.22-2,.79.79,0,0,1,.16-.55c.63-.72.85-1.48,1.28-1.91a9.78,9.78,0,0,0,13.5-.61A2.16,2.16,0,0,1,52.59,103.8Z" style="fill:#5c6677"/><path d="M58.85,95a12.62,12.62,0,0,1-8.26,11.84,4.47,4.47,0,0,1,2-3,2.16,2.16,0,0,0,.72-2,9.77,9.77,0,0,0,.37-13.14,16.5,16.5,0,0,0-1.84-3.13c-.73-1.06-.55-1.57,0-1.8A12.62,12.62,0,0,1,58.85,95Z" style="fill:#d1c07a"/><path d="M53.68,88.64a9.76,9.76,0,0,0-7.44-3.42,9.63,9.63,0,0,0-5.36,1.6,2.49,2.49,0,0,1,1.63-3.3,2.64,2.64,0,0,0,1.23-.86,12.19,12.19,0,0,1,2.5-.26,12.68,12.68,0,0,1,5.6,1.31c-.55.23-.73.74,0,1.8A16.5,16.5,0,0,1,53.68,88.64Z" style="fill:#5c6677"/><path d="M40.87,102.06a1.25,1.25,0,0,0-1.06.33,9.79,9.79,0,0,1,1.07-15.57,2.27,2.27,0,0,0,.51.93c.42.42.21,2-.06,3.71h0a6,6,0,0,0,.19,7.33h0C41.6,100,42.18,102.18,40.87,102.06Z" style="fill:#e6d58b"/><path d="M53.31,101.78a9.78,9.78,0,0,1-13.5.61,1.25,1.25,0,0,1,1.06-.33c1.31.12.73-2.06.65-3.25a6.06,6.06,0,0,0,10.35-1.57A18.1,18.1,0,0,1,53.31,101.78Z" style="fill:#444d5e"/><path d="M56,95a9.74,9.74,0,0,1-2.73,6.77,18.1,18.1,0,0,0-1.44-4.54,6,6,0,0,0-.16-4.83,13.42,13.42,0,0,1,1.75-1.87,1.71,1.71,0,0,0,.22-1.9A9.75,9.75,0,0,1,56,95Z" style="fill:#e6d58b"/><path d="M53.46,90.54a13.42,13.42,0,0,0-1.75,1.87,6.07,6.07,0,0,0-10.38-1c.27-1.71.48-3.29.06-3.71a2.27,2.27,0,0,1-.51-.93,9.63,9.63,0,0,1,5.36-1.6,9.76,9.76,0,0,1,7.44,3.42A1.71,1.71,0,0,1,53.46,90.54Z" style="fill:#444d5e"/><path d="M129.1,17.46c0,.2.07.42.11.64-14.4,2.12-25.29,5.62-33.37,9.7a155.64,155.64,0,0,1,5.57-17.17h0a58.32,58.32,0,0,1,16-5.11c5.26-.77,10.86-1.29,16.65-1.57A14,14,0,0,0,129.1,17.46Z" style="fill:#333947"/><path d="M134.06,3.94c-5.79.28-11.39.8-16.65,1.57a58.32,58.32,0,0,0-16,5.11A20.79,20.79,0,0,1,103.66,6c6.84-2.91,14.78-4,19.88-4.87.47-.08,1-.16,1.63-.23.62,1,2.91,1.06,5.34,1.06C135,2,134.06,3.94,134.06,3.94Z" style="fill:#444d5e"/><path d="M103.66,6a20.79,20.79,0,0,0-2.24,4.63h0A100.56,100.56,0,0,0,92,15.72C94.34,11.13,98.71,8.08,103.66,6Z" style="fill:#e6d58b"/><path d="M251.41,67.1c-1,.87-2.39,1.88-4.11,3.13,4.94-10.4-1.66-17.35-.85-23.66s-2.14-6.63-4-12.6-1.64-9.79-4.75-12.28-16.3-10.45-20.44-13.11-11.95-1.49-16.43-1.82-5.14.66-8.29-.5-7.1.76-7.1.76h0a246.63,246.63,0,0,0-51.39-3.08s.93-2-3.55-2c-2.43,0-4.72-.05-5.34-1.06,11-1.26,44.59-1.18,49.31.23,5,1.49,31,4.81,35.66,4.64s6.3,2.33,9.29,1.26,4.31,3.39,6.82,3.61,13.25,3.93,19.06,16S253.89,64.86,251.41,67.1Z" style="fill:#e6d58b"/><path d="M247.3,70.23a75.14,75.14,0,0,0-9.58,8c-5.51,5.6-14.32,5.29-14.57,5.28,4.69-.69,7.47-4,13.2-8.84,6.22-5.23,5.23-37.33-8.71-52C221.08,15.77,204.85,10.29,185.46,7c0,0,3.95-1.92,7.1-.76s3.81.16,8.29.5,12.27-.83,16.43,1.82,17.34,10.62,20.44,13.11S240.63,28,242.47,34s4.79,6.3,4,12.6S252.24,59.83,247.3,70.23Z" style="fill:#444d5e"/><path d="M94.27,42.09C96,51.3,95.51,53.67,95,63.81c-.05,1-.11,2-.18,3-12.48-.35-19.31-6.89-19.56-14.88-.19-6.22,5-16.21,20.57-24.08C94.49,33.16,93.6,38.58,94.27,42.09Z" style="fill:#f0ece9"/><path d="M226.56,55.72C226,61.85,222,65.9,217,68.71A104.17,104.17,0,0,0,218.58,54a53.89,53.89,0,0,0-3.69-19.48C223.28,41.87,227.09,49.91,226.56,55.72Z" style="fill:#444d5e"/><path d="M218.58,54A104.17,104.17,0,0,1,217,68.71h0a45.88,45.88,0,0,1-7.9,3.48A26.2,26.2,0,0,1,204,73.4a37.11,37.11,0,0,1-11.18-.4c1.27-6.8.78-12.93,2.89-22s7.8-18.48,12-21.83a56.67,56.67,0,0,1,7.21,5.34h0A53.89,53.89,0,0,1,218.58,54Z" style="fill:#f0ece9"/><path d="M207.68,29.22c-4.17,3.35-9.84,12.71-12,21.83s-1.62,15.15-2.89,22c-10.8-1.93-21.47-7.56-32.16-10,.65-7.83,1.08-10.94.54-15.4-.69-5.77-.18-20.45,8.17-30.71C185.7,18.62,198.42,23.37,207.68,29.22Z" style="fill:#444d5e"/><path d="M161.2,47.57c.54,4.46.11,7.57-.54,15.4a49.88,49.88,0,0,0-5.59-1,137.65,137.65,0,0,0-25.61-.45c6.55-14.65,1.27-35-.25-43.46,5.22-.77,10.89-1.36,17.06-1.72a137.08,137.08,0,0,1,23.1.48C161,27.12,160.51,41.8,161.2,47.57Z" style="fill:#f0ece9"/><path d="M129.46,61.56A115.37,115.37,0,0,0,109,64.94a50.25,50.25,0,0,1-14.12,1.82c.07-1,.13-2,.18-3,.5-10.14,1-12.51-.74-21.72-.67-3.51.22-8.93,1.57-14.29,8.08-4.08,19-7.58,33.37-9.7C130.73,26.56,136,46.91,129.46,61.56Z" style="fill:#444d5e"/><path d="M49.33,92.64A2.67,2.67,0,1,1,52,95.3,2.67,2.67,0,0,1,49.33,92.64Z" style="fill:#f0ece9"/></g></g></svg>