<svg xmlns="http://www.w3.org/2000/svg" viewBox="0 0 279.2 201.91"><title>black-shark</title><g id="Layer_2" data-name="Layer 2"><g id="Ñëîé_2" data-name="Ñëîé 2"><path d="M279.2,61.41s-3.75,10.77-5.14,11.75-.7,2.64-1.95,3.33-.28,2.36-1.8,3.34,0,2.64-2.09,3.61-1.66,2.5-3.33,3.34-7.37,12.37-10,14.24-.83,2.71-3.62,4.52-7.78,6.53-7.92,10.7,3.89,10.57,8.06,15,5.7,6,5,7.22,1.66,2.09,1.66,4.17,5.42,3.06,4.45,5.15,3.62,5.83,3.06,8.47,1.95,3.76,1.25,6.12,1.95,6.26.7,8.34S229.3,150.44,223.46,147c-3.21-1.92-8.92-6.91-15.93-11.31.46-.48,1.1-1.18,1.84-2.06,3-3.66,7.75-10.52,8.12-18.46.36-7.67-3.7-14.39-6.6-18.17a30.76,30.76,0,0,0-2.79-3.22c10.33-4.56,18-11.72,23.88-15.13C241.47,73.09,260.65,61.2,279.2,61.41Z" style="fill:#444549"/><path d="M217.49,115.13c-.46,9.86-7.61,18.07-10,20.52-5.71-3.59-12.29-6.78-19.09-7.59a21.9,21.9,0,0,0-13.09,2.18h0s-23,8.73-36.32,8.1-45.84-6.22-58.31-2.53c.91-.32.56-2.37,1.67-2.37s.41-1.66,1.67-1.66c.76,0,4.17-4.34,7.16-8.3,10.61-1.91,23-3.93,34.12-2,17.23,3,34.47,6.94,46.7,3.75s21.68-3.9,27.24-1.53,10.45.55,12.87-5.7.06-19.32-9.67-15.15-14.32,10.23-39.06,5.74C143.86,105.09,126,95.5,106.4,92a76.21,76.21,0,0,0-16.92-1.09,72.73,72.73,0,0,0-7.92.79c-6.2,1-12.74,2.31-18.28,5.39-2.83,1.58-5.77,3.94-6.19,7.38-.93,7.65,2.28,14.78,8,18.56l-2,.88c-1.88.81-3.74,1.64-5.6,2.49-.53.24-1.38.52-2.27.89a24.7,24.7,0,0,0,.66-3.26c1.74-13.16-6-18.23-8.57-19.54a.17.17,0,0,0-.21.27c.27.3.53.6.77.91-.35-.4-2.89-3.21-5.86-4,5-4.38,14-14,43.37-17.93s59.83,20.22,87.56,20.78c20.94.42,28.44-5.93,30.86-9.07h0q2.25-.75,4.36-1.7S218,103.32,217.49,115.13Z" style="fill:#55565b"/><path d="M203.73,95.43c-2.42,3.14-9.92,9.49-30.86,9.07-27.73-.56-58.17-24.74-87.56-20.78S46.94,97.27,41.94,101.65s-14.4-.44-21.47,2.87c-4.84,2.26-5.5,4.4-8.42,5.1a9.12,9.12,0,0,0,.6-.78c.94-1.35,3.86-5.42,9.07-6.46S32.87,95.83,37,91.44c3.55-3.73,25.51-19.67,51.33-22.38a67.21,67.21,0,0,1,13.9-.07c31.41,3.19,52.46,20.15,52.46,20.15a15,15,0,0,0,1.68,1.08c3.41,2,12.33,6,29.18,7.44A44.22,44.22,0,0,0,203.73,95.43Z" style="fill:#75757f"/><path d="M47.84,105.75l0,0c-.35-.4-2.89-3.21-5.86-4-5,4.38-14.4-.44-21.47,2.87-4.83,2.26-5.5,4.41-8.42,5.1a14.1,14.1,0,0,1-5.86,3.71c-3.86,1.45-5.74,3.44-5.53,7.08.09,1.64,1.94,3.07,3.93,4.14a4.49,4.49,0,0,0-.45-2.75c-.63-1-.91-3.13.83-3.33a1.5,1.5,0,0,1,1.88,1.25,16.22,16.22,0,0,1,1.08,6.34c1.06.39,1.8.61,1.8.61,7.51,2.25,17.36,5.16,28.42,8,4.8-2,12.06-6.73,13.45-16.74A18.63,18.63,0,0,0,47.84,105.75ZM27.07,119a6.6,6.6,0,1,1,6.6-6.6A6.59,6.59,0,0,1,27.07,119Z" style="fill:#444549"/><path d="M55.81,124.06a24.7,24.7,0,0,1-.66,3.26,10.31,10.31,0,0,0-2.35,1.25,2.25,2.25,0,0,0-1.06,2.68A3.5,3.5,0,0,0,53,132.38a16.38,16.38,0,0,1-4.61,4.75c-3.48-.81-6.89-1.64-10.19-2.48,4.8-2,12.06-6.73,13.45-16.74a18.63,18.63,0,0,0-3.76-12.16l0,0c-.24-.31-.5-.61-.77-.91a.17.17,0,0,1,.21-.27C49.82,105.83,57.55,110.9,55.81,124.06Z" style="fill:#36373a"/><path d="M59.25,139.49c-3.69-.74-7.34-1.54-10.91-2.36A16.38,16.38,0,0,0,53,132.38c1.85,1.32,5.18,3.3,5.57,5.86A2.27,2.27,0,0,0,59.25,139.49Z" style="fill:#444549"/><path d="M175.35,130.24a28.82,28.82,0,0,0-2.75,1.58,58.22,58.22,0,0,1-16.1,6.77c-2.53.71-5.08,1.31-7.6,1.88a158,158,0,0,1-16.3,2.89c-4.42.52-8.87.82-13.33,1h0a105.62,105.62,0,0,0-10.61-2.81s-5.43-1.38-6.26,3h0l-2.08,0a199.48,199.48,0,0,1-25.26-2.21c.17-.29.1-.61.76-.92,1-.49,1.25-1.63,1.77-1.63s-.1-1.77.94-1.77,1-1.88,2.09-2.09l.1,0c12.47-3.69,45.07,1.91,58.31,2.53S175.35,130.24,175.35,130.24Z" style="fill:#444549"/><path d="M189.27,83.58c0,.52-2.8.64-7,.93-7.09.49-18.14,1.47-25.91,5.71a15,15,0,0,1-1.68-1.08s-21-17-52.46-20.15a67.21,67.21,0,0,0-13.9.07c3.3-10.41,17.5-49.8,48.64-68.53,0,0,2.82-1.77,1.57,1.15a10.46,10.46,0,0,0-.69,2.74c-.37,2.88,0,6.3,1,7.68,1.34,1.88,1.75,2.09,1,3.44s1.68.73,1.37,3.24,3.78,7.12,7,9.9,3.06,2.5,2.92,4.31,2.78,2.5,3.06,4.31,3.2.83,3.2,3.19,3.61,2.92,3.61,5,7.36,6.81,7.23,8.48,7,8.89,10.28,12.64,4.87,3.06,4.73,5.42,2.08,5,3.75,7S189.27,82.19,189.27,83.58Z" style="fill:#444549"/><path d="M202.06,187.13c-27.24-12.93-45.56-48.54-45.56-48.54l18.85-8.35c13,7.6,21.15,3.8,20.18,9.63a14.56,14.56,0,0,0-.18,2.56v0a22.8,22.8,0,0,0,.29,3.22l.06.33c.37,2.26.93,4.32,1.14,5.78a4.16,4.16,0,0,1,0,1.62.78.78,0,0,1-.21.37c-.95.95.33,1.73.41,2.84a1.67,1.67,0,0,1-.41,1.19,1.12,1.12,0,0,0-.28.89c.2,1.08,2.5,1.54.7,3a1.8,1.8,0,0,0-.66,1.7,9.05,9.05,0,0,0,1.24,3.05c.52.94,1,1.75.81,2.21-.41,1.23,1.2,2.06-.08,3.41l-.06.06c-1.39,1.39,2.08,2.08,1.11,3.2l-.18.22c-.74,1-.28,1.73,2.82,7.42a18.73,18.73,0,0,1,1.13,2.36C204.42,188.51,202.06,187.13,202.06,187.13Z" style="fill:#55565b"/><path d="M139.94,158.08c-1.24.83-.29,1.11,0,6.12S137,178.09,134.37,181s-5.42,6.67-6.67,6.42-.28,3.17-1.81,3.59.14,2.92-1.25,3.2-2.5,2.22-2.78,5.42-1,2.08-1,2.08c-.81-.75-1.58-1.54-2.32-2.35-18.23-20-16.2-54.43-16.17-54.88h0c.83-4.33,6.26-3,6.26-3a105.62,105.62,0,0,1,10.61,2.81h0c13.4,4.35,19.25,9.73,19.25,11.08C138.54,157.11,141.18,157.25,139.94,158.08Z" style="fill:#55565b"/><path d="M96.54,116a5.23,5.23,0,0,1-.91,1.65c-.17.21-.37.48-.61.79-.91,1.22-2.3,3.11-3.8,5.09-3,4-6.4,8.3-7.16,8.3-1.26,0-.53,1.66-1.67,1.66s-.76,2.05-1.67,2.37l-.1,0c-1.05.21-1.05,2.09-2.09,2.09s-.42,1.77-.94,1.77-.73,1.14-1.77,1.63c-.66.31-.59.63-.76.92s-.27.32-.7.47c-1.19.4-.52,1.46-1.56,1.36s-10.73-1.86-13.55-4.59a2.27,2.27,0,0,1-.73-1.25c-.39-2.56-3.72-4.54-5.57-5.86a3.5,3.5,0,0,1-1.21-1.13,2.25,2.25,0,0,1,1.06-2.68,10.31,10.31,0,0,1,2.35-1.25c.89-.37,1.74-.65,2.27-.89,1.86-.85,3.72-1.68,5.6-2.49l2-.88c2.59-1.12,5.19-2.21,7.82-3.25l1.34-.54c4-1.59,8.15-3.11,12.35-4.3a29.39,29.39,0,0,1,6.88-1.33c.9,0,2.18,0,2.86.66A1.61,1.61,0,0,1,96.54,116Z" style="fill:#55565b"/><path d="M7.93,126.05c-.16,2-1.06,3.09-2.55,3.4a3,3,0,0,0-2,4.65,3.68,3.68,0,0,1,0,3.34s0-.77-2.06-2.43-1.88-5.35,1-7.16a4.53,4.53,0,0,0,2.19-3.3,4.41,4.41,0,0,0-.46-2.75c-.62-1-.9-3.13.84-3.33a1.49,1.49,0,0,1,1.87,1.25A16.24,16.24,0,0,1,7.93,126.05Z" style="fill:#55565b"/><path d="M29.92,112.35a2.85,2.85,0,1,1-2.85-2.85A2.86,2.86,0,0,1,29.92,112.35Z" style="fill:#2b2b2b"/><path d="M27.07,105.75a6.6,6.6,0,1,0,6.6,6.6A6.6,6.6,0,0,0,27.07,105.75Zm0,11.82a5.22,5.22,0,1,1,5-6.85,5.15,5.15,0,0,1,.26,1.63A5.22,5.22,0,0,1,27.07,117.57Z" style="fill:#f4ec87"/><path d="M32,110.72a5.22,5.22,0,1,0,.26,1.63A5.15,5.15,0,0,0,32,110.72Zm-5,4.48a2.85,2.85,0,0,1,0-5.7l.27,0a2.84,2.84,0,0,1,2.58,2.83,2.6,2.6,0,0,1,0,.4A2.85,2.85,0,0,1,27.07,115.2Z" style="fill:#f5af35"/><path d="M212.15,118.05c-2.42,6.25-7.31,8.06-12.87,5.7s-15-1.67-27.24,1.53-29.47-.7-46.7-3.75c-11.12-2-23.51,0-34.12,2,1.5-2,2.89-3.87,3.8-5.09,10.53-2.14,24.55-4.06,37.82-.83,6.26,1.53,13.25,3,19.7,1.75a11,11,0,0,0,4.42-1.64c3-2.14.81-4.45-1.58-5.83a62.31,62.31,0,0,0-7.76-3.65,139.54,139.54,0,0,0-25.89-7.52q-3.67-.72-7.37-1.24s-34.06-3.62-43.65,5.69c-6.56,6.38-3,12,2.15,14.69-2.63,1-5.23,2.13-7.82,3.25-5.67-3.78-8.88-10.91-8-18.56.42-3.44,3.36-5.8,6.19-7.38C68.82,94,75.36,92.7,81.56,91.73a72.73,72.73,0,0,1,7.92-.79A76.21,76.21,0,0,1,106.4,92c19.58,3.47,37.46,13.06,57,16.61,24.74,4.49,29.33-1.57,39.06-5.74S214.57,111.79,212.15,118.05Z" style="fill:#75757f"/><path d="M157,117.67a11,11,0,0,1-4.42,1.64c-6.45,1.2-13.44-.22-19.7-1.75-13.27-3.23-27.29-1.31-37.82.83.24-.31.44-.58.61-.79a5.23,5.23,0,0,0,.91-1.65,1.61,1.61,0,0,0-.25-1.65c-.68-.71-2-.69-2.86-.66A29.39,29.39,0,0,0,86.55,115c-4.2,1.19-8.3,2.71-12.35,4.3l-1.34.54c-5.11-2.71-8.71-8.31-2.15-14.69,9.59-9.31,43.65-5.69,43.65-5.69q3.69.52,7.37,1.24a139.54,139.54,0,0,1,25.89,7.52,62.31,62.31,0,0,1,7.76,3.65C157.77,113.22,160,115.53,157,117.67Z" style="fill:#808088"/><path d="M27.19,110.34a2.43,2.43,0,1,1,2.43,2.43A2.43,2.43,0,0,1,27.19,110.34Z" style="fill:#e9e2dc"/><path d="M189.27,83.58c0,.52-2.8.64-7,.93-12.33-2-25.82.77-25.82.77,6.43-5.21,24.64-5.21,24.64-5.21-8.14-3.52-28.36,1.87-28.36,1.87,4.59-6.67,22.57-11.88,22.57-11.88-7.95-2-30.49,8.34-30.49,8.34,3.13-8.76,22.52-16.05,22.52-16.05C156.12,61.3,135,73.19,135,73.19c8.88-13.55,33.31-19.21,24.47-19S125.6,70.64,125.21,70.89c6.58-17.51,35.5-26.46,27-25.78s-35.44,21.7-35.86,22c9.59-20.43,36.91-31.44,28.35-30.65S108.33,64.83,107.9,65.26c10.14-24.39,38.21-41.69,28.2-39s-34.63,36.37-35,36.9c15.43-32.52,38.83-49.67,30.23-46.7s-35.23,46-35.65,46.69c15.52-38.72,34.67-54,42.23-58.75-.37,2.88,0,6.3,1,7.68,1.34,1.88,1.75,2.09,1,3.44s1.68.73,1.37,3.24,3.78,7.12,7,9.9,3.06,2.5,2.92,4.31,2.78,2.5,3.06,4.31,3.2.83,3.2,3.19,3.61,2.92,3.61,5,7.36,6.81,7.23,8.48,7,8.89,10.28,12.64,4.87,3.06,4.73,5.42,2.08,5,3.75,7S189.27,82.19,189.27,83.58Z" style="fill:#2b2b2b"/><path d="M248.69,97.58a10.38,10.38,0,0,1-1.35.68c1-.55,1.6-.88,1.65-.89Z" style="fill:#2b2b2b"/><path d="M260.15,161.59c4.08,8.34-36.72-26.4-50.78-28,3-3.66,7.75-10.52,8.12-18.46.36-7.67-3.7-14.39-6.6-18.17,0,0,32.45-24.35,60.24-28.3,0,0-43.5,20.45-52.67,27.46s29.6-13.34,37.73-16.05-31.06,18.14-37.32,20.64,22.73-6.88,33.57-11.57S241.81,97.79,222,103.21c0,0-5.84,4.38,1.46,2.29,6.5-1.85,19.12-5.2,23.86-7.24-4.44,2.43-16.67,9-24.28,10.4-10.15,1.88,6.82,2.54,17.1,0s-8.34,3.29-19.18,5c0,0,13.86,4.55,18.35,2.51s-5.84,4.39-17.1.53S241.59,127,243.37,127.6l.1,0c-.47-.13-18.9-6.28-22.72-6.92-4-.67,25.85,12.79,30.44,17.65s-16.89-11.81-31.9-13.89c0,0,35.65,22.51,40.45,29.18s-26.3-20.44-42.23-24.8S256.08,153.24,260.15,161.59Z" style="fill:#2b2b2b"/><path d="M174.88,132.81c3,2.51,20.65,7.06,20.65,7.06a14.56,14.56,0,0,0-.18,2.56c-.26-.1-1.36-.44-3.58-1.1C179.05,137.55,171.86,130.31,174.88,132.81Z" style="fill:#2b2b2b"/><path d="M196.64,153.77c-.95.95.33,1.73.41,2.84-22.29-8.14-28.84-17-28.84-17a130.93,130.93,0,0,0,28.64,13.81A.78.78,0,0,1,196.64,153.77Z" style="fill:#2b2b2b"/><path d="M196.4,163.39c-19.67-9.5-28.5-18.57-28.81-18.89a123.94,123.94,0,0,0,28.77,14.19c.2,1.08,2.5,1.54.7,3A1.8,1.8,0,0,0,196.4,163.39Z" style="fill:#2b2b2b"/><path d="M198.37,172.06c-15-7.91-29.55-19.76-30.07-20.19,8.44,5.64,20.1,10.95,29.34,14.57.52.94,1,1.75.81,2.21C198,169.88,199.65,170.71,198.37,172.06Z" style="fill:#2b2b2b"/><path d="M202.06,183a18.73,18.73,0,0,1,1.13,2.36c-15-9.42-29.89-26.16-30.18-26.49a98.22,98.22,0,0,0,26.23,16.71C198.5,176.51,199,177.27,202.06,183Z" style="fill:#2b2b2b"/><path d="M196.84,151.78c-14.43-5.57-32.5-19-27.27-15.84,3,1.87,14.34,5.76,23.21,8.76-9.52-4.39-20.59-10.87-21.18-11.27.1,0,.51.28,1.3.74,5.78,3.37,21.36,8,22.45,8.28a22.8,22.8,0,0,0,.29,3.22l.06.33C196.07,148.26,196.63,150.32,196.84,151.78Z" style="fill:#2b2b2b"/><path d="M139.94,158.08c-1.24.83-.29,1.11,0,6.12S137,178.09,134.37,181s-5.42,6.67-6.67,6.42-.28,3.17-1.81,3.59.14,2.92-1.25,3.2-2.5,2.22-2.78,5.42-1,2.08-1,2.08c-.81-.75-1.58-1.54-2.32-2.35.51-15.48-11.24-36-11.24-36,9.85,7.12,15.09,28,15.25,28.62-2.26-20.42-15.25-36.47-15.25-36.47,14.6,9,22.1,38.36,20.43,25.23s-19.87-28.9-19.87-28.9c20.36,11.34,33.63,36.82,25.09,20.19S96.28,142.2,112,149.29s30.32,25.64,24.48,15.84S103.33,142.57,114.84,147s21.68,14.39,20.14,11-15.71-13.69-15.71-13.69h0c13.4,4.35,19.25,9.73,19.25,11.08C138.54,157.11,141.18,157.25,139.94,158.08Z" style="fill:#2b2b2b"/></g></g></svg>