<svg xmlns="http://www.w3.org/2000/svg" viewBox="0 0 307.67 148.19"><title>black-molly</title><g id="Layer_2" data-name="Layer 2"><g id="Ñëîé_2" data-name="Ñëîé 2"><path d="M305.32,82.47c-4.1,7-3,14.64-2.68,17.32s-1.24,1.79-2.85,8.94.71,13.57-2.32,18.4-7,8.84-8.76,15.9-17.68,8-41.08-4.47c-1.34-.71-2.58-1.41-3.74-2.1h0c-3.14-5.25-6.26-9.85-4.66-10.58,2-.9,5,4.64,14.65,12.86s.71-.71-5.18-9.45-2.5-6.09,10.89,3.15,0-1.74-6.43-9.78,4.65.36,17.33,5.36,8,2.86-5-7.08-4.29-5.6,12.15-1.85,12.14,2-5.9-6.79-9.47-9.83,5.18-7.86,7.69-1.25-7.32-4.65-7.68-3.57,18.76-2.85-10.9-3.75-22.51-6.07-.9-6.08,20-6.62-8-5-19.11-5.41,1.25-2.09,19.11-5.07S280,73,265,73.72s-3-5.72,12.87-8.76.35-2.68-17,.54,7-6.79,22.69-17.51-5.71,3.22-24.83,12.68,7.15-10.36,13-17.68-5.36,3.21-17,10.71-7.32,2.68-3.39-3.21S235.72,63.2,235.72,63.2c-.7-.14-1.39-.25-2.05-.32a23.38,23.38,0,0,0-8,.43c9.48-6.15,25.72-17.39,27.34-16.75,1.11.45,4.42-1.32,7.89-3.19,2.11-1.14,4.28-2.32,6-3.06,4.64-2,3.57-3,6.79-1.79s8.93-4.47,13.58-.53,12.5,10,11.79,13,4.28,8,6.24,10.71S309.44,75.5,305.32,82.47Z" style="fill:#2b2b2b"/><path d="M254.77,95.33s0,12.44-8,21c0,0-7-10.25-38.12-7s-69.4,6.63-82.53,14.84c-8.57,5.36-33.41,8-54,6.66.94-.61,2.59.74,3.6-.95s3.93-.36,4.11-2.33,1.43-.35,1.25-3.75-.36-13.57-1.13-17.15-1.19-4.64-.12-6.6-5.54-4.83-5.54-7.59-3.21.26-4.28-1.71-3.4,2.15-3.93,1.34-1.61,2.6-3,1.88-2.68,3.57-2,7.32a19.26,19.26,0,0,0,1,3.52,8.08,8.08,0,0,0,1,1.84c1.19,2.46,1.79.54,6.61,4.08s1.79,9.5,1.34,14.86c-.11,1.18-.16,2.14-.16,2.91a8,8,0,0,0,.18,2.26c-10.5-.73-19.76-2.49-25-5.43a9.35,9.35,0,0,0-2.19-1c-4.45-1.35-20.5-6.48-30.27-13C2.18,103.55-.33,101.4,0,99.44s.58-2.77,2.19-2.64S5,97.88,6,98s0-1.34-1.07-2.14-1.34-2.15.94-2.28A9.29,9.29,0,0,0,8,93c2.74,1.66,7,2.1,12,1.67,0,.22,0,.45,0,.68a8.58,8.58,0,1,0,16.14-4c11.14-3.38,22.34-8.66,28.16-13.21,11.79-9.21,39.66-8.21,72.89-3.38S193.68,78.45,214,76c20.08-2.38,19.64-12.87,19.63-13.16.66.07,1.35.18,2.05.32C243.81,64.88,254,71.73,254.77,95.33Z" style="fill:#2b2b2b"/><path d="M214,76c-20.36,2.41-43.68,3.48-76.9-1.34S76,68.87,64.25,78.08c-5.82,4.55-17,9.83-28.16,13.21a8.56,8.56,0,0,0-7.57-4.53,8.41,8.41,0,0,0-3.18.61A8.57,8.57,0,0,0,20,94.65c-5,.43-9.28,0-12-1.67,5-1.84,16.63-7.48,24.55-11.72,9.14-4.89,35-20.05,45.19-23.13.42-.13.8-.23,1.17-.31,9.24-2.15,27.64-6.08,48.9-3S165.1,63,176.7,65s37.52,5.54,46.09.18c.85-.53,1.82-1.15,2.86-1.83a23.38,23.38,0,0,1,8-.43C233.68,63.17,234.12,73.66,214,76Z" style="fill:#353535"/><path d="M246.8,116.3a24.18,24.18,0,0,1-13.13,7.13,32.58,32.58,0,0,1-4.75.6c-2.95-3.5-4.24-5.22-10.06-4.58-11.43,1.24-58.23,4.82-72,8.75-1.22.35-2.34.72-3.38,1.09-5.26,1.88-8.48,4-13.57,5.68a49.38,49.38,0,0,1-6.66,1.72c-.66.13-1.35.25-2.08.36a125.84,125.84,0,0,1-16.64,1.33c-27.59.69-48.68-7.27-58.47-13.12,5.23,2.94,14.49,4.7,25,5.43.2.63.54.61,1,.19l.15-.12c20.57,1.29,45.41-1.3,54-6.66,13.13-8.21,51.45-11.62,82.53-14.84S246.8,116.3,246.8,116.3Z" style="fill:#232323"/><path d="M239.19,133.45A48.6,48.6,0,0,1,228.92,124a32.58,32.58,0,0,0,4.75-.6A87.56,87.56,0,0,0,239.19,133.45Z" style="fill:#2b2b2b"/><path d="M33.78,92a8,8,0,0,0-7.31-4.68,8.47,8.47,0,0,0-1.13.08A8.56,8.56,0,0,0,20,94.65c0,.22,0,.45,0,.68a8.57,8.57,0,0,0,5.39,8,8.47,8.47,0,0,0,1.13.08A8.05,8.05,0,0,0,33.78,92Zm-8.56,6.67a3.3,3.3,0,0,1-3.3-3.31,3.37,3.37,0,0,1,.12-.9,3.3,3.3,0,0,1,4.75-2,3.38,3.38,0,0,1,1.13,1,3.31,3.31,0,0,1,.6,1.91,2.9,2.9,0,0,1-.07.66A3.29,3.29,0,0,1,25.22,98.64Z" style="fill:#474a54"/><path d="M37.1,95.33a8.58,8.58,0,0,1-11.76,8,8.35,8.35,0,0,0,1.13.08,8,8,0,0,0,8-8A7.79,7.79,0,0,0,33.77,92a8,8,0,0,0-7.3-4.69,8.35,8.35,0,0,0-1.13.08,8.41,8.41,0,0,1,3.18-.61,8.57,8.57,0,0,1,8.58,8.57Z" style="fill:#232323"/><path d="M79.88,127.48c-.18,2-3,.54-4.11,2.33s-2.66.34-3.6.95l-.15.12c-.42.42-.76.44-1-.19a8,8,0,0,1-.18-2.26c1.5-.77,1-2.82,1.5-4.07.62-1.52,1.16,1.43,1.7,3.75s1.16-2.32.71-5.09,1.52-.63,2.59,2.68,1-1.16-.18-3.68.09-2,1.79-.52.27-.54-.9-2.59-1.24-3.39.84-2.5-.12-1.34-1.28-3-2.14-3.48.4-2.41-1.11-2.15-2.9-3.39-1-1.7,1.79-1.88-.19-1.25-2.68-.9-.63-1.15,1.16-3.48-1.7-.18-4.11,2.5,0-4.37,1.16-7.23S71,98.1,68.72,101.4s.18-3.84,0-6.7-1.79,4.83-2.42,7.06-1.87-3.39-2-5.45-1.52,1.34-1.25,6.16c.13,2.38-.4,2.64-1,2.27a19.26,19.26,0,0,1-1-3.52c-.72-3.75.53-8,2-7.32s2.5-2.68,3-1.88,2.85-3.3,3.93-1.34,4.28-1.06,4.28,1.71S81,98,79.88,100s-.65,3,.12,6.6,1,13.76,1.13,17.15S80.06,125.52,79.88,127.48Z" style="fill:#474a54"/><path d="M78.09,118.91c1.17,2,2.6,4.11.9,2.59s-2.95-2-1.79.52,1.25,7,.18,3.68-3-5.45-2.59-2.68-.18,7.41-.71,5.09-1.08-5.27-1.7-3.75c-.52,1.25,0,3.3-1.5,4.07,0-.77.05-1.73.16-2.91.45-5.36,3.49-11.31-1.34-14.86s-5.42-1.62-6.61-4.08a8.08,8.08,0,0,1-1-1.84c.56.37,1.09.11,1-2.27-.27-4.82,1.16-8.21,1.25-6.16s1.34,7.69,2,5.45,2.24-9.91,2.42-7.06-2.32,10,0,6.7,4.91-7.59,3.75-4.73-3.57,9.91-1.16,7.23,5.89-4.82,4.11-2.5-3.67,3.83-1.16,3.48,5.44.72,2.68.9-3.58.63-1.79,1.88,5.45,4.46,2.9,3.39-1.56.8-.4,2.41,3.35,3.84,1.28,3S76.94,116.86,78.09,118.91Z" style="fill:#232323"/><path d="M156,139.63c-16.61,5.54-32.18-1.31-34.81-2.58.73-.11,1.42-.23,2.08-.36a49.38,49.38,0,0,0,6.66-1.72,16.39,16.39,0,0,0,4.23.95c4.21.4,8-.66,9.95-.91l.49,0c2.2-.11,2.64,1.5,5.94,2.43,2.45.69,7.75-2.27,10.44-3.92.29.73.25,1.67,1.09,1.15C163.49,133.74,174.21,133.56,156,139.63Z" style="fill:#474a54"/><path d="M161,133.48c-2.69,1.65-8,4.61-10.44,3.92-3.3-.93-3.74-2.54-5.94-2.43h-.08l-.41,0c-1.91.25-5.74,1.31-9.95.91a16.39,16.39,0,0,1-4.23-.95c5.09-1.71,8.31-3.8,13.57-5.68,3,0,5,3.73,6.95,4.45s6.62-.18,9-.9C160.39,132.55,160.77,133,161,133.48Z" style="fill:#2b2b2b"/><path d="M261.55,39.3c-8.15,4.09-46.74,23-64.66,23.42-20.09.45,11.79-3,39.39-16.7s-.8-.26-27.6,7.24-34.56,6-36.44,4.87,4.29-.2,26.8-7.49A139.63,139.63,0,0,0,229,36.3c5.64-3.65,7-5.47.29-2.07q-1.47.75-3.06,1.53c-14.41,7-36.34,15.77-51.07,17.77-15.81,2.14-18.49,2.41-1.07-3.75,17.06-6,34.64-9.11,42.4-16.86l.47-.49c4.25-4.59,1.45-3.4-4-.72a147.09,147.09,0,0,1-15.27,6.81C185.37,42.81,159,51.38,153.84,52.46s-4.64-.27,3.66-3.49c7.69-3,36-12.37,42.75-19.91a6.23,6.23,0,0,0,1.2-1.79c1.31-3.16-5-.45-14.25,4.12h0c-13.44,6.67-33,17.31-43.7,19.46-18.07,3.62-5.55-1.52,5.71-6.52,6.34-2.82,16.34-6.86,24.63-10.91,6.42-3.13,11.81-6.26,13.68-8.83,2.63-3.61-8,1.55-21.64,7.81-8.68,4-18.59,8.38-27.12,11.27-22,7.45-22.13,4.5-4.37-4.88,10.07-5.32,17.28-7.1,23.58-9a44.32,44.32,0,0,0,13.75-6.36c10.71-7.65,1.87-8.16-16.62,0-1.91.84-3.78,1.75-5.61,2.7-15.87,8.21-28.59,19.58-37,21.26-7.19,1.44,2.29-8.44,14.7-16.15A76.57,76.57,0,0,1,139,25.12c16.89-6.69,25.1-13.93,14.83-11-7.16,2.05-20.37,6.46-31.39,13.93A50.47,50.47,0,0,0,110,39.59C99.17,54.32,94.26,52.72,93.73,49.78c-.43-2.35,13.1-17.63,29.32-27.54A70.1,70.1,0,0,1,135.8,16c17.17-6.08,6.31-7.29-11.57,1.53a107.49,107.49,0,0,0-13.35,7.85C90.64,39.32,87.74,50.06,79.64,53.76c3.91-8,13.88-25.25,31.51-35.87,0,0,5.22-3,6.7-1.88.72.53,2.52-.4,5.12-2.14s6.2-4.38,10.28-7.1c8-5.36,18-9.78,22.38-4.15s5-1.75,12.06,2.68,8.7-.94,11.52,2.41,7.63-2,11,1.74,6.7-1.07,9.92,3.08,8.75-.8,11.61,3.12,10.72,0,12.33,3.4,5.36-1.07,8.75,3.75,9.11-.18,11.25,3.57c1.63,2.85,4.5,2.61,7,3.27a6.36,6.36,0,0,1,2.25,1C255.64,32.38,261.08,34.49,261.55,39.3Z" style="fill:#2b2b2b"/><path d="M260.88,43.37c-3.47,1.87-6.78,3.64-7.89,3.19-1.62-.64-17.86,10.6-27.34,16.75-1,.68-2,1.3-2.86,1.83-8.57,5.36-34.47,1.79-46.09-.18S149,57.82,127.76,54.78s-39.66.89-48.9,3c-.37.08-.75.18-1.17.31,0,0,.63-1.66,2-4.37,8.1-3.7,11-14.44,31.24-28.37C135.53,8.42,157,8.51,135.8,16S93.19,46.83,93.73,49.78,99.17,54.32,110,39.59s33.57-22.5,43.84-25.45,2,4.29-14.83,11-35.9,24.12-26.53,22.24,24.12-15.8,42.61-24,27.33-7.65,16.61,0-19.56,6-37.32,15.39-17.61,12.33,4.36,4.88,53.06-25,48.77-19.08S160.45,39.33,149.2,44.33s-23.78,10.14-5.71,6.52,61.17-31.35,58-23.58S165.81,45.76,157.5,49s-8.84,4.56-3.66,3.49,31.53-9.65,43.86-13.94,26.79-14.2,19.29-6.09-25.46,11.18-42.87,17.35-14.74,5.89,1.07,3.75,39.92-12.06,54.13-19.3S221.54,43.35,199,50.64s-28.68,6.37-26.8,7.49,9.65,2.63,36.44-4.87,55.2-20.9,27.6-7.23-59.49,17.14-39.39,16.69c17.92-.4,56.5-19.33,64.66-23.42A8.89,8.89,0,0,1,260.88,43.37Z" style="fill:#474a54"/><path d="M288.36,96.94c-26.44-.72-33.77-.54-18.76,2.85s22,6.62,7.32,4.65-23.22-.89-5.18,7.86,22.33,10.54,5.9,6.79-25.19-8.08-12.15,1.85,17.68,12.08,5,7.08-23.76-13.4-17.33-5.36,19.83,19,6.43,9.78-16.79-11.89-10.89-3.15,14.82,17.66,5.18,9.45S241.2,125,239.23,125.88c-1.6.73,1.52,5.33,4.66,10.58-1.76-1-3.32-2.05-4.69-3h0a87.56,87.56,0,0,1-5.52-10,24.18,24.18,0,0,0,13.13-7.13c8-8.53,8-21,8-21-.79-23.6-11-30.45-19.05-32.13,0,0,19.59-18.61,15.66-12.71s-8.22,10.72,3.39,3.21,22.87-18,17-10.71-32.15,27.15-13,17.68S299.25,37.27,283.53,48s-40,20.72-22.69,17.51,32.88-3.57,17-.54S250,74.43,265,73.72s38.77-2.93,20.9,0-30.18,4.66-19.11,5.07,40,4.88,19.11,5.41-31.61,4.29-20,6.62S314.79,97.65,288.36,96.94Z" style="fill:#474a54"/><path d="M28.52,95.33a3.31,3.31,0,1,1-6.61,0,3.38,3.38,0,0,1,.13-.9,3.3,3.3,0,0,1,6.48.9Z" style="fill:#232323"/><path d="M26.31,93.79A2.21,2.21,0,1,1,28.52,96,2.21,2.21,0,0,1,26.31,93.79Z" style="fill:#eae3dd"/><path d="M251.09,29.64c-5,7-13.28,8.08-22.06,6.66-.92-.15-1.85-.33-2.77-.54A74.2,74.2,0,0,1,218,33.43l-1.48-.51c-1.27-.44-2.45-.85-3.55-1.21-4.95-1.67-8.53-2.66-12.72-2.65-3.52,0-7.48.72-13.05,2.33h0a45.84,45.84,0,0,1-13.36,2,35.24,35.24,0,0,1-8-1A58.25,58.25,0,0,1,158,29.76c-1.05-.42-2.11-.86-3.2-1.32-2.18-.92-3.88-1.72-5.28-2.34-5.19-2.3-6.34-2.25-12.94,2.34a13.89,13.89,0,0,1-9.35,2.77,5.62,5.62,0,0,1-4.74-3.14c-.64-1.5-.54-3.48.6-5.83a10.11,10.11,0,0,0,1.18-4.7A6.28,6.28,0,0,0,123,13.87c2.68-1.77,6.2-4.38,10.28-7.1,8-5.36,18-9.78,22.38-4.15s5-1.75,12.06,2.68,8.7-.94,11.52,2.41,7.63-2,11,1.74,6.7-1.07,9.92,3.08,8.75-.8,11.61,3.12,10.72,0,12.33,3.4,5.36-1.07,8.75,3.75,9.11-.18,11.25,3.57C245.68,29.22,248.55,29,251.09,29.64Z" style="fill:#fff;opacity:0.12"/><path d="M291.16,51a10.42,10.42,0,0,1-6.34-4.56c-2.77-4-6.27-4.76-16.27,0S244.8,60.16,249.89,62.76,266.64,69,271.26,79.14s7.82,14.38,3.55,19.5-4,9.65,1.61,18.76,11,11.19,14.74,6.13,1.6-11.75,4-18.18,1.68-7.89,2.45-15.2,3.71-6.51,4.24-13.48,7.51-7.46,0-13.91S296.52,50.68,291.16,51Z" style="fill:#fff;opacity:0.12"/></g></g></svg>