<svg xmlns="http://www.w3.org/2000/svg" viewBox="0 0 306.5 136.88"><title>blue-botia</title><g id="Layer_2" data-name="Layer 2"><g id="Ñëîé_2" data-name="Ñëîé 2"><path d="M241.47,81.26a16.2,16.2,0,0,1-.36,2.12C237.56,99.17,219,98.56,218.63,98.55h0c-1.41-.47-2.82-.86-4.22-1.19a50.57,50.57,0,0,0-6.36-1.07c-9.08-1-18,.37-26.11,2.26-4.5,1-8.77,2.25-12.72,3.32a12.62,12.62,0,0,0-1.2-1.68,4,4,0,0,0-2.76-1.64c-3.73-.19-19.26,6.7-24.5,7h-.26c-15.49.33-32.39-.57-37.56-.86a46.73,46.73,0,0,0-9.5.62h0s-3-6.36-6.81-6.76-7.39,3.4-6,8.79c-2.25.31-4.63.58-7.19.79-1,.08-2,.14-3,.18,4.5-2.62,6.95-7.08,9-9.76,1.16-1.52.88-5-.24-8.6,14.52,11.75,39.16,8.4,55.14,4.61S164.46,84.38,200,89.94C235.06,95.44,241.32,81.63,241.47,81.26Z" style="fill:#4b94d3"/><path d="M79.19,90c-1.39-4.44-4.08-9-6.94-10.36-5.19-2.4-14.56-10.37-12.78-17.15a120.17,120.17,0,0,0-12.78,6.77c-7,4.19-15.76,9-18.83,4a7.47,7.47,0,0,1-.16-6.72,111,111,0,0,0-12.34,9.93S7.5,83.68,3.53,85.23s-5.39,4.34,0,6.43,4.94,3.75,3.89,5.69-.75,3.75,3.3,4.05,14.82.59,22.15,2.84c6.79,2.08,24.72,4.54,37.56,4.07,4.5-2.62,6.95-7.08,9-9.76C80.59,97,80.31,93.55,79.19,90Zm-39.14,2-1-.16c-5.89-1-6.49-2.45-9.48-1.83s-1.9-1.87,2.79-4A13.56,13.56,0,0,0,38,81.63c1.38-1.94,1.91-4.37,3.61-6.09A10,10,0,0,1,45.72,73a8.86,8.86,0,0,1,7.36,1.2A9.87,9.87,0,0,1,56.53,87c-1.46,2.77-4.5,4-7.35,4.8A21.46,21.46,0,0,1,40.05,91.93Zm32.79,9.78a21.17,21.17,0,0,1-11,4.79c-2.54.24-7.67.85-9.36-1.79a3.4,3.4,0,0,1-.5-1.34c-.72-4.5,2.37-8.88,5.52-11.71,7.68-6.88,12.92-9.13,15.31-5.38S80.18,95.89,72.84,101.71Z" style="fill:#3e89c1"/><path d="M130.54,50.05C97.3,48.4,73.41,56.11,59.47,62.44a120.17,120.17,0,0,0-12.78,6.77c-7,4.19-15.76,9-18.83,4a7.47,7.47,0,0,1-.16-6.72A137.18,137.18,0,0,1,57.53,51c20.36-7.74,43.2-11.75,66.21-12.92,2.21-.11,4.47-.16,6.8-.14,14.36.08,30.67,2.46,45.78,5.5h0c.78.14,1.55.31,2.31.46h0c19.14,4,36,8.91,44.17,11.42C227.44,68.47,177.21,52.36,130.54,50.05Z" style="fill:#62b5e8"/><path d="M241.48,81.26h0c-.15.37-6.41,14.18-41.48,8.68-35.53-5.56-49.7.83-65.66,4.62S93.71,101.7,79.19,90c-1.39-4.44-4.08-9-6.94-10.36-5.19-2.4-14.56-10.37-12.78-17.15,13.94-6.33,37.83-14,71.07-12.39,46.67,2.31,96.9,18.42,92.29,5.27l1.42.43,3.69,1.18h0C228.39,57.21,243.2,66.71,241.48,81.26Z" style="fill:#54a2dd"/><path d="M250.85,66.36c-7.34,5.84-7.64,6.74-6.29,10s.84,6.14-.63,7.49-3.3,1.8-2.31,4.19a5.21,5.21,0,0,1-1.7,6.44c-2.1,1.5-3.6,4.19-1.35,10.18,1,2.63,1.6,4.83,1.12,6.35A68.82,68.82,0,0,0,222.25,99.9c-1.2-.5-2.41-1-3.62-1.35.41,0,18.93.62,22.48-15.17a16.2,16.2,0,0,0,.36-2.12h0C243.2,66.71,228.39,57.21,228,56.94c6.51,2,15.62,2,27.66.48C256,59.26,255.63,62.56,250.85,66.36Z" style="fill:#62b5e8"/><path d="M253.39,68.16c-7.93,4.79,21.71-4.94,39.52-2.39S261.33,68.31,249.65,74s21.71-2.89,34.43,1.32-29,4.52-35.18,4.22.75,3.14,9.28,3.14,15-.34,9.88,2.22-18.71-.12-20.81,1.23,9.28,4.49,13.78,4.64-1.43,5.51-14.48,1.34c0,0-3.79-1.33-1.84,1.58s12.75,5.79,18,6.06-2.54,5.69-17.81,0,1.34,7,17.66,8.23c0,0,10.93,2,13,6.44s-26.84-4.19-33.93-9.13S244.56,117,275,122.06c0,0,7.78.89,8.38,3.74s-22.45-1.21-28.59-6.07.59,9.41,30.69,12.08c-2.7-.19-7.19-.64-14.18-.72-11.7-.14-20.25-10.59-31.56-20,.48-1.52-.13-3.72-1.12-6.35-2.25-6-.75-8.68,1.35-10.18a5.21,5.21,0,0,0,1.7-6.44c-1-2.39.84-2.84,2.31-4.19s2-4.19.63-7.49-1.05-4.19,6.29-10c4.78-3.8,5.11-7.1,4.76-8.94,5.41-.66,11.42-1.61,18-2.78,13.74-2.44,23.68-2,28.83-.44-8.81.12-26.79,1.18-44.15,7.07,0,0-3.44,1.7.6,1.3s35.63-5.54,42.52-4.16S261.33,63.37,253.39,68.16Z" style="fill:#c97128"/><path d="M172.06,118.47c-.88,2-4.6,1-4.6,1-21-1.8-27-14-27-14h.26c5.24-.29,20.77-7.18,24.5-7a4,4,0,0,1,2.76,1.64s-9.54,3.45-15.23,3.35c-3.73-.06-.27.51,4.8.89h0c2.67.2,5.79.34,8.55.31,8-.1-9,3.1-17.58.5h0c-2.73-.83-3.72-.57-3.13.15h0c1.25,1.53,9.67,5.11,23.6,4.56,0,0,3.59,1.28-1.3,1.37s-14.18,1.7-22.95-4.09S151.21,118.94,172.06,118.47Z" style="fill:#c97128"/><path d="M172.25,112.64c.6,1.31,0,1.68,0,4.88a2.26,2.26,0,0,1-.19,1c-20.85.47-36-17-27.25-11.24s18.06,4.2,22.95,4.09,1.3-1.37,1.3-1.37c-13.93.55-22.35-3-23.6-4.56h0c-.59-.72.4-1,3.13-.15h0c8.58,2.6,25.57-.6,17.58-.5-2.76,0-5.88-.11-8.55-.31h0c-5.07-.38-8.53-1-4.8-.89,5.69.1,15.23-3.35,15.23-3.35a12.62,12.62,0,0,1,1.2,1.68c1.5,2.49,2.56,5.56,3.29,6.26C173.78,109.33,171.65,111.32,172.25,112.64Z" style="fill:#b26820"/><path d="M215.25,105.31c-1.41,1.18-6.47.62-6.47.62-19-.59-26.84-7.38-26.84-7.38,8.14-1.89,17-3.23,26.11-2.26-4,3-16.54-1.13-11.45,1.15s21.11.81,14.47,2.75-27.84-5.43-18.66-1.67,24.85,3.62,17.87,4.29-27.45-6.46-19-2.62C198.36,103.38,211.13,104.89,215.25,105.31Z" style="fill:#c97128"/><path d="M215.56,104.34a.91.91,0,0,1-.31,1c-4.12-.42-16.89-1.93-23.94-5.12-8.48-3.84,12,3.3,19,2.62s-8.69-.52-17.87-4.29,12,3.62,18.66,1.67-9.38-.48-14.47-2.75,7.42,1.86,11.45-1.15a50.57,50.57,0,0,1,6.36,1.07c1.25,2.2-.84,3.19.55,4.59S215,102,215.56,104.34Z" style="fill:#b26820"/><path d="M92,111.92c-3.4-2.59-10.52-2.78-10.52-2.78-.56-1.13-.86-1.8-.86-1.8-1.4-5.39,2.2-9.19,6-8.79s6.81,6.76,6.81,6.76h0l2.29,1.42a14.28,14.28,0,0,1,1,2.41C98,113.43,94.92,114.16,92,111.92Z" style="fill:#4b94d3"/><path d="M110.8,132.38c-.33,1.9-12.7-11.75-17-16.76s.3,6.18,13.37,17.36c0,0,1.5.9.71,1.7s-15-12.61-18.62-20.36c-3.4-7.36-4.89,2.41,14.11,20.68l-1.58-.52c-8.64-2.83-17.55-19.74-20.3-25.34,0,0,7.12.19,10.52,2.78,2.91,2.24,6,1.51,4.73-2.78.34.21,11.26,7.06,12.43,9.35s-7.38-4.57-10.18-5.87,9.48,7.39,11.48,9.88-8-5.27-11.28-7.38S109.5,126.8,110.73,129s-15.56-15.27-14-12.58S111.13,130.49,110.8,132.38Z" style="fill:#c97128"/><path d="M112.37,134.48c.18,2.83-.16,3.35-9,.52-19-18.27-17.51-28-14.11-20.68,3.59,7.75,17.82,21.16,18.62,20.36s-.71-1.7-.71-1.7C94.1,121.8,89.51,110.61,93.8,115.62s16.67,18.66,17,16.76-12.51-13.27-14.07-16,15.24,14.78,14,12.58-14.87-16-11.54-13.87,13.28,9.88,11.28,7.38S96.2,111.32,99,112.62s11.38,8.19,10.18,5.87-12.09-9.14-12.43-9.35a14.28,14.28,0,0,0-1-2.41c4.12,2.57,12.44,7.85,13.64,9.19,1.6,1.79,1.6,6,3,7.38s-.2,5,1,6.59S112.17,131.49,112.37,134.48Z" style="fill:#b26820"/><path d="M176.32,43.43c-15.11-3-31.42-5.42-45.78-5.5,0,0,1.38-3.68,4-8.78h0v0c.29-.37,3.94-4.8,8.39,0a30.1,30.1,0,0,0,17.29,8.77C165.81,38.67,174,39.67,176.32,43.43Z" style="fill:#54a2dd"/><path d="M186.25,42a31.85,31.85,0,0,1-7.59,1.94h0c-.76-.15-1.53-.32-2.31-.46h0c-2.36-3.76-10.51-4.76-16.12-5.51a30.1,30.1,0,0,1-17.29-8.77c-4.45-4.82-8.1-.39-8.39,0,3.81-7.56,10.26-18.25,18.73-24.79,6.48-5,9.71-5,11.5-3.3C160.09,3.6,148.53,10.82,143.1,22,136.22,36.08,152.39,11,161.17,8.63s-9.47,6.83-14.67,18.29,7.59-9.21,17.86-11.5-7.38,5-13.87,16.66c0,0-1.1,3,4.5-2.09s14.27-9.89,16.86-10.29-13.14,10.39-15.21,14,10.22-6.69,16.61-8.19-4.29,3.42-8.19,8.94,9.94-4.18,14.87-4.64-6.08,5.09-7.28,8.13,9.28-3.52,13-2.74-5.78,3.09-7.68,6.88S180.79,39.44,186.25,42Z" style="fill:#c97128"/><path d="M186.25,42c-5.46-2.52-10.19,3.85-8.31.1s11.38-6.12,7.68-6.88-14.17,5.78-13,2.74,12.22-8.59,7.28-8.13S161.17,40,165.06,34.43s14.57-10.43,8.19-8.94-18.67,11.78-16.61,8.19,17.81-14.37,15.21-14S160.57,24.9,155,30s-4.5,2.09-4.5,2.09c6.49-11.68,24.15-19,13.87-16.66S141.3,38.37,146.5,26.92,170,6.23,161.17,8.63,136.22,36.08,143.1,22c5.43-11.14,17-18.36,21.65-20.92,2.14,2.07,2.22,6.66,3.31,8.29,2,3,4.34,2.39,4.87,5.39s4.31,3.59,4.51,5.58,4.4,2.2,4.5,5,5.48,5.18,5.68,7.38C187.78,34.45,193.37,38.87,186.25,42Z" style="fill:#b26820"/><path d="M72.84,101.71a21.17,21.17,0,0,1-11,4.79c-2.54.24-7.67.85-9.36-1.79a3.4,3.4,0,0,1-.5-1.34c-.72-4.5,2.37-8.88,5.52-11.71,7.68-6.88,12.92-9.13,15.31-5.38S80.18,95.89,72.84,101.71Z" style="fill:#54a2dd"/><path d="M53.08,74.2A8.86,8.86,0,0,0,45.72,73a10,10,0,0,0-4.16,2.54c-1.7,1.72-2.23,4.15-3.61,6.09A13.56,13.56,0,0,1,32.32,86c-4.69,2.09-5.78,4.59-2.79,4s3.59.83,9.48,1.83l1,.16a21.46,21.46,0,0,0,9.13-.12c2.85-.78,5.89-2,7.35-4.8A9.87,9.87,0,0,0,53.08,74.2ZM47.69,89.94a7.56,7.56,0,1,1,7.56-7.56A7.55,7.55,0,0,1,47.69,89.94Z" style="fill:#4b94d3"/><path d="M47.69,74.83a7.56,7.56,0,1,0,7.56,7.55A7.55,7.55,0,0,0,47.69,74.83Zm0,11.15a3.6,3.6,0,1,1,3.6-3.6A3.6,3.6,0,0,1,47.69,86Z" style="fill:#eae3dd"/><path d="M51.29,82.38a3.6,3.6,0,1,1-3.6-3.59A3.6,3.6,0,0,1,51.29,82.38Z" style="fill:#2b2b2b"/><path d="M306.47,57.45c-.71,3.41-4.27,7-4.47,9.17s-4.19,2.59-4.6,4.58-4.19,2.4-4.59,4.19-4,3.4-14.37,8-11.77,7-12.58,11.18,8.59,13.17,10.18,14.57,0,3.19,3,4.59,0,2.6,2.39,3.8,4.6,7,6.79,11.57c1.29,2.7,1.06,3-2.79,2.72-30.1-2.67-36.83-16.94-30.69-12.08s29.19,8.91,28.59,6.07-8.38-3.74-8.38-3.74c-30.39-5.09-40.42-21.71-33.33-16.77s36,13.62,33.93,9.13-13-6.44-13-6.44c-16.32-1.19-32.93-13.92-17.66-8.23s23,.27,17.81,0-16-3.15-18-6.06,1.84-1.58,1.84-1.58c13.05,4.17,19-1.19,14.48-1.34s-15.87-3.3-13.78-4.64S263,87.47,268.06,84.9s-1.35-2.22-9.88-2.22-15.42-3.44-9.28-3.14,47.91,0,35.18-4.22S238,79.69,249.65,74s61.08-5.69,43.26-8.23S245.46,73,253.39,68.16s54.94-8.38,48.06-9.75S263,62.17,258.93,62.57s-.6-1.3-.6-1.3c17.36-5.89,35.34-7,44.15-7.07,0,0,0,0,0,0C305.34,55.05,306.72,56.23,306.47,57.45Z" style="fill:#b26820"/><path d="M48.35,80.67a2.94,2.94,0,1,1,2.94,2.94A2.94,2.94,0,0,1,48.35,80.67Z" style="fill:#eae3dd"/><path d="M85.83,68.75c-4.07,1.52-7.08,4.15-6.65,9,.54,6.08,10.14,6.65,14.55,6.66,7.22,0,14-2.61,20.82-4.53a82.14,82.14,0,0,1,14.38-2.43c11-1.05,22-1.28,33-1.24s22,.17,32.91,1.2c8.45.8,16.73,2.76,25.15,3.76,4.55.55,11.9,1,13.26-4.74,1.49-6.28-7.75-6.08-11.51-6.73-8.92-1.53-18-2.21-27-2.9S176.46,65.5,167.31,65A423.13,423.13,0,0,0,123,64.37q-9.8.43-19.56,1.49C97.65,66.48,91.3,66.7,85.83,68.75Z" style="fill:#62b5e8"/></g></g></svg>