<svg xmlns="http://www.w3.org/2000/svg" viewBox="0 0 297.5 140.07"><title>blue-dolphin-moorii</title><g id="Layer_2" data-name="Layer 2"><g id="Ñëîé_2" data-name="Ñëîé 2"><path d="M19,125.76h0c-5.32.63-10.49,1-13.84.46,12.53-.48,22.43-6.72,24.13-8.87,2.05-2.58-.15-5.15-3.26-5.76s-8.72-3.94-13.88-6.1-5.84-2.85-9-1.18c-1.95,1-2.14,3-2,4.45a3.14,3.14,0,0,1-1-1.85c-.2-2.9,2.42-6.3,3.75-7.83a24.47,24.47,0,0,0,11.91,5.71c8.64,1.51,15.47,6.67,17.44,9.24C34.76,116.21,32.05,120.3,19,125.76Z" style="fill:#859be5"/><path d="M245.63,66.26a50.12,50.12,0,0,1-28.44-4c-9.46-4.33-15.07-12-23.27-17.88a69.56,69.56,0,0,0-9.23-5.5C174,33.57,162.1,30.72,150.53,28.05a133.43,133.43,0,0,0-34.88-3.63c-9.75.38-23.6,1-31.74,7.08-14.22,10.55,8.89,24,17.78,26.89A37.76,37.76,0,0,0,108.5,60c19.11,2.59,56.73-12.88,76.91-1.65C197.13,64.9,206.7,74.86,219,80.45c5.57,2.53,11.65,3.59,17.49,5.34,4.73,1.44,11.73,3.33,14.42-2.37C253.74,77.39,256.28,64.62,245.63,66.26ZM140.13,99.64a39.86,39.86,0,0,1-6.44,1.45l5.38,0,3.14,0a4.16,4.16,0,0,1,1.7.09,17.22,17.22,0,0,1-5.16,1.91,52.28,52.28,0,0,1-5.68,1.25c-3.79.63-7.62.94-11.45,1.24-1.94.16-4.24-.12-6.09.45,1.5.71,3.45.59,5.07.74,2.08.18,4.17.32,6.25.39a76.66,76.66,0,0,0,12.76-.57c.22,0,.54,0,.54.24s-.15.24-.28.3c-7.71,4-16.72,4-25.21,3.61-.58,0-4.29-.47-2.68,1.21a2.51,2.51,0,0,0,1.42.61c4.18.79,8.41,1.38,12.65,1.75,2.09.18,4.19.32,6.28.4,1,0,2.1.07,3.15.08a11.45,11.45,0,0,1,2.11-.13c1.06.22.76,1.21,0,1.65a4.25,4.25,0,0,1-1.77.41,83.93,83.93,0,0,1-25.7-2.29c-.64-.16-1.67,0-1.47.67a.93.93,0,0,0,.45.47,31,31,0,0,0,20.47,4.18.34.34,0,0,1,.3.55c-2.09,2.38-5.78,2.86-9,2.86a65.75,65.75,0,0,1-16.1-2,21.53,21.53,0,0,0-2.7-.56c4,2.4,8.28,4.12,11.94,4.31,9.1.48,26.17-1.3,29.35-10.08s4.1-6.43,7.06-10.9S151.05,96,140.13,99.64ZM44.9,69.81a7.48,7.48,0,1,0,7.47,7.47A7.47,7.47,0,0,0,44.9,69.81Z" style="fill:#be9c88"/><path d="M293.09,126.49c-1.26-.45-2.63-1-4.09-1.62,7.31-.06-5.53-36.15-10.08-43.66s7.28-34.81,9.79-42.1c1-3-.91-3.51-3.56-3.13,7.08-5,9.69-6.27,6.74,7.46-3.86,18-6.37,20.48-7.51,26.39s-.91,10,4.56,24.34S302.71,129.9,293.09,126.49Z" style="fill:#375089"/><path d="M289,124.87h0a111,111,0,0,1-20.29-11.5,83.68,83.68,0,0,1-6.67-9.73l10.85,7.91c3.44,2.52,7.28,5.15,11.52,4.81-1.55-4-5.06-6.89-8.56-9.38s-7.24-4.87-9.66-8.42c-1.6-2.36-.2-4.54,2.59-3.9,3.05.7,5.42,2.6,8.24,3.8.78.33,5.4,2.18,5.16.09-.27-2.39-6.09-3.89-7.8-5l-7.93-4.94c-.82-.51-1.74-1.19-1.74-2.15a2,2,0,0,1,1.55-1.76,7.11,7.11,0,0,1,2.48-.08,19.78,19.78,0,0,0,6-.57c1.18-.3,2.61-1.13,2.32-2.32-.2-.8-1.08-1.18-1.85-1.45l-8.28-3a7.14,7.14,0,0,1-2.35-1.19,2.42,2.42,0,0,1-.9-2.34c.32-1.26,1.79-1.76,3.05-2.07.74-.17,9.24-1.36,8.08-2.83-.55-.69-2.25-.64-3-.64a29.76,29.76,0,0,0-6.28,1.12c-1.24.28-2.93.33-3.38-.85a2.41,2.41,0,0,1,.24-1.83c1.57-3.66,4.67-6.26,7.75-8.63,2.72-2.11,6.92-4.2,8.26-7.56a4.32,4.32,0,0,0-3.37.26,21.51,21.51,0,0,0-3.72,2.48L257.25,64c.79-8.47,11.3-16.68,12.32-17.46l.08-.06c2.57-1.74,5.15-3.47,7.68-5.09,3-1.94,5.63-3.84,7.81-5.4h0c2.65-.38,4.58.17,3.56,3.13-2.51,7.29-14.34,34.59-9.79,42.1S296.31,124.81,289,124.87Z" style="fill:#445b9b"/><path d="M257.2,83.48c3.31-5.69,3.07-5.91.34-15.93a9.68,9.68,0,0,1-.28-3.55c.79-8.47,11.29-16.69,12.31-17.46-10.36,7-20.54,14.23-26.37,16.24-3.36,1.15-7.35.66-11.57-1.09a41,41,0,0,1-9.13-5.39,64.17,64.17,0,0,1-5.92-5.13c-9.1-8.87-28.67-26.39-72.36-34.36a164.48,164.48,0,0,0-20.94-2.44,146.58,146.58,0,0,0-34.86,2.32c-1.71.32-3.35.67-4.9,1a96.65,96.65,0,0,0-20.3,6.83,76.59,76.59,0,0,1-11.81,4.08c7.84,2.82,18,8.19,21.14,17.76C78,62.78,66,66.87,58.44,65.73S35.92,61,34.78,74.84s2.73,11.37,7.51,18-1.6,14.79-1.6,14.79a6.36,6.36,0,0,0-.68,3.87c.23,2.5,7.06,4.93,10.92,1.89S61.4,102.82,65,106.46c3.07,3.07,1.94,14.07-14.89,17.91a73.19,73.19,0,0,1,10,2.92c9.55-2.92,27.34-10.86,27.12-29.63,0,0-.61-9.55,3.33-9.25,1.51.12,4.59,4.57,5.82,11.26a20.7,20.7,0,0,1,4.34,1.1c3.68,1.25,20.95,2.15,32.93.32a39.86,39.86,0,0,0,6.44-1.45c10.92-3.64,13.2-.23,10.24,4.25s-3.87,2.12-7.06,10.9S123.06,125.35,114,124.87c-3.66-.19-8-1.91-11.94-4.31h0a42.58,42.58,0,0,1-6.66-4.93,39.86,39.86,0,0,1-9.08,15c4.57.16,7.9.19,7.9.19,5.26-.07,10.67-.36,16.14-.82,3.11-.26,6.24-.58,9.36-1,9.62-1.13,19.28-2.74,28.51-4.67q3.09-.62,6.1-1.31c4-.89,7.84-1.83,11.56-2.81,1.66-.43,3.28-.86,4.87-1.31,3.58-1,7-2,10.23-3.06,14.12-4.54,24.56-9.31,28.13-13.06a52.15,52.15,0,0,1,5.06-4.67c1-.79,2-1.51,2.93-2.15h0c6.65-4.42,13.14-5.75,20-5.91,9.56-.23,15.7,6.6,22.75,15.25a49,49,0,0,0,8.9,8,82.11,82.11,0,0,1-6.68-9.73C257.31,95.48,254.84,87.53,257.2,83.48ZM44.9,84.76a7.48,7.48,0,1,1,7.47-7.48A7.47,7.47,0,0,1,44.9,84.76Zm206-1.34c-2.69,5.7-9.69,3.81-14.42,2.37C230.63,84,224.55,83,219,80.45c-12.28-5.59-21.85-15.55-33.57-22.07-20.18-11.23-57.8,4.24-76.91,1.65a37.76,37.76,0,0,1-6.81-1.64c-8.89-2.94-32-16.34-17.78-26.89,8.14-6,22-6.7,31.74-7.08a133.43,133.43,0,0,1,34.88,3.63c11.57,2.67,23.47,5.52,34.16,10.83a69.56,69.56,0,0,1,9.23,5.5c8.2,5.84,13.81,13.55,23.27,17.88a50.12,50.12,0,0,0,28.44,4C256.28,64.62,253.74,77.39,250.89,83.42Z" style="fill:#6782df"/><path d="M90.07,108.51c.56,2.08,2.55,4.65,5.28,7.12a39.69,39.69,0,0,1-9.09,15c-8.14-.3-20.27-1-24.63-2.77l-1.48-.56c9.55-2.91,27.33-10.86,27.11-29.63,0,0-.61-9.55,3.34-9.24,1.51.12,4.59,4.57,5.82,11.26a5.86,5.86,0,0,0-2.41.19,3.87,3.87,0,0,0-1.5.82A7.61,7.61,0,0,0,90.07,108.51Z" style="fill:#445b9b"/><path d="M58.44,65.73C66,66.87,78,62.78,72.55,46.39c-3.19-9.57-13.3-14.94-21.14-17.76a194.88,194.88,0,0,1-22.32,5c-5.92.68-20.71,5.23-24.57,16.84S5.2,72.33,8.38,81.66,4.52,97.59,4.52,98.27c0,0-.3.3-.76.82a24.47,24.47,0,0,0,11.91,5.71c8.64,1.51,15.47,6.67,17.44,9.24,1.65,2.17-1.06,6.26-14.16,11.72,5.3-.64,10.73-1.57,14.69-2.23a45.42,45.42,0,0,1,16.51.84c16.83-3.84,18-14.84,14.89-17.91-3.64-3.64-10.24,3.87-14.11,6.9S40.24,114,40,111.47a6.36,6.36,0,0,1,.68-3.87s6.38-8.19,1.6-14.79-8.65-4.09-7.51-18S50.93,64.6,58.44,65.73ZM25.22,77.28c-.19,2.61-1.14,8-6.37,6.07s-9.78-13.52-6.6-27.54,34-25.8,46-17.84S63,57.09,44.9,57.31,25.37,75.28,25.22,77.28Z" style="fill:#91678d"/><path d="M263.52,46.24c-2.12.31-8.49,3-14.56,9.41A17.9,17.9,0,0,1,241.83,60s10-8.86,10.93-14.09,0-14.11-12.75-16.84-35.49-3.86-44.82-9.33-15.47-13.19-25-10.46-24.12,2.5-31.85-1.6-16.16,1.6-21.62,3-13.33-5.47-28.27,6c-1.71.33-3.35.67-4.91,1,4.75-7.28,25.29-14.87,28.93-12.45S122.15,5,127.91,2s10-2.13,15.78,0,15.78,5.15,22.45,3.64S176.46,5,184,10.14,201.63,15,230.16,21.07,265.65,45.94,263.52,46.24Z" style="fill:#375089"/><path d="M225.17,49c-.75,1.58,1.67,2.34,2.75,2.6a47.37,47.37,0,0,0,7.47,1.17c.3,0,5.62.82,5,1.5-1.79,2-6.51,1.1-8.86,1.1a43.67,43.67,0,0,0-9,1,65.43,65.43,0,0,1-5.91-5.13c-9.1-8.87-28.67-26.39-72.36-34.35a160.93,160.93,0,0,0-20.94-2.44,11.07,11.07,0,0,1,.89-1.37c1.62-2.11,4.29-3.65,6.91-3.17,2.9.53,5.34,3.37,8.25,2.82,1.85-.35,4-2,5.3-.65.8.8.71,2.31,1.71,2.84,1.69.89,3.27-2.35,5.13-1.86,1.33.37,1.48,2.32,2.64,3.1,1,.68,2.37.21,3.38-.46a8.36,8.36,0,0,1,3.15-1.73c1.19-.18,2.64.89,2.23,2-.27.78-1.26,1.18-1.42,2a1.54,1.54,0,0,0,1.4,1.62,4.48,4.48,0,0,0,2.3-.52c2-.85,3.86-1.84,5.8-2.72.76-.34,3.35-1.6,3.76-.74.28.62-.7,1.87-.85,2.46a3.41,3.41,0,0,0,1.28,3.87,5.06,5.06,0,0,0,3.6.1c3.48-.78,7.16-2.76,10.81-2.26-1,2.43-4,2.17-5.11,4.08-1.16,2.08,4.53,2.57,5.94,2.64a15.07,15.07,0,0,0,4.87-1.06c.75-.22,4.14-1.23,2.88.74-.62,1-2.4.17-2.71,1.64-.82,3.89,4.87,3.24,7.09,2.64,1.07-.3,8.45-3,9-1.39.65,1.8-2.49,2-3.51,2.31-1.76.62-2.65,2.69-.45,3.73a5.88,5.88,0,0,0,3.53.15c4.51-.75,9-1.83,13.56-2.27,1.6-.16,12.8-1.07,12.34,1.58a1.37,1.37,0,0,1-.6.75,20,20,0,0,1-10.85,3.54c-1.72.11-6.34.93-4.74,3.78.64,1.11,2.19,1.18,3.48,1.1,7.11-.43,14.06-.74,21.17.14a2.33,2.33,0,0,1,1.86.88c1.62,3-7.45,3-8.84,3.1-3.73.18-7.46.06-11.18.25C226.5,48.09,225.53,48.23,225.17,49Z" style="fill:#7594ea"/><path d="M252.76,45.94C251.85,51.17,241.83,60,241.83,60a32,32,0,0,1-10.21,1.67,41.55,41.55,0,0,1-9.13-5.4,43.67,43.67,0,0,1,9-1c2.35,0,7.07.89,8.86-1.1.61-.68-4.71-1.47-5-1.5a47.37,47.37,0,0,1-7.47-1.17c-1.08-.26-3.5-1-2.75-2.6.36-.74,1.33-.88,2.14-.92,3.72-.19,7.45-.07,11.18-.25,1.39-.07,10.46-.14,8.84-3.1a2.33,2.33,0,0,0-1.86-.88c-7.11-.88-14.06-.57-21.17-.14-1.29.08-2.84,0-3.48-1.1-1.6-2.85,3-3.67,4.74-3.78a20,20,0,0,0,10.85-3.54,1.37,1.37,0,0,0,.6-.75c.46-2.65-10.74-1.74-12.34-1.58-4.57.44-9,1.52-13.56,2.27a5.88,5.88,0,0,1-3.53-.15c-2.2-1-1.31-3.11.45-3.73,1-.35,4.16-.51,3.51-2.31-.58-1.6-8,1.09-9,1.39-2.22.6-7.91,1.25-7.09-2.64.31-1.47,2.09-.66,2.71-1.64,1.26-2-2.13-1-2.88-.74a15.07,15.07,0,0,1-4.87,1.06c-1.41-.07-7.1-.56-5.94-2.64,1.07-1.91,4.13-1.65,5.11-4.08-3.65-.5-7.33,1.48-10.81,2.26a5.06,5.06,0,0,1-3.6-.1A3.41,3.41,0,0,1,173.86,18c.15-.59,1.13-1.84.85-2.46-.41-.86-3,.4-3.76.74-1.94.88-3.83,1.87-5.8,2.72a4.48,4.48,0,0,1-2.3.52,1.54,1.54,0,0,1-1.4-1.62c.16-.8,1.15-1.2,1.42-2,.41-1.14-1-2.21-2.23-2a8.36,8.36,0,0,0-3.15,1.73c-1,.67-2.38,1.14-3.38.46-1.16-.78-1.31-2.73-2.64-3.1-1.86-.49-3.44,2.75-5.13,1.86-1-.53-.91-2-1.71-2.84-1.33-1.33-3.45.3-5.3.65-2.91.55-5.35-2.29-8.25-2.82-2.62-.48-5.29,1.06-6.91,3.17a11.07,11.07,0,0,0-.89,1.37,146.59,146.59,0,0,0-34.86,2.31c14.94-11.49,22.81-4.65,28.27-6s13.88-7,21.62-3S160.6,12,170.16,9.31s15.7,5,25,10.46,32.08,6.6,44.82,9.33S253.67,40.71,252.76,45.94Z" style="fill:#445b9b"/><path d="M284.4,116.36c-4.24.34-8.08-2.29-11.52-4.81L262,103.64c-4.72-8.16-7.19-16.11-4.83-20.16,3.3-5.68,3.07-5.91.34-15.92a9.76,9.76,0,0,1-.29-3.56l14.07-10.7A21.51,21.51,0,0,1,275,50.82a4.32,4.32,0,0,1,3.37-.26c-1.34,3.36-5.54,5.45-8.26,7.56-3.08,2.37-6.18,5-7.75,8.63a2.41,2.41,0,0,0-.24,1.83c.45,1.18,2.14,1.13,3.38.85a29.76,29.76,0,0,1,6.28-1.12c.76,0,2.46,0,3,.64,1.16,1.47-7.34,2.66-8.08,2.83-1.26.31-2.73.81-3.05,2.07a2.42,2.42,0,0,0,.9,2.34A7.14,7.14,0,0,0,267,77.38l8.28,3c.77.27,1.65.65,1.85,1.45.29,1.19-1.14,2-2.32,2.32a19.78,19.78,0,0,1-6,.57,7.11,7.11,0,0,0-2.48.08,2,2,0,0,0-1.55,1.76c0,1,.92,1.64,1.74,2.15l7.93,4.94c1.71,1.06,7.53,2.56,7.8,5,.24,2.09-4.38.24-5.16-.09-2.82-1.2-5.19-3.1-8.24-3.8-2.79-.64-4.19,1.54-2.59,3.9,2.42,3.55,6.16,5.93,9.66,8.42S282.85,112.35,284.4,116.36Z" style="fill:#7594ea"/><path d="M252,115.72c-11.52,4.4-20.17,3.19-25,6.67s-4.7,4-15.17,2.48-12.44-.41-15.77,0-22.42-2.4-25.32-5.93c3.57-1,7-2,10.23-3a31.05,31.05,0,0,0,10.66,5.58,2.91,2.91,0,0,0,1.05.15,1.2,1.2,0,0,0,.9-.48,1.31,1.31,0,0,0-.59-1.68,8.34,8.34,0,0,0-1.86-.64,1.86,1.86,0,0,1-1.34-1.3c-.2-1.5,1.2-.53,1.74-.24.86.46,1.7,1,2.59,1.42a33,33,0,0,0,4.4,1.59,38.19,38.19,0,0,0,6.06,1.19c.64.09,3,.71,2.88-.49-.07-.66-1.44-1.27-2-1.48a20.9,20.9,0,0,0-3.24-.87,10.67,10.67,0,0,1-2.94-1c-.61-.32-2-1.21-1.92-2a.77.77,0,0,1,.77-.57c4.06-.18,8.44,2.09,12.1,3.56a27.4,27.4,0,0,0,6.34,1.83,21,21,0,0,0,3.45.33,6.52,6.52,0,0,0,1.8-.4c.73-.25,1.21-.66.52-1.11-.86-.58-2.52-.44-3.51-.56a48.38,48.38,0,0,1-7-1.08,11.85,11.85,0,0,1-3.54-1.59c-.5-.33-2.81-2.13-1.63-2.74,1.61-.82,4.12.61,5.75.81l6.19.71q6.25.72,12.55,1.38a8.12,8.12,0,0,0,3.47-.16c.64-.22,2.21-1,2.18-1.89,0-1.12-2.27-.77-3-.84-2-.19-3.94-.61-5.92-.84q-4.36-.53-8.76-1a23.45,23.45,0,0,1-3.72-.52c-.53-.16-3.28-1.54-2.39-2.47s2.18-.76,3.2-.82c1.5-.08,3-.35,4.45-.44a42.68,42.68,0,0,1,10.16.55c6,1.06,12.19,3.09,18.34,3a1.63,1.63,0,0,0,.66-.1c.71-.32.46-1.29-.05-1.67a3.22,3.22,0,0,0-1.58-.42,170.87,170.87,0,0,1-23.69-3.7c-1.19-.27-2.58-.75-2.88-1.94a2.33,2.33,0,0,1,1.68-2.53,6.91,6.91,0,0,1,3.32,0L244,103.4a2.08,2.08,0,0,0,1.75-.21,1.44,1.44,0,0,0-.18-2,4.21,4.21,0,0,0-2.15-.8c-7.86-1.33-15.77-2.66-23.75-2.54-1.84,0-3.69.14-5.53.35,1-.8,2-1.51,2.93-2.16h0c.55-.19,16.78-5.6,29.15,3.35a83.79,83.79,0,0,0,11.63,6.91C259.06,108.81,259.41,112.89,252,115.72Z" style="fill:#445b9b"/><path d="M263,113.37c-6.27,4.17-16.74,9-24.17,9.48s-7.13.54-7.73,2-8.44,3.28-14,2.37-13.15-.3-12.24,1.07-15.62-.76-19.11-2-4.7-2.42-5.92-.3-10.47-1.39-13.95-5.78q2.47-.63,4.87-1.31c2.9,3.53,22,6.34,25.32,5.93s5.3-1.57,15.77,0,10.31,1,15.17-2.48,13.5-2.27,25-6.67c7.42-2.83,7.07-6.91,5.87-9.47C264,109.36,267.08,110.63,263,113.37Z" style="fill:#375089"/><path d="M249.84,110.58a1.63,1.63,0,0,1-.66.1c-6.15.12-12.32-1.91-18.34-3a42.68,42.68,0,0,0-10.16-.55c-1.49.09-3,.36-4.45.44-1,.06-2.43,0-3.2.82s1.86,2.31,2.39,2.47a23.45,23.45,0,0,0,3.72.52q4.4.5,8.76,1c2,.23,3.93.65,5.92.84.73.07,3-.28,3,.84,0,.88-1.54,1.67-2.18,1.89a8.12,8.12,0,0,1-3.47.16q-6.28-.66-12.55-1.38l-6.19-.71c-1.63-.2-4.14-1.63-5.75-.81-1.18.61,1.13,2.41,1.63,2.74a11.85,11.85,0,0,0,3.54,1.59,48.38,48.38,0,0,0,7,1.08c1,.12,2.65,0,3.51.56.69.45.21.86-.52,1.11a6.52,6.52,0,0,1-1.8.4,21,21,0,0,1-3.45-.33,27.4,27.4,0,0,1-6.34-1.83c-3.66-1.47-8-3.74-12.1-3.56a.77.77,0,0,0-.77.57c-.08.83,1.31,1.72,1.92,2a10.67,10.67,0,0,0,2.94,1,20.9,20.9,0,0,1,3.24.87c.52.21,1.89.82,2,1.48.15,1.2-2.24.58-2.88.49a38.19,38.19,0,0,1-6.06-1.19,33,33,0,0,1-4.4-1.59c-.89-.39-1.73-1-2.59-1.42-.54-.29-1.94-1.26-1.74.24a1.86,1.86,0,0,0,1.34,1.3,8.34,8.34,0,0,1,1.86.64,1.31,1.31,0,0,1,.59,1.68,1.2,1.2,0,0,1-.9.48,2.91,2.91,0,0,1-1.05-.15,31.05,31.05,0,0,1-10.66-5.58c14.11-4.55,24.55-9.31,28.13-13.06a49.74,49.74,0,0,1,5.06-4.67c1.84-.21,3.69-.32,5.53-.35,8-.12,15.89,1.21,23.75,2.54a4.21,4.21,0,0,1,2.15.8,1.44,1.44,0,0,1,.18,2,2.08,2.08,0,0,1-1.75.21l-17.35-3.05a6.91,6.91,0,0,0-3.32,0,2.33,2.33,0,0,0-1.68,2.53c.3,1.19,1.69,1.67,2.88,1.94a170.87,170.87,0,0,0,23.69,3.7,3.22,3.22,0,0,1,1.58.42C250.3,109.29,250.55,110.26,249.84,110.58Z" style="fill:#7594ea"/><path d="M120.43,134.12c7.65-1.12,17.88,1.27,31.64,2.68,19.16,2,20.89-2.42,17.56-4.24-1.94-1.06-2.72-3.8-3-5.91a14.33,14.33,0,0,1,4.11,2.42c3.77,3.56,10.14,5.16,13.56,5.16C187.41,134.23,158.36,147.46,120.43,134.12Z" style="fill:#375089"/><path d="M152.07,136.8c-13.76-1.41-24-3.8-31.64-2.68h0c-3.31-1.17-6.68-2.53-10.11-4.13a328.48,328.48,0,0,0,44-6.92,73.36,73.36,0,0,1,12.32,3.57h0c.31,2.11,1.09,4.85,3,5.91C173,134.38,171.23,138.78,152.07,136.8Z" style="fill:#445b9b"/><path d="M140.14,106.79c0,.14-.14.24-.27.3-7.72,4-16.72,4-25.21,3.62-.58,0-4.3-.48-2.69,1.21a2.59,2.59,0,0,0,1.42.6q6.28,1.19,12.66,1.76,3.13.27,6.28.4l3.14.08a11.57,11.57,0,0,1,2.12-.14c1.06.22.76,1.21,0,1.66a4.25,4.25,0,0,1-1.77.4,83.62,83.62,0,0,1-25.7-2.29c-.65-.16-1.68,0-1.48.68a1,1,0,0,0,.46.46,31,31,0,0,0,20.47,4.19.33.33,0,0,1,.3.54c-2.09,2.38-5.78,2.86-9,2.86a65.75,65.75,0,0,1-16.1-2,21.53,21.53,0,0,0-2.7-.56h0a42,42,0,0,1-6.66-4.93c-2.73-2.47-4.72-5-5.28-7.12a7.61,7.61,0,0,1,2.44-7.82,3.87,3.87,0,0,1,1.5-.82,5.86,5.86,0,0,1,2.41-.19,19.68,19.68,0,0,1,4.34,1.1c3.68,1.24,20.94,2.15,32.93.32l5.38,0,3.14,0a4.17,4.17,0,0,1,1.7.09,17.18,17.18,0,0,1-5.17,1.91,52.1,52.1,0,0,1-5.67,1.25c-3.79.64-7.63,1-11.46,1.25-1.94.15-4.23-.13-6.09.44,1.51.71,3.45.59,5.07.74,2.09.18,4.17.33,6.26.39a76.7,76.7,0,0,0,12.76-.56C139.83,106.52,140.14,106.57,140.14,106.79Z" style="fill:#98b9f9"/><path d="M150.36,103.89c-3,4.47-3.86,2.12-7.05,10.9S123.06,125.35,114,124.87c-3.66-.19-8-1.91-11.94-4.31a21.53,21.53,0,0,1,2.7.56,65.75,65.75,0,0,0,16.1,2c3.26,0,7-.48,9-2.86a.33.33,0,0,0-.3-.54,31,31,0,0,1-20.47-4.19,1,1,0,0,1-.46-.46c-.2-.64.83-.84,1.48-.68a83.62,83.62,0,0,0,25.7,2.29,4.25,4.25,0,0,0,1.77-.4c.77-.45,1.07-1.44,0-1.66a11.57,11.57,0,0,0-2.12.14l-3.14-.08q-3.15-.14-6.28-.4-6.37-.57-12.66-1.76a2.59,2.59,0,0,1-1.42-.6c-1.61-1.69,2.11-1.24,2.69-1.21,8.49.42,17.49.43,25.21-3.62.13-.06.27-.16.27-.3s-.31-.27-.53-.23a76.7,76.7,0,0,1-12.76.56c-2.09-.06-4.17-.21-6.26-.39-1.62-.15-3.56,0-5.07-.74,1.86-.57,4.15-.29,6.09-.44,3.83-.3,7.67-.61,11.46-1.25a52.1,52.1,0,0,0,5.67-1.25,17.18,17.18,0,0,0,5.17-1.91,4.17,4.17,0,0,0-1.7-.09l-3.14,0-5.38,0a41.15,41.15,0,0,0,6.44-1.46C151.05,96,153.32,99.41,150.36,103.89Z" style="fill:#445b9b"/><path d="M52.37,77.29a7.47,7.47,0,1,1-7.47-7.48A7.47,7.47,0,0,1,52.37,77.29Z" style="fill:#496bb7"/><path d="M39.93,77.29a5,5,0,1,1,5,5A5,5,0,0,1,39.93,77.29Z" style="fill:#70a7bf"/><circle cx="44.9" cy="77.29" r="2.81" style="fill:#2b2b2b"/><path d="M250.89,83.42c-2.69,5.71-9.69,3.81-14.42,2.38C230.63,84,224.54,83,219,80.45c-12.29-5.58-21.85-15.55-33.57-22.07-20.18-11.23-57.8,4.24-76.91,1.65a37.76,37.76,0,0,1-6.81-1.64c-8.89-2.94-32-16.34-17.78-26.88,8.13-6,22-6.7,31.74-7.09a133.48,133.48,0,0,1,34.88,3.64c11.57,2.66,23.47,5.51,34.16,10.83a68.43,68.43,0,0,1,9.23,5.49c8.2,5.84,13.81,13.56,23.27,17.88a50.11,50.11,0,0,0,28.44,4C256.28,64.63,253.74,77.4,250.89,83.42Z" style="fill:#84a6f4"/><path d="M44.9,57.32c-18.09.23-19.54,18-19.68,20-.19,2.6-1.14,8-6.37,6.07s-9.79-13.53-6.6-27.54S46.25,30,58.21,38,63,57.09,44.9,57.32Z" style="fill:#a0789e"/><path d="M151.55,33l-1-.16c-7-1-48.81-6.86-58,1.47-6.79,6.17,4.88,10.19,9.49,11.4,11.84,3.1,24.22,2.89,36.34,2,6.08-.42,12.14-1.12,18.23-1.5,4.16-.26,10.07.53,12.93-3.26,4-5.35-15.32-9.31-18.36-10.05Z" style="fill:#98b9f9"/><path d="M45.17,75.33a1.75,1.75,0,1,1,1.74,1.74A1.74,1.74,0,0,1,45.17,75.33Z" style="fill:#eae3dd"/><path d="M151.55,128.75c-7.27.26,0,1.84,4.33,2.75s1.37,2.17-8.76.57-15.81-1.93-12.51-.33c3,1.42-8.73-.57-14.94-2.7,9.62-1.13,19.28-2.74,28.51-4.67,4.12.71,10.13,2.09,13,4.38C165.89,132.41,158.82,128.5,151.55,128.75Z" style="fill:#7594ea"/><path d="M25.5,116.07c.14,2.65-13.65,8.32-25.12,7.07a3.52,3.52,0,0,1,.16-3.41c4.76,2.42,18.4-1.88,17.57-3.13s-4-1.49-4-1.49a58.73,58.73,0,0,1-10.66-4.58h0c-.66-1.13-1.26-3,.72-4.29,3-2,2.73.36,11.22,3.27S25.35,113,25.5,116.07Z" style="fill:#b7757f"/><path d="M.54,119.73A3.54,3.54,0,0,1,2,118.3c1.14-.46,12.06-3.19,12.06-3.19s3.13.13,4,1.49S5.3,122.15.54,119.73Z" style="fill:#c68794"/><path d="M29.22,117.36c-1.7,2.15-11.6,8.39-24.13,8.87A6.59,6.59,0,0,1,2,125.12a5.86,5.86,0,0,1-1.63-2c11.47,1.25,25.26-4.42,25.12-7.07-.15-3-1.66-3.64-10.16-6.56s-8.19-5.27-11.22-3.27c-2,1.32-1.38,3.16-.72,4.29a11.79,11.79,0,0,1-2.35-1.76c-.16-1.49,0-3.44,2-4.45,3.21-1.67,3.89-1,9.05,1.18S22.85,111,26,111.6,31.27,114.78,29.22,117.36Z" style="fill:#98b9f9"/></g></g></svg>