<svg xmlns="http://www.w3.org/2000/svg" viewBox="0 0 272.76 123.39"><title>bluefin-notho</title><g id="Layer_2" data-name="Layer 2"><g id="Ñëîé_2" data-name="Ñëîé 2"><path d="M69.79,67.29c-1.74-2.68-11.21-19.5-14.48-26.06-3.17-6.34-13.49-4.66-14.18-4.54h0c.29,0,8.77.94,12.57,7.82S61.26,63,64.54,67.44s-2.68,8.79-8.49,13.25c-1.12.86-2.16,1.68-3.15,2.43h0c-.34.16-9.48,4.29-14.54-1.18S30.1,72.7,28.7,71s-.74-3,2.56-4.57,9.33-6.2,9.2-12.48S37.78,42.83,27.29,39.55A194.49,194.49,0,0,0,6.64,44.62c2.32.2,4.75,5.41,4.3,8.9s.45,5.29,2.45,7.67,2.16,4.39-.81,3.57-4.17-2.53-3.73-4.69a12.47,12.47,0,0,0,0-4.29c.38,4.66-2.72-6.22-6.86-7.25s-.9,7,1.34,11.62,9.08,20.25,35.88,26.5l1.87.43.28.07c3,.7,5.56,1.3,7.76,1.83h0c5.14-.35,9.74-5.76,16.43-10.15S71.54,70,69.79,67.29ZM15.05,53.78c0-.16,0-.32,0-.48s0-.32,0-.49a11.25,11.25,0,1,1,0,1Z" style="fill:#c66f58"/><path d="M12.58,64.76c-3-.82-4.17-2.53-3.73-4.69a12.47,12.47,0,0,0,0-4.29.43.43,0,0,0,0-.05.12.12,0,0,0,0,0c-.44-4.91-3.72-9.38-3.72-10.27,0-.17.54-.44,1.5-.79h0c2.32.2,4.75,5.41,4.3,8.9s.45,5.29,2.45,7.67S15.55,65.58,12.58,64.76Z" style="fill:#f7b19f"/><path d="M220.35,57.47c.9-1.49,1-3.06-1.15-5.94s-2.86-2.78-2.49-5a22.85,22.85,0,0,0,0-5.3c-1.22.23-2.5.45-3.89.63l-.48.06a96.2,96.2,0,0,1-14.39.61,83.43,83.43,0,0,1-21.86-3.29,50.72,50.72,0,0,1-5.22-1.92q-.74-.3-1.44-.63c-2.16-1-4.27-2-6.4-3l-1.85-.91h0c-1.19-.58-2.39-1.13-3.61-1.65-.88-.38-1.78-.74-2.68-1.08-2.52-.94-5.08-1.81-7.65-2.59l-1.79-.53a136.23,136.23,0,0,0-13.84-3.24c-1.72-.31-3.44-.59-5.17-.82a126,126,0,0,0-19.88-1.24c-28.52.53-50.25,10.9-65.4,15.11.69-.12,11-1.8,14.18,4.54,3.27,6.56,12.74,23.38,14.48,26.06s2.49,7.15-4.21,11.54S54.29,88.63,49.15,89c3.31.8,5.83,1.42,7.86,2,0,0,5.68-6.12,17-2.94s34.17,12.68,53.43,4.45,39.05-22,56.33-20.36h0c.59-.11,1.17-.19,1.74-.27h0q1.77-.24,3.45-.3a27.91,27.91,0,0,1,15.27,3.85c1.86-.12,4.76-.62,4.63-1.81s1.54-.9,3.37-1.12,1.68-.82,1.55-1.94S216,68.56,217.6,68s1.19-1.72.61-4.1,1.11-1.26,2.07-2.75S219.46,59,220.35,57.47Zm-10,1.93c-1.33,4.32-13,2.76-13,2.76A144.82,144.82,0,0,0,172,61.21a225.66,225.66,0,0,0-30.12,3.36,124.21,124.21,0,0,0-16,3.66c-5.06,1.61-10.11,3.08-15.46,3.12a49.5,49.5,0,0,1-14-2.13,2,2,0,0,0,.32.75c1.19,1.79-1,1.94-.83,3.28s-.51,2.08-.06,3.52-1.49,1.39-1,2.43.3,2.54-1.93,2.54-1.49.74-3.72,1-15.19-1-13.55-5.06-1.64-7-1.64-7c-.48-.55,4.79-3.58,9.36-6.15-4.24-1.89-8.34-4.29-11.3-7.55C65,49.13,62.6,36.62,82.41,32.76s57,3.71,71.76,9.3,31.72,5.43,44.84,6S211.65,55.08,210.32,59.4Z" style="fill:#f29e83"/><path d="M225.64,63.67A8.78,8.78,0,0,1,220.78,71c-2.78,1.48-2.58,2.08-2.58,3.87s-.8,1.68-4.77,2.48c-2.07.42-2.63,1.65-2.69,2.73a41.51,41.51,0,0,0-6.46-4.74c1.86-.12,4.76-.62,4.63-1.81s1.54-.9,3.37-1.12,1.68-.82,1.55-1.94S216,68.56,217.6,68s1.19-1.72.61-4.1,1.11-1.26,2.07-2.75-.82-2.23.07-3.72,1-3.06-1.15-5.94-2.86-2.78-2.49-5a22.85,22.85,0,0,0,0-5.3c1.24-.24,2.4-.51,3.49-.8.13.19,2.55,4,2,6.17s3.07,4.66,2.62,7S225.94,60.19,225.64,63.67Z" style="fill:#cc5333"/><path d="M229.25,72.61c-2.52,3.37-3.31,4.86-6.49,5.75S217.2,80,217.3,82a3.69,3.69,0,0,1-1.47,3.09c-1.58-1.63-3.26-3.33-5.09-5,.06-1.08.62-2.31,2.69-2.73,4-.8,4.77-.7,4.77-2.48S218,72.5,220.78,71a8.78,8.78,0,0,0,4.86-7.35c.3-3.48-1.3-7.64-.85-10s-3.22-4.86-2.62-7-1.84-6-2-6.17c1.33-.35,2.56-.73,3.71-1.12a8,8,0,0,1,.88,4.71c-.34,2.68,1.25,4.86,4,6s2,1.59,1.88,5.46-.59,4.37,1.05,7.34S231.78,69.23,229.25,72.61Z" style="fill:#f9f6cf"/><path d="M236.26,73.1c-4,2.38-6.94,4.17-6.94,7.55S224.75,85,223.16,86a9,9,0,0,0-3.3,3.19c-1.29-1.27-2.62-2.69-4-4.15A3.69,3.69,0,0,0,217.3,82c-.1-2,2.28-2.71,5.46-3.6s4-2.38,6.49-5.75,4.13-6.76,2.5-9.74-1.15-3.47-1.05-7.34.9-4.27-1.88-5.46-4.37-3.37-4-6a8,8,0,0,0-.88-4.71c1.8-.62,3.4-1.28,4.92-1.93a5.65,5.65,0,0,1,1.28,4.68c-.6,3.45-.4,4.64,3,6.43s4.27,4.16,4.22,6.94-2.72,3.09,0,6.61S240.23,70.72,236.26,73.1Z" style="fill:#cc5333"/><path d="M247,61.34c-2.78-1.84-4.37-2.73-4.17-5.71s-3-8.34-5.36-9.93-2.38-5.76-2.38-7.34c0-.89-1-2-1.94-2.85-1.4.59-2.8,1.23-4.3,1.87a5.65,5.65,0,0,1,1.28,4.68c-.6,3.45-.4,4.64,3,6.43s4.27,4.16,4.22,6.94-2.72,3.09,0,6.61,2.92,8.68-1.05,11.06-6.94,4.17-6.94,7.55S224.75,85,223.16,86a9,9,0,0,0-3.3,3.19A34.25,34.25,0,0,0,223,92c1.06.81,2.13,1.62,3.21,2.41-2.17-1.56-1-5.39,2.75-6s4.36,3.77,6,2.38,2.78-2,5.77-2.19,4-3.17,2-5.76S243,73.5,247,71.51,249.76,63.17,247,61.34Zm-8.53,23a8.7,8.7,0,0,1-2.88,0c-1.19-.09-4-3.87-2.09-4.66s5.83,1.59,5.83,1.59C241.05,82.13,239.64,84.12,238.45,84.31Z" style="fill:#f9f6cf"/><path d="M263.66,77.27c-1.79,1.59.2,4.15-1.59,5.55s-9.33,6.16-8.74,8.94-4.76,6.12-6.35,5.84-4,.11-4.37,1.7-8.2.54-10.71-1l-.15-.1c-1.76-1.15-3.58-2.41-5.41-3.73l-.17-.13c-2.17-1.56-1-5.39,2.75-6s4.36,3.77,6,2.38,2.78-2,5.77-2.19,4-3.17,2-5.76S243,73.5,247,71.51s2.78-8.34,0-10.17-4.37-2.73-4.17-5.71-3-8.34-5.36-9.93-2.38-5.76-2.38-7.34c0-.89-1-2-1.94-2.85A41.35,41.35,0,0,1,237.25,34a22.78,22.78,0,0,1,7-1.08c1.62,1,3.34,2.41,3.91,3.78,1.19,2.86.8,6,3.78,7.23s5.36,5.85,4.56,7-1.39,11.81,1.79,13.62S265.44,75.68,263.66,77.27Z" style="fill:#cc5333"/><path d="M272.59,80.25c-1.19,5.16-10.12,14.89-11.91,14.89s-3.18,2.18-5.75,3.77-2.19,3.37-5.17,2.78-4.17,1.19-7.15,1.59c-1.84.24-6-1.88-10.71-5,2.51,1.51,10.32,2.54,10.71,1s2.79-2,4.37-1.7,7-3.06,6.35-5.84,7-7.54,8.74-8.94-.2-4,1.59-5.55-2.18-10.92-5.36-12.73-2.58-12.48-1.79-13.62-1.58-5.81-4.56-7-2.59-4.37-3.78-7.23c-.57-1.37-2.29-2.74-3.91-3.78,4.63.05,7.44,1.79,9.67,2.07,3.17.4,4.37,5.76,7.34,6.55s4.77,5.76,6.56,10.73.39,6,.39,11.71S273.78,75.08,272.59,80.25Z" style="fill:#7f6567"/><path d="M145.42,26.88a136.23,136.23,0,0,0-13.84-3.24c-1.72-.31-3.44-.59-5.17-.82,0,0,6.07-5.68,12.18-10.82,0,0,3.67,2,3.52,3.78s3.73,3.81,3.28,5.18S145.42,26.88,145.42,26.88Z" style="fill:#7f6567"/><path d="M157.54,31.08c-.88-.38-1.78-.74-2.68-1.08-2.52-.94-5.08-1.81-7.65-2.59-.4-2.36,2.4-3.84.71-5.84s-1.83-3.91-1-4.35,2.53.24,4.51,1.58,1.69,2.53,1.94,5,1.29,2.48,2.83,3.72A4.56,4.56,0,0,1,157.54,31.08Z" style="fill:#7f6567"/><path d="M161.18,32.73h0c-1.19-.58-2.39-1.13-3.61-1.65a4.56,4.56,0,0,0-1.38-3.54c-1.54-1.24-2.58-1.24-2.83-3.72s0-3.68-1.94-5-3.72-2-4.51-1.58-.65,2.34,1,4.35-1.11,3.48-.71,5.84l-1.79-.53s-.48-4.55,0-5.92-3.43-3.4-3.28-5.18S138.59,12,138.59,12c.55-.46,1.09-.92,1.63-1.36a20.84,20.84,0,0,0,5.2,2c2.3.4,1.61,2.78,3.2,2.19s5-2,5,.09.4,2.19,2.78,2.68,3.47-.74,3.37,3.35-.44,6.16.89,9.16C161.83,32.8,161.3,32.77,161.18,32.73Z" style="fill:#f9f6cf"/><path d="M218.21,28.22c-3.88-1.18-6.46-1.77-5.47-3.16s2.48-3.55.39-3.37-3-.42-3.37-2.25,1.16-3.12-2.74-2.92-5.1-.2-5.6-1.68-1.73-4-4.14-3.58a5.59,5.59,0,0,1-5.19-2c-1.09-1.19-6.25-1.68-7.25-1.09A1.71,1.71,0,0,1,182.27,7c-.21-1.22-1-2.21-2.49-1.62s-2.31-.3-4.18-.39-4.85-.1-4.55-.89c.15-.42-.25-.88-.41-1.51-1.23.11-2.06-.14-1.88-1.13.45-2.38-.59-1.93-8.33,1.64s-8.19,4.32-9.38,1c-.53-1.46-5.49,2.09-10.83,6.48a20.84,20.84,0,0,0,5.2,2c2.3.4,1.61,2.78,3.2,2.19s5-2,5,.09.4,2.19,2.78,2.68,3.47-.74,3.37,3.35-.44,6.16.89,9.16c1.21,2.68.68,2.65.56,2.61l1.85.91c2.13,1,4.24,2.08,6.4,3,0,0-4.34-5.18-4-7.66A15.88,15.88,0,0,0,163.62,21c-1.11-2.16-1.51-6.33-4.28-6.23s-2.09-.19-3.68-1.78-4.57-1.24-2.28-2.31,5.16-1.31,5.36,0a5.18,5.18,0,0,0,3.18,3.5c1.68.7,3.57,3.38,4.56,6.15s1.52,5,3,6.59,3,7.22,1.44,10.44a50.72,50.72,0,0,0,5.22,1.92A83.43,83.43,0,0,0,198,42.53a96.2,96.2,0,0,0,14.39-.61s-2.86-3.76-2-4.6,1.72-2.34,3.51-2,2.88,1.19,2.09-.89-1.2-3.3.29-4S222.09,29.4,218.21,28.22ZM192.14,13c.82-.82,2.08,1.64,4.09,1.18a2.17,2.17,0,0,1,2.54,1.68c1,1.49-1.49,1.68-3,1.68s-1.12-1-3-1.27S191.32,13.84,192.14,13Zm-4.81,1.22c2.46-.08,1.19,2.68,0,2.84s-1.49.63-2.88.44-1.79-2.29-.64-2.89A8.6,8.6,0,0,1,187.33,14.24Zm-6.28-3.6c1.41-1.26,2.76.45,2.76.45,1.46.89-1.35,2.08-2.76,1.76S179.63,11.91,181.05,10.64ZM207,39.78c-.3.76-2.68,1.75-8.24,1.36,0,0-2.2-.28-1.2-1.33s.9-1.65,4.58-1.25S207.28,39,207,39.78Zm-9-8.7c-.79-1.92-.4-2.15,1-2.67s2.88.12,4.17.92,0,3,0,3a19.18,19.18,0,0,1-1.79,4.39c-1.09,1.61-3.87-.41-3.78-.91S198.74,33,198,31.08Zm8.73-5.73c-2.08.3-2.38-1.15-4.86-1.27s-2.38.08-4.17,1.77-3.68,1.77-4.07,1-.8-2.12-2.58-1.82-4.07,1.69-2,2.78,2.09,1,3.48,2.38,1.39,2.38,1.48,5.26,0,4.07-2,4.27-3.87,0-3.47-3.06a7.22,7.22,0,0,0-2-6.57,10.14,10.14,0,0,1-2.72-5.26c-.35-1.89-2.44-3.28-4.33-4.87s-3.27-3-2.78-3.87.3-2.28-2.58-1.19a3.7,3.7,0,0,0-.1,6.76c3,1.58,7.55,3.87,7.95,6.64a14.65,14.65,0,0,0,2.68,6.55c1.09,1.49,1,5.36-1.49,4.43-.47-.18-5.27-1.25-5.27-4.92s-2-9-4-10.31-4.17-2.69-5.36-5.18S165,14,162.81,12s-5.46-2.33-3.47-3.52,7.34-2.58,7.34,0,.6,3.87,2,4.17,2.59,1.39,3.58.6l1-.8s.4-.54-1-1.81-.8-3.05.69-1.46,2.28,1.37,4.57,2.82,2.28,1.14,2.68,3.53a5.55,5.55,0,0,0,4,4.76c2.08.5,2-.57,2.88,1.4s2,2.16,2.68,1.47,3.47-.24,1.88-2.2-3.77-3.94-.79-3.25,4.17.7,4.37,2.68,2,1.94,3.07,1.18,1.69-1.4,1.69-2.13,1.69-.54,4.27-.44,5.36,1,4.57,2.69S208.77,25.06,206.68,25.35Zm5.56,4.45c-.3,2.1-.57,2.5-1.92,2.5a2.29,2.29,0,0,1-1.95-1.22s-.3-2.65,1.29-2.55S212.54,27.7,212.24,29.8Z" style="fill:#7f6567"/><path d="M170.87,37.32q-.74-.3-1.44-.63s-4.34-5.18-4-7.66A15.88,15.88,0,0,0,163.62,21c-1.11-2.16-1.51-6.33-4.28-6.23s-2.09-.19-3.68-1.78-4.57-1.24-2.28-2.31,5.16-1.31,5.36,0a5.18,5.18,0,0,0,3.18,3.5c1.68.7,3.57,3.38,4.56,6.15s1.52,5,3,6.59S172.47,34.1,170.87,37.32Z" style="fill:#f9f6cf"/><path d="M219.54,35.88c-3.87-.45-2.68,1.63-3.13,3a4.19,4.19,0,0,1-3.59,3l-.48.06s-2.86-3.76-2-4.6,1.72-2.34,3.51-2,2.88,1.19,2.09-.89-1.2-3.3.29-4,5.88-1,2-2.14-6.46-1.77-5.47-3.16,2.48-3.55.39-3.37-3-.42-3.37-2.25,1.16-3.12-2.74-2.92-5.1-.2-5.6-1.68-1.73-4-4.14-3.58a5.59,5.59,0,0,1-5.19-2c-1.09-1.19-6.25-1.68-7.25-1.09A1.71,1.71,0,0,1,182.27,7c-.21-1.22-1-2.21-2.49-1.62s-2.31-.3-4.18-.39-4.85-.1-4.55-.89c.15-.42-.25-.88-.41-1.51a40,40,0,0,0,5.72-1.28c2.53-.59,2.38-.14,1.93,1.49S183.8,1,183.8,3s1.34,3.72,8.49,3.43,7.74,1.49,7.89,3.87,7.3.44,9.83,4.32,3.87,1,6.25,4.31-.59,1.72,1.64,3.92,4.47,2,4.32,4.27-.45,2.09,1.78,4.77S223.41,36.32,219.54,35.88Z" style="fill:#eae3dd"/><path d="M204.35,99.45c-1,1.64,0,0-.6,5.66s-11.61,13.25-14.14,13.25a7.87,7.87,0,0,0-5.81,2.53c-1.49,1.49-4.61,3.88-8.2,1.49s-5.2,1.34-7.28.15-2.24,1.49-5.36,0-2.53,1.93-4.77,0-3.27-.31-6.7,0c-1.22.11-3.41-1.29-5.91-3.39,1.41-.67,3.78-1.52,4.92-.38,1.69,1.69.47,1.88,3,1.39s2.3-.82,3.69.24,1.28,1.25,2.82.65,1.25-1.38,2.24-.79,1.69,1,3.68.1,1.58-1.69,3.07-1,.2,1.16,2.48.43,3.05-2,4.16-.63,2.4,2.68,3.69,1.39,1-2.51,3.27-2.35,2.88-2.52,4.57-2.32,3.77-.3,4.37-1.69,1.19-3.07,2.68-2.08,2.23-.79,3.1-2.38a6.24,6.24,0,0,1,3.25-3.18c1.78-.89,1.19-3.08,1.09-4s-1.49-2.19-.3-4,2.29-2,1.29-3.23-2.18-2.68-1.49-3.52-.09-1.94-.79-3-2.28-1.84-1.69-2.93-.2-2.4-.59-3.08-.82-3.12-.07-4a1.81,1.81,0,0,1,.41,1c0,1.49,3.58,4.32,2.83,6.25s4,4.32,3.13,6.7S205.39,97.82,204.35,99.45Z" style="fill:#eae3dd"/><path d="M201.32,98.56c1.2-1.83,2.29-2,1.29-3.23s-2.18-2.68-1.49-3.52-.09-1.94-.79-3-2.28-1.84-1.69-2.93-.2-2.4-.59-3.08-.82-3.12-.07-4a9.07,9.07,0,0,0-1.59-1.66c-1.13,1.15-.58,3.41-.77,4.37-.24,1.19-.75,1.58-1.94,2.28s.59,2.58,1.39,3.38-.3,2-1.19,3a6.57,6.57,0,0,0-1.59,4c-.1,1.59,1.89,2.09,1.49,3s-3.28-.1-6-.89-3.17,1.19-5.16,1.37-3.77,2.79-5.16,2.9-1.69,1.78-3.18,2.08-2,1.39-2.79,2.73-3.46.65-4.55-.84,1.09-1,.89-2.19,3.68-1.49,4.66-2.2,3.38-1.47,3.88-2.48,3.67-1.77,6.35-2.27,4.07-1.68,3.77-2.89,1.69-1.18,2.74-3.06,2.72-3,1.73-4.95.4-1.6,1.19-2.49,1.78-2,1.49-2.88,1.94-2.49,1.94-2.49a28.26,28.26,0,0,0-6.41-3.51S186.83,76,187.82,78s2.09,3.94,1,4.85-1.9,1.1-4.58,2.69-5.25,2-4.46,4.27,0,3.67-1.68,3.57-4.87-.5-7.25,1.29-5.46,1.79-5.86,3.58-.06,2.08-4.3,3.47-4.73,1.09-6.22,3.08-5.76,2.38-6.06,4.26-.79,4.17-2.18,4-3-2.28-4.37-3.27-3.4-1.81-4.71-1.09a4.69,4.69,0,0,1-1.56.43,91.35,91.35,0,0,0,10,10.07c1.41-.67,3.78-1.52,4.92-.38,1.69,1.69.47,1.88,3,1.39s2.3-.82,3.69.24,1.28,1.25,2.82.65,1.25-1.38,2.24-.79,1.69,1,3.68.1,1.58-1.69,3.07-1,.2,1.16,2.48.43,3.05-2,4.16-.63,2.4,2.68,3.69,1.39,1-2.51,3.27-2.35,2.88-2.52,4.57-2.32,3.77-.3,4.37-1.69,1.19-3.07,2.68-2.08,2.23-.79,3.1-2.38a6.24,6.24,0,0,1,3.25-3.18c1.78-.89,1.19-3.08,1.09-4S200.13,100.39,201.32,98.56ZM153.3,113c-2.35-.28-2.1-1.79-1.06-2.41a2.29,2.29,0,0,1,2.13,0C156.16,111.57,155.66,113.3,153.3,113Zm8.91-5.07c-1.59,0-1.52,1.89-1.52,1.89-.66,1.62-2.94.49-4.24-1.59s1.2-.89,2.29-2.66,3-.72,4.37,0S163.8,107.94,162.21,107.94Z" style="fill:#7f6567"/><path d="M187.82,78c-1-2,1.39-4.91,1.39-4.91a37.94,37.94,0,0,0-3.65-1.25h0c-.57.08-1.15.16-1.74.27,2.62.25-.75,9.36-2.39,10.74s-3.57,3.68-8.34,4.57S168.62,91,165.34,92s-3.72,4.47-8.4,5.59-4,1.7-6.13,5-9.14,3.28-12.22,2.73-.65-2.13,1.63-5.23,5-.78,8.3-1.82,2.68-3.42,4-4.17,6.39-.74,8.85-3.27,2.15-4.17,4.24-5.66,5.06-1.94,5.89-4.32,5.21-7,5.21-7c-16.33,4.94-35.21,16.56-44.31,21.74a40.69,40.69,0,0,1-9.84,3.68,19.64,19.64,0,0,1,7.2,3.35,14.91,14.91,0,0,1,1.16-2c.79-1.1,2.57-1.59,3.27-3.87s3.28-2.59,6.15-4.27,1.7.29,1.3,1.68-1.89,2.48-3.58,3.46-1.68,2.79-4.17,3.39a4.09,4.09,0,0,0-2.69,2.82,13.83,13.83,0,0,1,1.8,2c.66.91,1.54,2,2.56,3.21a4.69,4.69,0,0,0,1.56-.43c1.31-.72,3.32.09,4.71,1.09s3,3.08,4.37,3.27,1.89-2.08,2.18-4,4.57-2.28,6.06-4.26,2-1.7,6.22-3.08,3.91-1.69,4.3-3.47,3.48-1.79,5.86-3.58,5.56-1.39,7.25-1.29,2.47-1.29,1.68-3.57,1.79-2.68,4.46-4.27,3.48-1.79,4.58-2.69S188.82,80,187.82,78Zm-42,10.86c.6-.54,3.17-1.24,4.36-1.63a6.27,6.27,0,0,0,3.38-2.29c.59-1.09,5.46-2.78,6-3s.5,1.37,0,2.47-1.88,1.77-2.78,3.06-1.09,2.09-2.68,2.18-2.28,1.4-4.76,2.14-1.79.94-4.07,0S145.84,88.83,145.84,88.83Z" style="fill:#cc5333"/><path d="M141.67,94.14c-.4,1.4-1.89,2.48-3.58,3.46s-1.68,2.79-4.17,3.39a4.09,4.09,0,0,0-2.69,2.82,14.83,14.83,0,0,0-1.44-1.24,14.91,14.91,0,0,1,1.16-2c.79-1.1,2.57-1.59,3.27-3.87s3.28-2.59,6.15-4.27S142.07,92.75,141.67,94.14Z" style="fill:#f9f6cf"/><path d="M195.62,81.54c-.24,1.19-.75,1.58-1.94,2.28s.59,2.58,1.39,3.38-.3,2-1.19,3a6.57,6.57,0,0,0-1.59,4c-.1,1.59,1.89,2.09,1.49,3s-3.28-.1-6-.89-3.17,1.19-5.16,1.37-3.77,2.79-5.16,2.9-1.69,1.78-3.18,2.08-2,1.39-2.79,2.73-3.46.65-4.55-.84,1.09-1,.89-2.19,3.68-1.49,4.66-2.2,3.38-1.47,3.88-2.48,3.67-1.77,6.35-2.27,4.07-1.68,3.77-2.89,1.69-1.18,2.74-3.06,2.72-3,1.73-4.95.4-1.6,1.19-2.49,1.78-2,1.49-2.88,1.94-2.49,1.94-2.49c.28.2.53.41.77.6C195.26,78.32,195.81,80.58,195.62,81.54Z" style="fill:#f9f6cf"/><path d="M99.83,110.47c-.9,0-2.09.3-2.24,2.83s-2.08,1.94-2.08,1.94a29.57,29.57,0,0,1-2.94-1.18c1,.29,2.45-1.68,2.54-2.37s.3-1.77,1.14-2,1.34-.6.35-2.12-.39-1.46.6-2.3c.67-.57-.72-2.54-1.7-3.77,1,.06,2.07.11,3.11.13,3,4.56-.38,5.25.18,5.68S100.72,110.47,99.83,110.47Z" style="fill:#7f6567"/><path d="M96.6,107.61c1,1.52.5,1.92-.35,2.12s-1,1.24-1.14,2-1.58,2.66-2.54,2.37C83,109.57,72.82,99,69.28,95.12l.51.21c1.8.71,4,1.56,6.81,2.63a64.79,64.79,0,0,0,18.9,3.58c1,1.23,2.37,3.2,1.7,3.77C96.21,106.15,95.61,106.08,96.6,107.61Z" style="fill:#cc5333"/><path d="M56.05,80.69c-1.12.86-2.16,1.68-3.15,2.43h0c-.34.16-9.48,4.29-14.54-1.18S30.1,72.7,28.7,71s-.74-3,2.56-4.57,9.33-6.2,9.2-12.48S37.78,42.83,27.29,39.55C30,39,32.84,38.46,35.66,38c1.7-.3,3.51-.73,5.44-1.27h0c.29,0,8.77.94,12.57,7.82S61.26,63,64.54,67.44,61.86,76.23,56.05,80.69Z" style="fill:#e88b72"/><path d="M26.27,54a3.05,3.05,0,1,1-3.05-3A3,3,0,0,1,26.27,54Z" style="fill:#2b2b2b"/><path d="M37.51,53.3a11.24,11.24,0,0,1-22.46.48,9.38,9.38,0,1,0,0-1,11.24,11.24,0,0,1,22.46.49Z" style="fill:#b25c4b"/><path d="M24.41,43.92a9.38,9.38,0,0,0-9.36,8.89c0,.17,0,.33,0,.49s0,.32,0,.48a9.38,9.38,0,1,0,9.36-9.86Zm-.52,17.42A7.37,7.37,0,1,1,31.26,54,7.36,7.36,0,0,1,23.89,61.34Z" style="fill:#c16756"/><path d="M23.89,46.6A7.37,7.37,0,1,0,31.26,54,7.36,7.36,0,0,0,23.89,46.6ZM23.22,57A3.05,3.05,0,1,1,26.27,54,3,3,0,0,1,23.22,57Z" style="fill:#f4f1ad"/><path d="M96,76.77c.44,1.43-1.49,1.39-1,2.43s.3,2.54-1.93,2.54-1.49.74-3.72,1-15.19-1-13.55-5.06-1.64-7-1.64-7c-.48-.55,4.79-3.58,9.36-6.15,2.4-1.34,4.6-2.57,5.68-3.23,3.12-1.94,6-1,6,0s.3,3.72,1.49,4.32c1,.51-.37,2,0,3.56a2,2,0,0,0,.32.75c1.19,1.79-1,1.94-.83,3.28S95.51,75.33,96,76.77Z" style="fill:#cc5333"/><path d="M238.45,84.31a8.7,8.7,0,0,1-2.88,0c-1.19-.09-4-3.87-2.09-4.66s5.83,1.59,5.83,1.59C241.05,82.13,239.64,84.12,238.45,84.31Z" style="fill:#cc5333"/><path d="M208.77,21.69c-.8,1.68,0,3.37-2.09,3.66s-2.38-1.15-4.86-1.27-2.38.08-4.17,1.77-3.68,1.77-4.07,1-.8-2.12-2.58-1.82-4.07,1.69-2,2.78,2.09,1,3.48,2.38,1.39,2.38,1.48,5.26,0,4.07-2,4.27-3.87,0-3.47-3.06a7.22,7.22,0,0,0-2-6.57,10.14,10.14,0,0,1-2.72-5.26c-.35-1.89-2.44-3.28-4.33-4.87s-3.27-3-2.78-3.87.3-2.28-2.58-1.19a3.7,3.7,0,0,0-.1,6.76c3,1.58,7.55,3.87,7.95,6.64a14.65,14.65,0,0,0,2.68,6.55c1.09,1.49,1,5.36-1.49,4.43-.47-.18-5.27-1.25-5.27-4.92s-2-9-4-10.31-4.17-2.69-5.36-5.18S165,14,162.81,12s-5.46-2.33-3.47-3.52,7.34-2.58,7.34,0,.6,3.87,2,4.17,2.59,1.39,3.58.6l1-.8s.4-.54-1-1.81-.8-3.05.69-1.46,2.28,1.37,4.57,2.82,2.28,1.14,2.68,3.53a5.55,5.55,0,0,0,4,4.76c2.08.5,2-.57,2.88,1.4s2,2.16,2.68,1.47,3.47-.24,1.88-2.2-3.77-3.94-.79-3.25,4.17.7,4.37,2.68,2,1.94,3.07,1.18,1.69-1.4,1.69-2.13,1.69-.54,4.27-.44S209.56,20,208.77,21.69Z" style="fill:#f9f6cf"/><path d="M212.24,29.8c-.3,2.1-.57,2.5-1.92,2.5a2.29,2.29,0,0,1-1.95-1.22s-.3-2.65,1.29-2.55S212.54,27.7,212.24,29.8Z" style="fill:#f9f6cf"/><path d="M203.11,32.3a19.18,19.18,0,0,1-1.79,4.39c-1.09,1.61-3.87-.41-3.78-.91s1.2-2.78.41-4.7-.4-2.15,1-2.67,2.88.12,4.17.92S203.11,32.3,203.11,32.3Z" style="fill:#f9f6cf"/><path d="M207,39.78c-.3.76-2.68,1.75-8.24,1.36,0,0-2.2-.28-1.2-1.33s.9-1.65,4.58-1.25S207.28,39,207,39.78Z" style="fill:#f9f6cf"/><path d="M187.33,17.08c-1.19.16-1.49.63-2.88.44s-1.79-2.29-.64-2.89a8.6,8.6,0,0,1,3.52-.39C189.79,14.16,188.52,16.92,187.33,17.08Z" style="fill:#f9f6cf"/><path d="M195.79,17.56c-1.49,0-1.12-1-3-1.27s-1.42-2.45-.6-3.27,2.08,1.64,4.09,1.18a2.17,2.17,0,0,1,2.54,1.68C199.81,17.37,197.28,17.56,195.79,17.56Z" style="fill:#f9f6cf"/><path d="M181.05,12.85c-1.42-.31-1.42-.94,0-2.21s2.76.45,2.76.45C185.27,12,182.46,13.17,181.05,12.85Z" style="fill:#f9f6cf"/><path d="M159.63,84.43c-.5,1.11-1.88,1.77-2.78,3.06s-1.09,2.09-2.68,2.18-2.28,1.4-4.76,2.14-1.79.94-4.07,0,.5-3,.5-3c.6-.54,3.17-1.24,4.36-1.63a6.27,6.27,0,0,0,3.38-2.29c.59-1.09,5.46-2.78,6-3S160.13,83.33,159.63,84.43Z" style="fill:#f9f6cf"/><path d="M162.21,107.94c-1.59,0-1.52,1.89-1.52,1.89-.66,1.62-2.94.49-4.24-1.59s1.2-.89,2.29-2.66,3-.72,4.37,0S163.8,107.94,162.21,107.94Z" style="fill:#f9f6cf"/><path d="M153.3,113c-2.35-.28-2.1-1.79-1.06-2.41a2.29,2.29,0,0,1,2.13,0C156.16,111.57,155.66,113.3,153.3,113Z" style="fill:#f9f6cf"/><path d="M210.32,59.4c-1.33,4.32-13,2.76-13,2.76A144.82,144.82,0,0,0,172,61.21a225.66,225.66,0,0,0-30.12,3.36,124.21,124.21,0,0,0-16,3.66c-5.06,1.61-10.11,3.08-15.46,3.12a49.5,49.5,0,0,1-14-2.13c-.35-1.55,1-3,0-3.56-1.19-.6-1.49-3.28-1.49-4.32s-2.83-1.94-6,0c-1.08.66-3.28,1.89-5.68,3.23-4.24-1.89-8.34-4.29-11.3-7.55C65,49.13,62.6,36.62,82.41,32.76s57,3.71,71.76,9.3,31.72,5.43,44.84,6S211.65,55.08,210.32,59.4Z" style="fill:#f7b19f"/><path d="M183.8,72.08a58.27,58.27,0,0,0-7.06,1.72c-16.33,4.94-35.21,16.56-44.31,21.74a40.69,40.69,0,0,1-9.84,3.68h0a92.82,92.82,0,0,1-24,2.45c-1,0-2.08-.07-3.11-.13A64.79,64.79,0,0,1,76.6,98c-2.84-1.07-5-1.92-6.81-2.63l-.51-.21A87.4,87.4,0,0,0,57,90.93S62.69,84.81,74,88s34.17,12.68,53.43,4.45S166.52,70.4,183.8,72.08Z" style="fill:#e88b72"/><path d="M181.42,82.82c-1.64,1.38-3.57,3.68-8.34,4.57S168.62,91,165.34,92s-3.72,4.47-8.4,5.59-4,1.7-6.13,5-9.14,3.28-12.22,2.73-.65-2.13,1.63-5.23,5-.78,8.3-1.82,2.68-3.42,4-4.17,6.39-.74,8.85-3.27,2.15-4.17,4.24-5.66,5.06-1.94,5.89-4.32,5.21-7,5.21-7a58.27,58.27,0,0,1,7.06-1.72h0C186.43,72.33,183.06,81.44,181.42,82.82Z" style="fill:#f9f6cf"/><path d="M24.38,52.24a2.53,2.53,0,1,1,2.53,2.53A2.53,2.53,0,0,1,24.38,52.24Z" style="fill:#fff"/><path d="M183.14,54.28c0,1.86-1,3.37-2.18,3.37s-2.18-1.51-2.18-3.37,1-3.36,2.18-3.36S183.14,52.42,183.14,54.28Z" style="fill:#f2eeeb"/><ellipse cx="188.35" cy="50.34" rx="1.49" ry="2.74" style="fill:#f2eeeb"/><path d="M203.68,56.76c0,1.37-.69,2.48-1.53,2.48s-1.54-1.11-1.54-2.48.69-2.48,1.54-2.48S203.68,55.39,203.68,56.76Z" style="fill:#f2eeeb"/><path d="M213.07,49.57c0,1.08-.62,2-1.38,2s-1.37-.88-1.37-2,.61-2,1.37-2S213.07,48.48,213.07,49.57Z" style="fill:#f2eeeb"/><path d="M217.44,59.91c0,1.25-.55,2.27-1.23,2.27s-1.23-1-1.23-2.27.55-2.26,1.23-2.26S217.44,58.67,217.44,59.91Z" style="fill:#f2eeeb"/><path d="M208.91,64.19c0,1.16-.65,2.1-1.44,2.1s-1.43-.94-1.43-2.1.64-2.09,1.43-2.09S208.91,63,208.91,64.19Z" style="fill:#f2eeeb"/><path d="M203,71c0,1.13-.54,2-1.19,2s-1.2-.92-1.2-2,.54-2,1.2-2S203,69.88,203,71Z" style="fill:#f2eeeb"/><ellipse cx="195.85" cy="63.75" rx="1.43" ry="1.94" style="fill:#f2eeeb"/><path d="M199.87,48.77c0,1.19-.58,2.15-1.3,2.15s-1.29-1-1.29-2.15.58-2.14,1.29-2.14S199.87,47.59,199.87,48.77Z" style="fill:#f2eeeb"/><path d="M194.81,57c0,.91-.49,1.64-1.09,1.64s-1.1-.73-1.1-1.64.49-1.63,1.1-1.63S194.81,56.1,194.81,57Z" style="fill:#f2eeeb"/><path d="M188.35,67.73c0,1.12-.64,2-1.43,2s-1.44-.91-1.44-2,.64-2,1.44-2S188.35,66.6,188.35,67.73Z" style="fill:#f2eeeb"/><ellipse cx="173.71" cy="67.98" rx="1.84" ry="3.04" style="fill:#f2eeeb"/><ellipse cx="163.93" cy="58.89" rx="1.89" ry="2.92" style="fill:#f2eeeb"/><ellipse cx="172.88" cy="45.67" rx="2.24" ry="3.1" style="fill:#f2eeeb"/><ellipse cx="157.7" cy="45.35" rx="1.77" ry="3.43" style="fill:#f2eeeb"/><path d="M148.45,37.83c0,2.26-1.55,4.09-3.47,4.09s-3.48-1.83-3.48-4.09,1.56-4.1,3.48-4.1S148.45,35.56,148.45,37.83Z" style="fill:#f2eeeb"/><path d="M146.41,57.75c0,1.92-.81,3.48-1.81,3.48s-1.81-1.56-1.81-3.48.82-3.47,1.81-3.47S146.41,55.84,146.41,57.75Z" style="fill:#f2eeeb"/><ellipse cx="154.17" cy="56.46" rx="1.93" ry="2.78" style="fill:#f2eeeb"/><path d="M154.17,73.16c0,1.88-.75,3.41-1.67,3.41s-1.67-1.53-1.67-3.41.75-3.4,1.67-3.4S154.17,71.29,154.17,73.16Z" style="fill:#f2eeeb"/><ellipse cx="163.44" cy="69.9" rx="1.39" ry="2.17" style="fill:#f2eeeb"/><path d="M136.44,69.68c0,2.62-1,4.75-2.33,4.75s-2.33-2.13-2.33-4.75,1-4.74,2.33-4.74S136.44,67.06,136.44,69.68Z" style="fill:#f2eeeb"/><path d="M149.25,65.9c0,1.15-.64,2.08-1.42,2.08s-1.42-.93-1.42-2.08.64-2.08,1.42-2.08S149.25,64.75,149.25,65.9Z" style="fill:#f2eeeb"/><path d="M137.14,47.94c0,2-1.2,3.59-2.68,3.59s-2.68-1.61-2.68-3.59,1.2-3.59,2.68-3.59S137.14,46,137.14,47.94Z" style="fill:#f2eeeb"/><path d="M131,34.76c0,2-.88,3.67-2,3.67s-2-1.64-2-3.67.88-3.68,2-3.68S131,32.73,131,34.76Z" style="fill:#f2eeeb"/><path d="M121.65,28.75c0,1.63-.89,3-2,3s-2-1.33-2-3,.89-3,2-3S121.65,27.11,121.65,28.75Z" style="fill:#f2eeeb"/><ellipse cx="137.46" cy="31.24" rx="1.86" ry="2.49" style="fill:#f2eeeb"/><path d="M161,37c0,1.26-.77,2.28-1.71,2.28s-1.71-1-1.71-2.28.77-2.27,1.71-2.27S161,35.78,161,37Z" style="fill:#f2eeeb"/><path d="M169.3,51.93c0,1.3-.59,2.35-1.32,2.35s-1.31-1.05-1.31-2.35.59-2.36,1.31-2.36S169.3,50.62,169.3,51.93Z" style="fill:#f2eeeb"/><ellipse cx="129.08" cy="59.32" rx="1.96" ry="2.86" style="fill:#f2eeeb"/><path d="M122.59,47.63c0,1.82-1,3.29-2.16,3.29s-2.15-1.47-2.15-3.29,1-3.28,2.15-3.28S122.59,45.82,122.59,47.63Z" style="fill:#f2eeeb"/><path d="M110.83,41.19c0,2.3-1.13,4.16-2.53,4.16s-2.53-1.86-2.53-4.16S106.9,37,108.3,37,110.83,38.89,110.83,41.19Z" style="fill:#f2eeeb"/><path d="M109.24,31.58a2.72,2.72,0,1,1-5.36,0,2.72,2.72,0,1,1,5.36,0Z" style="fill:#f2eeeb"/><path d="M116.29,63.61c0,2.41-1.13,4.37-2.53,4.37s-2.53-2-2.53-4.37,1.13-4.37,2.53-4.37S116.29,61.2,116.29,63.61Z" style="fill:#f2eeeb"/><ellipse cx="109.24" cy="54.15" rx="1.99" ry="2.62" style="fill:#f2eeeb"/><ellipse cx="121.79" cy="57.94" rx="1.35" ry="1.97" style="fill:#f2eeeb"/><path d="M124.63,73.13c0,1.9-.78,3.44-1.75,3.44s-1.76-1.54-1.76-3.44.79-3.45,1.76-3.45S124.63,71.22,124.63,73.13Z" style="fill:#f2eeeb"/><path d="M134.11,83.46c0,1.54-.83,2.78-1.86,2.78s-1.86-1.24-1.86-2.78.83-2.78,1.86-2.78S134.11,81.93,134.11,83.46Z" style="fill:#f2eeeb"/><path d="M146,79.26c0,1.48-.55,2.69-1.24,2.69s-1.24-1.21-1.24-2.69.56-2.69,1.24-2.69S146,77.77,146,79.26Z" style="fill:#f2eeeb"/><ellipse cx="111.13" cy="80.78" rx="1.89" ry="3.37" style="fill:#f2eeeb"/><path d="M105.77,72.54c0,2-1.11,3.58-2.48,3.58s-2.48-1.6-2.48-3.58S101.92,69,103.29,69,105.77,70.57,105.77,72.54Z" style="fill:#f2eeeb"/><path d="M121.79,85c0,1.7-.66,3.09-1.46,3.09s-1.46-1.39-1.46-3.09.66-3.09,1.46-3.09S121.79,83.33,121.79,85Z" style="fill:#f2eeeb"/><path d="M115.2,92.52c0,1.44-.89,2.6-2,2.6s-2-1.16-2-2.6.89-2.61,2-2.61S115.2,91.08,115.2,92.52Z" style="fill:#f2eeeb"/><path d="M97.38,91.7c0,1.5-.72,2.72-1.61,2.72s-1.61-1.22-1.61-2.72S94.88,89,95.77,89,97.38,90.2,97.38,91.7Z" style="fill:#f2eeeb"/><path d="M97.2,52.32c0,1.52-.86,2.75-1.92,2.75s-1.92-1.23-1.92-2.75.86-2.75,1.92-2.75S97.2,50.8,97.2,52.32Z" style="fill:#f2eeeb"/><path d="M95.77,42.33a2.85,2.85,0,1,1-2.84-3A2.93,2.93,0,0,1,95.77,42.33Z" style="fill:#f2eeeb"/><path d="M104.68,61.47c0,1.56-.78,2.83-1.74,2.83S101.2,63,101.2,61.47s.78-2.83,1.74-2.83S104.68,59.91,104.68,61.47Z" style="fill:#f2eeeb"/><path d="M102.94,39.16c0,1.53-.94,2.76-2.11,2.76s-2.11-1.23-2.11-2.76,1-2.76,2.11-2.76S102.94,37.64,102.94,39.16Z" style="fill:#f2eeeb"/><path d="M82,37.83c0,2.26-1.31,4.09-2.93,4.09s-2.93-1.83-2.93-4.09,1.31-4.1,2.93-4.1S82,35.56,82,37.83Z" style="fill:#f2eeeb"/><path d="M95.77,31.07c0,2-1.27,3.69-2.84,3.69s-2.84-1.65-2.84-3.69,1.27-3.69,2.84-3.69S95.77,29,95.77,31.07Z" style="fill:#f2eeeb"/><ellipse cx="101.15" cy="25.45" rx="1.14" ry="1.92" style="fill:#f2eeeb"/><path d="M86,30.26a2.07,2.07,0,1,1-4.07,0,2.08,2.08,0,1,1,4.07,0Z" style="fill:#f2eeeb"/><ellipse cx="84.38" cy="51.2" rx="2.43" ry="3.57" style="fill:#f2eeeb"/><path d="M78.27,62.61c0,1.81-1.06,3.29-2.38,3.29s-2.38-1.48-2.38-3.29,1.07-3.29,2.38-3.29S78.27,60.79,78.27,62.61Z" style="fill:#f2eeeb"/><path d="M74.9,48.8c0,1.73-.76,3.13-1.69,3.13s-1.68-1.4-1.68-3.13.75-3.13,1.68-3.13S74.9,47.07,74.9,48.8Z" style="fill:#f2eeeb"/><path d="M68.35,42.65c0,1.93-1.09,3.49-2.43,3.49s-2.43-1.56-2.43-3.49,1.08-3.49,2.43-3.49S68.35,40.72,68.35,42.65Z" style="fill:#f2eeeb"/><path d="M71,33c0,1.5-.82,2.73-1.82,2.73S67.36,34.49,67.36,33s.81-2.73,1.82-2.73S71,31.48,71,33Z" style="fill:#f2eeeb"/><path d="M60.21,37.28a2.08,2.08,0,1,1-4.07,0,2.08,2.08,0,1,1,4.07,0Z" style="fill:#f2eeeb"/><path d="M69.28,55.84c0,1.68-.52,3-1.17,3s-1.17-1.37-1.17-3,.52-3.05,1.17-3.05S69.28,54.15,69.28,55.84Z" style="fill:#f2eeeb"/><path d="M71,82.45c0,1.76-.65,3.19-1.45,3.19s-1.44-1.43-1.44-3.19.65-3.19,1.44-3.19S71,80.69,71,82.45Z" style="fill:#f2eeeb"/><path d="M85,89c0,1.54-.68,2.79-1.53,2.79S82,90.56,82,89s.69-2.78,1.54-2.78S85,87.49,85,89Z" style="fill:#f2eeeb"/><ellipse cx="101.33" cy="86.79" rx="1.61" ry="2.63" style="fill:#f2eeeb"/><path d="M77.28,91.72A2.4,2.4,0,1,1,74.9,89,2.55,2.55,0,0,1,77.28,91.72Z" style="fill:#f2eeeb"/><ellipse cx="62.34" cy="86.79" rx="1.64" ry="2.63" style="fill:#f2eeeb"/><ellipse cx="37.23" cy="69.96" rx="1.73" ry="2.58" style="fill:#f2eeeb"/><path d="M45.92,65c0,1.29-.63,2.34-1.39,2.34s-1.39-1-1.39-2.34.62-2.35,1.39-2.35S45.92,63.74,45.92,65Z" style="fill:#f2eeeb"/><path d="M48.1,58.08c0,1.17-.69,2.12-1.54,2.12S45,59.25,45,58.08,45.71,56,46.56,56,48.1,56.91,48.1,58.08Z" style="fill:#f2eeeb"/><path d="M53.86,52.39a2.47,2.47,0,0,1-2.19,2.68,2.74,2.74,0,0,1,0-5.36A2.47,2.47,0,0,1,53.86,52.39Z" style="fill:#f2eeeb"/><path d="M60.21,69.51c0,2-1.16,3.62-2.58,3.62s-2.58-1.62-2.58-3.62,1.15-3.61,2.58-3.61S60.21,67.51,60.21,69.51Z" style="fill:#f2eeeb"/><path d="M51.08,74.19c0,1.31-.67,2.38-1.49,2.38S48.1,75.5,48.1,74.19s.67-2.38,1.49-2.38S51.08,72.87,51.08,74.19Z" style="fill:#f2eeeb"/><ellipse cx="52.17" cy="64.5" rx="1.69" ry="1.89" style="fill:#f2eeeb"/><ellipse cx="44.76" cy="48.84" rx="1.62" ry="2.7" style="fill:#f2eeeb"/><path d="M58.17,61.46c0,1.19-.7,2.15-1.56,2.15s-1.56-1-1.56-2.15.7-2.14,1.56-2.14S58.17,60.28,58.17,61.46Z" style="fill:#f2eeeb"/><path d="M45.92,79.93a2.34,2.34,0,0,1-2.09,2.52,2.57,2.57,0,0,1,0-5A2.33,2.33,0,0,1,45.92,79.93Z" style="fill:#f2eeeb"/></g></g></svg>