<svg xmlns="http://www.w3.org/2000/svg" viewBox="0 0 278.03 257.43"><title>bottom-swordtail</title><g id="Layer_2" data-name="Layer 2"><g id="Ñëîé_2" data-name="Ñëîé 2"><path d="M125.15,34c-2.8-1.3-5.38-2.82-8.1-4.36h0c-5.45-3.1-11.44-6.33-20.83-8.25-6.53-1.34-14.71-2-25.5-1.63-34,1.27-43.37,5.74-55.28,8.93S-5.18,33.12,3.54,44.39,22.67,60.55,26.71,60.55c3.83,0,6.52,1.53,12.06,6.23,5.14-.64,7.65-3.14,7.08-5.81-.64-3,.42-3.19,2.76-4s1.06-5.31-.42-8.93-1.92-2.76-4.9-1.48-3.18,2.12-5.31,1-3.62,2.35-3.83,5.75-1.27,4.46-4,4.89-1.49-3-2.76-9-4.89-4.23-6-7.2,2.33-4.89,5.31-6.38,9.14,1.7,14.46,1.49,7-2.76,6.8-5.74,0-3.83,2.34-5.74,7,.21,13.4-1.07,5.95,3.83,8.93,8.93,7.44,4.68,13.82,4.05S102,43.11,100.7,46.52,96,51,97.94,52.68a8.15,8.15,0,0,0,9.14,1.06c3.4-1.92,1.92-4.46,5.53-6.17s14-.84,18.5,2.56,9.35,5.1,10.21,1.91-1.92-5.31,3.4-6.16a41.19,41.19,0,0,0,9.83-3C145.41,40.77,132.54,37.41,125.15,34ZM38,53.63c1.28-1.75,1.91-5.1,3.19-3.34s4.62,2.71,2.71,4.46-1.75,1.91-1.43,4,1.11,3.19-1.28,2.87A6.9,6.9,0,0,1,38,59.06,4.34,4.34,0,0,1,38,53.63ZM13.42,44.38a5.17,5.17,0,1,1,5.17-5.17A5.16,5.16,0,0,1,13.42,44.38ZM80.56,29.24c-2.55,0-4.31-3.35-3.57-4.83s3.73-.12,7.45-1.23,3.44,3.19,3.44,3.19C88.34,31,83.11,29.24,80.56,29.24Zm21.7,9.24c-2.85-.63-3-3-3.52-6s-.8-6.3,2.87-2.94,4.46,5.88,4.46,5.88C108.1,38.78,105.12,39.12,102.26,38.48Zm35.15,7.19c-1.68.33-2.15,3-5,1.9s-3.73-1.75-4-3.66,3-.8,3.51-1.92,4.62.91,4.62.91a4.43,4.43,0,0,0,2.87,0c1.6-.54,1.92.21,1.92,1.86S139.08,45.34,137.41,45.67Z" style="fill:#28b7c6"/><path d="M178.52,67.35c-.48-2.15-1-4.36-1.69-6.52-.07-.25-.15-.5-.23-.74s-.19-.6-.29-.89-.2-.6-.31-.89-.21-.58-.32-.87-.21-.57-.33-.86l-.34-.84c-.23-.56-.48-1.1-.74-1.63q-.18-.37-.36-.72a.67.67,0,0,0-.06-.12c-.12-.24-.25-.48-.38-.71-.27-.5-.56-1-.87-1.45a1.22,1.22,0,0,0-.12-.19c-.16-.24-.32-.48-.48-.7l0,0a14.51,14.51,0,0,0-1.08-1.35c-.11-.13-.22-.25-.34-.37l-.16-.17-.27-.27a11.27,11.27,0,0,0-1.12-1l-.3-.22a8.45,8.45,0,0,0-1-.6l-.28-.16c-.21-.1-.42-.21-.64-.3l-.33-.14-.09,0-.28-.1a4.13,4.13,0,0,0-.5-.15l-.51-.13s-4.45-.89-10.57-2.33h0a41.19,41.19,0,0,1-9.83,3c-5.32.85-2.56,3-3.4,6.16s-5.74,1.49-10.21-1.91-14.89-4.25-18.5-2.56-2.13,4.25-5.53,6.17a8.15,8.15,0,0,1-9.14-1.06C96,51,99.43,49.92,100.7,46.52S92.84,37,86.46,37.59s-10.84,1-13.82-4.05-2.55-10.2-8.93-8.93-11.06-.85-13.4,1.07S47.76,28.44,48,31.42s-1.49,5.53-6.8,5.74-11.48-3-14.46-1.49-6.38,3.4-5.31,6.38,4.67,1.21,6,7.2,0,9.39,2.76,9,3.83-1.49,4-4.89,1.7-6.8,3.83-5.75,2.34.22,5.31-1,3.4-2.13,4.9,1.48,2.76,8.08.42,8.93-3.4,1.07-2.76,4c.57,2.67-1.94,5.17-7.08,5.81l.91.79c3.75,3.23,10.43,5,18.78,5.11,5.28-1.63,7.17-3.66,8.44-5,1.48-1.62,5.31-2,8.84-2.21s5-1.48,7.12-5.1,7-1.91,12.31-.85,8.72-.84,14-1.48,11.27,4.67,16.37,7.65,11.48,2.55,11.83,6.09,5,5.47,5.27,5.6h0a51.58,51.58,0,0,0,8.17,1.38,45.46,45.46,0,0,0,6,.11C170.66,78.19,180.65,76.92,178.52,67.35ZM37,40.77c-.73-.15-3.72-1.63-7.12-.44s-5.42,1.93-6.17.44,2.87-4.14,6.65-3.93a27.14,27.14,0,0,1,8.45,2.28C40.11,39.6,41.28,41.64,37,40.77Zm36,4.9c2.08-2.22,1.76-5.11,3.85-5.27s4.61-.32,5.21,2.5,1.26,2.77,1.31,2.77a3.22,3.22,0,0,1,1,2.7c-.13,1.12-2.27,1.12-4.66,2.07s-3.67.32-5.9,0S71,47.89,73.06,45.67ZM49.14,35.56c1.49-2.23.21-3.93,1.92-7.4s5.84-1,10-1.88,5.54-1.13,6.81,1.88-1.7,2.51-5.74,2.51-3.62,1-5,3.41a5.16,5.16,0,0,1-3.2,2.76C49.58,39,47.65,37.8,49.14,35.56ZM65.41,51.24c-1.6,2.87-2.23,1.6-6.86,2.23s-6.38-4-6.38-8.45,3.67-3.82,5-8.05,4.45-4.54,7.64-4.7,3.51,1.75,5.1,4.62a4.23,4.23,0,0,1,0,4.78C68.44,46.94,67,48.37,65.41,51.24ZM94.2,53.83C94,56.19,85,54.91,82.86,57s-3.26,4.54-8.68,2S66,52.48,71.7,53.54c0,0,1.77,1.05,10.42-.86s4.82-8.2,9-7.92S94.45,51.47,94.2,53.83Zm51.74,13.81c-5.74-.18-13.71-3.16-21.85-7.31s-15.34-8-10.2-9.37,13.55-1.15,18.81,3.63a24.65,24.65,0,0,0,13.24,5.74c6.38.48,8-.16,8.62,3S151.68,67.83,145.94,67.64Zm14.35-15.22c-5.1-.73-5.9,1-9.43,2.65s-5.08-.64-4.76-3.35,5.58-2.47,5.58-2.47c5.42,1,6.22-2.47,10.21-2.47s5.9,1.43,6.38,4.18S165.4,53.16,160.29,52.42Z" style="fill:#41e0d8"/><path d="M173.45,91.61c3.51,7.1,18,17.93,27.91,30.37,4.21,5.3,17.69,29.82,31.8,56.32-7.29-11.13-14.56-21.11-21-28q-2-2.17-4.08-4.3c-5.27-13.67-15.64-30.63-23.11-36.57-8.77-7-22.64-26.83-22.64-26.83,1,8.77,11.16,21.37,15.05,24.87,2.68,2.42,13.9,18.46,20.62,28.21C191.53,129.18,185.28,123,179.5,117c-10.67-13.42-22.31-30-22.31-30,.28,2.1,2.86,6.85,5.65,11.48-5.45-6.84-9.63-13.39-12-19.75a45.46,45.46,0,0,0,6,.11c13.82-.64,23.81-1.91,21.68-11.48-.48-2.15-1-4.36-1.69-6.52-.07-.25-.15-.5-.23-.74s-.19-.6-.29-.89-.2-.6-.31-.89-.2-.58-.32-.87-.21-.58-.33-.86-.22-.56-.34-.84c-.23-.56-.48-1.1-.74-1.63-.12-.25-.23-.49-.36-.72a.67.67,0,0,0-.06-.12c-.12-.24-.24-.48-.38-.71-.27-.5-.56-1-.87-1.45a2,2,0,0,0-.12-.19c-.16-.25-.32-.48-.48-.7l0,0c13,2.74,10.88,14.37,19.81,21.54s19.77,4,21.3,4.78-4.08-6.64-1.31-7.28,1.27-1.48-5.53-4.25S188.6,52.24,191.36,53.53s7.66,4.87,1.28-1.89c-4.71-5-13.28-7.24-17.44-8.08h.13l.92-.09,1.09-.09h0c.93.05,17,.89,22.41,5.88a60.89,60.89,0,0,0-7.22,0c-3.4.24,12.33,1.09,20.2,9.81,0,0-5.74-4.25-9.79-4.25s17.23,12.12,23.6,15.73,6.6,4.89,6.6,4.89-13.63-4.89-18.73-4.89,13.41,7.23,18.73,9.15a25.79,25.79,0,0,1,8.7,5.3c-.57-.21-19-7-23.8-7.65s18.29,7,22.54,11.7-10.85-6-24.45-7.44c0,0,17.22,7.23,19.34,9.78,0,0-16.39-5.74-21.06-5.53,0,0,16.8,4.89,27.43,19.12-.67-.48-22.23-16.14-30.82-15.93,0,0,21,9.78,25.31,20.62,0,0-19.35-17.43-26.79-17.43,0,0,9.39,4.84,11.89,9.56-.28-.16-9.41-5.3-14-5.1,0,0,16.37,12.76,21.47,22.75,0,0-15.3-15.1-20.2-15.31,0,0,13,9.15,13.4,21.48,0,0-12.54-19.13-18.5-20.2-4.29-9.55-12.94-16.6-16.44-18.42s-9.8-8.11-9.8-8.11c3,8.36,10.38,12.69,18.25,20.2s31.46,51.17,45.29,75.2c13.6,23.65,36.39,81.32,37.1,83.11-.3-.61-3.57-7.11-8.69-16.76-24.21-48.16-51.54-97-59-112.75s-21.53-26.79-27.43-30.3S170.1,82.43,168.31,81.67,169.94,84.5,173.45,91.61Z" style="fill:#16d3c5"/><path d="M208,146Q203,140.71,198,135.67c-6.72-9.75-17.94-25.79-20.62-28.21-3.89-3.5-14.09-16.1-15.05-24.87,0,0,13.87,19.87,22.64,26.83C192.4,115.36,202.77,132.32,208,146Z" style="fill:#62f4e9"/><path d="M165.64,45.37l-.51-.13a69.27,69.27,0,0,1,9.48-1.62l.58-.06h0c4.16.84,12.73,3.1,17.44,8.08,6.38,6.76,1.49,3.19-1.28,1.89s8.09,8.7,14.89,11.46,8.29,3.62,5.53,4.25,2.83,8.07,1.31,7.28-12.37,2.39-21.3-4.78S185,52.94,172,50.2a14.51,14.51,0,0,0-1.08-1.35c-.11-.13-.22-.25-.34-.37l-.16-.17a3.44,3.44,0,0,0-.27-.27,11.27,11.27,0,0,0-1.12-1l-.3-.22a8.45,8.45,0,0,0-1-.6l-.28-.16c-.21-.11-.43-.21-.64-.3l-.33-.14-.09,0-.28-.1A4.13,4.13,0,0,0,165.64,45.37Z" style="fill:#62f4e9"/><path d="M269.32,240.63c-8.59-16.21-22.39-41.31-36.16-62.32h0c-14.11-26.5-27.59-51-31.8-56.32-9.89-12.44-24.4-23.27-27.91-30.37s-6.93-10.69-5.14-9.94,8.65,12.4,14.55,15.91,19.93,14.51,27.43,30.3S245.11,192.47,269.32,240.63Z" style="fill:#28b7c6"/><path d="M278,257.43a.11.11,0,0,1,0,0c-.71-1.79-23.5-59.46-37.1-83.11-13.83-24-37.43-67.68-45.29-75.2s-15.23-11.84-18.25-20.2c0,0,6.29,6.29,9.8,8.11s12.15,8.87,16.44,18.42l24,38.89c1,1.7,2.19,3.68,3.65,6C240.19,164.3,274.63,218.74,278,257.43Z" style="fill:#62f4e9"/><path d="M256.77,97.12c-1.28,3.19-1.7,5.1-3.41,4.67s-7-3.61-11.9-5.74S252.31,105,252.31,105s1.48,2.55-1.71,3.62-6.8,2.12-5.74,5.1-6,5.74-6,5.74-8.72-11.48-16.37-13.39,7.65,3.83,14.24,17a20,20,0,0,1-7,0c-4.46-.64-4,2.76-3.82,5.1s-2.77,6-2.77,6-.59,1.49,4.44,10.19l-24-38.89c6,1.07,18.5,20.2,18.5,20.2-.42-12.33-13.4-21.48-13.4-21.48,4.9.21,20.2,15.31,20.2,15.31-5.1-10-21.47-22.75-21.47-22.75,4.61-.2,13.74,4.94,14,5.1-2.5-4.72-11.89-9.56-11.89-9.56,7.44,0,26.79,17.43,26.79,17.43C232.1,98.82,211.05,89,211.05,89c8.59-.21,30.15,15.45,30.82,15.93-10.63-14.23-27.43-19.12-27.43-19.12,4.67-.21,21.06,5.53,21.06,5.53-2.12-2.55-19.34-9.78-19.34-9.78,13.6,1.48,28.7,12.12,24.45,7.44s-27.43-12.33-22.54-11.7,23.23,7.44,23.8,7.65a25.79,25.79,0,0,0-8.7-5.3c-5.32-1.92-23.82-9.15-18.73-9.15s18.73,4.89,18.73,4.89-.22-1.28-6.6-4.89S198.93,54.81,203,54.81s9.79,4.25,9.79,4.25c-7.87-8.72-23.6-9.57-20.2-9.81a60.89,60.89,0,0,1,7.22,0c-5.36-5-21.48-5.83-22.41-5.88q1.59-.12,3.33-.18c9.65-.32,22.16,1,32.7,7.79,20.41,13.18,28.91,20.2,30,22.75s-2.14,0-4.26-1.28,1.91,4,8.93,8.08,9.14,7.45,6.81,6.59-.74,2.55.91,4.89S258.05,93.93,256.77,97.12Z" style="fill:#28b7c6"/><path d="M177.34,43.37l-1.09.09-.92.09h-.14l-.58.06-.22-.21c-15.45-14.72-49.75-27.7-34.83-22.95S177.34,43.37,177.34,43.37Z" style="fill:#62f4e9"/><path d="M150.86,22.06c5.75.94,25.21,12.74,26,13.22a183.51,183.51,0,0,0-20.38-13.92c-11.33-6.59-37.8-13-33.95-13S148.81,15,148.81,15,141.16,4,124.89.37s-28.67,21-28.67,21c9.39,1.92,15.38,5.15,20.83,8.25h0c22.94,0,37.13,12.94,37.5,13.3h0c6.12,1.44,10.57,2.33,10.57,2.33a69.27,69.27,0,0,1,9.48-1.62l-.22-.21c-15.45-14.72-49.75-27.7-34.83-22.95s37.78,22.91,37.78,22.91h0q1.59-.12,3.33-.18C172.09,31.47,145,21.1,150.86,22.06ZM136,24.24l.84.31c.56.21,1.11.43,1.66.66l.73.3.9.39.66.29,1.25.58c.41.2.82.39,1.22.6l.76.38.74.38,1.1.59,1.06.59.69.39.68.4.66.39.52.31,1,.64.74.47.24.15.59.38.57.39.56.37.57.39.86.6q1,.73,1.92,1.41l.87.65.4.31.36.29.78.61.34.29.34.27c.38.32.68.57.89.76l-.12-.09c-.22-.18-.43-.36-.66-.53s-.55-.43-.83-.64l-.7-.51-.9-.62c-1.37-.93-2.83-1.8-4.35-2.63l-1-.53c-.33-.19-.68-.36-1-.53s-.61-.31-.92-.45l-1.34-.64c-.49-.22-1-.45-1.49-.66s-1-.42-1.45-.62l-1.45-.59-1.73-.67-1.05-.39-1.12-.41-1-.34-1-.33c-3.57-1.2-7.08-2.19-10.28-3l-.86-.22L125.62,24l-.78-.18c-1.35-.32-2.62-.6-3.77-.84l-1.33-.27-1.21-.25-.56-.11-1.11-.21-.57-.1-.35-.05a3.58,3.58,0,0,0-.43-.08l-.44-.08-.38-.06-.24,0-.14,0-.42-.07,1.55-.22c.64-.07,1.27-.12,1.91-.16,1.1-.07,2.2-.09,3.29-.07.63,0,1.25.05,1.87.09l.7.06,1.25.13c.31,0,.62.07.93.12l.94.14c.31,0,.63.1.94.16l1.13.22c1.12.23,2.23.5,3.33.8l1.27.37.9.28,1.06.35Z" style="fill:#039cab"/><path d="M154.55,42.91c-9.14-2.14-22-5.5-29.4-8.94-2.8-1.3-5.38-2.82-8.1-4.36C140,29.65,154.18,42.55,154.55,42.91Z" style="fill:#62f4e9"/><path d="M160.8,39C145.92,26.34,113.89,21.6,113.89,21.6,136.49,18,158.93,37.35,160.8,39Z" style="fill:#62f4e9"/><path d="M89.73,81.22c-.72.48-1.33.5-4.13-2.34s-2.09,0-.58,2.11-.87,4.47-9.28-9.93c.17,0,.34-.06.51-.09.9-.18,1.81-.36,2.73-.52h0a43.79,43.79,0,0,1,8.08,4.43h0a29.44,29.44,0,0,1,2.33,3S90.45,80.74,89.73,81.22Z" style="fill:#41e0d8"/><path d="M99.69,99.08a30.39,30.39,0,0,1-11.8-3.51q-3.27-2.05-5.83-3.94a21.54,21.54,0,0,0,8.7,2.83c-9.4-6.7-18.17-21.53-11.32-13.4S95.87,91.75,94,90.15s-8.61-9.09-6.88-8.26,6.72,6.83,5.93,5.23-1.92-2.71-1.92-5.23a8.53,8.53,0,0,0-1.67-4,29.44,29.44,0,0,0-2.33-3c3,2,5.29,4,6.71,5.06,2.56,1.91,1.6,4.14,1.6,6.38s2.71,2.55,2.71,4.3,1.59,6.54,1.59,6.54a17.06,17.06,0,0,1-10.28-7C90.12,93.82,99.69,99.08,99.69,99.08Z" style="fill:#28b7c6"/><path d="M82,91.61c-1.74-1.28-3.24-2.49-4.55-3.65-11.32-10-7.87-15.71-7.73-15.94h0l2-.28C71.1,77.48,76,83.22,79.44,86S82,91.61,82,91.61Z" style="fill:#41e0d8"/><path d="M79.44,81.06c-6.85-8.13,1.92,6.7,11.32,13.4a21.54,21.54,0,0,1-8.7-2.83l0,0s.84-2.81-2.59-5.6-8.34-8.53-7.68-14.27c1.31-.19,2.63-.42,4-.68C84.15,85.46,86.54,83.14,85,81s-2.23-4.95.58-2.11S89,81.7,89.73,81.22s-.32-3.31-.32-3.31a8.53,8.53,0,0,1,1.67,4c0,2.52,1.12,3.64,1.92,5.23s-4.2-4.42-5.93-5.23,5,6.67,6.88,8.26S86.3,89.2,79.44,81.06Z" style="fill:#62f4e9"/><path d="M142.68,77.34c-7.51-1.87-14.12-5.1-20.29-7.65-9.24-3.82-27.59-2.13-43.4.76h0c-.92.16-1.83.34-2.73.52-.17,0-.34.07-.51.09-1.35.26-2.67.49-4,.68l-2,.28h0a80.38,80.38,0,0,1-11.29.66c5.28-1.63,7.17-3.66,8.44-5,1.48-1.62,5.31-2,8.84-2.21s5-1.48,7.12-5.1,7-1.91,12.31-.85,8.72-.84,14-1.48,11.27,4.67,16.37,7.65,11.48,2.55,11.83,6.09S142.39,77.21,142.68,77.34Z" style="fill:#28b7c6"/><path d="M43.88,54.75c-1.91,1.75-1.75,1.91-1.43,4s1.11,3.19-1.28,2.87A6.9,6.9,0,0,1,38,59.06a4.34,4.34,0,0,1,0-5.43c1.28-1.75,1.91-5.1,3.19-3.34S45.79,53,43.88,54.75Z" style="fill:#039cab"/><path d="M69.87,41.67c-1.43,5.27-2.87,6.7-4.46,9.57s-2.23,1.6-6.86,2.23-6.38-4-6.38-8.45,3.67-3.82,5-8.05,4.45-4.54,7.64-4.7,3.51,1.75,5.1,4.62A4.23,4.23,0,0,1,69.87,41.67Z" style="fill:#039cab"/><path d="M84.42,48.37c-.13,1.12-2.27,1.12-4.66,2.07s-3.67.32-5.9,0-2.87-2.55-.8-4.77,1.76-5.11,3.85-5.27,4.61-.32,5.21,2.5,1.26,2.77,1.31,2.77A3.22,3.22,0,0,1,84.42,48.37Z" style="fill:#28b7c6"/><path d="M80.56,29.24c-2.55,0-4.31-3.35-3.57-4.83s3.73-.12,7.45-1.23,3.44,3.19,3.44,3.19C88.34,31,83.11,29.24,80.56,29.24Z" style="fill:#039cab"/><path d="M102.26,38.48c-2.85-.63-3-3-3.52-6s-.8-6.3,2.87-2.94,4.46,5.88,4.46,5.88C108.1,38.78,105.12,39.12,102.26,38.48Z" style="fill:#039cab"/><path d="M141.32,44.76c0,1.63-2.24.58-3.91.91s-2.15,3-5,1.9-3.73-1.75-4-3.66,3-.8,3.51-1.92,4.62.91,4.62.91a4.43,4.43,0,0,0,2.87,0C141,42.36,141.32,43.11,141.32,44.76Z" style="fill:#039cab"/><path d="M145.94,67.64c-5.74-.18-13.71-3.16-21.85-7.31s-15.34-8-10.2-9.37,13.55-1.15,18.81,3.63a24.65,24.65,0,0,0,13.24,5.74c6.38.48,8-.16,8.62,3S151.68,67.83,145.94,67.64Z" style="fill:#62f4e9"/><path d="M94.2,53.83C94,56.19,85,54.91,82.86,57s-3.26,4.54-8.68,2S66,52.48,71.7,53.54c0,0,1.77,1.05,10.42-.86s4.82-8.2,9-7.92S94.45,51.47,94.2,53.83Z" style="fill:#62f4e9"/><path d="M62.11,30.67c-4,0-3.62,1-5,3.41a5.16,5.16,0,0,1-3.2,2.76c-4.35,2.18-6.28,1-4.79-1.28s.21-3.93,1.92-7.4,5.84-1,10-1.88,5.54-1.13,6.81,1.88S66.15,30.67,62.11,30.67Z" style="fill:#039cab"/><path d="M37,40.77c-.73-.15-3.72-1.63-7.12-.44s-5.42,1.93-6.17.44,2.87-4.14,6.65-3.93a27.14,27.14,0,0,1,8.45,2.28C40.11,39.6,41.28,41.64,37,40.77Z" style="fill:#28b7c6"/><path d="M160.29,52.42c-5.1-.73-5.9,1-9.43,2.65s-5.08-.64-4.76-3.35,5.58-2.47,5.58-2.47c5.42,1,6.22-2.47,10.21-2.47s5.9,1.43,6.38,4.18S165.4,53.16,160.29,52.42Z" style="fill:#62f4e9"/><path d="M13.42,34.05a5.17,5.17,0,1,0,5.17,5.16A5.16,5.16,0,0,0,13.42,34.05Zm0,9.19a4,4,0,1,1,4-4A4,4,0,0,1,13.42,43.24Z" style="fill:#41e0d8"/><path d="M13.42,35.19a4,4,0,1,0,4,4A4,4,0,0,0,13.42,35.19Zm0,6.85a2.83,2.83,0,1,1,2.82-2.83A2.83,2.83,0,0,1,13.42,42Z" style="fill:#eae3dd"/><path d="M16.24,39.21a2.83,2.83,0,1,1-2.82-2.82A2.83,2.83,0,0,1,16.24,39.21Z" style="fill:#2b2b2b"/><path d="M179.5,117c-6.25-6.44-11.93-12.6-16.66-18.55-2.79-4.63-5.37-9.38-5.65-11.48C157.19,87,168.83,103.6,179.5,117Z" style="fill:#28b7c6"/><circle cx="16" cy="38.07" r="1.15" style="fill:#eae3dd"/></g></g></svg>