<svg xmlns="http://www.w3.org/2000/svg" viewBox="0 0 306.43 116.67"><title>brycon</title><g id="Layer_2" data-name="Layer 2"><g id="Ñëîé_2" data-name="Ñëîé 2"><path d="M82.12,97.62c-21.23-4.09-33.71-9.71-33.71-9.71S24.9,85.33,18.32,76.39,9.05,63,4.63,61.58s-4.77-6.52-4.6-9,11.47,0,12.88,2.29c0,0,1.33.93,0-1.29,0,0-3.53-6.59-7.06-8.23s.71-8.94,11.06-11.76c0,0-5.94,5.42-7.18,7.71-.62,1.14.64,2.69,2.32,4.87a26.79,26.79,0,0,1,4.86,8.7c2.17,7.41,1.64,19.57,20.51,23.45S65.81,73.39,67.75,68.1c1.37-3.73,1.67-5.1,2.64-2.59.1.26.21.56.32.92l0,0c.35,1,.77,2.44,1.33,4.28,2.57,8.46-3.61,12.52-9.25,14.64C58.85,86.87,67.54,92.85,82.12,97.62Z" style="fill:#7c846f"/><path d="M72.16,49.77c-.71-3.88,2.29-9.7,10.75-7.23s4.94,9,4.94,9a7.11,7.11,0,0,1-6.17,4.41C76.92,56.29,72.86,53.64,72.16,49.77Zm44.61,43.71c-3.88-.21-4.23-1.39-4.76.72s-1.94.53-10.4,0S72.33,87.33,70.73,85s4.07-2.11,4.07-2.11c7.61-.36,28.75,5.82,38.27,7S120.65,93.67,116.77,93.48Zm85.3-34.65c-13.71,5.71-51.42,7.43-77.89,0-8.91-2.51-19.94-7-25-15.3-2-3.26-2-7.51,1.7-9.47a16.5,16.5,0,0,1,4.94-1.63c4.56-.82,9.51-.2,14.13-.18,14,.06,28-.32,42,.92,7.34.6,14.66,1.48,21.91,2.81C220.16,42.61,215.78,53.12,202.07,58.83Zm47.54-19.75-.88.4a31,31,0,0,1-20.62,1.83A78.34,78.34,0,0,1,213.7,36C209,33.84,194.52,28.36,177.08,23h0c-16.49-5.05-35.6-10-51.53-11.78h0l-2.9-.31c-1.83-.17-3.61-.29-5.33-.37C85.06,9.17,52.12,19.22,44.92,23.33c2.32,2.51,6.11,4,9.6,4.92,4.76,1.24,12.7,7.23,13.41,11.82S69.34,48,70.39,56c.46,3.43.43,5,0,5.45h0a8.86,8.86,0,0,0,0,4.08c.1.26.21.56.32.92l0,0c.35,1,.77,2.44,1.33,4.28,2.57,8.46-3.61,12.52-9.25,14.64-4,1.48,4.73,7.46,19.31,12.23a232,232,0,0,0,33.3,3.93c1.27.06,2.54.1,3.81.13h0c4.86-3.74,14.38-6.62,37.09-8.2,31.51-2.2,56.43-23.67,65.36-26.73s12.7,3.53,12.7,3.53a8.48,8.48,0,0,1,3.14.46C235.8,55.13,242.51,45.14,249.61,39.08Z" style="fill:#88967c"/><path d="M70.44,61.42h0c-.5.64-1.57-.46-2.87-1.26-2.29-1.41-3.52-9.35-3.7-16.58s-4.59-7.93-6.84-7.4a2.22,2.22,0,0,0-1.8,2.64s4.05,16.4,0,18.52-4.59.17-4.76-4.76A11.21,11.21,0,0,0,44,42.85,11.83,11.83,0,1,0,28.52,57.26c-1.63.26-4.26.06-7.15-2.54-4.82-4.31-4.11-8.29-9.32-8.54C10.37,44,9.11,42.45,9.73,41.31,11,39,16.91,33.6,16.91,33.6c10.34-2.82,21.16-6.11,27.74-10.11a2.4,2.4,0,0,1,.27-.16c2.32,2.51,6.11,4,9.6,4.92,4.76,1.24,12.7,7.23,13.41,11.82S69.34,48,70.39,56C70.85,59.4,70.82,60.92,70.44,61.42Z" style="fill:#414142"/><path d="M234.39,70.28c-5.21.12-8.73,1.68-12.7,4.13-2.74,1.69-5.68,3.81-9.54,6.17-1.39.85-2.9,1.73-4.56,2.63-6.53,3.57-19.54,8.69-36.09,12.64-5.71,1.37-11.84,2.59-18.27,3.57h0A202.35,202.35,0,0,1,129,101.65h0c-3.21.09-6.45.12-9.72,0,4.86-3.74,14.39-6.62,37.09-8.2,31.51-2.2,56.43-23.67,65.36-26.73S234.39,70.28,234.39,70.28Z" style="fill:#414142"/><path d="M301.41,31.12c-2.47,2.47.14,3.64-3.06,5.77-3.53,2.35-5.18,2.59-6.59,6.58s1.18,4.71-2.58,5.41-2.36,2.83-6.12,4.71-12,2.82-9.17,11.75,8.24,14.58,8.24,18.11,3.76,7.28,2.11,10.34,2.82,6.35,1.17,9.41-.93,6.35.95,9.64S277.65,123,260,103c-14.45-16.37-15.64-28-21.15-31.55,5.15-2,7.81,4.78,13.63,13.21a35.94,35.94,0,0,0,8.07,8.6s8,8.92,15.26,14-.17-6,1.77-4.58-2.29-4.76.17-3.7-2.46-4.94.18-4.06-1.59-6.35,0-5.82-.88-3.35-.35-4.58.7-3.88-3-9.7-6.17-9.17-2.64-15.17,2.42-3.7,7.12-6.88,7.86-4.23,6.81-4.4,4.4-3.71,3.7-4.59,2.64-4.23,2.12-4.23,5.29-3.88,4.23-3.88S296.65,32.06,301.41,31.12Z" style="fill:#dbd3ce"/><path d="M303.39,29.47c-.34.29-.7.57-1.05.84a7.94,7.94,0,0,0-.93.81c-4.76.94-6.41,4.54-5.47,4.54s-4.76,3.88-4.23,3.88-2.83,3.35-2.12,4.23-4.76,4.41-3.7,4.59-2.12,1.23-6.81,4.4-3.6.89-7.12,6.88S270.9,69,274.6,74.81s3.53,8.46,3,9.7,1.94,5.11.35,4.58,2.65,6.7,0,5.82,2.29,5.11-.18,4.06,1.77,5.11-.17,3.7,5.46,9.7-1.77,4.58-15.26-14-15.26-14a33.39,33.39,0,0,0,9.8,4.81c3.05,1.17-12.7-14.82-5.17-8.94s-8.47-12-.95-7-9.63-11.52-1.41-6.82-9.4-8.23-1.17-6.35-.47-1.17-4-3.53-.94-3.76,6.12-3.29-5.65-6.11,1.87-5.64-.93-4.94,3.53-4.94,4-4.93,9.41-5.64-1.88-3.77,3.76-4.23-.71-3.77,3.76-3.77-4-3.29,3.29-3.53-4.23-2.58,1.89-2.58A39.19,39.19,0,0,0,303.39,29.47Z" style="fill:#6c909c"/><path d="M303.41,29.47h0a39.19,39.19,0,0,1-12.09,2.25c-6.12,0,5.4,2.35-1.89,2.58s1.18,3.53-3.29,3.53,1.88,3.3-3.76,3.77,1.64,3.52-3.76,4.23-4.94,5.64-9.41,5.64,4,5.41-3.53,4.94,5.18,6.11-1.87,5.64-9.65.94-6.12,3.29,12.23,5.41,4,3.53,9.4,11,1.17,6.35S271.78,87,264.25,82s8.47,12.93.95,7,8.22,10.11,5.17,8.94a33.39,33.39,0,0,1-9.8-4.81,35.94,35.94,0,0,1-8.07-8.6c-5.82-8.43-8.48-15.23-13.63-13.21a7.62,7.62,0,0,0-1.34-.67c-1.72-15.61,5-25.59,12.08-31.66C263,32.93,283.14,23,296.94,22.79,309.8,22.57,307,26.46,303.41,29.47Z" style="fill:#2b2b2b"/><path d="M192.6,9.12c-4.72-2.35-12.43-5.2-24.41-7.14A58.45,58.45,0,0,0,145,3h0a61.24,61.24,0,0,0-19.38,8.25h0l-2.9-.31a67.3,67.3,0,0,1,15-7.53C148.57-.32,165.17-2.53,186,5.15,186,5.15,190.81,6.63,192.6,9.12Z" style="fill:#6c909c"/><path d="M193.25,11c0,3.59-1.41,5-2.59,5s-.94,3.3-3.3,3.3-4.46,1.18-6.1.94c0,0-.95-2.12-7.06-2.35s5.41-1.89-1.65-2.12,9-2.82-.21-2.82,5.86-3.53-2.84-3.53,1.76-1.76,6.88-1.94-14.64-3-24.34.81S148,4.09,163,4.27s18.7,2.47,21.16,3.17-13.84-7.93-36.9-4.76L145,3a58.45,58.45,0,0,1,23.24-1c12,1.94,19.69,4.79,24.41,7.14A3.14,3.14,0,0,1,193.25,11Z" style="fill:#dbd3ce"/><path d="M184.13,7.44c-2.46-.7-6.17-3-21.16-3.17S142.34,12,152,8.25s29.45-1,24.34-.81S160.8,9.38,169.5,9.38s-6.35,3.53,2.84,3.53-6.84,2.59.21,2.82-4.46,1.88,1.65,2.12,7.06,2.35,7.06,2.35A4.12,4.12,0,0,0,177.08,23h0c-16.49-5.05-35.6-10-51.53-11.78A61.24,61.24,0,0,1,144.92,3h0l2.28-.3C170.29-.49,186.6,8.15,184.13,7.44Z" style="fill:#2b2b2b"/><path d="M228.11,41.31A78.51,78.51,0,0,1,213.71,36c10.58-4,14.81-4.23,15.75-1.41S228.11,41.31,228.11,41.31Z" style="fill:#2b2b2b"/><path d="M193.93,102.47h0c-5.2-1-12.48-3-22.42-6.62,16.55-3.95,29.56-9.07,36.09-12.64,1.66-.9,3.17-1.78,4.56-2.63-5,3.22-16,11-14.79,11.51s-3.52,1.06-2.11,2.11-3,1.77-.53,2.65-.35,1.76,2.82,3.7S194.2,102.47,193.93,102.47Z" style="fill:#2b2b2b"/><path d="M225.22,76.92c-3.52.71-2.29,2.29-4.93,3a5.08,5.08,0,0,0-2.36,1.65,19.13,19.13,0,0,0-8.05,4.52c-3.94,4.1-11.25,7.35-6.59,16.68-1.74.55-4.73.55-9.36-.3.27,0,6.71,0,3.61-1.92s-.35-2.82-2.82-3.7,1.94-1.59.53-2.65,3.35-1.58,2.11-2.11,9.77-8.29,14.79-11.51c3.86-2.36,6.8-4.48,9.54-6.17C221.69,74.41,228.75,76.22,225.22,76.92Z" style="fill:#6c909c"/><path d="M217.93,81.57c-1.41,1.55-2.62,3.7-4.22,4.52-2.42,1.24-10,9.52-8.59,13.58.47,1.36,0,2.53-1.83,3.1-4.66-9.33,2.65-12.58,6.59-16.68A19.13,19.13,0,0,1,217.93,81.57Z" style="fill:#dbd3ce"/><path d="M165.27,107.78c-1.11.12-4.57,1.19-13.12.38-11.17-2.6-22.66-6.34-23.19-6.51a202.35,202.35,0,0,0,24.25-2.23h0c.37.22,9.21,5.36,8.69,5.63S167,107.61,165.27,107.78Z" style="fill:#2b2b2b"/><path d="M167,110.6a89.15,89.15,0,0,1-14.88-2.44c8.55.81,12-.26,13.12-.38,1.76-.17-3.88-2.47-3.35-2.73s-8.32-5.41-8.69-5.63a22.79,22.79,0,0,1,8.34,2.23c1.41.57.88,1.37,2.82,1.5s1.58,1.28,2.64,3.22S179.38,111.13,167,110.6Z" style="fill:#dbd3ce"/><path d="M202.07,58.83c-13.71,5.71-51.42,7.43-77.89,0-8.91-2.5-19.93-7-25-15.3-2-3.26-2-7.5,1.71-9.47a16.44,16.44,0,0,1,4.93-1.63c4.57-.82,9.51-.2,14.13-.18,14,.07,28-.32,42,.92A220.51,220.51,0,0,1,183.79,36C220.17,42.61,215.79,53.12,202.07,58.83Z" style="fill:#9ba88e"/><path d="M87.86,51.53a7.12,7.12,0,0,1-6.18,4.41c-4.76.35-8.81-2.29-9.52-6.17s2.29-9.7,10.76-7.23S87.86,51.53,87.86,51.53Z" style="fill:#414142"/><path d="M41.47,39.91c-.27,2.31-3.35,3.33-4.31,2a4.84,4.84,0,0,0-3.53-2c-1.33-.13-2.3.21-2.82,0a5.76,5.76,0,0,0-3.42.93c-.86.67-3.86-.53-3.86-.53a10.81,10.81,0,0,1,17.94-.47Z" style="fill:#ef6522"/><path d="M37.93,46.18a5.26,5.26,0,0,1-5.27,5.27,5.27,5.27,0,0,1-5-3.56,5.12,5.12,0,0,1-.29-1.71,5.27,5.27,0,1,1,10.54,0Z" style="fill:#2b2b2b"/><path d="M42.77,42.36a10.45,10.45,0,0,0-1.3-2.45c-.27,2.31-3.35,3.33-4.31,2a4.84,4.84,0,0,0-3.53-2c-1.33-.13-2.3.21-2.82,0a5.76,5.76,0,0,0-3.42.93c-.86.67-3.86-.53-3.86-.53a10.81,10.81,0,0,0,6.73,16.35,11.1,11.1,0,0,0,2.4.27A10.81,10.81,0,0,0,42.77,42.36ZM30,54.44c-5.2-1.32-5.55-4.58-5.11-5.49s2.78-1.06,2.78-1.06a5.12,5.12,0,0,1-.29-1.71,5.27,5.27,0,1,1,10.54,0,5.16,5.16,0,0,1-.45,2.12C38.69,52.3,35.21,55.76,30,54.44Z" style="fill:#eddc94"/><path d="M30,54.44c-5.2-1.32-5.56-4.58-5.12-5.49s2.78-1.06,2.78-1.06a5.27,5.27,0,0,0,9.81.41C38.69,52.3,35.21,55.76,30,54.44Z" style="fill:#fff2bb"/><path d="M54.79,71.89C50.56,76.66,48,75.33,51,72.6s3.88-11.37,3.79-12.87,4.85-1.41,5.29,2.29S54.79,71.89,54.79,71.89Z" style="fill:#ed9724"/><path d="M116.78,93.48c-3.88-.21-4.24-1.39-4.77.72s-1.94.53-10.4,0S72.34,87.33,70.73,85s4.08-2.11,4.08-2.11c7.6-.35,28.74,5.82,38.26,7S120.65,93.67,116.78,93.48Z" style="fill:#2b2b2b"/><path d="M54.79,71.89C50.56,76.66,48,75.33,51,72.6s3.88-11.37,3.79-12.87,4.85-1.41,5.29,2.29S54.79,71.89,54.79,71.89ZM70.44,61.43c-.5.64-1.57-.46-2.87-1.26-2.29-1.41-3.52-9.35-3.7-16.58s-4.59-7.93-6.84-7.4a2.22,2.22,0,0,0-1.8,2.64s4.05,16.4,0,18.52-4.59.17-4.76-4.76A11.21,11.21,0,0,0,44,42.85,11.83,11.83,0,0,1,32.66,58a11.61,11.61,0,0,1-4.14-.75c-1.63.26-4.26.06-7.15-2.54-4.82-4.31-4.11-8.29-9.32-8.54a26.79,26.79,0,0,1,4.86,8.7c2.17,7.41,1.64,19.57,20.51,23.45S65.81,73.39,67.75,68.1c1.37-3.73,1.67-5.1,2.64-2.59A8.86,8.86,0,0,1,70.44,61.43Z" style="fill:#c6c49d"/><path d="M44,42.85A11.83,11.83,0,1,0,28.52,57.26a11.61,11.61,0,0,0,4.14.75A11.83,11.83,0,0,0,44,42.85ZM32.66,57a11.1,11.1,0,0,1-2.4-.27A10.82,10.82,0,1,1,41.47,39.91a10.45,10.45,0,0,1,1.3,2.45A10.81,10.81,0,0,1,32.66,57Z" style="fill:#7c846f"/><path d="M43.47,46.18A10.81,10.81,0,0,1,32.66,57a11.1,11.1,0,0,1-2.4-.27A10.82,10.82,0,1,1,41.47,39.91a10.45,10.45,0,0,1,1.3,2.45A10.71,10.71,0,0,1,43.47,46.18Z" style="fill:none;stroke:#fff2bb;stroke-miterlimit:10"/><circle cx="37.93" cy="45.29" r="3.64" style="fill:#eae3dd"/><circle cx="85.2" cy="30.01" r="2" style="fill:#414142"/><path d="M94,37.15a1.54,1.54,0,1,1-1.52-1.79A1.67,1.67,0,0,1,94,37.15Z" style="fill:#414142"/><path d="M104.36,32.36a1.3,1.3,0,1,1-1.29-1.24A1.27,1.27,0,0,1,104.36,32.36Z" style="fill:#414142"/><ellipse cx="113.65" cy="31.06" rx="1.53" ry="1.59" style="fill:#414142"/><path d="M116.82,39.88c0,1-1,1.76-2.35,1.76s-2.35-.79-2.35-1.76,1-1.77,2.35-1.77S116.82,38.9,116.82,39.88Z" style="fill:#414142"/><path d="M131.87,39.51c0,.78-1,1.4-2.23,1.4s-2.24-.62-2.24-1.4,1-1.4,2.24-1.4S131.87,38.74,131.87,39.51Z" style="fill:#414142"/><ellipse cx="137.51" cy="31.8" rx="2.59" ry="1.8" style="fill:#414142"/><path d="M127.4,25.67c0,1.29-.68,2.33-1.53,2.33s-1.52-1-1.52-2.33.68-2.34,1.52-2.34S127.4,24.38,127.4,25.67Z" style="fill:#414142"/><path d="M120,21.5a1.61,1.61,0,0,1-3.15,0,1.61,1.61,0,0,1,3.15,0Z" style="fill:#414142"/><ellipse cx="136.69" cy="21.5" rx="0.82" ry="1.27" style="fill:#414142"/><ellipse cx="105.77" cy="21.78" rx="1.41" ry="1.55" style="fill:#414142"/><ellipse cx="89.77" cy="18.94" rx="1.19" ry="1.28" style="fill:#414142"/><path d="M101.77,16.6c0,.59-.63,1.06-1.41,1.06S99,17.19,99,16.6s.63-1.06,1.41-1.06S101.77,16,101.77,16.6Z" style="fill:#414142"/><path d="M73.09,23.13a1.35,1.35,0,1,1-1.35-1.35A1.36,1.36,0,0,1,73.09,23.13Z" style="fill:#414142"/><path d="M63,24.22a1.44,1.44,0,1,1-1.44-1.44A1.44,1.44,0,0,1,63,24.22Z" style="fill:#414142"/><path d="M79.2,34.82c0,.68-.73,1.23-1.64,1.23s-1.65-.55-1.65-1.23.74-1.22,1.65-1.22S79.2,34.15,79.2,34.82Z" style="fill:#414142"/><path d="M103.07,47.57c0,.77-.92,1.39-2.06,1.39S99,48.34,99,47.57s.92-1.39,2.06-1.39S103.07,46.8,103.07,47.57Z" style="fill:#414142"/><path d="M110,45.09a1.45,1.45,0,1,1-1.41-1.1A1.28,1.28,0,0,1,110,45.09Z" style="fill:#414142"/><ellipse cx="146.11" cy="26.84" rx="1.16" ry="1.17" style="fill:#414142"/><path d="M131.87,17.24a2.32,2.32,0,0,1-4.47,0,2.32,2.32,0,0,1,4.47,0Z" style="fill:#414142"/><path d="M114.47,14.87c0,1.31-.53,2.37-1.18,2.37s-1.17-1.06-1.17-2.37.53-2.37,1.17-2.37S114.47,13.56,114.47,14.87Z" style="fill:#414142"/><path d="M153.5,21.58c0,1.46-.63,2.64-1.41,2.64s-1.41-1.18-1.41-2.64.63-2.64,1.41-2.64S153.5,20.13,153.5,21.58Z" style="fill:#414142"/><ellipse cx="166.59" cy="30.01" rx="2.51" ry="2" style="fill:#414142"/><ellipse cx="182.87" cy="33.89" rx="0.92" ry="2.09" style="fill:#414142"/><path d="M162.46,25.53a1.31,1.31,0,1,1-1.31-1.31A1.31,1.31,0,0,1,162.46,25.53Z" style="fill:#414142"/><path d="M155,35.37a1.47,1.47,0,1,1-1.43-1.77A1.64,1.64,0,0,1,155,35.37Z" style="fill:#414142"/><ellipse cx="141.98" cy="45.09" rx="1.88" ry="1.1" style="fill:#414142"/><path d="M119.24,50a1.24,1.24,0,1,1-1.21-1.5A1.38,1.38,0,0,1,119.24,50Z" style="fill:#414142"/><ellipse cx="107.18" cy="56.99" rx="1.41" ry="1.02" style="fill:#414142"/><path d="M94,58.24a.79.79,0,0,1-1.52,0c0-.31.34-.57.76-.57S94,57.93,94,58.24Z" style="fill:#414142"/><path d="M97.82,50.13c0,.65-.85,1.18-1.9,1.18S94,50.78,94,50.13,94.87,49,95.92,49,97.82,49.48,97.82,50.13Z" style="fill:#414142"/><path d="M87.2,63.56a1.57,1.57,0,1,1-1.53-1.94A1.78,1.78,0,0,1,87.2,63.56Z" style="fill:#414142"/><path d="M101.77,66.74c0,.68-.88,1.24-2,1.24s-2-.56-2-1.24.89-1.23,2-1.23S101.77,66.06,101.77,66.74Z" style="fill:#414142"/><path d="M116.82,73.19c0,.68-.79,1.22-1.76,1.22s-1.77-.54-1.77-1.22.79-1.22,1.77-1.22S116.82,72.52,116.82,73.19Z" style="fill:#414142"/><path d="M105.77,81.74c0,.64-.31,1.16-.7,1.16s-.71-.52-.71-1.16.32-1.16.71-1.16S105.77,81.1,105.77,81.74Z" style="fill:#414142"/><ellipse cx="89.77" cy="80.43" rx="1.19" ry="1.14" style="fill:#414142"/><ellipse cx="97.44" cy="98.04" rx="1.52" ry="1.38" style="fill:#414142"/><ellipse cx="72.38" cy="90.63" rx="1.65" ry="1.54" style="fill:#414142"/><path d="M80.32,62.11a1.41,1.41,0,1,1-1.38-1.68A1.55,1.55,0,0,1,80.32,62.11Z" style="fill:#414142"/><path d="M73.09,65.15a2.05,2.05,0,1,1-2-1.59A1.83,1.83,0,0,1,73.09,65.15Z" style="fill:#414142"/><path d="M130.93,64.29a1.8,1.8,0,1,1-1.76-2.18A2,2,0,0,1,130.93,64.29Z" style="fill:#414142"/><ellipse cx="136.92" cy="54.21" rx="2" ry="1.76" style="fill:#414142"/><path d="M121.05,58.41a2.12,2.12,0,1,1-2.11-2A2.06,2.06,0,0,1,121.05,58.41Z" style="fill:#414142"/><path d="M169.1,51.2c0,.7-.78,1.26-1.74,1.26s-1.75-.56-1.75-1.26.78-1.25,1.75-1.25S169.1,50.51,169.1,51.2Z" style="fill:#414142"/><ellipse cx="155.56" cy="47.65" rx="2.06" ry="3.66" style="fill:#414142"/><path d="M130.93,47.57c0,.77-.4,1.39-.88,1.39s-.88-.62-.88-1.39.39-1.39.88-1.39S130.93,46.8,130.93,47.57Z" style="fill:#414142"/><ellipse cx="165.69" cy="41.19" rx="0.9" ry="1.28" style="fill:#414142"/><ellipse cx="178.5" cy="41.95" rx="1.68" ry="2.04" style="fill:#414142"/><path d="M237.26,47.57c0,.77-.83,1.39-1.85,1.39s-1.85-.62-1.85-1.39.83-1.39,1.85-1.39S237.26,46.8,237.26,47.57Z" style="fill:#414142"/><path d="M235.41,53.34c0,.48-.23.87-.51.87s-.51-.39-.51-.87.23-.88.51-.88S235.41,52.85,235.41,53.34Z" style="fill:#414142"/><path d="M229.68,51.73a1.74,1.74,0,1,1-1.73-1.6A1.67,1.67,0,0,1,229.68,51.73Z" style="fill:#414142"/><path d="M230.91,59.42c0,.56-.66,1-1.48,1S228,60,228,59.42s.66-1,1.48-1S230.91,58.87,230.91,59.42Z" style="fill:#414142"/><path d="M234.39,65.38c0,.6-.77,1.09-1.74,1.09s-1.74-.49-1.74-1.09.78-1.09,1.74-1.09S234.39,64.78,234.39,65.38Z" style="fill:#414142"/><path d="M218.92,56.52a.5.5,0,0,1-1,0,.5.5,0,0,1,1,0Z" style="fill:#414142"/><path d="M222.63,47.32c0,.62-.94,1.13-2.1,1.13s-2.1-.51-2.1-1.13.94-1.14,2.1-1.14S222.63,46.69,222.63,47.32Z" style="fill:#414142"/><ellipse cx="213.77" cy="41.95" rx="1.62" ry="2.04" style="fill:#414142"/><path d="M221.69,56.52a2.44,2.44,0,1,1-2.44-2.31A2.37,2.37,0,0,1,221.69,56.52Z" style="fill:#414142"/><path d="M225.27,62.5A1.35,1.35,0,1,1,224,61.43,1.21,1.21,0,0,1,225.27,62.5Z" style="fill:#414142"/><ellipse cx="202.08" cy="53.18" rx="2.03" ry="1.98" style="fill:#414142"/><ellipse cx="201.47" cy="45.78" rx="2.65" ry="1.79" style="fill:#414142"/><path d="M195.12,39.38a1.28,1.28,0,1,1-1.26-1.53A1.42,1.42,0,0,1,195.12,39.38Z" style="fill:#414142"/><path d="M204.11,37a1,1,0,1,1-1-1.06A1,1,0,0,1,204.11,37Z" style="fill:#414142"/><path d="M191.06,31.71c0,.36-.55.65-1.23.65s-1.24-.29-1.24-.65.55-.65,1.24-.65S191.06,31.35,191.06,31.71Z" style="fill:#414142"/><path d="M188.59,51.3a1.55,1.55,0,1,1-1.5-1.17A1.36,1.36,0,0,1,188.59,51.3Z" style="fill:#414142"/><ellipse cx="174.48" cy="55.37" rx="0.88" ry="1.15" style="fill:#414142"/><path d="M193.93,60.76a1.44,1.44,0,1,1-1.44-1.34A1.39,1.39,0,0,1,193.93,60.76Z" style="fill:#414142"/><path d="M177.66,64.29c0,1.2-.71,2.18-1.59,2.18s-1.59-1-1.59-2.18.72-2.18,1.59-2.18S177.66,63.08,177.66,64.29Z" style="fill:#414142"/><path d="M155.56,59.59a1,1,0,1,1-1-1.18A1.1,1.1,0,0,1,155.56,59.59Z" style="fill:#414142"/><path d="M141.16,60.5c0,.51-.24.92-.53.92s-.53-.41-.53-.92.24-.91.53-.91S141.16,60,141.16,60.5Z" style="fill:#414142"/><path d="M149.8,52.53c0,.45-.56.81-1.26.81s-1.25-.36-1.25-.81.56-.8,1.25-.8S149.8,52.09,149.8,52.53Z" style="fill:#414142"/><path d="M162.46,68.37a1.78,1.78,0,1,1-1.75-1.43A1.62,1.62,0,0,1,162.46,68.37Z" style="fill:#414142"/><path d="M150.68,70.51c0,.81-.48,1.46-1.07,1.46s-1.07-.65-1.07-1.46S149,69,149.61,69,150.68,69.7,150.68,70.51Z" style="fill:#414142"/><path d="M168.14,61.27c0,.46-.57.84-1.27.84s-1.26-.38-1.26-.84.57-.84,1.26-.84S168.14,60.81,168.14,61.27Z" style="fill:#414142"/><ellipse cx="196.97" cy="66.56" rx="1.85" ry="1.41" style="fill:#414142"/><path d="M212.09,60.52c0,.61-1,1.1-2.14,1.1s-2.14-.49-2.14-1.1,1-1.1,2.14-1.1S212.09,59.92,212.09,60.52Z" style="fill:#414142"/><path d="M206.05,69.24a1,1,0,1,1-1-1.26A1.15,1.15,0,0,1,206.05,69.24Z" style="fill:#414142"/><path d="M187.09,77c0,.58-.33,1.06-.75,1.06s-.75-.48-.75-1.06.34-1.06.75-1.06S187.09,76.44,187.09,77Z" style="fill:#414142"/><ellipse cx="185.44" cy="67.89" rx="1.65" ry="1.15" style="fill:#414142"/><path d="M168.14,87a1.26,1.26,0,1,1-1.23-1A1.12,1.12,0,0,1,168.14,87Z" style="fill:#414142"/><ellipse cx="149.17" cy="84.31" rx="0.63" ry="0.47" style="fill:#414142"/><path d="M142,77.63A1.54,1.54,0,1,1,140.45,76,1.59,1.59,0,0,1,142,77.63Z" style="fill:#414142"/><path d="M176.82,76.25a2,2,0,1,1-2-1.84A1.95,1.95,0,0,1,176.82,76.25Z" style="fill:#414142"/><path d="M159.85,79.33a1.12,1.12,0,1,1-1.12-1.24A1.19,1.19,0,0,1,159.85,79.33Z" style="fill:#414142"/><path d="M127.4,77.79a1.53,1.53,0,1,1-1.53-1.54A1.53,1.53,0,0,1,127.4,77.79Z" style="fill:#414142"/><path d="M136.92,88.81A1.85,1.85,0,1,1,135.07,87,1.83,1.83,0,0,1,136.92,88.81Z" style="fill:#414142"/><path d="M121.94,87.55a1.5,1.5,0,1,1-1.5-1.53A1.53,1.53,0,0,1,121.94,87.55Z" style="fill:#414142"/><ellipse cx="105.77" cy="74.13" rx="1.41" ry="0.94" style="fill:#414142"/><path d="M82.12,75.88a1.48,1.48,0,1,1-1.46-1.75A1.62,1.62,0,0,1,82.12,75.88Z" style="fill:#414142"/></g></g></svg>