<svg xmlns="http://www.w3.org/2000/svg" viewBox="0 0 317.09 166.56"><title>bubble-eye-goldfish</title><g id="Layer_2" data-name="Layer 2"><g id="Ñëîé_2" data-name="Ñëîé 2"><path d="M8.42,55.12a13.13,13.13,0,0,0,11,1.49s6.28-1.82,10.33-5.3,7.23-5.47,15.66-2.8c-14,4.17-23.33,8.8-25.06,12.56C16.24,70,12.52,72.61,9.54,76a12.41,12.41,0,0,0-1.39,2C3.17,73.81-2.27,65.78,1,51,6.47,26.09,35.21,8.61,56.8,18.65c1.28.6,2.45,1.23,3.54,1.88A37.42,37.42,0,0,0,28,21.82C1.91,35,3,51.58,8.42,55.12Z" style="fill:#f3a500"/><path d="M41.62,76.15a12.86,12.86,0,0,0-6.36-1.59c-5.47,0-9.9,3.06-9.9,6.84,0,2.36,1.73,4.44,4.37,5.67,0,0-6,2.19-7.26-3.67S24.7,72,33.22,71.68,41.62,76.15,41.62,76.15Z" style="fill:#ea9603"/><path d="M26,147.84h0c-8.17-2.26-15.17-7.17-18.55-14.63A45.27,45.27,0,0,1,6.06,97.43,57.23,57.23,0,0,1,10,89.1c-.09.53-4.92,32.49,14.27,38.21,19.35,5.77,28.65-4.1,30.88.74S51.06,149.37,26,147.84Z" style="fill:#ffcb56"/><path d="M76.31,82.9v0c0-.16-.09-.31-.14-.46C75,78.79,70.65,76.36,64.24,77c-6.7.65-19.16.84-20.46-5.31s8-8.43,8.37-8.5c-12.35-.8-26.08,5-33.59,13.81-1.31,1.54-2.57,3.11-3.75,4.71A70,70,0,0,0,10,89.09h0c-.09.53-4.92,32.49,14.27,38.21,19.35,5.77,28.65-4.1,30.88.74S51.06,149.37,26,147.84c14.78,4.1,33.32-.53,41.14-14.63a71.72,71.72,0,0,0,7.58-15.94C77.85,108,80,95.62,76.31,82.9Zm-53.84.5C21.22,77.54,24.7,72,33.22,71.68s8.4,4.47,8.4,4.47-1.25.86-3,2.19a57.26,57.26,0,0,0-7,6.31,17.49,17.49,0,0,0-1.88,2.42S23.73,89.26,22.47,83.4Zm50.08,17.32c0,.29-.11.58-.18.86-1.9,8.08-11.16,10.75-18.32,12.07-8.34,1.54-17.37,1.4-24.86-3-1.86-1.11-5.34-3.5-5.12-6.1.28-3.27,4.77-2.13,6.86-2a23.94,23.94,0,0,0,8.44-1.15c5.58-1.85,10-6.11,11.09-12,.48-2.6-1.19-7.45,1.55-9.14s8,.74,10.55,1.53C70.37,84.15,74,93.06,72.55,100.72Z" style="fill:#f3a500"/><path d="M38.65,78.34a57.26,57.26,0,0,0-7,6.31,4.09,4.09,0,0,1-1.88-3.34C29.73,78.92,32,77,34.89,77A5.72,5.72,0,0,1,38.65,78.34Z" style="fill:#2b2b2b"/><path d="M41.62,76.15s-1.25.86-3,2.19A5.72,5.72,0,0,0,34.89,77c-2.85,0-5.16,1.94-5.16,4.33a4.09,4.09,0,0,0,1.88,3.34,17.49,17.49,0,0,0-1.88,2.42c-2.64-1.23-4.37-3.31-4.37-5.67,0-3.78,4.43-6.84,9.9-6.84A12.86,12.86,0,0,1,41.62,76.15Z" style="fill:#eae3dd"/><path d="M72.39,42.23a249.26,249.26,0,0,0-27,6.28h0c-8.43-2.67-11.72-.6-15.66,2.8s-10.33,5.3-10.33,5.3a13.13,13.13,0,0,1-11-1.49C3,51.58,1.91,35,28,21.82a37.42,37.42,0,0,1,32.38-1.29C71,27,72.68,36.2,72.39,42.23Z" style="fill:#ffcb56"/><path d="M76.17,82.42C75,78.79,70.65,76.36,64.24,77c-6.7.65-19.16.84-20.46-5.31s8-8.43,8.37-8.5h0c10.29.67,19.63,6,23.63,18Z" style="fill:#ffcb56"/><path d="M72.55,100.72c0,.29-.11.58-.18.86-1.9,8.08-11.16,10.75-18.32,12.07-8.34,1.54-17.37,1.4-24.86-3-1.86-1.11-5.34-3.5-5.12-6.1.28-3.27,4.77-2.13,6.86-2a23.94,23.94,0,0,0,8.44-1.15c5.58-1.85,10-6.11,11.09-12,.48-2.6-1.19-7.45,1.55-9.14s8,.74,10.55,1.53C70.37,84.15,74,93.06,72.55,100.72Z" style="fill:#ea9603"/><path d="M303.22,30.65c-10,6.42-3.62,9.77-8.09,10.61s.28,7.53-4.51,9.49,3.12,7-3,8.93-3.35,10.6-8.66,12,.28,9.22-5.58,11.23-8.65,7.2-3.35,9.15-1.39,8.09,5.31,10.88.83,7,6.14,9.77-.56,9.21,2.79,11.72-.84,7.82,3.35,9.49,3.07,3.35,1.39,7.54c-1.38,3.45-2.76,3.49-1.33,6.67-2.64-5.48-16-9.47-24.34-12.81s-11.35-6-18-10.61-4.1-7.44,5.21-1.86,29.77,8.75,10.79,1.12-28.65-21.77-16-12.65,29.77,12.83,18.6,7.07-22.7-16.75-17.3-14.14,26.23,8.37,7.26,0-27-20.1-19.54-17.31S253.45,90.1,247,88.8,222,78.93,232.43,80.61s27.72,0,15.63-1-15.63-2.9-15.63-2.9C257,75.4,273.74,65.16,270,66.84s-12.83,1.3-12.83,1.3c17.86-5.21,30.7-22.32,22.7-15.44s-19.27,10.35-19.62,10.46c28.46-18.27,40.45-42,34-34.74s-23.16,13.95-9.48,5c9.37-6.12,19.93-20.77,25.64-29.38h0c3-3.12,4.81-4.69,5.61-3.83C319.69,4.14,313.27,24.23,303.22,30.65Z" style="fill:#ffcb56"/><path d="M260.26,63.16c.35-.11,11.74-3.68,19.62-10.46S275,62.93,257.18,68.14c0,0,9.11.37,12.83-1.3s-13,8.56-37.58,9.86c0,0,3.54,1.89,15.63,2.9s-5.21,2.68-15.63,1,8,6.88,14.52,8.19-5.22.92-12.66-1.87.56,8.93,19.54,17.31-1.86,2.6-7.26,0,6.14,8.37,17.3,14.14-5.95,2-18.6-7.07-3,5,16,12.65-1.49,4.47-10.79-1.12-11.91-2.79-5.21,1.86,9.67,7.26,18,10.61,21.7,7.33,24.34,12.81l0,0c.3.68.73,1.49,1.31,2.51,3.35,5.86,1.12,10-3.07,2.23s-16.19-10.61-30.14-15.07c-5.68-1.81-16.1-10.54-26.47-20.27l-.06,0c-.94-.87-1.87-1.76-2.79-2.64l-.11-.1c-9.89-10-15-21.13-13.45-21.13s4.27,5.4,9.67,10.8,1.3-3.91-5.32-11.36S216,89,216,89c16.33,14,16.61,12.46,4.89-.74S222.57,83,220,79.6s3.48-1.78,1.25-4.2,5.39-.19,2-1.49-4.09-3.16-.18-2.88,14.7-3.63,4.65-2.7-9.67-2.61-2.69-2.79S257,54.93,245.46,58.1,217.17,62.75,229.31,60c11.94-2.75,34.41-17.75,35.11-18.22h0c24.38-13.47,38.74-30.12,46-37.67-5.71,8.61-16.27,23.26-25.64,29.38-13.68,8.93,3.07,2.24,9.48-5S288.72,44.89,260.26,63.16Z" style="fill:#f28400"/><path d="M225.09,65.54c-7,.18-7.36,3.72,2.69,2.79s-.74,3-4.65,2.7-3.17,1.58.18,2.88-4.27-.93-2,1.49-3.81.77-1.25,4.2-10.85-4.57.88,8.64,11.44,14.69-4.89.74c0,0-5.38-3.35,1.24,4.09s10.72,16.75,5.32,11.36-8-10.8-9.67-10.8,3.56,11.17,13.45,21.13c-14.08-13.45-27.22-27.69-27.22-27.69,10.19.46,11.76-2.51,13.16-6.25a16.6,16.6,0,0,1,3.4-6.26,5.94,5.94,0,0,0,1.56-4c.13-4.31-3-9.71-5.17-12.89a25.27,25.27,0,0,0,11.61-.44,155.81,155.81,0,0,0,40.73-15.46c-.7.47-23.17,15.47-35.11,18.22-12.14,2.79,4.61,1.3,16.15-1.86S232.07,65.35,225.09,65.54Z" style="fill:#e57803"/><path d="M217.25,70.53c-5.49-3.65-29.86-18.8-52.73-15.6-25.41,3.55-71.32,4.52-89.47-13.16,4.34-.75,8.84-1.42,13.46-2a322.74,322.74,0,0,1,33.41-2.51,186.79,186.79,0,0,1,67.6,11,120.49,120.49,0,0,1,17.24,7.59,21.55,21.55,0,0,0,5.33,1.78C214.25,60.82,217.38,66.22,217.25,70.53Z" style="fill:#f59d33"/><path d="M164.52,54.93c-25.41,3.55-71.32,4.52-89.47-13.16l-.31,0-2.35.41a249.26,249.26,0,0,0-27,6.28h0c-14,4.17-23.34,8.79-25.06,12.56C16.24,70,12.52,72.61,9.54,76a13.12,13.12,0,0,0-1.38,2c-2.58,4.33-5.24,12.74-2.1,19.51A58.18,58.18,0,0,1,10,89.1h0a72.87,72.87,0,0,1,4.84-7.41c1.18-1.59,2.44-3.16,3.76-4.7,7.5-8.77,21.23-14.61,33.58-13.81h0c10.28.66,19.62,5.94,23.62,18,.14.41.27.83.39,1.25,0,.15.1.3.14.46v0C80,95.62,77.85,108,74.7,117.27c0,0,1.31.56,3.56,1.4,0,0,11.66-15.47,3.28-34s11.36-1.44,7.82,21.54c0,0-3.18,13.19,6.22,18h0c1.26.33,2.56.65,3.88.95,1.53.35,3.09.67,4.66,1h0c6.72,1.25,13.66,1.88,19.64,1.11,1.33-.17,2.65-.36,4-.58A91.64,91.64,0,0,0,142.2,123c1-.34,2-.71,3-1.09,7.79-3,13.86-7,17.24-11.36h0c15.48-30.59-8.81-36.39,7.66-38.91s42.19,9.14,42.19,9.14a16.61,16.61,0,0,1,3.39-6.25,5.9,5.9,0,0,0,1.56-4C211.76,66.88,187.39,51.73,164.52,54.93Zm-6.11,34.74c-.4,5.14-4.67,10.71-8.09,14.3a34.64,34.64,0,0,1-14.6,8.86c-11.5,3.71-24.32,2.89-35.91,0-1.09-.26-1.71-.44-1.71-.44-6.92-1.36-5.46-10.19-3.55-15.18,5.59-14.54,22-8.74,34.23-11,7.6-1.4,15.2-3.53,23-3.12C155.66,83.34,158.74,85.37,158.41,89.67Z" style="fill:#f28400"/><path d="M158.4,89.67c-.39,5.14-4.66,10.71-8.08,14.3a34.64,34.64,0,0,1-14.6,8.86c-11.5,3.71-24.32,2.89-35.92,0-1.08-.26-1.7-.44-1.7-.44-6.92-1.36-5.46-10.19-3.55-15.18,5.59-14.54,22-8.74,34.23-11,7.6-1.41,15.2-3.54,23-3.12C155.66,83.34,158.73,85.37,158.4,89.67Z" style="fill:#f59d33"/><path d="M95.58,124.18c-5-1.29-9.52-2.74-13.09-4h0c-1.63-.57-3-1.08-4.23-1.53,0,0,11.66-15.47,3.29-34s11.35-1.44,7.82,21.54C89.36,106.19,86.18,119.38,95.58,124.18Z" style="fill:#e57803"/><path d="M212.29,80.82c-1.4,3.74-3,6.71-13.16,6.25a38.73,38.73,0,0,0-12.49,1.65,35.7,35.7,0,0,0-6.36,2.67,37.7,37.7,0,0,0-8.69,6.52c-.84.84-1.63,1.7-2.36,2.57a43.36,43.36,0,0,0-5.27,7.76,16,16,0,0,1-1.51,2.34c15.48-30.59-8.81-36.39,7.65-38.91S212.29,80.82,212.29,80.82Z" style="fill:#e57803"/><path d="M116.1,135.45c9.35,7.67,7.68,16.6,7.68,16.6-2.79-11.3-12.28-17-15.07-17.86s-6.6-4.18-6.6-4.18c.71,4.45,4.22,2.09,13,11.44s6.27,18.7,6.27,18.7c-2.74-16.76-15.09-21.33-15.47-21.46,13.52,10.92,11.71,18.48,11.71,18.48-1.12-6.61-7.26-15.16-18.42-20.75-11-5.49-16.56-15.89-16.73-16.21,3.57,1.23,8.12,2.68,13.09,4h0c1.27.33,2.57.65,3.88.95,1,2.51,6.73,3.9,16.08,7.67s8.93,11.3,8.93,11.3C122.1,136.15,116.1,135.45,116.1,135.45Z" style="fill:#f3a500"/><path d="M143.16,129.93c9.51,6.49,33.83,7.24,33.83,7.24-15.82,5-39.82-7.07-39.82-7.07,4.47,5.58,28.78,11.72,28.78,11.72-25.85-3-37.36-14.31-38.18-15.14l0,0h0A91.91,91.91,0,0,0,142.2,123c13.77,10.25,30,1.15,30,1.15-6.24,8.48-23.14,5.09-23.62,5,12.1,6.51,30.69,1.49,30.69,1.49C164.87,138.47,144.15,130.32,143.16,129.93Z" style="fill:#f3a500"/><path d="M183.92,131.26c-1.26,1.68-2.51,2-2.93,5s-3.91,5.45-7.26,5.59-4.5,3.48-4.5,3.48c-28.58-1.89-40.74-17.7-41.46-18.67.82.83,12.33,12.09,38.18,15.14,0,0-24.31-6.14-28.78-11.72,0,0,24,12.09,39.82,7.07,0,0-24.32-.75-33.83-7.24,1,.39,21.71,8.54,36.06.73,0,0-18.59,5-30.69-1.49.48.1,17.38,3.49,23.62-5,0,0-16.18,9.1-30-1.15,1-.34,2-.7,3-1.08,9.42,8.26,31.05-.74,31.05-.74a8.14,8.14,0,0,1-2.79,6.84c5.31-1,6.84-2.65,6.84-2.65C183.78,124.7,185.17,129.59,183.92,131.26Z" style="fill:#ffcb56"/><path d="M212.62,128.05c-9.1-2.23-13.22-5-20.47-17.47s-22.92-10.1-22.92-10.1c.73-.87,1.52-1.73,2.36-2.57,4.22.09,15.23.77,18.47,5.58,4,6,10.18,17.16,16.18,19.81-.24-.26-8-8.72-9.76-13.81s-5.08-10.6-12.08-12.42c.57.08,9.78,1.41,12.22,6,2.51,4.74,4,10.6,7.25,13.12-.15-.31-5.43-10.78-4.74-12.84a6.28,6.28,0,0,0-1.4-5.58c-.83-.69-9-3.86-13.27-3.63,1.1-.1,11.89-1,14.67,2.1,0,0-2.37-5.42-4.19-5.29a111.93,111.93,0,0,0-14.66.44,35.7,35.7,0,0,1,6.36-2.67A36.07,36.07,0,0,1,199.13,91a7.4,7.4,0,0,0,3.77,6.68c3,1.78,7.22,11.74,7.39,12.13-2.44-3.5-8.8-4.27-9.19-4.31,3.62,1.13,7.8,5.86,7.8,5.86-.56,2.23-1.82,3.63.27,6.24s.84,4.64.28,6.63S212.42,127.94,212.62,128.05Z" style="fill:#ffcb56"/><path d="M125.81,151.49c-1.59,2.38-1.61,6.7-2.17,10.38s-6.7,4.69-6.7,4.69c1.53-3.48.7-9.39.7-9.39s1.81-7.56-11.71-18.48c.38.13,12.73,4.7,15.47,21.46,0,0,2.52-9.35-6.27-18.7s-12.31-7-13-11.44c0,0,3.81,3.34,6.6,4.18s12.28,6.56,15.07,17.86c0,0,1.67-8.93-7.68-16.6,0,0,6,.7,8.37,8.65,0,0,.42-7.54-8.93-11.3s-15.13-5.16-16.08-7.67c1.54.35,3.1.67,4.67,1h0a35.85,35.85,0,0,0,12,4.88c6.7,1.4,9.77,7.12,10.75,10.84S127.4,149.12,125.81,151.49Z" style="fill:#ffcb56"/><path d="M206.24,123.3c-6-2.65-12.14-13.81-16.18-19.81-3.24-4.81-14.25-5.49-18.47-5.58a37.7,37.7,0,0,1,8.69-6.52A111.93,111.93,0,0,1,194.94,91c1.82-.13,4.19,5.29,4.19,5.29-2.78-3-13.57-2.2-14.67-2.1,4.25-.23,12.44,2.94,13.27,3.63a6.28,6.28,0,0,1,1.4,5.58c-.69,2.06,4.59,12.53,4.74,12.84-3.21-2.52-4.74-8.38-7.25-13.12-2.44-4.59-11.65-5.92-12.22-6,7,1.82,10.26,7.27,12.08,12.42S206,123,206.24,123.3Z" style="fill:#f3a500"/><path d="M124.48,106.19s15.94.88,20.4-5.71,6.32-9.82-7.58-9.6-24.23,2-28.14,9.6S124.48,106.19,124.48,106.19Z" style="fill:#f7b15c"/><path d="M189.52,48.27c-2.89,2.61-9.54,2.93-18.7.13-13.69-4.18-43,.56-57.41,1.12s-24.9-9.75-24.9-9.75a322.74,322.74,0,0,1,33.41-2.51A186.79,186.79,0,0,1,189.52,48.27Z" style="fill:#f7b15c"/><path d="M268.59,80.28c-1.75,1.07-3.66,2.11-4.65,3.83-2.59,4.55.31,10.53,2.62,14.53,9.21,15.9,8.93,17.81,8.09,24.39s-6.13-15-13.11-21.2S249.26,88,256,82.42s14.66-9,17.24-11.89c1.73-1.94,2.49.23,2,1.91a13.14,13.14,0,0,1-5,6.73C269.73,79.56,269.17,79.92,268.59,80.28Z" style="fill:#ffd578"/></g></g></svg>