<svg xmlns="http://www.w3.org/2000/svg" viewBox="0 0 248.92 78.93"><title>clown-killifish</title><g id="Layer_2" data-name="Layer 2"><g id="Ñëîé_2" data-name="Ñëîé 2"><path d="M223.49,46.37c-4.42-.1-8.86-1.26-10.18-3.51-1.53-2.62-3.71-1.85-6.23-1.74s-3.5-1.1-4.81-2.52-3.17-1.42-5.9-1-3.5-1-5-3-3.28-1.2-6.67-1.2-2.73-1.76-3.49-3.17S177,29,176.58,27.45a18.13,18.13,0,0,0-2.69-4.26c15-5.56,19.37-5.35,29.91-2.51,11.37,3.06,13.78,12.24,15.31,12.67s2.84,8.31,4.37,13C223.49,46.34,223.49,46.35,223.49,46.37Z" style="fill:#3887a5"/><path d="M228.34,50.74s-10.76-3-13.71-4.41-4.38-3.35-7.44-3.24-4.81-.66-5.68-1.75-2-.78-4.82-1.59-3.6-2.18-6.44-2.1-3.72-.22-4.71-1.44-1.09-1.22-2.95-1.65-2.84-.88-3.61-2.08a11.58,11.58,0,0,0-3.6-3.17c-1.64-1.09-5.47-3.06-5.25-4.7,1.32-.51,2.57-1,3.76-1.42a18.13,18.13,0,0,1,2.69,4.26c.44,1.54,3.83,1.42,4.6,2.85s.1,3.17,3.49,3.17,5.14-.77,6.67,1.2,2.3,3.45,5,3,4.59-.47,5.9,1,2.3,2.62,4.81,2.52,4.7-.88,6.23,1.74c1.32,2.25,5.76,3.41,10.18,3.51C224.11,48.18,225.93,49.54,228.34,50.74Z" style="fill:#ce3319"/><path d="M246,65.28c-5.46-.22-2.41,2.84-12.46,1.75L233,67h0c-.32-.13-7.21-2.86-15.73-5.93-4.41-1.6-9.27-3.29-13.87-4.75l-3.38-1a105.16,105.16,0,0,0-10.48-2.57c-3.41-.63-5.29-.68-5.55-.48-.07,0,0,.11.06.17,1,.66-5.17-.21-10.13-2-.79-.28-1.59-.59-2.39-.94-4.2-1.81-8.25-4.4-9.35-6.61a27.69,27.69,0,0,0,.88-3.33,19.52,19.52,0,0,0-.28-9.48,11.74,11.74,0,0,0-1.53-3.37,21.15,21.15,0,0,0,7.2-1.24c.87,1.44,2.54,3.81,4.45,4.25,2.78.66,4.91,2.79,6.55,5.09a11.86,11.86,0,0,0,7.13,4.52c.31.07.63.14,1,.2a15.44,15.44,0,0,0,1.74.19c5.09.33,8.37.82,10.66,2.46s22.16,9.55,39,13.05h0c.91.42,1.81.86,2.66,1.32C248.84,60.47,251.46,65.49,246,65.28Z" style="fill:#ed8d24"/><path d="M233,67a27.11,27.11,0,0,0-3.59-.09s-17.93-5.36-28-7.31a81.84,81.84,0,0,1-16.62-4.85c-1.31-.48-4.7,1.69-11.7,0S162.56,49.47,158.59,50c-.1-.26-.19-.49-.27-.68a5,5,0,0,0-.32-.7,3.15,3.15,0,0,0,1-.58h0a10.88,10.88,0,0,0,3.15-5.18c1.1,2.21,5.15,4.8,9.35,6.61.8.35,1.6.66,2.39.94,5,1.75,11.11,2.62,10.13,2-.1-.06-.13-.12-.06-.17.26-.2,2.14-.15,5.55.48A105.16,105.16,0,0,1,200,55.25l3.38,1c4.6,1.46,9.46,3.15,13.87,4.75C225.76,64.11,232.65,66.84,233,67Z" style="fill:#62f4e9"/><path d="M163,39.53a27.69,27.69,0,0,1-.88,3.33C160.41,48,158,48.62,158,48.62c-1.35-2.43-4.29-3-10.89-3.19h-.49c0-.1-.34-.92-2.29-2.56s-4-5.13-3.17-8.08c.1-.3.18-.57.25-.82,2.2.33,4.39.73,6.53,1.26,9.4,2.29,9.84-1,4.92-4.89-2.06-1.61-7-3.92-14.06-6.21a25.16,25.16,0,0,1-.74-3.58c1,.35,1.9.68,2.66,1,0,0,0,0,0,0,2.06.8,3.16,1.33,3.16,1.33a47,47,0,0,0,14.68,3.74h0a24.38,24.38,0,0,0,2.65.08S164.67,31.33,163,39.53Z" style="fill:#6e7579"/><path d="M126,17a6.39,6.39,0,0,0-.66,3.39,186.67,186.67,0,0,0-25.62-4,111.42,111.42,0,0,0-15.18-.18A3.39,3.39,0,0,1,84,14.42a127.13,127.13,0,0,1,38.21,1.79C123.51,16.48,124.79,16.75,126,17Z" style="fill:#6e7579"/><path d="M99.71,52.47q-3.48.64-7.12,1.24l-.59.1c-2,.32-4.13.63-6.24.91-1.19.17-2.39.32-3.59.46-.92-2.06-2.85-1.55-4.68-3.6s.43-2.78,2-3.68-.66-3-2.71-7.63c-1.54-3.45-2-5.71-1.52-7.48,3.83-.44,7.65-.85,11.49-1.17a13.74,13.74,0,0,0,2.9,7.31c3,4.12,5.72,7.65,7.58,8.89A7,7,0,0,1,99.71,52.47Z" style="fill:#dbd3ce"/><path d="M126.68,47c-7.47,1.43-16.69,3.57-27,5.47a7,7,0,0,0-2.49-4.65c-1.86-1.24-4.54-4.77-7.58-8.89a13.74,13.74,0,0,1-2.9-7.31A154,154,0,0,1,105.47,31c6.3.23,12.6.79,18.88,1.29-1.08,2-1.66,3.69.11,6.3C127.06,42.43,127.84,43.25,126.68,47Z" style="fill:#6e7579"/><path d="M84.55,16.23c-3.16.16-6.33.42-9.47.76a7.34,7.34,0,0,1,.32-1.39l2.47-.39q3.09-.48,6.1-.79A3.39,3.39,0,0,0,84.55,16.23Z" style="fill:#dbd3ce"/><path d="M75.4,15.6A7.34,7.34,0,0,0,75.08,17c-2,.2-3.88.43-5.81.67-6.59.84-13.16,1.92-19.68,3.19.28-.5.55-1,.79-1.34Z" style="fill:#6e7579"/><path d="M50.38,19.51c-.24.38-.51.84-.79,1.34q-3.6.69-7.19,1.47l-2.29.49a3.41,3.41,0,0,0,.26-1.74Z" style="fill:#dbd3ce"/><path d="M56,56.44c-1.59-.08-3.14-.18-4.67-.32a99.49,99.49,0,0,1-21.74-4.35c.76-2.6,5-2.54,6.24-3.38,1.48-1,.17-4.84-.49-6.48s1.14-1.07.9-3c-.14-1.12-.9-2.47-1.15-3.6a34.34,34.34,0,0,0,7.66.72c1.85,0,3.69-.09,5.54-.22.26,1.13.58,2.38,1,3.79,1.6,5.16,2.67,8.35,2,10S52.18,53.9,56,56.44Z" style="fill:#dbd3ce"/><path d="M23.65,32.15c-1.68,2.07-1,4.19-.74,6s-3.45,4.91-6.23,5.41-1.5-.95-1.49-2.2a5.37,5.37,0,0,0,.7,0,6.18,6.18,0,0,0,1.9-12.06c1.34-1,.36-2.42,0-3.33a2.2,2.2,0,0,1,.38-1.5l4.11-.63a2.49,2.49,0,0,0,.52,2.24C24.55,28.38,25.32,30.09,23.65,32.15Z" style="fill:#ed8d24"/><path d="M40.37,21.07l-18.06,2.8a2.49,2.49,0,0,0,.52,2.24c1.72,2.27,2.49,4,.82,6s-1,4.19-.74,6-3.45,4.91-6.23,5.41-1.5-.95-1.49-2.2A6.17,6.17,0,0,1,15.89,29a6.29,6.29,0,0,1,1.9.29c1.34-1,.36-2.42,0-3.33a2.2,2.2,0,0,1,.38-1.5C11.26,25.56,6.34,26.28,4,26.58c-7,.87-3.72,8.09,2,12.9,3.29,2.78,11.27,8.28,23.68,12.29.76-2.6,5-2.54,6.24-3.38,1.48-1,.17-4.84-.49-6.48s1.14-1.07.9-3c-.14-1.12-.9-2.47-1.15-3.6-5.19-1.16-7.43-3.52-7.43-5.47,0-2.78,2.29-4.26,4.85-5.16a42.52,42.52,0,0,1,4.83-1.26l2.74-.63A3.41,3.41,0,0,0,40.37,21.07ZM30.7,40.35c.82-4.54,2-1,2.62,2.35s.06,5.68-5.08,6.18-6.34-.76-4.43-1.69C23.81,47.19,29.88,44.89,30.7,40.35Z" style="fill:#6e7579"/><path d="M229.38,66.88A31.1,31.1,0,0,0,222,68.06c-1.24-.22-2.7-.4-4.24-.55-6.23-.61-14-.68-15.4-.63-2.29.07-6.12-1.16-10.17-2.26s-7.1-.87-7-.44-4.37-.1-8-1.31-10.49-.43-10.82,1.31A1.66,1.66,0,0,1,165,65.37,130.71,130.71,0,0,1,158.59,50c4-.52,7.5,3,14.49,4.72s10.39-.48,11.7,0a81.6,81.6,0,0,0,16.62,4.85C211.45,61.52,229.38,66.88,229.38,66.88Z" style="fill:#ce3319"/><path d="M222,68.06c-5.12,1.43-9.78,4-14.28,6.4-7.65,4.15-19.24,5.46-20.77,3.72s-2.19.87-4.38,0-5.68-2.41-7.87-4.74.22,1.89-4.81-1.6c-1.67-1.16-3.34-3.59-4.87-6.47a1.66,1.66,0,0,0,1.38-1.19s3.17,4.92,5.46,4.49,1.42-.66,3.83,1.2,5.35.11,7.32,1.85,2.84-.32,4.05.56,6,2.34,5.46,1.17,2.08-1,3.17-.45,1.64-2.48,2.85-1.28,3-1.74,4.81-1.85,4.7-.11,5.57.33,5.77-.25,8.84-2.69C219.32,67.66,220.78,67.84,222,68.06Z" style="fill:#62f4e9"/><path d="M158.57,26.6h0a33.53,33.53,0,0,1-3.92-.49,52.53,52.53,0,0,1-10.76-3.25s-.48-.24-1.42-.63c-.46-.2-1.05-.44-1.74-.7,0,0,0,0,0,0-4.67-3.41-1.75-7-1.75-7,3.26-6,11.92-7.54,10.38-6.41s-2.28,3.35,0,1.78,7.66-3.68,5.69-2-2,2.74-.43,1.53c.88-.69,4.14-1.59,6.75-2.24-2.21,2.34-2.36,4.16-1.12,7.6,1.48,4.1.66,6.23-.49,7.05s1.42-.05,2.18-1.59S163.49,24.22,158.57,26.6Z" style="fill:#41e0d8"/><path d="M162.86,5.75c-.57.5-1.08,1-1.5,1.42-2.61.65-5.87,1.55-6.75,2.24-1.53,1.21-1.53.11.43-1.52s-3.41.47-5.69,2-1.54-.65,0-1.78-7.12.4-10.38,6.42c0,0-2.92,3.55,1.75,7-.76-.3-1.65-.63-2.66-1l-1.1-.38h0c-.17-.22-3.21-3.84-2.78-6.43s-1.34.51-1.72-1.46a8.48,8.48,0,0,1,1.76-7.45,28.57,28.57,0,0,1,9.47-2.94s-2,1.42-2.13,2.41S147.78-1.13,157,.18s2.13.65,0,2.79,4.59-.82,7.21-.66C164.17,2.31,166.47,2.64,162.86,5.75Z" style="fill:#3887a5"/><path d="M137,20.15c-2.87-1-6.56-2.09-10.94-3.11-1.22-.29-2.5-.56-3.83-.83a29.78,29.78,0,0,1,12-11.4,8.48,8.48,0,0,0-1.76,7.45c.38,2,2.16-1.21,1.72,1.46S136.78,19.93,137,20.15Z" style="fill:#ed8d24"/><path d="M150.89,74.62c-1.64.66-4.92,2.3-5.9,1s-4.59,0-7.38.83-3.94-1.16-6.62-.21-1.91-1.77-5-.5-3.94-.29-6.4-.12a56.78,56.78,0,0,1-7.38,0c-2.62-.17-1.31-1.48-3.77-1.64s-2.29-3.61-4.1-3.28-3.44-.17-4.75-4.1-1.64-3.28-3.28-3.44-4.2-9.06-4.29-9.34l.59-.1.06.38c0,.11,0,.22,0,.33a.17.17,0,0,1,0,.07l.06.29c0,.16.07.3.12.45a2.29,2.29,0,0,0,.08.28,6.54,6.54,0,0,0,.84,1.8,1.7,1.7,0,0,0,.15.22,5.57,5.57,0,0,0,.82.91l.31.25a6,6,0,0,0,.91.58l.4.19h0l.23.09.22.09.23.07.16,0h0a9.2,9.2,0,0,0,1.38.27c1.64.22,1.86.77,2.29,2.08s1.1,5.79,4.16,5.9S107,71.29,109.46,71s3.61,2.08,5.69,1.32,4.26,1,5.79-.29,4.37,1.05,6.78.21,3.71,1.16,7,.29,9.51.44,10.82,1.43S150.89,74.62,150.89,74.62Z" style="fill:#62f4e9"/><path d="M150.89,74.62s-4,.28-5.36-.7-7.54-2.3-10.82-1.43-4.59-1.12-7-.29-5.25-1.47-6.78-.21-3.72-.48-5.79.29S112,70.64,109.46,71s-1.31-2.84-4.37-2.95-3.72-4.59-4.16-5.9-.65-1.86-2.29-2.08a9.2,9.2,0,0,1-1.38-.27c1.42-.48,4.46-1.32,5.21,0,1,1.71,1.64-.81,3.16.62s3.61-.39,4.6.68,3.39-1.17,4.8,0,3.28-.85,4.49,0,2.56-1.4,4.94.38,2.82.59,2.6-1.22-.13-2,1.52-.76,1-1.44,4-2.72A47.43,47.43,0,0,0,147.28,73s2.84,2,1.86-2.48S146.3,65,147.5,58.61c1.16-6.07.07-8.9-2.13-13.21l1.25,0h.49c4.1,7.54,3.29,14.6,3,19.79S152.53,74,150.89,74.62Z" style="fill:#ce3319"/><path d="M132.55,56.72s-.05,0-.07,0a6.45,6.45,0,0,0-.84.47A5.65,5.65,0,0,0,130,59.09c-.4.62-.66.92-1.41.35a7.68,7.68,0,0,0-1-.68c-.67-.35-.68.11-.52,1.44.12.92.06,1.68-.35,2s-1.08.12-2.25-.75a3,3,0,0,0-3.14-.47,2.91,2.91,0,0,1-1.35.26.89.89,0,0,1-.45-.17c-.75-.53-1.77.06-2.77.3A1.89,1.89,0,0,1,115,61l-.09-.07c-1.13-.79-2.79.34-3.93.36a1,1,0,0,1-.78-.29,1.58,1.58,0,0,0-1.51-.31c-1,.15-2.14.51-3.08-.37a1.25,1.25,0,0,0-1.41-.38c-.65.24-1.15.83-1.76-.24a2,2,0,0,0-1.89-.69,7.89,7.89,0,0,0-1.41.18,17.43,17.43,0,0,0-1.73.47l-.18.06h0l-.16,0-.22-.08-.23-.08-.23-.09h0l-.4-.19a6,6,0,0,1-.91-.58l-.31-.25a5.57,5.57,0,0,1-.82-.91l-.15-.22a6.68,6.68,0,0,1-.84-1.8c0-.09-.06-.19-.08-.28s-.08-.29-.12-.45l-.06-.29a.25.25,0,0,0,0-.08,3.06,3.06,0,0,1,0-.32c0-.13,0-.25-.05-.38q3.63-.6,7.11-1.24c10.28-1.9,19.5-4,27-5.47l1.91-.36.12,0A38.08,38.08,0,0,0,132.55,56.72Z" style="fill:#41e0d8"/><path d="M85.74,71.72C85.19,73.26,83.33,73,83.33,73c-21.79-5.16-31.66-16.51-32-16.86,1.53.14,3.08.24,4.67.32l2.06.07C58.63,56.91,75.62,69.46,85.74,71.72Z" style="fill:#ce3319"/><path d="M85.74,71.72C75.62,69.46,58.63,56.91,58.09,56.51c1.81.06,3.67.06,5.57,0,6.29-.12,12.49-.63,18.51-1.35,1.2-.14,2.4-.29,3.59-.46-.46,1.88-2.61,2.59-4.22,3h0c-6.29-2.95-7.31-.65-5.67.58s.41,2-3-.19-3.2-1-.93.68,2.4,3.12,0,1.64-5.47-3.28-4.48-1.72,7.29,4.92,7.68,5.13h0a6.28,6.28,0,0,0,.56.71C77.65,66.79,86.29,70.2,85.74,71.72Z" style="fill:#ed8d24"/><path d="M81.54,57.73c-1,.26-1.74.41-1.81.66-.22.66.32,3-1.32,2.65s1.76,4.45-.54,3c-2-1.25-3.69-1.66-2.76-.23-.39-.21-6.73-3.62-7.68-5.13s2.08.25,4.48,1.72,2.27.08,0-1.64-2.51-2.84.93-.68,4.67,1.42,3,.19S75.25,54.78,81.54,57.73Z" style="fill:#3887a5"/><path d="M147.29,73A47.39,47.39,0,0,1,132.7,57h0l-.15-.26a38.08,38.08,0,0,1-3.84-10.1h0a64.58,64.58,0,0,1,10.59-1.23h6.07c2.2,4.3,3.29,7.14,2.13,13.2-1.2,6.35.66,7.44,1.64,11.92S147.29,73,147.29,73Z" style="fill:#ed8d24"/><path d="M238.94,55.2c-16.86-3.5-36.72-11.4-39-13S194.35,40,189.26,39.7s-8.2-2.63-9.84-4.92-3.77-4.43-6.56-5.09c-1.9-.44-3.57-2.8-4.44-4.25a8.71,8.71,0,0,0,1.71-.83c-.22,1.64,3.61,3.61,5.25,4.7a11.58,11.58,0,0,1,3.6,3.17c.77,1.2,1.76,1.64,3.61,2.08s2,.43,2.95,1.65,1.87,1.52,4.71,1.44,3.6,1.28,6.44,2.1,3.94.49,4.82,1.59,2.62,1.85,5.68,1.75,4.48,1.85,7.44,3.24,13.71,4.41,13.71,4.41C231.33,52.24,235.25,53.53,238.94,55.2Z" style="fill:#62f4e9"/><path d="M217.78,67.51c-3.07,2.44-8,3.13-8.84,2.69s-3.72-.44-5.57-.33-3.61,3.06-4.81,1.85-1.75,1.87-2.85,1.28-3.71-.72-3.17.45-4.26-.3-5.46-1.17-2.08,1.2-4.05-.56-4.92,0-7.32-1.85-1.53-1.64-3.83-1.2-5.46-4.49-5.46-4.49c.33-1.74,7.21-2.51,10.82-1.31s8.09,1.74,8,1.31,2.95-.65,7,.44,7.88,2.33,10.17,2.26C203.82,66.83,211.55,66.9,217.78,67.51Z" style="fill:#41e0d8"/><path d="M19.27,35.54a3.39,3.39,0,1,1-3.38-3.39A3.38,3.38,0,0,1,19.27,35.54Z" style="fill:#2b2b2b"/><path d="M17.79,29.33a6.29,6.29,0,0,0-1.9-.29,6.17,6.17,0,0,0-.7,12.31,5.37,5.37,0,0,0,.7,0,6.18,6.18,0,0,0,1.9-12.06Zm-1.9,9.6a3.39,3.39,0,1,1,3.38-3.39A3.39,3.39,0,0,1,15.89,38.93Z" style="fill:#f2eeeb"/><path d="M82.17,55.18c-6,.72-12.22,1.23-18.51,1.35-1.9,0-3.76,0-5.57,0L56,56.44c-3.85-2.54-5.33-5.19-4.67-6.83s-.42-4.83-2-10c-.44-1.41-.76-2.66-1-3.79,5.88-.4,11.78-1.28,17.61-1.95,3.1-.36,6.21-.74,9.32-1.09-.5,1.77,0,4,1.52,7.48,2,4.6,4.27,6.72,2.71,7.63s-3.81,1.64-2,3.68S81.25,53.12,82.17,55.18Z" style="fill:#6e7579"/><path d="M138.8,24.12c-3.89-1.27-8.42-2.54-13.45-3.69A6.39,6.39,0,0,1,126,17c4.38,1,8.07,2.13,10.94,3.11h0l1.1.38A25.16,25.16,0,0,0,138.8,24.12Z" style="fill:#dbd3ce"/><path d="M146.62,45.42l-1.25,0c-1.78,0-3.79,0-6.07,0a63.66,63.66,0,0,0-10.59,1.24h0l-.13,0-1.9.36c1.16-3.75.38-4.57-2.22-8.4-1.77-2.61-1.19-4.35-.11-6.3l1.2.1c5.24.42,10.6.76,15.86,1.56-.07.25-.15.52-.25.82-.87,2.95,1.09,6.33,3.17,8.08S146.6,45.32,146.62,45.42Z" style="fill:#dbd3ce"/><path d="M28.24,48.88c-5.15.5-6.34-.76-4.43-1.69,0,0,6.07-2.3,6.89-6.84s2-1,2.62,2.35S33.38,48.38,28.24,48.88Z" style="fill:#646a6d"/><path d="M147.94,35.22c-2.14-.53-4.33-.93-6.53-1.26.65-2.25.65-2.9-1-5.85a18.19,18.19,0,0,1-1.6-4c7,2.29,12,4.6,14.06,6.21C157.78,34.19,157.34,37.51,147.94,35.22Z" style="fill:#7b8387"/><path d="M141.41,34c-5.26-.8-10.62-1.14-15.86-1.56l-1.2-.1c.51-.91,1.12-1.86,1.66-3,1.68-3.48-.26-3.86-.59-7.43,0-.55-.07-1-.07-1.48,5,1.15,9.56,2.42,13.45,3.69a18.19,18.19,0,0,0,1.6,4C142.06,31.06,142.06,31.71,141.41,34Z" style="fill:#eae3dd"/><path d="M126,29.34c-.54,1.1-1.15,2.05-1.66,3-6.28-.5-12.58-1.06-18.88-1.29a154,154,0,0,0-18.73.61,18.32,18.32,0,0,1,.53-5.51c1.15-5,1.64-6-1.51-8.55a5.38,5.38,0,0,1-1.21-1.33,111.42,111.42,0,0,1,15.18.18,186.67,186.67,0,0,1,25.62,4c0,.44,0,.93.07,1.48C125.75,25.48,127.69,25.86,126,29.34Z" style="fill:#7b8387"/><path d="M87.27,26.11a18.32,18.32,0,0,0-.53,5.51c-3.84.32-7.66.73-11.49,1.17A4.88,4.88,0,0,1,76,31.17c1.47-2.05,2.37-3.61,0-8.61a9.38,9.38,0,0,1-1-5.57c3.14-.34,6.31-.6,9.47-.76a5.38,5.38,0,0,0,1.21,1.33C88.91,20.1,88.42,21.14,87.27,26.11Z" style="fill:#eae3dd"/><path d="M76,31.17a4.88,4.88,0,0,0-.79,1.62c-3.11.35-6.22.73-9.32,1.09-5.83.67-11.73,1.55-17.61,1.95a48.54,48.54,0,0,1-1-8.1c-.13-2.14,1.11-4.87,2.25-6.88,6.52-1.27,13.09-2.35,19.68-3.19,1.93-.24,3.86-.47,5.81-.67a9.38,9.38,0,0,0,1,5.57C78.41,27.56,77.51,29.12,76,31.17Z" style="fill:#7b8387"/><path d="M47.34,27.73a48.54,48.54,0,0,0,1,8.1c-1.85.13-3.69.21-5.54.22a34.34,34.34,0,0,1-7.66-.72,1.59,1.59,0,0,1,.64-1.94c1.78-1.07.27-2.06,0-5.91s2-3.2,3.69-4a1.35,1.35,0,0,0,.64-.65l2.29-.49q3.59-.78,7.19-1.47C48.45,22.86,47.21,25.59,47.34,27.73Z" style="fill:#eae3dd"/><path d="M40.11,22.81a1.35,1.35,0,0,1-.64.65c-1.72.82-3.94.17-3.69,4s1.76,4.84,0,5.91a1.59,1.59,0,0,0-.64,1.94c-5.19-1.16-7.43-3.52-7.43-5.47,0-2.78,2.29-4.26,4.85-5.16a42.52,42.52,0,0,1,4.83-1.26Z" style="fill:#7b8387"/><path d="M17,33.43a2,2,0,1,1,2,2A2,2,0,0,1,17,33.43Z" style="fill:#f2eeeb"/><path d="M146.29,53.71c-.25,1.86-2.66-4.41-4.92-6s4.51,9.06,4.63,12.79-3.73-7.66-6.56-10.25,3.86,11.6,6.27,14.9-5.57-3.79-8.07-9-3.81-5.61-4.31-5.57a1.8,1.8,0,0,0-.72.5l.8,1.51c3.14,5.8,7.88,13.9,11.07,16.43,5.17,4.11-4.75-2.22-10.25-10.09a24.43,24.43,0,0,0-1.53-2h0l-.22-.23c-1-1-1.19-.67-.84.47a30.38,30.38,0,0,0,6.43,10c5.69,5.79-2.2,1.36-8.07-8.17l-.44-.72c-3.68-6.25-3.68-3.92-2,.39a43.64,43.64,0,0,0,4.49,8.5c4.36,6.19-.24,2.3-5.36-5.09-.6-.88-1.21-1.79-1.82-2.75-4.69-7.43-6.18-5.3-3.57,1.53a50.68,50.68,0,0,0,2.42,5.28c5.34,10.24-.34,2.44-3.77-5-.15-.3-.28-.6-.41-.89-3.36-7.7-6-8.1-4.68-3.76a45.91,45.91,0,0,0,1.87,4.78c1.61,3.63,3.49,7.25,3.55,7.75.07.7-3.1-2.92-5.36-8.12-.14-.31-.27-.62-.4-.94-2.28-5.7-5.56-8.55-5.15-3.91A16,16,0,0,0,111,61.33a61.79,61.79,0,0,0,4.7,7.68c1.64,2.46-4.26-1.62-6.35-6.71-.22-.55-.44-1.07-.64-1.57-1.72-4.14-2.86-6.51-5-5.53-1,.47-.57,2.41.5,4.78A52.73,52.73,0,0,0,110,69.34c2.86,3.66-7.74-7-9.38-10.29,0-.1-.09-.2-.13-.29-1.06-2.86-3.3-3.22-2-.82.21.38.44.82.68,1.29,1.29,2.5,2.75,5.8,1.78,5.11a34.12,34.12,0,0,1-3.51-4.64,15.44,15.44,0,0,0-2.56-3.14,8.34,8.34,0,0,1-2.28-2.85q3.63-.6,7.11-1.24c10.28-1.9,19.5-4,27-5.47l1.91-.36.12,0h0a64.58,64.58,0,0,1,10.59-1.23H143S146.54,51.85,146.29,53.71Z" style="fill:#3887a5"/><path d="M240.74,59c-6.15-2.12-27.22-6.55-33.45-7.77s-.41-1.81,5.12-.75,3.44-1.27-1.27-2.17-16.28-2.13-17.83-2.78-.08-1.69,4.55-1,4.6-1.36-2.37-2-10.54.41-12.92-.7-.61-1.31,3.36-1.31c2.34,0,2.91-.67,1.59-1.06a5.43,5.43,0,0,0-1-.2,20.75,20.75,0,0,0-4.55.07c-6.77.74-7.18-.69-3.78-1.76s-.37-2-4.67-.64-6,1-4.84-1-4.23-3.82-6-5.92a19.52,19.52,0,0,1,.28,9.48,27.69,27.69,0,0,1-.88,3.33A10.88,10.88,0,0,1,159,48c.33.14,10.83,4.51,16.48,5.15s-2.15-1.64-7.06-3.24c-2.3-.75-.5-.92,3.08-.48A71.45,71.45,0,0,1,184,52.2c1,.34,2.08.7,3.07,1.1,5,2,5.07,1,2.48-.62A36,36,0,0,0,176.71,48c-9.62-1.49,2.92-1,23.28,7.21,3,1.21,6.2,2.59,9.51,4.16,13,6.14,12.81,4.82,7.74,1.63a92.85,92.85,0,0,0-17.93-8.63,261,261,0,0,1,27.41,9.06c20.5,8.28,4.59.06-3.85-3.21s9.36,1.09,16.81,4S246.89,61.13,240.74,59Z" style="fill:#3887a5"/><path d="M157.93,20.15c-1.33,1.21-3.22,5.82-3.28,6a52.53,52.53,0,0,1-10.76-3.25s-.48-.24-1.42-.63c-3-2.63-3.72-4.21-1.63-7.33s7.25-3.4,5.08-2-5.74,4.27-4.11,5,1.45-.82,8.05-4.34,5.45-1.68,2.62.41-5.66,4.84-4.59,5.08,1.8-.2,7-4.14,4-.49-.24,3.12-2.58,6.51,0,3.54S159.28,18.92,157.93,20.15Z" style="fill:#62f4e9"/><path d="M185.31,27.19s15.2,3.12,23.07,7.39,5.79-7.17-3.31-11.39-22.49-.89-24,1.42S182.68,26.61,185.31,27.19Z" style="fill:#48a1bc"/></g></g></svg>