<svg xmlns="http://www.w3.org/2000/svg" viewBox="0 0 281.58 141.54"><title>clown-loach</title><g id="Layer_2" data-name="Layer 2"><g id="Ñëîé_2" data-name="Ñëîé 2"><path d="M21.25,93.79a2.55,2.55,0,0,1-.64,1.74c-1,1.08-2.9,1.28-4.78.94-3.29-.6-2.61-2.17-2.69-2.84s1.5-.6,3-.52,3.35-.08,1.34-2S10.08,87.21,8.89,87a5.73,5.73,0,0,1-2.22-.81,1,1,0,0,1-.47-1,1.25,1.25,0,0,1,.89-1h0a2.07,2.07,0,0,1,1.13,0l.71.2c2.43.73,10.32,3.33,11.83,7.11A5.91,5.91,0,0,1,21.25,93.79Z" style="fill:#fac1a6"/><path d="M280,117.51c-5.38.9-28.21,4.62-45.22-2.69-12.38-5.32-26.18-13.16-36.64-17a12.78,12.78,0,0,1,8.72,0c6.87,2.39,14.33-1.34,8.36-10.12s-5.22-13.91,0-20.77,3-11.79-4.47-12.39a50.85,50.85,0,0,1-10.69-2.12c9.34-1.88,21.13-5.23,27.25-8.18,8.36-4,33-9.07,42.84-8.56s6.56,2.29,3.28,3.49a6.9,6.9,0,0,0-1.82.91c-1.2.85-1.23,1.63-3.55,2.07-3.14.6-4.48.9-5.38,3.43s-1.94,1.94-4.17,2.54-2.24,3.13-4.33,3.58-.9,3.58-3.44,3.73-2.38,3.74-4.62,3.88S242.83,65,240,64.68s-11.49,7.46-11.79,13.73c-.1,2,.91,4.38,2.43,6.63.18.27.38.55.58.82a31.62,31.62,0,0,0,4,4.45c.71.66,1.42,1.26,2.1,1.78a10.4,10.4,0,0,0,3.87,2.14c2.23.32,2,1.54,2.5,2.81a3.22,3.22,0,0,0,1.08,1.52,5,5,0,0,0,.53.36c1.94,1.2,4,.93,5.89,3.67,1.75,2.5,2.46,1.12,4,2a2.19,2.19,0,0,1,.33.23,4.63,4.63,0,0,1,.63.58c2.24,2.39,3.44.15,5.53,2.84s3.88,0,6.12,2.83,4.47.6,6.12,2.09c.71.65,3,1.39,4.89,2.09C281.21,116.17,283,117,280,117.51Z" style="fill:#e86c46"/><path d="M203.69,66.21c-.11,10.07-.48,27.22-11,29.84a21.42,21.42,0,0,0-3.82-.6s2.77-7,3.56-18.94a103.9,103.9,0,0,0-1.2-22.73S203.81,56.13,203.69,66.21Z" style="fill:#efbd41"/><path d="M157.75,102.28c-.67.16-1.35.3-2.05.43l-.93.16a9.79,9.79,0,0,1-1.39-3.19c1.14-.12,2.23-.26,3.25-.45A10.57,10.57,0,0,0,157.75,102.28Z" style="fill:#eae3dd"/><path d="M154.77,102.87c-7,1.16-15.87,1.08-26,.87-3.6-.07-7.35-.16-11.23-.22l-4,0c-.82,0-1.67,0-2.57,0,0,0,.67-1,1.68-2.9a20,20,0,0,0,3.87.38c10,0,13.88-1.41,19.26-1.16a121.93,121.93,0,0,0,17.55-.07A9.79,9.79,0,0,0,154.77,102.87Z" style="fill:#efbd41"/><path d="M22.73,95.47c-.77,0-1.48,0-2.12.06a2.55,2.55,0,0,0,.64-1.74l.42.18h0A2.49,2.49,0,0,1,22.73,95.47Z" style="fill:#e86c46"/><path d="M215.22,87.69c6,8.78-1.49,12.51-8.36,10.12a12.78,12.78,0,0,0-8.72,0,49.05,49.05,0,0,0-5.49-1.72c10.56-2.62,10.93-19.77,11-29.84s-12.5-12.43-12.5-12.43a82.6,82.6,0,0,0,8.87-1.37,50.85,50.85,0,0,0,10.69,2.12c7.46.6,9.7,5.52,4.47,12.39S209.25,78.91,215.22,87.69Z" style="fill:#fac1a6"/><path d="M192.39,76.51c-.79,12-3.56,18.94-3.56,18.94l-.77,0h-.93c1-2.13,2.47-7.44,3.47-19.14a78.86,78.86,0,0,0-1.44-22.48,14.94,14.94,0,0,0,2,0A103.9,103.9,0,0,1,192.39,76.51Z" style="fill:#eae3dd"/><path d="M190.6,76.28c-1,11.7-2.45,17-3.47,19.14-5.3,0-8.94-.41-12.8.28a29.4,29.4,0,0,0-10,4,24.07,24.07,0,0,1-6.58,2.53,10.57,10.57,0,0,1-1.12-3A16.86,16.86,0,0,0,160.9,98c6.41-3.16,7.91-6.34,15.22-6.91s9.22-6.69,3.42-8.78-15.39,0-21.79,4.18A14.6,14.6,0,0,1,154.5,88a127.94,127.94,0,0,0-4.42-17.45c-2.91-8.39-11-14.32-14.67-17.91s-4.81-13.53-4.81-13.53c1.25.26,2.51.54,3.79.83,3.73.85,7.58,1.83,11.55,3q3.31,1,6.75,2s25.44,8.18,36.21,8.8l.26,0A78.86,78.86,0,0,1,190.6,76.28Z" style="fill:#321e20"/><path d="M151,89c-6.82,1.39-15.54,1-21.1.64-3.91-.23-8.24-.84-12.24-.92a74.9,74.9,0,0,0,3.62-20.23c.78-20.71-6.19-26.87-6.19-26.87a44.63,44.63,0,0,0-4.18-5.37c1.52.13,3.06.29,4.63.47q5.81.68,12.08,1.87h0c0,.31.25,13.29,9,19.26s12.32,18.58,13.1,23.4C150,82.9,150.47,85.81,151,89Z" style="fill:#efbd41"/><path d="M121.31,68.45a74.9,74.9,0,0,1-3.62,20.23c-.88,0-1.75,0-2.59,0a104.69,104.69,0,0,0,3.19-17.3C121,46.28,107.65,36,107.65,36c1.09.07,2.18.15,3.29.25a44.63,44.63,0,0,1,4.18,5.37S122.09,47.74,121.31,68.45Z" style="fill:#eae3dd"/><path d="M118.29,71.41a104.69,104.69,0,0,1-3.19,17.3,14.5,14.5,0,0,0-7.45,2.05c-4,2.72-2.52,7.21,2.92,9.18a15.26,15.26,0,0,1-2.46,3.38l-1.86-.11h0c-3.32-1.49-7-2.88-8.33-2.3.67-.79,1.23-2.91,2.35-3.58s.56-1.91,2.12-3-.78-2.91,2.35-3.92.67-3,2.8-3.8,1-2.35,2.91-3.81.45-2.23,2.24-3.29,0-2,2-3.42c1.63-1.18-1.42-2.21-11.27-1.14-2.35.25-5.07.62-8.21,1.14A43.7,43.7,0,0,0,89,77.56C83.3,59.12,69,44.69,64.67,40.68c11.6-3.61,25.65-5.84,43-4.72C107.65,36,121,46.28,118.29,71.41Z" style="fill:#321e20"/><path d="M89,77.56c-1.25.4-2.46.84-3.63,1.31-4.89-17.05-19.45-32.29-24.3-37,1.13-.4,2.29-.78,3.47-1.15l.09,0C69,44.69,83.3,59.12,89,77.56Z" style="fill:#eae3dd"/><path d="M106.25,103.21C83.43,101.88,43.52,96,25.66,95.5c0-.28,0-.6,0-1,4.56-.11,12.22-2.62,21.08-15,10.11-14.14,7.12-27.21,4.49-33.69.79-.36,1.59-.72,2.41-1.07,1.65,5.09,4.93,18.71-2.09,31.06-8.84,15.56-9.29,14.44-6.49,17s18.25-.79,20.71-10.41-3.47-18-.9-15.73,5,15.39,2.69,21.33a20.82,20.82,0,0,0-1,3c-.34,1.75,1.32.41,4.41,1.19,4.14,1,9.4,3.39,10.3,7.08,0,0,1.77.34,4.17.72,1.84.3,4.06.62,6.13.85,2.85.3,5.41.41,6.38,0C99.23,100.33,102.93,101.72,106.25,103.21Z" style="fill:#eae3dd"/><path d="M61.11,41.86c-2.61.91-5.09,1.89-7.45,2.91,1.65,5.09,4.93,18.71-2.09,31.06-8.84,15.56-9.29,14.44-6.49,17s18.25-.79,20.71-10.41-3.47-18-.9-15.73,5,15.39,2.69,21.33a20.82,20.82,0,0,0-1,3A63.59,63.59,0,0,1,84,79.48l1.44-.61C80.52,61.82,66,46.58,61.11,41.86ZM59.52,85.24c-4.36,4.47-11.42,3.91-11.42,3.91-2.11,0-1.45-1.67,0-2.79s3.47-3.59,6.27-8.91,4.14-9.12,5.82-6.75S63.89,80.76,59.52,85.24Z" style="fill:#efbd41"/><path d="M51.25,45.84c-4.89,2.24-9.25,4.62-13.18,6.9a74.72,74.72,0,0,0-26.15,26,25.85,25.85,0,0,0,9.33-6.63c3.7-4,14.09-9.51,14.09-.73S24.65,92,24.38,92.25a2.43,2.43,0,0,1,1.3,2.2v.1c4.56-.11,12.22-2.62,21.08-15C56.87,65.39,53.88,52.32,51.25,45.84ZM43.91,72.7a6.49,6.49,0,1,1,6.49-6.49A6.49,6.49,0,0,1,43.91,72.7Z" style="fill:#321e20"/><path d="M6.67,86.18c-.29.83-.84.29-3.12,1.86s-.18,4.47,0,7.16-2.79,3.28-2,2.39,1.11-2.17-.38-4.93-1.71-5,0-6.94,5.71-1.53,5.89-1.51a1.25,1.25,0,0,0-.89,1A1,1,0,0,0,6.67,86.18Z" style="fill:#e86c46"/><path d="M46.76,66.21a2.86,2.86,0,1,1-2.85-2.86A2.86,2.86,0,0,1,46.76,66.21Z" style="fill:#2b2b2b"/><path d="M43.91,59.72a6.49,6.49,0,1,0,6.49,6.49A6.48,6.48,0,0,0,43.91,59.72Zm0,11.69a5.21,5.21,0,1,1,5.2-5.2A5.2,5.2,0,0,1,43.91,71.41Z" style="fill:#e86c46"/><path d="M43.91,61a5.21,5.21,0,1,0,5.2,5.21A5.21,5.21,0,0,0,43.91,61Zm0,9.4a4.2,4.2,0,1,1,4.19-4.19A4.2,4.2,0,0,1,43.91,70.4Z" style="fill:#92def9"/><path d="M43.91,62a4.2,4.2,0,1,0,4.19,4.2A4.2,4.2,0,0,0,43.91,62Zm0,7.05a2.86,2.86,0,1,1,2.85-2.85A2.86,2.86,0,0,1,43.91,69.06Z" style="fill:#f7c66c"/><path d="M21.25,72.14a25.85,25.85,0,0,1-9.33,6.63h0a50.77,50.77,0,0,0-3,5.66c2.43.73,10.32,3.33,11.83,7.11a7.6,7.6,0,0,1,3.62.71c.27-.3,11-12.16,11-20.84S25,68.11,21.25,72.14Zm4.36,14c-.79,2-3.14,4.59-4.36,2.69s-6.05-3.7-6.05-3.7c-2.26-1-3-3.47,2.79-3.66S26.39,84.12,25.61,86.13Z" style="fill:#efbd41"/><path d="M27.92,104.83s-.9-2.77-2.54-3.51-2.54-4.3-2.54-5.08a2.85,2.85,0,0,0-.11-.77A2.49,2.49,0,0,0,21.68,94h0a1.57,1.57,0,0,0-.42-.18,5.91,5.91,0,0,0-.49-2.25,7.6,7.6,0,0,1,3.62.71,2.43,2.43,0,0,1,1.3,2.2v.1c0,.35,0,.67,0,1-.07,2.3-.31,2.9,1.14,5A5.61,5.61,0,0,1,27.92,104.83Z" style="fill:#e86c46"/><path d="M85.41,100.06c-2.4-.38-4.17-.72-4.17-.72-.9-3.69-6.16-6-10.3-7.08-3.09-.78-4.75.56-4.41-1.19A63.59,63.59,0,0,1,84,79.48S89,84.85,85.41,100.06Z" style="fill:#e86c46"/><path d="M112.7,100.53c-1,1.89-1.68,2.9-1.68,2.9-.93,0-1.9-.06-2.91-.11a15.26,15.26,0,0,0,2.46-3.38A17.3,17.3,0,0,0,112.7,100.53Z" style="fill:#eae3dd"/><path d="M169,36.68c0,2.18-1.5,2.28-6.27,2.45-1.7.07-4.12.27-6.6.61A17.37,17.37,0,0,0,154,34.06a26.67,26.67,0,0,0-1.66-2.57c-.43-.6-.88-1.19-1.36-1.77-.77-.91-1.58-1.78-2.43-2.62-.45-.45-.92-.88-1.39-1.31-.89-.8-1.81-1.54-2.72-2.23-.74-.55-1.48-1.07-2.21-1.53a27.5,27.5,0,0,0-2.81-1.6l0,0a15,15,0,0,1-1.71-1,16.58,16.58,0,0,1-2.45-2c-.44-.41-.83-.83-1.21-1.26s-.82-1-1.17-1.45a23.76,23.76,0,0,1-2.19-3.6c7.8-9.29,11.65-13.25,12.77-10a30.35,30.35,0,0,0,1.18,3,16.06,16.06,0,0,0,3.14,4.78c1.79,1.79,2.54,1.49,3.14,4.33s2.83,3.88,4.92,5.15,9.35,8.26,10.82,12.24a4.27,4.27,0,0,1,.23.82c.59,3.73-1.2,3.58-1.2,3.58s2.09,1.27,2.39-1.46S169,34.5,169,36.68Z" style="fill:#e86c46"/><path d="M156.09,39.74c-4.46.62-9.12,1.69-10.15,3.19-4-1.14-7.82-2.12-11.55-3-.35-1.18-2.89-3.75-6.74-7.33-2.79-2.59-3.39-9.35-3.52-12.88A69.27,69.27,0,0,1,129,13.19l1.71-2c1.21,2.44,4,6.92,8.77,9.29C145.92,23.61,154.82,31.74,156.09,39.74Z" style="fill:#4c2e32"/><path d="M134.39,40c-1.28-.29-2.54-.57-3.79-.83-1-.2-2-.4-2.95-.58h0q-6.29-1.2-12.08-1.87a87.15,87.15,0,0,1,8.56-16.93c.13,3.53.73,10.29,3.52,12.88C131.5,36.21,134,38.78,134.39,40Z" style="fill:#e86c46"/><path d="M129.1,104.16s-8.36,7.75-10.13,18.62a46.44,46.44,0,0,1-1.39-19.26c3.88.06,7.63.15,11.23.22A2,2,0,0,0,129.1,104.16Z" style="fill:#e86c46"/><path d="M140.06,109.37c-.86,2.84-3.43,10.25-7.45,12.47-4.24,2.34-7.24,8.65-7.42,14A43.83,43.83,0,0,1,119,122.78c1.77-10.87,10.13-18.62,10.13-18.62C130.56,105.8,135.91,107.81,140.06,109.37Z" style="fill:#4c2e32"/><path d="M145.13,113.56c-.27,2.1-.87,4.94-1.4,3.73-.74-1.72-3.58-3.81-2.52-2.32s2.23,3.51,1,5.3-2.91,4.26-4.1,2.69-1.27-.3-.68.89.68,1.27-2.56,4.63-.64,7.61-2.66,6.19-4.55-9-3.73-5,3.73,5.53,2.91,6.79a10.82,10.82,0,0,0-1,2.72c-.31,1.23-.51,2.36-.51,2.36a43.64,43.64,0,0,1-4.74-5.68,18.37,18.37,0,0,1,.46-3.4,20.15,20.15,0,0,1,2.76-6.51c.14-.22.29-.43.44-.64a12.06,12.06,0,0,1,3.76-3.47,7.94,7.94,0,0,0,1.84-1.44l.07-.08a22.16,22.16,0,0,0,3.85-6.31c0-.1.09-.2.13-.3.28-.66.53-1.3.74-1.9.36-1,.63-1.81.82-2.44,2.86,1.08,5.16,1.94,5.2,2.32A11.15,11.15,0,0,1,145.13,113.56Z" style="fill:#e86c46"/><path d="M179.72,129.58a74.58,74.58,0,0,1-13.86-11.64c.86-13.86,9.21-21.06,9.21-21.06,1.25,1.48,3.36,2.34,5.27,3A50.36,50.36,0,0,0,179.72,129.58Z" style="fill:#4c2e32"/><path d="M183.88,132.14c-1.46-.84-2.84-1.7-4.16-2.56-.3-1-.56-2-.78-3a47.8,47.8,0,0,1-.91-5.64c0-.07,0-.14,0-.21a48.66,48.66,0,0,1-.23-5.93c0-.15,0-.29,0-.43a48.42,48.42,0,0,1,.46-5.58l.06-.41c.23-1.58.51-3,.81-4.25,0-.19.09-.38.13-.57.19-.77.38-1.45.56-2s.37-1.18.52-1.6c2.56.87,4.75,1.35,4,2.41a3.48,3.48,0,0,0-.46.9,7.69,7.69,0,0,0,.23,4.44l-3.58-1.45,2.91,2.09s.56,1.49-.56,4.4.9,9.52.23,8.62-3.58-2.13-2.91-1.46,2.12,1.8,2.12,1.8a14,14,0,0,0,1.5,7.82l.07.12C186,133,183.88,132.14,183.88,132.14Z" style="fill:#e86c46"/><path d="M175.07,96.88s-8.35,7.2-9.21,21.06c-7.71-8.34-10.16-15.23-10.16-15.23.7-.13,1.38-.27,2.05-.43a24.07,24.07,0,0,0,6.58-2.53,29.4,29.4,0,0,1,10-4A5,5,0,0,0,175.07,96.88Z" style="fill:#e86c46"/><path d="M176.12,91.07c-7.31.57-8.81,3.75-15.22,6.91a16.86,16.86,0,0,1-4.27,1.25,71,71,0,0,1-1.4-7c-.13-.89-.38-2.37-.73-4.24a14.6,14.6,0,0,0,3.25-1.55c6.4-4.21,16-6.27,21.79-4.18S183.43,90.5,176.12,91.07Z" style="fill:#44292d"/><path d="M154.5,88A25.76,25.76,0,0,1,151,89c-.56-3.15-1-6.06-1.29-7.75-.78-4.82-4.25-17.35-13.1-23.4s-9-19-9-19.26c1,.18,2,.38,2.95.58,0,0,1.12,9.95,4.81,13.53s11.76,9.52,14.67,17.91A127.94,127.94,0,0,1,154.5,88Z" style="fill:#eae3dd"/><path d="M156.63,99.23c-1,.19-2.11.33-3.25.45A106.76,106.76,0,0,1,151,89,25.76,25.76,0,0,0,154.5,88c.35,1.87.6,3.35.73,4.24A71,71,0,0,0,156.63,99.23Z" style="fill:#f9f6f4"/><path d="M153.38,99.68a121.93,121.93,0,0,1-17.55.07c-5.38-.25-9.26,1.19-19.26,1.16a20,20,0,0,1-3.87-.38,72.74,72.74,0,0,0,5-11.85c4,.08,8.33.69,12.24.92,5.56.32,14.28.75,21.1-.64A106.76,106.76,0,0,0,153.38,99.68Z" style="fill:#f9cc69"/><path d="M117.69,88.68a72.74,72.74,0,0,1-5,11.85,17.3,17.3,0,0,1-2.13-.59,48.43,48.43,0,0,0,4.53-11.23C115.94,88.67,116.81,88.66,117.69,88.68Z" style="fill:#f9f6f4"/><path d="M115.1,88.71a48.43,48.43,0,0,1-4.53,11.23c-5.44-2-6.95-6.46-2.92-9.18A14.5,14.5,0,0,1,115.1,88.71Z" style="fill:#44292d"/><path d="M59.52,85.24c-4.36,4.47-11.42,3.91-11.42,3.91-2.11,0-1.45-1.67,0-2.79s3.47-3.59,6.27-8.91,4.14-9.12,5.82-6.75S63.89,80.76,59.52,85.24Z" style="fill:#f9cc69"/><path d="M114.71,76.06a2.79,2.79,0,0,0-.86.89c-.54,1,.23,1.71-1.16,2.53-1.79,1.06-.34,1.83-2.24,3.29s-.78,3-2.91,3.81.34,2.78-2.8,3.8-.78,2.8-2.35,3.92-1,2.35-2.12,3a6.26,6.26,0,0,0-1.77,2.61,6.19,6.19,0,0,1-.58,1c-1,.41-3.53.3-6.38,0q1-1.08,1.86-2.16c.75-.91,1.45-1.83,2.09-2.74.28-.39.56-.8.83-1.19a47.28,47.28,0,0,0,2.73-4.64c.2-.39.39-.78.58-1.16.65-1.38,1.2-2.7,1.65-3.94.16-.45.32-.9.46-1.33.32-1,.58-1.89.78-2.74.16-.61.28-1.18.39-1.71.14-.71.24-1.34.32-1.89a21,21,0,0,0,.21-2.49C113.29,73.85,116.34,74.88,114.71,76.06Z" style="fill:#e86c46"/><path d="M103.44,74.92s.09,12.82-11.9,26c-2.07-.23-4.29-.55-6.13-.85C89,84.85,84,79.48,84,79.48l1.44-.61c1.17-.47,2.38-.91,3.63-1.31a43.7,43.7,0,0,1,6.19-1.5C98.37,75.54,101.09,75.17,103.44,74.92Z" style="fill:#4c2e32"/><path d="M25.61,86.13c-.79,2-3.14,4.59-4.36,2.69s-6.05-3.7-6.05-3.7c-2.26-1-3-3.47,2.79-3.66S26.39,84.12,25.61,86.13Z" style="fill:#f9cc69"/><path d="M45.21,64.52a1.41,1.41,0,1,1,1.41,1.42A1.41,1.41,0,0,1,45.21,64.52Z" style="fill:#eae3dd"/><path d="M166.64,30.58A38,38,0,0,0,154,34.06a78.18,78.18,0,0,0-11.88,6.61,63,63,0,0,1,10.22-9.18c3.57-2.66,6.45-4.45,6.45-4.45-1.94-.16-4.81,1-7.81,2.68a107.3,107.3,0,0,0-13.48,9.41c1.27-2.49,6.68-7.88,11-12,3.25-3.07,5.93-5.46,5.93-5.46-1.52.34-4.25,2-7.32,4.15-5.41,3.8-11.89,9.14-14.74,11.53L131,38.54c.37-.51.76-1,1.16-1.53a137.36,137.36,0,0,1,12.3-13.45c3.78-3.67,6.57-6.06,6.57-6.06-2.32,0-5.5,1.91-8.78,4.53a113.64,113.64,0,0,0-12.68,12.41c-1.2,1.34-1.92,2.2-1.92,2.2.43-.86.92-1.75,1.46-2.64A100.08,100.08,0,0,1,139.4,20.4c3.95-4.5,7.21-7.71,7.21-7.71-2.21.56-5.51,3.31-8.92,6.72-4,4-8.12,8.88-10.86,12.24-1.93,2.37-3.17,4-3.17,4a36.06,36.06,0,0,1,2.44-5.26,88.06,88.06,0,0,1,9.14-12.92c4.23-5.08,7.9-8.68,7.9-8.68A36.71,36.71,0,0,0,134,16.19a116.21,116.21,0,0,0-9,11c-2.62,3.61-4.36,6.33-4.5,6.55,1.41-2.81,2.83-5.37,4.25-7.72a84.62,84.62,0,0,1,8.08-11.26A54.34,54.34,0,0,1,144.62,4.08a16.06,16.06,0,0,0,3.14,4.78c1.79,1.79,2.54,1.49,3.14,4.33s2.83,3.88,4.92,5.15S165.17,26.6,166.64,30.58Z" style="fill:#fac1a6"/><path d="M273.88,113.18c-1.65-1.49-3.89.75-6.12-2.09s-4-.15-6.12-2.83-3.29-.45-5.53-2.84a4.63,4.63,0,0,0-.63-.58l-.38.07c-10.32,1.59-39.88-6.39-39.88-6.39s3.81,2.78,19.48,7.64c8.19,2.54,19.56,3.74,28.55,4.3-.7.08-28.26,3.13-48-7.58.95.62,31.23,20.1,63.53,12.39C276.87,114.57,274.59,113.83,273.88,113.18Zm-45.62-33c-2-.27-11.25,1.27-11.25,1.27A61.78,61.78,0,0,1,230.64,85c-1.52-2.25-2.53-4.59-2.43-6.63.3-6.27,8.95-14,11.79-13.73s3.88-5.23,6.12-5.38,2.09-3.73,4.62-3.88,1.34-3.28,3.44-3.73,2.09-3,4.33-3.58,3.28,0,4.17-2.54,2.24-2.83,5.38-3.43c2.32-.44,2.35-1.22,3.55-2.07-9,.28-25.84,1.26-36.91,4.7-15.67,4.85-19.48,7.64-19.48,7.64s29.56-8,39.88-6.4l.87.17s-31.79,4.93-36.57,9c0,0,26.86-4.57,31-2.73,0,0-23,5.13-30.15,6,0,0,16.77,1,22.37,0-.49.15-16.36,5.12-22.82,5.31,0,0,9.1,2,13.43,1.1,0,0-9.25,3.91-16.27,4.64,0,0,9.22,1.54,11.25,1.27-1.57.36-10.19,2.41-13,4.7C218.07,77.75,226.71,79.81,228.26,80.16Zm.23-9.45a.88.88,0,0,1-.2,0Zm26.66,33.9c-1.5-.9-2.21.48-4-2-1.91-2.74-3.95-2.47-5.89-3.67-9.09-.28-25.9-3.14-25.9-3.14C223.72,99.42,250.15,103.81,255.15,104.61ZM243.69,97c-.46-1.27-.27-2.49-2.5-2.81a10.4,10.4,0,0,1-3.87-2.14c-7.13-.17-17,.4-17,.4C225,93.08,236.32,95.45,243.69,97ZM231.22,85.86a57.71,57.71,0,0,0-11.37,1.31c3.62.11,10.2,1.72,15.37,3.14A31.62,31.62,0,0,1,231.22,85.86Z" style="fill:#fac1a6"/><path d="M127.42,105.93c.39.33.94.81,1.6,1.36a12.16,12.16,0,0,1-1.65-1.3,6,6,0,0,1-.55-.6Z" style="fill:#fac1a6"/><path d="M145.13,113.56c-.27,2.1-.87,4.94-1.4,3.73-.74-1.72-3.58-3.81-2.52-2.32s2.23,3.51,1,5.3-2.91,4.26-4.1,2.69-1.27-.3-.68.89.68,1.27-2.56,4.63-.64,7.61-2.66,6.19-4.55-9-3.73-5,3.73,5.53,2.91,6.79a10.82,10.82,0,0,0-1,2.72,65.86,65.86,0,0,1-4.79-6.72,48.63,48.63,0,0,1-5.84-13.26c-2.11-8-.84-13-.84-13a23,23,0,0,0,1.85,10.24,24.86,24.86,0,0,0,7.59,9.56,22.6,22.6,0,0,0,3.86,2.47,35,35,0,0,1-3.42-3.11,27.11,27.11,0,0,1-6.74-11.68,21.51,21.51,0,0,1-.74-8.26,13.64,13.64,0,0,0,2.25,5.65c3.2,4.88,8.78,8.25,10.83,9.38l.77.41-.7-.49a30.75,30.75,0,0,1-9.28-11.68,28.36,28.36,0,0,1-1.35-3.26,10,10,0,0,0,1.85,2.6c3.55,3.7,9.68,5.4,12.63,6,1,.22,1.69.31,1.69.31a11.91,11.91,0,0,1-1.56-.61,48.24,48.24,0,0,1-9.48-6.42,45.83,45.83,0,0,0,10.22,4.52C141.78,112.65,144,113.26,145.13,113.56Z" style="fill:#fac1a6"/><path d="M183.81,129.44c-1.74-1-3.36-2-4.87-2.9A64.37,64.37,0,0,1,166,116.1c-6.69-7.24-6.77-12.24-6.77-12.24a35.28,35.28,0,0,0,7.16,9.63A35.83,35.83,0,0,0,178,120.9c.8.31,1.29.45,1.36.47-.47-.22-.93-.44-1.38-.68a30.31,30.31,0,0,1-10.95-9.94,31.87,31.87,0,0,1-4.16-8.46,26.72,26.72,0,0,0,4.92,6.08,35.54,35.54,0,0,0,10,6.39,22.76,22.76,0,0,0,2.55.95c-.9-.44-1.75-.9-2.53-1.38a26.3,26.3,0,0,1-9-8.5,16.61,16.61,0,0,1-2.43-5.89,17.37,17.37,0,0,0,3.47,3.81,35.64,35.64,0,0,0,8.37,5c1.84.8,3.15,1.22,3.26,1.26a31.53,31.53,0,0,1-3.2-1.67,18.24,18.24,0,0,1-7-6.9,8,8,0,0,1-.94-2.57,6,6,0,0,0,1.46,1.81,19.31,19.31,0,0,0,7.33,3.41c1.28.34,2.17.49,2.17.49-.75-.35-1.43-.7-2-1.06-3.5-2-5-3.88-5.65-5.13a3.71,3.71,0,0,1-.51-1.51,2.67,2.67,0,0,0,.81,1.16,25.55,25.55,0,0,0,5.91,3.43c1.5.68,3,1.28,4.05,1.71a7.69,7.69,0,0,0,.23,4.44l-3.58-1.45,2.91,2.09s.56,1.49-.56,4.4.9,9.52.23,8.62-3.58-2.13-2.91-1.46,2.12,1.8,2.12,1.8A14,14,0,0,0,183.81,129.44Z" style="fill:#fac1a6"/><path d="M113.85,77c-.54,1,.23,1.71-1.16,2.53-1.79,1.06-.34,1.83-2.24,3.29s-.78,3-2.91,3.81.34,2.78-2.8,3.8-.78,2.8-2.35,3.92-1,2.35-2.12,3a6.26,6.26,0,0,0-1.77,2.61,20.52,20.52,0,0,0-5.1-1.19c-2.69-.35-5.61-.48-7.58-.54-1.42,0-2.34,0-2.34,0A11.32,11.32,0,0,1,86,97.47c2.62-.55,6.56-1.08,9.53-1.46,2.36-.29,4.1-.48,4.1-.48a9.27,9.27,0,0,0-3.27-.71,47.66,47.66,0,0,0-10,.77c-3,.5-5.27,1-5.27,1a16.77,16.77,0,0,1,5.53-3.16,72.87,72.87,0,0,1,12.51-3.28c2.59-.47,4.39-.69,4.39-.69A11.53,11.53,0,0,0,99.63,89a60.63,60.63,0,0,0-12.94,2.12C82,92.34,78.22,93.6,78,93.68a30.73,30.73,0,0,1,8.69-4.74,84.22,84.22,0,0,1,14.59-3.86c3.45-.61,5.81-.86,5.81-.86a19.37,19.37,0,0,0-5.35-.47,58.92,58.92,0,0,0-15.2,3.11,114.45,114.45,0,0,0-12,4.67c2-2.44,6.56-4.56,11.77-6.32A141.38,141.38,0,0,1,102.52,81c4.61-.94,7.89-1.43,7.89-1.43a26.46,26.46,0,0,0-7.5-.28,68.24,68.24,0,0,0-17,4.25,124.14,124.14,0,0,0-15.07,6.82,48.57,48.57,0,0,1,14.44-8.63,71,71,0,0,1,18-4.33A67.63,67.63,0,0,1,113.85,77Z" style="fill:#fac1a6"/></g></g></svg>