<svg xmlns="http://www.w3.org/2000/svg" viewBox="0 0 309.96 194.51"><title>comet</title><g id="Layer_2" data-name="Layer 2"><g id="Ñëîé_2" data-name="Ñëîé 2"><path d="M154.79,88.43h.15s0-.08,0-.12A1.34,1.34,0,0,0,154.79,88.43Z" style="fill:#f22d20"/><path d="M306.84,64.72a93.46,93.46,0,0,0-22.47-7s-11.91-11.35-54.68,2.11-13.25,4.27,5,1.27,39.59-6.48,47.34,0-24.41-2.8-54.94,4.81,15-1.81,26.27,1-36.69,4.6-41.69,5.25S211.66,74,226,74s30.18.43,21.27,1.52S219.92,77.89,227.52,79s19.54,3,8.9,3-26.88,1.88-28.76,10.39,2.7,10,4.44,19.57,11.07,20.41,5.21,17.81-10.42-12.1-13.46-16.69-1.74,0,4.12,11.91,15,17.16,16.94,21.72-16.28-8.26-21.06-23.24-1.93,15.78,23.67,35.4-15.64,6.51-31.71-40.17c0,0-2.17-7.82-4.77-8.18-2.25-.31,19.59,50.6,44.75,76.17C210.5,170,195.37,129.85,184.67,112.2a103,103,0,0,0-7.49-11c5.11-2.25,3.12-6.58,2.86-10.18-.29-3.91,4.48-1,12.88,6.8s18,18.38,16.07,14.33-3.77-5.35-3-9.39-8.54-15.65-5.07-14.49,4.63.14,3.76-2.84,8.54-4.4,15.2-4,.44-4.34-13.6-5.79-9.27-4.2-13.9-4.48-12.3-.58-10.57-1.8,1.16-8.3,1.16-8.3c14.15-.62,40.74-3.53,73.25-11.18C295.55,40.69,318.71,70.51,306.84,64.72Z" style="fill:#eae3dd"/><path d="M289.76,67.62a20.58,20.58,0,0,1-17.66,4.92c-5.21-.87-15.92-1.45-20.56,4.92s-14.76,7.24-17.08,7.24-18.53-1.16-22.87,6.08,4.93,14.18,4.93,20-1.45,12.15,4.92,17.08,9,15.34,10.13,21.71,8.4,12.16,13.89,17.08,11,14.48,5.51,11.58-9.27-4.92-8.69-2.31,2.61,5.49,8.11,9.55,22.29,9.84,11.87,9a97.3,97.3,0,0,1-20-4,49.73,49.73,0,0,1-6.47-3.64l0,0c-25.16-25.57-47-76.48-44.75-76.17,2.6.36,4.77,8.18,4.77,8.18,16.07,46.68,57.3,59.78,31.71,40.17s-28.45-50.38-23.67-35.4,23,27.8,21.06,23.24S213.84,137,208,125s-7.16-16.5-4.12-11.91,7.6,14.08,13.46,16.69-3.47-8.25-5.21-17.81-6.32-11.07-4.44-19.57S225.78,82,236.42,82s-1.3-2-8.9-3,10.85-2.39,19.75-3.47S240.33,74,226,74s-19.33-1.09-14.34-1.74,53-2.39,41.69-5.25-56.79,6.57-26.27-1,62.68,1.67,54.94-4.81-29.1-3-47.34,0-47.77,12.19-5-1.27,54.68-2.11,54.68-2.11c-2.8-.39-3.07.07,1.63,1.75C298.16,63.85,295.55,62.4,289.76,67.62Z" style="fill:#f22d20"/><path d="M157.62,81.9a26.64,26.64,0,0,0-10.8-5.51A20,20,0,0,1,151.38,75c3.9-.87,5.93-.87,8.1,2C160.78,78.77,159.84,80.67,157.62,81.9Z" style="fill:#eae3dd"/><path d="M145.15,79.34c.58,2.61-5.36,3.91-5.36,1,0-1.83.93-3.66.66-4.91a60.64,60.64,0,0,1,6.29.92l.08,0C145.52,77.05,144.84,78,145.15,79.34Z" style="fill:#e5231f"/><path d="M154.94,88.44s0-.08,0-.12a1.34,1.34,0,0,0-.19.11c-1.28-.09-2.61-.13-4-.11-6.91.07-9.91,4.16-17.09,8.07,2.58-3.65,1.61-7.06,4.79-7.35a7.16,7.16,0,0,0,6.37-4.63c1-2.61,1.16-1.3,6.95-1.21a11.76,11.76,0,0,0,5.81-1.3,57.53,57.53,0,0,1,10,10.43A27,27,0,0,0,154.94,88.44Z" style="fill:#e5231f"/><path d="M140.45,75.45c-9.45-.82-20.53,1-39.09,11.13C85,95.44,63.27,92.39,50.93,89.16a2.8,2.8,0,0,0,.42-2.29c-.72-2.32.29-5.38,3.76-6.6s6.08-4.84,6.08-6.28-3.33-2.57-2.31-4.55-1-7.32,3.61-6.89,4.35-2.32,8.69,1.88,5.91,5.5,10,4.34,5-1,6.9,1.31,2,3.18,0,5.21,2.89,3,7.24,1.88,4.19-2.78,3.9-5S100.57,70,103,69.44s5.8-1.68,6.08-3.71,4.78-2.46,9.56-.14,3.62-1.16,7.81-1.16,3.34,2.79,3.19,5,4.92,4,8.69,4.55C139.73,74.2,140.29,74.73,140.45,75.45Z" style="fill:#eae3dd"/><path d="M50.93,89.16a6.54,6.54,0,0,1-6.38,2.63c-4.2-.58-9.85-3.33-9.27-7.82a21.34,21.34,0,0,0,.16-2.49c2.68,1.47,4.62,3.46,6.21,4.45A45.32,45.32,0,0,0,50.93,89.16Z" style="fill:#e5231f"/><path d="M157.62,81.9a11.76,11.76,0,0,1-5.81,1.3c-5.79-.09-5.94-1.4-6.95,1.21A7.16,7.16,0,0,1,138.49,89c-3.18.29-2.21,3.7-4.79,7.35-.9.49-1.85,1-2.9,1.45a46.66,46.66,0,0,1-5.12,2h0c-7,2.25-16.91,3.86-32.14,3.59q-2.81,0-5.86-.18-3.21-.15-6.33-.42a149.94,149.94,0,0,1-24.76-4.24,41.41,41.41,0,0,0-1.91-6.78A3.21,3.21,0,0,0,51,90.05c-.87.22-1.69,2.58-1.92,6.36A136.69,136.69,0,0,1,17.45,81.85a13.68,13.68,0,0,0,4.66-.92c5.9-2.24,10.13-1.21,13.33.55A21.34,21.34,0,0,1,35.28,84c-.58,4.49,5.07,7.24,9.27,7.82a6.54,6.54,0,0,0,6.38-2.63c12.34,3.23,34.11,6.28,50.43-2.58,18.56-10.08,29.64-12,39.09-11.13.27,1.25-.66,3.08-.66,4.91,0,2.89,5.94,1.59,5.36-1-.31-1.39.37-2.29,1.67-3A26.64,26.64,0,0,1,157.62,81.9Z" style="fill:#dbd3ce"/><path d="M37.31,76.59c-2.3.69-1.87,2.1-1.87,4.89-3.2-1.76-7.43-2.79-13.33-.55a13.68,13.68,0,0,1-4.66.92,88.32,88.32,0,0,1-12.11-9c.1-.07,3.44-2.48,3.16-5.62s1-3.62,2.61-5.06-.15-5.07,2.6-6.52,4.92-5.93,4.2-.58a45.06,45.06,0,0,0-.79,7.74A7.17,7.17,0,0,0,27.26,72.7a2.48,2.48,0,0,0,1.94.1c3.33-1.28,1.45-3.59,5.07-2.29S40.2,75.72,37.31,76.59Z" style="fill:#eae3dd"/><path d="M206.24,75.72c-14-1.44-9.27-4.2-13.9-4.48s-12.3-.58-10.57-1.8,1.16-8.3,1.16-8.3c-3,.13-5.42.16-7.24.11-10.42-.29-14.76.87-28.37-4.63,0,0-28.71-21.88-58.77-21.51-.87,0-1.73,0-2.61.08C55,36.93,18.78,47.93,2.57,60.09c0,0-4.64,2-1.45,8A22.19,22.19,0,0,0,5.34,72.8c.1-.07,3.44-2.48,3.16-5.62s1-3.62,2.61-5.06-.15-5.07,2.6-6.52,4.92-5.93,4.2-.58a45.06,45.06,0,0,0-.79,7.74A7.16,7.16,0,1,1,27.26,72.7a2.48,2.48,0,0,0,1.94.1c3.33-1.28,1.45-3.59,5.07-2.29s5.93,5.21,3,6.08c-2.3.69-1.87,2.1-1.87,4.89,2.68,1.47,4.62,3.46,6.21,4.45a45.32,45.32,0,0,0,9.28,3.23,2.8,2.8,0,0,0,.42-2.29c-.72-2.32.29-5.38,3.76-6.6s6.08-4.84,6.08-6.28-3.33-2.57-2.31-4.55-1-7.32,3.61-6.89,4.35-2.32,8.69,1.88,5.91,5.5,10,4.34,5-1,6.9,1.31,2,3.18,0,5.21,2.89,3,7.24,1.88,4.19-2.78,3.9-5S100.57,70,103,69.44s5.8-1.68,6.08-3.71,4.78-2.46,9.56-.14,3.62-1.16,7.81-1.16,3.34,2.79,3.19,5,4.92,4,8.69,4.55c1.38.21,1.94.74,2.1,1.46a60.64,60.64,0,0,1,6.29.92l.08,0A20,20,0,0,1,151.38,75c3.9-.87,5.93-.87,8.1,2,1.3,1.74.36,3.64-1.86,4.87a57.53,57.53,0,0,1,10,10.43,37.94,37.94,0,0,1,9.56,8.92c5.11-2.25,3.12-6.58,2.86-10.18-.29-3.91,4.48-1,12.88,6.8s18,18.38,16.07,14.33-3.77-5.35-3-9.39-8.54-15.65-5.07-14.49,4.63.14,3.76-2.84,8.54-4.4,15.2-4S220.28,77.17,206.24,75.72Zm-30.55,5c-1.66,5.64-6.37,4.12-12.27-3.48-3.4-4.38-9.08-6.45-14.18-8.12l-8.56-2.77c-11.93-3.9-23.45-8.71-35.84-11-13.92-2.62-26.56.47-40.08,3.59-6.88,1.6-23.26,8.44-28.05.22-3.85-6.6,4.32-10.95,9.44-12.68,7.8-2.64,16-4,24.16-5.24A95.31,95.31,0,0,1,96.82,41a99.51,99.51,0,0,1,33.69,10.7c5.54,3,10.66,6.45,16.53,8.8a66.35,66.35,0,0,0,22.5,4.8C182.79,65.73,177.36,75.07,175.69,80.72Z" style="fill:#f22d20"/><path d="M155.75,53.71c-3.11.17-6.44.8-8.43,2.91,0,0-28.71-21.88-58.77-21.51,1.92-4.07,9.75-19.84,16.94-21.2,6.44-1.22-5.65,7.67-7.09,13s-1.82,2.89,3.86-1.3,2.42-1.45,0,3.47-1.16,4,4.79.29,8-4.49,4.29.15-2.74,6.36,1.85,4.48,12.85-6.65,8.07-2.46-4.92,8.54-.72,6.23,10.71-7.14,6.8-2.7-4.19,7.16,1.74,5.07,12.16-5.85,8.4-2.08-7.16,6.8-1.77,6.07,15.06-3.9,10.15-.86-9.54,4.63-5.2,4.63,13.76-2,10.13,0-8.42,3.18-4.93,3.47A33.3,33.3,0,0,1,155.75,53.71Z" style="fill:#e5231f"/><path d="M157.29,53.66c-.5,0-1,0-1.54.05a33.3,33.3,0,0,0-9.89-2.31c-3.49-.29,1.32-1.44,4.93-3.47s-5.79,0-10.13,0,.29-1.59,5.2-4.63-4.76.14-10.15.86-2-2.31,1.77-6.07-2.46,0-8.4,2.08-5.65-.63-1.74-5.07-2.6.38-6.8,2.7-4.05-2,.72-6.23-3.47.58-8.07,2.46-5.53.15-1.85-4.48,1.67-3.91-4.29-.15-7.21,4.63-4.79-.29,5.69-7.67,0-3.47-5.32,6.66-3.86,1.3,13.53-14.25,7.09-13c-7.19,1.36-15,17.13-16.94,21.2-.87,0-1.73,0-2.61.08,0,0,7-27.5,36.19-33.87,0,0,5.72-3,6.16,0a13.8,13.8,0,0,1,0,3.47c-4.29.63-13.06,2.45-15.54,7.1-3.33,6.22-.87,13.3,10,16.42,9.65,2.77,24.11,8.45,33.91,17.49.29,1.73,3.08,4.14,6.19,6.69C164.83,54.15,161.53,53.61,157.29,53.66Z" style="fill:#ff2e29"/><path d="M122,140.65c-2-1.31-6.08-5.22-5.21-8.26s4.12-11.94-2-17.59-15.42-9.54-21.28-11.39q-2.81,0-5.86-.18-3.21-.15-6.33-.42s-2.57,33.93,15.45,46.52,24.75,18.24,24.1,12.16-1.65-8.47,0-9.34-.48-2.38,1-5.64S123.94,142,122,140.65ZM111.86,153.6c-4.35-6.51-16.07-27.65-17.23-27.8s2.17,6.67,6.37,13.62,2.32,7.23-1.16,3.42-7.38-10.23-5.94-6.32.73,5.65-2.74,1.3-8.26-23.66-7.71-29.09,8.57,0,8.57,0c5.79,3.33,19.84,12.88,20.71,16.93s.86,5.65-3,1.6-1.45.58,1.59,4.41,1.88,5.58,1.59,8.18-.73.72-5.91-6.47-6.54-4.68-4.22-1.71,11.72,15,12.59,19.76S116.2,160.11,111.86,153.6Z" style="fill:#eae3dd"/><path d="M62.06,123.49c-1.74-6.29-2.17-7.38-3.26-9.23s1.31-1.62,0-3.58c-.93-1.4-1.08-6.47-2.21-12.11a41.41,41.41,0,0,0-1.91-6.78A3.21,3.21,0,0,0,51,90.05c-.87.22-1.69,2.58-1.92,6.36-.45,7.56,1.48,20.78,10.17,33.81C72.27,149.77,63.8,129.79,62.06,123.49Zm-5.5-.72c-5.47-9-6.41-20.83-6.12-25.94a8.79,8.79,0,0,1,.33-2.29c.49-1.28,1.41-1.31,2.13-.59,1,1,1,2.49,1,3.9,0,.52,0,1,0,1.5a70.54,70.54,0,0,0,1.13,7.06c.73,4,1.46,8,2.58,11.87C59.11,123.2,63.22,133.77,56.56,122.77Z" style="fill:#eae3dd"/><path d="M175.69,80.72c-1.66,5.64-6.37,4.12-12.27-3.48-3.4-4.38-9.08-6.45-14.18-8.12l-8.56-2.77c-11.93-3.9-23.45-8.71-35.84-11-13.92-2.62-26.56.47-40.08,3.59-6.88,1.6-23.26,8.44-28.05.22-3.85-6.6,4.32-10.95,9.44-12.68,7.8-2.64,16-4,24.16-5.24A95.31,95.31,0,0,1,96.82,41a99.51,99.51,0,0,1,33.69,10.7c5.54,3,10.66,6.45,16.53,8.8a66.35,66.35,0,0,0,22.5,4.8C182.79,65.73,177.36,75.07,175.69,80.72Z" style="fill:#ff2e29"/><path d="M25.8,67a3,3,0,0,1-2,2.79,3.09,3.09,0,0,1-.91.14A2.93,2.93,0,0,1,19.94,67a2.46,2.46,0,0,1,.08-.67A2.93,2.93,0,0,1,25.8,67Z" style="fill:#2b2b2b"/><path d="M22.87,59.87A7.17,7.17,0,1,0,30,67,7.15,7.15,0,0,0,22.87,59.87ZM26.23,72.1A6.07,6.07,0,0,1,16.79,67a5.92,5.92,0,0,1,.63-2.69,6.08,6.08,0,1,1,8.81,7.75Z" style="fill:#525254"/><path d="M22.87,61a6.07,6.07,0,0,0-5.45,3.39A5.92,5.92,0,0,0,16.79,67,6.08,6.08,0,1,0,22.87,61Zm.91,8.87a3.09,3.09,0,0,1-.91.14A2.93,2.93,0,0,1,19.94,67a2.46,2.46,0,0,1,.08-.67,2.93,2.93,0,1,1,3.76,3.46Z" style="fill:#eae3dd"/><path d="M156.73,44.89a1.41,1.41,0,0,0-.11.91c-9.8-9-24.26-14.72-33.91-17.49-10.85-3.12-13.31-10.2-10-16.42,2.48-4.65,11.25-6.47,15.54-7.1-.15,1.4-.36,2.41,0,2.54.65.21-4.13,2.17-.87,3.25s3.68,2.83,1,5.65,1.2,9.77,4.24,9.55,8.68,2.39,6.3,3,8.16,3.69,5.17,4.13S157.6,43.15,156.73,44.89Z" style="fill:#eae3dd"/><path d="M111.86,153.6c-4.35-6.51-16.07-27.65-17.23-27.8s2.17,6.67,6.37,13.62,2.32,7.23-1.16,3.42-7.38-10.23-5.94-6.32.73,5.65-2.74,1.3-8.26-23.66-7.71-29.09,8.57,0,8.57,0c5.79,3.33,19.84,12.88,20.71,16.93s.86,5.65-3,1.6-1.45.58,1.59,4.41,1.88,5.58,1.59,8.18-.73.72-5.91-6.47-6.54-4.68-4.22-1.71,11.72,15,12.59,19.76S116.2,160.11,111.86,153.6Z" style="fill:#f22d20"/><path d="M56.56,122.77c-5.47-9-6.41-20.83-6.12-25.94a8.79,8.79,0,0,1,.33-2.29c.49-1.28,1.41-1.31,2.13-.59,1,1,1,2.49,1,3.9,0,.52,0,1,0,1.5a70.54,70.54,0,0,0,1.13,7.06c.73,4,1.46,8,2.58,11.87C59.11,123.2,63.22,133.77,56.56,122.77Z" style="fill:#f22d20"/><path d="M165.85,138.59c-.43,6.19-4.34,3.79-4.34,3.79-16-6.68-35.55-42.06-35.83-42.56h0a46.66,46.66,0,0,0,5.12-2s15.7,25.68,35.22,35.59A45.07,45.07,0,0,1,165.85,138.59Z" style="fill:#f22d20"/><path d="M166,133.43c-19.52-9.91-35.22-35.59-35.22-35.59,1-.48,2-1,2.9-1.45,7.18-3.91,10.18-8,17.09-8.07,1.39,0,2.72,0,4,.11-.77.45-3.63,2.34-3.11,5,.6,3.14-.16,2.08-4.21-1.07s3.76,8.07,6.22,13.9-5.35-6.41-10.28-9.92,1.89,5.39,9.12,14.15-1.3,2.82-6.67-2-11-14.19-5.49-3.9c4.19,7.76,16.26,16.35,21.91,20.08-.09.7,0,1.46,1.14,2.64A8,8,0,0,1,166,133.43Z" style="fill:#eae3dd"/><path d="M162.28,124.76c-5.65-3.73-17.72-12.32-21.91-20.08-5.54-10.29.12-.87,5.49,3.9s13.91,10.72,6.67,2-14-17.65-9.12-14.15,12.74,15.76,10.28,9.92-10.28-17.06-6.22-13.9,4.81,4.21,4.21,1.07c-.52-2.71,2.34-4.6,3.11-5h.15c-1.7,4.62-1,14.88,2,17s1.08,5.43,1.08,8.79,0,4.24,3,7.07C162.84,123,162.41,123.8,162.28,124.76Z" style="fill:#f22d20"/><path d="M23.5,65.36a2,2,0,1,1,2,2A2,2,0,0,1,23.5,65.36Z" style="fill:#eae3dd"/></g></g></svg>