<svg xmlns="http://www.w3.org/2000/svg" viewBox="0 0 275.93 191.02"><title>delta-tail-guppy</title><g id="Layer_2" data-name="Layer 2"><g id="Ñëîé_2" data-name="Ñëîé 2"><path d="M268.34,38c-2.63,2.92,2.34,7,3.8,9.92s-2.05,12.27-5.55,14.89-.88,7.59.29,9.05.88,4.09,2.34,7.3-.59,6.13-4.06,9.35-4.41,7.59-2.8,14,5.4,7,0,12.26-4.53,11.1-1.22,15.07-1,9.46-2.73,11.79.88,6.42,2.06,9.34.57,4.09,0,7-1.47,4.38-.31,6.72-1.16,3.79-5,7.3-3.5,4.08-6.13,10.51S232.14,193,224,190.06a77.44,77.44,0,0,1-12.43-5.8c6.34,1.63,11.32,1.78,14.77,0,5-2.63,2.33-3.51,6.13-2.92s4.09,1.17,8.47,0,4.08-6.43,5.26-12.26.28-7,3.49-7.6,2.63-8.75.88-13.72,0-7.59,2.63-9.63,2.63-10.51.29-13.15-2.92-11.08-.29-14.3,3.79-8.46,1.17-12.45.29-8.27,4.38-13.24,2.91-10.22,1.45-15.18-.87-6.42,3.51-11.68,2.92-5.84-.59-10.51-3.21-4.09-1.16-7.88-.88-7.3,2.92-9.34,4.67-5.84,3.79-9.35-5.55-5.25-10.22-6.42a17.67,17.67,0,0,1-10.8-7.3c-1.45-2.08-8.65-2.67-14.82-2.78a59.28,59.28,0,0,1,8.4-3.62c7.88-2.6,9.05,1.44,11.09.27s6.43,1.75,10.22,3.5,5.84,3.8,2.63,3.8-3.8,2.63-2.92,2.34,6.13-2.34,8.47,0,5.25,8.46,5.25,11.6-2.92,5-5,6.5S271,35,268.34,38Z" style="fill:#ffcb56"/><path d="M107.08,99.5a13.6,13.6,0,0,0-.68-7c-.67.6-1,2-2.88,3.88-3.1,3.15-4.09.58-4.77-1.38s2.81-2.32,4-4.45a3.8,3.8,0,0,1,2.09-1.47,18.5,18.5,0,0,0-2.4-3.21,20.15,20.15,0,0,1-2.34.23c-2.45.13-5.7-.38-5.55.93s.88,2.78-.73,4.67-.15,2.63,2.36,4.21.27,4.11-1.63,6.08-1,2.27-2.19,4.11a3.67,3.67,0,0,1-4.12,1.17A15.45,15.45,0,0,1,87,109l-.19.23c-.16.19-.32.38-.5.57l-.26.28-.27.27a3.07,3.07,0,0,1-.26.25l0,.06-.25.23a4.32,4.32,0,0,1-.39.34c-.2.18-.41.35-.63.53s-.33.27-.51.39l-.27.2a3.78,3.78,0,0,1-.33.22.38.38,0,0,1-.13.09l-.13.09c-.28.19-.56.36-.84.52l-.33.19-.33.18-.69.34a3,3,0,0,1-.41.19.56.56,0,0,1-.16.07l-.47.2a8.26,8.26,0,0,1-.87.34c-.3.11-.61.21-.93.31a17.68,17.68,0,0,1-5,.84H72l-.35,0a1.87,1.87,0,0,1-.32,0,2.7,2.7,0,0,1-.41-.07,4.05,4.05,0,0,1-.5-.12,1.66,1.66,0,0,1-.21-.06l-.22-.07-.16-.06-.37-.14-.44-.21a2.42,2.42,0,0,1-.39-.21l-.19-.11-.3-.2-.28-.21-.21-.17c-.16-.14-.32-.29-.47-.45a5.37,5.37,0,0,1-.51-.56l-.25-.35a1.88,1.88,0,0,1-.16-.23c-.07-.1-.13-.2-.19-.3a1.28,1.28,0,0,0-.11-.2l-.15-.28c-.79.87-.67,1.76-.32,3.24s-.94,3.34-2.77,2.4.37-2-1.06-4.37,2.44-2.49,2.44-2.49a3.64,3.64,0,0,1,1.2-.06c0-.08,0-.16-.07-.23s-.12-.44-.16-.65-.07-.41-.1-.61,0-.22,0-.33,0,0,0,0a.13.13,0,0,1,0-.06,1.64,1.64,0,0,1,0-.23,2.46,2.46,0,0,1,0-.28c0-.19,0-.37,0-.56s0-.61,0-.92c.48-5.81,5.37-9.94,10.12-12.62a38.89,38.89,0,0,1,4.74-2.32,2.07,2.07,0,0,1-1.19-.4c-.63-.63,1.17-1.9,1.17-1.9,1.13-1.12,2.4-.29,3.18,0s1.12,1.34,3.31,1c1.26-.23,1.36.46,1.15,1.21l0,0,.28.18L88,92l.16.13a2.34,2.34,0,0,1,.23.22l.12.13h0l.06.07.11.13h0l.09.12a.79.79,0,0,1,.12.15c0,.07.11.15.15.22s0,0,0,0a.34.34,0,0,1,.07.11,4.29,4.29,0,0,1,.31.55l.1.22a4.12,4.12,0,0,1,.23.58c0,.11.08.22.11.32.09.3.16.61.22.92,0,.14,0,.29.07.43a4.26,4.26,0,0,1,.06.5c0,.33.06.66.07,1v.28c0,.42,0,.83,0,1.25l0,.43q0,.71-.12,1.38c-.07.56-.14,1.1-.21,1.61a3.2,3.2,0,0,1-.07.41c1.06-.77,1.52-2.9,2.88-5,1.46-2.29-1.9-2.09-1.87-3.84s-2.07-3.79-.56-4.67,1.26-1.46.9-3.67-1.54-1.29-3-.93a10.77,10.77,0,0,0-3.36,1c-.73.54-2,.2-2.76-1s2.76-2.26,7-3.9,3.35-.7,5.39,1.51c1.38,1.48,3.2,1.24,5.2.74a24.65,24.65,0,0,0-8.39-4.13c-3.33-.94-7.42-.72-11.83.19h0c-.25,1.79,1.06,4.31.14,5.59-1.31,1.82-5.84.8-6.42-1.52-.21-.83-.44-1.55-.68-2.22-3.18,1-6.41,2.22-9.52,3.48,1.46-.27,2.18.77,3.83-.38s3.45,0,2.72,1.37-.88,1.83-3.36,2.24-3.21.46-4.5-1.56a1.84,1.84,0,0,1-.36-1q-2.25.93-4.38,1.85c1.77,1.18,3.23,3.29,1.81,6.18,0,0-1,2.75-2.2,1.49s1.39-1.33,0-4.11C55.61,89,55,89.13,54,88.64c-2.09.91-4,1.75-5.75,2.45,4,1.22,4.23.67,3.14,2.33s-4,2.25-1.81,3.41,5.3.63,5.57,2.87c.52-.29,1-.52,1.42-.71l.37-.17.35-.14.4-.15.24-.07.13,0a.23.23,0,0,1,.11,0l.25-.07.31-.07.35,0,.15,0h.4l.15,0,.15,0,.13,0,.12,0,.1,0a.19.19,0,0,1,.09,0l.19.13a2.73,2.73,0,0,1,.23.25c1.17,1.46,1.31,1.31,0,3.94s.15,1.9-.88,2.92,0,2.19-1.6,2.92-2.19,2.19-.59,4.39.2,1.79-4.73,3.63h0l-1.09.42c-5.83,2.31-15.18,4.7-16.78,1.78a4,4,0,0,1,.73-5q2.82-2.31,5.22-4.21h0c2-1.54,3.69-2.88,5.26-4l.66-.49,1.26-.92c1.22-.88,2.33-1.64,3.31-2.29l.65-.42s.73-2.06-2-2-3.36-.54-3.79-1.31-3.59-6.61-5.3-4-.54,4.57-3.17,4.62-2.95-1.91-3.74.67-2.62,4.49-5.28,4.34a6.18,6.18,0,1,1-12,2.78c-.15,0-2.92.44-3.35-.5s-.73-3.59.88-4.47,2.57-1.11,3.62-2.82,2.45-4.06,5-3.47,3.87.67,5.58-1.94a19.39,19.39,0,0,1,1.85-2.54,22.57,22.57,0,0,1-2.47-1.5c-9.34,4.8-16.7,7.79-20.56,8.82C1.2,99.84-3.18,101.59,3,107.43s26.28,20.73,54,18.69l1.8-.16a61.76,61.76,0,0,0,20.69-5.29A55.54,55.54,0,0,0,86,117.06c5.8-3.67,9.49-7.17,13.87-7.88,5.41-.87,16.06-3,24.81-3.07C123.12,106,106,104.94,107.08,99.5ZM64.13,96.69c.92-1,.65-2.53,1.39-4.09S70.13,92,70.13,92c2.9.28,1.75,1.36,0,1.94s-2.33,1.17-2.73,3.7-1.94,2.43-3.88,2.34S63.22,97.66,64.13,96.69Zm-31.27,9.43c-.58-1.37,1.55-2.91,4.34-2.74s2.37-2.61,4.51-3.88,3.51,3.26,3.51,3.26c.24.68.58,1.91,0,2.33s-2-.71-2.43-1.71S41.33,103,40,105.09s-2.14.06-3.6,1.64S33.44,107.49,32.86,106.12Zm69.85-2c-2.07-.29-1.44.11-3.58,1.38s-2-.69-2.26-2.17,3.23-.85,4.37-1.37,3.63.49,3.63.49C106.92,103.94,104.77,104.47,102.71,104.17ZM77.61,80.56s0-.26-.06-.64c-.88.21-1.78.45-2.68.7.5,1.13,1.14,2,1.91,2C77.94,82.82,77.67,81.2,77.61,80.56ZM33.05,93.42c-2.77.52-2,.93-2.92,2.51a4.5,4.5,0,0,1-4.26,2.26A8.22,8.22,0,0,0,22,99.57,7,7,0,0,1,23,99.5a6.15,6.15,0,0,1,5,2.51c.09-.05,1-.55,2.21-1.29s1.75-2.43,2.48-4.28S36.12,95.81,37,95,35.83,92.89,33.05,93.42Z" style="fill:#fcd87e"/><path d="M204.26,61.89c-.44,3.06.73,4.81-1.32,6.27s-7.3.3-13.72,2.92,7.88-1.17,11.82-.29-2.92,3.07-3.06,5.26.14,1.46-1.17,5.25-3.79,4.53-6.28,4.53-12.84-1.32-15.47-.3,7.15,0,10.36,1.46c0,0-9.92,1.76-11.24,4.53-.74,1.56-2.86,1.51-4.57,1.16a16,16,0,0,1-2.43-.72s-6.72-5.55-9.2-6,6.42,3.21,7.45,7.45l-.18-.15-.14-.11,0,0-.19-.15,0,0-.12-.1-.28-.22a3.92,3.92,0,0,0-.32-.25l-.35-.27-.07-.06-.31-.23-.34-.25c-.29-.22-.62-.45-1-.68-.18-.14-.37-.27-.57-.4l-.71-.48c-.2-.14-.41-.28-.63-.41-2-1.25-4.08-2.36-5.6-2.48a32.54,32.54,0,0,1-14.45-5c-5.69-3.51-12.55-7.89-16.79-8.32,0,0,8.62,4.81,10.37,7,0,0-8.18-4.38-11.53-3.94s-11.1-1-13.43-2.92a12.54,12.54,0,0,0-8.73-2.56,11.21,11.21,0,0,0-1.49.23C94.63,72.54,83,68.6,83,68.6s31-18.68,45.54-15.47c9.16,2,18.66,6.55,28.36,8.29a33.75,33.75,0,0,0,17.48-1,79.53,79.53,0,0,1,29.78-4.38s-9.2,1.16-11.24,2.77c0,0,9.34-1.9,12.7-.73S204.69,58.82,204.26,61.89Z" style="fill:#d90218"/><path d="M261.92,39.7c-2.05,3.79-2.34,3.21,1.16,7.88s5,5.26.59,10.51-5,6.72-3.51,11.68S262.79,80,258.71,85s-7,9.25-4.38,13.24,1.46,9.24-1.17,12.45-2,11.67.29,14.3,2.34,11.1-.29,13.15-4.38,4.66-2.63,9.63,2.34,13.14-.88,13.72-2.31,1.76-3.49,7.6-.88,11.09-5.26,12.26-4.68.58-8.47,0-1.17.29-6.13,2.92c-3.45,1.82-8.43,1.67-14.77,0-4.45-2.56-8.35-5.47-10.34-8.22-3.8-5.25-5-2.63-10.8-7.3s-3.21-.58-11.68-8.17c-6.06-5.43-22-25.52-32.38-39.07,9.65,8.38,24.21,18.63,26.25,18.63,2.63,0,7,.88,13.14,7.59s13.13,17.23,28,17.23,23.07-12.56,18.4-23.94-11.68-26-.59-32.41S245.86,84.37,241.77,78s-2.63-23.07,4.67-30.07,4.38-17.23-5.25-21-25.69,2.92-40.58,12.27a56.83,56.83,0,0,1-24.77,8.63,30.3,30.3,0,0,1,6.08-5.42c7.3-5,5.84-7.59,11.1-8.47s10.21-12,18.68-17.81,4.67,0,8.76-3.5a70.65,70.65,0,0,1,12.33-8c6.17.11,13.37.7,14.82,2.78a17.67,17.67,0,0,0,10.8,7.3c4.67,1.17,9.35,2.92,10.22,6.42s0,7.3-3.79,9.35S264,35.9,261.92,39.7Z" style="fill:#d90218"/><path d="M149.41,98.16l-.78.17-.55.1-.15,0-.53.08h0c-.88-.14-1.74-.34-2,.21l-.57,0-.58,0-.59,0h-1.83l-.62,0-.64,0-.87-.06-1-.09-.88-.1-.88-.12-.67-.1-.24,0h-.07l1.06-.34c2.16-.71,3.42-.51,3.52-2.41s2.88-3,4-1.31,2.93,1.31,4.27,1.77S150.45,96.82,149.41,98.16Z" style="fill:#f4bb47"/><path d="M154.27,96.37c-.43.24-.9.46-1.39.68.1-.35.41-.58,1.16-.65Z" style="fill:#f4bb47"/><path d="M160.22,89.62s0,.11-.09.3,0,.12-.07.19a.49.49,0,0,1,0,.11c0,.11-.1.24-.16.38s-.09.19-.14.3l-.08.15a3.79,3.79,0,0,1-.18.34c-.1.18-.21.36-.33.55l-.19.29-.21.3c-.21.27-.43.56-.69.85l0,.05a4.11,4.11,0,0,1-.29.31,1.17,1.17,0,0,0-.1-.71s-1.5-4.32-3.57-3.35-4.68,1.37-5.37-.14-3-3.61-4.16-2.27-7.09.6-6.62,3.3,1.05,4.44-.95,4.79a10.56,10.56,0,0,0-4.9,2.12c-.86-.19-1.66-.4-2.43-.62L129,96.7l-.56-.17-1.06-.35c.09-1.23-.68-2.72.68-2.53,1.59.22,3.59.47,4.64,0a6.12,6.12,0,0,0,3.1-3.08c.76-1.67.61-3.55,2-3.49s3.09-.76,2.8-1.85-1.57-1.27-2.1-1.67-2.29-2.08-3.56-2c0,0-3.21-.16-1.55,1.63s1.07,2.4.54,4.53-1.7,4-3.65,4-4.85-.94-5.64.36a16.44,16.44,0,0,0-1.22,2.45c-.28-.14-.55-.29-.8-.44s-.51-.29-.75-.44-.63-.4-.93-.6l-.43-.3-.42-.31-.39-.32-.38-.31-.36-.32-.67-.64-.23-.24a1.29,1.29,0,0,1-.16-.17c-.18-.19-.35-.37-.51-.56s-.19-.22-.27-.33a4.76,4.76,0,0,0,3.24-1.27c.92-.79,4.43-1.81,5.3-1.08s3.85,1.17,4.62.29,3.34-1.9,1.55-2.41-2.82-1.34-5.37-.64-5.41-.78-7,0-2.71-1.5-1.26-1.79,2.72-1.09,1.91-2.06c0,0-2-3.29-4.76-1.58-1.38.88-3.83.75-5.87.63h0l0,0c-.53-.36-1.07-.71-1.6-1.05l-.53-.35-.75-.49c-.46-.29-.91-.58-1.34-.87,1.4-.53,2.66-1.78-1.09-2-.78-.06-1.39-.07-1.88-.06h0l-.37-.31-.18-.15-.18-.16c-.22-.21-.43-.42-.61-.63s-.23-.27-.33-.41l-.06-.08-.15-.23a.08.08,0,0,0,0,0c0-.08-.09-.17-.13-.25a1.15,1.15,0,0,1-.1-.23,2.09,2.09,0,0,1-.08-.23,1,1,0,0,1,0-.14,2.5,2.5,0,0,1,0-.47A12.54,12.54,0,0,1,108.79,74c2.33,1.9,10.07,3.36,13.43,2.92s11.53,3.94,11.53,3.94c-1.75-2.19-10.37-7-10.37-7,4.24.43,11.1,4.81,16.79,8.32a32.54,32.54,0,0,0,14.45,5C156.14,87.26,158.26,88.37,160.22,89.62Z" style="fill:#f4bb47"/><path d="M78.31,77.2a3.51,3.51,0,0,0-.76,2.72c-.88.21-1.78.45-2.68.7a13.1,13.1,0,0,1-.65-1.92c-.51-2-1.53-3.4-1.75-4.83s3.79-.76,5.45,0S79.4,76.25,78.31,77.2Z" style="fill:#ffcb56"/><path d="M102.37,74.78c-2.49.06-1.76.72-4-.6-2.68-1.58-3.37-2.87-6.82-1.49S83.65,76.2,83,74.84s1.49-2.47-2.75-3.45-4.38-.42-6.71.25-4.2.56-5.26,1.38c0,0-2.62,1.27-.58,2.69s2.48,0,3.36,2c.56,1.3,1.07,2.37,1.51,3.6-3.18,1-6.41,2.22-9.52,3.48h0s-1.6-.23-1.64.67q-2.25.93-4.38,1.85h0a7,7,0,0,0-1.83-.86c-2.26-.69-1.92-2.94-.61-4.46s3.07.94,5,.22,3.22-1.47,4.66-1.62,3.52-.88,2.35-2.52-2.63-2-4.79-.37-3.24,2.6-5,1.31-5-.17-5.34,3.2-1.23,2.61.91,5A5.47,5.47,0,0,0,54,88.64c-2.09.91-4,1.75-5.75,2.45h0c-3.95-1.23-3.64-.39-4.5-4s-3.95-1.34-5,0-2.34,1.87-5,2.16a5,5,0,0,0-3.4,1.64,22.57,22.57,0,0,1-2.47-1.5C33.5,86.5,39.79,83,46.45,78.82A70.05,70.05,0,0,1,83,68.6s11.68,3.94,15.62,3.07a11.21,11.21,0,0,1,1.49-.23,2.5,2.5,0,0,0,0,.47,1,1,0,0,0,0,.14,2.09,2.09,0,0,0,.08.23,1.15,1.15,0,0,0,.1.23c0,.08.08.17.13.25a.08.08,0,0,1,0,0l.15.23.06.08c.1.14.21.27.33.41s.39.42.61.63l.18.16.18.15.37.31Z" style="fill:#ffcb56"/><path d="M106.25,80.28c.38,1.66-.42,1.79-3.56,2.41-1,.19-2,.5-3,.74a24.65,24.65,0,0,0-8.39-4.13c-3.33-.94-7.42-.72-11.83.19a2,2,0,0,1,1.44-1.75c3.21-1.2,7.41-.15,9.33-1.47s3.13-2.67,5.88.41,2.75,1.67,3.33,1.06,3.37-.56,4.78-.59a3.5,3.5,0,0,0,1.09-.26c.43.29.88.58,1.34.87l.75.49.53.35c.53.34,1.07.69,1.6,1.05l0,0C107.63,79.57,106.07,79.47,106.25,80.28Z" style="fill:#ffcb56"/><path d="M148.63,98.33l-.55.1-.15,0-.53.08c.78.13,1.58.2,2-.37Zm0,0-.55.1-.15,0-.53.08c.78.13,1.58.2,2-.37ZM167.18,92s-1.62,1.45-1.46,3-1,1.24-1.7,2.75-1.53,4-4.45,4.83-5.79,1.87-6.74,1.32-3.2.36-4.55,2.44-5.35,2.08-6.14,1.3-1.55-2.62.74-2.72,3.74.24,5.06-1.49a4.77,4.77,0,0,1,4.12-2.07c1.67-.14,4.48,0,5.55-.73s2.93-.79,3.17-2.39.14-2.81,1.21-2.84c.85,0,1.56-2.28,1.81-3.22l-.07-.06-.31-.23-.34-.25c-.29-.22-.62-.45-1-.68-.18-.14-.38-.27-.57-.4l-.71-.48c-.2-.14-.41-.28-.63-.41,0,0,0,.11-.09.3s0,.12-.07.19a.49.49,0,0,1,0,.11c0,.11-.1.24-.16.38s-.09.19-.14.3l-.08.15a3.79,3.79,0,0,1-.18.34c-.1.18-.21.36-.33.55l-.19.29-.21.3c-.21.27-.43.56-.69.85l0,.05a4.11,4.11,0,0,1-.29.31c-.14,1.18-1.74,2.38-3.43,2.62a0,0,0,0,1,0,0c-.43.24-.9.46-1.39.68-.19.64.28,1.66,0,2.84-.51,1.84-2.51.3-4,.79s-1.43.78-2.5.63-1.17-.14-1.09-2.09a1.09,1.09,0,0,1,.12-.48l-.57,0-.58,0-.59,0h-1.83l-.62,0-.64,0-.87-.06-1-.09-.88-.1-.88-.12-.67-.1-.24,0h-.07c-1.14.39-1.26.51-1.69,1.29a15,15,0,0,0-1.48,3.87c-.36,1.53-2.57.31-3.83-.89s1.56-1.91,2.28-3.8a3.38,3.38,0,0,1,.85-1.21c-.86-.19-1.66-.4-2.43-.62L129,96.7l-.56-.17-1.06-.35a2,2,0,0,1-.14.61c-.56,1.26-2.94,0-3.8-.39-.44-.2-.31-1,0-1.87-.28-.14-.55-.29-.8-.44s-.51-.29-.75-.44-.63-.4-.93-.6l-.43-.3-.42-.31-.39-.32-.38-.31-.36-.32-.67-.64-.23-.24a1.29,1.29,0,0,1-.16-.17c-.18-.19-.35-.37-.51-.56s-.19-.22-.27-.33a5.72,5.72,0,0,1-.82,0c-2.07-.14-5.09-1-4.35-3.41s-.45-2-1.54-2.31-3.14-.41-4.25.63a7.7,7.7,0,0,1-3.85,1.45,18.5,18.5,0,0,1,2.4,3.21,19.2,19.2,0,0,1,4.88-.87c1.38-.11,1.32,1.64,1.63,2.57s2.42,1,4.34.92,3-.6,3.93,2.26-3,2-3.93,1-3.77-1.94-7-2.67c-1.26-.29-1.84-.22-2.28.17a13.6,13.6,0,0,1,.68,7c-1.11,5.44,16,6.52,17.61,6.61h0c5.84,0,10.83.85,12.81,3.66.49.69,1.21,1.67,2.11,2.88l.38.52c4.59.24,15.33.07,22.18-5.88,6.39-5.55,7.36-11.62,7.4-14.61A16,16,0,0,1,167.18,92ZM117.81,102c-1.37-.08-2-.65-3.72.6s-3.38.06-3.59-1.72,3.28-.7,5.15-1.61a3.62,3.62,0,0,1,3.59.41C120.62,101.1,119.18,102.09,117.81,102Zm31.6-3.85-.78.17-.55.1-.15,0-.53.08C148.18,98.66,149,98.73,149.41,98.16Zm-.78.17-.55.1-.15,0-.53.08c.78.13,1.58.2,2-.37Z" style="fill:#ffcb56"/><path d="M246.44,47.88c-7.3,7-8.76,23.64-4.67,30.07s.88,24.23-10.22,30.65-4.08,21,.59,32.41S228.63,165,213.74,165s-21.89-10.52-28-17.23-10.51-7.59-13.14-7.59c-2,0-16.6-10.25-26.25-18.63-2.49-3.25-4.66-6.13-6.3-8.33,4.59.24,15.33.07,22.18-5.88,6.39-5.55,7.36-11.62,7.4-14.61,1.71.35,3.83.4,4.57-1.16C175.5,88.75,185.42,87,185.42,87c-3.21-1.46-13-.44-10.36-1.46s13,.29,15.47.29,5-.73,6.28-4.53,1-3.06,1.17-5.25,7-4.38,3.06-5.26-18.24,2.92-11.82.29,11.68-1.46,13.72-2.92.88-3.21,1.32-6.27,4.67-2.63,1.31-3.8-12.7.73-12.7.73c2-1.6,11.24-2.77,11.24-2.77a79.53,79.53,0,0,0-29.78,4.38,33.65,33.65,0,0,1-17.48,1c5.64-3,9.09-10,13.39-10,2.6,0,3.65-1.43,5.6-3.63a56.83,56.83,0,0,0,24.77-8.63c14.89-9.35,30.94-16.06,40.58-12.27S253.74,40.88,246.44,47.88Z" style="fill:#f28400"/><path d="M102,130.8a37.14,37.14,0,0,0-19-1.47c-5.47,1.1-13.62-.5-19-1.84.51.06,11,1.52,15.12.57s11.68-1.64,17.13-.58-1.36-1.65-7.89-1.65-11.77-1.36-4.18-1.56,10.71-.68,5-1.07-10.89.1-7.3-.78,7-1.77,5.94-2.25-6.11,1.28-8.46.5A55.54,55.54,0,0,0,86,117.06s4.53-.28,3.51,1.32c-.74,1.17.52,1.57,1.71,1.86a5.93,5.93,0,0,0,3.4,3.25c2.62,1.07,5.64,1.65,7.49,3.9A2.73,2.73,0,0,1,102,130.8Z" style="fill:#f28400"/><path d="M110.25,132.83a15.92,15.92,0,0,1-7.16-1.6c-.3-.14-.65-.28-1-.43a2.73,2.73,0,0,0,.08-3.41c-1.85-2.25-4.87-2.83-7.49-3.9a5.93,5.93,0,0,1-3.4-3.25,11.9,11.9,0,0,1,1.21.33C93.6,121,94,122,97,121.74s3.51.29,4.24,1.17-.44,1.89,1.45,1.89,5.41,1.9,6.43,3.65-.88,2.05-1.61,2.19S113.17,133,110.25,132.83Z" style="fill:#ffcb56"/><path d="M96.38,127.48c-5.45-1.06-12.95-.39-17.13.58s-14.61-.51-15.12-.57h0c-3.19-.8-5.36-1.51-5.36-1.51a61.73,61.73,0,0,0,20.69-5.3c2.35.78,7.39-1,8.46-.5s-2.33,1.38-5.94,2.25,1.56.39,7.3.78,2.63.87-5,1.07-2.34,1.56,4.18,1.56S101.83,128.55,96.38,127.48Z" style="fill:#d90218"/><path d="M25.87,105.68A2.92,2.92,0,1,1,23,102.76,2.92,2.92,0,0,1,25.87,105.68Z" style="fill:#2b2b2b"/><path d="M28.85,103.84a6.08,6.08,0,0,0-.93-1.83,6.15,6.15,0,0,0-5-2.51,7,7,0,0,0-.92.07h0a6.18,6.18,0,0,0-5.26,6.11,7.16,7.16,0,0,0,.07.94,6.18,6.18,0,1,0,12-2.78Zm-5.9,6.8a5,5,0,1,1,5-5A5,5,0,0,1,23,110.64Z" style="fill:#5d5a3c"/><path d="M23,100.72a5,5,0,1,0,5,5A5,5,0,0,0,23,100.72Zm0,7.88a2.92,2.92,0,1,1,2.92-2.92A2.92,2.92,0,0,1,23,108.6Z" style="fill:#eae3dd"/><path d="M60.76,102.76c-1.31,2.63.15,1.9-.88,2.92s0,2.19-1.6,2.92-2.19,2.19-.59,4.39.2,1.79-4.73,3.63h0c-.43.08-7.27,1.4-8.89,1.54s13.21-5.33,7-4-8.61,2.36-3.94-.21,8-4.83,3.79-3.3-7.14,3.14-5.54,1.68,6.2-4.6,6.2-5-4.38,2-7.22,3.28-1.75.36.51-1.46,3.87-2.7,3.58-3.06-7,3.29-7.39,3.51c2-1.54,3.69-2.88,5.26-4l.66-.49,1.26-.92c1.22-.88,2.33-1.64,3.31-2.29l.65-.42c.32-.21.62-.4.91-.57l.28-.18.89-.53.32-.18.54-.3c.52-.29,1-.52,1.42-.71l.37-.17.35-.14.4-.15.24-.07.13,0a.23.23,0,0,1,.11,0l.25-.07.31-.07.35,0,.15,0h.4l.15,0,.15,0,.13,0,.12,0,.1,0a.19.19,0,0,1,.09,0l.19.13a2.73,2.73,0,0,1,.23.25C61.93,100.28,62.07,100.13,60.76,102.76Z" style="fill:#f28400"/><path d="M48.22,104.17l-1.26.92Z" style="fill:#d90218"/><path d="M52.94,116.62l-1.09.42c-5.83,2.32-15.18,4.7-16.78,1.78a4,4,0,0,1,.73-5c1.88-1.55,3.62-3,5.22-4.22h0c.4-.22,7.1-3.87,7.39-3.51s-1.32,1.24-3.58,3.06-3.36,2.7-.51,1.46,7.22-3.64,7.22-3.28-4.59,3.51-6.2,5,1.39-.16,5.54-1.69.88.73-3.79,3.3-2.26,1.52,3.94.21-8.68,4.16-7,4S52.51,116.71,52.94,116.62Z" style="fill:#d90218"/><path d="M90.32,97.86c0-.33,0-.66-.07-1a4.26,4.26,0,0,0-.06-.5c0-.14,0-.29-.07-.43-.06-.31-.13-.62-.22-.92,0-.1-.07-.21-.11-.32a4.12,4.12,0,0,0-.23-.58l-.1-.22a4.29,4.29,0,0,0-.31-.55.34.34,0,0,0-.07-.11s0,0,0,0-.1-.15-.15-.22a.79.79,0,0,0-.12-.15l-.09-.12h0l-.11-.13-.06-.07h0l-.12-.13a2.34,2.34,0,0,0-.23-.22L88,92l-.28-.22-.28-.18,0,0a8.58,8.58,0,0,1-.61,1.43c-.33.67-.83,2.54-1.56,1.3s-2.78-1.1-3.23-1.9c-.29-.5-1.33-.55-2.22-.69a38.89,38.89,0,0,0-4.74,2.32c-4.75,2.68-9.64,6.81-10.12,12.62,0,.31,0,.61,0,.92s0,.37,0,.56a2.46,2.46,0,0,0,0,.28,1.64,1.64,0,0,0,0,.23.13.13,0,0,0,0,.06s0,0,0,0,0,.22,0,.33.06.4.1.61.1.43.16.65,0,.15.07.23h0c.84.12,1.08.65.51,1.27h0l.15.28a1.28,1.28,0,0,1,.11.2c.06.1.12.2.19.3a1.88,1.88,0,0,0,.16.23l.25.35a6.77,6.77,0,0,0,.51.56c.15.16.31.31.47.45l.21.17.28.21.3.2.19.11a2.42,2.42,0,0,0,.39.21l.44.21.37.14.16.06.22.07a1.66,1.66,0,0,0,.21.06,4.05,4.05,0,0,0,.5.12,2.7,2.7,0,0,0,.41.07,1.87,1.87,0,0,0,.32,0l.35,0h.7a17.68,17.68,0,0,0,5-.84c.32-.1.63-.2.93-.31a8.26,8.26,0,0,0,.87-.34l.47-.2a.56.56,0,0,0,.16-.07,3,3,0,0,0,.41-.19l.69-.34.33-.18.33-.19c.28-.16.56-.33.84-.52l.13-.09a.38.38,0,0,0,.13-.09,3.78,3.78,0,0,0,.33-.22l.27-.2c.18-.12.34-.26.51-.39s.43-.35.63-.53a4.32,4.32,0,0,0,.39-.34l.25-.23,0-.06a3.07,3.07,0,0,0,.26-.25l.27-.27.26-.28c.18-.19.34-.38.5-.57L87,109a15.45,15.45,0,0,0,1.23-1.74,1.21,1.21,0,0,1-.7-.56c-.42-1,.88-2.74,2.13-3.35a1,1,0,0,0,.25-.16,3.2,3.2,0,0,0,.07-.41c.07-.51.14-1,.21-1.61s.09-.91.12-1.38l0-.43c0-.42,0-.83,0-1.25ZM71.9,99.69c-.27-2.38,4.07-.81,5.71-2.68s3.47,1.18,3.47,1.18c1.07,1.25-.29,3-1.93,3.12s-2.45-.39-4.06.83S72.17,102.09,71.9,99.69Zm9.91,8.49c-.22.32-.73,1.94-1.9,2.38s-1.9.5-1.9,1.75-1.23,1-1.89.92-1.76.68-2.12-.1a1.25,1.25,0,0,1,0-1.27c0-1.28,1.82-.35,2.26-1.22s.66-.88,1.71-1.12,1-1.15,1.18-2.47-.11-1.75,1.71-1.37S82,107.85,81.81,108.18Z" style="fill:#ffe19f"/><path d="M199.66,143.31c.5-.58,1.21-1.36,1-2.17a3.94,3.94,0,0,0-2.54-2.82c-1.74-.67-3.84.25-3.77,1.69s-1.08,2.37.67,3.85A3.77,3.77,0,0,0,197.4,145c1,0,1.6-.94,2.19-1.65Z" style="fill:#2b2b2b"/><path d="M197.64,143a2,2,0,0,0,1.16-1.12,1.44,1.44,0,0,0-.88-1.91c-1-.52-1.1-.2-1.83.11s-.44.54-.62,1.35A1.59,1.59,0,0,0,197.64,143Z" style="fill:#fcd87e"/><path d="M176.9,124.66c.15-.59.38-1.4-.08-1.89a3.17,3.17,0,0,0-2.81-1.1c-1.47.14-2.64,1.54-2.07,2.53s.06,2.07,1.83,2.5a3,3,0,0,0,2.13,0c.71-.4.81-1.23,1-2Z" style="fill:#2b2b2b"/><path d="M175.37,125.17a1.62,1.62,0,0,0,.43-1.2c-.1-.64-.44-1-1.31-1s-.85.25-1.26.72-.12.54,0,1.19A1.27,1.27,0,0,0,175.37,125.17Z" style="fill:#fcd87e"/><path d="M204,119.89c.09-.48.25-1.14-.14-1.51a2.54,2.54,0,0,0-2.29-.78c-1.18.17-2.06,1.34-1.57,2.12s.14,1.66,1.57,1.93a2.35,2.35,0,0,0,1.71-.1c.55-.34.6-1,.71-1.59Z" style="fill:#2b2b2b"/><path d="M202.77,120.36a1.28,1.28,0,0,0,.3-1c-.11-.51-.4-.8-1.09-.79s-.67.23-1,.63-.07.44.07,1A1,1,0,0,0,202.77,120.36Z" style="fill:#fcd87e"/><path d="M209.78,109.69c.24-.68.61-1.6.13-2.23a3.71,3.71,0,0,0-3.16-1.64c-1.75,0-3.3,1.49-2.76,2.73s-.17,2.44,1.85,3.16a3.56,3.56,0,0,0,2.52.25c.88-.39,1.1-1.35,1.38-2.17Z" style="fill:#2b2b2b"/><path d="M207.91,110.11a1.94,1.94,0,0,0,.65-1.36c0-.77-.39-1.26-1.4-1.4s-1,.19-1.57.7-.21.62-.11,1.4A1.5,1.5,0,0,0,207.91,110.11Z" style="fill:#fcd87e"/><path d="M193.06,103.12c.19-.5.48-1.17.13-1.65a2.74,2.74,0,0,0-2.31-1.27c-1.29,0-2.47,1-2.09,2s-.17,1.81,1.31,2.38a2.69,2.69,0,0,0,1.86.22c.66-.27.84-1,1.07-1.58Z" style="fill:#2b2b2b"/><path d="M191.66,103.39a1.38,1.38,0,0,0,.51-1c0-.57-.27-.94-1-1.06s-.77.12-1.18.49-.16.45-.1,1A1.1,1.1,0,0,0,191.66,103.39Z" style="fill:#fcd87e"/><path d="M186.8,113.27c.18-.8.47-1.9-.18-2.55a4.3,4.3,0,0,0-3.83-1.41c-2,.24-3.53,2.17-2.74,3.5s.16,2.81,2.56,3.34a4.08,4.08,0,0,0,2.9-.09c.94-.56,1.06-1.7,1.26-2.67Z" style="fill:#2b2b2b"/><path d="M184.73,114a2.17,2.17,0,0,0,.55-1.64c-.16-.87-.63-1.37-1.8-1.38s-1.15.36-1.69,1-.14.73.09,1.6A1.71,1.71,0,0,0,184.73,114Z" style="fill:#fcd87e"/><path d="M218.91,138.6c.21-.49.52-1.16.19-1.65a2.79,2.79,0,0,0-2.29-1.34c-1.29-.08-2.5,1-2.15,1.91s-.22,1.81,1.25,2.43a2.66,2.66,0,0,0,1.85.28c.67-.25.88-1,1.12-1.56Z" style="fill:#2b2b2b"/><path d="M217.51,138.84a1.49,1.49,0,0,0,.54-1c0-.57-.25-.94-1-1.09s-.78.1-1.2.46-.17.45-.13,1A1.12,1.12,0,0,0,217.51,138.84Z" style="fill:#fcd87e"/><path d="M215.75,151.17c.28-.61.7-1.43.3-2.06a3.49,3.49,0,0,0-2.81-1.77c-1.62-.15-3.17,1.13-2.77,2.32s-.35,2.26,1.47,3.08a3.33,3.33,0,0,0,2.32.42c.84-.29,1.12-1.17,1.45-1.9Z" style="fill:#2b2b2b"/><path d="M214,151.41a1.78,1.78,0,0,0,.72-1.21c0-.72-.27-1.2-1.2-1.4s-1,.09-1.51.52-.24.56-.2,1.29A1.39,1.39,0,0,0,214,151.41Z" style="fill:#fcd87e"/><path d="M205.53,130c.11-.42.3-1,0-1.36a2.25,2.25,0,0,0-2-.87c-1.06.06-1.94,1-1.56,1.77s0,1.49,1.25,1.85a2.18,2.18,0,0,0,1.53,0c.52-.27.62-.86.76-1.37Z" style="fill:#2b2b2b"/><path d="M204.41,130.37a1.16,1.16,0,0,0,.34-.86c-.06-.46-.29-.74-.91-.78s-.62.15-.92.48-.11.39,0,.86A.92.92,0,0,0,204.41,130.37Z" style="fill:#fcd87e"/><path d="M235.11,141.08c.15-.55.39-1.29,0-1.76a2.93,2.93,0,0,0-2.58-1.11c-1.37.09-2.5,1.37-2,2.31s0,1.93,1.64,2.38a2.79,2.79,0,0,0,2,0c.67-.35.78-1.12,1-1.78Z" style="fill:#2b2b2b"/><path d="M233.67,141.52a1.51,1.51,0,0,0,.43-1.11c-.08-.6-.38-1-1.19-1s-.8.21-1.19.64-.13.5,0,1.1A1.18,1.18,0,0,0,233.67,141.52Z" style="fill:#fcd87e"/><path d="M244.65,156.89c.13-.61.34-1.45-.16-1.93a3.2,3.2,0,0,0-2.91-1c-1.51.2-2.65,1.68-2,2.68s.16,2.12,2,2.49a3.11,3.11,0,0,0,2.19-.1c.71-.44.78-1.3.93-2Z" style="fill:#2b2b2b"/><path d="M243.1,157.48a1.67,1.67,0,0,0,.39-1.25c-.12-.66-.49-1-1.37-1s-.87.29-1.27.79-.1.56.09,1.22A1.3,1.3,0,0,0,243.1,157.48Z" style="fill:#fcd87e"/><path d="M228.32,165c.15-.74.41-1.74-.18-2.33a3.89,3.89,0,0,0-3.52-1.25c-1.81.23-3.2,2-2.47,3.22s.18,2.56,2.37,3a3.77,3.77,0,0,0,2.65-.11c.85-.52,1-1.56,1.13-2.45A.36.36,0,0,1,228.32,165Z" style="fill:#2b2b2b"/><path d="M226.44,165.66a2,2,0,0,0,.48-1.51c-.15-.79-.59-1.24-1.65-1.24s-1.05.34-1.53.94-.13.68.09,1.47A1.57,1.57,0,0,0,226.44,165.66Z" style="fill:#fcd87e"/><path d="M206.57,163.09c.11-.56.3-1.33-.16-1.77a3,3,0,0,0-2.71-.92c-1.38.2-2.42,1.58-1.84,2.49s.16,2,1.84,2.28a2.86,2.86,0,0,0,2-.11c.65-.41.71-1.2.84-1.89Z" style="fill:#2b2b2b"/><path d="M205.14,163.65a1.54,1.54,0,0,0,.36-1.16c-.13-.6-.47-.94-1.29-.93s-.79.28-1.15.74-.09.52.09,1.12A1.19,1.19,0,0,0,205.14,163.65Z" style="fill:#fcd87e"/><path d="M187.36,152.27c.28-.57.7-1.34.33-1.94a3.27,3.27,0,0,0-2.61-1.75c-1.54-.19-3,1-2.69,2.13s-.39,2.13,1.32,2.95a3.09,3.09,0,0,0,2.18.46c.81-.25,1.1-1.08,1.43-1.77Z" style="fill:#2b2b2b"/><path d="M185.68,152.45a1.68,1.68,0,0,0,.71-1.13c0-.68-.23-1.14-1.1-1.36s-.93.07-1.45.46-.24.53-.23,1.22A1.32,1.32,0,0,0,185.68,152.45Z" style="fill:#fcd87e"/><path d="M231.79,124.46c.25-.66.64-1.58.17-2.21a3.74,3.74,0,0,0-3.13-1.68c-1.74,0-3.3,1.43-2.78,2.67s-.21,2.44,1.79,3.18a3.54,3.54,0,0,0,2.51.28c.88-.37,1.11-1.33,1.41-2.14Z" style="fill:#2b2b2b"/><path d="M229.93,124.85a1.9,1.9,0,0,0,.67-1.34c0-.77-.38-1.26-1.38-1.41s-1,.17-1.58.67-.21.61-.12,1.39A1.49,1.49,0,0,0,229.93,124.85Z" style="fill:#fcd87e"/><path d="M228.53,116.2c.27-.62.69-1.47.28-2.09a3.55,3.55,0,0,0-2.87-1.77c-1.65-.13-3.21,1.18-2.79,2.39s-.33,2.29,1.53,3.11a3.37,3.37,0,0,0,2.36.4c.85-.3,1.13-1.2,1.45-1.95Z" style="fill:#2b2b2b"/><path d="M226.74,116.46a1.83,1.83,0,0,0,.71-1.24c0-.72-.29-1.2-1.23-1.4s-1,.1-1.53.54-.24.57-.19,1.32A1.41,1.41,0,0,0,226.74,116.46Z" style="fill:#fcd87e"/><path d="M226.93,102.54c.14-.55.37-1.3-.06-1.76a2.94,2.94,0,0,0-2.61-1.07c-1.38.11-2.49,1.41-2,2.35s0,1.94,1.69,2.36a2.81,2.81,0,0,0,2,0c.66-.36.77-1.14.94-1.81Z" style="fill:#2b2b2b"/><path d="M225.48,103a1.51,1.51,0,0,0,.42-1.12c-.09-.61-.4-1-1.21-1s-.8.23-1.19.66-.12.51,0,1.11A1.19,1.19,0,0,0,225.48,103Z" style="fill:#fcd87e"/><path d="M219.12,95.52c0-.67.17-1.6-.43-2.06a3.51,3.51,0,0,0-3.29-.72c-1.6.41-2.64,2.16-1.84,3.16s.44,2.27,2.46,2.43a3.3,3.3,0,0,0,2.35-.39c.71-.56.68-1.5.74-2.32Z" style="fill:#2b2b2b"/><path d="M217.51,96.36a1.82,1.82,0,0,0,.27-1.4,1.3,1.3,0,0,0-1.63-.93c-1,.12-.89.43-1.26,1s0,.62.25,1.3A1.41,1.41,0,0,0,217.51,96.36Z" style="fill:#fcd87e"/><path d="M209.4,88.42c.09-.62.26-1.47-.26-1.93a3.29,3.29,0,0,0-3-.88c-1.5.28-2.58,1.83-1.9,2.81s.26,2.12,2.12,2.4a3.09,3.09,0,0,0,2.2-.21c.69-.48.72-1.35.82-2.1Z" style="fill:#2b2b2b"/><path d="M207.86,89.1a1.69,1.69,0,0,0,.34-1.28c-.17-.66-.56-1-1.45-1s-.85.33-1.23.86-.07.57.15,1.22A1.31,1.31,0,0,0,207.86,89.1Z" style="fill:#fcd87e"/><path d="M243.55,68.07c-.54-.3-1.28-.75-1.89-.42a3.27,3.27,0,0,0-1.86,2.49c-.26,1.5.82,3,2,2.75s2.08.49,3-1.15a3.08,3.08,0,0,0,.56-2.13c-.2-.8-1-1.13-1.67-1.49Z" style="fill:#2b2b2b"/><path d="M243.65,69.74a1.65,1.65,0,0,0-1.08-.75c-.66-.08-1.13.16-1.39,1s0,.91.38,1.45.5.26,1.18.28A1.3,1.3,0,0,0,243.65,69.74Z" style="fill:#fcd87e"/><path d="M248.37,109.51c.13-.64.33-1.52-.19-2a3.41,3.41,0,0,0-3.06-1c-1.57.23-2.75,1.79-2.09,2.83s.18,2.22,2.09,2.58a3.22,3.22,0,0,0,2.29-.13c.73-.46.8-1.36.94-2.13Z" style="fill:#2b2b2b"/><path d="M246.75,110.14a1.71,1.71,0,0,0,.4-1.31c-.14-.69-.52-1.07-1.45-1.06s-.9.32-1.31.84-.1.59.1,1.27A1.35,1.35,0,0,0,246.75,110.14Z" style="fill:#fcd87e"/><path d="M243,85.69c-.12-.66-.25-1.58-.93-1.86a3.5,3.5,0,0,0-3.33.15c-1.42.81-2,2.75-.94,3.5s1,2,3,1.69a3.3,3.3,0,0,0,2.15-1,2.94,2.94,0,0,0,.1-2.4Z" style="fill:#2b2b2b"/><path d="M241.72,86.9a1.81,1.81,0,0,0-.11-1.41,1.27,1.27,0,0,0-1.79-.46c-.88.36-.74.64-.94,1.3s.12.6.57,1.18A1.4,1.4,0,0,0,241.72,86.9Z" style="fill:#fcd87e"/><path d="M259.84,78.23c-.13-.65-.26-1.57-.94-1.85a3.48,3.48,0,0,0-3.33.15c-1.42.81-2,2.75-.94,3.5s1,2,3,1.69a3.35,3.35,0,0,0,2.15-1,2.91,2.91,0,0,0,.1-2.4Z" style="fill:#2b2b2b"/><path d="M258.52,79.45a1.76,1.76,0,0,0-.11-1.41,1.27,1.27,0,0,0-1.79-.46c-.88.36-.74.64-.94,1.3s.13.59.57,1.17A1.4,1.4,0,0,0,258.52,79.45Z" style="fill:#fcd87e"/><path d="M231.82,70.72c-.12-.65-.25-1.57-.94-1.85a3.5,3.5,0,0,0-3.33.15c-1.42.81-2,2.75-.94,3.5s1,2,3,1.69a3.35,3.35,0,0,0,2.15-1,2.91,2.91,0,0,0,.1-2.4S231.82,70.76,231.82,70.72Z" style="fill:#2b2b2b"/><path d="M230.5,71.94a1.76,1.76,0,0,0-.11-1.41,1.27,1.27,0,0,0-1.79-.46c-.88.36-.74.64-.94,1.3s.13.59.57,1.17A1.39,1.39,0,0,0,230.5,71.94Z" style="fill:#fcd87e"/><path d="M240.05,36.41c-.12-.65-.25-1.57-.93-1.85a3.48,3.48,0,0,0-3.33.15c-1.42.81-2,2.75-.94,3.5s1,2,3,1.68a3.29,3.29,0,0,0,2.15-1,3,3,0,0,0,.1-2.4Z" style="fill:#2b2b2b"/><path d="M238.74,37.63a1.81,1.81,0,0,0-.11-1.41,1.27,1.27,0,0,0-1.79-.46c-.88.36-.74.63-.94,1.3s.12.59.57,1.17A1.4,1.4,0,0,0,238.74,37.63Z" style="fill:#fcd87e"/><path d="M209.45,34.91c-.12-.65-.25-1.57-.93-1.85a3.48,3.48,0,0,0-3.33.15c-1.42.81-2,2.75-.94,3.5s1,2,3,1.69a3.35,3.35,0,0,0,2.15-1,2.91,2.91,0,0,0,.1-2.4Z" style="fill:#2b2b2b"/><path d="M208.14,36.13a1.76,1.76,0,0,0-.11-1.41,1.27,1.27,0,0,0-1.79-.46c-.88.36-.74.64-.94,1.3s.13.59.57,1.17A1.39,1.39,0,0,0,208.14,36.13Z" style="fill:#fcd87e"/><path d="M199.93,91.41c-.12-.66-.25-1.58-.94-1.86a3.48,3.48,0,0,0-3.32.15c-1.42.81-2,2.75-.95,3.5s1,2,3,1.69a3.3,3.3,0,0,0,2.14-1,2.94,2.94,0,0,0,.11-2.4Z" style="fill:#2b2b2b"/><path d="M198.61,92.62a1.74,1.74,0,0,0-.11-1.4,1.26,1.26,0,0,0-1.79-.47c-.88.36-.74.64-.94,1.3s.13.6.58,1.18A1.39,1.39,0,0,0,198.61,92.62Z" style="fill:#fcd87e"/><path d="M167.66,123c-.12-.65-.25-1.57-.93-1.85a3.48,3.48,0,0,0-3.33.15c-1.42.81-2,2.75-.94,3.5s1,2,3,1.68a3.29,3.29,0,0,0,2.15-1,3,3,0,0,0,.1-2.4Z" style="fill:#2b2b2b"/><path d="M166.35,124.2a1.81,1.81,0,0,0-.11-1.41,1.27,1.27,0,0,0-1.79-.46c-.88.36-.74.63-.94,1.29s.12.6.57,1.18A1.4,1.4,0,0,0,166.35,124.2Z" style="fill:#fcd87e"/><path d="M233,81.8c-.2-.65-.45-1.56-1.18-1.76a3.5,3.5,0,0,0-3.33.56c-1.34,1-1.65,3-.53,3.65s1.27,2,3.21,1.34a3.38,3.38,0,0,0,2.05-1.26,3,3,0,0,0-.19-2.44Z" style="fill:#2b2b2b"/><path d="M231.78,83.19a1.82,1.82,0,0,0-.28-1.41,1.3,1.3,0,0,0-1.87-.25c-.84.47-.67.73-.79,1.42s.2.59.72,1.12A1.42,1.42,0,0,0,231.78,83.19Z" style="fill:#fcd87e"/><path d="M219.13,76.85c.06-.5.18-1.2-.25-1.56a2.63,2.63,0,0,0-2.43-.66c-1.21.25-2.06,1.53-1.5,2.3s.25,1.72,1.76,1.91a2.49,2.49,0,0,0,1.78-.21c.54-.39.55-1.1.63-1.71Z" style="fill:#2b2b2b"/><path d="M217.9,77.42a1.33,1.33,0,0,0,.24-1c-.14-.53-.46-.81-1.18-.75s-.68.29-1,.72,0,.46.14,1A1.06,1.06,0,0,0,217.9,77.42Z" style="fill:#fcd87e"/><path d="M213.44,52.82c.12-.62.32-1.48-.19-2a3.27,3.27,0,0,0-3-1c-1.53.22-2.68,1.75-2,2.76s.17,2.16,2,2.52A3.17,3.17,0,0,0,212.5,55c.72-.45.78-1.33.92-2.08Z" style="fill:#2b2b2b"/><path d="M211.86,53.44a1.7,1.7,0,0,0,.39-1.28c-.14-.67-.52-1-1.42-1s-.87.3-1.28.82-.09.57.1,1.24A1.33,1.33,0,0,0,211.86,53.44Z" style="fill:#fcd87e"/><path d="M238.85,49.59c.16-.56.4-1.33,0-1.81a3,3,0,0,0-2.67-1.12c-1.42.1-2.57,1.41-2.06,2.38s0,2,1.7,2.45a2.93,2.93,0,0,0,2.06,0c.68-.36.8-1.16,1-1.84Z" style="fill:#2b2b2b"/><path d="M237.37,50.05a1.55,1.55,0,0,0,.44-1.14c-.08-.62-.4-1-1.23-1s-.82.22-1.23.67-.12.51,0,1.14A1.22,1.22,0,0,0,237.37,50.05Z" style="fill:#fcd87e"/><path d="M229.67,60.33c.07-.73.2-1.73-.43-2.23a3.83,3.83,0,0,0-3.53-.82c-1.72.42-2.87,2.29-2,3.38s.45,2.45,2.62,2.65a3.61,3.61,0,0,0,2.54-.39c.76-.6.74-1.61.82-2.49Z" style="fill:#2b2b2b"/><path d="M227.93,61.21a1.93,1.93,0,0,0,.3-1.51,1.37,1.37,0,0,0-1.73-1c-1,.11-1,.44-1.37,1.07s0,.67.25,1.41A1.52,1.52,0,0,0,227.93,61.21Z" style="fill:#fcd87e"/><path d="M245.05,26c.25-.52.62-1.23.28-1.77a3,3,0,0,0-2.41-1.57c-1.41-.15-2.77.94-2.43,2s-.33,1.95,1.24,2.68a2.93,2.93,0,0,0,2,.4c.73-.24,1-1,1.28-1.64Z" style="fill:#2b2b2b"/><path d="M243.52,26.16a1.58,1.58,0,0,0,.63-1.05c0-.62-.22-1-1-1.23s-.85.08-1.32.44-.21.48-.19,1.12A1.21,1.21,0,0,0,243.52,26.16Z" style="fill:#fcd87e"/><path d="M228.11,28.35c.13-.62.33-1.49-.18-2a3.37,3.37,0,0,0-3-1c-1.55.23-2.71,1.77-2.06,2.79s.18,2.19,2.06,2.55a3.19,3.19,0,0,0,2.26-.12c.73-.46.79-1.35.94-2.11Z" style="fill:#2b2b2b"/><path d="M226.52,29a1.72,1.72,0,0,0,.39-1.29c-.14-.68-.52-1.06-1.44-1s-.88.3-1.29.83-.1.57.1,1.25A1.34,1.34,0,0,0,226.52,29Z" style="fill:#fcd87e"/><path d="M225.47,40.6c.14-.72.38-1.72-.21-2.29a3.87,3.87,0,0,0-3.48-1.18c-1.79.26-3.13,2-2.38,3.22s.2,2.52,2.38,2.93a3.69,3.69,0,0,0,2.6-.14c.83-.53.91-1.55,1.07-2.43Z" style="fill:#2b2b2b"/><path d="M223.63,41.32a2,2,0,0,0,.46-1.49c-.17-.78-.6-1.21-1.66-1.2s-1,.36-1.49,1-.11.66.12,1.44A1.54,1.54,0,0,0,223.63,41.32Z" style="fill:#fcd87e"/><path d="M196.56,47.47c.11-.61.31-1.45-.18-1.93a3.24,3.24,0,0,0-2.93-1c-1.5.22-2.63,1.71-2,2.71s.17,2.11,2,2.46a3.06,3.06,0,0,0,2.19-.12c.7-.44.76-1.3.9-2Z" style="fill:#2b2b2b"/><path d="M195,48.07a1.62,1.62,0,0,0,.38-1.25c-.14-.65-.5-1-1.39-1s-.86.3-1.25.81-.1.56.09,1.21A1.3,1.3,0,0,0,195,48.07Z" style="fill:#fcd87e"/><path d="M181,50.72c.12-.61.32-1.45-.18-1.92a3.27,3.27,0,0,0-2.93-1c-1.5.22-2.63,1.71-2,2.71s.17,2.12,2,2.47a3.12,3.12,0,0,0,2.19-.13c.7-.44.77-1.3.9-2Z" style="fill:#2b2b2b"/><path d="M179.47,51.33a1.65,1.65,0,0,0,.38-1.26c-.13-.65-.5-1-1.39-1s-.85.3-1.25.81-.1.56.1,1.21A1.3,1.3,0,0,0,179.47,51.33Z" style="fill:#fcd87e"/><path d="M212.88,66.68c.14-.7.36-1.66-.21-2.21a3.73,3.73,0,0,0-3.35-1.14c-1.73.25-3,2-2.3,3.1s.2,2.43,2.3,2.83a3.5,3.5,0,0,0,2.51-.14c.8-.51.87-1.49,1-2.34Z" style="fill:#2b2b2b"/><path d="M211.11,67.37a1.87,1.87,0,0,0,.43-1.43c-.15-.75-.58-1.18-1.59-1.16s-1,.34-1.44.92-.11.64.11,1.39A1.49,1.49,0,0,0,211.11,67.37Z" style="fill:#fcd87e"/><path d="M256.56,51.48c-.28-.61-.62-1.48-1.36-1.59a3.51,3.51,0,0,0-3.22.94c-1.2,1.13-1.27,3.16-.09,3.65s1.47,1.77,3.31.94A3.32,3.32,0,0,0,257.07,54a3,3,0,0,0-.47-2.38Z" style="fill:#2b2b2b"/><path d="M255.56,53a1.79,1.79,0,0,0-.44-1.35,1.28,1.28,0,0,0-1.86,0c-.78.56-.58.8-.62,1.49s.27.56.84,1A1.41,1.41,0,0,0,255.56,53Z" style="fill:#fcd87e"/><path d="M184,95.31c.12-.61.31-1.45-.18-1.93a3.24,3.24,0,0,0-2.93-1c-1.5.22-2.63,1.71-2,2.7s.17,2.12,2,2.47a3.06,3.06,0,0,0,2.19-.12c.7-.44.76-1.3.9-2Z" style="fill:#2b2b2b"/><path d="M182.49,95.91a1.64,1.64,0,0,0,.38-1.25c-.14-.65-.5-1-1.39-1s-.86.3-1.25.8-.1.56.09,1.22A1.3,1.3,0,0,0,182.49,95.91Z" style="fill:#fcd87e"/><path d="M171.65,109.25c.12-.61.32-1.45-.18-1.93a3.23,3.23,0,0,0-2.93-1c-1.5.22-2.63,1.71-2,2.7s.18,2.12,2,2.47a3.11,3.11,0,0,0,2.19-.12c.7-.45.77-1.31.9-2Z" style="fill:#2b2b2b"/><path d="M170.1,109.85a1.67,1.67,0,0,0,.39-1.25c-.14-.66-.51-1-1.39-1s-.86.3-1.26.8-.09.56.1,1.22A1.29,1.29,0,0,0,170.1,109.85Z" style="fill:#fcd87e"/><path d="M228.66,150.17c.12-.61.32-1.45-.18-1.92a3.24,3.24,0,0,0-2.93-1c-1.5.22-2.63,1.71-2,2.71s.17,2.11,2,2.46a3.06,3.06,0,0,0,2.19-.12c.7-.44.76-1.3.9-2Z" style="fill:#2b2b2b"/><path d="M227.11,150.78a1.65,1.65,0,0,0,.38-1.26c-.13-.65-.5-1-1.39-1s-.86.3-1.25.81-.1.56.09,1.21A1.31,1.31,0,0,0,227.11,150.78Z" style="fill:#fcd87e"/><path d="M239.88,101c.11-.61.31-1.45-.19-1.92a3.24,3.24,0,0,0-2.92-1c-1.51.22-2.63,1.71-2,2.71s.18,2.12,2,2.47a3.12,3.12,0,0,0,2.19-.13c.7-.44.76-1.3.9-2Z" style="fill:#2b2b2b"/><path d="M238.33,101.61a1.65,1.65,0,0,0,.38-1.26c-.14-.65-.51-1-1.39-1s-.86.3-1.25.81-.1.56.09,1.21A1.3,1.3,0,0,0,238.33,101.61Z" style="fill:#fcd87e"/><path d="M253.62,126.59c.11-.61.31-1.45-.19-1.92a3.21,3.21,0,0,0-2.92-1c-1.51.21-2.63,1.71-2,2.7s.18,2.12,2,2.47a3.12,3.12,0,0,0,2.19-.13c.7-.44.76-1.3.9-2Z" style="fill:#2b2b2b"/><path d="M252.07,127.2a1.65,1.65,0,0,0,.38-1.26c-.14-.65-.5-1-1.39-1s-.86.3-1.25.8-.1.56.09,1.21A1.3,1.3,0,0,0,252.07,127.2Z" style="fill:#fcd87e"/><path d="M187,77.21c.07-.35.18-.83-.1-1.1a1.84,1.84,0,0,0-1.67-.56c-.86.12-1.5,1-1.14,1.54s.1,1.21,1.14,1.41a1.79,1.79,0,0,0,1.25-.08c.4-.25.43-.74.51-1.16Z" style="fill:#2b2b2b"/><path d="M186.15,77.56a1,1,0,0,0,.22-.72c-.08-.37-.29-.58-.8-.57s-.48.17-.71.45-.05.32,0,.7A.75.75,0,0,0,186.15,77.56Z" style="fill:#fcd87e"/><path d="M194,75.78c.07-.34.18-.82-.1-1.09a1.85,1.85,0,0,0-1.67-.57c-.86.12-1.5,1-1.14,1.54s.1,1.21,1.14,1.41A1.79,1.79,0,0,0,193.5,77c.4-.25.43-.74.51-1.17Z" style="fill:#2b2b2b"/><path d="M193.14,76.13a1,1,0,0,0,.21-.72c-.07-.37-.28-.58-.79-.57s-.49.17-.71.46-.06.32.05.69A.75.75,0,0,0,193.14,76.13Z" style="fill:#fcd87e"/><path d="M185.48,70.54c.07-.35.19-.83-.1-1.1a1.84,1.84,0,0,0-1.67-.56c-.85.12-1.49,1-1.14,1.54s.1,1.2,1.14,1.4a1.73,1.73,0,0,0,1.25-.07c.4-.25.44-.74.52-1.16Z" style="fill:#2b2b2b"/><path d="M184.6,70.88a.92.92,0,0,0,.22-.71c-.08-.37-.29-.58-.79-.57s-.49.17-.72.45-.05.32.06.69A.73.73,0,0,0,184.6,70.88Z" style="fill:#fcd87e"/><path d="M192.74,64c.06-.35.18-.83-.11-1.1A1.84,1.84,0,0,0,191,62.3c-.85.12-1.49,1-1.14,1.54s.1,1.2,1.14,1.4a1.73,1.73,0,0,0,1.25-.07c.4-.25.44-.74.52-1.16Z" style="fill:#2b2b2b"/><path d="M191.85,64.3a.92.92,0,0,0,.22-.71c-.08-.37-.29-.58-.79-.57s-.49.17-.72.45-.05.32.06.69A.73.73,0,0,0,191.85,64.3Z" style="fill:#fcd87e"/><path d="M208.17,45.13c.07-.34.18-.82-.1-1.09a1.85,1.85,0,0,0-1.67-.57c-.86.13-1.5,1-1.14,1.54s.1,1.21,1.14,1.41a1.79,1.79,0,0,0,1.25-.07c.4-.25.43-.74.51-1.17Z" style="fill:#2b2b2b"/><path d="M207.29,45.48a1,1,0,0,0,.21-.72c-.07-.37-.28-.58-.79-.57s-.49.17-.71.46-.06.32.05.69A.75.75,0,0,0,207.29,45.48Z" style="fill:#fcd87e"/><path d="M231.78,18.07c.07-.34.18-.82-.1-1.09a1.84,1.84,0,0,0-1.67-.57c-.85.12-1.5,1-1.14,1.54s.1,1.21,1.14,1.41a1.79,1.79,0,0,0,1.25-.07c.4-.25.44-.74.51-1.17Z" style="fill:#2b2b2b"/><path d="M230.9,18.42a.94.94,0,0,0,.22-.72c-.08-.37-.29-.58-.79-.57s-.49.17-.72.46-.05.32.06.69A.74.74,0,0,0,230.9,18.42Z" style="fill:#fcd87e"/><path d="M243,9.46c.06-.35.18-.82-.11-1.1a1.83,1.83,0,0,0-1.67-.56c-.85.12-1.49,1-1.14,1.54s.1,1.21,1.14,1.41a1.79,1.79,0,0,0,1.25-.08c.4-.25.44-.74.52-1.16Z" style="fill:#2b2b2b"/><path d="M242.11,9.81a1,1,0,0,0,.22-.72c-.08-.37-.29-.58-.79-.57s-.49.17-.71.45-.06.32,0,.7A.74.74,0,0,0,242.11,9.81Z" style="fill:#fcd87e"/><path d="M253.54,8.68c.07-.35.18-.83-.1-1.1A1.84,1.84,0,0,0,251.77,7c-.85.12-1.5,1-1.14,1.54s.1,1.2,1.14,1.4A1.73,1.73,0,0,0,253,9.89c.4-.25.43-.74.51-1.16Z" style="fill:#2b2b2b"/><path d="M252.66,9a.92.92,0,0,0,.22-.71c-.08-.37-.29-.58-.79-.58s-.49.17-.72.46-.05.32.06.69A.73.73,0,0,0,252.66,9Z" style="fill:#fcd87e"/><path d="M257,18.07c.07-.34.18-.82-.1-1.09a1.84,1.84,0,0,0-1.67-.57c-.85.12-1.5,1-1.14,1.54s.1,1.21,1.14,1.41a1.79,1.79,0,0,0,1.25-.07c.4-.25.44-.74.51-1.17Z" style="fill:#2b2b2b"/><path d="M256.15,18.42a.94.94,0,0,0,.22-.72c-.08-.37-.29-.58-.79-.57s-.49.17-.72.46-.05.32.06.69A.74.74,0,0,0,256.15,18.42Z" style="fill:#fcd87e"/><path d="M233.51,10.24c.07-.34.18-.82-.1-1.09a1.85,1.85,0,0,0-1.67-.57c-.86.12-1.5,1-1.14,1.54s.1,1.21,1.14,1.41a1.79,1.79,0,0,0,1.25-.07c.39-.25.43-.74.51-1.17Z" style="fill:#2b2b2b"/><path d="M232.63,10.59a1,1,0,0,0,.21-.72c-.07-.37-.28-.58-.79-.57s-.49.17-.71.46-.06.32,0,.69A.75.75,0,0,0,232.63,10.59Z" style="fill:#fcd87e"/><path d="M218.48,21.87c.06-.35.18-.83-.11-1.1a1.83,1.83,0,0,0-1.67-.56c-.85.12-1.49,1-1.14,1.54s.1,1.2,1.14,1.4a1.73,1.73,0,0,0,1.25-.07c.4-.25.44-.74.52-1.16Z" style="fill:#2b2b2b"/><path d="M217.59,22.21a.92.92,0,0,0,.22-.71c-.08-.37-.29-.58-.79-.58s-.49.18-.71.46-.06.32.05.69A.73.73,0,0,0,217.59,22.21Z" style="fill:#fcd87e"/><path d="M246.82,16.55c.06-.35.18-.83-.11-1.1a1.84,1.84,0,0,0-1.67-.56c-.85.12-1.49,1-1.14,1.54s.1,1.2,1.14,1.4a1.73,1.73,0,0,0,1.25-.07c.4-.25.44-.74.52-1.16Z" style="fill:#2b2b2b"/><path d="M245.93,16.89a.92.92,0,0,0,.22-.71c-.08-.37-.29-.58-.79-.58s-.49.18-.71.46-.06.32,0,.69A.73.73,0,0,0,245.93,16.89Z" style="fill:#fcd87e"/><path d="M259.39,26.81c.07-.35.19-.83-.1-1.1a1.87,1.87,0,0,0-1.67-.57c-.85.13-1.49,1-1.14,1.54s.1,1.21,1.14,1.41a1.73,1.73,0,0,0,1.25-.07c.4-.25.44-.74.51-1.16Z" style="fill:#2b2b2b"/><path d="M258.51,27.15a.92.92,0,0,0,.22-.71.67.67,0,0,0-.79-.58c-.51,0-.49.17-.72.46s-.05.32.06.69A.73.73,0,0,0,258.51,27.15Z" style="fill:#fcd87e"/><path d="M268.86,21.09c.07-.35.18-.83-.1-1.1a1.87,1.87,0,0,0-1.67-.57c-.85.13-1.5,1-1.14,1.54s.1,1.21,1.14,1.41a1.73,1.73,0,0,0,1.25-.07c.4-.25.44-.74.51-1.16Z" style="fill:#2b2b2b"/><path d="M268,21.43a.92.92,0,0,0,.22-.71.67.67,0,0,0-.79-.58c-.51,0-.49.17-.72.46s-.05.32.06.69A.73.73,0,0,0,268,21.43Z" style="fill:#fcd87e"/><path d="M251.53,38.9c.07-.35.18-.82-.1-1.1a1.86,1.86,0,0,0-1.67-.56c-.85.12-1.5,1-1.14,1.54s.1,1.21,1.14,1.41a1.84,1.84,0,0,0,1.25-.07,1.55,1.55,0,0,0,.51-1.17Z" style="fill:#2b2b2b"/><path d="M250.65,39.25a1,1,0,0,0,.22-.72c-.08-.37-.29-.58-.79-.57s-.49.17-.72.46-.05.31.06.69A.74.74,0,0,0,250.65,39.25Z" style="fill:#fcd87e"/><path d="M264.72,43.61c.06-.35.18-.83-.11-1.1a1.83,1.83,0,0,0-1.67-.56c-.85.12-1.49,1-1.14,1.54s.1,1.2,1.14,1.4a1.73,1.73,0,0,0,1.25-.07c.4-.25.44-.74.52-1.16Z" style="fill:#2b2b2b"/><path d="M263.83,44a.92.92,0,0,0,.22-.71c-.08-.37-.29-.58-.79-.58s-.49.18-.71.46-.06.32.05.69A.73.73,0,0,0,263.83,44Z" style="fill:#fcd87e"/><path d="M261.53,60.33c.07-.34.18-.82-.11-1.09a1.82,1.82,0,0,0-1.66-.57c-.86.12-1.5,1-1.14,1.54s.1,1.21,1.14,1.41a1.76,1.76,0,0,0,1.24-.07c.4-.26.44-.75.52-1.17Z" style="fill:#2b2b2b"/><path d="M260.65,60.68a1,1,0,0,0,.21-.72c-.07-.37-.28-.58-.79-.57s-.49.17-.71.46-.06.32.05.69A.75.75,0,0,0,260.65,60.68Z" style="fill:#fcd87e"/><path d="M254.36,66c.07-.34.18-.82-.11-1.09a1.82,1.82,0,0,0-1.66-.57c-.86.13-1.5,1-1.15,1.54s.1,1.21,1.15,1.41a1.76,1.76,0,0,0,1.24-.07c.4-.25.44-.74.52-1.16Z" style="fill:#2b2b2b"/><path d="M253.48,66.39a1,1,0,0,0,.21-.72c-.07-.37-.28-.58-.79-.57s-.49.17-.71.46-.06.32.05.69A.75.75,0,0,0,253.48,66.39Z" style="fill:#fcd87e"/><path d="M248.64,76.19c.07-.35.18-.83-.1-1.1a1.84,1.84,0,0,0-1.67-.56c-.85.12-1.5,1-1.14,1.54s.1,1.2,1.14,1.4a1.73,1.73,0,0,0,1.25-.07c.4-.25.44-.74.51-1.16Z" style="fill:#2b2b2b"/><path d="M247.76,76.53a.92.92,0,0,0,.22-.71c-.08-.37-.29-.58-.79-.58s-.49.18-.72.46-.05.32.06.69A.73.73,0,0,0,247.76,76.53Z" style="fill:#fcd87e"/><path d="M253.54,89.79c.07-.35.18-.83-.1-1.1a1.87,1.87,0,0,0-1.67-.57c-.85.13-1.5,1-1.14,1.54s.1,1.21,1.14,1.41A1.73,1.73,0,0,0,253,91c.4-.25.43-.74.51-1.16Z" style="fill:#2b2b2b"/><path d="M252.66,90.13a.92.92,0,0,0,.22-.71.67.67,0,0,0-.79-.58c-.51,0-.49.17-.72.46s-.05.32.06.69A.73.73,0,0,0,252.66,90.13Z" style="fill:#fcd87e"/><path d="M247.1,95.67c.06-.35.18-.82-.11-1.1a1.84,1.84,0,0,0-1.66-.56c-.86.12-1.5,1-1.15,1.54s.1,1.21,1.15,1.41a1.82,1.82,0,0,0,1.24-.07c.4-.26.44-.75.52-1.17Z" style="fill:#2b2b2b"/><path d="M246.22,96a1,1,0,0,0,.21-.72c-.08-.37-.28-.58-.79-.57s-.49.17-.71.46-.06.31,0,.69A.75.75,0,0,0,246.22,96Z" style="fill:#fcd87e"/><path d="M256.22,102.69c.07-.34.18-.82-.11-1.09a1.82,1.82,0,0,0-1.66-.57c-.86.13-1.5,1-1.14,1.54s.1,1.21,1.14,1.41a1.71,1.71,0,0,0,1.24-.07c.4-.25.44-.74.52-1.16Z" style="fill:#2b2b2b"/><path d="M255.34,103a.93.93,0,0,0,.21-.71c-.07-.38-.28-.59-.79-.58s-.49.17-.71.46-.06.32,0,.69A.75.75,0,0,0,255.34,103Z" style="fill:#fcd87e"/><path d="M261.53,88.21c.07-.34.18-.82-.11-1.09a1.82,1.82,0,0,0-1.66-.57c-.86.12-1.5,1-1.14,1.54s.1,1.21,1.14,1.41a1.76,1.76,0,0,0,1.24-.07c.4-.25.44-.74.52-1.17Z" style="fill:#2b2b2b"/><path d="M260.65,88.56a1,1,0,0,0,.21-.72c-.07-.37-.28-.58-.79-.57s-.49.17-.71.46-.06.32.05.69A.75.75,0,0,0,260.65,88.56Z" style="fill:#fcd87e"/><path d="M263.17,72.39c.07-.34.18-.82-.1-1.09a1.85,1.85,0,0,0-1.67-.57c-.86.13-1.5,1-1.14,1.54s.1,1.21,1.14,1.41a1.74,1.74,0,0,0,1.25-.07c.4-.25.43-.74.51-1.16Z" style="fill:#2b2b2b"/><path d="M262.29,72.74a1,1,0,0,0,.22-.71c-.08-.38-.29-.59-.8-.58s-.49.17-.71.46-.06.32.05.69A.75.75,0,0,0,262.29,72.74Z" style="fill:#fcd87e"/><path d="M236.05,111.8c.07-.35.18-.82-.1-1.1a1.84,1.84,0,0,0-1.67-.56c-.85.12-1.5,1-1.14,1.54s.1,1.21,1.14,1.41a1.79,1.79,0,0,0,1.25-.08c.4-.25.44-.74.51-1.16Z" style="fill:#2b2b2b"/><path d="M235.17,112.15a1,1,0,0,0,.22-.72c-.08-.37-.29-.58-.79-.57s-.49.17-.72.46,0,.31.06.69A.74.74,0,0,0,235.17,112.15Z" style="fill:#fcd87e"/><path d="M241.79,118.93c.06-.35.18-.83-.11-1.1a1.87,1.87,0,0,0-1.67-.57c-.85.13-1.49,1-1.14,1.55s.1,1.2,1.14,1.4a1.73,1.73,0,0,0,1.25-.07c.4-.25.44-.74.52-1.16Z" style="fill:#2b2b2b"/><path d="M240.9,119.27a.92.92,0,0,0,.22-.71c-.08-.37-.29-.58-.79-.58s-.49.17-.72.46-.05.32.06.69A.73.73,0,0,0,240.9,119.27Z" style="fill:#fcd87e"/><path d="M238,128.84c.07-.35.18-.83-.1-1.1a1.85,1.85,0,0,0-1.67-.56c-.86.12-1.5,1-1.14,1.54s.1,1.2,1.14,1.4a1.74,1.74,0,0,0,1.25-.07c.4-.25.43-.74.51-1.16Z" style="fill:#2b2b2b"/><path d="M237.1,129.18a1,1,0,0,0,.22-.71c-.08-.37-.29-.58-.8-.58s-.49.17-.71.46-.05.32.05.69A.74.74,0,0,0,237.1,129.18Z" style="fill:#fcd87e"/><path d="M246.82,135.41c.06-.35.18-.82-.11-1.1a1.84,1.84,0,0,0-1.67-.56c-.85.12-1.49,1-1.14,1.54s.1,1.21,1.14,1.41a1.79,1.79,0,0,0,1.25-.08c.4-.25.44-.74.52-1.16Z" style="fill:#2b2b2b"/><path d="M245.93,135.76a1,1,0,0,0,.22-.72c-.08-.37-.29-.58-.79-.57s-.49.17-.71.45-.06.32,0,.7A.74.74,0,0,0,245.93,135.76Z" style="fill:#fcd87e"/><path d="M246.82,127.84c.06-.34.18-.82-.11-1.09a1.84,1.84,0,0,0-1.67-.57c-.85.13-1.49,1-1.14,1.54s.1,1.21,1.14,1.41a1.79,1.79,0,0,0,1.25-.07c.4-.25.44-.74.52-1.16Z" style="fill:#2b2b2b"/><path d="M245.93,128.19a.94.94,0,0,0,.22-.72c-.08-.37-.29-.58-.79-.57s-.49.17-.71.46-.06.32,0,.69A.74.74,0,0,0,245.93,128.19Z" style="fill:#fcd87e"/><path d="M258.66,114.79c.06-.35.18-.82-.11-1.1a1.84,1.84,0,0,0-1.66-.56c-.86.12-1.5,1-1.15,1.54s.1,1.21,1.15,1.41a1.82,1.82,0,0,0,1.24-.07c.4-.26.44-.75.52-1.17Z" style="fill:#2b2b2b"/><path d="M257.77,115.14a1,1,0,0,0,.22-.72c-.08-.37-.29-.58-.79-.57s-.49.17-.71.46-.06.31.05.69A.74.74,0,0,0,257.77,115.14Z" style="fill:#fcd87e"/><path d="M257.84,138.37c.07-.35.18-.83-.1-1.1a1.87,1.87,0,0,0-1.67-.57c-.86.13-1.5,1-1.14,1.55s.1,1.2,1.14,1.4a1.73,1.73,0,0,0,1.25-.07c.4-.25.43-.74.51-1.16Z" style="fill:#2b2b2b"/><path d="M257,138.71a1,1,0,0,0,.22-.71c-.08-.37-.29-.58-.79-.58s-.49.17-.72.46,0,.32.06.69A.73.73,0,0,0,257,138.71Z" style="fill:#fcd87e"/><path d="M242.6,145.85c.07-.35.18-.83-.1-1.1a1.88,1.88,0,0,0-1.67-.57c-.86.13-1.5,1-1.14,1.54s.1,1.21,1.14,1.41a1.74,1.74,0,0,0,1.25-.07c.4-.25.43-.74.51-1.16Z" style="fill:#2b2b2b"/><path d="M241.72,146.19a1,1,0,0,0,.22-.71c-.08-.38-.29-.59-.8-.58s-.49.17-.71.46-.05.32,0,.69A.74.74,0,0,0,241.72,146.19Z" style="fill:#fcd87e"/><path d="M253.54,146.63c.07-.35.18-.83-.1-1.1a1.84,1.84,0,0,0-1.67-.56c-.85.12-1.5,1-1.14,1.54s.1,1.2,1.14,1.4a1.73,1.73,0,0,0,1.25-.07c.4-.25.43-.74.51-1.16Z" style="fill:#2b2b2b"/><path d="M252.66,147a.92.92,0,0,0,.22-.71c-.08-.37-.29-.58-.79-.57s-.49.17-.72.45-.05.32.06.69A.73.73,0,0,0,252.66,147Z" style="fill:#fcd87e"/><path d="M258.59,156.74c.07-.35.18-.83-.11-1.1a1.85,1.85,0,0,0-1.66-.57c-.86.13-1.5,1-1.14,1.55s.1,1.2,1.14,1.4a1.71,1.71,0,0,0,1.24-.07c.4-.25.44-.74.52-1.16Z" style="fill:#2b2b2b"/><path d="M257.71,157.08a.93.93,0,0,0,.21-.71c-.07-.37-.28-.58-.79-.58s-.49.17-.71.46-.06.32.05.69A.74.74,0,0,0,257.71,157.08Z" style="fill:#fcd87e"/><path d="M252.51,165.46c.07-.35.18-.82-.1-1.1a1.88,1.88,0,0,0-1.67-.56c-.86.12-1.5,1-1.14,1.54s.1,1.21,1.14,1.41a1.82,1.82,0,0,0,1.24-.07c.4-.26.44-.75.52-1.17Z" style="fill:#2b2b2b"/><path d="M251.63,165.81a1,1,0,0,0,.21-.72c-.07-.37-.28-.58-.79-.57s-.49.17-.71.46-.06.31,0,.69A.75.75,0,0,0,251.63,165.81Z" style="fill:#fcd87e"/><path d="M250.19,175.88c.07-.35.18-.83-.1-1.1a1.85,1.85,0,0,0-1.67-.57c-.86.13-1.5,1-1.14,1.54s.1,1.21,1.14,1.41a1.74,1.74,0,0,0,1.25-.07c.4-.25.43-.74.51-1.16Z" style="fill:#2b2b2b"/><path d="M249.31,176.22a1,1,0,0,0,.22-.71c-.08-.38-.29-.59-.8-.58s-.49.17-.71.46-.05.32,0,.69A.74.74,0,0,0,249.31,176.22Z" style="fill:#fcd87e"/><path d="M242.6,186.39c.07-.35.18-.83-.1-1.1a1.88,1.88,0,0,0-1.67-.57c-.86.13-1.5,1-1.14,1.54s.1,1.21,1.14,1.41a1.74,1.74,0,0,0,1.25-.07c.4-.25.43-.74.51-1.16Z" style="fill:#2b2b2b"/><path d="M241.72,186.73a1,1,0,0,0,.22-.71c-.08-.38-.29-.59-.8-.58s-.49.17-.71.46-.05.32,0,.69A.74.74,0,0,0,241.72,186.73Z" style="fill:#fcd87e"/><path d="M231.78,186.39c.06-.35.18-.83-.11-1.1a1.87,1.87,0,0,0-1.67-.57c-.85.13-1.49,1-1.14,1.54s.1,1.21,1.14,1.41a1.73,1.73,0,0,0,1.25-.07c.4-.25.44-.74.52-1.16Z" style="fill:#2b2b2b"/><path d="M230.89,186.73a.92.92,0,0,0,.22-.71.67.67,0,0,0-.79-.58c-.51,0-.49.17-.72.46s0,.32.06.69A.73.73,0,0,0,230.89,186.73Z" style="fill:#fcd87e"/><path d="M238.77,177.4c.07-.35.18-.82-.11-1.1a1.82,1.82,0,0,0-1.66-.56c-.86.12-1.5,1-1.14,1.54s.1,1.21,1.14,1.41a1.76,1.76,0,0,0,1.24-.08c.4-.25.44-.74.52-1.16Z" style="fill:#2b2b2b"/><path d="M237.89,177.75a1,1,0,0,0,.21-.72c-.07-.37-.28-.58-.79-.57s-.49.17-.71.45-.06.32.05.7A.75.75,0,0,0,237.89,177.75Z" style="fill:#fcd87e"/><path d="M234.85,169.49c.07-.34.18-.82-.1-1.09a1.85,1.85,0,0,0-1.67-.57c-.86.12-1.5,1-1.14,1.54s.1,1.21,1.14,1.41a1.79,1.79,0,0,0,1.25-.07c.4-.25.43-.74.51-1.17Z" style="fill:#2b2b2b"/><path d="M234,169.84a1,1,0,0,0,.22-.72c-.08-.37-.29-.58-.8-.57s-.49.17-.71.46-.06.32,0,.69A.75.75,0,0,0,234,169.84Z" style="fill:#fcd87e"/><path d="M241.05,163.94c.07-.35.18-.83-.1-1.1a1.87,1.87,0,0,0-1.67-.57c-.85.13-1.5,1-1.14,1.54s.1,1.21,1.14,1.41a1.73,1.73,0,0,0,1.25-.07c.4-.25.44-.74.51-1.16Z" style="fill:#2b2b2b"/><path d="M240.17,164.28a.92.92,0,0,0,.22-.71.67.67,0,0,0-.79-.58c-.51,0-.49.17-.72.46s0,.32.06.69A.73.73,0,0,0,240.17,164.28Z" style="fill:#fcd87e"/><path d="M233.32,156.74c.07-.35.18-.83-.1-1.1a1.87,1.87,0,0,0-1.67-.57c-.86.13-1.5,1-1.14,1.55s.1,1.2,1.14,1.4a1.73,1.73,0,0,0,1.25-.07c.4-.25.43-.74.51-1.16Z" style="fill:#2b2b2b"/><path d="M232.44,157.08a.92.92,0,0,0,.22-.71c-.08-.37-.29-.58-.79-.58s-.49.17-.72.46-.05.32.06.69A.73.73,0,0,0,232.44,157.08Z" style="fill:#fcd87e"/><path d="M223.42,174.35c.07-.35.18-.82-.1-1.1a1.85,1.85,0,0,0-1.67-.56c-.86.12-1.5,1-1.14,1.54s.1,1.21,1.14,1.41a1.8,1.8,0,0,0,1.25-.08c.4-.25.43-.74.51-1.16Z" style="fill:#2b2b2b"/><path d="M222.54,174.7a1,1,0,0,0,.22-.72c-.08-.37-.29-.58-.8-.57s-.49.17-.71.45-.06.32.05.7A.75.75,0,0,0,222.54,174.7Z" style="fill:#fcd87e"/><path d="M219.64,181.86c.07-.35.18-.82-.1-1.1a1.84,1.84,0,0,0-1.67-.56c-.85.12-1.5,1-1.14,1.54s.1,1.21,1.14,1.41a1.79,1.79,0,0,0,1.25-.08c.4-.25.44-.74.51-1.16Z" style="fill:#2b2b2b"/><path d="M218.76,182.21a1,1,0,0,0,.22-.72c-.08-.37-.29-.58-.79-.57s-.49.17-.72.45-.05.32.06.7A.74.74,0,0,0,218.76,182.21Z" style="fill:#fcd87e"/><path d="M209.7,174.35c.06-.35.18-.82-.11-1.1a1.84,1.84,0,0,0-1.67-.56c-.85.12-1.49,1-1.14,1.54s.1,1.21,1.14,1.41a1.79,1.79,0,0,0,1.25-.08c.4-.25.44-.74.52-1.16Z" style="fill:#2b2b2b"/><path d="M208.81,174.7A1,1,0,0,0,209,174c-.08-.37-.29-.58-.79-.57s-.49.17-.72.45-.05.32.06.7A.74.74,0,0,0,208.81,174.7Z" style="fill:#fcd87e"/><path d="M218.48,165.11c.06-.35.18-.83-.11-1.1a1.83,1.83,0,0,0-1.67-.56c-.85.12-1.49,1-1.14,1.54s.1,1.2,1.14,1.4a1.73,1.73,0,0,0,1.25-.07c.4-.25.44-.74.52-1.16Z" style="fill:#2b2b2b"/><path d="M217.59,165.45a.92.92,0,0,0,.22-.71c-.08-.37-.29-.58-.79-.57s-.49.17-.71.45-.06.32.05.69A.73.73,0,0,0,217.59,165.45Z" style="fill:#fcd87e"/><path d="M196.75,166.24c.06-.34.18-.82-.11-1.09a1.83,1.83,0,0,0-1.67-.57c-.85.13-1.49,1-1.14,1.54s.1,1.21,1.14,1.41a1.79,1.79,0,0,0,1.25-.07c.4-.25.44-.74.52-1.17Z" style="fill:#2b2b2b"/><path d="M195.86,166.59a.94.94,0,0,0,.22-.72c-.08-.37-.29-.58-.79-.57s-.49.17-.71.46-.06.32,0,.69A.74.74,0,0,0,195.86,166.59Z" style="fill:#fcd87e"/><path d="M178.07,146.63c.07-.35.18-.83-.1-1.1a1.84,1.84,0,0,0-1.67-.56c-.85.12-1.5,1-1.14,1.54s.1,1.2,1.14,1.4a1.73,1.73,0,0,0,1.25-.07c.4-.25.44-.74.51-1.16Z" style="fill:#2b2b2b"/><path d="M177.19,147a.92.92,0,0,0,.22-.71c-.08-.37-.29-.58-.79-.57s-.49.17-.72.45-.05.32.06.69A.73.73,0,0,0,177.19,147Z" style="fill:#fcd87e"/><path d="M182.66,134.63c.07-.35.18-.83-.11-1.1a1.82,1.82,0,0,0-1.66-.56c-.86.12-1.5,1-1.14,1.54s.1,1.2,1.14,1.4a1.71,1.71,0,0,0,1.24-.07c.4-.25.44-.74.52-1.16Z" style="fill:#2b2b2b"/><path d="M181.78,135a.93.93,0,0,0,.21-.71c-.07-.37-.28-.58-.79-.58s-.49.17-.71.46-.06.32,0,.69A.74.74,0,0,0,181.78,135Z" style="fill:#fcd87e"/><path d="M169.53,134.63c.06-.35.18-.83-.11-1.1a1.84,1.84,0,0,0-1.67-.56c-.85.12-1.49,1-1.14,1.54s.1,1.2,1.14,1.4a1.73,1.73,0,0,0,1.25-.07c.4-.25.44-.74.52-1.16Z" style="fill:#2b2b2b"/><path d="M168.64,135a.92.92,0,0,0,.22-.71c-.08-.37-.29-.58-.79-.58s-.49.17-.72.46,0,.32.06.69A.73.73,0,0,0,168.64,135Z" style="fill:#fcd87e"/><path d="M221.87,125.76c.07-.35.18-.82-.1-1.1a1.86,1.86,0,0,0-1.67-.56c-.85.12-1.5,1-1.14,1.54s.1,1.21,1.14,1.41a1.84,1.84,0,0,0,1.25-.07,1.55,1.55,0,0,0,.51-1.17Z" style="fill:#2b2b2b"/><path d="M221,126.11a1,1,0,0,0,.22-.72c-.08-.37-.29-.58-.79-.57s-.49.17-.72.46,0,.31.06.69A.74.74,0,0,0,221,126.11Z" style="fill:#fcd87e"/><path d="M196.75,156c.06-.34.18-.82-.11-1.09a1.83,1.83,0,0,0-1.67-.57c-.85.13-1.49,1-1.14,1.54s.1,1.21,1.14,1.41a1.73,1.73,0,0,0,1.25-.07c.4-.25.44-.74.52-1.16Z" style="fill:#2b2b2b"/><path d="M195.86,156.3a.92.92,0,0,0,.22-.71.67.67,0,0,0-.79-.58c-.5,0-.49.17-.71.46s-.06.32,0,.69A.74.74,0,0,0,195.86,156.3Z" style="fill:#fcd87e"/><path d="M205.22,150.05c.07-.35.18-.83-.1-1.1a1.85,1.85,0,0,0-1.67-.56c-.86.12-1.5,1-1.14,1.54s.1,1.2,1.14,1.4a1.74,1.74,0,0,0,1.25-.07c.4-.25.43-.74.51-1.16Z" style="fill:#2b2b2b"/><path d="M204.34,150.39a1,1,0,0,0,.22-.71c-.08-.37-.29-.58-.8-.58s-.48.18-.71.46-.05.32,0,.69A.74.74,0,0,0,204.34,150.39Z" style="fill:#fcd87e"/><path d="M245.62,57.31c.07-.35.18-.83-.1-1.1a1.88,1.88,0,0,0-1.67-.57c-.86.13-1.5,1-1.14,1.54s.1,1.21,1.14,1.41a1.71,1.71,0,0,0,1.24-.07c.4-.25.44-.74.52-1.16Z" style="fill:#2b2b2b"/><path d="M244.74,57.65a.93.93,0,0,0,.21-.71c-.07-.38-.28-.59-.79-.58s-.49.17-.71.46-.06.32.05.69A.74.74,0,0,0,244.74,57.65Z" style="fill:#fcd87e"/><path d="M201.31,64.94c.07-.35.18-.82-.1-1.1a1.85,1.85,0,0,0-1.67-.56c-.86.12-1.5,1-1.14,1.54s.1,1.21,1.14,1.41a1.8,1.8,0,0,0,1.25-.08c.4-.25.43-.74.51-1.16Z" style="fill:#2b2b2b"/><path d="M200.43,65.29a1,1,0,0,0,.22-.72c-.08-.37-.29-.58-.8-.57s-.49.17-.71.45-.06.32.05.7A.75.75,0,0,0,200.43,65.29Z" style="fill:#fcd87e"/><path d="M180.63,66.17c.07-.35.18-.82-.1-1.1a1.86,1.86,0,0,0-1.67-.56c-.86.12-1.5,1-1.14,1.54s.1,1.21,1.14,1.41a1.84,1.84,0,0,0,1.25-.07c.4-.26.43-.75.51-1.17Z" style="fill:#2b2b2b"/><path d="M179.75,66.52a1,1,0,0,0,.22-.72c-.08-.37-.29-.58-.79-.57s-.49.17-.72.46-.05.31.06.69A.74.74,0,0,0,179.75,66.52Z" style="fill:#fcd87e"/><path d="M175.65,75.53c.07-.34.18-.82-.1-1.09a1.84,1.84,0,0,0-1.67-.57c-.86.12-1.5,1-1.14,1.54s.1,1.21,1.14,1.41a1.79,1.79,0,0,0,1.25-.07c.4-.25.43-.74.51-1.17Z" style="fill:#2b2b2b"/><path d="M174.77,75.88a1,1,0,0,0,.22-.72c-.08-.37-.29-.58-.79-.57s-.49.17-.72.46,0,.32.06.69A.74.74,0,0,0,174.77,75.88Z" style="fill:#fcd87e"/><path d="M171.07,80c.07-.35.18-.82-.1-1.1a1.84,1.84,0,0,0-1.67-.56c-.85.12-1.5,1-1.14,1.54s.1,1.21,1.14,1.41a1.79,1.79,0,0,0,1.25-.08c.4-.25.43-.74.51-1.16Z" style="fill:#2b2b2b"/><path d="M170.19,80.36a1,1,0,0,0,.22-.72c-.08-.37-.29-.58-.79-.57s-.49.17-.72.45-.05.32.06.7A.74.74,0,0,0,170.19,80.36Z" style="fill:#fcd87e"/><path d="M161.85,81.41c.07-.35.18-.82-.1-1.09a1.85,1.85,0,0,0-1.67-.57c-.86.12-1.5,1-1.14,1.54s.1,1.21,1.14,1.41a1.79,1.79,0,0,0,1.25-.07c.4-.26.43-.75.51-1.17Z" style="fill:#2b2b2b"/><path d="M161,81.76a1,1,0,0,0,.22-.72c-.08-.37-.29-.58-.8-.57s-.48.17-.71.46-.05.31,0,.69A.75.75,0,0,0,161,81.76Z" style="fill:#fcd87e"/><path d="M151,77.31c.07-.35.18-.83-.1-1.1a1.84,1.84,0,0,0-1.67-.56c-.86.12-1.5,1-1.14,1.54s.1,1.2,1.14,1.4a1.74,1.74,0,0,0,1.25-.07c.4-.25.43-.74.51-1.16Z" style="fill:#2b2b2b"/><path d="M150.07,77.65a1,1,0,0,0,.22-.71c-.08-.37-.29-.58-.8-.58s-.48.18-.71.46-.05.32.05.69A.74.74,0,0,0,150.07,77.65Z" style="fill:#fcd87e"/><path d="M132.66,66.83c.06-.35.18-.83-.11-1.1a1.87,1.87,0,0,0-1.67-.57c-.85.13-1.49,1-1.14,1.54s.1,1.21,1.14,1.41a1.73,1.73,0,0,0,1.25-.07c.4-.25.44-.74.52-1.16Z" style="fill:#2b2b2b"/><path d="M131.77,67.17a.92.92,0,0,0,.22-.71c-.08-.38-.29-.58-.79-.58s-.49.17-.72.46,0,.32.06.69A.73.73,0,0,0,131.77,67.17Z" style="fill:#fcd87e"/><path d="M129.56,60.09c.07-.35.18-.83-.1-1.1a1.84,1.84,0,0,0-1.67-.56c-.86.12-1.5,1-1.14,1.54s.1,1.2,1.14,1.4A1.73,1.73,0,0,0,129,61.3c.4-.25.43-.74.51-1.16Z" style="fill:#2b2b2b"/><path d="M128.68,60.43a.92.92,0,0,0,.22-.71c-.08-.37-.29-.58-.79-.57s-.49.17-.72.45,0,.32.06.69A.73.73,0,0,0,128.68,60.43Z" style="fill:#fcd87e"/><path d="M136.49,59.31c.07-.35.19-.83-.1-1.1a1.87,1.87,0,0,0-1.67-.57c-.85.13-1.49,1-1.14,1.54s.1,1.21,1.14,1.41a1.73,1.73,0,0,0,1.25-.07c.4-.25.44-.74.51-1.16Z" style="fill:#2b2b2b"/><path d="M135.61,59.65a.92.92,0,0,0,.22-.71.67.67,0,0,0-.79-.58c-.51,0-.49.17-.72.46s0,.32.06.69A.73.73,0,0,0,135.61,59.65Z" style="fill:#fcd87e"/><path d="M140,65.91c.07-.35.19-.83-.1-1.1a1.84,1.84,0,0,0-1.67-.56c-.85.12-1.49,1-1.14,1.54s.1,1.2,1.14,1.4a1.73,1.73,0,0,0,1.25-.07c.4-.25.44-.74.52-1.16Z" style="fill:#2b2b2b"/><path d="M139.1,66.25a.92.92,0,0,0,.22-.71c-.08-.37-.29-.58-.79-.57s-.49.17-.72.45-.05.32.06.69A.73.73,0,0,0,139.1,66.25Z" style="fill:#fcd87e"/><path d="M147.8,61.56c.07-.35.18-.83-.11-1.1A1.82,1.82,0,0,0,146,59.9c-.86.12-1.5,1-1.14,1.54s.1,1.2,1.14,1.4a1.71,1.71,0,0,0,1.24-.07c.4-.25.44-.74.52-1.16Z" style="fill:#2b2b2b"/><path d="M146.92,61.9a.93.93,0,0,0,.21-.71c-.07-.37-.28-.58-.79-.57s-.49.17-.71.45-.06.32.05.69A.74.74,0,0,0,146.92,61.9Z" style="fill:#fcd87e"/><path d="M145.16,74.7c.07-.34.18-.82-.1-1.09a1.85,1.85,0,0,0-1.67-.57c-.86.12-1.5,1-1.14,1.54s.1,1.21,1.14,1.41a1.79,1.79,0,0,0,1.25-.07c.4-.26.43-.74.51-1.17Z" style="fill:#2b2b2b"/><path d="M144.28,75.05a1,1,0,0,0,.22-.72c-.08-.37-.29-.58-.8-.57s-.49.17-.71.46-.06.32,0,.69A.75.75,0,0,0,144.28,75.05Z" style="fill:#fcd87e"/><path d="M131.84,73.18c.07-.35.18-.83-.1-1.1a1.85,1.85,0,0,0-1.67-.56c-.86.12-1.5,1-1.14,1.54s.1,1.2,1.14,1.4a1.74,1.74,0,0,0,1.25-.07c.4-.25.43-.74.51-1.16Z" style="fill:#2b2b2b"/><path d="M131,73.52a1,1,0,0,0,.22-.71c-.08-.37-.29-.58-.8-.58s-.49.17-.71.46,0,.32.05.69A.74.74,0,0,0,131,73.52Z" style="fill:#fcd87e"/><path d="M115.56,72.82c.07-.35.18-.83-.1-1.1a1.84,1.84,0,0,0-1.67-.56c-.86.12-1.5,1-1.14,1.54s.1,1.2,1.14,1.4A1.73,1.73,0,0,0,115,74c.4-.25.43-.74.51-1.16Z" style="fill:#2b2b2b"/><path d="M114.68,73.16a.92.92,0,0,0,.22-.71c-.08-.37-.29-.58-.79-.58s-.49.17-.72.46,0,.32.06.69A.73.73,0,0,0,114.68,73.16Z" style="fill:#fcd87e"/><path d="M112,65.48c.07-.34.18-.82-.1-1.09a1.84,1.84,0,0,0-1.67-.57c-.86.13-1.5,1-1.14,1.54s.1,1.21,1.14,1.41a1.79,1.79,0,0,0,1.25-.07c.4-.25.43-.74.51-1.17Z" style="fill:#2b2b2b"/><path d="M111.08,65.83a1,1,0,0,0,.22-.72c-.08-.37-.29-.58-.8-.57s-.48.17-.71.46-.05.32,0,.69A.75.75,0,0,0,111.08,65.83Z" style="fill:#fcd87e"/><path d="M104.18,63.52c.06-.35.18-.82-.11-1.09a1.84,1.84,0,0,0-1.67-.57c-.85.12-1.49,1-1.14,1.54s.1,1.21,1.14,1.41a1.79,1.79,0,0,0,1.25-.07c.4-.26.44-.75.52-1.17Z" style="fill:#2b2b2b"/><path d="M103.29,63.87a.94.94,0,0,0,.22-.72c-.08-.37-.29-.58-.79-.57s-.49.17-.71.46-.06.31,0,.69A.74.74,0,0,0,103.29,63.87Z" style="fill:#fcd87e"/><path d="M96.79,67.7c.07-.35.18-.83-.1-1.1A1.87,1.87,0,0,0,95,66c-.85.13-1.5,1-1.14,1.54S94,68.78,95,69a1.73,1.73,0,0,0,1.25-.07c.4-.25.44-.74.51-1.16Z" style="fill:#2b2b2b"/><path d="M95.91,68a.92.92,0,0,0,.22-.71.67.67,0,0,0-.79-.58c-.51,0-.49.17-.72.46s-.05.32.06.69A.73.73,0,0,0,95.91,68Z" style="fill:#fcd87e"/><path d="M119.67,63.52c.07-.35.18-.82-.1-1.09a1.85,1.85,0,0,0-1.67-.57c-.86.12-1.5,1-1.14,1.54s.1,1.21,1.14,1.41a1.79,1.79,0,0,0,1.25-.07c.39-.26.43-.75.51-1.17Z" style="fill:#2b2b2b"/><path d="M118.79,63.87a1,1,0,0,0,.21-.72c-.07-.37-.28-.58-.79-.57s-.49.17-.71.46-.06.31,0,.69A.75.75,0,0,0,118.79,63.87Z" style="fill:#fcd87e"/><path d="M116.31,56.62c.06-.35.18-.83-.11-1.1a1.87,1.87,0,0,0-1.67-.57c-.85.13-1.49,1-1.14,1.55s.1,1.2,1.14,1.4a1.73,1.73,0,0,0,1.25-.07c.4-.25.44-.74.52-1.16Z" style="fill:#2b2b2b"/><path d="M115.42,57a.92.92,0,0,0,.22-.71c-.08-.37-.29-.58-.79-.58s-.49.17-.72.46,0,.32.06.69A.73.73,0,0,0,115.42,57Z" style="fill:#fcd87e"/><path d="M145.16,68.23c.07-.35.18-.82-.1-1.1a1.88,1.88,0,0,0-1.67-.56c-.86.12-1.5,1-1.14,1.54s.1,1.21,1.14,1.41a1.85,1.85,0,0,0,1.25-.07c.4-.26.43-.75.51-1.17Z" style="fill:#2b2b2b"/><path d="M144.28,68.58a1,1,0,0,0,.22-.72c-.08-.37-.29-.58-.8-.57s-.49.17-.71.46-.06.31,0,.69A.75.75,0,0,0,144.28,68.58Z" style="fill:#fcd87e"/><path d="M156.72,72.06c.07-.34.18-.82-.1-1.09A1.85,1.85,0,0,0,155,70.4c-.86.13-1.5,1-1.14,1.54s.1,1.21,1.14,1.41a1.74,1.74,0,0,0,1.25-.07c.4-.25.43-.74.51-1.16Z" style="fill:#2b2b2b"/><path d="M155.84,72.41a1,1,0,0,0,.22-.71c-.08-.38-.29-.59-.8-.58s-.49.17-.71.46-.06.32,0,.69A.75.75,0,0,0,155.84,72.41Z" style="fill:#fcd87e"/><path d="M167.57,70.54c.07-.35.18-.83-.11-1.1a1.82,1.82,0,0,0-1.66-.56c-.86.12-1.5,1-1.14,1.54s.1,1.2,1.14,1.4a1.71,1.71,0,0,0,1.24-.07c.4-.25.44-.74.52-1.16Z" style="fill:#2b2b2b"/><path d="M166.69,70.88a.93.93,0,0,0,.21-.71c-.07-.37-.28-.58-.79-.57s-.49.17-.71.45-.06.32,0,.69A.74.74,0,0,0,166.69,70.88Z" style="fill:#fcd87e"/><path d="M166.38,75.78c.06-.34.18-.82-.11-1.09a1.83,1.83,0,0,0-1.67-.57c-.85.12-1.49,1-1.14,1.54s.1,1.21,1.14,1.41a1.79,1.79,0,0,0,1.25-.07c.4-.25.44-.74.52-1.17Z" style="fill:#2b2b2b"/><path d="M165.49,76.13a.94.94,0,0,0,.22-.72c-.08-.37-.29-.58-.79-.57s-.49.17-.71.46-.06.32,0,.69A.74.74,0,0,0,165.49,76.13Z" style="fill:#fcd87e"/><path d="M172.62,87.43c.07-.35.18-.82-.1-1.1a1.88,1.88,0,0,0-1.67-.56c-.86.12-1.5,1-1.14,1.54s.1,1.21,1.14,1.41a1.85,1.85,0,0,0,1.25-.07c.4-.26.43-.75.51-1.17Z" style="fill:#2b2b2b"/><path d="M171.74,87.78a1,1,0,0,0,.21-.72c-.07-.37-.28-.58-.79-.57s-.49.17-.71.46-.06.31.05.69A.75.75,0,0,0,171.74,87.78Z" style="fill:#fcd87e"/><path d="M183,82.19c.07-.34.18-.82-.11-1.09a1.82,1.82,0,0,0-1.66-.57c-.86.13-1.5,1-1.15,1.54s.1,1.21,1.15,1.41a1.71,1.71,0,0,0,1.24-.07c.4-.25.44-.74.52-1.16Z" style="fill:#2b2b2b"/><path d="M182.11,82.54a.93.93,0,0,0,.21-.71c-.07-.38-.28-.59-.79-.58s-.49.17-.71.46-.06.32.05.69A.75.75,0,0,0,182.11,82.54Z" style="fill:#fcd87e"/><path d="M158.27,64.65c.06-.35.18-.83-.11-1.1A1.85,1.85,0,0,0,156.5,63c-.86.13-1.5,1-1.15,1.54s.1,1.21,1.15,1.41a1.71,1.71,0,0,0,1.24-.07c.4-.25.44-.74.52-1.16Z" style="fill:#2b2b2b"/><path d="M157.38,65a.92.92,0,0,0,.22-.71.67.67,0,0,0-.79-.58c-.5,0-.49.17-.71.46s-.06.32.05.69A.73.73,0,0,0,157.38,65Z" style="fill:#fcd87e"/><path d="M192.77,130.85c.27-.46.67-1.08.4-1.61a2.78,2.78,0,0,0-2.09-1.64c-1.27-.26-2.61.63-2.39,1.61s-.47,1.77.91,2.58a2.71,2.71,0,0,0,1.81.52c.7-.16,1-.83,1.32-1.39Z" style="fill:#2b2b2b"/><path d="M191.34,130.9A1.44,1.44,0,0,0,192,130c.08-.57-.12-1-.84-1.21s-.78,0-1.24.29-.24.42-.27,1A1.11,1.11,0,0,0,191.34,130.9Z" style="fill:#fcd87e"/><path d="M152.62,117.27c.27-.46.67-1.08.41-1.61a2.78,2.78,0,0,0-2.09-1.64c-1.28-.26-2.62.63-2.4,1.62s-.46,1.76.92,2.57a2.64,2.64,0,0,0,1.81.52c.69-.15,1-.83,1.31-1.39Z" style="fill:#2b2b2b"/><path d="M151.2,117.32a1.41,1.41,0,0,0,.66-.91c.08-.57-.11-1-.83-1.21s-.78,0-1.25.29-.24.43-.27,1A1.12,1.12,0,0,0,151.2,117.32Z" style="fill:#fcd87e"/><path d="M180.93,75.69c.14-.25.36-.57.22-.85A1.51,1.51,0,0,0,180,74c-.67-.13-1.38.34-1.26.85s-.24.94.48,1.36a1.46,1.46,0,0,0,1,.28c.36-.09.52-.44.69-.74Z" style="fill:#2b2b2b"/><path d="M180.18,75.71a.76.76,0,0,0,.35-.48c0-.3-.06-.51-.44-.64s-.41,0-.66.16-.12.22-.14.53A.59.59,0,0,0,180.18,75.71Z" style="fill:#fcd87e"/><path d="M176.35,81.46c.14-.24.35-.57.21-.85a1.46,1.46,0,0,0-1.1-.86c-.67-.13-1.38.33-1.26.85s-.25.93.48,1.36a1.38,1.38,0,0,0,.95.27c.37-.08.53-.44.7-.73Z" style="fill:#2b2b2b"/><path d="M175.6,81.49A.76.76,0,0,0,176,81c0-.3-.06-.51-.44-.64s-.42,0-.66.15-.12.23-.14.54A.59.59,0,0,0,175.6,81.49Z" style="fill:#fcd87e"/><path d="M191,82.73c.14-.25.35-.57.21-.85a1.47,1.47,0,0,0-1.1-.87c-.67-.13-1.38.34-1.26.85s-.25.93.48,1.36a1.45,1.45,0,0,0,1,.28c.36-.09.52-.44.69-.74Z" style="fill:#2b2b2b"/><path d="M190.26,82.75a.76.76,0,0,0,.35-.48c0-.3-.06-.51-.44-.64s-.41,0-.66.16-.12.22-.14.53A.59.59,0,0,0,190.26,82.75Z" style="fill:#fcd87e"/><path d="M189.1,68.4c.14-.24.35-.57.21-.85a1.46,1.46,0,0,0-1.1-.86c-.68-.14-1.38.33-1.26.85s-.25.93.48,1.36a1.36,1.36,0,0,0,.95.27c.37-.08.52-.44.69-.73Z" style="fill:#2b2b2b"/><path d="M188.34,68.43a.79.79,0,0,0,.36-.48c0-.3-.07-.51-.45-.64s-.41,0-.65.15-.13.23-.14.54A.58.58,0,0,0,188.34,68.43Z" style="fill:#fcd87e"/><path d="M185.37,63.21c.14-.24.35-.57.21-.85a1.49,1.49,0,0,0-1.1-.87c-.68-.13-1.38.34-1.26.86s-.25.93.48,1.35a1.42,1.42,0,0,0,1,.28c.37-.08.53-.44.7-.74Z" style="fill:#2b2b2b"/><path d="M184.61,63.23a.72.72,0,0,0,.36-.47.54.54,0,0,0-.45-.64c-.38-.13-.41,0-.65.15s-.13.22-.14.53A.58.58,0,0,0,184.61,63.23Z" style="fill:#fcd87e"/><path d="M196.92,61.91c.14-.24.35-.57.21-.85a1.49,1.49,0,0,0-1.1-.87c-.68-.13-1.38.34-1.26.86s-.25.93.48,1.35a1.37,1.37,0,0,0,.95.28c.37-.08.52-.44.69-.74Z" style="fill:#2b2b2b"/><path d="M196.16,61.93a.76.76,0,0,0,.36-.47.54.54,0,0,0-.45-.64c-.38-.13-.41,0-.65.15s-.13.22-.14.53A.58.58,0,0,0,196.16,61.93Z" style="fill:#fcd87e"/><path d="M177.16,70.85c.15-.24.36-.57.22-.85a1.48,1.48,0,0,0-1.1-.86c-.68-.14-1.38.33-1.27.85s-.24.93.49,1.36a1.36,1.36,0,0,0,.95.27c.37-.08.52-.44.69-.73Z" style="fill:#2b2b2b"/><path d="M176.41,70.88a.76.76,0,0,0,.35-.48c0-.3-.06-.51-.44-.64s-.41,0-.66.15-.12.23-.14.54A.59.59,0,0,0,176.41,70.88Z" style="fill:#fcd87e"/><path d="M172.1,70.11c.15-.24.36-.57.22-.85a1.48,1.48,0,0,0-1.1-.86c-.68-.14-1.38.33-1.27.85s-.24.93.49,1.35a1.32,1.32,0,0,0,.95.28c.37-.08.52-.44.69-.73Z" style="fill:#2b2b2b"/><path d="M171.35,70.14a.76.76,0,0,0,.35-.48c0-.3-.06-.51-.44-.64s-.41,0-.65.15-.13.23-.15.53A.6.6,0,0,0,171.35,70.14Z" style="fill:#fcd87e"/><path d="M175.14,65c.14-.24.35-.57.21-.85a1.46,1.46,0,0,0-1.1-.86c-.67-.14-1.38.33-1.26.85s-.25.93.48,1.35a1.38,1.38,0,0,0,.95.28c.37-.08.53-.44.7-.73Z" style="fill:#2b2b2b"/><path d="M174.38,65a.72.72,0,0,0,.36-.47.53.53,0,0,0-.44-.64c-.38-.13-.42,0-.66.15s-.13.23-.14.53A.58.58,0,0,0,174.38,65Z" style="fill:#fcd87e"/><path d="M163.65,66c.14-.25.35-.57.21-.85a1.47,1.47,0,0,0-1.1-.87c-.67-.13-1.38.34-1.26.85s-.25.94.48,1.36a1.44,1.44,0,0,0,1,.28c.37-.09.53-.44.7-.74Z" style="fill:#2b2b2b"/><path d="M162.9,66.06a.76.76,0,0,0,.35-.48c0-.3-.06-.51-.44-.64s-.41,0-.66.16-.12.22-.14.53A.59.59,0,0,0,162.9,66.06Z" style="fill:#fcd87e"/><path d="M161.17,75.58c.15-.24.36-.57.22-.84a1.47,1.47,0,0,0-1.1-.87c-.68-.13-1.38.33-1.27.85s-.24.93.49,1.36a1.42,1.42,0,0,0,1,.28c.37-.09.52-.44.69-.74Z" style="fill:#2b2b2b"/><path d="M160.42,75.61a.76.76,0,0,0,.35-.48c0-.3-.06-.51-.44-.64s-.41,0-.65.16-.13.22-.15.53A.59.59,0,0,0,160.42,75.61Z" style="fill:#fcd87e"/><path d="M155,79.84c.15-.24.36-.57.22-.84a1.47,1.47,0,0,0-1.1-.87c-.68-.13-1.38.33-1.27.85s-.24.93.49,1.36a1.42,1.42,0,0,0,.95.28c.37-.09.52-.45.69-.74Z" style="fill:#2b2b2b"/><path d="M154.24,79.87a.76.76,0,0,0,.35-.48c0-.3-.06-.51-.44-.64s-.41,0-.65.16-.13.22-.15.53A.59.59,0,0,0,154.24,79.87Z" style="fill:#fcd87e"/><path d="M165.05,87c.14-.24.35-.57.21-.85a1.46,1.46,0,0,0-1.1-.86c-.67-.14-1.38.33-1.26.85s-.25.93.48,1.36a1.38,1.38,0,0,0,1,.27c.37-.08.53-.44.7-.73Z" style="fill:#2b2b2b"/><path d="M164.29,87a.76.76,0,0,0,.36-.48c0-.3-.06-.51-.44-.64s-.42,0-.66.15-.13.23-.14.54A.59.59,0,0,0,164.29,87Z" style="fill:#fcd87e"/><path d="M154.22,85c.14-.25.35-.57.21-.85a1.47,1.47,0,0,0-1.1-.87c-.67-.13-1.38.34-1.26.85s-.24.94.48,1.36a1.45,1.45,0,0,0,1,.28c.36-.09.52-.44.69-.74Z" style="fill:#2b2b2b"/><path d="M153.47,85a.76.76,0,0,0,.35-.48c0-.3-.06-.51-.44-.64s-.41,0-.66.16-.12.22-.14.53A.59.59,0,0,0,153.47,85Z" style="fill:#fcd87e"/><path d="M143.43,80.79c.15-.24.36-.57.22-.85a1.48,1.48,0,0,0-1.1-.86c-.68-.14-1.38.33-1.27.85s-.24.93.49,1.36a1.36,1.36,0,0,0,.95.27c.37-.08.52-.44.69-.73Z" style="fill:#2b2b2b"/><path d="M142.68,80.82a.76.76,0,0,0,.35-.48c0-.3-.06-.51-.44-.64s-.41,0-.65.15-.13.23-.15.54A.59.59,0,0,0,142.68,80.82Z" style="fill:#fcd87e"/><path d="M139.54,77c.14-.24.36-.57.21-.85a1.44,1.44,0,0,0-1.1-.86c-.67-.14-1.38.33-1.26.85s-.24.93.48,1.35a1.41,1.41,0,0,0,1,.28c.36-.08.52-.44.69-.73Z" style="fill:#2b2b2b"/><path d="M138.79,77a.72.72,0,0,0,.35-.47.53.53,0,0,0-.44-.64c-.38-.13-.41,0-.66.15s-.12.23-.14.53A.59.59,0,0,0,138.79,77Z" style="fill:#fcd87e"/><path d="M151,71.87c.14-.24.35-.57.21-.85a1.49,1.49,0,0,0-1.1-.87c-.67-.13-1.38.34-1.26.86s-.25.93.48,1.35a1.42,1.42,0,0,0,.95.28c.37-.08.53-.44.7-.74Z" style="fill:#2b2b2b"/><path d="M150.24,71.89a.72.72,0,0,0,.36-.47c0-.3-.06-.52-.45-.64s-.41,0-.65.15-.13.22-.14.53A.58.58,0,0,0,150.24,71.89Z" style="fill:#fcd87e"/><path d="M136.68,70.11c.15-.24.36-.57.22-.85a1.48,1.48,0,0,0-1.1-.86c-.68-.14-1.38.33-1.27.85s-.24.93.49,1.35a1.32,1.32,0,0,0,.95.28c.37-.08.52-.44.69-.73Z" style="fill:#2b2b2b"/><path d="M135.93,70.14a.76.76,0,0,0,.35-.48c0-.3-.06-.51-.44-.64s-.41,0-.66.15-.12.23-.14.53A.6.6,0,0,0,135.93,70.14Z" style="fill:#fcd87e"/><path d="M125.64,68.23c.14-.24.35-.57.21-.85a1.49,1.49,0,0,0-1.1-.87c-.67-.13-1.38.34-1.26.86s-.25.93.48,1.35a1.44,1.44,0,0,0,1,.28c.37-.08.53-.44.7-.74Z" style="fill:#2b2b2b"/><path d="M124.89,68.25a.76.76,0,0,0,.35-.47.54.54,0,0,0-.44-.65c-.38-.12-.42,0-.66.16s-.13.22-.14.53A.59.59,0,0,0,124.89,68.25Z" style="fill:#fcd87e"/><path d="M121.4,59.14c.15-.24.36-.57.22-.85a1.48,1.48,0,0,0-1.1-.86c-.68-.14-1.38.33-1.27.85s-.24.93.49,1.35a1.32,1.32,0,0,0,1,.28c.37-.08.52-.44.69-.73Z" style="fill:#2b2b2b"/><path d="M120.65,59.16a.72.72,0,0,0,.35-.47.53.53,0,0,0-.44-.64c-.38-.13-.41,0-.65.15s-.13.23-.15.53A.59.59,0,0,0,120.65,59.16Z" style="fill:#fcd87e"/><path d="M115.86,68c.14-.24.36-.57.22-.85A1.48,1.48,0,0,0,115,66.3c-.67-.14-1.38.33-1.26.85s-.24.93.48,1.35a1.36,1.36,0,0,0,1,.28c.36-.08.52-.44.69-.73Z" style="fill:#2b2b2b"/><path d="M115.11,68a.76.76,0,0,0,.35-.48.53.53,0,0,0-.44-.64c-.38-.13-.41,0-.66.15s-.12.23-.14.53A.6.6,0,0,0,115.11,68Z" style="fill:#fcd87e"/><path d="M107.86,70.85c.14-.24.35-.57.21-.85a1.46,1.46,0,0,0-1.1-.86c-.68-.14-1.38.33-1.26.85s-.25.93.48,1.36a1.36,1.36,0,0,0,1,.27c.37-.08.53-.44.7-.73Z" style="fill:#2b2b2b"/><path d="M107.1,70.88a.76.76,0,0,0,.36-.48c0-.3-.06-.51-.45-.64s-.41,0-.65.15-.13.23-.14.54A.58.58,0,0,0,107.1,70.88Z" style="fill:#fcd87e"/><path d="M101.64,69.27c.14-.24.35-.57.21-.85a1.46,1.46,0,0,0-1.1-.86c-.68-.14-1.38.33-1.26.85s-.25.93.48,1.36a1.36,1.36,0,0,0,1,.27c.37-.08.52-.44.69-.73Z" style="fill:#2b2b2b"/><path d="M100.88,69.3a.76.76,0,0,0,.35-.48c0-.3-.06-.51-.44-.64s-.41,0-.65.15-.13.23-.15.54A.59.59,0,0,0,100.88,69.3Z" style="fill:#fcd87e"/><path d="M108.42,62.31c.14-.24.35-.57.21-.85a1.46,1.46,0,0,0-1.1-.86c-.68-.14-1.38.33-1.26.85s-.25.93.48,1.35a1.32,1.32,0,0,0,1,.28c.37-.08.53-.44.7-.73Z" style="fill:#2b2b2b"/><path d="M107.66,62.34a.76.76,0,0,0,.36-.48c0-.3-.07-.51-.45-.64s-.41,0-.65.15-.13.23-.14.53A.59.59,0,0,0,107.66,62.34Z" style="fill:#fcd87e"/><path d="M91.28,68.23c.14-.24.36-.57.21-.85a1.47,1.47,0,0,0-1.1-.87c-.67-.13-1.38.34-1.26.86s-.24.93.48,1.35a1.46,1.46,0,0,0,1,.28c.36-.08.52-.44.69-.74Z" style="fill:#2b2b2b"/><path d="M90.53,68.25a.76.76,0,0,0,.35-.47.54.54,0,0,0-.44-.65c-.38-.12-.41,0-.66.16s-.12.22-.14.53A.59.59,0,0,0,90.53,68.25Z" style="fill:#fcd87e"/><path d="M120,70.07c.14-.24.35-.57.21-.85a1.44,1.44,0,0,0-1.1-.86c-.67-.14-1.38.33-1.26.85s-.25.93.48,1.35a1.35,1.35,0,0,0,1,.28c.36-.08.52-.44.69-.73Z" style="fill:#2b2b2b"/><path d="M119.22,70.1a.76.76,0,0,0,.35-.48c0-.3-.06-.51-.44-.64s-.41,0-.66.15-.12.23-.14.53A.59.59,0,0,0,119.22,70.1Z" style="fill:#fcd87e"/><path d="M121.4,75c.15-.25.36-.57.22-.85a1.51,1.51,0,0,0-1.1-.87c-.68-.13-1.38.34-1.27.85s-.24.94.49,1.36a1.42,1.42,0,0,0,1,.28c.37-.09.52-.44.69-.74Z" style="fill:#2b2b2b"/><path d="M120.65,75a.76.76,0,0,0,.35-.48c0-.3-.06-.51-.44-.64s-.41,0-.65.16-.13.22-.15.53A.59.59,0,0,0,120.65,75Z" style="fill:#fcd87e"/><path d="M126.15,55.67c.14-.24.35-.57.21-.85a1.49,1.49,0,0,0-1.1-.87c-.68-.13-1.38.34-1.26.86s-.25.93.48,1.35a1.42,1.42,0,0,0,1,.28c.37-.08.53-.44.7-.74Z" style="fill:#2b2b2b"/><path d="M125.39,55.69a.72.72,0,0,0,.36-.47.54.54,0,0,0-.45-.64c-.38-.13-.41,0-.65.15s-.13.22-.14.53A.58.58,0,0,0,125.39,55.69Z" style="fill:#fcd87e"/><path d="M150.44,67c.14-.24.35-.57.21-.84a1.45,1.45,0,0,0-1.1-.87c-.67-.13-1.38.33-1.26.85s-.25.93.48,1.36a1.44,1.44,0,0,0,.95.28c.37-.09.53-.44.7-.74Z" style="fill:#2b2b2b"/><path d="M149.68,67a.76.76,0,0,0,.36-.48c0-.3-.06-.51-.44-.64s-.42,0-.66.16-.13.22-.14.53A.58.58,0,0,0,149.68,67Z" style="fill:#fcd87e"/><path d="M55.12,99.7l-.54.3-.32.18-.89.53-.28.18c-.29.17-.59.36-.91.57,0,0,.73-2.06-2-2s-3.36-.54-3.79-1.31-3.59-6.61-5.3-4-.54,4.57-3.17,4.62-2.95-1.91-3.74.67-2.62,4.49-5.28,4.34a6.08,6.08,0,0,0-.93-1.83c.09-.05,1-.55,2.21-1.29s1.75-2.43,2.48-4.28S36.12,95.81,37,95s-1.16-2.13-3.94-1.6-2,.93-2.92,2.51a4.5,4.5,0,0,1-4.26,2.26A8.22,8.22,0,0,0,22,99.57h0a6.18,6.18,0,0,0-5.26,6.11,7.16,7.16,0,0,0,.07.94c-.15,0-2.92.44-3.35-.5s-.73-3.59.88-4.47,2.57-1.11,3.62-2.82,2.45-4.06,5-3.47,3.87.67,5.58-1.94a19.39,19.39,0,0,1,1.85-2.54,5,5,0,0,1,3.4-1.64c2.63-.29,3.94-.81,5-2.16s4.11-3.61,5,0,.55,2.78,4.5,4h0c4,1.22,4.23.67,3.14,2.33s-4,2.25-1.81,3.41S54.85,97.46,55.12,99.7Z" style="fill:#2b2b2b"/><path d="M64.13,80.63c-1.44.15-2.76.9-4.66,1.62s-3.64-1.73-5-.22-1.65,3.77.61,4.46a7,7,0,0,1,1.83.86h0c1.77,1.18,3.23,3.29,1.81,6.18,0,0-1,2.75-2.2,1.49s1.39-1.33,0-4.11C55.61,89,55,89.13,54,88.64a5.47,5.47,0,0,1-1.7-1.37c-2.14-2.41-1.28-1.65-.91-5s3.59-4.48,5.34-3.2,2.83.32,5-1.31,3.62-1.28,4.79.37S65.58,80.49,64.13,80.63Z" style="fill:#2b2b2b"/><path d="M69.55,85.81c-.73,1.4-.88,1.83-3.36,2.24s-3.21.46-4.5-1.56a1.84,1.84,0,0,1-.36-1c0-.9,1.64-.67,1.64-.67h0c1.46-.27,2.18.77,3.83-.38S70.28,84.43,69.55,85.81Z" style="fill:#2b2b2b"/><path d="M78.31,77.2a3.51,3.51,0,0,0-.76,2.72c0,.38.06.64.06.64.06.64.33,2.26-.83,2.11-.77-.09-1.41-.92-1.91-2a13.1,13.1,0,0,1-.65-1.92c-.51-2-1.53-3.4-1.75-4.83s3.79-.76,5.45,0S79.4,76.25,78.31,77.2Z" style="fill:none;stroke:#2b2b2b;stroke-miterlimit:10"/><path d="M104.25,74.84c-.78-.06-1.39-.07-1.88-.06-2.49.06-1.76.72-4-.6-2.68-1.58-3.37-2.87-6.82-1.49S83.65,76.2,83,74.84s1.49-2.47-2.75-3.45-4.38-.42-6.71.25-4.2.56-5.26,1.38c0,0-2.62,1.27-.58,2.69s2.48,0,3.36,2c.56,1.3,1.07,2.37,1.51,3.6.24.67.47,1.39.68,2.22.58,2.32,5.11,3.34,6.42,1.52.92-1.28-.39-3.8-.14-5.59h0a2,2,0,0,1,1.44-1.75c3.21-1.2,7.41-.15,9.33-1.47s3.13-2.67,5.88.41,2.75,1.67,3.33,1.06,3.37-.56,4.78-.59a3.5,3.5,0,0,0,1.09-.26C106.74,76.36,108,75.11,104.25,74.84ZM78.31,77.2a3.51,3.51,0,0,0-.76,2.72c0,.38.06.64.06.64.06.64.33,2.26-.83,2.11-.77-.09-1.41-.92-1.91-2a13.1,13.1,0,0,1-.65-1.92c-.51-2-1.53-3.4-1.75-4.83s3.79-.76,5.45,0S79.4,76.25,78.31,77.2Z" style="fill:#2b2b2b"/><path d="M78.31,77.2a3.51,3.51,0,0,0-.76,2.72c0,.38.06.64.06.64.06.64.33,2.26-.83,2.11-.77-.09-1.41-.92-1.91-2a13.1,13.1,0,0,1-.65-1.92c-.51-2-1.53-3.4-1.75-4.83s3.79-.76,5.45,0S79.4,76.25,78.31,77.2Z" style="fill:none;stroke:#2b2b2b;stroke-miterlimit:10"/><path d="M70.13,94c-1.75.58-2.33,1.17-2.73,3.7s-1.94,2.43-3.88,2.34-.3-2.34.61-3.31.65-2.53,1.39-4.09S70.13,92,70.13,92C73,92.3,71.88,93.38,70.13,94Z" style="fill:#2b2b2b"/><path d="M45.22,105.09c-.59.43-2-.71-2.43-1.71S41.33,103,40,105.09s-2.14.06-3.6,1.64-2.92.76-3.5-.61,1.55-2.91,4.34-2.74,2.37-2.61,4.51-3.88,3.51,3.26,3.51,3.26C45.46,103.44,45.8,104.67,45.22,105.09Z" style="fill:#2b2b2b"/><path d="M65.84,111.85h0c-.79.87-.67,1.76-.32,3.24s-.94,3.34-2.77,2.4.37-2-1.06-4.37,2.44-2.49,2.44-2.49a3.64,3.64,0,0,1,1.2-.06h0C66.17,110.7,66.41,111.23,65.84,111.85Z" style="fill:#2b2b2b"/><path d="M81.81,108.18c-.22.32-.73,1.94-1.9,2.38s-1.9.5-1.9,1.75-1.23,1-1.89.92-1.76.68-2.12-.1a1.25,1.25,0,0,1,0-1.27c0-1.28,1.82-.35,2.26-1.22s.66-.88,1.71-1.12,1-1.15,1.18-2.47-.11-1.75,1.71-1.37S82,107.85,81.81,108.18Z" style="fill:#2b2b2b"/><path d="M130.37,87.49c-.77.88-3.75.44-4.62-.29s-4.38.29-5.3,1.08a4.76,4.76,0,0,1-3.24,1.27,5.72,5.72,0,0,1-.82,0c-2.07-.14-5.09-1-4.35-3.41s-.45-2-1.54-2.31-3.14-.41-4.25.63a7.7,7.7,0,0,1-3.85,1.45,20.15,20.15,0,0,1-2.34.23c-2.45.13-5.7-.38-5.55.93s.88,2.78-.73,4.67-.15,2.63,2.36,4.21.27,4.11-1.63,6.08-1,2.27-2.19,4.11a3.67,3.67,0,0,1-4.12,1.17,1.21,1.21,0,0,1-.7-.56c-.42-1,.88-2.74,2.13-3.35a1,1,0,0,0,.25-.16c1.06-.77,1.52-2.9,2.88-5,1.46-2.29-1.9-2.09-1.87-3.84s-2.07-3.79-.56-4.67,1.26-1.46.9-3.67-1.54-1.29-3-.93a10.77,10.77,0,0,0-3.36,1c-.73.54-2,.2-2.76-1s2.76-2.26,7-3.9,3.35-.7,5.39,1.51c1.38,1.48,3.2,1.24,5.2.74,1-.24,2-.55,3-.74,3.14-.62,3.94-.75,3.56-2.41-.18-.81,1.38-.71,3.34-.6h0c2,.12,4.49.25,5.87-.63,2.72-1.71,4.76,1.58,4.76,1.58.81,1-.47,1.75-1.91,2.06s-.31,2.61,1.26,1.79,4.42.68,7,0,3.58.13,5.37.64S131.15,86.61,130.37,87.49Z" style="fill:#2b2b2b"/><path d="M115.65,95c-.9-1-3.77-1.94-7-2.67-1.26-.29-1.84-.22-2.28.17-.67.6-1,2-2.88,3.88-3.1,3.15-4.09.58-4.77-1.38s2.81-2.32,4-4.45a3.8,3.8,0,0,1,2.09-1.47,19.2,19.2,0,0,1,4.88-.87c1.38-.11,1.32,1.64,1.63,2.57s2.42,1,4.34.92,3-.6,3.93,2.26S116.55,96,115.65,95Z" style="fill:#2b2b2b"/><path d="M165.72,95c.17,1.54-1,1.24-1.7,2.75s-1.53,4-4.45,4.83-5.79,1.87-6.74,1.32-3.2.36-4.55,2.44-5.35,2.08-6.14,1.3-1.55-2.62.74-2.72,3.74.24,5.06-1.49a4.77,4.77,0,0,1,4.12-2.07c1.67-.14,4.48,0,5.55-.73s2.93-.79,3.17-2.39.14-2.81,1.21-2.84c.85,0,1.56-2.28,1.81-3.22l.35.27.32.25.28.22.12.1,0,0a1.57,1.57,0,0,1,.19.15l0,0,.14.11.18.15c-1-4.24-9.93-7.89-7.45-7.45s9.2,6,9.2,6S165.56,93.41,165.72,95Z" style="fill:#2b2b2b"/><path d="M157.71,93.74c-.14,1.18-1.74,2.38-3.43,2.62a0,0,0,0,1,0,0l-.23,0c-.75.07-1.06.3-1.16.65-.19.64.28,1.66,0,2.84-.51,1.84-2.51.3-4,.79s-1.43.78-2.5.63-1.17-.14-1.09-2.09a1.09,1.09,0,0,1,.12-.48c.29-.55,1.15-.35,2-.21h0c.78.13,1.58.2,2-.37,1-1.34.72-1.76-.63-2.23s-3.13-.12-4.27-1.77-3.92-.58-4,1.31-1.36,1.7-3.52,2.41l-1.06.34c-1.14.39-1.26.51-1.69,1.29a15,15,0,0,0-1.48,3.87c-.36,1.53-2.57.31-3.83-.89s1.56-1.91,2.28-3.8a3.38,3.38,0,0,1,.85-1.21,10.56,10.56,0,0,1,4.9-2.12c2-.35,1.41-2.08.95-4.79s5.42-2,6.62-3.3,3.47.76,4.16,2.27,3.31,1.12,5.37.14S157.61,93,157.61,93A1.17,1.17,0,0,1,157.71,93.74Z" style="fill:#2b2b2b"/><path d="M137.89,87.08c-1.44-.06-1.29,1.82-2,3.49a6.12,6.12,0,0,1-3.1,3.08c-1.05.47-3.05.22-4.64,0-1.36-.19-.59,1.3-.68,2.53a2,2,0,0,1-.14.61c-.56,1.26-2.94,0-3.8-.39-.44-.2-.31-1,0-1.87a16.44,16.44,0,0,1,1.22-2.45c.79-1.3,3.69-.36,5.64-.36s3.12-1.85,3.65-4,1.12-2.74-.54-4.53S135,81.59,135,81.59c1.27-.11,3,1.57,3.56,2s1.8.57,2.1,1.67S139.32,87.15,137.89,87.08Z" style="fill:#2b2b2b"/><path d="M79.15,101.31c-1.64.1-2.45-.39-4.06.83s-2.92,0-3.19-2.45S76,98.88,77.61,97s3.47,1.18,3.47,1.18C82.15,99.44,80.79,101.21,79.15,101.31Z" style="fill:#2b2b2b"/><path d="M117.81,102c-1.37-.08-2-.65-3.72.6s-3.38.06-3.59-1.72,3.28-.7,5.15-1.61a3.62,3.62,0,0,1,3.59.41C120.62,101.1,119.18,102.09,117.81,102Z" style="fill:#2b2b2b"/><path d="M102.71,104.17c-2.07-.29-1.44.11-3.58,1.38s-2-.69-2.26-2.17,3.23-.85,4.37-1.37,3.63.49,3.63.49C106.92,103.94,104.77,104.47,102.71,104.17Z" style="fill:#2b2b2b"/><path d="M87.41,91.62a8.58,8.58,0,0,1-.61,1.43c-.33.67-.83,2.54-1.56,1.3s-2.78-1.1-3.23-1.9c-.29-.5-1.33-.55-2.22-.69a2.07,2.07,0,0,1-1.19-.4c-.63-.63,1.17-1.9,1.17-1.9,1.13-1.12,2.4-.29,3.18,0s1.12,1.34,3.31,1C87.52,90.18,87.62,90.87,87.41,91.62Z" style="fill:#2b2b2b"/></g></g></svg>