<svg xmlns="http://www.w3.org/2000/svg" viewBox="0 0 284.76 185.46"><title>diamond-tetra</title><g id="Layer_2" data-name="Layer 2"><g id="Ñëîé_2" data-name="Ñëîé 2"><path d="M24,111.27A10.26,10.26,0,0,1,13.69,101a10.43,10.43,0,0,1,.15-1.78,10.14,10.14,0,0,1,1.75-4.17,10.26,10.26,0,0,1,18.27,3.29,9.81,9.81,0,0,1,.33,2.18,3.85,3.85,0,0,1,0,.48A10.27,10.27,0,0,1,24,111.27Zm22.92-1.8c.27,4.5,0,8.89-3.32,12.3-2.34,2.38-6.33,4-9.29,1.77-3.31-2.54,4.07-3.82,6.38-12s-4.34-18.08-2.29-18,3.47,3,4.57,4C46,100.22,46.63,105.7,46.87,109.47ZM105.14,78c-41.85,8.4-59.67,14.77-69.86,11.46-5.76-1.88-10.37-4.23-15.09-5.1-.25.19-.48.37-.7.51-2.42,1.66-7.13,2.42-12.86,5.73S2,98.2,4,99.86s1.15,2-.88,1.78S.26,101.77,0,104.7s4.71,7.64,4.71,7.64c13.05,12.59,20.13,12.63,33.63,18.8,0,0,15-7.85,11.95-19.82S45,90.26,49,95.69s14.26,27.09-5.85,37.78a57.65,57.65,0,0,0,21.05,6c1.58.18,3.22.32,4.92.44h0c3.55.24,7.42.36,11.7.4,3.68.05,7.67.05,12,0h3.27c4.75,0,9.94-.05,15.64,0h5.73a109.43,109.43,0,0,0,14.38-.84H132c44.4-6.45,51-35.57,66-43.43s24.08,3.85,24.08,3.85a26.85,26.85,0,0,0,3.24-9.18S147,69.55,105.14,78Z" style="fill:#85909c"/><path d="M43.18,133.47c-1.71-.87-3.3-1.64-4.83-2.33,0,0,15-7.85,11.95-19.82S45,90.26,49,95.69,63.29,122.78,43.18,133.47Z" style="fill:#757f89"/><path d="M223.36,73.88a19.78,19.78,0,0,0-1.54-2.43c-3.59.94-7.56.71-12.6-.29-1.51-.29-3.12-.67-4.84-1.1-3.61-.91-8.5-2.89-15.23-5.46h0a324.67,324.67,0,0,0-39.07-12.36l-3.1-.76L144.7,51c-8.13-1.9-17.22-3.71-27.42-5.35a107.45,107.45,0,0,0-12.14-1.26c-1.3-.06-2.59-.1-3.84-.1-41.81-.37-62.71,25.81-62.71,25.81-1.44,1.62-4.2,2.55-8.15,5.48-3.6,2.67-7.72,6.82-10.25,8.78,4.72.87,9.33,3.22,15.09,5.1,10.19,3.31,28-3.06,69.86-11.46S225.29,90.74,225.29,90.74c.19-1,.35-2,.48-3.11A22.75,22.75,0,0,0,223.36,73.88Zm-96.87-6.1c-9.83-.63-19.72-1.84-29.58-1.12S77.2,69.83,67.52,72.19c-1.78.44-8.32,3-10.07,1.71s1.87-3.81,3-4.76c9.42-7.63,23.71-9,35.34-9.79,6.74-.46,13.57-.6,20.44-.46a278.52,278.52,0,0,1,63.83,9.2c4.86,1.28,9.83,2.8,13.64,6.07C171.34,71.79,149,69.23,126.49,67.78Z" style="fill:#949faa"/><path d="M259.45,82.29c-5.54,5.73-8.6,8.86-5.16,13.4s5.73,16.39,8,18.68,1,3.44,3.25,4.59-.38,4.39,2.48,7.07c2.7,2.52,11.23,17.41,1,21.69-10-7.05-30.12-26.32-36.89-33.09-.52-.52-1-1-1.51-1.55a0,0,0,0,0,0,0c-.36-3.12.45-5.19,4.38-2.89,9.17,5.35,32.85,28.84,28.26,19.29s-42-31.32-30.55-27.88,25.21,17.57,23.11,12.22S235,99.29,233.28,95.69s9.55,4,16.05,5.51-5.35-4-12.61-8,4-2.67,9.93-1.91-3.82-3.43-9.17-5.41,6.31-1.46,13.76-3.56S240.35,81.14,235,80.76s-.19-2.68-.19-2.68c19.67-5.15,31.51-13.75,17-8.21s-24.83,6.3-13.56,1.29S268,52.87,262.12,55.74c-3.6,1.75-17.21,8.1-27.29,12.79l-.06,0c-.55.23-4.57,1.73-5.22-1.25,7.74-5.3,30-15.13,44.61-23.07a34.21,34.21,0,0,1,6.49-2.9,66.05,66.05,0,0,1-3.82,15.16c-3.44,8.41-.76,8.41-3.44,12S265,76.56,259.45,82.29Z" style="fill:#768899"/><path d="M234.77,68.56c-6.43,3-11.41,5.32-11.41,5.32a19.78,19.78,0,0,0-1.54-2.43A18.71,18.71,0,0,0,228.57,68c.3-.23.62-.46,1-.71C230.2,70.29,234.22,68.79,234.77,68.56Z" style="fill:#85909c"/><path d="M235,110.17c-3.93-2.3-4.74-.23-4.38,2.89-3.89-4.19-6.74-8.37-9.86-11.34a12.66,12.66,0,0,0,1.29-1.8,26.85,26.85,0,0,0,3.24-9.18c.19-1,.35-2,.48-3.11a22.75,22.75,0,0,0-2.41-13.75s5-2.31,11.41-5.32l.06,0c10.08-4.69,23.69-11,27.29-12.79,5.92-2.87-12.6,10.41-23.87,15.42s-1,4.25,13.56-1.29,2.67,3.06-17,8.21c0,0-5.16,2.3.19,2.68s23.68-.57,16.24,1.53-19.1,1.59-13.76,3.56,15.09,6.18,9.17,5.41-17.19-2.1-9.93,1.91,19.1,9.55,12.61,8-17.77-9.1-16.05-5.51,20.44,12.76,22.54,18.11-11.65-8.78-23.11-12.22,26,18.33,30.55,27.88S244.17,115.52,235,110.17Z" style="fill:#9db3c6"/><path d="M222.05,99.92a12.66,12.66,0,0,1-1.29,1.8A16.73,16.73,0,0,0,217,98.94a11.57,11.57,0,0,0-5.26-1.39,20,20,0,0,0-4.68.39h0c-5.54,1.21-9.13,5.2-16.44,12.1s-22.56,21.76-48.91,27.75c-1,.24-2.1.46-3.17.67q-3.2.61-6.58,1c44.4-6.45,51-35.57,66-43.43S222.05,99.92,222.05,99.92Z" style="fill:#757f89"/><path d="M282.81,51.22c-1.27,5.6-3.56,7.38-3.82,11.71A15.31,15.31,0,0,1,275.17,72c-1.53,1.84-2.79,2.86-7.89,7.19s-15,10.92-9.42,18.32,8.66,15,8.91,17.34,4.84,1,4.08,5.09,3,9.93,4.58,14.77,4.07,16.81-1.79,15.53a16.12,16.12,0,0,1-4.61-2.56c10.24-4.28,1.71-19.17-1-21.69-2.86-2.68-.19-5.93-2.48-7.07s-.95-2.29-3.25-4.59-4.58-14.13-8-18.68-.38-7.67,5.16-13.4,11.27-10.13,13.94-13.76,0-3.62,3.44-12a66.05,66.05,0,0,0,3.82-15.16C287.6,39.37,283.85,46.65,282.81,51.22Z" style="fill:#d0e8f7"/><path d="M205.4,8.59c-3.63.16-4.21,3.41-2.87,3.6s-3.82,2.48-8.21,3.06-11.08.19-16.43,3.63-11.65,6.49-10.69,10.88-2.3,5.54-1.53,8.21-2.09,1.91-5.44,5S152.7,51.62,147,51.48L144.7,51c.81-6.32,18.48-15.66,11.61-14.51s-24.64,17.95-17.76,7.9,34.43-19,22.72-17.29-33.34,20.4-17.53,4.8S204.63,13,187.25,13.15,142.37,25.94,137.59,30s-2.67-.57-2.67-.57c21-23.11,90.34-21,51.38-21.58S122.12,38,131.48,26.12s37.43-18.51,20.44-14.88-46.78,33.11-46.78,33.11c-1.3-.06-2.59-.1-3.84-.1,0,0,11.08-25.37,39.92-35.31,1.6-.55,3.21-1.07,4.81-1.56.17.74.87,1.34,2.83,1.18,4.58-.38,34.38-5.73,45.08-5.92s3.28,1.56,6.13,3S209,8.42,205.4,8.59Z" style="fill:#768899"/><path d="M210.93,11.62c4.4-.58-1,1.33-6.87,3.63s-12.61.76-11.46,2.48,1.72.95-7.64,2.48-15.47,6.88-14.52,10.32,2.49,6.49-.19,7.25,1.53,2.87-2.67,4.21-4.4,2.67-6.31,5.15-5.6,4.85-11.2,5.1l-3.1-.76c5.73.14,9.91-5.48,13.26-8.54s6.2-2.29,5.44-5,2.48-3.82,1.53-8.21,5.34-7.45,10.69-10.88,12-3.06,16.43-3.63,9.55-2.87,8.21-3.06-.76-3.44,2.87-3.6-2.49-1.56-5.33-3,4.56-3.16-6.13-3-40.5,5.54-45.08,5.92c-2,.16-2.66-.44-2.83-1.18,27.3-8.4,54.59-8.58,64.33-5.69,10.32,3.05,3.44,1.91-4,2.48s1.72,1.72,7.83,1.91,8.41,2.86-3.82,3.25S206.54,12.19,210.93,11.62Z" style="fill:#d0e8f7"/><path d="M203.49,115c-9.55-2.49-10.89.76-3.42,3.44s10.1,3.43,8.08,5-10.59-2.67-16.32-3,9.75,5.15,15.09,8.59-8-1.91-15.85-4-5.16.19,3.82,5.35,1.34,3.24-8.21-.58-9.74-.76.57,4.78,15.66,9.55,10.51,7.83-16.24-5.92-19.68-8.4-2.67,2.1,4.4,7.64,1.14,4.39-2.46,2.29-10.72-9.36-10.15-5.32,15.85,14.3,21.41,19.83-2.69,1-15.68-8.6-14.71-11.83-9.74-2.66,39.54,21.83,18.91,15.86-39.48-35.28-31.84-19.49,26.49,20.62,32.6,24.44,0,2.55,0,2.55c-28.27-7.38-43.81-32.61-43.81-32.61,26.35-6,41.71-20.94,48.91-27.75s10.9-10.89,16.44-12.1h0c5.68,3.62,4.24,6.12.8,5.23s-4.2,1.46.57,3.76,1.72,2.29-4.2,1.14-1.72,1.15,4.56,4.59S213,117.43,203.49,115Z" style="fill:#9db3c6"/><path d="M211.76,129.46c-.28,1.62-.63,3.17-1,4.74l-.63-.15c-5.54-1.34-12.61-1.72-7.64,0a69.37,69.37,0,0,1,7.7,3.07c-.18,1-.33,2.1-.44,3.23a34.11,34.11,0,0,1-2,7.38c-1.86-.4-4.64-1.24-8.67-2.41-9.17-2.68-5.35-1.53,4,2.29,1.73.7,3,1.27,4.05,1.73a19.91,19.91,0,0,0-.8,2.28,14.58,14.58,0,0,1-1.79,2.75c-1.57-.63-3.66-1.53-6.42-2.75-13.75-6.11-15.47-6.11-2.49.95,3.38,1.84,5.72,3.16,7.29,4.18-1.47,2.33-2.86,5.11-2.87,7.67,0,2.83.79,5.5.54,7.42-4.92-2.57-15.39-6.42-8.2-2.08a62.22,62.22,0,0,0,7.39,3.89c-.65.65-1.76,1-3.57,1.08-6.69.19-32.78,1.91-52.49-26.36a75.65,75.65,0,0,1-5.19-9.91c1.07-.21,2.13-.43,3.17-.67,0,0,15.54,25.23,43.81,32.61,0,0,6.11,1.27,0-2.55s-25-8.65-32.6-24.44,11.21,13.53,31.84,19.49-14-6.7-18.91-15.86-3.25-6.9,9.74,2.66,21.22,14.14,15.68,8.6-20.84-15.79-21.41-19.83,6.55,3.22,10.15,5.32,9.52,3.25,2.46-2.29-7.84-10.13-4.4-7.64,14.52,6.68,19.68,8.4-.2-2.29-10.51-7.83-10.12-8.6-.57-4.78,17.19,5.73,8.21.58-11.65-7.45-3.82-5.35,21.2,7.45,15.85,4-20.82-9-15.09-8.59,14.31,4.58,16.32,3-.62-2.29-8.08-5-6.13-5.93,3.42-3.44,11.59,1.14,5.32-2.29-10.48-5.73-4.56-4.59,9,1.15,4.2-1.14-4-4.65-.57-3.76,4.88-1.61-.8-5.23a20,20,0,0,1,4.68-.39,16.73,16.73,0,0,1,3.19,7.66c1,5.15,1,10.88,1.33,15.09S212.4,125.83,211.76,129.46Z" style="fill:#768899"/><path d="M219.16,122.78c0,5.16-2.11,5.16-4.21,8.78s.54,3.8-4.15,2.64c.33-1.57.68-3.12,1-4.74.64-3.63,4.9-5,4.52-9.16s-.38-9.94-1.33-15.09a16.73,16.73,0,0,0-3.19-7.66A11.57,11.57,0,0,1,217,98.94s1,3.59.6,5.5S219.15,117.62,219.16,122.78Z" style="fill:#d0e8f7"/><path d="M213.23,139.78a33.75,33.75,0,0,0-2.1,7.06c-.11,1.18-1,1.4-3.37.89a34.11,34.11,0,0,0,2-7.38c.11-1.13.26-2.2.44-3.23C212.2,138.1,213.5,139,213.23,139.78Z" style="fill:#d0e8f7"/><path d="M204.56,154.37a14.58,14.58,0,0,0,1.79-2.75,19.91,19.91,0,0,1,.8-2.28c4.4,2,2.57,2.13,2.26,4S210.87,156.88,204.56,154.37Z" style="fill:#d0e8f7"/><path d="M203.72,162.51c-2.64,3.43-1.19,3.05-1.41,7.06a6,6,0,0,0,1.37,4.28c-.12-.1-.52-.43-1.37-1a15.75,15.75,0,0,0-1.7-1c.25-1.92-.55-4.59-.54-7.42,0-2.56,1.4-5.34,2.87-7.67C207.43,159.61,205.66,160,203.72,162.51Z" style="fill:#d0e8f7"/><path d="M179.61,175.88C162,173.54,150,158.65,143.74,148.37c19.71,28.27,45.8,26.55,52.49,26.36,1.81,0,2.92-.43,3.57-1.08,2,.92,2.57,1.13,2.35,2.23C201.77,177.79,206.92,179.51,179.61,175.88Z" style="fill:#d0e8f7"/><path d="M137.63,181.55c-6.69-3.54-13-9.63-12.26-7,.87,3,5.9,4.82,10.69,7.9a14.32,14.32,0,0,1-3.79,1.15c-27.48-10.34-39.37-43.21-39.37-43.21h3.27c.59,1,13.12,23,19.84,28.06s-1-5.16-4.2-9.74-4.4-10.13,3,0,12.23,13.47,18.72,17-7.83-6.9-12.42-13.57,2.6-.19,5.61,2.11,5.4,2.1,0-3.44-3.5-4.08,3.37-.9,11.27,3.69,5.92,0S121.71,153.77,120,144c2.85,1.45,5.49,3.08,6.13,4.36,1.53,3.06,4.2,3.44,8.21,5.92s6.31,2.49,5.92,6.69a23,23,0,0,0,.18,6.9c-3.9-1.58-10.2-4.45-4.95-1.74a46.72,46.72,0,0,1,5.21,3c.19.82.42,1.71.71,2.74A8.76,8.76,0,0,1,137.63,181.55Z" style="fill:#768899"/><path d="M142.38,168.62c-.47-.16-1.16-.43-1.94-.74a23,23,0,0,1-.18-6.9c.39-4.2-1.91-4.2-5.92-6.69s-6.68-2.86-8.21-5.92c-.64-1.28-3.28-2.91-6.13-4.36h0c-3.79-1.95-8-3.58-8.19-3.66h5.73s11.07,4.2,11.26,7.07,5.54,3.24,9,5.92,5.54,8,4.6,10.69S145.23,169.57,142.38,168.62Z" style="fill:#d0e8f7"/><path d="M142.38,183.52a22.28,22.28,0,0,1-4.75-2,8.76,8.76,0,0,0,3.78-9.68c-.29-1-.52-1.92-.71-2.74a6.55,6.55,0,0,1,3.19,4.65c.58,3.05,1,2.67-1.51,5.73S150.39,185.62,142.38,183.52Z" style="fill:#d0e8f7"/><path d="M136.06,184.85c-1.29-.36-2.56-.78-3.79-1.26a14.32,14.32,0,0,0,3.79-1.15c.45.28.9.58,1.34.89C142.56,187,136.06,184.85,136.06,184.85Z" style="fill:#d0e8f7"/><path d="M209.22,71.16c-1.51-.29-3.12-.67-4.84-1.1-3.61-.91-8.5-2.89-15.23-5.46.35-.17,9.67-4.58,12.17-3.71s6.5.13,7.9,2.68S212.4,68.06,209.22,71.16Z" style="fill:#9db3c6"/><path d="M92.9,158.69c-14.9-4.21-28.67-19.18-28.67-19.18,1.58.18,3.22.32,4.92.44h0A49.45,49.45,0,0,0,92.23,156.7C97.55,159.39,101.86,161.22,92.9,158.69Z" style="fill:#9db3c6"/><path d="M92.23,156.7A49.45,49.45,0,0,1,69.16,140c3.55.24,7.42.36,11.7.4C83,148,94.64,154.91,89.27,152.77c-5.73-2.3-7.45-5.35-5.35-1.53C84.76,152.76,88.72,154.92,92.23,156.7Z" style="fill:#768899"/><path d="M143.74,31.86c-15.81,15.6,5.83-3.1,17.53-4.8s-15.84,7.24-22.72,17.29,10.88-6.76,17.76-7.9S145.51,44.64,144.7,51c-8.13-1.9-17.22-3.71-27.42-5.35a107.45,107.45,0,0,0-12.14-1.26s29.78-29.49,46.78-33.11-11.08,3-20.44,14.88S147.33,7.22,186.3,7.8s-30.37-1.53-51.38,21.58c0,0-2.1,4.58,2.67.57s32.28-16.61,49.66-16.8S159.55,16.27,143.74,31.86Z" style="fill:#9db3c6"/><path d="M130.14,159.89c-6.87-3.18-8.78-4.64-3.37.9s3,5.73,0,3.44-10.19-8.79-5.61-2.11,18.91,17.09,12.42,13.57-11.27-6.88-18.72-17-6.3-4.59-3,0,11.07,14.89,4.2,9.74-19.25-27-19.84-28.06c4.75,0,9.94-.05,15.64,0,.23.08,4.4,1.71,8.19,3.66h0c1.71,9.76,10.71,12.19,16.06,15.88S137,163.08,130.14,159.89Z" style="fill:#9db3c6"/><path d="M193.74,74.16c-22.4-2.37-44.77-4.93-67.25-6.38-9.83-.63-19.72-1.84-29.58-1.12S77.2,69.83,67.52,72.19c-1.78.44-8.32,3-10.07,1.71s1.87-3.81,3-4.76c9.42-7.63,23.71-9,35.34-9.79,6.74-.46,13.57-.6,20.44-.46a278.52,278.52,0,0,1,63.83,9.2C185,69.37,189.93,70.89,193.74,74.16Z" style="fill:#a2afba"/><path d="M43.55,121.77c-2.34,2.38-6.33,4-9.29,1.77-3.31-2.54,4.07-3.82,6.38-12s-4.34-18.08-2.29-18,3.47,3,4.57,4c3,2.67,3.71,8.15,3.95,11.92C47.14,114,46.9,118.36,43.55,121.77Z" style="fill:#a2afba"/><path d="M33.86,98.34c-.79.67-3.51,0-4.38-1.35s-3.33-1.52-4.39-2.91-3.44.24-5.6.81a11.15,11.15,0,0,1-3.9.16,10.26,10.26,0,0,1,18.27,3.29Z" style="fill:#c8531c"/><circle cx="23.95" cy="101" r="4.45" style="fill:#2b2b2b"/><path d="M34.21,101a10.26,10.26,0,1,1-20.52,0,10.43,10.43,0,0,1,.15-1.78C16.77,96,19,97,17.93,98.94s1.72,6.56.48,6.52-1.63.89-1.25,2,3.35,2.29,4.49,1-1.14.39,5.35-.76,3.44-7.74,4.3-7.93a7.51,7.51,0,0,1,2.89.66A3.85,3.85,0,0,1,34.21,101Z" style="fill:#5e6c77"/><path d="M33.86,98.34c-.79.67-3.51,0-4.38-1.35s-3.33-1.52-4.39-2.91-3.44.24-5.6.81a11.15,11.15,0,0,1-3.9.16,10.14,10.14,0,0,0-1.75,4.17C16.77,96,19,97,17.93,98.94s1.72,6.56.48,6.52-1.63.89-1.25,2,3.35,2.29,4.49,1-1.14.39,5.35-.76,3.44-7.74,4.3-7.93a7.51,7.51,0,0,1,2.89.66A9.81,9.81,0,0,0,33.86,98.34ZM24,105.46A4.46,4.46,0,1,1,28.4,101,4.46,4.46,0,0,1,24,105.46Z" style="fill:#eae3dd"/><path d="M76.15,68.85a2.05,2.05,0,1,1-2-2.31A2.18,2.18,0,0,1,76.15,68.85Z" style="fill:#d7edf9"/><path d="M83.28,65.54a2,2,0,1,1-2-2A2,2,0,0,1,83.28,65.54Z" style="fill:#d7edf9"/><ellipse cx="91.02" cy="61.21" rx="1.88" ry="2.37" style="fill:#d7edf9"/><path d="M107,60.61c0,.94-.41,1.7-.92,1.7s-.91-.76-.91-1.7.41-1.7.91-1.7S107,59.68,107,60.61Z" style="fill:#d7edf9"/><ellipse cx="97.11" cy="54.24" rx="0.97" ry="1.1" style="fill:#d7edf9"/><path d="M87.45,56.61c0,.71-.36,1.28-.81,1.28s-.81-.57-.81-1.28.36-1.27.81-1.27S87.45,55.91,87.45,56.61Z" style="fill:#d7edf9"/><path d="M100.35,67.2a1.62,1.62,0,1,1-1.62-1.66A1.64,1.64,0,0,1,100.35,67.2Z" style="fill:#d7edf9"/><path d="M113.33,70a1.1,1.1,0,1,1-1.09-1.16A1.12,1.12,0,0,1,113.33,70Z" style="fill:#d7edf9"/><ellipse cx="117.82" cy="64" rx="1.15" ry="1.05" style="fill:#d7edf9"/><path d="M122.5,57.36c0,.82-.49,1.48-1.1,1.48s-1.09-.66-1.09-1.48.49-1.48,1.09-1.48S122.5,56.54,122.5,57.36Z" style="fill:#d7edf9"/><path d="M113.72,56.88c0,1.08-.58,2-1.29,2s-1.29-.88-1.29-2,.57-2,1.29-2S113.72,55.8,113.72,56.88Z" style="fill:#d7edf9"/><ellipse cx="105.66" cy="72.71" rx="1.31" ry="1.54" style="fill:#d7edf9"/><ellipse cx="87.49" cy="74.13" rx="1.66" ry="1.42" style="fill:#d7edf9"/><path d="M72.94,76.36c0,.45-.28.82-.62.82s-.62-.37-.62-.82a.64.64,0,1,1,1.24,0Z" style="fill:#d7edf9"/><path d="M80.2,72.54a.78.78,0,1,1-1.53,0,.78.78,0,1,1,1.53,0Z" style="fill:#d7edf9"/><ellipse cx="63.39" cy="61.24" rx="1.34" ry="1.07" style="fill:#d7edf9"/><ellipse cx="71.19" cy="57.13" rx="1.12" ry="1.79" style="fill:#d7edf9"/><path d="M63.39,72.74a1.15,1.15,0,1,1-1.15-1.1A1.13,1.13,0,0,1,63.39,72.74Z" style="fill:#d7edf9"/><path d="M92.51,69.68a1.43,1.43,0,1,1-1.43-1.48A1.45,1.45,0,0,1,92.51,69.68Z" style="fill:#d7edf9"/><path d="M107.79,52.86a1.1,1.1,0,1,1-1.06-1.37A1.25,1.25,0,0,1,107.79,52.86Z" style="fill:#d7edf9"/><path d="M127.64,72.36a1.74,1.74,0,1,1-1.74-1.76A1.75,1.75,0,0,1,127.64,72.36Z" style="fill:#d7edf9"/><path d="M132,65.66A1.68,1.68,0,1,1,130.29,64,1.66,1.66,0,0,1,132,65.66Z" style="fill:#d7edf9"/><path d="M141.09,57.76c0,1-.57,1.88-1.27,1.88s-1.27-.84-1.27-1.88.57-1.88,1.27-1.88S141.09,56.72,141.09,57.76Z" style="fill:#d7edf9"/><path d="M149.11,68.85a1.84,1.84,0,1,1-1.78-2.31A2.09,2.09,0,0,1,149.11,68.85Z" style="fill:#d7edf9"/><path d="M133.45,54.06a1.6,1.6,0,1,1-1.58-1.82A1.72,1.72,0,0,1,133.45,54.06Z" style="fill:#d7edf9"/><path d="M152.93,62.18a1.28,1.28,0,1,1-1.27-1.4A1.34,1.34,0,0,1,152.93,62.18Z" style="fill:#d7edf9"/><path d="M139.18,65.6c0,.88-.45,1.6-1,1.6s-1-.72-1-1.6.45-1.6,1-1.6S139.18,64.71,139.18,65.6Z" style="fill:#d7edf9"/><path d="M143.46,73.4a.87.87,0,1,1-.87-.86A.86.86,0,0,1,143.46,73.4Z" style="fill:#d7edf9"/><path d="M193,81.28c0,.71-.87,1.28-1.94,1.28s-1.95-.57-1.95-1.28S190,80,191.1,80,193,80.58,193,81.28Z" style="fill:#d7edf9"/><path d="M178.66,74.26a1.48,1.48,0,1,1-1.47-1.72A1.61,1.61,0,0,1,178.66,74.26Z" style="fill:#d7edf9"/><path d="M165.92,70.25c0,.76-.45,1.39-1,1.39s-1-.63-1-1.39.45-1.4,1-1.4S165.92,69.48,165.92,70.25Z" style="fill:#d7edf9"/><path d="M158.79,73.31a.89.89,0,1,1-.89-1A.92.92,0,0,1,158.79,73.31Z" style="fill:#d7edf9"/><path d="M179.93,64.78c0,.66-.29,1.19-.64,1.19s-.63-.53-.63-1.19.28-1.2.63-1.2S179.93,64.12,179.93,64.78Z" style="fill:#d7edf9"/><path d="M205.76,78.59A1.76,1.76,0,1,1,204,77.18,1.6,1.6,0,0,1,205.76,78.59Z" style="fill:#d7edf9"/><path d="M223.73,78.19a2.34,2.34,0,1,1-2.28-1.83A2.09,2.09,0,0,1,223.73,78.19Z" style="fill:#d7edf9"/><ellipse cx="226.64" cy="74.34" rx="1.66" ry="1.21" style="fill:#d7edf9"/><path d="M234.77,80.19c0,.89-.33,1.6-.74,1.6s-.75-.71-.75-1.6.34-1.6.75-1.6S234.77,79.31,234.77,80.19Z" style="fill:#d7edf9"/><path d="M236.59,72.24c0,.59-.74,1.07-1.65,1.07s-1.66-.48-1.66-1.07.74-1.08,1.66-1.08S236.59,71.64,236.59,72.24Z" style="fill:#d7edf9"/><path d="M231.37,71c0,.71-.41,1.28-.91,1.28s-.91-.57-.91-1.28.41-1.28.91-1.28S231.37,70.25,231.37,71Z" style="fill:#d7edf9"/><ellipse cx="229.38" cy="89.07" rx="1.08" ry="1.67" style="fill:#d7edf9"/><path d="M242.3,81.28A1.54,1.54,0,1,1,240.78,80,1.41,1.41,0,0,1,242.3,81.28Z" style="fill:#d7edf9"/><path d="M226.64,84.53a1.14,1.14,0,1,1-1.14-1.21A1.18,1.18,0,0,1,226.64,84.53Z" style="fill:#d7edf9"/><ellipse cx="234.49" cy="99.48" rx="1.21" ry="1.54" style="fill:#d7edf9"/><path d="M225,95a1.58,1.58,0,1,1-1.58-1.61A1.59,1.59,0,0,1,225,95Z" style="fill:#d7edf9"/><ellipse cx="218.83" cy="86.63" rx="0.95" ry="1.53" style="fill:#d7edf9"/><ellipse cx="218.45" cy="93.66" rx="1.34" ry="1.3" style="fill:#d7edf9"/><path d="M229.55,103.76c0,.88-.5,1.59-1.12,1.59s-1.13-.71-1.13-1.59.5-1.59,1.13-1.59S229.55,102.88,229.55,103.76Z" style="fill:#d7edf9"/><circle cx="229.44" cy="95.55" r="1.02" style="fill:#d7edf9"/><path d="M239.27,90.72a1.79,1.79,0,1,1-1.79-1.65A1.72,1.72,0,0,1,239.27,90.72Z" style="fill:#d7edf9"/><path d="M235.7,113.56c0,.81-.37,1.47-.84,1.47s-.83-.66-.83-1.47.37-1.46.83-1.46S235.7,112.75,235.7,113.56Z" style="fill:#d7edf9"/><path d="M236.59,107.77a1.68,1.68,0,1,1-1.65-1.4A1.54,1.54,0,0,1,236.59,107.77Z" style="fill:#d7edf9"/><path d="M245.89,95.11a1.23,1.23,0,1,1-1.21-1.45A1.35,1.35,0,0,1,245.89,95.11Z" style="fill:#d7edf9"/><ellipse cx="242.38" cy="120.76" rx="1.6" ry="1.91" style="fill:#d7edf9"/><path d="M245.14,65.61a1.75,1.75,0,1,1-1.73-2A1.89,1.89,0,0,1,245.14,65.61Z" style="fill:#d7edf9"/><path d="M200.07,64.6a1.28,1.28,0,0,1-2.51,0,1.28,1.28,0,0,1,2.51,0Z" style="fill:#d7edf9"/><path d="M208.45,65.66a.73.73,0,1,1-.71-.88A.81.81,0,0,1,208.45,65.66Z" style="fill:#d7edf9"/><path d="M35.79,81.73a1.7,1.7,0,0,1-1.47,1.85,1.9,1.9,0,0,1,0-3.7A1.7,1.7,0,0,1,35.79,81.73Z" style="fill:#d7edf9"/><path d="M43.43,77.55c0,.66-.73,1.19-1.62,1.19s-1.63-.53-1.63-1.19.73-1.19,1.63-1.19S43.43,76.9,43.43,77.55Z" style="fill:#d7edf9"/><path d="M51.32,68.59a1,1,0,1,1-1-1.1A1.05,1.05,0,0,1,51.32,68.59Z" style="fill:#d7edf9"/><path d="M48.39,87.2c0,.53-.72,1-1.62,1s-1.62-.43-1.62-1,.72-1,1.62-1S48.39,86.68,48.39,87.2Z" style="fill:#d7edf9"/><path d="M67.49,83.8a2.7,2.7,0,1,1-2.62-2.07A2.39,2.39,0,0,1,67.49,83.8Z" style="fill:#d7edf9"/><path d="M56.93,79.64a1.89,1.89,0,1,1-1.88-2.09A2,2,0,0,1,56.93,79.64Z" style="fill:#d7edf9"/><path d="M79.43,84.4a1.65,1.65,0,1,1-1.64-1.84A1.75,1.75,0,0,1,79.43,84.4Z" style="fill:#d7edf9"/><path d="M97.11,88.5a2.45,2.45,0,1,1-2.44-2.25A2.34,2.34,0,0,1,97.11,88.5Z" style="fill:#d7edf9"/><path d="M111.14,87.37c0,.62-.75,1.13-1.67,1.13s-1.68-.51-1.68-1.13.75-1.12,1.68-1.12S111.14,86.75,111.14,87.37Z" style="fill:#d7edf9"/><ellipse cx="123.65" cy="81.79" rx="2.25" ry="1.78" style="fill:#d7edf9"/><path d="M100.35,78.19c0,1-.51,1.82-1.14,1.82s-1.14-.82-1.14-1.82.51-1.83,1.14-1.83S100.35,77.18,100.35,78.19Z" style="fill:#d7edf9"/><path d="M82.2,98.54a2.22,2.22,0,1,1-2.2-2A2.11,2.11,0,0,1,82.2,98.54Z" style="fill:#d7edf9"/><path d="M67.49,111.86c0,1.06-1.17,1.92-2.62,1.92s-2.63-.86-2.63-1.92,1.18-1.93,2.63-1.93S67.49,110.79,67.49,111.86Z" style="fill:#d7edf9"/><path d="M30.63,118.24a.69.69,0,1,1-.67-.86A.78.78,0,0,1,30.63,118.24Z" style="fill:#d7edf9"/><ellipse cx="35.44" cy="111.46" rx="1.59" ry="1.15" style="fill:#d7edf9"/><path d="M45.15,93.18a1.39,1.39,0,1,1-1.39-1.49A1.44,1.44,0,0,1,45.15,93.18Z" style="fill:#d7edf9"/><path d="M33.86,91.21A1.19,1.19,0,1,1,32.67,90,1.22,1.22,0,0,1,33.86,91.21Z" style="fill:#d7edf9"/><path d="M27.67,86.44a1.61,1.61,0,0,1-1.47,1.72,1.74,1.74,0,0,1,0-3.44A1.61,1.61,0,0,1,27.67,86.44Z" style="fill:#d7edf9"/><path d="M56.61,98.26c0,.62-.35,1.13-.78,1.13s-.78-.51-.78-1.13.35-1.12.78-1.12S56.61,97.64,56.61,98.26Z" style="fill:#d7edf9"/><ellipse cx="48.6" cy="114.52" rx="0.68" ry="1.24" style="fill:#d7edf9"/><path d="M59,105.44c0,1-.53,1.72-1.19,1.72s-1.19-.77-1.19-1.72.53-1.71,1.19-1.71S59,104.5,59,105.44Z" style="fill:#d7edf9"/><path d="M68.26,97.41a1.77,1.77,0,1,1-1.77-1.9A1.83,1.83,0,0,1,68.26,97.41Z" style="fill:#d7edf9"/><path d="M81.25,109.21c0,1.14-.58,2.06-1.29,2.06s-1.29-.92-1.29-2.06.57-2,1.29-2S81.25,108.08,81.25,109.21Z" style="fill:#d7edf9"/><path d="M91.08,101a1,1,0,1,1-1-1.15A1.07,1.07,0,0,1,91.08,101Z" style="fill:#d7edf9"/><path d="M141.72,87c0,.67-.8,1.21-1.78,1.21s-1.78-.54-1.78-1.21.8-1.21,1.78-1.21S141.72,86.28,141.72,87Z" style="fill:#d7edf9"/><ellipse cx="160.51" cy="86.8" rx="1.72" ry="1.7" style="fill:#d7edf9"/><path d="M179.29,89a1.82,1.82,0,1,1-1.78-2.21A2,2,0,0,1,179.29,89Z" style="fill:#d7edf9"/><path d="M163.89,61.21a2.09,2.09,0,1,1-2.07-2.37A2.24,2.24,0,0,1,163.89,61.21Z" style="fill:#d7edf9"/><path d="M83.28,51.55A1.54,1.54,0,1,1,81.74,50,1.56,1.56,0,0,1,83.28,51.55Z" style="fill:#d7edf9"/><path d="M151.55,83.45c0,.91-.54,1.65-1.22,1.65s-1.22-.74-1.22-1.65.55-1.66,1.22-1.66S151.55,82.53,151.55,83.45Z" style="fill:#d7edf9"/><ellipse cx="133.73" cy="81.61" rx="1.76" ry="1.97" style="fill:#d7edf9"/><ellipse cx="125.9" cy="94.87" rx="1.74" ry="1.69" style="fill:#d7edf9"/><path d="M114.86,102.6c0,.89-1.21,1.6-2.7,1.6s-2.69-.71-2.69-1.6,1.2-1.6,2.69-1.6S114.86,101.72,114.86,102.6Z" style="fill:#d7edf9"/><path d="M100.35,114.39a1.63,1.63,0,1,1-1.62-1.78A1.71,1.71,0,0,1,100.35,114.39Z" style="fill:#d7edf9"/><path d="M80.7,124.42a2.35,2.35,0,1,1-2.28-1.75A2.07,2.07,0,0,1,80.7,124.42Z" style="fill:#d7edf9"/><path d="M89.65,113.56a1.51,1.51,0,1,1-1.5-1.46A1.49,1.49,0,0,1,89.65,113.56Z" style="fill:#d7edf9"/><path d="M103.59,99.27a2.25,2.25,0,1,1-2.19-1.73A2,2,0,0,1,103.59,99.27Z" style="fill:#d7edf9"/><ellipse cx="189.46" cy="92.03" rx="1.64" ry="2.05" style="fill:#d7edf9"/><path d="M163.89,111.27a1.74,1.74,0,1,1-1.69-1.34A1.55,1.55,0,0,1,163.89,111.27Z" style="fill:#d7edf9"/><path d="M141.09,103.18a1.3,1.3,0,1,1-1.27-1A1.16,1.16,0,0,1,141.09,103.18Z" style="fill:#d7edf9"/><ellipse cx="152.15" cy="97.88" rx="1.76" ry="1.33" style="fill:#d7edf9"/><ellipse cx="132.41" cy="130.38" rx="2.12" ry="1.34" style="fill:#d7edf9"/><path d="M200.07,89.31c0,1-.56,1.9-1.25,1.9s-1.26-.85-1.26-1.9.57-1.91,1.26-1.91S200.07,88.25,200.07,89.31Z" style="fill:#d7edf9"/><path d="M215,82.84a1.31,1.31,0,1,1-1.29-1.56A1.44,1.44,0,0,1,215,82.84Z" style="fill:#d7edf9"/><path d="M68.26,131.25A2.45,2.45,0,1,1,65.82,129,2.33,2.33,0,0,1,68.26,131.25Z" style="fill:#d7edf9"/><path d="M135.49,117.43a1.82,1.82,0,1,1-1.81-1.67A1.75,1.75,0,0,1,135.49,117.43Z" style="fill:#d7edf9"/><ellipse cx="114.98" cy="120.76" rx="2.33" ry="1.91" style="fill:#d7edf9"/><ellipse cx="122.78" cy="113.44" rx="1.38" ry="1.59" style="fill:#d7edf9"/><path d="M112.16,37.93c0,1.16-.6,2.1-1.34,2.1s-1.35-.94-1.35-2.1.6-2.1,1.35-2.1S112.16,36.77,112.16,37.93Z" style="fill:#d7edf9"/><ellipse cx="119.06" cy="29.71" rx="1.24" ry="1.72" style="fill:#d7edf9"/><ellipse cx="128.09" cy="22.55" rx="2.2" ry="2.01" style="fill:#d7edf9"/><path d="M127.64,34.87a1.18,1.18,0,1,1-1.15-.95A1.07,1.07,0,0,1,127.64,34.87Z" style="fill:#d7edf9"/><path d="M120.31,39c0,.58-.68,1.05-1.5,1.05s-1.5-.47-1.5-1.05.67-1,1.5-1S120.31,38.4,120.31,39Z" style="fill:#d7edf9"/><path d="M138.55,19a.72.72,0,1,1-.7-.87A.8.8,0,0,1,138.55,19Z" style="fill:#d7edf9"/><path d="M135.49,37.4c0,.87-.46,1.58-1,1.58s-1-.71-1-1.58.46-1.57,1-1.57S135.49,36.53,135.49,37.4Z" style="fill:#d7edf9"/><path d="M124.16,45.19c0,.52-.62,1-1.38,1s-1.38-.43-1.38-1,.62-.95,1.38-.95S124.16,44.67,124.16,45.19Z" style="fill:#d7edf9"/><path d="M137.59,29c0,.54-.7,1-1.56,1s-1.56-.44-1.56-1,.7-1,1.56-1S137.59,28.43,137.59,29Z" style="fill:#d7edf9"/><ellipse cx="142.59" cy="36.4" rx="0.87" ry="1.53" style="fill:#d7edf9"/><path d="M133.45,43.82c0,.76-.35,1.37-.79,1.37s-.79-.61-.79-1.37.36-1.37.79-1.37S133.45,43.06,133.45,43.82Z" style="fill:#d7edf9"/><ellipse cx="143.56" cy="48.24" rx="0.97" ry="0.83" style="fill:#d7edf9"/><path d="M154.59,45c0,.64-.37,1.16-.83,1.16s-.83-.52-.83-1.16.38-1.16.83-1.16S154.59,44.34,154.59,45Z" style="fill:#d7edf9"/><ellipse cx="148.02" cy="39.58" rx="0.69" ry="0.6" style="fill:#d7edf9"/><ellipse cx="161.16" cy="35.63" rx="0.65" ry="0.76" style="fill:#d7edf9"/><path d="M164.9,24.86a1.34,1.34,0,1,1-1.33-1.26A1.29,1.29,0,0,1,164.9,24.86Z" style="fill:#d7edf9"/><path d="M150.9,22.33c0,.7-.4,1.27-.89,1.27s-.9-.57-.9-1.27.4-1.28.9-1.28S150.9,21.62,150.9,22.33Z" style="fill:#d7edf9"/><path d="M163.57,15.71A1.54,1.54,0,1,1,162,14.05,1.6,1.6,0,0,1,163.57,15.71Z" style="fill:#d7edf9"/><ellipse cx="146.94" cy="144.68" rx="2.17" ry="2.59" style="fill:#d7edf9"/><path d="M160.51,137.84a1.75,1.75,0,1,1-1.75-1.66A1.7,1.7,0,0,1,160.51,137.84Z" style="fill:#d7edf9"/><path d="M162.23,152.47c0,1.16-.56,2.1-1.24,2.1s-1.24-.94-1.24-2.1.55-2.09,1.24-2.09S162.23,151.32,162.23,152.47Z" style="fill:#d7edf9"/><path d="M171.21,167.05a1.92,1.92,0,1,1-1.91-1.75A1.84,1.84,0,0,1,171.21,167.05Z" style="fill:#d7edf9"/><path d="M197.56,163.31a1.91,1.91,0,1,1-1.91-2A1.95,1.95,0,0,1,197.56,163.31Z" style="fill:#d7edf9"/><path d="M191.1,142.16c0,1-.44,1.77-1,1.77s-1-.79-1-1.77.43-1.77,1-1.77S191.1,141.18,191.1,142.16Z" style="fill:#d7edf9"/><path d="M173,131.93a1.39,1.39,0,1,1-1.38-1.55A1.47,1.47,0,0,1,173,131.93Z" style="fill:#d7edf9"/><ellipse cx="166.15" cy="139.55" rx="1.24" ry="1.71" style="fill:#d7edf9"/><path d="M183.81,123.1a2,2,0,1,1-1.94-1.52A1.77,1.77,0,0,1,183.81,123.1Z" style="fill:#d7edf9"/><path d="M202.91,139.12a1.43,1.43,0,1,1-1.42-1.28A1.35,1.35,0,0,1,202.91,139.12Z" style="fill:#d7edf9"/><path d="M193.74,117a1.32,1.32,0,1,1-1.32-1.24A1.28,1.28,0,0,1,193.74,117Z" style="fill:#d7edf9"/><path d="M198.82,108.19a1,1,0,1,1-1-1A1,1,0,0,1,198.82,108.19Z" style="fill:#d7edf9"/><path d="M210.51,119.5a1.38,1.38,0,0,1-2.75,0,1.38,1.38,0,0,1,2.75,0Z" style="fill:#d7edf9"/><path d="M202.91,102.25a.74.74,0,1,1-.71-.94A.85.85,0,0,1,202.91,102.25Z" style="fill:#d7edf9"/><ellipse cx="182.38" cy="134.83" rx="1.43" ry="1.35" style="fill:#d7edf9"/><path d="M177,149.78a1.86,1.86,0,1,1-1.86-1.78A1.82,1.82,0,0,1,177,149.78Z" style="fill:#d7edf9"/><path d="M103.59,143.42a1.11,1.11,0,1,1-1.09-1.26A1.18,1.18,0,0,1,103.59,143.42Z" style="fill:#d7edf9"/><ellipse cx="109.1" cy="147.43" rx="1.31" ry="0.95" style="fill:#d7edf9"/><ellipse cx="116.47" cy="146.49" rx="0.84" ry="0.78" style="fill:#d7edf9"/><path d="M118.55,153.52a1,1,0,1,1-1-1.05A1,1,0,0,1,118.55,153.52Z" style="fill:#d7edf9"/><path d="M135.83,170.22a1.08,1.08,0,1,1-1.07-1.09A1.08,1.08,0,0,1,135.83,170.22Z" style="fill:#d7edf9"/><ellipse cx="121.83" cy="172.9" rx="0.42" ry="0.83" style="fill:#d7edf9"/><path d="M123.07,165.19a1.05,1.05,0,1,1-1-1A1,1,0,0,1,123.07,165.19Z" style="fill:#d7edf9"/><path d="M126.7,154.71a1.27,1.27,0,1,1-1.27-1.19A1.23,1.23,0,0,1,126.7,154.71Z" style="fill:#d7edf9"/><path d="M133.68,156c0,.79-.38,1.43-.86,1.43s-.85-.64-.85-1.43.38-1.43.85-1.43S133.68,155.21,133.68,156Z" style="fill:#d7edf9"/><path d="M114,160.21c0,.84-.49,1.52-1.09,1.52s-1.09-.68-1.09-1.52.48-1.52,1.09-1.52S114,159.37,114,160.21Z" style="fill:#d7edf9"/><path d="M119.89,159.2c0,.46-.54.83-1.19.83s-1.19-.37-1.19-.83.53-.84,1.19-.84S119.89,158.74,119.89,159.2Z" style="fill:#d7edf9"/><path d="M106.31,155.64a1.4,1.4,0,1,1-1.36-1.07A1.24,1.24,0,0,1,106.31,155.64Z" style="fill:#d7edf9"/><ellipse cx="77.73" cy="144.05" rx="0.94" ry="0.63" style="fill:#d7edf9"/><ellipse cx="72.91" cy="141.71" rx="0.95" ry="0.45" style="fill:#d7edf9"/><path d="M80.7,148.49a1.14,1.14,0,1,1-1.14-1.22A1.18,1.18,0,0,1,80.7,148.49Z" style="fill:#d7edf9"/></g></g></svg>