<svg xmlns="http://www.w3.org/2000/svg" viewBox="0 0 264.44 196.86"><title>Asset 10</title><g id="Layer_2" data-name="Layer 2"><g id="Ñëîé_2" data-name="Ñëîé 2"><path d="M151.49,108.3c-1.69-4.23-1.46-4.79-1.76-11.17s-4.29-16.84-4.45-19-1.1-9.88-1.48-13.9.94-8.33-2.62-11.15-3.75-8.81-5.25-13.31A52.67,52.67,0,0,0,131.05,30a9.63,9.63,0,0,1,7.5,4.92,61.6,61.6,0,0,1,4.13,10.82c.56,1.69,4.07-.75,2.6-3.75s-3.54-6.37-1.67-7.87,3.38-3,.38-6.19c-7.24,3-39.08-4.32-63.74-3.39-1.28,0-2.53.11-3.77.21A55.94,55.94,0,0,0,64,27C40,34.45,41.25,42.7,27.51,49S2,60.45,3,62.7A38.35,38.35,0,0,1,4.76,68S-.24,66.2,0,69.7s19.5,29.74,35.24,33.75c14.91,3.77,10.78,9.8,28.52,16.16.77.28,1.6.56,2.47.84l.76.24c2.49.78,5.06,1.45,7.68,2,1.1.24,2.21.46,3.32.66a154.9,154.9,0,0,0,29.27,2.23A108,108,0,0,0,123,124.44l-1.5-1.07a32.4,32.4,0,0,0,4.88-7.79c1.5-3.87,2.25-6.45,1.68-9.59s1.32-9-1.31-11.11-1.31-12-2.21-14-2.29,5.61-2.29,5.61c-2.62,2.43,2.81,12.93,2.25,14.62s-2.25,3.93-3.13,1.7-.43-10.14-3.08-15.58-3-7.68-2.41-10.4-1.5-6.47-1.31-10-3.57-12-3.19-17.62-2.44-9.56-4.94-6.38-3.31-1.31-4.44-6.61-.37-5.2,1.87-5.95,7.51,4.74,7.51,4.74c1.18,1.14,2.44,6.51,3.75,9.84s.75,7,1.68,4.92a16.37,16.37,0,0,0,1.48-9c-.58-3.42,2.46-1.27,4,1.54s.94,3.94-.75,7.69.38,4.68.75,6.75-.19,6.56-1.87,8.94-.57,4.74,1,5.12,1.44-1.31,2.19-5.12.94-4.44,2.07-3.92.18,3.79,2.25,7.38.75,12,2.25,14.85,2.43,6.12.93,7.8-.18,3.38,0,5.44,3.75,10.31,2.25,11.17-1.31,9.83-2.25,12.27c-.57,1.5-3.52,2.63-5.68,3.26a1.48,1.48,0,0,0,0,.21c2.12-.36,5.26-.87,9.07-1.56,0,0-.75-4.91,2.43-5.29s3.38-5.62,3-8.89-3-4-1.68-5.53.56-5.64,0-10.51-1.5-8.81-3-8.37-2.82-18.25-4.13-19.67-1.31-4.4-2.7-8.33-.67-3-.11-4.58-1.31-8-3.19-10.37-3.18-8.3-3.69-10.8,2.76,0,2.76,0,4.31,5.12,6.54,7.57,1.33,4.68,1.7,8.62,1.32,7.12,1.31,9.18,5.26,8.81,5.53,12.17-.84,6.95.81,9.11,1.73,6.47,3.06,8.91.54,10.31,0,13.56,3.92,5.18,2.21,6.73.4,3.89,1.52,7.64-4.31,4.5-5.31,4.89-2.29,3.06-2.29,3.06c2.79-.55,5.81-1.17,9-1.88h0c-.07-.24-1.41-4.94,0-4.94S153.17,112.54,151.49,108.3ZM56.25,44.78c1.5-5.48,3-4.27,5.25-1.45s-.19,4.31-.37,7.12,2.81,3.94,2.62,8.45-1.69,3-3.75-.95-2.25-4.5-3.75-6.94S56.25,44.78,56.25,44.78Zm-.75,58c-6.37-.19-7.12-4.48-11.25-6.55S26.82,89.63,24.57,85,21,80.45,21,80.45,10.88,74.82,14.07,72a9.73,9.73,0,0,1,3.5-1.94,9.59,9.59,0,0,1,18.48-4.52c2.81-5,6.91-8.15,9.7-5.91s6.94,5.81,11.81,4.68,7.69,4.69,8.63,9.94,5.25,11.62.93,13.31-5.06,7.69-5.24,10.87S61.88,102.94,55.5,102.76Zm50.06,12.74a14.51,14.51,0,0,0-2.44,7.92c0,3.43-7.69-.61-11.81,0s-8.25-3-8.63-4.87-5.81-6.56-10.31-7.68-12.74-6.38-8.81-5.82,6.56-.18,10.13-2.23a7.63,7.63,0,0,1,7.49,0c5.44,3.4,7.32,1.3,11.25,1.49,1.92.09,3.21-.49,3.63-1.74-1.07.09-2.45.17-4.2.25a45.63,45.63,0,0,1-6.84-.35h0c-7.46-.86-16.37-3.06-17.39-5.1-.84-1.68,0-3.28,1.16-4.69,1-1.13,2.17-2.14,3-3l.89-.9,0,0c2-2.06,4.16-4,6.3-6A9.77,9.77,0,0,0,77.62,82c-1.51-.57-4.12-6-4.12-6-3-5-3.94-2.82-5.44-5.07s2.44-4.68,1-8.43-5.26-9.94-1.89-14.62S68.25,36,70,38.08s1.61,6.56.32,9.56S72,53.45,73.5,58.9s2.06,4.67,4.87,15.92a38.54,38.54,0,0,1,1.4,7.25c1.32-1.2,2.67-2.38,4-3.51-.33-1.37-.6-2.77-.76-3.93a82.92,82.92,0,0,0-2.81-12.18c-1.13-3.75-4.88-10.5-3.77-15s-.36-14.81.58-12.05,3.19,2.3,3.19,6.05v8.44c0,2.43,3,4.87,3.18,9s.94,5.8,2.82,11.23a17.75,17.75,0,0,1,1,5.71,5.9,5.9,0,0,1,2-1.08C87.14,67.64,86.4,57.29,85.05,54s-.68-5.43.63-9.23-3.56-12,.38-8.58,1.69,4.5,1.69,8.58,2.81,8.29,2.62,13.36S93.75,72,95.06,76.32s2.25,5.25,1.87,8.81,3,9.94,3.94,9.56,2.44-3,4.69,1.52.75,8.61,1.71,10.67S106.68,113.82,105.56,115.5Zm-2.82-63.27c2.63,4.4-.75,8.53-1.12,10.41s3,8.06,4.31,5.06.56-5.81,1.64-6,3.05,7.91,4.17,11.53,2.44,13.63,5.25,19.25.19,13.31,0,17.63-1.69,7.68-3.93,9.37-2.07,2.62-3.94,1.88,1.87-2.63,2.62-6.19.57-11.44-1.5-15.19-.18-7.68-1.87-12.18-2.44.56-4.5,3.18-1.13-1.68-.94-4.31-3.75-14.25-5.06-18.56S94.31,53.82,90.93,49s0-5.81,0-11.24,1.88-6.94,1.69-4.69,5.25,4.69,5.25,4.69C99.16,38.36,100.12,47.83,102.74,52.23Z" style="fill:#ef3a0c"/><path d="M28.88,60.78a3.54,3.54,0,0,0,.34.34A2.73,2.73,0,0,0,28.88,60.78Z" style="fill:#ef3a0c"/><path d="M125.37,123.83a1.48,1.48,0,0,0,0,.21c-.82.12-1.48.24-2,.33C123.79,124.26,124.52,124.09,125.37,123.83Z" style="fill:#ef3a0c"/><path d="M183.75,108.17l-.28.13a5.75,5.75,0,0,1-.21-.67Z" style="fill:#ef3a0c"/><path d="M211.64,77.29c-.58-.82-.45-3.47-.45-3.47a25.94,25.94,0,0,1,.57-3.87,4,4,0,0,0-.57-3.56c-.37-.66-2.8,1.87-4.4,1.77s-1.31,2.25-1.5,2.91,1.13,1.76,2.44,1.91.28,1-1,2.76-2.37,4.33-1.41,5.74a29.45,29.45,0,0,1,2.11,4.42,82.43,82.43,0,0,1-5.18,7.59s-1-4-.57-4.23,2.25-1.5.18-3-1-3,.66-5.06.75-3.66,0-5.46a4.32,4.32,0,0,1,.28-3.54s2-1.69,1-3.56-.25-2.93,0-4.42.62-1.58-1.81-.74-4.78,3.25-5,5.56.75,6.32,1.12,6.7,1,4.52.57,5.17-1,3.38,0,4.32-.37,3,.38,4.5,1.13,5.08,1.83,5.5c-.52.64-1.06,1.3-1.62,2a25,25,0,0,1-1.94,2.07c.43-3.49.32-13.94-3.27-20.88s-3-5.06-.91-9.56,0-7.5,0-9.41-2.5-7.33-4.38-8-.37-2.33-2.5-7.33-3.12-8.88-2.5-12.07-.12-2.56-1.37-4.18-2-5.34-2-5.34a18.87,18.87,0,0,0,2.87-.62c0,.11,0,2.29.62,2.8A11.17,11.17,0,0,1,186.68,29c.55,1.87,1.61.61,2-.85s1-2,0-3.5a31.86,31.86,0,0,1-2-3.76,9.49,9.49,0,0,1,3.19,0c-.87,2.31,2.11,3.95,2.11,7.2s-1,4-3.13,6.86-.12,3.51,2,6.38-.75,2.76,0,5.38,2.12,1.5,3.37-2.43-2.87-6.7-1.25-7.07,2.62.75,3.63,3.37,2,4.5,1.75,7.38c-.13,1.52,1.31,2.27,2.78,2.7-.13,1.13-2.41,1.58-2.41,1.58a4.68,4.68,0,0,1-2.73-.92c-1.58-1.05-2.71.27-.83,3.08s2.81,6.3,3.56,7.27,1.31.63,3.19-2.76a17.87,17.87,0,0,0,2.13-5.08s2.93,1.32,3.49,1.5-.19,0-.94,3.58,1.5,8.59,2.63,5.32,1.5-5.29,2.44-6.11,2.06-.91,1.4-2a7.37,7.37,0,0,1-.83-2.31c1,.13,1.74.19,1.74.19C214.88,61,215.06,68.42,211.64,77.29Z" style="fill:#ef3a0c"/><path d="M211.67,58.11c-.94.82-1.32,2.84-2.44,6.11s-3.38-1.77-2.63-5.32,1.5-3.39.94-3.58-3.49-1.5-3.49-1.5a17.87,17.87,0,0,1-2.13,5.08c-1.88,3.39-2.44,3.74-3.19,2.76s-1.69-4.46-3.56-7.27-.75-4.13.83-3.08a4.68,4.68,0,0,0,2.73.92s2.28-.45,2.41-1.58c1.23.37,2.48.52,2.84.71l.07,0a6.56,6.56,0,0,0,1.52.82,30.17,30.17,0,0,0,6.67,1.53,7.37,7.37,0,0,0,.83,2.31C213.73,57.2,212.6,57.29,211.67,58.11Z" style="fill:#71cff4"/><path d="M174.86,89.26c-.88,4.12-4.44,8.25-2.75,11.62s-.78,9.85.36,12c-2.05.73-4.13,1.42-6.22,2.07,0,0-1-3,1.13-4.46s1.35-7.68.79-9.56,2-9.75,1.94-11.62-2.59-5.78-3.86-8.42-5.46-13-5.89-16.62-3.17-5.9-2.09-8.33S156,42.68,154.11,41.64c-.49-.27-3-2.63-2.62,1.12s-2.25,5.81-1.32,9.47,2.63,3.52,3.94,8.09,5.93,15.06,6.25,19-2.19,7.87,0,9.94,1.25,8.79,2.56,12.92,1.69,6.57,0,7.7-1.3,4.08,1.14,5.7c-3.66,1.09-7.32,2.06-10.89,2.94.16-.38,4.5-8.27,2.82-10.22s0-6.48,2.28-9,0-6.07-3-10.19-3.19-8.06-2.63-12.28.56-5.91-1.31-7.75-1.69-5.28-2.2-8.72-2.49-5-.85-8.09.8-7-1.49-10.59-1.65-6.19.79-7.5-2.27-6.7-2.27-6.7l0,0A53.56,53.56,0,0,1,154,25h0a2,2,0,0,0,.06.26s3.94,3.27,2.44,5.89-2.13,8.06.34,7.31-.22.47,3.47,6.33,2.94,13.1,3.5,16.88,1.5,9.22,4.31,12.79S175.74,85.13,174.86,89.26Z" style="fill:#ef3a0c"/><path d="M183.26,107.63a5.75,5.75,0,0,0,.21.67c-2.31,1.11-4.75,2.16-7.26,3.14,2.16-2.37-.16-10.93,2.71-12.18s-1.75-6.07-.25-6.25-4.31-16.31-5.25-18.56-3.94-9.56-3.56-12.11.94-2,0-5-.94-10.31-4.75-15.75S160.3,31.52,164.05,32s-3.69-8.09-3.69-8.09a2.1,2.1,0,0,0,1.12-.47c.45-.59,3.3-.57,5.9-.6a21.23,21.23,0,0,1-.9,5.67c-.93,3.18,1.13,5.45,3.38,9.19s-1.5,4.78,1.69,7.07,4.68,4,3.56,9.42.75,7.5,2.62,12,1,8.44,1.7,10.59.55,10.59,2.43,14a14.28,14.28,0,0,1,1.5,8.5c-.17,1.51-1,5.22-.11,8.36Z" style="fill:#ef3a0c"/><path d="M193.85,102.18A54.46,54.46,0,0,1,188,106c-2.16-1.84.28-5.67,0-6.73s-.09-4.75,0-8.69-4.4-12.37-3.66-17.38,0-6.8-.93-8.68-2.06-6.19-3-10.69-3.39-12-5.07-14.24-6-9.56-3.81-12,0-5.12,0-5.12c1.74-.75,2.49,0,3.75.24a6,6,0,0,0,1.2.09h0c1.79,2.47.15,5.46-.21,8s3.57.37,4.14,6.94,2.61,10.49,1.86,13.6,4.31,5.7,5.72,9.57-1.59,9.07-1.59,12.31,3.75,11.94,4.78,14.94,1.59,7.5.28,9.94S193.85,102.18,193.85,102.18Z" style="fill:#ef3a0c"/><path d="M261.72,63.2c-3.25-4.5,0-7.5-2.25-13.75s-9.5-5.5-17.25-2S214,54,214,54c.9,7.06,1.08,14.47-2.34,23.34v0a24.18,24.18,0,0,0-.21,5.61c.34,2,2-.73,3.11-2.81s-1.31-2.16-1.27-4.29,2.21-.12,5.8,1.47,1.65-1.59,3.47-4.21-.32-4.38,1.78-3.88,3,1,2.53,4-2.5,1.63-2.81,4.63-1.94,1.63,2.06,5.1c2.12,1.85,2.77,2,2.84,2s-.33,0-.5.73c-.4,1.74-3.34-1.5-8.22-4.38s-2.24-.25-3.74,1.6,1.75,2.4,6.62,6.28,1.88,2.49-.56,3.87-3.32-2.5-6.85-5.13-3.84-4.62-4.26-3.12-4,1.08-4,1.08a82.43,82.43,0,0,1-5.18,7.59c1.35.41,4.39-3.67,6.2-5.3s4-1,3.51,1.63,8.56,8.38,11.43,13-1,3.17-6.87-3.7-3.5-7.62-6.13-6.38-5.62,2.75-7.62,3.52-1.88-1-1.88-1c-.52.64-1.06,1.3-1.62,2a25,25,0,0,1-1.94,2.07,5.65,5.65,0,0,0,2.32-.69c1-.63,5.87-2.38,8.16-3.34s2.58,2,3,4.59,2,4.5,3.08,7-1.83,3.12-5.5,4.37.3-3.5.1-8.42-.43-4.45-2.47-4.57-5.46,2.25-8.48,3.49-3.61.49-3.61.49A54.46,54.46,0,0,1,188,106s2.4,1.45,3.53-.18,4.5-1.49,7.25-2.49,3,.13,4.37,2.44,1.88,3.68.63,5.55-4,.76-2.88-3-1-2.61-4.87-1.23-1.75.62-1.79,2.87.54,1.38,2.16,2.3,1.26,2.45,0,4.07-2.37-.62-4.35-3.12a6.57,6.57,0,0,0-5.32-2.5c-.5,0-2.1-1.64-2.93-2.52l-.28.13c-2.31,1.11-4.75,2.16-7.26,3.14-1,1.12,2.4,1.5,3.74,2.75s1.78,3.25,4.4,3,5-1.63,6.26,0,2.37,3.5,0,3a5.32,5.32,0,0,0-3.93.5c-.8.25.3,2.87-3,3.14s-2.87-2.27-3.78-4.26a5.93,5.93,0,0,0-4.84-3.88,2.89,2.89,0,0,1-2.64-2.86c-2.05.73-4.13,1.42-6.22,2.07.22,1.71,4.11.29,4.86,1.29s.12,2-2,2.75-.25,2.38.88,3.63,1.74,1.24,5.91.12,3.46.37,4,3.5-1.77.88-4,.68-3-.81-5.78,0-4.89.2-6.39-3-1.12-3.64.26-4.52.07-3.73.07-3.73c-3.66,1.09-7.32,2.06-10.89,2.94-.57,1.43,2.94,1.8,3.69,3.67s0,1.75-4.38,2.25-1.87,2.37-.62,4.25.75,2.62-.62,3.87a2.69,2.69,0,0,0-.72,1.19c3.91-.32,10.29.1,12.78,1.81,3,2.07,2.24,3.19-2,3.75s-11.16-.75-14,.94-2.81,3-8.43,1.69-8.06-.62-11.06.53-10.5.59-13.31,1.9-5-.75-7.29,0-5.65-1.31-8.65-.75S96,141.75,93,142.5s-4.69-2.81-7.69-2.06-2.06-3.38-4.13-3.19-1.49-1.69-.93-4.12,1-4.13-.53-3.94-.14,0,0-1.69-3.21-3-1.72-4.13c-1.11-.2-2.22-.42-3.32-.66-4.8,5-4.93,8.23-3.68,7.23s8.83-6.25,5.65-1.75-2.15,6,0,4,2.1.25.85,3-1,5.75,0,5.49,2,0,3.5,1.5.5,2,4.5,1.26,1.5,0,2.49,1.5,1.5,1.5,4.5,1,7.5,1.26,7.5,1.26,17.25,1,21.5,0,6.5.5,10-1,12-.75,16.75-2.41,6.49-.59,9.75-.1,6.75-1,10.5-2.73,5.74-.27,12.49,0,23.5-2.75,26.75-6.75,8-2.75,9.5-4.5a13.46,13.46,0,0,1,8.5-4.08c3.24-.07,5.25-1.92,3.75-4.92s-1.26-3.5.24-3.5,5,3.75,8.25,0,4-2.75,9-5.25,4.76-5,6.25-9.24,2.25-9.26,4-12.26-.25-5-3.75-6.24,1.5-.75,5.25-1.5,3.25-5.25,4.75-9.51S265,67.7,261.72,63.2Zm-89,71.6c-1.24,2.23-4.24,1.64-5.82-1.61s-7.55-1.38-11.67-2.35,0-2.15,1.37-5.23,4.87-1,5.5-1.17c0,0,.87,1-.37,2.8s3.25,0,3.37.59,3.5,1.86,6.5,1.61S174,132.56,172.73,134.8Zm5.74.39a1.27,1.27,0,1,1,1.48-1.25A1.39,1.39,0,0,1,178.47,135.19Zm5.76-4.6a1,1,0,1,1,1.12-1A1.07,1.07,0,0,1,184.23,130.59Zm4.75,7.6c-1.17,0-2.12-.68-2.12-1.5s.95-1.5,2.12-1.5,2.12.67,2.12,1.5S190.15,138.19,189,138.19Zm3.67-10.7a1.82,1.82,0,1,1,1.54-1.8A1.68,1.68,0,0,1,192.65,127.49Zm5.33,7.7c-1.31,0-2.38-.73-2.38-1.63s1.07-1.62,2.38-1.62,2.38.73,2.38,1.62S199.29,135.19,198,135.19Zm4.81-13a.88.88,0,1,1,0-1.75.88.88,0,1,1,0,1.75Zm4.07-5.56a1.37,1.37,0,1,1,1.37,1.44A1.4,1.4,0,0,1,206.86,116.63Zm2.93,13a2,2,0,1,1,2.19-1.94A2.08,2.08,0,0,1,209.79,129.58Zm4.64-10.76c-.64,0-1.16-.92-1.16-2.06s.52-2.07,1.16-2.07,1.17.93,1.17,2.07S215.08,118.82,214.43,118.82Zm5.67-6.69a2.12,2.12,0,1,1,2.11,1.93A2,2,0,0,1,220.1,112.13Zm3.74,10.06a2.11,2.11,0,1,1,1.64-2.06A1.88,1.88,0,0,1,223.84,122.19Zm2-21.37a1.44,1.44,0,1,1,1.51-1.44A1.48,1.48,0,0,1,225.84,100.82Zm23.45-49.41c1.21,0,2.18.49,2.18,1.08s-1,1.09-2.18,1.09-2.19-.49-2.19-1.09S248.08,51.41,249.29,51.41Zm2.18,22.66a1.1,1.1,0,1,1-1.09-1A1,1,0,0,1,251.47,74.07ZM246.17,65a1.49,1.49,0,1,1-1.47-1.29A1.38,1.38,0,0,1,246.17,65ZM242,55c1.51,0,2.74.45,2.74,1s-1.23,1-2.74,1-2.76-.45-2.76-1S240.45,55,242,55Zm-.75,14.87a1.67,1.67,0,1,1-2,1.63A1.84,1.84,0,0,1,241.23,69.82Zm-2.67-8.36c0,1.24-1.53,2.24-3.41,2.24s-3.42-1-3.42-2.24,1.53-2.24,3.42-2.24S238.56,60.22,238.56,61.46Zm-3.41,9.42a2,2,0,1,1-4.05,0,2,2,0,1,1,4.05,0ZM227.73,58c-1.5.39-4.13-1.51-6.36,0s-2.52,2-1.15,4,2.75,2.62,4.85,1.62,2.78-1.25,3.45-.63-.42,2.26-3.45,3.33-2.72.55-4.31-.89S216.11,63,215.69,62s.6-1.34,1.24-1.63c1.13-.52,1.17-2.37,2.19-4.37s1.6-.5,3.42.25,5.81-1.87,8.44-4,4.74,1.47,2,3.34A12.72,12.72,0,0,1,227.73,58Zm4.06,51.36a1.95,1.95,0,1,1,1.94-1.95A1.94,1.94,0,0,1,231.79,109.32Zm1.33-11.38a1.63,1.63,0,1,1,2-1.58A1.83,1.83,0,0,1,233.12,97.94Zm3-8.12A1.87,1.87,0,1,1,238.45,88,2.14,2.14,0,0,1,236.09,89.82Zm2.36-12.53c-1.19,0-2.15-.64-2.15-1.43s1-1.42,2.15-1.42,2.15.64,2.15,1.42S239.64,77.29,238.45,77.29Zm2.15,33.53c-.76,0-1.38-.34-1.38-.75s.62-.75,1.38-.75,1.38.33,1.38.75S241.36,110.82,240.6,110.82Zm.31-14.61a1.45,1.45,0,1,1,1.69-1.43A1.59,1.59,0,0,1,240.91,96.21ZM242,80.51a2.56,2.56,0,1,1,2.55,2.69A2.62,2.62,0,0,1,242,80.51Zm4.56,24.92a1.87,1.87,0,1,1,1.81-1.87A1.85,1.85,0,0,1,246.54,105.43Zm1.19-44c-.86,0-1.56-.34-1.56-.75s.7-.75,1.56-.75,1.56.34,1.56.75S248.59,61.46,247.73,61.46Zm5.12,28.36a1.81,1.81,0,1,1-1.78-1.5A1.67,1.67,0,0,1,252.85,89.82Zm-.07-21.24a1.16,1.16,0,1,1,1.31-1.15A1.24,1.24,0,0,1,252.78,68.58ZM255.72,62c-1.59,0-2.87-.89-2.87-2s1.28-2,2.87-2,2.87.9,2.87,2S257.31,62,255.72,62Zm3.81,13.75c-.52,0-.94-.56-.94-1.26s.42-1.25.94-1.25.94.56.94,1.25S260.05,75.7,259.53,75.7Z" style="fill:#d82a07"/><path d="M242.73,25c-8-3.75-17.25-9-20.25-13s-15.25-8.75-19-7.76-6.25-.27-10.5-.13-2-3.36-9.25-1.86-14.19-.75-16.35-.38-3.14-1.21-7.4,0-11.24,1.92-12,.67S143.74,0,139.24,1.35s-9-3-12.5-.6S120,.45,116.49,2.46,106.74,0,105,2.7s-3.24.75-4.5,3.51-2.49-4-4.49-1-.75,8.5-2.5,5.5-3-5-4.25-2.5-2.5,6.25-3.25,4-2.51-.25-3.5,3-3.5,2-4.25,4.25l-1.77,5.31c1.24-.1,2.49-.17,3.77-.21,2.06-3.4,3.75-6.36,5.81-6.17S89.81,13.14,93,13.8s3.37-3.66,5.24-3.28,6-4.31,7.13-5.44,3.37-1.5,6-.37,7.31-.75,10.12-.94,4.13-.75,6.94-1.31S135.49,3.71,138,3.6s5.75-.64,9.25,1.11,9.25.75,12-.51S171.49,3.71,177,5.64s16.75.57,24,.06,12,2.25,13.56,4S229.48,20.45,234,23s2,2.43-3.51,1.92-8,1.5-15.93-2c-3.4-1.5-8-1.94-12.1-2a7.33,7.33,0,0,0-.46,1.85c.12.14,2.5,4.61.25,7.79s3.75,4.82,5.63,7.82-2.88,1.37-3.81,0-4.07-5-3.57-6.44-2.37-5-2.24-6.76,0-4.14,0-4.14c-3.51.21-6,.6-6,.6,2.75,1.5,2.25,4.24,2.5,7.5s.25,3,3,6.74,3.75,4.25,3.75,7.75a16.22,16.22,0,0,0,1.75,6.75,2.18,2.18,0,0,0,.75.91l.07,0a6.56,6.56,0,0,0,1.52.82s5.66,0,11.91-5.28,15-10.25,20.24-13.5S250.72,28.7,242.73,25ZM206.86,48.11c-.5,0-.92-.6-.92-1.34s.42-1.34.92-1.34.91.6.91,1.34S207.37,48.11,206.86,48.11ZM207.77,28a2.1,2.1,0,0,1-1.83-2.29,1.88,1.88,0,1,1,3.66,0A2.09,2.09,0,0,1,207.77,28Zm1.83,10a1.87,1.87,0,1,1,1.83,2.21A2,2,0,0,1,209.6,37.94Zm4.21,9.51a2,2,0,1,1,1.88-2A2,2,0,0,1,213.81,47.45Zm.68-19.5c-.68,0-1.22-.73-1.22-1.64s.54-1.64,1.22-1.64,1.2.73,1.2,1.64S215.15,28,214.49,28Zm4.63,12.2c-.91,0-1.64-1-1.64-2.21s.73-2.2,1.64-2.2,1.64,1,1.64,2.2S220,40.15,219.12,40.15Zm1.1-8c-.64,0-1.15-.33-1.15-.75s.51-.75,1.15-.75,1.15.34,1.15.75S220.85,32.17,220.22,32.17ZM225.07,29a.87.87,0,1,1,1-.85A1,1,0,0,1,225.07,29Zm2.2,8a1,1,0,1,1,1.17-.93A1.07,1.07,0,0,1,227.27,37Zm1.25-5.62a1,1,0,1,1,1.24-1A1.16,1.16,0,0,1,228.52,31.42Zm8.91-1a1,1,0,1,1,1.13-.94A1.05,1.05,0,0,1,237.43,30.39Z" style="fill:#ef3a0c"/><path d="M67.12,87.57c-4.31,1.69-5.06,7.69-5.24,10.87s0,4.5-6.38,4.32-7.12-4.48-11.25-6.55S26.82,89.63,24.57,85,21,80.45,21,80.45,10.88,74.82,14.07,72a9.73,9.73,0,0,1,3.5-1.94A9.59,9.59,0,0,0,36.69,69a9.48,9.48,0,0,0-.64-3.45c2.81-5,6.91-8.15,9.7-5.91s6.94,5.81,11.81,4.68,7.69,4.69,8.63,9.94S71.44,85.88,67.12,87.57Z" style="fill:#71cff4"/><path d="M105.56,115.5a14.51,14.51,0,0,0-2.44,7.92c0,3.43-7.69-.61-11.81,0s-8.25-3-8.63-4.87-5.81-6.56-10.31-7.68-12.74-6.38-8.81-5.82,6.56-.18,10.13-2.23a7.63,7.63,0,0,1,7.49,0c5.44,3.4,7.32,1.3,11.25,1.49,1.92.09,3.21-.49,3.63-1.74,3.26-.3,3.53-.81,2.31-2.33-1.62-2-2.13-2-1.87-4s-2-1.52-1.38-4.52-.87-4.37-.75-6.37-2.12-11.09-4.94-10.6l-.19,0C87.14,67.64,86.4,57.29,85.05,54s-.68-5.43.63-9.23-3.56-12,.38-8.58,1.69,4.5,1.69,8.58,2.81,8.29,2.62,13.36S93.75,72,95.06,76.32s2.25,5.25,1.87,8.81,3,9.94,3.94,9.56,2.44-3,4.69,1.52.75,8.61,1.71,10.67S106.68,113.82,105.56,115.5Z" style="fill:#71cff4"/><path d="M87.21,75.84c-.58.43-1.12.9-1.59,1.27s-1.21,1-1.8,1.45c-.33-1.37-.6-2.77-.76-3.93a82.92,82.92,0,0,0-2.81-12.18c-1.13-3.75-4.88-10.5-3.77-15s-.36-14.81.58-12.05,3.19,2.3,3.19,6.05v8.44c0,2.43,3,4.87,3.18,9s.94,5.8,2.82,11.23A17.75,17.75,0,0,1,87.21,75.84Z" style="fill:#71cff4"/><path d="M79.77,82.07l-.33.29-.47.42A9.77,9.77,0,0,0,77.62,82c-1.51-.57-4.12-6-4.12-6-3-5-3.94-2.82-5.44-5.07s2.44-4.68,1-8.43-5.26-9.94-1.89-14.62S68.25,36,70,38.08s1.61,6.56.32,9.56S72,53.45,73.5,58.9s2.06,4.67,4.87,15.92A38.54,38.54,0,0,1,79.77,82.07Z" style="fill:#71cff4"/><path d="M63.75,58.9c-.19,4.52-1.69,3-3.75-.95s-2.25-4.5-3.75-6.94,0-6.23,0-6.23c1.5-5.48,3-4.27,5.25-1.45s-.19,4.31-.37,7.12S63.94,54.39,63.75,58.9Z" style="fill:#71cff4"/><path d="M117,110.07c-.19,4.31-1.69,7.68-3.93,9.37s-2.07,2.62-3.94,1.88,1.87-2.63,2.62-6.19.57-11.44-1.5-15.19-.18-7.68-1.87-12.18-2.44.56-4.5,3.18-1.13-1.68-.94-4.31-3.75-14.25-5.06-18.56S94.31,53.82,90.93,49s0-5.81,0-11.24,1.88-6.94,1.69-4.69,5.25,4.69,5.25,4.69c1.29.65,2.25,10.12,4.87,14.52s-.75,8.53-1.12,10.41,3,8.06,4.31,5.06.56-5.81,1.64-6,3.05,7.91,4.17,11.53,2.44,13.63,5.25,19.25S117.18,105.75,117,110.07Z" style="fill:#71cff4"/><path d="M209.48,10c-1.56.81-2.7.93-6.22,2.13s-3.66,2.93-5,2.74-1.81,1-3.25,2.06-3.25,4.44-2.75,4.76a7.66,7.66,0,0,0-2.36-.83,10.22,10.22,0,0,0-.33-2.62A3.58,3.58,0,0,1,191,14.52c1.56-1.32,3.94-2.44,4.69-2.31s2.63-3,3.75-2.88,4.5-1.87,6.49-1.06S211,9.21,209.48,10Z" style="fill:#71cff4"/><path d="M204,51.36c-.36-.19-1.61-.34-2.84-.71-1.47-.43-2.91-1.18-2.78-2.7.24-2.88-.75-4.75-1.75-7.38s-2-3.75-3.63-3.37,2.5,3.14,1.25,7.07-2.62,5.06-3.37,2.43,2.12-2.5,0-5.38-4.13-3.52-2-6.38S192,31.33,192,28.08s-3-4.89-2.11-7.2a7.66,7.66,0,0,1,2.36.83c2.75,1.5,2.25,4.24,2.5,7.5s.25,3,3,6.74,3.75,4.25,3.75,7.75a16.22,16.22,0,0,0,1.75,6.75A2.18,2.18,0,0,0,204,51.36Z" style="fill:#71cff4"/><path d="M194.19,9.58c-1.66,1.37-2.46,2.38-4.71,3.5s-3.37,3-4.45,4.25-1.3,2.75-3,3.55-1.62,1.61-1.62,1.61a25.91,25.91,0,0,1-3.93.3h0a3,3,0,0,0-.23-.3c-1.06-1.23.86-2.32,1.9-3.25a14.19,14.19,0,0,0,3.75-5.44c.88-2.53,2.62-1.22,4.12-3.22s4.75-2.37,7-2.87S195.86,8.21,194.19,9.58Z" style="fill:#71cff4"/><path d="M197.29,99.26a35.88,35.88,0,0,1-3.44,2.92s-3.74-1.67-2.43-4.11.76-6.94-.28-9.94-4.78-11.7-4.78-14.94,3-8.44,1.59-12.31-6.47-6.48-5.72-9.57-1.29-7-1.86-13.6-4.51-4.32-4.14-6.94,2-5.51.21-8a25.91,25.91,0,0,0,3.93-.3s.74,3.72,2,5.34,2,1,1.37,4.18.38,7.06,2.5,12.07.63,6.66,2.5,7.33,4.38,6.09,4.38,8,2.06,4.91,0,9.41-2.67,2.63.91,9.56S197.72,95.77,197.29,99.26Z" style="fill:#71cff4"/><path d="M208.31,111.19c-3.66,1.25.3-3.5.1-8.42s-.43-4.45-2.47-4.57-5.46,2.25-8.48,3.49-3.61.49-3.61.49a35.88,35.88,0,0,0,3.44-2.92,5.65,5.65,0,0,0,2.32-.69c1-.63,5.87-2.38,8.16-3.34s2.58,2,3,4.59,2,4.5,3.08,7S212,109.94,208.31,111.19Z" style="fill:#71cff4"/><path d="M169.39,7.58c-1.32,1.16-.84,3.13-3.65,6.22s-1.13,6.41-3.38,7-2,3.17-2,3.17c-1.27.28-3.5.53-6.31,1.07h0a3,3,0,0,1,.73-2.95c1.31-1,2.79-3.65,3.5-5s1.11-3.28,2.09-4.31.31-3.75,1.81-4.5,2.54-1.34,4.08-1.23S170.7,6.42,169.39,7.58Z" style="fill:#71cff4"/><path d="M178.92,99.26c-2.87,1.25-.55,9.81-2.71,12.18-1.23.48-2.48.94-3.74,1.39-1.14-2.1,1.33-8.57-.36-12s1.87-7.5,2.75-11.62S171,78,168.17,74.45s-3.75-9-4.31-12.79.19-11-3.5-16.88-1-7.08-3.47-6.33-1.84-4.68-.34-7.31-2.44-5.89-2.44-5.89a2,2,0,0,1-.06-.26c2.81-.54,5-.79,6.31-1.07,0,0,7.44,8.59,3.69,8.09s-2.76,4.19,1.06,9.63,3.81,12.75,4.75,15.75.37,2.4,0,5,2.62,9.86,3.56,12.11,6.75,18.37,5.25,18.56S181.79,98,178.92,99.26Z" style="fill:#71cff4"/><path d="M190.61,120.19a5.32,5.32,0,0,0-3.93.5c-.8.25.3,2.87-3,3.14s-2.87-2.27-3.78-4.26a5.93,5.93,0,0,0-4.84-3.88,2.89,2.89,0,0,1-2.64-2.86c1.26-.45,2.51-.91,3.74-1.39-1,1.12,2.4,1.5,3.74,2.75s1.78,3.25,4.4,3,5-1.63,6.26,0S193,120.69,190.61,120.19Z" style="fill:#71cff4"/><path d="M168.17,100.88c.56,1.88,1.31,8.06-.79,9.56s-1.13,4.46-1.13,4.46c-.72.24-1.46.46-2.19.68-2.44-1.62-2.82-4.58-1.14-5.7s1.32-3.56,0-7.7-.37-10.86-2.56-12.92.31-6,0-9.94-4.94-14.43-6.25-19-3-4.43-3.94-8.09,1.69-5.72,1.32-9.47,2.13-1.39,2.62-1.12c1.9,1,5.25,11.81,4.16,14.25s1.65,4.68,2.09,8.33,4.63,14,5.89,16.62,3.8,6.54,3.86,8.42S167.61,99,168.17,100.88Z" style="fill:#71cff4"/><path d="M175.9,126.87c-2.21-.19-3-.81-5.78,0s-4.89.2-6.39-3-1.12-3.64.26-4.52.07-3.73.07-3.73c.73-.22,1.47-.44,2.19-.68.22,1.71,4.11.29,4.86,1.29s.12,2-2,2.75-.25,2.38.88,3.63,1.74,1.24,5.91.12,3.46.37,4,3.5S178.11,127.07,175.9,126.87Z" style="fill:#71cff4"/><path d="M155.7,11.37c-.93,3.46-2.06,6.18-3.46,6.65s-1.82,2.9-2.27,4.22-5.34,2.79-4.69,3.88c.53.9.18,1.22,0,1.3l0,0q-.65.24-1.29.51s-2.34-1.37-1.41-2.7a12.88,12.88,0,0,0,2.07-4.5c.18-1.23,2-2.55,1.87-4.88s.93-3.29,2.53-4.41,3.1-1.69,4.22-3.47,4.67-1.6,5-1.6S156.65,7.89,155.7,11.37Z" style="fill:#71cff4"/><path d="M158.27,99.26c-2.28,2.56-4,7.09-2.28,9s-2.66,9.84-2.82,10.22c-1.69.41-3.36.81-5,1.17-.07-.24-1.41-4.94,0-4.94s5-2.21,3.32-6.45-1.46-4.79-1.76-11.17-4.29-16.84-4.45-19-1.1-9.88-1.48-13.9.94-8.33-2.62-11.15-3.75-8.81-5.25-13.31A52.67,52.67,0,0,0,131.05,30a9.63,9.63,0,0,1,7.5,4.92,61.6,61.6,0,0,1,4.13,10.82c.56,1.69,4.07-.75,2.6-3.75s-3.54-6.37-1.67-7.87,3.38-3,.38-6.19q.64-.27,1.29-.51s4.71,5.39,2.27,6.7-3.07,3.94-.79,7.5,3.13,7.49,1.49,10.59.34,4.65.85,8.09.33,6.88,2.2,8.72,1.87,3.54,1.31,7.75-.37,8.16,2.63,12.28S160.56,96.71,158.27,99.26Z" style="fill:#71cff4"/><path d="M151.86,128.69c1.25,1.87.75,2.62-.62,3.87a2.69,2.69,0,0,0-.72,1.19c-.47,1.39-.26,3.22-.55,4.06-.39,1.13-4.48,1.38-6.73,1.86s-.75-.86-1-2.31c-.17-1,2.37-2.13,3.43-3.25.49-.53.67-1,.07-1.55-1.86-1.56-.75-3.37.75-5s.5-2.83-.75-4.15,2.43-3.67,2.43-3.67h0c1.64-.36,3.31-.76,5-1.17-.57,1.43,2.94,1.8,3.69,3.67s0,1.75-4.38,2.25S150.61,126.81,151.86,128.69Z" style="fill:#71cff4"/><path d="M133.3,108.3c-1.5.87-1.31,9.83-2.25,12.27-.57,1.5-3.52,2.63-5.68,3.26-.85.26-1.58.43-2,.54a.94.94,0,0,0-.2,0l-.18,0-1.5-1.07a32.4,32.4,0,0,0,4.88-7.79c1.5-3.87,2.25-6.45,1.68-9.59s1.32-9-1.31-11.11-1.31-12-2.21-14-2.29,5.61-2.29,5.61c-2.62,2.43,2.81,12.93,2.25,14.62s-2.25,3.93-3.13,1.7-.43-10.14-3.08-15.58-3-7.68-2.41-10.4-1.5-6.47-1.31-10-3.57-12-3.19-17.62-2.44-9.56-4.94-6.38-3.31-1.31-4.44-6.61-.37-5.2,1.87-5.95,7.51,4.74,7.51,4.74c1.18,1.14,2.44,6.51,3.75,9.84s.75,7,1.68,4.92a16.37,16.37,0,0,0,1.48-9c-.58-3.42,2.46-1.27,4,1.54s.94,3.94-.75,7.69.38,4.68.75,6.75-.19,6.56-1.87,8.94-.57,4.74,1,5.12,1.44-1.31,2.19-5.12.94-4.44,2.07-3.92.18,3.79,2.25,7.38.75,12,2.25,14.85,2.43,6.12.93,7.8-.18,3.38,0,5.44S134.8,107.44,133.3,108.3Z" style="fill:#71cff4"/><path d="M141.49,118.52c-1,.38-2.29,3.06-2.29,3.06q-2.52.49-4.77.9s-.75-4.91,2.43-5.29,3.38-5.62,3-8.89-3-4-1.68-5.53.56-5.64,0-10.51-1.5-8.81-3-8.37-2.82-18.25-4.13-19.67-1.31-4.4-2.7-8.33-.67-3-.11-4.58-1.31-8-3.19-10.37-3.18-8.3-3.69-10.8,2.76,0,2.76,0,4.31,5.12,6.54,7.57,1.33,4.68,1.7,8.62,1.32,7.12,1.31,9.18,5.26,8.81,5.53,12.17-.84,6.95.81,9.11,1.73,6.47,3.06,8.91.54,10.31,0,13.56,3.92,5.18,2.21,6.73.4,3.89,1.52,7.64S142.49,118.13,141.49,118.52Z" style="fill:#71cff4"/><path d="M139,137.19c-2.88,2-5,3.49-6.12,1.62s-2-4.81.8-4.72c1.6.06,2.58-.2,3-.78a2,2,0,0,0,.07-1.87c-.63-1.88.91-3.38-2.61-4.13s.3-4.83.3-4.83q2.25-.41,4.77-.9s-1.08,3.48.16,5.11.67,4.88,2,7S141.87,135.19,139,137.19Z" style="fill:#71cff4"/><path d="M202.48,81.2c-1.69,2.06-2.71,3.56-.66,5.06s.19,2.72-.18,3,.57,4.23.57,4.23c-.44.57-.89,1.15-1.36,1.74-.7-.42-1.08-4-1.83-5.5s.65-3.57-.38-4.5-.37-3.66,0-4.32-.19-4.78-.57-5.17-1.3-4.38-1.12-6.7,2.53-4.72,5-5.56,2.06-.75,1.81.74-1.06,2.54,0,4.42-1,3.56-1,3.56a4.32,4.32,0,0,0-.28,3.54C203.23,77.54,204.17,79.13,202.48,81.2Z" style="fill:#71cff4"/><path d="M216.48,99.07c-5.88-6.87-3.5-7.62-6.13-6.38s-5.62,2.75-7.62,3.52-1.88-1-1.88-1c.47-.59.92-1.17,1.36-1.74,1.35.41,4.39-3.67,6.2-5.3s4-1,3.51,1.63,8.56,8.38,11.43,13S222.35,105.94,216.48,99.07Z" style="fill:#71cff4"/><path d="M211.19,73.82s-.13,2.65.45,3.47v0a55.83,55.83,0,0,1-4.25,8.59,29.45,29.45,0,0,0-2.11-4.42c-1-1.41.11-3.94,1.41-5.74s2.35-2.61,1-2.76-2.63-1.25-2.44-1.91-.1-3,1.5-2.91,4-2.43,4.4-1.77a4,4,0,0,1,.57,3.56A25.94,25.94,0,0,0,211.19,73.82Z" style="fill:#71cff4"/><path d="M228.94,85s-.33,0-.5.73c-.4,1.74-3.34-1.5-8.22-4.38s-2.24-.25-3.74,1.6,1.75,2.4,6.62,6.28,1.88,2.49-.56,3.87-3.32-2.5-6.85-5.13-3.84-4.62-4.26-3.12-4,1.08-4,1.08a55.83,55.83,0,0,0,4.25-8.59,24.18,24.18,0,0,0-.21,5.61c.34,2,2-.73,3.11-2.81s-1.31-2.16-1.27-4.29,2.21-.12,5.8,1.47,1.65-1.59,3.47-4.21-.32-4.38,1.78-3.88,3,1,2.53,4-2.5,1.63-2.81,4.63-1.94,1.63,2.06,5.1C228.22,84.77,228.87,85,228.94,85Z" style="fill:#71cff4"/><path d="M218,15.08c-1.56,1-3,3.44-4.77,2.81a13.36,13.36,0,0,0-6.91.37,35.1,35.1,0,0,0-3.88,2.62l0,.11c-1.49,0-2.91.05-4.2.12,0,0,.3-2.72,1.68-3.09s3-2.75,5.18-3.5,2.63-1.94,4-1.94,4.37-1.12,5.44-.37S219.6,14.08,218,15.08Z" style="fill:#71cff4"/><path d="M204.05,38.45c-.94-1.37-4.07-5-3.57-6.44s-2.37-5-2.24-6.76,0-4.14,0-4.14c1.29-.07,2.71-.12,4.2-.12a7.33,7.33,0,0,0-.46,1.85c.12.14,2.5,4.61.25,7.79s3.75,4.82,5.63,7.82S205,39.82,204.05,38.45Z" style="fill:#71cff4"/><path d="M209.6,25.66a1.88,1.88,0,1,1-3.66,0,1.88,1.88,0,1,1,3.66,0Z" style="fill:#71cff4"/><path d="M213.27,37.94a1.87,1.87,0,1,1-1.84-2.2A2,2,0,0,1,213.27,37.94Z" style="fill:#71cff4"/><path d="M221.37,31.42c0,.42-.52.75-1.15.75s-1.15-.33-1.15-.75.51-.75,1.15-.75S221.37,31,221.37,31.42Z" style="fill:#71cff4"/><path d="M229.76,30.39a1.27,1.27,0,1,1-1.24-1A1.15,1.15,0,0,1,229.76,30.39Z" style="fill:#71cff4"/><path d="M238.56,29.45a1.15,1.15,0,1,1-1.13-.93A1,1,0,0,1,238.56,29.45Z" style="fill:#71cff4"/><path d="M215.69,26.31c0,.91-.54,1.64-1.2,1.64s-1.22-.73-1.22-1.64.54-1.64,1.22-1.64S215.69,25.4,215.69,26.31Z" style="fill:#71cff4"/><path d="M220.76,37.94c0,1.22-.73,2.21-1.64,2.21s-1.64-1-1.64-2.21.73-2.2,1.64-2.2S220.76,36.72,220.76,37.94Z" style="fill:#71cff4"/><path d="M228.44,36.11a1.2,1.2,0,0,1-2.34,0,1.2,1.2,0,0,1,2.34,0Z" style="fill:#71cff4"/><path d="M226.1,28.17a1,1,0,1,1-1-.85A1,1,0,0,1,226.1,28.17Z" style="fill:#71cff4"/><path d="M215.69,45.43a1.89,1.89,0,1,1-1.88-2A1.95,1.95,0,0,1,215.69,45.43Z" style="fill:#71cff4"/><path d="M207.77,46.77c0,.74-.4,1.34-.91,1.34s-.92-.6-.92-1.34.42-1.34.92-1.34S207.77,46,207.77,46.77Z" style="fill:#71cff4"/><path d="M188.73,28.17c-.44,1.46-1.5,2.72-2,.85a11.17,11.17,0,0,0-2.82-4.35c-.61-.51-.62-2.69-.62-2.8l.49-.16a16.1,16.1,0,0,1,3-.8,31.86,31.86,0,0,0,2,3.76C189.73,26.14,189.17,26.7,188.73,28.17Z" style="fill:#71cff4"/><path d="M120.74,139.67c-4,.23-4.75-1.48-6.75,0s-3.62-.61-2.49-2.85c1-1.92-.36-3.3.55-6a9,9,0,0,1,.69-1.52c2.13-3.75,2.75-.88,3.75,1.27a6.8,6.8,0,0,0,.82,1.37h0c.91,1.12,2.29,1.84,5.51,4C127.16,138.81,120.74,139.67,120.74,139.67Z" style="fill:#71cff4"/><path d="M163.3,135.56c-2.49-1.71-8.87-2.13-12.78-1.81-.47,1.39-.26,3.22-.55,4.06-.39,1.13-4.48,1.38-6.73,1.86s-.75-.86-1-2.31c-.17-1,2.37-2.13,3.43-3.25-1.28-.08-2.78-.25-4.34-.42,1.29,2.12.54,1.5-2.34,3.5s-5,3.49-6.12,1.62-2-4.81.8-4.72c1.6.06,2.58-.2,3-.78a16.47,16.47,0,0,0-4.87.38c.44,3.37-4.81,4.63-5.06,2.87-.1-.78-.15-1.75-.29-2.72a86.13,86.13,0,0,1-9.13-1.88c.91,1.12,2.29,1.84,5.51,4,4.33,2.87-2.09,3.73-2.09,3.73-4,.23-4.75-1.48-6.75,0s-3.62-.61-2.49-2.85c1-1.92-.36-3.3.55-6a6,6,0,0,1-4.78-5.24A154.9,154.9,0,0,1,78,123.37c-1.49,1.11,1.87,2.44,1.72,4.13s-1.53,1.88,0,1.69,1.09,1.5.53,3.94-1.13,4.31.93,4.12,1.13,3.94,4.13,3.19S90,143.25,93,142.5s2.62,1.69,5.62,1.12,6.37,1.5,8.65.75,4.47,1.32,7.29,0,10.31-.75,13.31-1.9,5.43-1.85,11.06-.53,5.62,0,8.43-1.69,9.75-.38,14-.94S166.3,137.63,163.3,135.56Zm-78.25-1.2c-.7,1.31-1.18-.54-2.18-2.79s.62-2.63.62-2.63c2.76-1.7,4.26-2.62,6.51-1.7s2.37.82.87,1.7S85.74,133.07,85.05,134.36Zm14.07-6.05c-.25,1.38-3,3.63-3,3.63a33.29,33.29,0,0,0-1.75,3.62c-.38,1.13,1.87,1.63,2.88,4.11s-1.25,1.27-3.9,1.76-1.61-2.24-4.61-3.37,0-2.87,1.88-6.12,2.25-2.13,5.5-3.63S99.37,126.94,99.12,128.31Zm8.45,7.38c-.8,1.62-.2,2.75-1.2,4s-2.75.14-4.13,0-2.12-3.23-2.12-3.23c-1.4-2.86,2.12-6.25,3.74-8.25s1.51.87,3.41,3S108.37,134.06,107.57,135.69Z" style="fill:#32aace"/><path d="M145.74,123.37c1.25,1.32,2.25,2.47.75,4.15s-2.61,3.48-.75,5c.6.51.42,1-.07,1.55-1.28-.08-2.78-.25-4.34-.42-1.3-2.12-.72-5.38-2-7s-.16-5.11-.16-5.11c2.79-.55,5.81-1.17,9-1.88C148.17,119.7,144.49,122,145.74,123.37Z" style="fill:#d82a07"/><path d="M136.67,133.31a16.47,16.47,0,0,0-4.87.38c-.43-3.38-2.68-4.75-3.06-6.13s-3.48-.38-3.38-3.52c2.12-.36,5.26-.87,9.07-1.56,0,0-3.81,4.08-.3,4.83s2,2.25,2.61,4.13A2,2,0,0,1,136.67,133.31Z" style="fill:#d82a07"/><path d="M126.74,136.56c-.1-.78-.15-1.75-.29-2.72a5.59,5.59,0,0,0-1.34-3.28c-1.5-1.5-1.74-1.62-2.12-3.75s0-2.37,0-2.37l.18,0a.94.94,0,0,1,.2,0c.51-.09,1.17-.21,2-.33-.1,3.14,3,2.18,3.38,3.52s2.63,2.75,3.06,6.13S127,138.32,126.74,136.56Z" style="fill:#71cff4"/><path d="M126.45,133.84a86.13,86.13,0,0,1-9.13-1.88h0a6.8,6.8,0,0,1-.82-1.37c-1-2.15-1.62-5-3.75-1.27a9,9,0,0,0-.69,1.52,6,6,0,0,1-4.78-5.24A108,108,0,0,0,123,124.44s-.37.25,0,2.37.62,2.25,2.12,3.75A5.59,5.59,0,0,1,126.45,133.84Z" style="fill:#d82a07"/><path d="M107.57,135.69c-.8,1.62-.2,2.75-1.2,4s-2.75.14-4.13,0-2.12-3.23-2.12-3.23c-1.4-2.86,2.12-6.25,3.74-8.25s1.51.87,3.41,3S108.37,134.06,107.57,135.69Z" style="fill:#71cff4"/><path d="M94.37,135.56c-.38,1.13,1.87,1.63,2.88,4.11s-1.25,1.27-3.9,1.76-1.61-2.24-4.61-3.37,0-2.87,1.88-6.12,2.25-2.13,5.5-3.63,3.25-1.37,3,0-3,3.63-3,3.63A33.29,33.29,0,0,0,94.37,135.56Z" style="fill:#71cff4"/><path d="M90.87,128.94c-1.5.87-5.13,4.13-5.82,5.42s-1.18-.54-2.18-2.79.62-2.63.62-2.63c2.76-1.7,4.26-2.62,6.51-1.7S92.37,128.06,90.87,128.94Z" style="fill:#71cff4"/><path d="M172.73,134.8c-1.24,2.23-4.24,1.64-5.82-1.61s-7.55-1.38-11.67-2.35,0-2.15,1.37-5.23,4.87-1,5.5-1.17c0,0,.87,1-.37,2.8s3.25,0,3.37.59,3.5,1.86,6.5,1.61S174,132.56,172.73,134.8Z" style="fill:#71cff4"/><path d="M234,23c-4.5-2.58-17.88-11.57-19.44-13.32s-6.31-4.5-13.56-4-18.5,1.89-24-.06S162,3,159.23,4.2s-8.49,2.25-12,.51S140.49,3.48,138,3.6s-6.75-1.71-9.56-1.14-4.13,1.12-6.94,1.31-7.5,2.06-10.12.94-4.88-.75-6,.37-5.25,5.81-7.13,5.44S96.18,14.46,93,13.8s-4.88,4.78-6.94,4.59-3.75,2.77-5.81,6.17C104.91,23.63,136.75,31,144,28c0,0-2.34-1.37-1.41-2.7a12.88,12.88,0,0,0,2.07-4.5c.18-1.23,2-2.55,1.87-4.88s.93-3.29,2.53-4.41,3.1-1.69,4.22-3.47,4.67-1.6,5-1.6-1.62,1.5-2.57,5-2.06,6.18-3.46,6.65-1.82,2.9-2.27,4.22-5.34,2.79-4.69,3.88c.53.9.18,1.22,0,1.3A53.56,53.56,0,0,1,154,25a3,3,0,0,1,.73-2.95c1.31-1,2.79-3.65,3.5-5s1.11-3.28,2.09-4.31.31-3.75,1.81-4.5,2.54-1.34,4.08-1.23,4.45-.62,3.14.54-.84,3.13-3.65,6.22-1.13,6.41-3.38,7-2,3.17-2,3.17a2.1,2.1,0,0,0,1.12-.47c.45-.59,3.3-.57,5.9-.6h0c-.69-1.17.89-4.82,1-7.07s3.46-3.85,5-6.75.48-2.06,2.07-.94,3.38,1.13,5.91-.5,1.87,1.16-.66,3.59-3.37,3.47-4.74,4.41-1.73,2.44-2.76,2.91-1.65,4-1.65,4c1.74-.75,2.49,0,3.75.24a6,6,0,0,0,1.2.09,3,3,0,0,0-.23-.3c-1.06-1.23.86-2.32,1.9-3.25a14.19,14.19,0,0,0,3.75-5.44c.88-2.53,2.62-1.22,4.12-3.22s4.75-2.37,7-2.87,2.88.5,1.21,1.87-2.46,2.38-4.71,3.5-3.37,3-4.45,4.25-1.3,2.75-3,3.55-1.62,1.61-1.62,1.61a18.87,18.87,0,0,0,2.87-.62l.49-.16a16.1,16.1,0,0,1,3-.8,9.49,9.49,0,0,1,3.19,0,10.22,10.22,0,0,0-.33-2.62A3.58,3.58,0,0,1,191,14.52c1.56-1.32,3.94-2.44,4.69-2.31s2.63-3,3.75-2.88,4.5-1.87,6.49-1.06,5.13.94,3.57,1.75-2.7.93-6.22,2.13-3.66,2.93-5,2.74-1.81,1-3.25,2.06-3.25,4.44-2.75,4.76c0,0,2.5-.39,6-.6,0,0,.3-2.72,1.68-3.09s3-2.75,5.18-3.5,2.63-1.94,4-1.94,4.37-1.12,5.44-.37,5.06,1.87,3.5,2.87-3,3.44-4.77,2.81a13.36,13.36,0,0,0-6.91.37,35.1,35.1,0,0,0-3.88,2.62l0,.11c4.12,0,8.7.46,12.1,2,7.94,3.5,10.44,1.5,15.93,2S238.47,25.61,234,23Zm-134.61-10C99,13.33,97,17.74,97,19.24s-1,2-1.87,3.28-3.1.75-3.1.75-2.35.18-3.1.12a1.47,1.47,0,0,1-1.12-2,3.71,3.71,0,0,1,2.53-2.53c1.79-.75,2.72-.94,4-3S99.74,12.77,99.37,13.05Zm7.9,5a14.81,14.81,0,0,1-.69,4.4c-.65,2.72-1.59,1.6-3.65,1.5s-1.45-1.5-1.45-1.5a2.87,2.87,0,0,1-.09-2.06c.43-.84,2.29-2.53,1.26-4.12s1.5-4,4.62-6.57,5.51-2.9,4.94-1.4a21.72,21.72,0,0,1-2.34,5C108.74,14.83,107.33,16.24,107.27,18ZM115,23.83c-1,.28-3.2.56-3.2.56-2.34-.19-1.12-3.47,0-5s2.73-3.46,2.07-5.62,1.4-5,3.68-6.22,6.82-2.78,5.32-1.34-1.32,3.15-1.59,4.18-1.6,2.72,0,5.12-2.35,2.48-3,4.16S116.05,23.54,115,23.83Zm6.46,2.29c-2.35.5-3.21-.87-3.21-.87-1.1-.78,1.15-2.36,1.62-3.48s2.15-2,4.31-5,1.59-4.76.84-6.82,2.73-4.32,6-4.88,4.31-.09,4.22,1.16-2.07,2.59-2.25,3.9-1.59,5.82-3.56,7.31-1.68,4.22-2.34,6.19S123.83,25.61,121.49,26.12Zm23.64-18c-.46,2.07-.58,3.29-2.36,5.07a5.41,5.41,0,0,0-1.59,5.43c.37,2-1.41,3.57-1.6,5.82s-4.4,2.53-4.4,2.53c-2.83.69-6.19.09-6.47-.9s.84-2.2,3.37-3.6,1.78-4.5,2.53-5.89A20,20,0,0,0,136.2,9c.1-3.1,3.2-2.9,5.91-2.63S145.58,6.12,145.13,8.17ZM217.05,23a1.26,1.26,0,0,1-1.36-1.12,1.38,1.38,0,0,1,2.71,0A1.25,1.25,0,0,1,217.05,23Zm4.32-3.66a1.28,1.28,0,1,1,1.17-1.28A1.23,1.23,0,0,1,221.37,19.33Zm5.9,4a1,1,0,1,1,1.17-1A1.09,1.09,0,0,1,227.27,23.36Z" style="fill:#32aace"/><path d="M228.44,22.37a1.19,1.19,0,1,1-1.17-1A1.09,1.09,0,0,1,228.44,22.37Z" style="fill:#71cff4"/><path d="M222.54,18.05a1.18,1.18,0,1,1-1.17-1.27A1.23,1.23,0,0,1,222.54,18.05Z" style="fill:#71cff4"/><path d="M218.4,21.87a1.38,1.38,0,0,1-2.71,0,1.38,1.38,0,0,1,2.71,0Z" style="fill:#71cff4"/><path d="M145.13,8.17c-.46,2.07-.58,3.29-2.36,5.07a5.41,5.41,0,0,0-1.59,5.43c.37,2-1.41,3.57-1.6,5.82s-4.4,2.53-4.4,2.53c-2.83.69-6.19.09-6.47-.9s.84-2.2,3.37-3.6,1.78-4.5,2.53-5.89A20,20,0,0,0,136.2,9c.1-3.1,3.2-2.9,5.91-2.63S145.58,6.12,145.13,8.17Z" style="fill:#71cff4"/><path d="M135.27,6.24c-.09,1.26-2.07,2.59-2.25,3.9s-1.59,5.82-3.56,7.31-1.68,4.22-2.34,6.19-3.29,2-5.63,2.48-3.21-.87-3.21-.87c-1.1-.78,1.15-2.36,1.62-3.48s2.15-2,4.31-5,1.59-4.76.84-6.82,2.73-4.32,6-4.88S135.36,5,135.27,6.24Z" style="fill:#71cff4"/><path d="M121.31,10.42c-.28,1-1.6,2.72,0,5.12s-2.35,2.48-3,4.16-2.23,3.84-3.25,4.13-3.2.56-3.2.56c-2.34-.19-1.12-3.47,0-5s2.73-3.46,2.07-5.62,1.4-5,3.68-6.22,6.82-2.78,5.32-1.34S121.58,9.39,121.31,10.42Z" style="fill:#71cff4"/><path d="M112.21,8.27a21.72,21.72,0,0,1-2.34,5c-1.13,1.59-2.54,3-2.6,4.78a14.81,14.81,0,0,1-.69,4.4c-.65,2.72-1.59,1.6-3.65,1.5s-1.45-1.5-1.45-1.5a2.87,2.87,0,0,1-.09-2.06c.43-.84,2.29-2.53,1.26-4.12s1.5-4,4.62-6.57S112.78,6.77,112.21,8.27Z" style="fill:#71cff4"/><path d="M99.37,13.05C99,13.33,97,17.74,97,19.24s-1,2-1.87,3.28-3.1.75-3.1.75-2.35.18-3.1.12a1.47,1.47,0,0,1-1.12-2,3.71,3.71,0,0,1,2.53-2.53c1.79-.75,2.72-.94,4-3S99.74,12.77,99.37,13.05Z" style="fill:#71cff4"/><path d="M180.64,11.17c-2.53,2.45-3.37,3.47-4.74,4.41s-1.73,2.44-2.76,2.91-1.65,4-1.65,4a15,15,0,0,1-4.11.39h0c-.69-1.17.89-4.82,1-7.07s3.46-3.85,5-6.75.48-2.06,2.07-.94,3.38,1.13,5.91-.5S183.17,8.74,180.64,11.17Z" style="fill:#71cff4"/><path d="M203.73,111.31c-1.25,1.88-4,.76-2.88-3s-1-2.61-4.87-1.23-1.75.62-1.79,2.87.54,1.38,2.16,2.3,1.26,2.45,0,4.07-2.37-.62-4.35-3.12a6.57,6.57,0,0,0-5.32-2.5c-.5,0-2.1-1.64-2.93-2.52q2.17-1,4.2-2.18s2.4,1.45,3.53-.18,4.5-1.49,7.25-2.49,3,.13,4.37,2.44S205,109.44,203.73,111.31Z" style="fill:#71cff4"/><path d="M188,106q-2,1.13-4.2,2.18l-.49-.54h0c-.86-3.14-.06-6.85.11-8.36a14.28,14.28,0,0,0-1.5-8.5c-1.88-3.38-1.69-11.81-2.43-14s.18-6.09-1.7-10.59-3.75-6.56-2.62-12-.38-7.12-3.56-9.42.56-3.33-1.69-7.07-4.31-6-3.38-9.19a21.23,21.23,0,0,0,.9-5.67,15,15,0,0,0,4.11-.39s2.18,2.68,0,5.12,2.12,9.75,3.81,12,4.14,9.75,5.07,14.24,2,8.82,3,10.69,1.68,3.67.93,8.68S188,86.63,188,90.57s-.28,7.64,0,8.69S185.79,104.15,188,106Z" style="fill:#71cff4"/><path d="M233,55.57A12.72,12.72,0,0,1,227.73,58c-1.5.39-4.13-1.51-6.36,0s-2.52,2-1.15,4,2.75,2.62,4.85,1.62,2.78-1.25,3.45-.63-.42,2.26-3.45,3.33-2.72.55-4.31-.89S216.11,63,215.69,62s.6-1.34,1.24-1.63c1.13-.52,1.17-2.37,2.19-4.37s1.6-.5,3.42.25,5.81-1.87,8.44-4S235.72,53.7,233,55.57Z" style="fill:#71cff4"/><path d="M238.56,61.46c0,1.24-1.53,2.24-3.41,2.24s-3.42-1-3.42-2.24,1.53-2.24,3.42-2.24S238.56,60.22,238.56,61.46Z" style="fill:#71cff4"/><path d="M244.72,56c0,.55-1.23,1-2.74,1s-2.76-.45-2.76-1,1.23-1,2.76-1S244.72,55.4,244.72,56Z" style="fill:#71cff4"/><path d="M251.47,52.49c0,.6-1,1.09-2.18,1.09s-2.19-.49-2.19-1.09,1-1.08,2.19-1.08S251.47,51.9,251.47,52.49Z" style="fill:#71cff4"/><path d="M258.59,60c0,1.1-1.28,2-2.87,2s-2.87-.89-2.87-2,1.28-2,2.87-2S258.59,58.86,258.59,60Z" style="fill:#71cff4"/><path d="M254.09,67.43a1.32,1.32,0,1,1-1.31-1.16A1.24,1.24,0,0,1,254.09,67.43Z" style="fill:#71cff4"/><path d="M251.47,74.07a1.1,1.1,0,1,1-1.09-1A1,1,0,0,1,251.47,74.07Z" style="fill:#71cff4"/><path d="M246.17,65a1.49,1.49,0,1,1-1.47-1.29A1.38,1.38,0,0,1,246.17,65Z" style="fill:#71cff4"/><path d="M249.29,60.71c0,.41-.7.75-1.56.75s-1.56-.34-1.56-.75.7-.75,1.56-.75S249.29,60.3,249.29,60.71Z" style="fill:#71cff4"/><path d="M180,133.94a1.51,1.51,0,1,1-1.48-1.25A1.38,1.38,0,0,1,180,133.94Z" style="fill:#71cff4"/><path d="M185.35,129.58a1.13,1.13,0,1,1-1.12-1A1.07,1.07,0,0,1,185.35,129.58Z" style="fill:#71cff4"/><ellipse cx="188.98" cy="136.69" rx="2.12" ry="1.5" style="fill:#71cff4"/><path d="M200.36,133.56c0,.9-1.07,1.63-2.38,1.63s-2.38-.73-2.38-1.63,1.07-1.62,2.38-1.62S200.36,132.67,200.36,133.56Z" style="fill:#71cff4"/><path d="M194.19,125.69a1.56,1.56,0,1,1-1.54-1.79A1.68,1.68,0,0,1,194.19,125.69Z" style="fill:#71cff4"/><path d="M203.73,121.32a.94.94,0,1,1-.94-.88A.91.91,0,0,1,203.73,121.32Z" style="fill:#71cff4"/><path d="M215.6,116.76c0,1.14-.52,2.06-1.17,2.06s-1.16-.92-1.16-2.06.52-2.07,1.16-2.07S215.6,115.62,215.6,116.76Z" style="fill:#71cff4"/><path d="M212,127.64a2.2,2.2,0,1,1-2.19-2A2.08,2.08,0,0,1,212,127.64Z" style="fill:#71cff4"/><path d="M209.6,116.63a1.37,1.37,0,1,1-1.37-1.44A1.41,1.41,0,0,1,209.6,116.63Z" style="fill:#71cff4"/><path d="M224.32,112.13a2.12,2.12,0,1,1-2.11-1.94A2,2,0,0,1,224.32,112.13Z" style="fill:#71cff4"/><path d="M225.48,120.13a1.68,1.68,0,1,1-1.64-2.06A1.89,1.89,0,0,1,225.48,120.13Z" style="fill:#71cff4"/><path d="M242,110.07c0,.41-.62.75-1.38.75s-1.38-.34-1.38-.75.62-.75,1.38-.75S242,109.65,242,110.07Z" style="fill:#71cff4"/><path d="M248.35,103.56a1.82,1.82,0,1,1-1.81-1.87A1.85,1.85,0,0,1,248.35,103.56Z" style="fill:#71cff4"/><path d="M242.6,94.78a1.72,1.72,0,1,1-1.69-1.42A1.59,1.59,0,0,1,242.6,94.78Z" style="fill:#71cff4"/><path d="M252.85,89.82a1.81,1.81,0,1,1-1.78-1.5A1.67,1.67,0,0,1,252.85,89.82Z" style="fill:#71cff4"/><path d="M260.47,74.44c0,.7-.42,1.26-.94,1.26s-.94-.56-.94-1.26.42-1.25.94-1.25S260.47,73.75,260.47,74.44Z" style="fill:#71cff4"/><path d="M247.1,80.51a2.56,2.56,0,1,1-2.57-2.69A2.64,2.64,0,0,1,247.1,80.51Z" style="fill:#71cff4"/><path d="M240.6,75.86c0,.79-1,1.43-2.15,1.43s-2.15-.64-2.15-1.43,1-1.42,2.15-1.42S240.6,75.08,240.6,75.86Z" style="fill:#71cff4"/><path d="M243.22,71.45a2,2,0,1,1-2-1.63A1.84,1.84,0,0,1,243.22,71.45Z" style="fill:#71cff4"/><path d="M238.45,88a2.45,2.45,0,1,1-2.36-1.8A2.14,2.14,0,0,1,238.45,88Z" style="fill:#71cff4"/><path d="M235.15,70.88a2,2,0,1,1-4.05,0,2,2,0,1,1,4.05,0Z" style="fill:#71cff4"/><path d="M235.15,96.36a2.09,2.09,0,1,1-2-1.58A1.84,1.84,0,0,1,235.15,96.36Z" style="fill:#71cff4"/><path d="M233.73,107.37a1.94,1.94,0,1,1-1.94-1.94A1.94,1.94,0,0,1,233.73,107.37Z" style="fill:#71cff4"/><path d="M227.35,99.38a1.52,1.52,0,1,1-1.51-1.44A1.48,1.48,0,0,1,227.35,99.38Z" style="fill:#71cff4"/><path d="M97.23,196.85c-1.1.29-25.4-17.42-32.16-34-5.86-14.34-2.36-37.31-1.3-43.24.77.28,1.6.56,2.47.84-1.56,7.11-7.41,39.19,10,56C95.85,195.43,98.33,196.57,97.23,196.85Z" style="fill:#ff5d1d"/><path d="M28.88,60.78a3.54,3.54,0,0,0,.34.34A2.73,2.73,0,0,0,28.88,60.78Z" style="fill:#ef3a0c"/><path d="M36.05,65.55A9.59,9.59,0,1,0,36.69,69,9.48,9.48,0,0,0,36.05,65.55Zm-1.8,7.64a4.69,4.69,0,0,1-1.4,2.1,9.77,9.77,0,0,1-4,1.84c-4.92,1.22-5.55-.49-5.73-1.11s.55-.82,2.18-.2,3.62-.31,5.31-1.39,2-2.74,2.81-2.55A1,1,0,0,1,34.25,73.19Zm.69-3.37A6,6,0,0,1,32.16,71,5.42,5.42,0,0,1,22,71s-.41,1.75.47,2.5A.84.84,0,0,1,22.18,75c-.46-.06-1.42-1.5-3.3-2.94a1.82,1.82,0,0,1-.75-2.17,9.23,9.23,0,0,1,1.44-2.33c.93-1.31.37-2.68.87-3.12a7.35,7.35,0,0,1,1.76-.88.62.62,0,0,1,.12-.56c.65-.85.19-1.22,2-2s2.81-1.64,4-.72c.17.13.34.26.49.4h0s0,0,.05.05a2.73,2.73,0,0,1,.34.34h0A7.92,7.92,0,0,0,32,62.82c1.8.57,2.25,2.16,2.68,3.19a10.69,10.69,0,0,1,.38,1.1C35.34,68.1,35.47,69.25,34.94,69.82Z" style="fill:#e8babf"/><path d="M29.37,64.08a5.24,5.24,0,0,0-2.27-.51A5.39,5.39,0,0,0,23.47,65h0c-.11-.06-1.12-.73-1.26-1.41a.62.62,0,0,1,.12-.56c.65-.85.19-1.22,2-2s2.81-1.64,4-.72c.17.13.34.26.49.4h0s0,0,.05.05a3.54,3.54,0,0,0,.34.34h0C29.85,61.83,30.06,62.7,29.37,64.08Z" style="fill:#2b2b2b"/><path d="M31.13,69a1.34,1.34,0,0,1,0,.2,4,4,0,0,1-8,0,.91.91,0,0,1,0-.17,4,4,0,0,1,8.05,0Z" style="fill:#2b2b2b"/><path d="M29.37,64.08a5.24,5.24,0,0,0-2.27-.51A5.39,5.39,0,0,0,23.47,65h0a5.4,5.4,0,0,0-1.79,4,1.32,1.32,0,0,0,0,.28A4.88,4.88,0,0,0,22,71a5.42,5.42,0,0,0,10.12,0,5.23,5.23,0,0,0,.37-1.9v0A5.39,5.39,0,0,0,29.37,64.08Zm1.75,5.12a4,4,0,0,1-8,0,.91.91,0,0,1,0-.17,4,4,0,0,1,8.05,0A1.34,1.34,0,0,1,31.12,69.2Z" style="fill:#eae3dd"/><path d="M34.94,69.82A6,6,0,0,1,32.16,71a5.23,5.23,0,0,0,.37-1.9v0a5.39,5.39,0,0,0-3.16-4.92c.69-1.38.48-2.25-.15-2.95A7.92,7.92,0,0,0,32,62.82c1.8.57,2.25,2.16,2.68,3.19a10.69,10.69,0,0,1,.38,1.1C35.34,68.1,35.47,69.25,34.94,69.82Z" style="fill:#ff5718"/><path d="M22.51,73.45A.84.84,0,0,1,22.18,75c-.46-.06-1.42-1.5-3.3-2.94a1.82,1.82,0,0,1-.75-2.17,9.23,9.23,0,0,1,1.44-2.33c.93-1.31.37-2.68.87-3.12a7.35,7.35,0,0,1,1.76-.88c.14.68,1.15,1.35,1.26,1.41a5.4,5.4,0,0,0-1.79,4,1.32,1.32,0,0,0,0,.28A4.88,4.88,0,0,0,22,71S21.63,72.7,22.51,73.45Z" style="fill:#ff5718"/><path d="M34.25,73.19a4.69,4.69,0,0,1-1.4,2.1,9.77,9.77,0,0,1-4,1.84c-4.92,1.22-5.55-.49-5.73-1.11s.55-.82,2.18-.2,3.62-.31,5.31-1.39,2-2.74,2.81-2.55A1,1,0,0,1,34.25,73.19Z" style="fill:#2b2b2b"/><path d="M96.06,102.52c-1.07.09-2.45.17-4.2.25a45.63,45.63,0,0,1-6.84-.35h0L76.48,100s1.52-.13,10.74,0,1.15-.87-7.45-2-2.15-1.24,4.73-1.73,6.62-1-2-1-8.8-1,2.5-1.84,4.82-2.42-5.44-1-7.86.5-.73-2.82,12.07-6,5.36-3.3S72,91.45,78.13,87.32a81,81,0,0,0,6.77-5c1.89-1.61,2.45-2.41.6-1.44-.27.14-.57.3-.91.5-3.79,2.13-11.45,7.08-11.92,7.39,2-2.06,4.16-4,6.3-6l.47-.42.33-.29c1.32-1.2,2.67-2.38,4-3.51.59-.5,1.19-1,1.8-1.45s1-.84,1.59-1.27a5.9,5.9,0,0,1,2-1.08l.19,0c2.82-.49,5.07,8.6,4.94,10.6s1.38,3.37.75,6.37,1.63,2.5,1.38,4.52.25,2,1.87,4C99.59,101.71,99.32,102.22,96.06,102.52Z" style="fill:#ff5d1d"/><path d="M87.22,99.94c-9.22-.12-10.74,0-10.74,0L85,102.42c-7.46-.86-16.37-3.06-17.39-5.1-.84-1.68,0-3.28,1.16-4.69,1-1.13,2.17-2.14,3-3l.89-.9,0,0c.47-.31,8.13-5.26,11.92-7.39.34-.2.64-.36.91-.5,1.85-1,1.29-.17-.6,1.44a81,81,0,0,1-6.77,5c-6.13,4.13-.58,1.62,6.11-1.12s1.76,0-5.36,3.3-9.54,4.2.73,2.82,16.74.2,5.44,1S74,95.2,82.55,95.2s8.82.51,2,1-13.33.61-4.73,1.73S96.44,100.07,87.22,99.94Z" style="fill:#ff791f"/><path d="M28.88,71a3,3,0,1,1,3,3A3,3,0,0,1,28.88,71Z" style="fill:#eae3dd"/><path d="M31.88,49.33a32.43,32.43,0,0,0,12-7.32C48.7,37,50.47,36.3,55.58,34.94s-3.88,7.85-3.5,15.71-3,5.61-14.25,4.86-12.19.56-13.12-1.12S26.15,51.93,31.88,49.33Z" style="fill:#ff3912"/><path d="M43.39,92.57s5.37,3.12,9.25,5.62,7.87-.87,8-4.87,3.74-6,5.12-8.62-.62-11-6.62-5.5-5.63,6.62-13.63,7-9,2-8.12,4S40.86,91.08,43.39,92.57Z" style="fill:#83e2ff"/><path d="M124.36,70.22a176.09,176.09,0,0,0,23.53-.59c11.12-1,27.19-1.48,36.34-8.85,11.77-9.47-4.65-24.85-48.95-24.66-11.61.05-23.31,0-34.88,1.08-5.81.54-12.14,1.89-17.07,5.4-4.47,3.2-10.66,11.4-6,16.75s13,6.54,19.79,7.78A196.06,196.06,0,0,0,124.36,70.22Z" style="fill:#fff;opacity:0.33"/></g></g></svg>