<svg xmlns="http://www.w3.org/2000/svg" viewBox="0 0 296.63 181.54"><title>electric-yellow-cichlid</title><g id="Layer_2" data-name="Layer 2"><g id="Ñëîé_2" data-name="Ñëîé 2"><path d="M273.44,117.57a77.82,77.82,0,0,1-17.55-9.22,5.85,5.85,0,0,1,2.43-1,10.05,10.05,0,0,1,6,1.13c7.37,3.46,13,6.71,18.86,3.9s3.46-7.92,5-8.73-2.82-8-1.73-8c.59,0,1.57-.72,2.91-2.18,2.13,1.56.43,6.71,2.51,11.06C294,109.12,289.48,123.64,273.44,117.57Z" style="fill:#2b2b2b"/><path d="M269.43,86c10.41,3.09,20.32,6,6.67,5s-21.3-1-8.78,5,12,7.58,2.6,4.76-19.51-5.31-8.94,0,14.3,8.08,4.88,5.48-13.27-3-7.54,1a5.85,5.85,0,0,0-2.43,1c-1.51-1.07-2.83-2.09-4-3-.42-4,.15-8.11,2.9-11.48,5.42-6.6,5.43-15.49,2.61-23.2A48.19,48.19,0,0,1,255,58.47h0c3.89-1.63,23.82-9.93,23.53-8-.33,2.19-23.25,12.36-15.94,9.56s20.6-3.71,11.27,0-17.93,5.64-10.13,5.48,21.3,0,12.68,1.3-21.13,2.69-13.33,3.78,24.39,3.7,13.33,4-19.18,2.28-8.13,3.74,21.46,3.84,9.6,3.46S259,82.94,269.43,86Z" style="fill:#fca822"/><path d="M293.82,54.49s-2.39,3.25-1.95,5,1.51,2.17-.65,3.25.65,4.77-.44,5.85.22,3.68-.86,4.77,1.73,5.64-.22,6.29-2.39,7.85-.65,8.26-2.6,4.09,0,5.39a1.3,1.3,0,0,1,.31.21C288,95,287,95.68,286.45,95.68c-1.09,0,3.25,7.15,1.73,8s.87,5.91-5,8.73-11.49-.44-18.86-3.9a10.05,10.05,0,0,0-6-1.13c-5.73-4-1.89-3.59,7.54-1s5.69-.16-4.88-5.48-.49-2.81,8.94,0,9.92,1.26-2.6-4.76-4.88-6,8.78-5,3.74-1.95-6.67-5-3.41-4.55,8.46-4.18,1.46-2-9.6-3.46-2.92-3.41,8.13-3.74-5.53-2.93-13.33-4,4.72-2.48,13.33-3.78-4.87-1.47-12.68-1.3.81-1.79,10.13-5.48-3.95-2.81-11.27,0,15.61-7.37,15.94-9.56c.29-2-19.64,6.32-23.53,8-.1-1.27-.15-2.39-.18-3.31,10.52-7.12,27.58-17.9,35.95-16.26C301.84,41.05,293.82,54.49,293.82,54.49Z" style="fill:#f4d13b"/><path d="M243.09,92.56c-5.85-3.11-25.57-2.74-42.26,3.12s-52,7.93-52.58,8c-.85-5.16-9.92-12.24-44.84-18.53-4.13-5.62-9-10.21-13.67-12.64,34.57-20.4,71.63-11.69,97-1.88s45.75,6.23,54.63,2.55,10,3.9,10.41,9.53S249,95.68,243.09,92.56Z" style="fill:#fca822"/><path d="M232.18,95.58a14.23,14.23,0,0,0-2.74.75c-1.13.42-3.12,1.35-5.85,2.62a319.12,319.12,0,0,1-38,15.07c-5.81,1.84-12,3.58-18.45,5l-2.46.55a170.75,170.75,0,0,1-33.48,4c-2.82,0-5.65,0-8.46,0s-5.49-.11-8.23-.23q-10.5-.43-20.8-1.66l-2.41-.3A233.27,233.27,0,0,1,61,115.51c14.93-1.27,25.48-6.37,30.48-18.32,6.34,8.58,23.2,20.14,29.83,21.47,8.66,1.73,14.73,1.08,15.38-1.53s-1.06-1.73,2.83-2.6,1.09-2.16,4.34-3.78h0a85.31,85.31,0,0,0,40.52-5.09C212.17,94.84,225.84,94.39,232.18,95.58Z" style="fill:#eac839"/><path d="M254.79,93.83c-2.75,3.37-3.32,7.44-2.9,11.48-2.46-2-4.23-3.65-5.54-4.65-3.22-2.46-8.09-6.07-14.17-5.08-6.34-1.19-20-.74-47.83,10.07a85.31,85.31,0,0,1-40.52,5.09c1.34-.67,5-3.39,4.42-7.1.59,0,36-2.16,52.58-8s36.41-6.23,42.26-3.12,9.11-4.25,8.68-9.89-1.52-13.22-10.41-9.53-29.26,7.26-54.63-2.55-62.42-18.52-97,1.88a15.86,15.86,0,0,0-5.88-1.84,11.06,11.06,0,0,0-1.82,0c-8.23.75,11.24,20.46-30.59,42.08A177,177,0,0,1,8,92.23c.66.36,11.28,5.88,21.35-5.87a130.11,130.11,0,0,1,9.51-10.12,10.08,10.08,0,0,0,5,1.49h.36A10.16,10.16,0,0,0,54.35,67.58a10,10,0,0,0-.52-3.21C71.72,52.65,99,42.79,138,49.73c0,0,51.16,8.88,75.66,19.72,20.44,9,29.86-.94,32.29-8.27.44-.27.87-.55,1.3-.84,1.53-1,4.23-2.9,7.62-5.19,0,.92.08,2,.18,3.31h0a48.19,48.19,0,0,0,2.39,12.16C260.22,78.34,260.21,87.23,254.79,93.83Z" style="fill:#f9b723"/><path d="M91.45,97.19c-5,12-15.55,17-30.48,18.32h0q-4.8-1.29-9.5-2.8C93.28,91.09,73.81,71.38,82,70.63a11.06,11.06,0,0,1,1.82,0s9,4.5,9.83,14.89a9,9,0,0,0-4.5,5C88.53,92.16,89.48,94.54,91.45,97.19Z" style="fill:#f4d13b"/><path d="M223.18,58.74h0a123.51,123.51,0,0,1-11.07-7.28c-23-16.69-86.69-25.58-86.71-25.58a106,106,0,0,0-13.91-.77c-3.24,0-6.48.06-9.72.26A139.09,139.09,0,0,0,87.36,27c-2,.33-4,.7-5.93,1.11a141.51,141.51,0,0,0-25.61,8,147.81,147.81,0,0,0-20.94,11A151.16,151.16,0,0,0,18.8,58.78a132,132,0,0,0-11,10.27C6.57,70.32,5.38,71.62,4.24,73c-1,1.16-2.61,2.41-3,4-.58,2.49,4.24,4,5.88,4.75,2.18,1,4.41,1.92,6.62,2.85,3.36,1.4,2.27,2.6,1.84,3.14s-1.84,0-1.84,0S8.42,84.81,5.17,83.1.54,82.21.05,84.33s2.87,4.41,2.87,4.41C4.59,89.93,6.27,91.09,8,92.21l0,0c.66.36,11.28,5.88,21.35-5.87a130.11,130.11,0,0,1,9.51-10.12,10.2,10.2,0,0,1-3.14-3,10.16,10.16,0,0,1,8.45-15.79h.42a10.17,10.17,0,0,1,9.23,6.94C71.72,52.65,99,42.79,138,49.73c0,0,51.16,8.88,75.66,19.72,20.44,9,29.86-.94,32.29-8.27C241.2,64.14,236.06,66.09,223.18,58.74ZM24.06,87.33c-2.6,3.9-5.64,2.39-5-1.3s-4.34-6.83-4.34-6.83c-1.18-.87-.65-2.16,3-1.19S26.66,83.43,24.06,87.33ZM121.7,42.57c-10.8-1.35-21.87-1.23-32.26,2.37-9,3.13-21.3,8.58-30.59,3.48a6.62,6.62,0,0,1-2.15-1.54c-4.28-5.81,16.71-10.65,19.37-11.39,16-4.41,34.06-5.74,50.19-1.16C148.37,40.62,135.58,44.3,121.7,42.57Z" style="fill:#f4d13b"/><path d="M48.06,67.58a3.81,3.81,0,0,1-.12,1,3.87,3.87,0,0,1-3,2.84,3.38,3.38,0,0,1-.72.08h-.08A3.86,3.86,0,0,1,40.6,69a3.72,3.72,0,0,1-.29-1.45,3.89,3.89,0,0,1,3.87-3.87,3.85,3.85,0,0,1,3.48,2.16A3.78,3.78,0,0,1,48.06,67.58Z" style="fill:#2b2b2b"/><path d="M103.41,85.11c-1.1-.2-2.23-.4-3.38-.59a12.07,12.07,0,0,0-6.34,1c-.78-10.39-9.83-14.89-9.83-14.89a15.86,15.86,0,0,1,5.88,1.84C94.44,74.9,99.28,79.49,103.41,85.11Z" style="fill:#eac839"/><path d="M143.83,110.74h0c-3.25,1.62-.44,2.92-4.34,3.78s-2.18,0-2.83,2.6-6.72,3.26-15.38,1.53c-6.63-1.33-23.49-12.89-29.83-21.47-2-2.65-2.92-5-2.26-6.72a9,9,0,0,1,4.5-5,12.07,12.07,0,0,1,6.34-1c1.15.19,2.28.39,3.38.59,34.92,6.29,44,13.37,44.84,18.53C148.85,107.35,145.17,110.07,143.83,110.74Z" style="fill:#f9d84e"/><path d="M121.7,42.57c-10.8-1.35-21.87-1.23-32.26,2.37-9,3.13-21.3,8.58-30.59,3.48a6.62,6.62,0,0,1-2.15-1.54c-4.28-5.81,16.71-10.65,19.37-11.39,16-4.41,34.06-5.74,50.19-1.16C148.37,40.62,135.58,44.3,121.7,42.57Z" style="fill:#f7e07c"/><path d="M24.06,87.33c-2.6,3.9-5.64,2.39-5-1.3s-4.34-6.83-4.34-6.83c-1.18-.87-.65-2.16,3-1.19S26.66,83.43,24.06,87.33Z" style="fill:#f4d13b"/><path d="M261.09,35.63c-1.11,1-2.42,2.75-4.64,5-2-1.37-4.81-2.77-7.72-2.42-5.42.66-2.82-3.9-7.37-2.81s-6.93-2.82-10-1.52-4.34-2.38-8-1.52-2.17-4.94-6.94-3-4.33-2.84-8.45-2.19-3.47-3.28-7.37-2.07-3-2.48-6.72-1.83-6.28-4.34-8.67-3-3.25-3-6.07-1.73-4.34-2.6-6.07-1.73-4.33-3.69-6.93-2.61-2.83-2.81-6.73-1.73-6.93-3.25-9.75-2.38-5.84-3-8.77-1.3-7.49-1.56-9.44-.45-3.25-5.19-6.72-2.38-6.94-1.73-10,.66-7.59,0-8.67,2.6-3.9-.43-5,3-1.82-.21-4,3.69c-1.63,3-4.48,2.87-7.31,5.29,2.61-5.86,6.44-13.84,7.31-12.44,1.35,2.16,7.41-7.81,9.58-5s8.67-5.42,9.32-2.6S127-1.76,127.27.57s9.24-2.65,10.94.81,9.18-3,10.1,1.09,8.73-2.17,10,1.95,7.81-.22,8,2.39,14.31.65,13.66,3.68,5.2.6,6.06,3,6.73-1.71,7.16,1.32,7.8.22,8.24,3.69,5,0,5.85,2.6,6.07-.43,7.15,2.17,10.19,0,8,1.83,6.72.17,6.72,1.88,9.76-2.57,8,0,8.46.4,7.16,1.93,12.57,1,9.31,2.55S264.55,32.6,261.09,35.63Z" style="fill:#f4d13b"/><path d="M256.45,40.65a49.32,49.32,0,0,1-6.5,5.56c-1.65-.92-4.12-1.86-6.2-.82-3.47,1.73-6.29-3.9-7.59-2.39s-2.82-2.72-6.07-2-4.34-2.76-7.15-1.67-3.91-3-8.24-1.09-5.86-3.9-9.11-2.38-3.25-3.47-6.93-2.17-9.1-4.11-10.84-3.25-4.12-3.9-6.72-2.39-6.07-5.66-8.67-2.93-4.55-1.48-8.23-1-6.29-3-9.11-1.91-2.5-4.33-6.78-2-8.61-2.52-11.65-.61-7.07-2.6-9.39-.46-6.91-2.47-8.62-.59-6.48-.5-7.56.8-5.21.21-6.29,1.73-1.84,4.18-3,4.26A139.09,139.09,0,0,0,87.36,27s1.06-2.57,2.5-5.79c2.83-2.42,5.68-2.31,7.31-5.29,2.13-3.9,2.86-.22,4-3.69s3.9-.43,5-3,5.64-.22,8.67-2.6,6.51,2.17,10-.66,4.77,3.48,6.72,2.38,6.5,2.18,9.44.45,5.95,2.16,8.77,1.3,5.85,3.46,9.75,2.38,4.12,2.82,6.73,1.73,5.2,3.47,6.93,2.61,3.25,3,6.07,1.73,3.68,3,6.07,1.73,5,3.69,8.67,3,2.82,3,6.72,1.83,3.25,2.72,7.37,2.07,3.69,4.12,8.45,2.19,3.25,3.88,6.94,3,5,2.82,8,1.52,5.42,2.6,10,1.52,1.95,3.47,7.37,2.81C251.64,37.88,254.46,39.28,256.45,40.65Z" style="fill:#2b2b2b"/><path d="M250,46.21c-5.48,3.94-13.74,8.41-26.77,12.53h0a123.51,123.51,0,0,1-11.07-7.28c-23-16.69-86.69-25.58-86.71-25.58a106,106,0,0,0-13.91-.77c-3.24,0-6.48.06-9.72.26,1.2-.08,2-2.74,3-4.26s5.2-.43,6.29-1.73,5.85,1.08,7.56-.8,6.31,2.75,8.62.59,6.36,2.37,9.39.46,7.38,3,11.65.61,4,3,6.78,2,5.42,2.39,9.11,1.91,5.63,3.73,8.23,1,6.07,4.46,8.67,2.93,5,3.26,6.72,2.39S195,35,198.66,33.68s3.68,3.69,6.93,2.17,4.78,4.34,9.11,2.38,5.42,2.17,8.24,1.09,3.9,2.38,7.15,1.67,4.77,3.53,6.07,2,4.12,4.12,7.59,2.39C245.83,44.35,248.3,45.29,250,46.21Z" style="fill:#f7e07c"/><path d="M234,125.16c1.94,1.3-5.06-.44-3.62,1.3s-9.18-.65-7.88,1.3-19.51,3-23.41,1.52-4.33.21-2.82,1.73-15.17-4.77-13.44-2.6-13.91-1.53-18.11-8.79l2.46-.55s9.26,5.17,11,5.49,2-1.94,3.9-.89,3.41-1.7,5.85,0,2.6-.51,5.86.92,5.52-1.43,8.61,0,2.77-1.41,6.34.41,4.72-1.49,7,0,3.74-2.24,6.18-.61,3.25-1.3,4.88-.73,2.6-1.79,3.9-1.35,2.47-4.27,3.26-3.7c.36.26,1.57-.72,2.7-2.26,1.89,1.72-2.66,3.84-.11,5.33S232.07,123.86,234,125.16Z" style="fill:#f7e07c"/><path d="M227.92,113.44c1.3,1.74-6.72-.86-6.72,1.09s-4.77,0-4.55,1.3-9.32-2.16-8.67.44-3-.21-3.9,1.52-11.55.91-18.45-3.77a319.12,319.12,0,0,0,38-15.07s9.56,2.8,10.41,7.13c.5,2.51.56,5,.95,6.89C231.51,112.62,227.11,112.36,227.92,113.44Z" style="fill:#f4d13b"/><path d="M236.7,116.36c-1.13,1.54-2.34,2.52-2.7,2.26-.79-.57-2,4.15-3.26,3.7s-2.28,1.92-3.9,1.35-2.44,2.35-4.88.73-3.9,2.11-6.18.61-3.41,1.83-7,0-3.25,1-6.34-.41-5.36,1.43-8.61,0-3.42.78-5.86-.92-3.9,1-5.85,0-2.11,1.22-3.9.89-11-5.49-11-5.49c6.46-1.47,12.64-3.21,18.45-5,6.9,4.68,17.58,5.5,18.45,3.77s4.55,1.08,3.9-1.52,8.89.86,8.67-.44,4.55.65,4.55-1.3,8,.65,6.72-1.09c-.81-1.08,3.59-.82,7-.47a5.34,5.34,0,0,0,1.64,3.3Z" style="fill:#2b2b2b"/><path d="M133.51,179.29c-2.85,5.61-10.72-1-10.72-1C92,156.59,91.34,121.45,91.34,121.45l2.41.3S94.8,159.29,133.51,179.29Z" style="fill:#f4d13b"/><path d="M134.84,167.69c-.1,1.89-.19,4.23-.34,7.11a11.33,11.33,0,0,1-1,4.49c-38.71-20-39.76-57.54-39.76-57.54q10.29,1.22,20.8,1.66s5.78,9.6,12.72,11.28-2.64,2.93-7.08-.65,4.12,9,10,13.12-4.33-.33-8.78-4.88-2.38,2.39,4.66,8,10.3,11.49,5.42,7.48C127.73,154.71,127.36,160.28,134.84,167.69Z" style="fill:#2b2b2b"/><path d="M137.1,160.05c-1.68-.17-1.93,1.1-2.26,7.64-7.48-7.41-7.11-13-3.38-9.91,4.88,4,1.63-1.84-5.42-7.48s-9.1-12.57-4.66-8,14.63,9,8.78,4.88-14.41-16.69-10-13.12,14,2.34,7.08.65-12.72-11.28-12.72-11.28q4.11.18,8.23.23c5.84,4.12,12.58,7.59,9.77,7.61s-6.72-1.32-1.74,2.14,6.29,7.16,2.82,5.85,5.2,8.24,3.25,8.24,2,5.64.22,5.42S139.26,160.28,137.1,160.05Z" style="fill:#f7e07c"/><path d="M41.18,60.75c-.35,1.19.2,1.6.1,3a4.82,4.82,0,0,0-1.22,6.33,1.53,1.53,0,0,1-1.08.52,4.34,4.34,0,0,0-3.25,2.62,10.16,10.16,0,0,1,8.45-15.79h.42C43.3,58.38,41.44,59.86,41.18,60.75Z" style="fill:#afaf5a"/><path d="M43.82,77.73a10.08,10.08,0,0,1-5-1.49,10.2,10.2,0,0,1-3.14-3A4.34,4.34,0,0,1,39,70.59a1.53,1.53,0,0,0,1.08-.52,4.83,4.83,0,0,0,3.18,2.24,4.91,4.91,0,0,0,.94.09,4.17,4.17,0,0,0,.71-.06,6.31,6.31,0,0,0,0,1.17A8.17,8.17,0,0,1,43.82,77.73Z" style="fill:#515149"/><path d="M54.35,67.58A10.16,10.16,0,0,1,44.18,77.74h-.36a8.17,8.17,0,0,0,1.1-4.22,6.31,6.31,0,0,1,0-1.17A4.79,4.79,0,0,0,49,67.73a.76.76,0,0,0,0-.15,4.76,4.76,0,0,0-.23-1.47c1,.3,1.88.5,2.32-1.29a22.26,22.26,0,0,0,.76-3.9,10.17,10.17,0,0,1,2,3.45A10,10,0,0,1,54.35,67.58Z" style="fill:#afaf5a"/><path d="M51.86,60.92a22.26,22.26,0,0,1-.76,3.9c-.44,1.79-1.35,1.59-2.32,1.29a4.83,4.83,0,0,0-4.6-3.35,4.76,4.76,0,0,0-2.9,1c.1-1.39-.45-1.8-.1-3,.26-.89,2.12-2.37,3.42-3.32A10.12,10.12,0,0,1,51.86,60.92Z" style="fill:#515149"/><path d="M48.78,66.11a4.83,4.83,0,0,0-4.6-3.35,4.82,4.82,0,0,0-4.12,7.31,4.83,4.83,0,0,0,3.18,2.24,4.91,4.91,0,0,0,.94.09,4.17,4.17,0,0,0,.71-.06A4.79,4.79,0,0,0,49,67.73a.76.76,0,0,0,0-.15A4.76,4.76,0,0,0,48.78,66.11Zm-.84,2.42a3.87,3.87,0,0,1-3,2.84,3.38,3.38,0,0,1-.72.08h-.08A3.86,3.86,0,0,1,40.6,69a3.72,3.72,0,0,1-.29-1.45,3.89,3.89,0,0,1,3.87-3.87,3.85,3.85,0,0,1,3.48,2.16,3.84,3.84,0,0,1,.28,2.66Z" style="fill:#eae3dd"/><circle cx="46.95" cy="67.4" r="2.09" style="fill:#eae3dd"/><path d="M284.17,52.68a5.71,5.71,0,0,1,1.63,3.9c0,2.38,10.19-6.4,7.26-12.57s-19.08-.36-18.32,2.2S280.38,45.41,284.17,52.68Z" style="fill:#f7e07c"/><path d="M121.15,95.13a.07.07,0,0,0,0,0,.37.37,0,0,1,.15-.27,4.3,4.3,0,0,1,2.94-.64,21.62,21.62,0,0,1,7.34,2c8.94,3.74,15.44,10.34,10.24,12.65s-5.55,5.85-8.3,7.57-10.56,1.24-18-5.1-.33-2.44,4.87-.49,9.76,1.64,5-1.37-12.19-9.69-5-6.6,10.33,2.28,7.6.16-5.89-4.82,0-2.54,6.87-.68.82-3.55c-2-.93-5.14-1-7.26-1.51C121.37,95.32,121.2,95.26,121.15,95.13Z" style="fill:#f7e07c"/></g></g></svg>