<svg xmlns="http://www.w3.org/2000/svg" viewBox="0 0 233.74 220.4"><title>Asset 8</title><g id="Layer_2" data-name="Layer 2"><g id="Ñëîé_2" data-name="Ñëîé 2"><path d="M53.81,81.52C42.68,84.46,33.06,89.32,25,92.36c-10.85,4.07-15.47,6-19.81,6.24s-3.12,2.17-1.9,3.53-1-.14-2.31-.95-1.62,2.71,1.9,8.14,10.05,8.41,11,14.38S21.15,134.83,28.21,135a11.67,11.67,0,0,0,10.27-6.19h0A14.41,14.41,0,0,0,40,124.89h0a13.53,13.53,0,0,0,.38-2.68c.27-6.38,4.48-15.88.41-19.13s-5-6.38-2.17-7.74,3.53.82,6.65,1.22,5.29-3.12,4.48-5.42-.41-4.75,1.9-5.84C53.22,84.58,54.26,83.5,53.81,81.52ZM14.64,109a4.17,4.17,0,1,1,4.16-4.17A4.17,4.17,0,0,1,14.64,109Zm24.52-3.26c2.53,1.9,2.17,4.79.54,11.4a37.36,37.36,0,0,1-2.88,8.29c-1.63,3.14-4.23,6.14-8,6.11s-7.6-2.24-10-5c-3.35-3.89.45-2.71,5.61-2.35a9.33,9.33,0,0,0,7.49-2.32,31,31,0,0,0,3.58-4.17,14.53,14.53,0,0,0,2.78-5,9.08,9.08,0,0,0-1.17-7c-.29-.45-.87-.81-1-1.34a.46.46,0,0,1,0-.24C36.48,103.44,38.82,105.49,39.16,105.75Z" style="fill:#6799a0"/><path d="M56.89,97.42c-2.08-.63-1,.09-2,1.81,0,.08-.09.15-.13.22a4.17,4.17,0,0,1-.28.38,2.65,2.65,0,0,1-2.23,1.09h0c-.46,3.12-1.21,6.33-2.8,8.09-1.74,1.89-2.7,5-1,3.52s3.62-2.44,4.53-5.7c.68-2.44,4-6.65,5.64-8.59A7,7,0,0,0,56.89,97.42Z" style="fill:#cbc4a0"/><path d="M130.35,178.57c-4.89-10.31-8.51-18.09-7.06-25.15s5.79-10.68,3.53-17.92-2.44-13.08-6.78-13.59,1.8,2.38,1.62,12-6.73,16.46-3.18,29.68,6.93,22.79,10.85,28.76-4.77-2.71-8.21-11.76-8.68-20.91-6.33-28.64,4.88-11,3.8-19.12-2.8-8-4.39-8.24,2.39,10.84-1.41,21.12-8.32,17-4.52,28,2,11.4-1.43,1.82-4.31-10.68-2-17.91,6.31-16.33,6.49-19.2,1.44-14.1-2.17-13.83-5.25-3.84-3.62,2.2,2.35,18.16-2.72,28.11-3.43,23.7,2.9,32.21-4.89,1.26-7.42-12.67-.18-15,2.17-21.17,3.8-14.65,2.35-19.36.73-8.3-2.89-8.31-3.74-1.1-2.77,4.51,3.92,8.14,0,19.18-6.28,13.59-4.11,19.82,4.89,14.2,1.63,7.14-6-9.95-4.7-14.11,7-15.6,6-21.82-.36-14-2.72-14.72-5.33-2.34-3.57.82,5.39,19,1,25.53-3.87,18.33-1.57,25.39-.05,10.31-.05,14.47-2.62-4.07-1.67-8.1-2.32-6.91-2.86-14.6.36-13,2-17.16,3.44-5.23,2.54-13.53S88,126.87,85.57,126.76s1.35,3.54,0,10.13-11.31,17.25-8.24,23.77,5.68,12.12,4,19.18-1.66,9.95-1.66,6,1.27-10.31,0-13.93-7.41-12.58-5.42-17c1-2.24,3.58-6,5.82-9.81h0c2.19-3.77,4.07-7.68,3.85-10.46a34.11,34.11,0,0,0-3-10.62c-.15-.31-.24-.48-.24-.48a6.09,6.09,0,0,0,.63-1.7h0c12.22.59,32.15.44,42.8-3.25,0,0,6.95,13.7,4.42,24.74s-3.62,17.73,1.81,31.84S135.23,188.88,130.35,178.57Z" style="fill:#d8ca93"/><circle cx="14.64" cy="105.21" r="2.17" style="fill:#2b2b2b"/><path d="M14.64,100.68a4.17,4.17,0,1,0,4.16,4.16A4.17,4.17,0,0,0,14.64,100.68Zm0,6.7a2.18,2.18,0,1,1,2.17-2.17A2.17,2.17,0,0,1,14.64,107.38Z" style="fill:#eae3dd"/><path d="M39.7,117.15a37.36,37.36,0,0,1-2.88,8.29c-1.63,3.14-4.23,6.14-8,6.11s-7.61-2.24-10-5c-3.35-3.89.45-2.71,5.61-2.35a9.3,9.3,0,0,0,7.48-2.32,30.37,30.37,0,0,0,3.59-4.17,14.53,14.53,0,0,0,2.78-5,9.12,9.12,0,0,0-1.17-7c-.29-.45-.87-.81-1-1.34a.32.32,0,0,1,0-.24c.35-.64,2.69,1.41,3,1.67C41.69,107.65,41.33,110.54,39.7,117.15Z" style="fill:#548a8e"/><path d="M58.64,98.24c-1.61,1.94-5,6.15-5.64,8.59-.91,3.26-2.81,4.25-4.53,5.7s-.75-1.63,1-3.52c1.59-1.76,2.34-5,2.8-8.09h0a2.65,2.65,0,0,0,2.23-1.09,4.17,4.17,0,0,0,.28-.38c0-.07.09-.14.13-.22,1-1.72-.09-2.44,2-1.81A7,7,0,0,1,58.64,98.24Z" style="fill:#f4e9ba"/><path d="M63.67,102.49l.09.11-.45.25-.25.14c-.36.21-.66.4-1,.6l-.16.11-.46.36-.27.23-.13.13-.12.12-.36.41a.76.76,0,0,0-.11.14l-.22.28a18.54,18.54,0,0,0-1,1.59l-.24.42c-1.63,2.89-1.72,6.15-5,8.14s-6.52,2.08-3.53.45a14.58,14.58,0,0,0,1.48-.91l.3-.22s0,0,0,0a3.11,3.11,0,0,0,.33-.29c.12-.1.22-.21.33-.32l.13-.15a2.09,2.09,0,0,0,.14-.17l.14-.18a0,0,0,0,1,0,0c.09-.12.17-.25.25-.38a7.18,7.18,0,0,0,.4-.68l.14-.25c.09-.17.18-.36.27-.55l.15-.3c.07-.15.13-.29.21-.44h0c.34-.74.74-1.63,1.22-2.72,1.69-3.75,5.6-7,7.69-8.48C63.57,100.62,62.86,101.39,63.67,102.49Z" style="fill:#f4e9ba"/><path d="M70.54,106.64c-1.33,2.52-3.21,2.83-6,3.69-3.08,1-2.9,2.93-4.25,6.45s-1.45,4.62-5.7,4.89-7.42-1.18-3.53-1.36,4.61-1.36,7.33-6.06,2.08-4.43,5.24-6.87a9.1,9.1,0,0,0,2.54-3.07,2.78,2.78,0,0,0,1,.08A4,4,0,0,1,70.54,106.64Z" style="fill:#f4e9ba"/><path d="M78.14,111.91c-2.25.14-6.33.79-7.86,3.61-2.17,4-2.32,5.22-8.62,6.18s3.3-1.56,4.65-4.91a18.43,18.43,0,0,1,5.9-8,3.27,3.27,0,0,0,3,.67C76.8,108.89,76.3,110.14,78.14,111.91Z" style="fill:#f4e9ba"/><path d="M81.32,121.8h0a6.09,6.09,0,0,1-.63,1.7c-.07.16-.15.31-.22.46-2.56,0-5,.89-5.85,2.43-1.45,2.64-3,3.69-7.33,2.39s-7.23-2.23-12.57-3.57-6.52-1.82-4-1.91,3.7,0,10.92,1.45,8.89-.64,11.78-4.26A7.94,7.94,0,0,1,78.15,118a8.7,8.7,0,0,0,2.46,2.27A1.49,1.49,0,0,1,81.32,121.8Z" style="fill:#f4e9ba"/><path d="M80.14,135A3.56,3.56,0,0,1,80,136.2a6.68,6.68,0,0,1-5.5.85c-7.24-1.54-7.42-1.72-10.5-4.8s-9.86-6-12.21-5.86,1.18.89,4.71,3.6,6.15,3.17,7.6,6.15c1.19,2.47,5.58,7.41,12.51,8.64-.79.69-1.13,1.14-.84,2.22.36,1.36-.37,1-1.9,2.08-.47.33-.89.66-1.27.95-2.76-.55-6.35-1.86-8-5-2.81-5.39-2.71-8.37-7-10.91s-8.14-3.53-9.31-6.24-2.09-3.16-1.45,0,4.16,6.79,7.87,8.51,4.48,4,5.36,6.87c.46,1.51.83,3.87,1.59,6.16-1.81-1.93-2.09-2-3.42-1.09s-2.27,1.71-2.27.81-1.4-1.71-2.33-3.49c0,0,1.17-4-1.37-6.91s-5.53-2.63-6.43-5.7-2.55-2.35-1.59.72.27,5,2.38,6.4a2.85,2.85,0,0,1-.43-.16c-1.71-.81-.9.19-1.9,1.09s-1.63,1.08-1-3.53-.64-7.51-1.27-9.59a3,3,0,0,1-.1-1.61c.27-1,1.26-1.83,2.63-3.27a2.39,2.39,0,0,0,.59-3.09,11.47,11.47,0,0,0-1.85-2.27c-1.63-1.75.63-3.06.63-3.06s2.35-2.71,2-4.88-.09-1.18,1.54-5,1.9-4.7,3.44-4.16a3.79,3.79,0,0,0,1.25.24c-.46,3.12-1.21,6.33-2.8,8.09-1.74,1.89-2.7,5-1,3.52s3.62-2.44,4.53-5.7c.68-2.44,4-6.65,5.64-8.59.86.51,1.3.92,1.6.45.45-.73,1.35-1.18,3,0,.59.43.65.81.54,1.21-2.09,1.52-6,4.73-7.69,8.48-.48,1.09-.88,2-1.22,2.72h0c-.08.15-.14.29-.21.44l-.15.3c-.09.19-.18.38-.27.55l-.14.25a7.18,7.18,0,0,1-.4.68c-.08.13-.16.26-.25.38a0,0,0,0,0,0,0l-.14.18a2.09,2.09,0,0,1-.14.17l-.13.15c-.11.11-.21.22-.33.32a3.11,3.11,0,0,1-.33.29s0,0,0,0l-.3.22a14.58,14.58,0,0,1-1.48.91c-3,1.63.27,1.54,3.53-.45s3.34-5.25,5-8.14l.24-.42a18.54,18.54,0,0,1,1-1.59l.22-.28a.76.76,0,0,1,.11-.14l.36-.41.12-.12.13-.13.27-.23.46-.36.16-.11c.29-.2.59-.39,1-.6l.25-.14.45-.25.09.12a4.44,4.44,0,0,0,2.36,1.59,9.1,9.1,0,0,1-2.54,3.07c-3.16,2.44-2.53,2.17-5.24,6.87s-3.44,5.88-7.33,6.06-.73,1.63,3.53,1.36,4.34-1.36,5.7-4.89,1.17-5.48,4.25-6.45c2.75-.86,4.63-1.17,6-3.69a1.74,1.74,0,0,1,.1.19,5.18,5.18,0,0,0,1.57,2,18.43,18.43,0,0,0-5.9,8c-1.35,3.35-11,5.87-4.65,4.91s6.45-2.2,8.62-6.18c1.53-2.82,5.61-3.47,7.86-3.61a8.1,8.1,0,0,0,.73.62c2.71,2.08.54,1.81-.72,3.26a1.67,1.67,0,0,0,0,2.16,7.94,7.94,0,0,0-4.71,2.54c-2.89,3.62-4.57,5.71-11.78,4.26s-8.39-1.55-10.92-1.45-1.36.57,4,1.91,8.23,2.27,12.57,3.57,5.88.25,7.33-2.39c.85-1.54,3.29-2.45,5.85-2.43a5.63,5.63,0,0,0-.33.87c-.36,1.45,1,1.36-.64,3.17s-.45,2.08.65,2.9S80.05,133.25,80.14,135Z" style="fill:#ead98f"/><path d="M53.74,145.68a7.1,7.1,0,0,1-.47-1.12A8.44,8.44,0,0,0,50.19,140a1.19,1.19,0,0,0-1.07-.13,4.46,4.46,0,0,1-2.39.29h0c-2.11-1.37-1.42-3.33-2.38-6.4s.69-3.8,1.59-.72,3.89,2.8,6.43,5.7S53.74,145.68,53.74,145.68Z" style="fill:#f4e9ba"/><path d="M52.36,154.33a2.31,2.31,0,0,1-.49,1.3c-1,1.26-3.08,1.69-4.21,2.68-1.45,1.26-1.81,1.8-1.09,4s-1.26,8.14-1.8,4.88-1.45-2.53-6.29-13-.11-25,0-25.36h0A14.41,14.41,0,0,0,40,124.89h0l0,0c.19-.14.91-.46,2,1.54a3,3,0,0,0,.1,1.61c.63,2.08,1.9,5,1.27,9.59s0,4.43,1,3.53.19-1.9,1.9-1.09a2.85,2.85,0,0,0,.43.16h0a4.46,4.46,0,0,0,2.39-.29C47.32,147.72,52.54,152,52.36,154.33Z" style="fill:#99d8dd"/><path d="M78.6,140.94c1.9,1.53,0,2.17-1.27,3.25l-.68.59h0c-6.93-1.23-11.32-6.17-12.51-8.64-1.45-3-4.07-3.44-7.6-6.15s-7.06-3.44-4.71-3.6S61,129.18,64,132.25s3.26,3.26,10.5,4.8a6.68,6.68,0,0,0,5.5-.85c-.26.87-1,1.38-2.25,2C76,139.13,76.7,139.4,78.6,140.94Z" style="fill:#f4e9ba"/><path d="M72.63,150c-.85.65-1.49,1.05-2,.68-.73-.54-2.08.36-3.44,1s-3.44-.09-5.34-2.14l-.09-.1a0,0,0,0,0,0,0c-.76-2.29-1.13-4.65-1.59-6.16-.88-2.89-1.66-5.16-5.36-6.87s-7.24-5.34-7.87-8.51.27-2.71,1.45,0,5.06,3.71,9.31,6.24,4.16,5.52,7,10.91C66.28,148.17,69.87,149.48,72.63,150Z" style="fill:#f4e9ba"/><path d="M154.41,204.81c-1.42-.52-2.4-.41-3,.06-6.57-3.16-15.39-7.92-17.2-11.46a85.12,85.12,0,0,0-6.41-11c-2.53-3.79,3.58,11.41,6.41,15.21s12.95,7.6,8.07,8.5-6.74,0-8.07,3.8-1.93,4-4.89,1.63-.61-6.15-6.58-18.09-10.86-19.17-10.86-24.33-3.44,1.53.9,10.22,8.15,14.47,8.87,21.17c.51,4.74-.45,13,2.2,19.31a17.48,17.48,0,0,1-4.91-2.85,8.52,8.52,0,0,0-2.44-1.44,22,22,0,0,1-1.9-10c.54-9.95-.59-14.29-4-18.82s-1.47-1.08,0,5.07-.57,12.12,0,17.55c.34,3.28.18,5.43,1,8.3a22.11,22.11,0,0,1-4.42-3.59c-1.34-1.6-2.3-1.71-2.88-1.18-2.24-3.66-4-7.6-3.64-10.41.91-6.15-4.16-14.38-5.6-18.77s-2.9,3,0,9.19-.31,10.85,2.11,15.37-3.56,2.18-5-.9-6.33-5.07-7.6-8,.91-9.59,0-13S83,180.74,81.34,192c-1.36,9.23.23,10.25,2,15.56a22.44,22.44,0,0,1-3.61-4.34c-1.22-1.93-2.19-2.45-2.88-2.16-2-4.51-3.92-10.3-2.94-14.85,1.84-8.5,3.23-9.4-.27-17.09s-5.55-10.57-4-12.66-4.09.44-.54,8.58,1.75,10.76,1.93,18.68c.11,4.95-.36,9.84.24,14.81-1.77-2.43-4-2.47-3.73.89a4.77,4.77,0,0,1,0,.92c-2.62-8-6.73-25.74-3.21-36,4.11-12-8.45.41-3,28.65-1.14-1.53-1.7-1.4-1.74,1-.08,3.44-1.57,1.27-3.74-3.44s-3.8-8.32-4.74-4.34c-.05.23-.11.44-.17.64-.68-5.53-.27-11.95,3.12-17.73,8.13-13.85,7.82-16,5.89-13.36C58.17,158,48.41,168,48.56,185.21c-.3-1.12-.63-2.54-1-4.28-1.53-7.6-.45-7.25,2.62-12.8s1.68-12.5,1.68-12.5a2.31,2.31,0,0,0,.49-1.3c.18-2.36-5-6.61-3.24-14.43a1.19,1.19,0,0,1,1.07.13,8.44,8.44,0,0,1,3.08,4.53,7.1,7.1,0,0,0,.47,1.12c.93,1.78,2.33,2.73,2.33,3.49s.91.09,2.27-.81,1.61-.84,3.42,1.09a0,0,0,0,1,0,0l.09.1c1.9,2.05,4,2.78,5.34,2.14s2.71-1.53,3.44-1c.5.37,1.14,0,2-.68.38-.29.8-.62,1.27-.95,1.53-1.09,2.26-.72,1.9-2.08-.29-1.08,0-1.53.84-2.22h0l.68-.59c1.27-1.08,3.17-1.72,1.27-3.25s-2.62-1.81-.82-2.72c1.3-.64,2-1.15,2.25-2a3.56,3.56,0,0,0,.11-1.23c-.09-1.72,1.1-3.26,0-4.07s-2.27-1.09-.65-2.9.28-1.72.64-3.17a5.63,5.63,0,0,1,.33-.87l.46,0a34.11,34.11,0,0,1,3,10.62c.22,2.78-1.66,6.69-3.85,10.46h0c-2.24,3.85-4.82,7.57-5.82,9.81-2,4.43,4.16,13.39,5.42,17s0,10,0,13.93,0,1.09,1.66-6-.93-12.67-4-19.18,6.88-17.19,8.24-23.77-2.45-10.24,0-10.13,2.62,3.32,3.53,11.63-.91,9.43-2.54,13.53-2.53,9.46-2,17.16,3.8,10.58,2.86,14.6,1.67,12.26,1.67,8.1,2.35-7.42.05-14.47-2.77-18.82,1.57-25.39.73-22.38-1-25.53,1.22-1.56,3.57-.82,1.63,8.49,2.72,14.72-4.7,17.65-6,21.82,1.45,7,4.7,14.11.55-.91-1.63-7.14.18-8.78,4.11-19.82,1-13.57,0-19.18-.85-4.52,2.77-4.51,1.45,3.61,2.89,8.31,0,13.21-2.35,19.36-4.7,7.24-2.17,21.17,13.75,21.17,7.42,12.67-8-22.26-2.9-32.21,4.35-22.07,2.72-28.11,0-1.93,3.62-2.2,2.35,10.95,2.17,13.83-4.16,12-6.49,19.2-1.47,8.32,2,17.91,5.23,9.23,1.43-1.82.72-17.72,4.52-28-.17-21.39,1.41-21.12,3.3.09,4.39,8.24-1.45,11.39-3.8,19.12,2.89,19.59,6.33,28.64,12.12,17.74,8.21,11.76-7.31-15.56-10.85-28.76,3-20.09,3.18-29.68-6-12.48-1.62-12,4.52,6.36,6.78,13.59-2.08,10.87-3.53,17.92,2.17,14.84,7.06,25.15,5.43,10.68,0-3.44-4.34-20.8-1.81-31.84-4.42-24.74-4.42-24.74c.71-.25,1.39-.51,2-.79,5.32,6.09,7.41,13.35,8,20.53h0a40,40,0,0,1-1.53,4.45c-7.52,18.27,4.06,35.82,8,43.06,3.35,6.09,3.37,3.47,6,3.67h0a206.51,206.51,0,0,0,14.45,16C166.35,210.6,158.39,206.25,154.41,204.81Z" style="fill:#e5d8a3"/><path d="M144.46,209.33c-3.26-1.26-3.8,3.08-6.16,3.08s-3.07,1.44-2.71,4.88-4.34,1.45-8.77-1.63-3.35-.54-1.71,2.53c.88,1.65.19,2.06-1.25,1.59-2.65-6.29-1.69-14.57-2.2-19.31-.73-6.7-4.53-12.49-8.87-21.17s-.9-15.39-.9-10.22,4.89,12.39,10.86,24.33,3.61,15.74,6.58,18.09,3.55,2.17,4.89-1.63,3.18-2.89,8.07-3.8-5.25-4.7-8.07-8.5-8.94-19-6.41-15.21a85.12,85.12,0,0,1,6.41,11c1.81,3.54,10.62,8.3,17.2,11.46-1.08.85-.89,2.89.27,4.64C153.5,212.22,147.72,210.6,144.46,209.33Z" style="fill:#99d8dd"/><path d="M111.61,217.63c-.84-2.87-.67-5-1-8.3-.57-5.43,1.47-11.4,0-17.55s-3.42-9.59,0-5.07,4.55,8.87,4,18.82a22.17,22.17,0,0,0,1.89,10c-1.67-.5-1.5,1.25.63,3.79C119.08,221.59,115.23,220,111.61,217.63Z" style="fill:#99d8dd"/><path d="M103.75,216.07c.54,2-1.45,1.58-4.53-1.49s-7-3.62-6.51.18-2.72-1.45-4.16-6-3.62-3.43-3-.9c.35,1.44-.78,1-2.28-.36-1.72-5.31-3.32-6.33-2-15.56,1.66-11.22,2.33-9.05,3.23-5.61s-1.27,10.13,0,13,6.15,4.89,7.6,8,7.42,5.43,5,.9S98,199,95.06,192.87s-1.44-13.57,0-9.19,6.52,12.62,5.61,18.77c-.41,2.81,1.4,6.75,3.64,10.41A3.63,3.63,0,0,0,103.75,216.07Z" style="fill:#99d8dd"/><path d="M76.79,201c-.74.31-1.17,1.56-1.27,3.06-.18,2.9-1.81-1.08-3.62-4.52a7.12,7.12,0,0,0-.66-1.06h0c-.6-5-.13-9.86-.24-14.81-.18-7.92,1.63-10.54-1.93-18.68s2.11-10.67.54-8.58.49,5,4,12.66,2.11,8.59.27,17.09C72.88,190.72,74.76,196.51,76.79,201Z" style="fill:#99d8dd"/><path d="M67.52,200.3h0c-.18,2.15-2.36-1.13-4.48-4.66-.7-1.16-1.28-2.08-1.76-2.71-5.42-28.24,7.13-40.66,3-28.65C60.79,174.56,64.9,192.28,67.52,200.3Z" style="fill:#99d8dd"/><path d="M54,169.08c-3.4,5.78-3.8,12.2-3.12,17.73-.67,2.36-1.39,1.88-2.33-1.55h0v0h0C48.41,168,58.17,158,59.9,155.72,61.82,153.13,62.13,155.23,54,169.08Z" style="fill:#99d8dd"/><path d="M225.79,107.38c5.79,2,6,2.06,4.49,4-2.8-.6-7.43-1.67-11.68-3-6.65-2-11.4-6.52-16.42-5.17s-15.8-.91-22.49-.25-5.87.66.77,1.61,9.78,3,14.93,2.79,6.38-2.9,11.26,0c3.63,2.16,13.23,7.34,20.21,9.83-1.34,3.3.14,3.41,2.19,6.31,2.44,3.46-1.09,2.78-6,8.05-1.6,1.73-1.8,3.25-1.46,4.51-5-.42-11.69-1.45-14.68-4.35-4.89-4.75-6.92-16-14.66-14.79s-16.48,2.26-25.4-.09-14.63-2.62-.93,1.72,21.39,2.91,26.78,3.15,5.11,2.82,7.42,8.52,5.56,8.47,11.13,10.07,5.7,3.63,4.21,5.4-3.94,2.58-8.69-1.9-5.54-5.29-2.84.13c1.89,3.79,3.84,6.59,7.67,9-2.09,1.3-1.37,1.68.87,5.94a6.21,6.21,0,0,1,.84,2.71c-4.64-1.58-13.3-4.83-20-9.64-9.23-6.64-8.55-14.35-14.8-16.2s-20.62-4-26.18-7.67-2.86,1.22,3.72,5.56,22.06,3.26,25.45,9,8,12.07,14.79,17,6.92,11.26,1.9,7.06-3.53-4.21-8.68-1.36-6.82,2.3-6.6,6.65-4.35,9.09-7.9,1.22-2.15-7.46,0-13.71-1.11-13-6-16.69,1.35,1.9,2.57,4.89.7,7-1.55,12.48,2.64,15.06,5.9,19.27c1.89,2.44,3.7,4.19,4.39,6-2,.59-4,.86-5.16,3-1.2,2.25-2.4,3.13-5.14,2.65a20.63,20.63,0,0,1-6.31-5.68c-5-6.38-7.73-15.47-7.6-23.75s-2.06-15.33-6.8-20.22-6.22-7.32-2.42,1.09,6.51,9.09,6.51,23.48c0,11.86,2.4,21.33,9.56,26.86-.06.26-.12.53-.18.82-.36,1.67-3.6.87-7.14-.49,0,0-13.19-13.89-10.91-24.89s-.29-19-3.54-26.19-4.89-8.27-2.44,2.31,4.47,13.16,3.39,24.15c-.81,8.13,2.24,16,7,21.83l-.77-.34a5.16,5.16,0,0,0-1.79-.48h0c-2.62-.2-2.64,2.42-6-3.67-4-7.24-15.56-24.79-8-43.06a40,40,0,0,0,1.53-4.45h0c2.34-8.36.71-14.35-1.24-18,3.07,4.29,8.88,11.58,15,14.73,8.95,4.62,11.67,10.31,11.67,19.9s1.35,17.55,4.61,22.16,12,10.12,6.24,3.8-7.6-16.82-7.58-28.91-5.17-14.78-11.69-18-18.45-19-16.28-21,8.14,6.32,14.66,9,11.67,5.73,27.14,7.43,11.39,5.08,14.65,9,2.17,6.08,7.33,10.06,5.16,4.16,4.61,1.17-5.7-3.25-7.33-11.23-4.88-8-18.72-11-18.46-6.51-32.84-14.45-3.8-6.71,7.6-3.45,33.65,4.07,42.34,3.45,8.95,7.13,13.84,11.65,10,2.54,7,1.14-4.07-3.22-8.95-9.46-9.5-6.78-22.53-5.91-27.68-4.4-39.08-5.49-7.87-3.25.54-2.73a120.69,120.69,0,0,0,29.31-1.43c11.4-2,49.67-2.08,40.71-3.48s-29.85-2.67-46.41,0-36.57,1.62-25,0,16.28-4.84,21.71-12.44S172.59,78.52,187,68.2s3.53-22.79,4.34-16c.71,5.94-.44,10.22-6.76,14.66-.9.63-1.9,1.26-3,1.9-9,5.15-14.66,6.51-18.32,13.57s-6.38,10.58-21.3,11.94-6.79,0,1.9-3.69,10.85-24,11.39-30.78,13-13,5.7-10-9.49,4.61-9.77,16.28S147.63,79.87,144,85.84s-11.39,4.59-11.39,4.59c12.75-6.55,11.21-19,9-29s6.25-21.17,0-13.84-2.44,17.09-2.44,28.49a14.75,14.75,0,0,1-9.88,14.36c-1-1.45-2.29-2.24-3.69-2a33.94,33.94,0,0,0,3.12-2.85c10.16-10.51,5.68-20.55,3.86-28.77-.08-.36-.15-.73-.21-1.09h0a15.22,15.22,0,0,1-.14-3.83c.57-6,4.88-9.79,8.57-13.26a22.8,22.8,0,0,0,3-3.18c2.27,2.14,5.16,5.41,5,8.07-.27,4.34-4.2,9.9-3.8,13.7a84,84,0,0,1,.68,13.3c-.28,4.48,1,3.8,1.62-1.36s-2-9.5.41-12.62,3.39-6.65,4.07-10.31,4.34-7.06,0-11c-3.38-3.07-8-7.06-8.34-10.53.71,0,1.44.12,2.17.19a12.1,12.1,0,0,0,4.41-.11,9.7,9.7,0,0,1,6.46.34,5.8,5.8,0,0,1,2,1.36c-3.53,5,.13,7.8.94,10.64s2,4.62-.54,6.79-3.67,4.62,0,2.31,4.61-3.12,3.26-7.6c-.66-2.17-.21-4.94.44-7.23.76.1,1.68.18,2.77.4.55.12,1.15.27,1.81.48a8.46,8.46,0,0,0,1.69.36c.41,4.93,4.84,7.56,5,11.15.13,4.07-.82,6-5.65,9.9s-7.52,3.8-10.5,11-.95,7.47,0,5.17,3.12-3.4,5.17-7.2,7.72-4.75,13-13.57c3.5-5.84,1.1-12.62-.93-16.54a17.56,17.56,0,0,1,9.45,1.66A20.71,20.71,0,0,1,183,49.75c-2.17,3.66-2.58,7.6-4.61,10.72s-9.36,5.43-14.25,8.68-4.34,3.94-7.6,11.13-9.25,7.58-3.66,6.49S157,82.18,162.28,76s8.14-7.39,15.47-10.78,4.75-7.87,9.64-15.74c2.74-4.43,2.4-9.75,1.58-13.56a5.45,5.45,0,0,0,3.75-.91h0c1-.64,2.09-1.51,3.49-2.35,4.07-2.44,4.88,7.6,4.61,10.58s4.07,3.53,4.88,6.52-5.42,6-8.41,8.68,3,1.09,7.87-2.17c3-2,5.22-1.84,6.84-.71a15.23,15.23,0,0,1-6.84,4.92,45.32,45.32,0,0,0-11.94,6.1c-4.88,3.4-5.7,4.75,1.49,1.09s6-3.8,12.76-5.83a28.88,28.88,0,0,0,7-3.18c1.39,2.82-1.07,3.92-6.62,6.57s5.15,0,11.12-1.09c5.44-1,1.65,1.4,2.36,5.12-4.61,1.7-10.51,1.76-15.93,1.94-8.14.27-6.51.81-11.94,4.34s-11.13,3.53-18.72,6-8.42,7.87-3.53,3.81,10-1.37,17.64-4.08,11.67-3,23.34-5.43a75.41,75.41,0,0,0,10.91-3.12c1.75,2.17,3.27,2.84-.33,6.65-2.08,2.2-2.06,3.47-1.39,4.47A22.55,22.55,0,0,0,218.46,85c-2.77,1.54-7.87-2.17-15.74,0s-11.13,1.09-23,3-14.15,4.07-8.72,3,11.67.27,23.88-1.63,11.94-1.63,21.7-1.9a52.1,52.1,0,0,0,7.44-.69,2.18,2.18,0,0,1,.17.69c.27,3,1.9,2.44,6.51,1.9s0,4.34,2.17,9.59.55,3.71-6.51,4.07S217.65,104.57,225.79,107.38Z" style="fill:#f4e9ba"/><path d="M151.83,46.22c-.68,3.66-1.63,7.19-4.07,10.31s.27,7.47-.41,12.62-1.9,5.84-1.63,1.36a84.06,84.06,0,0,0-.67-13.3c-.41-3.8,3.52-9.36,3.79-13.7.17-2.66-2.71-5.93-5-8.07,1.27-1.8.57-2.82-1.66-5.23-3.26-3.53-5.7.27-3.8-3.53.93-1.86,2.91-2.1,5.09-2,.32,3.47,4.95,7.46,8.34,10.53C156.17,39.16,152.51,42.56,151.83,46.22Z" style="fill:#6cdbea"/><path d="M158.89,46.22c-3.67,2.31-2.58-.14,0-2.31s1.35-3.95.54-6.79-4.47-5.68-1-10.64a4.36,4.36,0,0,1,1.08,2.1c.48,2.21,1.42,2.58,3,2.81-.65,2.29-1.1,5.06-.45,7.23C163.5,43.1,162.55,43.91,158.89,46.22Z" style="fill:#6cdbea"/><path d="M175.85,49.07c-5.29,8.82-11,9.77-13,13.57s-4.23,4.91-5.17,7.2-3,2,0-5.17,5.67-7.05,10.5-11,5.78-5.83,5.64-9.9c-.12-3.59-4.55-6.22-4.95-11.15a37.74,37.74,0,0,0,6.06-.1C177,36.45,179.35,43.23,175.85,49.07Z" style="fill:#6cdbea"/><path d="M187.38,49.48c-4.88,7.87-2.3,12.35-9.63,15.74S167.57,69.81,162.28,76s-3.78,9.69-9.36,10.77.4.7,3.66-6.49,2.71-7.87,7.6-11.13,12.21-5.56,14.25-8.68,2.44-7.06,4.61-10.72a20.71,20.71,0,0,0,1.33-15.56l.16.09A12.93,12.93,0,0,0,189,35.92C189.79,39.73,190.13,45.05,187.38,49.48Z" style="fill:#6cdbea"/><path d="M214.5,58.65a28.88,28.88,0,0,1-7,3.18c-6.79,2-5.57,2.17-12.76,5.83s-6.38,2.31-1.49-1.09a45.17,45.17,0,0,1,11.94-6.1A15.15,15.15,0,0,0,212,55.55a8.1,8.1,0,0,1,2.4,2.88Z" style="fill:#6cdbea"/><path d="M223.13,72.68a75.41,75.41,0,0,1-10.91,3.12c-11.67,2.44-15.74,2.72-23.34,5.43s-12.76,0-17.65,4.08-4.07-1.37,3.53-3.81,13.3-2.44,18.73-6,3.8-4.07,11.94-4.34c5.42-.18,11.31-.24,15.93-1.94a5.37,5.37,0,0,0,.36,1.12A10,10,0,0,0,223.13,72.68Z" style="fill:#6cdbea"/><path d="M224,86.78a51.79,51.79,0,0,1-7.43.69c-9.76.27-9.49,0-21.7,1.9S176.39,89.91,171,91s-3.17-1.09,8.73-3,15.16-.82,23-3,13,1.54,15.74,0a22.55,22.55,0,0,1,2.95-1.23C222.1,84.83,223.48,85.57,224,86.78Z" style="fill:#6cdbea"/><path d="M230.28,111.36a22.44,22.44,0,0,0-2.32,3.51,21.51,21.51,0,0,0-1.1,2.32c-7-2.49-16.58-7.67-20.21-9.83-4.88-2.9-6.1-.21-11.26,0s-8.28-1.84-14.93-2.79-7.46-.95-.77-1.61,17.46,1.61,22.48.25,9.77,3.12,16.42,5.17C222.84,109.69,227.48,110.76,230.28,111.36Z" style="fill:#6cdbea"/><path d="M223.07,140.29c-3.25.16-4.07,3.09-4.07,8.16s-1.63,1.17-5.67,3.47c-.7.41-1.27.72-1.71,1-3.83-2.4-5.78-5.2-7.67-9-2.7-5.42-1.91-4.61,2.84-.13s7.19,3.66,8.68,1.9,1.36-3.8-4.2-5.4-8.82-4.37-11.13-10.07-2-8.28-7.43-8.52-13.06,1.19-26.77-3.15-8-4.07.93-1.72,17.66,1.31,25.4.09,9.77,10,14.65,14.79c3,2.9,9.69,3.93,14.69,4.35C222.31,138.65,225.26,140.18,223.07,140.29Z" style="fill:#6cdbea"/><path d="M213.33,161.56c0,2.66-3.15,3.22-5,5.07-2.35,2.35-6.87,4.88-10.31,4.88s-1.26-4.34-4.7-3.38-7.06,4.29-4.71,9.35-4.16,6-6.51,7.25a8.8,8.8,0,0,1-1.7.66h0c-.69-1.86-2.51-3.61-4.4-6-3.25-4.21-8.14-13.84-5.89-19.27s2.77-9.5,1.55-12.48-7.46-8.55-2.58-4.89,8.15,10.45,6,16.69-3.55,5.84,0,13.71,8.12,3.12,7.9-1.22,1.44-3.8,6.59-6.65,3.67-2.85,8.69,1.36,4.88-2.18-1.9-7.06-11.4-11.26-14.79-17-18.86-4.62-25.45-9-9.29-9.23-3.73-5.56,19.95,5.83,26.19,7.67,5.57,9.56,14.79,16.2C200,156.73,208.69,160,213.33,161.56Z" style="fill:#6cdbea"/><path d="M170.08,191a15.79,15.79,0,0,1-1.92-.48c-3.75-1.14-4.56-.07-5.14,2.26-7.16-5.53-9.56-15-9.56-26.86,0-14.39-2.72-15.07-6.52-23.48s-2.3-6,2.43-1.09,6.94,11.95,6.8,20.22,2.58,17.37,7.6,23.75A20.63,20.63,0,0,0,170.08,191Z" style="fill:#6cdbea"/><path d="M155.69,193.1c-2.26-.87-4.65-2-6.49-2.79-4.76-5.88-7.81-13.7-7-21.83,1.08-11-.95-13.57-3.4-24.15s-.81-9.5,2.45-2.31,5.83,15.2,3.54,26.19S155.69,193.1,155.69,193.1Z" style="fill:#6cdbea"/><path d="M144.64,104.84c11.4,1.09,26.05,6.37,39.08,5.49s17.64-.33,22.53,5.91,6,8.07,8.95,9.46-2.17,3.38-7-1.14-5.16-12.27-13.84-11.65-30.94-.2-42.34-3.45-22-4.5-7.6,3.45,19,11.46,32.84,14.45,17.1,3,18.72,11,6.79,8.25,7.33,11.23.55,2.82-4.61-1.17-4.07-6.11-7.33-10.06.81-7.36-14.65-9-20.63-4.75-27.14-7.43-12.49-11-14.66-9,9.77,17.71,16.28,21,11.71,6,11.69,18,1.86,22.6,7.58,28.91-3,.82-6.24-3.8-4.61-12.57-4.61-22.16-2.72-15.28-11.67-19.9c-6.11-3.15-11.92-10.44-15-14.73a0,0,0,0,1,0,0,17.52,17.52,0,0,0-2.25-3.33h0a10,10,0,0,0-1.16-1.19,5.81,5.81,0,0,0,1.58-2.16c2.79-7.13,1.57-18.5-1.74-23.1a14.75,14.75,0,0,0,9.88-14.36c0-11.4-3.8-21.17,2.44-28.49s-2.17,3.8,0,13.84,3.72,22.46-9,29c0,0,7.76,1.38,11.39-4.59s6.87-8.14,7.14-19.81,2.45-13.3,9.77-16.28-5.15,3.25-5.7,10-2.71,27.09-11.39,30.78-16.83,5-1.9,3.69,17.62-4.89,21.3-11.94,9.36-8.42,18.32-13.57c1.11-.64,2.11-1.27,3-1.9,6.32-4.44,7.47-8.72,6.76-14.66-.81-6.78,10,5.7-4.34,16s-16,9-21.44,16.56S155.43,95.58,143.83,97.2s8.41,2.66,25,0,37.46-1.41,46.41,0-29.31,1.49-40.71,3.48a120.69,120.69,0,0,1-29.31,1.43C136.77,101.59,133.24,103.76,144.64,104.84Z" style="fill:#ead98f"/><path d="M134.15,138.29c-.6-7.18-2.69-14.44-8-20.53a13.15,13.15,0,0,0,3.35-2.07,10,10,0,0,1,1.16,1.19h0c.08.12.9,1.43,2.25,3.33a0,0,0,0,0,0,0C134.86,123.94,136.49,129.93,134.15,138.29Z" style="fill:#cbc4a0"/><path d="M192.72,35h0a5.42,5.42,0,0,1-3.75.91,12.93,12.93,0,0,1-4.43-1.64l-.16-.09a17.56,17.56,0,0,0-9.45-1.66,37.74,37.74,0,0,1-6.06.1,8.71,8.71,0,0,1-1.7-.36s2.08-4.41,5.77-4.6a14.51,14.51,0,0,0,5.38-2c.7.57,2.16.86,4.65.83C191.59,26.41,201.53,22,192.72,35Z" style="fill:#e5d8a3"/><path d="M150.63,13.56a16.63,16.63,0,0,0-5,11.33c-.73-.07-1.46-.15-2.17-.19-2.18-.12-4.16.12-5.09,2-1.9,3.8.54,0,3.8,3.53,2.23,2.41,2.93,3.43,1.66,5.23a23.43,23.43,0,0,1-3,3.18c-3.69,3.47-8,7.29-8.57,13.26a16.17,16.17,0,0,0-4.1,8.72c-1.08,6.34.73,12.12-3.79,17.92s-13.22,8.86-11.22,4.34a67,67,0,0,0,5.06-21.51c.54-8.83,1.27-7.62,6-12.51s9.23-8.14,8.43-13.57,2.79-10.67,8.63-18.09,5.92-8.32,0-2.89-10,12.12-10.34,20.26S122,43.06,116.59,51.74,118,60.6,113.7,73.48s-7.78,11.73-6.6,7.78,1.53-6.72,0-14.51-1-11.39,3.16-17.72,4.52-7.42,6.87-19.23,7.06-12.44,12.2-18.77-3.33.36-9.3,6.87-4.88,20.27-12.12,29.25-5.07,13.45-3,22.69-.39,12.84-1.74,13.38-1.36-1.81-5.94-10.5-6.82-8.86-1.94-18.45,6.15-11.4,7.6-19.54-3.25-11.4-2.71-5.47S97.78,44.5,90.72,54.45s4.16,22.62,5.61,25.87-2.17,1.63-5.79,0S88,77.61,84.39,67.12s2.53-20.27,6.87-30.3S88.94,22,88.78,21.93h0c-2-6.53-2-8,1.51-3.39,1.58,2.1,2,1.18,2.14-.39a22.45,22.45,0,0,0,1.91,6.23c2.35,4.56.9,12.7-2.53,19.22s1.76,1.63,3.68-4.71,3.19-7.26,2.65-12.41,5.12-7.31,6.72-9.66.15,1.42,1.42,9.66,2.35,10.76-3.44,18.73.93,2.19,4.45-3.6,3.87-4.62,2.25-12.35-3.21-8.28.93-12.44,9.93-4.52,13.09-6.88c2.21-1.64,1.92-4,1.66-7.4,1.78-1.24,4-4.11,5-1.43.93,2.35,2.77,1.25,4.42.52a6.54,6.54,0,0,0,.38,4.69c1.81,4.53-3.8,9.5-9.41,15.61S120,29.3,119,36s-1.27,4.52,1.26,0-.71-4.71,3.35-7.42,4.61-1.81,3.26,2.89.45,8-5.16,10.5S108.81,52.8,109.72,58.51s.36,7.34,1.63,1,1.26-7.73,6.51-12.37,9.58-5.89,10.12-10.33-.53-11.59,3.27-14.89a44.43,44.43,0,0,0,9.05-11.44c2-3.62,4.76-.57,9.07-2S155.71,8.67,150.63,13.56Z" style="fill:#e5d8a3"/><path d="M166.17,5c-3.42,2.35-10.21,7.07-12.25,8.94-2.77,2.54-3.85,10.86-3.85,10.86a12.1,12.1,0,0,1-4.41.11,16.63,16.63,0,0,1,5-11.33c5.08-4.89,3.06-6.51-1.26-5.08s-7.08-1.61-9.07,2a44.43,44.43,0,0,1-9.05,11.44c-3.8,3.3-2.72,10.45-3.27,14.89s-4.87,5.69-10.12,10.33-5.25,6-6.51,12.37-.73,4.7-1.63-1,6.33-14,11.94-16.54,3.8-5.79,5.16-10.5.81-5.61-3.26-2.89-.81,2.89-3.35,7.42-2.35,6.69-1.26,0,1.08-8,6.69-14.07,11.22-11.08,9.41-15.61a6.54,6.54,0,0,1-.38-4.69c1.25-.55,2.39-.9,3,.62,1.31,3.53,8.28-1.35,10,1.36s7.77-3,8.52.54C156.7,7,163.84,3.67,166.17,5Z" style="fill:#99d8dd"/><path d="M172.38,8.69a20.14,20.14,0,0,1-7,8.67c-6.25,4-8.83,7.76-8.83,7.76a9.7,9.7,0,0,0-6.46-.34s1.08-8.32,3.85-10.86c2-1.87,8.83-6.59,12.25-8.94.57.31.85.89.7,1.89C166.23,11,170.76,8.14,172.38,8.69Z" style="fill:#e5d8a3"/><path d="M173,15.2a10.31,10.31,0,0,1-2.95,1.8c-5,2-11.16,8.5-10.53,11.58a4.36,4.36,0,0,0-1.08-2.1,5.66,5.66,0,0,0-1.95-1.36s2.58-3.78,8.83-7.76a20.14,20.14,0,0,0,7-8.67c.4.13.62.47.55,1.16A32.31,32.31,0,0,0,173,15.2Z" style="fill:#99d8dd"/><path d="M180.82,15.76a16.52,16.52,0,0,1-5.2,6.17c-5.29,3.76-9.81,3.67-10.26,9.86-1.09-.22-2-.3-2.77-.4-1.61-.23-2.55-.6-3-2.81C158.93,25.5,165.09,19,170.09,17A10.31,10.31,0,0,0,173,15.2a14.63,14.63,0,0,1-.11,1.71C172.74,18.74,177.49,16.79,180.82,15.76Z" style="fill:#e5d8a3"/><path d="M183,17.18c-3.52,4.06-6.41,7.09-4.65,8.47a14.51,14.51,0,0,1-5.38,2c-3.69.19-5.77,4.6-5.77,4.6-.65-.21-1.25-.36-1.8-.48.45-6.19,5-6.1,10.26-9.86a16.52,16.52,0,0,0,5.2-6.17C183.4,15,185.12,14.68,183,17.18Z" style="fill:#99d8dd"/><path d="M128.76,85.57c-2.49,1.08-7.82,1.81-3.65-2s7.41-12.48,6.14-15.74,1.08-11.84,1.16-12.13c.06.36.13.73.21,1.09C134.44,65,138.92,75.06,128.76,85.57Z" style="fill:#e5d8a3"/><path d="M117.55,108.8A80.77,80.77,0,0,1,103,111.49,46.51,46.51,0,0,1,83.42,110c-1.74-.56-3.62-1.18-5.42-2-3.64-1.57-7-3.82-8.36-7.65a6.1,6.1,0,0,1-.37-2.69h0c.27-2.59,2.47-4.43,5.37-5l.25-.05c9.09-1.49,13,3.39,26.8,2.44,6.64-.45,15.48-.47,21.21,3.57S121.66,107.52,117.55,108.8Z" style="fill:#6cdbea"/><path d="M129.33,90.43c-1-1.45-2.29-2.24-3.69-2-5.83,1-12.89,1.9-17.64.27s-12.75-4.47-12.75-4.47a51.61,51.61,0,0,0-8.35-3,59.28,59.28,0,0,0-21.24-1.93,75.51,75.51,0,0,0-11.85,2.19c.45,2-.59,3.06-2.12,3.78-2.31,1.09-2.72,3.53-1.9,5.84S48.43,97,45.31,96.56s-3.8-2.57-6.65-1.22-1.9,4.48,2.17,7.74-.14,12.75-.41,19.13a13.53,13.53,0,0,1-.38,2.68l0,0c.19-.14.91-.46,2,1.54.27-1,1.26-1.83,2.63-3.27a2.39,2.39,0,0,0,.59-3.09,11.47,11.47,0,0,0-1.85-2.27c-1.63-1.75.63-3.06.63-3.06s2.35-2.71,2-4.88-.09-1.18,1.54-5,1.9-4.7,3.44-4.16a3.79,3.79,0,0,0,1.25.24h0a2.65,2.65,0,0,0,2.23-1.09,4.17,4.17,0,0,0,.28-.38c0-.07.09-.14.13-.22,1-1.72-.09-2.44,2-1.81a7,7,0,0,1,1.75.82c.86.51,1.3.92,1.6.45.45-.73,1.35-1.18,3,0,.59.43.65.81.54,1.21-.19.72-.9,1.49-.09,2.59l.09.11.09.12a4.44,4.44,0,0,0,2.36,1.59,2.78,2.78,0,0,0,1,.08,4,4,0,0,1,3.34,2.25,1.74,1.74,0,0,1,.1.19,5.18,5.18,0,0,0,1.57,2,3.27,3.27,0,0,0,3,.67c1.55-.57,1,.68,2.89,2.45a8.1,8.1,0,0,0,.73.62c2.71,2.08.54,1.81-.72,3.26a1.67,1.67,0,0,0,0,2.16,8.7,8.7,0,0,0,2.46,2.27,1.49,1.49,0,0,1,.71,1.58c12.22.59,32.15.44,42.8-3.25.71-.25,1.39-.51,2-.79a13.15,13.15,0,0,0,3.35-2.07,5.81,5.81,0,0,0,1.58-2.16C133.86,106.4,132.64,95,129.33,90.43ZM117.55,108.8A80.77,80.77,0,0,1,103,111.49,46.51,46.51,0,0,1,83.42,110c-1.74-.56-3.62-1.18-5.42-2-3.64-1.57-7-3.82-8.36-7.65a6.1,6.1,0,0,1-.37-2.69h0c.27-2.59,2.47-4.43,5.37-5l.25-.05c9.09-1.49,13,3.39,26.8,2.44,6.64-.45,15.48-.47,21.21,3.57S121.66,107.52,117.55,108.8Z" style="fill:#61c7da"/><path d="M141.25,17.18c-5.84,7.42-9.44,12.66-8.63,18.09S128.9,44,124.19,48.84s-5.42,3.68-6,12.51a67,67,0,0,1-5.06,21.51c-2,4.52,6.69,1.45,11.22-4.34s2.71-11.58,3.8-17.92a16.18,16.18,0,0,1,4.09-8.72,15.22,15.22,0,0,0,.14,3.83h0c-.08.29-2.4,8.93-1.16,12.13s-2,11.94-6.14,15.74,1.16,3.07,3.65,2a33.94,33.94,0,0,1-3.12,2.85c-5.83,1-12.89,1.9-17.64.27s-12.75-4.47-12.75-4.47a51.61,51.61,0,0,0-8.35-3S75.59,60.88,81.34,49.21s10.92-16.27,8.21-24.83c-.28-.88-.54-1.7-.76-2.45.15.11,6.77,5,2.48,14.89s-10.5,19.81-6.88,30.3,2.53,11.58,6.15,13.2,7.24,3.26,5.79,0S83.67,64.4,90.72,54.45s10-19.27,9.41-25.19,4.16-2.67,2.71,5.47-2.71,10-7.59,19.54S92.59,64,97.18,72.72s4.59,11,5.94,10.5,3.75-4.14,1.74-13.38-4.19-13.71,3-22.69S114.06,24.42,120,17.9,134.46,4.7,129.33,11s-9.84,7-12.19,18.77S114.42,42.69,110.26,49s-4.69,9.95-3.15,17.72,1.17,10.55,0,14.51,2.25,5.11,6.59-7.78-2.53-13.06,2.89-21.74,14-9.05,14.32-17.19,4.41-14.83,10.34-20.26S147.08,9.76,141.25,17.18Z" style="fill:#d8ca93"/><path d="M123.56,9.94c-3.16,2.36-9,2.72-13.09,6.88s-2.56,4.7-.93,12.44,1.27,6.55-2.25,12.35-10.24,11.57-4.45,3.6,4.71-10.48,3.44-18.73.18-12-1.42-9.66-7.27,4.52-6.72,9.66-.73,6.08-2.65,12.41-7.12,11.22-3.68,4.71,4.88-14.66,2.53-19.22a22.45,22.45,0,0,1-1.91-6.23h0c.25-2.28,0-5.92,2.27-3.67,3.8,3.8,2.71-6,6-2.45s4.34-6,6.51-3,9-7.6,10-3.53,4.34-7.6,5.7-3.53c.47,1.43,1.32,1.24,2.29.56C125.48,6,125.77,8.3,123.56,9.94Z" style="fill:#99d8dd"/><path d="M27,126.31c-.35,0-.71-.06-1.07-.11s-4-.6-3,.63a8.8,8.8,0,0,0,3.73,2.73c4.12,1.53,7.66-1.88,9.6-5.14.61-1,2.58-5.83-.37-3.7-1.55,1.11-2.5,2.7-3.89,4A6.89,6.89,0,0,1,27,126.31Z" style="fill:#649fa0"/><path d="M15.77,104.31a1.28,1.28,0,1,1,1.28,1.28A1.28,1.28,0,0,1,15.77,104.31Z" style="fill:#eae3dd"/><path d="M113.81,103.07a2.72,2.72,0,0,0,.11-1.06c-.38-3.42-5.43-2.87-7.81-2.87-10.31,0-21.14-3.36-21.29.76s4.94,6.57,14.61,6.84c3.84.11,8.76.74,12.28-1.21A4.55,4.55,0,0,0,113.81,103.07Z" style="fill:#8beff7"/></g></g></svg>