<svg xmlns="http://www.w3.org/2000/svg" viewBox="0 0 286.85 120.66"><title>endlers-livebearer</title><g id="Layer_2" data-name="Layer 2"><g id="Ñëîé_2" data-name="Ñëîé 2"><path d="M24.75,84.28C12,76.9,3.48,69.35,1.88,66.32-.07,62.64-.69,60,.91,57.7c0,0,7.81-.06,10.18,2.78s2.05,8.84,7.57,12.16C22.46,74.92,24.1,80.25,24.75,84.28Z" style="fill:#a3883a"/><path d="M222.7,60.6c0-.64-.09-1.25-.12-1.82a9,9,0,0,1-3.66,0c-2.3-.38-4.43-.24-8.22.6s-7.37,1.47-11.58,0-6.74-2.74-9.89-1.68c-2.28.77-5.64.43-7.35.19A12.83,12.83,0,0,1,185,61.48a12.33,12.33,0,0,0,5.68,5c2.31-2.57,2.11-4,8.84-2s9.26,2.22,9.89-1.68,5.9-3.26,9.49,0S222.91,64.22,222.7,60.6Zm-52.47,19c-24.16,1.26-39.63,8.52-49.1,13.1s-47.55,11.08-72.64,2.54c13.89,4.89,29.85,7.94,46.43,6.46,2.15-.19,4.18-.4,6.11-.62,27.8-3.18,34.32-9.27,45.93-13.16,5.31-1.78,11.68-3.1,21.64-3.48,18-.68,27.21-.63,34.44.69C203,85.12,194.39,78.32,170.23,79.59ZM157.86,52a18.13,18.13,0,0,0-7.07-3.12c1,1.77,1.49,3.84,2.33,5.59,1.79,3.74,3.69,3.63,6.22,3.22s5.68,0,12.64-1.48c.44-.1.87-.17,1.29-.23C168.71,55.49,161.14,54.26,157.86,52Z" style="fill:#a3883a"/><path d="M250.22,48c-.72.43-1.58.89-2.58,1.48-2.47,1.47-2.61,1.8-3.43,3.08h-.57C233.41,52.42,239.13,50.84,250.22,48Z" style="fill:#ffb050"/><path d="M263,44.66c-4.61,1.26-9,2.37-12.81,3.34,1.7-1,2.58-1.8,2.58-3.57,0-.22,0-.42,0-.6,1.38-.45,2.71-.92,3.94-1.39C266.85,38.54,281.15,39.73,263,44.66Z" style="fill:#a3883a"/><path d="M256.12,100.9c0,1.58-17.67-2.17-33.54-13.81.41-.43.84-.89,1.27-1.38,4.46-1.12,7.66,4,11.27,7.14a6,6,0,0,0,6.22,1.39h0C248.1,97.08,256.12,99.92,256.12,100.9Z" style="fill:#ffb050"/><path d="M244.71,91.08a5.84,5.84,0,0,1-3.36,3.16h0c-4.16-1.76-7.85-3.51-8.86-4.83-2.64-3.43.59-4.14,11.16,1.14Z" style="fill:#8e732f"/><path d="M253.92,95c-2.91-1.07-6-2.42-9.21-4a4.81,4.81,0,0,0,.2-.53C245.84,87.56,248.24,90.81,253.92,95Z" style="fill:#a3883a"/><path d="M272.06,61.9c-9.83.87-20.76-1.15-26.09-1.35h0a4,4,0,0,0-3.91-1.77c-5.05.44-2.68,2.18-4.89,10.07s-6.24,10-4.07,14.05c1.3,2.46,6.4,5.29,10.12,1.3,2.7,1.08,6.65,2.57,11.92,5.21,12.19,6.12,15.34,6.75,12.5,8.17-1.89,1-7.23-.14-13.72-2.54h0c-5.68-4.23-8.08-7.48-9-4.49a4.81,4.81,0,0,1-.2.53l-1.07-.53c-10.57-5.28-13.8-4.57-11.16-1.14,1,1.32,4.7,3.07,8.86,4.83a6,6,0,0,1-6.22-1.39c-3.61-3.19-6.81-8.26-11.27-7.14,4.21-4.72,9.58-12.4,9.58-20.86a26.8,26.8,0,0,0-.33-4.25,30.53,30.53,0,0,0-1.19-5c1.53,1.56,8.68,1.91,11-1.14.62-.81,1-1.41,1.31-1.87,13.9.14,40.12-1.52,24.69,1-15.63,2.52-33.15,2.49-20.68,4.32S286.43,60.64,272.06,61.9Z" style="fill:#a3883a"/><path d="M261.64,70c-6.69-1-11.23-2-14.33-2.6,0-.82,0-1.67,0-2.56a6.74,6.74,0,0,0-.09-1c7.89,1.66,23.56,1.9,24.41,4.22C272.69,71.06,278.06,72.48,261.64,70Z" style="fill:#a3883a"/><path d="M278.69,82c-5.62-.1-22.05-5-31.91-6.8.16-1.05.29-2.18.38-3.41,4.92,1.21,12.24,2.41,20.32,4.08C282.64,79,286.74,82.11,278.69,82Z" style="fill:#a3883a"/><path d="M271.59,90.55c-7.91-1.73-19.33-7.07-26.38-9.52.23-.55.45-1.14.66-1.8,4.08,1,9.89,2.3,17.16,4.46C279.48,88.58,283.43,93.16,271.59,90.55Z" style="fill:#a3883a"/><path d="M286.37,46.11c-3.48,7.58-5.36,16.85-2,25.27s3.36,22.73-7.16,30.68c-3.24,2.46-8.3,3.08-14.2,2.56-.11-1.82-1.26-4.42-5.64-7.19-1.27-.81-2.42-1.61-3.46-2.39,6.49,2.4,11.83,3.49,13.72,2.54,2.84-1.42-.31-2-12.5-8.17-5.27-2.64-9.22-4.13-11.92-5.21a10.94,10.94,0,0,0,2-3.17c7,2.45,18.47,7.79,26.38,9.52,11.84,2.61,7.89-2-8.56-6.86-7.27-2.16-13.08-3.43-17.16-4.46a29.07,29.07,0,0,0,.91-4.08c9.86,1.8,26.29,6.7,31.91,6.8,8.05.16,3.95-3-11.21-6.13-8.08-1.67-15.4-2.87-20.32-4.08.1-1.34.15-2.8.15-4.39,3.1.6,7.64,1.58,14.33,2.6,16.42,2.53,11.05,1.11,9.95-1.89-.85-2.32-16.52-2.56-24.41-4.22A7.88,7.88,0,0,0,246,60.55c5.33.2,16.26,2.22,26.09,1.35,14.37-1.26-11.37-2.21-23.84-4s5.05-1.8,20.68-4.32c15.43-2.5-10.79-.84-24.69-1,.82-1.28,1-1.61,3.43-3.08,1-.59,1.86-1,2.58-1.48,3.78-1,8.2-2.08,12.81-3.34,18.12-4.93,3.82-6.12-6.28-2.22-1.23.47-2.56.94-3.94,1.39.05-2,.52-2.33,4-4.35,3.79-2.21,2.84-2.84-.42-2.76s-5.47.24-3.16-1.19-8.42-.36-8.42-.36C274.27,24.64,289.85,38.54,286.37,46.11Z" style="fill:#8e732f"/><path d="M263,104.62c-13.23-1.17-30.73-8.09-41.8-13l-2.3-1s.86-.7,2.18-2c.45-.43,1-.94,1.48-1.49,15.87,11.64,33.54,15.39,33.54,13.81,0-1-8-3.82-14.77-6.66a5.84,5.84,0,0,0,3.36-3.16c3.16,1.54,6.3,2.89,9.21,4h0c1,.78,2.19,1.58,3.46,2.39C261.76,100.2,262.91,102.8,263,104.62Z" style="fill:#ff9c24"/><path d="M227.43,55.53a7.5,7.5,0,0,0-1.25-.37c-3.56-.69-3.76,1-3.6,3.62a9,9,0,0,1-3.66,0c-2.3-.38-4.43-.24-8.22.6s-7.37,1.47-11.58,0-6.74-2.74-9.89-1.68c-2.28.77-5.64.43-7.35.19h0A11,11,0,0,0,173.28,56h0c-4.56-.5-12.13-1.73-15.41-4a18.13,18.13,0,0,0-7.07-3.12h0c-1.19-2-3.16-3.6-7.36-3.83-3.48-.64-8.08-3.37-12.08-5.15s-2.74-3.69,2.53-4.32,9.68,3.79,17.46,7.37,10.95,2.73,17.27,3.65,15.57,2.66,20.42.65,9.47,1.38,25,.12S227.43,55.53,227.43,55.53Z" style="fill:#414142"/><path d="M233.1,60.6a12.7,12.7,0,0,0-5.67-5.07s2.21-9.42-13.36-8.15-20.21-2.13-25-.12-14.1.26-20.42-.65-9.47-.07-17.27-3.65-12.2-8-17.46-7.37-6.53,2.53-2.53,4.32,8.6,4.51,12.08,5.15c-7.87-.42-10.4.63-14-1.68s-11.16-4.48-16.22-3-12.63-.61-17.68,1.92c-1,.5-1.9,1-2.69,1.47a18.66,18.66,0,0,0-7,0A17.62,17.62,0,0,1,90.45,42c5.47-1.27,9.52-1.56,16.47-3.77a29.19,29.19,0,0,1,12-.71c1,.11,2.71.65,4.3.84s3,0,3.42-1.32c1.62-5.39-6.77-4.32-9.72-4.65-5.53-.63-9,1.26-12.63,3.15s-6.16-1.26-17.53,1.19-8.37,4.66-5.37,7c0,0-4.42-.54-6.31,1.78s-5.21,5-7.58,5.48a12.1,12.1,0,0,0-5.53,2.68C60.34,55,56.71,56,55.77,55.57s-3.48-3.83-6.32-3-3.31.28-5.21,0-3.92,1.49-3.92,1.49a4.4,4.4,0,0,0-3.25.6l-.07,0a12.23,12.23,0,0,0-1.92-.15A12,12,0,0,0,23.86,70.76v0c.08.43,1.48,7.27,3,7.72a34.22,34.22,0,0,1,6,2.19,11.35,11.35,0,0,0,6.38.8A4.54,4.54,0,0,1,37.93,84c-1.11.94,1.42,1.26,3.63,1.57s5.52,2.85,6.31,0,3-4.09,3.79-3.94.79-2.13,2.05,2.57,4.58,4,6,3.7,3.48,1.38,5.53,0,5.37-.9,6.16.67,3.79,2.85,4.89,2a4.23,4.23,0,0,1,5,0c-3.32,3.81.82,5.51,7,5.28,7.08-.25,16.85-3,21.38-7.92,8.53-9.27,10.11-9.11,8.53-9.27s3.79-2.69,2.68-4,2.53-3.31,1.42-4.42,3.79-3.63,2.69-4.42c-.88-.63.4-2.53.44-3.69,4.27,4.68,10.22,9.68,13.82,9.22,4.84-.64,12.63,4.84,14.94,0s4.85-10.32,6.95-7.16,3.16,8.21,6.32,9.37a40.86,40.86,0,0,0,13,2.21,15.33,15.33,0,0,0,7.15-2.66c4.63,4.34,5.48,7.71,10.74,6.65s7.16-1.71,9.26.2,6.27,7.7,13.35,8.59c-1.32,1.27-2.18,2-2.18,2-6.08-2.69-10.4-4.42-15.88-5.43,0,0-8.65-6.8-32.81-5.53s-39.63,8.52-49.1,13.1-47.55,11.08-72.64,2.54a143,143,0,0,1-23.74-11c-.65-4-2.29-9.36-6.09-11.64-5.52-3.32-5.21-9.32-7.57-12.16S.91,57.7.91,57.7c1.5-2.12,5-3.86,11.07-5.69,12.63-3.79,50.1-16.84,86.73-22.31a106,106,0,0,1,25.84-1.15c.77.08,1.56.17,2.34.27s1.4.19,2.09.31a34.34,34.34,0,0,1,10.7,3.46,23,23,0,0,1,3.07,2.08c.32.26.67.49,1,.72a15.47,15.47,0,0,0,1.55.84c2.8,1.33,5.95,1.83,8.94,2.62,4.17,1.09,8.34,2.35,12.66,2.64,4.87.32,30.94,2.64,56.13-1.12A60.88,60.88,0,0,1,227,45.71c.76,1.15,1.52,2.39,2.23,3.71.07.12.14.26.21.39.24.45.48.9.7,1.36l.21.45a33.53,33.53,0,0,1,1.58,4A30.53,30.53,0,0,1,233.1,60.6Z" style="fill:#b2973f"/><path d="M256.8,39.48c-3.47,2-3.94,2.37-4,4.35-10,3.24-22.88,5.49-19.71,1.94,3.62-4.05,19.23-5.81,12.48-6.6S227,45.71,227,45.71A60.88,60.88,0,0,0,223,40.37a115.44,115.44,0,0,0,21.76-5.2s10.74-1.07,8.42.36-.1,1.27,3.16,1.19S260.59,37.27,256.8,39.48Z" style="fill:#ffb050"/><path d="M252.81,43.83c0,.18,0,.38,0,.6,0,1.77-.88,2.56-2.58,3.57-11.09,2.84-16.81,4.42-6.58,4.56h.57c-.3.46-.69,1.06-1.31,1.87-2.31,3-9.46,2.7-11,1.14a33.53,33.53,0,0,0-1.58-4l-.21-.45c-.22-.46-.46-.91-.7-1.36-.07-.13-.14-.27-.21-.39-.71-1.32-1.47-2.56-2.23-3.71,0,0,11.86-7.33,18.6-6.54s-8.86,2.55-12.48,6.6C229.93,49.32,242.78,47.07,252.81,43.83Z" style="fill:#ff9c24"/><path d="M137.43,23.34c-2.33,1.83-3.27,2.47-3.56,1.73-.57-1.42-1.3-1,2.63-4.27C136.78,21.66,137.09,22.53,137.43,23.34Z" style="fill:#ffb050"/><path d="M174.7,4.64c-5.47,0-6.53.43-10.95-2.52s-4.21,0-6.31-1.27-4,.64-5.89-.41,0,0-7.91,1.05-16.75,27.33-16.75,27.33c.7.09,1.4.19,2.09.31,0,0,5.62-11.64,9.94-18.27s7.67-2.53,8-1.54c.16.52-.71,2-2.41,4,.56.63,1,1.56,1.57,2.21a1.89,1.89,0,0,0,1,.59c.8-.57,1.66-1.16,2.57-1.77-.42-1.41,1.37-2.61,3.44-5.69s5.35-.64,10.72,0c2.26.26,3.46.83,3.92,1.64,2.59-.91,2.44,0,.15,1.77a11.2,11.2,0,0,1-1.23,2.67c-1.85,3.16-7.11,4-7.11,4a6.53,6.53,0,0,1-2.95.1c-1.59.9-3.18,1.8-4.63,2.65a8.4,8.4,0,0,1,2.33,2.07c2.88-1.4,6.67-3.34,11.64-5.93,14.53-7.57,6-1.7-.74,3.14a41.36,41.36,0,0,1-10.07,4.83c0,1.12-1.24,1.9-2.2,2.77,2.7-.65,7.52-3.71,19.12-8.76,15.47-6.74-4.74,5.37-17.68,11.05s-5.48,2.42,9.79-1.05,10.1-3.16,2.62.53-23,5.27-23,5.27a15.47,15.47,0,0,0,1.55.84c17.53,1.68,27.92-1.27,27.71-3.8s1-2.94,2.94-5.26-.84-3.79.85-5.05.84-4.42,1.89-8.84S180.17,4.64,174.7,4.64ZM138.1,10s-2.68,1.74-1.74,0,2.85-2.84,3.16-2S138.1,10,138.1,10Zm12.16-3.24c-.7,2-3.63.32-5.69-1.53s2.29-1.78,5-1.54S150.26,6.72,150.26,6.72ZM167.54,8.3c-1.89-.63.24-1.34,2-2s1.93.83,1.93.83C172.44,9.24,169.44,8.93,167.54,8.3Zm4.35,4.34c-1.35-.87.7-1.42,2.37-2s1.49,1.18,1.49,1.18C176.07,14.15,173.23,13.52,171.89,12.64Z" style="fill:#414142"/><path d="M233.1,60.6a12.7,12.7,0,0,0-5.67-5.07,7.5,7.5,0,0,0-1.25-.37c-3.56-.69-3.76,1-3.6,3.62,0,.57.08,1.18.12,1.82.21,3.62-.19,5.52-3.78,2.25s-8.85-3.9-9.49,0-3.15,3.68-9.89,1.68-6.53-.61-8.84,2-7.57,2.32-2.95,6.65,5.48,7.71,10.74,6.65,7.16-1.71,9.26.2,6.27,7.7,13.35,8.59c.45-.43,1-.94,1.48-1.49s.84-.89,1.27-1.38c4.21-4.72,9.58-12.4,9.58-20.86A26.8,26.8,0,0,0,233.1,60.6Zm-3.87,11.56c-2.74,4.67-10.95,6.06-10.95,6.06s-1.9.63-5.86-.42-3.4-3.27-9.38-2-7.81.08-7.92-4.44,3.89-3.48,10.21-1.69,11.58.74,14.52-2.53S232,67.48,229.23,72.16Z" style="fill:#fed022"/><path d="M153.54,96.74c3.59,1.58,5.69,1.16,5.9,2.66s-4.32-.34-11.68-3.55-7-.48-.21,2.16-3.79.73-6.53-1.06-4.63-.42-1.47,1.58-3.26.63-7.53-1.69-6-.7,0,2.56,1.42,2.81-3,1.34-3.75-1,.88,3.2,2.53,3.75-1.89,1.85-7-3.36-3.89-1c2.31,1.74,10.32,4.4,14.44,5.71a3.61,3.61,0,0,0,.4.36c2.31,1.81,1.26,2,1.68,3.25.36,1.1,1.53,2,4.19,2.26-6.38.18-21.17-7.17-27.13-10.15-6.74-3.38-6.21-2.43-5.18-.85s15.6,8.42,23.28,11.9a29.73,29.73,0,0,0,13.43,2.2c-1.11.77-3.88,1.32-9.43,1.16C125,120.21,101,101.07,101,101.07c27.8-3.18,34.32-9.27,45.93-13.16,0,0,3.11,7.46,8.38,4.73s10.52-1.26,10.94.84c.38,1.87-1.25,2.08.91,3.58a19.27,19.27,0,0,1-10.49-.74C150.81,94.22,150,95.16,153.54,96.74Z" style="fill:#cea941"/><path d="M169.23,100.85a85.85,85.85,0,0,1-21.26.22c-9.05-1-10.74,1.88-9.9,3.72s-1.18,3.95.45,5.71c-4.12-1.31-12.13-4-14.44-5.71-3.16-2.36-.53-.89,3.89,1s6.53,2.4,1.89-1.85-5.33-4.67-.88-3.2,9.05,1.92,3-1.34-4.26-4.87,0-2.56,10.69,3.69,7.53,1.69S138.29,95.16,141,97s13.37,3.68,6.53,1.06-7.16-5.36.21-2.16,11.89,5,11.68,3.55-2.31-1.08-5.9-2.66-2.73-2.52,3.16-.42a19.27,19.27,0,0,0,10.49.74q.41.28,1,.63C171.76,99.79,174.07,100.22,169.23,100.85Z" style="fill:#b2973f"/><path d="M149.19,119.47a29.73,29.73,0,0,1-13.43-2.2c-7.68-3.48-22.23-10.32-23.28-11.9s-1.56-2.53,5.18.85c6,3,20.75,10.33,27.13,10.15.39,0,.82,0,1.28,0C148.3,116.42,151,118.22,149.19,119.47Z" style="fill:#b2973f"/><circle cx="35.08" cy="68.22" r="5.37" style="fill:#414142"/><path d="M37.07,54.65l-.07,0a12.23,12.23,0,0,0-1.92-.15A12,12,0,0,0,23.86,70.76v0a12,12,0,1,0,13.2-16.13Zm-2,22.11A10.27,10.27,0,1,1,45.35,66.49,10.26,10.26,0,0,1,35.08,76.76Z" style="fill:#8e732f"/><path d="M35.08,56.22A10.27,10.27,0,1,0,45.35,66.49,10.26,10.26,0,0,0,35.08,56.22Zm0,17.37a5.37,5.37,0,1,1,5.37-5.37A5.37,5.37,0,0,1,35.08,73.59Z" style="fill:#eae3dd"/><path d="M190.7,66.49a12.33,12.33,0,0,1-5.68-5,12.83,12.83,0,0,0-3.14-3.59h0A11,11,0,0,0,173.28,56h0c-.42.06-.85.13-1.29.23-7,1.47-10.12,1.07-12.64,1.48s-4.43.52-6.22-3.22c-.84-1.75-1.29-3.82-2.33-5.59h0c-1.19-2-3.16-3.6-7.36-3.83-7.87-.42-10.4.63-14-1.68s-11.16-4.48-16.22-3-12.63-.61-17.68,1.92c-1,.5-1.9,1-2.69,1.47a17,17,0,0,0-2.41,1.73h0A16.25,16.25,0,0,0,86.5,51c-2.11,4.2-6.74,2.73-7.37,8.84s-.63,6.64,4.42,6.69c3.31,0,5.81.13,8.26-.64a13.25,13.25,0,0,0,4-2c4-2.95,14.11-3.35,15.16-6.1a3.55,3.55,0,0,1,.87-1.25s8.87-10.18,11.08-7.56.78,6.22,2.66,7.33-1.36,4.41-.29,5.21a.79.79,0,0,1,.28.73c4.27,4.68,10.22,9.68,13.82,9.22,4.84-.64,12.63,4.84,14.94,0s4.85-10.32,6.95-7.16,3.16,8.21,6.32,9.37a40.86,40.86,0,0,0,13,2.21,15.33,15.33,0,0,0,7.15-2.66C183.13,68.81,188.39,69.06,190.7,66.49Zm-58-19.9s0,1.89-2.36,4.1-3.48-1.26-6-3.15-9-2.06-15.48,2.52-9.63,4.78-15.94,5.47-1.11-7.29,2.84-10,4.42-2.88,10-2.56,7.73-.32,11.36-.79,5.85,0,9.87,1.58S133.17,44.88,132.65,46.59Z" style="fill:#ff9c24"/><path d="M83.55,66.49c-5,0-5-.59-4.42-6.69S84.39,55.16,86.5,51a16.25,16.25,0,0,1,3.94-5.43c-.22,0-5.89-.2-8.78,2.27S78.29,49.9,74.5,51s-3.79,1.37-8.21,4S56.4,58.76,53.87,57.7s-5.66-1.18-8.52-2.17a26.3,26.3,0,0,0-5-1.48,4.4,4.4,0,0,0-3.25.6,12,12,0,1,1-13.2,16.13c.08.43,1.48,7.27,3,7.72a34.22,34.22,0,0,1,6,2.19,11.35,11.35,0,0,0,6.38.8,5.35,5.35,0,0,0,2.15-.8c2.05-1.42,4.58-4.07,8.37-2.19l3.79,1.87s.31-3.62,2.21-3.86,4.26.87,5.36,0,3.16-3.71,5.53-2.92,3.63,2,5,0,9.48-1.52,11.69-.45h0c2.2,1.06.58-2.25,8.41-7.3C89.36,66.62,86.86,66.52,83.55,66.49ZM81.34,69c-.47,1.1-2.52.63-5.36.79a12.48,12.48,0,0,0-6.79,2.36c-2.21,1.41-2.85-.15-5.47,0S60,74.69,58,74.69a13.77,13.77,0,0,0-6.14,1.13c-2,1-3.47-1.13-3.32-3.5s2.85-3.15,3.79-.94,4.11-.16,7.9,0,6.31-.64,9.94-3.16S76,66.49,76,66.49C79.27,66.13,81.82,67.9,81.34,69Z" style="fill:#fed022"/><path d="M99.66,78.5c7.42.14,14.21-.18,5.36,1.4s-13.85.32-6.52,1.74,14.29,3,4.64,2.52-12.64-.31-6.48,1S109,89,100,87.91s-12.68.36-8.16,1.15,8.62,2.52,1,1.49-8.88-2-2.94.32,6.37,3.24,0,2.61-6,1.09-1.54,2.35c-6.22.23-10.36-1.47-7-5.28A15.17,15.17,0,0,0,84.5,76.06s9.06-8,16.53-10.58-2,3-6.27,5.29,1.11,2.18,11-2.55,7.74-1.9,0,2.21-11.28,5.69-3.12,3.31,14.18-4.09,5.65,0S92.24,78.35,99.66,78.5Z" style="fill:#59595b"/><path d="M125.52,62.16c0,1.16-1.32,3.06-.44,3.69,1.1.79-3.79,3.32-2.69,4.42s-2.52,3.16-1.42,4.42-4.26,3.79-2.68,4,0,0-8.53,9.27c-4.53,4.93-14.3,7.67-21.38,7.92-4.51-1.26-4.8-3,1.54-2.35s6-.32,0-2.61-4.63-1.34,2.94-.32,3.48-.7-1-1.49S91,86.85,100,87.91s2.84-1.54-3.31-2.8-3.16-1.42,6.48-1,2.67-1.1-4.64-2.52-2.32-.16,6.52-1.74,2.06-1.26-5.36-1.4.15-.65,8.68-4.76,2.53-2.36-5.65,0-4.61.79,3.12-3.31,10-7,0-2.21-15.31,4.89-11,2.55,13.74-7.92,6.27-5.29S84.5,76.06,84.5,76.06a15.3,15.3,0,0,0-1.1-2.91c2.2,1.06.58-2.25,8.41-7.3a13.25,13.25,0,0,0,4-2c4-2.95,14.11-3.35,15.16-6.1a3.55,3.55,0,0,1,.87-1.25s8.87-10.18,11.08-7.56.78,6.22,2.66,7.33-1.36,4.41-.29,5.21A.79.79,0,0,1,125.52,62.16Z" style="fill:#414142"/><path d="M81.34,90.55a4.23,4.23,0,0,0-5,0c-1.1.88-4.1-.39-4.89-2s-4.11-2-6.16-.67-4.11-.27-5.53,0-4.73,1-6-3.7-1.26-2.41-2.05-2.57-3,1.1-3.79,3.94-4.1.32-6.31,0S36.82,85,37.93,84a4.54,4.54,0,0,0,1.32-2.52,5.35,5.35,0,0,0,2.15-.8c2.05-1.42,4.58-4.07,8.37-2.19l3.79,1.87s.31-3.62,2.21-3.86,4.26.87,5.36,0,3.16-3.71,5.53-2.92,3.63,2,5,0,9.48-1.52,11.69-.45h0a16.08,16.08,0,0,1-2.06,17.4Z" style="fill:#414142"/><path d="M132.65,46.59s0,1.89-2.36,4.1-3.48-1.26-6-3.15-9-2.06-15.48,2.52-9.63,4.78-15.94,5.47-1.11-7.29,2.84-10,4.42-2.88,10-2.56,7.73-.32,11.36-.79,5.85,0,9.87,1.58S133.17,44.88,132.65,46.59Z" style="fill:#ffb050"/><path d="M126.59,37c-.4,1.32-1.84,1.49-3.42,1.32s-3.33-.73-4.3-.84a29.19,29.19,0,0,0-12,.71c-7,2.21-11,2.5-16.47,3.77a17.62,17.62,0,0,0-4.6,1.81h0c-1.71.89-2.66,1.39-4.49,0-3-2.37-6-4.58,5.37-7s13.89.69,17.53-1.19,7.1-3.78,12.63-3.15C119.82,32.71,128.21,31.64,126.59,37Z" style="fill:#c6a852"/><path d="M92.86,43.8a17,17,0,0,0-2.41,1.73h0c-.22,0-5.89-.2-8.78,2.27S78.29,49.9,74.5,51s-3.79,1.37-8.21,4S56.4,58.76,53.87,57.7s-5.66-1.18-8.52-2.17a26.3,26.3,0,0,0-5-1.48s2-1.78,3.92-1.49,2.37.82,5.21,0,5.37,2.55,6.32,3,4.57-.61,6.15-1.88A12.1,12.1,0,0,1,67.45,51c2.37-.47,5.68-3.16,7.58-5.48s6.31-1.78,6.31-1.78c1.83,1.44,2.78.94,4.49,0h0A18.66,18.66,0,0,1,92.86,43.8Z" style="fill:#414142"/><path d="M81.34,69c-.47,1.1-2.52.63-5.36.79a12.48,12.48,0,0,0-6.79,2.36c-2.21,1.41-2.85-.15-5.47,0S60,74.69,58,74.69a13.77,13.77,0,0,0-6.14,1.13c-2,1-3.47-1.13-3.32-3.5s2.85-3.15,3.79-.94,4.11-.16,7.9,0,6.31-.64,9.94-3.16S76,66.49,76,66.49C79.27,66.13,81.82,67.9,81.34,69Z" style="fill:#fed94e"/><path d="M229.23,72.16c-2.74,4.67-10.95,6.06-10.95,6.06s-1.9.63-5.86-.42-3.4-3.27-9.38-2-7.81.08-7.92-4.44,3.89-3.48,10.21-1.69,11.58.74,14.52-2.53S232,67.48,229.23,72.16Z" style="fill:#fed94e"/><path d="M172.07,19.59c-11.6,5.05-16.42,8.11-19.12,8.76-.14.13-.28.27-.4.4-1.11,1.19-4.9,0-6.72,0s-4.1-1.5-5.76-2.05A3.72,3.72,0,0,1,138.28,25c-2,.4-5,2-.38-.69-.16-.32-.32-.65-.47-1-2.33,1.83-3.27,2.47-3.56,1.73-.57-1.42-1.3-1,2.63-4.27-.86-2.6,2.63-5.55,5.15-7.52,1.38-1.08,2.19-.75,2.85,0,1.7-2,2.58-3.44,2.41-4-.31-1-3.68-5.09-8,1.54S129,29.13,129,29.13a34.34,34.34,0,0,1,10.7,3.46,23,23,0,0,1,3.07,2.08c.32.26.67.49,1,.72,0,0,15.58-1.59,23.05-5.27s12.63-4-2.63-.53-22.74,6.74-9.79,1.05S187.55,12.85,172.07,19.59ZM138.18,30c-.34.49-.87.56-2.19,0s-3.49-1.34-2.86-2.45,2.68-.39,4.73,0S138.18,30,138.18,30ZM146,32.78c0,1.06-1.82,1.49-3.87.78s.08-1.41,2.37-2S146,32.78,146,32.78Z" style="fill:#59595b"/><path d="M144.5,13.28a54.86,54.86,0,0,1-6.43,6.2L136.5,20.8c-.86-2.6,2.63-5.55,5.15-7.52C143,12.2,143.84,12.53,144.5,13.28Z" style="fill:#ff9c24"/><path d="M147.11,16.08c-4.6,3.22-7.66,5.68-9.68,7.26-.34-.81-.65-1.68-.93-2.54l1.57-1.32a54.86,54.86,0,0,0,6.43-6.2c.56.63,1,1.56,1.57,2.21A1.89,1.89,0,0,0,147.11,16.08Z" style="fill:#ffb050"/><path d="M138.28,25c-2,.4-5,2-.38-.69C138,24.58,138.15,24.81,138.28,25Z" style="fill:#ffb050"/><path d="M167.77,10.26a65,65,0,0,0-9.91,5.12C145.65,22.64,140.6,26,139.44,25.07c-.2-.17-.64-.14-1.16,0-.13-.22-.26-.45-.38-.69l5.52-3.17c14.34-8.21,21.71-17,8.13-8.1-.65.42-1.27.84-1.87,1.24-.42-1.41,1.37-2.61,3.44-5.69s5.34-.64,10.71,0C166.11,8.88,167.3,9.45,167.77,10.26Z" style="fill:#ffb050"/><path d="M147.11,16.08c.81-.57,1.66-1.16,2.57-1.77C150,15.4,148.43,16.36,147.11,16.08Z" style="fill:#ff9c24"/><path d="M143.42,21.17l-5.52,3.17c-.16-.32-.32-.65-.47-1,2-1.58,5.08-4,9.68-7.26,1.32.28,2.9-.68,2.57-1.77.6-.4,1.22-.82,1.87-1.24C165.13,4.12,157.76,13,143.42,21.17Z" style="fill:#ff9c24"/><path d="M167.91,12a2.26,2.26,0,0,0-.14-1.77C170.35,9.35,170.2,10.26,167.91,12Z" style="fill:#ff9c24"/><path d="M156.62,18.82c-1.59.9-3.18,1.8-4.62,2.65l-.32-.2c-1.78-1.12,1.18-1.92,2.92-2.39A4.8,4.8,0,0,1,156.62,18.82Z" style="fill:#ff9c24"/><path d="M165.22,20.75a41.36,41.36,0,0,1-10.07,4.83,1.83,1.83,0,0,0-.08-.55,4.86,4.86,0,0,0-.75-1.49c2.88-1.4,6.67-3.34,11.64-5.93C180.49,10,172,15.91,165.22,20.75Z" style="fill:#ff9c24"/><path d="M167.91,12l-.68.51c-2,1.46-6.36,3.87-10.61,6.28a4.79,4.79,0,0,0-2,.06c-1.74.47-4.7,1.27-2.92,2.39l.31.2c-3.88,2.27-6.77,4.16-6.24,4.64.84.77,3,.12,8.57-2.57a4.86,4.86,0,0,1,.75,1.49,1.83,1.83,0,0,1,.08.55c-3.39,1.21-5.64,1.9-4.37,2.61a2.85,2.85,0,0,0,2.17.16l-.41.4c-1.1,1.19-4.89,0-6.7,0s-4.11-1.5-5.77-2.05A3.72,3.72,0,0,1,138.28,25c.52-.1,1-.13,1.16,0,1.16.94,6.21-2.43,18.42-9.69a65.09,65.09,0,0,1,9.9-5.12A2.22,2.22,0,0,1,167.91,12Z" style="fill:#ff9c24"/><path d="M154.33,23.54c-5.55,2.69-7.74,3.34-8.57,2.57-.54-.48,2.35-2.37,6.24-4.64A8.7,8.7,0,0,1,154.33,23.54Z" style="fill:#ffb050"/><path d="M155.16,25.58c0,1.12-1.25,1.9-2.21,2.77a2.85,2.85,0,0,1-2.17-.16C149.52,27.48,151.76,26.79,155.16,25.58Z" style="fill:#ffb050"/><path d="M167.91,12a10.89,10.89,0,0,1-1.24,2.67c-1.84,3.16-7.09,4-7.09,4a6.57,6.57,0,0,1-3,.1c4.25-2.41,8.58-4.82,10.61-6.28Z" style="fill:#ffb050"/><path d="M171.89,12.64c-1.34-.87.71-1.42,2.36-2s1.51,1.18,1.51,1.18C176.07,14.15,173.23,13.52,171.89,12.64Z" style="fill:#dbd3ce"/><path d="M167.55,8.3c-1.9-.63.24-1.34,2-2s1.93.83,1.93.83C172.44,9.24,169.44,8.93,167.55,8.3Z" style="fill:#dbd3ce"/><path d="M150.25,6.72c-.69,2-3.62.32-5.68-1.53s2.29-1.78,5-1.54S150.25,6.72,150.25,6.72Z" style="fill:#dbd3ce"/><path d="M138.1,10s-2.69,1.74-1.73,0,2.83-2.84,3.15-2S138.1,10,138.1,10Z" style="fill:#dbd3ce"/><path d="M138.18,30c-.34.49-.87.56-2.19,0s-3.49-1.34-2.86-2.45,2.68-.39,4.73,0S138.18,30,138.18,30Z" style="fill:#dbd3ce"/><path d="M146,32.78c0,1.06-1.82,1.49-3.87.78s.08-1.41,2.37-2S146,32.78,146,32.78Z" style="fill:#dbd3ce"/><path d="M247.16,71.74c-.09,1.23-.22,2.36-.38,3.41-4.25-.78-7.29-1-7.71,0-.8,1.86,1.63,2.77,6.8,4.07-.21.66-.43,1.25-.66,1.8-3.51-1.22-5.94-1.73-6.3-.71-.63,1.73.76,2.45,4.31,3.88-3.72,4-8.82,1.16-10.12-1.3-2.17-4.1,1.86-6.16,4.07-14.05s-.16-9.63,4.89-10.07A4,4,0,0,1,246,60.55c-2.46-.09-3.73.21-3.17,1.35.41.83,2.06,1.44,4.38,1.94a6.74,6.74,0,0,1,.09,1c0,.89,0,1.74,0,2.56-4.5-.86-5.95-.91-6.51.87C240.36,69.62,242.84,70.68,247.16,71.74Z" style="fill:#ff9c24"/><path d="M245.21,81a10.94,10.94,0,0,1-2,3.17c-3.55-1.43-4.94-2.15-4.31-3.88C239.27,79.3,241.7,79.81,245.21,81Z" style="fill:#ffb050"/><path d="M246.78,75.15a29.07,29.07,0,0,1-.91,4.08c-5.17-1.3-7.6-2.21-6.8-4.07C239.49,74.17,242.53,74.37,246.78,75.15Z" style="fill:#ffb050"/><path d="M247.31,67.35c0,1.59-.05,3.05-.15,4.39-4.32-1.06-6.8-2.12-6.36-3.52C241.36,66.44,242.81,66.49,247.31,67.35Z" style="fill:#ffb050"/><path d="M247.18,63.84c-2.32-.5-4-1.11-4.38-1.94-.56-1.14.71-1.44,3.17-1.35h0A7.88,7.88,0,0,1,247.18,63.84Z" style="fill:#ffb050"/><path d="M36.56,65.59a3.9,3.9,0,1,1,3.89,3.89A3.9,3.9,0,0,1,36.56,65.59Z" style="fill:#eae3dd"/></g></g></svg>