<svg xmlns="http://www.w3.org/2000/svg" viewBox="0 0 287.6 170.65"><title>german-blue-ram</title><g id="Layer_2" data-name="Layer 2"><g id="Ñëîé_2" data-name="Ñëîé 2"><path d="M285.3,63.46c-7.8,17-3.39,25.78-6.11,25.78s2.72,6.11-.67,7.81-5.43,5.43-2,6.79-2.38,10.86,2,17.3-13.92,16-34.28,0l-1.5-1.16c21.84,13.14,31,1.28,28.53-4.15s-1.58-22,.46-22.65-.22-7.67,2.94-9,.68-3.85-.9-11.09,8.36-15.61,3.39-18.78-45.57,8.46-45.57,8.46c13.26-9,28.38-17.86,46.93-15.24C278.52,47.51,293.11,46.49,285.3,63.46Z" style="fill:#c21f1f"/><path d="M273.77,73.07c1.58,7.24,4.07,9.73.9,11.09s-.9,8.32-2.94,9-2.94,17.22-.46,22.65-6.69,17.29-28.53,4.15h0c-3.17-2.42-6.21-4.57-9.15-6.44a33.09,33.09,0,0,0,6.63-1.48c.22,8.21,6.76,8.75,5.4,3.66s2.71-3.73,4.92-.51,2.88,6.79,7.35,5.6-4.63-7.12-5.82-11,4.41.34,12,7.19,3.23-2.6.68-6-9-7.63-7.87-9.67,3.8,2,8.55,2.67-2-7.42-5.43-8.48,4.75-3.18,8.49-3.6-4.25-3.48-8.66-4.2,1-4.88,9.33-5.22-1.52-3.39-8-3.56-3.56-6.62,4.07-7.42,4.41-2.93-2-2.43-12.22,1.53-8.17-2.71,19.87-8.82,14.78-9-26.49,10.77-26.49,10.77c-8.91-2.3-19.34.07-19.84.19,2.61-1.79,5.3-3.68,8.06-5.56,0,0,40.59-11.63,45.57-8.46S272.18,65.83,273.77,73.07Z" style="fill:#f39272"/><path d="M240.2,112.05a33.09,33.09,0,0,1-6.63,1.48,75.29,75.29,0,0,0-16.32-8.09c4.77-9.17,3.59-17.15,1-23.06a32.59,32.59,0,0,0-4.91-7.73,73.24,73.24,0,0,0,6.85-4.07c1.11-.73,2.23-1.48,3.36-2.27h0c.5-.12,10.93-2.49,19.84-.19,5.14,1.32,9.78,4.19,11.73,9.93C259.89,92.1,255.21,107,240.2,112.05Z" style="fill:#f2c275"/><path d="M218.21,82.38c-8,2.94-26.36,8.48-40.59,4-17.34-5.42-48-22.24-85.82-16.76.43.76,1.39,1.37,3.25,1.83,3.62.91-.45,5.89-1.13,10.18s-6.79,6.57-9.28,3-4.75-8.37-7.3-10.41a5.57,5.57,0,0,1-1.14-1.28c-4.26,1-8.11,1.8-11.59,2.49a12.82,12.82,0,0,1-4.22.79c-2.86.51-5.44.91-7.77,1.2a14.78,14.78,0,0,1-.51,1.5c-1,2.32.41,12-6,12.72s-7.12-.9-10.29,0S29,91,29,87.68a13.52,13.52,0,0,0-4-8.81C8.64,89.33,3.24,104.29.94,110.62c-2.71,7.47,7,8.83,7,8.83.55.1-.22.84-.48.84s-4.07-1.1-5.17-2S.43,118,.09,119.62a4.51,4.51,0,0,0,.37,2.88c2.94,3.23,8.09,6.08,14.26,8.47,1.53-2.41,3.3-3.45,8.28-4.06,7-.85,7.88-6.19,7.88-6.19a11.53,11.53,0,0,1-7.88-11,11.53,11.53,0,0,1,20.45-7.31c1.29-9,7.37-9.82,10.43-11.35S55.74,88.23,55.4,87,53.88,80.76,60,79.23s12.39,2.38,16,5.77,4.24,6.11,11.54,6.62,16.46,22.57,18.66,30.88,15,13,15,13c9.59-1.33,19.36-4.69,28.63-8.73,19.8-8.63,37.28-20.43,45.66-22.57a34.31,34.31,0,0,1,11.91-.91,44.15,44.15,0,0,1,10,2.17C222,96.27,220.84,88.29,218.21,82.38ZM119,100.06c-3.17.07-6.33.61-8.37,3.21s-8.6-2.6-10.18-7.79-3.39-19,0-20.12,7.47.43,9-2.74,6.13.9,6.13.9.88-1.36,5.43,7.24S122.2,100,119,100.06Z" style="fill:#7d85b9"/><path d="M218.21,82.38c-8,2.94-26.36,8.48-40.59,4-17.34-5.42-48-22.24-85.82-16.76a3.3,3.3,0,0,1-.14-2.53c.45-2,.63-2.65-1.83-4.46a291.59,291.59,0,0,1,42.43-1.27,112.39,112.39,0,0,1,12.9,1.39c23.45,4.1,31.2,10.48,40.53,12.58a27.86,27.86,0,0,0,4.6.65c9.92.57,13,3.74,23-1.36A32.59,32.59,0,0,1,218.21,82.38Z" style="fill:#717aa8"/><path d="M121.09,135.48a66.13,66.13,0,0,1-6.81.59l-2.59.08c-6.07-6.78-14.87-13.28-25.58-13.65,0,0-7.46,1.36-8.14,5.09-.25,1.38,2.53,4.73,6.15,8.78-10.54,0-16.31.08-20.31,2,1.18-.71,14.45-8.93,13.48-22.12-1-13.8-14.08-22.28-13.57-20.59s-1.22,33.12-31.3,40.46A122.19,122.19,0,0,1,14.72,131c1.53-2.41,3.3-3.45,8.28-4.06,7-.85,7.88-6.19,7.88-6.19a11.35,11.35,0,0,0,3.65.59,11.53,11.53,0,0,0,8.92-18.85c1.29-9,7.37-9.82,10.43-11.35S55.74,88.23,55.4,87,53.88,80.76,60,79.23s12.39,2.38,16,5.77,4.24,6.11,11.54,6.62,16.46,22.57,18.66,30.88S121.09,135.48,121.09,135.48Z" style="fill:#f2c275"/><path d="M77.29,116.28c-1-13.8-14.08-22.28-13.57-20.59s-1.22,33.12-31.3,40.46c14,3.09,27.79,4.06,31.3,2.3l0,0,.05,0C65,137.69,78.26,129.47,77.29,116.28ZM51.05,136c-2.65-.92-4.18-3.3-.57-4.18,7.13-1.72,12.39-14.06,14.59-20.68,1-2.85,3-3.6,5.48-2a5.77,5.77,0,0,1,1.91,2.1,10.31,10.31,0,0,1,1,5C73.48,126.29,61.88,139.79,51.05,136Z" style="fill:#e0ac61"/><path d="M68.81,71.48c-1.14,2.27-1.36,2.77-4.08,3.88l-.12,0a12.82,12.82,0,0,1-4.22.79,11.29,11.29,0,0,1-4.93-.84c-1.94-.91-2.32.35-2.84,2a14.78,14.78,0,0,1-.51,1.5c-1,2.32.41,12-6,12.72s-7.12-.9-10.29,0S29,91,29,87.68a13.52,13.52,0,0,0-4-8.81,56.66,56.66,0,0,1,6.48-3.6c1.09-.53,2.23-1,3.4-1.52,7.8-3.21,19.2-6,32-8.11h0S69.94,69.22,68.81,71.48Z" style="fill:#2b2b2b"/><path d="M60.39,76.2c-2.86.51-5.44.91-7.77,1.2.52-1.69.9-3,2.84-2A11.29,11.29,0,0,0,60.39,76.2Z" style="fill:#717aa8"/><path d="M93.92,81.66c-.68,4.31-6.79,6.57-9.28,3s-4.75-8.37-7.3-10.41a5.57,5.57,0,0,1-1.14-1.28c-2-2.87-3.51-8.19-3.51-8.19,5.58-.82,11.35-1.51,17.14-2.07,2.46,1.81,2.28,2.49,1.83,4.46a3.3,3.3,0,0,0,.14,2.53c.43.76,1.39,1.37,3.25,1.83C98.67,72.39,94.6,77.37,93.92,81.66Z" style="fill:#2b2b2b"/><path d="M76.2,72.92c-4.26,1-8.11,1.8-11.59,2.49l.12,0c2.72-1.11,2.94-1.61,4.08-3.88s-2-5.83-2-5.83h0c1.91-.32,3.86-.62,5.83-.91C72.69,64.73,74.2,70.05,76.2,72.92Z" style="fill:#717aa8"/><path d="M132.26,61.39a291.59,291.59,0,0,0-42.43,1.27c-5.79.56-11.56,1.25-17.14,2.07-2,.29-3.92.59-5.83.91C67.08,64.87,81.61,15.3,98.44,5c0,0-14.25,20.14-13.12,35.3,0,0,15.6-33,29.41-37.77a61.5,61.5,0,0,0-14,31.57,39.9,39.9,0,0,1,.27,8,10.46,10.46,0,0,1-1.45,5c-2.55,3.51,5.94-1.24,10-3.62s10.18-3,8.82.68c-1.07,2.94,2.88,3.15,4.64,5.07a2.93,2.93,0,0,1,.79,2.06C123.78,55.31,123.78,58.32,132.26,61.39Z" style="fill:#222223"/><path d="M221.28,0a117.3,117.3,0,0,1-3.36,12.06c-3.29,0-9,.49-13.16,4-6.1,5.2-13.11,1.81-15.83,4.08s-5.43,7.91-11.08,6.78a24.32,24.32,0,0,0-15.61,2c-4.75,2.26-9,5-12.52,4.07s-7.16-1.77-9.65,1-2.94-.82-6.79,1.9-7,.94-6.11-1.9-1.35-2.81-3.39,0-13.12,4.84-12.44,1.9-2.49-2.9-3.62-1.9c-.72.63-2.62-1.79-3-5,3.81-4.51,9.5-10.6,13.4-11.85,6.33-2-2.95,3.62-4.53,10.86s5.65-3.84,9.72-5.2-3.16,5.65-3.16,8.82,7.47-8.82,12.9-9,0,1.13,0,6.11,4.52-3.16,7.46-5.2,2.49-1.81,5.2.22,2.49,1.82,7.24-.68,8.82-2,12.44-1.13,13.13-.22,16.07-3.62,7.46-5.65,10.63-4.75,10-2.26,13.8-5.88S215.18,1.58,221.28,0Z" style="fill:#c21f1f"/><path d="M214.12,38.54c-5.24,11.86-14,26.08-28.43,36.82-9.33-2.1-17.08-8.48-40.53-12.58a112.39,112.39,0,0,0-12.9-1.39c-8.48-3.07-8.48-6.08-8.48-10.15a2.93,2.93,0,0,0-.79-2.06c17.08,11,43.32,6.25,61.65-8.68,9.59-7.82,17.8-7.46,23.46-5.33A23.17,23.17,0,0,1,214.12,38.54Z" style="fill:#f2c275"/><path d="M208.1,35.17c-5.66-2.13-13.87-2.49-23.46,5.33C166.31,55.43,140.07,60.14,123,49.18c-1.76-1.92-5.71-2.13-4.64-5.07,1.36-3.73-4.75-3-8.82-.68s-12.56,7.13-10,3.62a10.46,10.46,0,0,0,1.45-5c1.45,0,3.3-2.89,4.54-4.76s2.66-.5.45,4.08,4.25-.17,5.94-1.87,5.6-1.69,5.09-.68,2.38,1.87,4.71.17,2.25.51.55,3.06.68,2.71,5.3-1.19,2.17,1.53.3,6.16,5.26-.56,9.5-7.35,3.9-.51,1.87,3.57-4.58,7.12-1.87,8.82,7.47-8.49,10.25-13.91,3.33,0,1,6.34-2,6.55,1.17,5.93,5.28-10.92,7.61-14.82,3.27.51.55,10.31,5.26,1.74,7.64-6.24,4.41-6.11,4.12-.85-3.44,9,0,8.2,3.17-11.42,4.88-15.15,2.7-.51,1.69,4.07-3.23,6.79,0,6.79,7.12-9,8.65-13.27,2.21.71,1.53,5.68,5.77-4,8.6-10.44,1.92,1.91.9,6.83,3.9-.68,5.77-3.73,4.92-2,3.39,3,6.79-1.64,10.3-4S208.1,35.17,208.1,35.17Z" style="fill:#e58065"/><path d="M221.28,15.64a100,100,0,0,1-7.16,22.9,23.17,23.17,0,0,0-6-3.37s10.77-10.74,7.25-8.36-11.83,9-10.3,4-1.53-6.05-3.39-3-6.79,8.65-5.77,3.73,1.94-13.31-.9-6.83-9.28,15.41-8.6,10.44,0-10-1.53-5.68-5.43,13.27-8.65,13.27-1-2.21,0-6.79,0-7.81-1.69-4.07-1.42,14.34-4.88,15.15-.27-2.94,0-8.2-1.75-7.12-4.12.85-10.35,16-7.64,6.24,1.77-14.21-.55-10.31-4.4,14.2-7.61,14.82-3.54.42-1.17-5.93,1.84-11.77-1-6.34-7.53,15.6-10.25,13.91-.17-4.75,1.87-8.82,2.37-10.35-1.87-3.57-11.37,12-9.5,7.35,4.31-10.06-.3-6.16-7,3.73-5.3,1.19S124,37.33,121.7,39s-5.22.85-4.71-.17-3.39-1-5.09.68S103.76,46,106,41.4s.79-5.95-.45-4.08-3.09,4.76-4.54,4.76a39.9,39.9,0,0,0-.27-8s1.65-2.21,4-5c.37,3.24,2.27,5.66,3,5,1.13-1,4.3-1,3.62,1.9s10.4.9,12.44-1.9,4.3-2.85,3.39,0,2.26,4.61,6.11,1.9,4.3.9,6.79-1.9,6.11-2,9.65-1,7.77-1.81,12.52-4.07a24.32,24.32,0,0,1,15.61-2c5.65,1.13,8.37-4.52,11.08-6.78s9.73,1.12,15.83-4.08c4.13-3.51,9.87-4,13.16-4-1.52,4.5-3.52,9.33-5.91,12.71C212,24.77,219.33,21.05,221.28,15.64Z" style="fill:#f39272"/><path d="M222.3,118.52s-5.88,11.11-13.69,10.43-4.07,2.71-8.48,2.71-4.41.34-10.18,0-25.51-8.75-36.68-1a27.3,27.3,0,0,1-3.55-3.92c19.8-8.63,37.28-20.43,45.66-22.57a34.31,34.31,0,0,1,11.91-.91S217.37,109.83,222.3,118.52Z" style="fill:#f2c275"/><path d="M218.79,131.81c2.55,1.55.65,2.93-5.26,0s-5.26-1-.85,1.72,3.85,5.59-2.49,1.95-9.38-4.08-3.95.93-1.36,4.12-5.94.78-13.23-6.78-8.14-2.94,10.18,9.29,6.78,8.95-17.64-11.75-21.55-11.39,8.15,6.3,12.73,9.35-8.68.59-19.34-9.35-6.28,1.55,6.44,9.69c4.5,2.88,6.82,4.51,7.76,5.6-9.11-2.79-23.45-8.78-31.71-16.43,11.17-7.76,30.91.65,36.68,1s5.77,0,10.18,0,.68-3.39,8.48-2.71,13.69-10.43,13.69-10.43a20.58,20.58,0,0,1,2.38,6.13c.7,3.57.79,5.75.53,7.16,0,0-5.22-2.14-8.45-3S216.25,130.26,218.79,131.81Z" style="fill:#f39272"/><path d="M225.21,131.81c-.55,3.14-2.83,2.42-3.93,4.6-1.58,3.17-4.52,3.55-7.69,2.91s-.23,3.2-3.84,3-2.95,3.84-5.21,3.39-4.3,5-10,1.36-4.29-1.8-1.35,1.25c1,1-2.62.54-8.25-1.2-.94-1.09-3.26-2.72-7.76-5.6-12.72-8.14-17.1-19.62-6.44-9.69s23.92,12.41,19.34,9.35-16.63-9-12.73-9.35,18.16,11.05,21.55,11.39-1.69-5.09-6.78-8.95,3.56-.38,8.14,2.94,11.37,4.24,5.94-.78-2.38-4.58,3.95-.93,6.91.76,2.49-1.95-5.06-4.65.85-1.72,7.81,1.55,5.26,0-5.26-3.93-2-3S225.21,131.81,225.21,131.81Z" style="fill:#e58065"/><path d="M118,160.17c.34,2.37-3.05,1.69-3.05,3.73s-3.06,1-2.72,4.75-1.36,1.36-3.73,0-9.16-3.73-9.5-11.54c-.08-1.88-1.39-4.36-3.32-7.08,3.4-.4,8,10.71,11.12,14.43,3.85,4.53,5-.45,4.11-3.16s3.81-2.49,4.74-4.53.88-2.94,2.69-4.75-.48-7.37-.67-7.88a29.42,29.42,0,0,1,3,6.19C122.42,156.09,117.67,157.79,118,160.17Z" style="fill:#c21f1f"/><path d="M117.68,144.14l0,0h0a56.22,56.22,0,0,0-6-8c-6.07-6.78-14.87-13.28-25.58-13.65,0,0-7.46,1.36-8.14,5.09-.25,1.38,2.53,4.73,6.15,8.78,3.78,4.25,8.47,9.27,11.57,13.66,3.4-.4,8,10.71,11.12,14.43,3.85,4.53,5-.45,4.11-3.16s3.81-2.49,4.74-4.53.88-2.94,2.69-4.75S117.87,144.65,117.68,144.14Zm-14.48,6.07c-2-3.92-8.27-9.46-12.42-13.82-2.8-2.92-4.65-5.31-3.65-6.31,2.49-2.49,9.4,0,9.4,0a32.65,32.65,0,0,1,10.09,6.19c4.66,4.39,5.85,9.13,5.85,12.58C112.47,154,106.59,156.77,103.2,150.21Z" style="fill:#f39272"/><path d="M259.85,87.68c4.41.72,12.39,3.77,8.66,4.2s-11.88,2.54-8.49,3.6,10.18,9.11,5.43,8.48-7.42-4.7-8.55-2.67,5.33,6.28,7.87,9.67,7,12.85-.68,6-13.23-11.09-12-7.19,10.29,9.85,5.82,11-5.14-2.37-7.35-5.6-6.28-4.58-4.92.51-5.18,4.55-5.4-3.66c15-5.06,19.69-20,14.9-34-1.95-5.74-6.59-8.61-11.73-9.93,0,0,21.4-10.94,26.49-10.77s-10.73,4.75-14.78,9,1.72,3.22,8.17,2.71,9.67,1.65,2,2.43-10.52,7.25-4.07,7.42,16.29,3.22,8,3.56S255.44,87,259.85,87.68Z" style="fill:#e58065"/><path d="M44.06,116.28a11.51,11.51,0,0,1-9.53,5,11.35,11.35,0,0,1-3.65-.59A11.63,11.63,0,0,1,29,119.9a14.48,14.48,0,0,1,1.88-4.74,6.51,6.51,0,0,0,9.23-2A5.19,5.19,0,0,1,44.06,116.28Z" style="fill:#f9ddb4"/><path d="M46.07,109.77a11.48,11.48,0,0,1-2,6.51,5.19,5.19,0,0,0-4-3.15,6.52,6.52,0,0,0-1.32-8.28,11.91,11.91,0,0,0,2-4.79,11.58,11.58,0,0,1,5.31,9.71Z" style="fill:#c21f1f"/><path d="M40.76,100.06a11.91,11.91,0,0,1-2,4.79,6.52,6.52,0,0,0-9.79,1.5c-1.63-1.71-2.12-5.2-2.12-5.2a11.54,11.54,0,0,1,13.88-1.09Z" style="fill:#f9ddb4"/><path d="M30.88,115.16A14.48,14.48,0,0,0,29,119.9a11.54,11.54,0,0,1-2.12-18.75s.49,3.49,2.12,5.2a6.52,6.52,0,0,0,1.88,8.81Z" style="fill:#c21f1f"/><path d="M41,109.77a6.5,6.5,0,1,1-2.25-4.92A6.47,6.47,0,0,1,41,109.77Z" style="fill:#2b2b2b"/><path d="M119,100.06c-3.17.07-6.33.61-8.37,3.21s-8.6-2.6-10.18-7.79-3.39-19,0-20.12,7.47.43,9-2.74,6.13.9,6.13.9.88-1.36,5.43,7.24S122.2,100,119,100.06Z" style="fill:#2b2b2b"/><path d="M112.47,148.85c0,5.18-5.88,7.92-9.27,1.36-2-3.92-8.27-9.46-12.42-13.82-2.8-2.92-4.65-5.31-3.65-6.31,2.49-2.49,9.4,0,9.4,0a32.65,32.65,0,0,1,10.09,6.19C111.28,140.66,112.47,145.4,112.47,148.85Z" style="fill:#fca790"/><path d="M73.49,116.3c0,10-11.61,23.49-22.44,19.69-2.65-.92-4.18-3.3-.57-4.18,7.13-1.72,12.39-14.06,14.59-20.68,1-2.85,3-3.6,5.48-2a5.77,5.77,0,0,1,1.91,2.1A10.31,10.31,0,0,1,73.49,116.3Z" style="fill:#e0ac61"/><circle cx="38.79" cy="104.85" r="2.55" style="fill:#eae3dd"/><path d="M27.34,106.35a1.67,1.67,0,0,1,3.33,0,1.67,1.67,0,1,1-3.33,0Z" style="fill:#eae3dd"/><path d="M43.21,122.48a8.29,8.29,0,0,0-5.6,4.26c-1.7,3.56-2.69,5,3.15,6.07s5.5,3.13,8.39,2.1,5.38-1.84,4-4.24-3.12-4.27-2.78-6.13S44.87,121.92,43.21,122.48Z" style="fill:#2b2b2b"/><path d="M147.89,91.88s-6.11-6-11.2-3.8-3.39,9.65-6.44,10.16,1.31,4.86,2,8.11,9.86,5.52,10.2,1.67,3.73-7.68,8.82-4.92,11.57.65,11.73-3-6.6-11-9-8.18S147.89,91.88,147.89,91.88Z" style="fill:#2b2b2b"/><path d="M195,126s17.49-.75,16.58-8.49-7.69-12.49-18.32-5.25S179.9,125.67,185.33,126A91.42,91.42,0,0,0,195,126Z" style="fill:#fcd59d"/><path d="M98.48,25.34S86,48.67,85.34,53.75s1.38,4.88,6.57-1.47S99.4,43,98.48,39.59s2.29-15.75,2.22-16.6S99.32,23.75,98.48,25.34Z" style="fill:#45bcc9"/><path d="M83.25,49.2s-.34-10.5-2.55-7.12-7.29,17.14-6.44,19S84.27,59.38,83.25,49.2Z" style="fill:#78e9ef"/><path d="M106.49,49.77s-5,3.39-6.33,6.45,4.52,1.44,8.14-1S114.75,42.87,106.49,49.77Z" style="fill:#45bcc9"/><path d="M197.11,41.19a2.07,2.07,0,1,1-2-2.41A2.25,2.25,0,0,1,197.11,41.19Z" style="fill:#78e9ef"/><path d="M198,51.47a2.51,2.51,0,1,1-3.38.74A2.45,2.45,0,0,1,198,51.47Z" style="fill:#78e9ef"/><path d="M180,41.68a2.13,2.13,0,1,1-3.07.63A2.22,2.22,0,0,1,180,41.68Z" style="fill:#78e9ef"/><ellipse cx="166.2" cy="52.5" rx="2.36" ry="2.11" style="fill:#78e9ef"/><path d="M207.08,29.77c0,1.36-.68,2.46-1.51,2.46s-1.52-1.1-1.52-2.46.68-2.45,1.52-2.45S207.08,28.42,207.08,29.77Z" style="fill:#78e9ef"/><path d="M148.06,52.74c0,1.3-.72,2.36-1.61,2.36s-1.61-1.06-1.61-2.36.72-2.35,1.61-2.35S148.06,51.44,148.06,52.74Z" style="fill:#78e9ef"/><path d="M183.35,61.42c0,1.31-.53,2.37-1.19,2.37S181,62.73,181,61.42s.53-2.38,1.18-2.38S183.35,60.11,183.35,61.42Z" style="fill:#78e9ef"/><path d="M187.11,48.55a2.7,2.7,0,0,1-3.25,4.14,2.7,2.7,0,0,1,3.25-4.14Z" style="fill:#45bcc9"/><ellipse cx="158.57" cy="60.56" rx="2.42" ry="3.24" style="fill:#45bcc9"/><path d="M175.83,63.36a2,2,0,1,1-2-2.27A2.17,2.17,0,0,1,175.83,63.36Z" style="fill:#45bcc9"/><ellipse cx="204.91" cy="44.72" rx="2.16" ry="2.64" style="fill:#45bcc9"/><path d="M193,60.85A1.7,1.7,0,1,1,191.33,59,1.76,1.76,0,0,1,193,60.85Z" style="fill:#45bcc9"/><path d="M158.41,52c0,.87-1,1.58-2.2,1.58S154,52.84,154,52s1-1.58,2.19-1.58S158.41,51.1,158.41,52Z" style="fill:#45bcc9"/><path d="M186.8,69.28c0,.72-1.27,1.3-2.84,1.3s-2.84-.58-2.84-1.3S182.39,68,184,68,186.8,68.56,186.8,69.28Z" style="fill:#78e9ef"/><path d="M193,30.26c0,.65-.76,1.19-1.69,1.19s-1.7-.54-1.7-1.19.76-1.19,1.7-1.19S193,29.6,193,30.26Z" style="fill:#78e9ef"/><path d="M172.39,41.18c0,.63-1.23,1.15-2.75,1.15s-2.75-.52-2.75-1.15S168.12,40,169.64,40,172.39,40.55,172.39,41.18Z" style="fill:#78e9ef"/><path d="M189.63,37.54c0,.68-.93,1.24-2.07,1.24s-2.07-.56-2.07-1.24.92-1.23,2.07-1.23S189.63,36.86,189.63,37.54Z" style="fill:#78e9ef"/><ellipse cx="209.7" cy="19.26" rx="1.91" ry="1.27" style="fill:#78e9ef"/><path d="M199.06,46.93a1.22,1.22,0,1,1-1.22-1.26A1.24,1.24,0,0,1,199.06,46.93Z" style="fill:#78e9ef"/><path d="M178.86,52.08c0,.81-.94,1.47-2.08,1.47s-2.08-.66-2.08-1.47.93-1.46,2.08-1.46S178.86,51.28,178.86,52.08Z" style="fill:#78e9ef"/><path d="M172.39,57.53A2,2,0,1,1,170.47,56,1.75,1.75,0,0,1,172.39,57.53Z" style="fill:#78e9ef"/><path d="M136.35,58.18c0,.48-1.14.86-2.54.86s-2.55-.38-2.55-.86,1.14-.86,2.55-.86S136.35,57.7,136.35,58.18Z" style="fill:#78e9ef"/><path d="M143.31,46.93c0,.69-.91,1.25-2,1.25s-2-.56-2-1.25.91-1.26,2-1.26S143.31,46.23,143.31,46.93Z" style="fill:#78e9ef"/><path d="M153.27,59.37c0,.82-1,1.48-2.18,1.48s-2.18-.66-2.18-1.48,1-1.48,2.18-1.48S153.27,58.55,153.27,59.37Z" style="fill:#78e9ef"/><path d="M25.84,123.93c0,.9-1.21,1.62-2.71,1.62s-2.72-.72-2.72-1.62,1.22-1.63,2.72-1.63S25.84,123,25.84,123.93Z" style="fill:#78e9ef"/><path d="M34.53,129.51a1.84,1.84,0,1,1-1.82-1.58A1.71,1.71,0,0,1,34.53,129.51Z" style="fill:#78e9ef"/><path d="M52.62,117.47c0,.65-.83,1.18-1.85,1.18s-1.85-.53-1.85-1.18.83-1.19,1.85-1.19S52.62,116.81,52.62,117.47Z" style="fill:#78e9ef"/><path d="M55.93,99.1c0,1.13-1.57,2.05-3.5,2.05s-3.51-.92-3.51-2.05,1.57-2,3.51-2S55.93,98,55.93,99.1Z" style="fill:#78e9ef"/><path d="M50.28,90.22a1.63,1.63,0,1,1-1.63-1.65A1.65,1.65,0,0,1,50.28,90.22Z" style="fill:#78e9ef"/><path d="M58.42,76.65c0,1.16-1.3,2.11-2.9,2.11s-2.9-1-2.9-2.11,1.3-2.11,2.9-2.11S58.42,75.48,58.42,76.65Z" style="fill:#78e9ef"/><path d="M63.62,84.74c0,1.58-.6,2.86-1.35,2.86s-1.35-1.28-1.35-2.86.61-2.85,1.35-2.85S63.62,83.17,63.62,84.74Z" style="fill:#78e9ef"/><path d="M76.2,88.32c0,1.05-1.15,1.9-2.56,1.9s-2.55-.85-2.55-1.9,1.14-1.91,2.55-1.91S76.2,87.27,76.2,88.32Z" style="fill:#78e9ef"/><path d="M82.06,76.91a2.43,2.43,0,1,1-2.36-1.86A2.16,2.16,0,0,1,82.06,76.91Z" style="fill:#78e9ef"/><ellipse cx="83.64" cy="85.9" rx="1.58" ry="2.42" style="fill:#78e9ef"/><path d="M98.48,87.57c0,.93-1.24,1.67-2.76,1.67S93,88.5,93,87.57s1.24-1.67,2.76-1.67S98.48,86.65,98.48,87.57Z" style="fill:#78e9ef"/><path d="M101,76.74a2.69,2.69,0,1,1-2.63-2.16A2.43,2.43,0,0,1,101,76.74Z" style="fill:#78e9ef"/><ellipse cx="105.56" cy="69.7" rx="1.95" ry="1.72" style="fill:#78e9ef"/><ellipse cx="117.18" cy="105.33" rx="3.05" ry="2.07" style="fill:#78e9ef"/><path d="M130.25,96.12A2.49,2.49,0,1,1,127.79,94,2.32,2.32,0,0,1,130.25,96.12Z" style="fill:#45bcc9"/><path d="M56.51,107.55c0,1.23-1.29,2.22-2.87,2.22s-2.87-1-2.87-2.22,1.28-2.22,2.87-2.22S56.51,106.33,56.51,107.55Z" style="fill:#45bcc9"/><path d="M51.52,112c0,.83-1,1.5-2.25,1.5S47,112.86,47,112s1-1.51,2.25-1.51S51.52,111.2,51.52,112Z" style="fill:#45bcc9"/><path d="M60.92,127.26a2.28,2.28,0,1,1-2.21-1.71A2,2,0,0,1,60.92,127.26Z" style="fill:#45bcc9"/><path d="M49.27,120.91a2.63,2.63,0,1,1-2.6-2.26A2.45,2.45,0,0,1,49.27,120.91Z" style="fill:#45bcc9"/><path d="M66.86,94.57a3,3,0,1,1-3-2.69A2.85,2.85,0,0,1,66.86,94.57Z" style="fill:#45bcc9"/><path d="M83.64,100.16a2.86,2.86,0,1,1-2.84-3.11A3,3,0,0,1,83.64,100.16Z" style="fill:#45bcc9"/><path d="M74.16,78.74c0,.74-1.14,1.34-2.55,1.34s-2.55-.6-2.55-1.34,1.14-1.34,2.55-1.34S74.16,78,74.16,78.74Z" style="fill:#45bcc9"/><path d="M94.54,95.64c0,.9-1.31,1.63-2.93,1.63s-2.93-.73-2.93-1.63S90,94,91.61,94,94.54,94.74,94.54,95.64Z" style="fill:#45bcc9"/><path d="M106.83,91.93a2.12,2.12,0,1,1-2.12-2.08A2.1,2.1,0,0,1,106.83,91.93Z" style="fill:#45bcc9"/><path d="M104.73,103a2.46,2.46,0,1,1-2.39-1.85A2.17,2.17,0,0,1,104.73,103Z" style="fill:#45bcc9"/><path d="M101.57,114.16c0,1.17-1.31,2.12-2.94,2.12s-2.94-1-2.94-2.12S97,112,98.63,112,101.57,113,101.57,114.16Z" style="fill:#45bcc9"/><ellipse cx="129.23" cy="84.15" rx="2.04" ry="2.26" style="fill:#45bcc9"/><path d="M210.94,82.75c0,1.1-1.2,2-2.69,2s-2.68-.89-2.68-2,1.2-2,2.68-2S210.94,81.65,210.94,82.75Z" style="fill:#45bcc9"/><path d="M203.37,92.17a1.55,1.55,0,1,1-1.52-1.84A1.71,1.71,0,0,1,203.37,92.17Z" style="fill:#45bcc9"/><path d="M216.06,98.09a1.85,1.85,0,1,1-1.85-2A1.91,1.91,0,0,1,216.06,98.09Z" style="fill:#45bcc9"/><path d="M209.4,121.1a1.36,1.36,0,1,1-1.36-1.4A1.38,1.38,0,0,1,209.4,121.1Z" style="fill:#45bcc9"/><path d="M195.07,118.8c0,1.39-.84,2.51-1.87,2.51s-1.87-1.12-1.87-2.51.83-2.52,1.87-2.52S195.07,117.41,195.07,118.8Z" style="fill:#45bcc9"/><path d="M205.57,111.65c0,1-1.18,1.88-2.63,1.88s-2.62-.84-2.62-1.88,1.17-1.88,2.62-1.88S205.57,110.62,205.57,111.65Z" style="fill:#45bcc9"/><path d="M181,120.41c0,1-1.16,1.89-2.58,1.89s-2.57-.85-2.57-1.89,1.15-1.89,2.57-1.89S181,119.37,181,120.41Z" style="fill:#78e9ef"/><path d="M195.07,110.9c0,.62-.84,1.13-1.87,1.13s-1.87-.51-1.87-1.13.83-1.13,1.87-1.13S195.07,110.28,195.07,110.9Z" style="fill:#78e9ef"/><path d="M201.85,117.54a1.4,1.4,0,1,1-1.4-1.26A1.34,1.34,0,0,1,201.85,117.54Z" style="fill:#78e9ef"/><path d="M216.06,118.09a1.85,1.85,0,1,1-1.85-1.81A1.83,1.83,0,0,1,216.06,118.09Z" style="fill:#78e9ef"/><path d="M216.06,124.36a1.4,1.4,0,1,1-1.38-1.19A1.3,1.3,0,0,1,216.06,124.36Z" style="fill:#78e9ef"/><path d="M201.85,125a1.44,1.44,0,1,1-1.4-1.07A1.27,1.27,0,0,1,201.85,125Z" style="fill:#78e9ef"/><path d="M187.8,113.45c0,.78-.86,1.41-1.92,1.41s-1.92-.63-1.92-1.41.86-1.42,1.92-1.42S187.8,112.66,187.8,113.45Z" style="fill:#78e9ef"/><ellipse cx="187.66" cy="125.22" rx="1.65" ry="0.86" style="fill:#78e9ef"/><path d="M172.39,123.65c0,.75-1.23,1.35-2.75,1.35s-2.75-.6-2.75-1.35,1.23-1.35,2.75-1.35S172.39,122.9,172.39,123.65Z" style="fill:#78e9ef"/><ellipse cx="210.84" cy="112.59" rx="1.53" ry="0.94" style="fill:#78e9ef"/><path d="M196.63,124.86a1.22,1.22,0,1,1-2.43,0,1.22,1.22,0,0,1,2.43,0Z" style="fill:#78e9ef"/><path d="M201.34,107.55a1.8,1.8,0,1,1-1.75-2.22A2,2,0,0,1,201.34,107.55Z" style="fill:#78e9ef"/><path d="M197.84,129.31a1.22,1.22,0,1,1-1.21-1.35A1.29,1.29,0,0,1,197.84,129.31Z" style="fill:#78e9ef"/><path d="M91.61,109.23a1.48,1.48,0,1,1-1.47-1.68A1.58,1.58,0,0,1,91.61,109.23Z" style="fill:#78e9ef"/><path d="M74.16,97.61c0,.82-.33,1.49-.73,1.49s-.74-.67-.74-1.49.33-1.49.74-1.49S74.16,96.79,74.16,97.61Z" style="fill:#78e9ef"/><ellipse cx="90.82" cy="102.13" rx="2.14" ry="0.98" style="fill:#78e9ef"/><path d="M79.7,92.94a.89.89,0,1,1-.87-1.06A1,1,0,0,1,79.7,92.94Z" style="fill:#78e9ef"/><ellipse cx="190.32" cy="45.82" rx="1.01" ry="1.1" style="fill:#78e9ef"/><ellipse cx="190.48" cy="54.78" rx="0.85" ry="1.24" style="fill:#78e9ef"/><path d="M204.05,51.91c0,.46-.61.83-1.36.83s-1.35-.37-1.35-.83.6-.83,1.35-.83S204.05,51.45,204.05,51.91Z" style="fill:#78e9ef"/><ellipse cx="201.15" cy="36.43" rx="0.7" ry="0.97" style="fill:#78e9ef"/><path d="M219.32,87.8a1.65,1.65,0,1,1-1.63-1.39A1.52,1.52,0,0,1,219.32,87.8Z" style="fill:#78e9ef"/><path d="M223.53,78.74a1.14,1.14,0,1,1-1.13-1.34A1.24,1.24,0,0,1,223.53,78.74Z" style="fill:#78e9ef"/><path d="M231.59,81.42a1.39,1.39,0,1,1-1.38-1.34A1.35,1.35,0,0,1,231.59,81.42Z" style="fill:#78e9ef"/><path d="M241.72,76c0,.79-.95,1.43-2.12,1.43s-2.12-.64-2.12-1.43,1-1.43,2.12-1.43S241.72,75.18,241.72,76Z" style="fill:#78e9ef"/><path d="M259.6,76.69c0,.39-.74.71-1.66.71s-1.65-.32-1.65-.71S257,76,257.94,76,259.6,76.29,259.6,76.69Z" style="fill:#78e9ef"/><path d="M254.27,89.4c0,.51-.87.93-2,.93s-1.95-.42-1.95-.93.87-.93,1.95-.93S254.27,88.88,254.27,89.4Z" style="fill:#78e9ef"/><path d="M246.3,85.58a2.3,2.3,0,1,1-2.29-2.1A2.2,2.2,0,0,1,246.3,85.58Z" style="fill:#78e9ef"/><ellipse cx="236.03" cy="87.44" rx="1.44" ry="1.03" style="fill:#78e9ef"/><path d="M228.82,92.9a2.38,2.38,0,1,1-2.37-2.57A2.48,2.48,0,0,1,228.82,92.9Z" style="fill:#78e9ef"/><path d="M234.59,71.41a2.26,2.26,0,1,1-2.19-1.71A2,2,0,0,1,234.59,71.41Z" style="fill:#78e9ef"/><path d="M236,98.6a1.84,1.84,0,1,1-1.81-1.55A1.7,1.7,0,0,1,236,98.6Z" style="fill:#78e9ef"/><path d="M250.37,104.37c0,.76-.91,1.38-2,1.38s-2-.62-2-1.38.91-1.37,2-1.37S250.37,103.62,250.37,104.37Z" style="fill:#78e9ef"/><path d="M256.9,98.6a1.33,1.33,0,1,1-1.31-1.55A1.45,1.45,0,0,1,256.9,98.6Z" style="fill:#78e9ef"/><path d="M251.05,76.55c0,.83-.91,1.5-2,1.5s-2-.67-2-1.5.91-1.5,2-1.5S251.05,75.72,251.05,76.55Z" style="fill:#78e9ef"/><ellipse cx="244.35" cy="64.5" rx="1.95" ry="1.14" style="fill:#78e9ef"/><path d="M256.29,112.64a1.82,1.82,0,1,1-1.8-1.52A1.68,1.68,0,0,1,256.29,112.64Z" style="fill:#78e9ef"/><ellipse cx="221.43" cy="95.53" rx="2.1" ry="1.52" style="fill:#78e9ef"/><path d="M219.32,81.78a2,2,0,1,1-1.95-1.7A1.84,1.84,0,0,1,219.32,81.78Z" style="fill:#45bcc9"/><path d="M238.58,82.12a1.28,1.28,0,1,1-1.27-1.36A1.32,1.32,0,0,1,238.58,82.12Z" style="fill:#45bcc9"/><path d="M224.67,85.88a1.9,1.9,0,1,1-1.87-1.56A1.74,1.74,0,0,1,224.67,85.88Z" style="fill:#45bcc9"/><path d="M230.86,76.38a1.31,1.31,0,1,1-1.27-1A1.16,1.16,0,0,1,230.86,76.38Z" style="fill:#45bcc9"/><path d="M235.52,93.29c0,.63-.7,1.13-1.56,1.13s-1.56-.5-1.56-1.13.7-1.12,1.56-1.12S235.52,92.67,235.52,93.29Z" style="fill:#45bcc9"/><path d="M229.59,100.85a1,1,0,1,1-1-1.17A1.1,1.1,0,0,1,229.59,100.85Z" style="fill:#45bcc9"/><path d="M223.53,102.93c0,.5-.58.91-1.3.91s-1.3-.41-1.3-.91.58-.91,1.3-.91S223.53,102.43,223.53,102.93Z" style="fill:#45bcc9"/><path d="M231.59,86.84a1,1,0,1,1-1-1A1,1,0,0,1,231.59,86.84Z" style="fill:#45bcc9"/><path d="M244,92.29c0,.55-.74,1-1.66,1s-1.65-.45-1.65-1,.74-1,1.65-1S244,91.73,244,92.29Z" style="fill:#45bcc9"/><path d="M240.2,97.36c0,.69-.42,1.24-.94,1.24s-.94-.55-.94-1.24a1,1,0,1,1,1.88,0Z" style="fill:#45bcc9"/><path d="M251.5,83.75a1.28,1.28,0,1,1-1.24-1A1.14,1.14,0,0,1,251.5,83.75Z" style="fill:#45bcc9"/><path d="M238.32,106.37c0,.57-.62,1-1.4,1s-1.4-.46-1.4-1,.63-1,1.4-1S238.32,105.8,238.32,106.37Z" style="fill:#45bcc9"/><ellipse cx="244.32" cy="108.8" rx="1.3" ry="1.24" style="fill:#45bcc9"/><path d="M250.26,99.15c0,.5-.64.91-1.42.91s-1.41-.41-1.41-.91.63-.91,1.41-.91S250.26,98.65,250.26,99.15Z" style="fill:#45bcc9"/><ellipse cx="258.05" cy="90.24" rx="1.15" ry="1.04" style="fill:#45bcc9"/><ellipse cx="256.16" cy="82.45" rx="1.89" ry="1.03" style="fill:#45bcc9"/><ellipse cx="144.67" cy="81.74" rx="3.39" ry="3" style="fill:#45bcc9"/><path d="M166.89,79.4a3,3,0,1,1-2.95-2.49A2.75,2.75,0,0,1,166.89,79.4Z" style="fill:#45bcc9"/><path d="M161,86.09c0,.75-1.07,1.35-2.39,1.35s-2.39-.6-2.39-1.35,1.07-1.35,2.39-1.35S161,85.35,161,86.09Z" style="fill:#45bcc9"/><ellipse cx="151.46" cy="72.56" rx="2.55" ry="1.98" style="fill:#45bcc9"/><path d="M132.26,102.61c0,1-.58,1.76-1.31,1.76s-1.31-.78-1.31-1.76.59-1.76,1.31-1.76S132.26,101.64,132.26,102.61Z" style="fill:#45bcc9"/><path d="M156.21,92.45a2.39,2.39,0,1,1-2.37-2.12A2.26,2.26,0,0,1,156.21,92.45Z" style="fill:#45bcc9"/><ellipse cx="189.06" cy="94" rx="2.26" ry="2.12" style="fill:#45bcc9"/><ellipse cx="210.84" cy="91.59" rx="1.53" ry="1.35" style="fill:#45bcc9"/><path d="M199.06,99a2.5,2.5,0,1,1-2.43-1.9A2.22,2.22,0,0,1,199.06,99Z" style="fill:#45bcc9"/><path d="M178.86,89.43a2.09,2.09,0,1,1-2.08-1.86A2,2,0,0,1,178.86,89.43Z" style="fill:#45bcc9"/><ellipse cx="167.15" cy="106.83" rx="3.31" ry="1.97" style="fill:#45bcc9"/><path d="M153.27,109.6a1.79,1.79,0,1,1-1.77-2A1.93,1.93,0,0,1,153.27,109.6Z" style="fill:#45bcc9"/><path d="M180.13,97.66a2.15,2.15,0,1,1-2.15-2A2.08,2.08,0,0,1,180.13,97.66Z" style="fill:#45bcc9"/><path d="M133.81,112.64c0,.84-.93,1.52-2.08,1.52s-2.09-.68-2.09-1.52.94-1.52,2.09-1.52S133.81,111.8,133.81,112.64Z" style="fill:#78e9ef"/><path d="M138.39,84.58a1.87,1.87,0,1,1-1.87-1.83A1.85,1.85,0,0,1,138.39,84.58Z" style="fill:#78e9ef"/><path d="M171.76,89.64a2.34,2.34,0,1,1-2.3-2A2.15,2.15,0,0,1,171.76,89.64Z" style="fill:#78e9ef"/><ellipse cx="167.83" cy="99.06" rx="1.63" ry="1.79" style="fill:#78e9ef"/><path d="M185.88,103.25c0,.62-.73,1.12-1.64,1.12s-1.63-.5-1.63-1.12.73-1.12,1.63-1.12S185.88,102.63,185.88,103.25Z" style="fill:#78e9ef"/><ellipse cx="206" cy="97.36" rx="1.08" ry="1.24" style="fill:#78e9ef"/><path d="M196.63,88.13c0,.72-1,1.3-2.23,1.3s-2.23-.58-2.23-1.3,1-1.29,2.23-1.29S196.63,87.42,196.63,88.13Z" style="fill:#78e9ef"/><ellipse cx="183.2" cy="88.53" rx="1.04" ry="1.69" style="fill:#78e9ef"/><circle cx="153.66" cy="80.59" r="1.19" style="fill:#78e9ef"/><ellipse cx="145.38" cy="104.3" rx="0.71" ry="1.03" style="fill:#78e9ef"/><path d="M124.65,81.76c0,.55-.8,1-1.78,1s-1.78-.44-1.78-1,.8-1,1.78-1S124.65,81.21,124.65,81.76Z" style="fill:#78e9ef"/><path d="M118.57,74.47a1.51,1.51,0,1,1-1.46-1.91A1.73,1.73,0,0,1,118.57,74.47Z" style="fill:#78e9ef"/><path d="M138.39,77.81a1.89,1.89,0,1,1-1.87-1.58A1.75,1.75,0,0,1,138.39,77.81Z" style="fill:#78e9ef"/><path d="M126.51,108.5a.94.94,0,1,1-.93-1.1A1,1,0,0,1,126.51,108.5Z" style="fill:#78e9ef"/><path d="M110.92,113c0,1-.57,1.87-1.26,1.87s-1.27-.83-1.27-1.87.57-1.87,1.27-1.87S110.92,112,110.92,113Z" style="fill:#78e9ef"/><ellipse cx="121" cy="113.93" rx="1.99" ry="0.94" style="fill:#78e9ef"/><path d="M121.09,94.71c0,.78-.87,1.41-2,1.41s-2-.63-2-1.41.88-1.42,2-1.42S121.09,93.93,121.09,94.71Z" style="fill:#78e9ef"/><path d="M133,72.65a1.67,1.67,0,1,1-1.66-1.81A1.74,1.74,0,0,1,133,72.65Z" style="fill:#78e9ef"/><ellipse cx="130.75" cy="121" rx="1.52" ry="1.3" style="fill:#78e9ef"/><ellipse cx="83.01" cy="110.72" rx="2.21" ry="2.41" style="fill:#78e9ef"/><path d="M91.61,77.05a1.48,1.48,0,1,1-1.47-1.69A1.59,1.59,0,0,1,91.61,77.05Z" style="fill:#78e9ef"/></g></g></svg>