<svg xmlns="http://www.w3.org/2000/svg" viewBox="0 0 661.59 159.05"><title>Asset 7</title><g id="Layer_2" data-name="Layer 2"><g id="Ñëîé_2" data-name="Ñëîé 2"><path d="M85.67,56.6l-1.29.28c-.86.2-2.15.52-3.79,1a112.19,112.19,0,0,0-13.36,4.84,122.25,122.25,0,0,0-17.8,9.55A114.23,114.23,0,0,0,40.16,79c-1.54,1.2-3,2.52-4.52,3.78s-2.93,2.66-4.32,4.08-2.82,2.8-4.11,4.3-2.64,2.94-3.85,4.48-2.43,3-3.55,4.61-2.21,3.12-3.23,4.69-2,3.13-2.89,4.69l-1.36,2.31q-.6,1.17-1.2,2.31c-1.65,3-2.9,6-4.16,8.77-1,2.81-2.18,5.34-2.89,7.69s-1.5,4.33-1.91,6.05c-.92,3.4-1.45,5.34-1.45,5.34L0,141.89l1.18-5.44c.33-1.75,1-3.8,1.62-6.2s1.61-5,2.53-7.92c1.13-2.84,2.25-6,3.78-9.12l1.1-2.42,1.27-2.43c.84-1.64,1.71-3.31,2.71-4.94s2-3.35,3.07-5,2.19-3.32,3.42-4.92,2.43-3.25,3.73-4.83,2.66-3.11,4-4.66,2.85-3,4.27-4.45,2.95-2.84,4.48-4.16c3-2.69,6.17-5.18,9.3-7.45A128.36,128.36,0,0,1,64.6,57,119.05,119.05,0,0,1,78.48,51.2c1.73-.6,3.12-1,4.09-1.3l1.53-.41Z" style="fill:#231f20"/><path d="M566.52,87.66a39.77,39.77,0,0,0-17.37-.2c-9.34,1.93-18.17,5.6-27.25,8.48s-18.67,4.35-28.12,6.12c-19.84,3.76-39.76,7.12-59.7,10.28q-35.26,5.58-70.64,10.16c-22.75,2.94-45.55,5.52-68.41,7.38-17.55,1.42-35.3,2.64-52.93,1.88a101.23,101.23,0,0,1-13.46-1.32c-54.24-9.6-43.23-16.85-68-26.87,0,0-39.3-15.59-63-26.28S72.26,63.11,73.65,55A7,7,0,0,1,76,51.4c3.11,1.35,6.68,2.41,10,3.92,7.51,3.37,6.9,7.77,12.48,12.91S114.35,71.46,122,74s26.65,16.74,33.16,21.71,25.44,19.52,36.27,14.24,11.79-12.7,6.51-19.21-.3-13-1.23-26.3c-.45-6.38-4.84-10.73-8.89-13.5,0,0,14.86,5.62,91.56,1.45s143-4.11,174-3.35,88,9.77,99.53,14.68S566.52,87.66,566.52,87.66Z" style="fill:#e8e1db"/><path d="M560.48,84.54a1.87,1.87,0,0,1-1.79-1.34C554.76,69.66,541.33,61.08,541.2,61a1.86,1.86,0,0,1,2-3.15c.61.38,14.76,9.39,19.09,24.32a1.85,1.85,0,0,1-1.27,2.3A1.81,1.81,0,0,1,560.48,84.54Z" style="fill:#414142"/><path d="M233.91,125.76a1.85,1.85,0,0,1-1.31-.53C224,116.68,217.26,103.47,215,90.75,213,78.85,197.43,54.29,197.27,54a1.86,1.86,0,0,1,3.14-2c.66,1,16.08,25.44,18.28,38.06,2.07,11.82,8.56,24.57,16.53,32.47a1.85,1.85,0,0,1,0,2.63A1.83,1.83,0,0,1,233.91,125.76Z" style="fill:#414142"/><path d="M255.61,125.76a1.76,1.76,0,0,1-.8-.18c-4-1.93-17.54-9.8-22.7-30-3.9-15.3-21.54-40.31-21.71-40.56a1.86,1.86,0,1,1,3-2.15c.74,1.05,18.22,25.83,22.28,41.79,3.79,14.85,13.18,24,20.71,27.61a1.86,1.86,0,0,1-.81,3.53Z" style="fill:#414142"/><path d="M276.69,125.76a1.84,1.84,0,0,1-.93-.24c-12.8-7.34-21.81-24-25.64-36-3.91-12.31-17.64-34-17.78-34.26a1.86,1.86,0,0,1,3.14-2c.58.91,14.13,22.36,18.18,35.12,3.63,11.41,12.08,27.14,24,34a1.86,1.86,0,0,1-.92,3.47Z" style="fill:#414142"/><path d="M298.39,122.05a1.81,1.81,0,0,1-.78-.18c-20.61-9.51-41.32-65.16-42.19-67.53a1.86,1.86,0,1,1,3.49-1.28c.21.56,21,56.57,40.26,65.44a1.86,1.86,0,0,1-.78,3.55Z" style="fill:#414142"/><path d="M323.5,122.05a1.86,1.86,0,0,1-.79-.18C296.27,109.6,276.84,56,276,53.67a1.86,1.86,0,0,1,3.5-1.25c.19.54,19.72,54.46,44.75,66.08a1.86,1.86,0,0,1-.78,3.55Z" style="fill:#414142"/><path d="M346.18,117.51a1.87,1.87,0,0,1-.73-.15c-25.14-10.59-47.82-62.69-48.77-64.9A1.86,1.86,0,0,1,300.1,51c.22.53,23,52.93,46.8,62.94a1.86,1.86,0,0,1-.72,3.58Z" style="fill:#414142"/><path d="M373.4,114.53a1.92,1.92,0,0,1-.66-.12c-29.19-11.07-53-60.71-54-62.82a1.86,1.86,0,1,1,3.36-1.6c.24.51,24.2,50.4,52,60.94a1.86,1.86,0,0,1-.66,3.6Z" style="fill:#414142"/><path d="M392.93,108.4a1.8,1.8,0,0,1-.81-.18c-34.42-16.59-47.19-56-47.72-57.72A1.86,1.86,0,0,1,348,49.38c.12.39,12.84,39.61,45.79,55.49a1.86,1.86,0,0,1-.81,3.53Z" style="fill:#414142"/><path d="M419,106.86a2,2,0,0,1-.63-.11c-31.65-11.29-53.15-54.63-54-56.47a1.86,1.86,0,1,1,3.34-1.64c.22.44,21.74,43.83,52,54.6a1.86,1.86,0,0,1-.62,3.62Z" style="fill:#414142"/><path d="M441.29,103.14l-.32,0c-30.5-5.25-57.07-51.09-58.19-53A1.86,1.86,0,0,1,386,48.22c.26.47,26.81,46.27,55.59,51.22a1.86,1.86,0,0,1-.31,3.7Z" style="fill:#414142"/><path d="M453.69,98.49a1.85,1.85,0,0,1-.88-.22c-8.86-4.75-48.27-47.93-49.94-49.76A1.86,1.86,0,1,1,405.62,46c11.28,12.37,42.06,45.3,48.95,49a1.86,1.86,0,0,1-.88,3.5Z" style="fill:#414142"/><path d="M470.43,100.35a1.87,1.87,0,0,1-1.77-1.28C462.4,80,423.93,49,423.54,48.7a1.86,1.86,0,1,1,2.33-2.9c1.62,1.3,39.72,32,46.32,52.11a1.86,1.86,0,0,1-1.18,2.34A1.73,1.73,0,0,1,470.43,100.35Z" style="fill:#414142"/><path d="M481.59,93.84a1.86,1.86,0,0,1-1.79-1.36c-6.57-23.27-33-42.91-33.26-43.11a1.86,1.86,0,0,1,2.2-3c1.13.83,27.72,20.59,34.64,45.1a1.87,1.87,0,0,1-1.29,2.3A2.23,2.23,0,0,1,481.59,93.84Z" style="fill:#414142"/><path d="M495.22,88.8a1.86,1.86,0,0,1-1.82-1.51c-3.27-17-22-36.66-22.15-36.85a1.86,1.86,0,0,1,2.69-2.58c.8.84,19.64,20.66,23.11,38.73a1.86,1.86,0,0,1-1.47,2.18A2.19,2.19,0,0,1,495.22,88.8Z" style="fill:#414142"/><path d="M511.65,89.81A1.86,1.86,0,0,1,509.8,88c-.89-18.2-18.16-35.1-18.33-35.27a1.86,1.86,0,0,1,2.59-2.67c.75.73,18.5,18.11,19.45,37.76a1.86,1.86,0,0,1-1.77,1.94Z" style="fill:#414142"/><path d="M528.86,85.8a1.86,1.86,0,0,1-1.81-1.42c-4-16.88-15.38-28.79-15.5-28.91a1.86,1.86,0,0,1,2.68-2.59,72.54,72.54,0,0,1,16.44,30.63,1.85,1.85,0,0,1-1.38,2.24A1.63,1.63,0,0,1,528.86,85.8Z" style="fill:#414142"/><path d="M544,82.21a1.86,1.86,0,0,1-1.83-1.53c-1.74-9.58-13.24-22.12-13.36-22.25a1.86,1.86,0,0,1,2.74-2.52c.5.54,12.35,13.47,14.28,24.11a1.86,1.86,0,0,1-1.5,2.16A1.84,1.84,0,0,1,544,82.21Z" style="fill:#414142"/><path d="M576.81,48.37s-9.14,8-19.37,6.84S478.49,30.94,370,32.5s-162.74,7.74-186.92,4c-.56-.09-1.1-.17-1.62-.22,0,0,8.44-6.76,11.94-14.49S216.16,6.37,236.86,5,301.17.55,320.38,7.3c12.86,4.54,46.09,4.63,75.24,3.11h.07C466.24,20.28,547.42,35.53,576.81,48.37Z" style="fill:#e8e1db"/><path d="M546.58,55.08a1.4,1.4,0,0,1-.3-2.76c4.31-1,11.64-3.41,13-5.77a1.4,1.4,0,1,1,2.43,1.38c-2.38,4.19-13.53,6.83-14.8,7.11A1.06,1.06,0,0,1,546.58,55.08Z" style="fill:#414142"/><path d="M530.51,51.33h-.24a1.4,1.4,0,0,1-1.35-1.44,1.48,1.48,0,0,1,1.44-1.35h.15c4,0,10.37-5.26,12.49-7.32a1.4,1.4,0,0,1,1.94,2C544.07,44.06,536.4,51.33,530.51,51.33Z" style="fill:#414142"/><path d="M510.5,47.39a1.41,1.41,0,0,1-1.22-.71,1.39,1.39,0,0,1,.53-1.9c5.92-3.35,10.12-9.48,10.16-9.54a1.42,1.42,0,0,1,1.94-.37,1.4,1.4,0,0,1,.37,1.94,37.59,37.59,0,0,1-11.1,10.4A1.41,1.41,0,0,1,510.5,47.39Z" style="fill:#414142"/><path d="M491.74,43.62a1.39,1.39,0,0,1-.46-2.71c6.22-2.16,11.79-9,11.85-9.09a1.39,1.39,0,1,1,2.17,1.75c-.25.31-6.12,7.54-13.1,10A1.54,1.54,0,0,1,491.74,43.62Z" style="fill:#414142"/><path d="M469.65,40.59a1.4,1.4,0,0,1-1.36-1.1,1.38,1.38,0,0,1,1.07-1.66c7.22-1.57,14.91-9.94,15-10a1.39,1.39,0,0,1,2.06,1.88c-.33.37-8.36,9.12-16.46,10.88A1.53,1.53,0,0,1,469.65,40.59Z" style="fill:#414142"/><path d="M450.56,38.34a1.39,1.39,0,0,1-.54-2.68c10.57-4.4,14.57-11.47,14.61-11.54a1.4,1.4,0,0,1,2.45,1.34c-.18.32-4.46,8-16,12.77A1.31,1.31,0,0,1,450.56,38.34Z" style="fill:#414142"/><path d="M432.89,36.79a1.39,1.39,0,0,1-.4-2.73c7.6-2.25,11.32-12.87,11.35-13a1.4,1.4,0,1,1,2.64.91c-.17.49-4.24,12.1-13.2,14.74A1.32,1.32,0,0,1,432.89,36.79Z" style="fill:#414142"/><path d="M411.22,35.36a1.4,1.4,0,0,1-.84-2.51,47.13,47.13,0,0,0,13.07-14.73A1.4,1.4,0,0,1,426,19.36c-.17.34-4.22,8.39-13.9,15.72A1.39,1.39,0,0,1,411.22,35.36Z" style="fill:#414142"/><path d="M388.36,35.36a1.4,1.4,0,0,1-.61-2.65c9.4-4.59,14.68-17.83,14.73-18a1.4,1.4,0,0,1,2.6,1c-.23.58-5.74,14.39-16.11,19.45A1.33,1.33,0,0,1,388.36,35.36Z" style="fill:#414142"/><path d="M367,35.36a1.4,1.4,0,0,1-.61-2.65c8.39-4.09,14.2-20.09,14.25-20.25a1.4,1.4,0,0,1,2.63.94c-.25.7-6.25,17.23-15.66,21.82A1.3,1.3,0,0,1,367,35.36Z" style="fill:#414142"/><path d="M343.57,34.65a1.4,1.4,0,0,1-.77-2.56,37.44,37.44,0,0,0,15.44-22.2,1.41,1.41,0,0,1,1.62-1.12A1.39,1.39,0,0,1,361,10.39a39.72,39.72,0,0,1-16.64,24A1.44,1.44,0,0,1,343.57,34.65Z" style="fill:#414142"/><path d="M173.62,37.37a1.41,1.41,0,0,1-.68-.18,1.4,1.4,0,0,1-.55-1.89c.37-.67,9.13-16.47,17.51-21.25a1.39,1.39,0,1,1,1.38,2.42c-7.7,4.4-16.36,20-16.44,20.17A1.41,1.41,0,0,1,173.62,37.37Z" style="fill:#231f20"/><path d="M189,38.88a1.12,1.12,0,0,1-.36-.05,1.38,1.38,0,0,1-1-1.71C191.44,23,206.12,12.25,206.75,11.8a1.38,1.38,0,0,1,1.94.31,1.4,1.4,0,0,1-.31,2c-.14.11-14.51,10.63-18.06,23.79A1.4,1.4,0,0,1,189,38.88Z" style="fill:#414142"/><path d="M209.89,39.32a1.39,1.39,0,0,1-1.33-1.81c7-22.66,17.91-28.38,18.37-28.61a1.39,1.39,0,0,1,1.26,2.48c-.16.09-10.37,5.61-17,27A1.38,1.38,0,0,1,209.89,39.32Z" style="fill:#414142"/><path d="M229.66,38.76a.9.9,0,0,1-.23,0,1.39,1.39,0,0,1-1.15-1.6C230.42,24.4,243.8,7.43,244.37,6.72a1.39,1.39,0,1,1,2.18,1.73c-.13.17-13.5,17.12-15.51,29.15A1.4,1.4,0,0,1,229.66,38.76Z" style="fill:#414142"/><path d="M249.18,38a1.45,1.45,0,0,1-.41-.06,1.39,1.39,0,0,1-.93-1.74C253.71,16.84,265.69,6.92,266.2,6.5A1.4,1.4,0,0,1,268,8.67c-.12.09-11.85,9.84-17.45,28.3A1.39,1.39,0,0,1,249.18,38Z" style="fill:#414142"/><path d="M271.75,37l-.22,0a1.38,1.38,0,0,1-1.16-1.59c2.36-14.89,15.85-28.25,16.42-28.81a1.4,1.4,0,1,1,2,2c-.14.13-13.41,13.29-15.63,27.25A1.39,1.39,0,0,1,271.75,37Z" style="fill:#414142"/><path d="M290.79,36a1.22,1.22,0,0,1-.41-.07,1.39,1.39,0,0,1-.92-1.74c4.24-13.58,17.22-27,17.77-27.6a1.4,1.4,0,1,1,2,2c-.13.13-13.07,13.54-17.11,26.48A1.39,1.39,0,0,1,290.79,36Z" style="fill:#414142"/><path d="M309.86,35.58l-.24,0A1.39,1.39,0,0,1,308.49,34C310.4,22.83,325,7.28,325.58,6.63a1.39,1.39,0,1,1,2,1.91c-.14.16-14.61,15.59-16.37,25.88A1.4,1.4,0,0,1,309.86,35.58Z" style="fill:#414142"/><path d="M328,34.78a1.49,1.49,0,0,1-.73-.2,1.41,1.41,0,0,1-.46-1.92L341,9.42a1.39,1.39,0,1,1,2.38,1.45L329.18,34.11A1.39,1.39,0,0,1,328,34.78Z" style="fill:#414142"/><path d="M655.79,42.41c1.25,5.9-14.56,11.16-16.73,16.74S627.28,70,620.77,70.92s-10.86,3.43-13.95,4-7.75,7.76-5.89,10.55,9.3,15.49,12.7,20.14,5,12.7,4.35,15.81,1.55,10.84,2.48,17.35-3.41,13.95-5.9,18.6-22.32-25.11-23.86-35.95c-1.34-9.43-12.76-26.58-20.81-32.12a10.45,10.45,0,0,0-3.37-1.68c.84-.8,1.64-1.6,2.36-2.4C585.77,67.19,580,49.85,580,49.85s1-.05,2.65-.18h.07a226.1,226.1,0,0,0,25-3.22c12.09-2.49,34.41-17.06,48-16.74S654.55,36.52,655.79,42.41Z" style="fill:#dbd293"/><path d="M579.4,49.67C575,56,565.67,62.29,546,54.65c-33.2-12.89-126.77-18.9-147.86-18.9S270.68,40.09,261.49,41s-74.73,2.1-83.69-1a28.09,28.09,0,0,0-6.68-1.38s0,0,0,0a68.7,68.7,0,0,0-15.84.65c5.48-2.21,12.62-4.72,26-2.94.52.06,1.06.13,1.62.23,24.17,3.72,78.43-2.48,186.91-4S547,54,557.21,55.21s19.36-6.85,19.36-6.85C577.58,48.81,578.53,49.24,579.4,49.67Z" style="fill:#414142"/><path d="M395.62,10.4c-29.15,1.53-62.38,1.44-75.24-3.1C301.17.55,257.56,3.58,236.86,5s-40,9.06-43.47,16.82-11.94,14.48-11.94,14.48c-13.35-1.78-20.5.73-26,2.94l-.06,0c-3.85,1.54-6.92,2.92-10.77,2.55-9.61-.93-2.49-10.86-24.34-4.5C101.55,42.75,94.09,46,88.64,44c11.42-5.22,26.38-10.08,33.59-12.53,12.33-4.17,26-4.65,38.61-11.85S237.32-3.15,304.74.57C326.86,1.79,359.85,5.4,395.62,10.4Z" style="fill:#dbd293"/><path d="M568.88,85.26c-.72.8-1.52,1.6-2.36,2.4,0,0-2.12-19-13.61-23.91s-68.54-13.9-99.53-14.68-97.25-.85-174,3.35S187.83,51,187.83,51c-4.39-3-8.39-4.22-6.62-4.22,3.42,0,10.54,10.23,133.61,0s219.62,7.75,236.6,13.11S568.88,85.26,568.88,85.26Z" style="fill:#414142"/><path d="M139.21,73.88c-9,1.69-13.8-.31-11.62-7.29s-8.22-23.1-7.12-24,13-2,13-2c12.56,1.55,16.11,6.51,20,14.77S148.2,72.17,139.21,73.88Z" style="fill:#414142"/><path d="M198,90.77c-5.27-6.51-.3-13-1.23-26.3-.45-6.38-4.84-10.73-8.89-13.5-4.39-3-8.39-4.22-6.62-4.22,0,0-3.72-5.88-9.86-8.15,0,0,0,0,0,0a68.7,68.7,0,0,0-15.84.65l-.06,0c-3.85,1.54-6.92,2.92-10.77,2.55-9.61-.93-2.49-10.86-24.34-4.5C101.55,42.75,94.09,46,88.64,44c-5.37,2.46-10,5-12.61,7.39,3.11,1.35,6.68,2.41,10,3.92,7.51,3.37,6.9,7.77,12.48,12.91S114.35,71.46,122,74s26.65,16.74,33.16,21.71,25.44,19.52,36.27,14.24S203.23,97.28,198,90.77Zm-87.68-22a12.58,12.58,0,1,1,12.58-12.57A12.58,12.58,0,0,1,110.27,68.82Zm28.94,5.06c-9,1.69-13.8-.31-11.62-7.29s-8.22-23.1-7.12-24,13-2,13-2c12.56,1.55,16.11,6.51,20,14.77S148.2,72.17,139.21,73.88Z" style="fill:#231f20"/><path d="M568.88,85.26s-.5-20.06-17.46-25.4S437.87,36.52,314.82,46.75s-130.19,0-133.61,0c0,0-3.72-5.88-9.86-8.15A28,28,0,0,1,178,40c9,3.14,74.52,2,83.69,1s115.56-5.27,136.63-5.27,114.66,6,147.86,18.9c19.7,7.64,29,1.38,33.42-5,.13,0,.24.13.37.18S585.77,67.19,568.88,85.26Z" style="fill:#dbd293"/><path d="M110.27,43.66a12.58,12.58,0,1,0,12.58,12.59A12.59,12.59,0,0,0,110.27,43.66Zm0,23.28A10.69,10.69,0,1,1,121,56.25,10.69,10.69,0,0,1,110.27,66.94Z" style="fill:#7c7969"/><path d="M110.27,45.56A10.7,10.7,0,1,0,121,56.25,10.68,10.68,0,0,0,110.27,45.56Zm0,19.81a5.87,5.87,0,1,1,5.86-5.86A5.86,5.86,0,0,1,110.27,65.37Z" style="fill:#dbd293"/><path d="M116.13,59.51a5.87,5.87,0,1,1-5.86-5.88A5.86,5.86,0,0,1,116.13,59.51Z" style="fill:#231f20"/><path d="M586.82,55.1c-3.59,0-5.85-.15-6.23-.18a1.39,1.39,0,0,1,.2-2.78c.4,0,39.8,2.61,65.11-15.92a1.4,1.4,0,1,1,1.65,2.25C627.28,53.31,599.2,55.1,586.82,55.1Z" style="fill:#231f20"/><path d="M597.44,59.42a110.72,110.72,0,0,1-16.73-1.17,1.39,1.39,0,0,1-1.14-1.61,1.37,1.37,0,0,1,1.6-1.14c.3,0,30.35,4.9,55.45-6.41a1.39,1.39,0,1,1,1.15,2.54C623.78,57.94,608.62,59.42,597.44,59.42Z" style="fill:#231f20"/><path d="M611.62,152.66a1.41,1.41,0,0,1-1.37-1.13c-8.16-40.82-40.45-66.23-40.78-66.48a1.4,1.4,0,1,1,1.71-2.21c.33.26,33.44,26.27,41.81,68.15a1.4,1.4,0,0,1-1.09,1.64Z" style="fill:#231f20"/><path d="M613.71,138.24a1.38,1.38,0,0,1-1.36-1.11c-7.69-36.61-38.83-56.52-39.14-56.72a1.39,1.39,0,0,1,1.48-2.36c.32.2,32.45,20.7,40.39,58.51a1.4,1.4,0,0,1-1.08,1.65Z" style="fill:#231f20"/><path d="M611.62,114.06a1.39,1.39,0,0,1-1.31-.91c-7.73-20.82-34-37.44-34.24-37.61a1.4,1.4,0,1,1,1.49-2.36c1.11.69,27.31,17.3,35.37,39a1.38,1.38,0,0,1-1.31,1.88Z" style="fill:#231f20"/><path d="M609.06,67.11a164.94,164.94,0,0,1-28.78-3,1.4,1.4,0,1,1,.56-2.74c.32.07,32.64,6.52,46.23.11A1.39,1.39,0,1,1,628.26,64C623.3,66.33,616.24,67.11,609.06,67.11Z" style="fill:#231f20"/><path d="M603.77,74c-9.2,0-23.94-5.49-24.59-5.74a1.39,1.39,0,1,1,1-2.61c.16.06,16.3,6,24.75,5.52a1.4,1.4,0,0,1,.18,2.79C604.67,74,604.22,74,603.77,74Z" style="fill:#231f20"/><path d="M597.21,80.62a1.37,1.37,0,0,1-.59-.13l-18.7-8.71a1.39,1.39,0,1,1,1.18-2.52L597.8,78a1.39,1.39,0,0,1-.59,2.65Z" style="fill:#231f20"/><path d="M113.94,56.25a3.5,3.5,0,1,1,3.5,3.5A3.5,3.5,0,0,1,113.94,56.25Z" style="fill:#e8e1db"/><path d="M587.85,72c-.89,2.79-5.37,3.81-7.29,6.21s-7.12,8.33-8.68,9.69a9.31,9.31,0,0,1-2,1.4,10.45,10.45,0,0,0-3.37-1.68,5.82,5.82,0,0,1-.11-.81.25.25,0,0,0,0-.12A11.19,11.19,0,0,1,568.14,80a46,46,0,0,1,5-6.42c3.18-3.72,1.39-5.82,1.49-11.16s5-12.7,5-12.7h3.09c.48,1,1.39,6.49,1.93,10.37S588.76,69.25,587.85,72Z" style="fill:#231f20"/><path d="M93.07,58.66l-1.21.52c-.81.37-2,.93-3.52,1.72a109.88,109.88,0,0,0-12.16,7.35,122.25,122.25,0,0,0-15.6,12.84c-2.65,2.59-5.27,5.39-7.78,8.38-1.28,1.47-2.45,3-3.69,4.59s-2.36,3.18-3.44,4.84-2.22,3.29-3.19,5-2,3.4-2.9,5.14-1.79,3.47-2.59,5.22-1.55,3.49-2.25,5.23-1.34,3.46-1.92,5.16c-.3.85-.59,1.7-.88,2.53s-.49,1.68-.72,2.51c-1,3.28-1.68,6.48-2.37,9.4-.48,3-1.1,5.67-1.34,8.11s-.62,4.55-.69,6.31c-.24,3.51-.38,5.52-.38,5.52h-.73s0-2,.09-5.57c0-1.78.24-3.92.38-6.4s.6-5.23.94-8.26c.55-3,1-6.28,1.92-9.68.2-.85.4-1.72.61-2.6l.76-2.62c.51-1.77,1-3.58,1.7-5.38s1.26-3.66,2-5.48,1.5-3.68,2.39-5.5,1.75-3.65,2.72-5.45,2-3.58,3-5.36,2.22-3.46,3.32-5.2,2.33-3.36,3.58-5c2.45-3.23,5-6.28,7.66-9.12A127.74,127.74,0,0,1,72.49,63.2,118.06,118.06,0,0,1,85,54.77c1.58-.93,2.86-1.61,3.75-2.07L90.14,52Z" style="fill:#231f20"/><path d="M242.14,96.35c-12.26-5.12-21.78-8.26-13.41-3.37s13.59,7.55,12.09,8.24-20.46-12.44-25.59-11.51,19.08,10.36,21.87,13.84-22-8.71-27.9-11.63-1.41,2.57,14.75,9.77,1.86,6-14.64-3.13-12.55-1.63,3.83,6.16,21.67,11.62,20.78,14.3-21-10.58-28.92-14.54-.71,4,6.92,7.68,11.27,5,10.84,8c-4-2.17-5.28,1.23-12.63-4.54s-27.68-28.34-29.35-33.92c-1.15-3.85.89-6.75,3.91-8.48a13.75,13.75,0,0,1,7.27-1.8,80,80,0,0,1,12.24,1.6h.09c2,.73,25.16,9.3,26,10.62s-3.37-.13-11.41-2.45-1.61.59,13.49,8.48S254.38,101.46,242.14,96.35Z" style="fill:#ccc07a"/><path d="M251,109.33c-4.65,1.86-2.41,9.91-5.26,14.58s-5.89,4.32-11.92,2.16-7-3.72-11-5.88c.43-3-3.22-4.31-10.84-8s-14.81-11.63-6.92-7.68,28,17.2,28.92,14.54-4.39-6.51-20.78-14.3-20.34-15.35-3.83-6.16,30.8,10.34,14.64,3.13S203.27,89,209.2,91.92s30.69,15.12,27.9,11.63-27-12.91-21.87-13.84,24.06,12.22,25.59,11.51S237.1,97.86,228.73,93s1.15-1.75,13.41,3.37,5.3,1.28-9.82-6.64-21.5-10.81-13.49-8.48,12.21,3.83,11.41,2.45-24-9.89-26-10.62c6,1.21,12,2.94,17.72,4.58a241.76,241.76,0,0,1,23.68,7.62c8.05,3.22,8.35,9.55,8.76,10.51S255.6,107.47,251,109.33Z" style="fill:#dbd293"/><path d="M237.56,7.54S227.39,4.79,221,13.87s6.48,16.22,15.78,14.59,30.9-9.21,54.64-6.38,44.39,2.89,59,3.13,39.6,1.05,44.31-1.76S341.53,2.34,309.62,3.08,266.21,9.87,237.56,7.54Z" style="fill:#fff;opacity:0.48"/></g></g></svg>