<svg xmlns="http://www.w3.org/2000/svg" viewBox="0 0 606.93 231.3"><title>Asset 10</title><g id="Layer_2" data-name="Layer 2"><g id="Ñëîé_2" data-name="Ñëîé 2"><path d="M578.28,163.33c-29.13,7.29-80.84-12.9-99.74-16.89a73.31,73.31,0,0,0-10.84-1.28c-.53-12.61,1.85-18.08,6.18-25.73,4.54-8,2.95-14.53-5.13-21.89-5.6-5.1-11.78-13.35-15.07-17.92a143.56,143.56,0,0,0,10.83-11.26c3.79-4.32,10.76-10.47,19.15-17L462.84,76.6c.92-.81,30.88-26.81,57.84-43,22.37-13.46,42.33-4.45,48.89-.69-2.28,1.67-3.65,4.47-5.16,7.91-9.28-2.23-31.67-5.69-50.68,6.44-9.36,6-18.47,12.21-26.18,17.66l-3.46,2.46-4.55,3.27-1.46,1.06-5.3,3.89c-.26.21-.52.4-.78.58l-.81.6-3.3,2.47c-.39.31-.73.57-1,.76l-.25.19-.12.1L467,80l.53-.37h0c.21-.13.44-.29.7-.47l1.12-.73a5.74,5.74,0,0,0,.55-.36l2.34-1.48,1.18-.74A271.33,271.33,0,0,1,502.92,60l1.49-.67c.49-.23,1-.45,1.49-.66,1-.45,2-.88,3-1.31l1.53-.63,1.54-.62c1-.41,2.08-.83,3.14-1.22l1.57-.59c.93-.35,1.87-.68,2.81-1l1-.35,1-.31a126.53,126.53,0,0,1,14.54-4c.93-.19,1.85-.37,2.79-.54a68.31,68.31,0,0,1,22.82-.6c-1,2.71-1.15,3.37-4.55,6.25a26.16,26.16,0,0,0-2.85,2.82c-9.84-.88-28-.86-44.58,8.17l-8,4.36-2.27,1.26c-4.33,2.36-8.26,4.53-11.75,6.48l-1.5.83-.44.24-1.46.81c-.18.11-.37.21-.55.3-.58.34-1.14.65-1.68,1l-3.58,2c-.36.2-.72.39-1.07.6-.88.5-1.68,1-2.42,1.34l-.41.24L473,85c-1.64.91-2.71,1.53-3.14,1.79.45-.21,1.53-.72,3.12-1.44l1-.46.73-.33,1.2-.53c1.22-.54,2.61-1.14,4.13-1.78l1.48-.63.31-.13,1.07-.44c7-2.88,16.05-6.37,25.61-9.37l2.64-.8c4-1.2,8.1-2.29,12.11-3.21.87-.19,1.72-.38,2.57-.55,8.68-1.8,17-2.63,23.59-1.64a11.92,11.92,0,0,0-.24,3c.08,1.73-.84,4.23-2.27,7-11.25-.09-38.57.64-57.91,8.78-24.92,10.48-18.64,8.2-18.64,8.2s47-13.66,72.08-9.32c-1.33,2.1-2.69,4.17-3.91,6-13.78.86-46,3.37-58.28,8.53,0,0,35.5.3,54.75-1a12.71,12.71,0,0,0,1.3,6.39c-11.94,1.48-37.64,4.23-52.86,2.43-19-2.21,29.43,11.39,58.64,6,.8.88,1.64,1.76,2.53,2.63-14.32,5.35-53.26,4.42-53.26,4.42,21.65,5.54,46.27,1.55,56.87-.7,1.73,1.94,3,3.54,3.93,4.86-22.57,8.48-70.14,3.73-70.14,3.73,39.7,11.89,64.43,5.28,74.91.85,3.33,1.39,2.66,2.91,5.56,7.16.42.62.75,1.17,1.05,1.7-26.69,10-82.57-3.09-84.09-3.45,32.85,15.17,72.94,13.37,91.11,11.51,1.57,1.2,3.54,2.61,6.1,4.29a17.91,17.91,0,0,0,1.78,1,44.94,44.94,0,0,1-11.71,3l-1.81.22c-.62.07-1.25.13-1.88.18s-1.27.11-1.91.15-1.3.1-2,.12l-1.87.07-1.9,0c-1.06,0-2.13,0-3.22,0l-1.74,0h-.27l-3.44-.12c-1.26,0-2.51-.12-3.77-.2-1.83-.12-3.67-.26-5.53-.43s-3.7-.35-5.55-.56c-1.25-.14-2.49-.3-3.72-.45l-4.06-.53-2.56-.37L518,150.1c-.6-.08-1.17-.19-1.77-.28-1.17-.19-2.34-.38-3.48-.59-.58-.09-1.16-.2-1.72-.3-6.37-1.13-12.3-2.34-17.38-3.46-.86-.18-1.67-.36-2.47-.55s-1.58-.35-2.32-.53c-.5-.1-1-.22-1.43-.32-2.39-.56-4.45-1.06-6.14-1.49l-1.12-.27c-.56-.15-1.05-.26-1.49-.37l-.81-.22c-.35-.09-.64-.18-.88-.23a4.72,4.72,0,0,1-.46-.12c.2.09.65.26,1.31.5l.73.27.66.23c1.86.69,4.56,1.63,7.92,2.77l2,.64.8.26,1.1.36c2.34.75,4.92,1.55,7.69,2.38l2.71.79,2.16.62c1.85.52,3.77,1.05,5.74,1.57l3,.78,2.43.61c.69.17,1.38.35,2.08.5q3.28.81,6.72,1.54c1,.22,2,.43,3,.63l2.09.42c1,.2,1.89.38,2.85.54l3.31.59,2.5.41,2.08.32a6.13,6.13,0,0,0,.73.11l2.19.31c1.81.24,3.64.47,5.45.64,1,.12,2,.22,3.08.3,1.3.12,2.6.21,3.88.29,36.11,2.12,51.85-9.72,51.85-9.72C607.82,152.21,607.4,156,578.28,163.33Z" style="fill:#eacd71"/><path d="M468.75,97.54c-5.6-5.1-11.78-13.35-15.07-17.92-8.73,8-18.41,13.56-31,13.31-13.14-.27-26.29-.19-39.44,0h0c-7.05,6.83-21.13,3.12-24.34,5-3.71,2.18-9.9,1.59-20.33-.65s-18.13-1.84-23.92,1.78-6.43,3.48-14.16,1.94-10.21,2.82-20.38.71-12.71,3.37-18.2,8-22,2.64-34.46-.8-17.67,5-21,2.89-7.72,2-18.92,4.46-15.35,3-29.18,0-30.4,6.53-33.58,9.09-9.53,6-15.65,4.27-8.74-.21-14.34.09-3.75-1.6-14-4.64-16.39-1.06-21,2.89-11,7.14-18.39,6.53S27.55,139,22,139.75c-2.38.32-5.68-.44-8.64-1.43-5.85,3.67-9.24,6.51-11.14,8.8a22,22,0,0,0,12.37,2.12c10.69-1,8.77-4.74,18.72-4.23,5.45.28,12.5-.8,17.75-1.83a4.44,4.44,0,0,1,2.67,4c.25,3.14.82,14.54,20,16.31s19.62-20.81,19.62-20.81-1.83-5.65,6.3-6.15,11.38,1.21,12.65,5.34,8,7.82,10.92,6.18,10.31-.71,15.39-6.18,8.86-7.4,13.57-6.45,16.66,3.17,21.15,1.14,10.58-5.33,14.28-2.83,22.88.82,28.71-1.26,9.27-2.79,16.27.26,7.7-2.25,14.57-1.07,7.92,2.68,16.19-2.45,12.84,2.23,27.18-3,15-5.37,22.69-2.65,7.18,3.71,17.32.68,13.55-.49,18.59-1.41,8.78-2.87,18-2.47,16.12-4.35,17.69-4.89,12.58-.89,16.7,1.6,10.66,4,5.31,11.28c1.56-.7,3.24-1.51,5.07-2.47,13.84-7.19-4-13.92-25.34-14.87s-39.44,8.36-47.88,8.58-18.47-3.35-28.77-1.23-14-1.6-24.09,1.9-11.64,3.37-23,5.28-20,.28-24.14,1.2-19-4-26.91-.3-12.06-3.29-25.95,1-25.36,5.51-36.09,4.51-25.82-.35-17.54-4.31S147.37,117,158,120.11s21.74,4.07,27.69,1.14,10.41-3.9,19.9-4.15,22.44-6.26,31.42-2.55,21.42-.83,25.82.34,16.61-7.58,24.26-5.81,22-1.61,26.29-4,13.83-7.2,23.16-3.54,26.86,5.38,38.45-.23,15.55-7.54,23.9-5.86,24.43,3.11,31.88.8,10-6.91,14.75,2,9.09,9.65,1.51,11.06-15.6-3.13-20.19,4.57-10.74,9.24,1.35,15,11,8.37,17.51,9.24c4.63.62,10.53,2.58,11.35,6.77,3.81,0,7.38.08,10.61.27-.53-12.61,1.85-18.08,6.18-25.73C478.42,111.39,476.83,104.9,468.75,97.54ZM76.55,160.15l-.66.15c-.22,0-.45.08-.68.11l-.68.08c-.22,0-.44,0-.67,0a15.13,15.13,0,1,1,2.69-.37Z" style="fill:#c1a342"/><path d="M383.25,93c-7.05,6.83-21.13,3.12-24.34,5-3.71,2.18-9.9,1.59-20.33-.65s-18.13-1.84-23.92,1.78-6.43,3.48-14.16,1.94-10.21,2.82-20.38.71-12.71,3.37-18.2,8-22,2.64-34.46-.8-17.67,5-21,2.89-7.72,2-18.92,4.46-15.35,3-29.18,0-30.4,6.53-33.58,9.09-9.53,6-15.65,4.27-8.74-.21-14.34.09-3.75-1.6-14-4.64-16.39-1.06-21,2.89-11,7.14-18.39,6.53S27.55,139,22,139.75c-2.38.32-5.68-.44-8.64-1.43,8.18-5.1,21.17-11.8,41.6-20.75C101.2,97.34,168.59,80.47,205.16,78c9.26-.64,16.54-.36,21,1,2,.63,4.09,1.15,6.17,1.64,17.92,4.28,36.37,6.69,54.61,9.24,9.13,1.27,18.19,2.4,27.25,3.18q6.89.6,13.76.89c6.59.26,13.19.29,19.83,0,9.36-.41,18.71-.67,28.08-.85Z" style="fill:#5b4627"/><path d="M457.09,144.89c-23.15.05-55.22,3.4-77.57,7.16-9.94,1.66-22.64,4.69-36.59,8.47-22.46,6.09-48.17,14.16-70.88,21.67-5.34,1.75-10.51,3.49-15.43,5.16a57.49,57.49,0,0,1,1.24-5.63h0a9.9,9.9,0,0,1,1.69-3.54c2.56-3-31.94,17.07-54.83,18.54h-.2c-1.49,0-2.93,0-4.39,0l-.29,0a199,199,0,0,1-31.36-2.93,16.83,16.83,0,0,0,1.12-4.79c15.58,2.93,37.29,2.35,57.14-3,38-10.25,123.47-27.4,102.47-32.68s-29.3-2.57-50.46,5.28-74.35,11.28-99.7,6.63-30.67,8-30.67,8c-1.22,4.26,1.17,7.9,6.07,10.75-8.66-.33-18.56-.92-22.52-2-7.7-2.12-11.49-6.54-15.06-4.28,0,0-1.42,3.31-3.07,8.68-12.26-.15-22.93-.18-28.43-3.3-5.15-2.9-15.4-5.56-25.8-7.52a0,0,0,0,1,0,0c-11.19-2.12-22.57-3.44-27.94-3.44-10.36,0-10.64,4.75-9.75,11.23s6.33,11.83,3.37,10.83-8.34-5.92-12.41-11.47-3.24-9.92-3.94-15c-.62-4.56-5.59-7.75-7.75-11.59,3.77-.57,8.23-.55,11.68,1.63,7.34,4.64,10.67,5.71,19.6,3.9s21.33-1.45,25.59-1.3,13.46,8.05,26.43,4.86,7.94-5.68,16.2-5,7.4-5.61,15.39-1.41,23.11,6.36,32.64,1.16,8-6,14.61-4.12,18.2,9.15,29.36,3,9.24-7.27,19.42-5.13,16.87,2,25.8.22,22.91-5.38,36.56-4.85,14.34.22,21.66-3,13.68-5.82,23.11-3.94,14.21-1.91,23.55-.75,14-.83,22.87-3.14,16.88-3,22-4.45c4.42-1.21,9.07-.87,19.25-5.46,1.56-.7,3.24-1.51,5.07-2.47,13.84-7.19-4-13.92-25.34-14.87s-39.44,8.36-47.88,8.58-18.47-3.35-28.77-1.23-14-1.6-24.09,1.9-11.64,3.37-23,5.28-20,.28-24.14,1.2-19-4-26.91-.3-12.06-3.29-25.95,1-25.36,5.51-36.09,4.51-25.82-.35-17.54-4.31S147.37,117,158,120.11s21.74,4.07,27.69,1.14,10.41-3.9,19.9-4.15,22.44-6.26,31.42-2.55,21.42-.83,25.82.34,16.61-7.58,24.26-5.81,22-1.61,26.29-4,13.83-7.2,23.16-3.54,26.86,5.38,38.45-.23,15.55-7.54,23.9-5.86,24.43,3.11,31.88.8,10-6.91,14.75,2,9.09,9.65,1.51,11.06-15.6-3.13-20.19,4.57-10.74,9.24,1.35,15,11,8.37,17.51,9.24C450.37,138.74,456.27,140.7,457.09,144.89Z" style="fill:#d9be58"/><path d="M257.86,181.72a57.49,57.49,0,0,0-1.24,5.63c-.28,1.5-.55,3-.88,4.34-15.09,5.18-42.06,5.55-44.4,5.58A75.52,75.52,0,0,0,226.59,195h0A116.16,116.16,0,0,0,257.86,181.72Z" style="fill:#5b4627"/><path d="M259.56,178.17a9.9,9.9,0,0,0-1.69,3.54h0A116.16,116.16,0,0,1,226.64,195h0a75.52,75.52,0,0,1-15.25,2.28c2.34,0,29.31-.4,44.4-5.58a15.93,15.93,0,0,1-1,3,33.57,33.57,0,0,1-3.24,5.47c-8.71,3.44-21.42,5.27-38,1.25A71.57,71.57,0,0,0,245,207.87c-.51,1.67-.15,3.45-2.18,5.2-8.83.62-19.18-.64-28.46-6.2A112.09,112.09,0,0,0,242.55,226a3.47,3.47,0,0,1-1.86,3.73c-9.76-3.27-20.83-9-29-18.26A59.06,59.06,0,0,0,222,226.51c-19.92-9-22.17-29.8-22.17-29.8l.29,0a33.88,33.88,0,0,0,4.39,0h.2C227.62,195.24,262.12,175.2,259.56,178.17Z" style="fill:#eacd71"/><path d="M406.85,128.29c-10.18,4.59-14.83,4.25-19.25,5.46-5.1,1.41-13.12,2.16-22,4.45s-13.53,4.32-22.87,3.14-14.11,2.63-23.55.75-15.78.76-23.11,3.94-8,3.51-21.66,3-27.64,3-36.56,4.85-15.63,1.91-25.8-.22-8.26-1-19.42,5.13-22.74-1.11-29.36-3-5.09-1.07-14.61,4.12-24.65,3-32.64-1.16-7.13,2-15.39,1.41-3.22,1.85-16.2,5S62.27,160.45,58,160.31s-16.66-.52-25.59,1.3-12.26.74-19.6-3.9c-3.45-2.18-7.91-2.2-11.68-1.63a9,9,0,0,1-.62-1.38c-.61-1.78-1.29-4,1.7-7.58a22,22,0,0,0,12.37,2.12c10.69-1,8.77-4.74,18.72-4.23,5.45.28,12.5-.8,17.75-1.83a4.44,4.44,0,0,1,2.67,4c.25,3.14.82,14.54,20,16.31s19.62-20.81,19.62-20.81-1.83-5.65,6.3-6.15,11.38,1.21,12.65,5.34,8,7.82,10.92,6.18,10.31-.71,15.39-6.18,8.86-7.4,13.57-6.45,16.66,3.17,21.15,1.14,10.58-5.33,14.28-2.83,22.88.82,28.71-1.26,9.27-2.79,16.27.26,7.7-2.25,14.57-1.07,7.92,2.68,16.19-2.45,12.84,2.23,27.18-3,15-5.37,22.69-2.65,7.18,3.71,17.32.68,13.55-.49,18.59-1.41,8.78-2.87,18-2.47,16.12-4.35,17.69-4.89,12.58-.89,16.7,1.6S412.2,121,406.85,128.29Z" style="fill:#5b4627"/><path d="M538.59,89.19c-.76,1.14-1.46,2.21-2.07,3.16a9.43,9.43,0,0,0-1.46,4.34c-19.25,1.33-54.75,1-54.75,1C492.58,92.56,524.81,90.05,538.59,89.19Z" style="fill:#5b4627"/><path d="M542.14,111.48c-29.21,5.42-77.66-8.18-58.64-6,15.22,1.8,40.92-1,52.86-2.43A34,34,0,0,0,542.14,111.48Z" style="fill:#5b4627"/><path d="M548.28,117.83c-10.6,2.25-35.22,6.24-56.87.7,0,0,38.94.93,53.26-4.42a7.66,7.66,0,0,0,.57.57C546.41,115.82,547.4,116.87,548.28,117.83Z" style="fill:#5b4627"/><path d="M547,75.5c-1.22,2.41-2.82,5.08-4.47,7.66-25.12-4.34-72.08,9.32-72.08,9.32s-6.28,2.28,18.64-8.2C508.4,76.14,535.72,75.41,547,75.5Z" style="fill:#5b4627"/><path d="M557,127.27c-10.48,4.43-35.21,11-74.91-.85,0,0,47.57,4.75,70.14-3.73,1.74,2.33,2.75,3.76,4.63,4.52Z" style="fill:#5b4627"/><path d="M554.25,56.57a20.45,20.45,0,0,0-4.77,8.95c-6.64-1-14.91-.16-23.59,1.64-.85.17-1.7.36-2.57.55-4,.92-8.09,2-12.11,3.21l-2.64.8c-9.56,3-18.64,6.49-25.61,9.37l-1.07.44-.31.13-1.48.63c-1.52.64-2.91,1.24-4.13,1.78l-1.2.53-.73.33-1,.46c-1.59.72-2.67,1.23-3.12,1.44.43-.26,1.5-.88,3.14-1.79l1.54-.88.41-.24c.74-.39,1.54-.84,2.42-1.34.35-.21.71-.4,1.07-.6L482,80c.54-.3,1.1-.61,1.68-1,.18-.09.37-.19.55-.3l1.46-.81.44-.24,1.5-.83c3.49-2,7.42-4.12,11.75-6.48l2.27-1.26,8-4.36C526.25,55.71,544.41,55.69,554.25,56.57Z" style="fill:#5b4627"/><path d="M473,85c.47-.28,1-.56,1.54-.88Z" style="fill:#d9be58"/><path d="M475,83.92l2.42-1.34C476.51,83.08,475.71,83.53,475,83.92Z" style="fill:#d9be58"/><path d="M570.61,144.19c-18.17,1.86-58.26,3.66-91.11-11.51,1.52.36,57.4,13.49,84.09,3.45C565,138.56,565.69,140.38,570.61,144.19Z" style="fill:#5b4627"/><path d="M564.41,40.8c-.39.86-.77,1.77-1.18,2.7-.76,1.74-1.24,3-1.58,4a68.31,68.31,0,0,0-22.82.6c-.94.17-1.86.35-2.79.54a126.53,126.53,0,0,0-14.54,4l-1,.31-1,.35c-.94.33-1.88.66-2.81,1l-1.57.59c-1.06.39-2.11.81-3.14,1.22l-1.54.62-1.53.63c-1,.43-2,.86-3,1.31-.51.21-1,.43-1.49.66l-1.49.67A271.33,271.33,0,0,0,473.4,75.85l-1.18.74-2.34,1.48a5.74,5.74,0,0,1-.55.36l-1.12.73c-.26.18-.49.34-.7.47h0L467,80l-.43.27.12-.1.25-.19c.27-.19.61-.45,1-.76l3.3-2.47.81-.6c.26-.18.52-.37.78-.58l5.3-3.89,1.46-1.06,4.55-3.27,3.46-2.46c7.71-5.45,16.82-11.69,26.18-17.66C532.74,35.11,555.13,38.57,564.41,40.8Z" style="fill:#5b4627"/><path d="M466.38,80.39a1.48,1.48,0,0,1,.26-.21l-.12.1S466.42,80.35,466.38,80.39Z" style="fill:#d9be58"/><path d="M466.89,80l1-.76C467.5,79.54,467.16,79.8,466.89,80Z" style="fill:#d9be58"/><path d="M573.77,31.22a8.7,8.7,0,0,0-4.2,1.67c-6.56-3.76-26.52-12.77-48.89.69-27,16.21-56.92,42.21-57.84,43l20.82-25.23c17.66-13.72,41.6-29,55.56-31.88C559.82,15.25,579.79,30.4,573.77,31.22Z" style="fill:#5b4627"/><path d="M606.57,150s-15.74,11.84-51.85,9.72c-1.28-.08-2.58-.17-3.88-.29-1-.08-2-.18-3.08-.3-1.81-.17-3.64-.4-5.45-.64l-2.19-.31a6.13,6.13,0,0,1-.73-.11l-2.08-.32-2.5-.41-3.31-.59c-1-.16-1.9-.34-2.85-.54l-2.09-.42c-1-.2-2-.41-3-.63q-3.44-.74-6.72-1.54c-.7-.15-1.39-.33-2.08-.5l-2.43-.61-3-.78c-2-.52-3.89-1-5.74-1.57l-2.16-.62-2.71-.79c-2.77-.83-5.35-1.63-7.69-2.38L490,146l-.8-.26-2-.64c-3.36-1.14-6.06-2.08-7.92-2.77l-.66-.23-.73-.27c-.66-.24-1.11-.41-1.31-.5a4.72,4.72,0,0,0,.46.12c.24,0,.53.14.88.23l.81.22c.44.11.93.22,1.49.37l1.12.27c1.69.43,3.75.93,6.14,1.49.45.1.93.22,1.43.32.74.18,1.52.36,2.32.53s1.61.37,2.47.55c5.08,1.12,11,2.33,17.38,3.46.56.1,1.14.21,1.72.3,1.14.21,2.31.4,3.48.59.6.09,1.17.2,1.77.28l3.56.56,2.56.37,4.06.53c1.24.17,2.47.31,3.72.45,1.85.21,3.71.39,5.55.56s3.7.31,5.53.43c1.26.08,2.52.16,3.77.2l3.44.12h.27l1.74,0c1.09,0,2.16,0,3.22,0l1.9,0,1.87-.07c.66,0,1.32-.07,2-.12s1.29-.09,1.91-.15,1.26-.11,1.88-.18l1.81-.22a44.94,44.94,0,0,0,11.71-3C590.63,155.85,605.39,148,606.57,150Z" style="fill:#5b4627"/><path d="M476.56,141.37l.46.12A4.72,4.72,0,0,1,476.56,141.37Z" style="fill:#d9be58"/><path d="M230,73.48c1.07-1.25,34.7-40.11,77.23-47.9.59,6.45,1.19,10.73,1,13.72-12.44,2.51-44.56,11.23-68.61,37.11,1-.73,36.22-25.64,64.3-27.06-.52,2.74,0,5.6,2.26,7.34A18.31,18.31,0,0,1,309.73,60a120.86,120.86,0,0,0-60.29,21c1.42-.56,34.61-13.55,60.86-9a12.62,12.62,0,0,0,1.25,3.22,22.22,22.22,0,0,1,1.82,6c-10.77-.72-33.36-1.5-44.8,3.22,0,0,32.67.17,45.57,3.12A48.07,48.07,0,0,1,314.2,93c-9.06-.78-18.12-1.91-27.25-3.18-18.24-2.55-36.69-5-54.61-9.24-2.08-.49-4.14-1-6.17-1.64-4.47-1.38-11.75-1.66-21-1,0,0,27.86-56.87,78.3-71.8,16.39-4.85,24.5-6.53,28-6.09,0,0-68.87,22.86-95.09,71,2-2.79,33.95-47.22,96.64-66.65-1.2,2.62-3.72,6.2-5.14,10C288.78,22,244.42,42.44,230,73.48Z" style="fill:#eacd71"/><path d="M314.14,87.57c-12.9-2.95-45.57-3.12-45.57-3.12,11.44-4.72,34-3.94,44.8-3.22A52.58,52.58,0,0,1,314.14,87.57Z" style="fill:#5b4627"/><path d="M310.68,65.49A12.9,12.9,0,0,0,310.3,72c-26.25-4.53-59.44,8.46-60.86,9a120.86,120.86,0,0,1,60.29-21A5.72,5.72,0,0,1,310.68,65.49Z" style="fill:#5b4627"/><path d="M308.22,39.3a6.84,6.84,0,0,1-1.51,4.14,12.87,12.87,0,0,0-2.8,5.91c-28.08,1.42-63.27,26.33-64.3,27.06C263.66,50.53,295.78,41.81,308.22,39.3Z" style="fill:#5b4627"/><path d="M307.86,14.41a14.55,14.55,0,0,0-1,5.95c.13,1.89.28,3.61.43,5.22C264.73,33.37,231.1,72.23,230,73.48,244.42,42.44,288.78,22,307.86,14.41Z" style="fill:#5b4627"/><path d="M313,4.37C250.31,23.8,218.32,68.23,216.36,71,242.58,22.93,311.45.07,311.45.07,314.18.38,314.12,2,313,4.37Z" style="fill:#5b4627"/><path d="M352.45,165.79s-17,.63-22.17.21a91.08,91.08,0,0,0,19.52,5.45c-.22.38-.42.77-.64,1.12a13.91,13.91,0,0,0-.84,1.57,101.43,101.43,0,0,1-29.4-3.25,85.58,85.58,0,0,0,29.56,8.24l.25.56a5.29,5.29,0,0,1,.55,2.16c-11.23.48-28.15-.57-44.58-6.69.7.4,21.67,12,46,13.34.23.25.49.5.75.76-11,.94-36.24,1.56-62.24-8.62.45.36,15.2,12.27,64.21,15.75-7.28,1-21,2.49-26.4.05-7.15-3.25-7.42,0-20.91-.66-11.37-.51-28.83-10.47-34.06-13.59,22.71-7.51,48.42-15.58,70.88-21.67,2.16,2.7,10.74,2.25,10.74,2.25S353.2,164,352.45,165.79Z" style="fill:#eacd71"/><path d="M358,195.71c-.43.06-2.14.34-4.57.68-49-3.48-63.76-15.39-64.21-15.75,26,10.18,51.25,9.56,62.24,8.62C354.55,192.28,359.14,195.56,358,195.71Z" style="fill:#5b4627"/><path d="M350.7,188.5c-24.33-1.31-45.3-12.94-46-13.34,16.43,6.12,33.35,7.17,44.58,6.69,0,.91-.3,1.76-.49,3.48C348.71,186.13,349.51,187.26,350.7,188.5Z" style="fill:#5b4627"/><path d="M348.48,179.13a85.58,85.58,0,0,1-29.56-8.24,101.43,101.43,0,0,0,29.4,3.25C347.24,176.48,347.73,177.51,348.48,179.13Z" style="fill:#5b4627"/><path d="M352.45,165.79c-.7,1.68-1.65,3.82-2.65,5.66A91.08,91.08,0,0,1,330.28,166C335.42,166.42,352.45,165.79,352.45,165.79Z" style="fill:#5b4627"/><path d="M240.69,229.69a7,7,0,0,1-1.83.75A47.7,47.7,0,0,1,222,226.51a59.06,59.06,0,0,1-10.29-15.08C219.86,220.72,230.93,226.42,240.69,229.69Z" style="fill:#5b4627"/><path d="M242.39,225.36c.06.22.12.42.16.6a112.09,112.09,0,0,1-28.24-19.09c9.28,5.56,19.63,6.82,28.46,6.2a10,10,0,0,1-1.83,1.2C235.41,217.15,241.13,221.3,242.39,225.36Z" style="fill:#5b4627"/><path d="M251.54,200.19a28.56,28.56,0,0,1-5.13,5.56,4.13,4.13,0,0,0-1.46,2.12,71.57,71.57,0,0,1-31.44-6.43C230.12,205.46,242.83,203.63,251.54,200.19Z" style="fill:#5b4627"/><path d="M124.77,230.12c-1.45,1.37-2.33,1.81-3.52-.11s-5.87-2.23-8.79-2.19c-.74-16.17,4.13-38.12,4.13-38.12C115.36,209.14,120.12,222.21,124.77,230.12Z" style="fill:#5b4627"/><path d="M132,221.11c-1.56,1.81-2.47,4.6-4.44,6.3-.24.2-.47.4-.68.6-5.08-14.17-5.94-29.55-5.94-29.55C123.69,208.72,127.75,216,132,221.11Z" style="fill:#5b4627"/><path d="M150.07,214.23l-.25.2c-5,3.78-6.1,6.35-11.86,5.17h0a89.8,89.8,0,0,1-16.12-33.13C131.2,202.76,141.8,210.52,150.07,214.23Z" style="fill:#5b4627"/><path d="M159.75,204.62c-2.33,1.2-4.27,4.27-7,7.17-19.07-11-24.27-23-24.27-23C137.82,198,149.58,202.62,159.75,204.62Z" style="fill:#5b4627"/><path d="M88.14,143.37a15.12,15.12,0,0,1-11.59,16.78,13.36,13.36,0,1,0-2.69.37,15.12,15.12,0,1,1,14.28-17.15Z" style="fill:#2b2b2b"/><path d="M78.31,148.71A6.53,6.53,0,1,1,71,143.13,6.54,6.54,0,0,1,78.31,148.71Z" style="fill:#2b2b2b"/><path d="M71.58,134a13.34,13.34,0,0,0,2.28,26.55c.23,0,.45,0,.67,0l.68-.08c.23,0,.46-.06.68-.11l.66-.15a13.34,13.34,0,0,0-5-26.18Zm1.15,22.11a6.54,6.54,0,1,1,5.58-7.37A6.54,6.54,0,0,1,72.73,156.08Z" style="fill:#d9d1cc"/><path d="M226.75,186c-19.85,5.35-41.56,5.93-57.14,3,0-.33.07-.64.08-.94a25.39,25.39,0,0,0,0-3.73s-7.07-.06-15.23-.37c-4.9-2.85-7.29-6.49-6.07-10.75,0,0,5.32-12.63,30.67-8s78.54,1.22,99.7-6.63,29.45-10.57,50.46-5.28S264.78,175.74,226.75,186Z" style="fill:#eacd71"/><path d="M169.69,184.32a25.39,25.39,0,0,1,0,3.73s-1.06.16-2.9.34h0c-7.43.74-27.27,1.81-41.11-5.51.49.36,2.73,1.94,6.35,4.07h0a111.47,111.47,0,0,0,33.15,12.85c-.94,2.22-1.59,3.95-4,4.34a4.43,4.43,0,0,0-1.35.47h0c-10.17-2-21.93-6.64-31.29-15.85,0,0,5.2,12,24.27,23a23.2,23.2,0,0,1-2.66,2.44c-8.27-3.71-18.87-11.47-28.24-27.75A89.8,89.8,0,0,0,138,219.61a3.11,3.11,0,0,1-.49-.11c-2.67-.6-4.23.22-5.42,1.61-4.29-5.13-8.35-12.39-11.06-22.65,0,0,.86,15.38,5.94,29.55-.87.8-1.56,1.53-2.15,2.11-4.65-7.91-9.41-21-8.18-40.42,0,0-4.87,22-4.13,38.12-1.42,0-2.44.11-2.44.11-2.81-15.55.83-31.91,3.79-41.59,1.65-5.37,3.07-8.68,3.07-8.68,3.57-2.26,7.36,2.16,15.06,4.28,4,1.09,13.86,1.68,22.52,2C162.62,184.26,169.69,184.32,169.69,184.32Z" style="fill:#eacd71"/><path d="M169.69,188.05c0,.3,0,.61-.08.94a16.83,16.83,0,0,1-1.12,4.79,8.84,8.84,0,0,1-1.11,2,18.53,18.53,0,0,0-2.23,4A111.47,111.47,0,0,1,132,187h0c-3.62-2.13-5.86-3.71-6.35-4.07,13.84,7.32,33.68,6.25,41.11,5.51h0C168.63,188.21,169.69,188.05,169.69,188.05Z" style="fill:#5b4627"/><path d="M64.94,196.79c-1.27-5.12-2.13-6.76-11.86-10.74s-21.45-14-21.45-14c5.37,0,16.75,1.32,27.94,3.44a0,0,0,0,0,0,0C72.31,190.78,66.2,201.92,64.94,196.79Z" style="fill:#d9d1cc"/><path d="M75,148.11a5.13,5.13,0,1,1,5.78,4.38A5.14,5.14,0,0,1,75,148.11Z" style="fill:#d9d1cc"/><path d="M233.93,89.57s-15.31-10.64-34.73-8.13-49.58,8.77-54,17.49,36.88,11.72,54.79,6.87,28.45-3.71,33.86-4.25S244,96.66,233.93,89.57Z" style="fill:#775d3c"/></g></g></svg>