<svg xmlns="http://www.w3.org/2000/svg" viewBox="0 0 308.28 129.26"><title>goldfish-common</title><g id="Layer_2" data-name="Layer 2"><g id="Ñëîé_2" data-name="Ñëîé 2"><path d="M66.73,70.79c-2,9.21-9.65,12.11-13.41,13a.57.57,0,0,1-.51-1c14.85-13.42,2-28,4.68-27.79S69.42,58.42,66.73,70.79ZM211.31,41.57a69.07,69.07,0,0,1-11.09,1,57.48,57.48,0,0,1-11.71-1.07c-20-4-62.51-13-93.06-15.08C90.6,26.1,86.07,26,82,26c-5.1,4.38-11.24,11.46-10.59,19.81,1.08,14.1-25.6-.11-40.35,7C20.25,58,14.92,60.29,9.44,58.57c-3,1.3-6,2.46-7.84,3.32-4,1.89.87,8.25.87,8.25l.43.72S.12,70.57,0,72.3s2,3.51,3,4.55c1.8,1.89,4,2.69,6.34,3.82.24.11.47.22.71.35,1.55-3.74,5.52-6.7,7.94-4.11,3.47,3.73,12.14,7.11,16.92,4.72s6.72-3,9.11.87a5.31,5.31,0,0,0,1.33,1.44l0,0c3.41,2.6,10.13,3.08,10.13,3.08A42.67,42.67,0,0,0,68,86.73c1.22-1.76,3.75-3.33,5.72-2.22a3.15,3.15,0,0,1,.58.42,2.18,2.18,0,0,1,.21.22C89.84,80.23,101.58,67.77,98.92,55c-3.68-17.73,26-9.15,49.53-7.08s67.1,0,67.1,0A12.21,12.21,0,0,1,211.31,41.57ZM28.64,71.78a7.06,7.06,0,1,1,7-7.06A7,7,0,0,1,28.64,71.78Z" style="fill:#f98705"/><path d="M71.38,45.84c1.08,14.1-25.6-.11-40.35,7C20.25,58,14.92,60.29,9.44,58.57,13,57,16.45,55.3,18,53.65c2.74-3,27-19.52,50.39-26A56.52,56.52,0,0,1,82,26C76.87,30.42,70.73,37.49,71.38,45.84Z" style="fill:#ea700c"/><path d="M71.61,107.35A221.68,221.68,0,0,1,48.9,99.21C40.62,95.79,32.49,92,24.43,88.07c-3.49-1.7-7-3.42-10.44-5.13L10.08,81c1.55-3.73,5.52-6.7,7.94-4.11,3.47,3.74,12.14,7.11,16.92,4.72s6.72-3,9.11.87a5.17,5.17,0,0,0,1.33,1.44l0,0c.1.12.56.64,1.39,1.44l.81.76.47.43.51.45.56.48.6.5.64.52c.45.36.92.73,1.43,1.11.25.2.51.39.78.58l.82.59c.54.38,1.11.77,1.71,1.16.78.52,1.61,1.05,2.49,1.57s1.54.9,2.36,1.34c.6.33,1.21.65,1.84,1l1.19.59c.91.45,1.86.88,2.84,1.3.77.34,1.55.66,2.37,1A65.33,65.33,0,0,0,71.61,107.35Z" style="fill:#f4b315"/><path d="M55.13,92c-.6-.39-1.17-.78-1.71-1.16C54,91.21,54.53,91.6,55.13,92Z" style="fill:#f7a107"/><path d="M68.22,98.74c-.82-.32-1.6-.64-2.37-1-1-.42-1.93-.85-2.84-1.3l-1.19-.59c-.63-.32-1.24-.64-1.84-1-.82-.44-1.61-.89-2.36-1.34s-1.71-1-2.49-1.57c-.6-.39-1.17-.78-1.71-1.16l-.82-.59c-.27-.19-.53-.38-.78-.58-.51-.38-1-.75-1.43-1.11L49.75,88l-.6-.5-.56-.48-.51-.45-.47-.43-.81-.76c-.83-.8-1.29-1.32-1.39-1.44,3.41,2.6,10.13,3.09,10.13,3.09A43.38,43.38,0,0,0,68,86.74L67.8,87a7.77,7.77,0,0,0-.83,2C66.37,91.07,67,94.7,68.22,98.74Z" style="fill:#f7a107"/><path d="M55.13,92c-.6-.39-1.17-.78-1.71-1.16C54,91.21,54.53,91.6,55.13,92Z" style="fill:#f7a107"/><path d="M220,50a8.61,8.61,0,0,1-4.41-2s-43.6,2.07-67.1,0S95.24,37.26,98.92,55c2.66,12.77-9.08,25.23-24.45,30.15,1.5,1.6,1.66,4.22,2.18,6.23.9,3.5,1.47,7.06,2.06,10.63h0c10.12,2.36,22.57,3.15,37.35.44,47.29-8.68,57.7-24.15,81.56-25.42h4.55c1.13-.08,2.26-.13,3.39-.13a47,47,0,0,1,6.48.33c.59-1.54,2.23-3.53,6.62-4.28,7.59-1.3,5-7.81,6.94-11.28S224.73,50.4,220,50ZM208.14,61.68c-2.69,3.69-8.13,3.47-22.67,6.07s-18.22,8.24-46,19.61-54.88,6-44.05-3.22A41.52,41.52,0,0,0,106.5,70.56c2.13-4.44,2.18-10.63,6.4-13.79s10.73-3,15.78-3.39c5.91-.46,11.85-.56,17.77-.54,15.11.06,30.26.83,45.31,2.16C205.63,56,210.85,58,208.14,61.68Z" style="fill:#f7a107"/><path d="M202.17,77l-1.18.11c-.39,0-.79.08-1.18.13l-.54.07-.1,0-1.11.16-1.19.21c-.32.05-.64.12-1,.19l-1,.23c-.67.15-1.33.33-2,.51a0,0,0,0,0,0,0,39.63,39.63,0,0,0-16.71,9.25c-.77.72-1.59,1.45-2.47,2.17-.63.54-1.29,1.06-2,1.59l-.21.17-1.27.94a100.42,100.42,0,0,1-27.43,13.41,3,3,0,0,1-.71-1.08c-.54-1.45,0-3.29-.3-4.95-.17-1.06-3.39-.71-7.74.31-6.34,1.47-15.09,4.33-20.36,6.19-8.89,3.15-4.91,5.61-4.91,5.61-2.09.09-4.21.15-6.37.15A98.08,98.08,0,0,1,80.1,109.6c-.18-1-.37-1.93-.55-2.87-.31-1.57-.58-3.14-.84-4.71,10.12,2.36,22.57,3.15,37.35.44,47.29-8.68,57.7-24.15,81.56-25.42Z" style="fill:#f4b315"/><path d="M234.44,85.13h0a74.88,74.88,0,0,0-8.61-4.35A51.57,51.57,0,0,0,212,77.24c.59-1.54,2.23-3.53,6.62-4.28,7.59-1.3,5-7.81,6.94-11.28S224.73,50.4,220,50a8.61,8.61,0,0,1-4.41-2,12.29,12.29,0,0,1-4.24-6.34,90.74,90.74,0,0,0,14.8-3.89h0a68.76,68.76,0,0,0,21.6-7c19.08-9.83-10.85,10.52-19.24,13.36s5.07,1.38,17.35-4.9-4.33,6.87-13.3,8.46-7.81,4.49,1.59,2.17,21.69-6.36,12.29-2-25.74,5.78-15.18,5.78,19.24.67,9.83,1.49-16.34,2.27-8.24,2.84,8.43,2.32,12,3.91-3.92,1-10.29,0,3.62,3.18,12.3,5.79-8.24.72-14.17-1S253.22,75.63,256.26,78,239.84,73,230.52,72.59s22.56,8.25,29.07,12.3-23.72-7.38-28.2-6.94,24,8.82,29.11,13.3C264.49,94.71,246.38,87.57,234.44,85.13Z" style="fill:#ea700c"/><path d="M244.89,91.43l0,0c-3.6-2.17-7.06-4.35-10.41-6.28,11.94,2.44,30.05,9.58,26.06,6.12-5.16-4.48-33.6-12.87-29.11-13.3s34.7,11,28.2,6.94-38.4-12.72-29.07-12.3,28.77,7.67,25.74,5.36-29.5-13.17-23.57-11.43,22.85,3.62,14.17,1-18.66-6.8-12.3-5.79,13.89,1.59,10.29,0-3.92-3.33-12-3.91-1.16-2,8.24-2.84.73-1.49-9.83-1.49,5.79-1.44,15.18-5.78-2.88-.3-12.29,2-10.55-.58-1.59-2.17,25.6-14.75,13.3-8.46-25.73,7.74-17.35,4.9,38.32-23.19,19.24-13.36a68.76,68.76,0,0,1-21.6,7,136.12,136.12,0,0,0,29.19-14.83,66.6,66.6,0,0,1,20-8.49c1.09,2.27,1.69,5.36-1.75,6.92-5.86,2.66.22,3.74-3.91,5.91s-.65,6.07-4.12,7.59.87,5.21-2.82,6.73-2.17,4.77-5,6.5-.43,3.69-3.68,5.86-3.69,7.56,0,8.76,3.68,6.42,5.64,7.07.65,6.51,4.12,6.73,3.25,6.94,5.85,7.16,1.31,5.64,4.13,6.5-.65,4.78,2.38,6.08S271.93,102.48,244.89,91.43Z" style="fill:#f7a107"/><path d="M304.32,26.74h0c-5.1-4-14-9.8-20.12-9.15-9,.94,5.64.39,13.88,10.43,0,0-11.86-6-18.07-5.73s10.09,2.6,14.15,7.24-11.55-6.51-19.79-2.9S278,25,286.48,31.53c0,0-10-1.88-13.74,0,0,0,5.49.76,8.1,3,0,0-9.54-1.58-11.28,0,0,0,6,.87,7.22,2.61,0,0-9.1-.15-10.25.87s3.24,0,5.64,2.31-7.24,2.57-8.11,2.22-.25,1.32,2.69,1.45h.78c3.63-.16-3.9,3.54-6.47,3.46s.88,1.4,2.28,1.07-5.64,3.47-6.83,5.64.86.21,2.83.81-3.27,3.64-4.89,3.1,1.52,1.37,4.56,2,1.63,3.39-.44,2.54-1.2,2.2,3.58,4.25,1.52,2.72-.65,1.74.76,2.39,5.21,2.92-1.09,2.22-3.37,1.77,1.74,2.9,9.33,3-2.56,3.54-4.77,2.35,3.47,3.83,11.17,2-2.49,3.8-7.7,1.85,5.75,4.12,14.53,3.15-3.16,4.66-9.12,3.79,5.44,4.45,15.09.55-2.6,7.41-11.71,6,5.2,5.42,18.54-2a4.62,4.62,0,0,1,2.53-.22c1,.36-10.09,11.95-34.88,8,0,0,0,0,0,0-7.77-2.44-14.84-6.42-21.43-10.39,27,11,34.29,6,31.25,4.74s.44-5.21-2.38-6.08-1.52-6.29-4.13-6.5-2.38-6.94-5.85-7.16-2.17-6.07-4.12-6.73-2-5.85-5.64-7.07-3.26-6.59,0-8.76.86-4.12,3.68-5.86,1.31-5,5-6.5-.65-5.21,2.82-6.73,0-5.42,4.12-7.59-1.95-3.25,3.91-5.91c3.44-1.56,2.84-4.65,1.75-6.92a49.26,49.26,0,0,1,11.32-1.51h0c10.76,3.24,18.45,11,18.9,12.71C306,27.47,304.55,26.84,304.32,26.74Z" style="fill:#dbd3ce"/><path d="M288.29,103.76a48.43,48.43,0,0,1-21.94-1.93c24.79,3.91,35.89-7.68,34.88-8a4.62,4.62,0,0,0-2.53.22c-13.34,7.38-27.65.53-18.54,2s21.36-9.88,11.71-6-21.05-1.41-15.09-.55,17.9-4.77,9.12-3.79-19.74-5.1-14.53-3.15,15.4-3.69,7.7-1.85-13.38-3.17-11.17-2,12.36-2.24,4.77-2.35-11.6-3.45-9.33-3,7.81-1.22,3.37-1.77-7.37-3.9-5.21-2.92,5.43.32.65-1.74-5.64-5.09-3.58-4.25,3.47-1.93.44-2.54-6.18-2.53-4.56-2,6.83-2.49,4.89-3.1-4,1.36-2.83-.81,8.24-6,6.83-5.64-4.85-1.17-2.28-1.07,10.1-3.62,6.47-3.46h-.78c-2.94-.13-3.48-1.77-2.69-1.45s10.5.09,8.11-2.22-6.8-1.3-5.64-2.31,10.25-.87,10.25-.87c-1.18-1.74-7.22-2.61-7.22-2.61,1.74-1.58,11.28,0,11.28,0-2.61-2.27-8.1-3-8.1-3,3.77-1.88,13.74,0,13.74,0-8.53-6.51-20.39-1.3-12.14-4.92s23.86,7.52,19.79,2.9-20.37-7-14.15-7.24S298.05,28,298.05,28c-8.24-10-22.85-9.49-13.88-10.43,6.1-.65,15,5.17,20.12,9.15h0c.23.1,1.71.73,1.21-1.18-.45-1.75-8.14-9.47-18.9-12.71,6.66-.06,12.87,1.61,17.28,6.1,5.32,5.42,5.12,8.25,2.92,9.85-2.72,2-8.48,2.1-10.52,2.94-3.68,1.52-5.64,3.91-8.45,3.26s-3.26,2.38-7.38,2.82-3.47,4.77-7.59,5.42-11.72,9.33-12.58,13.45,8.24,15.4,10.84,15.4,3.47,5,8.9,6.29,7.37,6.29,10.41,6.29,8.67,4.77,12.8,4.77S314.75,99.86,288.29,103.76Z" style="fill:#eae3dd"/><path d="M200.22,42.57a56.77,56.77,0,0,1-11.71-1.06c-20-4-62.52-13-93.07-15.08,0,0,16.5-6.25,25.39-13.59C129.07,6,144.37-1.89,152.36.41c-7.42,2.29-20.19,7.4-30.81,17.42C122.62,17.19,139.91,7,146.64,7c0,0-14.09,8.13-16.81,13.33s10.31-7.81,18-8.88-8.56,4.44-12.36,11.38,6.19-5,14.21-6.61S145.13,19.56,143,25s3.15-2.68,12-3.72-2.49,1.24-5.09,5.58S154,24.92,161.29,25s-1.85.33-4.67,4.56S160,28.27,167.36,28s-.22.46-2.49,3.21,4.77-1,10.08-.93-2.19,1.28-3.47,4.44,2.28-1.74,9.33-1.3-1.3.86-2.06,3.8,5.64-2.61,10.84-2.07-1.49.95-2.27,3.47c-.62,2,5-2,10.65-3.16A12.77,12.77,0,0,1,200.22,42.57Z" style="fill:#ea700c"/><path d="M198,35.41c-5.61,1.15-11.27,5.13-10.65,3.16.78-2.52,7.48-2.92,2.27-3.47s-11.61,5-10.84,2.07,9.11-3.37,2.06-3.8-10.61,4.47-9.33,1.3,8.79-4.34,3.47-4.44-12.36,3.68-10.08.93,9.87-3.54,2.49-3.21-13.56,5.85-10.74,1.63,11.93-4.46,4.67-4.56-14,6.18-11.39,1.84,14-6.61,5.09-5.58-14.2,9.16-12,3.72,14.75-10.39,6.72-8.76-18,13.55-14.21,6.61,20.07-12.48,12.36-11.38-20.71,14.09-18,8.88S146.64,7,146.64,7c-6.73,0-24,10.17-25.09,10.81C132.17,7.81,144.94,2.7,152.36.41a7.44,7.44,0,0,1,1.78.75,7,7,0,0,1,1.73,1.4c-2,.49-3.8,1.4-3.87,3.09-.15,3.17,2,6.21,3,9.11s2.3,3.61,12.58,7.37c9.3,3.4,23.2,7.75,27.29,10.26h0c.33.23.63.46.91.68l0,0a9.75,9.75,0,0,1,1.12,1A14,14,0,0,1,198,35.41Z" style="fill:#f58704"/><path d="M194.91,32.39c-4.09-2.51-18-6.86-27.29-10.26C157.34,18.37,156,17.65,155,14.76s-3.19-5.94-3-9.11c.07-1.69,1.92-2.6,3.87-3.09,3.82,4.4-2.75,10.82,8.56,15.3C175.33,22.18,189.14,28.29,194.91,32.39Z" style="fill:#eae3dd"/><path d="M207,114.27c-14.15-3.34-36.38-21.18-36.74-21.47l1.27-.94.21-.17c5.7,4.09,21.86,15.25,29.72,16.41,9.66,1.41-13.55-7.09-17.24-12.06s5.94,3.55,13.45,5.12-5.21-4.32-8.46-7.37,1.3-.88,6.07.64-1-2.38-4-6,1.67-1.07,6.4.66-1.85-3.58-3.15-6.3,1.2.12,3.15.66c1.78.5-.17-3.76-.75-5.74l1.19-.21,1.11-.16.1,0,.54-.07c.39,0,.79-.1,1.18-.13l1.18-.11c.86,1.56-.28,6-1.3,7.27S203,88.79,202.32,90s2.46,3,1.44,4.48,2.17,3.19,1.3,5.21.87,5.2,2.61,9.54C208.73,111.83,207.81,113.43,207,114.27Z" style="fill:#f7a107"/><path d="M201.41,108.1c-7.86-1.16-24-12.32-29.72-16.41.7-.53,1.36-1,2-1.59,0,0,6.37,6.65,9.69,2.6s4.77-11.19,9.49-14a0,0,0,0,1,0,0c.66-.18,1.32-.36,2-.51l1-.23,1-.19c.58,2,2.53,6.24.75,5.74-2-.54-4.45-3.36-3.15-.66s7.88,8,3.15,6.3-9.43-4.23-6.4-.66,8.79,7.49,4,6-9.32-3.69-6.07-.64,16,8.93,8.46,7.37S180.48,91.07,184.17,96,211.07,109.51,201.41,108.1Z" style="fill:#ea700c"/><path d="M208.68,114.61c-.56-.09-1.13-.2-1.73-.34.86-.84,1.78-2.44.72-5.09-1.74-4.34-3.47-7.52-2.61-9.54s-2.3-3.76-1.3-5.21-2.17-3.32-1.44-4.48-2.46-4.34-1.45-5.64S203,78.6,202.17,77c1.13-.08,2.26-.13,3.39-.13.48,2.53-1.56,6.48.09,7.76,1.95,1.52-.44,4.12,2.16,6.29s-1.3,3.26,1.09,4.77-.43,4.56,1.95,5.64,2,4.34.87,6.51S222.78,116.77,208.68,114.61Z" style="fill:#eae3dd"/><path d="M142.74,125.23c-10.29.64-27.66-8.22-28.9-8.85,0,0,0,0,0,0l0,0c-1.67-1.23-3.34-2.57-5-4,0,0-4-2.46,4.91-5.61,5.27-1.86,14-4.72,20.36-6.19.54,3.17,5.53,5.8,1.48,4.64s-8.29-5-6.16-1c.9,1.7,3.33,3.24,5.26,4.36,2.65,1.54,4.37,2.28,0,1.52a21.48,21.48,0,0,1-3.12-.79h0c-5.18-1.72-7.09-4.5-6-1a4.25,4.25,0,0,0,1.67,1.9c4.56,3.29,15.88,5.8,6.83,4.88-3.81-.39-7.56-2.3-10.59-4.23-5.52-3.52-8.7-7.13-5.71-1.9a9.08,9.08,0,0,0,2.13,2.41c7.71,6.39,27.86,9.16,14.17,7.69-10.13-1.09-17.55-5.93-19.61-7.09-.57-.34-.73-.38-.41,0s.84,1,1.79,2C122,120.75,153.41,124.57,142.74,125.23Z" style="fill:#ea700c"/><path d="M156.91,129s-1,.15-2.75.23c-.07-2-.41-4.89-1.66-6.26-2.05-2.28-3.9-1.73-3-3.15s-2.16-1-1.62-2.17-2.06-2.46-1.85-3.23-2.71-1.65-2.16-2.62-1.84-1.9-1.85-5.33a7.89,7.89,0,0,1,.09-1.33,3,3,0,0,0,.71,1.08,4.56,4.56,0,0,0,1.59.91c3.68,1.3,4.47,2.17,4.08,3.26s2.64,3.17,2.53,4,3,1.18,2.61,3,3.14,1.83,2.49,3.68S165,128,156.91,129Z" style="fill:#eae3dd"/><path d="M154.16,129.22a64.57,64.57,0,0,1-40.32-12.84c1.24.63,18.61,9.49,28.9,8.85,10.67-.66-20.76-4.48-26.94-11.28-1-1-1.53-1.67-1.79-2s-.16-.37.41,0c2.06,1.16,9.48,6,19.61,7.09,13.69,1.47-6.46-1.3-14.17-7.69a9.08,9.08,0,0,1-2.13-2.41c-3-5.23.19-1.62,5.71,1.9,3,1.93,6.78,3.84,10.59,4.23,9.05.92-2.27-1.59-6.83-4.88a4.25,4.25,0,0,1-1.67-1.9c-1.1-3.49.81-.71,6,1h0a21.48,21.48,0,0,0,3.12.79c4.33.76,2.61,0,0-1.52-1.93-1.12-4.36-2.66-5.26-4.36-2.13-4,2.11-.19,6.16,1s-.94-1.47-1.48-4.64c4.35-1,7.57-1.37,7.74-.31.28,1.66-.24,3.5.3,4.95a7.89,7.89,0,0,0-.09,1.33c0,3.43,2.33,4.46,1.85,5.33s2.38,1.83,2.16,2.62,2.39,2,1.85,3.23,2.49.76,1.62,2.17,1,.87,3,3.15C153.75,124.33,154.09,127.18,154.16,129.22Z" style="fill:#f7a107"/><path d="M80.1,109.6c-.18-1-.37-1.93-.55-2.87-.31-1.57-.58-3.14-.84-4.71h0c-.59-3.57-1.16-7.13-2.06-10.63-.52-2-.68-4.63-2.18-6.23a2.18,2.18,0,0,0-.21-.22,3.62,3.62,0,0,0-.58-.41c-2-1.12-4.5.46-5.72,2.22L67.8,87a7.77,7.77,0,0,0-.83,2c-.6,2.13,0,5.76,1.25,9.8a65.33,65.33,0,0,0,3.39,8.61A43.72,43.72,0,0,0,77.52,117C82.19,122.28,81.35,116.15,80.1,109.6Zm-2.28.76c-.71,0-1.63-.8-2.6-2a33.39,33.39,0,0,1-4.76-8.79h0a22.14,22.14,0,0,1-1.52-6.48,6.7,6.7,0,0,1,1.41-4.57c1.12-1.31,2-1.4,2.74-.89,1.07.77,1.71,2.9,2,4.33.65,2.77,1,5.59,1.51,8.39l.21,1.19c.34,1.91,1,5.57,1.1,7.52C78,109.86,78,110.37,77.82,110.36Z" style="fill:#ea700c"/><path d="M191.76,55c-15-1.33-30.2-2.1-45.31-2.16-5.92,0-11.86.08-17.77.54-5.05.39-11.42.13-15.78,3.39s-4.27,9.35-6.4,13.79A41.52,41.52,0,0,1,95.44,84.14c-10.83,9.21,16.28,14.6,44.05,3.22s31.45-17,46-19.61,20-2.38,22.67-6.07S205.63,56,191.76,55ZM149.25,78c-4.63,2.6-34.71,14-33.41,1.3s12.44-18.51,28-19.16,13.6,9.31,13.6,9.31C157.92,73.24,153.87,75.34,149.25,78Z" style="fill:#f8bf06"/><path d="M66.73,70.79c-2,9.21-9.65,12.11-13.41,13a.57.57,0,0,1-.51-1c14.85-13.42,2-28,4.68-27.79S69.42,58.42,66.73,70.79Z" style="fill:#ea700c"/><path d="M28.64,57.66a7.06,7.06,0,1,0,7,7.06A7,7,0,0,0,28.64,57.66Zm0,12.65a5.59,5.59,0,1,1,5.59-5.59A5.58,5.58,0,0,1,28.64,70.31Z" style="fill:#8e5436"/><path d="M157.49,69.4c.43,3.84-3.62,5.94-8.24,8.55s-34.71,14-33.41,1.3,12.44-18.51,28-19.16S157.49,69.4,157.49,69.4Z" style="fill:#f8cb09"/><path d="M192.86,78.68c-4.72,2.83-6.16,10-9.49,14s-9.69-2.6-9.69-2.6c.88-.72,1.7-1.45,2.47-2.17A39.63,39.63,0,0,1,192.86,78.68Z" style="fill:#f8bf06"/><path d="M77.82,110.36c-.71,0-1.63-.8-2.6-2a33.39,33.39,0,0,1-4.76-8.79h0a22.14,22.14,0,0,1-1.52-6.48,6.7,6.7,0,0,1,1.41-4.57c1.12-1.31,2-1.4,2.74-.89,1.07.77,1.71,2.9,2,4.33.65,2.77,1,5.59,1.51,8.39l.21,1.19c.34,1.91,1,5.57,1.1,7.52C78,109.86,78,110.37,77.82,110.36Z" style="fill:#f7a107"/><path d="M31.26,65.05a3.69,3.69,0,0,1-.18,1.15.65.65,0,0,1,0,.13,3.85,3.85,0,0,1-1.51,2,3.37,3.37,0,0,1-.32.19,2.21,2.21,0,0,1-.35.16l-.35.14h0l-.36.09a4.07,4.07,0,0,1-.79.07,3.81,3.81,0,0,1-1.22-.2,3.07,3.07,0,0,1-.5-.2,2.59,2.59,0,0,1-.46-.26,4,4,0,0,1-1.06-1.06,4.17,4.17,0,0,1-.49-1,3.79,3.79,0,0,1-.1-1.93,3.26,3.26,0,0,1,.18-.63,3.41,3.41,0,0,1,.39-.76l.21-.3a1.73,1.73,0,0,1,.26-.28l.18-.18a3.28,3.28,0,0,1,.85-.58c.08-.05.16-.08.24-.12l.3-.11a2.59,2.59,0,0,1,.37-.11l.31,0a4.73,4.73,0,0,1,.54,0,4,4,0,0,1,1.15.17,2,2,0,0,1,.28.11,2.48,2.48,0,0,1,.44.2,2.14,2.14,0,0,1,.32.2,3.76,3.76,0,0,1,1.29,1.45,2,2,0,0,1,.12.26,3.37,3.37,0,0,1,.22.68,1.57,1.57,0,0,1,.05.3A2.56,2.56,0,0,1,31.26,65.05Z" style="fill:#2b2b2b"/><path d="M28.64,59.14a5.59,5.59,0,1,0,5.59,5.58A5.58,5.58,0,0,0,28.64,59.14Zm2.44,7.06a.65.65,0,0,1,0,.13,3.85,3.85,0,0,1-1.51,2,3.37,3.37,0,0,1-.32.19,2.21,2.21,0,0,1-.35.16l-.35.14h0l-.36.09a4.07,4.07,0,0,1-.79.07,3.81,3.81,0,0,1-1.22-.2,3.07,3.07,0,0,1-.5-.2,2.59,2.59,0,0,1-.46-.26,4,4,0,0,1-1.06-1.06,4.17,4.17,0,0,1-.49-1,3.79,3.79,0,0,1-.1-1.93,3.26,3.26,0,0,1,.18-.63,3.41,3.41,0,0,1,.39-.76l.21-.3a1.73,1.73,0,0,1,.26-.28.77.77,0,0,1,.18-.18,3.28,3.28,0,0,1,.85-.58c.08-.05.16-.08.24-.12l.3-.11a2.59,2.59,0,0,1,.37-.11l.31,0a4.73,4.73,0,0,1,.54,0,4,4,0,0,1,1.15.17,2,2,0,0,1,.28.11,2.48,2.48,0,0,1,.44.2,2.14,2.14,0,0,1,.32.2,3.76,3.76,0,0,1,1.29,1.45,2,2,0,0,1,.12.26,3.37,3.37,0,0,1,.22.68,1.57,1.57,0,0,1,.05.3,2.56,2.56,0,0,1,.05.55A3.69,3.69,0,0,1,31.08,66.2Z" style="fill:#a86142"/><circle cx="30.67" cy="63.81" r="2.21" style="fill:#eae3dd"/></g></g></svg>