<svg xmlns="http://www.w3.org/2000/svg" viewBox="0 0 309.95 163.03"><title>golden-orfe</title><g id="Layer_2" data-name="Layer 2"><g id="Ñëîé_2" data-name="Ñëîé 2"><path d="M309.51,47.46c-2.93,1.56-5.85,5.85-6.24,8s-1,3.32-4.1,5.07-2.92,9.37-4.48,9.56-4.1,2.92-3.51,4.49.19,2.92-1.17,5.85-.79,6.63,1.17,11.31,6.82,4.48,6.82,8.58-.39,2.93,1.95,9.55,4.1,4.49,3.32,8,7.22,7.22,0,5.27a45.67,45.67,0,0,1-8.35-3.72h0c-3.25-6.76-18.3-13.52-17.58-14.42s7,2.34,11.31,4.49,3.9-.59-1.36-3.21-8-8.11-2.74-6,6.44,3.37,6.25,2-10-7.22-10-8.78,5.85,2.34,7,1-.78-.78-5.07-4-2.73-2.79,3.71-2-.59-2.69-5.27-4.64-1.17-3.51,4.29-2.47,5-2.08-1.56-2.61-6.82-3.69.2-3.89,7.55-2.38-.59-2.73-2.73-3.31,7.22-6.35-1.37-1.84-11.51-.28,5.66-3.71,14.43-7,5.07-4.29-3.22-.78-17.06,6.83-12.38,3.51S303.27,50.38,302.88,49s-19.91,7-20.48,7.3c.8-.53,1.65-1.07,2.54-1.65C300.34,44.73,312.43,45.9,309.51,47.46Z" style="fill:#eee8d2"/><path d="M290.49,57.6c8.29-3.51,12-2.53,3.22.78s-24.57,8.58-14.43,7,21.45-2.75,11.51.28-15.35,6-7.22,6.35,7.61,2.54.59,2.73-6.8,3.36-.2,3.89,7,3.65,1.56,2.61-9,.52-4.29,2.47,11.7,5.39,5.27,4.64-8-1.2-3.71,2,6.24,2.68,5.07,4-7-2.53-7-1,9.75,7.42,10,8.78-1,.09-6.25-2-2.53,3.39,2.74,6,5.65,5.35,1.36,3.21S278.11,104,277.33,105s14.33,7.66,17.58,14.42c-6.84-3.66-15.59-9.19-22.57-13.79-.56-2.12-2.56-3.83-3.79-5.47-1.75-2.36.59-.86,7.45,1.77s2.35-.44-2.62-4-6.87-5.24.64-1.87,9.31,1.9,2.87-2-4.68-5.27.15-3.6,3.07-.5-1-2-7-4.59.89-3.27,1.76-1.9-.89-2.73-2.91-3.42.89-3.72S275,76.91,270.31,76s1-.88,8.68-1.76-1.51-1-6.44-1-.92-2.19,4.49-4.53-1.47-1-8.19-.74.73-1.75,3.36-3.36a3.37,3.37,0,0,0,1.8-2.86c2.31-1.45,5-3.24,8.38-5.44h0c.57-.25,20.09-8.65,20.48-7.3s-20.09,8.77-24.77,12.09S282.21,61.11,290.49,57.6Z" style="fill:#ffa29e"/><path d="M270.31,76c4.68.88,10.38,2.32,6.58,2.62s-3.54,2.89-.89,3.72,8.79,4,.89,2.73-5,1.72-.89,3.27,5.86,3.73,1,2-6.59-.35-.15,3.6,4.63,5.41-2.87,2-5.61-1.67-.64,1.87,9.48,6.61,2.62,4-9.2-4.13-7.45-1.77c1.23,1.64,3.23,3.35,3.79,5.47-1.94-1.27-3.76-2.48-5.35-3.55a36.52,36.52,0,0,0-8.15-4c1.55-2.09,2.4-4.47,3.49-6.53a11,11,0,0,1,2.13-3c2.43-2.29,1.4-6.57.6-10.38a25.55,25.55,0,0,1-.6-3.86c-.1-2.2-1.59-4.91-3-7,4.35-.82,7.52-2.4,12.56-5.58a3.37,3.37,0,0,1-1.8,2.86c-2.63,1.61-10.09,3.66-3.36,3.36s13.6-1.6,8.19.74-9.42,4.53-4.49,4.53,14.09.15,6.44,1S265.63,75.15,270.31,76Z" style="fill:#9d9089"/><path d="M265.06,78.23s-10.55-.74-14.25,2.19-8.39,1.24-14.24-1.14c-2.49-1-5.22-.89-8-.63a13.67,13.67,0,0,0-2.71.26,19.16,19.16,0,0,1-8.94-.76c-6.63-2.61-17.55-6.9-24-6.9s-16-2.93-23.21-4.87-19.11-3.71-34.91-3.52-29.64,1.73-43.09,0-22.82.6-28.48,3.72S51.3,74.76,44.27,77.49,36.86,81.78,38,85.1a8.16,8.16,0,0,1,.31,3.75,0,0,0,0,1,0,0,11.55,11.55,0,0,1-3.62,6.95c-2.92,2.54-6,5.08-7,4.3s-.78-1.13,1.57-2.88,5.11-5,3.8-7.46.29-8-4.68-8.52l-.61-.05a6,6,0,0,0-2.43-.52,5.8,5.8,0,0,0-3.91,1.49c-2.24.9-3.93,2.33-4.32,4.09-.73,3.36,2.05,4.39,0,5.85s-3.21,2-4.68-.44-2.19-5.7-3.8-4S6,88.75,6,89.49c0,.43-1,1.28-1.88,1.9-.57.42-1.05.73-1.05.73A4,4,0,0,1,.19,89.78C-1.75,83.93,11.51,80.22,15,77.3S33.64,66.38,33.64,66.38C60,52.23,88.49,46.55,109,44.31A203.81,203.81,0,0,1,137.79,43c9.46,1.24,20.63,3.51,31.72,6.14l2.71.65c23,5.6,45.12,12.55,50.5,14.86,8.2,3.51,23.6,4.1,33.94,3.32a44.62,44.62,0,0,0,4.79-.6c1.42,2.12,2.91,4.83,3,7A25.55,25.55,0,0,0,265.06,78.23Z" style="fill:#f85e3a"/><path d="M265.06,78.23s-10.55-.74-14.25,2.19-8.39,1.24-14.24-1.14c-2.49-1-5.22-.89-8-.63l-2.71.26c-3.2.7-3.92,2.59-5.82,3.46-2.34,1.07-12.72,1.27-16.53-1.11s-6.58-.84-9.5,1.11-2.93,3.17-9.8,4-27.65-2.77-34.09-5.15-11.11-1.87-18,0a140.45,140.45,0,0,1-18.43,3.84,45.26,45.26,0,0,1-18.72-1.76A12.65,12.65,0,0,0,82.79,85.1c-2.63,1.9-5.12,1.75-6.73,5.32s1.32,5.36-2.78,7.18-8-.65-12.72-.07-8.19-2.63-10.24-7.11a24.68,24.68,0,0,0-2-3.75c.06.21,1.09,3.7,1.76,7s2.24,12-4.79,15-14.14.79-9.57,0,5-.58,9.38-3.6S45,88,45.74,86.66s2.62,0,2.62,0c-1.11-1.61-2.38-2.12-4.92-1.56a7.15,7.15,0,0,0-5.1,3.75,0,0,0,0,1,0,0,11.55,11.55,0,0,1-3.62,6.95c-2.92,2.54-6,5.08-7,4.3s-.78-1.13,1.57-2.88,5.11-5,3.8-7.46.29-8-4.68-8.52l-.61-.05A5.36,5.36,0,0,1,31,86.06a5.51,5.51,0,0,1-5.65,5.36,5.51,5.51,0,0,1-5.65-5.36,5.26,5.26,0,0,1,1.74-3.88c-2.24.9-3.93,2.33-4.32,4.09-.73,3.36,2.05,4.39,0,5.85s-3.21,2-4.68-.44-2.19-5.7-3.8-4S6,88.75,6,89.49c0,.43-1,1.28-1.88,1.9,4.77.81,9.41,4.39,9.85,6.43s-1.1,1.9-2.49,1.33S7.54,96.8,5.12,96.74c-1.63,0-.92,2.17-.3,3.61h0c3.77,3.54,9.41,7.51,12.87,8.3,6.44,1.46,14.48,4.24,19.16,7.6,2.36,1.7,14.2,7.21,32.06,12.24l-.18-.06-.1,0-.92-.33-.31-.13c-.28-.12-.58-.25-.87-.4l-.22-.12-.29-.17-.14-.09-.13-.09-.17-.12-.14-.11a1.85,1.85,0,0,1-.28-.28.83.83,0,0,1-.11-.15.71.71,0,0,1-.11-.21c-.5-1.29-4.39-3.66-6.44-5.09s-1.76-2.52,5.56-6.9,14.77-20.48,14.77-17S74.3,110.66,74.16,111c5-2.25,12.56-3.94,23.84-4.51,1.27-.07,2.59-.12,4-.15,17-.44,17.7,3.22,15.8,3.92s-2.2,2.22-2.49,4-1.75,1.46-5.12,2-5.41,3.81-8.63,4.25-3.22,2.77-6.73,2.92-1.31,2.78-5.55,2.78a20.6,20.6,0,0,1-3.5-.39h0c-4.46-.85-10-2.92-10-4.73,0-1.37-1.1-2.79-2.43-3.84,0,0-2.74,9.59,8,12.32,5.86,1.5,13.51,3.54,19.52,5.77,7.51,1.11,15.48,1.94,23.78,2.34,4.26-2.41,24.28-1.52,32.47-3.13s14.33-6,16.52-10.1,3.66-3.07,12.88-5.7,12.72-9.65,20.18-12.73a32.44,32.44,0,0,0,15.51-12.87c2.92-4.82,3.36-4,15.06-4.67s25.08,3.09,25.08,3.09a11,11,0,0,1,2.13-3C266.89,86.32,265.86,82,265.06,78.23ZM22.23,105.87c-2.63-1.9-4.38-5.12-2-7.1s3.51,1.39,5.7,2.56,4.1-.29,6.73-1.9,2.34-.14,3.07,2.64-4.09,4.82-4.09,4.82C28.09,108.06,24.87,107.77,22.23,105.87Zm179.36-4.51-.57.38c-4.44,3.08-8.87,6.23-13.79,8.49-8,3.68-15.61,2.56-28.09,14.46s-54,8.78-43.68-1,6-20.47,10.33-26.91,24-6,43.11-2.73,32.95-10.73,37.19-3.65C208.89,95.11,205.3,98.8,201.59,101.36Z" style="fill:#f8f4e3"/><path d="M11.48,99.15c-1.39-.58-3.94-2.35-6.36-2.41-1.63,0-.92,2.17-.3,3.61-3.22-3-5.09-5.76-3.06-5.89,4.38-.29,7.75,2.92,7,1.61a10.54,10.54,0,0,0-5.71-3.95s.48-.31,1.05-.73c4.77.81,9.41,4.39,9.85,6.43S12.87,99.72,11.48,99.15Z" style="fill:#dad2b9"/><path d="M100.85,135.33a256.46,256.46,0,0,1-31.69-6.77l-.16,0-.08,0-.18-.06-.1,0-.92-.33-.31-.13c-.28-.12-.58-.25-.87-.4l-.22-.12-.29-.17-.14-.09-.13-.09-.17-.12-.14-.11a1.85,1.85,0,0,1-.28-.28.83.83,0,0,1-.11-.15.71.71,0,0,1-.11-.21c-.5-1.29-4.39-3.66-6.44-5.09s-1.76-2.52,5.56-6.9,14.77-20.48,14.77-17S74.3,110.66,74.16,111h0a21.28,21.28,0,0,0-3.65,2s-2,2.06,0,2.65a8.56,8.56,0,0,1,2.84,1.57s-2.74,9.59,8,12.32C87.19,131.06,94.84,133.1,100.85,135.33Z" style="fill:#dad2b9"/><path d="M225.81,78.91c-3.2.7-3.92,2.59-5.82,3.46-2.34,1.07-12.72,1.27-16.53-1.11s-6.58-.84-9.5,1.11-2.93,3.17-9.8,4-27.65-2.77-34.09-5.15-11.11-1.87-18,0a140.45,140.45,0,0,1-18.43,3.84,45.26,45.26,0,0,1-18.72-1.76A12.65,12.65,0,0,0,82.79,85.1c-2.63,1.9-5.12,1.75-6.73,5.32s1.32,5.36-2.78,7.18-8-.65-12.72-.07-8.19-2.63-10.24-7.11a24.68,24.68,0,0,0-2-3.75,0,0,0,0,1,0,0c-1.11-1.61-2.38-2.12-4.92-1.56a7.15,7.15,0,0,0-5.1,3.75A8.16,8.16,0,0,0,38,85.1c-1.17-3.32-.78-4.88,6.24-7.61s13.26-7.8,18.92-10.92,15-5.46,28.48-3.72,27.3.21,43.09,0,27.7,1.57,34.91,3.52,16.78,4.87,23.21,4.87,17.36,4.29,24,6.9A19.16,19.16,0,0,0,225.81,78.91Z" style="fill:#f88670"/><path d="M228.52,78.65l-2.71.26A13.67,13.67,0,0,1,228.52,78.65Z" style="fill:#f85e3a"/><path d="M262.33,91.56c-1.09,2.06-1.94,4.44-3.49,6.53a77.81,77.81,0,0,0-25-4c-5.07.17-9.83,3.49-14.42,7.83-.53.49-1,1-1.58,1.53a105.17,105.17,0,0,1-22.76,18.8,106.8,106.8,0,0,1-38.24,14c-.61.11-1.24.2-1.86.3-1,.16-2.08.3-3.14.43a129.9,129.9,0,0,1-16.1,1H134.2c-3.23,0-6.43-.11-9.57-.27,4.26-2.41,24.28-1.52,32.47-3.13s14.33-6,16.52-10.1,3.66-3.07,12.88-5.7,12.72-9.65,20.18-12.73a32.44,32.44,0,0,0,15.51-12.87c2.92-4.82,3.36-4,15.06-4.67S262.33,91.56,262.33,91.56Z" style="fill:#dad2b9"/><path d="M31.6,106.89c-3.51,1.17-6.73.88-9.37-1s-4.38-5.12-2-7.1,3.51,1.39,5.7,2.56,4.1-.29,6.73-1.9,2.34-.14,3.07,2.64S31.6,106.89,31.6,106.89Z" style="fill:#f88670"/><path d="M45.34,108.69c-7,3-14.14.79-9.57,0s5-.58,9.38-3.6S45,88,45.74,86.66s2.62,0,2.62,0a0,0,0,0,0,0,0c.06.21,1.09,3.7,1.76,7S52.37,105.68,45.34,108.69Z" style="fill:#dad2b9"/><path d="M108.34,111.62c-6.24-.19-23.7,3.12-22.61,4.62s-.41.35,12.37-1.4,13-.59-.29,1.4-14.34,4.94-8.58,3.48,14.82-2.34,14.82-1.57-4.59,1.18-10.92,1.95-10.53,2.74-2.44,1.57,7.84.19,3.35.77-10.18,2-7.55,1.86,4.59-.39,4.2.39-4.75,1.1-5,1.12h0c-4.46-.85-10-2.92-10-4.73,0-1.37-1.1-2.79-2.43-3.84a8.56,8.56,0,0,0-2.84-1.57c-2-.59,0-2.65,0-2.65a21.28,21.28,0,0,1,3.65-2h0c5-2.25,12.56-3.94,23.84-4.51,9.36,0,13.75,1.36,1.17,2.43S70.21,118,87.86,113,114.58,111.82,108.34,111.62Z" style="fill:#ffa29e"/><path d="M117.75,110.23c-1.9.71-2.2,2.22-2.49,4s-1.75,1.46-5.12,2-5.41,3.81-8.63,4.25-3.22,2.77-6.73,2.92-1.31,2.78-5.55,2.78a20.6,20.6,0,0,1-3.5-.39c.21,0,4.58-.36,5-1.12s-1.56-.58-4.2-.39S89.54,123,94,122.44s4.74-1.94-3.35-.77-3.9-.78,2.44-1.57,10.92-1.17,10.92-1.95-9.07.1-14.82,1.57-4.68-1.51,8.58-3.48,13.06-3.16.29-1.4-11.29,2.89-12.37,1.4,16.37-4.81,22.61-4.62-2.83-3.53-20.48,1.4-1.27-3.06,11.31-4.13,8.19-2.43-1.17-2.43c1.27-.07,2.59-.12,4-.15C118.92,105.87,119.65,109.53,117.75,110.23Z" style="fill:#9d9089"/><path d="M154.25,144.38c-3.3-2.24-8.79-7.11-7.07-4.58s7.58,8.59,5.63,8.59-7.61-8.88-9-8.49,1.76,4.88,4.88,8.49.19,2.43-2.34-.79-2.92-6.19-5-5.53,2.24,5,4.77,8.53-2.88.45-9.48-7.85h0c-1.28-2.34-2.18-4.15-2.49-4.81h1.54a129.9,129.9,0,0,0,16.1-1s3.35,2.83,3.14,2.93-3.93-1.46-2.57,0S157.54,146.63,154.25,144.38Z" style="fill:#9d9089"/><path d="M159,147.85c-4.54-2.34-3.07,1.31-.73,3.22s1.6,3.65-1,1.46-6.29-1.48-3.51,1-3-1.61-1,1.32.55,4.68-1.64,2.19-5-2.48-3.51-.73c1.06,1.28,1.9,2.49,1.82,3.78-.7-.64-1.48-1.39-2.36-2.27-3.91-3.91-7.86-10.51-10.36-15.09,6.6,8.3,12,11.39,9.48,7.85s-6.82-7.87-4.77-8.53,2.43,2.31,5,5.53,5.46,4.39,2.34.79-6.24-8.1-4.88-8.49,7,8.49,9,8.49-3.91-6-5.63-8.59,3.77,2.34,7.07,4.58-.47-3-1.84-4.48,2.35.1,2.57,0-3.14-2.93-3.14-2.93c1.06-.13,2.11-.27,3.14-.43,0,0,2.85,2.39,5.63,4.29s-1,2.33-2.82,1.24-1.43,2.12,2.38,3.88S163.53,150.19,159,147.85Z" style="fill:#ffa29e"/><path d="M163.63,155.31c-2.15,3.7-.39,3.32-3.9,3.32s-1.56-.2-3.32,2.53c-1.51,2.36-2.59,3-7-1,.08-1.29-.76-2.5-1.82-3.78-1.46-1.75,1.31-1.75,3.51.73s3.66.73,1.64-2.19,3.77,1.17,1-1.32.88-3.22,3.51-1,3.37.44,1-1.46-3.81-5.56.73-3.22,5-.15,1.17-1.9-4.24-5-2.38-3.88,5.6.66,2.82-1.24-5.63-4.29-5.63-4.29c.62-.1,1.25-.19,1.86-.3,0,0,3.28,1.71,5,1.71s2.72,2.15,2.53,5.85.19,2.92,1.36,4.49S165.77,151.6,163.63,155.31Z" style="fill:#eee8d2"/><path d="M221.94,108.65c-6-.63-5.85.44-2.34,2.29s6.36,4.48,1.67,3.22-5.4-1.37-2.41.78,2.69,4.68-1.31,2.24-5.85-2.73-3.6-.2,1.28,5.37-1,2.74-5.57-2-3.13,1,3.22,4.11.29,2.36-4.68-1.86-2.34,1.27,1.93,5-1.08,2.63-5.94-1.85-4.47.49-1.37.29-.4,2.14a4.74,4.74,0,0,1,.6,3.44,36.54,36.54,0,0,1-7.37-10.87,105.17,105.17,0,0,0,22.76-18.8c.53-.52,1-1,1.58-1.53.92.63,2.84.91,5.05.73,0,0-.79,2.14-4.38,2.17s-.3,1,2.2,1.85S228,109.28,221.94,108.65Z" style="fill:#9d9089"/><path d="M226.57,112.16c2.64,1,2.78,4.64.59,4.08s-2.09.16-2.07,1.48-1.73,1.17-1.88,2.63.29,1.9-1.61,1.9-5.6-2-6.24,0-.93,2.19,2,4,.87,2.78-2.42.73-4.46-.58-.8,1.76,5.07,4.82,1.22,2.92-8.53-3.22-5.17-.29,4.68,6.48,2.34,4.92-8.34-3.9-5.85-1.56c1.6,1.51,2.41,2.47,2.28,3.7a34.88,34.88,0,0,1-6.51-5.28,4.74,4.74,0,0,0-.6-3.44c-1-1.85,1.86.2.4-2.14s1.46-2.83,4.47-.49,3.42.49,1.08-2.63-.58-3,2.34-1.27,2.15.68-.29-2.36.88-3.69,3.13-1,3.21-.2,1-2.74-.39-2.24,3.6.2,4.3-.1,1.31-2.24-2.28-2,2.41-.78,1.84-1.37-1.67-3.22-3.7-2.92,2.34-2.29,2.83-1.13.35-2-5.79-1.83-2.2-1.85,4.38-2.17,4.38-2.17a16.6,16.6,0,0,0,6.23-1.73c-.21.16-3.72,2.77-4.86,2.77s.59.88,3.51.74,2.93,1.68-.14,1.86-2.64,1.94.87,2.38.3,1.31-2.34,1.31S223.94,111.13,226.57,112.16Z" style="fill:#ffa29e"/><path d="M235,113c-1.95,3.16-4.49,4.06-3.51,6.4s-.58,6.63-3,6.78,0,3.56-2.29,4.14-.39,4.68-2.92,5.9-1.17,1.32-2.15,4.44-7.8,0-7.8,0a33.12,33.12,0,0,1-4.4-2.3c.13-1.23-.68-2.19-2.28-3.7-2.49-2.34,3.51,0,5.85,1.56s1-2-2.34-4.92,1.32-1.61,5.17.29,2.44-.58-1.22-2.92-2.49-3.81.8-1.76,5.34,1,2.42-.73-2.63-1.9-2-4,4.34,0,6.24,0,1.46-.44,1.61-1.9,1.9-1.32,1.88-2.63-.13-2,2.07-1.48,2.05-3.06-.59-4.08-1.46-2.2,1.17-2.2,5.85-.87,2.34-1.31-3.94-2.2-.87-2.38,3.07-2,.14-1.86-4.68-.74-3.51-.74,4.65-2.61,4.86-2.77h0c4.09-2.15,5.65.77,4.29,3.11S237,109.86,235,113Z" style="fill:#eee8d2"/><path d="M185.47,40.05c-6.43.58-13.25,9.71-13.25,9.71l-2.71-.65S178.6,40.05,182,38.58s-1.17-1.61-5.12,0-3.07.88,1.46-2.78,6-6.14.88-4.68-5.12,1.64-2.34-.42,6.88-7.53,2.78-5.82,0-3.7-3.3-2.53-.79-2.49-4.16-1.46-1.9-.44.73-3.22,2.34-4.68-1.46-2.93S175,9.91,169.51,12s-3.49-2.19-7.59.59-10.82,3.65-6.29,1,14.48-9.36,7.46-7.46-7.31,5.85-11.26,5.12.88-1.75,4.53-4.09,3.66-4.83-.43-2.34S149.2,9,148.32,8.6c-.66-.33-1.24-1.83-2-2.1,2.22-1,8-4.1,10.22-6C164.4-1.41,165.92,3,167.33,3c1.95,0,1.76,3.51,4.89,3.9s.38,4.68,4.28,6.24,1,4.1,4.13,4.88,1.14,5.65,3.67,6.82-.39,4.1,1.76,5.66-1.17,2.73.39,4.88S191.91,39.46,185.47,40.05Z" style="fill:#eee8d2"/><path d="M176.84,38.58c-4,1.61-3.07.88,1.46-2.78s6-6.14.88-4.68-5.12,1.64-2.34-.42,6.88-7.53,2.78-5.82,0-3.7-3.3-2.53-.79-2.49-4.16-1.46-1.9-.44.73-3.22,2.34-4.68-1.46-2.93S175,9.91,169.51,12s-3.49-2.19-7.59.59-10.82,3.65-6.29,1,14.48-9.36,7.46-7.46-7.31,5.85-11.26,5.12.88-1.75,4.53-4.09,3.66-4.83-.43-2.34S149.2,9,148.32,8.6c-.66-.33-1.24-1.83-2-2.1,2.22-1,8-4.1,10.22-6-3,.71-6.88,2.34-12,5.45-13.54,8.17-24.77,20.8-30.9,29.91,0,0,28.41-25.92,30.46-25.77s-22.53,19.21-24.87,25.77,12.87-8.36,22.53-16.11,8.33-5.27,5.41-2.49S125.35,36,125.35,38.29s7.17-5.17,17.85-13.41S158,15.33,154.25,18.4,130.2,37.56,134.07,39.75s12.21-7.16,20.18-13.16,12.21-8.92,13.52-7.31-24,15.28-24.42,20.8,17.84-9.83,23.4-12,4.53-.73,3.07.44-17,10.83-17.11,14.41S167,36.17,171,34.2s-3.67,3.11-8.18,7.75-.59,3.69,5.12,1.7,10.38-4.48,5.56-.75-4,6.21-4,6.21S178.6,40.05,182,38.58,180.79,37,176.84,38.58ZM145.54,6.7a.71.71,0,0,1,.78-.2C145.64,6.8,145.3,6.91,145.54,6.7Z" style="fill:#ffa29e"/><path d="M173.48,42.9c-4.83,3.73-4,6.21-4,6.21-11.09-2.63-22.26-4.9-31.72-6.14A203.81,203.81,0,0,0,109,44.31a41,41,0,0,1,4.65-8.48S142,9.91,144.08,10.06s-22.53,19.21-24.87,25.77,12.87-8.36,22.53-16.11,8.33-5.27,5.41-2.49S125.35,36,125.35,38.29s7.17-5.17,17.85-13.41S158,15.33,154.25,18.4,130.2,37.56,134.07,39.75s12.21-7.16,20.18-13.16,12.21-8.92,13.52-7.31-24,15.28-24.42,20.8,17.84-9.83,23.4-12,4.53-.73,3.07.44-17,10.83-17.11,14.41S167,36.17,171,34.2s-3.67,3.11-8.18,7.75-.59,3.69,5.12,1.7S178.3,39.17,173.48,42.9Z" style="fill:#9d9089"/><path d="M201.59,101.36l-.57.38c-4.44,3.08-8.87,6.23-13.79,8.49-8,3.68-15.61,2.56-28.09,14.46s-54,8.78-43.68-1,6-20.47,10.33-26.91,24-6,43.11-2.73,32.95-10.73,37.19-3.65C208.89,95.11,205.3,98.8,201.59,101.36Z" style="fill:#faf8ee"/><path d="M27.77,81.21a6,6,0,0,0-2.43-.52,5.8,5.8,0,0,0-3.91,1.49,5.26,5.26,0,0,0-1.74,3.88,5.51,5.51,0,0,0,5.65,5.36A5.51,5.51,0,0,0,31,86.06,5.36,5.36,0,0,0,27.77,81.21Zm-2.43,9.43a4.59,4.59,0,1,1,4.83-4.58A4.71,4.71,0,0,1,25.34,90.64Z" style="fill:#9d9089"/><path d="M25.34,81.47a4.59,4.59,0,1,0,4.83,4.59A4.71,4.71,0,0,0,25.34,81.47Zm.4,6.93a2.35,2.35,0,1,1,2.35-2.34A2.34,2.34,0,0,1,25.74,88.4Z" style="fill:#e9e2dc"/><path d="M28.09,86.06a2.35,2.35,0,1,1-2.35-2.35A2.35,2.35,0,0,1,28.09,86.06Z" style="fill:#2b2b2b"/><path d="M21.53,84.57a1.87,1.87,0,1,1,1.87,1.87A1.87,1.87,0,0,1,21.53,84.57Z" style="fill:#e9e2dc"/></g></g></svg>