<svg xmlns="http://www.w3.org/2000/svg" viewBox="0 0 292.15 136.6"><title>hatchetfish</title><g id="Layer_2" data-name="Layer 2"><g id="Ñëîé_2" data-name="Ñëîé 2"><path d="M114.6,110.56c-.62,12.6-13.75,17.44-24.42,19-14.45,2.08-30.79.62-43.26-7.44-3.83-2.47-7.32-5.42-9.42-9.53-2.94-5.77-3.8-14.1-.6-20,5.49-10.13,16-4.33,23.58-.44,0,0,17.7,11.29,32.06,5.9S115.37,94.91,114.6,110.56Zm82.87-54c-15.62,3.16-61.33,14.79-69,11.93S117.16,72.34,105.8,76s-30.7-3.7-36.68-7.59S49.45,62.08,49,67.83,46.37,79,36.23,85s-22.89,0-22.89,0c12.12,36.94,37.52,50.4,70.6,51.56,10.77.38,19.32-1.31,26.35-4.29h0c.59-.37,23.73-15,13.32-31.71-10.57-16.93.2-15.56,10.46-17.78S213.15,49.84,234,58.39l.43.09c6.63,1.31,9.59.2,9.67-2C229.91,49.44,213.09,53.36,197.47,56.52Z" style="fill:#ece2b6"/><path d="M233,34.18h0a68.2,68.2,0,0,1-6.52,6c-6.16,4.42-33.28,2.69-42.71,1.92-3.85-.31-5.29-1.72-8.31-3.4h0c-2.55-1.41-6.2-3-13.35-4.29-.87-.16-1.79-.32-2.77-.46a183.93,183.93,0,0,0-18.84-1.66c-38.86-1.73-85.41,10.58-89.84,11.56a21.17,21.17,0,0,1-3.72.42,31.4,31.4,0,0,1,1.78,6.43c37.49,12.48,114.43,3.05,139.5-2,19.67-4,40.41-3.53,49-3.12,0-3.34,3.27-6.66,5.81-10.23C246.8,30.07,233.53,34,233,34.18ZM165.45,46c-6.31,1.1-15.15.6-17.43.74-7.6.48-15.2.87-22.79,1.46A346.78,346.78,0,0,1,82,48.92c-4.87-.24-10.45-.16-15.14-1.72-3.45-1.16,2.43-2.77,3.48-3a113.67,113.67,0,0,1,11.33-1.81c7.58-1,15.32-1.64,22.86-2.22,12.94-1,25.92-1.76,38.9-2,5.13-.11,10.26-.17,15.4,0,3,.12,6.24.13,9.14,1,1.14.34,4.22,1.09,4.2,2.75C172.13,44.13,169.24,45.36,165.45,46Z" style="fill:#ead98f"/><path d="M272.64,61.2c-12.55.77-16.4-1.11-19.6-2.15-2-.67.13,3,8.67,5.89-8.18-.39-15.37-1.48-20.41-4a30.93,30.93,0,0,0-6.85-2.45v0c6.63,1.31,9.59.2,9.67-2,.06-1.54-1.36-3.63-4-5.77a10.77,10.77,0,0,1-1.59-1.57,5.52,5.52,0,0,1-1.34-3.59c0-3.34,3.27-6.66,5.81-10.23,3.77-5.29-9.5-1.32-10-1.18,6.79-6.65,16.86-16.29,31-21.14-6,3.9-14.14,9.8-15.81,13.86-2.69,6.54,1.92-3.08,11.16-7.12s7.5-1.73-.39,3.85-15.2,12.89,1.35,3.46-.39,4-8.47,6.73-3.07,4.43,4.43,1.54,3.27,1-1.23,2.5-13.2,2.18-6.66,2.83,17.18-.27,10.9,1.27-16.55,1.29-6.67,2.83,19,2.17,13.72,3.21-17.18-.27-12.18,1.54,15.9,2.94,18.08,4.35-5.77,1.8-11.8,1-7.05,1.54,6.29,3.46S285.19,60.43,272.64,61.2Z" style="fill:#eae3dd"/><path d="M234.45,58.48v0c-7.21-1.72-14.81-1.08-19.89,1.1-6.54,2.8-59.22,27.22-72.78,42.9-.4.45-.76.91-1.09,1.35s-.81,1.09-1.21,1.64c-7.42,10.07-15.37,20.92-29.17,26.77.59-.37,23.73-15,13.32-31.71-10.57-16.93.2-15.56,10.46-17.78S213.15,49.84,234,58.39Z" style="fill:#ddd3a8"/><path d="M281.51,65c-6.81.17-13.58.26-19.79,0h0C253.17,62,251,58.38,253,59.05c3.2,1,7,2.92,19.6,2.15s7.45-.89-5.88-2.82-12.31-4.23-6.29-3.46,14,.39,11.8-1-13.08-2.56-18.08-4.35S261.12,49,266.37,48s-3.84-1.67-13.72-3.21S253,43.5,259.32,42s-4.36-.64-10.9-1.27,2.18-1.29,6.66-2.83,8.73-5.38,1.23-2.5-12.51,1.16-4.43-1.54,25-16.16,8.47-6.73-9.24,2.12-1.35-3.46,9.62-7.89.39-3.85-13.85,13.66-11.16,7.12c1.67-4.06,9.84-10,15.81-13.86h0c.37-.14.74-.26,1.11-.38,20.39-6.54,20.77-5.39,19.81-1.54s-2.69,9.43-7.12,10-3.07,2.69-4.61,3.46-6,9.42-7.51,10.39-1.92,5.58,1.74,7.31,3.84,4.23,6.15,5,2.5,2.88,4.81,3.85,7.12,7.69,10.2,8.08S297.28,64.6,281.51,65Z" style="fill:#f2ece9"/><path d="M240.15,50.75a10.77,10.77,0,0,1-1.59-1.57s-25.23-2.32-47.09,3.37-89.57,13-119.19,8L68,59.83,63.22,59h-.06c-11.54-1.57-12.38,1.56-13.58,1.18S49,56.62,49,56.62a26.61,26.61,0,0,0-.3-5.93,31.4,31.4,0,0,0-1.78-6.43A37,37,0,0,0,33,46.9c-8.65,3.47-16.35,5.39-21.73,5.2S5,54.38,6.86,55s2.25,4.21,2.25,4.21-3.85-3.28-5.65-3.28S1,56.33.13,59.41s3.08,3.33,5.26,11.41a37.37,37.37,0,0,0,8,14.17s12.75,6,22.89,0S48.49,73.57,49,67.83s14.18-3.27,20.15.62S94.44,79.75,105.8,76s15-10.45,22.69-7.59,53.36-8.77,69-11.93,32.44-7.08,46.65,0C244.18,55,242.76,52.89,240.15,50.75ZM25.36,52a8.26,8.26,0,1,1,0,16.5,8.26,8.26,0,1,1,0-16.5ZM42,73.31l-.48.56c-15.39,17.45-31,3.85-31,3.85s-1.43-3,2.88-1.41S29.82,79,35.47,71.57s4.87-15.52,4-17.44c-.77-1.68,1.57-3.56,3.7,1.48h0a22.13,22.13,0,0,1,.92,2.73C45.88,65,44.58,68.9,42,73.31Z" style="fill:#e0ce85"/><path d="M68,59.83,63.22,59C64.64,59.22,66.21,59.48,68,59.83Z" style="fill:#fafdc3"/><path d="M188.34,31.41c-2.78,2.43-7.37,4-9,4.91-1.2.67-.72,1,3.41,1-2.11.49-4.53.95-7.31,1.35h0c-2.55-1.41-6.2-3-13.35-4.29,0,0,9.36-15.78,14.46-19.72s-4.84,7.41-7.23,13.18,3.76-2.69,9.63-8.27,1,1.92-4.42,7.78.19,4.53,6-.77,10-10.48,6.64-5.28S173.4,34,176.67,33.72s8.25-1.54,11.67-4.81S193.86,26.6,188.34,31.41Z" style="fill:#eae3dd"/><path d="M184.58,36.9h0l-1.79.44h0c-4.13,0-4.61-.35-3.41-1,1.6-.91,6.19-2.48,9-4.91,5.52-4.81,3.42-5.77,0-2.5s-8.4,4.53-11.67,4.81,7.11-7.21,10.48-12.4-.87,0-6.64,5.28-11.35,6.64-6,.77S184.84,14,179,19.59s-12,14-9.63,8.27,12.33-17.12,7.23-13.18S162.11,34.4,162.11,34.4c-.87-.16-1.79-.32-2.77-.46.28-.47,11.18-19,17.26-24.93s4.11-.13,6.15,2.17,5.39,1.29,5.39,3.08S193,17.09,193,18.11s4.1,4.62,3.85,7.44C196.64,27.94,198.67,33.21,184.58,36.9Z" style="fill:#f2ece9"/><path d="M228.41,68.39c-2.3,3.85-17.44,16.66-26.67,19.74s-14.88,11.81-16.68,12.31-1.79,4.37-3.85,5-3.84,4.45-4.28,6.79-1.36,4.84-10.84,6.63-26.61-13.42-26.61-13.42c.4-.55.8-1.1,1.21-1.64s.69-.9,1.09-1.35c0,0,13.15,10.77,24.94,11.93s-12.44-3-19.23-10.91,18.33,6.8,23.21,8.6-9-6.29-15-10.39,3.41-.25,13.33,5.25,7.31,2.06-2.05-3.84-13.72-11.58-6.41-6.76,23.22,14.2,16.36,7.53-21.36-17.57-13-13.47,19.41,16.54,14.71,8.85-13.42-13-9.19-11.16,11.41,9.11,12.69,9.5,2.06,0-1.28-4.5-12.44-11.28-6.8-8.08,13.22,12.19,12.06,8.85S173.26,80.7,178.65,83s12.06,10.89,10.64,7.31-10.64-12.7-6.15-10,11,11.16,9.88,7.31S182.88,76,186.86,78.26s9.87,10.13,8.47,6.67-7.3-10.39-3.59-8.34,8.84,9.23,6.92,5-5.64-10.12-2.83-7.43,6.54,10.26,5.91,6.54-4.62-11.16-1.93-9,6,10.26,6.16,6.16-4.75-10.92-1.54-7.77,7.18,8.79,5.64,4.82-5-8.6-1.92-6.54,5.26,8.2,5.13,6,.51-3.71-1.41-6-.52-3.85,2.95,0,6,5,3.84,1.15-5-8.72-1.53-5.77,7.82,6.28,5.38,2.82-5.64-8.21-1-4.74,8.09,6.19,5.13-.18C229.14,63.6,229.63,66.36,228.41,68.39Z" style="fill:#f2ece9"/><path d="M221.49,61.85c-4.62-3.47-1.42,1.27,1,4.74s-1.92.13-5.38-2.82-.64,1.92,1.53,5.77-.38,2.7-3.84-1.15-4.87-2.31-2.95,0,1.28,3.85,1.41,6-2.06-4-5.13-6,.38,2.56,1.92,6.54-2.43-1.67-5.64-4.82,1.67,3.66,1.54,7.77-3.46-4-6.16-6.16,1.29,5.25,1.93,9-3.08-3.85-5.91-6.54.9,3.2,2.83,7.43-3.21-3-6.92-5,2.17,4.88,3.59,8.34-4.5-4.36-8.47-6.67,5,5.52,6.16,9.36-5.39-4.61-9.88-7.31,4.75,6.41,6.15,10-5.25-5-10.64-7.31,6.29,7.56,7.44,10.89-6.42-5.64-12.06-8.85,3.47,3.6,6.8,8.08,2.57,4.88,1.28,4.5-8.46-7.7-12.69-9.5,4.48,3.47,9.19,11.16-6.37-4.74-14.71-8.85,6.16,6.8,13,13.47-9.05-2.7-16.36-7.53-2.95.86,6.41,6.76S179,112.5,169,107s-19.37-9.35-13.33-5.25,19.87,12.18,15,10.39-30-16.55-23.21-8.6,31,12.06,19.23,10.91-24.94-11.93-24.94-11.93C155.34,86.82,208,62.4,214.56,59.6c5.85-.76,9.79.32,12.06,2.07C229.58,68,226.11,65.31,221.49,61.85Z" style="fill:#eae3dd"/><circle cx="25.46" cy="60.56" r="4.04" style="fill:#414142"/><path d="M25.36,52a8.26,8.26,0,1,0,0,16.5,8.26,8.26,0,1,0,0-16.5Zm1.16,15.88a6.5,6.5,0,1,1,0-13,6.5,6.5,0,1,1,0,13Z" style="fill:#bfaf6a"/><path d="M26.52,54.84a6.5,6.5,0,1,0,0,13,6.5,6.5,0,1,0,0-13ZM25.46,64.6a4,4,0,1,1,4-4A4,4,0,0,1,25.46,64.6Z" style="fill:#ffffd5"/><path d="M42,73.31l-.48.56c-15.39,17.45-31,3.85-31,3.85s-1.43-3,2.88-1.41S29.82,79,35.47,71.57s4.87-15.52,4-17.44c-.77-1.68,1.57-3.56,3.7,1.48h0a22.13,22.13,0,0,1,.92,2.73C45.88,65,44.58,68.9,42,73.31Z" style="fill:#d1c079"/><path d="M238.56,49.18s-25.23-2.32-47.09,3.37-89.57,13-119.19,8L68,59.83c-1.76-.35-3.33-.61-4.75-.81h-.06c-11.54-1.57-12.38,1.56-13.58,1.18S49,56.62,49,56.62a26.61,26.61,0,0,0-.3-5.93c37.49,12.48,114.43,3.05,139.5-2,19.67-4,40.41-3.53,49-3.12A5.52,5.52,0,0,0,238.56,49.18Z" style="fill:#414142"/><path d="M172.15,41.85c0,2.28-2.91,3.51-6.7,4.18-6.31,1.1-15.15.6-17.43.74-7.6.48-15.2.87-22.79,1.46A346.78,346.78,0,0,1,82,48.92c-4.87-.24-10.45-.16-15.14-1.72-3.45-1.16,2.43-2.77,3.48-3a113.67,113.67,0,0,1,11.33-1.81c7.58-1,15.32-1.64,22.86-2.22,12.94-1,25.92-1.76,38.9-2,5.13-.11,10.26-.17,15.4,0,3,.12,6.24.13,9.14,1C169.09,39.44,172.17,40.19,172.15,41.85Z" style="fill:#fafdc3"/><path d="M92.54,98c-14.36,5.39-32.06-5.9-32.06-5.9-7.56-3.89-18.09-9.69-23.58.44-3.2,5.93-2.34,14.26.6,20,2.1,4.11,5.59,7.06,9.42,9.53,12.47,8.06,28.81,9.52,43.26,7.44,10.67-1.53,23.8-6.37,24.42-19C115.37,94.91,106.9,92.6,92.54,98Zm2.51,18.16a31,31,0,0,1-9.71,4.34,40.22,40.22,0,0,1-23.13-1c-6.34-2.24-18-8.64-13.36-17.13,3.27-6,10.95-2.23,15.47-.09a39.25,39.25,0,0,0,24.37,2.92c2.82-.6,7.2-.56,9.55,1.36C102.17,109.74,98.06,114.11,95.05,116.15Z" style="fill:#f0e8c5"/><path d="M95.05,116.15a31,31,0,0,1-9.71,4.34,40.22,40.22,0,0,1-23.13-1c-6.34-2.24-18-8.64-13.36-17.13,3.27-6,10.95-2.23,15.47-.09a39.25,39.25,0,0,0,24.37,2.92c2.82-.6,7.2-.56,9.55,1.36C102.17,109.74,98.06,114.11,95.05,116.15Z" style="fill:#f4eed3"/><path d="M100.6,3.08C96.39,6.64,85.35,16.3,80,24c-6.73,9.62-8.23,13.46-12,17.7s4.45-1.35,8.61-8.08,5.32-7.31,4.93-5.77-12.5,15.77-8.46,14,4.61-6,8.46-10.71.13,1.15-1.54,4.75S75,42.7,77.19,43.16c-8.61,8.23-21.6,17.91-23.9,16.26-1.87-1.34-1.24-3.14-.23-4.74.42-.67.9-1.29,1.3-1.83,2.12-2.86,4.18-5.76,6.22-8.67C64.5,38.6,68.34,33,72.36,27.49c5.33-7.25,10.7-15,17.39-21.12C98.3-1.38,102.56-1.53,100.6,3.08Z" style="fill:#f2ece9"/><path d="M100.6,3.08A22.65,22.65,0,0,1,97.49,8C90.38,17,86.9,27.84,84.8,34c-.65,1.93-3.67,5.4-7.61,9.17C75,42.7,78.3,39.51,80,35.92s5.39-9.49,1.54-4.75-4.42,9-8.46,10.71,8.08-12.51,8.46-14-.77-1-4.93,5.77S64.2,45.92,68,41.69,73.24,33.61,80,24C85.35,16.3,96.39,6.64,100.6,3.08Z" style="fill:#eae3dd"/><path d="M66.31,63.65a1.55,1.55,0,1,1-1.54-1.41A1.48,1.48,0,0,1,66.31,63.65Z" style="fill:#414142"/><path d="M73.82,66.31a1,1,0,1,1-1-1.25A1.15,1.15,0,0,1,73.82,66.31Z" style="fill:#414142"/><ellipse cx="82.37" cy="67.2" rx="1.43" ry="1.25" style="fill:#414142"/><path d="M90.55,66.37a1.09,1.09,0,1,1-1.06-.83A1,1,0,0,1,90.55,66.37Z" style="fill:#414142"/><path d="M99.85,66.89a1,1,0,1,1-1-.94A1,1,0,0,1,99.85,66.89Z" style="fill:#414142"/><path d="M109.79,66.44a1.35,1.35,0,1,1-1.35-1.38A1.37,1.37,0,0,1,109.79,66.44Z" style="fill:#414142"/><path d="M119.5,65.9c0,.72-.94,1.3-2.11,1.3s-2.12-.58-2.12-1.3,1-1.3,2.12-1.3S119.5,65.18,119.5,65.9Z" style="fill:#414142"/><path d="M126.53,64.77a1.16,1.16,0,1,1-1.16-1.12A1.14,1.14,0,0,1,126.53,64.77Z" style="fill:#414142"/><path d="M135.76,64.77a1.09,1.09,0,1,1-1.09-1.12A1.11,1.11,0,0,1,135.76,64.77Z" style="fill:#414142"/><ellipse cx="144" cy="63.42" rx="1.32" ry="1.18" style="fill:#414142"/><path d="M154.36,62a1.78,1.78,0,1,1-1.74-1.39A1.59,1.59,0,0,1,154.36,62Z" style="fill:#414142"/><path d="M163.72,60.73c0,.72-.81,1.3-1.8,1.3s-1.79-.58-1.79-1.3.8-1.3,1.79-1.3S163.72,60,163.72,60.73Z" style="fill:#414142"/><ellipse cx="178.14" cy="57.69" rx="1.22" ry="0.8" style="fill:#414142"/><ellipse cx="186.87" cy="56.09" rx="0.96" ry="0.8" style="fill:#414142"/><ellipse cx="169.75" cy="59.83" rx="0.9" ry="0.81" style="fill:#414142"/><path d="M195.78,54.53a.92.92,0,1,1-.9-.74A.83.83,0,0,1,195.78,54.53Z" style="fill:#414142"/><ellipse cx="202.45" cy="52.87" rx="1.28" ry="0.92" style="fill:#414142"/><ellipse cx="211.23" cy="51.67" rx="1.09" ry="0.88" style="fill:#414142"/><path d="M220.92,51.37c0,.32-.52.58-1.16.58s-1.15-.26-1.15-.58.52-.58,1.15-.58S220.92,51.05,220.92,51.37Z" style="fill:#414142"/><path d="M229.05,50.72c0,.52-.3,1-.67,1s-.66-.43-.66-1,.3-.95.66-.95S229.05,50.19,229.05,50.72Z" style="fill:#414142"/><path d="M238.56,52.12c0,.41-.59.75-1.32.75s-1.32-.34-1.32-.75.59-.75,1.32-.75S238.56,51.7,238.56,52.12Z" style="fill:#414142"/><path d="M235.92,38.88a.75.75,0,1,1-.73-.88A.82.82,0,0,1,235.92,38.88Z" style="fill:#414142"/><path d="M231.43,43c0,.67-.37,1.22-.83,1.22s-.83-.55-.83-1.22.37-1.23.83-1.23S231.43,42.36,231.43,43Z" style="fill:#414142"/><ellipse cx="221.49" cy="43.71" rx="0.58" ry="0.55" style="fill:#414142"/><path d="M209.25,44.52a.83.83,0,0,1-.84.81.81.81,0,1,1,0-1.62A.83.83,0,0,1,209.25,44.52Z" style="fill:#414142"/><path d="M197.7,44.52c0,.45-.63.81-1.41.81s-1.41-.36-1.41-.81.63-.81,1.41-.81S197.7,44.07,197.7,44.52Z" style="fill:#414142"/><path d="M185.91,45.35a.83.83,0,1,1-1.65,0,.83.83,0,1,1,1.65,0Z" style="fill:#414142"/><path d="M175.39,48.44a.9.9,0,1,1-.9-.85A.88.88,0,0,1,175.39,48.44Z" style="fill:#414142"/><ellipse cx="163.53" cy="49.58" rx="0.83" ry="1.14" style="fill:#414142"/><path d="M153.59,51.83c0,.57-.72,1-1.61,1s-1.6-.47-1.6-1,.72-1,1.6-1S153.59,51.26,153.59,51.83Z" style="fill:#414142"/><path d="M142.69,52.58c0,.66-.41,1.21-.9,1.21s-.9-.55-.9-1.21.4-1.21.9-1.21S142.69,51.91,142.69,52.58Z" style="fill:#414142"/><path d="M72.81,53.07c0,.39-.49.72-1.1.72s-1.1-.33-1.1-.72.49-.72,1.1-.72S72.81,52.67,72.81,53.07Z" style="fill:#414142"/><path d="M83.8,53.81a1.74,1.74,0,1,1-1.72-1.46A1.61,1.61,0,0,1,83.8,53.81Z" style="fill:#414142"/><path d="M90.55,54.34a1.07,1.07,0,1,1-1.06-1.27A1.18,1.18,0,0,1,90.55,54.34Z" style="fill:#414142"/><path d="M101.07,54.58a1.66,1.66,0,1,1-1.65-1.51A1.59,1.59,0,0,1,101.07,54.58Z" style="fill:#414142"/><ellipse cx="107.64" cy="54.34" rx="2.15" ry="1.27" style="fill:#414142"/><path d="M117.93,53.15c0,.66-.73,1.19-1.64,1.19s-1.64-.53-1.64-1.19.73-1.2,1.64-1.2S117.93,52.49,117.93,53.15Z" style="fill:#414142"/><path d="M126.53,52.73c0,.58-.78,1.06-1.74,1.06s-1.73-.48-1.73-1.06.78-1.06,1.73-1.06S126.53,52.14,126.53,52.73Z" style="fill:#414142"/><path d="M135.76,52.73a1.09,1.09,0,1,1-1.09-1.06A1.08,1.08,0,0,1,135.76,52.73Z" style="fill:#414142"/><path d="M133.06,46.93c0,.41-.71.75-1.6.75s-1.6-.34-1.6-.75.72-.75,1.6-.75S133.06,46.51,133.06,46.93Z" style="fill:#414142"/><path d="M142.69,46.47a.92.92,0,1,1-1.8,0,.92.92,0,1,1,1.8,0Z" style="fill:#414142"/><path d="M161.15,44.91a1.28,1.28,0,1,1-1.28-1.26A1.27,1.27,0,0,1,161.15,44.91Z" style="fill:#414142"/><path d="M178.11,43.05c0,.33-.61.6-1.36.6s-1.36-.27-1.36-.6.61-.59,1.36-.59S178.11,42.72,178.11,43.05Z" style="fill:#414142"/><path d="M137.68,39.7a1.52,1.52,0,1,1-1.5-1.34A1.43,1.43,0,0,1,137.68,39.7Z" style="fill:#414142"/><ellipse cx="127.94" cy="42.21" rx="1.41" ry="1.16" style="fill:#414142"/><path d="M149.74,38.88c0,.49-.57.88-1.28.88s-1.29-.39-1.29-.88.58-.88,1.29-.88S149.74,38.39,149.74,38.88Z" style="fill:#414142"/><ellipse cx="152.5" cy="44.94" rx="1.09" ry="1.23" style="fill:#414142"/><path d="M166.41,39.76c0,.43-.6.77-1.35.77s-1.34-.34-1.34-.77.6-.77,1.34-.77S166.41,39.33,166.41,39.76Z" style="fill:#414142"/><path d="M157.69,36.74a1.23,1.23,0,1,1-1.22-1.34A1.28,1.28,0,0,1,157.69,36.74Z" style="fill:#414142"/><path d="M131.46,36.37c0,.54-.87,1-2,1s-2-.43-2-1,.88-1,2-1S131.46,35.84,131.46,36.37Z" style="fill:#414142"/><path d="M145.32,35.12c0,.69-.37,1.25-.84,1.25s-.84-.56-.84-1.25.38-1.26.84-1.26S145.32,34.43,145.32,35.12Z" style="fill:#414142"/><ellipse cx="117.62" cy="49.1" rx="1.33" ry="0.66" style="fill:#414142"/><path d="M115.27,43.78c0,.41-.46.74-1,.74s-1-.33-1-.74.47-.74,1-.74S115.27,43.37,115.27,43.78Z" style="fill:#414142"/><path d="M123.7,38.22a1.41,1.41,0,1,1-1.41-1.48A1.44,1.44,0,0,1,123.7,38.22Z" style="fill:#414142"/><path d="M103.19,40.4a1.3,1.3,0,1,1-1.3-1.41A1.36,1.36,0,0,1,103.19,40.4Z" style="fill:#414142"/><ellipse cx="104.79" cy="48.35" rx="1.6" ry="1.42" style="fill:#414142"/><ellipse cx="94.66" cy="50.19" rx="0.83" ry="0.61" style="fill:#414142"/><path d="M80.36,49.47c0,.39-.61.72-1.35.72s-1.35-.33-1.35-.72.61-.72,1.35-.72S80.36,49.07,80.36,49.47Z" style="fill:#414142"/><path d="M87.15,45.12a1.72,1.72,0,1,1-1.67-1.34A1.54,1.54,0,0,1,87.15,45.12Z" style="fill:#414142"/><path d="M97.77,43.68a1.6,1.6,0,1,1-1.56-1.22A1.43,1.43,0,0,1,97.77,43.68Z" style="fill:#414142"/><path d="M89.49,39.61a1.2,1.2,0,1,1-1.17-.92A1.06,1.06,0,0,1,89.49,39.61Z" style="fill:#414142"/><path d="M110.31,38.17a.94.94,0,1,1-.94-.83A.89.89,0,0,1,110.31,38.17Z" style="fill:#414142"/><path d="M121.52,44.16c0,.43-.25.78-.57.78s-.58-.35-.58-.78.26-.79.58-.79S121.52,43.72,121.52,44.16Z" style="fill:#414142"/><path d="M116.29,36.37a1,1,0,1,1-1-1A1,1,0,0,1,116.29,36.37Z" style="fill:#414142"/><path d="M51.5,49.06c0,.39-.62.71-1.39.71s-1.39-.32-1.39-.71.62-.71,1.39-.71S51.5,48.66,51.5,49.06Z" style="fill:#414142"/><path d="M58.11,46.4c0,.71-.76,1.28-1.7,1.28s-1.7-.57-1.7-1.28.76-1.28,1.7-1.28S58.11,45.7,58.11,46.4Z" style="fill:#414142"/><path d="M58.11,65.6a1.72,1.72,0,1,1-1.7-1.95A1.84,1.84,0,0,1,58.11,65.6Z" style="fill:#414142"/><ellipse cx="43.78" cy="49.57" rx="1.13" ry="1.22" style="fill:#414142"/><path d="M36.5,49.57c0,.67-.37,1.22-.82,1.22s-.81-.55-.81-1.22.36-1.22.81-1.22S36.5,48.89,36.5,49.57Z" style="fill:#414142"/><path d="M48.72,64.1c0,.37-.4.67-.89.67s-.89-.3-.89-.67a.92.92,0,0,1,1.78,0Z" style="fill:#414142"/><path d="M26.82,61.89a2.49,2.49,0,1,1,2.49,2.49A2.49,2.49,0,0,1,26.82,61.89Z" style="fill:#ffffd5"/><ellipse cx="64.7" cy="69.62" rx="0.89" ry="1.17" style="fill:#414142"/><path d="M79,72.53A1.52,1.52,0,1,1,77.5,70.8,1.62,1.62,0,0,1,79,72.53Z" style="fill:#414142"/><path d="M90.55,72.53c0,.46-.5.83-1.11.83s-1.12-.37-1.12-.83.5-.83,1.12-.83S90.55,72.07,90.55,72.53Z" style="fill:#414142"/><ellipse cx="96.99" cy="72.53" rx="0.78" ry="0.83" style="fill:#414142"/><path d="M89.44,78.88c0,.64-.89,1.15-2,1.15s-2-.51-2-1.15.89-1.16,2-1.16S89.44,78.24,89.44,78.88Z" style="fill:#414142"/><path d="M97,78.17A1.4,1.4,0,1,1,95.6,77,1.31,1.31,0,0,1,97,78.17Z" style="fill:#414142"/><path d="M108.44,73c0,.71-.81,1.28-1.82,1.28s-1.83-.57-1.83-1.28.82-1.28,1.83-1.28S108.44,72.27,108.44,73Z" style="fill:#414142"/><path d="M114.23,77.92a1.18,1.18,0,1,1-1.16-1A1.07,1.07,0,0,1,114.23,77.92Z" style="fill:#414142"/><path d="M122.06,73.4c0,.47-.57.86-1.28.86s-1.28-.39-1.28-.86.58-.87,1.28-.87S122.06,72.92,122.06,73.4Z" style="fill:#414142"/><path d="M132.3,69.18c0,.89-.55,1.62-1.22,1.62s-1.22-.73-1.22-1.62.55-1.62,1.22-1.62S132.3,68.28,132.3,69.18Z" style="fill:#414142"/><path d="M140.89,72.55a.72.72,0,1,1-.71-.85A.79.79,0,0,1,140.89,72.55Z" style="fill:#414142"/><path d="M151.41,69.62a1.51,1.51,0,1,1-1.48-1.17A1.36,1.36,0,0,1,151.41,69.62Z" style="fill:#414142"/><path d="M161.15,67.67c0,.43-.57.78-1.28.78s-1.28-.35-1.28-.78.57-.78,1.28-.78S161.15,67.24,161.15,67.67Z" style="fill:#414142"/><ellipse cx="167.31" cy="64.19" rx="0.9" ry="1.35" style="fill:#414142"/><path d="M176.16,61c0,.67-.37,1.21-.84,1.21s-.83-.54-.83-1.21.37-1.2.83-1.2S176.16,60.37,176.16,61Z" style="fill:#414142"/><path d="M185.91,61.74c0,.61-.37,1.11-.83,1.11s-.82-.5-.82-1.11.37-1.1.82-1.1S185.91,61.13,185.91,61.74Z" style="fill:#414142"/><path d="M194.88,60.55c0,.66-.7,1.19-1.57,1.19s-1.57-.53-1.57-1.19a1.63,1.63,0,0,1,3.14,0Z" style="fill:#414142"/><path d="M201.17,57c0,.38-.58.69-1.29.69s-1.28-.31-1.28-.69.58-.69,1.28-.69S201.17,56.62,201.17,57Z" style="fill:#414142"/><ellipse cx="209.53" cy="55.73" rx="1.12" ry="1.15" style="fill:#414142"/><path d="M218,54.38a1.19,1.19,0,1,1-1.16-.89A1.05,1.05,0,0,1,218,54.38Z" style="fill:#414142"/><path d="M226.17,53.56a.85.85,0,1,1-1.66,0,.85.85,0,1,1,1.66,0Z" style="fill:#414142"/><path d="M236.82,56.54c0,.25-.37.46-.82.46s-.81-.21-.81-.46.36-.45.81-.45S236.82,56.29,236.82,56.54Z" style="fill:#414142"/><path d="M108.44,87.6a2.66,2.66,0,1,1-2.63-2.25A2.46,2.46,0,0,1,108.44,87.6Z" style="fill:#414142"/><path d="M59.77,77.56a1.69,1.69,0,1,1-1.68-1.82A1.76,1.76,0,0,1,59.77,77.56Z" style="fill:#414142"/><ellipse cx="58.93" cy="84.39" rx="0.84" ry="0.96" style="fill:#414142"/><path d="M74.76,80.39c0,.83-.44,1.5-1,1.5s-1-.67-1-1.5.43-1.51,1-1.51S74.76,79.55,74.76,80.39Z" style="fill:#414142"/><ellipse cx="70.91" cy="88.36" rx="1.9" ry="1.49" style="fill:#414142"/><path d="M82.37,87.65a1.44,1.44,0,1,1,1.43,1.44A1.43,1.43,0,0,1,82.37,87.65Z" style="fill:#414142"/><path d="M92.83,86.22a1.83,1.83,0,1,1,1.83,1.83A1.83,1.83,0,0,1,92.83,86.22Z" style="fill:#414142"/><path d="M117.93,84.06a1.33,1.33,0,1,1-1.33-1.29A1.3,1.3,0,0,1,117.93,84.06Z" style="fill:#414142"/><path d="M131.46,79.9c0,1.1-.61,2-1.36,2s-1.37-.89-1.37-2,.61-2,1.37-2S131.46,78.81,131.46,79.9Z" style="fill:#414142"/><path d="M89.49,94.11c0,.69-.89,1.25-2,1.25s-2-.56-2-1.25.9-1.25,2-1.25S89.49,93.42,89.49,94.11Z" style="fill:#414142"/><path d="M54.71,95.69a1.61,1.61,0,1,1-1.61-1.58A1.6,1.6,0,0,1,54.71,95.69Z" style="fill:#414142"/><path d="M47.83,87.22a2,2,0,1,1-2-1.87A2,2,0,0,1,47.83,87.22Z" style="fill:#414142"/><ellipse cx="118.05" cy="106.23" rx="1.45" ry="1.25" style="fill:#414142"/><path d="M80.93,101.9c0,.85-.43,1.54-1,1.54s-1-.69-1-1.54.43-1.54,1-1.54S80.93,101.05,80.93,101.9Z" style="fill:#414142"/><path d="M104,101.27c0,1.2-.66,2.17-1.47,2.17s-1.48-1-1.48-2.17.66-2.17,1.48-2.17S104,100.07,104,101.27Z" style="fill:#414142"/><path d="M65.59,108.94c0,.81-1,1.47-2.23,1.47s-2.24-.66-2.24-1.47,1-1.46,2.24-1.46S65.59,108.13,65.59,108.94Z" style="fill:#414142"/><path d="M69,100.18a1.38,1.38,0,1,1-1.35-1.08A1.25,1.25,0,0,1,69,100.18Z" style="fill:#414142"/><path d="M108.44,115.76a1.52,1.52,0,1,1-1.47-1.14A1.34,1.34,0,0,1,108.44,115.76Z" style="fill:#414142"/><path d="M130.1,103.44a1.3,1.3,0,1,1-1.28-1.54A1.43,1.43,0,0,1,130.1,103.44Z" style="fill:#414142"/><path d="M128.82,90.3c0,.67-.77,1.21-1.72,1.21s-1.73-.54-1.73-1.21.77-1.21,1.73-1.21S128.82,89.63,128.82,90.3Z" style="fill:#414142"/><ellipse cx="118.88" cy="94.28" rx="1.49" ry="1.42" style="fill:#414142"/><path d="M95.49,118.64a1.38,1.38,0,1,1-1.33-1.74A1.58,1.58,0,0,1,95.49,118.64Z" style="fill:#414142"/><path d="M30.92,100.5c0,.77-.36,1.4-.81,1.4s-.8-.63-.8-1.4.36-1.4.8-1.4S30.92,99.72,30.92,100.5Z" style="fill:#414142"/><path d="M36.9,91.19c0,.74-1.14,1.34-2.55,1.34s-2.56-.6-2.56-1.34,1.15-1.34,2.56-1.34S36.9,90.45,36.9,91.19Z" style="fill:#414142"/><path d="M46.94,104.83c0,.77-.91,1.4-2,1.4s-2-.63-2-1.4.91-1.39,2-1.39S46.94,104.06,46.94,104.83Z" style="fill:#414142"/><ellipse cx="56.82" cy="104.83" rx="2.11" ry="1.39" style="fill:#414142"/><path d="M76,122.1c0,1-1.14,1.73-2.55,1.73s-2.54-.78-2.54-1.73,1.14-1.73,2.54-1.73S76,121.14,76,122.1Z" style="fill:#414142"/><path d="M91.13,110.2a1.35,1.35,0,1,1-1.35-1.26A1.3,1.3,0,0,1,91.13,110.2Z" style="fill:#414142"/><path d="M142.69,89.33a.9.9,0,1,1-.9-1A.94.94,0,0,1,142.69,89.33Z" style="fill:#414142"/><path d="M150.38,78.17a1,1,0,1,1-1-1.22A1.11,1.11,0,0,1,150.38,78.17Z" style="fill:#414142"/><path d="M163.72,74.33c0,.53-.73,1-1.63,1s-1.63-.43-1.63-1,.73-1,1.63-1S163.72,73.79,163.72,74.33Z" style="fill:#414142"/><path d="M179.36,67a1.31,1.31,0,1,1-1.3-1.45A1.38,1.38,0,0,1,179.36,67Z" style="fill:#414142"/><ellipse cx="171.28" cy="70.07" rx="1.54" ry="1.62" style="fill:#414142"/></g></g></svg>