<svg xmlns="http://www.w3.org/2000/svg" viewBox="0 0 307.16 176.23"><title>jewel-fish</title><g id="Layer_2" data-name="Layer 2"><g id="Ñëîé_2" data-name="Ñëîé 2"><path d="M281.05,107.75a43,43,0,0,1-16-2.58,69.37,69.37,0,0,1,12,.39,6.2,6.2,0,0,0,4.15-.64c.9-.43,1.49-.71,3.63.19,3.39,1.42,4.52-.76,5.2-2.07s.87-1.51,1.77-1.29a2.34,2.34,0,0,0,2.26-.37c.88-.82.65-2.12.41-3.5-.16-.93-.39-2.19,0-2.64a.88.88,0,0,1,.68-.28c3.24-.36,3-2.95,2.84-4.34-.19-1.74-.11-2.1,1.12-2.31A3,3,0,0,0,301.15,87c1-1.55.38-3.85-.21-6.07-.25-.92-.91-3.36-.48-3.54a2.24,2.24,0,0,0,1.36-1.31c.38-1.06-.21-2.13-.77-3.17-.39-.71-.88-1.61-.74-2.07.07-.25.4-.45.64-.58a2.85,2.85,0,0,0,1.6-1.81c.36-1.45-.6-2.86-1.54-4.22-.42-.62-1.21-1.79-1.13-2.12a1.16,1.16,0,0,1,.2-.14c2.66-1.44,1.12-4.63,0-7-.39-.8-1.43-2.93-1.14-3.26a1.88,1.88,0,0,0,.52-1.51c-.11-1-1-1.61-1.85-2.22s-1.54-1.1-1.63-1.69a2.11,2.11,0,0,1,.56-1.34,2.9,2.9,0,0,0,.66-2.31c-.3-2-2.57-3.57-5-5.22-1.42-1-3.55-2.46-3.61-3.23,0-.12.13-.27.25-.38a1.79,1.79,0,0,0,.45-2.46c-2.12-2.95-20.81-1.2-27.78,2.61a12.51,12.51,0,0,1-8.29,1.66C271.05,23,307.11,7.7,307.11,72.19,307.11,72.19,309.54,107.51,281.05,107.75Z" style="fill:#c21f1f"/><path d="M300.42,67.9c0,.16-.31.32-.46.4a3.21,3.21,0,0,0-1.74,1.88c-.42,1.34.32,2.69.91,3.78a6.08,6.08,0,0,1,.61,1.34l-.11,0c-2.21.9-1.47,3.68-.81,6.14.4,1.51,1,3.58.48,4.31,0,.08-.16.27-.66.35-3.35.58-3.08,3.26-2.94,4.7.18,1.74.07,1.82-.89,1.93a3,3,0,0,0-2.2,1.14c-.9,1.21-.62,2.87-.36,4.33a11.48,11.48,0,0,1,.19,1.41l-.16,0c-2.68-.67-3.67,1.25-4.26,2.4-.68,1.31-.88,1.7-2.41,1.06-2.81-1.18-4.07-.79-5.42-.14a4.07,4.07,0,0,1-2.88.44,79,79,0,0,0-16.4,0h0c-1.52-.79-2.89-1.62-4.2-2.43.38-1.35.73-2.67,1.05-4,4.58.67,13.93,4.64,15.29,4.4,1.55-.28-16.17-8.39-6.85-6.93s7.48.91-.55-5.15,21.55,3.14,22.28,1-15.34-4-20.82-8,11.32-1.08,19-3.09S275,77.8,268.39,74.61s14.06-5,20.87-5.58,3.05-2.92-3.34-2.92-19.18-4.93-10.51-6.21S281.54,57,270,56.43s3.11-6.39,14.06-9.73,2.56-4.15-7.32-.68-21,.91-12.58-1.72,17-9.42,10-6.68C269,39.7,256.63,43.87,251,45.75a35.07,35.07,0,0,0-4.44-4.84c1.19-1.07,2.67-2.31,4.39-3.61,2.49.89,6.5,1.37,11.59-1.4,6.46-3.52,21.37-4.56,24.54-3.43a2.56,2.56,0,0,0-.7,1.9c.14,1.82,2.18,3.23,4.56,4.87,1.72,1.2,3.87,2.69,4,3.75a.79.79,0,0,1-.22.63,4,4,0,0,0-1,3c.22,1.52,1.5,2.43,2.53,3.16a7.35,7.35,0,0,1,.84.63c-1.06,1.43-.06,3.51.92,5.53s1.71,3.67,1,4.08a2.41,2.41,0,0,0-1.29,1.55c-.31,1.29.59,2.61,1.46,3.87C299.74,66.23,300.55,67.41,300.42,67.9Z" style="fill:#b71d1d"/><path d="M289.26,69c-6.81.55-27.45,2.4-20.87,5.58s25.38,2.47,17.71,4.47-24.47-1-19,3.09,21.55,5.86,20.82,8-30.32-7-22.28-1,9.86,6.61.55,5.15,8.4,6.65,6.85,6.93c-1.36.24-10.71-3.73-15.29-4.4,0-.15.08-.3.11-.44.08-.33.17-.67.24-1,.22-1,.43-1.9.61-2.82L259,91.5c.05-.27.11-.54.15-.82.09-.46.16-.91.23-1.35s.14-.84.2-1.25l.12-.76c.16-1.17.3-2.33.41-3.46,0-.12,0-.23,0-.35,0-.3.06-.6.08-.9.06-.6.1-1.2.13-1.78,0-.31,0-.62.05-.93s0-.65.05-1l0-1.18c0-.44,0-.88,0-1.32,0-13.91-4.22-23.38-8.45-29.38-.32-.45-.64-.88-1-1.3,5.59-1.88,17.91-6,23.19-8.13,6.94-2.74-1.64,4.05-10,6.68s2.71,5.19,12.58,1.72,18.28-2.66,7.32.68S258.52,55.88,270,56.43s14,2.19,5.38,3.47,4.12,6.21,10.51,6.21S296.07,68.48,289.26,69Z" style="fill:#a31f1f"/><path d="M252,47.05s-.92,20-25,21.74-36.77-25.46-95.7-21.74S53.85,60,41.43,73.17c-9.19,9.73-22.95,6.26-32.82-1.82-1.33,1.2-2.66,2.4-3.79,3.52a11.32,11.32,0,0,1,8.52,3.61c5.29,5.25,5.29,10,6.3,13.65s24.47,20.61,39.45,17c14.15-3.45,17.37-26.52,24.46-24.59a7.25,7.25,0,0,1,3.66-2.32,35.79,35.79,0,0,1,4.14,0c6.68.33,11.52,2.46,14.51,4.7,3.29,2.46,4.31,5.07,3,5.54-2.68,1,10,6.33,7,9s3.92,7.09,0,8.35c7.47,3.71,15.76,5.56,24.43,3.12C165.75,105.74,160.45,90,171.59,92c15.76,2.85,32.9,2.87,48.81,1.64,14.95-1.15,33.87-8.88,32.87-26.79,0-.44-.36-1.37-.05-1.8,1.66-2.22,2.75,3.47,2.81,4.39.68,9.09-4.41,18.5-9.53,26.21,3.7,1,6.7,3,10.21,5.23.38-1.35.73-2.67,1.05-4,0-.15.08-.3.11-.44.08-.33.17-.67.24-1,.22-1,.43-1.9.61-2.82L259,91.5c.05-.27.11-.54.15-.82.09-.46.16-.91.23-1.35s.14-.84.2-1.25l.12-.76c.16-1.17.3-2.33.41-3.46,0-.12,0-.23,0-.35,0-.3.06-.6.08-.9.06-.6.1-1.2.13-1.78,0-.31,0-.62.05-.93s0-.65.05-1l0-1.18c0-.44,0-.88,0-1.32C260.46,62.52,256.24,53.05,252,47.05ZM74.61,76.37C71,76.37,68,72.68,68,68.13S71,59.9,74.61,59.9s6.58,3.69,6.58,8.23S78.24,76.37,74.61,76.37Z" style="fill:#c21f1f"/><path d="M233.87,55.33C219.08,57.71,186.75,42.18,179.81,40s-27.58-9.19-63.38-6.27-57,6.09-73.05,13.64a30.65,30.65,0,0,1-16.71,2.7c.51-.54,1-1.05,1.49-1.48C31.35,45.64,42.25,35,70,28.85c12.47-2.76,28.32-4.61,48.39-4.44,58.68.5,82.18,15.53,94.05,20.53h0a26.67,26.67,0,0,0,3.35,1.2,154.67,154.67,0,0,0,15.58,3.66s6.58,1,12.67-6.34l.11-.14C244.86,46.79,244.76,53.59,233.87,55.33Z" style="fill:#e22727"/><path d="M251.05,45.75a35.71,35.71,0,0,0-4.44-4.84,28.37,28.37,0,0,0-2.45,2.41c.71,3.47.6,10.27-10.29,12C219.08,57.71,186.75,42.18,179.81,40s-27.58-9.19-63.37-6.27-57,6.09-73.06,13.64a30.64,30.64,0,0,1-16.71,2.7c-4.47,4.71-10,12.8-11.78,15.19a54.65,54.65,0,0,1-6.27,6.1c9.87,8.08,23.62,11.55,32.81,1.82C53.85,60,72.36,50.77,131.29,47.05S202.88,70.49,227,68.79s25-21.74,25-21.74C251.69,46.6,251.37,46.16,251.05,45.75ZM31.69,77.31A8.28,8.28,0,1,1,40,69,8.28,8.28,0,0,1,31.69,77.31Z" style="fill:#d31c1c"/><path d="M246.5,95.69c-3.84-1-8.44-.78-15.13,1.83-3.48,1.35-7.44,2.89-11.77,4.52-12.89,4.87-29,10.6-45,15.07-14.27,4-28.49,7-40.37,7.44-6.67.27-15.52.41-25.57.08-5.46-.17-11.28-.49-17.29-1-32.23-2.75-70.11-11-89.37-33.16A10.84,10.84,0,0,1,.15,87a30.79,30.79,0,0,0,11.58,3.37c6,.61,6.45-4.87,0-10.47-4-3.42-6.81-3.71-8.43-3.42.45-.49,1-1,1.52-1.58a11.32,11.32,0,0,1,8.52,3.61c5.29,5.25,5.29,10,6.3,13.65s24.47,20.61,39.45,17c14.15-3.45,17.37-26.52,24.46-24.59-1.64,2-2.63,5.54.25,11.8,5.6,12.18,20,22.9,27.28,24.11s1.94-4.38,4.13-4.13-3.18-5.26.71-6.54h0c7.47,3.71,15.76,5.56,24.43,3.12C165.75,105.74,160.45,90,171.59,92c15.76,2.85,32.9,2.87,48.81,1.64,14.95-1.15,33.87-8.88,32.87-26.79,0-.44-.36-1.37-.05-1.8,1.66-2.22,2.75,3.47,2.81,4.39C256.71,78.57,251.62,88,246.5,95.69Z" style="fill:#a31f1f"/><path d="M11.73,90.34A30.79,30.79,0,0,1,.15,87a3.34,3.34,0,0,1-.06-1.74c.61-2.14,3.56-2.14,3.56-2.14,5,4.26,12.24,5.94,7.53,1.59a18.4,18.4,0,0,0-9.27-4.57A4.09,4.09,0,0,1,3,76.79l.28-.33h0c1.62-.29,4.47,0,8.43,3.42C18.18,85.47,17.69,91,11.73,90.34Z" style="fill:#e55550"/><path d="M3.65,83.09a5.13,5.13,0,0,1-1.74-3,18.4,18.4,0,0,1,9.27,4.57C15.89,89,8.62,87.35,3.65,83.09Z" style="fill:#c21f1f"/><path d="M244.35,6.21A4.9,4.9,0,0,0,243,4.77c-1.67-1.18-3.91-1.2-6.67-.06-8.61,3.54-23,5.75-24.81,4.68-2-2.62-3.63-2.44-9.68-.58-2.54.78-4.9-.22-7.64-1.37-3.36-1.41-7.16-3-11.9-1.29a9.75,9.75,0,0,1-7.08.28c-2.29-.61-4.88-1.32-10.24.81-4.24,1.7-6,.64-8.09-.59s-4.7-2.78-9.73-.47c-3.9,1.79-5.54,1.37-7.45.89-2.39-.62-5.1-1.31-11.59,1.54-6,2.61-8.38,2.23-10.34,1.93s-3.64-.58-7,1.55c-3,1.88-5.61,2-8.39,2.06-3,.09-6.09.19-9.45,2.61-2.64,1.91-3.73,1.62-5,1.29-1.8-.49-3.41-.67-6.27,1.68a10.12,10.12,0,0,1-5.25,2c1-1,1.92-1.91,2.78-2.66,3.65-3.17,7.79-.73,10.46-3.65s5.12.73,9.5-3.17,5.61,1.22,11.45-3.65,3.89,0,18-4.87,12.23,1.7,20.52-1.22,13.88,2,20.2-.49,6.58,3.66,15.1,1,9.26,4.38,17.54,1.46,14.37-4.63,13.64-1.22S223.33,2.79,236,.36C244.7-1.31,245,3.22,244.35,6.21Z" style="fill:#c21f1f"/><path d="M243.27,9.32c-9.37,22.83-23.65,32.19-30.83,35.62h0c-11.87-5-35.37-20-94.05-20.53C98.31,24.24,82.46,26.09,70,28.85c0,0,1.9-2.26,4.2-4.76h.14A13.57,13.57,0,0,0,83,21.42c2.22-1.82,3.11-1.58,4.32-1.26,1.49.4,3.34.9,6.83-1.62,2.82-2,5.46-2.12,8.24-2.2s6-.19,9.48-2.39c2.7-1.7,3.83-1.52,5.53-1.25,2.24.35,5,.79,11.56-2.08,5.8-2.55,8-2,10.16-1.43s4.31,1.1,8.91-1c4-1.84,5.63-.87,7.7.36,2.24,1.32,4.78,2.83,10,.74,4.67-1.86,6.7-1.31,8.85-.73a11.9,11.9,0,0,0,8.4-.34c3.94-1.43,7-.13,10.3,1.25,2.87,1.21,5.84,2.46,9.13,1.44,6-1.85,6.29-1.52,7.33-.14,2.31,3.07,20.8-1.33,27.35-4,2-.83,3.56-.89,4.58-.17A4.46,4.46,0,0,1,243.27,9.32Z" style="fill:#c21f1f"/><path d="M244.35,6.21a12.4,12.4,0,0,1-.8,2.43c-.1.22-.18.46-.28.68a4.46,4.46,0,0,0-1.54-2.76c-1-.72-2.56-.66-4.58.17-6.55,2.7-25,7.1-27.35,4-1-1.38-1.29-1.71-7.33.14-3.29,1-6.26-.23-9.13-1.44C190.07,8.08,187,6.78,183,8.21a11.9,11.9,0,0,1-8.4.34c-2.15-.58-4.18-1.13-8.85.73-5.25,2.09-7.79.58-10-.74-2.07-1.23-3.7-2.2-7.7-.36-4.6,2.11-6.79,1.55-8.91,1S134.79,8.07,129,10.62c-6.54,2.87-9.32,2.43-11.56,2.08-1.7-.27-2.83-.45-5.53,1.25-3.48,2.2-6.67,2.3-9.48,2.39s-5.42.17-8.24,2.2c-3.49,2.52-5.34,2-6.83,1.62-1.21-.32-2.1-.56-4.32,1.26a13.57,13.57,0,0,1-8.7,2.67h-.14c.72-.77,1.46-1.56,2.21-2.32a10.12,10.12,0,0,0,5.25-2c2.86-2.35,4.47-2.17,6.27-1.68,1.25.33,2.34.62,5-1.29,3.36-2.42,6.46-2.52,9.45-2.61,2.78-.09,5.41-.18,8.39-2.06,3.39-2.13,5.16-1.85,7-1.55s4.39.68,10.34-1.93c6.49-2.85,9.2-2.16,11.59-1.54,1.91.48,3.55.9,7.45-.89,5-2.31,7.53-.83,9.73.47s3.85,2.29,8.09.59c5.36-2.13,7.95-1.42,10.24-.81a9.75,9.75,0,0,0,7.08-.28c4.74-1.72,8.54-.12,11.9,1.29,2.74,1.15,5.1,2.15,7.64,1.37,6-1.86,7.69-2,9.68.58,1.79,1.07,16.2-1.14,24.81-4.68,2.76-1.14,5-1.12,6.67.06A4.9,4.9,0,0,1,244.35,6.21Z" style="fill:#eae3dd"/><path d="M302.55,68.44a2.85,2.85,0,0,1-1.6,1.81c-.24.13-.57.33-.64.58-.14.46.35,1.36.74,2.07.56,1,1.15,2.11.77,3.17a2.24,2.24,0,0,1-1.36,1.31c-.43.18.23,2.62.48,3.54.59,2.22,1.21,4.52.21,6.07A3,3,0,0,1,299,88.31c-1.23.21-1.31.57-1.12,2.31.14,1.39.4,4-2.84,4.34a.88.88,0,0,0-.68.28c-.35.45-.12,1.71,0,2.64.24,1.38.47,2.68-.41,3.5a2.34,2.34,0,0,1-2.26.37c-.9-.22-1.12,0-1.77,1.29s-1.81,3.49-5.2,2.07c-2.14-.9-2.73-.62-3.63-.19a6.2,6.2,0,0,1-4.15.64,69.37,69.37,0,0,0-12-.39h0a38,38,0,0,1-4.1-1.82,79,79,0,0,1,16.4,0,4.07,4.07,0,0,0,2.88-.44c1.35-.65,2.61-1,5.42.14,1.53.64,1.73.25,2.41-1.06.59-1.15,1.58-3.07,4.26-2.4l.16,0a11.48,11.48,0,0,0-.19-1.41c-.26-1.46-.54-3.12.36-4.33a3,3,0,0,1,2.2-1.14c1-.11,1.07-.19.89-1.93-.14-1.44-.41-4.12,2.94-4.7.5-.08.62-.27.66-.35.48-.73-.08-2.8-.48-4.31-.66-2.46-1.4-5.24.81-6.14l.11,0a6.08,6.08,0,0,0-.61-1.34c-.59-1.09-1.33-2.44-.91-3.78A3.21,3.21,0,0,1,300,68.3c.15-.08.42-.24.46-.4.13-.49-.68-1.67-1.21-2.45-.87-1.26-1.77-2.58-1.46-3.87A2.41,2.41,0,0,1,299,60c.75-.41,0-2-1-4.08s-2-4.1-.92-5.53a7.35,7.35,0,0,0-.84-.63c-1-.73-2.31-1.64-2.53-3.16a4,4,0,0,1,1-3A.79.79,0,0,0,295,43c-.17-1.06-2.32-2.55-4-3.75-2.38-1.64-4.42-3.05-4.56-4.87a2.56,2.56,0,0,1,.7-1.9C284,31.34,269,32.38,262.58,35.9c-5.09,2.77-9.1,2.29-11.59,1.4.71-.55,1.46-1.1,2.25-1.66A12.51,12.51,0,0,0,261.53,34c7-3.81,25.66-5.56,27.78-2.61a1.79,1.79,0,0,1-.45,2.46c-.12.11-.26.26-.25.38.06.77,2.19,2.25,3.61,3.23,2.39,1.65,4.66,3.22,5,5.22a2.9,2.9,0,0,1-.66,2.31,2.11,2.11,0,0,0-.56,1.34c.09.59.9,1.18,1.63,1.69s1.74,1.23,1.85,2.22a1.88,1.88,0,0,1-.52,1.51c-.29.33.75,2.46,1.14,3.26,1.14,2.34,2.68,5.53,0,7a1.16,1.16,0,0,0-.2.14c-.08.33.71,1.5,1.13,2.12C302,65.58,302.91,67,302.55,68.44Z" style="fill:#eae3dd"/><path d="M115.93,109.74h0c-3.89,1.28,1.49,6.78-.71,6.54s3.17,5.35-4.13,4.13S89.4,108.48,83.8,96.3c-2.88-6.26-1.89-9.82-.25-11.8a7.25,7.25,0,0,1,3.66-2.32,35.79,35.79,0,0,1,4.14,0,67.71,67.71,0,0,0,2,10.51c1.62,5.78,4.38,11.88,9,15.25,10.59,7.67,9.26,2.48,7.47-1.68h0c-1.81-4.16,3.34-2.52,1.22-5.62s-8.11-5.34-5.77-8.77a5.06,5.06,0,0,0,.57-5c3.29,2.46,4.31,5.07,3,5.54-2.68,1,10,6.33,7,9S119.85,108.48,115.93,109.74Z" style="fill:#e22727"/><path d="M109.84,106.25h0c1.79,4.16,3.12,9.35-7.47,1.68-4.65-3.37-7.41-9.47-9-15.25a67.71,67.71,0,0,1-2-10.51c6.68.33,11.52,2.46,14.51,4.7a5.06,5.06,0,0,1-.57,5c-2.34,3.43,3.66,5.66,5.77,8.77S108,102.09,109.84,106.25Z" style="fill:#f22c2c"/><ellipse cx="74.61" cy="68.13" rx="6.57" ry="8.23" style="fill:#2b2b2b"/><path d="M111.44,133.29a9,9,0,0,1-.88.37c-1,.4-2.35.89-2.73,2.12a2.9,2.9,0,0,0,.58,2.54c.6.89.4,1.27-.77,2.66s-2.89,3.41-1.74,6.76c.63,1.83-.09,2.3-1.39,3.16a8.49,8.49,0,0,0-1.52,1.2C89.6,135.39,91.29,124,91.35,123.62c6,.52,11.83.84,17.29,1a10.82,10.82,0,0,0,4,3.35C111.28,129.48,110.29,131.5,111.44,133.29Z" style="fill:#c21f1f"/><path d="M122.26,167a4.15,4.15,0,0,1,.66,3.33,3,3,0,0,1-.23.57,115.63,115.63,0,0,1-18.27-17,3.86,3.86,0,0,1,1.3-1.1c1.37-.91,3.44-2.27,2.25-5.71-.75-2.17.22-3.31,1.34-4.62s2.51-3,.91-5.32a1.26,1.26,0,0,1-.3-.63h0c.1-.23,1-.56,1.42-.73,1-.38,2-.77,2.34-1.77a2,2,0,0,0-.37-1.79c-.59-.86.42-2.2,1.33-3.1,1.2.59,2.43,1.14,3.52,1.62-.48,1.11.2,2.36.81,3.47.14.28.36.66.47.94a1.64,1.64,0,0,0-.57.72c-.38.9.06,1.89.54,2.93a6.78,6.78,0,0,1,.6,1.65s-.05.05-.22.09a2.09,2.09,0,0,0-1.44,1.11c-.66,1.33.14,3.17,1,5.1a16.19,16.19,0,0,1,.87,2.29,1.87,1.87,0,0,0-1.11,1.09c-.58,1.5.74,3.47,2.75,6.44.45.66.92,1.36,1.38,2.07.75,1.16.51,1.39-.36,2.26S120.17,163.51,122.26,167Z" style="fill:#c21f1f"/><path d="M129.33,175.69c-1.7-1.18-3.33-2.34-4.88-3.5a5.35,5.35,0,0,0,.56-1.26,6.14,6.14,0,0,0-.88-5.12c-1.19-2-.67-2.48.27-3.42s2.37-2.36.66-5c-.47-.73-.94-1.44-1.4-2.11-1-1.5-2.38-3.51-2.51-4.3a1.69,1.69,0,0,0,1.06-.87c.54-1.07-.09-2.49-.87-4.3-.41-.93-1.16-2.66-1-3.2h0a2.3,2.3,0,0,0,1.64-1.22c.55-1.11,0-2.41-.55-3.55-.14-.32-.35-.78-.44-1.08a1.61,1.61,0,0,0,.67-.79c.33-.89-.19-1.85-.74-2.86a7.62,7.62,0,0,1-.69-1.51c1.27.6,1.92,1,1.35,1.24-2,.73,6.08,8,3.16,9.5s3.9,4.14,1.29,5.6.17,8.53,2.55,11.69-3.35,5.6.78,12.18S129.33,175.69,129.33,175.69Z" style="fill:#c21f1f"/><path d="M124.13,165.81a6.14,6.14,0,0,1,.88,5.12,5.35,5.35,0,0,1-.56,1.26c-.6-.44-1.19-.89-1.76-1.34a3,3,0,0,0,.23-.57,4.15,4.15,0,0,0-.66-3.33c-2.09-3.44-.41-5.11.6-6.12s1.11-1.1.36-2.26c-.46-.71-.93-1.41-1.38-2.07-2-3-3.33-4.94-2.75-6.44A1.87,1.87,0,0,1,120.2,149a16.19,16.19,0,0,0-.87-2.29c-.84-1.93-1.64-3.77-1-5.1a2.09,2.09,0,0,1,1.44-1.11c.17,0,.22-.08.22-.09a6.78,6.78,0,0,0-.6-1.65c-.48-1-.92-2-.54-2.93a1.64,1.64,0,0,1,.57-.72c-.11-.28-.33-.66-.47-.94-.61-1.11-1.29-2.36-.81-3.47.77.34,1.47.65,2,.92a7.62,7.62,0,0,0,.69,1.51c.55,1,1.07,2,.74,2.86a1.61,1.61,0,0,1-.67.79c.09.3.3.76.44,1.08.52,1.14,1.1,2.44.55,3.55a2.3,2.3,0,0,1-1.64,1.22h0c-.12.54.63,2.27,1,3.2.78,1.81,1.41,3.23.87,4.3a1.69,1.69,0,0,1-1.06.87c.13.79,1.49,2.8,2.51,4.3.46.67.93,1.38,1.4,2.11,1.71,2.65.23,4.12-.66,5S122.94,163.85,124.13,165.81Z" style="fill:#eae3dd"/><path d="M113.31,132.15a2,2,0,0,1,.37,1.79c-.31,1-1.34,1.39-2.34,1.77-.43.17-1.32.5-1.42.73h0a1.26,1.26,0,0,0,.3.63c1.6,2.35.15,4.06-.91,5.32s-2.09,2.45-1.34,4.62c1.19,3.44-.88,4.8-2.25,5.71a3.86,3.86,0,0,0-1.3,1.1c-.49-.59-1-1.16-1.43-1.73a8.49,8.49,0,0,1,1.52-1.2c1.3-.86,2-1.33,1.39-3.16-1.15-3.35.52-5.33,1.74-6.76s1.37-1.77.77-2.66a2.9,2.9,0,0,1-.58-2.54c.38-1.23,1.69-1.72,2.73-2.12a9,9,0,0,0,.88-.37c-1.15-1.79-.16-3.81,1.17-5.31.65.37,1.33.73,2,1.07C113.73,130,112.72,131.29,113.31,132.15Z" style="fill:#c21f1f"/><path d="M241.9,117.13a6.39,6.39,0,0,0-3.09,2.35,2.65,2.65,0,0,0-.24,2,28.28,28.28,0,0,1-4-.89c-2.69-.75-3.92-1.08-4.59-.17a1.24,1.24,0,0,0-.24.74c-.75,0-1.93-.08-2.64-.13-2.43-.2-3.64-.3-4.11.72,0,0,0,.09,0,.15-1-.07-2.61-.29-3.78-.45-4.87-.66-6.29-.8-6.85.31,0,0,0,.09-.06.16-.85-.07-2.1-.25-3.1-.4-4.73-.69-6.45-.82-7.06.37a1.3,1.3,0,0,0-.14.74c-.95-.11-2.29-.34-3.29-.51-4.9-.84-6.82-1-7.57.18a1.63,1.63,0,0,0,.19,1.88,12.53,12.53,0,0,1-2.37,1l-.47.16c-5.14-1.6-10.76-4.3-13.88-8.22,16-4.47,32.13-10.2,45-15.07C222.65,104.38,233,112.17,241.9,117.13Z" style="fill:#c21f1f"/><path d="M241.17,124.82c1.83,1.92-11.14-.75-8.76,1.59s-10.41-.94-9.13,1.25-18.27-2.19-16.08,0-8.95-3.41-7.48-1.25c.65,1-2.91,1-7.67-.11a2.65,2.65,0,0,0,1.45-1.5,1.82,1.82,0,0,0,0-1.15,44.74,44.74,0,0,1,4.84.65c4.31.74,5.69.92,6.29-.21a1.3,1.3,0,0,0,.11-.88c1.15.06,2.94.33,4.14.5,3.78.55,5.19.75,5.73-.32a.83.83,0,0,0,.08-.23c1.1.06,2.91.3,4.23.49,4.65.63,5.89.75,6.41-.31a1,1,0,0,0,.07-.22c.5,0,1.1.07,1.57.11,2.86.23,4.39.31,5-.73a1.35,1.35,0,0,0,.13-.29c.57.14,1.31.34,1.92.51,3.41.93,5.55,1.45,6.54.31a1.82,1.82,0,0,0,.17-2,.44.44,0,0,1,0-.47c.41-.76,2-1.47,3.74-2a41.17,41.17,0,0,0,4.73,2.08C260,124.37,239.35,122.91,241.17,124.82Z" style="fill:#c21f1f"/><path d="M240.74,120.54a.44.44,0,0,0,0,.47,1.82,1.82,0,0,1-.17,2c-1,1.14-3.13.62-6.54-.31-.61-.17-1.35-.37-1.92-.51a1.35,1.35,0,0,1-.13.29c-.63,1-2.16,1-5,.73-.47,0-1.07-.09-1.57-.11a1,1,0,0,1-.07.22c-.52,1.06-1.76.94-6.41.31-1.32-.19-3.13-.43-4.23-.49a.83.83,0,0,1-.08.23c-.54,1.07-2,.87-5.73.32-1.2-.17-3-.44-4.14-.5a1.3,1.3,0,0,1-.11.88c-.6,1.13-2,1-6.29.21a44.74,44.74,0,0,0-4.84-.65,1.82,1.82,0,0,1,0,1.15,2.65,2.65,0,0,1-1.45,1.5c-1.14-.26-2.35-.58-3.59-1l.47-.16a12.53,12.53,0,0,0,2.37-1,1.63,1.63,0,0,1-.19-1.88c.75-1.22,2.67-1,7.57-.18,1,.17,2.34.4,3.29.51a1.3,1.3,0,0,1,.14-.74c.61-1.19,2.33-1.06,7.06-.37,1,.15,2.25.33,3.1.4,0-.07,0-.13.06-.16.56-1.11,2-1,6.85-.31,1.17.16,2.77.38,3.78.45,0-.06,0-.11,0-.15.47-1,1.68-.92,4.11-.72.71,0,1.89.16,2.64.13a1.24,1.24,0,0,1,.24-.74c.67-.91,1.9-.58,4.59.17a28.28,28.28,0,0,0,4,.89,2.65,2.65,0,0,1,.24-2,6.39,6.39,0,0,1,3.09-2.35c.87.49,1.74,1,2.58,1.38C242.71,119.07,241.15,119.78,240.74,120.54Z" style="fill:#eae3dd"/><path d="M31.69,60.75A8.28,8.28,0,1,0,40,69,8.28,8.28,0,0,0,31.69,60.75ZM30.42,73.38a5.25,5.25,0,1,1,5.23-5.25A5.25,5.25,0,0,1,30.42,73.38Z" style="fill:#c6a06d"/><path d="M30.42,62.89a5.25,5.25,0,1,0,5.23,5.24A5.25,5.25,0,0,0,30.42,62.89Zm0,8.79A3.55,3.55,0,1,1,34,68.13,3.55,3.55,0,0,1,30.42,71.68Z" style="fill:#eae3dd"/><path d="M34,68.13a3.56,3.56,0,1,1-3.55-3.55A3.55,3.55,0,0,1,34,68.13Z" style="fill:#2b2b2b"/><path d="M32.22,70.18a2.53,2.53,0,1,1,2.53,2.53A2.54,2.54,0,0,1,32.22,70.18Z" style="fill:#eae3dd"/><path d="M127.86,107.53c0,1.34-.61,2.42-1.37,2.42s-1.37-1.08-1.37-2.42.61-2.42,1.37-2.42S127.86,106.2,127.86,107.53Z" style="fill:#eae3dd"/><ellipse cx="132.79" cy="104.57" rx="1.46" ry="2.47" style="fill:#eae3dd"/><path d="M141.46,107.26c0,1.19-.51,2.15-1.14,2.15s-1.14-1-1.14-2.15.51-2.15,1.14-2.15S141.46,106.08,141.46,107.26Z" style="fill:#eae3dd"/><ellipse cx="142.79" cy="101.96" rx="1.32" ry="1.42" style="fill:#eae3dd"/><path d="M146.94,95.34c0,1.06-.63,1.92-1.41,1.92s-1.42-.86-1.42-1.92.64-1.91,1.42-1.91S146.94,94.28,146.94,95.34Z" style="fill:#eae3dd"/><path d="M152.24,82.51c0,2.4-1,4.34-2.28,4.34s-2.29-1.94-2.29-4.34,1-4.33,2.29-4.33S152.24,80.12,152.24,82.51Z" style="fill:#eae3dd"/><path d="M156.17,92.92c0,1.69-.88,3.06-2,3.06s-2-1.37-2-3.06.88-3.06,2-3.06S156.17,91.23,156.17,92.92Z" style="fill:#eae3dd"/><path d="M155.35,106.05a1.18,1.18,0,1,1-1.15-1.48A1.35,1.35,0,0,1,155.35,106.05Z" style="fill:#eae3dd"/><path d="M152.24,114.89a1.39,1.39,0,1,1-1.37-1.65A1.52,1.52,0,0,1,152.24,114.89Z" style="fill:#eae3dd"/><path d="M148.41,107c0,1.06-.48,1.92-1.06,1.92s-1-.86-1-1.92.47-1.92,1-1.92S148.41,106,148.41,107Z" style="fill:#eae3dd"/><ellipse cx="138.18" cy="93.65" rx="1" ry="2.33" style="fill:#eae3dd"/><ellipse cx="141.56" cy="82.1" rx="1.92" ry="2.56" style="fill:#eae3dd"/><path d="M164.48,92.6c0,1.52-.9,2.74-2,2.74s-2-1.22-2-2.74.9-2.74,2-2.74S164.48,91.09,164.48,92.6Z" style="fill:#eae3dd"/><ellipse cx="165.44" cy="83.2" rx="2.24" ry="3.65" style="fill:#eae3dd"/><path d="M171.42,92.06c0,1.21-.55,2.19-1.24,2.19s-1.23-1-1.23-2.19.55-2.2,1.23-2.2S171.42,90.85,171.42,92.06Z" style="fill:#eae3dd"/><path d="M174.7,82c0,1-.49,1.83-1.09,1.83s-1.1-.82-1.1-1.83.49-1.83,1.1-1.83S174.7,81,174.7,82Z" style="fill:#eae3dd"/><path d="M162.47,69.09c0,1.29-.62,2.33-1.37,2.33s-1.37-1-1.37-2.33.61-2.33,1.37-2.33S162.47,67.8,162.47,69.09Z" style="fill:#eae3dd"/><path d="M153.79,71.17c0,1.14-.65,2.07-1.46,2.07s-1.46-.93-1.46-2.07.65-2.08,1.46-2.08S153.79,70,153.79,71.17Z" style="fill:#eae3dd"/><path d="M144.57,73.24c0,1.37-.57,2.47-1.28,2.47S142,74.61,142,73.24s.58-2.46,1.28-2.46S144.57,71.88,144.57,73.24Z" style="fill:#eae3dd"/><ellipse cx="148.13" cy="62.06" rx="1.83" ry="1.69" style="fill:#eae3dd"/><path d="M158.27,61c0,1.51-.76,2.74-1.69,2.74s-1.69-1.23-1.69-2.74.76-2.74,1.69-2.74S158.27,59.49,158.27,61Z" style="fill:#eae3dd"/><path d="M166.12,61a1.87,1.87,0,1,1-1.83-2.29A2.09,2.09,0,0,1,166.12,61Z" style="fill:#eae3dd"/><path d="M169.59,68.36a1,1,0,1,1-1-1.23A1.12,1.12,0,0,1,169.59,68.36Z" style="fill:#eae3dd"/><path d="M178.72,72.19c0,1.44-.73,2.61-1.64,2.61s-1.64-1.17-1.64-2.61.73-2.6,1.64-2.6S178.72,70.76,178.72,72.19Z" style="fill:#eae3dd"/><path d="M182.92,80.5a1.42,1.42,0,1,1-1.41-1.5A1.46,1.46,0,0,1,182.92,80.5Z" style="fill:#eae3dd"/><path d="M173.08,58.54c0,1.36-.78,2.47-1.74,2.47s-1.75-1.11-1.75-2.47.78-2.46,1.75-2.46S173.08,57.18,173.08,58.54Z" style="fill:#eae3dd"/><path d="M167.67,50c0,1.06-.5,1.92-1.12,1.92S165.44,51,165.44,50s.5-1.92,1.11-1.92S167.67,48.9,167.67,50Z" style="fill:#eae3dd"/><path d="M175.44,48.86a1.84,1.84,0,1,1-1.79-2.28A2.09,2.09,0,0,1,175.44,48.86Z" style="fill:#eae3dd"/><path d="M182.92,49.46A1.17,1.17,0,1,1,181.78,48,1.3,1.3,0,0,1,182.92,49.46Z" style="fill:#eae3dd"/><ellipse cx="190.32" cy="53.47" rx="2.1" ry="2.6" style="fill:#eae3dd"/><path d="M188.86,63.34A1.92,1.92,0,1,1,187,61,2.13,2.13,0,0,1,188.86,63.34Z" style="fill:#eae3dd"/><ellipse cx="178.27" cy="62.17" rx="1.19" ry="1.16" style="fill:#eae3dd"/><path d="M192.42,72.79c0,1.11-.59,2-1.32,2s-1.33-.9-1.33-2,.59-2,1.33-2S192.42,71.68,192.42,72.79Z" style="fill:#eae3dd"/><path d="M193.15,94c0,1.08-.55,2-1.23,2s-1.23-.88-1.23-2,.55-2,1.23-2S193.15,92.93,193.15,94Z" style="fill:#eae3dd"/><path d="M198.17,83.61a1.79,1.79,0,1,1-1.78-1.6A1.7,1.7,0,0,1,198.17,83.61Z" style="fill:#eae3dd"/><path d="M207.21,83.11A2.19,2.19,0,1,1,205,81,2.15,2.15,0,0,1,207.21,83.11Z" style="fill:#eae3dd"/><path d="M208.77,74.45c0,1.25-.68,2.26-1.51,2.26s-1.51-1-1.51-2.26.68-2.26,1.51-2.26S208.77,73.21,208.77,74.45Z" style="fill:#eae3dd"/><path d="M211.41,65.23a1.78,1.78,0,1,1-1.78-1.89A1.84,1.84,0,0,1,211.41,65.23Z" style="fill:#eae3dd"/><path d="M204.2,62.57c0,1.47-.88,2.66-2,2.66s-2-1.19-2-2.66.88-2.66,2-2.66S204.2,61.1,204.2,62.57Z" style="fill:#eae3dd"/><path d="M196.39,63.12c0,1.17-.62,2.11-1.39,2.11s-1.39-.94-1.39-2.11S194.23,61,195,61,196.39,62,196.39,63.12Z" style="fill:#eae3dd"/><path d="M93.43,65.68A1.42,1.42,0,1,1,92,64.17,1.46,1.46,0,0,1,93.43,65.68Z" style="fill:#eae3dd"/><ellipse cx="97.5" cy="48.51" rx="1.87" ry="2.33" style="fill:#eae3dd"/><ellipse cx="101.6" cy="57.96" rx="1.32" ry="2.01" style="fill:#eae3dd"/><ellipse cx="102.43" cy="79.19" rx="1.23" ry="1.96" style="fill:#eae3dd"/><path d="M108.68,68.78a1.79,1.79,0,1,1-1.78-1.6A1.7,1.7,0,0,1,108.68,68.78Z" style="fill:#eae3dd"/><ellipse cx="115.53" cy="68.28" rx="2.19" ry="2.1" style="fill:#eae3dd"/><path d="M119.27,59.63c0,1.24-.67,2.26-1.5,2.26s-1.51-1-1.51-2.26.68-2.26,1.51-2.26S119.27,58.38,119.27,59.63Z" style="fill:#eae3dd"/><path d="M121.92,50.4a1.78,1.78,0,1,1-1.78-1.89A1.84,1.84,0,0,1,121.92,50.4Z" style="fill:#eae3dd"/><ellipse cx="112.75" cy="47.74" rx="1.96" ry="2.66" style="fill:#eae3dd"/><ellipse cx="105.51" cy="48.29" rx="1.39" ry="2.11" style="fill:#eae3dd"/><ellipse cx="169.13" cy="39.78" rx="1.46" ry="1.69" style="fill:#eae3dd"/><path d="M200.27,48.41c0,1.36-.47,2.46-1.05,2.46s-1.05-1.1-1.05-2.46.47-2.47,1.05-2.47S200.27,47,200.27,48.41Z" style="fill:#eae3dd"/><ellipse cx="143.5" cy="51.85" rx="2.03" ry="2.4" style="fill:#eae3dd"/><path d="M152.24,42.06a1.15,1.15,0,1,1-1.14-1.32A1.24,1.24,0,0,1,152.24,42.06Z" style="fill:#eae3dd"/><path d="M136.35,62.1c0,2-1.25,3.56-2.78,3.56s-2.79-1.59-2.79-3.56,1.25-3.56,2.79-3.56S136.35,60.14,136.35,62.1Z" style="fill:#eae3dd"/><ellipse cx="140.55" cy="60.28" rx="0.91" ry="1.19" style="fill:#eae3dd"/><path d="M139.18,71.49a2,2,0,1,1-1.92-2.4A2.19,2.19,0,0,1,139.18,71.49Z" style="fill:#eae3dd"/><ellipse cx="127.77" cy="91.96" rx="0.82" ry="1.46" style="fill:#eae3dd"/><path d="M136.35,83.58a1.8,1.8,0,1,1-1.78-2.07A1.95,1.95,0,0,1,136.35,83.58Z" style="fill:#eae3dd"/><ellipse cx="125.76" cy="84.68" rx="1.19" ry="2.17" style="fill:#eae3dd"/><path d="M125.12,73.52c0,1.51-.72,2.74-1.6,2.74s-1.6-1.23-1.6-2.74.72-2.74,1.6-2.74S125.12,72,125.12,73.52Z" style="fill:#eae3dd"/><path d="M133.89,76.9a1.85,1.85,0,1,1-1.83-2.1A2,2,0,0,1,133.89,76.9Z" style="fill:#eae3dd"/><path d="M41.26,85a2,2,0,1,1-2-2.26A2.13,2.13,0,0,1,41.26,85Z" style="fill:#eae3dd"/><path d="M47.93,80.27c0,1-.57,1.85-1.28,1.85s-1.28-.83-1.28-1.85.58-1.84,1.28-1.84S47.93,79.25,47.93,80.27Z" style="fill:#eae3dd"/><path d="M57.25,74c0,1.3-.76,2.35-1.69,2.35S53.87,75.32,53.87,74s.75-2.34,1.69-2.34S57.25,72.73,57.25,74Z" style="fill:#eae3dd"/><path d="M62.27,87.9c0,2.25-1.13,4.06-2.51,4.06s-2.51-1.81-2.51-4.06,1.12-4.06,2.51-4.06S62.27,85.66,62.27,87.9Z" style="fill:#eae3dd"/><path d="M50,96.13c0,1.77-1,3.21-2.33,3.21s-2.33-1.44-2.33-3.21,1.05-3.21,2.33-3.21S50,94.36,50,96.13Z" style="fill:#eae3dd"/><ellipse cx="60.62" cy="102.56" rx="1.64" ry="2.01" style="fill:#eae3dd"/><ellipse cx="51.95" cy="86.86" rx="1.92" ry="1.89" style="fill:#eae3dd"/><path d="M57.25,65.47a3.06,3.06,0,1,1-3.06-2.9A3,3,0,0,1,57.25,65.47Z" style="fill:#eae3dd"/><path d="M45.37,58.52c0,1.63-.67,2.94-1.5,2.94s-1.51-1.31-1.51-2.94.67-2.94,1.51-2.94S45.37,56.9,45.37,58.52Z" style="fill:#eae3dd"/><ellipse cx="27.28" cy="85.31" rx="2.11" ry="2.59" style="fill:#eae3dd"/><path d="M37.28,97c0,1.28-.57,2.32-1.27,2.32s-1.26-1-1.26-2.32S35.32,94.7,36,94.7,37.28,95.74,37.28,97Z" style="fill:#eae3dd"/><path d="M53.87,106.76a2.29,2.29,0,1,1-2.29-2.19A2.24,2.24,0,0,1,53.87,106.76Z" style="fill:#eae3dd"/><path d="M71.22,111.46A2.3,2.3,0,1,1,68.93,109,2.41,2.41,0,0,1,71.22,111.46Z" style="fill:#eae3dd"/><path d="M78.16,95.52a2.43,2.43,0,1,1-2.38-2.92A2.69,2.69,0,0,1,78.16,95.52Z" style="fill:#eae3dd"/><ellipse cx="72.3" cy="85.03" rx="2.31" ry="2.87" style="fill:#eae3dd"/><ellipse cx="82.5" cy="80.34" rx="1.32" ry="2.17" style="fill:#eae3dd"/><path d="M91.25,76.82a1.94,1.94,0,1,1-1.89-2.37A2.17,2.17,0,0,1,91.25,76.82Z" style="fill:#eae3dd"/><ellipse cx="98.53" cy="71.81" rx="1.04" ry="2.22" style="fill:#eae3dd"/><path d="M86.38,60.24c0,1.59-.58,2.88-1.28,2.88s-1.28-1.29-1.28-2.88.57-2.87,1.28-2.87S86.38,58.65,86.38,60.24Z" style="fill:#eae3dd"/><ellipse cx="92.88" cy="57.34" rx="1.53" ry="1.76" style="fill:#eae3dd"/><path d="M115.53,82.43c0,1.78-1.06,3.23-2.37,3.23s-2.38-1.45-2.38-3.23,1.07-3.24,2.38-3.24S115.53,80.64,115.53,82.43Z" style="fill:#eae3dd"/><path d="M119.27,95.34a1.55,1.55,0,1,1-1.5-1.91A1.75,1.75,0,0,1,119.27,95.34Z" style="fill:#eae3dd"/><path d="M121.92,105.46c0,1.14-.4,2.07-.89,2.07s-.89-.93-.89-2.07.4-2.08.89-2.08S121.92,104.31,121.92,105.46Z" style="fill:#eae3dd"/><path d="M130.23,99.49a1.06,1.06,0,1,1-1-1.06A1.06,1.06,0,0,1,130.23,99.49Z" style="fill:#eae3dd"/><path d="M127.86,59.17a1.65,1.65,0,1,1-1.65-1.83A1.75,1.75,0,0,1,127.86,59.17Z" style="fill:#eae3dd"/><path d="M138.18,49a2.36,2.36,0,1,1-2.31-2.84A2.61,2.61,0,0,1,138.18,49Z" style="fill:#eae3dd"/><ellipse cx="77.88" cy="52.77" rx="2.1" ry="2.81" style="fill:#eae3dd"/><path d="M66.65,60.08c0,1-.56,1.81-1.25,1.81s-1.24-.81-1.24-1.81.55-1.81,1.24-1.81S66.65,59.08,66.65,60.08Z" style="fill:#eae3dd"/><path d="M66.65,75.6a2.25,2.25,0,1,1-2.19-1.72A2,2,0,0,1,66.65,75.6Z" style="fill:#eae3dd"/><path d="M59.76,54.41a1.3,1.3,0,1,1-1.26-1.64A1.49,1.49,0,0,1,59.76,54.41Z" style="fill:#eae3dd"/><ellipse cx="89.04" cy="48.29" rx="1.56" ry="2.11" style="fill:#eae3dd"/><path d="M72.3,47a2.15,2.15,0,1,1-2.13-1.89A2,2,0,0,1,72.3,47Z" style="fill:#eae3dd"/><path d="M54.19,56.19c0,1-.5,1.77-1.12,1.77S52,57.17,52,56.19s.5-1.78,1.12-1.78S54.19,55.21,54.19,56.19Z" style="fill:#eae3dd"/><path d="M46.65,71.56c0,1.08-.62,2-1.39,2s-1.39-.88-1.39-2,.62-2,1.39-2S46.65,70.47,46.65,71.56Z" style="fill:#eae3dd"/><path d="M23.42,79.41a1.92,1.92,0,0,1-1.67,2.1,2.16,2.16,0,0,1,0-4.2A1.92,1.92,0,0,1,23.42,79.41Z" style="fill:#eae3dd"/><ellipse cx="220.31" cy="68.28" rx="1.89" ry="2.1" style="fill:#eae3dd"/><path d="M234,75.63A1.39,1.39,0,1,1,232.58,74,1.51,1.51,0,0,1,234,75.63Z" style="fill:#eae3dd"/><path d="M241.9,68.28a1.87,1.87,0,1,1-1.86-2.1A2,2,0,0,1,241.9,68.28Z" style="fill:#eae3dd"/><path d="M229,88.68c0,1-.61,1.82-1.37,1.82a1.65,1.65,0,0,1-1.37-1.82c0-1,.62-1.83,1.37-1.83S229,87.67,229,88.68Z" style="fill:#eae3dd"/><path d="M219.15,82.5a1.34,1.34,0,1,1-1.34-1.35A1.34,1.34,0,0,1,219.15,82.5Z" style="fill:#eae3dd"/><path d="M208.77,92.26a1.53,1.53,0,1,1-1.51-1.76A1.65,1.65,0,0,1,208.77,92.26Z" style="fill:#eae3dd"/><path d="M184.45,89.44A1.51,1.51,0,1,1,183,87.56,1.72,1.72,0,0,1,184.45,89.44Z" style="fill:#eae3dd"/><path d="M182.92,99.31a1.76,1.76,0,1,1-1.73-2A1.91,1.91,0,0,1,182.92,99.31Z" style="fill:#eae3dd"/><ellipse cx="127.83" cy="116.1" rx="1.34" ry="2.41" style="fill:#eae3dd"/><path d="M217.81,93.7a1.52,1.52,0,1,1-1.52-1.64A1.58,1.58,0,0,1,217.81,93.7Z" style="fill:#eae3dd"/><path d="M86.38,108.36a2,2,0,1,1-1.94-1.6A1.79,1.79,0,0,1,86.38,108.36Z" style="fill:#eae3dd"/><path d="M102.63,129.32c0,.75-.45,1.35-1,1.35s-1-.6-1-1.35.45-1.34,1-1.34S102.63,128.58,102.63,129.32Z" style="fill:#eae3dd"/><path d="M110.56,132.16a1.21,1.21,0,1,1-1.18-1.49A1.37,1.37,0,0,1,110.56,132.16Z" style="fill:#eae3dd"/><path d="M114.64,136.6a1.19,1.19,0,1,1-1.19-1.27A1.23,1.23,0,0,1,114.64,136.6Z" style="fill:#eae3dd"/><path d="M117.17,146.87a1.3,1.3,0,1,1-1.27-1.6A1.46,1.46,0,0,1,117.17,146.87Z" style="fill:#eae3dd"/><path d="M123.67,150.65c0,.8-.39,1.45-.87,1.45s-.88-.65-.88-1.45.39-1.45.88-1.45S123.67,149.85,123.67,150.65Z" style="fill:#eae3dd"/><path d="M119.16,140.89a1.36,1.36,0,1,1-1.33-1.64A1.5,1.5,0,0,1,119.16,140.89Z" style="fill:#eae3dd"/><path d="M105.74,140.89c0,.91-.48,1.64-1.06,1.64s-1.05-.73-1.05-1.64.47-1.64,1.05-1.64S105.74,140,105.74,140.89Z" style="fill:#eae3dd"/><path d="M110.56,145.37c0,1.21-.53,2.19-1.18,2.19s-1.18-1-1.18-2.19.53-2.2,1.18-2.2S110.56,144.16,110.56,145.37Z" style="fill:#eae3dd"/><path d="M116.51,153.42c0,1.1-.55,2-1.23,2s-1.24-.89-1.24-2,.56-2,1.24-2S116.51,152.32,116.51,153.42Z" style="fill:#eae3dd"/><path d="M120.2,158.93c0,.73-.38,1.32-.84,1.32s-.84-.59-.84-1.32.37-1.33.84-1.33S120.2,158.19,120.2,158.93Z" style="fill:#eae3dd"/><path d="M124.73,163.13c0,.78-.43,1.41-1,1.41s-1-.63-1-1.41.43-1.42,1-1.42S124.73,162.35,124.73,163.13Z" style="fill:#eae3dd"/><ellipse cx="109.66" cy="154.63" rx="1.46" ry="2.24" style="fill:#eae3dd"/><path d="M103,147.19c0,.71-.34,1.28-.76,1.28s-.76-.57-.76-1.28.34-1.28.76-1.28S103,146.49,103,147.19Z" style="fill:#eae3dd"/><path d="M105.74,136.37a1.06,1.06,0,0,1-2.11,0,1.06,1.06,0,0,1,2.11,0Z" style="fill:#eae3dd"/><path d="M99.57,137.51c0,1-.38,1.74-.84,1.74s-.85-.78-.85-1.74.38-1.73.85-1.73S99.57,136.55,99.57,137.51Z" style="fill:#eae3dd"/><ellipse cx="113.62" cy="142.26" rx="1.01" ry="1.37" style="fill:#eae3dd"/><ellipse cx="116.56" cy="162.85" rx="1.28" ry="1.69" style="fill:#eae3dd"/><path d="M123.67,167.37c0,.71-.79,1.28-1.76,1.28s-1.77-.57-1.77-1.28.79-1.28,1.77-1.28S123.67,166.67,123.67,167.37Z" style="fill:#eae3dd"/><path d="M123.27,146.42c0,.63-.7,1.14-1.56,1.14s-1.57-.51-1.57-1.14.7-1.15,1.57-1.15S123.27,145.79,123.27,146.42Z" style="fill:#eae3dd"/><path d="M106.68,150.44c0,.89-.51,1.61-1.13,1.61s-1.13-.72-1.13-1.61.5-1.6,1.13-1.6S106.68,149.56,106.68,150.44Z" style="fill:#eae3dd"/><path d="M216.29,106.9a1.09,1.09,0,1,1-1.07-.85A1,1,0,0,1,216.29,106.9Z" style="fill:#eae3dd"/><path d="M222.19,111.82c0,1-.42,1.87-.94,1.87s-.94-.84-.94-1.87.42-1.87.94-1.87S222.19,110.79,222.19,111.82Z" style="fill:#eae3dd"/><ellipse cx="228.82" cy="114.89" rx="1.17" ry="1.64" style="fill:#eae3dd"/><path d="M237.44,119.56c0,1-.58,1.76-1.29,1.76s-1.29-.79-1.29-1.76.58-1.77,1.29-1.77S237.44,118.58,237.44,119.56Z" style="fill:#eae3dd"/><ellipse cx="226.47" cy="121.95" rx="1.48" ry="1.36" style="fill:#eae3dd"/><path d="M219.15,125.58a1.43,1.43,0,1,1-1.43-1.46A1.44,1.44,0,0,1,219.15,125.58Z" style="fill:#eae3dd"/><ellipse cx="211.97" cy="121.48" rx="1.7" ry="1.92" style="fill:#eae3dd"/><path d="M200.27,119.56c0,1-.47,1.76-1.05,1.76s-1.05-.79-1.05-1.76.47-1.77,1.05-1.77S200.27,118.58,200.27,119.56Z" style="fill:#eae3dd"/><path d="M207.21,124.12a1.51,1.51,0,1,1-1.5-1.46A1.48,1.48,0,0,1,207.21,124.12Z" style="fill:#eae3dd"/><path d="M191.92,121.64a1.54,1.54,0,1,1-1.53-1.66A1.61,1.61,0,0,1,191.92,121.64Z" style="fill:#eae3dd"/><ellipse cx="203.93" cy="115.41" rx="1.1" ry="1.72" style="fill:#eae3dd"/><path d="M212,115.55c0,.87-.38,1.58-.85,1.58s-.86-.71-.86-1.58.39-1.59.86-1.59S212,114.67,212,115.55Z" style="fill:#eae3dd"/><path d="M221.25,118.25a1.44,1.44,0,1,1-1.41-1.72A1.59,1.59,0,0,1,221.25,118.25Z" style="fill:#eae3dd"/><path d="M216.47,113.38a1.2,1.2,0,1,1-1.15-1.52A1.37,1.37,0,0,1,216.47,113.38Z" style="fill:#eae3dd"/><path d="M196.39,114.67c0,.79-.4,1.43-.89,1.43s-.89-.64-.89-1.43.4-1.43.89-1.43S196.39,113.88,196.39,114.67Z" style="fill:#eae3dd"/><path d="M187,119.19a1.28,1.28,0,1,1-1.27-1.4A1.33,1.33,0,0,1,187,119.19Z" style="fill:#eae3dd"/><ellipse cx="231.75" cy="14.23" rx="1.55" ry="2.19" style="fill:#eae3dd"/><path d="M224.87,16.39c0,1.2-.49,2.17-1.09,2.17s-1.1-1-1.1-2.17.49-2.16,1.1-2.16S224.87,15.2,224.87,16.39Z" style="fill:#eae3dd"/><path d="M217,13.38c0,1.38-.65,2.5-1.46,2.5S214,14.76,214,13.38s.65-2.49,1.46-2.49S217,12,217,13.38Z" style="fill:#eae3dd"/><ellipse cx="229.87" cy="24.34" rx="0.85" ry="1.16" style="fill:#eae3dd"/><path d="M223.17,25.93c0,.83-.46,1.51-1,1.51s-1-.68-1-1.51.46-1.52,1-1.52S223.17,25.09,223.17,25.93Z" style="fill:#eae3dd"/><path d="M214.77,26.25c0,1.2-.46,2.17-1,2.17s-1-1-1-2.17.46-2.16,1-2.16S214.77,25.06,214.77,26.25Z" style="fill:#eae3dd"/><path d="M212,35c0,1.09-.52,2-1.17,2s-1.17-.89-1.17-2,.53-2,1.17-2S212,33.91,212,35Z" style="fill:#eae3dd"/><path d="M205,30.23a2,2,0,1,1-1.94-1.81A1.88,1.88,0,0,1,205,30.23Z" style="fill:#eae3dd"/><path d="M204.2,21.23a1.58,1.58,0,1,1-3.07,0,1.58,1.58,0,1,1,3.07,0Z" style="fill:#eae3dd"/><path d="M210.14,18.27c0,1-.31,1.87-.69,1.87s-.68-.84-.68-1.87.3-1.88.68-1.88S210.14,17.23,210.14,18.27Z" style="fill:#eae3dd"/><path d="M195.9,18.56a2.41,2.41,0,1,1-4.8,0,2.41,2.41,0,1,1,4.8,0Z" style="fill:#eae3dd"/><ellipse cx="202.1" cy="15.19" rx="0.97" ry="1.21" style="fill:#eae3dd"/><path d="M194.61,29.27c0,1-.49,1.83-1.09,1.83s-1.1-.82-1.1-1.83.49-1.83,1.1-1.83S194.61,28.26,194.61,29.27Z" style="fill:#eae3dd"/><ellipse cx="200.18" cy="36.27" rx="0.95" ry="1.27" style="fill:#eae3dd"/><path d="M187,24a2,2,0,1,1-2-2.24A2.13,2.13,0,0,1,187,24Z" style="fill:#eae3dd"/><path d="M186.28,13.61A1.65,1.65,0,1,1,184.63,12,1.62,1.62,0,0,1,186.28,13.61Z" style="fill:#eae3dd"/><path d="M177.08,18.27a1.74,1.74,0,1,1-1.74-1.88A1.81,1.81,0,0,1,177.08,18.27Z" style="fill:#eae3dd"/><path d="M181.51,30.23a1.63,1.63,0,1,1-1.62-1.81A1.72,1.72,0,0,1,181.51,30.23Z" style="fill:#eae3dd"/><ellipse cx="170.28" cy="14.23" rx="1.14" ry="1.64" style="fill:#eae3dd"/><path d="M172.51,25.13a1,1,0,1,1-1-1.12A1,1,0,0,1,172.51,25.13Z" style="fill:#eae3dd"/><path d="M179.89,24.34c0,.64-.37,1.16-.81,1.16s-.81-.52-.81-1.16.36-1.16.81-1.16S179.89,23.7,179.89,24.34Z" style="fill:#eae3dd"/><path d="M164.29,16.87a1.6,1.6,0,1,1-1.59-1.68A1.64,1.64,0,0,1,164.29,16.87Z" style="fill:#eae3dd"/><path d="M169.59,21.23c0,.61-.21,1.1-.48,1.1s-.48-.49-.48-1.1.22-1.09.48-1.09S169.59,20.63,169.59,21.23Z" style="fill:#eae3dd"/><path d="M159.73,21.66a1.58,1.58,0,1,1-1.58-1.52A1.55,1.55,0,0,1,159.73,21.66Z" style="fill:#eae3dd"/><path d="M153.28,13.38c0,1.38-.84,2.5-1.89,2.5s-1.88-1.12-1.88-2.5.84-2.49,1.88-2.49S153.28,12,153.28,13.38Z" style="fill:#eae3dd"/><ellipse cx="151.14" cy="21.66" rx="1.19" ry="1.52" style="fill:#eae3dd"/><path d="M142,17.58c0,.94-.32,1.71-.73,1.71s-.73-.77-.73-1.71.33-1.7.73-1.7S142,16.64,142,17.58Z" style="fill:#eae3dd"/><path d="M138.18,14.23a2.22,2.22,0,0,1-4.29,0,2.22,2.22,0,0,1,4.29,0Z" style="fill:#eae3dd"/><ellipse cx="133.26" cy="21.66" rx="0.62" ry="1.52" style="fill:#eae3dd"/><path d="M145.53,10c0,1.13-.5,2-1.12,2s-1.12-.91-1.12-2,.5-2,1.12-2S145.53,8.88,145.53,10Z" style="fill:#eae3dd"/><path d="M166.12,11a1.71,1.71,0,1,1-1.71-1.65A1.68,1.68,0,0,1,166.12,11Z" style="fill:#eae3dd"/><path d="M179.08,11.69a1.52,1.52,0,1,1-3,0,1.52,1.52,0,1,1,3,0Z" style="fill:#eae3dd"/><path d="M122.72,18.28c0,1-.58,1.86-1.29,1.86s-1.29-.83-1.29-1.86.58-1.86,1.29-1.86S122.72,17.26,122.72,18.28Z" style="fill:#eae3dd"/><path d="M130.23,14.63a1.19,1.19,0,1,1-1.18-1.25A1.22,1.22,0,0,1,130.23,14.63Z" style="fill:#eae3dd"/><path d="M127.86,22.21a.84.84,0,1,1-1.65,0,.84.84,0,1,1,1.65,0Z" style="fill:#eae3dd"/><ellipse cx="110.13" cy="21.66" rx="1.45" ry="1.52" style="fill:#eae3dd"/><path d="M115.53,16.73a1.13,1.13,0,0,1-2.19,0,1.13,1.13,0,0,1,2.19,0Z" style="fill:#eae3dd"/><path d="M102.43,20.16c0,.89-.48,1.61-1.08,1.61s-1.07-.72-1.07-1.61.48-1.6,1.07-1.6S102.43,19.28,102.43,20.16Z" style="fill:#eae3dd"/><ellipse cx="95.95" cy="22.89" rx="1.54" ry="1.12" style="fill:#eae3dd"/><path d="M88,23.65a.82.82,0,1,1-.82-.76A.79.79,0,0,1,88,23.65Z" style="fill:#eae3dd"/><ellipse cx="95.75" cy="19.16" rx="1.04" ry="0.98" style="fill:#eae3dd"/><path d="M109.45,16.11a1.29,1.29,0,1,1-2.55,0,1.29,1.29,0,1,1,2.55,0Z" style="fill:#eae3dd"/><path d="M127,10a2.57,2.57,0,0,1-5,0,2.57,2.57,0,0,1,5,0Z" style="fill:#eae3dd"/><path d="M137.92,7.48a1.29,1.29,0,1,1-2.57,0,1.29,1.29,0,1,1,2.57,0Z" style="fill:#eae3dd"/><ellipse cx="193.06" cy="11.3" rx="1.55" ry="1.29" style="fill:#eae3dd"/><path d="M284.66,55a1.07,1.07,0,1,1-1-1.34A1.22,1.22,0,0,1,284.66,55Z" style="fill:#eae3dd"/><path d="M294.52,57.24a.72.72,0,1,1-.7-.88A.81.81,0,0,1,294.52,57.24Z" style="fill:#eae3dd"/><path d="M284.05,40.5a1,1,0,1,1-1-1.25A1.14,1.14,0,0,1,284.05,40.5Z" style="fill:#eae3dd"/><path d="M275.53,44.4a1,1,0,1,1-1-1.07A1,1,0,0,1,275.53,44.4Z" style="fill:#eae3dd"/><path d="M267.25,38.12a1,1,0,1,1-1-1.14A1.09,1.09,0,0,1,267.25,38.12Z" style="fill:#eae3dd"/><path d="M256.41,42a.95.95,0,1,1-.94-.88A.92.92,0,0,1,256.41,42Z" style="fill:#eae3dd"/><path d="M281.37,36.49A1.36,1.36,0,1,1,280,34.87,1.51,1.51,0,0,1,281.37,36.49Z" style="fill:#eae3dd"/><ellipse cx="289.01" cy="51.16" rx="1.19" ry="1.25" style="fill:#eae3dd"/><path d="M278.69,54a1.19,1.19,0,1,1-1.19-1.25A1.21,1.21,0,0,1,278.69,54Z" style="fill:#eae3dd"/><ellipse cx="283.44" cy="61.26" rx="0.85" ry="1.25" style="fill:#eae3dd"/><path d="M292.45,64.55c0,.59-.35,1.06-.79,1.06s-.79-.47-.79-1.06.35-1.07.79-1.07S292.45,64,292.45,64.55Z" style="fill:#eae3dd"/><path d="M298.39,68.75a1,1,0,1,1-1-1A1,1,0,0,1,298.39,68.75Z" style="fill:#eae3dd"/><path d="M293.48,75.75a1.31,1.31,0,1,1-1.3-1.19A1.25,1.25,0,0,1,293.48,75.75Z" style="fill:#eae3dd"/><path d="M295.49,73.35c0,.2-.21.36-.48.36s-.49-.16-.49-.36.22-.37.49-.37S295.49,73.14,295.49,73.35Z" style="fill:#eae3dd"/><path d="M279.85,74.89c0,.47-.26.86-.58.86s-.58-.39-.58-.86.26-.87.58-.87S279.85,74.41,279.85,74.89Z" style="fill:#eae3dd"/><ellipse cx="286.91" cy="72.31" rx="0.91" ry="0.67" style="fill:#eae3dd"/><path d="M274.43,83.33c0,.5-.2.91-.46.91s-.45-.41-.45-.91.2-.91.45-.91S274.43,82.83,274.43,83.33Z" style="fill:#eae3dd"/><path d="M284.66,82.57a1,1,0,1,1-1-1.13A1.09,1.09,0,0,1,284.66,82.57Z" style="fill:#eae3dd"/><ellipse cx="292.42" cy="84.7" rx="1.07" ry="1.37" style="fill:#eae3dd"/><path d="M292.18,89.63c0,.72-.45,1.31-1,1.31s-1-.59-1-1.31.44-1.31,1-1.31S292.18,88.91,292.18,89.63Z" style="fill:#eae3dd"/><path d="M286.91,96.11a.86.86,0,1,1-.85-.73A.8.8,0,0,1,286.91,96.11Z" style="fill:#eae3dd"/><path d="M279.27,93.53a.67.67,0,1,1-.65-.82A.75.75,0,0,1,279.27,93.53Z" style="fill:#eae3dd"/><ellipse cx="273.47" cy="91.73" rx="1.51" ry="1.46" style="fill:#eae3dd"/><path d="M276.07,98.76a.55.55,0,1,1-.54-.58A.56.56,0,0,1,276.07,98.76Z" style="fill:#eae3dd"/><path d="M283.62,100.13a.65.65,0,1,1-1.28,0,.65.65,0,1,1,1.28,0Z" style="fill:#eae3dd"/><path d="M289.91,99.28c0,.28-.35.51-.77.51s-.77-.23-.77-.51.35-.52.77-.52S289.91,99,289.91,99.28Z" style="fill:#eae3dd"/><path d="M262.8,102.25a1,1,0,0,1-2.07,0,1,1,0,0,1,2.07,0Z" style="fill:#eae3dd"/><path d="M288.37,87.46c0,.34-.18.62-.39.62s-.4-.28-.4-.62.18-.61.4-.61S288.37,87.13,288.37,87.46Z" style="fill:#eae3dd"/><path d="M298.39,81.45a1.46,1.46,0,1,1-1.45-1.65A1.56,1.56,0,0,1,298.39,81.45Z" style="fill:#eae3dd"/><path d="M275.53,75.08c0,.76-.46,1.37-1,1.37s-1-.61-1-1.37.46-1.37,1-1.37S275.53,74.33,275.53,75.08Z" style="fill:#eae3dd"/><path d="M286.59,76.7a1.15,1.15,0,1,1-1.15-1.07A1.11,1.11,0,0,1,286.59,76.7Z" style="fill:#eae3dd"/><path d="M289.56,59.57a1.78,1.78,0,1,1-1.75-1.44A1.63,1.63,0,0,1,289.56,59.57Z" style="fill:#eae3dd"/><path d="M297.73,54a1.66,1.66,0,1,1-1.61-1.25A1.46,1.46,0,0,1,297.73,54Z" style="fill:#eae3dd"/><path d="M294.8,41.81a2,2,0,1,1-2-1.82A1.89,1.89,0,0,1,294.8,41.81Z" style="fill:#eae3dd"/><path d="M275,34.46a1.27,1.27,0,1,1-1.25-1.05A1.16,1.16,0,0,1,275,34.46Z" style="fill:#eae3dd"/><path d="M269.19,48.79a1.84,1.84,0,1,1-1.82-2.09A2,2,0,0,1,269.19,48.79Z" style="fill:#eae3dd"/><path d="M272.48,54.87a1.14,1.14,0,1,1-1.14-1.19A1.16,1.16,0,0,1,272.48,54.87Z" style="fill:#eae3dd"/><ellipse cx="260.8" cy="97.8" rx="0.97" ry="0.96" style="fill:#eae3dd"/><path d="M268.33,101.48c0,.31-.34.56-.76.56s-.75-.25-.75-.56.34-.56.75-.56S268.33,101.17,268.33,101.48Z" style="fill:#eae3dd"/><path d="M279.27,65.3a1.51,1.51,0,1,1-1.48-1.82A1.68,1.68,0,0,1,279.27,65.3Z" style="fill:#eae3dd"/><path d="M270.2,68.44a1.42,1.42,0,0,1-2.83,0,1.42,1.42,0,0,1,2.83,0Z" style="fill:#eae3dd"/><path d="M269.19,60.41c0,.47-.53.85-1.18.85s-1.19-.38-1.19-.85.53-.84,1.19-.84S269.19,60,269.19,60.41Z" style="fill:#eae3dd"/><path d="M270.2,77.52c0,.59-.32,1.06-.71,1.06s-.71-.47-.71-1.06.32-1.07.71-1.07S270.2,76.93,270.2,77.52Z" style="fill:#eae3dd"/><path d="M266.21,85.55a1.37,1.37,0,1,1-1.37-1.31A1.33,1.33,0,0,1,266.21,85.55Z" style="fill:#eae3dd"/><path d="M261.77,53.09a1.52,1.52,0,1,1-1.46-1.93A1.75,1.75,0,0,1,261.77,53.09Z" style="fill:#eae3dd"/></g></g></svg>