<svg xmlns="http://www.w3.org/2000/svg" viewBox="0 0 289.57 158.29"><title>Asset 14</title><g id="Layer_2" data-name="Layer 2"><g id="Ñëîé_2" data-name="Ñëîé 2"><path d="M198.38,42.29a146.24,146.24,0,0,0-41-19,150.56,150.56,0,0,0-74.15-2.42,115.8,115.8,0,0,0-19,5.95h0c-15.23,6.3-28.86,16-39.15,29.16-.53.67-1,1.36-1.55,2.06,0,0-3.31,10.07-6.6,10.92s-6.17-6.76-6.17-6.76c-1.52-1-3-1.92-4.74-1.67-3.15.44-4.33,4.52-3.8,7.67s2,6.26,1.38,9.39C2.8,81.84-1.74,86,.72,89.58c1.7,2.43,4.61,1.77,7.74,1,0,0,5.38-7.15,8.75-5S23,96,23.06,96.31h0A116.43,116.43,0,0,0,47.79,118C57,115.9,71.91,110.2,76.23,95.18a16.07,16.07,0,0,1-2.66-1.31h0a6,6,0,0,1-3.19-4.25C69.65,84.12,75,82.48,75,82.48l2.4-.46c-1-28.49-7.51-39,21.05-48.71,29.74-10.12,73-4.91,121,24.78C212.5,52.7,205.66,47.18,198.38,42.29ZM45.52,52A9.51,9.51,0,1,1,36,61.46,9.5,9.5,0,0,1,45.52,52Zm16.57,42.9c-8.29,11.94-28.76-3-28.76-3-11.7-13.5,7.8-10.38,21.45-16.23S70.38,82.9,62.09,94.85Z" style="fill:#e06817"/><path d="M23.6,58.09S20.29,68.16,17,69s-6.17-6.76-6.17-6.76a10.59,10.59,0,0,0,3.88,1.85C18.44,64.72,21.36,61.13,23.6,58.09Z" style="fill:#d16319"/><path d="M23.06,96.31c-.48-.55-.95-1.11-1.41-1.67-1.69-2.06-3.51-4.32-6.1-4.91-2.2-.5-4.71.2-7.09.81,0,0,5.38-7.15,8.75-5S23,96,23.06,96.31Z" style="fill:#d16319"/><path d="M227.69,96.76A13.71,13.71,0,0,0,223.2,94l0,0c-.33-.37-4.48-4.69-12.42.2-8.28,5.09-12.28,31.26-63,34.87s-77.8-6.63-83.41-7.6c-3.19-.55-4.58.54-3.18,4.26A126.31,126.31,0,0,1,47.79,118C57,115.9,71.91,110.2,76.23,95.18c3.81,1.51,9,2.33,13.89,2.89,7.55.86,12.74,1.14,15.55-2.1a138.32,138.32,0,0,0,14.79,6.33c22.23,8.08,56.41,15.92,75-4.52,4.62-5.08,8.27-12.47,16.06-12.2,10.24.37,9.65-13.89,7.94-19s-11.23-.61-25.12-8S161,35,112.42,47.86C82.7,55.72,76.06,68.4,85.33,80.69q-3.66.53-8,1.33c-1-28.49-7.51-39,21.05-48.71,29.74-10.12,73-4.91,121,24.78.7.54,1.41,1.09,2.16,1.61,2.46,1.71,5.15,3.09,8.06,2.84l.15,0C231.76,67.63,236.29,82.77,227.69,96.76Z" style="fill:#f9761e"/><path d="M223.18,93.94a9,9,0,0,0-3.7-.5c-3.18.25-5.66,2.15-7.75,4.63q-.22.25-.42.51a74.48,74.48,0,0,0-4.34,6.31c-14.28,22-41.45,32.36-67.56,34.89a148.08,148.08,0,0,1-47.65-3.16,139,139,0,0,1-30.64-11c-1.4-3.72,0-4.81,3.18-4.26,5.61,1,32.64,11.21,83.41,7.6s54.77-29.78,63-34.87C218.7,89.25,222.85,93.57,223.18,93.94Z" style="fill:#e06817"/><path d="M236.75,107.51q-1.71-2-3.32-4.14a45.67,45.67,0,0,0-5.74-6.61c8.6-14,4.07-29.13,2.11-34.24a15.65,15.65,0,0,0,5.56-2.08q3.06-1.65,6.14-3.38C244.88,62.69,255.28,83.9,236.75,107.51Z" style="fill:#f4bd76"/><path d="M283.21,132.72a12.71,12.71,0,0,1,1.05,7.72,110.74,110.74,0,0,1-47.51-32.93c18.53-23.61,8.13-44.82,4.75-50.45,15.29-8.54,30.73-17.74,48.07-18.54-2.6,3.55-5.28,7.46-6.65,11.57-9.86,2.25-24.31,5.79-30.85,8.5-8.43,3.5,14.6-1.33,29.91-3.2a14.22,14.22,0,0,0,.27,2.81c.16.78.38,1.55.59,2.33-8.17,2.84-19,5.84-24.74,6.78-10.72,1.73,4.21,4,22.18,4-.4,1-.77,2-1.1,3a179.76,179.76,0,0,1-20.35,1.73c-10.9,0-2.28,5.31,18.39,8.24-.11,1.2-.14,2.4-.14,3.6-7.54,0-15.09-.24-18.79-.69-10.49-1.29-8.51,3.94,20.1,11,.14.53.29,1.07.45,1.6.55,1.86,1.24,3.73,1.63,5.62-9.38-.8-19.79-2.59-24.93-5.26-13.1-6.81-6.09,3.81,22.81,16.65,0,.19-.08.38-.11.57a11.2,11.2,0,0,0,.09,3.7c-7.48-2.55-15.42-5.69-20.41-8.49C243.13,104.31,247,112.43,283.21,132.72Z" style="fill:#eae3dd"/><path d="M278.39,98.25c-28.61-7.08-30.59-12.31-20.1-11,3.7.45,11.25.67,18.79.69A42.39,42.39,0,0,0,278.39,98.25Z" style="fill:#dbd3ce"/><path d="M279.18,74.35a42.34,42.34,0,0,0-2,10c-20.67-2.93-29.29-8.24-18.39-8.24A179.76,179.76,0,0,0,279.18,74.35Z" style="fill:#dbd3ce"/><path d="M280.66,109.48c-.35,2.56-1.78,4.87-2.31,7.38-28.9-12.84-35.91-23.46-22.81-16.65,5.14,2.67,15.55,4.46,24.93,5.26A12,12,0,0,1,280.66,109.48Z" style="fill:#dbd3ce"/><path d="M283.21,132.72c-36.21-20.29-40.08-28.41-25.29-20.08,5,2.8,12.93,5.94,20.41,8.49C279.08,125.07,281.63,128.87,283.21,132.72Z" style="fill:#dbd3ce"/><path d="M282.92,50.09a16.67,16.67,0,0,0-.94,5.3c-15.31,1.87-38.34,6.7-29.91,3.2C258.61,55.88,273.06,52.34,282.92,50.09Z" style="fill:#dbd3ce"/><path d="M283.26,63.5c-.08,2-1.07,3.73-1.93,5.49-.37.78-.73,1.57-1.05,2.37-18-.1-32.9-2.32-22.18-4,5.76-.94,16.57-3.94,24.74-6.78A10.35,10.35,0,0,1,283.26,63.5Z" style="fill:#dbd3ce"/><path d="M225.6,58.59c-1.22.41-2.56.78-4,1.11-.75-.52-1.46-1.07-2.16-1.61-6.93-5.39-13.77-10.91-21.05-15.8a146.24,146.24,0,0,0-41-19,150.56,150.56,0,0,0-74.15-2.42,115.8,115.8,0,0,0-19,5.95,63,63,0,0,1,5.33-7.3C95.44,9.84,117.9,2,169.33,14.42S225.6,58.59,225.6,58.59Z" style="fill:#f4bd76"/><path d="M237.22,47.53c-.31,4.25-3.43,8.37-11.62,11.06,0,0-4.84-31.74-56.27-44.17s-73.89-4.58-99.7,5.14A66.21,66.21,0,0,1,81.53,8.29c1.4,3.87,4.62,3.88,4.93,2.17.15-.8,1-3.67,1.9-6.32.78-.39,1.58-.77,2.4-1.11-.41,7.05,1.47,6.89,3,4a65.4,65.4,0,0,1,3.86-5.82,24.26,24.26,0,0,1,3.83,0c-2.26,7.31.89,7.23,2.54,4.75.51-.76,1.75-2.31,3.2-4,1.19-.1,2.2-.53,4.6-.84l.85-.11c-1.85,5.76.13,7.12,1,4.75A31.77,31.77,0,0,1,117,.42h0a8.11,8.11,0,0,1,3.86.65,9.89,9.89,0,0,0,1.61.56c-.23,4.23.52,5.57,3,2.61a23,23,0,0,0,1.46-2A24,24,0,0,0,130.09,2a10.23,10.23,0,0,0,2.78-.93c1,6.32,1.38,5.56,2.76,5.56,1.12,0,1.69-2.84,3.51-6.12a11.13,11.13,0,0,1,1.92,1A10.85,10.85,0,0,0,144.78,3c-2,6.59.75,6.79,4.56,1.82.41-.53.83-1.07,1.25-1.63h0c2.65-.26,5.18-.82,7.17-1.1-.64,5.95-2.4,9,.16,6,1-1.2,2.94-3.72,4.9-6.09,1.08.3,2,1,3.57,2.5A10.12,10.12,0,0,0,168.79,6h0c.45,4.57,2.11,7.38,3.4,4.63.37-.78.92-1.83,1.57-3a38.16,38.16,0,0,0,6.15.83c-.7,4.87-1.49,6.57.51,4.14.73-.88,1.91-2.43,3.19-4a22.35,22.35,0,0,1,4.43.57c-1.48,5.39-2.34,9.76.24,8.22a66.33,66.33,0,0,0,6-5.17c.45.37.89.76,1.33,1.2a9.86,9.86,0,0,0,1.67,1.33c-4.28,8.27-1.64,8-.82,7,.38-.45,2.76-2.76,5.28-4.91,1.49.55,3,1.09,4.51,1.72-1.85,4.58-3.37,8.65-.65,6.3,1.22-1,2.92-2.71,4.54-4.24,0,0,0,0,0,0A13.92,13.92,0,0,1,212,22.21l.62.67c-2.46,4.64-5.17,9.41-2.57,7a25.86,25.86,0,0,1,5.61-3.53,13.41,13.41,0,0,0,3.58,2.95c-2.92,2.71-5.61,5.14-4.07,5.5,1,.24,4.74-2,8.11-4.05.44.1.9.19,1.39.27a5.78,5.78,0,0,1,1.17.33c-4.66,5.63-8.91,13.14-3.18,8a39.9,39.9,0,0,1,7.81-5.08,23.15,23.15,0,0,1,2,2c-9.76,6.6-14.86,12.15-6.15,7.13a24.24,24.24,0,0,1,9.23-2.81,15.67,15.67,0,0,1,1.41,3.69c-8.24,1.58-13.65,2.39-8.81,3.32A34.12,34.12,0,0,0,237.22,47.53Z" style="fill:#eae3dd"/><path d="M88.36,4.14c-.92,2.65-1.75,5.52-1.9,6.32-.31,1.71-3.53,1.7-4.93-2.17A48.3,48.3,0,0,1,88.36,4.14Z" style="fill:#dbd3ce"/><path d="M97.64,1.16A65.4,65.4,0,0,0,93.78,7c-1.55,2.94-3.43,3.1-3-4A36.75,36.75,0,0,1,95,1.5,24.21,24.21,0,0,1,97.64,1.16Z" style="fill:#dbd3ce"/><path d="M107.21,1.91c-1.45,1.67-2.69,3.22-3.2,4-1.65,2.48-4.8,2.56-2.54-4.75a14.87,14.87,0,0,1,2.3.36A9.9,9.9,0,0,0,107.21,1.91Z" style="fill:#dbd3ce"/><path d="M117,.42a31.77,31.77,0,0,0-3.26,5.29c-.91,2.37-2.89,1-1-4.75C114.37.72,115.73.48,117,.42Z" style="fill:#dbd3ce"/><path d="M126.86,2.22a23,23,0,0,1-1.46,2c-2.44,3-3.19,1.62-3-2.61A15.84,15.84,0,0,0,126.86,2.22Z" style="fill:#dbd3ce"/><path d="M139.14.5c-1.82,3.28-2.39,6.12-3.51,6.12-1.38,0-1.79.76-2.76-5.56C134.65.27,136.46-.55,139.14.5Z" style="fill:#dbd3ce"/><path d="M150.59,3.16c-.42.56-.84,1.1-1.25,1.63-3.81,5-6.56,4.77-4.56-1.82A19.5,19.5,0,0,0,150.59,3.16Z" style="fill:#dbd3ce"/><path d="M162.83,1.93c-2,2.37-3.87,4.89-4.9,6.09-2.56,3-.8,0-.16-6l.59-.07A12.34,12.34,0,0,1,162.83,1.93Z" style="fill:#dbd3ce"/><path d="M173.76,7.68c-.65,1.13-1.2,2.18-1.57,3-1.29,2.75-2.95-.06-3.4-4.63A22.13,22.13,0,0,0,173.76,7.68Z" style="fill:#dbd3ce"/><path d="M183.61,8.61c-1.28,1.61-2.46,3.16-3.19,4-2,2.43-1.21.73-.51-4.14.72,0,1.42.06,2.09.06S183.09,8.58,183.61,8.61Z" style="fill:#dbd3ce"/><path d="M194.32,12.23a66.33,66.33,0,0,1-6,5.17c-2.58,1.54-1.72-2.83-.24-8.22A15.06,15.06,0,0,1,194.32,12.23Z" style="fill:#dbd3ce"/><path d="M201.78,16.88c-2.52,2.15-4.9,4.46-5.28,4.91-.82,1-3.46,1.24.82-7A23.9,23.9,0,0,0,201.78,16.88Z" style="fill:#dbd3ce"/><path d="M210.18,20.66c-1.62,1.53-3.32,3.19-4.54,4.24-2.72,2.35-1.2-1.72.65-6.3A20.32,20.32,0,0,1,210.18,20.66Z" style="fill:#dbd3ce"/><path d="M215.64,26.32A25.86,25.86,0,0,0,210,29.85c-2.6,2.44.11-2.33,2.57-7C213.78,24.17,214.71,25.32,215.64,26.32Z" style="fill:#dbd3ce"/><path d="M223.26,30.72c-3.37,2.09-7.07,4.29-8.11,4.05-1.54-.36,1.15-2.79,4.07-5.5A15.08,15.08,0,0,0,223.26,30.72Z" style="fill:#dbd3ce"/><path d="M230.45,34.26a39.9,39.9,0,0,0-7.81,5.08c-5.73,5.12-1.48-2.39,3.18-8A15.94,15.94,0,0,1,230.45,34.26Z" style="fill:#dbd3ce"/><path d="M235.53,40.55a24.24,24.24,0,0,0-9.23,2.81c-8.71,5-3.61-.53,6.15-7.13A22.44,22.44,0,0,1,235.53,40.55Z" style="fill:#dbd3ce"/><path d="M237.22,47.53a34.12,34.12,0,0,1-9.09,0c-4.84-.93.57-1.74,8.81-3.32A10.79,10.79,0,0,1,237.22,47.53Z" style="fill:#dbd3ce"/><path d="M218.91,102.07c-1.22,7.47-7.56,29.13-40.5,40.36-37,12.63-68.23,4-72.91,2.59h0c-5.91-3.32-10.83-6.48-13.72-8.39a148.08,148.08,0,0,0,47.65,3.16c26.11-2.53,53.28-12.89,67.56-34.89a74.48,74.48,0,0,1,4.34-6.31C212.1,100.27,215.31,101.08,218.91,102.07Z" style="fill:#f4bd76"/><path d="M228.59,138a15.54,15.54,0,0,1-3.94,1.17,77.89,77.89,0,0,1-9.32-9.92c-5.39-7.41-4.26-1.31,1.1,10.27-1.63-.07-3.29-.19-4.94-.34a20,20,0,0,0-4.27,0c-5.58-7.1-7-9.52-3.55,1.08-2,1.1-3.18,2.84-4.51,4.77-4.08-4.57-7.18-8.91-3.42,4.28l-.09.09a16.44,16.44,0,0,1-4.61,3c-1.69-2.6-3.27-5.12-4.22-6.53-2.61-3.79-1.44,1.15.23,8a41.83,41.83,0,0,1-6,1.22,24,24,0,0,1-1.72-3.71c-1.26-4.13-4.8-8.6-4.07,4.16-1.13,0-2.22,0-3.24,0a40.09,40.09,0,0,0-4.37.07c-.84-1.21-1.61-2.34-2.21-3.11-2.42-3.14-2.85-1.17-2.87,3.75-1.63.23-3.62.51-6.31.83-3.25-4.4-5.14-11.95-5.48.59-1.29.13-2.69.27-4.22.4a17.68,17.68,0,0,0-1.77-2.83c-2.91-3.55-5.1-4-6.33,2.75a48.76,48.76,0,0,1-6.32-1.31c-3.11-4.73-4.79-9-6-5.83a12,12,0,0,0-.62,3.69,146,146,0,0,1-20-9.51c4.68,1.43,35.86,10,72.91-2.59,32.94-11.23,39.28-32.89,40.5-40.36,1.41.38,2.88.8,4.28,1.3,2.61.95,4.69,3.91,6.27,7.83-3.09-1.32-6.44-2.47-5.72-.94s3.66,4,7.52,6.63h0c.24.94.45,1.89.65,2.86-3-1.37-6-2.79-8.27-3.73-6.7-2.83-2.42,4.17,9.57,14.6a9,9,0,0,1-.35,2.54c-4.68-3.09-9.93-6.79-12.39-8.82C214.43,119.35,218.77,125.44,228.59,138Z" style="fill:#eae3dd"/><path d="M231.26,116.89c-3.86-2.66-6.75-5-7.52-6.63s2.63-.38,5.72.94A42.24,42.24,0,0,1,231.26,116.89Z" style="fill:#dbd3ce"/><path d="M233.21,130.62c-12-10.43-16.27-17.43-9.57-14.6,2.24.94,5.3,2.36,8.27,3.73a78.93,78.93,0,0,1,1.28,9.7C233.21,129.86,233.22,130.25,233.21,130.62Z" style="fill:#dbd3ce"/><path d="M232.86,133.16a7.44,7.44,0,0,1-4.27,4.86c-9.82-12.58-14.16-18.67-8.12-13.68C222.93,126.37,228.18,130.07,232.86,133.16Z" style="fill:#dbd3ce"/><path d="M224.65,139.19a39,39,0,0,1-8.22.35c-5.36-11.58-6.49-17.68-1.1-10.27A77.89,77.89,0,0,0,224.65,139.19Z" style="fill:#dbd3ce"/><path d="M207.22,139.22a9.84,9.84,0,0,0-3.55,1.08C200.26,129.7,201.64,132.12,207.22,139.22Z" style="fill:#dbd3ce"/><path d="M199.16,145.07a25.83,25.83,0,0,1-3.42,4.28C192,136.16,195.08,140.5,199.16,145.07Z" style="fill:#dbd3ce"/><path d="M191,152.43a26.18,26.18,0,0,1-4,1.45c-1.67-6.83-2.84-11.77-.23-8C187.77,147.31,189.35,149.83,191,152.43Z" style="fill:#dbd3ce"/><path d="M181,155.1a56.64,56.64,0,0,1-5.79.45c-.73-12.76,2.81-8.29,4.07-4.16A24,24,0,0,0,181,155.1Z" style="fill:#dbd3ce"/><path d="M167.64,155.6c-1.54.12-3,.34-5.08.64,0-4.92.45-6.89,2.87-3.75C166,153.26,166.8,154.39,167.64,155.6Z" style="fill:#dbd3ce"/><path d="M156.25,157.07c-1.57.18-3.37.39-5.48.59C151.11,145.12,153,152.67,156.25,157.07Z" style="fill:#dbd3ce"/><path d="M146.55,158.06l-1.77.15a28.5,28.5,0,0,1-6.33-.23c1.23-6.72,3.42-6.3,6.33-2.75A17.68,17.68,0,0,1,146.55,158.06Z" style="fill:#dbd3ce"/><path d="M132.13,156.67c-2.17-.59-4.38-1.31-6.62-2.14a12,12,0,0,1,.62-3.69C127.34,147.62,129,151.94,132.13,156.67Z" style="fill:#dbd3ce"/><path d="M219.43,66.57c-1.72-5.11-11.23-.61-25.12-8S161,35,112.42,47.86C82.7,55.72,76.06,68.4,85.33,80.69c20.26-3,25.89-.39,26.93,2a2.32,2.32,0,0,1-.39,2.48c-1.64,1.77-2.56,2.42-4.75,8.27A8.12,8.12,0,0,1,105.67,96a138.32,138.32,0,0,0,14.79,6.33c22.23,8.08,56.41,15.92,75-4.52,4.62-5.08,8.27-12.47,16.06-12.2C221.73,86,221.14,71.69,219.43,66.57ZM171,81.33a80.44,80.44,0,0,1-9,1.12c-12.35.86-24.88-.83-37.07-2.53-33.63-4.7-30.46-18.46-5.85-24.31s56.3-2.93,66.54,11C192.72,76.15,177.82,80.08,171,81.33Z" style="fill:#ff8a29"/><path d="M171,81.33a80.44,80.44,0,0,1-9,1.12c-12.35.86-24.88-.83-37.07-2.53-33.63-4.7-30.46-18.46-5.85-24.31s56.3-2.93,66.54,11C192.72,76.15,177.82,80.08,171,81.33Z" style="fill:#ff9536"/><path d="M62.09,94.85c-8.29,11.94-28.76-3-28.76-3-11.7-13.5,7.8-10.38,21.45-16.23S70.38,82.9,62.09,94.85Z" style="fill:#f9761e"/><path d="M48.32,61.46a4.88,4.88,0,1,1-4.87-4.88A4.87,4.87,0,0,1,48.32,61.46Z" style="fill:#2b2b2b"/><path d="M45.52,52A9.51,9.51,0,1,0,55,61.46,9.51,9.51,0,0,0,45.52,52ZM43.45,66.33a4.88,4.88,0,1,1,4.87-4.87A4.87,4.87,0,0,1,43.45,66.33Z" style="fill:#eae3dd"/><path d="M112.26,82.69s-6.05,2-7.88,6.29a9.51,9.51,0,0,1-3.65,4.3c-3.74,2.46-10.79,3.89-24.3,1.2l-2.86-.61h0a6,6,0,0,1-3.19-4.25C69.65,84.12,75,82.48,75,82.48l2.4-.46q4.32-.81,8-1.33C105.59,77.68,111.22,80.3,112.26,82.69Z" style="fill:#f4bd76"/><path d="M111.87,85.17c-1.64,1.77-2.56,2.42-4.75,8.27A8.12,8.12,0,0,1,105.67,96c-2.81,3.24-8,3-15.55,2.1-4.94-.56-10.08-1.38-13.89-2.89a16.07,16.07,0,0,1-2.66-1.31l2.86.61c13.51,2.69,20.56,1.26,24.3-1.2a9.51,9.51,0,0,0,3.65-4.3c1.83-4.27,7.88-6.29,7.88-6.29A2.32,2.32,0,0,1,111.87,85.17Z" style="fill:#e5a967"/><path d="M44.91,58.31a2.88,2.88,0,1,1,2.88,2.88A2.88,2.88,0,0,1,44.91,58.31Z" style="fill:#eae3dd"/><path d="M239.49,97.46a43,43,0,0,0,2.28-4.59c2.42-5.22,3.81-11.21,2.55-16.92-2.38-10.78-8.39-12.24-7.57-3.65.44,4.72.88,9.57.22,14.3-.46,3.29-2.85,6.17-3,9.57-.07,1.33.3,3.57,1.72,4.19C237.35,101.09,238.8,98.6,239.49,97.46Z" style="fill:#f6ca91"/><path d="M170.4,142.37c1.6-.48,3.19-1.05,4.74-1.63,11.09-4.16,22.83-8.87,30.39-18.44l.36-.46a52.54,52.54,0,0,0,5.08-8.3c1-2.09,3.39-5.67,2.49-8.1-1.46-3.9-4.33,1.74-5.1,3-.89,1.51-1.79,3-2.78,4.46-3.59,5.25-8.54,9.38-13.66,13a123.39,123.39,0,0,1-16.67,10.43,38.76,38.76,0,0,1-8.6,3.38c-2.23.5-5.12.4-6.61,2.45-.84,1.14.77,1.32,1.67,1.37A25.42,25.42,0,0,0,170.4,142.37Z" style="fill:#f6ca91"/><path d="M119.23,15.6S177,17.85,208.31,45.3a90.79,90.79,0,0,0,8.19,6.59c.95.65,2,1.75,3.19,2,3.48.63-1-5.16-1.43-5.78-9.68-12.84-23-23.75-38.56-28.43a186.34,186.34,0,0,0-19.16-4.2,218.73,218.73,0,0,0-23.21-3.21c-6-.47-12.17-.81-18.1.19a18.89,18.89,0,0,0-4.48,1.25.73.73,0,0,0-.39.32C113.82,15.15,118.56,15.6,119.23,15.6Z" style="fill:#f6ca91"/></g></g></svg>