<svg xmlns="http://www.w3.org/2000/svg" viewBox="0 0 256.8 125.83"><title>knight-goby</title><g id="Layer_2" data-name="Layer 2"><g id="Ñëîé_2" data-name="Ñëîé 2"><path d="M256.76,65.67s-3-.89-4.32,4.46-4.46,18.35-6.83,20.7-4.17,2.94-4.46,6.06c-.34.59-10.07-1.73-20.86-4.69h0c-6.49-4.72-6.6-7.59-4.86-6.56,2.68,1.59,18.11,10,20.22,9.32s-5.25-5.06-13-9.12-4.76-5.55-.2-3.27S241.79,94.66,243.27,92s-2.67-5-9.61-7.85-21.7-12-7.83-6,20.42,6.27,20.52,5-12.59-6-18.73-7.54-7.59-4.24-3.28-3.46,23.1,6.63,22.92,3.06-4.08-5.35-15.08-5.84-12.69-3.08-7.44-3,23.29,1.79,22.5-1.58S235,62.35,227.81,63.44s-8.92-1.58-3.36-1.88,24.28-3.77,22.69-6.48-12.29.83-20.22,2.61-11.1,1.19-4.76-.79,24-7.73,22.51-9.52-9.13,1.69-18.94,4.86-11.73,2.42-8.52,1.27,28.15-12.57,22.7-12.57-27.56,11.4-26.27,9.61c.87-1.2,13.73-7.29,22-11.12h0c14.29-2.59,14.58-1.69,14.44.07s2.08,2.08,1.93,3.27S257.35,49.17,256.76,65.67Z" style="fill:#b5e2c9"/><path d="M224.34,72.17c4.32.79,23.1,6.63,22.92,3.06s-4.08-5.35-15.08-5.84-12.69-3.08-7.44-3,23.29,1.79,22.5-1.58S235,62.35,227.81,63.44s-8.92-1.58-3.36-1.88,24.28-3.77,22.69-6.48-12.29.83-20.22,2.61-11.1,1.19-4.76-.79,24-7.73,22.51-9.52-9.13,1.69-18.94,4.86-11.73,2.42-8.52,1.27,28.15-12.57,22.7-12.57-27.56,11.4-26.27,9.61c.87-1.2,13.73-7.29,22-11.12l-.42.07c-12.07,2.2-27.63,8.79-39.57,13.15.3.17,9.83,5.91,9.83,16.89A18,18,0,0,1,200,82.87a15,15,0,0,1-3,2.28c5.74,2,14.84,4.73,23.29,7-6.49-4.72-6.6-7.59-4.86-6.56,2.68,1.59,18.11,10,20.22,9.32s-5.25-5.06-13-9.12-4.76-5.55-.2-3.27S241.79,94.66,243.27,92s-2.67-5-9.61-7.85-21.7-12-7.83-6,20.42,6.27,20.52,5-12.59-6-18.73-7.54S220,71.39,224.34,72.17Zm-4.6.21a19.85,19.85,0,0,1-7.44,9.37c-1.51,1.07-4.9,3.29-6.84,2-2.52-1.7,3-8,3-15.13s-3.13-9-4.76-13.53c-.85-2.34,1-3.37,3-3.58a7.14,7.14,0,0,1,2.54.22c3.95,1.09,6.55,4.77,8.54,8.1C220.06,63.55,221.2,68.17,219.74,72.38Z" style="fill:#7a938e"/><path d="M205.46,69.54A18,18,0,0,1,200,82.87s-12.59-7-40-3.87-25.38,11-44,16.57l-.11,0a88,88,0,0,1-24,3.82l-6.37,0h0C82.23,96.51,79,93.56,76,90.45c9.36,1.3,22.39.75,38.07-3.56,22.3-6.14,37.76-15.87,33.41-19.58s-20.93,2.23-33.86,7.13S83.7,76.67,83.7,76.67c-12.2-2-16.16-1.79-18.79-.72a9.69,9.69,0,0,0-2-3.67A3.84,3.84,0,0,0,62.5,72c-1.3-1-3.73-1.77-4.38.2s-5.41,16.61-9.36,19.52,2.37,1.49,2.37,2.08,3.71.43,4,1.83,3.81-.19,3.55.85c-.12.46,1.77,1,4,1.63-.31,0-.63-.08-.94-.12q-2.69-.34-5.38-.8a114.89,114.89,0,0,1-14.5-3.39c-4.05-1.23-7.49-2.18-10.48-2.94C32,90.77,49,88.73,51.58,75.6c2.68-13.35,11.6-8,26-5.47S113,70,131.87,62.51s24.78-4.72,32.11-1.94,20.2,4.52,29.23-7.06l2.42-.86C195.93,52.82,205.46,58.56,205.46,69.54Z" style="fill:#e5ede2"/><path d="M25.41,70.47a0,0,0,0,1,0,0,6.54,6.54,0,0,1-12.92-1v-.38a6.54,6.54,0,0,1,13.08,0A6.64,6.64,0,0,1,25.41,70.47ZM38.79,83.74c-7,2.6-6.13,1-5.25-1.17,0,0,2.48-4.16,2-12.29s8.82-6.74,13.58-5.06S45.83,81.14,38.79,83.74ZM188.36,55.11c-4.9,1.5-13.13,1.21-23.86,0h0c-12.37-1.44-28.07-4.15-45.84-6.87l-8.76-1.31c-2.31-.34-4.65-.68-7-1a130.28,130.28,0,0,0-18.51-1.19q-4.53,0-9,.29C44,46.87,15.54,57.27,8.17,60.62c-9.52,4.31-6.69,11-6.69,11A2,2,0,0,0,.14,74.29,23,23,0,0,0,10.69,84.85c5.73,2.86,10.73,3.43,20.74,6h0C32,90.77,49,88.73,51.58,75.6c2.68-13.35,11.6-8,26-5.47S113,70,131.87,62.51s24.78-4.72,32.11-1.94,20.2,4.52,29.23-7.06C191.49,54.12,189.87,54.66,188.36,55.11Z" style="fill:#bed0b8"/><path d="M200,82.87a15,15,0,0,1-3,2.28c-11.46-4-29.51-6.13-47-1.41h0a70.74,70.74,0,0,0-7.42,2.45c-7.36,2.89-14.19,5.48-20.66,7.58q-3,1-5.9,1.8c18.62-5.6,16.7-13.4,44-16.57S200,82.87,200,82.87Z" style="fill:#bed0b8"/><path d="M122.75,6c-8.72,4.07-10,12.89-14.18,8.82-1.25-1.21-.65-3,.76-4.93C102.57,13.18,91.58,30.29,92.39,30s11.6-13.23,13-14.2,1.64.3.89,1.41S93.81,32.29,89.79,37.3s-1.19,6.66,0,6.51,4.61-.29,6.62.53,3-1,4.9-1.79,2.24-3.64,3.2-7,4.54-5.33,4.81-5.49h0c1.2-1.58,3.16-2.89,2.84-3s-2.68,1.57-3.43,1.64c-.19,0-.3-.21-.34-.56-.43,1.43-3.07,2.12-5.67,3.24s-4.91,1.78-1.72-.75,4-4.08,4.84-6.32S110.11,21,110.11,21C115.56,10.15,130.49,2.34,122.75,6ZM100.13,36c.66,1.34,2,2.38.32,3.18s-1.54.79-3.12,2.38S93.06,43.47,93,42.73s.5-1.44-1-1.94a5.08,5.08,0,0,0-2,0c-.79.25-1.14-1.29.65-2.48s1.48-2.92,2.72-2.48.74,1.44,2.33,1.19S99.48,34.64,100.13,36Z" style="fill:#7a938e"/><path d="M81.32,43.59a4,4,0,0,1,3,1.12q-4.53,0-9,.29s1-3.89,2.72-8.87c-.16,2.2.07,3.56,1,3.33,1.79-.41,2.82-3.38,6.16-11.88s5.65-8.3,5.93-6.54-7.12,12.44-7,14.08,1.85.14,5.12-6.63c2.77-5.75,9.13-13.41,11-15.61a2.69,2.69,0,0,0,1.88-.09,8.47,8.47,0,0,0,1-.5c-.45.63-15.06,20.88-17.47,24.61S82.14,41,80.13,41.44,79.31,43.67,81.32,43.59Z" style="fill:#90bda6"/><path d="M100.35,12.88c-1.88,2.2-8.24,9.86-11,15.61-3.27,6.77-5,8.26-5.12,6.63s7.22-12.31,7-14.08-2.58-2-5.93,6.54-4.37,11.47-6.16,11.88c-1,.23-1.19-1.13-1-3.33v0c2.38-6.95,6.12-16.06,10.39-19.75,0,0,2.68,2.08,5.36-2.88s4.85-9.41,4.35-6.73C97.77,8.86,98.37,12.21,100.35,12.88Z" style="fill:#7a938e"/><path d="M108.57,25.28a13.1,13.1,0,0,0-.17,2.8h0c-.43,1.43-3.07,2.12-5.67,3.24s-4.91,1.78-1.72-.75,4-4.08,4.84-6.32S110.11,21,110.11,21A18.62,18.62,0,0,0,108.57,25.28Z" style="fill:#d8fae8"/><path d="M109.34,9.83h0C102.57,13.18,91.58,30.29,92.39,30s11.6-13.23,13-14.2,1.64.3.89,1.41S93.81,32.29,89.79,37.3s-1.19,6.66,0,6.51,4.61-.29,6.62.53,3-1,4.9-1.79,2.24-3.64,3.2-7,4.54-5.33,4.81-5.49a4,4,0,0,0-.87,1.85c-.3,2.31.57,12.54,1.44,15-2.31-.34-4.65-.68-7-1a130.28,130.28,0,0,0-18.51-1.19,4,4,0,0,0-3-1.12c-2,.08-3.2-1.71-1.19-2.15s3.2-.75,5.65-4.54,17-24,17.47-24.61v0C107.7,9.67,118.48-.18,119.57,0,120.41.14,112.64,5.33,109.34,9.83Z" style="fill:#b5e2c9"/><path d="M169.93,37.81a4.1,4.1,0,0,0-.61.63c-.06-.11-.74-1.47-4.22-1.54-3.65-.07-3.2-.37-3.72-1.93s-2.68-1.79-4.83-1.19-1-1.21-3.5-1.46-4.68.86-5.05-.33,1.19-2.75,0-3.52,1.71-1.53,3.86,0,3.27,1.14,4.39,2.41,2.83.59,4.16,1,2.45.6,3.13,2,3.31,2.17,4.93,1.93a3.4,3.4,0,0,0,1.46.22C171.71,35.89,171.71,36.38,169.93,37.81Z" style="fill:#d8fae8"/><path d="M174.09,53.43c.29.68-9.19,1.61-9.59,1.65h0c-12.37-1.44-28.07-4.15-45.84-6.87C121.11,44,129.37,31,141,25.18c0,0,4.27-2.38,3.38-.79S133.65,37,133.06,40.25c-.52,2.84,5.09-5.39,12-11.68,2.7,3.4-3,9-6.24,11.53-3.49,2.67-7.58,7-.44,1.93s14.57-10,15.16-8.25-7.13,6.47-10.56,9.14-6.84,6.25,2.16.07,14.94-9.58,15.24-7.5-9.74,7-14.57,10-3.86,3.34-1.56,2.67,16.35-9.44,21.26-10.39,1,5.56-1.71,6.9-10.63,2.74-11.82,3.57,2.6.36,10.19-.83,10.25.68,4.08,2.09-18.43,2-13.68,2.53c3.53.38,14.27-.82,19.61-1.48a1.47,1.47,0,0,0-.43,1.15C171.91,54.22,173.79,52.74,174.09,53.43Z" style="fill:#7a938e"/><path d="M172.14,50.59c-5.34.66-16.08,1.86-19.61,1.48-4.75-.52,7.51-1.12,13.68-2.53s3.49-3.27-4.08-2.09-11.38,1.65-10.19.83S161,46,163.76,44.71s6.61-7.84,1.71-6.9-19,9.72-21.26,10.39-3.27.37,1.56-2.67,14.87-8,14.57-10S154.1,36.83,145.1,43s-5.57,2.61-2.16-.07,11.16-7.36,10.56-9.14-8,3.2-15.16,8.25-3.05.74.44-1.93c3.27-2.51,8.94-8.13,6.24-11.53,1-1,2.12-1.88,3.2-2.7,0,0,1.68-.39,2,.1a3.32,3.32,0,0,0,2.38,1,1.87,1.87,0,0,1,2,1.08c.39.9,2.57,1.39,3.76.9s.7.89,1.19,1.38,5.06,1.49,5.35,2.68c.23.9,2,2.31,3.6,2.85-1.62.24-4.26-.52-4.93-1.93s-1.79-1.56-3.13-2-3,.23-4.16-1S154,30,151.86,28.47s-5.05-.78-3.86,0-.37,2.33,0,3.52,2.53.08,5.05.33,1.34,2,3.5,1.46,4.31-.37,4.83,1.19.07,1.86,3.72,1.93c3.48.07,4.16,1.43,4.22,1.54h0c-1.78,2.21-3.51,7.73,7.64,7.64,0,0-3.06.7-2.77,1.29s2.48.6,2.77,1.19S173.43,49.21,172.14,50.59Z" style="fill:#b5e2c9"/><path d="M175.28,93.77c-.29-2.23.3-2.53.9-2.68s-.3-1.18-1.64-1.78-.74-4.61-3.12-4.16S152.08,86.8,150,83.74h0c-.71.19-1.42.4-2.13.61-1.77.54-3.54,1.15-5.29,1.84-7.36,2.89-14.19,5.48-20.66,7.58a37.67,37.67,0,0,0,2.21,3.51h0c3.12,4.42,9.42,11.62,18.15,13.14,0,0,3.86.9,6.39,0s4.31-1.78,6-1.78a5.83,5.83,0,0,0,3.86-1.34,10.49,10.49,0,0,1,5.65-1.63c1.64.14,11.9-7.44,13.53-8.63S175.58,96,175.28,93.77Zm-5.35,4.86c-3.86-.1-3.27.89-3.76,2.47s-2.08,1.19-5.26,0-4.56.9-4.46,2.38-2.58,1.49-5.35.87-3.27-.37-2.93,2-2.13,1.68-5.79.3-.2,1.58-3.87,1.58S131,103.78,131,101.8s4.65-1.19,4.65-1.19c1.79.15,2.29-.89,3.77.49s5.85,1.69,7.14-.79,3.47-1.78,5.85-.89,4.16-.59,4.56-3.17,1.19-2.68,5.15-1.39,3.86-.49,7-2.87,3.87,2.67,6.07,4.16S173.8,98.73,169.93,98.63Z" style="fill:#90bda6"/><path d="M83.4,125.65a22.8,22.8,0,0,0-5.16-9.28,73.93,73.93,0,0,0-7.73-7.92c.19.26,5.19,7,4.83,7.22s-6-7.53-7-7.63,2.68,5.16,3.87,6.84-4.86-4.52-6-7.37-2.5-3.27-1,.63c1.24,3.22.56,2.72-.19,1.84a1,1,0,0,0-.13-.16l-.25-.33a.76.76,0,0,1-.08-.11,126.61,126.61,0,0,1-8.19-12.22q2.7.45,5.38.8c-.34,2.1,6.58,5,9.25,7s14.13,14.72,14.58,18.44C85.93,125.89,84.58,126.08,83.4,125.65Z" style="fill:#90bda6"/><path d="M83.4,125.65a3.82,3.82,0,0,1-1.34-.81c-.89-.89-1.64.45-2.68-1s-2.23-2.52-8.62-7.73A40,40,0,0,1,65.07,110c.75.88,1.43,1.38.19-1.84-1.51-3.9-.1-3.47,1-.63s7.14,9.06,6,7.37-4.86-6.94-3.87-6.84,6.64,7.84,7,7.63-4.64-7-4.83-7.22a73.93,73.93,0,0,1,7.73,7.92A22.8,22.8,0,0,1,83.4,125.65Z" style="fill:#b5e2c9"/><path d="M21.48,69.5a2.94,2.94,0,1,1-2.94-2.94A2.94,2.94,0,0,1,21.48,69.5Z" style="fill:#2b2b2b"/><path d="M25.56,69.05a6.64,6.64,0,0,1-.15,1.42,0,0,0,0,1,0,0c-.11.19-1.57,2.81-2.51-1.43-1-4.4-4.32-3.12-4.73-3.42s-.22-1.3-1.74-.63a5.54,5.54,0,0,0-2.6,3.42,1.77,1.77,0,0,1-1.34,1v-.38a6.54,6.54,0,0,1,13.08,0Z" style="fill:#f2dba7"/><path d="M22.89,69.05c-1-4.4-4.32-3.12-4.73-3.42s-.22-1.3-1.74-.63a5.54,5.54,0,0,0-2.6,3.42,1.77,1.77,0,0,1-1.34,1,6.54,6.54,0,0,0,12.92,1C25.29,70.67,23.83,73.29,22.89,69.05Zm-4.35,3.38a2.94,2.94,0,1,1,2.94-2.93A2.94,2.94,0,0,1,18.54,72.43Z" style="fill:#fcf6eb"/><path d="M114,86.89C98.35,91.2,85.32,91.75,76,90.45c-1.82-1.86-3.58-3.78-5.24-5.78a55.06,55.06,0,0,1-4.9-6.78A15,15,0,0,1,64.91,76c2.63-1.07,6.59-1.27,18.79.72,0,0,16.94,2.68,29.88-2.23s29.5-10.85,33.86-7.13S136.33,80.75,114,86.89Z" style="fill:#f6f7f5"/><path d="M38.79,83.74c-7,2.6-6.13,1-5.25-1.17,0,0,2.48-4.16,2-12.29s8.82-6.74,13.58-5.06S45.83,81.14,38.79,83.74Z" style="fill:#d0e0ca"/><path d="M92.35,107.42c-2.79.27-6,0-7.46-1.46-1.64-1.63-3.42.89-5.06-1.34s-2.82,1.34-3.71,0-5.07.3-6.4-2.82c-.74-1.74-4.14-2.88-7-3.72h0c-2.26-.68-4.15-1.17-4-1.63.26-1-3.22.55-3.55-.85s-4-1.23-4-1.83-6.34.83-2.38-2.08c1.31-1,2.72-3.25,4-5.94,4.23-3.64,2.91-.72.53,3.48s-.47,7.28,1.69,1.84,5.35-10.6,3.17-4.19-1.49,7.76,0,7.66.89-4.75,2.28-5.31-.1,6.21,1.29,6.8.49-7.43,1.29-7.43.59,7.82,2,8.56,1.11-1.43.51-3.91.7-3.17,1.4.3,9.4,16.65,4.12,4.27S64.62,75.2,68.5,87.9,81.28,106,77.42,100.59s-7.14-9.22-4.36-6.34,9.71,9.41,10.35,8.52S79.5,98.61,74,92.86s-5.5-9-3-5.16C73.21,91,88,103.7,92.35,107.42Z" style="fill:#90bda6"/><path d="M93.36,107.3c-.33,0-.67.09-1,.12C88,103.7,73.21,91,71,87.7c-2.54-3.86-2.54-.59,3,5.16s10,9,9.41,9.91-7.57-5.65-10.35-8.52.49.89,4.36,6.34-5,0-8.92-12.69S65.76,85.43,71,97.82s-3.43-.8-4.12-4.27-2-2.78-1.4-.3.85,4.65-.51,3.91-1.17-8.56-2-8.56.09,8-1.29,7.43.1-7.34-1.29-6.8-.79,5.21-2.28,5.31-2.18-1.26,0-7.66-1-1.25-3.17,4.19S51,93.44,53.33,89.23s3.7-7.12-.53-3.48a115.69,115.69,0,0,0,5.33-13.58c.64-2,3.07-1.18,4.37-.2l.37.31A9.83,9.83,0,0,1,64.92,76a12.31,12.31,0,0,0,.91,1.94,54.24,54.24,0,0,0,4.89,6.78c1.67,2,3.42,3.92,5.25,5.78,3,3.11,6.26,6.06,9.53,8.94h0l1.09,1c1.86,1.63,3.79,3.21,5.55,5C92.29,105.45,94.14,107.18,93.36,107.3Z" style="fill:#b5e2c9"/><path d="M219.74,72.38a19.85,19.85,0,0,1-7.44,9.37c-1.51,1.07-4.9,3.29-6.84,2-2.52-1.7,3-8,3-15.13s-3.13-9-4.76-13.53c-.85-2.34,1-3.37,3-3.58a7.14,7.14,0,0,1,2.54.22c3.95,1.09,6.55,4.77,8.54,8.1C220.06,63.55,221.2,68.17,219.74,72.38Z" style="fill:#8caaa4"/><path d="M100.45,39.16c-1.64.79-1.54.79-3.12,2.38S93.06,43.47,93,42.73s.5-1.44-1-1.94a5.08,5.08,0,0,0-2,0c-.79.25-1.14-1.29.65-2.48s1.48-2.92,2.72-2.48.74,1.44,2.33,1.19,3.79-2.38,4.44-1S102.08,38.36,100.45,39.16Z" style="fill:#d8fae8"/><path d="M169.93,98.63c-3.87-.1-3.27.89-3.77,2.47s-2.08,1.19-5.25,0-4.56.9-4.46,2.38-2.58,1.49-5.36.86-3.27-.36-2.92,2-2.13,1.68-5.79.3-.21,1.58-3.87,1.58S131,103.78,131,101.8s4.66-1.19,4.66-1.19c1.79.15,2.29-.89,3.77.49s5.85,1.69,7.14-.79,3.47-1.78,5.84-.89,4.17-.59,4.57-3.17,1.19-2.68,5.15-1.39,3.86-.49,7-2.87,3.86,2.67,6.07,4.16S173.79,98.72,169.93,98.63Z" style="fill:#b5e2c9"/><path d="M256.76,65.67c-.6,16.5-4.91,24.53-6.1,26a22.2,22.2,0,0,0-2.38,3.12c-.44.89-3.42.15-3.42,1.34s-3.12-.3-3.71.74c.29-3.12,2.08-3.71,4.46-6.06s5.5-15.35,6.83-20.7S256.76,65.67,256.76,65.67Z" style="fill:#d8fae8"/><circle cx="21.69" cy="67.98" r="2.08" style="fill:#fcf6eb"/><path d="M163.6,89.83c-7.21-.37-12.19-.82-6.69,1s7.39,3.24,1.65,1.9-11.69-6.91-9.08-3.41,7.28,6.82,4.76,5.68-5.89-4.79-6.07-3.64.23,1.67-1.8.93.33,3,1.8,4.69-2.11-.09-4.11-3.06-5.73-2.53,0,5.5c0,0,1,1.67.26,1.86s-3.12-3.07-5-5.5-6.74-6.24-4.61-2.38,3.72,6.63,2.13,6-3.61-5-4.66-4.83.4,1.64,1.34,3.57.17,1.64-1.7.15-3.45-3.42-3.55-1.89,2.28,5.21,1.58,5.31-5.72-4.45-5.72-4.45h0a37.67,37.67,0,0,1-2.21-3.51c6.47-2.1,13.3-4.69,20.66-7.58,1.75-.69,3.52-1.3,5.29-1.84.26.25,3.87,3.63,13.88,3.92C172.15,88.57,170.82,90.21,163.6,89.83Z" style="fill:#7a938e"/><path d="M190.12,64c0,.52-.69.94-1.54.94S187,64.48,187,64s.69-.94,1.54-.94S190.12,63.44,190.12,64Z" style="fill:#7a938e"/><ellipse cx="174.33" cy="63.72" rx="1.55" ry="1.18" style="fill:#7a938e"/><path d="M163.06,70.16c0,.44-.56.79-1.24.79s-1.24-.35-1.24-.79.56-.8,1.24-.8S163.06,69.72,163.06,70.16Z" style="fill:#7a938e"/><path d="M183.28,71.05c0,.49-.53.89-1.19.89s-1.19-.4-1.19-.89.53-.89,1.19-.89S183.28,70.56,183.28,71.05Z" style="fill:#7a938e"/><path d="M155.69,62.23c0,.82-1.08,1.49-2.41,1.49s-2.41-.67-2.41-1.49,1.08-1.49,2.41-1.49S155.69,61.41,155.69,62.23Z" style="fill:#7a938e"/><path d="M121.91,57.77a1.75,1.75,0,1,1-1.73-2A1.87,1.87,0,0,1,121.91,57.77Z" style="fill:#7a938e"/><ellipse cx="112.2" cy="70.42" rx="2.09" ry="1.52" style="fill:#7a938e"/><ellipse cx="133.34" cy="74.33" rx="2.36" ry="1.9" style="fill:#7a938e"/><ellipse cx="106.56" cy="84.98" rx="0.89" ry="0.63" style="fill:#7a938e"/><ellipse cx="82.3" cy="79.34" rx="1.11" ry="0.73" style="fill:#7a938e"/><path d="M97.54,74.73c0,.72-.89,1.3-2,1.3s-2-.58-2-1.3.9-1.3,2-1.3S97.54,74,97.54,74.73Z" style="fill:#7a938e"/><path d="M81.19,60.05c0,.87-1,1.58-2.23,1.58s-2.23-.71-2.23-1.58,1-1.59,2.23-1.59S81.19,59.17,81.19,60.05Z" style="fill:#7a938e"/><ellipse cx="102.65" cy="62.23" rx="1.83" ry="1.49" style="fill:#7a938e"/><path d="M71,70.65c0,.71-.85,1.29-1.91,1.29s-1.92-.58-1.92-1.29.86-1.29,1.92-1.29S71,69.94,71,70.65Z" style="fill:#7a938e"/><path d="M46.69,58c0,.74-.82,1.34-1.83,1.34S43,58.75,43,58s.82-1.33,1.83-1.33S46.69,57.28,46.69,58Z" style="fill:#7a938e"/><path d="M61.76,63.08c0,.47-.64.86-1.44.86s-1.44-.39-1.44-.86.65-.85,1.44-.85S61.76,62.61,61.76,63.08Z" style="fill:#7a938e"/><ellipse cx="66.86" cy="52.22" rx="2.26" ry="1.49" style="fill:#7a938e"/><path d="M97.05,53.86c0,.67-.79,1.22-1.75,1.22s-1.75-.55-1.75-1.22.78-1.21,1.75-1.21S97.05,53.19,97.05,53.86Z" style="fill:#7a938e"/><ellipse cx="86.28" cy="89.24" rx="1.43" ry="0.94" style="fill:#7a938e"/><ellipse cx="205.72" cy="54.66" rx="1.45" ry="0.78" style="fill:#7a938e"/><path d="M216.38,59.91a1,1,0,1,1-1-.83A.93.93,0,0,1,216.38,59.91Z" style="fill:#7a938e"/><path d="M211.93,68.29a1.2,1.2,0,1,1-1.19-1.08A1.13,1.13,0,0,1,211.93,68.29Z" style="fill:#7a938e"/><ellipse cx="213.52" cy="63.76" rx="0.85" ry="0.74" style="fill:#7a938e"/><path d="M219.21,71.05a1.1,1.1,0,1,1-1.08-.89A1,1,0,0,1,219.21,71.05Z" style="fill:#7a938e"/><path d="M213.59,75.65c0,.32-.38.58-.83.58s-.83-.26-.83-.58.37-.59.83-.59S213.59,75.33,213.59,75.65Z" style="fill:#7a938e"/><path d="M209.17,80.61a.84.84,0,0,1-1.63,0,.84.84,0,0,1,1.63,0Z" style="fill:#7a938e"/><path d="M249,43.1c0,.6-.9,1.09-2,1.09s-2-.49-2-1.09.9-1.09,2-1.09S249,42.5,249,43.1Z" style="fill:#7a938e"/><path d="M248,51.37c0,.43-.46.77-1,.77s-1-.34-1-.77.47-.78,1-.78S248,50.94,248,51.37Z" style="fill:#7a938e"/><ellipse cx="253.11" cy="60.66" rx="1.83" ry="1.58" style="fill:#7a938e"/><path d="M251.67,86.05a1.13,1.13,0,1,1-1.09-.83A1,1,0,0,1,251.67,86.05Z" style="fill:#7a938e"/><path d="M250.08,70.65a1.59,1.59,0,1,1-1.56-1.29A1.44,1.44,0,0,1,250.08,70.65Z" style="fill:#7a938e"/><ellipse cx="147.96" cy="33.29" rx="1.23" ry="0.96" style="fill:#7a938e"/><path d="M153.94,31a.85.85,0,1,1-.82-.63A.74.74,0,0,1,153.94,31Z" style="fill:#7a938e"/><path d="M162.76,37.85a1.12,1.12,0,1,1-1.09-.85A1,1,0,0,1,162.76,37.85Z" style="fill:#7a938e"/><ellipse cx="167.69" cy="45.43" rx="0.97" ry="0.72" style="fill:#7a938e"/><path d="M172.52,48.58c0,.24-.28.43-.62.43s-.63-.19-.63-.43.28-.43.63-.43S172.52,48.34,172.52,48.58Z" style="fill:#7a938e"/><path d="M161.89,33.27a.52.52,0,0,1-.57.46.48.48,0,1,1,0-.93A.52.52,0,0,1,161.89,33.27Z" style="fill:#7a938e"/><path d="M107.35,44.37a.72.72,0,1,1-.72-.63A.68.68,0,0,1,107.35,44.37Z" style="fill:#7a938e"/><path d="M107.75,38.74a.93.93,0,1,1-.92-.75A.85.85,0,0,1,107.75,38.74Z" style="fill:#7a938e"/><path d="M105.27,41.71c0,.22-.3.4-.67.4s-.67-.18-.67-.4.3-.4.67-.4S105.27,41.49,105.27,41.71Z" style="fill:#7a938e"/><path d="M85.94,42.3c0,.33-.53.6-1.19.6s-1.18-.27-1.18-.6.53-.59,1.18-.59S85.94,42,85.94,42.3Z" style="fill:#7a938e"/><path d="M107.75,27.92a.94.94,0,1,1-.92-.73A.84.84,0,0,1,107.75,27.92Z" style="fill:#7a938e"/><path d="M99.46,38.26c0,.37-.49.67-1.09.67s-1.08-.3-1.08-.67.49-.66,1.08-.66S99.46,37.9,99.46,38.26Z" style="fill:#7a938e"/><path d="M92.83,31.74c0,.32-.37.58-.84.58s-.84-.26-.84-.58.37-.59.84-.59S92.83,31.41,92.83,31.74Z" style="fill:#7a938e"/><path d="M94.28,38.24a.5.5,0,1,1-1,0,.5.5,0,0,1,1,0Z" style="fill:#7a938e"/><path d="M58.41,82.91c0,.46-.6.83-1.33.83s-1.34-.37-1.34-.83.6-.84,1.34-.84S58.41,82.45,58.41,82.91Z" style="fill:#7a938e"/><ellipse cx="61.65" cy="78.39" rx="0.85" ry="0.95" style="fill:#7a938e"/><path d="M64.6,86.4c0,.43-.63.78-1.42.78s-1.42-.35-1.42-.78.64-.78,1.42-.78S64.6,86,64.6,86.4Z" style="fill:#7a938e"/><ellipse cx="71.38" cy="90.95" rx="0.87" ry="0.77" style="fill:#7a938e"/><path d="M56.42,93.68c0,.35-.42.64-.94.64s-.93-.29-.93-.64S55,93,55.48,93,56.42,93.33,56.42,93.68Z" style="fill:#7a938e"/><path d="M88.5,103.19c0,.51-.63.93-1.41.93s-1.42-.42-1.42-.93.63-.92,1.42-.92S88.5,102.68,88.5,103.19Z" style="fill:#7a938e"/><path d="M61.21,100.69a.68.68,0,1,1-.67-.55A.61.61,0,0,1,61.21,100.69Z" style="fill:#7a938e"/><path d="M67.16,104.35a.79.79,0,0,1-1.58,0,.79.79,0,0,1,1.58,0Z" style="fill:#7a938e"/><ellipse cx="62.11" cy="104.35" rx="0.69" ry="0.5" style="fill:#7a938e"/><path d="M72.07,107c0,.28-.35.51-.78.51s-.78-.23-.78-.51.35-.52.78-.52S72.07,106.71,72.07,107Z" style="fill:#7a938e"/><path d="M77.07,117.49a.7.7,0,1,1-.69-.6A.65.65,0,0,1,77.07,117.49Z" style="fill:#7a938e"/><path d="M77.07,113.4a.51.51,0,0,1-.54.47.48.48,0,1,1,0-.94A.51.51,0,0,1,77.07,113.4Z" style="fill:#7a938e"/><path d="M67.56,111.07c0,.23-.27.42-.6.42s-.59-.19-.59-.42.26-.42.59-.42S67.56,110.84,67.56,111.07Z" style="fill:#7a938e"/><path d="M73.18,93.41a.58.58,0,0,1-.64.49c-.36,0-.65-.22-.65-.49s.29-.48.65-.48S73.18,93.15,73.18,93.41Z" style="fill:#7a938e"/><path d="M65.28,81.18c0,.25-.29.45-.65.45s-.64-.2-.64-.45.29-.44.64-.44S65.28,80.94,65.28,81.18Z" style="fill:#7a938e"/><ellipse cx="152.42" cy="96.81" rx="1.01" ry="0.74" style="fill:#7a938e"/><path d="M161,103.89c0,.34-.43.61-1,.61s-1-.27-1-.61.43-.62,1-.62S161,103.55,161,103.89Z" style="fill:#7a938e"/><path d="M142.53,106.58c0,.43-.5.78-1.12.78s-1.11-.35-1.11-.78.5-.78,1.11-.78S142.53,106.15,142.53,106.58Z" style="fill:#7a938e"/><path d="M140.3,99.54a.66.66,0,1,1-.65-.54A.6.6,0,0,1,140.3,99.54Z" style="fill:#7a938e"/><path d="M150,101.43a.73.73,0,0,1-.79.66.67.67,0,1,1,0-1.31A.73.73,0,0,1,150,101.43Z" style="fill:#7a938e"/><path d="M165.35,93c0,.27-.34.48-.76.48s-.76-.21-.76-.48.34-.48.76-.48S165.35,92.71,165.35,93Z" style="fill:#7a938e"/><path d="M171.41,87.09c0,.29-.35.54-.78.54s-.78-.25-.78-.54.35-.54.78-.54S171.41,86.79,171.41,87.09Z" style="fill:#7a938e"/><path d="M159.51,86.92c0,.21-.39.37-.87.37s-.87-.16-.87-.37.39-.37.87-.37S159.51,86.71,159.51,86.92Z" style="fill:#7a938e"/><path d="M163.83,98.37a.85.85,0,1,1-.82-.63A.74.74,0,0,1,163.83,98.37Z" style="fill:#7a938e"/><path d="M131,59.6a1.54,1.54,0,1,1-1.48-1.14A1.34,1.34,0,0,1,131,59.6Z" style="fill:#7a938e"/><path d="M122.87,73.38c0,.53-.61,1-1.35,1s-1.34-.42-1.34-1,.6-.95,1.34-.95S122.87,72.86,122.87,73.38Z" style="fill:#7a938e"/></g></g></svg>