<svg xmlns="http://www.w3.org/2000/svg" viewBox="0 0 305.98 156.57"><title>lire-tail-guppy</title><g id="Layer_2" data-name="Layer 2"><g id="Ñëîé_2" data-name="Ñëîé 2"><path d="M305.59,154.8c-3.32.49-9.54.62-19.13-2.09-15.37-4.34-16.36-3.35-25-7.09s-11.31-9.07-16.41-7.3-10.79-5.12-14.93-4.73-8.68-3.94-11.24-4.73-10.25-9.26-14-17.15a12.39,12.39,0,0,0-5.58-6.16,12.15,12.15,0,0,0,1.91-.94c3.24-1.89,9.49-6.9,9.78-17.54s-6.38-19.78-9.78-23.64c-1.07-1.23-1.82-1.94-1.91-2,2.1-2.63,1.9-7.15,2.43-9.42.79-3.34,4.34-3.15,5.92-5.32s2.75-4.73,4.92-5.52a27,27,0,0,0,9.66-7.68c2.36-3.36,8.87-1.38,13.8-5.72S262.81,12.36,274.24,7A42.4,42.4,0,0,1,293,3.09q-2.34,1.74-5.57,3.7c-4.62.76-14.31,3.93-31.47,16C245.68,30,239.17,35.52,235.25,39.64a24.93,24.93,0,0,0-4.47,5.91c-1.18,2.44-.66,3.83.62,4.44l.07,0a30.72,30.72,0,0,1,3,1.49,5.32,5.32,0,0,1,2.88,4.82c0,.18,0,.34,0,.5a12.72,12.72,0,0,0,.29,2.72c.28.94.94,1.38,2.65,2.3,2.21,1.18,4.09,2.7,4.23,5a5.05,5.05,0,0,1-.17,1.6,7.91,7.91,0,0,1-.32.93c-1.15,2.75.34,4.42,1.83,6.47.27.37.54.75.79,1.14a13.15,13.15,0,0,1,.73,1.34c1.58,3.47.52,3.86-2.41,6.43a5.47,5.47,0,0,0-2,3.05,5.09,5.09,0,0,0,.1,2.23,17,17,0,0,0,.55,1.82,4.31,4.31,0,0,1-.95,4.38,5.57,5.57,0,0,1-2.8,1.53c-2.59.61-3.06.86-3.32,2-.08.35-.14.77-.23,1.31-.16,1-.73,1-1.46,1-1.09,0-2.52-.27-3.46,1.74a3.74,3.74,0,0,0-.25.68c-.76,3.1,3.17,6,8.13,9.17,5.31,3.35,17.09,9.64,25.77,15.15l.05,0c1.78,1.19,13.6,9.27,19.71,10.65s12.42,7.49,18.33,12.81A15.59,15.59,0,0,1,305.59,154.8Z" style="fill:#68c7dd"/><path d="M294.93,1.52c-.59.51-1.26,1-2,1.57a42.4,42.4,0,0,0-18.71,4C262.81,12.36,240.93,23.4,236,27.74s-11.44,2.36-13.8,5.72a27,27,0,0,1-9.66,7.68c-2.17.79-3.35,3.36-4.92,5.52s-5.13,2-5.92,5.32c-.53,2.27-.33,6.79-2.43,9.42a5.69,5.69,0,0,1-4.94,2c2.38-1.06,3.29-2.77,3.43-5.52.19-4.14,3.35-10.84,6.11-10.84s2-1.78,3.35-4.73,3.15-5.52,7.29-5.72,3-2.76,8.28-6.5,9.07-1.77,12.81-4.93,20.7-12.42,36.08-18.53S298.88-1.82,294.93,1.52Z" style="fill:#2b2b2b"/><path d="M297.7,156.46c-7.1,0-17.35-4.34-19.91-3.75s-7.1-1-15.38-4.53-11.63-6.51-14.39-5.92-5.91-1.18-11-3.54-6.5-1.58-10.25-2.56-2.36-3.36-9.46-4.54S199.73,112.31,198.54,109c-.7-2-1.41-3.31-2.76-4a3,3,0,0,0-.45-.19l-.21-.07v0a7.27,7.27,0,0,1,2.58.29l.31.09.36.12.12,0,.4.16.38.17a12.39,12.39,0,0,1,5.58,6.16c3.75,7.89,11.44,16.36,14,17.15s7.1,5.13,11.24,4.73,9.85,6.51,14.93,4.73,7.73,3.55,16.41,7.3,9.66,2.75,25,7.09c9.59,2.71,15.81,2.58,19.13,2.09C307.27,157.21,303.37,156.46,297.7,156.46Z" style="fill:#2b2b2b"/><path d="M195.12,104.68c-.06-.08-.11-.17-.18-.26-2.06-3-14.25-3.12-26.18-3.92-1.23-.08-2.46-.18-3.67-.28l-1.25-.11-1.31-.12-1.33-.14-1.35-.16c-14.24-1.78-21.42-1.38-24.11.78s-9.73,2.17-13.67,0-10.25-3.34-13.8-2.16S95.85,93.38,92.9,90.62s-12-6.11-17.75-4.93c-5.25,1.09-10.51-2.83-18.84-5.76A24.42,24.42,0,0,1,52,93.14c-.11.16-.23.31-.36.47-2.54,3.18-6.44,3.07-9.81,1.36a12.9,12.9,0,0,1-2.72-2c-1.91-1.78-3.41-4.24-1.19-5.89a13.69,13.69,0,0,1,3.72-1.62,48.1,48.1,0,0,0,5.19-2A8.33,8.33,0,0,0,51,78.13a18.77,18.77,0,0,0,.62-2.54c.72-4,.44-7.2,2.46-4.33a11.75,11.75,0,0,1,1.74,4c.87,0,1.79,0,2.75,0,8.47,0,13,.78,13.2-2.37S87,67.56,89.54,63.42s10.25-2.36,12.62-5.62,15-3.84,21.88-1.62,22.88,3.24,22.88,3.24c-.93-.29-1.8-.61-2.58-.93a33.67,33.67,0,0,0-4.69-2.31h0a69.3,69.3,0,0,0-13.37-3.94c-.89-.18-1.82-.34-2.78-.5A105.09,105.09,0,0,0,97.42,51C66.48,53.76,10.69,64.6,5,67.56a11.21,11.21,0,0,0-3,2.2A9.36,9.36,0,0,1,6,74.36c1.57,4-1.15-1.67-5-3.36A6,6,0,0,0,.3,76.13C.81,77.54,14.19,92,36.81,97.57a25.6,25.6,0,0,1,6.95,2.22c1.7.89,10.59,4.08,22.1,6.69A67.07,67.07,0,0,1,64,99.6a12.75,12.75,0,0,1-.32-3.45c.44-3.78,6.65-4.05,6.65-4.05,8-.74,14.49,6.21,16.56,8.28,1.51,1.51.35,1.92.24,3.35h0a4.07,4.07,0,0,0,.51,2.12,3.76,3.76,0,0,1-.75,4c3.3.27,6.59.39,9.81.33h.5c23.26-.59,32.13-2.17,38-5.13s3-4.14,13.41-3.15l3.34.29c12.22,1,36.27,2.45,40,2.27a9.5,9.5,0,0,1,2.81.21h0l.24.07h0ZM25.69,86.38a8.58,8.58,0,0,1-8.56-8.32,2.09,2.09,0,0,1,0-.25,8.57,8.57,0,1,1,8.57,8.57Zm7.43-20.45c-2.3-1.82,1.07-3.46,3.79-4.37a25.83,25.83,0,0,1,2.61-.73c8.42-1.74,16.9-3.26,25.38-4.65,17.15-2.8,38.29-4.14,38.88-2s-3.1.83-10.64,3.94-15.67,3.4-23.51,5.32S55.14,66.82,49,70.62s-7.62,3.15-9.55,0S36.66,68.74,33.12,65.93Z" style="fill:#d3c995"/><path d="M199.27,61.4a5.69,5.69,0,0,1-4.94,2,17.42,17.42,0,0,1-4.85,1.18c-5.68.74-30.19-1.22-42.56-5.18,0,0-16-1-22.88-3.24s-19.52-1.63-21.88,1.62S92.1,59.29,89.54,63.42,72,69.72,71.8,72.88s-4.73,2.37-13.2,2.37c-1,0-1.88,0-2.75,0a17.87,17.87,0,0,1,.46,4.65c8.33,2.93,13.59,6.85,18.84,5.76,5.72-1.18,14.79,2.17,17.75,4.93s11.82,8.87,15.37,7.69,9.85,0,13.8,2.16,11,2.17,13.67,0,9.87-2.56,24.11-.78l1.35.16,1.33.14,1.31.12,1.25.11c1.21.1,2.44.2,3.67.28,11.93.8,24.12.93,26.18,3.92.07.09.12.18.18.26a7.27,7.27,0,0,1,2.58.29l.31.09.36.12.12,0,.4.16.38.17s11.3-4.09,11.69-18.48C211.35,72.9,199.63,61.75,199.27,61.4ZM113.91,79.09c-2.74,0-5-2.78-5-6.21s2.21-6.21,5-6.21,5,2.78,5,6.21S116.64,79.09,113.91,79.09Zm87.24,7.74A21.63,21.63,0,0,1,193,88.26,269,269,0,0,1,164.51,87c-5.89,0-11.92-.82-17.83-1.35-1.8-.16-3.59-.3-5.35-.37-4.72-.2-11.94.91-15.84-2.39-2.7-2.28-.31-5.66,2.13-6.94,3.17-1.66,7.21-1.28,10.61-.7,8.08,1.38,27.79,5.51,39.42,5.51,5.63,0,10.65-2,16.13-2.65a16.2,16.2,0,0,1,9.74,2.32C206.62,82.5,203.53,85.84,201.15,86.83Z" style="fill:#7cd1e8"/><path d="M263,29.32c-2.56,8.08,4.73,29.37,7.69,34.89S275,79,274,83.13a94.54,94.54,0,0,0-2,16.36c0,4-1.78,9.07-4.93,15.77s-3.73,12.3-2,13.57c-8.68-5.51-20.46-11.8-25.77-15.15s-9.46-6.5-7.88-9.85,4.53-.4,4.92-2.76.2-2.56,3.55-3.35,4.53-3.55,3.75-5.91-1.58-4.54,1.33-7.1,4-3,2.41-6.43-4.92-5.2-3.35-9-.79-5.91-3.74-7.49-2.77-1.77-3-5.52S235,51.59,231.47,50s-1.58-8.87,24.44-27.2c17.16-12.09,26.85-15.26,31.47-16-3.4,2.09-7.53,4.39-12.36,7C265.76,18.67,265.56,21.24,263,29.32Z" style="fill:#eae3dd"/><path d="M172.38,38.58c-1.77,2.52,1.92,1.19-1.92,4s-5.77,3-4.14,4.44c1.23,1.12-2,4.62-13.31,7.15a51.43,51.43,0,0,0,9.31-9.7h0c1.87-1.27,3.42-2.36,4.31-3.06,1.49-1.16-.24-.32-3.11,1.26a20.23,20.23,0,0,0,3-7.64c3.32-3.06,5.41-5.09,4.11-4.26-.81.51-2.22,1.49-4,2.76a11.48,11.48,0,0,0-.8-4.58c-.19-.47-.38-.91-.56-1.32,2.78-3.2,4.34-5.23,3.12-4.55a23.07,23.07,0,0,0-3.76,3.2,9.61,9.61,0,0,0-3.36-4.08c1.45-2.16,2.26-3.58,1.94-3.7s-1.58,1.1-3.36,3.11c-2.18-.54-4.81.23-8.44,1.05.18-.48.33-.89.42-1.23,1.48-5.3-.59-4.16-2.51,0l-.87,1.85c-1.12.21-2.33.4-3.62.54s-2.72.3-4.16.48c.55-2.68.74-4.3.22-3.73a13.73,13.73,0,0,0-1.66,3.92,59,59,0,0,0-6.13,1.16c.06-2.93,0-4.91-.49-4.79s-.89,2.28-1.18,5.24a30.43,30.43,0,0,0-3,1.06c-.42-3.6-.91-6.16-1.48-5.73s-.7,3.25-.5,6.7a14.71,14.71,0,0,0-3.25,2.38c-1.6-5.06-3.09-9.45-3.46-9.08S120.52,26.84,122,32a11,11,0,0,0-1.37,2.51c-1.78-3.21-3.39-5.84-3.51-5.06s1.1,4.45,2.73,8.62c-.25,3.17.48,7.11,2.55,12-2.92-4.51-10.41-16.81-9-21.95,1.78-6.36.45-5,3-6.21s3.49-6.51,7.14-4.44a8.31,8.31,0,0,0,9.42-.47c2.21-1.75,1.33-4.85,4.58-1.75s5.17,2.52,9.46,0,4.73-4.27,7-1.32,2.37.59,10.2.44,6.51-1.33,8,4.14,1,8.13,3.55,11.23S174.15,36.07,172.38,38.58Z" style="fill:#eae3dd"/><path d="M126.27,52.24c-.89-.18-1.82-.34-2.78-.5,0,0-.43-.63-1.12-1.68v0c-2.07-4.89-2.8-8.82-2.55-12C122.07,43.83,125.08,50.64,126.27,52.24Z" style="fill:#dbd3ce"/><path d="M120.6,34.48A11,11,0,0,1,122,32c1.38,4.87,3,9.9,3.55,11.34C126.22,45.07,123.22,39.16,120.6,34.48Z" style="fill:#dbd3ce"/><path d="M123.24,30.49a14.71,14.71,0,0,1,3.25-2.38c.36,5.87,1.44,13.76,1.54,16.09C128.12,46.38,125.55,37.75,123.24,30.49Z" style="fill:#dbd3ce"/><path d="M131.43,26.08c-.64,6.58-.88,17.22-1.18,19.16s-.88-10.44-1.78-18.1A30.43,30.43,0,0,1,131.43,26.08Z" style="fill:#dbd3ce"/><path d="M139.23,24.47c-2.34,7.35-5.57,22.12-6.62,23.28s.35-14.1.49-22.12A59,59,0,0,1,139.23,24.47Z" style="fill:#dbd3ce"/><path d="M148.45,23.26c-3,6.43-10.74,22.66-12.59,24.64-1.55,1.65,3.19-15.67,4.81-23.62,1.44-.18,2.85-.33,4.16-.48S147.33,23.47,148.45,23.26Z" style="fill:#dbd3ce"/><path d="M162.32,44.46a51.43,51.43,0,0,1-9.31,9.7h0c-2.16.49-4.61.93-7.38,1.32C146,55.22,156,48.79,162.32,44.46Z" style="fill:#dbd3ce"/><path d="M159.85,21.59c-6.16,7-18.57,23.53-20.29,25.71-2.08,2.64,9.19-17.7,11.85-24.66C155,21.82,157.67,21.05,159.85,21.59Z" style="fill:#dbd3ce"/><path d="M164.63,26.26c-7,6.86-19.78,21.69-21.42,21.93s12.67-18,18.06-26A9.61,9.61,0,0,1,164.63,26.26Z" style="fill:#dbd3ce"/><path d="M166.5,35a20.23,20.23,0,0,1-3,7.64c-4.81,2.64-12.81,7.37-14.2,8.2S159.72,41.25,166.5,35Z" style="fill:#dbd3ce"/><path d="M166.63,33.51c-6.93,5-19.26,14.3-21,15.72C144,50.49,158.39,35.5,165.27,27.61c.18.41.37.85.56,1.32A11.48,11.48,0,0,1,166.63,33.51Z" style="fill:#dbd3ce"/><path d="M149.32,50.85c1.39-.83,9.39-5.55,14.2-8.2,2.87-1.58,4.59-2.42,3.11-1.26-.89.7-2.44,1.79-4.31,3.07h0c-6.32,4.33-16.3,10.76-16.7,11h0c-1.85.26-3.83.49-6,.69h0a69.3,69.3,0,0,0-13.37-3.94c-1.19-1.6-4.2-8.41-6.45-14.2-1.63-4.17-2.86-7.82-2.73-8.62s1.72,1.85,3.51,5.06c2.62,4.68,5.62,10.59,4.91,8.83-.58-1.44-2.17-6.46-3.54-11.34-1.45-5.13-2.66-10.09-2.19-10.56s1.85,4,3.46,9.08c2.31,7.27,4.88,15.89,4.79,13.71-.1-2.33-1.19-10.22-1.54-16.09-.2-3.45-.15-6.2.5-6.7s1.06,2.13,1.48,5.73c.9,7.66,1.47,20,1.77,18.1s.55-12.58,1.19-19.16c.29-3,.67-5.09,1.18-5.24s.54,1.86.49,4.79c-.14,8-1.47,23.2-.49,22.12s4.28-15.93,6.62-23.28a13.87,13.87,0,0,1,1.66-3.92c.52-.56.33,1.05-.22,3.74-1.63,7.94-6.36,25.26-4.81,23.61,1.85-2,9.59-18.21,12.59-24.64l.87-1.85c1.92-4.16,4-5.3,2.51,0q-.15.51-.42,1.23c-2.66,7-13.93,27.3-11.85,24.67,1.72-2.19,14.13-18.71,20.29-25.72,1.78-2,3-3.24,3.36-3.11s-.49,1.54-1.94,3.7c-5.39,8-19.66,26.24-18.06,26s14.4-15.07,21.42-21.93a23.07,23.07,0,0,1,3.76-3.2c1.21-.68-.34,1.36-3.12,4.55C158.39,35.5,144,50.49,145.61,49.23c1.75-1.42,14.09-10.73,21-15.72,1.76-1.27,3.17-2.25,4-2.76,1.31-.83-.78,1.21-4.1,4.26C159.72,41.25,147.83,51.75,149.32,50.85Z" style="fill:#68c7dd"/><path d="M34.26,77.81a8.56,8.56,0,0,1-13.6,6.93A7.55,7.55,0,0,0,24.79,86a7.67,7.67,0,1,0-7.66-7.89,2.09,2.09,0,0,1,0-.25,8.57,8.57,0,0,1,17.14,0Z" style="fill:#44315b"/><path d="M28.73,77.81a4.34,4.34,0,1,1-4.34-4.34A4.33,4.33,0,0,1,28.73,77.81Z" style="fill:#2b2b2b"/><path d="M24.79,70.62a7.66,7.66,0,0,0-7.66,7.44,8.5,8.5,0,0,0,3.53,6.68A7.55,7.55,0,0,0,24.79,86a7.67,7.67,0,1,0,0-15.33Zm-.4,11.52a4.34,4.34,0,1,1,4.34-4.33A4.33,4.33,0,0,1,24.39,82.14Z" style="fill:#eae3dd"/><path d="M56.31,79.93A24.42,24.42,0,0,1,52,93.14c-.11.16-.23.31-.36.47-2.54,3.18-6.44,3.07-9.81,1.36a12.9,12.9,0,0,1-2.72-2c-1.91-1.78-3.41-4.24-1.19-5.89a13.69,13.69,0,0,1,3.72-1.62,48.1,48.1,0,0,0,5.19-2A8.33,8.33,0,0,0,51,78.13a18.77,18.77,0,0,0,.62-2.54c.72-4,.44-7.2,2.46-4.33a11.75,11.75,0,0,1,1.74,4A17.87,17.87,0,0,1,56.31,79.93Z" style="fill:#c9bc87"/><path d="M93.14,58.1c-7.54,3.1-15.67,3.4-23.51,5.32S55.14,66.82,49,70.62s-7.62,3.15-9.55,0-2.81-1.88-6.35-4.69c-2.3-1.82,1.07-3.46,3.79-4.37a25.83,25.83,0,0,1,2.61-.73c8.42-1.74,16.9-3.26,25.38-4.65,17.15-2.8,38.29-4.14,38.88-2S100.68,55,93.14,58.1Z" style="fill:#dcd4aa"/><path d="M118.86,72.88c0,3.43-2.22,6.21-5,6.21s-5-2.78-5-6.21,2.21-6.21,5-6.21S118.86,69.45,118.86,72.88Z" style="fill:#2b2b2b"/><path d="M201.15,86.83A21.63,21.63,0,0,1,193,88.26,269,269,0,0,1,164.51,87c-5.89,0-11.92-.82-17.83-1.35-1.8-.16-3.59-.3-5.35-.37-4.72-.2-11.94.91-15.84-2.39-2.7-2.28-.31-5.66,2.13-6.94,3.17-1.66,7.21-1.28,10.61-.7,8.08,1.38,27.79,5.51,39.42,5.51,5.63,0,10.65-2,16.13-2.65a16.2,16.2,0,0,1,9.74,2.32C206.62,82.5,203.53,85.84,201.15,86.83Z" style="fill:#8ce0f4"/><path d="M87.17,103.73h0q-.42.24-.84.45a16.47,16.47,0,0,1-1.51.66c-.32.13-.64.24-1,.34s-.57.17-.85.24c-7.14,1.78-13.77-1.94-17.27-4.49h0c-.68-.49-1.25-1-1.68-1.32a12.75,12.75,0,0,1-.32-3.45c.44-3.78,6.65-4.05,6.65-4.05,5-.46,9.44,2.1,12.56,4.59a44,44,0,0,1,4,3.69C88.44,101.89,87.28,102.3,87.17,103.73Z" style="fill:#dbd3ce"/><path d="M86.92,109.82c-1.36,1.73-3.63,2.86-4.43,2.24-1.33-1-1.77,2.51-3.84.89s-4.44,2.8-5.47,2.07-3.25,1.18-4.14,0a55.73,55.73,0,0,1-3.18-8.54A67.07,67.07,0,0,1,64,99.6c3,2.57,13.06,9.89,23.12,4.13a4.07,4.07,0,0,0,.51,2.12A3.76,3.76,0,0,1,86.92,109.82Z" style="fill:#eae3dd"/><path d="M150.35,103.93c-1.77-.3-4.33.19-8.28,2s-10.94,3.66-12.32,3.55-.39,3.06-3.48,2-2.53,2.07-4.4,1.57.2,2.37-6.6,1.88-18.54-4.72-18.54-4.72h.5c23.26-.59,32.13-2.17,38-5.13s3-4.14,13.41-3.15l3.34.29C152.4,102.84,152.12,104.22,150.35,103.93Z" style="fill:#eae3dd"/><path d="M26.39,76.25a2.18,2.18,0,1,1,2.18,2.18A2.18,2.18,0,0,1,26.39,76.25Z" style="fill:#eae3dd"/><path d="M86.64,107.19c-.16,2.41-.81.46-1.83-2.35-.85-2.36-2-5.31-3.27-6.82-2.58-3,1.23,3.13,2.3,7.16a8.48,8.48,0,0,1,.26,1.34c.23,2.73.3,1.72-1.11-1.1a32.67,32.67,0,0,0-2.33-3.91c-3.78-5.42-3.93-5.86-2.3-1.91s3.18,6.25.89,3.37S74,96.24,75.4,99.6s2.66,5.29,1,3.59-5.24-7.54-4.8-5.54,3.4,6,.89,3.86a14.59,14.59,0,0,1-3.7-4.82c-.59-1-1.4.59.74,3.54s-1.7-.73-2.88-2.73-2.88-1.36-1,3.42h0c1.92,4.78-.17,2.26-1.68-1.33a12.75,12.75,0,0,1-.32-3.45c.44-3.78,6.65-4.05,6.65-4.05,5-.46,9.44,2.1,12.56,4.59a28,28,0,0,1,3.39,7.49A10.17,10.17,0,0,1,86.64,107.19Z" style="fill:#68c7dd"/><path d="M263.39,74.78c-.84.17-1.75.31-2.71.43Z" style="fill:#dbd3ce"/><path d="M294,149s-36.94,1.39-92.8-44.34c3.24-1.89,9.49-6.9,9.78-17.54s-6.38-19.78-9.78-23.64c0,0,14.54-33.63,84.31-58.07-.77.32-50.62,21.54-72.13,48.8,0,0,10.36-7.46,21.89-14.52,8.77-5.39,18.21-10.55,24.28-12,0,0-14.74,8.41-28.75,17.94-8.58,5.82-16.87,12.06-21.36,17.05.29-.18,10.51-6.73,22-12.61,9.46-4.86,19.77-9.26,26.06-9.26,0,0-11.26,4.78-23,10.77C225,56.37,215.25,62,211,66.6c.38-.14,13.85-5,26.42-9.78,9.85-3.72,19.14-7.34,21.16-8.51a231.23,231.23,0,0,1-20.87,11.23,178.73,178.73,0,0,1-24.28,9.58,208.12,208.12,0,0,0,31.16-2.32A65.1,65.1,0,0,0,260,62.62c-.25.14-5.23,2.92-15.56,5.78-7.12,2-15.76,5.62-28.19,6.81,0,0,14.94.33,29.7.59a106.51,106.51,0,0,0,14.68-.58c-2.93.45-7.89,1.14-13.89,1.72-9,.89-19.31,4.19-29.8,3.41,0,0,9.8,4.24,26.14,7.41a81.82,81.82,0,0,0,22,1.32,184.15,184.15,0,0,1-21.93.91,116.84,116.84,0,0,1-25-2.83c.61.19,12.77,4,24.58,9,7.57,3.24,15,7,19.16,10.62,0,0-13.16-3.37-25.28-7a162.11,162.11,0,0,1-16.24-5.63c3,1.55,8.58,4.47,14.55,8C245,108,256.37,115.59,258.74,121c-.35-.22-15.24-9.74-27.52-16.49-6.33-3.47-12-6.22-14.56-6.57,0,0,20.67,23.62,47,34.43-1.67-.58-37.43-13.14-49.32-29.4C214.29,103,221.68,125,294,149Z" style="fill:#dbd3ce"/></g></g></svg>