<svg xmlns="http://www.w3.org/2000/svg" viewBox="0 0 271.7 115.21"><title>lire-tail-molly</title><g id="Layer_2" data-name="Layer 2"><g id="Ñëîé_2" data-name="Ñëîé 2"><path d="M199.22,38.74c2.07,0,20.31-10.71,13.44-6.24s-5.28,5.76.48,2.73,8.79-1.13,3.36,1.27-8.8,5.6-2.25,4.32,9.12,1.92,3.84,2.24-4.8.82-1.75,1.21,5.92,2.79,1.6,2.79-6.72,2.09-2.25,3.36,11.37,3.36,6.09,3.36-12.81,2.4-7.68,3,12.48,1.44,9.27,1.75-10.08,1.13-6.24,1.61,7.85,2.69,4.17,3-12,.81-8,1.44-4.15,1.44,1.61,3.52,11.35,4.71,6.07,4.36-7.2,1.4-1.92,2.53-.15,3-3,2.71-6.4,1-3.36,2.4,10.56,7,5.91,5.28-11.67-5-7.68-1.62,8.81,7.86,5.93,6.59-8.64-5.45-7-3.36,9.75,7,5.76,5.76-10.67-4.76-8-2.09c4.49,4.49,12.81,7.85,9,7.85s-11.52-4.32-16-7.37-1.44,1,4.15,5.28c5,3.82,20.88,16.15,34.17,18.39-21.06-1.59-44-24-52.32-30a27.64,27.64,0,0,0-3.8-2.27c.7-.84,1.48-1.85,2.3-3,1.79,3.45,4.46,2.94,5,.54s.09-2.23,3.77-1,.16,2.4,2.94,3.2,2.34-.8,2.5-3-.48-2.25,2.24-2.38,2.08-4.82,1.25-5.3-.77-2.25-2.53-4.62-1-.35-2.73,0-1.11-2.55-3.19-3.84.48-3.51.31-6.14,1.44-.9,3.36-.32S200,56,199.37,55.3s-1.11-4.56,2.09-5.67-.65-2.09-1.61-4.49-2.07-2.4-4.15-2.4S190,39.67,190,39.67a113,113,0,0,0,10.17-7.08c13-9.72,39.12-23.16,49-22.68a68.32,68.32,0,0,1,13.94,2.49c-4.22-1-19.37-3.84-33.78,5.55C212.33,29,197.14,38.74,199.22,38.74Z" style="fill:#212121"/><path d="M187.4,41c-3.23,1.38-5.83,1.42-10.5,1.42-9,0-14.88-1.44-20.64-2.64,0,0-6-2.16-14.58-4.74a38.38,38.38,0,0,1-8.9,2.22s-1.72,2.76-1.72,4-2.88,2.52-3.84,2.28-2.16-.24-4-.6-4.32.24-3,2.16-4.2,2.51-3.84,4.19,1.56,4.33-1,3.61-6.12-.31-6.36-1.65-1.68.45-2.52,1.65-2,3.26,0,4.21,4.68,1.48,4.08,2.65-.36,3.39-2.4,2.82-2.64,1.6-1.2,2.92,2.4,2.52,3.12,2.52,3,.18,3.48,2.37,2.16,5.67,3.24,6.15a1.14,1.14,0,0,1,0,2.16c-1,.24-4.44-2.16-4.44,0s.36,2.64-.72,3.36c-.62.41-1.68.9-2.53,1.45a53,53,0,0,0,18.7-1.17h0c6.9-2.24,11.85-3.87,22.48-4.09l2.49,0c11.92,0,21.9.52,29.8,4.45.7-.84,1.48-1.85,2.3-3,3.34-4.68,7.17-11.65,7.17-19A43.52,43.52,0,0,0,187.4,41Zm-4.81,6.92c-3,1.87-7.83,1.63-11.21,1.7a98.31,98.31,0,0,1-12.13-.55c-3.84-.41-7.64-1-11.43-1.74a49.48,49.48,0,0,1-7.23-1.82c-3.48-1.25-6.28-3.16-3.62-5.85s13.92,2.59,23.37,4.83a39.66,39.66,0,0,0,14.53.48c2.57-.36,5.47-1.32,7.81.37C183.81,46.17,183.8,47.19,182.59,47.93Z" style="fill:#2b2b2b"/><path d="M137,33.69a220.08,220.08,0,0,0-27-6,73.75,73.75,0,0,0-17.35-.84c-21.84,2.16-36.72,7.92-49.2,13s-26.52,9-30.84,11S3.26,54.19,3,55.75s1.68,2.16,2.16,3.48-2.64-1.44-3.6-1.44S.26,59.83,0,60.67,2.42,63,3.86,63.43a57.54,57.54,0,0,1,10.56,6.36c4.2,3.12,15.6,9.24,21,9.6a34.81,34.81,0,0,1,5.76.79S52.82,75.7,52.49,63.86s-7.83-14.4-1.11-18.55S70.9,37.15,76.82,34.9c.3-.11.62-.23,1-.34h0a16,16,0,0,1,1.42-1.37c4.68-4,1.32,1.44,4.2-1.78s.24,1.66,3-.56.12,2.82,2.4.56c1.19-1.18.9-.28.67.66,6.1-.82,12.49-1,15.8.28,4.93,1.94,15.21,6.5,27.49,4.92a38.38,38.38,0,0,0,8.9-2.22C140.19,34.61,138.63,34.15,137,33.69ZM23.11,49.63a7.12,7.12,0,0,1,5.73,2.88h0a3.43,3.43,0,0,1,.24.33c.08.12.16.24.23.36s.1.17.14.27a1.36,1.36,0,0,1,.1.21,5.05,5.05,0,0,1,.24.53c0,.07.05.14.07.22a.11.11,0,0,1,0,.08l.12.37c0,.11,0,.21.07.32a1.36,1.36,0,0,1,.06.29l.06.38s0,.09,0,.14,0,.22,0,.33,0,.27,0,.41a7.14,7.14,0,1,1-7.15-7.13ZM41.18,60.79a48.09,48.09,0,0,0-1.68,5.4c-.6,2.28-5.88,4.08-8.28,4.08s-7,.6-10.92-1.26-4.92-5.7-3-4,4,3.36,11.52,0,1.92-15.6,3.48-15.72,3.61,2,4.08,2.4C40.46,55,41.9,58.87,41.18,60.79Z" style="fill:#eaa700"/><path d="M127.91,82.31l-2.85.92-3.26,1c-3.29,1-6.79,2.09-11.06,3h0c-3.07.67-6.54,1.27-10.62,1.76L99,89.16c-1.55-1.87,2.76-2.81,3.6-4.37s4.92,1.08,5.28,0a3,3,0,0,1,1.31-1.31A53,53,0,0,0,127.91,82.31Z" style="fill:#212121"/><path d="M132.78,37.27s-1.72,2.76-1.72,4-2.88,2.52-3.84,2.28-2.16-.24-4-.6-4.32.24-3,2.16-4.2,2.51-3.84,4.19,1.56,4.33-1,3.61-6.12-.31-6.36-1.65-1.68.45-2.52,1.65-2,3.26,0,4.21,4.68,1.48,4.08,2.65-.36,3.39-2.4,2.82-2.64,1.6-1.2,2.92,2.4,2.52,3.12,2.52,3,.18,3.48,2.37,2.16,5.67,3.24,6.15a1.14,1.14,0,0,1,0,2.16c-1,.24-4.44-2.16-4.44,0s.36,2.64-.72,3.36c-.62.41-1.68.9-2.53,1.45-6.32-.77-11.43-2.62-16-4.09-8.44-2.73-23.88,1-28.83-4.32s-6.24-7.2-9-1.13S45.86,82,45.86,82a17.28,17.28,0,0,0-4.68-1.85S52.82,75.7,52.49,63.86s-7.83-14.4-1.11-18.55S70.9,37.15,76.82,34.9c.3-.11.62-.23,1-.34-4,4.21-9.89,13.2-12.7,17.49l-1.48,2.26a8.42,8.42,0,0,1-2.88,2.77s-3.6,1.31-1,4.67,4.2,5,3.84,8.61,1,2,6.6.51L73.45,70l.07,0C78.78,68.48,85,66.47,87,65.59c2.52-1.08-3.48,0,1.92-2.28s.84-2.4,3.24-3.48-5.76-.34,0-2.75-.84-2.29,1-3.37-2.88-2.16.6-3.36-1.8-2,.12-3-2.76-.72-.36-2-.84-2.52.24-3.12-1.08-1,.48-2.16,5.16-5.52-.36-2.64.18-3.72-2.43-1.92.87-3.6-1.29-2.28c-1,.63-.86-.26-.65-1.12h0c6.1-.82,12.49-1,15.8.28C110.22,34.29,120.5,38.85,132.78,37.27Z" style="fill:#f9b804"/><path d="M109.21,83.48a3,3,0,0,0-1.31,1.31c-.36,1.08-4.44-1.56-5.28,0s-5.15,2.5-3.6,4.37c-4.27.48-9.2.84-15,1-22.56.72-35.88-6.84-38.16-8.16,0,0,6.8-2,9.51-8.09s4-4.15,9,1.13,20.39,1.59,28.83,4.32C97.78,80.86,102.89,82.71,109.21,83.48Z" style="fill:#eaa700"/><path d="M271.7,15.43c-.24.36-6-.24-10-.84s-7.56,1-7.2,1.68-4.08-.24-3.24,0-4.8,2.28-4,2.4c.57.08-2.12,2.13-4.1,4a42.69,42.69,0,0,0-12,5c-6.62,4.48-1.67,2.4,4.74,0a24.41,24.41,0,0,1,4.66-1.25,5.56,5.56,0,0,1-1.86,1.82,5,5,0,0,0-1.58,2.36c-5.86,2.88-10.4,6.18-6,5.23a39.51,39.51,0,0,1,5.25-.62,1.85,1.85,0,0,0,0,.23c0,.31,0,.69,0,1.12-7.34,1.38-13.16,3.78-8.44,3.92,2.3.06,5.73-.24,8.45-.48,0,.4,0,.81,0,1.19-5.36,1.58-9.51,3.19-5.27,3.05a11.94,11.94,0,0,1,4.73.83,10.81,10.81,0,0,0,.43,2.69,41.74,41.74,0,0,1-5.16.71c-5.51.48-4.55,3.24-.86,2.9s6.72,2.22,4.16,2.22-9,.67,1,2.17c1,.16,2,.32,2.83.49,0,1.13-.09,2.27-.08,3.35-3.84-.11-7.13-.15-5.32.18,2.88.53-5.59,2.12-.79,3.41l6.3,1.68a7.23,7.23,0,0,1-1.19,3.89,9.83,9.83,0,0,1-3.67.22c-3.05-.66-4.49,1.41-.48,2s-.67,2.72-1.86,2.72-2.78,1.29-.71,2.25,1.92,1.92-.79,2.23-4.64,1.6-1.92,1.92-2.24,3,.31,3.66-4.63,5.46-.63,6.11c1.41.22,4,.51,6.54.78q.07.45.12.84h0c-5.72.19-11.29.9-7.9,1.4,4.27.64-.36,1.92,3.16,2.73s6.87,4,3.84,4-1.92,1.77.15,2.25-1.75,1.75-6.39,0-4.8-.17-.16,2.07,15.67,5,12.31,5-11.91-1.44-15.72-3.36c-2.68-1.36,7.93,5.72,19.42,9.5-1.22-.05-2.5-.12-3.85-.21l-.24,0h0c-13.29-2.24-29.21-14.57-34.17-18.39-5.59-4.32-8.64-8.32-4.15-5.28s12.16,7.37,16,7.37-4.48-3.36-9-7.85c-2.66-2.67,4,.8,8,2.09s-4.17-3.69-5.76-5.76,4.16,2.07,7,3.36-1.92-3.21-5.93-6.59,3.05-.13,7.68,1.62-2.88-3.84-5.91-5.28.48-2.71,3.36-2.4,8.31-1.6,3-2.71-3.36-2.88,1.92-2.53-.31-2.27-6.07-4.36,2.4-2.88-1.61-3.52,4.32-1.11,8-1.44-.33-2.55-4.17-3,3.05-1.29,6.24-1.61-4.15-1.12-9.27-1.75,2.4-3,7.68-3-1.6-2.08-6.09-3.36-2.07-3.36,2.25-3.36,1.44-2.4-1.6-2.79-3.53-.88,1.75-1.21,2.73-3.51-3.84-2.24-3.19-1.92,2.25-4.32,2.4-4.32-3.36-1.27-7.36,1.75-.48-2.73-11.37,6.24-13.44,6.24S212.33,29,229.3,18c14.41-9.39,29.56-6.59,33.78-5.55l.67.18.35.1.11,0h0C268.65,14,271.82,15.25,271.7,15.43Z" style="fill:#e89b00"/><path d="M236.55,41.22a11.63,11.63,0,0,1-.37,2.89,2.59,2.59,0,0,0-.17,1,11.94,11.94,0,0,0-4.73-.83C227,44.41,231.19,42.8,236.55,41.22Z" style="fill:#2b2b2b"/><path d="M236.53,35.24a39.51,39.51,0,0,0-5.25.62c-4.44,1,.1-2.35,6-5.23A13.13,13.13,0,0,0,236.53,35.24Z" style="fill:#2b2b2b"/><path d="M236.59,40c-2.72.24-6.15.54-8.45.48-4.72-.14,1.1-2.54,8.44-3.92C236.61,37.59,236.61,38.84,236.59,40Z" style="fill:#2b2b2b"/><path d="M237.29,68.79c0,.07-.1.15-.15.22-1.68,2.1-.48,13.74-2.4,15.9-1.31,1.47-1,3.94-.66,5.82-2.51-.27-5.13-.56-6.54-.78-4-.65,3.2-5.45.63-6.11s2.4-3.34-.31-3.66-.8-1.6,1.92-1.92,2.88-1.27.79-2.23-.48-2.25.71-2.25,5.86-2.07,1.86-2.72-2.57-2.71.48-2A9.83,9.83,0,0,0,237.29,68.79Z" style="fill:#2b2b2b"/><path d="M238.37,56.28c-.88-.17-1.82-.33-2.83-.49-9.92-1.5-3.53-2.17-1-2.17s-.48-2.55-4.16-2.22-4.65-2.42.86-2.9a41.74,41.74,0,0,0,5.16-.71A18.32,18.32,0,0,0,237.62,51,11.74,11.74,0,0,1,238.37,56.28Z" style="fill:#2b2b2b"/><path d="M238.48,64.9l-6.3-1.68c-4.8-1.29,3.67-2.88.79-3.41-1.81-.33,1.48-.29,5.32-.18,0,.35,0,.7.05,1A32,32,0,0,1,238.48,64.9Z" style="fill:#2b2b2b"/><path d="M243.24,22.66a8.14,8.14,0,0,0-1.9,2.25c-.28.7-.46,1.16-.66,1.54A24.41,24.41,0,0,0,236,27.7c-6.41,2.4-11.36,4.48-4.74,0A42.69,42.69,0,0,1,243.24,22.66Z" style="fill:#2b2b2b"/><path d="M263.54,112.27s-3,3.57-20.63,2.85h0c-11.49-3.78-22.1-10.86-19.42-9.5,3.81,1.92,12.36,3.36,15.72,3.36s-7.68-2.71-12.31-5-4.49-3.84.16-2.07,8.48.48,6.39,0-3.19-2.25-.15-2.25-.33-3.2-3.84-4,1.11-2.09-3.16-2.73c-3.39-.5,2.18-1.21,7.9-1.4a4.68,4.68,0,0,1,.06,1.25c-.24,1.44,1.2,2.4,1.92,4.56s2.16,2.64,1.44,4.08,3.36,1.92,1.68,1.92,4.8,3.36,4.8,3.36l2.4,2.16a113.25,113.25,0,0,0,12,1.92C262.58,111.07,263.54,112.27,263.54,112.27Z" style="fill:#2b2b2b"/><path d="M264.21,12.71l-.11,0Z" style="fill:#f9b804"/><path d="M41.18,60.79a48.09,48.09,0,0,0-1.68,5.4c-.6,2.28-5.88,4.08-8.28,4.08s-7,.6-10.92-1.26-4.92-5.7-3-4,4,3.36,11.52,0,1.92-15.6,3.48-15.72,3.61,2,4.08,2.4C40.46,55,41.9,58.87,41.18,60.79Z" style="fill:#f9b804"/><path d="M26.18,56.76a3.06,3.06,0,1,1-3.07-3A3.07,3.07,0,0,1,26.18,56.76Z" style="fill:#2b2b2b"/><path d="M28.84,52.51h0s-.18.09-1,0c-1-.12-2.35-1.68-3.18-1.2s-2.16,1.16-2.77.58-2.93.18-2.69.67-.06,1.08-.78,1.75a3.22,3.22,0,0,0-1,2.76c.24.72.09,2.3-1,2.31a7.14,7.14,0,0,1,12.37-6.87Z" style="fill:#f79406"/><path d="M30.24,56.35c0-.11,0-.22,0-.33s0-.1,0-.14l-.06-.38a1.36,1.36,0,0,0-.06-.29c0-.11,0-.21-.07-.32l-.12-.37a.11.11,0,0,0,0-.08c0-.08-.05-.15-.07-.22a5.05,5.05,0,0,0-.24-.53,1.36,1.36,0,0,0-.1-.21c0-.1-.1-.19-.14-.27l-.23-.36a3.43,3.43,0,0,0-.24-.33s-.18.09-1,0c-1-.12-2.35-1.68-3.18-1.2s-2.16,1.16-2.77.58-2.93.18-2.69.67-.06,1.08-.78,1.75a3.22,3.22,0,0,0-1,2.76c.24.72.09,2.3-1,2.31a7.14,7.14,0,0,0,13.79-2.62C30.26,56.62,30.25,56.49,30.24,56.35Zm-2.68,1.8A4.16,4.16,0,0,0,27,60.67c-.05.65.08.17-.82,1.25s-2.76-.05-3.07,0-.89-.48-1.68-.12-2.21-1.29-1.37-2.62a3.84,3.84,0,0,1-.84-2.42,3.9,3.9,0,0,1,7.8,0c0,.11,0,.22,0,.32S28.15,57.43,27.56,58.15Z" style="fill:#414142"/><path d="M23.11,52.87a3.89,3.89,0,0,0-3.89,3.89,3.91,3.91,0,0,0,3.89,3.91A3.9,3.9,0,0,0,27,57.08c0-.1,0-.21,0-.32A3.9,3.9,0,0,0,23.11,52.87Zm0,7a3.06,3.06,0,1,1,3.07-3.07A3.06,3.06,0,0,1,23.11,59.83Z" style="fill:#eae3dd"/><path d="M27.56,58.15A4.16,4.16,0,0,0,27,60.67c-.05.65.08.17-.82,1.25s-2.76-.05-3.07,0-.89-.48-1.68-.12-2.21-1.29-1.37-2.62a3.85,3.85,0,0,0,3.05,1.49A3.9,3.9,0,0,0,27,57.08S28.15,57.43,27.56,58.15Z" style="fill:#f79406"/><path d="M93.74,42.19c-1.08.6,2.16,1.8-.24,3.12s2.28,1.08.36,2,3.36,1.8-.12,3,1.2,2.28-.6,3.36,4.8,1-1,3.37,2.4,1.67,0,2.75,2.16,1.2-3.24,3.48.6,1.2-1.92,2.28c-2.07.88-8.24,2.89-13.5,4.38.94-.33,11.2-3.93,10.86-4.5s.43-.36-6.57,1.32-4.16.6,0-1.08,14.73-5.4,9.33-4.2-14.4,6.24-16.44,5.16-.6-.12,4.8-2.76,14.88-6.12,14.76-7.15,1.08-1.95-3.6.32-12.12,3.84-15.72,5.75-3,.12,1.2-2.16,16-6,18.17-7.8-2.84-.14-10.87,2.92-8.91,5.12-10.87,4.88,13.77-7.68,18-10S94,46,91.43,46.63s-17.85,9.6-19.05,10.13-2.88-.41,3.84-3.89,14.34-8,15.21-9.48,3.75-4-.57-1.32-9.65,6.24-13,8-3.51,1.2-1.11-.48,12.84-8.52,13.2-9.72,1.32-3.72-3.24,0-14.16,11.76-16,13-3,2.16-2.29.84,11.53-10.92,13.33-12.6,2.69-4.8-1.06-1.08S70.1,50.4,69.5,51.22s-.82,1.53-1.31,1.05,10.12-13,12.49-15.6,2.17-3.36,0-1.56S69.86,47.58,68.9,49.26a5.1,5.1,0,0,1-3.8,2.79c2.81-4.29,8.75-13.28,12.7-17.49h0a16,16,0,0,1,1.42-1.37c4.68-4,1.32,1.44,4.2-1.78s.24,1.66,3-.56.12,2.82,2.4.56c1.19-1.18.9-.28.67.66h0c-.21.86-.39,1.75.65,1.12,2.16-1.32-1.32,4.08,1.29,2.28s-3.09,4.8,2.43,1.92,1.92,1.44.36,2.64S94.82,41.59,93.74,42.19Z" style="fill:#2b2b2b"/><path d="M86.54,50.71c-4.2,2.28-19.92,9.72-18,10s2.85-1.8,10.87-4.88,13-4.69,10.87-2.92-14,5.52-18.17,7.8-4.8,4.08-1.2,2.16,11-3.48,15.72-5.75,3.48-1.33,3.6-.32S80.9,61.27,75.5,63.91s-6.84,1.68-4.8,2.76,11-4,16.44-5.16S82,64,77.81,65.71s-7,2.76,0,1.08,6.21-1.92,6.57-1.32S74.46,69.64,73.52,70l-.07,0-3.23.88c-5.64,1.44-7,3.12-6.6-.51s-1.2-5.25-3.84-8.61,1-4.67,1-4.67a8.42,8.42,0,0,0,2.88-2.77l1.48-2.26a5.1,5.1,0,0,0,3.8-2.79c1-1.68,9.6-12.35,11.77-14.15s2.39-1.08,0,1.56-13,15.12-12.49,15.6.71-.24,1.31-1.05S76.94,43.75,80.68,40s2.86-.6,1.06,1.08-12.6,11.28-13.33,12.6.49.36,2.29-.84,11.4-9.24,16-13,3.6-1.2,3.24,0-10.8,8-13.2,9.72-2.28,2.28,1.11.48,8.73-5.4,13-8,1.44-.12.57,1.32-8.49,6-15.21,9.48-5,4.44-3.84,3.89,16.44-9.53,19.05-10.13S90.74,48.43,86.54,50.71Z" style="fill:#414142"/><path d="M201.46,77c-2.72.13-2.09.13-2.24,2.38s.27,3.84-2.5,3,.73-1.92-2.94-3.2-3.22-1.44-3.77,1-3.22,2.91-5-.54c3.34-4.68,7.17-11.65,7.17-19A43.52,43.52,0,0,0,187.4,41,24.16,24.16,0,0,0,190,39.67s3.6,3.07,5.69,3.07,3.19,0,4.15,2.4,4.8,3.36,1.61,4.49-2.72,4.95-2.09,5.67.48,2-1.44,1.46-3.51-2.31-3.36.32-2.4,4.84-.31,6.14,1.44,4.17,3.19,3.84,1-2.35,2.73,0,1.7,4.14,2.53,4.62S204.17,76.86,201.46,77Z" style="fill:#414142"/><path d="M182.59,47.93c-3,1.87-7.83,1.63-11.21,1.7a98.31,98.31,0,0,1-12.13-.55c-3.84-.41-7.64-1-11.43-1.74a49.48,49.48,0,0,1-7.23-1.82c-3.48-1.25-6.28-3.16-3.62-5.85s13.92,2.59,23.37,4.83a39.66,39.66,0,0,0,14.53.48c2.57-.36,5.47-1.32,7.81.37C183.81,46.17,183.8,47.19,182.59,47.93Z" style="fill:#414142"/><path d="M152.18,32.48A149.11,149.11,0,0,1,137,33.69a220.08,220.08,0,0,0-27-6S115,15,118.21,7.84h0c2.11-2.09,2.12-.53,1.8.11s-1.36,4.08-1.68,5a12.9,12.9,0,0,1-1.2,2.57,20.63,20.63,0,0,0-1.92,3.74c-.33,1.1.08,1.85.51,1.37a7.83,7.83,0,0,1,1.49-1.37c1-.74.88-2.39,1.25-3.67s.91-.72.74-2.16,1.44-4.32,2.33-6.55,2.64-2.81,3.12-2.25a3.11,3.11,0,0,1-.24,3.28,43.65,43.65,0,0,0-2.64,4.16,57.09,57.09,0,0,0-2.72,5.68c-1.2,3.12-.24,2.64,0,2.81s.39-.57,1.68-3S122,14.9,122.9,14.5s1.44-3.36,2.07-5,2-3,3-2.07-.71,1.92-1.52,3.19-.07,1-.87,2.24-3,7.84-3.6,9.12-.81,2.25,0,1.6,3.51-5.28,4.23-7.27,4.17-7.13,5.61-7.61,2.48,0,1.92,1.23a10.82,10.82,0,0,1-1.6,2.78c-.89,1.11-.65,1.11-1,2.23s-1.29,1.52-2.64,4.16-2.16,4.32-1.84,4.78.55-.54,1.84-2.46a13,13,0,0,1,4.36-4.53c2.28-1.51,3.32-2,3.14-.67s1.62-.48,2.72-2,2.41,0,.58,2-5.85,6.48-5.44,6.88,1-.16,3.43-3.12,6.41-5.44,6.89-5,1.12,2,1.84,2-1.84,3.14-6.57,6.83-3,3.12-2.16,2.55S140,24,148.34,18.82a14.67,14.67,0,0,1,3.75-1.93,2.45,2.45,0,0,0,.29.18c-.07.7-2.51,3.09-1.73,2.8,1.29-.48-.79,1.75,1,1.27S146,26.26,142,27.79s-2.64,2.47-.33,1.15,7-4.51,8.58-5.08.56,1.68,2.07,1.44-.79,2.4-5.35,4.2-2.81,1.32,1.27.45,2-.24,4.17,0C153.63,30.08,153,31.37,152.18,32.48Z" style="fill:#e89b00"/><path d="M159.09,29.14c-.3,1.52-2,2.58-6.91,3.34.8-1.11,1.45-2.4.24-2.53-2.16-.24-.09-.89-4.17,0s-5.83,1.34-1.27-.45,6.88-4.44,5.35-4.2-.48-2-2.07-1.44-6.27,3.76-8.58,5.08-3.65.36.33-1.15,11.52-7.13,9.69-6.65.24-1.75-1-1.27c-.78.29,1.66-2.1,1.73-2.8,1.07.54,3.37.89,3,2-.48,1.44,1.6,1.77,1.6,3.69s2.88,2.23,1.92,3.36S159.61,26.59,159.09,29.14Z" style="fill:#2b2b2b"/><path d="M152.09,16.89a14.67,14.67,0,0,0-3.75,1.93C140,24,138.1,25.7,137.21,26.26s-2.55,1.12,2.16-2.55,7.29-6.86,6.57-6.83-1.36-1.57-1.84-2-4.4,2.09-6.89,5-3,3.53-3.43,3.12,3.6-4.87,5.44-6.88.53-3.51-.58-2-2.9,3.36-2.72,2-.86-.84-3.14.67a13,13,0,0,0-4.36,4.53c-1.29,1.92-1.53,2.91-1.84,2.46s.48-2.14,1.84-4.78,2.24-3,2.64-4.16.15-1.12,1-2.23a10.82,10.82,0,0,0,1.6-2.78c.56-1.23-.48-1.71-1.92-1.23s-4.89,5.6-5.61,7.61-3.43,6.63-4.23,7.27-.64-.31,0-1.6,2.79-7.92,3.6-9.12.08-1,.87-2.24,2.46-2.23,1.52-3.19-2.31.39-3,2.07-1.2,4.65-2.07,5-.88.72-2.16,3.12-1.44,3.13-1.68,3-1.2.31,0-2.81a57.09,57.09,0,0,1,2.72-5.68,43.65,43.65,0,0,1,2.64-4.16,3.11,3.11,0,0,0,.24-3.28c-.48-.56-2.24,0-3.12,2.25s-2.48,5.11-2.33,6.55-.38.89-.74,2.16-.29,2.93-1.25,3.67a7.83,7.83,0,0,0-1.49,1.37c-.43.48-.84-.27-.51-1.37a20.63,20.63,0,0,1,1.92-3.74,12.9,12.9,0,0,0,1.2-2.57c.32-1,1.35-4.39,1.68-5s.31-2.2-1.8-.11c1.45-3.17,2.56-5.24,2.76-4.61.63,2.08,5.28-5.43,5.76-2.55s4.8-.81,4.47.48,3.21.15,3.21,1.59S137.3,2.26,137.3,4s2.72,0,2.4,1.44,4.47,1.59,4.32,3.36,2.88,1.27,2.55,2.4,2.57,1.69,2.4,2.6,2.88,1.72,2.88,2.68A.51.51,0,0,0,152.09,16.89Z" style="fill:#2b2b2b"/><path d="M153.08,88.66c-.2,1-.58,1.12-1.71,1.77s.17,1.27,0,2.4.81,2.88-6.55,1.92c-4.7-.62-12.77-4.72-18-7.61l-1-.53c.41-.35,2.35.07,3.77.61,2.07.8,4.32.4,2.48-.6s1.75-.2.68-.84,6.44.88,8.9,1.36,4.82-1.36,2.58-2.32-.57-1,2.4-.56,1.59-.88-1.29-1.63-2-.93,1.37-.69a11,11,0,0,0,5.8-1.43,7.46,7.46,0,0,1,.54,3.33c-.05.93-.42,1-1.23,1.62S153.29,87.7,153.08,88.66Z" style="fill:#2b2b2b"/><path d="M146.66,84.26c-3-.4-4.65-.4-2.4.56s-.11,2.8-2.58,2.32-10-2-8.9-1.36-2.53-.17-.68.84-.41,1.4-2.48.6c-1.42-.54-3.36-1-3.77-.61-2.44-1.37-4-2.35-4-2.35l3.26-1,2.85-.92h0c6.9-2.24,11.85-3.87,22.48-4.09a4.48,4.48,0,0,1,2.13,2.3,11,11,0,0,1-5.8,1.43c-3.36-.24-4.25-.06-1.37.69S149.62,84.67,146.66,84.26Z" style="fill:#e89b00"/><path d="M116.18,92.26c-8,.88-16.07-3.23-16.07-3.23,4.08-.49,7.55-1.09,10.62-1.76h0c2,.06,4.08,1.72,4.56,1.76s.79,1.16,1.2,1.31.16.88.88.88S124.18,91.39,116.18,92.26Z" style="fill:#2b2b2b"/><path d="M23.91,53.89a2.27,2.27,0,1,1,2.27,2.27A2.26,2.26,0,0,1,23.91,53.89Z" style="fill:#eae3dd"/></g></g></svg>