<svg xmlns="http://www.w3.org/2000/svg" viewBox="0 0 675.21 206.24"><title>Asset 9</title><g id="Layer_2" data-name="Layer 2"><g id="Ñëîé_2" data-name="Ñëîé 2"><path d="M56.25,167.82h0a15,15,0,0,1-6.18,1.76c-14.19,1.7-11.5-3.44-11-4.9s3.9-2,3.9-2c.73-2.68-2.93-3.41-7.82-3.66-3.93-.21-3.6-2.94-1.66-4.76l.05,0a5.17,5.17,0,0,1,1.12-.83,0,0,0,0,0,0,0,4,4,0,0,1,.46-.23c2.23-1,5.88.1,9.8,1.87,1.69.77,3.42,1.65,5.12,2.53C54.49,159.91,60.74,165,56.25,167.82Z" style="fill:#ead9b9"/><path d="M537.2,126.54c-2.2,8.79-9.76,29.77-6.7,36.41-6.53,1.58-15.72,3.72-26.84,6.14h0c-18.41,4-42.05,8.75-67.45,12.9h0c-19.46,3.17-39.94,6-59.9,7.82h0c-17-3.37-37.64-6.5-42.83-6.64,0,0-3.74.47-3,3.77.25,1.11,1.63,3,4.11,5.12H331.9c-32.43,0-50.26,2.54-76.62,2.34-14.91-7.25-40.93-18.46-69.85-24.49,0,0-5.43,1.87-5.4,5.44,0,0-19.69-6.93-24.57-20.29s-13.94-.34-29.83,10.14c-15.16,10-34.78,8.7-36.57,8.55a0,0,0,0,1,0,0c-10.29-1.82-21.19-3.8-32.77-5.94,4.49-2.86-1.76-7.91-6.19-10.23-1.7-.88-3.43-1.76-5.12-2.52,0,0,8.63-4.57,12.87-4.33s14.26,0,20.61-3.42,16.63-10,21.76-6.49a48.8,48.8,0,0,0,12.18,5.54h0l.13,0,.19.06a11.19,11.19,0,0,0,1.16.37c.35.1.72.17,1.1.25h.1c.38.07.78.12,1.18.16h.05a10.7,10.7,0,0,0,1.27.06,14.54,14.54,0,0,0,12.1-6.49,14.21,14.21,0,0,0,1.67-3.41,14.37,14.37,0,0,0,.77-4.66,14.54,14.54,0,0,0-27.28-7c-2.48,1.86-7.47,5.71-8.42,7-1.28,1.78-9.73,3.38-13.4,5.87s-13.38,4.29-18.34,5S52,145.49,47.61,146s-12.43,7-12.93,7.39a0,0,0,0,1,0,0,4.9,4.9,0,0,0-1.12.84l-.05,0c-.75.49-12.78,8.37-13.26,15.62-.49,7.48-.49,12.37-2.2,15.55s-1-5.14-1.71-9.79-3.18-7.08,0-11.49,3.17-4.69-1.6-2.83-9.9,3.16-11.85,8.86-3.92,4.24-2.2-2.84,1-9.3,6.6-10.77S19.73,152,23.65,148.3a23.64,23.64,0,0,1,7.4-4.62c3,.06,7,.09,8-.06,1.7-.22,23.59-8.16,27.63-9.75S91.88,125.56,98.23,122s11.37-7.09,20.43-7.7,25.31.85,29.09-2.94,7.09-6.12,13-7.58c5-1.25,12.21-4.36,11.21-8.73,2.38-.34,4.83-.68,7.34-1,1.6,4.46,3.21,10.71,1.63,14.86-2.69,7.1-10.51,10.52-7.09,18s7.82,10.54,11,16.82,1.47-6.23,6.36-14.77,5.87-15.13,4.16-20c-1.08-3.11,1.62-10.29,2.39-17,2.73-.29,5.51-.57,8.32-.84,1.3,4.42,2.53,10.12,2.12,14.65a11.93,11.93,0,0,1-.85,3.74c-1.68,4-2.37,9.92-2.07,15.24.32,5.52,1.67,10.38,4,11.63,4.64,2.48,20.29,9.08,19.08,19.83s3.67,21.28,5.87,25.2S245,184.74,245,177.4s-5.38-17.77-5.38-22.33.73-15.09-8.07-20a12.27,12.27,0,0,1-5.81-6.58c-1.76-4.69-.59-10.15.67-14A37.65,37.65,0,0,0,227.53,104a55.36,55.36,0,0,0-1.92-14.6c2.68-.22,5.4-.41,8.11-.59.08.56.15,1.14.24,1.73.55,4.14,1.27,9,2.11,13.28.19.93.37,1.82.56,2.69.13.61.26,1.21.41,1.8.06.28.13.54.2.81.21.82.41,1.6.63,2.3a26.84,26.84,0,0,1,.86,3.89c.05.35.1.7.14,1.06s.09.71.13,1.08.08.73.11,1.1l.09,1.12c.05.75.1,1.52.14,2.29,0,.38,0,.76.06,1.16,0,.64.06,1.3.09,2s0,1,.06,1.51c0,1.11.09,2.21.16,3.3s.15,2.24.25,3.3c0,.34.07.68.12,1,.11.88.24,1.72.41,2.51,0,.24.1.47.16.71s.16.61.25.91.13.41.2.61a5.07,5.07,0,0,0,.31.78l.26.54c.11.21.22.4.34.59a5.38,5.38,0,0,0,1.23,1.39c5.39,4.16,12.73,16.88,16.88,25.68s1.72,11.74,8.32,13.46,7.33-8.57,8.8-12.72-3.92-14.68-5.62-21.28c-.07-.28-.16-.57-.26-.87s-.22-.61-.34-.92-.29-.69-.45-1.06-.28-.58-.44-.89c-.27-.53-.55-1.07-.86-1.62-.13-.25-.26-.49-.41-.74-1.55-2.76-3.46-5.73-5-8.46-.18-.32-.36-.64-.52-.95s-.36-.67-.53-1a23,23,0,0,1-1.17-2.63c-.07-.17-.13-.35-.19-.53a6.26,6.26,0,0,1-.34-3,6.85,6.85,0,0,0,0-2c0-.16,0-.34-.08-.51s0-.08,0-.11c0-.19-.06-.39-.1-.58a42.93,42.93,0,0,0-1.85-6q-.14-.35-.27-.72c-.5-1.29-1-2.61-1.49-3.89-.15-.38-.28-.75-.42-1.11a42.29,42.29,0,0,1-1.46-4.57c-.08-.3-.13-.61-.19-.91l-.09-.51c0-.25-.06-.5-.08-.73-.35-5.31,4.07-7.56.58-15.38,4.44-.09,9.33-.09,14.6,0,.23.88.47,1.82.72,2.79s.45,1.74.69,2.64c.57,2.23,1.18,4.56,1.8,6.84.19.7.38,1.41.57,2.1s.35,1.36.55,2c.68,2.55,1.35,4.86,1.89,6.65a48.74,48.74,0,0,1,1.35,5.72c.09.46.16.91.23,1.36.11.65.19,1.28.28,1.91.05.31.09.62.12.91q.09.7.18,1.38.15,1.41.3,2.73c.19,1.82.38,3.48.63,4.93,0,.22.08.44.12.66s.09.43.13.62a12.28,12.28,0,0,0,.58,1.9c1.7,4.29,3.66,15.62,7.33,22.31s9.29,13.53,11.74,18.41,8.31,5.39,10.76,4.17-4.16-13-2.69-19.33a16.6,16.6,0,0,0,.25-4.5,10.87,10.87,0,0,0-.1-1.25c-.08-.89-.19-1.82-.37-2.79a9.5,9.5,0,0,0-.18-1,.88.88,0,0,0,0-.16c0-.39-.14-.78-.23-1.18-.11-.56-.23-1.14-.38-1.73A86.29,86.29,0,0,0,303.3,135c-.2-.52-.4-1-.6-1.54a.49.49,0,0,1,0-.11l-.59-1.46-.65-1.46c-.23-.52-.47-1-.7-1.5-4.15-8.53-3.67-15.63-6.85-24.67,0,0,0,0,0,0l-.54-1.55c-.24-.64-.46-1.25-.66-1.84s-.5-1.38-.72-2c-.1-.34-.22-.65-.32-1-.21-.62-.4-1.22-.58-1.81-.08-.29-.17-.57-.25-.85l-.22-.83c-.13-.55-.24-1.09-.35-1.62,0-.18-.06-.34-.09-.51s-.05-.44-.08-.66l-.09-.91v-.06c0-.31,0-.63,0-1A13.67,13.67,0,0,1,290,88.1c3,.12,6.09.23,9.23.37l0,.16.05.16c.27.88,1.05,3.45,2.12,6.54.17.55.38,1.12.58,1.69.55,1.56,1.15,3.18,1.79,4.76.3.74.61,1.49.91,2.2l.18.39c.1.25.22.52.34.77s.22.48.34.71.21.47.33.69a21.27,21.27,0,0,0,1.66,2.88,7.21,7.21,0,0,1,.82,1.54,6.37,6.37,0,0,1,.31.84c0,.13.09.26.12.39s.09.28.12.43c.13.44.23.91.33,1.39a8.51,8.51,0,0,1,.18.93.06.06,0,0,1,0,0q.12.69.24,1.41c.22,1.39.41,2.92.63,4.52.09.72.19,1.45.29,2.2.33,2.25.72,4.61,1.28,7h0c.35,1.5.78,3,1.28,4.49a35.47,35.47,0,0,0,2.12,5c.19.39.41.77.63,1.15s.44.77.68,1.14c7.58,12,7.83,27.39,10,31.06S340.58,175,343.27,175s1-18.34,0-23.48a8.76,8.76,0,0,0-.29-1.07c-.06-.2-.14-.41-.21-.62a.76.76,0,0,1-.06-.16q-.19-.52-.45-1.11c-1.68-3.91-5-9.64-7.56-14.81-.28-.55-.56-1.11-.82-1.65-.47-1-.93-1.94-1.31-2.84-.45-1.05-.83-2-1.11-2.92-.06-.22-.12-.41-.18-.61-.1-.35-.17-.68-.23-1-.88-4.62.11-11.12-.49-16.3,0-.33-.08-.67-.14-1s-.15-.84-.25-1.23-.12-.46-.19-.68a7.59,7.59,0,0,0-.31-.88,8.13,8.13,0,0,0-.82-1.58c-3.44-5.09-4.19-13.34-4.19-13.34l11.79.63s.1.68.29,1.83c.06.3.1.62.18,1a1.77,1.77,0,0,0,0,.21c.05.28.1.59.16.91,0,.16.07.32.09.48s.08.43.13.65,0,.26.07.39.07.36.1.55a5.78,5.78,0,0,1,.12.57c.07.35.15.7.22,1.07.44,2.06,1,4.34,1.57,6.69a.75.75,0,0,1,0,.16c0,.12.08.24.11.36.33,1.24.7,2.5,1.08,3.75a.32.32,0,0,1,0,.09c.19.6.38,1.19.59,1.76s.32,1,.5,1.41.37.92.54,1.36c.06.15.12.3.18.43.14.34.29.69.44,1s.25.56.38.82.32.68.5,1a15.49,15.49,0,0,0,2.15,3.17c.36.38.69.76,1,1.12.13.15.28.31.4.47s.29.36.42.53.34.43.5.65a4.69,4.69,0,0,1,.47.63q.4.57.78,1.14a5.6,5.6,0,0,1,.35.55c.22.35.43.69.63,1s.4.7.58,1.07a11,11,0,0,1,.54,1.09.12.12,0,0,1,0,.1q.31.63.57,1.29a2.63,2.63,0,0,1,.15.35c.22.51.43,1,.62,1.59a3,3,0,0,1,.14.42c.15.41.28.82.42,1.25a3.29,3.29,0,0,1,.1.37c.16.52.32,1,.47,1.6.69,2.52,1.27,5.31,1.86,8.43,1.95,10.55,1.7,19.36,4.15,25.23s1,7.39,8.07,6.51,3.67-9.45,6.12-15.82,0-20-2.2-27.63a18.86,18.86,0,0,0-.61-1.79c-.15-.39-.31-.77-.49-1.16-.26-.63-.56-1.23-.86-1.83l-.23-.42c-.26-.51-.51-1-.79-1.49s-.67-1.26-1-1.89c-.16-.32-.32-.65-.48-1-.49-1-.94-1.94-1.34-2.94-.13-.38-.28-.76-.4-1.16s-.23-.79-.35-1.2-.16-.7-.22-1.06a6.87,6.87,0,0,1-.13-.83c0-.25-.06-.52-.09-.77s0-.29,0-.44a15.61,15.61,0,0,1,.41-4.56,8.33,8.33,0,0,0,.2-1.09c.06-.36.11-.72.15-1.07a18.89,18.89,0,0,0,.09-2.8,5.16,5.16,0,0,0-.05-.67c0-.22,0-.44-.05-.66a24,24,0,0,0-.44-2.54v0c-.11-.4-.21-.78-.31-1.16,0,0,0-.05,0-.06-.11-.37-.22-.72-.33-1.06-.25-.73-.53-1.41-.81-2-.09-.22-.18-.42-.28-.63s-.24-.47-.34-.69-.2-.39-.31-.58a21,21,0,0,0-1.67-2.67c4.67.24,9.33.51,14,.76h0l.09.22a3.42,3.42,0,0,0,.19.44c.09.2.19.45.32.75l.35.85a.75.75,0,0,0,.06.13L377,96.4c.13.34.28.71.42,1.08a3.34,3.34,0,0,1,.15.38c.76,1.89,1.63,4.13,2.52,6.53,1,2.74,2.06,5.69,2.94,8.52.2.63.39,1.26.57,1.88.28.95.57,1.91.88,2.85s.54,1.65.81,2.48c.67,2,1.36,4,2,5.94l.35,1c.1.32.22.65.31,1,.23.72.45,1.42.66,2.14.09.28.17.56.25.84.2.72.39,1.44.57,2.14.1.37.19.72.26,1.07s.17.71.24,1.06.13.67.19,1c.15.81.28,1.61.37,2.41,0,.2.06.41.07.61,0,.5.09,1,.12,1.5,0,.73,0,1.47,0,2.19a5.12,5.12,0,0,1,0,.68c-.49,9.22,1,22.19,2.93,26.83s5.39,5.63,10,3.43,11.24-8.57,8.3-16.64-5.62-25.18-5.62-30.44c0-.61,0-1.3-.09-2,0-.23,0-.47,0-.72s0-.37-.06-.56c-.09-.91-.21-1.89-.37-2.89,0-.23-.07-.48-.1-.72-.27-1.67-.59-3.41-.94-5.07-.07-.38-.16-.78-.25-1.15s-.16-.72-.25-1.07-.18-.69-.26-1c-.18-.72-.36-1.4-.55-2-.07-.26-.16-.51-.23-.76-.27-.83-.52-1.54-.76-2.11a13.19,13.19,0,0,1-.71-2.36c-.13-.59-.25-1.22-.35-1.9s-.19-1.17-.27-1.79c0-.3-.08-.61-.11-.92-.08-.62-.15-1.25-.21-1.86,0-.36-.07-.72-.1-1.08s-.09-.9-.12-1.33-.06-.66-.07-1-.06-.62-.07-.89l1.57.07c3.62.17,7.18.32,10.71.47,0,0,0,.54.13,1.48,0,.12,0,.27,0,.4.06.73.15,1.64.25,2.68,0,.32.08.65.1,1,.09.86.2,1.8.3,2.79,0,.39.09.79.13,1.2l.09.76c.07.58.13,1.16.2,1.75s.15,1.22.22,1.83c.18,1.34.36,2.67.55,4,.06.39.11.79.17,1.17a.86.86,0,0,0,0,.17c.06.39.12.78.18,1.14.26,1.64.53,3.16.82,4.5.06.25.1.48.16.72.16.7.32,1.33.5,1.89,0,.12.07.24.1.34a5.56,5.56,0,0,0,.68,1.51c.14.21.29.44.44.7l0,.06a3.35,3.35,0,0,1,.21.36c.19.35.39.72.63,1.14a10.12,10.12,0,0,1,.45.93c.11.2.19.4.3.61s.26.53.38.82a2.81,2.81,0,0,1,.22.5c.35.78.7,1.62,1,2.53.19.46.38,1,.56,1.48s.38,1,.56,1.55.42,1.26.63,1.92c.42,1.31.82,2.67,1.17,4.08.12.41.22.84.31,1.27s.22.91.32,1.38c.31,1.36.57,2.75.79,4.16s.38,2.82.5,4.23c1,12,1.47,19.31,8.32,17.61s12.22-15.18,10.27-21.53c-.16-.51-.33-1.07-.53-1.67,0-.14-.08-.27-.13-.4l-.79-2.42c-.09-.25-.16-.5-.25-.75s-.16-.5-.25-.75c-.47-1.41-.95-2.9-1.44-4.43-.2-.61-.39-1.23-.58-1.86-.34-1.06-.66-2.1-1-3.14-.13-.41-.25-.82-.35-1.23-.23-.83-.45-1.62-.65-2.38-.1-.38-.19-.76-.27-1.15s-.18-.73-.25-1.08c-.16-.72-.28-1.4-.38-2a3.6,3.6,0,0,1-.09-.61,13.81,13.81,0,0,1-.16-2c0-1,0-2.13-.05-3.21,0-.37,0-.73,0-1.1,0-.54-.06-1.09-.1-1.64-.09-1.11-.21-2.22-.39-3.36-.08-.58-.19-1.15-.3-1.74-.08-.39-.17-.8-.27-1.21a22.2,22.2,0,0,0-.66-2.41c-.18-.6-.38-1.22-.62-1.84s-.48-1.26-.76-1.9a16,16,0,0,1-1.17-8.09c5.09.14,10,.22,14.67.27.1.69.22,1.41.35,2.15.09.49.16,1,.25,1.46.12.67.25,1.35.37,2,0,.18.06.35.1.53.16.88.34,1.76.52,2.66.07.43.17.87.26,1.31.19.94.4,1.85.6,2.76.09.39.18.78.28,1.16a5,5,0,0,0,.18.74c.05.23.11.45.17.67.25,1,.52,1.94.78,2.8.34,1.09.69,2.23,1,3.42s.7,2.45,1,3.76c.17.62.33,1.23.49,1.86s.35,1.46.51,2.19c.31,1.3.6,2.65.88,4,.13.69.27,1.4.4,2.1s.25,1.41.37,2.13c.08.51.17,1,.24,1.57s.17,1.06.24,1.6c.15,1.06.28,2.13.4,3.21.05.54.11,1.09.16,1.63.1,1.09.19,2.19.25,3.29,0,.44.05.89.07,1.35,0,.64,0,1.3.06,1.95.25,12.71-.25,18.09,7.33,16.87s5.14-6.72,10.28-19c.17-.41.33-.81.48-1.22a11.54,11.54,0,0,0,.45-1.19c.22-.6.43-1.19.62-1.78l.19-.57c.12-.39.24-.78.35-1.16.21-.67.39-1.35.55-2s.38-1.6.51-2.36c.06-.35.13-.7.19-1,.09-.53.16-1,.22-1.53s.12-1,.16-1.46.08-1,.09-1.43a16.64,16.64,0,0,0,0-1.86c0-.18,0-.37,0-.54,0,0,0,0,0,0s0,0,0,0a1.6,1.6,0,0,0,0-.31.1.1,0,0,0,0-.07s0,0,0,0v0a2.42,2.42,0,0,0,0-.47s0,0,0,0v0s0-.05,0-.07a7.17,7.17,0,0,0-.07-.81c0-.22-.05-.44-.08-.66a5.21,5.21,0,0,0-.1-.69,6.06,6.06,0,0,0-.12-.64s0,0,0,0a1.12,1.12,0,0,0-.05-.31c0-.18-.08-.35-.12-.53s-.07-.26-.1-.39a.42.42,0,0,0,0-.12c-.06-.25-.14-.49-.21-.72a1.82,1.82,0,0,0-.13-.37,4.44,4.44,0,0,0-.24-.64.17.17,0,0,0,0-.12h0a8,8,0,0,0-.4-.89,1.19,1.19,0,0,0-.18-.33.24.24,0,0,0-.07-.13,4.09,4.09,0,0,0-.37-.64c-.09-.13-.19-.29-.28-.44s-.2-.32-.3-.5c-.77-1.2-1.71-2.83-2.72-4.7-.23-.44-.48-.91-.73-1.4l-.57-1.13c-.15-.29-.3-.59-.44-.88-.44-.89-.88-1.82-1.31-2.76a0,0,0,0,1,0,0c-.22-.48-.42-1-.63-1.44-.69-1.59-1.32-3.21-1.83-4.78-.13-.4-.26-.78-.37-1.16a3.14,3.14,0,0,1-.13-.45c-.07-.24-.13-.47-.19-.69-.1-.37-.19-.74-.26-1.1a6.44,6.44,0,0,1-.18-.85,3.21,3.21,0,0,1-.07-.43c0-.13-.06-.28-.08-.41,6.15-.19,11.61-.53,16.22-1.06.14,1.43.33,3,.57,4.74.07.56.15,1.15.23,1.73.11.77.22,1.53.36,2.31.1.57.2,1.16.3,1.74s.21,1.16.33,1.74.19.93.28,1.39c.38,1.72.79,3.37,1.26,4.89.07.23.14.45.22.67.2.63.41,1.23.64,1.81.11.27.22.52.34.77s.24.52.35.77a10.59,10.59,0,0,0,1,1.65c4.89,6.64,12.22,8.84,8.31,23.26s-10.28,23-2.21,21.28,10.28-3.67,16.14-14.93,11.74-18.82,9.06-28.36-5.62-14.92-11-20.29A41.72,41.72,0,0,1,501.36,89c4.44-1.7,9.25-3.58,14.29-5.58C519.14,90,524.74,99.79,528.4,103,534,108,539.4,117.74,537.2,126.54Z" style="fill:#d2c06a"/><path d="M160.71,103.78c-5.87,1.47-9.17,3.8-13,7.59s-20,2.32-29.09,2.93-14.07,4.16-20.43,7.71-27.51,10.27-31.54,11.85-25.93,9.54-27.63,9.76c-1.05.15-5.05.12-8,.06,2.31-1,5-1.86,8.24-3,7.34-2.46,72.63-28.87,86.34-35.47,7-3.35,23.91-7,46.29-10.2C172.92,99.43,165.71,102.54,160.71,103.78Z" style="fill:#2b2b2b"/><path d="M195.32,108.92c1.71,4.9.74,11.5-4.16,20S188,150,184.8,143.72s-7.58-9.36-11-16.83,4.4-10.87,7.09-18c1.58-4.15,0-10.4-1.63-14.86,5.87-.77,12-1.5,18.45-2.19C196.94,98.63,194.24,105.81,195.32,108.92Z" style="fill:#61745d"/><path d="M206,91c6.36-.63,12.9-1.18,19.58-1.68a55.36,55.36,0,0,1,1.92,14.6c-1.53,0-3,.07-4.56.13-4.92.19-10.08,0-14.82,1.6C208.56,101.15,207.33,95.45,206,91Z" style="fill:#61745d"/><path d="M245,177.4c0,7.34-8.55,7.82-10.75,3.92s-7.11-14.44-5.87-25.2-14.44-17.35-19.08-19.83c-2.36-1.25-3.71-6.11-4-11.63a80.72,80.72,0,0,0,12.56,2.76c2.62.43,5.25.8,7.91,1.1a12.27,12.27,0,0,0,5.81,6.58c8.8,4.88,8.07,15.4,8.07,20S245,170.06,245,177.4Z" style="fill:#61745d"/><path d="M236.07,103.77c-.84-4.31-1.56-9.14-2.11-13.28-.09-.59-.16-1.17-.24-1.73,4.77-.32,9.58-.62,14.43-.86,2.33-.12,4.85-.21,7.54-.27,3.49,7.82-.93,10.07-.58,15.38,0,.23,0,.48.08.73Q245.62,103.65,236.07,103.77Z" style="fill:#61745d"/><path d="M277.24,168.6c-1.47,4.15-2.2,14.42-8.8,12.72s-4.15-4.65-8.32-13.46-11.49-21.52-16.88-25.68a5.38,5.38,0,0,1-1.23-1.39c-.12-.19-.23-.38-.34-.59l-.26-.54a5.07,5.07,0,0,1-.31-.78c-.07-.2-.14-.41-.2-.61s-.18-.59-.25-.91-.12-.47-.16-.71c-.17-.79-.3-1.63-.41-2.51-.05-.33-.09-.67-.12-1-.1-1.06-.19-2.17-.25-3.3,2.35.16,4.68.31,7,.43q8,.41,16.06.54c.17.34.34.67.53,1s.34.63.52.95c1.55,2.73,3.46,5.7,5,8.46.15.25.28.49.41.74.31.55.59,1.09.86,1.62.16.31.29.6.44.89s.3.72.45,1.06.23.62.34.92.19.59.26.87C273.32,153.92,278.71,164.44,277.24,168.6Z" style="fill:#61745d"/><path d="M284.45,104.12l-9.83-.13c-.2-.66-.37-1.33-.55-2s-.38-1.4-.57-2.1c-.62-2.28-1.23-4.61-1.8-6.84-.24-.9-.47-1.77-.69-2.64s-.49-1.91-.72-2.79c6.1.09,12.7.27,19.7.5a13.67,13.67,0,0,0-.07,1.56c0,.32,0,.64,0,1v.06l.09.91c0,.22.06.44.08.66s.06.33.09.51c.11.53.22,1.07.35,1.62l.22.83c.08.28.17.56.25.85.18.59.37,1.19.58,1.81.1.32.22.63.32,1,.22.64.47,1.32.72,2s.42,1.2.66,1.84l.54,1.55Z" style="fill:#61745d"/><path d="M310.26,177.65c-2.45,1.22-8.32.73-10.76-4.17s-8.07-11.74-11.74-18.41-5.63-18-7.33-22.31a12.28,12.28,0,0,1-.58-1.9c7.06-.06,14.28-.21,21.57-.41l.65,1.46.59,1.46a.49.49,0,0,0,0,.11c.2.5.4,1,.6,1.54a86.29,86.29,0,0,1,3.24,10.67c.14.57.27,1.16.38,1.73.09.4.17.79.23,1.18a.88.88,0,0,1,0,.16,9.5,9.5,0,0,1,.18,1c.18,1,.29,1.9.37,2.79,0,.43.09.84.1,1.25a16.6,16.6,0,0,1-.25,4.5C306.1,164.68,312.71,176.42,310.26,177.65Z" style="fill:#61745d"/><path d="M329.67,104.59q-12.39-.06-24.77-.22l-.18-.39c-.3-.71-.61-1.46-.91-2.2-.64-1.58-1.24-3.2-1.79-4.76-.2-.57-.39-1.14-.58-1.69-1.07-3.09-1.85-5.66-2.12-6.54l-.05-.16,0-.16,3.16.13c7.17.31,14.64.67,22.28,1.07,0,0,.75,8.25,4.19,13.34A8.13,8.13,0,0,1,329.67,104.59Z" style="fill:#61745d"/><path d="M343.27,175c-2.69,0-14.42,1.72-16.62-1.95s-2.46-19.08-10-31.06c-.24-.37-.47-.75-.68-1.14s-.44-.76-.63-1.15a35.47,35.47,0,0,1-2.12-5,43.74,43.74,0,0,1-1.28-4.49h0c6.9-.27,13.82-.56,20.67-.9.38.9.84,1.85,1.31,2.84.26.54.54,1.1.82,1.65,2.6,5.17,5.88,10.9,7.56,14.81.16.39.32.76.45,1.11a.76.76,0,0,0,.06.16c.07.21.15.42.21.62a8.76,8.76,0,0,1,.29,1.07C344.25,156.61,346,175,343.27,175Z" style="fill:#61745d"/><path d="M360.61,104.52c-7.07.09-14.11.12-21.18.1h0c-.62-2.35-1.13-4.63-1.57-6.69-.07-.37-.15-.72-.22-1.07a5.78,5.78,0,0,0-.12-.57c0-.19-.06-.37-.1-.55s0-.26-.07-.39-.09-.44-.13-.65-.06-.32-.09-.48c-.06-.32-.11-.63-.16-.91a1.77,1.77,0,0,1,0-.21c-.08-.35-.12-.67-.18-1-.19-1.15-.29-1.83-.29-1.83,8.2.44,16.55.9,24.91,1.37A21,21,0,0,1,363,94.34c.11.19.21.38.31.58s.22.46.34.69.19.41.28.63c.28.63.56,1.31.81,2,.11.34.22.69.33,1.06,0,0,0,0,0,.06.1.38.2.76.31,1.16v0a18.69,18.69,0,0,1,.44,2.54c0,.22,0,.44.05.66a5.16,5.16,0,0,1,.05.67C364.16,104.47,362.39,104.5,360.61,104.52Z" style="fill:#61745d"/><path d="M374.33,159.54c-2.45,6.37,1,14.92-6.12,15.82s-5.62-.65-8.07-6.51-2.2-14.68-4.15-25.23c-.59-3.12-1.17-5.91-1.86-8.43-.15-.55-.3-1.09-.47-1.6a3.29,3.29,0,0,0-.1-.37c-.14-.43-.27-.84-.42-1.25a3,3,0,0,0-.14-.42c-.19-.55-.4-1.08-.62-1.59a2.63,2.63,0,0,0-.15-.35q-.25-.66-.57-1.29a.12.12,0,0,0,0-.1c6.31-.36,12.51-.74,18.55-1.09.3.6.6,1.2.86,1.83.18.39.34.77.49,1.16a18.86,18.86,0,0,1,.61,1.79C374.33,139.49,376.77,153.19,374.33,159.54Z" style="fill:#61745d"/><path d="M435,104.91c-6.85-.16-14-.29-21.24-.38l-.09-.76c0-.41-.09-.81-.13-1.2-.1-1-.21-1.93-.3-2.79,0-.35-.07-.68-.1-1-.1-1-.19-2-.25-2.68,0-.13,0-.28,0-.4-.09-.94-.13-1.48-.13-1.48,7,.29,13.83.53,20.35.7a16,16,0,0,0,1.17,8.09C434.52,103.65,434.77,104.28,435,104.91Z" style="fill:#61745d"/><path d="M434.24,168.85c-6.85,1.7-7.33-5.64-8.32-17.61-.12-1.41-.28-2.83-.5-4.23s-.48-2.8-.79-4.16c-.1-.47-.2-.93-.32-1.38s-.19-.86-.31-1.27q-.56-2.12-1.17-4.08c-.21-.66-.41-1.3-.63-1.92s-.37-1-.56-1.55-.37-1-.56-1.48c-.34-.91-.69-1.75-1-2.53a2.81,2.81,0,0,0-.22-.5c-.12-.29-.25-.56-.38-.82a4.92,4.92,0,0,0-.3-.61,10.12,10.12,0,0,0-.45-.93c-.22-.42-.43-.81-.63-1.14a3.35,3.35,0,0,0-.21-.36.07.07,0,0,0,0-.06c6.94-.38,13-.64,17.84-.74.65,0,1.3,0,1.93-.06a3.6,3.6,0,0,0,.09.61c.1.63.22,1.31.38,2,.07.35.16.72.25,1.08s.17.77.27,1.15c.2.76.42,1.55.65,2.38.1.41.22.82.35,1.23.3,1,.62,2.08,1,3.14.19.63.38,1.25.58,1.86.49,1.53,1,3,1.44,4.43.09.25.16.5.25.75s.16.5.25.75l.79,2.42c0,.13.09.26.13.4.2.6.37,1.16.53,1.67C446.46,153.67,441.09,167.13,434.24,168.85Z" style="fill:#61745d"/><path d="M452.63,116.9c.35,1.21.7,2.45,1,3.76C453.32,119.35,453,118.11,452.63,116.9Z" style="fill:#61745d"/><path d="M470.44,106.38c-6.21-.41-13.25-.75-20.85-1-.09-.44-.19-.88-.26-1.31-.18-.9-.36-1.78-.52-2.66,0-.18-.07-.35-.1-.53-.12-.7-.25-1.38-.37-2-.09-.49-.16-1-.25-1.46-.11-.74-.23-1.46-.35-2.15,6.82.07,13.19,0,18.94-.15,0,.13.05.28.08.41a3.21,3.21,0,0,0,.07.43,6.44,6.44,0,0,0,.18.85c.07.36.16.72.26,1.1.06.22.12.45.19.69a3.14,3.14,0,0,0,.13.45c.11.38.24.76.37,1.16.51,1.57,1.14,3.19,1.83,4.78.21.47.41,1,.63,1.44A0,0,0,0,0,470.44,106.38Z" style="fill:#61745d"/><path d="M479.14,129.68c0,.47-.06.94-.09,1.43s-.1,1-.16,1.46-.13,1-.22,1.53c-.06.34-.13.69-.19,1-.13.76-.31,1.56-.51,2.36s-.34,1.34-.55,2c-.11.38-.23.77-.35,1.16l-.19.57c-.19.59-.4,1.18-.62,1.78-.14.4-.29.79-.45,1.19s-.31.81-.48,1.22c-5.14,12.29-2.69,17.78-10.28,19s-7.08-4.16-7.33-16.87c0-.65,0-1.31-.06-1.95,0-.46,0-.91-.07-1.35-.06-1.1-.15-2.2-.25-3.29,0-.54-.11-1.09-.16-1.63-.12-1.08-.25-2.15-.4-3.21-.07-.54-.15-1.07-.24-1.6s-.16-1.06-.24-1.57c-.12-.72-.24-1.42-.37-2.13s-.27-1.41-.4-2.1c-.28-1.38-.57-2.73-.88-4-.16-.73-.34-1.47-.51-2.19a193.15,193.15,0,0,0,23.27-3.23,8,8,0,0,1,.4.89h0a.17.17,0,0,1,0,.12,4.44,4.44,0,0,1,.24.64,1.82,1.82,0,0,1,.13.37c.07.23.15.47.21.72a.42.42,0,0,1,0,.12c0,.13.07.26.1.39s.09.35.12.53a1.67,1.67,0,0,1,.05.31s0,0,0,0a6.06,6.06,0,0,1,.12.64,5.21,5.21,0,0,1,.1.69c0,.22.06.44.08.66a7.17,7.17,0,0,1,.07.81s0,0,0,.07,0,0,0,0a2.42,2.42,0,0,1,0,.47v0s0,0,0,0a.1.1,0,0,1,0,.07c0,.1,0,.2,0,.31s0,0,0,0,0,0,0,0A19.31,19.31,0,0,1,479.14,129.68Z" style="fill:#61745d"/><path d="M511,147.8c-5.86,11.26-8.07,13.21-16.14,14.93s-1.7-6.86,2.21-21.28-3.42-16.62-8.31-23.26a10.59,10.59,0,0,1-1-1.65,33.75,33.75,0,0,0,9.38-4.51c2.41-1.82-2.5-3.28-12.19-4.4-.09-.46-.2-.93-.28-1.39s-.22-1.16-.33-1.74-.2-1.17-.3-1.74c-.14-.78-.25-1.54-.36-2.31-.08-.58-.16-1.17-.23-1.73-.24-1.7-.43-3.31-.57-4.74a52.15,52.15,0,0,0,11.87-2.42L501.36,89a41.72,41.72,0,0,0,7.71,10.11c5.39,5.37,8.32,10.75,11,20.29S516.89,136.56,511,147.8Z" style="fill:#61745d"/><path d="M558.48,138.52c-.25,5.13-12.71,21.42-12.71,21.42a71.92,71.92,0,0,0-9.92,1.69L530.5,163c-3.06-6.64,4.5-27.62,6.7-36.41S534,108,528.4,103c-3.66-3.22-9.26-13-12.75-19.55,4.49-1.79,9.15-3.68,13.89-5.65a72.07,72.07,0,0,1,8.84,6.27,91.72,91.72,0,0,1,10.56,10.17c5.14,5.87,6.84,16.87,7.09,24.46S558.71,133.38,558.48,138.52Z" style="fill:#61745d"/><path d="M556.11,73,547,78.7a29.76,29.76,0,0,1-5.22-6.08c3.17-1.39,6.35-2.8,9.51-4.23A12.47,12.47,0,0,0,556.11,73Z" style="fill:#414142"/><path d="M570.3,64.08,556.11,73a12.47,12.47,0,0,1-4.82-4.61c5.51-2.5,11-5.07,16.15-7.65A24.15,24.15,0,0,1,570.3,64.08Z" style="fill:#e5cf73"/><path d="M577.36,59.62l-.12.07-.72.47-6.22,3.92a24.15,24.15,0,0,0-2.86-3.34c4.17-2.09,8.19-4.19,12-6.28C581.56,56.14,580.15,57.76,577.36,59.62Z" style="fill:#414142"/><path d="M589.69,48.38c-3.16,2-6.61,4-10.27,6.08Z" style="fill:#61745d"/><path d="M594.1,75.42q-4.38,2.81-7.77,4.67c-1.06-1.1-2.82-.69-6.34-1,1-.56,2-1.15,3.18-1.74A82.73,82.73,0,0,0,591,72.65C591.37,74.29,592.11,75.61,594.1,75.42Z" style="fill:#414142"/><path d="M598.31,83.2c-5.21,1.3-6.73.47-.7-2.86A24.71,24.71,0,0,0,598.31,83.2Z" style="fill:#414142"/><path d="M627.64,173.64l-1.62-.33c-1-.25-1.91-.52-2.84-.8a82.66,82.66,0,0,1-9.93-3.55,72.58,72.58,0,0,0-9.71-3.27l-1-.26c-.1-.87-.2-1.78-.3-2.64.45.13.93.26,1.42.38q2.65.75,5.88,1.44a108.89,108.89,0,0,0,13.28,1.78c1.29.11,2.58.21,3.9.3C627.6,169.05,628.2,171.4,627.64,173.64Z" style="fill:#e5cf73"/><path d="M626,173.31l-2.82-.59-19.85-4.14-.38-.09-28.43-5.93c0-.64,0-1.4,0-2.22,3.62.38,7.19.86,10.61,1.42l2,.33c5.68,1,11,2.15,15.42,3.34l1,.26a72.58,72.58,0,0,1,9.71,3.27,82.66,82.66,0,0,0,9.93,3.55C624.11,172.79,625.05,173.06,626,173.31Z" style="fill:#2b2b2b"/><path d="M633.19,174.8h0Z" style="fill:#61745d"/><path d="M547,78.7l-8.62,5.38a72.07,72.07,0,0,0-8.84-6.27c4-1.68,8.15-3.41,12.24-5.19A29.76,29.76,0,0,0,547,78.7Z" style="fill:#d3bd5f"/><path d="M205,191.24c-27.35-2.91-63.74-8.22-115.89-17.48,1.79.15,21.41,1.44,36.57-8.55,15.89-10.48,24.94-23.51,29.83-10.14S180,175.36,180,175.36a4.87,4.87,0,0,0,1.1,2.85C182.91,180.58,193.18,185.9,205,191.24Z" style="fill:#ead9b9"/><path d="M131.33,137.41a14.09,14.09,0,0,1-1.67,3.42s-3.09-1.67-5-.39-6.78,3.86-9.26,3-5.66-2.54-5.89-3.52-2.37-2.08-3.47-3-2.27-6.11-2.51-8a13.38,13.38,0,0,1,1.31-3.2,14.53,14.53,0,0,1,21.83-4.33s.41,2.94-1,3.27-3.32.16-4.32.94a8,8,0,0,0-3.75-.94,8.07,8.07,0,1,0,8.07,8.07s3.78,1.26,3.69,2.09S131.33,137.41,131.33,137.41Z" style="fill:#7f4032"/><path d="M129.66,140.83a14.54,14.54,0,0,1-12.1,6.49c-.43,0-.85,0-1.27-.06h-.05c-.4,0-.8-.09-1.18-.16l-.1,0a9.3,9.3,0,0,1-1.1-.25,11.15,11.15,0,0,1-1.16-.36l-.19-.06-.13,0h0A14.55,14.55,0,0,1,103.51,129c.24,1.9,1.41,7.08,2.51,8s3.22,2,3.47,3,3.42,2.69,5.89,3.52,7.34-1.74,9.26-3S129.66,140.83,129.66,140.83Z" style="fill:#414142"/><path d="M132.1,132.76a14.26,14.26,0,0,1-.77,4.65s-2.11-1.74-2-2.56-3.69-2.09-3.69-2.09a8.05,8.05,0,0,0-4.32-7.13c1-.78,2.88-.6,4.32-.94s1-3.27,1-3.27A14.53,14.53,0,0,1,132.1,132.76Z" style="fill:#414142"/><path d="M121.31,125.63a8,8,0,0,0-3.75-.94,8.11,8.11,0,1,0,3.75.94Zm-3.75,13a5.87,5.87,0,1,1,5.87-5.87A5.86,5.86,0,0,1,117.56,138.63Z" style="fill:#e8e1db"/><path d="M123.43,132.76a5.87,5.87,0,1,1-5.87-5.87A5.87,5.87,0,0,1,123.43,132.76Z" style="fill:#2b2b2b"/><path d="M112.36,146.36a48.29,48.29,0,0,1-12.18-5.53c-5.13-3.53-15.4,3.07-21.76,6.49S62,151,57.81,150.74s-12.87,4.32-12.87,4.32c-3.92-1.77-7.57-2.9-9.8-1.87a4,4,0,0,0-.46.23c.5-.41,8.66-6.85,12.93-7.39s12.11-1.69,17-2.41,14.67-2.48,18.34-5,12.12-4.09,13.4-5.87c.95-1.3,5.94-5.15,8.42-7a13.38,13.38,0,0,0-1.31,3.2,14.55,14.55,0,0,0,8.85,17.41Z" style="fill:#2b2b2b"/><path d="M380.11,104.39c-.89-2.4-1.76-4.64-2.52-6.53a3.34,3.34,0,0,0-.15-.38c-.14-.37-.29-.74-.42-1.08-.25-.58-.46-1.11-.65-1.58a.75.75,0,0,1-.06-.13l-.35-.85c-.13-.3-.23-.55-.32-.75l-.19-.44-.09-.22c8.47.44,16.86.86,25.08,1.25,0,.27,0,.58.07.89s0,.63.07,1,.08.88.12,1.33.06.72.1,1.08c.06.61.13,1.24.21,1.86,0,.31.07.62.11.92.08.62.17,1.22.27,1.79s.22,1.31.35,1.9C394.54,104.37,387.27,104.36,380.11,104.39Z" style="fill:#61745d"/><path d="M403.68,174c-4.65,2.2-8.07,1.22-10-3.43s-3.42-17.61-2.93-26.83a5.12,5.12,0,0,0,0-.68c0-.72,0-1.46,0-2.19q0-.75-.12-1.5c0-.2,0-.41-.07-.61-.09-.8-.22-1.6-.37-2.41-.06-.34-.12-.68-.19-1s-.15-.71-.24-1.06-.16-.7-.26-1.07c-.18-.7-.37-1.42-.57-2.14-.08-.28-.16-.56-.25-.84-.21-.72-.43-1.42-.66-2.14-.09-.32-.21-.65-.31-1s-.22-.69-.34-1l18.94-1.19c.06.73.09,1.42.09,2,0,5.26,2.69,22.37,5.62,30.44S408.31,171.78,403.68,174Z" style="fill:#61745d"/><path d="M428.81,77.37c-2.51,4.91-18.27,12.49-24.38,15.29,0,0,7.32-11.12,13.42-17.24s-19.31,10.27-26.16,11.49,17.36-15.41,19.56-22S389,82.51,380.69,84.48s21.76-22.75,21.76-29.85S375.3,82,365.85,85.44,390,53.66,390.71,45.59s-29.35,33-37.17,37.17S373.6,52.2,377.75,39s-16.62,18.83-28.61,36.43-12.47,12.22-.49-17.85c4.73-11.9,6.65-20.58,6.87-25.87,1.75-.12,3.1-.35,3.52-1.21,1-2-.6-3.71-2-5.57a23.31,23.31,0,0,0,10-5.64c2.24,1,5,2.28,8.27,4,12.2,6.61,29.31,19,29.31,21s6.11,1.29,6.6,5.69,8.32,6.36,8.32,9.54S432,71.27,428.81,77.37Z" style="fill:#d3bd5f"/><path d="M318.62,19c-1.76,7.84-3.67,17.1-5.14,26.24-1.1-.27-3-.11-7.24,1.68,1.24-9.9,2.78-19.19,4.56-24.76.41-1.28.79-2.47,1.13-3.55C314.7,18.42,317.47,18.42,318.62,19Z" style="fill:#414142"/><path d="M321.55,6.69c-.83,3.36-1.86,7.56-2.93,12.27-1.15-.54-3.92-.54-6.69-.39,4.19-13.14,4.24-13.18,4.68-8.44C316.81,12.31,319.06,9.78,321.55,6.69Z" style="fill:#f9bb30"/><path d="M367.07,19.28a23.31,23.31,0,0,1-10,5.64,12.63,12.63,0,0,1-1.15-1.76c-1.32-2.58-9,.73-10.25-.93-.53-.69-2.38-.8-4.55-.91-.09-1.13-.52-1.24-1.35-.07-2.77-.16-5.74-.47-7.12-1.95a3.46,3.46,0,0,0-2.21-.94c.1-4.45-.8-6.07-3.29-2.85a16,16,0,0,0-1.92,3.39c-2.86.6-5.5,1.31-6.15.4a1.05,1.05,0,0,0-.44-.34c1.07-4.71,2.1-8.91,2.93-12.27,3.36-4.18,7.19-9.34,7.05-5.12-.25,7.34,10.27-4.16,10.52,2.69s6.6-3.19,7.82,3.42,12-1.7,11.74,3.92C358.5,15.7,361,16.56,367.07,19.28Z" style="fill:#ebaf1d"/><path d="M417.85,75.42c-6.1,6.12-13.42,17.24-13.42,17.24L402,93.75l-1.57-.07c-8.22-.39-16.61-.81-25.08-1.25h0c-4.65-.25-9.31-.52-14-.76-8.36-.47-16.71-.93-24.91-1.37l-11.79-.63c-7.64-.4-15.11-.76-22.28-1.07,0,0,1.38-22,3.86-41.72,4.24-1.79,6.14-2,7.24-1.68-2.17,13.67-3.33,27.1-1.51,35.11,3.17,14,4.21-11.87,7.43-35.41,2.48-.7,4.34-.13,7.45-.79-2.89,16-6.4,33-5.84,36.2.84,4.68,5.91-19.09,11.21-38.19,2.63-1.33,4.51-2.09,6-2.68-3.14,14.87-7.8,33.91-8.61,39.65-1.51,10.62,12.85-32.22,18.85-46.69a37.9,37.9,0,0,1,7.09-.7c-.22,5.29-2.14,14-6.87,25.87-12,30.07-11.5,35.46.49,17.85S381.9,25.78,377.75,39s-32,47.92-24.21,43.77,37.9-45.24,37.17-37.17S356.4,88.86,365.85,85.44s36.6-37.9,36.6-30.81-30.08,31.8-21.76,29.85S413.45,58.3,411.25,64.9s-26.41,23.24-19.56,22S424,69.3,417.85,75.42Z" style="fill:#e5cf73"/><path d="M520.75,181.51c-4.46,1.16.43,6.89-5.07,7.88s-4.41,4.88-8.81,5-1.83,1.69-15.77,2.79c-12.53,1-47.91-12.49-54.91-15.22,25.4-4.15,49-8.89,67.45-12.9h0C527.34,169.48,525.1,180.36,520.75,181.51Z" style="fill:#ebaf1d"/><path d="M400.49,197.27c-4.76,3.34-2.56,2.51-6.47,4s-3.43,4-7.1,2.94-5.5,4-25.31,0c-13.12-2.67-22.21-7.93-27.07-12.12-2.48-2.14-3.86-4-4.11-5.12-.73-3.3,3-3.77,3-3.77,5.19.14,25.78,3.27,42.83,6.64h0C390.75,192.69,402.68,195.73,400.49,197.27Z" style="fill:#ebaf1d"/><path d="M268.44,201.24s-5.5,2.2-7.71,2.2-1.1,2.94-5.62,2.31-3.18,1.36-12.35,0c-5.15-.77-22.71-7.66-37.81-14.51-11.77-5.34-22-10.66-23.82-13a4.87,4.87,0,0,1-1.1-2.85c0-3.57,5.4-5.44,5.4-5.44,28.92,6,54.94,17.24,69.85,24.49C263.58,198.44,268.44,201.24,268.44,201.24Z" style="fill:#ebaf1d"/><path d="M226.37,114.56c-1.26,3.81-2.43,9.27-.67,14-2.66-.3-5.29-.67-7.91-1.1a80.72,80.72,0,0,1-12.56-2.76c-.3-5.32.39-11.28,2.07-15.24a11.93,11.93,0,0,0,.85-3.74c4.74-1.56,9.9-1.41,14.82-1.6,1.52-.06,3-.1,4.56-.13A37.65,37.65,0,0,1,226.37,114.56Z" style="fill:#7b9376"/><path d="M206.9,106.12c.41-.16.82-.31,1.25-.44a11.93,11.93,0,0,1-.85,3.74c-1.68,4-2.37,9.92-2.07,15.24-6.84-2.26-12.34-6.14-6.34-12.85a22.61,22.61,0,0,1,7.23-5.37Z" style="fill:#e5cf73"/><path d="M262.8,130.8q-8-.13-16.06-.54c-2.35-.12-4.68-.27-7-.43-.06-1.07-.1-2.19-.16-3.3,0-.5-.05-1-.06-1.51s-.06-1.31-.09-2c0-.39,0-.78-.06-1.16,0-.77-.09-1.54-.14-2.29l-.09-1.12c0-.38-.06-.75-.11-1.1s-.08-.72-.13-1.08-.09-.72-.14-1.06a26.84,26.84,0,0,0-.86-3.89c-.22-.7-.42-1.48-.63-2.3-.07-.27-.14-.53-.2-.81-.15-.59-.28-1.19-.41-1.8-.19-.87-.37-1.76-.56-2.69q9.56-.13,19.12,0l.09.51c.06.3.11.61.19.91a42.29,42.29,0,0,0,1.46,4.57c.14.36.27.75.42,1.11.48,1.28,1,2.6,1.49,3.89.09.24.18.49.27.72a42.93,42.93,0,0,1,1.85,6c0,.19.07.39.1.58,0,0,0,.08,0,.11s.06.33.08.51a6.85,6.85,0,0,1,0,2,6.26,6.26,0,0,0,.34,3c.06.18.12.34.19.53A23,23,0,0,0,262.8,130.8Z" style="fill:#7b9376"/><path d="M239.55,126.53c0,1.11.09,2.21.16,3.3-4.68-.32-9.36-.73-14-1.31-1.76-4.69-.59-10.15.67-14A37.65,37.65,0,0,0,227.53,104c2.85-.09,5.69-.15,8.54-.18.19.93.37,1.82.56,2.69.13.61.26,1.21.41,1.8.06.28.13.54.2.81.21.82.41,1.6.63,2.3a26.84,26.84,0,0,1,.86,3.89c.05.35.1.7.14,1.06s.09.71.13,1.08.08.73.11,1.1l.09,1.12c.05.75.1,1.52.14,2.29,0,.38,0,.76.06,1.16,0,.64.06,1.3.09,2S239.52,126,239.55,126.53Z" style="fill:#e5cf73"/><path d="M301.42,130.45c-7.29.2-14.51.35-21.57.41,0-.19-.08-.41-.13-.62s-.09-.44-.12-.66c-.25-1.45-.44-3.11-.63-4.93-.1-.88-.19-1.79-.3-2.73-.06-.44-.11-.91-.18-1.38,0-.29-.07-.6-.12-.91-.07-.63-.17-1.26-.28-1.91-.07-.45-.14-.9-.23-1.36a48.74,48.74,0,0,0-1.35-5.72c-.54-1.79-1.21-4.1-1.89-6.65l9.83.13,9.4.12s0,0,0,0c3.18,9,2.7,16.14,6.85,24.67C301,129.43,301.19,129.93,301.42,130.45Z" style="fill:#7b9376"/><path d="M279.72,130.24c0,.21.09.43.13.62l-2.78,0c-4.76,0-9.51,0-14.27-.09a23,23,0,0,1-1.17-2.63c-.07-.17-.13-.35-.19-.53a6.26,6.26,0,0,1-.34-3,6.85,6.85,0,0,0,0-2c0-.16,0-.34-.08-.51s0-.08,0-.11c0-.19-.06-.39-.1-.58a42.93,42.93,0,0,0-1.85-6q-.14-.35-.27-.72c-.5-1.29-1-2.61-1.49-3.89-.15-.38-.28-.75-.42-1.11a42.29,42.29,0,0,1-1.46-4.57c-.08-.3-.13-.61-.19-.91l-.09-.51c6.47.05,12.95.15,19.43.25.68,2.55,1.35,4.86,1.89,6.65a48.74,48.74,0,0,1,1.35,5.72c.09.46.16.91.23,1.36.11.65.19,1.28.28,1.91.05.31.09.62.12.91q.09.7.18,1.38.15,1.41.3,2.73c.19,1.82.38,3.48.63,4.93C279.63,129.8,279.68,130,279.72,130.24Z" style="fill:#e5cf73"/><path d="M332.57,129.21c-6.85.34-13.77.63-20.67.9-.56-2.39-.95-4.75-1.28-7-.1-.75-.2-1.48-.29-2.2-.22-1.6-.41-3.13-.63-4.52-.08-.48-.15-1-.24-1.41a.06.06,0,0,0,0,0c-.05-.31-.1-.62-.18-.93-.1-.48-.2-1-.33-1.39a4.43,4.43,0,0,0-.12-.43c0-.13-.08-.26-.12-.39a6.37,6.37,0,0,0-.31-.84,7.21,7.21,0,0,0-.82-1.54,21.27,21.27,0,0,1-1.66-2.88c-.12-.22-.22-.45-.33-.69s-.24-.47-.34-.71-.24-.52-.34-.77q12.39.15,24.77.22a7.59,7.59,0,0,1,.31.88c.07.22.13.44.19.68s.17.82.25,1.23.1.68.14,1c.6,5.18-.39,11.68.49,16.3.06.31.13.64.23,1,.05.2.12.41.18.61C331.74,127.17,332.12,128.16,332.57,129.21Z" style="fill:#7b9376"/><path d="M310.62,123.11c.33,2.25.72,4.61,1.28,7l-10.48.34c-.23-.52-.47-1-.7-1.5-4.15-8.53-3.67-15.63-6.85-24.67,0,0,0,0,0,0l11,.13c.1.25.22.52.34.77s.22.48.34.71.21.47.33.69a21.27,21.27,0,0,0,1.66,2.88,7.21,7.21,0,0,1,.82,1.54,6.37,6.37,0,0,1,.31.84c0,.13.09.26.12.39s.09.28.12.43c.13.44.23.91.33,1.39a8.51,8.51,0,0,1,.18.93.06.06,0,0,1,0,0q.12.69.24,1.41c.22,1.39.41,2.92.63,4.52C310.42,121.63,310.52,122.36,310.62,123.11Z" style="fill:#e5cf73"/><path d="M370.17,127.13c-6,.35-12.24.73-18.55,1.09a11,11,0,0,0-.54-1.09c-.18-.35-.37-.72-.58-1.07s-.41-.69-.63-1a5.6,5.6,0,0,0-.35-.55,13.56,13.56,0,0,0-.78-1.14,4.69,4.69,0,0,0-.47-.63,5.66,5.66,0,0,0-.5-.65c-.13-.17-.26-.35-.42-.53l-.4-.47c-.31-.36-.64-.74-1-1.12a15.49,15.49,0,0,1-2.15-3.17c-.18-.31-.34-.65-.5-1s-.27-.54-.38-.82-.3-.67-.44-1c-.06-.13-.12-.28-.18-.43-.17-.44-.37-.89-.54-1.36s-.34-.93-.5-1.41-.4-1.16-.59-1.76a.32.32,0,0,0,0-.09c-.38-1.25-.75-2.51-1.08-3.75a3.3,3.3,0,0,1-.13-.52c7.07,0,14.11,0,21.18-.1,1.78,0,3.55,0,5.36-.06a18.89,18.89,0,0,1-.09,2.8c0,.35-.09.71-.15,1.07a8.33,8.33,0,0,1-.2,1.09,15.61,15.61,0,0,0-.41,4.56c0,.15,0,.3,0,.44s.05.52.09.77a7.94,7.94,0,0,0,.13.83c.06.36.13.71.22,1.06s.22.81.35,1.2.27.78.4,1.16c.4,1,.85,2,1.34,2.94.16.3.32.63.48,1,.34.63.69,1.26,1,1.89s.53,1,.79,1.49Z" style="fill:#7b9376"/><path d="M351.08,127.13a11,11,0,0,1,.54,1.09q-9.4.53-19.05,1c-.45-1.05-.83-2-1.11-2.92-.06-.22-.12-.41-.18-.61-.1-.35-.17-.68-.23-1-.88-4.62.11-11.12-.49-16.3,0-.33-.08-.67-.14-1s-.15-.84-.25-1.23-.12-.46-.19-.68a7.59,7.59,0,0,0-.31-.88c3.24,0,6.5,0,9.74,0h0a3.3,3.3,0,0,0,.13.52c.33,1.24.7,2.5,1.08,3.75a.32.32,0,0,1,0,.09c.19.6.38,1.19.59,1.76s.32,1,.5,1.41.37.92.54,1.36c.06.15.12.3.18.43.14.34.29.69.44,1s.25.56.38.82.32.68.5,1a15.49,15.49,0,0,0,2.15,3.17c.36.38.69.76,1,1.12.13.15.28.31.4.47s.29.36.42.53.34.43.5.65a4.69,4.69,0,0,1,.47.63q.4.57.78,1.14a5.6,5.6,0,0,1,.35.55c.22.35.43.69.63,1S350.9,126.76,351.08,127.13Z" style="fill:#e5cf73"/><path d="M406.27,124.87l-18.94,1.19h0c-.65-2-1.34-4-2-5.94-.27-.83-.55-1.65-.81-2.48s-.6-1.9-.88-2.85c-.18-.62-.37-1.25-.57-1.88-.88-2.83-1.92-5.78-2.94-8.52,7.16,0,14.43,0,21.63,0a13.19,13.19,0,0,0,.71,2.36c.24.57.49,1.28.76,2.11.07.25.16.5.23.76.19.62.37,1.3.55,2,.08.33.17.67.26,1s.16.71.25,1.07.16.75.25,1.15c.35,1.66.67,3.4.94,5.07,0,.24.07.49.1.72.16,1,.28,2,.37,2.89,0,.19,0,.39.06.56S406.26,124.64,406.27,124.87Z" style="fill:#7b9376"/><path d="M385.31,120.12c.67,2,1.36,4,2,5.94l-17.15,1.07-.23-.42c-.26-.51-.51-1-.79-1.49s-.67-1.26-1-1.89c-.16-.32-.32-.65-.48-1-.49-1-.94-1.94-1.34-2.94-.13-.38-.28-.76-.4-1.16s-.23-.79-.35-1.2-.16-.7-.22-1.06a6.87,6.87,0,0,1-.13-.83c0-.25-.06-.52-.09-.77s0-.29,0-.44a15.61,15.61,0,0,1,.41-4.56,8.33,8.33,0,0,0,.2-1.09c.06-.36.11-.72.15-1.07a18.89,18.89,0,0,0,.09-2.8q7-.06,14.14-.07c1,2.74,2.06,5.69,2.94,8.52.2.63.39,1.26.57,1.88.28.95.57,1.91.88,2.85S385,119.29,385.31,120.12Z" style="fill:#e5cf73"/><path d="M437.59,123.42c-.63,0-1.28,0-1.93.06-4.87.1-10.9.36-17.84.74h0c-.15-.26-.3-.49-.44-.7a5.56,5.56,0,0,1-.68-1.51c0-.1-.06-.22-.1-.34-.18-.56-.34-1.19-.5-1.89-.06-.24-.1-.47-.16-.72-.29-1.34-.56-2.86-.82-4.5-.06-.36-.12-.75-.18-1.14a.86.86,0,0,1,0-.17c-.06-.38-.11-.78-.17-1.17-.19-1.3-.37-2.63-.55-4-.07-.61-.14-1.23-.22-1.83s-.13-1.17-.2-1.75c7.26.09,14.39.22,21.24.38.24.62.44,1.24.62,1.84.25.81.47,1.61.66,2.41.1.41.19.82.27,1.21.11.59.22,1.16.3,1.74.18,1.14.3,2.25.39,3.36,0,.55.07,1.1.1,1.64,0,.37,0,.73,0,1.1,0,1.08.05,2.16.05,3.21A13.81,13.81,0,0,0,437.59,123.42Z" style="fill:#7b9376"/><path d="M417.37,123.52c.14.21.29.44.44.7l-11.54.65c0-.23,0-.47,0-.72s0-.37-.06-.56c-.09-.91-.21-1.89-.37-2.89,0-.23-.07-.48-.1-.72-.27-1.67-.59-3.41-.94-5.07-.07-.38-.16-.78-.25-1.15s-.16-.72-.25-1.07-.18-.69-.26-1c-.18-.72-.36-1.4-.55-2-.07-.26-.16-.51-.23-.76-.27-.83-.52-1.54-.76-2.11a13.19,13.19,0,0,1-.71-2.36c4,0,8,0,12,.11.07.58.13,1.16.2,1.75s.15,1.22.22,1.83c.18,1.34.36,2.67.55,4,.06.39.11.79.17,1.17a.86.86,0,0,0,0,.17c.06.39.12.78.18,1.14.26,1.64.53,3.16.82,4.5.06.25.1.48.16.72.16.7.32,1.33.5,1.89,0,.12.07.24.1.34A5.56,5.56,0,0,0,417.37,123.52Z" style="fill:#e5cf73"/><path d="M477.41,119.29a193.15,193.15,0,0,1-23.27,3.23c-.16-.63-.32-1.24-.49-1.86-.32-1.31-.67-2.55-1-3.76s-.69-2.33-1-3.42c-.26-.86-.53-1.8-.78-2.8-.06-.22-.12-.44-.17-.67a5,5,0,0,1-.18-.74c-.1-.38-.19-.77-.28-1.16-.2-.91-.41-1.82-.6-2.76,7.6.28,14.64.62,20.85,1,.43.94.87,1.87,1.31,2.76.14.29.29.59.44.88l.57,1.13c.25.49.5,1,.73,1.4,1,1.87,1.95,3.5,2.72,4.7.1.18.2.34.3.5s.19.31.28.44a4.09,4.09,0,0,1,.37.64.24.24,0,0,1,.07.13A1.19,1.19,0,0,1,477.41,119.29Z" style="fill:#7b9376"/><path d="M453.65,120.66c.17.62.33,1.23.49,1.86-5.26.44-10.79.75-16.55.9a13.81,13.81,0,0,1-.16-2c0-1,0-2.13-.05-3.21,0-.37,0-.73,0-1.1,0-.54-.06-1.09-.1-1.64-.09-1.11-.21-2.22-.39-3.36-.08-.58-.19-1.15-.3-1.74-.08-.39-.17-.8-.27-1.21a22.2,22.2,0,0,0-.66-2.41c-.18-.6-.38-1.22-.62-1.84,5,.12,9.92.27,14.59.44.19.94.4,1.85.6,2.76.09.39.18.78.28,1.16a5,5,0,0,0,.18.74c.05.23.11.45.17.67.25,1,.52,1.94.78,2.8.34,1.09.69,2.23,1,3.42S453.33,119.35,453.65,120.66Z" style="fill:#e5cf73"/><path d="M497.16,112a33.75,33.75,0,0,1-9.38,4.51c-.11-.25-.25-.5-.35-.77s-.23-.5-.34-.77c-.23-.58-.44-1.18-.64-1.81-.08-.22-.15-.44-.22-.67-.47-1.52-.88-3.17-1.26-4.89C494.66,108.75,499.57,110.21,497.16,112Z" style="fill:#7b9376"/><path d="M487.78,116.54a93.54,93.54,0,0,1-10.37,2.75,1.19,1.19,0,0,0-.18-.33.24.24,0,0,0-.07-.13,4.09,4.09,0,0,0-.37-.64c-.09-.13-.19-.29-.28-.44s-.2-.32-.3-.5c-.77-1.2-1.71-2.83-2.72-4.7-.23-.44-.48-.91-.73-1.4l-.57-1.13c-.15-.29-.3-.59-.44-.88-.44-.89-.88-1.82-1.31-2.76,5.56.35,10.46.78,14.53,1.25.38,1.72.79,3.37,1.26,4.89.07.23.14.45.22.67.2.63.41,1.23.64,1.81.11.27.22.52.34.77S487.67,116.29,487.78,116.54Z" style="fill:#e5cf73"/><path d="M330.42,18.36a18.81,18.81,0,0,0-5.21.54,16,16,0,0,1,1.92-3.39C329.62,12.29,330.52,13.91,330.42,18.36Z" style="fill:#f9bb30"/><path d="M330.42,18.36c-.11,5.53-1.71,15.44-3.57,25.75-3.11.66-5,.09-7.45.79,1.39-10.28,3.21-20.13,5.81-26A18.81,18.81,0,0,1,330.42,18.36Z" style="fill:#414142"/><path d="M341.1,21.32l-1.35-.07C340.58,20.08,341,20.19,341.1,21.32Z" style="fill:#f9bb30"/><path d="M338.19,39.44c-1.46.59-3.34,1.35-6,2.68,2.47-8.85,5-16.69,7.13-20.25l.4-.62,1.35.07C341.32,23.76,340,30.9,338.19,39.44Z" style="fill:#414142"/><path d="M355.52,31.7a37.9,37.9,0,0,0-7.09.7c.08-.17.15-.35.22-.51C352.21,23.47,355.84,23.61,355.52,31.7Z" style="fill:#414142"/><path d="M617.27,34.09c-4.21,2.76-9,5.84-14,9.08a15,15,0,0,1-2.51-2.63c4-3,7.47-5.81,10.59-8.29C614,33.71,616.63,34.51,617.27,34.09Z" style="fill:#e5cf73"/><path d="M624.65,29.22c-2.17,1.45-4.65,3.08-7.35,4.85,0,0,0,0,0,0-.64.42-3.24-.38-5.93-1.84,4.63-3.65,8.43-6.69,11.54-9A8.13,8.13,0,0,0,624.65,29.22Z" style="fill:#414142"/><path d="M631.12,35.41q-3.5,2.63-7.52,5.77c-1.06.58-3.19-4-4.8-6.09l6.44-5.18A72.79,72.79,0,0,0,631.12,35.41Z" style="fill:#414142"/><path d="M623.6,41.17c-3.13,2.44-6.48,5.1-10,7.94-2.08-1.27-4.84-2.33-7.51-4,4.46-3.48,8.81-6.94,12.75-10.07C620.41,37.23,622.54,41.76,623.6,41.17Z" style="fill:#d3bd5f"/><path d="M613.56,49.11l-5,4c-1.39,1.13-2.76,2.22-4.09,3.23-3-.5-1.6-5.34-5.36-5.85,2.29-1.76,4.61-3.57,6.9-5.36C608.72,46.78,611.48,47.84,613.56,49.11Z" style="fill:#414142"/><path d="M571.2,73.66c-3.46.35-3.83-1.08-.24-3.21A10.91,10.91,0,0,0,571.2,73.66Z" style="fill:#d3bd5f"/><path d="M634.39,38.91c-2.62,2.25-5.47,4.64-8.43,7.08-.72-3-1.62-5.39-2.31-4.84l0,0c2.68-2.08,5.19-4,7.52-5.76A15.34,15.34,0,0,1,634.39,38.91Z" style="fill:#2b2b2b"/><path d="M586.33,80.09c-14.46,8.07-15.75,4.58-6.34-1C583.51,79.4,585.27,79,586.33,80.09Z" style="fill:#d3bd5f"/><path d="M626.94,51.14c-3,2.43-6.37,5.15-10.07,8a9.78,9.78,0,0,1,0-3.57,6.62,6.62,0,0,0,0-2.3v0c3.07-2.43,6.09-4.9,9-7.3C626.37,47.69,626.72,49.57,626.94,51.14Z" style="fill:#d3bd5f"/><path d="M634.78,41.92a5.91,5.91,0,0,0-.28,3c-2.12,1.7-4.65,3.81-7.56,6.19-.22-1.57-.57-3.45-1-5.15,3-2.44,5.81-4.83,8.43-7.07A3.39,3.39,0,0,1,634.78,41.92Z" style="fill:#414142"/><path d="M616.92,55.61a9.78,9.78,0,0,0,0,3.57c-2.3,1.77-4.72,3.62-7.26,5.5a21,21,0,0,1-2-4.09c3.06-2.35,6.2-4.8,9.3-7.28A6.62,6.62,0,0,1,616.92,55.61Z" style="fill:#414142"/><path d="M619.93,64.52c-2.47,2-5,4.09-7.52,6a9,9,0,0,0-1.77-4.39c-.38-.5-.72-1-1-1.45,2.54-1.88,5-3.73,7.26-5.5C617.4,62.07,619.43,63,619.93,64.52Z" style="fill:#2b2b2b"/><path d="M612.46,77.89a81.6,81.6,0,0,1-14.13,5.31h0a24.71,24.71,0,0,1-.7-2.86l.48-.27a114.55,114.55,0,0,0,14.32-9.55C612.83,73.31,612.31,76.12,612.46,77.89Z" style="fill:#d3bd5f"/><path d="M622,72.77a102,102,0,0,1-9.55,5.12c-.15-1.76.37-4.58-.05-7.37,2.51-1.91,5.05-4,7.52-6a2.34,2.34,0,0,1,0,1.37C619.4,68,621.48,70.07,622,72.77Z" style="fill:#414142"/><path d="M603.55,117.9A88.5,88.5,0,0,0,593,114.45c-4.53-4.66-4-5.57-4.21-8.13,1.37-.29,2.77-.55,4.14-.82.1,0,.19,0,.29-.06h0a7.06,7.06,0,0,0,4.57,3.73c6.12,2,1.22,4.15,4.16,5.86A3.7,3.7,0,0,1,603.55,117.9Z" style="fill:#414142"/><path d="M667.54,150.62c-1.47-6.6-13.94-9.9-14.67-12.84s-8.44-4.77-9.17-8.43-5.51-3.31-8.44-7S605.18,111.74,603,109.9s11.74-11.73,18.34-13.57,9.91-12.47,15.77-15.4,4.77-11.74,9.54-14.31,4.4-9.17,10.27-12.11,3.67-16.87,4.4-28.61-1.1-9.9-13.2-13.57-9.54,7.7-13.57,5.5c-2.07-1.13-5.59.84-11.65,5.39a8.13,8.13,0,0,0,1.77,6c3.86-2.58,6.78-4.62,8.41-5.89,4-3.08,0,.31-7.82,6.58a72.79,72.79,0,0,0,5.88,5.5c15.67-11.84,23.11-16,18.56-10.61-2,2.38-7.79,7.69-15.29,14.12a3.39,3.39,0,0,1,.39,3,5.91,5.91,0,0,0-.28,3c5.78-4.7,8.49-6.56,7.11-3.27-.82,2-3.14,5-6.36,8.46A15.81,15.81,0,0,1,635,52c-1.18,5.13-1.91,6.35-3.13,8.55-.84,1.5-2.68-.69-3.78-3.18-2.54,2.36-5.3,4.81-8.13,7.2a2.34,2.34,0,0,1,0,1.37c-.56,2.11,1.52,4.18,2,6.88a84.42,84.42,0,0,0,8.85-6.15c19.56-15.66,6.6,6.85-20.79,20.29-2.42,1.19-4.54,2.28-6.37,3.24,1.89,3.28-6.82,4.24-9.23,7.47,2,.25,7.67-1.33,13.4-3.86,12.6-5.56-4.3,9.48-14.6,11.68a7.06,7.06,0,0,0,4.57,3.73c6.12,2,1.22,4.15,4.16,5.86a3.7,3.7,0,0,1,1.55,2.87h0a13.87,13.87,0,0,1,4.06,2.26c1.19,1.2-.64.72-3.8,0,.21,1.85.57,3.69,2.25,4.76h0c3.48.68,7.19,1.25,10.83,1.63,1.44.15,2.73.31,3.87.49a10.78,10.78,0,0,1-.69-5.87s3.41,3.89,6.62,7.29c.32.19.5.35.51.53h0v0c1,1,1.87,1.9,2.65,2.65,2,2,2.21,5.08,2.69,7.84,10.17,1.66,15.48,3.65,17.11,6.1,1.06,1.57-4.9,1.09-13.22,0,1.82,2,1.85,4.68.46,9.7,12.24,1.84,22.8,3.9,25.24,6s-11.32,1.14-26.87-.34c-.66,3.23-.07,4.93,1,6.28,13.95.63,26.77.94,29,3.85,2.57,3.33-14,3.84-24.72,3.84-3.25,0-6-.06-7.43-.09h-.09l-5.46-1.15-1.62-.33c.52.14,1.07.29,1.61.42,1.44.37,2.93.72,4.45,1,2.68.59,5.45,1.1,8.27,1.53,9.49,1.41,19.34,1.74,27.19,0C684.05,172.63,669,157.22,667.54,150.62ZM652.13,32.87c2.94,3.3,2.76,6.35,2.76,6.35,2.75,6.36.35,10.53-.92,11.63s-5.87,1.46-7.15-3.48,3.67-5.87-.92-11.31S649.2,29.57,652.13,32.87Zm7.52,121.23c-4-3.11-6.42-2.55-5.32-5.49s5.32-1.29,5.32-1.29C665.71,151.55,663.7,157.22,659.65,154.1Z" style="fill:#ebaf1d"/><path d="M606.08,124.91c-3.45-.66-6.67-1.4-9.34-2.15a9.58,9.58,0,0,0-.79-4,54.54,54.54,0,0,1,7.88,1.38C604,122,604.4,123.84,606.08,124.91Z" style="fill:#414142"/><path d="M596.74,122.76c-6.55-1.84-9.83-3.64-5.25-4.05a23.79,23.79,0,0,1,4.46.06A9.58,9.58,0,0,1,596.74,122.76Z" style="fill:#61745d"/><path d="M624.92,138.44c.08-2.77.1-5.34-2.16-8.11,3-.34,4.47-.78,4.47-1.32,1,1,1.87,1.9,2.65,2.65,2,2,2.21,5.08,2.69,7.84C630.29,139.13,627.73,138.78,624.92,138.44Z" style="fill:#414142"/><path d="M604.58,141.79c-.78,1.51-1.75,3.12-2.63,4.8a9.26,9.26,0,0,0-1,3.86c-8.44-1.53-11.64-4-10.47-6a4.36,4.36,0,0,1,2.34-1.6,25.36,25.36,0,0,1,8.71-1.19C602.45,141.7,603.48,141.73,604.58,141.79Z" style="fill:#414142"/><path d="M636.32,167.2c-3.17-.14-6.39-.31-9.56-.51-.24-.69-.52-1.4-.79-2.08a4.09,4.09,0,0,1,.59-4.57c2.92.31,5.85.6,8.73.88C634.63,164.15,635.22,165.85,636.32,167.2Z" style="fill:#414142"/><path d="M602.28,162.79c-12.48-3.63-14.33-7.43-4.92-6.18l4.5.58a3.49,3.49,0,0,1,.14,1.13A25.52,25.52,0,0,0,602.28,162.79Z" style="fill:#414142"/><path d="M640.62,174.89c-3.25,0-6-.06-7.43-.09h-.09Z" style="fill:#61745d"/><path d="M604.51,56.36A130.66,130.66,0,0,1,588.25,67.1h0c-1.85.24-5.7-.66-8.7-2,5.33-3.73,12.36-9,19.62-14.6C602.91,51,601.51,55.86,604.51,56.36Z" style="fill:#d3bd5f"/><path d="M599.15,50.51c-7.26,5.59-14.29,10.87-19.62,14.6-3.24-1.44-5.46-3.39-3-5l.72-.47.12-.07c5.3-3.33,10.74-6.78,16.07-10.17A46.16,46.16,0,0,0,599.15,50.51Z" style="fill:#e5cf73"/><path d="M581,142.18c-.73,5.14.48,4.66-3.42,8.32-2.46,2.31-3,6.55-3,9.84l-.79-.08c-4.79-.5-9.67-.81-14.47-.88-.18-5.88,9.57-7.73,8.74-10.84-.52-2,1.15-3.24,2.41-4.71,1.1-1.26,1.89-2.69.76-4.83-2.43-4.64,4.9-4.15,1.24-7.57s-3.19-8.8-6.42-16.67,2.5-5.84,6.65-11.75-3.17-3.63-10.27-7a17.84,17.84,0,0,1-1.83-1c-5-3.2-4-7-3.31-10.71.74-4.16-2.43-4.41-7.08-4.16A5,5,0,0,1,547,78.7l9.11-5.7c1.41.73,2.75,1,3.58.47,2.46-1.47,3.42,2,3.67,6.6s2.2,5.37,6.86,8.4,3.41,7.5,7.58,10.06-.5,5.75-3.3,10.89,2.8,7.09,5.49,8.26,2,6.65,1,11.78S581.7,137.05,581,142.18Z" style="fill:#2b2b2b"/><path d="M574.54,162.56l-.35-.07-14.92-3.11c4.8.07,9.68.38,14.47.88l.79.08C574.51,161.16,574.53,161.92,574.54,162.56Z" style="fill:#2b2b2b"/><path d="M572.42,131.43c3.66,3.42-3.67,2.93-1.24,7.57,1.13,2.14.34,3.57-.76,4.83-1.26,1.47-2.93,2.73-2.41,4.71.83,3.11-8.92,5-8.74,10.84a112.09,112.09,0,0,0-13.5.56s12.46-16.29,12.71-21.42-2.2-12.23-2.45-19.81-1.95-18.59-7.09-24.46a91.72,91.72,0,0,0-10.56-10.17L547,78.7a5,5,0,0,0,3.16,1.37c4.65-.25,7.82,0,7.08,4.16-.66,3.75-1.71,7.51,3.31,10.71a17.84,17.84,0,0,0,1.83,1c7.1,3.41,14.44,1.11,10.27,7s-9.86,3.89-6.65,11.75S568.75,128,572.42,131.43Z" style="fill:#e5cf73"/><path d="M626.76,166.69c-1.32-.09-2.61-.19-3.9-.3a108.89,108.89,0,0,1-13.28-1.78q-3.23-.69-5.88-1.44c-.49-.12-1-.25-1.42-.38a25.52,25.52,0,0,1-.28-4.47,3.49,3.49,0,0,0-.14-1.13l2.19.28c4.92.61,11.49,1.37,18.46,2.13l4,.44a4.09,4.09,0,0,0-.59,4.57C626.24,165.29,626.52,166,626.76,166.69Z" style="fill:#d3bd5f"/><path d="M605.09,140.73l-.06,1.09c-.14,0-.3,0-.45,0A10.24,10.24,0,0,0,605.09,140.73Z" style="fill:#61745d"/><path d="M622.76,130.33c-.54.06-1.15.12-1.79.14-3.29.25-7.9.34-13.84.23-.48,0-1,0-1.41,0h-.47c.18-.31.36-.61.53-.92,1.09-1.87,2.06-3.7.31-4.85,3.48.68,7.19,1.25,10.83,1.63,1.44.15,2.73.31,3.87.49a12.74,12.74,0,0,0,2,3.28Z" style="fill:#e5cf73"/><path d="M606,136.48a6.91,6.91,0,0,1-.9,4.25,10.24,10.24,0,0,1-.51,1.06c-1.1-.06-2.13-.09-3.07-.09a25.36,25.36,0,0,0-8.71,1.19c.73-1.47-.33-3.61-2.34-6.09-3-3.67-1.17-6.35,2.57-7.82,2-.81,3.64-3.2,3.71-6.22,2.67.75,5.89,1.49,9.34,2.15h0c1.75,1.15.78,3-.31,4.85-.17.31-.35.61-.53.92h0c-18.36-.17-15.48,3.48.13,5.71Z" style="fill:#2b2b2b"/><path d="M606,136.48l-.62-.09c-15.61-2.23-18.49-5.88-.13-5.71-.9,1.6-1.56,3.13-.31,4.17a2.77,2.77,0,0,1,.5.53A2.68,2.68,0,0,1,606,136.48Z" style="fill:#414142"/><path d="M603.83,120.15c-.09-.77-.15-1.53-.26-2.25a13.87,13.87,0,0,1,4.06,2.26C608.82,121.36,607,120.88,603.83,120.15Z" style="fill:#db9e16"/><path d="M588.23,67.1c-7.89,4.36-13.8,6.24-17,6.56a10.93,10.93,0,0,1-.24-3.21c.36-.21.77-.43,1.21-.65a75.89,75.89,0,0,0,7.36-4.69C582.53,66.44,586.38,67.34,588.23,67.1Z" style="fill:#414142"/><path d="M579.53,65.11a74,74,0,0,1-7.36,4.69c-.44.22-.85.44-1.21.65a33.39,33.39,0,0,1,.47-3.35,4.53,4.53,0,0,0-1.13-3l6.22-3.92C574.07,61.72,576.29,63.67,579.53,65.11Z" style="fill:#2b2b2b"/><path d="M607.65,60.59c-6,4.62-11.85,8.86-16.67,12.06-.62-2.53-.41-5.83-2.73-5.55a130.66,130.66,0,0,0,16.26-10.74C606.28,56.64,606.75,58.28,607.65,60.59Z" style="fill:#e5cf73"/><path d="M591,72.65a82.73,82.73,0,0,1-7.81,4.72c-1.17.59-2.23,1.18-3.18,1.74-.66-.06-1.4-.14-2.2-.27-4.29-.66-6-2.79-6.59-5.18,3.23-.32,9.14-2.2,17-6.56h0C590.57,66.82,590.36,70.13,591,72.65Z" style="fill:#2b2b2b"/><path d="M609.61,64.68c-3.48,2.57-7.16,5.19-11,7.81-1.57,1.05-3.07,2-4.48,2.93-2,.19-2.73-1.13-3.12-2.77,4.82-3.2,10.62-7.44,16.67-12.06A21,21,0,0,0,609.61,64.68Z" style="fill:#d3bd5f"/><path d="M612.41,70.52a114.55,114.55,0,0,1-14.32,9.55l-.48.27c-.59-2.91-.87-5.17-3.51-4.92,1.41-.89,2.91-1.88,4.48-2.93,3.87-2.62,7.55-5.24,11-7.81.31.47.65.95,1,1.45A9,9,0,0,1,612.41,70.52Z" style="fill:#e5cf73"/><path d="M593.27,105.44h0a7.91,7.91,0,0,1,1.2-7.8l0,0c2,.25,7.67-1.33,13.4-3.86C620.47,88.2,603.57,103.24,593.27,105.44Z" style="fill:#db9e16"/><path d="M594.47,97.62c-2.07-.23-.29-2.4,9.23-7.47C605.59,93.43,596.88,94.39,594.47,97.62Z" style="fill:#414142"/><path d="M594.47,97.62l0,0a7.91,7.91,0,0,0-1.2,7.8c-.1,0-.19,0-.29.06-1.37.27-2.77.53-4.14.82a15,15,0,0,0-.76-3.31c-1.95-5.68,1.23-6.06,0-16.1-.49-4-.88-5.93-1.73-6.82q3.39-1.87,7.77-4.67c2.64-.25,2.92,2,3.51,4.92-6,3.33-4.51,4.17.7,2.86h0A10.11,10.11,0,0,0,602,88.47a6.7,6.7,0,0,1,1.7,1.68C594.18,95.22,592.4,97.39,594.47,97.62Z" style="fill:#2b2b2b"/><path d="M602.58,165.43c-4.47-1.19-9.74-2.35-15.42-3.34l-2-.33c-1.87-3.57.38-4.77,2.23-6.3,1.16-1,2.17-2.08,1.92-4-.73-5.62-2.7-5.87,1.17-7-1.17,1.93,2,4.43,10.47,6a22.78,22.78,0,0,0,.93,6.74l-4.5-.58c-9.41-1.25-7.56,2.55,4.92,6.18C602.38,163.65,602.48,164.56,602.58,165.43Z" style="fill:#2b2b2b"/><path d="M593,114.45c-1.45-.39-2.93-.76-4.41-1.13-2.51-.57-5-1.08-7.4-1.46-9.11-1.49-1.34-3.7,7.6-5.54C589.07,108.88,588.5,109.79,593,114.45Z" style="fill:#d3bd5f"/><path d="M603.83,120.15a54.54,54.54,0,0,0-7.88-1.38,13.91,13.91,0,0,0-2.92-4.32,88.5,88.5,0,0,1,10.52,3.45h0C603.68,118.62,603.74,119.38,603.83,120.15Z" style="fill:#2b2b2b"/><path d="M596.74,122.76c-.07,3-1.67,5.41-3.71,6.22-3.74,1.47-5.56,4.15-2.57,7.82,2,2.48,3.07,4.62,2.34,6.09a4.36,4.36,0,0,0-2.34,1.6c-3.87,1.11-1.9,1.36-1.17,7,.25,1.91-.76,3-1.92,4-1.85,1.53-4.1,2.73-2.23,6.3-3.42-.56-7-1-10.61-1.42,0-3.29.56-7.53,3-9.84,3.9-3.66,2.69-3.18,3.42-8.32s-1-7.58,0-12.72,1.72-10.61-1-11.78-8.28-3.12-5.49-8.26,7.47-8.32,3.3-10.89-2.95-7-7.58-10.06-6.61-3.76-6.86-8.4-1.21-8.07-3.67-6.6c-.83.5-2.17.26-3.58-.47l14.19-8.92a4.53,4.53,0,0,1,1.13,3,33.39,33.39,0,0,0-.47,3.35c-3.59,2.13-3.22,3.56.24,3.21.57,2.39,2.3,4.52,6.59,5.18.8.13,1.54.21,2.2.27-9.41,5.56-8.12,9,6.34,1,.85.89,1.24,2.77,1.73,6.82,1.23,10-1.95,10.42,0,16.1a15,15,0,0,1,.76,3.31c-8.94,1.84-16.71,4.05-7.6,5.54,2.36.38,4.89.89,7.4,1.46,1.48.37,3,.74,4.41,1.13a13.91,13.91,0,0,1,2.92,4.32,23.79,23.79,0,0,0-4.46-.06C586.91,119.12,590.19,120.92,596.74,122.76Z" style="fill:#e5cf73"/><path d="M596.74,122.76c-6.55-1.84-9.83-3.64-5.25-4.05a23.79,23.79,0,0,1,4.46.06A9.58,9.58,0,0,1,596.74,122.76Z" style="fill:#d3bd5f"/><path d="M624.92,153.61c-.91-.11-1.84-.23-2.75-.36-6.41-.84-12.6-1.6-17.71-2.26h0c-1.26-.16-2.44-.35-3.52-.54a9.26,9.26,0,0,1,1-3.86c.88-1.68,1.85-3.29,2.63-4.8.15,0,.31,0,.45,0,4.73.26,10.64,1,16.63,1.77l3.49.47C626.07,148.58,623.29,150.05,624.92,153.61Z" style="fill:#d3bd5f"/><path d="M625.15,144.06l-3.49-.47c-6-.79-11.9-1.51-16.63-1.77l.06-1.09a6.91,6.91,0,0,0,.9-4.25c2.26.3,4.77.58,7.51.82s5.43.5,7.88.75l3.54.39A22.08,22.08,0,0,0,625.15,144.06Z" style="fill:#e5cf73"/><path d="M624.92,138.44l-3.54-.39q-3.68-.37-7.88-.75c-2.74-.24-5.25-.52-7.51-.82a2.68,2.68,0,0,0-.56-1.1,2.77,2.77,0,0,0-.5-.53c-1.25-1-.59-2.57.31-4.17h.48c.46,0,.93,0,1.41,0,5.94.11,10.55,0,13.84-.23.64,0,1.25-.08,1.79-.14C625,133.1,625,135.67,624.92,138.44Z" style="fill:#d3bd5f"/><path d="M626.56,160l-4-.44c-7-.76-13.54-1.52-18.46-2.13l-2.19-.28a22.78,22.78,0,0,1-.93-6.74c1.08.19,2.26.38,3.52.54h0c5.11.66,11.3,1.42,17.71,2.26.91.13,1.84.25,2.75.36a9.11,9.11,0,0,0,1.05,1.78C627.79,157.9,627.28,159,626.56,160Z" style="fill:#e5cf73"/><path d="M626.72,128.45a21.6,21.6,0,0,0-5.93-1.42,10.78,10.78,0,0,1-.69-5.87S623.51,125.05,626.72,128.45Z" style="fill:#2b2b2b"/><path d="M627.23,129h0v0c0,.54-1.46,1-4.47,1.32l0,0a12.74,12.74,0,0,1-2-3.28,21.6,21.6,0,0,1,5.93,1.42C626.88,128.63,627.06,128.8,627.23,129Z" style="fill:#2b2b2b"/><path d="M636.46,145.6h0a7,7,0,0,0-1.44-1.21c-1.55-1-2.07-2.87-2.44-4.89,10.17,1.66,15.48,3.65,17.11,6.1C650.74,147.17,644.78,146.69,636.46,145.6Z" style="fill:#db9e16"/><path d="M636.45,145.6c-3.46-.44-7.34-1-11.3-1.54a22.08,22.08,0,0,1-.23-5.62c2.81.34,5.37.69,7.65,1.06.37,2,.89,3.84,2.44,4.89A7,7,0,0,1,636.45,145.6Z" style="fill:#2b2b2b"/><path d="M636.92,155.3h0c-3.9-.58-7.95-1.16-12-1.69-1.63-3.56,1.15-5,.23-9.55,4,.54,7.84,1.1,11.3,1.54h0C638.28,147.58,638.31,150.28,636.92,155.3Z" style="fill:#414142"/><path d="M636.82,155.65l-.11.36-1.42,4.91c.16-.76.4-1.63.7-2.6.15-.44.56-1.83.8-2.61C636.8,155.7,636.8,155.67,636.82,155.65Z" style="fill:#61745d"/><path d="M635.29,160.92l1.42-4.91.11-.36,0-.1h0l.08-.24c12.24,1.84,22.8,3.9,25.24,6S650.84,162.4,635.29,160.92Z" style="fill:#db9e16"/><path d="M636.82,155.65l-.11.36c0-.11.06-.19.08-.3S636.8,155.67,636.82,155.65Z" style="fill:#61745d"/><path d="M636.9,155.3a2.1,2.1,0,0,1-.06.24h0l0,.1s0,0,0,.06c-.24.78-.65,2.17-.8,2.61-.3,1-.54,1.84-.7,2.6-2.88-.28-5.81-.57-8.73-.88.72-1.08,1.23-2.14-.59-4.65a9.11,9.11,0,0,1-1.05-1.78C629,154.14,633,154.72,636.9,155.3Z" style="fill:#2b2b2b"/><path d="M636.92,155.3l-.08.24a2.1,2.1,0,0,0,.06-.24Z" style="fill:#61745d"/><path d="M640.62,174.89a5.38,5.38,0,0,0-1-4.34c-1.19-1.34-2.45-2.23-3.34-3.35,13.95.63,26.77.94,29,3.85C667.91,174.38,651.31,174.89,640.62,174.89Z" style="fill:#db9e16"/><path d="M640.62,174.89l-7.52-.1-5.46-1.15c.56-2.24,0-4.59-.88-6.95,3.17.2,6.39.37,9.56.51.89,1.12,2.15,2,3.34,3.35A5.38,5.38,0,0,1,640.62,174.89Z" style="fill:#2b2b2b"/><path d="M603.26,43.17l-9.83,6.28a22.64,22.64,0,0,1-3.49-1.22c2.89-1.83,5.54-3.65,7.9-5.45l2.91-2.23A15,15,0,0,0,603.26,43.17Z" style="fill:#414142"/><path d="M593.43,49.45c-5.33,3.39-10.77,6.84-16.07,10.17,2.79-1.86,4.2-3.48,2.06-5.16,3.66-2,7.11-4.05,10.27-6.08l.23-.15h0A22.64,22.64,0,0,0,593.43,49.45Z" style="fill:#d3bd5f"/><path d="M626,46c-2.92,2.4-5.94,4.87-9,7.3-.34-1.86-1.63-3.09-3.39-4.18,3.56-2.84,6.91-5.5,10-7.94l0,0C624.34,40.6,625.24,43,626,46Z" style="fill:#e5cf73"/><path d="M606.05,45.15c-2.29,1.79-4.61,3.6-6.9,5.36a46.16,46.16,0,0,1-5.72-1.06l9.83-6.28A20,20,0,0,0,606.05,45.15Z" style="fill:#2b2b2b"/><path d="M617,53.29v0c-3.1,2.48-6.24,4.93-9.3,7.28-.9-2.31-1.37-4-3.14-4.23,1.33-1,2.7-2.1,4.09-3.23l5-4C615.32,50.2,616.61,51.43,617,53.29Z" style="fill:#2b2b2b"/><path d="M621.07,77.37c-3.17,5.24-5.57,3.23-7.82,2.2-.53-.23-.73-.83-.79-1.68A102.11,102.11,0,0,0,622,72.76,6.19,6.19,0,0,1,621.07,77.37Z" style="fill:#2b2b2b"/><path d="M610.07,86.91c-2.42,1.19-4.54,2.28-6.37,3.24a6.7,6.7,0,0,0-1.7-1.68,10.11,10.11,0,0,1-3.67-5.27,81.6,81.6,0,0,0,14.13-5.31c.06.85.26,1.45.79,1.68,2.25,1,4.65,3,7.82-2.2a6.17,6.17,0,0,0,.94-4.6,84.42,84.42,0,0,0,8.85-6.15C650.42,51,637.46,73.47,610.07,86.91Z" style="fill:#e5cf73"/><path d="M628.06,57.32c-2.54,2.36-5.3,4.81-8.13,7.2-.5-1.53-2.53-2.45-3.06-5.34,3.7-2.89,7.08-5.61,10.07-8a22.16,22.16,0,0,1,.25,2.76A8.89,8.89,0,0,0,628.06,57.32Z" style="fill:#e5cf73"/><path d="M635.25,50.14A15.81,15.81,0,0,1,635,52c-1.18,5.13-1.91,6.35-3.13,8.55-.84,1.5-2.68-.69-3.78-3.18C630.73,54.81,633.18,52.37,635.25,50.14Z" style="fill:#414142"/><path d="M635.25,50.14c-2.07,2.23-4.52,4.67-7.19,7.17a8.85,8.85,0,0,1-.87-3.41,22,22,0,0,0-.25-2.76c2.91-2.38,5.44-4.49,7.56-6.19C634.72,46.47,635.41,47.81,635.25,50.14Z" style="fill:#2b2b2b"/><path d="M618.8,35.08c-3.94,3.13-8.29,6.59-12.75,10.07a20,20,0,0,1-2.79-2c5-3.24,9.8-6.32,14-9.08,0,0,0,0,0,0C617.68,33.85,618.21,34.32,618.8,35.08Z" style="fill:#e5cf73"/><path d="M641.61,41.68c-.82,2-3.14,5-6.36,8.46.16-2.33-.53-3.67-.75-5.19C640.28,40.25,643,38.39,641.61,41.68Z" style="fill:#db9e16"/><path d="M649.68,24.8c-2,2.38-7.79,7.69-15.29,14.12a15.57,15.57,0,0,0-3.27-3.51C646.79,23.57,654.23,19.39,649.68,24.8Z" style="fill:#db9e16"/><path d="M625.24,29.91c-.21-.24-.41-.46-.59-.69,3.86-2.58,6.78-4.62,8.41-5.89C637,20.25,633,23.64,625.24,29.91Z" style="fill:#db9e16"/><path d="M625.24,29.91l-6.44,5.18c-.59-.77-1.12-1.24-1.5-1,2.7-1.77,5.18-3.4,7.35-4.85C624.83,29.45,625,29.67,625.24,29.91Z" style="fill:#2b2b2b"/><path d="M654,50.85c-1.28,1.1-5.87,1.46-7.15-3.48s3.67-5.87-.92-11.31,3.3-6.49,6.23-3.19,2.76,6.35,2.76,6.35C657.64,45.58,655.24,49.75,654,50.85Z" style="fill:#2b2b2b"/><path d="M659.65,154.1c-4-3.11-6.42-2.55-5.32-5.49s5.32-1.29,5.32-1.29C665.71,151.55,663.7,157.22,659.65,154.1Z" style="fill:#2b2b2b"/><path d="M348.43,32.4c-6,14.47-20.36,57.31-18.85,46.69.81-5.74,5.47-24.78,8.61-39.65,2.92-1.17,4.21-1.68,6.52-4.73A6.67,6.67,0,0,1,348.43,32.4Z" style="fill:#d3bd5f"/><path d="M359,30.49c-.42.86-1.77,1.09-3.52,1.21.32-8.09-3.31-8.23-6.87.19-.07.16-.14.34-.22.51a6.67,6.67,0,0,0-3.72,2.31c-2.31,3-3.6,3.56-6.52,4.73,1.82-8.54,3.13-15.68,2.91-18.12,2.17.11,4,.22,4.55.91,1.29,1.66,8.93-1.65,10.25.93a12.63,12.63,0,0,0,1.15,1.76C358.44,26.78,360,28.53,359,30.49Z" style="fill:#2b2b2b"/><path d="M332.22,42.12C326.92,61.22,321.85,85,321,80.31c-.56-3.17,2.95-20.18,5.84-36.2A22.33,22.33,0,0,0,332.22,42.12Z" style="fill:#d3bd5f"/><path d="M339.75,21.25l-.4.62c-2.15,3.56-4.66,11.4-7.13,20.25a22.33,22.33,0,0,1-5.37,2c1.86-10.31,3.46-20.22,3.57-25.75a3.46,3.46,0,0,1,2.21.94C334,20.78,337,21.09,339.75,21.25Z" style="fill:#2b2b2b"/><path d="M319.4,44.9c-3.22,23.54-4.26,49.39-7.43,35.41-1.82-8-.66-21.44,1.51-35.11,1.59.38,1.53,1.64,4.29.32A10.49,10.49,0,0,1,319.4,44.9Z" style="fill:#d3bd5f"/><path d="M325.21,18.9c-2.6,5.87-4.42,15.72-5.81,26a10.49,10.49,0,0,0-1.63.62c-2.76,1.32-2.7.06-4.29-.32,1.47-9.14,3.38-18.4,5.14-26.24a1.05,1.05,0,0,1,.44.34C319.71,20.21,322.35,19.5,325.21,18.9Z" style="fill:#2b2b2b"/><path d="M118.84,128.59a4.59,4.59,0,1,1,4.59,4.59A4.58,4.58,0,0,1,118.84,128.59Z" style="fill:#e8e1db"/><path d="M359.34,48s2.51-4.63-2.13-3.08-9.78,1.62-9.78,6-1.48,9.54,1.34,9.54,8.3-1.64,10.57-3.88S357.81,52.14,359.34,48Z" style="fill:#2b2b2b"/><path d="M384.61,44.11s-4.9-7.37-6.13-2-5.38,7.58-1.71,8.31S386.83,49,384.61,44.11Z" style="fill:#2b2b2b"/><path d="M394,64.58s-3.73-1.16-6.34,1.52-5.71,5.54-3.08,6.83,11,.49,12.46-1.47S400.29,64.3,394,64.58Z" style="fill:#2b2b2b"/><path d="M339.75,67.3s-6.85-6.68-6.31-1.46,3.49,12.6,6.31,10.27A5.57,5.57,0,0,0,339.75,67.3Z" style="fill:#2b2b2b"/><path d="M316.74,60.46s-4.59.91-4.31,3.39-5,4-3.15,6.35,7.49,5.66,10.07,3.35,0-5.38,2.2-9S322.05,59,316.74,60.46Z" style="fill:#2b2b2b"/><path d="M371.39,77.81s.8-6.32-3.18-5.86-6.94,3.17-7.62,5.86,3.13,7,6.48,7.07S371,82.37,371.39,77.81Z" style="fill:#2b2b2b"/><path d="M144,121.42a3.8,3.8,0,0,0-2.69,2.59c-.73,2.23,0,8.19,2.69,7.9s1.47-4.39,6.61-3.32,6.11.34,8.07-2.84-3.92-6-5.87-4.33S145.84,120.27,144,121.42Z" style="fill:#2b2b2b"/><path d="M202.23,99.57s-5.15,2.13-5.91,4.13-.56,1.22,4.62,2,4.87-1.73,7.21-3.06S206.41,97.3,202.23,99.57Z" style="fill:#2b2b2b"/><path d="M236.07,112.84s-6.28-2.51-9.7,1.72,1.38,5.83,4.85,6.86,9,3.74,12.27,1.1S245.09,114.19,236.07,112.84Z" style="fill:#2b2b2b"/><path d="M210.72,147.32s-2.74-1.76-5.77,1.17-1.2,6,3.88,6.57,8.25,1.42,10-.86S215.13,148.83,210.72,147.32Z" style="fill:#2b2b2b"/><path d="M196,132.76s-4.58.08-4.34,2.28,2.84,6.08,6.06,5.37S201.32,133.17,196,132.76Z" style="fill:#2b2b2b"/><path d="M182.85,114.64s-4.65.08-5.38,2.78-.25,5.4,2.69,5.15,6.84.15,8.56-1.63S188.72,113.81,182.85,114.64Z" style="fill:#2b2b2b"/><path d="M258.6,138.94s-6.79,2.28-8.26,4.69-1.71,6.4,3.18,5.75,9,1.34,11.25-2.58S264.32,136.39,258.6,138.94Z" style="fill:#2b2b2b"/><path d="M270.29,112.1s-2.51-.91-4.75,2.46-4.93,4.58.94,4.83S276.29,115.57,270.29,112.1Z" style="fill:#2b2b2b"/><path d="M268.11,98.12s-6-5.89-7.74-3.07,1,6.74,3.87,6.74S271,100.51,268.11,98.12Z" style="fill:#2b2b2b"/><path d="M232.26,94.29s-1.62-1.08-3.26,2.24,2.82,5.68,4.72,5.26,5.32-2.06,6-3.81S235.32,94.92,232.26,94.29Z" style="fill:#2b2b2b"/><path d="M299.68,126.59s-4.63,0-5.83,4.34,5.81,9.58,8.53,9.48,6.06-.2,8.43-3,1.87-1.52,4.87-5.49.8-8.37-3.78-6.17S301.75,126.2,299.68,126.59Z" style="fill:#2b2b2b"/><path d="M296.32,107.59s-4.77-2.38-6.06,0-1.65,5.87,1.1,5.87,7.71,3.3,9,.92S299.13,108.54,296.32,107.59Z" style="fill:#2b2b2b"/></g></g></svg>