<svg xmlns="http://www.w3.org/2000/svg" viewBox="0 0 272.08 141.83"><title>piranha</title><g id="Layer_2" data-name="Layer 2"><g id="Ñëîé_2" data-name="Ñëîé 2"><path d="M265.11,116.38a8.35,8.35,0,0,1-4.23-.5c1.27-.89,1.88-2.49,3.4-3,2.55-.9,3.9-5.4,2.44-7.35s-.34-9,0-11.09-1.05-6.46-3.45-8.86.9-4-1.32-6-.63-9.3-4.08-11.7-1.95-5.7-2.4-8.1-1.2-7.2-.14-10.8,3-8.4,4.79-10.87,3-3.68,0-6.53.15-6.75-1.05-7.2-2.25-5.25-2.1-8.55-6-4.28-6.22-4.31c3.69-2.57,6.73-3.68,8.1-1.78,2.92,4.07,2.47,4.07,4.27,9.92s-.22,7,2.25,9.67,1.8,9.68,0,11a5.3,5.3,0,0,0-2.25,5.7c.68,2.17-4.95,5.77-4.5,9.59s.23,8.55,2.93,12.15,11.25,20,9.9,23.62-.39,6.3.14,8.33-1.65,5.62,0,8.77S271,114.8,265.11,116.38Z" style="fill:#6a6f84"/><path d="M264.28,112.85c-1.52.54-2.13,2.14-3.4,3-5.28-1.67-13.46-6.61-20.56-12.73,2.14.55,6.06,3,9.12,4.45,5.09,2.4-.76-2.55-5.7-6.75s.9-1,7,1.5-.82-3.75-5.08-7.35,1.26.15,7.86,1.65-3.76-3.9-8.21-6.74.85-2.11,7,.45.31-2.25-4.64-5.71,1.35-1,4.7.45,2.5-1.8-1.63-4.64S246,75.8,249.89,77s2.84-1.05-1-2.93-6.65-4.42-2.9-4.42,3.59-.15-.45-2.25-3.15-2.85,1.53-2.55-.78-2.1-4.23-3.45S241,59,243,58.56s2.86-1.5-1.63-2.25-2-3.3,2.08-3.73,2.25-2.27-2.7-2.27-2.09-2.25,3.31-3.67,1.05-1.28-2.69-.7,2.08-4.78,4.81-6-1.07-.83-5.27,0,2-3.53,4.58-5.93-2.94,1.35-7.13,2.7,4.35-4.2,6.6-7.2-3,1.2-7.36,3.9,3.15-3.9,4.36-6.45,2.55-4.65-1.35-1.8-4.65,7.5-5,5.7,7.09-12.68,7.09-12.68a77.72,77.72,0,0,1,8-6.63h0c.22,0,6.37,1.07,6.22,4.31s.9,8.1,2.1,8.55-1.94,4.35,1.05,7.2,1.8,4.06,0,6.53-3.75,7.27-4.79,10.87-.31,8.4.14,10.8-1,5.7,2.4,8.1,1.86,9.74,4.08,11.7-1.08,3.6,1.32,6,3.75,6.75,3.45,8.86-1.41,9.14,0,11.09S266.83,112,264.28,112.85Z" style="fill:#bfc6d8"/><path d="M253.49,96.65c-6.6-1.5-12.12-5.25-7.86-1.65s11.15,9.9,5.08,7.35-11.92-5.7-7-1.5,10.79,9.15,5.7,6.75c-3.06-1.44-7-3.9-9.12-4.45h0c-4.94-4.25-9.34-9.08-11.88-13.77a49.45,49.45,0,0,0-3.68-5.9,11.39,11.39,0,0,0,7.57-7.23c1.82-4.82,1.45-11.27.31-17.69-1.95-11-12.93-10.22-12.93-10.22,5.72-6.71,11.55-18.93,17.28-24.65,1.84-1.84,3.79-3.75,5.74-5.56,0,0-7.39,10.88-7.09,12.68s1-2.85,5-5.7,2.55-.75,1.35,1.8-8.7,9.15-4.36,6.45,9.61-6.9,7.36-3.9-10.8,8.55-6.6,7.2,9.77-5.1,7.13-2.7-8.77,6.75-4.58,5.93,8-1.28,5.27,0-8.54,6.63-4.81,6,8.09-.71,2.69.7-8.26,3.67-3.31,3.67,6.75,1.85,2.7,2.27-6.56,3-2.08,3.73,3.59,1.8,1.63,2.25-3.6,1.5-.14,2.85,8.92,3.75,4.23,3.45-5.58.45-1.53,2.55,4.19,2.25.45,2.25-1,2.54,2.9,4.42,4.89,4.13,1,2.93-3.31.59.82,3.45,5,6.14,1.63,4.64-9.65-3.9-4.7-.45,10.8,8.25,4.64,5.71-11.46-3.31-7-.45S260.08,98.15,253.49,96.65Z" style="fill:#797d93"/><path d="M15.39,62.16a2.16,2.16,0,0,0-3.15.9s-2.47,3.71-1.57,5.17,2.58.34,3.93-1.57S16.29,62.83,15.39,62.16Z" style="fill:#858797"/><path d="M63,107.47a23.35,23.35,0,0,1-11.8.88c-8.7-1.35,1.65-7,5.4-15a67.52,67.52,0,0,0,3.59-9.92c.49-1.47.92-2.23,1.81-2.23,2.1,0,5.55-3.44,4.5-8.55s.25-6.59,2-10a13.28,13.28,0,0,0,1.17-3.18S85,79.87,63,107.47Z" style="fill:#db461d"/><path d="M64.62,106.7a9.48,9.48,0,0,1-1.66.77c22-27.6,6.67-48,6.67-48,.54-2.53.16-5.25-1.83-8.45a31.3,31.3,0,0,1,5.86,8.18c3.06,6,4.8,10.17,6.43,12.91h0a.17.17,0,0,0,0,0C80.75,73.45,90.14,94.22,64.62,106.7Z" style="fill:#c93917"/><path d="M67.8,51c-4.56-4.51-10.16-6.77-15.89-6.07-8.55,1.05-17.25-1-18.6-5.55s4.57-10.69,4.9-11C13.88,45.79,4.7,69.9,4.14,74.08c-.9,6.75,10.12,9.22,10.12,9.22.53.34.53.87.19,1s-2.43-.9-2.43-.9-4.28-2-7.77-.9S-.13,88.25,0,90.81a10.53,10.53,0,0,0,2.11,4.93C3.21,93,7,92.42,9.46,93.51c2.7,1.19,7.81,1.49,9.81,2.09s6.24-2.7,2.05-5.6-.76-2.79,0-3.24,4.94,1.19,7.19,2.09,1.5,3.31,1.2,4.8,2.1,2.55,6.15,2.7,9.6,1.05,10.5-.75,3.9-4.65,1.41-6.75-6.21-4.5-.81-5.42,4.5,2.88,5.85,3.62a2.45,2.45,0,0,0,3.75-2c.15-2.28,3.59-1.63,3.59-1.63.49-1.47.92-2.23,1.81-2.23,2.1,0,5.55-3.44,4.5-8.55s.25-6.59,2-10a13.28,13.28,0,0,0,1.17-3.18C70.17,56.9,69.79,54.18,67.8,51ZM14.6,66.66c-1.35,1.91-3,3-3.93,1.57s1.57-5.17,1.57-5.17a2.16,2.16,0,0,1,3.15-.9C16.29,62.83,16,64.74,14.6,66.66Zm46.2-8.23a12.38,12.38,0,0,0-6.64,1c-5.55,2.88-11.55,4.09-18,1.54s-7.2-3.61-12.3-2.86-7.8-3.15-4.2-8.25c1.74-2.46,3.42-5,5.33-7.31a13.2,13.2,0,0,1,2.34-2.5c1.59-1.11,2.43.29,2.88,1.69.67,2.06,1.09,4.36,2.48,6.08A6.66,6.66,0,0,0,36.13,50a31.54,31.54,0,0,0,5.41.74c4.29.43,8.42,1.44,12.77,1.26,2.42-.1,5.07-.23,7.37.62a6,6,0,0,1,3.26,3.51C65.57,58.87,62.63,58.54,60.8,58.43ZM28.89,63.09a7.28,7.28,0,1,0,7.27,7.28A7.28,7.28,0,0,0,28.89,63.09Zm1.51,9.52a2.72,2.72,0,0,1-1.51.46A2.67,2.67,0,0,1,27,72.33a3.4,3.4,0,0,1-1.55,1.73,5,5,0,0,0,6.58.21A14,14,0,0,1,30.4,72.61Z" style="fill:#6e7389"/><path d="M108.9,134.31c-22.74-.17-42.62-3.55-55.27-10.29C32.94,113,30,110.75,16.74,105.8a38.63,38.63,0,0,1-9-4.63c2.73.25,6.31.38,7.87-.43,2.7-1.39,26.7,10.34,36.75,9.27S62.26,129.06,108.9,134.31Z" style="fill:#f95f35"/><path d="M161,114.06c-2.25-.59-3.3-1.81-2.61-5.83s-2.79-4.53-3.84-7-3.6-4.16-8.7-1.76-5-1.5-9.76-3.9-7.49-6.75-5.39-9.29-2.4-6.91-5.55-5.61-8.7-1.59-10.5-2-7.95-.45-11.25,1.49-6.6-1.79-9.59-2.81S90,71,87.1,74.76s-.7,2.84-3.85.9a10.11,10.11,0,0,1-3.13-3.53c.63,1.32,10,22.09-15.5,34.57a9.48,9.48,0,0,1-1.66.77,23.35,23.35,0,0,1-11.8.88c-8.7-1.35,1.65-7,5.4-15a67.52,67.52,0,0,0,3.59-9.92s-3.44-.65-3.59,1.63a2.45,2.45,0,0,1-3.75,2c-1.35-.74-.45-4.55-5.85-3.62s-1.68,3.33.81,5.42-.51,4.94-1.41,6.75-6.45.9-10.5.75-6.45-1.2-6.15-2.7,1.05-3.9-1.2-4.8-6.45-2.54-7.19-2.09-4.21.33,0,3.24,0,6.2-2.05,5.6-7.11-.9-9.81-2.09C7,92.42,3.21,93,2.13,95.74a23,23,0,0,0,5.61,5.43c2.73.25,6.31.38,7.87-.43,2.7-1.39,26.7,10.34,36.75,9.27s9.9,19,56.54,24.3c5.59,0,11.34-.11,17.21-.46h0c13.62-2.24,25.85-11,35.32-19.78A1.19,1.19,0,0,1,161,114.06ZM108.3,98.15c-2.85,2.55-2.55,6.45-6,7.95s-.9,3-4.36,4.64-.9,1.51-3.74,2-.31,1.5-8.1,2.85-16.65.3-19.65-2a4.16,4.16,0,0,1-1.23-5.6,4.59,4.59,0,0,1,1.11-1.24c1.84-1.46,4.49-1.65,6.61-2.3,3.93-1.22,7.93-2.18,11.89-3.3,4.35-1.23,8.71-2.44,13.08-3.57h0l3.62-.93C109.35,94.7,111.15,95.6,108.3,98.15Z" style="fill:#ea5521"/><path d="M212.15,83.72c-3.91,7.2-14.1,26.85-34,38.62h0a67.17,67.17,0,0,1-7,3.6c-.88.38-1.78.76-2.69,1.11l-6.2,2.07a65.76,65.76,0,0,1-7.62,1.65c-9.61,1.51-19.21,2.54-28.52,3.08,13.62-2.24,25.85-11,35.32-19.78,2.33-.44,6.08-6.9,7.9-4.67,2,2.4,1.5,6,3,9.3s4.8,2.7,7.5,0,7.2-5.42,7.2-8C187,108.49,203.28,94.81,212.15,83.72Z" style="fill:#db461d"/><path d="M232.33,76.25a11.39,11.39,0,0,1-7.57,7.23c-4.25-5.73-7.34-5.7-9.63-3.83a50.14,50.14,0,0,1-3,4.07h0c-8.87,11.09-25.11,24.77-25.11,27,0,2.54-4.5,5.26-7.2,8s-6,3.3-7.5,0-1-6.9-3-9.3c-1.82-2.23-5.57,4.23-7.9,4.67,8.32-7.69,14.51-15.34,17.64-18.47,7-7,20.4-23.4,34.16-24.06S232.33,76.25,232.33,76.25Z" style="fill:#91888b"/><path d="M232.64,58.56c-1.95-11-12.93-10.22-12.93-10.22-2.6,3-5.17,4.94-7.7,4.59a11.72,11.72,0,0,1-1.65-.35c-.58-.15-1.21-.35-1.9-.59a126,126,0,0,1-14.4-6.57c-4.43-2.26-9.38-4.91-14.67-7.79C171,33.09,161.86,28,152.62,23a111.74,111.74,0,0,0-25.38-9.82,103,103,0,0,0-25.46-3.45c-27.92-.43-48.6,7.81-63.56,18.56h0c-.33.36-6.21,6.68-4.9,11.05s10,6.6,18.6,5.55c5.73-.7,11.33,1.56,15.89,6.07a31.3,31.3,0,0,1,5.86,8.18c3.06,6,4.8,10.17,6.43,12.91h0a.17.17,0,0,0,0,0,10.11,10.11,0,0,0,3.13,3.53c3.15,1.94.94,2.84,3.85-.9s3.66,1.57,6.66,2.58,6.3,4.76,9.59,2.81,9.45-1.94,11.25-1.49,7.35,3.34,10.5,2,7.65,3,5.55,5.61.58,6.88,5.39,9.29,4.66,6.3,9.76,3.9,7.65-.67,8.7,1.76,4.54,2.95,3.84,7,.36,5.24,2.61,5.83a1.19,1.19,0,0,0,.5,0c8.32-7.69,14.51-15.34,17.64-18.47,7-7,20.4-23.4,34.16-24.06s19.08,4.71,19.08,4.71C234.15,71.43,233.78,65,232.64,58.56Zm-42,1.7a16.34,16.34,0,0,1-4.23.69c-4.16.17-8.51-.88-12.54-1.3q-8.72-.9-17.43-1.65c-10.78-.9-22-2.18-32.79-1.24-15.52,1.35-33.07-5.85-47.92-19.2s-7-20.85,25.2-23.32,81.66,27.22,91.32,36.44C195.85,54.17,195.88,58.64,190.59,60.26Z" style="fill:#9c9496"/><path d="M180.29,34.41a42.91,42.91,0,0,0,8.76-.29,9.68,9.68,0,0,1,0,1.07c-3.91.73-10.15.45-6.08,1.77a24.18,24.18,0,0,0,3.5.85,26.92,26.92,0,0,1-7.1-.18C171,33.09,161.86,28,152.62,23a111.74,111.74,0,0,0-25.38-9.82S149.92,2.54,154.42.74c3.83-1.53,6.36-.45,7.58,1.15-6.06,2.87-24,11.48-21.15,11.22,2.35-.2,15.61-6.66,22.42-9.11A13.39,13.39,0,0,0,165,5.88c-6.65,5-23.16,10.89-15.6,10.08,5.22-.56,13.92-5.46,18.49-8,.24.13.48.24.73.35-6.19,4.29-19.71,10-14.57,10.1,3.63.1,12.85-6.16,17.57-8.86a4.34,4.34,0,0,1,.66,1.81c-6,5.3-20.65,10.31-13.94,9.9,4.35-.26,11-5.37,15-8.57a4,4,0,0,0,.77.37c-5.45,4.86-16.71,11.24-12.23,10.45,3.32-.58,10.92-6.08,15.06-8.76a8.64,8.64,0,0,1,.77,1.1c-4.63,4-14.89,9.63-10.88,9.76,2.71.09,8.9-3.91,12.86-6.36a3.74,3.74,0,0,0,1.11,1.1c-4.54,3.87-12.37,7.51-9.93,7.51,1.87,0,9.36-5,13.35-7,.26.48,0,1.38.11,2.27-5.05,3.92-15.16,7-10,7,4.2,0,10-3.29,13-4.4a3.79,3.79,0,0,1,1.37,1.11c-3.44,2.36-17.71,5.13-11.88,5.39,4.34.2,9.76-2.19,12.6-3a12.85,12.85,0,0,1-.16,2.12C184.42,33.31,173,33.91,180.29,34.41Z" style="fill:#bfc6d8"/><path d="M189.07,35.19c0,1.23-.37,2.24-2.57,2.62h0A24.18,24.18,0,0,1,183,37C178.92,35.64,185.16,35.92,189.07,35.19Z" style="fill:#858797"/><path d="M189.07,33.14a8,8,0,0,0,0,1,42.91,42.91,0,0,1-8.76.29c-7.28-.5,4.13-1.1,9-3.09C189.2,31.94,189.11,32.55,189.07,33.14Z" style="fill:#858797"/><path d="M189.44,29.2c-2.84.77-8.26,3.16-12.6,3-5.83-.26,8.44-3,11.88-5.39A4.09,4.09,0,0,1,189.44,29.2Z" style="fill:#858797"/><path d="M187.35,25.66c-3.06,1.11-8.85,4.4-13,4.4-5.16,0,4.95-3.09,10-7a2.51,2.51,0,0,0,2.07,2.21A6,6,0,0,1,187.35,25.66Z" style="fill:#858797"/><path d="M184.19,20.78c-4,2.06-11.48,7-13.35,7-2.44,0,5.39-3.64,9.93-7.51a2.32,2.32,0,0,0,1.77.24C183.57,20.3,184,20.43,184.19,20.78Z" style="fill:#858797"/><path d="M179.66,19.2c-4,2.45-10.15,6.45-12.86,6.36-4-.13,6.25-5.72,10.88-9.76C178.4,17,179,18.25,179.66,19.2Z" style="fill:#858797"/><path d="M176.91,14.7c-4.14,2.68-11.74,8.18-15.06,8.76-4.48.79,6.78-5.59,12.23-10.45l.59.18A4.34,4.34,0,0,1,176.91,14.7Z" style="fill:#797d93"/><path d="M173.31,12.64c-4,3.2-10.62,8.31-15,8.57-6.71.41,7.9-4.6,13.94-9.9A2.27,2.27,0,0,0,173.31,12.64Z" style="fill:#797d93"/><path d="M171.62,9.5c-4.72,2.7-13.94,9-17.57,8.86-5.14-.13,8.38-5.81,14.57-10.1a9.06,9.06,0,0,0,1.55.51A2.54,2.54,0,0,1,171.62,9.5Z" style="fill:#797d93"/><path d="M167.89,7.91C163.32,10.5,154.62,15.4,149.4,16c-7.56.81,8.95-5.06,15.6-10.08A13.77,13.77,0,0,0,167.89,7.91Z" style="fill:#797d93"/><path d="M163.27,4c-6.81,2.45-20.07,8.91-22.42,9.11C138,13.37,155.94,4.76,162,1.89a4.15,4.15,0,0,1,.52.88A6.55,6.55,0,0,0,163.27,4Z" style="fill:#797d93"/><path d="M208.46,52a126,126,0,0,1-14.4-6.57,19.54,19.54,0,0,1,9.88-4.64A9.1,9.1,0,0,1,208.46,52Z" style="fill:#858797"/><path d="M210.36,52.58c-.58-.15-1.21-.35-1.9-.59a9.1,9.1,0,0,0-4.52-11.21,6.8,6.8,0,0,1,5.15,1.13C212.84,44.91,210.36,52.58,210.36,52.58Z" style="fill:#858797"/><path d="M108.3,98.15c-2.85,2.55-2.55,6.45-6,7.95s-.9,3-4.36,4.64-.9,1.51-3.74,2-.31,1.5-8.1,2.85-16.65.3-19.65-2c16.53,3,31.94-9.26,32.73-11.51s1.58-3.37,5.29-4.5-5.93-.08-6.55,0l3.62-.93C109.35,94.7,111.15,95.6,108.3,98.15Z" style="fill:#c93917"/><path d="M97.93,97.58h0c-4.37,1.13-8.73,2.34-13.08,3.57-4,1.12-8,2.08-11.89,3.3-2.12.65-4.77.84-6.61,2.3A4.59,4.59,0,0,0,65.23,108a4.16,4.16,0,0,0,1.23,5.6c16.53,3,31.94-9.26,32.73-11.51s1.58-3.37,5.29-4.5S98.55,97.51,97.93,97.58Zm-.5,3.35c-.83,1.42-5.18,3.9-15.3,6.82S67.58,110.38,67.81,109c.37-2.22,3.73-2.26,5.42-2.57l.62-.12c3-.6,5.91-1.51,8.85-2.31,3.36-.9,6.73-1.8,10.13-2.56a31.7,31.7,0,0,1,3.47-.67C96.39,100.79,97.6,100.62,97.43,100.93Z" style="fill:#db461d"/><path d="M97.43,100.93c-.83,1.42-5.18,3.9-15.3,6.82S67.58,110.38,67.81,109c.37-2.22,3.73-2.26,5.42-2.57l.62-.12c3-.6,5.91-1.51,8.85-2.31,3.36-.9,6.73-1.8,10.13-2.56a31.7,31.7,0,0,1,3.47-.67C96.39,100.79,97.6,100.62,97.43,100.93Z" style="fill:#f95f35"/><path d="M218.14,80.15a36.48,36.48,0,0,1-5.9,16.8c-.82,1.19-1.77,2.63-2.84,4.21l-.33.48a89.61,89.61,0,0,1-5.71,7.59l-.6.7a48.68,48.68,0,0,1-5.4,5.34c-.25.21-.5.42-.76.62s-.67.53-1,.77l-.74.54c-.24.17-.48.34-.73.5l-.43.28-.9.56-.6.35L192,119l-.86.47h0l-.9.45-.92.41c-.31.13-.62.26-.93.37s-.57.22-.86.31c-.53.19-1.07.35-1.62.5l-.43.12-1,.23-.51.09a4.54,4.54,0,0,1-.51.09h0l-.16,0-.46.06-.3,0-.87.1c-.46,0-.93.06-1.4.07l-.73,0c-.43,0-.87,0-1.32,0,19.92-11.77,30.11-31.42,34-38.62h0a50.14,50.14,0,0,0,3-4.07A10.22,10.22,0,0,1,218.14,80.15Z" style="fill:#ea5521"/><path d="M219.71,95.15c-3.87,3-8.27,9.6-8.55,11.85-.11.92-2.1,3.85-4.54,7.3-4.84,3.79-10.31,7.18-11.25,9.27-1.46,3.27-1.58,7.2-5.06,9.45-3.24,2.09-17-5.8-18.92-6.94l-.23-.14a67.17,67.17,0,0,0,7-3.6h0c.45,0,.89,0,1.32,0l.73,0c.47,0,.94,0,1.4-.07l.87-.1.3,0,.46-.06.16,0h0a4.54,4.54,0,0,0,.51-.09c.18,0,.35-.06.51-.09l1-.23.43-.12c.55-.15,1.09-.31,1.62-.5.29-.09.57-.19.86-.31s.62-.24.93-.37l.92-.41.9-.45h0L192,119l.22-.12.6-.35.9-.56.43-.28c.25-.16.49-.33.73-.5l.74-.54c.33-.24.67-.5,1-.77s.51-.41.76-.62a48.68,48.68,0,0,0,5.4-5.34l.6-.7a89.61,89.61,0,0,0,5.71-7.59l.33-.48c1.07-1.58,2-3,2.84-4.21a36.48,36.48,0,0,0,5.9-16.8c1.39.49,2.72,1.45,2.65,3.33C220.64,87.35,223.58,92.16,219.71,95.15Z" style="fill:#ea5521"/><path d="M197.69,137.15c.6,2.85-2,12.29-35.42-8l6.2-2.07c.91-.35,1.81-.73,2.69-1.11l.23.14c2,1.14,15.68,9,18.92,6.94,3.48-2.25,3.6-6.18,5.06-9.45.94-2.09,6.41-5.48,11.25-9.27-3.51,5-8,11.1-8.93,13.85C196,132.8,197.09,134.3,197.69,137.15Z" style="fill:#db461d"/><path d="M192.2,50.68c-9.66-9.22-59.15-38.92-91.32-36.44s-40,10-25.2,23.32,32.4,20.55,47.92,19.2c10.82-.94,22,.34,32.79,1.24q8.73.75,17.43,1.65c4,.42,8.38,1.47,12.54,1.3a16.34,16.34,0,0,0,4.23-.69C195.88,58.64,195.85,54.17,192.2,50.68Zm-56-5.37c-8.78,4.6-21.93,2-30.91-.48C82.47,38.54,78.83,23.24,99.53,21c10.74-1.17,22.28.2,31.13,6.81l.84.65C136.48,32.41,144.67,40.87,136.19,45.31Z" style="fill:#a59fa0"/><path d="M14.6,66.66c-1.35,1.91-3,3-3.93,1.57s1.57-5.17,1.57-5.17a2.16,2.16,0,0,1,3.15-.9C16.29,62.83,16,64.74,14.6,66.66Z" style="fill:#2b2b2b"/><path d="M31.59,70.37a2.7,2.7,0,0,1-2.7,2.7A2.67,2.67,0,0,1,27,72.33a2.7,2.7,0,0,1-.84-2,2.71,2.71,0,0,1,2.7-2.7,2.71,2.71,0,0,1,2.42,1.51A2.64,2.64,0,0,1,31.59,70.37Z" style="fill:#2b2b2b"/><path d="M28.89,63.09a7.28,7.28,0,1,0,7.27,7.28A7.28,7.28,0,0,0,28.89,63.09Zm3.17,11.18a5,5,0,1,1,1.06-6.6,4.89,4.89,0,0,1,.79,2.7A5,5,0,0,1,32.06,74.27Z" style="fill:#9d9fac"/><path d="M32.06,74.27a5,5,0,0,1-6.58-.21A3.4,3.4,0,0,0,27,72.33a2.67,2.67,0,0,0,1.86.74,2.72,2.72,0,0,0,1.51-.46A14,14,0,0,0,32.06,74.27Z" style="fill:#414142"/><path d="M27,72.33a3.4,3.4,0,0,1-1.55,1.73,5,5,0,0,1-1-6.09,4.45,4.45,0,0,0,2.31.71h0a2.64,2.64,0,0,0-.6,1.69A2.7,2.7,0,0,0,27,72.33Z" style="fill:#ea5521"/><path d="M33.12,67.67a6.23,6.23,0,0,1-1.81,1.51,2.71,2.71,0,0,0-2.42-1.51,2.67,2.67,0,0,0-2.1,1h0A4.45,4.45,0,0,1,24.47,68a5,5,0,0,1,8.65-.3Z" style="fill:#414142"/><path d="M33.91,70.37a5,5,0,0,1-1.85,3.9,14,14,0,0,1-1.66-1.66,2.7,2.7,0,0,0,1.19-2.24,2.64,2.64,0,0,0-.28-1.19,6.23,6.23,0,0,0,1.81-1.51A4.89,4.89,0,0,1,33.91,70.37Z" style="fill:#ea5521"/><path d="M136.19,45.31c-8.78,4.6-21.93,2-30.91-.48C82.47,38.54,78.83,23.24,99.53,21c10.74-1.17,22.28.2,31.13,6.81l.84.65C136.48,32.41,144.67,40.87,136.19,45.31Z" style="fill:#ada8aa"/><path d="M60.8,58.43a12.38,12.38,0,0,0-6.64,1c-5.55,2.88-11.55,4.09-18,1.54s-7.2-3.61-12.3-2.86-7.8-3.15-4.2-8.25c1.74-2.46,3.42-5,5.33-7.31a13.2,13.2,0,0,1,2.34-2.5c1.59-1.11,2.43.29,2.88,1.69.67,2.06,1.09,4.36,2.48,6.08A6.66,6.66,0,0,0,36.13,50a31.54,31.54,0,0,0,5.41.74c4.29.43,8.42,1.44,12.77,1.26,2.42-.1,5.07-.23,7.37.62a6,6,0,0,1,3.26,3.51C65.57,58.87,62.63,58.54,60.8,58.43Z" style="fill:#797d93"/><path d="M30.07,69.18a1.52,1.52,0,1,1,1.52,1.52A1.51,1.51,0,0,1,30.07,69.18Z" style="fill:#eae3dd"/><path d="M41.52,35.36a1.26,1.26,0,1,1-1.25-1.13A1.2,1.2,0,0,1,41.52,35.36Z" style="fill:#e5dfda"/><circle cx="43.06" cy="32.12" r="0.67" style="fill:#e5dfda"/><ellipse cx="47.27" cy="34.53" rx="0.5" ry="0.83" style="fill:#e5dfda"/><path d="M51.27,33.51c0,.4-.2.72-.45.72s-.45-.32-.45-.72.2-.71.45-.71S51.27,33.12,51.27,33.51Z" style="fill:#e5dfda"/><path d="M50.82,28.81a.63.63,0,0,1-1.24,0,.63.63,0,0,1,1.24,0Z" style="fill:#e5dfda"/><path d="M56.22,24.81a.73.73,0,1,1-.73-.76A.75.75,0,0,1,56.22,24.81Z" style="fill:#e5dfda"/><path d="M46.77,27.33a.52.52,0,0,1-.56.48.53.53,0,0,1-.57-.48.54.54,0,0,1,.57-.49A.53.53,0,0,1,46.77,27.33Z" style="fill:#e5dfda"/><path d="M59.37,35.36h0Z" style="fill:#e5dfda"/><path d="M51.27,40.27a.54.54,0,1,1-.54-.62A.59.59,0,0,1,51.27,40.27Z" style="fill:#e5dfda"/><path d="M46.21,41.37A1.25,1.25,0,1,1,45,40.27,1.18,1.18,0,0,1,46.21,41.37Z" style="fill:#e5dfda"/><path d="M54.76,35.93a.53.53,0,0,1-.45.57.59.59,0,0,1,0-1.14A.53.53,0,0,1,54.76,35.93Z" style="fill:#e5dfda"/><path d="M56.22,32.29c0,.1-.17.17-.37.17s-.36-.07-.36-.17.16-.17.36-.17S56.22,32.2,56.22,32.29Z" style="fill:#e5dfda"/><ellipse cx="58.97" cy="35.43" rx="0.39" ry="0.5" style="fill:#e5dfda"/><path d="M60.55,31a.4.4,0,1,1-.39-.45A.43.43,0,0,1,60.55,31Z" style="fill:#e5dfda"/><path d="M63,26.7a.42.42,0,1,1-.42-.37A.39.39,0,0,1,63,26.7Z" style="fill:#e5dfda"/><ellipse cx="55.12" cy="28.55" rx="0.37" ry="0.48" style="fill:#e5dfda"/><path d="M40.86,40c0,.17-.2.31-.45.31S40,40.13,40,40s.21-.31.45-.31S40.86,39.79,40.86,40Z" style="fill:#e5dfda"/><path d="M63.53,43.32a.5.5,0,1,1-.49-.45A.47.47,0,0,1,63.53,43.32Z" style="fill:#e5dfda"/><path d="M58.36,42.25a.57.57,0,0,1-.48.62.64.64,0,0,1,0-1.24A.57.57,0,0,1,58.36,42.25Z" style="fill:#e5dfda"/><path d="M64.6,37.55c0,.14-.24.25-.54.25s-.53-.11-.53-.25.24-.25.53-.25S64.6,37.41,64.6,37.55Z" style="fill:#e5dfda"/><path d="M57.4,38.51a.55.55,0,0,1-.59.48.54.54,0,0,1-.59-.48.54.54,0,0,1,.59-.48A.54.54,0,0,1,57.4,38.51Z" style="fill:#e5dfda"/><ellipse cx="67.13" cy="40.99" rx="0.22" ry="0.38" style="fill:#e5dfda"/><path d="M65.5,33.16a.46.46,0,1,1-.45-.36A.41.41,0,0,1,65.5,33.16Z" style="fill:#e5dfda"/><path d="M61.56,22.28a.51.51,0,1,1-.5-.56A.54.54,0,0,1,61.56,22.28Z" style="fill:#e5dfda"/><path d="M67.75,19.44a.43.43,0,1,1-.85,0,.43.43,0,1,1,.85,0Z" style="fill:#e5dfda"/><path d="M67.35,29.19c0,.34-.21.63-.47.63s-.48-.29-.48-.63.21-.64.48-.64S67.35,28.84,67.35,29.19Z" style="fill:#e5dfda"/><path d="M70.34,35.72a.75.75,0,0,1-.71.78.78.78,0,0,1,0-1.56A.75.75,0,0,1,70.34,35.72Z" style="fill:#e5dfda"/><path d="M53.29,24a.41.41,0,0,1-.45.36.42.42,0,0,1-.45-.36.42.42,0,0,1,.45-.37A.42.42,0,0,1,53.29,24Z" style="fill:#e5dfda"/><path d="M59,20a.55.55,0,1,1-.54-.59A.56.56,0,0,1,59,20Z" style="fill:#e5dfda"/><path d="M66.4,25.08a.45.45,0,1,1-.45-.49A.47.47,0,0,1,66.4,25.08Z" style="fill:#e5dfda"/><path d="M60.16,27.26c0,.3-.18.55-.4.55s-.39-.25-.39-.55.17-.56.39-.56S60.16,27,60.16,27.26Z" style="fill:#e5dfda"/><ellipse cx="76.43" cy="27.69" rx="0.82" ry="0.86" style="fill:#e5dfda"/><path d="M81.23,24.22a.56.56,0,0,1-.53.59.55.55,0,0,1-.52-.59.56.56,0,0,1,.52-.59A.57.57,0,0,1,81.23,24.22Z" style="fill:#e5dfda"/><path d="M84.6,22c0,.16-.2.28-.45.28s-.45-.12-.45-.28.2-.28.45-.28S84.6,21.85,84.6,22Z" style="fill:#e5dfda"/><path d="M73.65,23c0,.37-.22.67-.5.67a.61.61,0,0,1-.51-.67c0-.38.23-.68.51-.68S73.65,22.58,73.65,23Z" style="fill:#e5dfda"/><path d="M73.65,17.35c0,.15-.22.26-.5.26s-.51-.11-.51-.26.23-.26.51-.26S73.65,17.21,73.65,17.35Z" style="fill:#e5dfda"/><path d="M80.18,16c0,.25-.37.45-.83.45s-.82-.2-.82-.45.37-.45.82-.45S80.18,15.79,80.18,16Z" style="fill:#e5dfda"/><path d="M86.93,15.21c0,.21-.09.38-.19.38s-.19-.17-.19-.38.09-.37.19-.37S86.93,15,86.93,15.21Z" style="fill:#e5dfda"/><path d="M77.63,21.75a.6.6,0,1,1-.6-.54A.57.57,0,0,1,77.63,21.75Z" style="fill:#e5dfda"/><ellipse cx="78.75" cy="28.67" rx="0.22" ry="0.36" style="fill:#e5dfda"/><path d="M82.73,33.08c0,.34-.09.62-.21.62s-.2-.28-.2-.62.09-.62.2-.62S82.73,32.74,82.73,33.08Z" style="fill:#e5dfda"/><path d="M77.63,35.12c0,.33-.14.6-.3.6s-.3-.27-.3-.6.13-.59.3-.59S77.63,34.8,77.63,35.12Z" style="fill:#e5dfda"/><path d="M83.7,28.37c0,.17-.26.3-.59.3s-.59-.13-.59-.3.27-.3.59-.3S83.7,28.21,83.7,28.37Z" style="fill:#e5dfda"/><path d="M77.37,58.65a.43.43,0,0,1-.4.45.45.45,0,0,1,0-.9A.43.43,0,0,1,77.37,58.65Z" style="fill:#e5dfda"/><path d="M99.61,64.45a.42.42,0,0,1-.83,0,.42.42,0,0,1,.83,0Z" style="fill:#e5dfda"/><ellipse cx="97.71" cy="60.04" rx="0.51" ry="0.56" style="fill:#e5dfda"/><path d="M104.4,57.2a.46.46,0,0,1-.42.48.45.45,0,0,1-.42-.48.44.44,0,0,1,.42-.48A.45.45,0,0,1,104.4,57.2Z" style="fill:#e5dfda"/><path d="M84.17,56.83c0,.35-.21.64-.48.64s-.48-.29-.48-.64a.57.57,0,0,1,.48-.63C84,56.2,84.17,56.48,84.17,56.83Z" style="fill:#e5dfda"/><path d="M103.05,62.83a.45.45,0,1,1-.9,0,.45.45,0,1,1,.9,0Z" style="fill:#e5dfda"/><path d="M77,54.9c0,.31-.17.56-.39.56s-.4-.25-.4-.56.18-.56.4-.56S77,54.59,77,54.9Z" style="fill:#e5dfda"/><ellipse cx="88.44" cy="72.94" rx="0.82" ry="0.86" style="fill:#e5dfda"/><path d="M93.24,69.47a.56.56,0,0,1-.52.59.57.57,0,0,1-.53-.59.56.56,0,0,1,.53-.59A.55.55,0,0,1,93.24,69.47Z" style="fill:#e5dfda"/><path d="M85.67,68.2c0,.38-.23.68-.51.68s-.5-.3-.5-.68.23-.67.5-.67A.61.61,0,0,1,85.67,68.2Z" style="fill:#e5dfda"/><path d="M85.67,62.6c0,.14-.23.26-.51.26s-.5-.12-.5-.26.23-.26.5-.26S85.67,62.45,85.67,62.6Z" style="fill:#e5dfda"/><path d="M92.19,61.29c0,.24-.36.45-.82.45s-.83-.21-.83-.45.37-.45.83-.45S92.19,61,92.19,61.29Z" style="fill:#e5dfda"/><path d="M89.64,67a.57.57,0,0,1-.6.54.54.54,0,1,1,0-1.07A.56.56,0,0,1,89.64,67Z" style="fill:#e5dfda"/><path d="M91,73.92c0,.2-.1.36-.22.36s-.23-.16-.23-.36.11-.36.23-.36S91,73.72,91,73.92Z" style="fill:#e5dfda"/><path d="M94.74,78.33c0,.34-.09.62-.2.62s-.2-.28-.2-.62.09-.62.2-.62S94.74,78,94.74,78.33Z" style="fill:#e5dfda"/><path d="M95.72,73.62c0,.17-.26.3-.59.3s-.59-.13-.59-.3.27-.3.59-.3S95.72,73.46,95.72,73.62Z" style="fill:#e5dfda"/><path d="M87.3,36.61c0,.38-.17.69-.37.69s-.38-.31-.38-.69.17-.68.38-.68S87.3,36.24,87.3,36.61Z" style="fill:#e5dfda"/><path d="M92.48,32.12c0,.19-.26.34-.57.34s-.56-.15-.56-.34.25-.33.56-.33S92.48,31.94,92.48,32.12Z" style="fill:#e5dfda"/><path d="M96.53,27.19c0,.08-.14.14-.3.14s-.3-.06-.3-.14.13-.13.3-.13S96.53,27.12,96.53,27.19Z" style="fill:#e5dfda"/><ellipse cx="89.18" cy="23.17" rx="0.67" ry="0.89" style="fill:#e5dfda"/><path d="M89.18,28.09a.35.35,0,0,1-.68,0,.35.35,0,0,1,.68,0Z" style="fill:#e5dfda"/><path d="M94.73,18.48c0,.27-.31.48-.68.48s-.67-.21-.67-.48.3-.49.67-.49S94.73,18.21,94.73,18.48Z" style="fill:#e5dfda"/><path d="M100,16h0Z" style="fill:#e5dfda"/><path d="M93.38,11.24c0,.25-.12.45-.27.45s-.26-.2-.26-.45.12-.45.26-.45S93.38,11,93.38,11.24Z" style="fill:#e5dfda"/><path d="M90.53,16c0,.25-.15.45-.34.45s-.34-.2-.34-.45.15-.45.34-.45S90.53,15.79,90.53,16Z" style="fill:#e5dfda"/><path d="M103,35.33c0,.21-.3.39-.67.39s-.68-.18-.68-.39.31-.39.68-.39S103,35.11,103,35.33Z" style="fill:#e5dfda"/><ellipse cx="105.26" cy="30.77" rx="0.19" ry="0.22" style="fill:#e5dfda"/><ellipse cx="103.09" cy="25.95" rx="0.79" ry="0.38" style="fill:#e5dfda"/><path d="M97.05,22.58c0,.33-.18.59-.41.59s-.41-.26-.41-.59.18-.58.41-.58S97.05,22.26,97.05,22.58Z" style="fill:#e5dfda"/><path d="M100,32.47c0,.38-.56.69-1.24.69s-1.24-.31-1.24-.69.55-.68,1.24-.68S100,32.09,100,32.47Z" style="fill:#e5dfda"/><path d="M95.48,37.74c0,.69-.32,1.25-.72,1.25s-.71-.56-.71-1.25.32-1.24.71-1.24S95.48,37.05,95.48,37.74Z" style="fill:#e5dfda"/><path d="M98.74,40.32c0,.37-.14.67-.32.67s-.32-.3-.32-.67.14-.67.32-.67S98.74,40,98.74,40.32Z" style="fill:#e5dfda"/><path d="M88.5,41.26a.6.6,0,1,1-.6-.64A.63.63,0,0,1,88.5,41.26Z" style="fill:#e5dfda"/><path d="M80.18,42.78a.43.43,0,1,1-.41-.53A.49.49,0,0,1,80.18,42.78Z" style="fill:#e5dfda"/><path d="M82.52,37.12a.65.65,0,1,1-.64-.62A.63.63,0,0,1,82.52,37.12Z" style="fill:#e5dfda"/><path d="M74.48,41.28c0,.54-.3,1-.67,1s-.66-.43-.66-1,.3-1,.66-1S74.48,40.75,74.48,41.28Z" style="fill:#e5dfda"/><path d="M72.64,47.61a.89.89,0,1,1-.88-1A1,1,0,0,1,72.64,47.61Z" style="fill:#e5dfda"/><path d="M66,47.2c0,.36-.1.65-.23.65s-.22-.29-.22-.65.1-.64.22-.64S66,46.85,66,47.2Z" style="fill:#e5dfda"/><path d="M70.88,44a.63.63,0,1,1-.62-.72A.68.68,0,0,1,70.88,44Z" style="fill:#e5dfda"/><circle cx="81.98" cy="49.41" r="0.75" style="fill:#e5dfda"/><ellipse cx="91.33" cy="47.65" rx="1.14" ry="1.01" style="fill:#e5dfda"/><path d="M103.09,47.23a1.56,1.56,0,1,1-1.56-1.42A1.5,1.5,0,0,1,103.09,47.23Z" style="fill:#e5dfda"/><path d="M114,37.74a1.35,1.35,0,0,1-2.7,0,1.35,1.35,0,0,1,2.7,0Z" style="fill:#e5dfda"/><path d="M118.2,31.36c0,.45-.51.81-1.13.81s-1.12-.36-1.12-.81.5-.81,1.12-.81S118.2,30.91,118.2,31.36Z" style="fill:#e5dfda"/><path d="M107,38.51a.45.45,0,1,1-.9,0,.45.45,0,1,1,.9,0Z" style="fill:#e5dfda"/><path d="M108.22,23.32a.88.88,0,1,1-1.72,0,.88.88,0,1,1,1.72,0Z" style="fill:#e5dfda"/><path d="M114,21.61a.89.89,0,0,1-1.72,0,.89.89,0,0,1,1.72,0Z" style="fill:#e5dfda"/><path d="M111.67,29.19a.61.61,0,0,1-.6.63.64.64,0,1,1,.6-.63Z" style="fill:#e5dfda"/><ellipse cx="109.24" cy="32.99" rx="0.56" ry="0.52" style="fill:#e5dfda"/><path d="M102.3,20.09a.76.76,0,0,1-1.5,0,.76.76,0,0,1,1.5,0Z" style="fill:#e5dfda"/><path d="M107.36,16.83a.67.67,0,1,1-.65-.79A.72.72,0,0,1,107.36,16.83Z" style="fill:#e5dfda"/><path d="M99.23,16.21a.6.6,0,0,1-.57.62.62.62,0,0,1,0-1.24A.6.6,0,0,1,99.23,16.21Z" style="fill:#e5dfda"/><path d="M107.7,13.27a.83.83,0,1,1-.83-.83A.83.83,0,0,1,107.7,13.27Z" style="fill:#e5dfda"/><path d="M118.87,19.44a.5.5,0,0,1-.52.48.51.51,0,0,1-.53-.48.51.51,0,0,1,.53-.48A.5.5,0,0,1,118.87,19.44Z" style="fill:#e5dfda"/><path d="M120,26.13c0,.31-.37.57-.83.57s-.82-.26-.82-.57.37-.56.82-.56S120,25.82,120,26.13Z" style="fill:#e5dfda"/><path d="M128.77,22.88a.29.29,0,0,1-.3.29.3.3,0,1,1,0-.59A.29.29,0,0,1,128.77,22.88Z" style="fill:#e5dfda"/><ellipse cx="112.71" cy="14.47" rx="0.43" ry="0.37" style="fill:#e5dfda"/><path d="M122.17,14.08c0,.42-.08.76-.19.76s-.18-.34-.18-.76.08-.77.18-.77S122.17,13.65,122.17,14.08Z" style="fill:#e5dfda"/><path d="M125.85,18.62c0,.19-.25.34-.57.34s-.56-.15-.56-.34.25-.35.56-.35S125.85,18.42,125.85,18.62Z" style="fill:#e5dfda"/><path d="M138.15,23.73a.76.76,0,1,1-1.5,0,.76.76,0,1,1,1.5,0Z" style="fill:#e5dfda"/><path d="M131.62,33.61a.73.73,0,0,1-.79.62.64.64,0,1,1,0-1.24A.73.73,0,0,1,131.62,33.61Z" style="fill:#e5dfda"/><ellipse cx="137.21" cy="29.5" rx="0.19" ry="0.32" style="fill:#e5dfda"/><path d="M126.45,28a.59.59,0,1,1-.58-.67A.63.63,0,0,1,126.45,28Z" style="fill:#e5dfda"/><path d="M124.35,35.43a.42.42,0,1,1-.42-.49A.46.46,0,0,1,124.35,35.43Z" style="fill:#e5dfda"/><path d="M114.75,45.13c0,.21-.25.38-.56.38s-.57-.17-.57-.38.26-.37.57-.37S114.75,44.93,114.75,45.13Z" style="fill:#e5dfda"/><path d="M117.82,43.32h0Z" style="fill:#e5dfda"/><path d="M118.35,37.07a.45.45,0,1,1-.45-.46A.46.46,0,0,1,118.35,37.07Z" style="fill:#e5dfda"/><path d="M117.9,43.27a.42.42,0,1,1-.41-.49A.46.46,0,0,1,117.9,43.27Z" style="fill:#e5dfda"/><ellipse cx="124.61" cy="41.81" rx="0.67" ry="0.44" style="fill:#e5dfda"/><path d="M132.37,39.32a.38.38,0,0,1-.75,0,.38.38,0,0,1,.75,0Z" style="fill:#e5dfda"/><ellipse cx="126.54" cy="46.52" rx="0.69" ry="0.71" style="fill:#e5dfda"/><path d="M106.71,43c0,.42-.22.76-.48.76s-.48-.34-.48-.76.21-.76.48-.76S106.71,42.59,106.71,43Z" style="fill:#e5dfda"/><path d="M108.67,49.22a.52.52,0,0,1-.48.56.57.57,0,0,1,0-1.12A.52.52,0,0,1,108.67,49.22Z" style="fill:#e5dfda"/><path d="M116.47,51.17a.87.87,0,1,1-.86-1A.94.94,0,0,1,116.47,51.17Z" style="fill:#e5dfda"/><path d="M112.28,54.28a.5.5,0,1,1-1,0,.5.5,0,1,1,1,0Z" style="fill:#e5dfda"/><ellipse cx="102.69" cy="52.93" rx="0.39" ry="0.75" style="fill:#e5dfda"/><path d="M96.23,55.45c0,.31-.17.56-.38.56s-.37-.25-.37-.56.16-.57.37-.57S96.23,55.14,96.23,55.45Z" style="fill:#e5dfda"/><path d="M89.18,54.28a.64.64,0,0,1-1.28,0,.64.64,0,0,1,1.28,0Z" style="fill:#e5dfda"/><path d="M86.93,49c0,.21-.23.38-.52.38s-.51-.17-.51-.38.23-.37.51-.37S86.93,48.83,86.93,49Z" style="fill:#e5dfda"/><path d="M99.23,45.1a.66.66,0,0,1-.57.71.74.74,0,0,1,0-1.43A.66.66,0,0,1,99.23,45.1Z" style="fill:#e5dfda"/><path d="M144.74,43.58a.75.75,0,1,1-1.5,0,.75.75,0,1,1,1.5,0Z" style="fill:#e5dfda"/><path d="M147.46,40c0,.18-.22.33-.5.33s-.49-.15-.49-.33.22-.34.49-.34S147.46,39.8,147.46,40Z" style="fill:#e5dfda"/><path d="M154,34.83a.34.34,0,1,1-.34-.3A.32.32,0,0,1,154,34.83Z" style="fill:#e5dfda"/><path d="M142.87,33c0,.38-.24.7-.53.7s-.52-.32-.52-.7.23-.71.52-.71S142.87,32.61,142.87,33Z" style="fill:#e5dfda"/><path d="M147.82,29.42a.43.43,0,1,1-.43-.39A.41.41,0,0,1,147.82,29.42Z" style="fill:#e5dfda"/><ellipse cx="142.08" cy="26.88" rx="0.79" ry="0.93" style="fill:#e5dfda"/><ellipse cx="149.87" cy="26.22" rx="0.43" ry="0.66" style="fill:#e5dfda"/><ellipse cx="132.14" cy="18.29" rx="0.53" ry="0.67" style="fill:#e5dfda"/><path d="M138.9,20.32a.34.34,0,0,1-.38.29.3.3,0,1,1,0-.58A.34.34,0,0,1,138.9,20.32Z" style="fill:#e5dfda"/><path d="M134.1,26.73c0,.33-.39.6-.87.6s-.86-.27-.86-.6.39-.6.86-.6S134.1,26.4,134.1,26.73Z" style="fill:#e5dfda"/><path d="M135.6,40.13a.48.48,0,0,1-.45.49.49.49,0,1,1,.45-.49Z" style="fill:#e5dfda"/><path d="M138.52,37.26a.75.75,0,1,1-.75-.76A.76.76,0,0,1,138.52,37.26Z" style="fill:#e5dfda"/><path d="M143.62,37.66a.38.38,0,0,1-.75,0,.38.38,0,0,1,.75,0Z" style="fill:#e5dfda"/><path d="M149.44,32.39a.59.59,0,1,1-.58-.6A.59.59,0,0,1,149.44,32.39Z" style="fill:#e5dfda"/><path d="M132.37,45.1a.77.77,0,0,1-1.54,0,.77.77,0,0,1,1.54,0Z" style="fill:#e5dfda"/><path d="M135.6,53.23c0,.58-.34,1.05-.75,1.05s-.75-.47-.75-1.05.33-1,.75-1S135.6,52.65,135.6,53.23Z" style="fill:#e5dfda"/><path d="M125.28,53.46v0Z" style="fill:#e5dfda"/><path d="M122.77,51a1.24,1.24,0,1,1-1.24-1.2A1.21,1.21,0,0,1,122.77,51Z" style="fill:#e5dfda"/><ellipse cx="121.8" cy="57.85" rx="0.97" ry="0.71" style="fill:#e5dfda"/><path d="M135.6,60c0,.3-.34.54-.75.54s-.75-.24-.75-.54.33-.54.75-.54S135.6,59.67,135.6,60Z" style="fill:#e5dfda"/><path d="M142.87,48.4c0,.14-.35.26-.79.26s-.79-.12-.79-.26.36-.27.79-.27S142.87,48.25,142.87,48.4Z" style="fill:#e5dfda"/><path d="M127.24,49.41c0,.21-.31.37-.69.37s-.68-.16-.68-.37.3-.38.68-.38S127.24,49.2,127.24,49.41Z" style="fill:#e5dfda"/><ellipse cx="135.41" cy="47.24" rx="0.71" ry="0.6" style="fill:#e5dfda"/><path d="M141.82,52.82a.64.64,0,1,1-.64-.64A.64.64,0,0,1,141.82,52.82Z" style="fill:#e5dfda"/><path d="M128.77,54.86c0,.33-.42.59-.94.59s-.93-.26-.93-.59.42-.58.93-.58S128.77,54.54,128.77,54.86Z" style="fill:#e5dfda"/><path d="M140.4,106.51c.2.08.26.43.13.77s-.4.57-.61.5-.25-.42-.12-.77S140.2,106.44,140.4,106.51Z" style="fill:#e5dfda"/><path d="M137,102.59a.21.21,0,0,1,.15.25.21.21,0,0,1-.28.1.21.21,0,0,1-.14-.26A.2.2,0,0,1,137,102.59Z" style="fill:#e5dfda"/><path d="M199.79,80.32c.19.07.23.46.07.87s-.43.68-.63.6-.24-.46-.08-.87S199.59,80.24,199.79,80.32Z" style="fill:#e5dfda"/><path d="M151.58,110.63a1.56,1.56,0,1,1-1.89,1A1.5,1.5,0,0,1,151.58,110.63Z" style="fill:#e5dfda"/><path d="M146.57,97.06a1.36,1.36,0,1,1-1.64.82A1.3,1.3,0,0,1,146.57,97.06Z" style="fill:#e5dfda"/><path d="M142.09,90.87a1,1,0,0,1,.36,1.34c-.22.58-.74.93-1.16.77a1,1,0,0,1-.36-1.34C141.15,91.06,141.67,90.72,142.09,90.87Z" style="fill:#e5dfda"/><path d="M144.79,103.93a.45.45,0,1,1-.32.84.47.47,0,0,1-.29-.59A.46.46,0,0,1,144.79,103.93Z" style="fill:#e5dfda"/><path d="M198.87,75.32a.88.88,0,1,1-1.28.44A1,1,0,0,1,198.87,75.32Z" style="fill:#e5dfda"/><path d="M199.32,69.32a.88.88,0,0,1-.61,1.6.88.88,0,0,1,.61-1.6Z" style="fill:#e5dfda"/><path d="M137.74,96.2a.6.6,0,1,1-.8.34A.62.62,0,0,1,137.74,96.2Z" style="fill:#e5dfda"/><path d="M140.64,99.31a.54.54,0,0,1,.29.71.55.55,0,0,1-.69.34.56.56,0,0,1,.4-1Z" style="fill:#e5dfda"/><path d="M193.75,79.72a.76.76,0,1,1-.87.47A.7.7,0,0,1,193.75,79.72Z" style="fill:#e5dfda"/><path d="M192.49,73.82a.75.75,0,0,1,.51.9.81.81,0,0,1-1.48-.56A.74.74,0,0,1,192.49,73.82Z" style="fill:#e5dfda"/><path d="M189.28,72.25a.82.82,0,1,1-1.06.48A.82.82,0,0,1,189.28,72.25Z" style="fill:#e5dfda"/><path d="M199,64a.51.51,0,0,1,.26.66.52.52,0,0,1-.64.32.53.53,0,0,1,.38-1Z" style="fill:#e5dfda"/><path d="M137.84,87.34c.29.11.39.54.23,1s-.53.68-.82.57-.4-.55-.24-1S137.54,87.23,137.84,87.34Z" style="fill:#e5dfda"/><path d="M137.9,78a.3.3,0,0,1,.17.38.29.29,0,0,1-.38.18.3.3,0,0,1-.17-.38A.29.29,0,0,1,137.9,78Z" style="fill:#e5dfda"/><path d="M192.33,67.59a.41.41,0,0,1,.2.53.41.41,0,0,1-.5.27.4.4,0,0,1-.2-.53A.39.39,0,0,1,192.33,67.59Z" style="fill:#e5dfda"/><path d="M184.15,70.77a.21.21,0,0,1,.15.25.21.21,0,0,1-.28.1.21.21,0,0,1-.14-.26A.2.2,0,0,1,184.15,70.77Z" style="fill:#e5dfda"/><path d="M179.08,70.53c.2.08.23.47.08.87s-.44.68-.64.6-.23-.46-.08-.87S178.88,70.46,179.08,70.53Z" style="fill:#e5dfda"/><path d="M178.17,65.53a.88.88,0,1,1-1.28.44A1,1,0,0,1,178.17,65.53Z" style="fill:#e5dfda"/><path d="M178.61,59.53a.88.88,0,0,1-.6,1.61.8.8,0,0,1-.33-1A.78.78,0,0,1,178.61,59.53Z" style="fill:#e5dfda"/><path d="M184.87,64.38a.6.6,0,1,1-.8.34A.62.62,0,0,1,184.87,64.38Z" style="fill:#e5dfda"/><path d="M173.05,69.93a.76.76,0,0,1-.53,1.4.75.75,0,0,1,.53-1.4Z" style="fill:#e5dfda"/><path d="M171.79,64a.66.66,0,1,1-.47,1.22.66.66,0,1,1,.47-1.22Z" style="fill:#e5dfda"/><path d="M168.58,62.46a.82.82,0,1,1-1.07.48A.83.83,0,0,1,168.58,62.46Z" style="fill:#e5dfda"/><path d="M178.31,54.2a.53.53,0,0,1-.37,1,.53.53,0,0,1,.37-1Z" style="fill:#e5dfda"/><path d="M185,55.52c.29.11.39.54.23,1s-.53.68-.82.57-.4-.54-.24-1S184.67,55.41,185,55.52Z" style="fill:#e5dfda"/><path d="M171.63,57.8a.39.39,0,0,1,.19.53.39.39,0,0,1-.5.27.39.39,0,0,1-.19-.53A.4.4,0,0,1,171.63,57.8Z" style="fill:#e5dfda"/><path d="M127.33,81c.4.15.69.35.65.45s-.39,0-.78-.1-.68-.35-.65-.44S126.94,80.88,127.33,81Z" style="fill:#e5dfda"/><path d="M132.88,79.21c.18.06.24.35.13.64s-.35.48-.53.41-.23-.36-.12-.65S132.7,79.14,132.88,79.21Z" style="fill:#e5dfda"/><path d="M142,69.52a.75.75,0,1,1-1.06.4A.8.8,0,0,1,142,69.52Z" style="fill:#e5dfda"/><path d="M149,79.12a.81.81,0,0,1-.56,1.47.81.81,0,0,1,.56-1.47Z" style="fill:#e5dfda"/><path d="M147.15,72.26c.17.07.27.19.23.29s-.2.13-.36.06-.27-.19-.23-.28S147,72.2,147.15,72.26Z" style="fill:#e5dfda"/><path d="M141.87,82a.62.62,0,0,1,.42.78.63.63,0,0,1-.83.31.65.65,0,0,1-.43-.79A.64.64,0,0,1,141.87,82Z" style="fill:#e5dfda"/><path d="M148.08,86.57a.45.45,0,0,1,.31.56.46.46,0,0,1-.61.21.42.42,0,1,1,.3-.77Z" style="fill:#e5dfda"/><path d="M153.75,99c.19.07.26.37.15.66s-.36.47-.55.39-.26-.37-.15-.66S153.55,98.91,153.75,99Z" style="fill:#e5dfda"/><path d="M153.14,95.46s-.06.16-.14.35l-.13.35.13-.35C153.08,95.62,153.14,95.46,153.14,95.46Z" style="fill:#e5dfda"/><path d="M147.48,92.76a.45.45,0,0,1,.27.58.46.46,0,0,1-.59.26.45.45,0,0,1-.26-.58A.44.44,0,0,1,147.48,92.76Z" style="fill:#e5dfda"/><path d="M153.12,95.38a.45.45,0,0,1,.32.56.47.47,0,0,1-.61.21.46.46,0,0,1-.31-.56A.44.44,0,0,1,153.12,95.38Z" style="fill:#e5dfda"/><path d="M154.37,88c.23.09.3.44.17.79s-.42.56-.65.47-.3-.43-.17-.78S154.15,87.87,154.37,88Z" style="fill:#e5dfda"/><path d="M154.55,80.44a.38.38,0,0,1-.27.71.38.38,0,0,1,.27-.71Z" style="fill:#e5dfda"/><path d="M159.47,87.8a.69.69,0,0,1,.42.9.7.7,0,0,1-.91.39.69.69,0,1,1,.49-1.29Z" style="fill:#e5dfda"/><path d="M148.91,105.75c.39.15.63.47.54.71s-.49.33-.88.18-.64-.47-.54-.71S148.51,105.6,148.91,105.75Z" style="fill:#e5dfda"/><path d="M155.42,106.11a.49.49,0,1,1-.35.91.49.49,0,1,1,.35-.91Z" style="fill:#e5dfda"/><path d="M160,99.51a.87.87,0,1,1-1.25.45A.94.94,0,0,1,160,99.51Z" style="fill:#e5dfda"/><path d="M161.43,104.53a.55.55,0,0,1,.38.67.54.54,0,0,1-.73.25.56.56,0,0,1-.39-.67A.57.57,0,0,1,161.43,104.53Z" style="fill:#e5dfda"/><path d="M156.91,112.65c.38.15.64.43.56.63s-.45.25-.84.11-.64-.44-.56-.64S156.52,112.5,156.91,112.65Z" style="fill:#e5dfda"/><path d="M152.36,68.38a.64.64,0,0,1,.47.74.73.73,0,0,1-1.31-.5A.64.64,0,0,1,152.36,68.38Z" style="fill:#e5dfda"/><path d="M146.64,66.22a.8.8,0,1,1-1.15.4A.87.87,0,0,1,146.64,66.22Z" style="fill:#e5dfda"/><path d="M135,72.71a.54.54,0,1,1-.37,1,.54.54,0,1,1,.37-1Z" style="fill:#e5dfda"/><path d="M139.1,67.61a.39.39,0,0,1-.27.7.35.35,0,0,1-.14-.46A.34.34,0,0,1,139.1,67.61Z" style="fill:#e5dfda"/><path d="M143.39,74.37c.31.11.42.57.25,1s-.55.72-.86.6-.42-.57-.25-1S143.08,74.25,143.39,74.37Z" style="fill:#e5dfda"/><path d="M156.46,77.71a.45.45,0,1,1-.61.25A.47.47,0,0,1,156.46,77.71Z" style="fill:#e5dfda"/><path d="M154.81,74a.75.75,0,1,1-.53,1.4.75.75,0,1,1,.53-1.4Z" style="fill:#e5dfda"/><path d="M157,69.34a.37.37,0,0,1-.26.7.37.37,0,0,1-.21-.48A.35.35,0,0,1,157,69.34Z" style="fill:#e5dfda"/><path d="M160,82.49A.77.77,0,1,1,159,83,.75.75,0,0,1,160,82.49Z" style="fill:#e5dfda"/><path d="M168.71,82.36c.54.2.86.68.71,1.07s-.7.53-1.24.33-.87-.69-.72-1.07A.94.94,0,0,1,168.71,82.36Z" style="fill:#e5dfda"/><path d="M165.26,92.08l.21.08-.21-.08-.21-.08Z" style="fill:#e5dfda"/><path d="M162.06,93.55a1.24,1.24,0,1,1-1.56.73A1.21,1.21,0,0,1,162.06,93.55Z" style="fill:#e5dfda"/><path d="M168.48,96a1,1,0,1,1-1,.66C167.66,96.14,168.11,95.84,168.48,96Z" style="fill:#e5dfda"/><path d="M180.45,86.55a.87.87,0,1,1-.62,1.61.87.87,0,1,1,.62-1.61Z" style="fill:#e5dfda"/><path d="M181.87,91.58a.55.55,0,0,1,.39.67.62.62,0,1,1-.39-.67Z" style="fill:#e5dfda"/><path d="M182.5,80.59a1.24,1.24,0,1,1-1.56.74A1.23,1.23,0,0,1,182.5,80.59Z" style="fill:#e5dfda"/><path d="M188.92,83a.87.87,0,0,1,.32,1.16c-.19.5-.64.8-1,.66a.88.88,0,0,1-.32-1.17C188.1,83.18,188.55,82.89,188.92,83Z" style="fill:#e5dfda"/><path d="M175,84.74a.68.68,0,0,1,.24.9c-.14.38-.49.61-.77.51a.69.69,0,0,1-.24-.9C174.38,84.87,174.72,84.64,175,84.74Z" style="fill:#e5dfda"/><path d="M166.76,73.84c.14,0,.12.42,0,.83s-.39.69-.53.64-.12-.42,0-.83S166.63,73.79,166.76,73.84Z" style="fill:#e5dfda"/><path d="M162.17,88.82c.19.07.24.42.11.77s-.4.58-.6.51-.24-.42-.1-.77S162,88.74,162.17,88.82Z" style="fill:#e5dfda"/><path d="M163.29,79.74a.73.73,0,1,1-.81.46A.66.66,0,0,1,163.29,79.74Z" style="fill:#e5dfda"/><path d="M170.53,76.39a.64.64,0,1,1-.83.37A.65.65,0,0,1,170.53,76.39Z" style="fill:#e5dfda"/><path d="M167.81,89.32c.3.11.4.59.22,1.08s-.58.78-.88.67-.39-.6-.21-1.08S167.51,89.2,167.81,89.32Z" style="fill:#e5dfda"/><path d="M221.23,60.73c0,.38-.23.68-.52.68a.69.69,0,0,1,0-1.35A.61.61,0,0,1,221.23,60.73Z" style="fill:#e5dfda"/><circle cx="223.86" cy="57.06" r="0.6" style="fill:#e5dfda"/><path d="M229.18,54.92a.86.86,0,1,1-.86-.86A.85.85,0,0,1,229.18,54.92Z" style="fill:#e5dfda"/><path d="M235.11,53.32a.61.61,0,1,1-.6-.74A.68.68,0,0,1,235.11,53.32Z" style="fill:#e5dfda"/><path d="M223.26,51.25c0,.27-.15.48-.34.48s-.34-.21-.34-.48.16-.49.34-.49S223.26,51,223.26,51.25Z" style="fill:#e5dfda"/><path d="M235.11,60.06c0,.37-.14.67-.3.67s-.3-.3-.3-.67.13-.68.3-.68S235.11,59.69,235.11,60.06Z" style="fill:#e5dfda"/><path d="M239.38,61.8a.86.86,0,1,1-.86-.83A.84.84,0,0,1,239.38,61.8Z" style="fill:#e5dfda"/><ellipse cx="237.38" cy="75.88" rx="1.15" ry="0.6" style="fill:#e5dfda"/><path d="M225.06,63.43c0,.15-.27.26-.6.26s-.6-.11-.6-.26.27-.25.6-.25S225.06,63.29,225.06,63.43Z" style="fill:#e5dfda"/><path d="M230.23,61.27a.55.55,0,0,1-.57.53.54.54,0,1,1,.57-.53Z" style="fill:#e5dfda"/><path d="M226,67.71c0,.45-.21.82-.48.82s-.49-.37-.49-.82.22-.83.49-.83S226,67.25,226,67.71Z" style="fill:#e5dfda"/><path d="M217.56,66.81c0,.49-.13.9-.3.9s-.3-.41-.3-.9.13-.9.3-.9S217.56,66.31,217.56,66.81Z" style="fill:#e5dfda"/><ellipse cx="229.66" cy="68.53" rx="0.57" ry="0.82" style="fill:#e5dfda"/><path d="M225.06,77.34c0,.23-.27.42-.6.42s-.6-.19-.6-.42.27-.41.6-.41S225.06,77.12,225.06,77.34Z" style="fill:#e5dfda"/><path d="M230.23,74.2a.54.54,0,0,1-.52.56.57.57,0,1,1,.52-.56Z" style="fill:#e5dfda"/><path d="M221.72,71.61c0,.41-.23.75-.51.75s-.5-.34-.5-.75.23-.75.5-.75S221.72,71.19,221.72,71.61Z" style="fill:#e5dfda"/><path d="M223.26,69.36c0,.16-.35.3-.77.3s-.77-.14-.77-.3.34-.3.77-.3S223.26,69.19,223.26,69.36Z" style="fill:#e5dfda"/><ellipse cx="216.77" cy="60.17" rx="0.49" ry="0.79" style="fill:#e5dfda"/><ellipse cx="221.35" cy="53.69" rx="0.64" ry="0.37" style="fill:#e5dfda"/><path d="M215.91,56.29a1.11,1.11,0,1,1-1.09-1.37A1.25,1.25,0,0,1,215.91,56.29Z" style="fill:#e5dfda"/><path d="M237.06,68.64c0,.4-.22.72-.49.72s-.49-.32-.49-.72.22-.71.49-.71S237.06,68.25,237.06,68.64Z" style="fill:#e5dfda"/><path d="M243.28,72.56c0,.59-.33,1.07-.75,1.07s-.75-.48-.75-1.07.34-1.08.75-1.08S243.28,72,243.28,72.56Z" style="fill:#e5dfda"/><path d="M231.81,87.8c0,.42-.25.75-.56.75a.78.78,0,0,1,0-1.5C231.56,87.05,231.81,87.39,231.81,87.8Z" style="fill:#e5dfda"/><path d="M229.18,80.73c0,.59-.27,1.08-.6,1.08s-.6-.49-.6-1.08.27-1.08.6-1.08S229.18,80.13,229.18,80.73Z" style="fill:#e5dfda"/><path d="M217,73.82c0,.52-.15.94-.34.94s-.33-.42-.33-.94.15-.94.33-.94S217,73.3,217,73.82Z" style="fill:#e5dfda"/><path d="M211.16,77.27c0,.43-.23.79-.51.79s-.51-.36-.51-.79.23-.79.51-.79S211.16,76.83,211.16,77.27Z" style="fill:#e5dfda"/><path d="M207.06,81.27a.53.53,0,0,1-.52.54.54.54,0,0,1-.53-.54.54.54,0,0,1,.53-.54A.53.53,0,0,1,207.06,81.27Z" style="fill:#e5dfda"/><path d="M210.65,71.35c0,.28-.37.5-.84.5s-.83-.22-.83-.5.37-.49.83-.49S210.65,71.08,210.65,71.35Z" style="fill:#e5dfda"/><ellipse cx="214.45" cy="66.54" rx="0.71" ry="0.64" style="fill:#e5dfda"/><path d="M211.16,63.16c0,.29-.11.53-.25.53s-.26-.24-.26-.53.12-.53.26-.53S211.16,62.87,211.16,63.16Z" style="fill:#e5dfda"/><path d="M111.21,80.66c.2.07.23.46.08.87s-.44.68-.64.6-.23-.46-.08-.87S111,80.58,111.21,80.66Z" style="fill:#e5dfda"/><path d="M110.3,75.66a1,1,0,0,1,.66,1.18A1.06,1.06,0,0,1,109,76.1,1,1,0,0,1,110.3,75.66Z" style="fill:#e5dfda"/><path d="M110.74,69.66a.88.88,0,1,1-.93.56A.78.78,0,0,1,110.74,69.66Z" style="fill:#e5dfda"/><path d="M105.18,80.06a.76.76,0,0,1-.53,1.4.75.75,0,0,1,.53-1.4Z" style="fill:#e5dfda"/><path d="M103.92,74.16a.74.74,0,0,1,.5.9A.8.8,0,0,1,103,74.5.74.74,0,0,1,103.92,74.16Z" style="fill:#e5dfda"/><path d="M110.44,64.33a.49.49,0,0,1,.26.66.48.48,0,1,1-.89-.34A.49.49,0,0,1,110.44,64.33Z" style="fill:#e5dfda"/><path d="M103.76,67.93a.39.39,0,0,1,.19.53.41.41,0,0,1-.5.27.39.39,0,0,1-.19-.53A.39.39,0,0,1,103.76,67.93Z" style="fill:#e5dfda"/><path d="M129,67.15c0,.49-.14.9-.3.9s-.3-.41-.3-.9.13-.9.3-.9S129,66.65,129,67.15Z" style="fill:#e5dfda"/><path d="M128.39,74.16c0,.52-.16.94-.34.94s-.34-.42-.34-.94.15-.94.34-.94S128.39,73.64,128.39,74.16Z" style="fill:#e5dfda"/><path d="M122.59,77.61c0,.43-.23.79-.51.79s-.52-.36-.52-.79.23-.79.52-.79S122.59,77.17,122.59,77.61Z" style="fill:#e5dfda"/><path d="M118.49,81.61a.54.54,0,0,1-.53.54.53.53,0,0,1-.52-.54.53.53,0,0,1,.52-.54A.54.54,0,0,1,118.49,81.61Z" style="fill:#e5dfda"/><ellipse cx="121.24" cy="71.69" rx="0.84" ry="0.5" style="fill:#e5dfda"/><ellipse cx="125.87" cy="66.88" rx="0.71" ry="0.64" style="fill:#e5dfda"/><path d="M122.59,63.5c0,.29-.12.53-.26.53s-.25-.24-.25-.53.11-.53.25-.53S122.59,63.21,122.59,63.5Z" style="fill:#e5dfda"/><path d="M206,60.77a1.63,1.63,0,1,1-1.61-1.39A1.51,1.51,0,0,1,206,60.77Z" style="fill:#e5dfda"/><ellipse cx="236.65" cy="40.51" rx="1.02" ry="0.86" style="fill:#e5dfda"/><path d="M158.77,32.14c0,.43-.25.78-.55.78s-.55-.35-.55-.78.25-.78.55-.78S158.77,31.71,158.77,32.14Z" style="fill:#e5dfda"/><path d="M159.07,40.56c0,.69-.39,1.25-.86,1.25s-.87-.56-.87-1.25.39-1.24.87-1.24S159.07,39.88,159.07,40.56Z" style="fill:#e5dfda"/><path d="M167.89,43.18a.4.4,0,1,1-.4-.4A.4.4,0,0,1,167.89,43.18Z" style="fill:#e5dfda"/><ellipse cx="176.37" cy="43.01" rx="0.91" ry="0.76" style="fill:#e5dfda"/><path d="M184.86,45.57a.65.65,0,1,1-.63-.81A.73.73,0,0,1,184.86,45.57Z" style="fill:#e5dfda"/><path d="M167.09,36.6a.6.6,0,1,1-1.2,0,.6.6,0,1,1,1.2,0Z" style="fill:#e5dfda"/><path d="M173.92,38.69a.31.31,0,0,1-.31.3.3.3,0,0,1-.3-.3.29.29,0,0,1,.3-.3A.3.3,0,0,1,173.92,38.69Z" style="fill:#e5dfda"/><ellipse cx="146.48" cy="61.7" rx="0.98" ry="0.93" style="fill:#e5dfda"/><path d="M148.86,55.37a1.69,1.69,0,1,1-1.68-1.68A1.69,1.69,0,0,1,148.86,55.37Z" style="fill:#e5dfda"/><path d="M151.9,49.6c0,.31-.36.56-.8.56s-.81-.25-.81-.56.36-.57.81-.57S151.9,49.29,151.9,49.6Z" style="fill:#e5dfda"/><path d="M159.07,47.24c0,.34-.39.61-.86.61s-.87-.27-.87-.61.39-.6.87-.6S159.07,46.91,159.07,47.24Z" style="fill:#e5dfda"/><ellipse cx="164.6" cy="50.7" rx="0.36" ry="0.54" style="fill:#e5dfda"/><path d="M158.34,54.83c0,.3,0,.54-.07.54a1.32,1.32,0,0,1-.06-.54,1.39,1.39,0,0,1,.06-.55S158.34,54.53,158.34,54.83Z" style="fill:#e5dfda"/><path d="M162.27,60.66a.74.74,0,1,1-.72-.6A.67.67,0,0,1,162.27,60.66Z" style="fill:#e5dfda"/><path d="M154.94,43.58c0,.45-.68.8-1.52.8s-1.52-.35-1.52-.8.68-.8,1.52-.8S154.94,43.14,154.94,43.58Z" style="fill:#e5dfda"/><ellipse cx="193.29" cy="53.02" rx="1.49" ry="1.03" style="fill:#e5dfda"/><path d="M94.73,88.42c0,.57-.63,1-1.41,1s-1.41-.47-1.41-1,.63-1,1.41-1S94.73,87.84,94.73,88.42Z" style="fill:#e5dfda"/><ellipse cx="104.25" cy="87.69" rx="1.03" ry="0.73" style="fill:#e5dfda"/><ellipse cx="122.75" cy="87.29" rx="1.19" ry="1.12" style="fill:#e5dfda"/><ellipse cx="122.15" cy="97.85" rx="0.62" ry="0.48" style="fill:#e5dfda"/><path d="M117.49,96.25c0,.35-.42.64-.94.64s-.94-.29-.94-.64.42-.65.94-.65S117.49,95.89,117.49,96.25Z" style="fill:#e5dfda"/><path d="M132,95.71c0,.55-.67,1-1.5,1s-1.5-.45-1.5-1,.67-1,1.5-1S132,95.16,132,95.71Z" style="fill:#e5dfda"/><path d="M98.78,121.67a.69.69,0,0,1-.67.71.71.71,0,1,1,.67-.71Z" style="fill:#e5dfda"/><ellipse cx="107.81" cy="116.67" rx="0.86" ry="0.79" style="fill:#e5dfda"/><path d="M116.55,109.12c0,.49-.66.89-1.46.89s-1.47-.4-1.47-.89.66-.89,1.47-.89S116.55,108.63,116.55,109.12Z" style="fill:#e5dfda"/><ellipse cx="86.3" cy="96.92" rx="0.63" ry="0.67" style="fill:#e5dfda"/><ellipse cx="174.66" cy="111.05" rx="1.35" ry="1.04" style="fill:#e5dfda"/><path d="M172.78,105.11a.94.94,0,1,1-.92-.76A.85.85,0,0,1,172.78,105.11Z" style="fill:#e5dfda"/><path d="M176.37,96.77c0,.33-.49.6-1.1.6s-1.1-.27-1.1-.6.49-.61,1.1-.61S176.37,96.43,176.37,96.77Z" style="fill:#e5dfda"/><ellipse cx="179.7" cy="102.67" rx="0.44" ry="0.1" style="fill:#e5dfda"/><path d="M186.25,97.15c0,.24-.31.44-.69.44s-.7-.2-.7-.44.31-.44.7-.44S186.25,96.91,186.25,97.15Z" style="fill:#e5dfda"/><path d="M191.49,91.38c0,.3-.38.55-.84.55s-.83-.25-.83-.55.37-.54.83-.54S191.49,91.08,191.49,91.38Z" style="fill:#e5dfda"/><path d="M200.76,87.32c0,.44-.23.79-.52.79s-.53-.35-.53-.79.24-.79.53-.79S200.76,86.88,200.76,87.32Z" style="fill:#e5dfda"/><path d="M196.44,96.15c0,.31-.37.56-.83.56s-.84-.25-.84-.56.38-.55.84-.55S196.44,95.85,196.44,96.15Z" style="fill:#e5dfda"/><path d="M180.63,102.63c0,.33-.41.59-.92.59s-.91-.26-.91-.59.41-.6.91-.6S180.63,102.3,180.63,102.63Z" style="fill:#e5dfda"/><path d="M187.1,101.39a.61.61,0,0,1-.57.64.65.65,0,0,1,0-1.29A.62.62,0,0,1,187.1,101.39Z" style="fill:#e5dfda"/><path d="M180.86,95.76c0,.24-.1.43-.23.43s-.23-.19-.23-.43.1-.42.23-.42S180.86,95.53,180.86,95.76Z" style="fill:#e5dfda"/><ellipse cx="165.72" cy="120.82" rx="1.12" ry="0.85" style="fill:#e5dfda"/><ellipse cx="122.87" cy="119.19" rx="1.07" ry="0.79" style="fill:#e5dfda"/><path d="M130.05,110.6a1.58,1.58,0,1,1-1.58-1.48A1.53,1.53,0,0,1,130.05,110.6Z" style="fill:#e5dfda"/><path d="M139,113.66a.62.62,0,0,1-.59.64.61.61,0,0,1-.58-.64.61.61,0,0,1,.58-.64A.62.62,0,0,1,139,113.66Z" style="fill:#e5dfda"/><path d="M125.16,106.48c0,.55-.63,1-1.41,1s-1.42-.44-1.42-1,.64-1,1.42-1S125.16,105.94,125.16,106.48Z" style="fill:#e5dfda"/><ellipse cx="139.07" cy="122.15" rx="1.53" ry="1.2" style="fill:#e5dfda"/><path d="M115.61,104.66a2.51,2.51,0,1,1-2.43-1.9A2.22,2.22,0,0,1,115.61,104.66Z" style="fill:#e5dfda"/><path d="M90.19,81.87a1.09,1.09,0,1,1-1.09-1.11A1.11,1.11,0,0,1,90.19,81.87Z" style="fill:#e5dfda"/><path d="M81.23,121.6c0,.43-.61.78-1.35.78s-1.35-.35-1.35-.78.6-.78,1.35-.78S81.23,121.17,81.23,121.6Z" style="fill:#e5dfda"/><path d="M97.45,94.61a1,1,0,1,1-2,0,1,1,0,0,1,2,0Z" style="fill:#e5dfda"/><ellipse cx="112.24" cy="90.12" rx="0.94" ry="0.98" style="fill:#e5dfda"/><path d="M74.82,97.71c0,.34-.49.61-1.09.61s-1.09-.27-1.09-.61.49-.62,1.09-.62S74.82,97.36,74.82,97.71Z" style="fill:#e5dfda"/><path d="M82.32,86.56a1.32,1.32,0,1,1-2.55,0c0-.92.57-1.68,1.27-1.68A1.52,1.52,0,0,1,82.32,86.56Z" style="fill:#e5dfda"/><path d="M81.23,99.32c0,.55-.33,1-.73,1s-.73-.44-.73-1,.32-1,.73-1S81.23,98.77,81.23,99.32Z" style="fill:#e5dfda"/><path d="M89.27,119.19a.64.64,0,1,1-.63-.79A.73.73,0,0,1,89.27,119.19Z" style="fill:#e5dfda"/><path d="M106.23,110.09a.89.89,0,1,1-.89-1A.93.93,0,0,1,106.23,110.09Z" style="fill:#e5dfda"/><ellipse cx="130.29" cy="128.33" rx="1.31" ry="0.27" style="fill:#e5dfda"/><path d="M63.53,111.55a1,1,0,1,1-1-1A1,1,0,0,1,63.53,111.55Z" style="fill:#e5dfda"/></g></g></svg>