<svg xmlns="http://www.w3.org/2000/svg" viewBox="0 0 259.16 193.76"><title>purple-goby</title><g id="Layer_2" data-name="Layer 2"><g id="Ñëîé_2" data-name="Ñëîé 2"><path d="M230.7,166.53a22.71,22.71,0,0,1-5.43-.38c-4.57-.56-10.8,1-10.58-.78s-10.57-1-10.57-2.56-9.58,1.11-9.91-.67-7.79.23-8.24-.77-5-.23-5.9-1.23-8.57,1-8.9-1.23-9.14.45-9.58-1.55-7.91.55-8.91-1.57-8.46.9-8.8-.55c-.22-.94-2.73-.57-4.5-.73a3.85,3.85,0,0,0-1.31-.37.84.84,0,0,1-.42-.68c-.11-2-6.56-.67-6.56-1.71s-7.69-.85-8.13-2.63-7.69.56-7.91-.59c-.14-.74-5.63-.9-9.49-.91a6.93,6.93,0,0,1,.25-.73c.61-1.46.75-2.52-.76-3.15.79.08,1.59.16,2.4.26,2,.24,4.1.54,6.17.87,12.45,2,25.27,5.45,31.41,6.54h.14l.1,0c2.37.48,21.86,4.38,31.57,5.65,10.36,1.37,38,6.6,41.86,7.49C222,165.33,228.46,166.28,230.7,166.53Z" style="fill:#2626d1"/><path d="M234.62,163.81a5.65,5.65,0,0,1-3.91,2.72h0c-2.24-.25-8.73-1.2-12-1.94-3.89-.89-31.5-6.12-41.86-7.49-9.71-1.27-29.2-5.17-31.57-5.65l.59.1a11.11,11.11,0,0,0,2.31.18c3.84-.33,7.68-5.34,14.36-6.32s7.69-3.53,3.18-9.21-2.17-2.17-4.34-8S149.51,119,146,114.66c-1.71-2.13-10.06-5.8-20.07-9.61-7.46-2.84-15.85-5.74-23.11-8.15h0C100,96,97.29,95.09,94.9,94.34a105.66,105.66,0,0,0-46-3.34c-11.47,1.9-27.61,8-28.17,11.36s-2.56,2.78-5.56,2.56-3.68,2.22-3.79,5.12-.55,6.24-1.67,6.9a2.75,2.75,0,0,0-1.55,2.9A3.35,3.35,0,0,1,8.1,121a1.29,1.29,0,0,1-.57.77h0a3.57,3.57,0,0,1-2.13.28c-2.56-.22-2.47,3-2.47,3-4.84-5.27-3.16-11.33,1.35-16C8,105.11,24.81,93.42,49.54,89.32l.09,0,.15,0H50l.06,0a2,2,0,0,0,.36,0h0l.19,0,.32,0,.22,0,.1,0h0l.18,0h0l.1,0h.09c1.54-.22,3.11-.42,4.71-.58,1.06-.1,2.13-.2,3.22-.27a107.63,107.63,0,0,1,14.38,0,160.56,160.56,0,0,1,26,4.09l2.88.68c33,8.16,69.91,25,92.73,40.87,6.3,4.38,11.77,7.95,16.57,10.84h0a130.92,130.92,0,0,0,13.31,7.15c.61,2.29,4.74,3.49,8,5.35S237.18,160.25,234.62,163.81Z" style="fill:#2626d1"/><path d="M50,89.24l-.06,0h-.18l.1,0Z" style="fill:#ffebfe"/><path d="M50.38,89.19a2,2,0,0,1-.36,0Z" style="fill:#ffebfe"/><path d="M51.25,89.06l-.1,0-.22,0-.32,0,.2,0A3.11,3.11,0,0,1,51.25,89.06Z" style="fill:#ffebfe"/><path d="M12.2,126.44a8.49,8.49,0,0,0-4.67-4.66A1.29,1.29,0,0,0,8.1,121c1.2.71,4.92,3.12,5.72,6C14.79,130.47,12.82,128.11,12.2,126.44Z" style="fill:#2b2b2b"/><path d="M148.23,135.42c-5.12,3.12-15.92,3.9-20.26,3.12s-10.24,2.26-14.35,6.33c-2.07-.33-4.14-.63-6.17-.87,3.21-9.24,19-8.8,16.51-14.7s-.12-8.13-.89-13.81S103.41,97.3,102.82,96.9c7.26,2.41,15.65,5.31,23.11,8.15,0,0,7.38,6.32,7.83,10.89s1.33,7.24,6.78,10.13S153.35,132.31,148.23,135.42Z" style="fill:#d073e8"/><path d="M162.53,145.41c-6.68,1-10.52,6-14.36,6.32a11.11,11.11,0,0,1-2.31-.18l-.59-.1-.1,0H145c-6.14-1.09-19-4.51-31.41-6.54,4.11-4.07,10.08-7.1,14.35-6.33s15.14,0,20.26-3.12-2.23-6.45-7.69-9.35-6.34-5.57-6.78-10.13-7.83-10.89-7.83-10.89c10,3.81,18.36,7.48,20.07,9.61,3.51,4.34,13.19,7.68,15.37,13.53s-.17,2.33,4.34,8S169.21,144.44,162.53,145.41Z" style="fill:#ae54cc"/><path d="M38.46,121.84c-.17,2.42-1.11,4.74-3.37,5.86a15.13,15.13,0,0,1-7,1.09c-1.32,0-.49-1.43,0-1.94,0,0,6.18-6,4.84-14.75S39,114.66,38.46,121.84Zm73.86,5.3a1.3,1.3,0,0,1-1.28,1,2.89,2.89,0,0,1-1-.32,38,38,0,0,0-7.32-2.6A105.4,105.4,0,0,0,83.88,123c-18.54-.84-38.08-3-34.57-14.12s31.9-9.26,45.76-3.84a31.3,31.3,0,0,1,8.75,5.13,24.74,24.74,0,0,1,7.79,11.33l.15.49C112.18,123.44,112.84,125.67,112.32,127.14ZM124,129.3c-2.45-5.9-.12-8.13-.89-13.81S103.41,97.3,102.82,96.9h0C100,96,97.29,95.09,94.9,94.34a105.66,105.66,0,0,0-46-3.34c-11.47,1.9-27.61,8-28.17,11.36s-2.56,2.78-5.56,2.56-3.68,2.22-3.79,5.12-.55,6.24-1.67,6.9a2.75,2.75,0,0,0-1.55,2.9A3.35,3.35,0,0,1,8.1,121c1.2.71,4.92,3.12,5.72,6,1,3.45-1,1.09-1.62-.58a8.49,8.49,0,0,0-4.67-4.66h0a3.57,3.57,0,0,1-2.13.28c-2.56-.22-2.47,3-2.47,3a15.32,15.32,0,0,0,1.35,1.31c6.46,5.57,35,7.35,35,7.35,3,.05,5.87.13,8.55.24s5.06.24,7.35.38c34.32,2.21,33.74,8.93,42,8.73,4.21-.1,6.61.12,7.88.64h0c.79.08,1.59.16,2.4.26C110.66,134.76,126.41,135.2,124,129.3ZM21.2,116.22c-.06.83.5,1.56,0,2.17a2.75,2.75,0,0,1-2.78.78c-1.17-.34-2.73,1.21-3.29.11s-2-1.61-2-2-.29-2.3,2.29-1.49a2.73,2.73,0,0,1-.43-.26l-.19-.12-.1-.08a4.86,4.86,0,0,1-.41-.38,3.19,3.19,0,0,1-.37-.44,1.43,1.43,0,0,1-.16-.24,1.23,1.23,0,0,1-.14-.25,1.47,1.47,0,0,1-.14-.28,1.17,1.17,0,0,1-.1-.26s0,0,0,0v0a.07.07,0,0,1,0-.06s0,0,0-.08v0a1.17,1.17,0,0,1,0-.2,1.5,1.5,0,0,1-1.4-.68,24.69,24.69,0,0,1,0-2.95,5.24,5.24,0,0,1,1.28-3.34c.56-.56,1.78-.17,2.78-.23s.95.9,1.57.9c.45,0,.72.91.83,1.37a4.11,4.11,0,0,1,2,6.74A1.66,1.66,0,0,1,21.2,116.22Z" style="fill:#ffeffe"/><path d="M21.2,118.39a2.75,2.75,0,0,1-2.78.78c-1.17-.34-2.73,1.21-3.29.11s-2-1.61-2-2-.29-2.3,2.29-1.49h0a4.1,4.1,0,0,0,4.87-.92,1.66,1.66,0,0,1,.85,1.35C21.14,117.05,21.7,117.78,21.2,118.39Z" style="fill:#f1cc8b"/><path d="M254.32,157.09h0a6.6,6.6,0,0,1-2.64,2.26c-4.68,2.67-7.13,5.57-7.8,10.69S243,175,241,175.61s-2.23,1.12-1.56,4.68-4.68,12-9.35,12.47-4.9,2.45-9.13-.89-6.91-9.36-9.8-8.46-4,.44-6.46-2.45-4.45-2.23-5.78-1.79-4-3.78-15.59-2.67-15.37.67-16.48-1.55-5.12.44-11.35.22-7.35-3.78-10.69-3.56-9.58.22-11.36-1.79-3.24-1.55-6.18-1.33-5.4,0-6.07-1.11-4.23-2.67-8-2.45a6.5,6.5,0,0,1-4-1.37c3.65.38,7.16-1.52,9.6,0,3.34,2.12,1.44,2.9,6.78,2s13.26,3.79,16.15,3.23,6.79.11,8.8,1.9,5,3,10.35,1.44,7,.45,8.22,1.67,13.38.78,19.84.78,7.57,2.12,9.79,1.45,2.79-1,4.57.78,4.9,4.79,7.45,3.45,3.46-1,5.91,3.12,9.24,7,10.46,5,4.9.77,4.9-.78,5.09-.39,3.12-2.89,1.78-.79,1.78-3.12-1.22-2.79-4.56-4.79-9.36-5.12-9.58-7.24-11.24-1.33-11.58-3-11.69.22-11.13-1.34-11.69.22-11.81-1.12-9.68-1.22-9.57-2.44-10,.67-10.15-.78-9.89-.45-10.56-1.88-9.46-.35-9.46-1.94-8.68.26-8.57-1.86a.76.76,0,0,0-.5-.73c1.77.16,4.28-.21,4.5.73.34,1.45,7.8-1.56,8.8.55s8.47-.44,8.91,1.57,9.24-.67,9.58,1.55,8,.22,8.9,1.23,5.46.22,5.9,1.23,7.91-1,8.24.77,9.91-.89,9.91.67,10.8.78,10.57,2.56,6,.22,10.58.78a22.71,22.71,0,0,0,5.43.38h0a5.65,5.65,0,0,0,3.91-2.72c2.56-3.56,2-4.84-1.22-6.71s-7.36-3.06-8-5.35a47.9,47.9,0,0,0,11.44,3.75,26.49,26.49,0,0,0,9.22.07c1.41-.22,2.62-.36,3.66-.42C253.66,154.93,255,155.81,254.32,157.09Z" style="fill:#3930e8"/><path d="M235.07,184.75c2,2.5-3.12,1.33-3.12,2.89s-3.67-1.22-4.9.78-8-.9-10.46-5-3.34-4.46-5.91-3.12-5.67-1.67-7.45-3.45-2.34-1.45-4.57-.78-3.34-1.45-9.79-1.45-18.63.45-19.84-.78-2.87-3.23-8.22-1.67-8.35.33-10.35-1.44-5.91-2.45-8.8-1.9-10.79-4.12-16.15-3.23-3.44.12-6.78-2c-2.44-1.55-6,.35-9.6,0-2.25-1.59-4-4.29-4-6.43,0-.55,0-1.11,0-1.7,0-1.49-.09-3.06,0-4.54,0,0,9.3-.82,9.85.66s9.31-.65,9.28,1,7.59-.78,7.45.67c-.1,1,4,.56,6.4.9a3.08,3.08,0,0,0,1.31.37.76.76,0,0,1,.5.73c-.11,2.12,8.57.28,8.57,1.86s8.79.52,9.46,1.94,10.42.43,10.56,1.88,10.26-.45,10.15.78,9.46,1.11,9.57,2.44,12.37-.44,11.81,1.12,10.8-.33,11.13,1.34,11.36.88,11.58,3c.16,1.53,3.35,3.58,6.36,5.36h0c1.15.68,2.27,1.31,3.2,1.87,3.34,2,4.56,2.45,4.56,4.79S233.09,182.24,235.07,184.75Z" style="fill:#c8301f"/><path d="M138.07,154.14c-2.44-.34-6.5.1-6.4-.9.14-1.45-7.49,1-7.45-.67s-8.73.45-9.28-1-9.85-.66-9.85-.66a13.63,13.63,0,0,1,.47-3.27c3.86,0,9.35.17,9.49.91.22,1.15,7.46-1.18,7.91.59s8.13,1.58,8.13,2.63,6.45-.3,6.56,1.71A.84.84,0,0,0,138.07,154.14Z" style="fill:#3930e8"/><path d="M139.38,154.51a3.08,3.08,0,0,1-1.31-.37A3.85,3.85,0,0,1,139.38,154.51Z" style="fill:#ffebfe"/><path d="M76.7,155.07c-2,0-2,.17-2.17,1.51s2.5,3.67-2.51,1.5-4.51-.84-3,3.34-1,2.5-1,2.5a33.09,33.09,0,0,1-14.93-14.18c.12-1.57.94-3.05,4-2,5.57,2,3.9-.89,3.9-1.56s0-2.63,5.8-1c1.38.87,2.82,1.8,4.27,2.82C78.87,153.57,78.7,155.07,76.7,155.07Z" style="fill:#c8301f"/><path d="M66.75,145.24c-5.78-1.65-5.8.31-5.8,1s1.67,3.56-3.9,1.56c-3-1.09-3.85.39-4,2-.36-.63-.7-1.27-1-1.89h0c1.35-3.16,2.51-2.25,4.31-2,2,.33,2.67.55,2.67-2.23,0-1.37,1.08-1.82,2.17-1.93h0C62.87,142.85,64.75,144,66.75,145.24Z" style="fill:#3930e8"/><path d="M61.22,141.73c-1.09.11-2.17.56-2.17,1.93,0,2.78-.67,2.56-2.67,2.23-1.8-.3-3-1.21-4.31,2A45,45,0,0,1,47.79,134c2.62.11,5.06.24,7.35.38C55.5,137.3,57.87,139.47,61.22,141.73Z" style="fill:#f1cc8b"/><path d="M249.75,155.15c-1,.06-2.25.2-3.66.42a26.49,26.49,0,0,1-9.22-.07c.64-.1,15-2.43,15.26-4.62s-5.68,1.19-11.35,2.32,16.52-6,8.09-5.14-11.35,4.34-15,4.59,6.35-4.59,10.61-6.26,4.09-3.17-4.93,0-9.94,5.81-12,4.49,4.93-4.18,10-6,7.76-5.16-.67-1.82-10.1,6.19-12.19,5.52-2.59-2,4.92-4.83,11.53-5.87,2.76-2.94-10.94,6.34-12.86,5.59-1-2.51,4.6-4.84,9.43-4.35,3.34-3.18-8.35,3.56-11.87,5.37-1.25-3.38,4.35-5.71,4.93-4.09-1.09-1.33-5.75,2.84-6.84,2,2.92-2.07,6.68-3.42,4.84-2.09-.34-1.43-7,3.16-10.22.73l-.08-.06c-2.34-1.77-6.19-4.37-4.39-4.93s-7.52-4.34-5.93-5.5-6.52-3-5.76-3.93-6.18-3.67-5.68-4.51-4.92-2.58-4.59-3.25-6.52-1.93-5.68-3.26-8.1-3.17-7.1-4.1-3.34-1.83-2.76-2.66-6.59-1.67-6.17-2.67-7.27-2.52-6.85-3.43-5-.09-4.84-1.09-2.85-2.42-15.87-6.76-29,.6-29,.6c1-2.68,3.06-2.44,3.19-4.44a.88.88,0,0,1,0-.16c6.75-1.32,21-3.39,30,.33,12.24,5,24.38,10.68,28.39,13s25.94,15,31,18.15,7.91,1.45,7.35,3.56,3.45,4.12,5.57,4.23,4.56,2.57,4.34,4.12,5.12,2.79,7.57,3.12,5.12,1.67,5.34,3.23,4.68,3,8,3,8.46,1,8.46,2.34,5,.78,5.68,2.67,5,1.57,6.16,5.41S255,153.61,249.75,155.15Z" style="fill:#c8301f"/><path d="M212.12,144.59c-4.8-2.89-10.27-6.46-16.57-10.84-22.82-15.84-59.71-32.71-92.73-40.87A14.19,14.19,0,0,1,103.4,89s16-4.94,29-.6,16,5.76,15.87,6.76,5.26.17,4.84,1.09,7.26,2.42,6.85,3.43,6.76,1.83,6.17,2.67,3.76,1.74,2.76,2.66,7.93,2.76,7.1,4.1,6,2.59,5.68,3.26,5.09,2.42,4.59,3.25,6.43,3.59,5.68,4.51,7.34,2.75,5.76,3.93,7.84,4.92,5.93,5.5,2,3.16,4.39,4.93l.08.06.37.28c2.26,1.75-.5,2.84,0,4S213.44,142.47,212.12,144.59Z" style="fill:#3930e8"/><path d="M259.11,149.56c.55,3.57-4.49,7.32-4.79,7.53.66-1.28-.66-2.16-4.57-1.94,5.22-1.54,5.92-3.7,4.73-7.53s-5.49-3.52-6.16-5.41-5.68-1.33-5.68-2.67-5.12-2.34-8.46-2.34-7.8-1.45-8-3-2.89-2.89-5.34-3.23-7.8-1.56-7.57-3.12-2.23-4-4.34-4.12-6.13-2.11-5.57-4.23-2.34-.45-7.35-3.56-26.94-15.81-31-18.15-16.15-8-28.39-13c-9.08-3.72-23.29-1.65-30-.33.29-2.54,3.93-3.2,17.61-4.18,13.95-1,37.15,9.68,45.5,15.86s23.26,14.25,25.71,14.25,5.79,5.46,8.47,4.79,1.44,5.34,7.45,5.64,2.79,5.16,7.8,5.16,3.34,4.34,5.56,3.68,6.57.66,5.82,2.33,5.7,1.67,5.7,1.67c5-.56,9,2.9,11.42,2.9s1.78,2.89,3.89,2,7.8,3.23,7.61,6.06S258.56,145.89,259.11,149.56Z" style="fill:#3930e8"/><path d="M99.94,92.2a160.56,160.56,0,0,0-26-4.09,107.63,107.63,0,0,0-14.38,0,52.19,52.19,0,0,0,2.58-6c1.75-4.51.33-5,1.75-4.51s.67-7.43,2.18-6.68,1.16-6.34,2.16-5.68,3.37-11.83,4.48-9.93,2-9.24,3.12-8.24,4.46-4.46,3.74-7.46S79.54,30,84.77,22.76s5.3-8.35,4.77-10.36-2.88-3.67-4.55,0S82.21,14.74,81.65,17s-3.45,2.22-3.45,4.34S76,23.53,75.86,25.76s-2.45,3.34-2.34,4.9S71.3,32.55,71.3,35s-2.12,1.56-1.78,4.34-2.12,1.89-1.67,4.23-2,3.12-2,4.79-2.34,2-2.11,4.46-2.68,4.34-1.67,6.34-1.78,3.12-1.45,5.57-2.12,2.67-1.56,5.12S56.83,73.08,57.49,75s-1.67,2.23-1.11,4.12-.67,1.13-.78,3.57-.12,4.93.77,5.75c-1.6.16-3.17.36-4.71.58,2.85-.57,2.91-5.48,2.91-5.48.51-6.81,4.48-22.12,4.48-22.12,12-49,45.2-69,35.4-58.79s-.44,10-3.56,14.25S79.54,36,81.54,36s1.34,4,1.34,4-8.13,20-12.36,28.39S66.4,87,72.74,84.77s14.81-2.23,16.93-3.52c1.4-.87,3.44.5,5,1.13a2.73,2.73,0,0,1-3.55.28c-2.18-1.35-4.1-.15-9.28,1.69s-.33,3.09,2.76,3.09,3.42,1.08,5.76.83,1.84,1.34,4.43,1a7.32,7.32,0,0,1,4.65,1.1A13.76,13.76,0,0,0,99.94,92.2Z" style="fill:#3930e8"/><path d="M99.86,84.1a12.52,12.52,0,0,0-.39,6.28,7.32,7.32,0,0,0-4.65-1.1c-2.59.33-2.09-1.25-4.43-1s-2.67-.83-5.76-.83-7.93-1.26-2.76-3.09,7.1-3,9.28-1.69a2.73,2.73,0,0,0,3.55-.28h0a1.65,1.65,0,0,0,.86-.28C97.46,80.87,101.25,80.54,99.86,84.1Z" style="fill:#c8301f"/><path d="M84.77,22.76C79.54,30,78.87,36.67,79.6,39.68S77,48.14,75.86,47.14s-2,10.13-3.12,8.24S69.26,66,68.26,65.31,67.59,71.74,66.1,71s-.76,7.18-2.18,6.68,0,0-1.75,4.51a52.19,52.19,0,0,1-2.58,6c-1.09.07-2.16.17-3.22.27-.89-.82-.88-3.32-.77-5.75s1.34-1.68.78-3.57,1.78-2.23,1.11-4.12,2.12-2.67,1.56-5.12,1.9-2.67,1.56-5.12,2.45-3.56,1.45-5.57,1.89-3.9,1.67-6.34,2.11-2.79,2.11-4.46,2.45-2.45,2-4.79,2-1.44,1.67-4.23S71.3,37.45,71.3,35s2.34-2.78,2.22-4.34,2.23-2.67,2.34-4.9,2.34-2.33,2.34-4.45,2.89-2.12,3.45-4.34,1.67-.89,3.34-4.57,4-2,4.55,0S90,15.52,84.77,22.76Z" style="fill:#c8301f"/><path d="M18.36,108.13A3.72,3.72,0,0,0,17.3,108a4.12,4.12,0,0,0-4.12,4.12c0,.1,0,.2,0,.3a1.64,1.64,0,0,0,0,.22c0,.09,0,.18,0,.28v0a0,0,0,0,1,0,0l0,.08a1.17,1.17,0,0,0,0,.2v0s0,.06,0,.08a.07.07,0,0,0,0,.06v0s0,0,0,0a1.17,1.17,0,0,0,.1.26,2.44,2.44,0,0,0,.14.28,1.23,1.23,0,0,0,.14.25,1.43,1.43,0,0,0,.16.24,3.19,3.19,0,0,0,.37.44,4.86,4.86,0,0,0,.41.38l.1.08.19.12a2.73,2.73,0,0,0,.43.26h0a4.11,4.11,0,1,0,2.88-7.66Zm-.83,6.64a2.67,2.67,0,1,1,2.67-2.67A2.67,2.67,0,0,1,17.53,114.77Z" style="fill:#fffbfc"/><path d="M20.2,112.1a2.68,2.68,0,1,1-2.67-2.67A2.67,2.67,0,0,1,20.2,112.1Z" style="fill:#2b2b2b"/><path d="M18.36,108.13A3.72,3.72,0,0,0,17.3,108a4.12,4.12,0,0,0-4.12,4.12c0,.1,0,.2,0,.3a1.64,1.64,0,0,0,0,.22c0,.09,0,.18,0,.28v0a0,0,0,0,1,0,0l0,.08a1.5,1.5,0,0,1-1.4-.68,24.69,24.69,0,0,1,0-2.95,5.24,5.24,0,0,1,1.28-3.34c.56-.56,1.78-.17,2.78-.23s.95.9,1.57.9C18,106.76,18.25,107.67,18.36,108.13Z" style="fill:#d073e8"/><path d="M38.46,121.84c-.17,2.42-1.11,4.74-3.37,5.86a15.13,15.13,0,0,1-7,1.09c-1.32,0-.49-1.43,0-1.94,0,0,6.18-6,4.84-14.75S39,114.66,38.46,121.84Z" style="fill:#f9e4f9"/><path d="M112.32,127.14a1.3,1.3,0,0,1-1.28,1,2.89,2.89,0,0,1-1-.32,38,38,0,0,0-7.32-2.6A105.4,105.4,0,0,0,83.88,123c-18.54-.84-38.08-3-34.57-14.12s31.9-9.26,45.76-3.84a31.3,31.3,0,0,1,8.75,5.13,24.74,24.74,0,0,1,7.79,11.33l.15.49C112.18,123.44,112.84,125.67,112.32,127.14Z" style="fill:#fff5fe"/><path d="M17.73,110.53a1.4,1.4,0,1,1,1.4,1.39A1.39,1.39,0,0,1,17.73,110.53Z" style="fill:#fffbfc"/><path d="M252.13,150.88c-.24,2.19-14.62,4.52-15.26,4.62a47.9,47.9,0,0,1-11.44-3.75,130.92,130.92,0,0,1-13.31-7.15h0c1.32-2.12-3.16-4.55-3.66-5.72s2.26-2.25,0-4l-.37-.28c3.25,2.43,5.09-.06,10.22-.73s4.1.08.34,1.43-7.77,2.58-6.68,3.42.83.75,6.84-2,6.68-1,1.09,1.33-7.85,7.52-4.35,5.71,5.77-4.2,11.87-5.37,2.25.84-3.34,3.18-6.52,4.08-4.6,4.84,4.09-2.67,12.86-5.59,4.76.08-2.76,2.94-7,4.15-4.92,4.83,3.76-2.18,12.19-5.52,5.76,0,.67,1.82-12.11,4.69-10,6,3-1.32,12-4.49,9.19-1.67,4.93,0-14.28,6.51-10.61,6.26,6.6-3.76,15-4.59-13.77,6.26-8.09,5.14S252.38,148.64,252.13,150.88Z" style="fill:#962417"/><path d="M234.18,181.18c-2-.89-8.8-7.62-10.36-8.43s11,13.55,8.13,12-8.46-11.59-12-12.7,10.13,14,8,14-8.68-14.25-12.25-15.26,10.69,15.7,8.69,15.82-9.46-14.67-12.47-15.86,6.58,10.47,4.79,10.29-5-8.94-9.46-10.37,4.56,6.64,2.22,8-2.67-6.54-6.68-8.14-.45.3,0,3.3-1.22.11-4.23-2.89-4.57-5-3.9-1.07,1.9,5-1.33,1.74-5.45-7.47-5.45-3.23.44,7.45-1.23,3.45-2.23-7.59-3-5.3,1.62,9.64-.75,7.3S180,163,178,164.81s1.12,8.2-.44,7.94-3.54-9.16-6.56-8.94,3.89,8.75,1.1,8.94-2.78-8.06-8-8.94-.78,4.88-.89,6.06-4.46-7.62-7-8,3.56,9.24.66,9.35-5.34-11.13-8.46-11-.57,7,0,8.24-4-4.68-5.23-6.79-4.87-4.46-4.38-.45,2.76,7.35,0,5.35-2.25-7.77-5.82-9.51,2.12,6.28-1.77,7,1-5.07-4.7-8.64-3.47,4.53-2.17,7.31-2.15.56-3.6-4.45-4.79-5.32-4.23-1.27,1.22,6.28-.56,3.94-1.22-7-5.12-7.46-.78,6.13,0,7.57-4.6-2.19-5.6-5.71c0-1.49-.09-3.06,0-4.54,0,0,9.3-.82,9.85.66s9.31-.65,9.28,1,7.59-.78,7.45.67c-.1,1,4,.56,6.4.9a3.08,3.08,0,0,0,1.31.37.76.76,0,0,1,.5.73c-.11,2.12,8.57.28,8.57,1.86s8.79.52,9.46,1.94,10.42.43,10.56,1.88,10.26-.45,10.15.78,9.46,1.11,9.57,2.44,12.37-.44,11.81,1.12,10.8-.33,11.13,1.34,11.36.88,11.58,3c.16,1.53,3.35,3.58,6.36,5.36h0C229.45,175.34,236.13,182.05,234.18,181.18Z" style="fill:#962417"/></g></g></svg>