<svg xmlns="http://www.w3.org/2000/svg" viewBox="0 0 243.31 216.14"><title>queen-angelfish</title><g id="Layer_2" data-name="Layer 2"><g id="Ñëîé_2" data-name="Ñëîé 2"><path d="M14.1,104.62c-1.46,2.53-4.12,7.45-2.52,10.51s2.52,5.58,1.73,6.91-1.2,8.11.26,10.5c1.12,1.84.08,5.56.6,9.65l-1.25-1.1c-.57-.51-1.13-1-1.68-1.57-1.89-1.84-3.65-3.81-5.38-5.82-1.44-1.68-4-4-4.52-6.21s1.46-.8,3.06-1.46-.58-1.73-3.14-2-.85-5.18,2.07-8S11.58,102.36,13.71,98a59.22,59.22,0,0,1,3.72-6.13c-.85,2.46-1.66,5.09-1.6,6A11.81,11.81,0,0,1,14.1,104.62Z" style="fill:#ffd422"/><path d="M26.63,83.26c-1.53.89-3.75,4.17-4.72,5.85a10.67,10.67,0,0,0-1.78,5.94c.09,2.39.45,4.08-.84,5s-4.1,4.82-3.49,8.39h0a8.42,8.42,0,0,0-.61,3.16,9.12,9.12,0,0,0,3.12,6.68c-.14,2.81,1,3.93,1,3.93.13,1.07,1.2,5.19.93,6.12s-2.39,3.19-1.6,5.45,0,6.65,0,8,3.2,4.25,3.2,4.25,2.25.71,1.88,3.9c-3.25-2.46-6.45-5-9.53-7.68-.52-4.09.52-7.81-.6-9.65-1.46-2.39-1.06-9.17-.26-10.5s-.14-3.86-1.73-6.91,1.06-8,2.52-10.51a11.81,11.81,0,0,0,1.73-6.78c-.06-.9.75-3.53,1.6-6A118.52,118.52,0,0,1,30,76.21a3.79,3.79,0,0,0,.09,1.29C30.77,80.25,28.17,82.38,26.63,83.26Z" style="fill:#08ebff"/><path d="M43.91,64.17A51.85,51.85,0,0,1,37,70.05a53.74,53.74,0,0,0-7,6.16,3.79,3.79,0,0,0,.09,1.29c.71,2.75-1.89,4.88-3.43,5.76s-3.75,4.17-4.72,5.85a10.67,10.67,0,0,0-1.78,5.94c.09,2.39.45,4.08-.84,5s-4.1,4.82-3.49,8.39a9.54,9.54,0,0,1,3.49-4.28,11.28,11.28,0,0,1,6.46-2,11.45,11.45,0,0,1,2.28.22,10.7,10.7,0,0,1,6.28,3.69s1-2.23,2.49-2.86,2.3-3.45,1.59-4.78-.54-6.12.26-6.39S39,89.29,40,88.84s-.06-3.45.91-3.89,1.51-7.54,2.93-8.25,1-4.87,1.33-5.49A9.59,9.59,0,0,0,43.91,64.17ZM28.35,100.86c-3.16-1.29-7.54.17-7.54.17-1,.27-2.36-.24,1.47-1.63s7.42-.63,9,.93S31.52,102.14,28.35,100.86ZM36,84.47c-2.21,1.83-2.38,5.17-1.68,7.66s-.53,7.35-3.19,5.85-7.38,0-7.38,0c-3.3.09-.42-6.56,2.89-9s4.76-3.54,5.63-7.44,5.6-8,6.13-5.68S38.21,82.64,36,84.47Z" style="fill:#9179b1"/><path d="M212.65,18.64c-4.79,9.93-10.1,24.47-9.39,41.31s-.89,28-7.27,29.78a9.46,9.46,0,0,0-1.81.64c4-4.68,3.76-10.92,1.81-17.48s.53-26.94,7.27-45.21,24.11-21.62,20.21-21.8-11.7,1.42-14.36-.35S201.31,8,198.82,6.86s-6.91,2-9.57,1-3.9,2.48-6.73-.17S177.91,10,177,8.72c-.69-1-6,1.4-9.32,3-.95.45-1.73.85-2.2,1.08-2.13,1.07-10.46,2.49-12.41,2.49s-7.09,2.48-10.28,2-8,3.9-12.24,2.66-7.8,1.24-10.1,2.3S108.59,25.74,105.75,25s-4.25,1.78-9.21,3.2S85.9,32.47,83.07,32.29s-4.44,1.78-6,4.43-6,4.26-9.4,5.15-3.72,2-5.14,5.49-5.32,4.44-8,6.74a3.48,3.48,0,0,0-1,3.37c.28,2,1.22,4.22.25,5.85-1.6,2.66-3.73,6-2.84,9.93s-6,26.23-9.4,34.21-.53,28.18,0,34,2.84,1.6,3.37,5.15.71,8.86,5,11.7c2.77,1.84,3.89,6.17,4.33,9-1-.18-1.9-.39-2.88-.67C51,163.15,47.88,161,47,161c-1.07,0-3,.44-4.26-1s-.7-2.12-1.68-6.56-1.77-2.74-4.74-3.81a2.82,2.82,0,0,1-2-3.68c1,.14,4.52-1.55,2.49-2.43s-3.11-2.66-1.25-9a21,21,0,0,0-1-14.45c-1.15-2.13-3.19,1.59-4.52,2.39s-2.93.71-6.32.62-4.45-4-4.45-4a11.35,11.35,0,0,0,6.46,2c4.95,0,9.11-3,10.24-7.14a8.21,8.21,0,0,0,.32-2.28,8.68,8.68,0,0,0-2-5.5s1-2.23,2.49-2.86,2.3-3.45,1.59-4.78-.54-6.12.26-6.39S39,89.29,40,88.84s-.06-3.45.91-3.89,1.51-7.54,2.93-8.25,1-4.87,1.33-5.49a9.59,9.59,0,0,0-1.22-7A58.58,58.58,0,0,0,55.06,47.72C58.25,41.07,65.43,35,67,33.09s.43,3.25.07,4.49c.5-1.41,3.3-8.47,7.29-9.54,0,0,.88.18,0,3s.35,1.41,1.24.17,3.19-4.61,5.32-4.25,2.66-3.55,6.56-2.84,5.31-1.77,7.09-1.42,30-9.57,39.18-9.21,23.4-4.26,29.78-6.39,12.59-4.61,13.65-3.54,5.67-.69,7.09-.26,3.9-1.51,5.32-1,3.19-1.08,5.14-.1,6.56-2,7.8-1.32S213,.56,213,2,219.39-2,220.63.81s9,2.94,11.52,3.83S217.44,8.72,212.65,18.64Z" style="fill:#08ebff"/><path d="M34.31,146c-1-.13-1.06.14-3,1.29-1.59.94-4.62.7-6.48,3.45l-1.12-.84c.37-3.19-1.88-3.9-1.88-3.9s-3.2-2.92-3.2-4.25.8-5.72,0-8,1.33-4.52,1.6-5.45-.8-5-.93-6.12c0,0-1.12-1.12-1-3.93a9.51,9.51,0,0,0,1,.77s1.06,4,4.45,4,5,.18,6.32-.62,3.37-4.52,4.52-2.39a21,21,0,0,1,1,14.45c-1.86,6.38-.79,8.15,1.25,9S35.29,146.11,34.31,146Z" style="fill:#9179b1"/><path d="M51.36,166.63a47.74,47.74,0,0,1-15.63-7.94c-3.64-2.64-7.31-5.27-10.91-8,1.86-2.75,4.89-2.51,6.48-3.45,1.95-1.15,2-1.42,3-1.29a2.82,2.82,0,0,0,2,3.68c3,1.07,3.76-.62,4.74,3.81s.44,5.14,1.68,6.56,3.19,1,4.26,1C47.88,161,51,163.15,51.36,166.63Z" style="fill:#1a67ff"/><path d="M58.42,146c-6.09-.43-14.75-2.08-10.1-7.69,6-7.26,15.42-11.94,9.22-26.53-.55-1.3-2.19-4.78.06-5.22,2.07-.4,5.11,3.42,6.19,4.69a30.3,30.3,0,0,1,5.92,10.69C72.37,130.67,70.41,146.85,58.42,146Zm124.27-7.15a.13.13,0,0,1-.08,0,15.12,15.12,0,0,0-4.7.1c.75,3.19,1.46,6.45.79,7.72-1.32,2.52-3.72,3.59-3.49,0a14.94,14.94,0,0,0-1-6.3c-3.19,1.95-5.06,5.35-6.65,8.69-2.4,5-8.25,6-15,4.61.14,11.78-4.66,16.4-6,7.62-.32-2.13-.8-5.11-1.38-8.51-4.57.63-7.67,3.74-11.66,4.59-5.32,1.13-14.89-3.79-16.23-12.56-1.22-8.06-11.63-6.25-21.35-10.23.83,2,1.55,3.62,2,4.64,2.17,4.71,14.29,20.21,15.08,23.14s-1.59,2.92-9.57-6.39c-4-4.66-9.19-14.53-13.38-24.79-8.33-6.69-12.8-19.68-9.49-28.78,3.73-10.23,2.13-15.3-2.12-23.18s5.31-15.78,12-21.1a9.77,9.77,0,0,1,4.3-1.79c1-4.94,1.81-9.83,2.79-11.85-1.7.28-3.55.62-5.56,1-9.25,1.94-21.86,5.5-38.44,12,.28,2,1.22,4.22.25,5.85-1.6,2.66-3.73,6-2.84,9.93s-6,26.23-9.4,34.21-.53,28.18,0,34,2.84,1.6,3.37,5.15.71,8.86,5,11.7c2.77,1.84,3.89,6.17,4.33,9a38.12,38.12,0,0,0,4.88.58c5.49.34,10.79-.33,16.85-.33a149.31,149.31,0,0,1,16.83,1.31c12.7,1.56,26,4.07,27.67,4.9,2.28.24,4.48.4,6.61.5,49,2.14,56.61-33.4,56.72-33.92h0C183.25,139.45,183,138.77,182.69,138.84Z" style="fill:#ffd422"/><path d="M90.48,68.46c-5.11,5.85-7.77,23.19-7.77,35.66,0,6.22,3.17,16.81,7.36,27-8.33-6.69-12.8-19.68-9.49-28.78,3.73-10.23,2.13-15.3-2.12-23.18s5.31-15.78,12-21.1a9.77,9.77,0,0,1,4.3-1.79C93.76,61.2,92.47,66.17,90.48,68.46Z" style="fill:#9179b1"/><path d="M195.55,25.25l.61.13C196.12,25.08,195.89,25.05,195.55,25.25Z" style="fill:#ffd422"/><path d="M196.05,174.47c1,3-3.78.53-3.08,6.38s-9.21,12.35-21.62,7.68-20.21-7.68-20.74-6.08-6-1.78-7.8-1.42-8.42.11-15.73-6.77c49,2.14,56.61-33.4,56.72-33.92a6.47,6.47,0,0,0,5.63,3.28c5.32.18,6.38,5.85,6.92,9,0,.21.09.48.16.8,0,0-.11.64-.21,1.65-.29,2.71-.62,8,.93,10.71C199.36,169.51,195.05,171.46,196.05,174.47Z" style="fill:#ed9c0c"/><path d="M207.51,190.78c3.73,2.48,1.6,1.77-2.84,1.23s-2.47,1.6-6.2,2.17-4.61.15-8,0-3.2,1-8.34.53-3.9,1.2-8.15,0a20.28,20.28,0,0,0-8.14,0h0l-.4-.16-1-.39-1.58-.61-1-.39-1.67-.67-1-.41-2.1-.87-1.15-.49c-1.08-.46-2.09-.89-3-1.3l-.39-.17c-1.49-.68-2.64-1.24-3.23-1.6l-.21-.14-.1-.08c-1.95-1.59-3.19-3.54-3.37-1.42s-6.73-.7-7.8-1.77-5-3.9-5.85-3-2-3.73-3.19-3.55a27.25,27.25,0,0,1-5.62-1.58,13.67,13.67,0,0,0-2.71-2.32c2.28.24,4.48.4,6.61.5,7.31,6.88,14,7.12,15.73,6.77s7.27,3,7.8,1.42,8.33,1.42,20.74,6.08,22.34-1.83,21.62-7.68,4.08-3.37,3.08-6.38,3.31-5,1.18-8.65c-1.55-2.68-1.22-8-.93-10.71,2.06,6.89,5.77,18.35,4.3,17.94-1.95-.53,4.25,6.92,2.48,6.2s-.35,3.2,4.08,6.74,2.48,3.73-1.95,1.6S203.79,188.3,207.51,190.78Z" style="fill:#ffdd4e"/><path d="M207.33,196.63c-10.28-.53-14.71-1.77-14.71-.36s-8.16.18-8.33,1.42S174,196.1,174,197.16c0,.16-.52.09-1.42-.16l-.19-.05-.85-.26-.3-.09-.4-.13-.38-.13-1.66-.57-.83-.3-.07,0-1.32-.48-.12-.05-.5-.18-.1,0a20.28,20.28,0,0,1,8.14,0c4.25,1.2,3-.48,8.15,0s5-.66,8.34-.53,4.25.55,8,0,1.77-2.71,6.2-2.17,6.57,1.25,2.84-1.23-6.73-5.32-2.3-3.19,6.38,1.95,1.95-1.6-5.85-7.44-4.08-6.74-4.43-6.73-2.48-6.2c1.47.41-2.24-11.05-4.3-17.94.1-1,.21-1.65.21-1.65-.07-.32-.13-.59-.16-.8-.54-3.19-1.6-8.86-6.92-9a6.47,6.47,0,0,1-5.63-3.28h0c-.55-.88-.83-1.56-1.11-1.49l-.08,0c-.71-.31-1.79-6.7.26-10.8,2.13-4.25,4.22-7.62,4.95-9.93s.69-2.65,0-5.66-1.58-14.19-1.58-14.19.18-8.77-2.66-10.77S180.92,77.32,180.92,72V69.74c0-1.59,0-3.42.06-5.28.17-4.82.77-9.88,2.78-11.78,3.19-3,8.86-10.81,7.62-13.83s-1.95-4.07.18-8.15c1.51-2.92,3.13-4.93,4-5.45l.61.13c.19,1.06,3.2-8.68,5.5-7.62s1.64-1.78,8-5.5,3.52-5.67-.73-5S200.42,8.72,197.05,11s-2.52-3.9-7.37-.53-10.35,5.32-8.41,3.19-2.3-3.19-4.43-1.59-.63-1.24-3.86.17a4.83,4.83,0,0,1-5.28-.55c3.31-1.59,8.63-4,9.32-3,.89,1.24,2.66-3.72,5.5-1.06s4.07-.89,6.73.17,7.1-2.12,9.57-1,7.63-3.11,10.29-1.33,10.46.17,14.36.35S210,9.43,203.26,27.68,194,66.33,196,72.89s2.23,12.8-1.81,17.48l-.05,0a7.62,7.62,0,0,0-4.45,8.38c.86,6.38,2.32,7.45,1.39,11s-1.77,6.26,1.3,9h0a5.15,5.15,0,0,0,2.72.84,8.52,8.52,0,0,1,1.18.24s3.26,8.8,3.43,15-2.3,7.62-.89,11-1.77,3,.18,6.91,1.42,11.83,3.55,15-.35,5.17,2.84,7.3,4.88,15.13,16.13,21.45S217.62,197.16,207.33,196.63Z" style="fill:#1a67ff"/><path d="M214.07,203.19c-4.25-.71-9.93-2.48-9.93-1.07s-5.49.18-5.85.72-3.54-.67-3.9.72-7.27-.68-7.44,0-3.37-.05-4.26.5-4.25,0-5.31,0-3.73-1.58-5.32-1.05-16-4.79-19.32-7.44-5-6.74-4.26-3.2,1.06,4.43-1.06,3-9.76-9.57-10.46-8.16-.54,3.72-2.66,1.42c-1.62-1.76-7.38-8.79-11.12-12.57a27.25,27.25,0,0,0,5.62,1.58c1.24-.18,2.31,4.43,3.19,3.55s4.79,1.95,5.85,3,7.63,3.9,7.8,1.77,1.42-.17,3.37,1.42l.1.08.21.14c.59.36,1.74.92,3.23,1.6l.39.17c.9.41,1.91.84,3,1.3l1.15.49,2.1.87,1,.41,1.67.67,1,.39,1.58.61,1,.39.4.16h0l.1,0,.5.18.12.05,1.32.48.07,0,.83.3,1.66.57.38.13.4.13.3.09.85.26.19.05c.9.25,1.42.32,1.42.16,0-1.06,10.1,1.77,10.28.53s8.33,0,8.33-1.42,4.43-.17,14.71.36,25.44,6.32,14.19,0-12.94-19.32-16.13-21.45-.72-4.08-2.84-7.3-1.6-11.14-3.55-15,1.24-3.54-.18-6.91,1.07-4.79.89-11-3.43-15-3.43-15c4.14,1.14,8.57,5.59,8.57,10.93,0,5.85,0,17,2.84,19.86s1.95,3.19,1.95,6.38-1.78,3.54-.18,6.2,0,.71,1.42,4.44-.18,9,3.9,11.51.18,5.85,3.37,8.34,8.86,9.57,16.13,12.94S218.33,203.9,214.07,203.19Z" style="fill:#08ebff"/><path d="M232.15,91c1.77.53,10.64,2,10.28,3.19s-9.74-1.24-11.52-.71,3.9,2.31,8.69,3.73,5.32,4.43-1.6,2.66-11.34-1.6-8.33-.36S240,102.14,240,103.2s-10.11-.53-11.35.54,6,3.72,10.81,3.72,1.42,2.48-3.9,1.77-7.8.36-7.8.36,7.27,2.48,10.82,2.48-.18,1.77-3.9,1.77-7.27,0-7.1.71,7.63,2.66,11,3.19-1.78,3.55-7.27,1.42-7.27-.71-2.84,1.06,8.51,3,6,3.37-8.33-2.48-9.22-1.77,6.56,3.72,8.68,4.78-.7,1.42-5.31,0-5.5-.35-2.48,1.25,6.2,3,5,3.9-6.38-2.84-8-2.49,3.19,3.55,5.68,5,2.83,2.83-3.19,1.06-8-3.37-5-.35,6.38,5.32,5.5,6.55-5.85-4.6-8.51-5.49,2.3,3.18,4.79,5.67c2.13,2.13-2.29,2.18-9.55-5.63-.11-2.9.47-7.78,3.87-14.57,5.57-11.15,13.56-30.82-3.93-57.18,2.88-5.47,5.93-10.14,8.72-11.79,7.8-4.61,1.95-.35-2.66,8.51s6.91-7.27,8.33-9,5.14-2.66-.89,4.79-6.91,11.52-4.61,9.22,10.6-12.59,10.71-11-8.4,11.87-9.46,13.47,5.13-4.79,10.63-8.69-2.3,5.5-7.8,8.69-2.3,4.08,3,.36,14-6.57,5.67-1.42-8.86,8-6.56,7.27,9.4-5.66,11.34-4.88-5.13,5.76-9.57,6.65-1.06,2.83,4.79.88,12.54-.71,5.12,1.07-12.57,3.36-8.85,3.72,9.23.18,9.93,1.6S237.47,85.3,232,85.3s2.13,3,6.73,3.19,7.1,2.66.89,1.6S230.38,90.44,232.15,91Z" style="fill:#ffdd4e"/><path d="M212.8,64.29c-5.2,9.84-9.83,22.26-11.32,24.2-1.95,2.57-9.19,2.94-7.35,1.9a7.62,7.62,0,0,0-4.45,8.38c.86,6.38,2.32,7.45,1.39,11s-1.77,6.26,1.3,9c-.69-.68.68-1.45,3.62-1.45,4.43,0,3.72,2,13.12,14.18,1.32,1.72,2.57,3.2,3.75,4.47-.11-2.9.47-7.78,3.87-14.57C222.3,110.32,230.29,90.65,212.8,64.29Zm-3.86,51c-8.16,10.1-6.21,1.42-4.44-.71,0,0,3.72-10.1,2.48-20.39s1.46-17.72,6.41-14S217.11,105.15,208.94,115.26Z" style="fill:#ffd422"/><path d="M145.16,152.75c-4.57.63-7.67,3.74-11.66,4.59-5.32,1.13-14.89-3.79-16.23-12.56-1.22-8.06-11.63-6.25-21.35-10.23-3-7.37-7.5-20.77-7.21-35.89,0,0,.56-21.16,4.46-27.81a66.08,66.08,0,0,0,6.15-14.93c7.57,0,16.8,1.91,21.15-2.05,5.71-5.2,14-2.83,19.83-.72a52.1,52.1,0,0,0,.11,7.16c.24,2.7.46,5.06.61,7.23-12,.51-28.24-1.59-30.39,4.64-2.66,7.71-20.47,9-17,21.54,2.6,9.41,12.27,21.44,20.58,24.64,1.83,8.41,4.59,17.73,7.65,23.23,0,0,7.14,8.24,4.75-2.4-1.58-7-5-13-6.8-20.21a6.35,6.35,0,0,0,1.86-.74c4.69-2.77,9.25-5.89,14.52-7.41a39.4,39.4,0,0,0,2.3,11.61C140.55,127.67,143.35,142.2,145.16,152.75Z" style="fill:#9179b1"/><path d="M173.1,137.86c.38.78.76,1.6,1.09,2.48-3.19,1.95-5.06,5.35-6.65,8.69-2.4,5-8.25,6-15,4.61h0c-.14-11.78-7.54-31.22-8.22-40.38a26,26,0,0,1,0-3.31,26.85,26.85,0,0,1,7.31,1.62,23.77,23.77,0,0,0,6.11,1.27c-.16,2.78.94,5.82,1.07,8.15.18,3.23-1.24,11.47,2.13,12.89S163,131,163,131c-.07-2.21-1.17-13.8-1-18.13a34,34,0,0,0,13.92-3.48c.06.7.1,1.36.12,2C176.18,116.86,171.93,135.44,173.1,137.86Z" style="fill:#9179b1"/><path d="M86.61,188.83c-3.54-1.6-1.24.35,4.61,3.9s13.16,9.22,13,9.62-10-5.85-13.77-8,8.4,9.28,13.88,12.95l-6-3c-11.88-6-39.19-36.42-39.19-36.42,5.49.34,10.79-.33,16.85-.33a149.31,149.31,0,0,1,16.83,1.31,17,17,0,0,1,5.37,2.75c-4.34-.4-14.15-1.34-16.88-1.75-3.54-.53,1.89.89,9.19,2.66s13,5.14,4.11,3.19-15.43-4.78-17.73-4.43,21.1,7.44,23.4,10.1-16.85-3.9-25.7-8.68-.72,2.48,10.1,6.55,20.39,7.45,20.92,9.05S85.9,181.56,76.5,177.48,80,182,97.43,187.76s6.55,4.61-4.62,0-15.06-6.2-13.47-4.43,26,11.46,27.23,14.54S90.16,190.42,86.61,188.83Z" style="fill:#ffdd4e"/><path d="M120.47,215.6c-3.89-2.31-8.24-4.38-16.11-8.28-5.48-3.67-17.66-15.08-13.88-12.95s13.64,8.38,13.77,8-7.18-6.08-13-9.62-8.15-5.5-4.61-3.9,21.24,12.11,20,9S80.94,185.1,79.34,183.33s2.31-.17,13.47,4.43,22,5.75,4.62,0S67.11,173.4,76.5,177.48s29.61,12.41,29.08,10.82-10.11-5-20.92-9.05-19-11.34-10.1-6.55,28,11.34,25.7,8.68-25.7-9.75-23.4-10.1,8.87,2.48,17.73,4.43,3.19-1.42-4.11-3.19-12.73-3.19-9.19-2.66c2.73.41,12.54,1.35,16.88,1.75a13.88,13.88,0,0,1,4.93,8c.88,3.9,4.61,8,9.92,12.4s6.21,4.62-.35,1.6,3.9,6.39-1.42,3.38-1.77.88,3.19,5.13,3.2,2.49-3.9-.35,1.25,2.13,5.85,5.85,9.4,7.45,0,1.95-14.63-3.54-7.26-1.95a16.9,16.9,0,0,1,3.76,1.36C119.06,212,124.45,218,120.47,215.6Z" style="fill:#ffd422"/><path d="M187.82,118.09c-.73,2.31-2.82,5.68-4.95,9.93-2.05,4.1-1,10.49-.26,10.8a15.12,15.12,0,0,0-4.7.1c-.74-3.16-1.53-6.25-1.07-7.31.93-2.12,4.13-12.23,4.39-14.62.18-1.62-.49-6.67-1-10.56,4-3.79,5.2-9.19.78-16.13,0,0-.84-1.52-2.06-3.66h0c.82-4.4-.64-15.38-1.21-19.36,1.74,1.25,2.94,2.24,3.21,2.46V72c0,5.31-.18,13.47,2.66,15.46s2.66,10.77,2.66,10.77.88,11.17,1.58,14.19S188.54,115.79,187.82,118.09Z" style="fill:#9179b1"/><path d="M180.92,69.74c-.27-.22-1.47-1.21-3.21-2.46-.1-.73-.18-1.21-.2-1.4,0,0-.13-3.94-2.66-4.47-1.1-.23-1.62,1-1.69,2.83C169,61.7,164,59.43,160.62,60.31c-5.24,1.34-9.72-1.81-14.13-4.35,0-3.18,0-6.14,0-8.6C170.71,53.43,181,64.46,181,64.46,180.91,66.32,180.91,68.15,180.92,69.74Z" style="fill:#ffd422"/><path d="M195.55,25.25c-.86.52-2.48,2.53-4,5.45-2.13,4.08-1.42,5.14-.18,8.15S187,49.67,183.76,52.68c-2,1.9-2.61,7-2.78,11.78,0,0-10.27-11-34.45-17.1,0-3.5,0-6,0-6.56,0,0,.27-3.72-1.6-4.25-1.09-.31-2.82,3.73-3.85,9.58A143.26,143.26,0,0,0,113,43.46s-4.07-.71-13.57.69c-.74-1.06-1.34-.81-1.88.3h0c-1.7.28-3.55.62-5.56,1,3.1-8.42,20.48-9.48,23.14-13.74s28-4.43,39.36-8.77,5.67.26,9.39-1.86,10.11,3,13.18,1.95C179.8,22.14,192.57,24.65,195.55,25.25Z" style="fill:#ed9c0c"/><path d="M209.66,12.26c-6.36,3.72-5.69,6.56-8,5.5s-5.31,8.68-5.5,7.62c0-.3-.27-.33-.61-.13-3-.6-15.75-3.11-18.47-2.17C174,24.14,167.63,19,163.9,21.13s1.95-2.48-9.39,1.86-36.7,4.52-39.36,8.77S95.11,37.08,92,45.5c-9.25,1.94-21.86,5.5-38.44,12a3.48,3.48,0,0,1,1-3.37c2.66-2.3,6.56-3.19,8-6.74s1.77-4.6,5.14-5.49,7.8-2.49,9.4-5.15,3.19-4.6,6-4.43,8.51-2.65,13.47-4.07,6.38-3.9,9.21-3.2,12.42-1.77,14.72-2.83,5.85-3.55,10.1-2.3,9.05-3.19,12.24-2.66,8.33-2,10.28-2,10.28-1.42,12.41-2.49c.47-.23,1.25-.63,2.2-1.08a4.83,4.83,0,0,0,5.28.55c3.23-1.41,1.74,1.42,3.86-.17s6.39-.54,4.43,1.59,3.55.18,8.41-3.19,4,2.83,7.37.53,7.62-3,11.88-3.72S216,8.54,209.66,12.26Z" style="fill:#ffdd4e"/><path d="M208.94,115.26c-8.16,10.1-6.21,1.42-4.44-.71,0,0,3.72-10.1,2.48-20.39s1.46-17.72,6.41-14S217.11,105.15,208.94,115.26Z" style="fill:#ffdd4e"/><path d="M141.08,46.13a57.68,57.68,0,0,0-.78,7c-5.87-2.11-14.12-4.48-19.83.72-4.35,4-13.58,2-21.15,2.05,1.32-4.87,1.74-9.44.13-11.77,9.5-1.4,13.57-.69,13.57-.69A143.26,143.26,0,0,1,141.08,46.13Z" style="fill:#ffd422"/><path d="M30.59,111.77c0,2.55-2.34,4.62-5.23,4.62s-5.23-2.07-5.23-4.62a4.64,4.64,0,0,1,3.07-4.21h0a5.89,5.89,0,0,1,2.16-.41,5.56,5.56,0,0,1,3.44,1.15A4.36,4.36,0,0,1,30.59,111.77Z" style="fill:#2b2b2b"/><path d="M36.31,111.56a8.21,8.21,0,0,1-.32,2.28s-1.77-1.33-2,0A3.78,3.78,0,0,1,31,117.3a21.23,21.23,0,0,1-6.46.88c-1.51,0-2.84-.44-3.29,0s-3.24-1.74-4-1a8.67,8.67,0,0,1-2.08-5.61,8.42,8.42,0,0,1,.61-3.16h0a9.54,9.54,0,0,1,3.49-4.28s2.44.77,1.46,1.48-2.57,1.51-2.3,3.63l.27,2.13s1.86-3.43,2.56-3.62a9.41,9.41,0,0,1,1.92-.18,4.64,4.64,0,0,0-3.07,4.21c0,2.55,2.35,4.62,5.23,4.62s5.23-2.07,5.23-4.62a4.36,4.36,0,0,0-1.79-3.47c.61-1.65,2.23-.22,2.68.75s1,1.25.71-1.31-1.07-2.59-3-3.62S28,102.37,28,102.37a10.7,10.7,0,0,1,6.28,3.69A8.68,8.68,0,0,1,36.31,111.56Z" style="fill:#ed9c0c"/><path d="M36,113.84c-1.13,4.1-5.29,7.14-10.24,7.14a11.35,11.35,0,0,1-6.46-2,9.51,9.51,0,0,1-1-.77,8.74,8.74,0,0,1-1-1.07c.77-.73,3.57,1.46,4,1s1.78,0,3.29,0A21.23,21.23,0,0,0,31,117.3,3.78,3.78,0,0,0,34,113.84C34.22,112.51,36,113.84,36,113.84Z" style="fill:#934947"/><path d="M31.48,109.05c-.45-1-2.07-2.4-2.68-.75a5.56,5.56,0,0,0-3.44-1.15,5.89,5.89,0,0,0-2.16.41h0a9.41,9.41,0,0,0-1.92.18c-.7.19-2.56,3.62-2.56,3.62l-.27-2.13c-.27-2.12,1.33-2.92,2.3-3.63s-1.46-1.48-1.46-1.48a11.28,11.28,0,0,1,6.46-2,11.45,11.45,0,0,1,2.28.22s-.81.71,1.14,1.75,2.75,1.06,3,3.62S31.92,110,31.48,109.05Z" style="fill:#934947"/><path d="M36,84.47c-2.21,1.83-2.38,5.17-1.68,7.66s-.53,7.35-3.19,5.85-7.38,0-7.38,0c-3.3.09-.42-6.56,2.89-9s4.76-3.54,5.63-7.44,5.6-8,6.13-5.68S38.21,82.64,36,84.47Z" style="fill:#1a67ff"/><path d="M28.35,100.86c-3.16-1.29-7.54.17-7.54.17-1,.27-2.36-.24,1.47-1.63s7.42-.63,9,.93S31.52,102.14,28.35,100.86Z" style="fill:#1a67ff"/><path d="M58.42,146c-6.09-.43-14.75-2.08-10.1-7.69,6-7.26,15.42-11.94,9.22-26.53-.55-1.3-2.19-4.78.06-5.22,2.07-.4,5.11,3.42,6.19,4.69a30.3,30.3,0,0,1,5.92,10.69C72.37,130.67,70.41,146.85,58.42,146Z" style="fill:#ffdd4e"/><path d="M175,79.89c-1-1.77-2.09-3.45-2.94-4.75-3.2-4.82-12.24-11.47-23.41-8.54-.66.17-1.36.31-2.1.43-.06-3.67-.08-7.51-.07-11.07,4.41,2.54,8.89,5.69,14.13,4.35,3.4-.88,8.36,1.39,12.54,3.93a19.47,19.47,0,0,0,1.69,8.07C175.62,74,175.47,76.81,175,79.89Z" style="fill:#9179b1"/><path d="M138.47,90.3a62.09,62.09,0,0,0-2.3,20.52h0c-5.27,1.52-9.83,4.64-14.52,7.41a6.35,6.35,0,0,1-1.86.74,37.72,37.72,0,0,1-1.15-12.46c1-13.6-.5-20,0-23.44s1-7.71-3.22-6.38.8,4,0,10-4,17.09-2.25,26.55c.3,1.63.64,3.35,1,5.11-8.31-3.2-18-15.23-20.58-24.64-3.45-12.5,14.36-13.83,17-21.54C112.78,66,129,68.05,141,67.54,141.55,75.11,141.3,80.4,138.47,90.3Z" style="fill:#1a67ff"/><path d="M175.93,109.42h0A34,34,0,0,1,162,112.91a7.43,7.43,0,0,1,.11-1.14c.51-2.78,2-5.38,0-8s.19-6.05,0-9.6,1.6-5.67,3.85-7.35-2.42-4.88-5.52-2.34-2.58,9.87-2.77,13.79,3,8.13.93,11.49a6.47,6.47,0,0,0-.92,3.08,23.77,23.77,0,0,1-6.11-1.27,26.85,26.85,0,0,0-7.31-1.62c.42-8.71,4.23-19.48,3.06-28.19A146.93,146.93,0,0,1,146.56,67c.74-.12,1.44-.26,2.1-.43,11.17-2.93,20.21,3.72,23.41,8.54.85,1.3,1.89,3,2.94,4.75-.71,4.88-2.17,10.35-1.86,12.63C173.59,95.83,175.43,103.85,175.93,109.42Z" style="fill:#1a67ff"/><path d="M180.2,106.43c-.26-1.85-.48-3.44-.56-4.28-.27-2.58-2.4-10.42-.94-14.68a5,5,0,0,0,.22-.83c1.22,2.14,2.06,3.66,2.06,3.66C185.4,97.24,184.16,102.64,180.2,106.43Z" style="fill:#1a67ff"/><path d="M152.52,153.63h0c.14,11.78-4.66,16.4-6,7.62-.32-2.13-.8-5.11-1.38-8.51-1.81-10.55-4.61-25.08-6.69-30.31a39.4,39.4,0,0,1-2.3-11.61h0a62.09,62.09,0,0,1,2.3-20.52c2.83-9.9,3.08-15.19,2.55-22.76-.15-2.17-.37-4.53-.61-7.23a52.1,52.1,0,0,1-.11-7.16,57.68,57.68,0,0,1,.78-7c1-5.85,2.76-9.89,3.85-9.58,1.87.53,1.6,4.25,1.6,4.25,0,.59,0,3.06,0,6.56,0,2.46,0,5.42,0,8.6,0,3.56,0,7.4.07,11.07a146.93,146.93,0,0,0,.77,14.72c1.17,8.71-2.64,19.48-3.06,28.19a26,26,0,0,0,0,3.31C145,122.41,152.38,141.85,152.52,153.63Z" style="fill:#08ebff"/><path d="M103.45,155.94c-4-4.66-9.19-14.53-13.38-24.79s-7.36-20.81-7.36-27c0-12.47,2.66-29.81,7.77-35.66,2-2.29,3.28-7.26,4.3-12.16s1.81-9.83,2.79-11.85h0c.54-1.11,1.14-1.36,1.88-.3,1.61,2.33,1.19,6.9-.13,11.77a66.08,66.08,0,0,1-6.15,14.93c-3.9,6.65-4.46,27.81-4.46,27.81-.29,15.12,4.2,28.52,7.21,35.89.83,2,1.55,3.62,2,4.64,2.17,4.71,14.29,20.21,15.08,23.14S111.43,165.25,103.45,155.94Z" style="fill:#08ebff"/><path d="M121.84,141.59c-3.06-5.5-5.82-14.82-7.65-23.23-.38-1.76-.72-3.48-1-5.11-1.71-9.46,1.45-20.59,2.25-26.55s-4.26-8.67,0-10,3.72,2.93,3.22,6.38,1,9.84,0,23.44A37.72,37.72,0,0,0,119.79,119c1.84,7.18,5.22,13.22,6.8,20.21C129,149.83,121.84,141.59,121.84,141.59Z" style="fill:#08ebff"/><path d="M176.84,131.61c-.46,1.06.33,4.15,1.07,7.31s1.46,6.45.79,7.72c-1.32,2.52-3.72,3.59-3.49,0a14.94,14.94,0,0,0-1-6.3c-.33-.88-.71-1.7-1.09-2.48-1.17-2.42,3.08-21,3-26.46,0-.61-.06-1.27-.12-2h0c-.5-5.57-2.34-13.59-2.78-16.9-.31-2.28,1.15-7.75,1.86-12.63.46-3.08.61-5.93-.16-7.58a19.47,19.47,0,0,1-1.69-8.07c.07-1.82.59-3.06,1.69-2.83,2.53.53,2.66,4.47,2.66,4.47,0,.19.1.67.2,1.4.57,4,2,15,1.21,19.36h0a5,5,0,0,1-.22.83c-1.46,4.26.67,12.1.94,14.68.08.84.3,2.43.56,4.28.54,3.89,1.21,8.94,1,10.56C181,119.38,177.77,129.49,176.84,131.61Z" style="fill:#08ebff"/><path d="M166,86.81c-2.25,1.68-4.05,3.81-3.85,7.35s-2,7,0,9.6.51,5.23,0,8a7.43,7.43,0,0,0-.11,1.14c-.16,4.33.94,15.92,1,18.13,0,0,1.24,4.25-2.13,2.83s-1.95-9.66-2.13-12.89c-.13-2.33-1.23-5.37-1.07-8.15a6.47,6.47,0,0,1,.92-3.08c2.1-3.36-1.13-7.57-.93-11.49s-.32-11.26,2.77-13.79S168.21,85.12,166,86.81Z" style="fill:#08ebff"/><path d="M27.62,113.94a2.8,2.8,0,1,1,2.8,2.8A2.8,2.8,0,0,1,27.62,113.94Z" style="fill:#e6dfd9"/></g></g></svg>