<svg xmlns="http://www.w3.org/2000/svg" viewBox="0 0 212.93 200.69"><title>red-phantom-tetra</title><g id="Layer_2" data-name="Layer 2"><g id="Ñëîé_2" data-name="Ñëîé 2"><path d="M193.05,115.19c-1.07-4.53,3.6,6.27,9.34,8.54s1.46-4-2.67-7.07-6.13-4.94-8-8.54,4,3.07,7.87,4.41-1.87-2.81-7.07-7.75-3.2-5.6,2.53-1.46,2.4-1.07-2.4-5.47-5.6-5.87.27-3.6.53-4.13-2.54-5.6-5.73-2.4.14-2.8,4.67-2.54-.54-3.61-5.33-2.53,3.21-2.67,2.93-3.73-3.07-3.46-4.81-1.34,1.6-2.54,6.67-4.8.4-3.2-5.87.54.26-3.25,6.54-8.62,2.41-4.89-10.28,7.34-5.21,2.67,9.47-15.47,6.67-11.87-11.47,15.88-7.73,7.34C191.6,53.3,201.1,44,204.27,41.06h0c0-3.22-.85-5.69-3.75-4.44-6,2.6-21,25-24.41,34.82a19,19,0,0,1-6.73,9.08A10.32,10.32,0,0,1,174.51,90c-.15,5.19-1.59,8.37-2.91,10.21,5,2.47,12.84,10.46,19.52,20.47a29.62,29.62,0,0,0,14.21,11.51C198,126.78,193.87,118.67,193.05,115.19ZM177.71,92a16.36,16.36,0,0,0-.26-6.39c-.49-1.77-2.17-2.83-2.83-4.5a2.87,2.87,0,0,1-.23-.94c-.13-1.65,1.17-3,2.16-4.28A60.16,60.16,0,0,0,181,69.54c2.9-5,3.8,2,2.1,7.8s1.8,15.61,1.8,22.11S176.21,100.65,177.71,92Z" style="fill:#f75d21"/><path d="M21,111.94a1.93,1.93,0,0,0,.36-.28A2.14,2.14,0,0,0,21,111.94Z" style="fill:#f9761e"/><path d="M98.93,141.88a135.55,135.55,0,0,1-15.23,4,119,119,0,0,1-12,1.84l-1.44-.14c-20.4-2-35-6-45.43-10.59,3.56-.07,8.61-.68,11.92-3.21,5.61-4.27,6.67-.35,15.74,3.23s29.35,8.24,37.35,4.78S98.93,141.88,98.93,141.88Z" style="fill:#e06817"/><path d="M169.38,80.52c-3.93,2.92-8.3,4-10.48,3.73,0,0-20.68-2.46-41.09-5.76-8.13-1.32-16.21-2.77-22.94-4.25a97.33,97.33,0,0,0-17.45-2.4c-16.11-.57-31.07,4.37-49.78,19.21,0,0-3.8,1.8-9.8,4.6S1.83,108.86.23,111.26c-.38.57-.39,2.58.74,5.38H1c1.32,3.24,4.15,7.57,9.69,12A63.9,63.9,0,0,0,24.79,137c3.56-.08,8.61-.69,11.92-3.21,5.61-4.27,6.67-.36,15.74,3.22s29.35,8.25,37.35,4.78,9.13.14,9.13.14l1.22-.4c10.19-3.43,21.09-8.68,28.94-16.62,9.75-9.85,18.54-16,25.41-19.81s11.71-5.2,13.81-5.6a5.67,5.67,0,0,1,3.29.74c1.32-1.84,2.76-5,2.91-10.21A10.32,10.32,0,0,0,169.38,80.52ZM19.44,115.79a6.19,6.19,0,1,1,2.28-.43A6.2,6.2,0,0,1,19.44,115.79Zm14.34,14.48c-17.07,9.2-12.48,2.51-7.07-.94,0,0,14.67-6.8,11.61-17.74s0-13.7,2.53-7.32S50.85,121.06,33.78,130.27ZM163.17,96.78c-5.62.2-10.83,2.48-15.89,5-6.29,3.16-12.75,6-19.18,8.86-6.08,2.7-12,6-18.3,8.12-16.4,5.53-35,5-51.77,1.13-6.47-1.48-12.34-5.64-14.9-11.91C41.24,103.37,41.3,97.47,45,93.72c6.81-6.94,34.42-9.61,50.16-7.11s43.62,5.24,55.89,2.84,16.28-4.27,17.61-1.33S170.64,96.52,163.17,96.78Z" style="fill:#f9761e"/><path d="M124.53,74.39c4.89-13.12.9-11.15-2.64-4.44-3.67,6.94-11.34,4.67-9.61,3.2s1.4-4.8,2.93-9.8-3.46,4.8-7.08,7.87-3.65-.6-1.12-7,.74-4-5.2,3.27-4.07-.47-2.08-5.21-.79-1.8-5.26,3.94-4.67-.33-2.07-5.87-1-2.67-3.53,2.73-3.07,1.67-2.8-3.33-1.07-3.14-2.13,2.4-1.27,0-1.8-4.54-.81-3-1.27,3.47a42.92,42.92,0,0,0,0,6.67c0,.26,0,.52.07.77-.21.59-.57,1.07-1.17.83-1.33-.51-1.87-5.47-3.2-10.34a3.71,3.71,0,0,0-.39-1c-.29-8.59.33-19,4.26-24.42,7.4-10.2,26.21-30.41,35.21-33l.07,0c-8.08,6.7-26.41,23.11-28.48,35.7C84.6,52.5,90.13,27.82,103,17.82S93.27,26.49,89.67,43s8-15.74,21.61-22.74S100.08,26,96.74,46.1,101,36.36,113,29.42s-8.4,6.54-8.93,18.68,2.8-5.34,12.13-11.81-3.73,2.87-5.46,19.28,5.2-9.47,11.47-15.48-5.65,7.47-3.07,21.88c2.32,12.92.8-3.89,8.75-15.38.35,2.66.82,5.54,1.32,8.64C130.66,64,130.3,69.64,124.53,74.39Z" style="fill:#414142"/><path d="M128.52,29.62c-1.62,3.87-1.6,8.89-.85,15.18.07.58.15,1.18.23,1.79-8,11.49-6.43,28.3-8.75,15.38-2.58-14.41,9.34-27.88,3.07-21.88S109,72,110.75,55.57s14.8-25.75,5.46-19.28-12.67,24-12.13,11.81S125,22.49,113,29.42,93.4,66.24,96.74,46.1s28.15-32.82,14.54-25.81S86.07,59.57,89.67,43,116,7.81,103,17.82,84.6,52.5,87.27,36.29c2.07-12.59,20.4-29,28.48-35.7,4-1.13,5.45-.51,5.92.78.61,1.62-.41,4.28-.19,5.84.41,2.8-.2,6,2.81,4.6,2.61-1.21,2.34,5.43,1.57,7.19-.43.21-.65.42-.37.42s.26-.16.37-.42c1.12-.56,3.68-1.12,2.23,2.22C126.09,25.82,131,23.82,128.52,29.62Z" style="fill:#f9761e"/><path d="M159.5,112.06c-5.8.2-.8,2.4,2,2.6s2.64,2.4-4.68,2.8-6.72,2.2-1.32,3.4-1.4,5-7.8,3-7.61,1,0,2.6,0,4.21-6.61,2-4.8-1-1.4,2.41.86,6.6-4.77,3-2.83-1.2-.83,4.2-.33,17.73-3.07,7.76-5.33-12.76-3.73,1.84-2.8,10.27-4.2,1.94-2.81-14.14-3.81-1.94-.6,21.41-3.4,13.41.4-21.09-3-15.25-1.6,20.66-4.8,18.25-2-9.8-1.62-14c.35-3.46-2.92-2-5.18,11.11,1.92,11.66,6.66,25.84,18,34.71,22,17.21,14-16.8,19.21-25.21s2.4-9.2,4.4-11.6-4.4-6,0-7.2,5.61-8.81,13-17.61,13-14.61,13.61-21.61c.08-.93.17-1.77.23-2.52A44.77,44.77,0,0,1,159.5,112.06Zm-23.32,49.61a38.34,38.34,0,0,1-1.07,4.6c-.83,3.95-1.91,7.84-3,11.72-4.6,16.1-7.4,18.41-15.11,10s-7.6-14.41-1.3-14.81,15.81-11.3,15.81-11.3c.74-.82,2.76-4.64,4.18-2.83A4.15,4.15,0,0,1,136.18,161.67Z" style="fill:#414142"/><path d="M161.5,114.66c2.8.2,2.64,2.4-4.68,2.8s-6.72,2.2-1.32,3.4-1.4,5-7.8,3-7.61,1,0,2.6,0,4.21-6.61,2-4.8-1-1.4,2.4.86,6.6-4.77,3-2.83-1.2-.83,4.2-.33,17.73-3.07,7.76-5.33-12.76-3.73,1.84-2.8,10.27-4.2,1.94-2.81-14.14-3.81-1.94-.6,21.41-3.4,13.41.4-21.09-3-15.25-1.6,20.66-4.8,18.25-2-9.8-1.62-14c.35-3.47-2.92-2-5.18,11.1a91,91,0,0,1-1.13-19.7c1.13-.38,2.28-.79,3.43-1.22h0c9.15-3.42,18.53-8.35,25.51-15.4,9.75-9.85,18.54-16,25.41-19.81,10.34-.61,13.87-.25,14.92,1.69a6.17,6.17,0,0,1,.32,3.41,45.34,45.34,0,0,1-10.24,1.91C153.7,112.26,158.7,114.46,161.5,114.66Z" style="fill:#f75d21"/><path d="M90.87,151.47c-.15.77-.36,2.29-.58,3.91-1.78-.53-5.12-1.8-6.62-4.31-2.1-3.5,1,3.81,3.1,6.51s-1.8,3.2-3.8-1.5-1.9-.5.8,5.7,1.9,9.1-.5,2.9-5-12.29-3.8-5.55,7.1,16.56,4.1,13.35-7-13.8-6.71-10.2,6.31,12.61,4.91,12.81-3.84-5.51-4.92-7.61c-.77-1.48-.59,2.89,1.52,9.31-6.55-12-8.15-29.26-8.15-29.26l1.44.14a119,119,0,0,0,12-1.84C84.53,150.59,91.27,149.47,90.87,151.47Z" style="fill:#f75d21"/><path d="M212.93,132.07c.1,1.39-3.21,1.69-7.59.1h0c-7.35-5.39-11.46-13.5-12.28-17-1.07-4.53,3.6,6.27,9.34,8.54s1.46-4-2.67-7.07-6.13-4.94-8-8.54,4,3.07,7.87,4.41-1.87-2.81-7.07-7.75-3.2-5.6,2.53-1.46,2.4-1.07-2.4-5.47-5.6-5.87.27-3.6.53-4.13-2.54-5.6-5.73-2.4.14-2.8,4.67-2.54-.54-3.61-5.33-2.53,3.21-2.67,2.93-3.73-3.07-3.46-4.81-1.34,1.6-2.54,6.67-4.8.4-3.2-5.87.54.26-3.25,6.54-8.62,2.41-4.89-10.28,7.34-5.21,2.67,9.47-15.47,6.67-11.87-11.47,15.88-7.73,7.34C191.6,53.3,201.1,44,204.27,41.06a24.22,24.22,0,0,1-2,9.17c-1.6,2.8,2,3.8.8,5.8s-1.6,3.6-.8,7.41-3,19.2-6,24.41,5.2,16.8,7.4,18.8,0,4.21,1.4,5.21,1.4,2.4.8,7S212.73,129.26,212.93,132.07Z" style="fill:#414142"/><path d="M136.18,161.67a38.34,38.34,0,0,1-1.07,4.6c-.83,3.95-1.91,7.84-3,11.72-4.6,16.1-7.4,18.41-15.11,10s-7.6-14.41-1.3-14.81,15.81-11.3,15.81-11.3c.74-.82,2.76-4.64,4.18-2.83A4.15,4.15,0,0,1,136.18,161.67Z" style="fill:#4b4b4c"/><path d="M88.07,166.54c1.6-1.06,1.15-4.66,1.37-5.26.14-.37.5-3.27.85-5.9-1.78-.53-5.12-1.8-6.62-4.31-2.1-3.5,1,3.81,3.1,6.51s-1.8,3.2-3.8-1.5-1.9-.5.8,5.7,1.9,9.1-.5,2.9-5-12.29-3.8-5.55,7.1,16.56,4.1,13.35-7-13.8-6.71-10.2,6.31,12.61,4.91,12.81-3.84-5.51-4.92-7.61c-.77-1.48-.59,2.89,1.52,9.31a27.94,27.94,0,0,0,5.5,7.3s5.4,4.8,5.2-3-1.59-9,0-10.41S86.47,167.6,88.07,166.54ZM84.9,183c-2.56-.94-4.1-4.6-2.43-5.61s1.6-3.06,3-3.13,1.87,4.07,1.87,4.07C88.06,181.25,87.47,183.89,84.9,183Z" style="fill:#414142"/><path d="M84.9,183c-2.56-.94-4.1-4.6-2.43-5.61s1.6-3.06,3-3.13,1.87,4.07,1.87,4.07C88.06,181.25,87.47,183.89,84.9,183Z" style="fill:#4b4b4c"/><path d="M184.91,99.45c0,6.5-8.7,1.2-7.2-7.47a16.36,16.36,0,0,0-.26-6.39c-.49-1.77-2.17-2.83-2.83-4.5a2.87,2.87,0,0,1-.23-.94c-.13-1.65,1.17-3,2.16-4.28A60.16,60.16,0,0,0,181,69.54c2.9-5,3.8,2,2.1,7.8S184.91,93,184.91,99.45Z" style="fill:#ff8a29"/><path d="M163.17,96.78c-5.62.2-10.83,2.48-15.89,5-6.29,3.16-12.75,6-19.18,8.86-6.08,2.7-12,6-18.3,8.12-16.4,5.53-35,5-51.77,1.12-6.47-1.48-12.34-5.63-14.9-11.9C41.24,103.37,41.3,97.47,45,93.72c6.81-6.94,34.42-9.61,50.16-7.11s43.62,5.24,55.89,2.84,16.28-4.27,17.61-1.34S170.64,96.52,163.17,96.78Z" style="fill:#ff8a29"/><path d="M33.78,130.27c-17.07,9.2-12.48,2.5-7.07-.94,0,0,14.67-6.8,11.61-17.74s0-13.7,2.53-7.32S50.85,121.06,33.78,130.27Z" style="fill:#e06817"/><path d="M21.32,111.66a1.93,1.93,0,0,1-.36.28A2.14,2.14,0,0,1,21.32,111.66Z" style="fill:#f9761e"/><path d="M22.24,109.59a2.77,2.77,0,0,1-.92,2.07h0a2.14,2.14,0,0,0-.36.28,2.74,2.74,0,0,1-1.52.45,2.8,2.8,0,0,1-1.17-5.34h0a2.85,2.85,0,0,1,1.17-.25A2.8,2.8,0,0,1,22,108.47,2.77,2.77,0,0,1,22.24,109.59Z" style="fill:#2b2b2b"/><path d="M21,111.94a1.93,1.93,0,0,0,.36-.28A2.14,2.14,0,0,0,21,111.94Z" style="fill:#f9761e"/><path d="M18.27,114.06c-.09.44-.68.92-1.19,1.27a6.21,6.21,0,0,1-1.16-10.85,1.19,1.19,0,0,0,.52.3c1.53.47,1.86.59,1.83,2.26h0a2.78,2.78,0,0,0-1.63,2.54A1.49,1.49,0,0,0,17,112,1.89,1.89,0,0,1,18.27,114.06Z" style="fill:#eae3dd"/><path d="M21.72,115.36a6.27,6.27,0,0,1-4.64,0c.51-.35,1.1-.83,1.19-1.27A1.89,1.89,0,0,0,17,112a1.49,1.49,0,0,1-.31-2.4,2.8,2.8,0,0,0,2.8,2.8,2.74,2.74,0,0,0,1.52-.45c-.64.66-.28,1.56-.05,2.32A3.09,3.09,0,0,0,21.72,115.36Z" style="fill:#414142"/><path d="M25.64,109.59a6.2,6.2,0,0,1-3.92,5.77,3.09,3.09,0,0,1-.81-1.1c-.23-.76-.59-1.66.05-2.32a1.93,1.93,0,0,0,.36-.28h0a2.81,2.81,0,0,0,.69-3.19c-.22-.79.5-1.22,2-1.42a1.79,1.79,0,0,0,.92-.42A6.17,6.17,0,0,1,25.64,109.59Z" style="fill:#eae3dd"/><path d="M24.89,106.63a1.79,1.79,0,0,1-.92.42c-1.46.2-2.18.63-2,1.42a2.8,2.8,0,0,0-2.57-1.68,2.85,2.85,0,0,0-1.17.25c0-1.67-.3-1.79-1.83-2.26a1.19,1.19,0,0,1-.52-.3,6.21,6.21,0,0,1,9,2.15Z" style="fill:#414142"/><path d="M20.6,108.47a1.53,1.53,0,0,1,3,0,1.53,1.53,0,1,1-3,0Z" style="fill:#eae3dd"/><path d="M114,93.85c-6.52-1.35-13.46-2.14-15.17-2.38-.83-.11-1.65-.23-2.48-.32-5.94-.64-12.51-.89-18.15,1.41-12.41,5.07-2.54,16.69,18.41,14.82s29.08-4.36,30-7.19S121,95.31,114,93.85Z" style="fill:#ff9536"/><path d="M10.66,128.64c-5.54-4.42-8.37-8.75-9.69-12H1c.43-.33,1.41-.56,3.33,1.27,2.8,2.66,5.6,6.93,7.74,7.33C13.52,125.52,12.49,127.28,10.66,128.64Z" style="fill:#e06817"/><path d="M128.52,29.62c-1.62,3.87-1.6,8.89-.85,15.18-.54.51-1.13,1-1.78,1.54-4.41,3.54-2.4-1.13-.8-6.39s-1.07-4.21-5-1.14-.53-.6,1.47-4.42,3.2-6.46-1.87-2.86-8.07,3.81-4.4.54S126.16,18,120.62,20.4s-11.34,7.33-10.27,5.53,7.47-8.27,10.07-10.6-2-1.84-2-1.84c-10.8,6.11-5.6,1.6-3.7-.77s6.78-6.22,1.9-4.33-9.62,6.62-7,3c1.78-2.46,8.19-7.23,12.09-10,.61,1.62-.41,4.28-.19,5.84.41,2.8-.2,6,2.81,4.6,2.61-1.21,2.34,5.43,1.57,7.19,1.12-.56,3.68-1.12,2.23,2.22C126.09,25.82,131,23.82,128.52,29.62Z" style="fill:#ff9536"/><path d="M124.53,74.39a32,32,0,0,1-6.72,4.1c-8.13-1.32-16.21-2.77-22.94-4.25a97.33,97.33,0,0,0-17.45-2.4A127.6,127.6,0,0,1,76.21,58a3.71,3.71,0,0,1,.39,1c1.33,4.87,1.87,9.83,3.2,10.34.6.24,1-.24,1.17-.83,0-.25,0-.51-.07-.77a42.92,42.92,0,0,1,0-6.67c.46-6.47.73-8,1.27-3.47s.73,10.08,1.8,4.54,2.4-7.41,2.13-2.4.27,8.74,2.8,3.33S95,54.81,92.4,60.35,90,72,94.47,66.22s7.24-8.67,5.26-3.94-3.86,12.47,2.08,5.21,7.74-9.68,5.2-3.27-2.5,10.07,1.12,7,8.62-12.87,7.08-7.87-1.2,8.34-2.93,9.8,5.94,3.74,9.61-3.2C125.43,63.24,129.42,61.27,124.53,74.39Z" style="fill:#4b4b4c"/><path d="M152.5,112.24c3.4.6,3.1,2-3.7,2.8s-9,2.9-4.6,3.5,2.9,3.1-1.61,2.9-8.1-.2-1.8,2.6-1.6,2.41-4.59,1.1-4.71.4-2.61,3.21,1.3,3-1.3,2.2-4.1-1.7-2.7,1.63.8,4.77-1.1,1.87-2.3-4.5-2.8,1.5-1.1,6.7-2.7,1.3-3.51-2.3-4.41,3.5-2.5,5.4-3,.9-1.7-5.3-4.51,1.71-3.79,7.8-2.89,2.87.2-5.88-2.9-1.52-3.2,6.65-3.3,4,1.54-7.91,1.6-8.09h0c9.15-3.42,18.53-8.35,25.51-15.4,9.75-9.85,18.54-16,25.41-19.81,10.34-.61,13.87-.25,14.92,1.69-1.59.74-4.87.81-11.42.84C149.4,107.62,149.1,111.64,152.5,112.24Z" style="fill:#ef7320"/><path d="M66.37,95c-3.32-1.32-8-1.4-9.55,1.37-1.74,3.11-7.93,6.42-4.84,11A44.42,44.42,0,0,1,58,119.9c1.88,5.44,13.6,4.81,12.19,0s-1.44-6.09.12-10.86c1.23-3.77,1.63-8.89-1.07-12.17A7.37,7.37,0,0,0,66.37,95Z" style="fill:#414142"/></g></g></svg>