<svg xmlns="http://www.w3.org/2000/svg" viewBox="0 0 295.98 171.12"><title>red-tailed-black-shark</title><g id="Layer_2" data-name="Layer 2"><g id="Ñëîé_2" data-name="Ñëîé 2"><path d="M295,66.5c-1.49.75.26,2-.49,3.23S295.7,74,294.21,75s.74,1.74-1.24,4.73-3.24,13.51-6,15.7-6.21,4.18-9.94,6.67-4.72,8,.5,14.66,4,7.21,4,9.2,3.73,2.24,3.73,4.22,2,2.5,1.74,6,.5,2.49,1.5,7.21,6.21,11.19,4.22,13.43c-.81.91-4.92-2-10.06-6.25-21.56-33.6-49.42-36.82-33.26-33.09,17,3.91,39.72,32.81,33,18.83s-41.57-25.54-32.25-24.8,31.13,19.2,26.66,12.93-35-20.91-26.66-18.15,26.44,9.17,17.34,3.73-23.87-8-10.44-5.78,19.07-1.37,5.4-2.13-19.76-5.14-7.64-4.39,24.42-2.43,13.42-1.68-24.4-2.27-19.2-2.27,15.66-1.27,15.66-1.27c25.54-5.78,22-10.63,11.19-6.6S244.93,91.11,245,89.43s6.43-2.05,6.43-2.05C288.93,85.7,298.25,64.45,285.39,74A57.35,57.35,0,0,1,258,84.4c19.37-3.54,32.31-17.37,37.43-23.84C296.24,63.19,296.24,65.86,295,66.5Z" style="fill:#cd1f11"/><path d="M251.46,87.38s-6.33.37-6.43,2.05,20,.42,30.85-3.61,14.35.82-11.19,6.6c0,0-10.45,1.27-15.66,1.27s8.2,3,19.2,2.27-1.3,2.42-13.42,1.68-6,3.63,7.64,4.39,8,4.37-5.4,2.13,1.34.35,10.44,5.78-9-1-17.34-3.73,22.19,11.88,26.66,18.15-17.34-12.18-26.66-12.93,25.54,10.83,32.25,24.8-16-14.92-33-18.83c-16.16-3.73,11.7-.51,33.26,33.09-7.48-6.22-17.15-15.39-22-20.1a51.47,51.47,0,0,0-20-12.13c-.51-2.47-.36-4,.15-5.17a7.7,7.7,0,0,1,2.71-2.84c2.24-1.74.25-3.73-.49-6.71s.24-4,1.73-6.22c.67-1,.11-2.27-.91-3.63-1.29-1.71-3.31-3.54-4.55-5.06A8.29,8.29,0,0,1,237.7,84c19.3-.55,29.74-5.92,38.12-11.81C287.5,64,293.72,56.31,295,59.29a12.07,12.07,0,0,1,.46,1.27C290.29,67,277.35,80.86,258,84.4A57.35,57.35,0,0,0,285.39,74C298.25,64.45,288.93,85.7,251.46,87.38Z" style="fill:#af1a08"/><path d="M243.5,110.25a7.7,7.7,0,0,0-2.71,2.84s-27.37-3.8-58.5,7.62-46.78,13.67-66.9,15.52h0a301.67,301.67,0,0,1-34.07-2.37h0c-3.6-2.17-7.63-4.66-11.08-6.8,55.14,10.2,103.14-12.09,120.62-19.29S243,103.54,243,103.54C243.75,106.52,245.74,108.51,243.5,110.25Z" style="fill:#4c5083"/><path d="M244.74,97.32c-1.49,2.24-2.48,3.24-1.73,6.22,0,0-34.72-3-52.19,4.23S125.34,137.26,70.2,127.06h0l-6.65-4.17c1.72-8.17-1.59-16.24-5.88-22.45a42.31,42.31,0,0,0-9.61-10.08c-4.3-3-5.32-6.3-5.55-8,1.21-.91,2.35-1.87,3.63-2.93A45,45,0,0,1,52.7,75c-2.17,13.42,7.38,20,28,22.78,21.87,3,75.32.75,94.21-4.13s68.94,0,68.94,0C244.85,95.05,245.41,96.33,244.74,97.32Z" style="fill:#56568b"/><path d="M57.66,100.44c-4.45-.25-6.8,1.68-9.14,6.58-2.52,5.28-7,2.36-7.45-.62s-4.06-4.73-4.29-4.84h0a7.47,7.47,0,0,0-3.12-2.39,6.92,6.92,0,0,0-2.11-.5,5.3,5.3,0,0,0-.95,0,3.69,3.69,0,0,0-.54.05c-.16,0-.33,0-.48.06a7.48,7.48,0,0,0-3.28,1.46,7.77,7.77,0,0,0-1.91,2.23l-.05.07a24.1,24.1,0,0,1-3.22,3.24c-2.95,2.7-7.17,2.61-10.25,3.51s-3.17,3.3-1.21,4.89,5.31,2.88,6,5.22c.36,1.27-.57,2.53-1.49,3.39l-.54-.14a46.67,46.67,0,0,1-6.73-2.17c-4.06-1.84-6-3.89-6.57-5.86a5.08,5.08,0,0,1-.19-.84,5.76,5.76,0,0,1,.56-3.2,9.39,9.39,0,0,1,1.83-2.6,13.66,13.66,0,0,1,1.63-1.42c3.49-2.49,6.72-5.47,8-6.46s10.2-8.2,18.64-11.43A43.16,43.16,0,0,0,42.5,82.35c.23,1.71,1.25,5,5.55,8A42.31,42.31,0,0,1,57.66,100.44Z" style="fill:#7171a4"/><path d="M15.61,119.36c-.65-2.34-4-3.64-6-5.22s-1.87-4,1.21-4.89,7.3-.81,10.25-3.51a24.1,24.1,0,0,0,3.22-3.24,7,7,0,0,0-.74,2,5.41,5.41,0,0,0-.12.82,3.25,3.25,0,0,0,0,.59v.49s0,.17,0,.49a5.28,5.28,0,0,0,.08.58,4.86,4.86,0,0,0,.19.78,7.6,7.6,0,0,0,.85,2,7.44,7.44,0,0,0,1.89,2.09,7.15,7.15,0,0,0,3.15,1.31,7.46,7.46,0,0,0,3.84-.35,7.25,7.25,0,0,0,1.86-1,8.13,8.13,0,0,0,1.54-1.56,8,8,0,0,0,1.06-2,7.51,7.51,0,0,0,.4-2.21l0-.64a3.92,3.92,0,0,0,0-.59,9.21,9.21,0,0,0-.23-1.14,8.56,8.56,0,0,0-1-2.11c-.09-.14-.2-.28-.3-.42.23.11,3.83,1.94,4.29,4.84s4.93,5.9,7.45.62c2.34-4.9,4.69-6.83,9.14-6.58,4.29,6.21,7.6,14.28,5.88,22.45l-1.5-1c-1.74-.49-3.73-2.48-4.23,0-.06.3.27.88.92,1.68a89.17,89.17,0,0,0,8.47,8.24c-8.05-1.08-37.75-5.22-53.08-9.1C15,121.89,16,120.63,15.61,119.36Z" style="fill:#636298"/><path d="M239.28,88.63a8.2,8.2,0,0,1-1.57-4.6,160.62,160.62,0,0,1-27.27-1.87,111.56,111.56,0,0,1-13.76-2.78,88.11,88.11,0,0,1-16.05-6.22c-10.9-5.25-20.55-10.57-53.47-11.63-7.56-.24-14.5-.14-20.86.23C78.07,63.39,61.29,70.2,52.7,75c-2.17,13.42,7.38,20,28,22.78,21.87,3,75.32.75,94.21-4.13s68.94,0,68.94,0C242.55,92,240.52,90.15,239.28,88.63Zm-49-3.21a3.5,3.5,0,0,1-2.7.86c-5.22-.17-10.33-1-15.59-.74s-10.56,1.1-15.82,1.74c-10.11,1.24-20.17,2.89-30.27,4.21-41.45,5.4-66.69-2.8-65.2-9.33,1.18-5.14,7-7.43,11.35-9.29,1.38-.58,2.79-1.11,4.2-1.59a74.17,74.17,0,0,1,10.6-2.7c10-1.8,20.34-2,30.34-2.45A146.83,146.83,0,0,1,178,76.4a79,79,0,0,1,9.48,4.5C188.77,81.66,192.07,83.54,190.31,85.42Z" style="fill:#636298"/><path d="M188.31,72.47c-1.86-1-7.7-.62-9.57-1.49s2-2.33,3.23-3.36-1.49-1-4.84,0-7.58,1.91-4.48-1.66,3.81-4.81-1.08-2.2-6.14,1.85-2.39-1.38,4-4.21-2.18-1.1-9,4.1-5.65.25,7-7.71,2.48-4.72-6.58,5.22-9,5.22-.45-.8,2.74-5.1c1.18-1.6,2.29-3.06,3.16-4.31a0,0,0,0,1,0,0c12,5.15,22.33,13.42,31.89,22.17,1.5,1.85,2.93,3.29,4,4.58a88,88,0,0,1-16-6.22S190.18,73.46,188.31,72.47Z" style="fill:#636298"/><path d="M192.68,74.8c-9.55-8.74-19.9-17-31.88-22.17h0c1.51-2.11,2.36-3.63,1.81-4.26-.35-.4-1.94,1.21-4,3.4-1.54-.59-3.11-1.11-4.7-1.61,5.57-7.51,7.69-12.6.47-5.4-1.46,1.46-2.8,2.9-4.06,4.27-2.54-.8-5-1.62-7.47-2.64,5.45-7.47,7.81-12.44,5.82-12.44-1,0-4.53,5.48-8.3,11.29A28.81,28.81,0,0,1,136,42.55c1.36-3.08,2.65-6,3.49-8,3-7.21,5-17.49-1.12-6.46a96.21,96.21,0,0,0-5.24,11.95,17.9,17.9,0,0,1-4.66-8.16,58,58,0,0,1,4.06-9.63c3.6-5.6,4.48-9.82-3.35.74-.41.56-.81,1.14-1.17,1.74.63-6.08,3.59-12.32,7.31-17.71a7.38,7.38,0,0,1,.32,1.91c.25,3.87,3,1.52,3,4.31s.75-.19,1.24,3.53,1.25,3.73,2.74,5.72,5.41.75,5.44,4.23,1.45,1.34,2.48,4.16,4.26,2,4.51,5,2,1.49,3,3.73,4.22,3.22,4.72,5.22S185.59,62.27,188.32,68A32.87,32.87,0,0,0,192.68,74.8Z" style="fill:#7171a4"/><path d="M160.78,52.62c-.72-.3-1.44-.59-2.17-.86,2-2.2,3.62-3.81,4-3.4C163.14,49,162.29,50.5,160.78,52.62Z" style="fill:#56568b"/><path d="M153.91,50.15,150.32,49c1.26-1.37,2.6-2.81,4.06-4.27C161.59,37.54,159.48,42.64,153.91,50.15Z" style="fill:#56568b"/><path d="M142.85,46.38c-.84-.36-1.67-.74-2.48-1.15,3.77-5.81,7.34-11.3,8.3-11.3C150.65,33.93,148.3,38.91,142.85,46.38Z" style="fill:#56568b"/><path d="M139.47,34.56c-.84,2-2.13,4.91-3.49,8-.2-.14-.38-.28-.57-.43a20.18,20.18,0,0,1-2.3-2.07,94.91,94.91,0,0,1,5.24-12C144.45,17.07,142.45,27.35,139.47,34.56Z" style="fill:#56568b"/><path d="M132.51,22.26a57.37,57.37,0,0,0-4.07,9.63,20.64,20.64,0,0,1-.45-7.15c.36-.6.75-1.18,1.16-1.74C137,12.43,136.11,16.66,132.51,22.26Z" style="fill:#56568b"/><path d="M133.11,40.05c-3.58,9.44-6.63,18.93-9.79,19.61-3.33.73,1.07-16.21,5.13-27.77A17.9,17.9,0,0,0,133.11,40.05Z" style="fill:#636298"/><path d="M140.37,45.23c-4,6.16-8.19,12.69-9.72,13.41-2.15,1,1.82-8.18,5.33-16.09A28.81,28.81,0,0,0,140.37,45.23Z" style="fill:#636298"/><path d="M150.32,49c-4.94,5.42-8.47,9.85-11.84,10.64-4.23,1-1.06-5.81,4.37-13.28C145.27,47.4,147.78,48.22,150.32,49Z" style="fill:#636298"/><path d="M158.61,51.76c-3,3.27-7.06,7.85-9.45,9-4,2-.81-3.12,4.75-10.63C155.5,50.65,157.07,51.17,158.61,51.76Z" style="fill:#636298"/><path d="M180.63,73.16c-10.9-5.25-20.55-10.57-53.47-11.63-7.56-.24-14.5-.14-20.86.23,0,0,6-14.15,7.19-26.08a60.38,60.38,0,0,1,1.43-8.19C125.45,7.1,133.73,3.16,129.16,10.94c-3.46,5.9-10,17.9-13.55,29.33s-5,20.27.87,16.17C122,52.55,121.41,35.5,128,24.74a20.4,20.4,0,0,0,.46,7.15c-4.06,11.56-8.46,28.5-5.13,27.77,3.16-.68,6.21-10.17,9.79-19.61a20.18,20.18,0,0,0,2.3,2.07c.19.15.38.3.57.43-3.51,7.91-7.48,17.09-5.33,16.09,1.53-.72,5.74-7.25,9.72-13.41.81.41,1.64.79,2.48,1.15-5.43,7.47-8.6,14.28-4.37,13.28,3.37-.79,6.9-5.22,11.84-10.64l3.59,1.13c-5.56,7.51-8.73,12.59-4.75,10.63,2.39-1.17,6.42-5.75,9.45-9,.73.27,1.46.56,2.17.86-.87,1.26-2,2.71-3.16,4.31-3.18,4.3-5.1,5.1-2.74,5.1s4.48-2.24,9-5.22.87.87-2.48,4.72-.5,2.86,5.65-.25,5.92-2.14,2.18,1.1-2.49,4,2.39,1.39,4.19-1.37,1.08,2.2,1.12,2.64,4.48,1.65,6.05-1,4.85,0-5.1,2.48-3.23,3.36,7.7.5,9.57,1.49S180.63,73.16,180.63,73.16Z" style="fill:#444a77"/><path d="M135.3,7c-3.72,5.39-6.68,11.62-7.31,17.71-6.59,10.76-6,27.81-11.51,31.69-5.84,4.1-4.48-4.72-.88-16.16s10.09-23.44,13.55-29.33c4.58-7.78-3.7-3.85-14.23,16.55a47.33,47.33,0,0,1,10.26-19.9c6.21-7.21,8.69-9.12,7.7-6.42s1.49.2,1.25,2.69C133.93,5.79,134.79,5.45,135.3,7Z" style="fill:#636298"/><path d="M227.2,122.49c-6.83,2-8.19-5.68-8.56-3-.41,3,4.35,10.24,4.35,10.24-7.7-2.69-8.32-14.1-8.32-8.9S221,132.26,221,132.26c-9.82-5.32-10.2-15.42-10.44-9.83s12.8,16.78,9,15.29-14.94-15.7-15.29-16.15c8.94,19.51,21.87,22.86,13.42,19.75s-17.52-22-15.78-15.82,14.38,20.1,14.78,20.54c-11.44-5.1-20.88-25.47-19.39-18.51s19,24.31,19,24.31c-14.91-6.27-30.45-37.48-24.36-22.15,4.49,11.32,22.76,24.27,26.59,27.68l.21.77a28,28,0,0,1-2.81-1.23c-13-6.22-26.48-24.81-27.31-26a85.59,85.59,0,0,0,30.22,32.11c-1.14,4.93-5.9.65-5.9.65C191.8,149.78,183.8,127,183.8,127c13.61-4.61,28.13-10.68,40.31-11.06.43,0,.84,0,1.25,0,.15.16,2,2.06,2.23,3.25A16.2,16.2,0,0,1,227.2,122.49Z" style="fill:#444a77"/><path d="M222.13,138.34c-2.74,2.74.49,5.72-2.43,6.22s2.17,4.22-.63,5,2.56,4.47-.18,4.72c-1.62.15-1,1.18-.38,3.12-3.83-3.41-22.1-16.36-26.59-27.68-6.09-15.33,9.45,15.88,24.36,22.15,0,0-17.52-17.35-19-24.31s8,13.41,19.39,18.51c-.4-.44-13.08-14.47-14.78-20.54s7.33,12.72,15.78,15.82-4.48-.24-13.42-19.75c.35.45,11.49,14.68,15.29,16.15s-9.21-9.69-9-15.29.62,4.51,10.44,9.83c0,0-6.34-6.27-6.34-11.47s.62,6.21,8.32,8.9c0,0-4.76-7.2-4.35-10.24.37-2.64,1.73,5,8.56,3C226.32,127.43,224.16,136.31,222.13,138.34Z" style="fill:#636298"/><path d="M218.89,162.7c0,.12,0,.24-.07.35a85.59,85.59,0,0,1-30.22-32.11c.83,1.16,14.3,19.75,27.31,26a28,28,0,0,0,2.81,1.23A10.37,10.37,0,0,1,218.89,162.7Z" style="fill:#636298"/><path d="M170.67,160.22c-2.24,1-.25,2.48-1.49,7.7s-7.71,2.49-7.71,2.49c-20.39-5-35.55-34.24-35.55-34.24l1.94-.06c8.53,19.78,37.59,39.64,25,27.46s-29.08-41.38-9.81-15,29.95,21,22.61,15.54S136.61,139,138.47,139.2s5.72,3.68,5.72,3.68c9.31,8.77,21.53,12.25,26.89,12.4C171.15,158.13,172.21,159.52,170.67,160.22Z" style="fill:#636298"/><path d="M138.48,139.2c-1.87-.23,19.89,19.4,27.22,24.87s-3.36,10.81-22.62-15.54-2.74,2.86,9.81,15.05-16.49-7.69-25-27.47a235.88,235.88,0,0,0,35.69-3.75c3-.53,4.07,1.36,4.72,3-4.39.58-15.14,1.86-18.7.87-4.5-1.26-2.65.36,14.63,1.85a41.56,41.56,0,0,1,6.06.84c.09.28.16.58.24.9-2.81.65-13.08.6-22.4-1.74-15.4-3.85,3,2.86,17.09,5.47,3.5.65,5.27,1.31,5.68,1.8.12.14.13.27,0,.38-.89,1-11.07.51-22.88-5.06-17.37-8.18-.59,3.25,18.8,10a39.09,39.09,0,0,1,4.53,1.85,11.63,11.63,0,0,0-.27,2.79c-5.35-.15-17.58-3.63-26.88-12.4C144.2,142.88,140.34,139.42,138.48,139.2Z" style="fill:#444a77"/><path d="M171.91,150.53a15.27,15.27,0,0,0-.56,2,39.09,39.09,0,0,0-4.53-1.85c-19.39-6.71-36.17-18.14-18.8-10,11.81,5.57,22,6.1,22.88,5.06.11-.11.1-.24,0-.38-.41-.49-2.18-1.15-5.68-1.8-14-2.61-32.49-9.32-17.09-5.47,9.32,2.34,19.59,2.39,22.4,1.74.38,1.51.68,3.3,1.4,3.73C173.15,144.31,174.15,144.31,171.91,150.53Z" style="fill:#636298"/><path d="M170.9,145.74l0-.38C171,145.5,171,145.63,170.9,145.74Z" style="fill:#636298"/><path d="M170.27,138.93a41.56,41.56,0,0,0-6.06-.84c-17.28-1.49-19.13-3.11-14.63-1.85,3.56,1,14.31-.29,18.7-.87l1.28,2.29A2.51,2.51,0,0,1,170.27,138.93Z" style="fill:#636298"/><path d="M98.87,155.62a29.46,29.46,0,0,0-10.11-12.06c-4.85-3.26-10.77-7.48-14.93-10.73A47.36,47.36,0,0,1,69.37,129c-2.61-2.73-8-7.21-10.64-5.41-.65-.8-1-1.38-.92-1.68.5-2.48,2.49-.49,4.23,0l1.5,1,6.65,4.17h0c3.45,2.14,7.48,4.63,11.08,6.8h0c5.12,3.07,9.36,5.49,9.83,5.34,1.25-.4,2.48,4.11,5,4.11C98.14,143.31,99.34,151.89,98.87,155.62Z" style="fill:#7171a4"/><path d="M190.3,85.42a3.46,3.46,0,0,1-2.69.86c-5.23-.17-10.33-1-15.59-.74s-10.56,1.1-15.82,1.74c-10.11,1.24-20.17,2.88-30.28,4.2-41.44,5.41-66.68-2.79-65.19-9.32,1.18-5.14,7-7.43,11.35-9.29,1.38-.58,2.78-1.11,4.2-1.6a75.49,75.49,0,0,1,10.6-2.69c10-1.8,20.33-2,30.34-2.45A146.83,146.83,0,0,1,178,76.4a79.73,79.73,0,0,1,9.48,4.5C188.77,81.66,192.07,83.53,190.3,85.42Z" style="fill:#636298"/><path d="M240.64,118.26A48.58,48.58,0,0,0,225.36,116c-.41,0-.83,0-1.25,0-12.19.38-26.71,6.45-40.32,11.06-4.16,1.4-8.24,2.67-12.13,3.6-2.33.56-5,1.15-8.1,1.73a236,236,0,0,1-35.7,3.75l-1.94.06c-3.37.09-6.89.11-10.53.06,20.12-1.85,35.78-4.11,66.9-15.52s58.5-7.62,58.5-7.62C240.28,114.22,240.13,115.79,240.64,118.26Z" style="fill:#444a77"/><path d="M38.32,105.82a3.68,3.68,0,0,0,0-.58A7.43,7.43,0,0,0,38,104.1a8.21,8.21,0,0,0-.95-2.11c-.1-.15-.21-.29-.31-.43h0a7.55,7.55,0,0,0-3.12-2.39,6.85,6.85,0,0,0-2.11-.5,6.27,6.27,0,0,0-.95,0c-.25,0-.36,0-.54,0s-.32,0-.48.06a7.48,7.48,0,0,0-3.28,1.46,7.9,7.9,0,0,0-1.91,2.23.3.3,0,0,1-.05.08,6.46,6.46,0,0,0-.73,2,4.24,4.24,0,0,0-.13.81,4.67,4.67,0,0,0,0,.6c0,.3,0,.46,0,.46v0l0,.49a3.77,3.77,0,0,0,.09.58,4.52,4.52,0,0,0,.18.78,8,8,0,0,0,.85,2,7.41,7.41,0,0,0,1.89,2.08,7.28,7.28,0,0,0,3.15,1.32,7.39,7.39,0,0,0,5.7-1.38,8.19,8.19,0,0,0,1.54-1.57,7.52,7.52,0,0,0,1.47-4.21Zm-1.91,2.39a6.48,6.48,0,0,1-.77,1.64A6.32,6.32,0,0,1,33,112.11a6.27,6.27,0,0,1-7.76-2.29,6.32,6.32,0,0,1-.79-1.76,5.55,5.55,0,0,1-.15-.7,4,4,0,0,1-.06-.52c0-.22,0-.37,0-.42s0-.16,0-.47a3.9,3.9,0,0,1,.06-.53,6.7,6.7,0,0,1,.15-.68,6.32,6.32,0,0,1,.79-1.76A6.42,6.42,0,0,1,27,101.21a6.26,6.26,0,0,1,2.76-1,7.09,7.09,0,0,1,.79,0,4.61,4.61,0,0,1,.84.07,5.68,5.68,0,0,1,1.61.47A6.23,6.23,0,0,1,35.64,103a6.28,6.28,0,0,1,1,3.43A6.32,6.32,0,0,1,36.41,108.21Z" style="fill:#8585bb"/><path d="M36.41,104.59a6.48,6.48,0,0,0-.77-1.64A6.23,6.23,0,0,0,33,100.7a5.68,5.68,0,0,0-1.61-.47,4.61,4.61,0,0,0-.84-.07,7.09,7.09,0,0,0-.79,0,6.26,6.26,0,0,0-2.76,1A6.42,6.42,0,0,0,25.21,103a6.32,6.32,0,0,0-.79,1.76,6.7,6.7,0,0,0-.15.68,3.9,3.9,0,0,0-.06.53c0,.31,0,.47,0,.47s0,.2,0,.42a4,4,0,0,0,.06.52,5.55,5.55,0,0,0,.15.7,6.32,6.32,0,0,0,.79,1.76A6.26,6.26,0,0,0,33,112.11a6.32,6.32,0,0,0,2.67-2.26,6.48,6.48,0,0,0,.77-1.64,6.32,6.32,0,0,0,.27-1.83A6.53,6.53,0,0,0,36.41,104.59Zm-6,6.66a4.85,4.85,0,1,1,4.85-4.85A4.85,4.85,0,0,1,30.43,111.25Z" style="fill:#4c5083"/><path d="M30.43,101.55a4.85,4.85,0,1,0,4.85,4.85A4.85,4.85,0,0,0,30.43,101.55Zm0,8.32a3.47,3.47,0,1,1,3.47-3.47A3.46,3.46,0,0,1,30.43,109.87Z" style="fill:#d3cc8c"/><path d="M33.9,106.4a3.47,3.47,0,1,1-3.47-3.47A3.47,3.47,0,0,1,33.9,106.4Z" style="fill:#2b2b2b"/><path d="M.28,114.58a.62.62,0,0,1-.19-.84h0Z" style="fill:#636298"/><path d="M98.87,155.62a2.83,2.83,0,0,1-.54,1.62c-1.49,1.23,0,0-7.21-5.55-4.33-3.32-15.68-12.51-23.92-19.84a89.17,89.17,0,0,1-8.47-8.24c2.66-1.8,8,2.68,10.64,5.41a47.36,47.36,0,0,0,4.46,3.81c4.16,3.25,10.08,7.47,14.93,10.73A29.46,29.46,0,0,1,98.87,155.62Z" style="fill:#56568b"/><path d="M140.44,72.14s-40.86-4.57-51.65,2.75,4.93,15.36,19.71,12.57,25.25-1.13,36.21-3.07S157.21,72.17,140.44,72.14Z" style="fill:#7171a4"/></g></g></svg>