<svg xmlns="http://www.w3.org/2000/svg" viewBox="0 0 265.99 115.92"><title>red-line-torpedo-barb</title><g id="Layer_2" data-name="Layer 2"><g id="Ñëîé_2" data-name="Ñëîé 2"><path d="M21.43,64.33c-1,.87-1.88,1.78-2.75,2.65-.38.38-.76.76-1.15,1.11-3.47,3.2-4.27,1.2-8,.81s-8,2.94-8,2.94c-2.38-2-1.45-3.94-.66-5a9.48,9.48,0,0,1,2.81-2.14,10.57,10.57,0,0,0,2.53.45c1.24-.18,3.91-.09,5.15-.84s2.58.75,4.45.83A28.19,28.19,0,0,0,21.43,64.33Z" style="fill:#e1130a"/><path d="M24,74.11a4.55,4.55,0,0,1-3.17-.88C19.4,72.09,19,72.1,17,73.23s-2.14-.07-5.47,0c-2.34,0-4.68-.21-6.74.49a12.27,12.27,0,0,1-3.27-1.88s4.28-3.33,8-2.94,4.53,2.39,8-.81c.39-.35.77-.73,1.15-1.11a32.07,32.07,0,0,1,4.68-.71,8.06,8.06,0,0,0-.72,3.33A7.94,7.94,0,0,0,24,74.11Z" style="fill:#2b2b2b"/><path d="M46.73,86.89a10.77,10.77,0,0,0,8.8-1.46,24,24,0,0,1,1.89,6.27c-2.73-.69-5.34-1.45-7.76-2.27C27,81.69,12.33,76.63,5.4,74l-.61-.24c2.06-.7,4.4-.45,6.74-.49,3.33-.07,3.47,1.13,5.47,0s2.4-1.14,3.86,0a4.55,4.55,0,0,0,3.17.88A8,8,0,0,0,38.09,72.5a10.2,10.2,0,0,0,2.11.13s5.2.53,7.6-.79,4.4-.28,6.4,1.46,4.69.55,4.69.55a8.64,8.64,0,0,0-1,2.11C55.13,83.83,46.73,86.89,46.73,86.89Z" style="fill:#859096"/><path d="M108.73,63.94h0l.1,0S108.75,64,108.73,63.94Zm-49.84,9.9.43-.09C59.23,73.58,59.09,73.6,58.89,73.84Zm0,0,.43-.09C59.23,73.58,59.09,73.6,58.89,73.84Zm0,0,.43-.09C59.23,73.58,59.09,73.6,58.89,73.84Zm0,0,.43-.09C59.23,73.58,59.09,73.6,58.89,73.84Zm0,0,.43-.09C59.23,73.58,59.09,73.6,58.89,73.84Zm0,0,.43-.09C59.23,73.58,59.09,73.6,58.89,73.84Z" style="fill:#e1130a"/><path d="M246.6,102.2c-3.07-1.22-1.47.56-3.34,0s-3.7,0-5.77-1.47l-.19-.15c-2.07-1.59-5-6-5.66-7.69s3.36-.53,2.82-1.81,3.07-.72,2.94-1.12,3.2.27,3.2-.8,1.12-.17,1.3,0l0,0c6.4,6.13,7.2,7.47,6.93,8.8-.17.84,1.16,1.15,2.22,1.88C252.37,102.64,249.66,103.43,246.6,102.2Z" style="fill:#2b2b2b"/><path d="M255.4,107.83c.4.66-1.87.88-1.87.88a2.41,2.41,0,0,0-1.05,1.28,150.06,150.06,0,0,1-15-9.26c2.07,1.45,3.91.92,5.77,1.47s.27-1.22,3.34,0,5.77.44,4.48-2.36a2.52,2.52,0,0,1,1.25,1.85c.27,2.4,5.87,5.07,6.67,7.2a.14.14,0,0,0,0,.06C257.36,108.26,255.15,107.4,255.4,107.83Z" style="fill:#ffc548"/><path d="M265.93,115.83c-.38.64-6.38-2-13.45-5.84a2.41,2.41,0,0,1,1.05-1.28s2.27-.22,1.87-.88c-.25-.43,2,.43,3.62,1.12h0C259.92,111.09,266.72,114.5,265.93,115.83Z" style="fill:#e9e2dc"/><path d="M259.53,23.83a52.56,52.56,0,0,0-3.4,4.81,10.92,10.92,0,0,1-2.29-.46c-2.13-.7-1.78-1.42-1.7-3.2C259.51,21.39,262,20.82,259.53,23.83Z" style="fill:#e9e2dc"/><path d="M256.13,28.64a11.81,11.81,0,0,1-3.53,3.72c-3.2,2.13-1.6,3.47-4.27,5.6a6,6,0,0,0-1,.94c.83-4.57-1.54-2.54-1.36-3.61S244.42,34.05,245,33s-4.26-.35-3.73-1.06c.23-.31-.77-.36-2-.3.36-.2.72-.4,1.09-.59,4.79-2.52,8.74-4.55,11.81-6.05-.08,1.78-.43,2.5,1.7,3.2A10.92,10.92,0,0,0,256.13,28.64Z" style="fill:#ffc548"/><path d="M247.38,38.9h0a15.12,15.12,0,0,0-1.72,3.37,8.51,8.51,0,0,0-2.66.31c-2.49.71.65-3.2-1.37-1.78s-.59-1-3.26-.31-.71-3-2.66-1.59,0-2-2.49-.67-3.86,2.21-2.2-1.34a83.48,83.48,0,0,1,8.22-5.27c1.21-.06,2.21,0,2,.3-.53.71,4.27,0,3.73,1.06s1.25,1.25,1.07,2.31S248.21,34.33,247.38,38.9Z" style="fill:#2b2b2b"/><path d="M243,42.58c-2.49.71.65-3.2-1.37-1.78s-.59-1-3.26-.31-.71-3-2.66-1.59,0-2-2.49-.67-3.86,2.21-2.2-1.34c-8.11,5.79-15.91,12.55-25.83,16.54a26.8,26.8,0,0,1,2.28,1.91,28.08,28.08,0,0,1,3.92,4.4,17.4,17.4,0,0,1,2.6,5.14,11.48,11.48,0,0,1,.47,2.55,12.13,12.13,0,0,1-.54,4.41,23.81,23.81,0,0,1-4.57,8.06A27.9,27.9,0,0,1,207,82.37c10.52,2,18,6.94,24.49,13.46a48.19,48.19,0,0,0,5.77,4.75c-2.07-1.59-5-6-5.66-7.69s3.36-.53,2.82-1.81,3.07-.72,2.94-1.12,3.2.27,3.2-.8,1.12-.17,1.3,0c-6.39-6.14-11.17-14.12-12-20.78s5.87-14.13,9.07-16.8,1.6-4.53,4.53-6.67a6.36,6.36,0,0,0,2.13-2.62A8.51,8.51,0,0,0,243,42.58ZM231.53,88.63c-.93,0,.4,1.06-.53,1.33s-1.16,1.91-2.8.67a37.27,37.27,0,0,0-11.74-6.27c-7.06-2.27-4.4-4.13,3.34-1.07S232.46,88.63,231.53,88.63Zm1-37.8c-7.65,3.84-5.69.3-10.31,2.6s-4.75-.71-7.71,1.42-6.31,2.6-4.65,1.19c0,0,10.93-9.37,14.13-11.68s5.69-2.49,2.49,0-4.62,4.3.36,2.51,6.58-2.33,5.33-.73,6.22-1.39,3.56.73S240.15,47,232.51,50.83Z" style="fill:#b1cdbf"/><path d="M80.2,107.16C78.41,103,74,98.31,69.51,94.2h0C68.25,93.06,67,92,65.79,91c.19.19,1.49,1.43,3.13,3.13h0c2.81,2.94,6.61,7.26,7.49,10-.24-.26-5.84-6.54-9.57-10.34a22.82,22.82,0,0,0-3-2.79c-.8-.46.27.75,1.84,2.56,2.12,2.45,5.15,6,5.71,7.92,1,3.37-4.8-5.78-7.82-7.83s2.31.82,2.13,9.16c0,0-1-5.78-3.06-7.47s1.11,1.51-1.11,5.43c0,0-.2-3.6-2-5.69s1.8,3.37-1.5,8.52c-.07,1.19-.18,2.32-.29,3.34-.66,6,9.87,6.67,14.4,6.4S84.46,117,80.2,107.16ZM77,111c-2.56,1.35-6,1.42-8.85,1.23-2.59-.16-5.55-.65-6.83-3.21-.64-1.28-2.34-7.36.87-6.12a5.07,5.07,0,0,1,1.18.74l.29.23a8.84,8.84,0,0,0,2.47,1.15,15.2,15.2,0,0,0,7,.64C79,104.86,80.51,109.16,77,111Z" style="fill:#b1cdbf"/><path d="M208.73,74.09c-2.67-.66-4-2.29-7.73-1.07s-8.54-.55-10.4,0-5.34,1.47-7.34.54-6.53.06-8.8.63-5.46-.43-8,0-5.06-.76-6.93-.36-6.67-.11-8.67-.72-4.8-1.26-7.2,0-11.6,3.27-13.86,1.26-4.38-1.14-6.39-.84-4.15-3.41-6.15-1.69-6.51,2.41-9.38,1.46-8.35-1.74-10.35-.67a8.76,8.76,0,0,1-6.93,1c-3.07-.75-8.4-1.41-10-.88s-10.24,1.75-12.12.54-4.15-1.34-5-.81a21.9,21.9,0,0,1-4.21,1.26c.5.9-.44,7.09-2.54,10.28,0,0,4.13,2.86,9,6.92l0,0c1.21,1,2.46,2.09,3.72,3.23h0a197.66,197.66,0,0,0,35.31,2.62c8.43-.18,15.72-1,20.58-2.59,2.8-.91,6.47-1.92,10.69-3l1.33-.33c3.57-.87,7.49-1.77,11.58-2.64s8.22-1.7,12.42-2.48c13.42-2.5,26.87-4.38,34.91-4.38a57.08,57.08,0,0,1,10.71.94s5.16-4.67,6.88-10.53C213.92,71.84,211.4,74.76,208.73,74.09Zm-71,15a19.47,19.47,0,0,1-5.58,1.51c-6.72,1.35-13.56,2.13-20.34,3-8.87,1.21-18,.88-26.86.1a59.41,59.41,0,0,1-10.7-1.72c-2.73-.85-4.45-2-2.75-3.76,2.17-2.19,6-3.26,8.84-4.28,5.87-2.1,17.78-4.29,27.55-1.66,5.85,1.58,12.05,1.9,18.07,2.46,2.78.27,5.57.52,8.34,1C135.7,86,141.17,87.21,137.72,89.13Z" style="fill:#859096"/><path d="M108.79,64a1.15,1.15,0,0,0,.34.1Z" style="fill:#e1130a"/><path d="M205.19,53.43a47.13,47.13,0,0,1-16.86,3.46c-11.75.27-25.07-3.06-39.47-7.11L138.6,46.87c-11.7-3.33-24-6.67-36.67-8.64a46.53,46.53,0,0,0-5.71-.53h0C62.46,36.48,5.4,63.83,5.4,63.83c-.2.09-.91.42-1.73.88a10.57,10.57,0,0,0,2.53.45c1.24-.18,3.91-.09,5.15-.84s2.58.75,4.45.83a28.19,28.19,0,0,0,5.63-.82C24,62.14,27.24,60.22,33,60c9.06-.4,13.46-2,15.6-3.07s8.93-1.2,14,0,10,1.74,14.4.27,6.93-.8,8.8.4,7.06,1.33,7.73,2.8,6.67,2.8,9.87,2.8a20.14,20.14,0,0,1,5.29.79h0s0,0,.06.05h0l.34.1c1.42.24,6-.28,11.33-.15,0,0-4.22-1.09-4.75-2.34s-4.62.18-11-.7S96,57.16,101.31,57,117,55,125.09,52.54s13.37-2.31,23.91.89,34.44,6.4,44.4,6,14.07-4.13,14.07-4.13A26.8,26.8,0,0,0,205.19,53.43ZM108.82,51c-7.75,1.12-15.55,3.18-23.44,2.22-7.4-.91-14.9-2-22.23-3.36-2.13-.38-3.65-1.69-1.35-3.29a22.39,22.39,0,0,1,5.68-2.45,47.84,47.84,0,0,1,8.47-2,112.66,112.66,0,0,1,17.71-.8c6.79-.11,24.27,2.54,27.3,5.58C123.15,49.05,109.9,50.8,108.82,51Z" style="fill:#7fc1a5"/><path d="M147.4,43.16c-.4-3.73-3.2-5.07-3.47-8.8s.4-2.53-1.2-5.07-1.73-4.93-.93-6.53-.54-2.67-1.2-4.53a8.64,8.64,0,0,1,.4-5.6c.53-1.34.13-1.34-.94-3.6a3.59,3.59,0,0,1-.18-1.34s-10.75,7.47-13.95,11.74,5.48-4.94,10.28-5.87a3.1,3.1,0,0,0,0,1.73,17.11,17.11,0,0,0,.92,2.54s-7.2,3.6-11.07,7.86.8.53,6.94-.8-5.2,1.34-11.47,10.4c0,0,3.87-2.66,5.33-2.8s-.4.27-.53,2.14,3.2,1.2,3.33,2.66a5,5,0,0,0,3.34,4.4c2.66,1.2,5.35,3.42,5.6,5.18l10.26,2.91C149.51,45.86,147.8,46.89,147.4,43.16ZM143,44.89a58.5,58.5,0,0,1-6.79-6.66c-3.33-3.87-2.68-6.67-.81-9.21s3.86-4.53,3.46-1.74c-.26,1.86.56,2.47,1.74,3.47l.22.19a8.62,8.62,0,0,1,2.29,3.65c1,2.7,1.16,5.67,2.35,8.3C147.39,47.16,145.13,46.89,143,44.89Z" style="fill:#b1cdbf"/><path d="M139.89,4.59c-1.91.33-4.84,1.13-6.22,3-2.14,2.84-.38-2.49,2.54-4.27s-5.21.11-7.52,2.55-6.12,2.82-6.08,2.54-13.12,7.36-22,24.42a5.44,5.44,0,0,0-.33,1.83,4.32,4.32,0,0,0,1.66,3.6,46.53,46.53,0,0,0-5.71-.53h0c.22-.46,10.71-22.65,29.05-33.47C137.88-3.21,139.68.65,139.89,4.59Z" style="fill:#2b2b2b"/><path d="M96.21,37.7h0Z" style="fill:#e1130a"/><path d="M125.93,19.43c-3.2,4.26,5.48-4.94,10.28-5.87a3.1,3.1,0,0,0,0,1.73,17.11,17.11,0,0,0,.92,2.54s-7.2,3.6-11.07,7.86.8.53,6.94-.8-5.2,1.34-11.47,10.4c0,0,3.87-2.66,5.33-2.8s-.4.27-.53,2.14,3.2,1.2,3.33,2.66a5,5,0,0,0,3.34,4.4c2.66,1.2,5.35,3.42,5.6,5.18-2.24-.64-4.5-1.28-6.79-1.9h0a268.4,268.4,0,0,0-29.88-6.73,4.3,4.3,0,0,1-1.66-3.6,5.44,5.44,0,0,1,.33-1.83c8.89-17.06,22-24.71,22-24.42s3.76-.11,6.08-2.54,10.43-4.32,7.52-2.55-4.68,7.11-2.54,4.27c1.38-1.84,4.31-2.64,6.22-3,.05,1.11,0,2.23,0,3.1C139.88,7.69,129.13,15.16,125.93,19.43Z" style="fill:#e1130a"/><path d="M213.92,71.84s-2.52,2.92-5.19,2.25-4-2.29-7.73-1.07-8.54-.55-10.4,0-5.34,1.47-7.34.54-6.53.06-8.8.63-5.46-.43-8,0-5.06-.76-6.93-.36-6.67-.11-8.67-.72-4.8-1.26-7.2,0-11.6,3.27-13.86,1.26-4.38-1.14-6.39-.84-4.15-3.41-6.15-1.69-6.51,2.41-9.38,1.46-8.35-1.74-10.35-.67a8.76,8.76,0,0,1-6.93,1c-3.07-.75-8.4-1.41-10-.88s-10.24,1.75-12.12.54-4.15-1.34-5-.81a21.9,21.9,0,0,1-4.21,1.26c-.09-.17-.23-.15-.43.09h0s-2.69,1.2-4.69-.55-4-2.78-6.4-1.46-7.6.79-7.6.79a10.2,10.2,0,0,1-2.11-.13,7.72,7.72,0,0,0,.55-2.9,7.87,7.87,0,0,0-1-3.77,4,4,0,0,0,.91-.7,5.12,5.12,0,0,1,5.73-1.19,8.3,8.3,0,0,0,6,.69c2.4-.54,3.87-2.17,6.93-.69s6.67,1.22,9.07,1.75,7.07-1.07,9.07-.54,6.8.93,7.6,0,.93-2.29,3.73-1.21,5.6.28,7.6,1.21,3.33-.13,5.73,0,8.07-1.08,8.63-1.2l.1,0h0a1.15,1.15,0,0,0,.34.1c1.42.24,6-.28,11.33-.15,6.14.15,7.49-.78,13.21,1.22s11.59,1.2,14-.4,4.27-1.9,8.27-.82,6.3,2.15,8.75,1.35a12.45,12.45,0,0,1,7-.13c2.54.53,4.67,1.2,7.34.53a13.94,13.94,0,0,1,7.73-.13c2.53.8,2.13-1.33,7.2-.4s6.27,1.87,8.93.27,3.6-1.91,5.87-1.49c1.64.3,3.74.33,5.26.94a11.48,11.48,0,0,1,.47,2.55A12.13,12.13,0,0,1,213.92,71.84Z" style="fill:#2b2b2b"/><path d="M214,64.88c-1.52-.61-3.62-.64-5.26-.94-2.27-.42-3.2-.11-5.87,1.49s-3.86.66-8.93-.27-4.67,1.2-7.2.4a13.94,13.94,0,0,0-7.73.13c-2.67.67-4.8,0-7.34-.53a12.45,12.45,0,0,0-7,.13c-2.45.8-4.75-.26-8.75-1.35s-5.87-.78-8.27.82-8.26,2.4-14,.4-7.07-1.07-13.21-1.22c0,0-4.22-1.09-4.75-2.34s-4.62.18-11-.7S96,57.16,101.31,57,117,55,125.09,52.54s13.37-2.31,23.91.89,34.44,6.4,44.4,6,14.07-4.13,14.07-4.13C209.65,57.35,212.79,60.8,214,64.88Z" style="fill:#72b495"/><path d="M59.32,73.75l-.43.09C59.09,73.6,59.23,73.58,59.32,73.75Z" style="fill:#e1130a"/><path d="M56.78,84a5.23,5.23,0,0,1-1.25,1.4,10.77,10.77,0,0,1-8.8,1.46s8.4-3.06,11.2-10.93a8.64,8.64,0,0,1,1-2.11h0l.43-.09C59.82,74.65,58.88,80.84,56.78,84Z" style="fill:#778388"/><path d="M71.35,101.43c1,3.37-4.8-5.78-7.82-7.83s2.31.82,2.13,9.16c0,0-1-5.78-3.06-7.47s1.11,1.51-1.11,5.43c0,0-.2-3.6-2-5.69s1.8,3.37-1.5,8.52a53,53,0,0,0-.53-11.85,24,24,0,0,0-1.89-6.27A5.23,5.23,0,0,0,56.78,84s4.13,2.86,9,6.92l0,0c.19.19,1.49,1.43,3.13,3.13h0c2.81,2.94,6.61,7.26,7.49,10-.24-.26-5.84-6.54-9.57-10.34a22.82,22.82,0,0,0-3-2.79c-.8-.46.27.75,1.84,2.56C67.76,96,70.79,99.48,71.35,101.43Z" style="fill:#2b2b2b"/><path d="M77,111c-2.56,1.35-6,1.42-8.85,1.23-2.59-.16-5.55-.65-6.83-3.21-.64-1.28-2.34-7.36.87-6.12a5.07,5.07,0,0,1,1.18.74l.29.23a8.84,8.84,0,0,0,2.47,1.15,15.2,15.2,0,0,0,7,.64C79,104.86,80.51,109.16,77,111Z" style="fill:#c9e7d8"/><path d="M138.81,101.56c4.72,1.6,8.72,4.93-8.88-.8s5.33,3.6,11.33,5.73.14,5.47-11.46-1.06c-10.28-5.79-3.08,2.12,12.68,7.71a22.07,22.07,0,0,1-6.95-1.45C124.12,108,108.58,99,104.82,96.82c8.43-.18,15.72-1,20.58-2.59,2.8-.91,6.47-1.92,10.69-3l1.33-.33c3.85.34,5.51,1.68,6,3a88.53,88.53,0,0,1-9.78,1.38c-2.54,0,3.06.94,6.13.94S147,99,140.6,99,134.09,100,138.81,101.56Z" style="fill:#b1cdbf"/><path d="M144.73,105c-.66,1.3.53,3-.27,3.78-.59.59,2,4.26-2,4.38-15.76-5.59-23-13.5-12.68-7.71,11.6,6.53,17.46,3.2,11.46,1.06S112.33,95,129.93,100.76s13.6,2.4,8.88.8-4.61-2.67,1.79-2.6,2.26-2.73-.8-2.73-8.67-.94-6.13-.94a88.53,88.53,0,0,0,9.78-1.38c.36.9.43,1.94.88,2.91,1.2,2.6,1.6,2.07.42,3.81S145.4,103.69,144.73,105Z" style="fill:#2b2b2b"/><path d="M176.38,105.5c-2.28-1.73-6.16-4.68-7.58-5.88-2.07-1.72,2.06-.26,3.4.34s-2.07-2.47-.4-2.67,0-2.06,1.38-2.13,3.89.8,4.15-2.13c.25-2.75.15-5.58-2-7q.38-.09.6-.12c1.73-.27,3.07,3.33,2.67,4.89s-.67,3.24.13,4.58a5.7,5.7,0,0,1,.8,5.2C178.75,102.72,183.47,106.6,176.38,105.5Z" style="fill:#ffc548"/><path d="M177.33,93c-.26,2.93-2.8,2.06-4.15,2.13s.28,1.94-1.38,2.13,1.73,3.27.4,2.67-5.47-2.06-3.4-.34c1.42,1.2,5.3,4.15,7.58,5.88l-.45-.07a23.46,23.46,0,0,1-6.52-2.7c-9.33-7.34-10.79-12.51-6.95-9,4.14,3.74,8.8,3.34,5.2,1.34s-9.73-7.34-4.4-4.18,12.94,5.24,6.27,2.18-9.75-6.91-6.53-4.54,8.53,2.14,5.2.94a32.09,32.09,0,0,1-5.7-2.91c3.58,1.7,10.42,0,12.83-.44C177.48,87.45,177.58,90.28,177.33,93Z" style="fill:#b1cdbf"/><path d="M163.26,90.85c-5.33-3.16.8,2.18,4.4,4.18s-1.06,2.4-5.2-1.34c-3.84-3.47-2.38,1.7,6.95,9C160.61,97.85,149,88.29,149,88.29c4-.86,8.22-1.7,12.42-2.48l0,0a4.34,4.34,0,0,0,1,.66h0a32.09,32.09,0,0,0,5.7,2.91c3.33,1.2-2,1.44-5.2-.94S162.86,90,169.53,93,168.6,94,163.26,90.85Z" style="fill:#2b2b2b"/><path d="M108.69,64c-.56.12-6.34,1.34-8.63,1.2s-3.73.94-5.73,0-4.8-.12-7.6-1.21-2.93.29-3.73,1.21-5.6.54-7.6,0-6.67,1.08-9.07.54-6-.26-9.07-1.75-4.53.15-6.93.69a8.3,8.3,0,0,1-6-.69,5.12,5.12,0,0,0-5.73,1.19,4,4,0,0,1-.91.7,8,8,0,0,0-14.33.44,32.07,32.07,0,0,0-4.68.71c.87-.87,1.74-1.78,2.75-2.65C24,62.14,27.24,60.22,33,60c9.06-.4,13.46-2,15.6-3.07s8.93-1.2,14,0,10,1.74,14.4.27,6.93-.8,8.8.4,7.06,1.33,7.73,2.8,6.67,2.8,9.87,2.8A20.14,20.14,0,0,1,108.69,64Z" style="fill:#e1130a"/><path d="M26.54,73.26a5.65,5.65,0,0,1-2.51.85,7.94,7.94,0,0,1-1.39-4.51,8.06,8.06,0,0,1,.72-3.33,4.15,4.15,0,0,1,1.24.09,3.18,3.18,0,0,0,1.62,0,5.51,5.51,0,0,0-1.07,3.26A5.43,5.43,0,0,0,26.54,73.26Z" style="fill:#414142"/><path d="M38.09,72.5A8,8,0,0,1,24,74.11a5.65,5.65,0,0,0,2.51-.85,5.49,5.49,0,0,0,9.31-1.91,1.59,1.59,0,0,1,.75.49A2.46,2.46,0,0,0,38.09,72.5Z" style="fill:#f62626"/><path d="M38.64,69.6a7.72,7.72,0,0,1-.55,2.9,2.46,2.46,0,0,1-1.49-.66,1.59,1.59,0,0,0-.75-.49,5.58,5.58,0,0,0,.28-1.75,5.49,5.49,0,0,0-2-4.22l.31.05c1.91.29,2.46.79,3.23.4A7.87,7.87,0,0,1,38.64,69.6Z" style="fill:#414142"/><path d="M37.69,65.83c-.77.39-1.32-.11-3.23-.4l-.31-.05a5.41,5.41,0,0,0-3.51-1.27,5.51,5.51,0,0,0-4.42,2.23,3.18,3.18,0,0,1-1.62,0,4.15,4.15,0,0,0-1.24-.09,8,8,0,0,1,14.33-.44Z" style="fill:#f62626"/><path d="M34.15,65.38a5.41,5.41,0,0,0-3.51-1.27,5.48,5.48,0,0,0-5.49,5.49,5.49,5.49,0,0,0,5.49,5.5,5.5,5.5,0,0,0,5.21-3.75,5.58,5.58,0,0,0,.28-1.75A5.49,5.49,0,0,0,34.15,65.38Zm-.22,6a3.71,3.71,0,0,1-3.29,2,3.74,3.74,0,0,1-3.73-3.74,3.73,3.73,0,1,1,7,1.76Z" style="fill:#e9e2dc"/><path d="M34.37,69.6a3.73,3.73,0,1,1-3.73-3.73A3.7,3.7,0,0,1,34.37,69.6Z" style="fill:#2b2b2b"/><path d="M232.51,50.83c-7.65,3.84-5.69.3-10.31,2.6s-4.75-.71-7.71,1.42-6.31,2.6-4.65,1.19c0,0,10.93-9.37,14.13-11.68s5.69-2.49,2.49,0-4.62,4.3.36,2.51,6.58-2.33,5.33-.73,6.22-1.39,3.56.73S240.15,47,232.51,50.83Z" style="fill:#2b2b2b"/><path d="M231.53,88.63c-.93,0,.4,1.06-.53,1.33s-1.16,1.91-2.8.67a37.27,37.27,0,0,0-11.74-6.27c-7.06-2.27-4.4-4.13,3.34-1.07S232.46,88.63,231.53,88.63Z" style="fill:#2b2b2b"/><path d="M108.82,51c-7.75,1.12-15.55,3.18-23.44,2.22-7.4-.91-14.9-2-22.23-3.36-2.13-.38-3.65-1.69-1.35-3.29a22.39,22.39,0,0,1,5.68-2.45,47.84,47.84,0,0,1,8.47-2,112.66,112.66,0,0,1,17.71-.8c6.79-.11,24.27,2.54,27.3,5.58C123.15,49.05,109.9,50.8,108.82,51Z" style="fill:#95d5b8"/><path d="M143,44.89a58.5,58.5,0,0,1-6.79-6.66c-3.33-3.87-2.68-6.67-.81-9.21s3.86-4.53,3.46-1.74c-.26,1.86.56,2.47,1.74,3.47l.22.19a8.62,8.62,0,0,1,2.29,3.65c1,2.7,1.16,5.67,2.35,8.3C147.39,47.16,145.13,46.89,143,44.89Z" style="fill:#c9e7d8"/><path d="M137.72,89.13a19.47,19.47,0,0,1-5.58,1.51c-6.72,1.35-13.56,2.13-20.34,3-8.87,1.21-18,.88-26.86.1a59.41,59.41,0,0,1-10.7-1.72c-2.73-.85-4.45-2-2.75-3.76,2.17-2.19,6-3.26,8.84-4.28,5.87-2.1,17.78-4.29,27.55-1.66,5.85,1.58,12.05,1.9,18.07,2.46,2.78.27,5.57.52,8.34,1C135.7,86,141.17,87.21,137.72,89.13Z" style="fill:#778388"/><path d="M31.11,66.71a2.78,2.78,0,1,1,2.77,2.78A2.77,2.77,0,0,1,31.11,66.71Z" style="fill:#e9e2dc"/><path d="M214.49,77.29c-2.16.4,10,5.34,10.93,6.14s-12.32-4.12-16.07-3.53a23.81,23.81,0,0,0,4.57-8.06,12.13,12.13,0,0,0,.54-4.41,11.48,11.48,0,0,0-.47-2.55,17.4,17.4,0,0,0-2.6-5.14s6.94-3.08,8.67-3.7-1.6.91-3.6,2.55,8.6-2.63,13.83-5.16-2.4,2.72-7.45,5.16-7.58,4.59-7.31,4.71,7.07-3.47,11.07-3.74-2.54,2.15-6.27,3.74-7.07,1.09-.4,1.88,12.8,1.48,6.13,1.8-12.8.12-6.13,2.28,11.2,5.13,8.53,4.58-8.93-4.37-10.26-2.46,9.79,4.85,12.09,6.31-7.77-.82-13.16-2.47,14.8,7.19,16.67,8.9S216.65,76.89,214.49,77.29Z" style="fill:#414142"/><path d="M131.81,45a268.4,268.4,0,0,0-29.88-6.73,4.51,4.51,0,0,1-1.14-1.34c.29-.45,13.38-21.1,19.29-24.66s-6.87,7.4-9.64,13.7,12.82-14.15,17.62-16.24-12.13,11.2-14.93,18.4,7.87-7.69,10.4-9S115,29.16,113.4,33.43s5.6-4.47,9.06-7.5-5.06,6.56-6.26,9.36,0,2.14,3.33-1.06.53.81-.27,3.47,2-.38,4.14-1.59,1.06-.27.13,1.59.72,3.59,2.56,2.26,1.17.07,1.71,1.31S131,41.57,131.81,45Z" style="fill:#414142"/></g></g></svg>