<svg xmlns="http://www.w3.org/2000/svg" viewBox="0 0 709.62 336.2"><title>Asset 1</title><g id="Layer_2" data-name="Layer 2"><g id="Ñëîé_2" data-name="Ñëîé 2"><path d="M30.63,202.5c-7.86-3.57-14.42-8.23-19.19-15.26C5.1,177.94-.14,171.29,0,164.51c7,4.78,16.6,11.13,23.86,15.43a169.77,169.77,0,0,0,4.63,16.37C29.18,198.39,29.89,200.44,30.63,202.5Z" style="fill:#eee8d2"/><path d="M368.92,207c-37.3,10.62-77.95-2.58-86.2-13.11s4.21-25.39,4.21-25.39c9.4-10,40.33-.38,72.92,5.75s39-1.09,57.46,2.6S406.22,196.33,368.92,207ZM631.21,103.27c-4.2,2.67-8.53,5.35-13,8-.78,19-14.09,40-22,38.81-10.08-1.43-10.08,12.22-18.81,11.17s-14.11,11.14-55.11,5.73-104.18-7.38-116.95-18.35-51.76-4.47-55.79-9.51-28.23,6.37-34.28,1.87-23.53,7.2-31.59,0-34.1,8.87-39.65,5.24S222.83,166,217.29,163s-42.35,4-45.88,4.23c-1.18.06-3.14.49-5.58.73,1.27,38.94-54.81,62.65-28.19,39.9,13-11.09,18.25-26.63,20.14-40a20.86,20.86,0,0,1-9.63-4.34c-9.14-7.34-13.53,5.55-17.69,3.73S119,183.63,110.92,183.12s-12.6,10.08-25.2,13.61-34.28,1-46.38-8.06c-4.17-3.13-5.46-4.1-5.89-4.32.45,3.69,2.85,11.58,6.8,21.84,13.79,4.56,30.33,7.6,47.81,14,14,5.08,40,10,70.19,13.86a37.76,37.76,0,0,1,3.83-12.1v0c-3.05-8.25.6-11.29,6.83-11.44a21.46,21.46,0,0,1,3.92.21,33,33,0,0,1,4.63-2.22c16.13-6.27,45.88,9.45,60,8.25s17.14,3.22,26.72,1,18.65,7.77,28.73,12.81,55.45,1.51,66.54-5.12,12.6.08,19.66-5.23,25,2.79,36.8-7.3c5.42-4.65,15.51-4.19,24.78-2.35h0c6.13-2.18,12-4.26,17.75-6.13,1.63-.53,3.26-1,4.9-1.54,18.38-5.7,35.87-9,57.06-6.63,3.08.34,6.25.79,9.52,1.39,2.54.44,5.12,1,7.78,1.61,40.39,9.44,57.1,21.58,76,37.93,13.89-9.52,13.87-26.37,25.52-67.18C648.77,136.48,639.42,114.75,631.21,103.27Z" style="fill:#eee8d2"/><path d="M440.68,210.51c-8.67,3.1-17.86,6.41-28,9.65l-16.45,5.35c-11.45,3.73-21.15,6.83-30.79,9.33-2.84.75-5.69,1.43-8.57,2.06-18.49,4.09-38.61,6-71.88,6-14.58,0-31.08-.57-48.21-1.57-13.92-6.64-28.37-14.56-35.13-19.46-5.95-4.3-19.07-10.06-28.83-11.25a33,33,0,0,1,4.63-2.22c16.13-6.27,45.88,9.45,60,8.25s17.14,3.22,26.72,1,18.65,7.77,28.73,12.81,55.45,1.51,66.54-5.12,12.6.08,19.66-5.23,25,2.79,36.8-7.3C421.32,208.21,431.41,208.67,440.68,210.51Z" style="fill:#8b8957"/><path d="M166.52,235.06c-2.79-.34-5.55-.68-8.27-1a37.76,37.76,0,0,1,3.83-12.1A127.68,127.68,0,0,0,166.52,235.06Z" style="fill:#8b8957"/><path d="M169.06,216c.1.79.24,1.61.4,2.52C169.28,217.6,169.16,216.78,169.06,216Z" style="fill:#a50707"/><path d="M256.83,282.29c-3,2.94-5.83,11.27-8.21,10.48-1.37-.46-2.54,2.28-4.07,5-2-2.17-4-4.37-6-6.59-.67-.73-1.31-1.47-2-2.22q-3-3.33-5.8-6.65l-1.52-1.76c-.76-.88-1.53-1.77-2.25-2.66L223.72,274c-4-4.76-7.72-9.38-11.13-13.69-.63-.79-1.21-1.55-1.82-2.3-3.69-4.7-6.91-8.95-9.47-12.54l-1-1.39v0l-.95-1.33a1.44,1.44,0,0,1-.18-.25c-.24-.34-.46-.68-.69-1-.84-1.21-1.57-2.3-2.13-3.23-2.36-3.73-2.7-5.18-.35-3.33a3,3,0,0,1,.45.37c.42.34.91.76,1.45,1.29s1.29,1.23,2.06,2h0c1.19,1.19,2.58,2.62,4.19,4.34C216.62,256.14,237.57,270.55,256.83,282.29Z" style="fill:#63603e"/><path d="M600.22,121.22c-22.16,11.41-41.62,17.42-63.18,18.27h0a144.19,144.19,0,0,1-15.22-.22c-20.39-1.35-43.31-6.78-72.27-16.11-1.93-.63-3.91-1.27-5.9-1.94,0,0-13.29-5-33.23-11.61-3.63-1.23-7.51-2.5-11.56-3.82-37.93-12.28-91.76-27.82-128-30.2-61.15-4-103.5,16.67-136.45,27.48S77.31,108.84,33,133.88C8.49,147.69.18,156.18,0,164.51c7,4.78,16.6,11.13,23.86,15.43-.29-1.25-.53-2.5-.75-3.75-.3-1.72-1.57-5.95.08-7.28,1.33-1.07,4.26.1,5.47.88a8,8,0,0,1,3.62,5.59c.35,2.42.75,5.44,1.17,9,.43.22,1.72,1.19,5.89,4.32,12.1,9.07,33.78,11.59,46.38,8.06s17.14-14.11,25.2-13.61,15.39-17.76,19.54-15.93,8.55-11.07,17.69-3.73a20.86,20.86,0,0,0,9.63,4.34,98.22,98.22,0,0,0,0-27.55c-.88-10.12,1-19.13,7.57,22.71a38.44,38.44,0,0,1,.46,5c2.44-.24,4.4-.67,5.58-.73,3.53-.2,40.33-7.26,45.88-4.23s21.17-20.37,26.71-16.74,31.58-12.42,39.65-5.24,25.54-4.5,31.59,0,30.25-6.9,34.28-1.87,43-1.46,55.79,9.51,75.94,12.93,117,18.35,46.38-6.77,55.11-5.73,8.73-12.6,18.81-11.17c7.93,1.15,21.24-19.84,22-38.81C612.46,114.65,606.47,118,600.22,121.22ZM69.59,153.38c-4.9,2-10,1-11.37-2.38s1.45-7.68,6.33-9.72,10-1,11.35,2.38S74.47,151.34,69.59,153.38Zm247.25-50.15c-51.42-18.51-80.66.35-112.92,0s-4.54-13.77,53.94-17.8S374,115.57,374,115.57C390.55,124,368.25,121.72,316.84,103.23Z" style="fill:#8b8957"/><path d="M659,100.55a210.58,210.58,0,0,1,29.32-12.8c-2.64,3.45-4.47,9.29-5.95,15.56-11.21,5.29-22.64,10.09-28.41,12.26-10.36,3.92,7.44.23,26.8-4.82-1.85,9.22-3.33,17.69-5.89,19.28a6,6,0,0,0-2.42,3.91c-1.45.49-2.9.89-4.37,1.23-20.83,4.8-16.84,7.48,3.57,5.53-.33,4.23-1,8.73-4.16,11.77A19.17,19.17,0,0,0,663,159c-20.75,1.79-17.36,6.75-2.38,9.13a98.74,98.74,0,0,0-.65,15.37c-11.47,1.81-18.25,3.32-8,4,2.24.16,5.06.32,8.2.52a27.67,27.67,0,0,0,4.76,14c-18.89,1.65-30.51,1.09-15,8.81,6,3,15.26,5.08,24.68,6.65a12.32,12.32,0,0,1,.26,2.62,23.6,23.6,0,0,0,.79,6c-31.46-1.23-51.54-12.06-32.36,3.05,9.8,7.7,25.73,12.4,38.61,15.46a11.72,11.72,0,0,1-.3,2.34,17.83,17.83,0,0,0-.57,3.89c-27.34-3.71-60.29-20.38-46.92-9.84,11.37,8.94,34.76,20.17,47,25.73-.58,4.7,1.37,7.4-10.26,5.08-13.43-2.68-18.81-1.35-44.36-23.53-4.52-3.93-8.69-7.64-12.74-11.17,13.89-9.52,13.87-26.37,25.52-67.18,9.56-33.48.21-55.21-8-66.69,32.08-20.4,55.49-40.18,70.51-41.49.47,0,.91-.08,1.33-.08C673.49,80.29,642.94,109.16,659,100.55Z" style="fill:#bc110c"/><path d="M660.1,188c-3.14-.2-6-.36-8.2-.52-10.23-.71-3.45-2.22,8-4q.06,1.81.12,3.75C660.06,187.52,660.06,187.78,660.1,188Z" style="fill:#a50707"/><path d="M663,159a33.14,33.14,0,0,0-2.38,9.13C645.59,165.74,642.2,160.78,663,159Z" style="fill:#a50707"/><path d="M674.56,217.54c-9.42-1.57-18.69-3.67-24.68-6.65-15.53-7.72-3.91-7.16,15-8.81C668.61,207.82,673.41,211.78,674.56,217.54Z" style="fill:#a50707"/><path d="M672.4,133.94a42.68,42.68,0,0,0-.8,6.76c-20.41,2-24.4-.73-3.57-5.53C669.5,134.83,671,134.43,672.4,133.94Z" style="fill:#a50707"/><path d="M682.32,103.31c-.58,2.46-1.11,5-1.61,7.44-19.36,5-37.16,8.74-26.8,4.82C659.68,113.4,671.11,108.6,682.32,103.31Z" style="fill:#a50707"/><path d="M681.56,264.44a12,12,0,0,0-.51,2.32c-12.22-5.56-35.61-16.79-47-25.73-13.37-10.54,19.58,6.13,46.92,9.84C680.77,256.32,683.21,259.46,681.56,264.44Z" style="fill:#a50707"/><path d="M681.86,244.64c-12.88-3.06-28.81-7.76-38.61-15.46-19.18-15.11.9-4.28,32.36-3.05C677.44,233.39,681.94,238.94,681.86,244.64Z" style="fill:#a50707"/><path d="M690.29,85.71a9.32,9.32,0,0,0-2,2A210.58,210.58,0,0,0,659,100.55c-16,8.61,14.54-20.26,44.1-38.85C720.17,61,699.48,79.1,690.29,85.71Z" style="fill:#a50707"/><path d="M75.9,143.66c-1.37-3.35-6.47-4.41-11.35-2.38s-7.73,6.39-6.33,9.72,6.47,4.42,11.37,2.38S77.29,147,75.9,143.66Zm-10.65,8a2.84,2.84,0,1,1-2.13-5.16,2.84,2.84,0,1,1,2.13,5.16Z" style="fill:#eee8d2"/><path d="M65.25,151.69a2.84,2.84,0,1,1-2.13-5.16,2.84,2.84,0,1,1,2.13,5.16Z"/><path d="M137.64,207.82c13-11.09,18.25-26.63,20.14-40a98.22,98.22,0,0,0,0-27.55c-.88-10.12,1-19.13,7.57,22.71a38.44,38.44,0,0,1,.46,5C167.1,206.86,111,230.57,137.64,207.82Z" style="fill:#6f736c"/><path d="M175.47,236.11c-3-.32-6-.68-8.95-1.05a127.68,127.68,0,0,1-4.44-13.14v0c-3.05-8.25.6-11.29,6.83-11.44a24.19,24.19,0,0,0-.08,3c0,.4.06.83.1,1.25a.09.09,0,0,0,0,.1c0,.36.07.75.13,1.15.1.79.22,1.61.4,2.52.08.44.18.89.28,1.37a74,74,0,0,0,3.75,11.6c.22.58.47,1.16.73,1.77C174.6,234.18,175,235.12,175.47,236.11Z" style="fill:#bc110c"/><path d="M169.46,218.51c-.18-.91-.3-1.73-.4-2.52C169.16,216.78,169.3,217.6,169.46,218.51Z" style="fill:#a50707"/><path d="M247.43,326c-.28,1-.7,1.62-2.42,1.8-.84.1-1.39.8-1.87,1.77-12.63-9.94-25.89-21.59-33.41-31.25-17.41-22.32-.39,10.83,24,37.42-3.08-.93-7.38-3.26-13.43-7.94-24.19-18.65-30.24-49.4-41.84-68.38a153.31,153.31,0,0,1-11.95-24.36c2.94.37,5.92.73,8.95,1.05,1.13,2.48,2.42,5.14,3.91,8,17.82,34.22,31.25,38.21,39.66,54.2,4.88,9.27,7.62,7.94,10.43,5.91A276.57,276.57,0,0,0,247.43,326Z" style="fill:#bc110c"/><path d="M257.55,311.4a12.27,12.27,0,0,1-1,2.1c-4.54-3.85-9.38-8-14.22-12.3a18.8,18.8,0,0,0,2.24-3.39C248.88,302.53,253.28,307.13,257.55,311.4Z" style="fill:#bc110c"/><path d="M273.16,289.61c-.38.44-.83.92-1.37,1.47-4.74-2.68-9.78-5.65-15-8.79a2.53,2.53,0,0,1,2.54-.93,4.14,4.14,0,0,0,1.63.08C265,284.24,269,287,273.16,289.61Z" style="fill:#bc110c"/><path d="M282,268.72a23.18,23.18,0,0,1-1.65,3.87c-.5-.24-1.05-.48-1.59-.75A38,38,0,0,0,282,268.72Z" style="fill:#bc110c"/><path d="M443.67,242.52A12.12,12.12,0,0,0,439,251.4c-.51,9.11-9.24.8-10.25,10.5s-14.65,9.42-63.29-27.06c9.64-2.5,19.34-5.6,30.79-9.33,50.43-.31,47.39,11.05,47.39,15.74C443.63,241.7,443.65,242.12,443.67,242.52Z" style="fill:#7c794c"/><path d="M449.47,291.83c.59,10.1-6.53,8.56-39.46-5.87-38.31-16.8-53.13-49.06-53.13-49.06,2.88-.63,5.73-1.31,8.57-2.06,48.64,36.48,62.29,36.76,63.29,27.06s9.74-1.39,10.25-10.5a12.12,12.12,0,0,1,4.68-8.88c.22,4.06,1.35,7-1.4,8.88-2,1.41,2.28,6,5.11,9.68,1.31,1.69,2.29,3.18,2.13,4.05a4.69,4.69,0,0,1-.22.81,20.53,20.53,0,0,0-1.53,4.61,29.67,29.67,0,0,0-.2,7.54,70.19,70.19,0,0,0,1,7.08c0,.26.1.53.14.79A45.47,45.47,0,0,1,449.47,291.83Z" style="fill:#bc110c"/><path d="M518.47,208.67c-4.27,3-5.8,3-5.8,7.82s-2.5-3.4-6.29,4.22-42-17.2-43-17.87c18.38-5.7,35.87-9,57.06-6.63C520.41,196.21,522.75,205.65,518.47,208.67Z" style="fill:#7c794c"/><path d="M535.94,244.84c-1.94,3.79-10.23,4.24-28.48-2.9-24.86-9.76-49-37.56-49-37.56,1.63-.53,3.26-1,4.9-1.54,1,.67,39.29,25.41,43,17.87s6.29.58,6.29-4.22,1.53-4.8,5.8-7.82,1.94-12.46,1.94-12.46c3.08.34,6.25.79,9.52,1.39a18.16,18.16,0,0,1,.86,3.57,21.48,21.48,0,0,1,.18,2.74,25.24,25.24,0,0,1-.26,3.59,27.29,27.29,0,0,1-1.09,4.72c-.14.36-.24.62-.3.81-.3.72.16,2.19.61,3.75a14.94,14.94,0,0,1,.66,3,2,2,0,0,1-.6,2c-.43.28-.55.88-.45,1.73a14.65,14.65,0,0,0,.85,3.27c.38,1.11.89,2.36,1.45,3.69.63,1.49,1.31,3.06,2,4.65.58,1.34,1.15,2.69,1.67,4l.18.46C536.5,241.64,536.64,243.47,535.94,244.84Z" style="fill:#bc110c"/><path d="M521.8,139.27c-20.39-1.35-43.31-6.78-72.27-16.11,0,0,8.49-5.57,24.7-11.6,4.34,2.72,7.36,6.37,13,6.37,10.32,0,4.8,4.56,11.86,2.34s12.34,2.22,14.59,7.26S521.8,139.27,521.8,139.27Z" style="fill:#7c794c"/><path d="M537,139.49h0a144.19,144.19,0,0,1-15.22-.22s-5.85-6.7-8.13-11.74-7.54-9.48-14.59-7.26-1.54-2.34-11.86-2.34c-5.63,0-8.65-3.65-13-6.37,1.6-.58,3.27-1.19,5-1.77,15.55-5.31,23.82-8.13,30.63-5.65a16.11,16.11,0,0,1,4.26,2.4c.24.18.5.38.74.59.81.66,1.58,1.25,2.32,1.75a28.55,28.55,0,0,0,5.51,2.94c2.7,1.09,4.45,1.5,4.61,2.77a2.59,2.59,0,0,1-.34,1.65,3.65,3.65,0,0,0-.5,2.56c.38,1.25,2.22,1.37,3,3.85,0,.16.1.32.14.51a9.32,9.32,0,0,0,2.36,3.5,22.16,22.16,0,0,1,3,3.92,15.22,15.22,0,0,1,1.61,4.27A20,20,0,0,1,537,139.49Z" style="fill:#bc110c"/><path d="M434.65,88.35c-10,2.4-24.19,6.13-24.25,21.26-3.63-1.23-7.51-2.5-11.56-3.82-4.37-10.5-4.27-17.22-4-20.68a9.64,9.64,0,0,0,0-1.52c13.25-.84,29.86-1.47,44.08.63C439.23,86.07,438.28,87.49,434.65,88.35Z" style="fill:#bc110c"/><path d="M398.84,105.79c-37.93-12.28-91.76-27.82-128-30.2,0,0,39.46-55.45,74.61-68.23,5.1,1.35,9.19,3.38,9.44,6.49.32,3.85,3,4.33,5.84,4.72-15.68,6.51-31.29,15.68-40.14,28.31C304.92,69.2,327,42,367.47,24.7c0,.24,0,.48,0,.74-.37,5.67,1.81,7.66,3.79,9.52-11.39,4.84-22.1,10.87-30.71,18.45-31.68,27.87-5.24,7.9,32.84-8-2.66,7.73-10.24,11.78-.26,15.83A51.74,51.74,0,0,0,364,67.34c-16.5,14.2.14,5.91,27-2.07,3.14.7,4.62,1.83,3.47,5a14.42,14.42,0,0,0-.93,4.8,92.24,92.24,0,0,0-14.16,4.27c-17.76,7.32-5.26,5.52,15.47,4.21a9.64,9.64,0,0,1,0,1.52C394.57,88.57,394.47,95.29,398.84,105.79Z" style="fill:#7c794c"/><path d="M438.93,84.22c-14.22-2.1-30.83-1.47-44.08-.63-.16-2.84-1.41-5.16-1.31-8.48,12.08-2.79,26.8-4.6,40.43-6C433.1,75.35,438.36,80.61,438.93,84.22Z" style="fill:#a50707"/><path d="M428.44,57.06A228.68,228.68,0,0,0,391,65.27c-3.75-.85-9.88-1.09-16.8-3.59l-1.09-.43c14.2-7.64,35-12.92,52.23-16.89a11.22,11.22,0,0,1,1.15,6C426.39,53.65,427.25,55.63,428.44,57.06Z" style="fill:#a50707"/><path d="M374,43.09c.83-4.68-.89-6.36-2.76-8.13a233.09,233.09,0,0,1,38.61-12.12,3.8,3.8,0,0,1,.16,1c.3,5.77,7.18,2.22,8.51,8.17-15,2.11-30.91,7.48-45.15,13.42A13.29,13.29,0,0,0,374,43.09Z" style="fill:#a50707"/><path d="M400,14.63A155.59,155.59,0,0,0,367.47,24.7c.06-5.39-3.39-5.69-6.7-6.13a219.58,219.58,0,0,1,30.83-10c2.18,2.79,8.33-.14,8.33,5.19A5.89,5.89,0,0,0,400,14.63Z" style="fill:#a50707"/><path d="M391.6,8.56a219.58,219.58,0,0,0-30.83,10c-2.82-.39-5.52-.87-5.84-4.72-.25-3.11-4.34-5.14-9.44-6.49A42.52,42.52,0,0,1,354.82,5c37-4.72,36.7-8.41,36,0A4.82,4.82,0,0,0,391.6,8.56Z" style="fill:#bc110c"/><path d="M116.29,317.35c-18.82-3.55-27.55-16.61-55.37-55.45-2-2.8-3.93-5.66-5.79-8.59a239.18,239.18,0,0,1-15.85-29.52c-3.16-7-6.07-14.07-8.65-21.29-.74-2.06-1.45-4.11-2.14-6.19a169.77,169.77,0,0,1-4.63-16.37c-.29-1.25-.53-2.5-.75-3.75-.3-1.72-1.57-5.95.08-7.28,1.33-1.07,4.26.1,5.47.88a8,8,0,0,1,3.62,5.59c.35,2.42.75,5.44,1.17,9,.45,3.69,2.85,11.58,6.8,21.84a373.58,373.58,0,0,0,30,60.27C91.43,300.42,116.29,317.35,116.29,317.35Z" style="fill:#6f736c"/><path d="M316.84,103.23c-51.42-18.51-80.66.35-112.92,0s-4.54-13.77,53.94-17.8S374,115.57,374,115.57C390.55,124,368.25,121.72,316.84,103.23Z" style="fill:#999562"/><path d="M368.92,207c-37.3,10.62-77.95-2.58-86.2-13.11s4.21-25.39,4.21-25.39c9.4-10,40.33-.38,72.92,5.75s39-1.09,57.46,2.6S406.22,196.33,368.92,207Z" style="fill:#f4eedc"/><path d="M367.47,24.7C327,42,304.92,69.2,320.63,46.88c8.85-12.63,24.46-21.8,40.14-28.31C364.08,19,367.53,19.31,367.47,24.7Z" style="fill:#63603e"/><path d="M374,43.09a13.29,13.29,0,0,1-.63,2.33c-38.08,15.89-64.52,35.86-32.84,8,8.61-7.58,19.32-13.61,30.71-18.45C373.11,36.73,374.83,38.41,374,43.09Z" style="fill:#63603e"/><path d="M391,65.27c-26.88,8-43.52,16.27-27,2.07a51.74,51.74,0,0,1,9.13-6.09l1.09.43C381.12,64.18,387.25,64.42,391,65.27Z" style="fill:#63603e"/><path d="M394.85,83.59c-20.73,1.31-33.23,3.11-15.47-4.21a92.24,92.24,0,0,1,14.16-4.27C393.44,78.43,394.69,80.75,394.85,83.59Z" style="fill:#63603e"/><path d="M409.85,22.84A233.09,233.09,0,0,0,371.24,35c-2-1.86-4.16-3.85-3.79-9.52,0-.26,0-.5,0-.74A155.59,155.59,0,0,1,400,14.63C400.78,19.88,408.68,18,409.85,22.84Z" style="fill:#bc110c"/><path d="M425.34,44.36c-17.22,4-38,9.25-52.23,16.89-10-4-2.4-8.1.26-15.83,14.24-5.94,30.11-11.31,45.15-13.42a10.31,10.31,0,0,1,.22,2.25C418.74,41,423.2,40.5,425.34,44.36Z" style="fill:#bc110c"/><path d="M434.21,67.85a6.52,6.52,0,0,0-.24,1.23c-13.63,1.43-28.35,3.24-40.43,6a14.42,14.42,0,0,1,.93-4.8c1.15-3.21-.33-4.34-3.47-5a228.68,228.68,0,0,1,37.44-8.21C431.31,60.49,436.1,60.73,434.21,67.85Z" style="fill:#bc110c"/><path d="M282,268.7v0a38,38,0,0,1-3.24,3.12L276,270.57c-10.06-4.68-25-11.95-39.13-19.9-1.33-.75-2.67-1.51-4-2.3q-4-2.26-7.72-4.64c-.62-.38-1.25-.76-1.85-1.16-1.23-.77-2.44-1.56-3.59-2.34h0c-1.56-1-3.05-2.06-4.46-3.07-.93-.66-1.73-1.23-2.46-1.69-.5-.32-1-.63-1.37-.87s-.93-.54-1.31-.73c-1.55-.78-2.14-.64-1.86.23a6.45,6.45,0,0,0,.55,1.07,37.25,37.25,0,0,0,3.55,4.49h0c.48.57,1,1.15,1.63,1.8.28.32.59.64.91,1,1.33,1.42,2.86,3,4.56,4.62.78.77,1.59,1.55,2.45,2.36,6.82,6.49,15.77,14.34,25.9,22.22.72.59,1.47,1.15,2.21,1.74,1,.74,2,1.49,2.95,2.21,2.6,2,5.3,3.94,8,5.87a4.14,4.14,0,0,1-1.63-.08,2.53,2.53,0,0,0-2.54.93c-19.26-11.74-40.21-26.15-52.67-39.36-1.61-1.72-3-3.15-4.19-4.34h0c-.77-.76-1.46-1.43-2.06-2s-1-.95-1.45-1.29a3,3,0,0,0-.45-.37c-2.35-1.85-2-.4.35,3.33.56.93,1.29,2,2.13,3.23.23.32.45.66.69,1a1.44,1.44,0,0,0,.18.25l.95,1.33v0l1,1.39c2.56,3.59,5.78,7.84,9.47,12.54.61.75,1.19,1.51,1.82,2.3,3.41,4.31,7.16,8.93,11.13,13.69l3.31,3.91c.72.89,1.49,1.78,2.25,2.66l1.52,1.76q2.83,3.33,5.8,6.65c.67.75,1.31,1.49,2,2.22,2,2.22,4,4.42,6,6.59a18.8,18.8,0,0,1-2.24,3.39c-16.55-14.64-33.31-30.81-39.9-41.11-12.36-19.34,3.44,12.64,27.06,44.14-2.81,2-5.55,3.36-10.43-5.91-8.41-16-21.84-20-39.66-54.2-1.49-2.87-2.78-5.53-3.91-8-.45-1-.87-1.93-1.25-2.86-.26-.61-.51-1.19-.73-1.77a74,74,0,0,1-3.75-11.6c-.1-.48-.2-.93-.28-1.37-.16-.91-.3-1.73-.4-2.52-.06-.4-.11-.79-.13-1.15a.09.09,0,0,1,0-.1c0-.42-.08-.85-.1-1.25a24.19,24.19,0,0,1,.08-3,21.46,21.46,0,0,1,3.92.21c9.76,1.19,22.88,7,28.83,11.25,6.76,4.9,21.21,12.82,35.13,19.46a222.73,222.73,0,0,0,23.85,10C275.14,256.14,285.58,257.87,282,268.7Z" style="fill:#7c794c"/><path d="M169.06,216c.1.79.24,1.61.4,2.52C169.28,217.6,169.16,216.78,169.06,216Z" style="fill:#a50707"/><path d="M243.14,329.57c-1.47,2.91-2.42,8.21-9.38,6.17h0c-24.4-26.59-41.42-59.74-24-37.42C217.25,308,230.51,319.63,243.14,329.57Z" style="fill:#a50707"/><path d="M256.53,313.5a15.39,15.39,0,0,1-3.45,3.85c-5,4.18-5.16,7-5.65,8.65a276.57,276.57,0,0,1-18-21.77c2-1.44,4.09-3.25,7.05-1.7,2.46,1.29,4.3.37,5.79-1.33C247.15,305.5,252,309.65,256.53,313.5Z" style="fill:#a50707"/><path d="M242.31,301.2c-1.49,1.7-3.33,2.62-5.79,1.33-3-1.55-5,.26-7.05,1.7-23.62-31.5-39.42-63.48-27.06-44.14C209,270.39,225.76,286.56,242.31,301.2Z" style="fill:#63603e"/><path d="M271.79,291.08c-1,1.09-2.38,2.38-4.09,3.95-8.57,7.89-8.51,12.26-10.15,16.37-4.27-4.27-8.67-8.87-13-13.59,1.53-2.76,2.7-5.5,4.07-5,2.38.79,5.16-7.54,8.21-10.48C262,285.43,267.05,288.4,271.79,291.08Z" style="fill:#a50707"/><path d="M280.36,272.59l-.06.1c-6,11.53-2.44,11.51-7.14,16.92C269,287,265,284.24,261,281.44c3.77-.46,11.46-4.07,17.77-9.6C279.31,272.11,279.86,272.35,280.36,272.59Z" style="fill:#a50707"/><path d="M278.77,271.84c-6.31,5.53-14,9.14-17.77,9.6-2.72-1.93-5.42-3.89-8-5.87-1-.72-2-1.47-2.95-2.21-.74-.59-1.49-1.15-2.21-1.74-10.13-7.88-19.08-15.73-25.9-22.22-.86-.81-1.67-1.59-2.45-2.36-1.7-1.65-3.23-3.2-4.56-4.62-.32-.32-.63-.64-.91-1-.6-.65-1.15-1.23-1.63-1.8h0a37.25,37.25,0,0,1-3.55-4.49,6.45,6.45,0,0,1-.55-1.07c-.28-.87.31-1,1.86-.23.38.19.81.43,1.31.73s.87.55,1.37.87c.73.46,1.53,1,2.46,1.69,1.41,1,2.9,2,4.46,3.07h0c1.15.78,2.36,1.57,3.59,2.34.6.4,1.23.78,1.85,1.16q3.75,2.37,7.72,4.64c1.33.79,2.67,1.55,4,2.3,14.09,8,29.07,15.22,39.13,19.9Z" style="fill:#63603e"/><path d="M64.87,146.23a2.58,2.58,0,1,1,2.58,2.57A2.58,2.58,0,0,1,64.87,146.23Z" style="fill:#eee8d2"/><path d="M447.76,270.55a29.67,29.67,0,0,0-.2,7.54c-9.48-1.95-19.32-3.89-24.58-5.4C409.51,268.82,430,272,447.76,270.55Z" style="fill:#a50707"/><path d="M448.67,286a45.47,45.47,0,0,1,.8,5.87c-11.47-2-33.63-6.74-48.61-15.85-17.83-10.83,18.25,4.8,47.67,9.19C448.57,285.43,448.63,285.7,448.67,286Z" style="fill:#a50707"/><path d="M447.38,261.08c1.31,1.69,2.29,3.18,2.13,4.05a4.69,4.69,0,0,1-.22.81c-5.06-.61-10.38-1.42-12.82-2.91C432.15,260.39,438.71,261.2,447.38,261.08Z" style="fill:#a50707"/><path d="M529.54,223.51a14.65,14.65,0,0,0,.85,3.27,68.23,68.23,0,0,1-13.27-4.64C509.18,218,518.94,221,529.54,223.51Z" style="fill:#a50707"/><path d="M530.71,207.5a27.29,27.29,0,0,1-1.09,4.72c-.78-.34-1.53-.69-2.23-1C520,207.64,518.8,205,530.71,207.5Z" style="fill:#a50707"/><path d="M529.93,216.78a14.94,14.94,0,0,1,.66,3,72.38,72.38,0,0,1-8.16-3.13C517.51,214.19,522.73,215.38,529.93,216.78Z" style="fill:#a50707"/><path d="M528.56,200.52c.7.19,1.45.41,2.23.65a21.48,21.48,0,0,1,.18,2.74C523.49,200.36,521.58,198.69,528.56,200.52Z" style="fill:#a50707"/><path d="M531.84,230.47c.63,1.49,1.31,3.06,2,4.65a119.68,119.68,0,0,1-17-6C505.19,223.47,517.75,228.25,531.84,230.47Z" style="fill:#a50707"/><path d="M535.94,244.84c-12.47-2.42-34.83-7.9-47.87-17.92-17.87-13.71,21.79,8.18,47.44,12.2l.18.46C536.5,241.64,536.64,243.47,535.94,244.84Z" style="fill:#a50707"/><path d="M514.12,106.54c-12.69,2.92-26.9,7.76-22.1,4.34,3.55-2.52,11.19-4.94,17.84-6.74A16.11,16.11,0,0,1,514.12,106.54Z" style="fill:#a50707"/><path d="M522.69,111.82c-11.74,1.37-26.26,4.8-22.2,1.92,2.38-1.71,9.82-3.39,16.69-4.86A28.55,28.55,0,0,0,522.69,111.82Z" style="fill:#a50707"/><path d="M526.46,118.8c-10.12,0-16.21,2-11.94-.87,2.14-1.39,7.84-2.46,12.78-3.34a2.59,2.59,0,0,1-.34,1.65A3.65,3.65,0,0,0,526.46,118.8Z" style="fill:#a50707"/><path d="M532,126.66c-12.78-.12-16.31,2.2-9.66-1.25a53.25,53.25,0,0,1,7.16-2.76c0,.16.1.32.14.51A9.32,9.32,0,0,0,532,126.66Z" style="fill:#a50707"/><path d="M536.6,134.85c-7.36-.24-14.58-1-7.28-2.62a47.17,47.17,0,0,0,5.67-1.65A15.22,15.22,0,0,1,536.6,134.85Z" style="fill:#a50707"/></g></g></svg>