<svg xmlns="http://www.w3.org/2000/svg" viewBox="0 0 265.51 163.69"><title>royal-angelfish</title><g id="Layer_2" data-name="Layer 2"><g id="Ñëîé_2" data-name="Ñëîé 2"><path d="M265.18,82.81c-.37,1.52-1.24,2.17-1.24,3.9s-3.89,9.75-2.81,12.78,2.6,3.68.43,5.41-2.81,10.18-2.81,14.08c0,2.76-2.38,4.42-7.05,1.44,2.08-1.92,2.19-4.54,1.73-7.4-.65-4.06,2.76-3.25,1.79-5.84s3.41-3.09,3-6.34-2.16-5.2,0-8,1.41-10.72.28-15.59,1.62-4.06,1-8.15,1-3.38,0-6.31.8-4.54,1-8.77a20.46,20.46,0,0,0-.61-5.16c-.2-.83-.41-1.61-.62-2.27,4-2.18,5.76-2.48,5-.07-1.52,4.63,1.88,8.31.18,9.83s-.36,7.79.49,9.74-.85,3.25,0,5-.14,3.25.24,4.55-.38,2.59.11,3.68S265.56,81.3,265.18,82.81Z" style="fill:#ffcb4a"/><path d="M259.45,69.14c.64,4.09-2.12,3.28-1,8.15s1.87,12.83-.28,15.59-.44,4.71,0,8-3.95,3.74-3,6.34-2.44,1.78-1.79,5.84c.46,2.86.35,5.48-1.73,7.4a35,35,0,0,1-7-6.42,119.47,119.47,0,0,0-18-16.9c.07-.39.4-.73,1.46-.48,2.11.49,18.68,16.89,21.12,14.76s-3.41-6.15-12.51-11-7-5.36-1.95-3.41,16.89,8.12,17.54,6.5-3.24-4.22-12.18-7.47-10.23-6.66-4.71-4.87,18,7.14,18.77,5.52-5.12-4.23-13.25-6.36-8.12-5.34-2.92-4.52,16.24,3.24,16.17,1.78-5.45-3.57-13.73-4.06-6.66-1.95-5-2.6,17.54,2,17.54,0-6-2.11-14.13-2.11-6-2.6,1-2.76,15.43-1.46,14.38-2.92-18.44,2-19.9,1.3,1.46-1.47,12.18-3.9,9.91-7.15-2.76-2.44S230.85,71,232.8,70s24-12.51,22.58-14.13-13.81,8-20.95,11-3.9-.48-3.09-.81S259.81,48.9,259.81,48.9a20.46,20.46,0,0,1,.61,5.16c-.17,4.23-1.95,5.85-1,8.77S258.8,65,259.45,69.14Z" style="fill:#f98800"/><path d="M231,151.24c-9.38,12.79-26,14.06-42.27,11.14a76.88,76.88,0,0,1,12.17-.63c6.27.44,16.87-.41,24.14-6.39a30.15,30.15,0,0,0,10.94-17c.81-2.91,2.2-7.22,3.24-11.09C239.42,134.62,237.27,142.73,231,151.24Z" style="fill:#35c7db"/><path d="M239.24,127.31h0c-1,3.87-2.43,8.18-3.24,11.09a30.15,30.15,0,0,1-10.94,17c-7.27,6-17.87,6.83-24.14,6.39a76.88,76.88,0,0,0-12.17.63h0c-3.18-.56-6.34-1.29-9.44-2.12,5.29-1.28,11.71-2.64,23.4-.89,14.45,2.17,22.36-6.28,27.16-10.72s3.65-15.7,6-19.27,1.23-13.32,1.19-13.65A36.6,36.6,0,0,1,239.24,127.31Z" style="fill:#d83616"/><path d="M235.82,129.38c-2.31,3.57-1.16,14.83-6,19.27s-12.71,12.89-27.16,10.72c-11.69-1.75-18.11-.39-23.4.89-4.47-1.21-8.8-2.64-12.8-4.11,5.71.92,13.33,1.4,19.83-.79a25.23,25.23,0,0,1,8,.19c5,.79,22,1.11,29-6.9s6.67-8.34,6.53-12.56.83-11.16,3-13.65.88-12.07,0-15.24a46.27,46.27,0,0,1,4.14,8.53h0C237.05,116.06,238.09,125.86,235.82,129.38Z" style="fill:#35c7db"/><path d="M232.86,122.44c-2.17,2.49-3.14,9.42-3,13.65s.51,4.55-6.53,12.56-24,7.69-29,6.9a25.23,25.23,0,0,0-8-.19c-6.5,2.19-14.12,1.71-19.83.79-6.85-2.52-12.79-5.2-17-7.23,12.66,5.43,28.75,6,34.24,4.6s16.39-.11,31.76-4.44,8.45-14.18,11.73-20.25,2.55-25.66,2.53-26.12a53.71,53.71,0,0,1,3.07,4.48,0,0,0,0,1,0,0C233.74,110.37,235,120,232.86,122.44Z" style="fill:#d83616"/><path d="M227.26,128.83c-3.28,6.07,3.65,15.92-11.73,20.25s-26.28,3-31.76,4.44-21.58.83-34.24-4.6h0c-4-1.95-6.42-3.29-6.42-3.29a13,13,0,0,0-4.85-1.89l6.75-1s8.22,6.93,17.47,7.82,19.82,1.3,30.14-1,18.84-2.65,22.81-4.75a14.87,14.87,0,0,0,7.88-13.49c0-6.9,3.42-11.69,3.74-14.94s.53-12.8-1.19-18.3a59.52,59.52,0,0,1,3.94,4.65h0C229.81,103.16,230.5,122.84,227.26,128.83Z" style="fill:#35c7db"/><path d="M227,116.35c-.32,3.25-3.74,8-3.74,14.94a14.87,14.87,0,0,1-7.88,13.49c-4,2.1-12.5,2.43-22.81,4.75s-20.88,1.9-30.14,1S145,142.72,145,142.72l2-.3c4.09,3,10.12,5,16.38,6.58s22.74-.9,26.88-2.19,15.1-1.3,20.7-3.74,8.94-7.31,9.43-10.95a78,78,0,0,1,3.41-14.71c2.28-7.15-2.19-22.58-2.19-22.58a14.87,14.87,0,0,1,4.25,3.22C227.57,103.55,227.37,113.1,227,116.35Z" style="fill:#d83616"/><path d="M221.6,94.83a13.16,13.16,0,0,1-1.55.22,28.27,28.27,0,0,1-1.81-10.13c.22-5-2.6-13.37-4.65-16.29s-6.07-3.36-7.75-8S200.08,44,196.5,40.33s-6.74-10-7.14-12.91c0,0-1.3-3.37.2-5.56s2.6-2.76,1.18-.79c-2.43,3.35,1.83,12.25,4.67,15.15s8.53,13.35,9.73,18.12,4.44,8.66,9.1,12.34,6.6-.55,6.6-.55c0,1.17,1.48,3.38,1.8,3.84-.3,3.21-.53,8.09.44,10.89C224.63,85.3,223.43,91.8,221.6,94.83Z" style="fill:#5cd9f1"/><path d="M234.27,13.73C210.88-12.7,120.36,4.85,80.08,18.05,48,28.6,29.53,54.58,22,67c.2-.17,2-.62,3-1a6.53,6.53,0,0,1,.56-.35,6.2,6.2,0,0,1,1.94-2.43c1.13-.65,3.67-5.69,3.67-5.69C33.59,53.64,38.52,46,51,37A148.59,148.59,0,0,1,75.63,22.82c31.62-14.73,95.18-21.22,120-20.36,9.64.34,17.16,1.79,23,4.16h0c9.17,3.72,14.17,9.67,16.63,17.07,4,12.09-14.4,41.14-14.4,42.44s1.48,3.38,1.8,3.84c.17-1.88.37-3.19.37-3.19,3.25-1.08,11.48-21.44,15.38-33.35A19.65,19.65,0,0,0,234.27,13.73Z" style="fill:#5cd9f1"/><path d="M44.28,50.05c-4.33,5.58-3.41,9-3.41,17s-1.73,11-3.57,12a49.05,49.05,0,0,0-7.74,4.77c-2.44,2-4.06,5.47-5.51,3.89S22.9,83,22.41,82.17a30.05,30.05,0,0,1-1.89-5.32c-.46-1.69-.2-5.66-.06-7.3.44-.76.94-1.62,1.51-2.55l0,0c.2-.17,2-.62,3-1a7.36,7.36,0,1,0,4.22-1.33,7.23,7.23,0,0,0-3.66,1,6.2,6.2,0,0,1,1.94-2.43c1.13-.65,3.67-5.69,3.67-5.69C33.59,53.64,38.52,46,51,37,51.3,43.28,48.61,44.48,44.28,50.05Z" style="fill:#1a81f0"/><path d="M255.38,55.85C256.84,57.47,234.75,69,232.8,70s-1.78,2.76,10.89-2,13.48,0,2.76,2.44-13.65,3.25-12.18,3.9,18.84-2.77,19.9-1.3-7.4,2.76-14.38,2.92-9.1,2.76-1,2.76,14.13.16,14.13,2.11-15.91-.65-17.54,0-3.25,2.11,5,2.6,13.65,2.6,13.73,4.06-11-1-16.17-1.78-5.2,2.38,2.92,4.52,14,4.73,13.25,6.36-13.25-3.74-18.77-5.52-4.22,1.62,4.71,4.87,12.83,5.85,12.18,7.47-12.5-4.55-17.54-6.5-7.14-1.46,1.95,3.41,14.94,8.89,12.51,11-19-14.27-21.12-14.76c-1.06-.25-1.39.09-1.46.48a14.33,14.33,0,0,0-5-2.27c1.83-3,3-9.53,1.48-14-1-2.8-.74-7.68-.44-10.89.17-1.88.37-3.19.37-3.19s5.2-.43,19.93-10c7.07-4.57,12.59-8.18,16.25-10.19.21.66.42,1.44.62,2.27,0,0-27.66,16.86-28.47,17.18s-4.06,3.9,3.09.81S253.92,54.22,255.38,55.85Z" style="fill:#ffac1a"/><path d="M146.34,134c-5.09-4.77-27.23-49.29-29.5-69.42-1.72-15.22-1.28-32.41,2.92-41.07,1.36-2.79,3.1-4.69,5.28-5.37h0c9-2.76,17.6-5.68,17.76-6.82.14-1-22.39,2.4-32.19,10.57a13.67,13.67,0,0,0-3.54,4.21c-5.69,11.21-12.4,21.38-6.77,49.76,0,0,7.25,31.18,19.92,48.08s22,17.32,26.1,17.21S151.43,138.79,146.34,134Z" style="fill:#5cd9f1"/><path d="M160.36,15.89c8-2.11,24.69-6.5,24.2-4.71a61.47,61.47,0,0,1,34.05-4.56c-5.84-2.37-13.36-3.82-23-4.16-24.8-.86-88.36,5.63-120,20.36A148.59,148.59,0,0,0,51,37c.34,6.28-2.35,7.48-6.68,13s-3.41,9-3.41,17-1.73,11-3.57,12a49.05,49.05,0,0,0-7.74,4.77c-2.44,2-4.06,5.47-5.51,3.89S22.9,83,22.41,82.17a30.05,30.05,0,0,1-1.89-5.32c-.46-1.69-.2-5.66-.06-7.3-1.05,1.81-1.76,3.12-2.15,3.76C15.54,77.86,4.66,81.76,2,84.11s-2.6,5.68,0,6.5A7.74,7.74,0,0,1,5.8,93.13s-.33.56-1.79.65-2.6.65-2.36,2,1.79,3.81,4.47,3.81,8.85,3.17,11.37,7.23,9.59,7.55,9.59,7.55l.2.18h0a37.39,37.39,0,0,0,10.4-1.06c-.89-.57-1.39-1.27-1.16-2.07a65.13,65.13,0,0,0,2.67-14c.5-6.67,4.38-19.32,5.24-16.72S41.52,100,40.66,105.33c-.71,4.36,1.28,4.77,4.28,5.08a18.2,18.2,0,0,0,4.49-4c4-5,3.66-.62,0,5A3.14,3.14,0,0,1,51,114.09c.24,1.1-1.44,1.2-4.46,1.2a27.3,27.3,0,0,1-8.84,6.87,245.83,245.83,0,0,0,29,15c20.14,24.25,39.29,20.88,39.29,20.88h0c-2.59-.5-5.48-1.1-8.72-1.81-18.62-4.12-32.49-22.31-27.72-20.79s24.47,3.68,29.24,3.68a7.94,7.94,0,0,1,5.05,1.81,9,9,0,0,1,2.09,2.3c2.6-.21,17.11.44,25.34,0a26.41,26.41,0,0,1,7.06.5l6.75-1,2-.3,4-.62,2.95-.5h0l.58-.11c1.46-.3,4.46-.87,7.79-1.49l5.25-.93c2.53-.44,4.9-.81,6.57-1,2.82-.38,4.38-1.73,6.45-2.92a14,14,0,0,1,6.67-1.92c7.07-.38,12.69-3.3,11.4-10.45a11.1,11.1,0,0,1-2.87,1.52,2.91,2.91,0,0,1-.39.12c-5.48,1.51-6.11-10-6.11-10-.81-7.7-7.47-24.3-14.45-40.38s-8.29-32.16-8.75-44.66a10.63,10.63,0,0,1,5-9.57A28.15,28.15,0,0,1,181,15.56a6.32,6.32,0,0,0-1.9-1.44,12.92,12.92,0,0,1-2,.2c-2.17,0-5.47,1.12-9.55,2.89-1.72.75-3.58,1.62-5.55,2.58-6.66,3.25-1.3,22.41,1.78,38S184.4,119.36,186.51,124a5.35,5.35,0,0,1,.41,4.44c-.77,1.74-2.92,2.87-6.19,3.5-.23,0-.47.09-.71.12-6,1-9.26-5.52-9.26-5.52C165.4,112.86,147,51.14,145.58,38c-.78-7,1.21-12.22,4.45-15.88A21,21,0,0,1,160.36,15.89Zm-45.64,121.6c-11.8-1.52-23.22-11.07-28.88-27.4-1.36.19-2.82.38-4.3.56.83,4.12,4.27,10.93,7.52,15.48s5.2,8.66-2.71,5.84-15-20.18-15.16-20.59c-1.88,0-3.27-.21-3.79-.63a13.11,13.11,0,0,0-6.82-3c-2.27-.32-5.2-8.33-5.2-8.33-.32-1.22-.61-2.37-.89-3.49-.15-.6-.29-1.18-.43-1.76-.22-.94-.43-1.84-.62-2.71C52.3,95.65,49.85,104.2,48.56,105c-1.73,1.08-3.79-.11-2.6-2.71,1-2.16,5-10.56,6.35-16.81-.92-5.79-.78-9.1-.23-11.14a.17.17,0,0,1,0-.07c.21-.85,2.17-8.73,1.55-13.24-.65-4.76,8.67-26.5,12.45-31s16-8.55,19.92-9.52-8,6.28-11.58,9.52-11.58,21-11.7,25.67,1.47,11.61.74,13.82c1.34.52,2.77,1.23,4,.42s2-.33,3,.07c0,0,.39-16.59,5.26-27.85s15.05-20,19.6-21.74,12.45-4.57,15.27-5.76,2.92.54-3.15,3.14-17.75,24.25-19,33.78S87.68,74,96.05,91.26s15.21,34.43,20.3,38S126.53,139,114.72,137.49Zm31.62,3.68c-4.12.11-13.43-.32-26.1-17.21s-19.92-48.08-19.92-48.08c-5.63-28.38,1.08-38.55,6.77-49.76a13.67,13.67,0,0,1,3.54-4.21c9.8-8.17,32.33-11.55,32.19-10.57-.16,1.14-8.77,4.06-17.76,6.82h0c-2.18.68-3.92,2.58-5.28,5.37-4.2,8.66-4.64,25.85-2.92,41.07,2.27,20.13,24.41,64.65,29.5,69.42S150.45,141.07,146.34,141.17Zm-.65-124.56c-.35.18-.69.36-1,.55l-.48.28a4.53,4.53,0,0,0-.46.3c-.22.13-.43.27-.63.41l-.58.43a11.11,11.11,0,0,0-1.13,1l-.16.16c-.15.16-.28.31-.41.47l-.19.24a3.64,3.64,0,0,0-.24.35,4,4,0,0,0-.23.39,3.62,3.62,0,0,0-.19.4,2.7,2.7,0,0,0-.14.4,2.75,2.75,0,0,0-.11.41C138.11,31,139.08,48.3,145.91,72s14.32,44.33,17.86,50.63c0,0,3.74,6.94,6,10.29.78,1.14,0,2.53-1.57,3.57a11.16,11.16,0,0,1-8,1.35,12.1,12.1,0,0,1-6.38-3.51c-7.31-7.47-20.49-45.12-23.4-55s-11.29-45-3-54.83c.26-.31.53-.61.8-.9s.57-.59.87-.87l.45-.43c.23-.22.47-.43.71-.63l.36-.3c.15-.14.31-.26.48-.39s.6-.48.91-.71c.69-.52,1.41-1,2.16-1.49a1.13,1.13,0,0,1,.2-.13l.73-.46.21-.12,0,0h0c9.34-5.6,21.93-8.53,28.76-8.66s-9.16,2.37-18.4,7.21Z" style="fill:#f98800"/><path d="M74.44,30.07c-3.57,3.25-11.58,21-11.7,25.67s1.47,11.61.74,13.82c-1.1-.42-2.14-.71-3,0a41.15,41.15,0,0,0,0-7.78c-.43-3.35.11-9.31,3.14-16.78s8.46-15.81,10.24-16.79,8.28-4.32,8-4.87-12.34,3.8-14.72,7.91S55,56,55,59.53s.71,9.54-.15,10.75a.27.27,0,0,1-.07.08c-.7.88-2,1.47-2.63,3.92.21-.85,2.17-8.73,1.55-13.24-.65-4.76,8.67-26.5,12.45-31s16-8.55,19.92-9.52S78,26.83,74.44,30.07Z" style="fill:#414142"/><path d="M98.91,22.82c-4.22,3.14-13.32,17-16.24,27.83s.8,23.7.8,23.7c-1.07-1.24-2.1-2.6-3.51-2.15-2.21.7-3.12-2.7-5.49-2.15-.72-2.9.94-10.52,1.27-15.18S84.07,31.37,89,26.07,103.14,19.68,98.91,22.82Z" style="fill:#5cd9f1"/><path d="M80.17,110.8c-.68.08-1.37.14-2,.21-1.67.15-3.29.27-4.75.33-.78,0-1.51,0-2.18,0-1.88,0-3.27-.21-3.79-.63a13.11,13.11,0,0,0-6.82-3c-2.27-.32-5.2-8.33-5.2-8.33-.32-1.22-.61-2.37-.89-3.49,0,0,18.35-4.37,25.09,13.21C79.79,109.65,80,110.21,80.17,110.8Z" style="fill:#ffac1a"/><path d="M92.85,106c0,2-13.27,3.12-13.27,3.12C72.84,91.52,54.49,95.89,54.49,95.89c-.15-.6-.29-1.18-.43-1.76,3.66-.8,1.65-6.77.43-14s.46-5,1.54-3.24,2.28,16.84,3.58,16.63,1.19-.86,1.19-10.16.54-12.69,1.51-11.77,1.19,12.72.87,18.14,2.07,6.33,3.14,3.35,6.17-22.51,7.53-19.38-6.77,20.9-5.58,20.68,4-2,9.53-9,7.68-8.56,6.38-5.11S71.84,93.42,72.06,95.41s2.24.83,2.24.83C86.39,86.82,87.76,86,88,87.25S78.45,95.37,76.5,97.32s-.87,3.14,1.12,2.27,11.76-7,12.09-5.2-7,5-10.13,6.24-2.11,2.65,0,2.48,12.51-4.82,13.27-3.41-6.07,3.46-10.07,4.53-4.23,2.53,1,2.18S92.85,104,92.85,106Z" style="fill:#f98800"/><path d="M93.07,108.8a25.39,25.39,0,0,1-2.58.55c-1.26.23-2.87.49-4.65.74-1.36.19-2.82.38-4.3.56l-1.37.15c-.19-.59-.38-1.15-.59-1.7,0,0,13.27-1.17,13.27-3.12s-3.9.09-9.1.43-5-1.12-1-2.18,10.83-3.12,10.07-4.53-11.16,3.23-13.27,3.41-3.09-1.23,0-2.48S90,96.22,89.71,94.39s-10.11,4.34-12.09,5.2-3.07-.32-1.12-2.27S88.19,88.55,88,87.25s-1.58-.43-13.67,9c0,0-2,1.16-2.24-.83S82.89,83.74,84.18,80.3s-.86-1.93-6.38,5.11-8.33,8.75-9.53,9,6.94-17.56,5.58-20.68-6.46,16.41-7.53,19.38-3.46,2.06-3.14-3.35.1-17.23-.87-18.14S60.8,74.07,60.8,83.37s.11,9.95-1.19,10.16S57.11,78.67,56,76.9s-2.76-4-1.54,3.24,3.23,13.19-.43,14c-.22-.94-.43-1.84-.62-2.71h0c-.08-.4-.17-.79-.25-1.16-.36-1.76-.65-3.34-.88-4.77-.92-5.79-.78-9.1-.23-11.14a.17.17,0,0,1,0-.07c.67-2.45,1.93-3,2.63-3.92a.27.27,0,0,0,.07-.08c.92-1.08,2-.64,3.1-.35h0a2.62,2.62,0,0,0,2.57-.35c.87-.73,1.91-.44,3,0,1.34.52,2.77,1.23,4,.42s2-.33,3,.07a3.72,3.72,0,0,0,3.42.2,3,3,0,0,1,.57-.2c2.37-.55,3.28,2.85,5.49,2.15,1.41-.45,2.44.91,3.51,2.15a4.25,4.25,0,0,0,2.45,1.75c2.27.21-.33,5.09,2.6,6.07s-.11,5.19,2,5.73-.32,5.19,2.06,5.95-1,3.25,1.41,4.34c1.53.69,1.14,2,.86,2.9h0c-.15.52-.27.93,0,1.09.77.44.33,2.92,1,3.18S95.34,108,93.07,108.8Z" style="fill:#ffcb4a"/><path d="M86.35,132c-7.81-2.78-15-20.18-15.16-20.59.67,0,1.4,0,2.18,0,0,0,7.13,16.3,13,19s1.41-4.55-1.08-6.93-6.7-8.58-7.15-12.41c.68-.07,1.37-.13,2-.21l1.37-.15c.83,4.12,4.27,10.93,7.52,15.48S94.26,134.79,86.35,132Z" style="fill:#5cd9f1"/><path d="M110.39,135.76c-10.07-2.81-19.9-26.41-19.9-26.41a25.39,25.39,0,0,0,2.58-.55c2.27-.76,3.46-3.17,2.81-3.43s-.21-2.74-1-3.18c-.27-.16-.15-.57,0-1.09,1.8,6.66,13.32,26,17.55,29.25S120.46,138.57,110.39,135.76Z" style="fill:#5cd9f1"/><path d="M114.72,137.49c-11.8-1.52-23.22-11.07-28.88-27.4,1.78-.25,3.39-.51,4.65-.74,0,0,9.83,23.6,19.9,26.41s6.39-2.06,2.06-5.41S96.7,107.76,94.9,101.1h0c.28-.93.67-2.21-.86-2.9-2.38-1.09,1-3.58-1.41-4.34s.11-5.41-2.06-5.95.87-4.75-2-5.73-.33-5.86-2.6-6.07a4.25,4.25,0,0,1-2.45-1.75s-3.72-12.87-.8-23.7S94.69,26,98.91,22.82s-5.09-2.06-10,3.25S76.06,50.21,75.74,54.87s-2,12.28-1.27,15.18a3,3,0,0,0-.57.2,3.72,3.72,0,0,1-3.42-.2s.39-16.59,5.26-27.85,15.05-20,19.6-21.74,12.45-4.57,15.27-5.76,2.92.54-3.15,3.14-17.75,24.25-19,33.78S87.68,74,96.05,91.26s15.21,34.43,20.3,38S126.53,139,114.72,137.49Z" style="fill:#414142"/><path d="M46.53,115.29a27.3,27.3,0,0,1-8.84,6.87h0a72.9,72.9,0,0,1-10.4-7.65,37.39,37.39,0,0,0,10.4-1.06c1.89,1.19,5.53,1.84,8,1.84Z" style="fill:#5cd9f1"/><path d="M127.07,162.07c-3.39-1.24-8.85-1.61-21.13-4h0c-12.58-3.29-29.38-13.26-29.22-14.32S79,144,79,144c11.15,7.84,20.74,11.16,26.73,12.37l.23,0c6.35,1.25,8.5.1,3.9-.4a24.34,24.34,0,0,1-3.91-.84l-.39-.11c-9.9-2.95-25.13-11.48-26.89-13.51-2-2.36,2.2-.25,2.2-.25,17.7,9.42,26.39,6.1,22.17,5.93s-29.32-9.9-25.09-8.69,25.84,2.41,25.84,2.41a9,9,0,0,1,2.09,2.3s.87,3.46,4.12,3.69,3.46,4.11,5.41,4.54,4.54,3.9,6.93,4.55,13,5.2,10.45,5.2-8.5-3.47-12.19-3.47,4.34,2.17,10.62,3.9S131.19,163.59,127.07,162.07Z" style="fill:#ffac1a"/><path d="M105.93,156.39l-.23,0c-6-1.21-15.58-4.53-26.73-12.37,0,0-2.11-1.3-2.28-.25s16.64,11,29.22,14.32c-2.59-.5-5.48-1.1-8.72-1.81-18.62-4.12-32.49-22.31-27.72-20.79s24.47,3.68,29.24,3.68a7.94,7.94,0,0,1,5.05,1.81s-21.62-1.19-25.84-2.41,20.86,8.53,25.09,8.69-4.47,3.49-22.17-5.93c0,0-4.22-2.11-2.2.25,1.76,2,17,10.56,26.89,13.51l.39.11a24.34,24.34,0,0,0,3.91.84C114.43,156.49,112.28,157.64,105.93,156.39Z" style="fill:#ffcb4a"/><path d="M29.17,64.61a7.23,7.23,0,0,0-3.66,1A1.32,1.32,0,0,1,25,66a7.35,7.35,0,1,0,4.22-1.34Zm-.85,11.27a4.28,4.28,0,1,1,4.29-4.28A4.28,4.28,0,0,1,28.32,75.88Z" style="fill:#e6dfd9"/><path d="M25,66a6.65,6.65,0,0,1,.56-.36A1.32,1.32,0,0,1,25,66Z" style="fill:#5cd9f1"/><path d="M32.61,71.6a4.28,4.28,0,1,1-4.29-4.28A4.29,4.29,0,0,1,32.61,71.6Z" style="fill:#414142"/><path d="M49.44,111.44a5.76,5.76,0,0,0-2.4-.8c-.73-.1-1.44-.17-2.1-.23a18.2,18.2,0,0,0,4.49-4C53.41,101.42,53.09,105.79,49.44,111.44Z" style="fill:#5cd9f1"/><path d="M46.53,115.29h-.89c-2.42,0-6.06-.65-8-1.84-.89-.57-1.39-1.27-1.16-2.07a65.13,65.13,0,0,0,2.67-14c.5-6.67,4.38-19.32,5.24-16.72S41.52,100,40.66,105.33c-.71,4.36,1.28,4.77,4.28,5.08.66.06,1.37.13,2.1.23a5.76,5.76,0,0,1,2.4.8A3.14,3.14,0,0,1,51,114.09C51.23,115.19,49.55,115.29,46.53,115.29Z" style="fill:#1a81f0"/><path d="M53.44,91.42h0C52.3,95.65,49.85,104.2,48.56,105c-1.73,1.08-3.79-.11-2.6-2.71,1-2.16,5-10.56,6.35-16.81.23,1.43.52,3,.88,4.77C53.27,90.63,53.36,91,53.44,91.42Z" style="fill:#1a81f0"/><path d="M73.85,28.23c-1.78,1-7.21,9.32-10.24,16.79S60,58.45,60.47,61.8a41.15,41.15,0,0,1,0,7.78,2.62,2.62,0,0,1-2.57.35h0c-1.11-.29-2.18-.73-3.1.35.86-1.21.15-7.26.15-10.75s9.74-24.15,12.13-28.26,14.4-8.45,14.72-7.91S75.63,27.26,73.85,28.23Z" style="fill:#1a81f0"/><path d="M86.35,130.35c-5.85-2.71-13-19-13-19,1.46-.06,3.08-.18,4.75-.33.44,3.83,4.65,10,7.15,12.41S92.2,133.05,86.35,130.35Z" style="fill:#5cd9f1"/><path d="M146.34,141.17c-4.12.11-13.43-.32-26.1-17.21s-19.92-48.08-19.92-48.08c-5.63-28.38,1.08-38.55,6.77-49.76a13.67,13.67,0,0,1,3.54-4.21c-10.46,15-5.89,48.52-3.54,57.42,2.76,10.5,15.46,47.57,24.2,53.56s17.38,12.29-1.15-17.58-18.67-52.15-19.48-68.47c-.49-9.8,4.8-18.18,9.1-23.3-4.2,8.66-4.64,25.85-2.92,41.07,2.27,20.13,24.41,64.65,29.5,69.42S150.45,141.07,146.34,141.17Z" style="fill:#414142"/><path d="M119.76,23.54c-4.3,5.12-9.59,13.5-9.1,23.3.81,16.32,1,38.61,19.48,68.47s9.89,23.58,1.15,17.58-21.44-43.06-24.2-53.56c-2.35-8.9-6.92-42.4,3.54-57.42,9.8-8.17,32.33-11.55,32.19-10.57-.16,1.14-8.77,4.06-17.76,6.82h0C122.86,18.85,121.12,20.75,119.76,23.54Z" style="fill:#5cd9f1"/><path d="M168.21,136.46c-2.88-2.66-9-10.91-17.76-36.27C138,64,131.61,39.93,135.84,28.23c3.06-8.49,5.7-10.73,9.85-11.62-.35.18-.69.36-1,.55l-.48.28a4.53,4.53,0,0,0-.46.3c-.22.13-.43.27-.63.41l-.58.43a11.11,11.11,0,0,0-1.13,1l-.16.16c-.15.16-.28.31-.41.47a2.23,2.23,0,0,0-.19.24,3.64,3.64,0,0,0-.24.35,4,4,0,0,0-.23.39,3.62,3.62,0,0,0-.19.4,2.7,2.7,0,0,0-.14.4,2.75,2.75,0,0,0-.11.41C138.11,31,139.08,48.3,145.91,72s14.32,44.33,17.86,50.63c0,0,3.74,6.94,6,10.29C170.56,134,169.82,135.42,168.21,136.46Z" style="fill:#414142"/><path d="M168.21,136.46a11.16,11.16,0,0,1-8,1.35c-6.53-7.35-14-27.29-18.24-38.92-5-13.81-9.75-28.59-11.54-51.18-1.75-22,4.51-29.27,4.85-29.64l0,0h0c9.34-5.6,21.93-8.53,28.76-8.66s-9.16,2.37-18.4,7.21h0c-4.15.89-6.79,3.13-9.85,11.62-4.23,11.7,2.11,35.74,14.61,72C159.2,125.55,165.33,133.8,168.21,136.46Z" style="fill:#5cd9f1"/><path d="M160.25,137.81a12.1,12.1,0,0,1-6.38-3.51c-7.31-7.47-20.49-45.12-23.4-55s-11.29-45-3-54.83c.26-.31.53-.61.8-.9s.57-.59.87-.87l.45-.43c.23-.22.47-.43.71-.63l.36-.3c.15-.14.31-.26.48-.39s.6-.48.91-.71c.69-.52,1.41-1,2.16-1.49a1.13,1.13,0,0,1,.2-.13l.73-.46.21-.12c-.34.37-6.6,7.66-4.85,29.64C132.26,70.3,137,85.08,142,98.89,146.25,110.52,153.72,130.46,160.25,137.81Z" style="fill:#414142"/><path d="M186.92,128.4c-.77,1.74-2.92,2.87-6.19,3.5-2.21-2.55-5.88-7.81-8.35-16.61C168.65,102,154.68,58,153.54,51.79,152.65,47,148,30.86,150,22.1a21,21,0,0,1,10.33-6.21c8-2.11,24.69-6.5,24.2-4.71-.38,1.4-2.89,2.51-5.44,2.94a12.92,12.92,0,0,1-2,.2c-2.17,0-5.47,1.12-9.55,2.89-4,.84-12.9,3.4-13,9.56-.16,8,6.83,36.39,10.89,47.92C169,85,176.33,118.26,186.92,128.4Z" style="fill:#5cd9f1"/><path d="M180.73,131.9c-.23,0-.47.09-.71.12-6,1-9.26-5.52-9.26-5.52C165.4,112.86,147,51.14,145.58,38c-.78-7,1.21-12.22,4.45-15.88-2,8.76,2.62,24.87,3.51,29.69,1.14,6.17,15.11,50.19,18.84,63.5C174.85,124.09,178.52,129.35,180.73,131.9Z" style="fill:#414142"/><path d="M186.92,128.4C176.33,118.26,169,85,165.4,74.69c-4.06-11.53-11.05-40-10.89-47.92.13-6.16,9-8.72,13-9.56-1.72.75-3.58,1.62-5.55,2.58-6.66,3.25-1.3,22.41,1.78,38S184.4,119.36,186.51,124A5.35,5.35,0,0,1,186.92,128.4Z" style="fill:#414142"/><path d="M200.88,119.56h0a6.83,6.83,0,0,1-2.24,2.88,11.1,11.1,0,0,1-2.87,1.52,2.91,2.91,0,0,1-.39.12c-.54-6.86-7.78-23.91-9.52-29.69-2-6.45-6.17-20.19-8.61-27.07s-4.54-18.46-6.15-25.77,0-22.07,0-22.07A28.15,28.15,0,0,1,181,15.56c3.13-.7,5.95-1,7.49-1.24,4.93-.77,2.88,2.22-3.78,4.49l-2.29.78-.79.27-.67.24h0c-2.74-.19-4.52,1.8-6.3,4.4-2.12,3.09,2.59,18.84,4.54,27s6.83,24.37,13,41.26C196.81,105.34,199.71,115.32,200.88,119.56Z" style="fill:#5cd9f1"/><path d="M195.38,124.08c-5.48,1.51-6.11-10-6.11-10-.81-7.7-7.47-24.3-14.45-40.38s-8.29-32.16-8.75-44.66a10.63,10.63,0,0,1,5-9.57s-1.62,14.76,0,22.07,3.72,18.89,6.15,25.77,6.66,20.62,8.61,27.07C187.6,100.17,194.84,117.22,195.38,124.08Z" style="fill:#414142"/><path d="M201.47,115.71v0a9,9,0,0,1-.59,3.83c-1.17-4.24-4.07-14.22-8.68-26.84-6.17-16.89-11-33.14-13-41.26s-6.66-23.87-4.54-27c1.78-2.6,3.56-4.59,6.3-4.4-3.47,1.32-4.45,2.46-5.33,7.49C174.49,34.08,185.7,63.32,188,69.14s8.29,29.91,11.7,39A25.3,25.3,0,0,1,201.47,115.71Z" style="fill:#414142"/><path d="M182.61,20.46a5.27,5.27,0,0,0-1-.26Z" style="fill:#5cd9f1"/><path d="M220.84,66.13s-2,4.22-6.6.55-7.91-7.58-9.1-12.35-6.89-15.22-9.73-18.11-7.1-11.8-4.67-15.15c1.42-2,.32-1.4-1.18.79s-.2,5.56-.2,5.56c.4,2.93,3.57,9.26,7.15,12.91s7.65,15.73,9.33,20.34,5.69,5,7.75,8,4.87,11.26,4.65,16.28a28.29,28.29,0,0,0,1.81,10.14c-1.15.1-2.61,0-3.16-.66-1-1.26-2.6-12.88-4.06-19S204.7,58.93,205,62.56A168.13,168.13,0,0,0,208,80.23c1.3,5.7,5.69,11.19,2,15.41a6.89,6.89,0,0,0-.78,1.08h0c.33-9.15-8.24-37.14-11.16-41.12s-4.3-10.07-5.2-13.88-6.08-11.37-7.3-16.25,6.5-6.49,5.28-7.06-4.62.07-7.19,3.05a2.62,2.62,0,0,1-1.11-1.87l2.29-.78c6.66-2.27,8.71-5.26,3.78-4.49-1.54.24-4.36.54-7.49,1.24a6.32,6.32,0,0,0-1.9-1.44c2.55-.43,5.06-1.54,5.44-2.94a61.47,61.47,0,0,1,34.05-4.56h0c9.17,3.72,14.17,9.67,16.63,17.07C239.27,35.78,220.84,64.83,220.84,66.13Z" style="fill:#0d74d1"/><path d="M199.18,132.12c-4.38,3.76-18.61,2.69-18.61,2.69a14,14,0,0,1,6.67-1.92c7.07-.38,12.69-3.3,11.4-10.45a6.83,6.83,0,0,0,2.24-2.88h0a9,9,0,0,0,.59-3.84h0c0-.32.55-6.08,2.86-8.55a2.73,2.73,0,0,0,1.19.83C206.89,121.91,203.57,128.37,199.18,132.12Z" style="fill:#d83616"/><path d="M209.12,96.72h0c-1.71,2.8-1.87,6.75-2.27,9.15-.94-2.11-2.63-6.46-2.63-10.4,0-5.44-4.64-20.56-6.09-25.43s-6.1-18.94-7.8-22.34S189,41.8,187.8,38.06,180,26.78,182.61,22.71a11.32,11.32,0,0,1,.94-1.25c2.57-3,6.1-3.55,7.19-3.05s-6.5,2.19-5.28,7.07,6.41,12.42,7.3,16.24S195,51.63,198,55.6,209.45,87.57,209.12,96.72Z" style="fill:#5cd9f1"/><path d="M204.33,107.16c-2.31,2.47-2.83,8.23-2.86,8.55a25.3,25.3,0,0,0-1.8-7.56c-3.41-9.1-9.42-33.2-11.7-39s-13.48-35.06-12.34-41.55c.88-5,1.86-6.17,5.33-7.49h0a5.13,5.13,0,0,1,.65.1c-.06,1.75-.24,9.93,1.71,15.26,2.2,6,10.25,26.56,12.07,36.63s4.23,25.78,5.4,28.54C200.81,100.63,202.47,105.2,204.33,107.16Z" style="fill:#f98800"/><path d="M206.85,105.88c-.23,1.44-.55,2.33-1.33,2.11a2.73,2.73,0,0,1-1.19-.83c-1.86-2-3.52-6.53-3.52-6.53-1.17-2.76-3.58-18.47-5.4-28.54s-9.87-30.61-12.07-36.63c-2-5.33-1.77-13.51-1.71-15.26,0-.22,0-.34,0-.34l.79-.27a2.62,2.62,0,0,0,1.11,1.87,11.32,11.32,0,0,0-.94,1.25c-2.57,4.07,4,11.62,5.19,15.35s.82,6.26,2.53,9.65,6.33,17.48,7.8,22.34,6.09,20,6.09,25.43C204.22,99.42,205.91,103.77,206.85,105.88Z" style="fill:#414142"/><path d="M210,121.47c-4.55,6.42-6.11,11.94-10.53,13.48s-13.51,2.43-16.84,3.66-12.83,1.87-15.06.16c2.53-.44,4.9-.81,6.57-1,2.82-.38,4.38-1.73,6.45-2.92,0,0,14.23,1.07,18.61-2.69s7.71-10.21,6.34-24.13c.78.22,1.1-.67,1.33-2.11.4-2.4.56-6.35,2.27-9.15C209.12,96.73,214.53,115.05,210,121.47Z" style="fill:#35c7db"/><path d="M213.64,120.65c-1.14,1.95-2.44,6.26-3.82,9.26s-7.23,8.29-10.37,8.45S182,141.77,175,142.18s-11.21-1.71-11.21-1.71a5.35,5.35,0,0,1-1.47-.77l5.25-.93c2.23,1.71,11.74,1,15.06-.16S195,136.49,199.45,135s6-7.06,10.53-13.48-.86-24.74-.86-24.74h0a11.79,11.79,0,0,1,3.61-1.89C216.61,108.23,214.77,118.71,213.64,120.65Z" style="fill:#d83616"/><path d="M216.89,94.39a9.89,9.89,0,0,0-4.16.44,11.79,11.79,0,0,0-3.61,1.89,6.89,6.89,0,0,1,.78-1.08c3.74-4.22-.65-9.7-2-15.41A168.42,168.42,0,0,1,205,62.57c-.33-3.63,6.33,6.6,7.8,12.77S215.91,93.14,216.89,94.39Z" style="fill:#414142"/><path d="M215.86,122.44c-4.44,12.46-7.75,15.7-11,16.89s-11.25,2.13-13.69,2.89-24.24,4.78-37.21-.92l.58-.11c1.46-.3,4.46-.87,7.79-1.49a5.35,5.35,0,0,0,1.47.77s4.15,2.11,11.21,1.71,21.34-3.66,24.47-3.82,9-5.45,10.37-8.45,2.68-7.31,3.82-9.26,3-12.42-.91-25.82a9.89,9.89,0,0,1,4.16-.44S220.3,110,215.86,122.44Z" style="fill:#35c7db"/><path d="M221.35,108.88c-.81,3.24-1.78,11.61-5.11,22.49s-11.46,11.54-15.92,11.54-14.29,3.17-30.23,3.49S151,141.8,151,141.8l2.95-.5h0c13,5.7,34.78,1.68,37.21.92s10.43-1.7,13.69-2.89,6.59-4.43,11-16.89,1-28,1-28c.55.71,2,.76,3.16.66C221.41,99.92,222.17,105.63,221.35,108.88Z" style="fill:#d83616"/><path d="M223.79,117.41a78,78,0,0,0-3.41,14.71c-.49,3.64-3.82,8.51-9.43,10.95s-16.56,2.44-20.7,3.74-20.63,3.82-26.88,2.19-12.29-3.58-16.38-6.58l4-.62s3.18,4.93,19.12,4.6,25.77-3.49,30.23-3.49,12.58-.65,15.92-11.54,4.3-19.25,5.11-22.49.06-9-1.3-13.83a13.16,13.16,0,0,0,1.55-.22S226.07,110.26,223.79,117.41Z" style="fill:#35c7db"/><path d="M29.76,73.83A2.23,2.23,0,1,1,32,76.05,2.22,2.22,0,0,1,29.76,73.83Z" style="fill:#e6dfd9"/><path d="M194.23,11.53a.82.82,0,1,1-.82-.77A.79.79,0,0,1,194.23,11.53Z" style="fill:#414142"/><path d="M199.2,14.47c0,.6-.36,1.09-.81,1.09s-.82-.49-.82-1.09.37-1.09.82-1.09S199.2,13.87,199.2,14.47Z" style="fill:#414142"/><ellipse cx="200.77" cy="10.49" rx="1.57" ry="0.68" style="fill:#414142"/><ellipse cx="206.28" cy="11.4" rx="0.58" ry="0.9" style="fill:#414142"/><path d="M205.7,15.34c0,.31-.16.55-.34.55s-.34-.24-.34-.55.15-.55.34-.55S205.7,15,205.7,15.34Z" style="fill:#414142"/><path d="M210.14,17.68c0,1-.23,1.8-.51,1.8s-.5-.81-.5-1.8.22-1.79.5-1.79S210.14,16.7,210.14,17.68Z" style="fill:#414142"/><path d="M203.42,19.57a1,1,0,1,1-1-.88A.93.93,0,0,1,203.42,19.57Z" style="fill:#414142"/><ellipse cx="207.41" cy="21.05" rx="0.56" ry="0.85" style="fill:#414142"/><path d="M195.38,19.51c0,.45-.62.82-1.39.82s-1.4-.37-1.4-.82.63-.82,1.4-.82S195.38,19.06,195.38,19.51Z" style="fill:#414142"/><path d="M198.39,18.47c0,.12-.19.22-.41.22s-.41-.1-.41-.22.19-.22.41-.22S198.39,18.35,198.39,18.47Z" style="fill:#414142"/><path d="M201.48,14.77c0,.32-.16.57-.36.57s-.35-.25-.35-.57.16-.57.35-.57S201.48,14.45,201.48,14.77Z" style="fill:#414142"/><path d="M214.14,10.85a1.82,1.82,0,0,1-3.57,0,1.82,1.82,0,0,1,3.57,0Z" style="fill:#414142"/><path d="M215.87,17.54c0,.51-.6.93-1.35.93s-1.35-.42-1.35-.93.6-.93,1.35-.93S215.87,17,215.87,17.54Z" style="fill:#414142"/><ellipse cx="218.74" cy="13.25" rx="0.81" ry="0.95" style="fill:#414142"/><path d="M217.93,9.05c0,.42-.23.76-.52.76s-.52-.34-.52-.76.23-.76.52-.76S217.93,8.63,217.93,9.05Z" style="fill:#414142"/><ellipse cx="222.7" cy="13.25" rx="1.1" ry="0.95" style="fill:#414142"/><path d="M221.07,18.51c0,.53-.19,1-.43,1s-.43-.44-.43-1,.19-1,.43-1S221.07,18,221.07,18.51Z" style="fill:#414142"/><path d="M226.63,18.89c0,.66-.39,1.2-.88,1.2s-.89-.54-.89-1.2.4-1.21.89-1.21S226.63,18.22,226.63,18.89Z" style="fill:#414142"/><path d="M228.54,15a.9.9,0,0,1-.95.85.85.85,0,1,1,0-1.69A.9.9,0,0,1,228.54,15Z" style="fill:#414142"/><path d="M196.38,24.05a.56.56,0,0,1-.5.6.61.61,0,0,1,0-1.2A.56.56,0,0,1,196.38,24.05Z" style="fill:#414142"/><ellipse cx="200.59" cy="23.62" rx="0.53" ry="1.03" style="fill:#414142"/><path d="M189.94,12.21a1.07,1.07,0,1,1-1.07-1A1.06,1.06,0,0,1,189.94,12.21Z" style="fill:#414142"/><ellipse cx="205.35" cy="27.19" rx="1.5" ry="1.68" style="fill:#414142"/><ellipse cx="197.39" cy="28.03" rx="1" ry="0.84" style="fill:#414142"/><ellipse cx="201.3" cy="29.9" rx="0.18" ry="1.03" style="fill:#414142"/><path d="M194.23,28.54c0,.75-.37,1.36-.82,1.36s-.82-.61-.82-1.36.37-1.35.82-1.35S194.23,27.8,194.23,28.54Z" style="fill:#414142"/><ellipse cx="197.18" cy="34.42" rx="0.8" ry="0.57" style="fill:#414142"/><ellipse cx="201.04" cy="37.48" rx="0.44" ry="0.7" style="fill:#414142"/><path d="M205,33.27a1.36,1.36,0,1,1-1.34-1.15A1.26,1.26,0,0,1,205,33.27Z" style="fill:#414142"/><path d="M210.14,32.26a1.09,1.09,0,1,1-1.09-1A1.05,1.05,0,0,1,210.14,32.26Z" style="fill:#414142"/><path d="M212.36,26.68a.47.47,0,1,1-.46-.52A.49.49,0,0,1,212.36,26.68Z" style="fill:#414142"/><ellipse cx="215.2" cy="21.52" rx="0.68" ry="1.06" style="fill:#414142"/><path d="M211.9,23.1c0,.29-.4.52-.88.52s-.88-.23-.88-.52.39-.51.88-.51S211.9,22.82,211.9,23.1Z" style="fill:#414142"/><ellipse cx="216.04" cy="29.26" rx="0.84" ry="1.23" style="fill:#414142"/><ellipse cx="218.48" cy="23.62" rx="1.07" ry="1.03" style="fill:#414142"/><path d="M223.24,22.57c0,.58-.24,1.05-.54,1.05s-.55-.47-.55-1.05.25-1.05.55-1.05S223.24,22,223.24,22.57Z" style="fill:#414142"/><path d="M221.6,28.65a.7.7,0,1,1-.7-.62A.66.66,0,0,1,221.6,28.65Z" style="fill:#414142"/><path d="M207.65,37.19a.79.79,0,0,1-.82.77.77.77,0,1,1,0-1.54A.8.8,0,0,1,207.65,37.19Z" style="fill:#414142"/><path d="M212.62,40.13c0,.6-.36,1.09-.81,1.09s-.81-.49-.81-1.09.36-1.09.81-1.09S212.62,39.53,212.62,40.13Z" style="fill:#414142"/><ellipse cx="214.19" cy="36.15" rx="1.57" ry="0.68" style="fill:#414142"/><ellipse cx="224.86" cy="27.19" rx="1.57" ry="0.68" style="fill:#414142"/><path d="M220.28,37.06c0,.5-.26.9-.58.9s-.58-.4-.58-.9.26-.91.58-.91S220.28,36.56,220.28,37.06Z" style="fill:#414142"/><ellipse cx="218.78" cy="41" rx="0.34" ry="0.55" style="fill:#414142"/><ellipse cx="223.05" cy="43.34" rx="0.51" ry="1.79" style="fill:#414142"/><path d="M216.85,45.23a1,1,0,1,1-1-.88A.94.94,0,0,1,216.85,45.23Z" style="fill:#414142"/><path d="M221.39,46.71c0,.47-.25.86-.55.86s-.56-.39-.56-.86.25-.85.56-.85S221.39,46.24,221.39,46.71Z" style="fill:#414142"/><path d="M208.8,45.17c0,.45-.62.82-1.39.82s-1.39-.37-1.39-.82.62-.82,1.39-.82S208.8,44.72,208.8,45.17Z" style="fill:#414142"/><path d="M211.81,44.13c0,.12-.18.22-.41.22s-.4-.1-.4-.22.18-.22.4-.22S211.81,44,211.81,44.13Z" style="fill:#414142"/><path d="M214.9,40.43c0,.32-.15.57-.35.57s-.36-.25-.36-.57.16-.57.36-.57S214.9,40.11,214.9,40.43Z" style="fill:#414142"/><ellipse cx="225.78" cy="36.5" rx="1.79" ry="1.46" style="fill:#414142"/><path d="M229.3,43.2c0,.51-.61.93-1.36.93s-1.35-.42-1.35-.93.61-.94,1.35-.94S229.3,42.68,229.3,43.2Z" style="fill:#414142"/><path d="M233,38.91a.82.82,0,1,1-.81-.95A.89.89,0,0,1,233,38.91Z" style="fill:#414142"/><path d="M231.36,34.71c0,.42-.24.76-.53.76s-.52-.34-.52-.76.23-.76.52-.76S231.36,34.29,231.36,34.71Z" style="fill:#414142"/><path d="M231.13,22A1.11,1.11,0,1,1,230,21,1,1,0,0,1,231.13,22Z" style="fill:#414142"/><path d="M228.41,27.22c0,.54-.2,1-.44,1s-.43-.43-.43-1,.19-1,.43-1S228.41,26.69,228.41,27.22Z" style="fill:#414142"/><ellipse cx="233.08" cy="27.6" rx="0.88" ry="1.2" style="fill:#414142"/><ellipse cx="232.98" cy="24.05" rx="0.96" ry="0.85" style="fill:#414142"/><path d="M209.81,49.71a.51.51,0,1,1-1,0,.51.51,0,1,1,1,0Z" style="fill:#414142"/><path d="M214.55,49.28c0,.56-.24,1-.53,1s-.53-.46-.53-1,.24-1,.53-1S214.55,48.71,214.55,49.28Z" style="fill:#414142"/><path d="M206.09,41.55a1.07,1.07,0,1,1-1.07-1A1.06,1.06,0,0,1,206.09,41.55Z" style="fill:#414142"/><path d="M220.28,52.85a1.51,1.51,0,1,1-1.5-1.68A1.6,1.6,0,0,1,220.28,52.85Z" style="fill:#414142"/><path d="M211.81,53.69a1,1,0,1,1-1-.84A.93.93,0,0,1,211.81,53.69Z" style="fill:#414142"/><path d="M214.9,55.56c0,.56-.08,1-.17,1s-.18-.47-.18-1,.08-1,.18-1S214.9,55,214.9,55.56Z" style="fill:#414142"/><path d="M207.65,54.2c0,.75-.37,1.36-.82,1.36S206,55,206,54.2s.36-1.35.81-1.35S207.65,53.46,207.65,54.2Z" style="fill:#414142"/><ellipse cx="210.61" cy="60.08" rx="0.8" ry="0.57" style="fill:#414142"/><path d="M214.9,63.14c0,.39-.19.7-.44.7s-.44-.31-.44-.7.2-.71.44-.71S214.9,62.75,214.9,63.14Z" style="fill:#414142"/><ellipse cx="217.1" cy="58.93" rx="1.34" ry="1.15" style="fill:#414142"/><ellipse cx="222.48" cy="57.92" rx="1.08" ry="1.01" style="fill:#414142"/><path d="M225.78,52.34a.49.49,0,0,1-.46.51.52.52,0,0,1,0-1A.49.49,0,0,1,225.78,52.34Z" style="fill:#414142"/><path d="M229.3,47.18c0,.59-.3,1.07-.68,1.07s-.68-.48-.68-1.07.31-1.06.68-1.06S229.3,46.6,229.3,47.18Z" style="fill:#414142"/><path d="M225.32,48.76c0,.29-.4.52-.88.52s-.88-.23-.88-.52.39-.51.88-.51S225.32,48.48,225.32,48.76Z" style="fill:#414142"/><path d="M204.7,45.86c0,.68-.38,1.23-.84,1.23s-.85-.55-.85-1.23.38-1.23.85-1.23S204.7,45.18,204.7,45.86Z" style="fill:#414142"/><path d="M226.89,32.33a1.08,1.08,0,1,1-1.07-1A1.05,1.05,0,0,1,226.89,32.33Z" style="fill:#414142"/><ellipse cx="221.07" cy="32.82" rx="1.07" ry="1.03" style="fill:#414142"/><path d="M233.52,31.79c0,.58-.24,1.05-.54,1.05s-.54-.47-.54-1.05.24-1,.54-1S233.52,31.21,233.52,31.79Z" style="fill:#414142"/><path d="M201.29,41a.7.7,0,0,1-1.39,0,.7.7,0,0,1,1.39,0Z" style="fill:#414142"/></g></g></svg>