<svg xmlns="http://www.w3.org/2000/svg" viewBox="0 0 279.07 172.33"><title>shubunkin</title><g id="Layer_2" data-name="Layer 2"><g id="Ñëîé_2" data-name="Ñëîé 2"><path d="M22.24,75.88a5.76,5.76,0,0,1-6-5.45c0-3,2.7-5.44,6-5.44a5.47,5.47,0,1,1,0,10.89Zm25.1,3.74C45,89.35,31.8,93.7,31.07,92.77s10.15-3.83,14.3-13.67S40,63,40,63c-2.28-.72-2.59-2.79,1.14-.82S49.72,69.88,47.34,79.62ZM278.63,36.74c-1.93-1.94-8.56-1.38-18.23,1.65S227.26,35.63,211,34.8c-14.37-.73-37.43,9.7-53.33,15h0c-2.14.72-4.15,1.34-6,1.83C136.1,55.79,118.08,46.47,99,42.74c-3.3-.64-6.41-1.24-9.4-1.76-1.75,2.58.36,7.08,2.84,8.84s-.82,3.77-2.84,3.77-2.13,3.31-2.41,7.8,10.5,9.32,13.47,9,5-5.24,2.83-9,1.38-8.08,5.8-11.57,9.67,2.11,13.54,2.66,9.66,1.93,10.22,3.87,2.76,3.87,6.47,5-.12,2.69,6.92,6.94-.41,4.87-2.9,10.37-8.28,4-8.39,2.72-4.87-6.57-4.87-7.29-5.38-5.08-5.38-8.26-6.63-3.45-9.66-4.48-2.36,6.42-4.43,9-1.24,4.84,2.38,6.71c2.43,1.26-1,4.38-5.32,8.66l.35.55c.08.13.17.26.26.39.22.31.45.63.71.94.09.11.18.23.28.34l0,0a1.35,1.35,0,0,0,.16.19l.32.36.29.29a.93.93,0,0,0,.14.14l.15.14.07.07.22.21h0a3.47,3.47,0,0,0,.29.25l.22.19.4.3.48.34c.25.16.51.32.77.46s.55.27.83.39l.13.05.26.1.24.09h0l.34.1a7.68,7.68,0,0,0,.83.19l.18,0,.31,0,.18,0c.15,0,.3,0,.46,0a9.76,9.76,0,0,0,1.6-.07c1.22-.16,1.76,0,1.76.47a.34.34,0,0,1,0,.1s0,0,0,0a.83.83,0,0,1-.08.21,1.91,1.91,0,0,1-.28.45,1,1,0,0,0-.08.11l-.2.23h0l-.23.23-.25.25h0l-.17.16c-.25.23-.54.48-.85.73l-.33.25-.28.21-1,.68-.55.38-.58.38h0a59.61,59.61,0,0,1-6.4,3.56l-.54.25-.29.15-.61.28-1.3.57-.64.26c-.86.36-1.73.7-2.61,1l-.58.2-.73.24-.65.21-.66.19c-.21.07-.43.13-.65.18-.43.12-.86.24-1.29.33l-.69.16-1.2.23-.62.09-.55.08-.32,0-.75.07c-.19,0-.39,0-.58,0,0,0,0,0,0,0-.23,0-.46,0-.69,0-.45,0-.89,0-1.31-.06C79.48,103.86,71.19,88.07,59,90.72c0,0,.74-.47,1.94-1.29l.84-.58.23-.16.49-.35.62-.44,2-1.45,1.16-.89.64-.51c.86-.68,1.75-1.4,2.64-2.16l.76-.66,1.53-1.37.76-.71.74-.72c.06-.06.13-.12.19-.19.42-.42.85-.85,1.26-1.28a68.37,68.37,0,0,1-1.9-10.71c-.23-4.28-2.54-8.42-7.51-7.2s-6.35-1.22-8-3.7-7.45-3.59-4.69-6.53,4.69-3.69,4.69-6.73a8.2,8.2,0,0,0-1.1-3.63c-.68.11-1.36.23-2.05.37s-1.35.27-2,.43a60.52,60.52,0,0,0-7.35,2.24A141.39,141.39,0,0,0,26.75,51c-.2,1.51.2,2.17,1.51,1.94,2.37-.41,4.68,1.87,5.92,3.73s.83,2.28,2.28,4.77,5.39,5.38,4.76,9,.21,4.63-3.1,3.7-4.35-.73-3.52-3.7-1.66-6.76-2.49-9-3.94,1.45-7.46,0-5.59,2.07-7.46,3.6-.49,3.3-3.1,3.34-2.28,3-2.28,4.62-2.69.25-5-.58S2.9,74,3.31,72.37c.23-.91-.79-2.36-1.75-3.48A12.07,12.07,0,0,0,0,74.68c1.9.87,5.42,2.64,6.83,4.42,2,2.49.62,2.38,0,2.28s-2.46-3.2-6.36-3.6C2,81.94,6.84,85,6.84,85c4.37,3.92,12.63,7,12.63,7C38,102.41,59.34,106.38,75.66,107.9c2,.18,3.85.32,5.65.44,4.07.27,7.7.39,10.74.45l3.82,0h1.57c12.43,0,16.57-.55,35.63-11a91.53,91.53,0,0,0,8.39-5.21c2.46-1.72,4.42-3.27,6.2-4.64.54-.42,1.07-.83,1.59-1.21,5-3.72,9.29-5.79,21.11-5.79a29.46,29.46,0,0,1,12.43,3.28,84.43,84.43,0,0,1,17.57,12c12.53,10.71,23.76,24.25,28.83,30.86,9.12,11.88,27.35,19.61,38.95,19.61,6.5,0,6.41-1.74,3.85-3.9h0c-7.78-1.11-17.26-5.37-20.15-7.15-3.59-2.21-11.6-5.8-14.92-6.08s-6.35-9.11-13.26-21.64c-.27-.5-.52-1-.75-1.42s-.36-.69-.52-1c-.32-.65-.59-1.23-.81-1.75a1.22,1.22,0,0,1-.07-.17h0l-.16-.39a11.12,11.12,0,0,1-.5-1.62,2.25,2.25,0,0,1,0-.22.77.77,0,0,0,0-.15,1.83,1.83,0,0,1,0-.21.89.89,0,0,1,.24-.8.52.52,0,0,1,.33-.11,3.05,3.05,0,0,1,1.56.69l.27.19c.34.26.69.56,1.05.89l.36.34.57.59.26.27s0,0,0,0a18.69,18.69,0,0,1,1.56,2c3,4.47,3.59,6.84,7.73,9.79,3.06,2.17,13.92,5.85,20.31,7.52-.56-1.54-1.64-1.85-3.46-2.45-2.27-.76-4.31-3.13-5.69-9.63-1.51-.12-2.92-.13-4.11-.18-4.11-.16-9.95-6.63-13.62-13.44s-14.56-13.49-14.56-15.21-5.8-4.08-6.63-5.54-1.65-4.76.83-5.45,2.9-1.79,0-5.44-2.48-4.22-9.11-3.6-9.95,1-11.6,0-2.9-4.77,7-10.46,13.26-4.67,24.86-2,20.3,3.93,34,.86c7.07-1.58,11.48-.71,14.09.51,1.46-1.42,4.12-2.61,2.21-2.82-2.49-.28-3.59-2.49-1.1-2.21s2.48,1.38,5-2.21c1.72-2.49,4.63-3.65,5.62-4.77A1,1,0,0,0,278.63,36.74Z" style="fill:#ff2f0d"/><path d="M22.24,65c-3.33,0-6,2.43-6,5.44a5.76,5.76,0,0,0,6,5.45,5.47,5.47,0,1,0,0-10.89Zm0,10a4.58,4.58,0,1,1,0-9.12,4.58,4.58,0,1,1,0,9.12Z" style="fill:#2b2b2b"/><path d="M22.24,65.87a4.58,4.58,0,1,0,0,9.12,4.58,4.58,0,1,0,0-9.12Zm.29,8.26a2.9,2.9,0,1,1,2.95-2.9A2.93,2.93,0,0,1,22.53,74.13Z" style="fill:#eae3dd"/><path d="M22.23,66.82s-1.51,0-1.93.43-.62,1.16-1.17,1.44-1.18.69-1.25,1.24-.41,2.42.35,2.63A3.21,3.21,0,0,1,20,73.66a2.8,2.8,0,0,0,2.54.8c.88-.32,1.64-1,2.23-1S26,72.63,26,72.21a2.68,2.68,0,0,1,.49-1.53C27,70,27,68.17,26,67.77s-1.24-1-2.28-1Z" style="fill:#ff2f0d"/><path d="M272,142.77c-7.78-1.11-17.26-5.38-20.15-7.15-3.59-2.21-11.6-5.8-14.92-6.08s-6.35-9.11-13.26-21.65.28-7.35,3.32-2.87,3.59,6.84,7.73,9.79c3.06,2.17,13.92,5.85,20.31,7.51a9.09,9.09,0,0,1,.41,2.25c.28,3.59,1.11,9.39,8,13A53.41,53.41,0,0,1,272,142.77Z" style="fill:#eae3dd"/><path d="M267,50.33a2.55,2.55,0,0,0-.83,1.32c-.28,1.94-.28,5-4.69,5.52s-9.67-.1-10.22,2.71-10.78-.22-14.64,3.92-8.57,8.29-14.64,9.12-.28,6.49,6.9,12.08c5.42,4.23,11.32,10.77,14.48,17.17a23.39,23.39,0,0,1,2,5.7c0,.14.05.27.08.41.12.69.24,1.35.38,2-1.51-.12-2.92-.13-4.11-.18-4.11-.16-9.95-6.63-13.62-13.44s-14.56-13.49-14.56-15.21-5.8-4.08-6.63-5.54-1.65-4.76.83-5.45,2.9-1.79,0-5.44-2.48-4.22-9.11-3.6-9.95,1-11.6,0-2.9-4.77,7-10.46,13.26-4.67,24.86-2,20.3,3.93,34,.86C260,48.24,264.42,49.11,267,50.33Z" style="fill:#eae3dd"/><path d="M143.56,78.7c-2.48,5.5-8.28,4-8.39,2.72s-4.87-6.57-4.87-7.29-5.38-5.08-5.38-8.26-6.63-3.45-9.66-4.48-2.36,6.42-4.43,9-1.24,4.84,2.38,6.71c2.43,1.26-1,4.38-5.32,8.66A13.15,13.15,0,0,1,106,81.42c0-1.17-2.21-3.53-4.59-3.65s-2.32-.43-2.59-1.81-4.7-4.14-6.08-3.87-5-.83-5-2.21-1.11-1.66-4.15-2.48a2.2,2.2,0,0,0-3,2.2A27.64,27.64,0,0,1,74.8,78a68.37,68.37,0,0,1-1.9-10.71c-.23-4.28-2.54-8.42-7.51-7.2s-6.35-1.22-8-3.7-7.45-3.59-4.69-6.53,4.69-3.69,4.69-6.73a8.2,8.2,0,0,0-1.1-3.63,72.38,72.38,0,0,1,16.62-.67A153.41,153.41,0,0,1,89.62,41c-1.75,2.58.36,7.08,2.84,8.84s-.82,3.77-2.84,3.77-2.13,3.31-2.41,7.8,10.5,9.32,13.47,9,5-5.24,2.83-9,1.38-8.08,5.8-11.57,9.67,2.11,13.54,2.66,9.66,1.93,10.22,3.87,2.76,3.87,6.47,5-.12,2.69,6.92,6.94S146.05,73.2,143.56,78.7Z" style="fill:#eae3dd"/><path d="M6.84,81.38c-.55-.09-2.46-3.2-6.36-3.6A7.13,7.13,0,0,1,0,75.27c0-.2,0-.4,0-.59,1.9.87,5.42,2.64,6.83,4.42C8.8,81.58,7.46,81.48,6.84,81.38Z" style="fill:#2b2b2b"/><path d="M157.63,49.82h0c-2.14.72-4.15,1.34-6,1.83C136.1,55.79,118.08,46.47,99,42.74c-3.3-.64-6.41-1.24-9.4-1.76A153.41,153.41,0,0,0,72.9,38.79C73.08,38.3,85.79,3.47,118.15.37c0,0,8.56-1.75,8.84,2.39,0,.49.06,1,.08,1.42.11,2.2.15,4,.69,5.11a2.12,2.12,0,0,0,1.44,1.21c2.21.55,3,1.38,2.76,3.31l0,.16a8,8,0,0,0-.27,3.31,3.24,3.24,0,0,0,2.23,2.12c3,1.21,3.52,1.77,3.79,4.22,0,.21.05.44.07.69.23,2.55.47,6.48,2.51,8a3.2,3.2,0,0,0,1.36.57h.07c3.13.54,4,1.83,4.56,3.4l.13.36c.14.45.31,1,.51,1.49.57,1.49,1.44,3,3,3,2.22,0,5.8,4.14,5.8,4.14a4.33,4.33,0,0,1,.76.88A6.82,6.82,0,0,1,157.63,49.82Z" style="fill:#f21c06"/><path d="M124.5,172.16a46.55,46.55,0,0,1-9.35-2h0c-34.79-18.62-34-57.22-33.83-61.79,0,0,4.67,51.11,45.66,61.24a.14.14,0,0,0,0,.06C128.23,173.28,124.5,172.16,124.5,172.16Z" style="fill:#2b2b2b"/><path d="M127,169.58c-41-10.13-45.66-61.24-45.66-61.24,4.07.27,7.7.39,10.74.45,1.08,2.44,4.54,9.24,10.37,11.48,7.17,2.76.92,1.11,1.84,4.14s3.83,2.77,3.2,4.7-9.48-.77-12.24-7.7c0,0,.27,20.68,26.33,31.45a36.1,36.1,0,0,1,.47,4s0,.37,0,.93c0,1.47.39,4.26,2.5,4.87,1.67.48,1.83,1.49,1.9,3A13.73,13.73,0,0,0,127,169.58Z" style="fill:#f21c06"/><path d="M95.87,108.82a7.29,7.29,0,0,1-.65-.93Z" style="fill:#ff2f0d"/><path d="M120.19,92.45a.34.34,0,0,1,0,.1s0,0,0,0a.83.83,0,0,1-.08.21,1.91,1.91,0,0,1-.28.45,1,1,0,0,0-.08.11l-.2.23h0l-.23.23-.25.25h0C94.52,103.83,95,99.28,89.61,96.24s-7.92-5.24-14-7.73-9.07.27-2.67,2.21,12.66,9.39,19.29,11.6a6.88,6.88,0,0,0,1.28.28c2.82.38,6.87-.46,10.81-1.63h0c.37-.1.73-.22,1.09-.33h0l.72-.23c3.83-1.25,7.34-2.71,9.23-3.52a59.61,59.61,0,0,1-6.4,3.56l-.54.25-.29.15-.61.28-1.3.57-.64.26c-.86.36-1.73.7-2.61,1l-.58.2-.73.24-.65.21-.66.19c-.21.07-.43.13-.65.18l-1.29.33-.69.16-1.2.23-.62.09s-9.79-1.13-15.39-6.41S67.59,87.76,63.16,87.9l2-1.45c.38-.29.77-.58,1.16-.89.21-.17.43-.33.64-.51.86-.68,1.75-1.4,2.64-2.16l.76-.66,1.53-1.37.76-.71.74-.72c.06-.06.13-.12.19-.19.42-.42.85-.85,1.26-1.28a27.64,27.64,0,0,0,5.79-8.36,2.2,2.2,0,0,1,3-2.2c3,.82,4.15,1.1,4.15,2.48s3.59,2.49,5,2.21,5.8,2.49,6.08,3.87.2,1.7,2.59,1.81S106,80.25,106,81.42a13.15,13.15,0,0,0,1.89,4.38l.35.55c.08.13.17.26.26.39.22.31.45.63.71.94.09.11.18.23.28.34l0,0a1.35,1.35,0,0,0,.16.19l.32.36.29.29a.93.93,0,0,0,.14.14l.15.14.07.07.22.21c-2.88-1.88-5,.24-6.45,1.28s-6.84-1.87-10.23-4.92-7.59-5-9.66-7.28-1.24,2-5.59,3.91-5.59,3.73,1.24,4.26S93,96.52,99.23,97.76s17.28-5.51,17.6-5.71a9.76,9.76,0,0,0,1.6-.07C119.65,91.82,120.19,92,120.19,92.45Z" style="fill:#dbd3ce"/><path d="M95.87,104.79l-.55.08-.32,0-.75.07c-.19,0-.39,0-.58,0,0,0,0,0,0,0-.23,0-.46,0-.69,0-.45,0-.89,0-1.31-.06C79.48,103.86,71.19,88.07,59,90.72c0,0,.74-.47,1.94-1.29l.84-.58.23-.16.49-.35.62-.44c4.43-.14,11.73,5.2,17.32,10.48S95.87,104.79,95.87,104.79Z" style="fill:#2b2b2b"/><path d="M116.83,92.05c-.32.2-11.48,6.94-17.6,5.71S87,87.21,80.17,86.69s-5.59-2.39-1.24-4.26,3.52-6.17,5.59-3.91,6.26,4.22,9.66,7.28,8.78,6,10.23,4.92,3.57-3.16,6.45-1.28h0a3.47,3.47,0,0,0,.29.25l.22.19c-1.09,1.24-5.53,2.38-7.08,2.8s-2.18.1-7.15-2-6.63-1.66-4.35,0,4.56,4.14,8.6,4.39c3.44.21,9.84-3.14,11.63-4.12.27.14.55.27.83.39l.13.05.26.1.24.09h0l.34.1a7.68,7.68,0,0,0,.83.19l.18,0,.31,0,.18,0C116.52,92,116.67,92,116.83,92.05Z" style="fill:#f21c06"/><path d="M113,91c-1.79,1-8.19,4.33-11.63,4.12-4-.25-6.32-2.74-8.6-4.39s-.62-2.08,4.35,0,5.59,2.38,7.15,2,6-1.56,7.08-2.8l.4.3.48.34C112.52,90.69,112.78,90.85,113,91Z" style="fill:#2b2b2b"/><path d="M119,94.09l-.17.16c-.25.23-.54.47-.85.73l-.33.25-.28.21-1,.68-.55.38-.58.38h0c-1.89.81-5.4,2.27-9.23,3.52l-.72.23h0c-.36.11-.72.23-1.09.33h0c-3.94,1.17-8,2-10.81,1.63a6.88,6.88,0,0,1-1.28-.28c-6.63-2.21-12.89-9.67-19.29-11.6s-3.46-4.7,2.67-2.21,8.71,4.69,14,7.73S94.52,103.83,119,94.09Z" style="fill:#f21c06"/><path d="M115.33,96.88l.58-.38C115.72,96.63,117.67,97.62,115.33,96.88Z" style="fill:#ff2f0d"/><path d="M179.31,142.39c-1,.9-3.43.41-3.43.41-13.26-3.59-19.06-15.74-23.48-26.24a23.61,23.61,0,0,0-3-5.06l-.14-.34c.85.9,1.69,1.76,2.5,2.56,8.3,8.14,14.59,11.08,10.44,5.59-4.7-6.22-11.33-17.68-3-8.29s5.8,3.79,5.8,3.79c-11.33-12.66-9.94-22-8.5-16.9s6.84,8,6.84,8c-1.93-2.76-3.87-6.63-1.79-5.86s3.72,6.41,2.34,0c-.13-.62-.29-1.23-.48-1.84a40.78,40.78,0,0,0-4.3-9c.33.07.66.16,1,.24l.68.19.28.08.77.23.91.32h0l.59.23a17.51,17.51,0,0,1,1.7.76l.36.19.12.06.36.21.38.22.38.25c.21.14.42.28.62.43a2.16,2.16,0,0,1-.87,1.34c-1.24.62-.21,2.28,1.66,2.9s2.69,1,.41,11.09,5,12.11,4.77,12.46,2.07,6.49,3.1,7.11,2.08,3.94.63,5.18.82,3.73,2.48,7.46C179.92,141.28,179.77,142,179.31,142.39Z" style="fill:#eae3dd"/><path d="M167.22,92.57a21.82,21.82,0,0,0-8.14-3.41,53.21,53.21,0,0,0-11.42-1.23c.54-.42,1.07-.83,1.59-1.21a66.11,66.11,0,0,1,8.38.24C166.49,87.87,167.65,90.81,167.22,92.57Z" style="fill:#2b2b2b"/><path d="M159.17,111c-8.29-9.39-1.66,2.07,3,8.29,4.15,5.49-2.14,2.55-10.44-5.59-.81-.8-1.65-1.66-2.5-2.56l-.7-1.67-7.11-16.92c2.46-1.72,4.42-3.27,6.2-4.64a54,54,0,0,1,9.21.78c.73.13,1.47.28,2.21.45a40.78,40.78,0,0,1,4.3,9c.19.61.35,1.22.48,1.84,1.38,6.41-.27.76-2.34,0s-.14,3.1,1.79,5.86c0,0-5.39-2.88-6.84-8s-2.83,4.24,8.5,16.9C165,114.81,167.46,120.41,159.17,111Z" style="fill:#f21c06"/><path d="M25.48,71.23a3,3,0,1,1-2.95-2.9A2.93,2.93,0,0,1,25.48,71.23Z" style="fill:#2b2b2b"/><path d="M47.34,79.62C45,89.35,31.8,93.7,31.07,92.77s10.15-3.83,14.3-13.67S40,63,40,63c-2.28-.72-2.59-2.79,1.14-.82S49.72,69.88,47.34,79.62Z" style="fill:#f21c06"/><path d="M41.22,70.43c-.62,3.66.21,4.63-3.1,3.7s-4.35-.73-3.52-3.7-1.66-6.76-2.49-9-3.94,1.45-7.46,0-5.59,2.07-7.46,3.6-.49,3.29-3.1,3.34-2.28,3-2.28,4.62-2.69.24-5-.58S2.9,74,3.31,72.37c.23-.91-.79-2.36-1.75-3.48C3,66.37,5.55,64,9.74,61.18c3.47-2.32,9.79-6.3,17-10.23-.2,1.51.2,2.17,1.51,1.94,2.37-.41,4.68,1.87,5.92,3.73s.83,2.28,2.28,4.77S41.85,66.77,41.22,70.43Z" style="fill:#eae3dd"/><path d="M23,69.54a1.77,1.77,0,1,1,1.77,1.76A1.77,1.77,0,0,1,23,69.54Z" style="fill:#eae3dd"/><path d="M74.79,81.71s5.8-1.66,13.87,1.76,8.19,4.71,12.75,4.42,10,0,4-1.2-6.42.4-12-3.43-7.67-8-12.12-6.73a19.36,19.36,0,0,0-8.41,5.59C72.51,82.64,73.81,81.9,74.79,81.71Z" style="fill:#2b2b2b"/><path d="M104.82,84S99,85.12,95.22,81.5,86,73.31,82.35,73.21s3.27-2.17,8.11,1.56,5.77,6,10.22,6.83S106.79,83.82,104.82,84Z" style="fill:#f21c06"/><path d="M132,13.81l0,.16a8,8,0,0,0-.27,3.31c-28.23,6.13-34.45,24.78-32.44,17.48,2.1-7.6,15.54-13.86,6.41-9.92S95.29,36.65,94.18,38.6s-3.65.74-5.52-1.33-5.21,2.7-3.93-1.66,3.59-10.36,13.81-21.68c8-8.85,22.55-9.77,28.53-9.75.11,2.2.15,4,.69,5.11a2.12,2.12,0,0,0,1.44,1.21C131.41,11.05,132.24,11.88,132,13.81Z" style="fill:#2b2b2b"/><path d="M132,13.81l0,.16c-4.57.32-12.28,1.11-15.31,3-4.42,2.76-7.46,0-11.19,2.21s-11.24,10.63-13.76,14S89.79,19.5,105.31,12s14.38-1,18.64-1.52a15.51,15.51,0,0,0,3.81-1.19,2.12,2.12,0,0,0,1.44,1.21C131.41,11.05,132.24,11.88,132,13.81Z" style="fill:#eae3dd"/><path d="M156.47,46.18c-1.76,0-3.36-.49-4-1.25-1.24-1.45-5.59-2.27-10.44-3.52a9.16,9.16,0,0,1-3.94-1.79,3.64,3.64,0,0,0-1.26-.83h0a3.69,3.69,0,0,0-1.14-.19c-1.59-.07-3.12-1.69-3.56-3.46a3.93,3.93,0,0,1-.11-1.4,3.11,3.11,0,0,1,1-2.07c2.55-2.29-3.59-.41-9.57,0S115.39,35.41,111,38.6s-5.18.53,0-6.09c4.29-5.5,21-8.15,26.65-8.89,0,.21.05.44.07.69.23,2.55.47,6.48,2.51,8a3.2,3.2,0,0,0,1.36.57h.07c3.13.54,4,1.83,4.56,3.4l.13.36.51,1.49c.57,1.49,1.44,3,3,3,2.22,0,5.8,4.14,5.8,4.14A4.33,4.33,0,0,1,156.47,46.18Z" style="fill:#2b2b2b"/><path d="M142,46.48c-8.62,2.18-14.83,2.16-19.18,0s-13.94-3.07-9.81-5.07a120.5,120.5,0,0,1,19-7.67,32.87,32.87,0,0,1,8.25-1.44,3.2,3.2,0,0,0,1.36.57h.07a71.66,71.66,0,0,0-9.57,2.26,14.57,14.57,0,0,0-3.69,1.72c-5.39,3.72,2.69,3,8.39,1.93h0c4.75-.92,6.83-2.95,9.43-2.51l.13.36.51,1.49c-2,.43-5.59.78-8.81,1.49a16.05,16.05,0,0,0-5,1.79c-4.84,3.11-1.32,6,5.52,4.77S150.66,44.29,142,46.48Z" style="fill:#eae3dd"/><path d="M99.64,167.66c-25.82-11.92-24.17-55.94-24-59.53v-.06a.35.35,0,0,1,0-.06v-.11c2,.18,3.85.32,5.65.44-.21,4.57-1,43.17,33.83,61.79C98.5,164.7,90.13,152,92.6,157.3,95.5,163.52,126.58,180.09,99.64,167.66Z" style="fill:#eae3dd"/><path d="M121.55,152.86c-26.06-10.77-26.33-31.45-26.33-31.45,2.76,6.93,11.6,9.63,12.24,7.7s-2.29-1.65-3.2-4.7,5.33-1.38-1.84-4.14c-5.83-2.24-9.29-9-10.37-11.48l3.82,0c2.3,2.79,5.91,2.67,7.92,4.43,1.51,1.32,4.45.51,6.69,4.53,1,1.84,1.9,4.72,2.42,9.28a19.09,19.09,0,0,0,4.17,10.41c3.44,4.14,6.94,4.23,2.05,4.5-7.46.42-17-6.21-12-1.86s8.7,5.18,11.6,6.56C120.27,147.41,121.11,150.33,121.55,152.86Z" style="fill:#eae3dd"/><path d="M126.4,165.66c-21.52-6.66-32.79-28.81-31.18-28.54s4.84,4.14,9,9.55c3.16,4.07,13.06,9,17.74,11.15,0,1.47.39,4.26,2.5,4.87C126.17,163.17,126.33,164.18,126.4,165.66Z" style="fill:#2b2b2b"/><path d="M88.25,156s-8.91-14.71-10.15-26-.21-9.32,2.49-1.65S86.49,144,88.25,146s.21,1,.52,4.14S91.77,161.05,88.25,156Z" style="fill:#2b2b2b"/><path d="M117.07,137.47c-2-.11-5.19-.42-7-1.28-2.8-1.35-3.42-2.9-1-2.59s2-1.45,1.67-1.86-1.77-3-.94-4.25,2-3.32-.21-6.53c-1.78-2.62-2.94-6.28.89-3.18,1,1.84,1.9,4.72,2.42,9.28A19.09,19.09,0,0,0,117.07,137.47Z" style="fill:#2b2b2b"/><path d="M151.85,94.09s-2.72-1.08-3.43,1,.53,2-2.1,3.62-.92,2.82,2.1,4,2.19.06,3.43-2.64,2.07-.89,3.18-3.59-1.25-5.4-2.21-3.89Z" style="fill:#2b2b2b"/><path d="M167.8,102.69s1.66-1.2,0-2-2.79-2.1-2.48-3-2.39-3.63-1.87-4-2.18-2.19-1.76-2.89,1-.63,2.9,0-1-1.35-1.81-1.87-.83-1-2.7-.92-2.43-.29-3.21.78-.93,3.55,1,3.43,3.52,2.62,2.79,3.6.37,1.57,1.51,1.9,3.62,1.83,3.47,4.37-1.51,3.88-.52,4.56,3.57,2.12,2.85.25S166.19,104.16,167.8,102.69Z" style="fill:#2b2b2b"/><path d="M179.31,142.39c-1,.9-3.43.41-3.43.41-13.26-3.59-19.06-15.74-23.48-26.24a23.61,23.61,0,0,0-3-5.06l-.14-.34-.7-1.67c1.1.09,2.8.5,2.94,2,.05.63.12,1.4.26,2.22.34,2,1.08,4.13,3,5.1,2.69,1.38,3.66,2.75,6.7,8.21C164.19,132,170.07,140.05,179.31,142.39Z" style="fill:#2b2b2b"/><path d="M81.76,87s-2.11-.17-2.62,1-.06,2.06,2.2,2.27,2.71,1.5,4.22.52,3.21-1.82.93-2.83S83.35,87.25,81.76,87Z" style="fill:#2b2b2b"/><path d="M97.05,121.38s-2.57-2.18-3.56-1a5.4,5.4,0,0,1-3,1.77c-1.28.41-.08,2.52,1.34,4.1s4.77,2.75,5.25.82S99.54,123.24,97.05,121.38Z" style="fill:#2b2b2b"/><path d="M98.82,47.49s-3-1-2.73,2.35.79,6.07,2.73,5.25,1.41-4,3.6-4.42S101.12,47,98.82,47.49Z" style="fill:#2b2b2b"/><path d="M110,56.19s-2.74-.83-2.54,1.66S106,60.51,110,61s5-.82,5.14-2.48S112.06,56,110,56.19Z" style="fill:#2b2b2b"/><path d="M54.23,39.83c-.09,2.11.21,3.43-2.27,4.48-3,1.25-3.55,1.11-5.63.7-1.16-.24-1.45-1.47-1.48-2.51a60.52,60.52,0,0,1,7.35-2.24C52.88,40.1,53.56,40,54.23,39.83Z" style="fill:#2b2b2b"/><path d="M72.83,51.3a2.72,2.72,0,0,0-3.52,1.39c-1.36,2.4.73.61,3.52,3.37s4.68,3,6.11.89,3.56-3.85,2.4-5.65-2.66-1-3.88-.35A9.24,9.24,0,0,1,72.83,51.3Z" style="fill:#2b2b2b"/><path d="M66.81,43.38s-3.11,1.15-2.69,2.8,1,1.74,3.31,1.18,4.89.79,5.4-1.18S68.66,42.33,66.81,43.38Z" style="fill:#2b2b2b"/><path d="M59,71.87a7.74,7.74,0,0,1-1.86,2.59c-1.35,1.24,1.14,3.62,3,4.55s1.92-3.21,3-3.57,3.75-.47,4.48-2-.11-6.94-2.07-4.56S61.29,68.45,59,71.87Z" style="fill:#2b2b2b"/><path d="M109.31,49.82s-.68-.59-1.08.89a2.14,2.14,0,0,0,2.08,2.82c1.45-.1,2.49,1.26,3.52,0s3.11-2.1,1.87-3.34S110.9,47.46,109.31,49.82Z" style="fill:#2b2b2b"/><path d="M25.48,54.27s-2.62.83-2.49,1.79,1.52,1.51,2.49,1.24,2.52-.41,2.78-1.24S27.79,53,25.48,54.27Z" style="fill:#2b2b2b"/><path d="M20.37,85.8s-1.31,1.15-.79,1.72,2.93,1.08,5.18.41.72-1.91.72-3.78S23.55,79,23,81.42A10.33,10.33,0,0,1,20.37,85.8Z" style="fill:#2b2b2b"/><path d="M52,92.89s-3.73-.61-4,1a2.3,2.3,0,0,0,2.78,2.61C52.55,96.24,54.67,93.55,52,92.89Z" style="fill:#2b2b2b"/><path d="M42.05,56.06s-2.61.7-2.55,2.28,1.86,1.8,4.63,2.79,3.72,1.91,4.55,0,2.51-4.94-.75-3.76S44.37,54.62,42.05,56.06Z" style="fill:#2b2b2b"/><path d="M61.8,59s-1.65.87-1.38,2.14,2.07,1.73,3.66,1.57,3.44-1.66,2.51-2.84S63.18,56.85,61.8,59Z" style="fill:#2b2b2b"/><path d="M168.54,57.71s.71-5,3.75-2.35,3.41,7,7.44,9,.29,1.93-2.33,5.94-1.52,4.69-7,4.14-7.88-1.1-3.87-4.42,7.73-3.18,4.14-6.49S168.1,59.27,168.54,57.71Z" style="fill:#2b2b2b"/><path d="M221.51,103.55h0l-.75-.41c-5.93-3.31-6.35-8.48-11.32-10.25s-5.8-.14-2.07,3.61c2.27,2.28-2.22.9-7-.3a84.43,84.43,0,0,0-17.57-12c-1-2.41-1.09-4.78,1.93-5.06,6.35-.58,2.48-3.43,4.42-2s6.63-1,5.38-3.43-5-7.4.21-7.84,8.91.77,6.42,7.84,3.32,9.36,9.53,13,8,4.11,12.15,11.22a31,31,0,0,1,2.59,5.14C226.16,105.3,225,105.38,221.51,103.55Z" style="fill:#2b2b2b"/><path d="M278.73,38.32A35.89,35.89,0,0,0,267,39.83c-7,2.41-25,3.92-36.87-.25s-17-3.54-24.45-1.27S192,42.26,190.8,43.08s-5,.38-2.91,3.71,2.92,5.16-.61,5.9-8.27.33-8-1.74-.12-4-3-2.84-.9,5.91-5,2.09-11.64,8.85-13.69-.38h0c15.9-5.32,39-15.75,53.33-15,16.3.83,39.78,6.63,49.44,3.59s16.3-3.59,18.23-1.65A1,1,0,0,1,278.73,38.32Z" style="fill:#2b2b2b"/><path d="M214.2,42.24s5.18-.59,13.47,1.78,24.86,2,31.07,2.16,8.08-.75-7.66,1.18-15.12,3.1-26.72.75-19.68-4.56-25.07-2.32S200.74,40.47,214.2,42.24Z" style="fill:#2b2b2b"/><path d="M207.92,53.27s-8-.67-11.88,4.72,2.9-2.63,11.05,2.21,8,7,9,8.42,7.18.16,6.35-1.37-.14-2.13,1.66-2.66,6.77-1,4.83-3.46,0-4.53,4.15-3.83,7.59,1.38,11.74.13-3.6-.39-11.47-2.2-6.21,1.39-11.74.83S215.38,53,207.92,53.27Z" style="fill:#2b2b2b"/><path d="M184.37,68.26s-3.05-1.89-2.87,1,2.69,3,4.44,3.33,4.44-1,3.2-3.33S187.51,70.18,184.37,68.26Z" style="fill:#2b2b2b"/><path d="M245.41,107.87c-3.12,0-8.58-.6-10.7-4.73-3-5.93-6.07-11.23-10.91-15.21s1.52-2.74,5.94,3.34c4.23,5.81,2.9,11.61,13.65,10.9A23.39,23.39,0,0,1,245.41,107.87Z" style="fill:#2b2b2b"/><path d="M253.22,131.87S250,129.53,250.6,127s-5.25-3.37-9.4-4.93-9-5.29-6.76.65,2.34,5.38,9.11,6.63,5.11,4,10.64,6.07S256.12,133.12,253.22,131.87Z" style="fill:#2b2b2b"/><path d="M240.1,113s-1.11.69,0,1.94,2.62,2.48,4.7,2.21,1.36-.69.68-2.63S241.34,110.88,240.1,113Z" style="fill:#2b2b2b"/><path d="M215.65,103.7s-3.31.41-1.38,1.93,3,4.22,4.08,2.11S220.35,104,215.65,103.7Z" style="fill:#2b2b2b"/><path d="M212.34,71.93s-4.28.42-3.31,1.94,1.38.19,3.86.72S216.76,71.11,212.34,71.93Z" style="fill:#2b2b2b"/><path d="M154.75,73.23a5.49,5.49,0,0,0-1.93,2.43c-.83,1.8-1.66,2.26,1,2.86A6.2,6.2,0,0,0,159.72,77C161,75.8,157.05,70.07,154.75,73.23Z" style="fill:#2b2b2b"/><path d="M146.9,55.23s-3.34,2.18-4.17,3.37,2.39,2.29,4.93,3.6,1.88-3.44,5.73-3.48,3.87-1.27,1.92-3.49S150.46,52.55,146.9,55.23Z" style="fill:#2b2b2b"/><path d="M118.43,75.5a4,4,0,0,1-.83,3.22c-1.24,1.64-.47,2.88,2.6,3.85s3.75-2.5,5.13-4.22S124,74.52,123,73.23,117.6,70.79,118.43,75.5Z" style="fill:#2b2b2b"/><path d="M134.31,89s-3.59.45-4.28,1.7.14,1.36,2.76,1.85S138.59,88.84,134.31,89Z" style="fill:#2b2b2b"/><path d="M130.72,77.41s-3,.46,0,2.54,4.42,1.1,4.83,0,2.63-.8,0-3.65-2.76-7.44-4.83-7.08-1.24,2,.14,4S132.05,76.33,130.72,77.41Z" style="fill:#2b2b2b"/><path d="M117.77,12.2s-1.24-3.31-4.76-1.55-4.87,1.76-6,3-.62,1.45,2.9,2.39,2.65-.11,5.36-1.25S119.14,13.86,117.77,12.2Z" style="fill:#2b2b2b"/></g></g></svg>