<svg xmlns="http://www.w3.org/2000/svg" viewBox="0 0 253.49 216.81"><title>silver-dollar-fish</title><g id="Layer_2" data-name="Layer 2"><g id="Ñëîé_2" data-name="Ñëîé 2"><path d="M54.67,131a2.2,2.2,0,0,1,.39-.17A2.2,2.2,0,0,0,54.67,131Z" style="fill:#bfc6d8"/><path d="M62.5,160c7.77-10.28-.25-39.62,9-36.28S83.06,125.93,89.58,136s13,25.82,43.88,19,36.36-29.54,43.13-24.92-9.28,21.46-9.28,21.46c-9.79,13.65-24.32,19.31-24.82,27.34s-12.29,15-48.65,12.53S54.72,170.31,62.5,160ZM205.31,90.88a15.94,15.94,0,0,0-1.58-1.18c.13.24,3.84,7.17-2.82,9.14s-13-.7-14.54-7.25S185.62,75,171.32,69.51s-16.8-3.51-25.82,0-19.31,6-27.59-6.52-16.3-25.83-30.59-25.83S66.51,39.42,62.5,51.45s-16.44,17.6-24.15,15c-2,1.84-4.08,3-5.94,5.45C31,73.66,29.07,76,27.08,78.54c4.74,7,2.67,11.28,6.66,13,4.18,1.86,5.56,4.35,5.56,4.35,3.6.49,6.94,7.35,7.05,7.57h0a15.12,15.12,0,0,1,4.11,5.73c1.62,3.56,3.06,10.12,2.65,17,0,.79-.12,1.59-.21,2.38,0,.4-.1.8-.17,1.2-.09.59-.2,1.19-.32,1.78,0,.2-.09.4-.13.6a.64.64,0,0,0,0,.07c-.07.27-.13.54-.21.81s-.15.59-.24.88c0,0,0,.06,0,.09-.08.27-.16.53-.25.79s-.19.58-.29.87a17.7,17.7,0,0,1,1.21-2.43c.09-.15.18-.3.28-.44a10.76,10.76,0,0,1,.7-.93l.16-.17.17-.17a3.89,3.89,0,0,1,.9-.67,2.2,2.2,0,0,1,.39-.17l.14,0,.08,0a2.32,2.32,0,0,1,.53,0c2.67.17,4.51,7,0,15.71-4.33,8.34-8,6.38-14.52,8.56a25.87,25.87,0,0,1,2.52,14c-.75,8.15,16.55,18.81,34.11,22.19a91.44,91.44,0,0,1,12.86,3.3h0a94.78,94.78,0,0,0,42.46-3.12c19.56-6.15,32.28-24.3,42.81-40.74,6.38-9.95,11.32-20.5,16.83-30.9,3-5.68,6.37-2.5,6.37-2.5a3.45,3.45,0,0,1,.65,0c1.61.1,2.94,1.09,4.21,3.32,7.89-2.59,7.64-6.12,8-14.22l-.93.08c-49.65,4.72-59.43,3.8-78,2.82S64,111.33,64,111.33c-4.89,1.19-6.9.18-4.26,0s3.88-2.08,7.27-2.18,20.31-.28,28.71-1.44,8.82,0,23.2-.25,29,.5,44.29.58c15,.08,47.64-2.89,49-3,0-.14,0-.28,0-.42C212.56,97.83,207.86,93,205.31,90.88Z" style="fill:#bfc6d8"/><path d="M199.26,117.16a1.88,1.88,0,0,0-1.48,1.09c-1.47,2.48-2.7,9.73-14.17,27.49s-19.47,34.58-35.88,44a50.86,50.86,0,0,1-6.24,3,62.69,62.69,0,0,1-14.55,3.87q-5.88.87-11.18,1.3a127.91,127.91,0,0,1-17.78.28c0-.08-1.27-1.72-7.19-3.8a94.78,94.78,0,0,0,42.46-3.12c19.56-6.15,32.28-24.3,42.81-40.74,6.38-9.95,11.32-20.5,16.83-30.9C195.9,114,199.26,117.16,199.26,117.16Z" style="fill:#e4eaf4"/><path d="M98,198.22c-1-.06-2.06-.14-3.07-.22-14.38-1.23-25.68-5.13-37.18-9.89-15.87-6.56-31.38-22.57-39.3-36.61,1.83,3.06,4.82,3.44,9,3.76,4.35.34,6,2.68,13,0l.86-.3a25.87,25.87,0,0,1,2.52,14c-.75,8.15,16.55,18.81,34.11,22.19a91.44,91.44,0,0,1,12.86,3.3h0C96.71,196.5,97.93,198.14,98,198.22Z" style="fill:#ccd3e2"/><path d="M40.43,141.22c-6.86,2.17-4.18-1.17-.5-9.69s6.35-9.87,4.35-14A22.21,22.21,0,0,1,41.93,105c.31-2.68,2.23-3.14,4.42-1.44-.11-.22-3.45-7.08-7.05-7.57a3,3,0,0,0-2,.48c-4.34,2.84-3.51,2.17-8.36.5s-5.85-1-7,.84-1.84,4.51,4.18,8,9.83,6.19,7.67,12.87S24,128,21.09,126.18s-7.58-3.51-8.75-8-2.17-6.68-3.51-7.52a43.49,43.49,0,0,0-4.63-2.82c-1.16,2.51-1.17,4.47-.41,5.7,1.8.15,6,.83,6.05,4,.08,4,.25,6.77-1.59,6.18s-1.41-2-3.5-5.18a12.88,12.88,0,0,0-1.18-.59,2.5,2.5,0,0,0-3.51,1.76c-.38,1.88,1.13,2.63,3.2,9.65S14.85,144,14.85,144h0c.39.25,18.17,11.79,29.71,1.75a23.67,23.67,0,0,0,6.55-9.64h0a0,0,0,0,1,0,0l0-.1.08-.19c.1-.29.2-.58.29-.87s.17-.52.25-.79c0,0,0-.06,0-.09.09-.29.17-.59.24-.88s.14-.54.21-.81a.64.64,0,0,1,0-.07c0-.2.09-.4.13-.6.12-.59.23-1.19.32-1.78.06-.4.12-.8.17-1.2.09-.79.17-1.59.21-2.38C51.07,136.19,46.16,139.41,40.43,141.22Zm-8.15-35.48c-5.39-2.51-5.89-6.9-2.92-5.64s4.93.5,7.68-1.76a3.16,3.16,0,0,1,4.76,1.37,2.91,2.91,0,0,1,.12.39c.47,1.9-1.2,3.6-2.56,4.65A6.81,6.81,0,0,1,32.28,105.74Zm-4,33.85c-5.27-1.5-12.16-3.26-14-6.14s-3.77-7.65,2.88-5.52c3.24,1,6.92,3.43,10.45,2.84,4.81-.81,7.3-6.19,9.55-9.91a1.8,1.8,0,0,1,.62-.69c1.35-.68,1.62,2.9,1.56,3.61a25.29,25.29,0,0,1-1,5.09,47.72,47.72,0,0,1-2,5.32c-.5,1.15-1.62,2.48-1.94,3.65C34.41,137.84,33.53,141.1,28.27,139.59Z" style="fill:#e4eaf4"/><path d="M55.81,146.4c-4.33,8.34-8,6.38-14.52,8.56l-.86.3c-7,2.68-8.69.34-13,0-4.14-.32-7.13-.7-9-3.76l-.06-.1-.21-.38h0a53.27,53.27,0,0,1-3.3-7c.39.25,18.17,11.79,29.71,1.75a23.67,23.67,0,0,0,6.55-9.64h0a0,0,0,0,1,0,0l0-.1.08-.19a17.7,17.7,0,0,1,1.21-2.43c.09-.15.18-.3.28-.44a10.76,10.76,0,0,1,.7-.93l.16-.17.17-.17a3.89,3.89,0,0,1,.9-.67,2.2,2.2,0,0,1,.39-.17l.14,0,.08,0a2.32,2.32,0,0,1,.53,0C58.48,130.86,60.32,137.71,55.81,146.4Z" style="fill:#b2bdd1"/><path d="M8.25,123.67c-1.84-.59-1.41-2-3.5-5.18,1.22.66,2.58,1.44,2.45.67,0,0-.25-3.39-2.38-4.64a3,3,0,0,1-1-1c1.8.15,6,.83,6.05,4C9.92,121.5,10.09,124.26,8.25,123.67Z" style="fill:#f3f8ff"/><path d="M24.13,117.78a2.65,2.65,0,0,1-2-.94c0,.1,0,1.46.31,1.62h0a3.71,3.71,0,0,0,1.72.42,3.24,3.24,0,0,0,.94-.13,8.19,8.19,0,0,1,1.09-1.9A2.67,2.67,0,0,1,24.13,117.78Zm0,0a2.65,2.65,0,0,1-2-.94c0,.1,0,1.46.31,1.62h0a3.71,3.71,0,0,0,1.72.42,3.24,3.24,0,0,0,.94-.13,8.19,8.19,0,0,1,1.09-1.9A2.67,2.67,0,0,1,24.13,117.78Zm0,0a2.65,2.65,0,0,1-2-.94c0,.1,0,1.46.31,1.62h0a3.71,3.71,0,0,0,1.72.42,3.24,3.24,0,0,0,.94-.13,8.19,8.19,0,0,1,1.09-1.9A2.67,2.67,0,0,1,24.13,117.78Zm0,0a2.65,2.65,0,0,1-2-.94c0,.1,0,1.46.31,1.62h0a3.71,3.71,0,0,0,1.72.42,3.24,3.24,0,0,0,.94-.13,8.19,8.19,0,0,1,1.09-1.9A2.67,2.67,0,0,1,24.13,117.78Zm9.61-26.19c-4-1.77-1.92-6-6.66-13a80.06,80.06,0,0,0-7.21,10.27C17.11,94,9.59,99.72,6,104.74a18.17,18.17,0,0,0-1.82,3.07,43.49,43.49,0,0,1,4.63,2.82c1.34.84,2.35,3,3.51,7.52s5.86,6.19,8.75,8,10.48-.84,12.63-7.53-1.65-9.36-7.67-12.87-5.34-6.18-4.18-8,2.18-2.51,7-.84,4,2.34,8.36-.5a3,3,0,0,1,2-.48S37.92,93.45,33.74,91.59Zm-9.61,16.12a7.4,7.4,0,1,1-7.4,7.39A7.39,7.39,0,0,1,24.13,107.71Zm-1.72,10.75h0a3.71,3.71,0,0,0,1.72.42,3.24,3.24,0,0,0,.94-.13,8.19,8.19,0,0,1,1.09-1.9,2.67,2.67,0,0,1-4.06,0C22.1,116.94,22.14,118.3,22.41,118.46Zm1.72-.68a2.65,2.65,0,0,1-2-.94c0,.1,0,1.46.31,1.62h0a3.71,3.71,0,0,0,1.72.42,3.24,3.24,0,0,0,.94-.13,8.19,8.19,0,0,1,1.09-1.9A2.67,2.67,0,0,1,24.13,117.78Zm0,0a2.65,2.65,0,0,1-2-.94c0,.1,0,1.46.31,1.62h0a3.71,3.71,0,0,0,1.72.42,3.24,3.24,0,0,0,.94-.13,8.19,8.19,0,0,1,1.09-1.9A2.67,2.67,0,0,1,24.13,117.78Zm0,0a2.65,2.65,0,0,1-2-.94c0,.1,0,1.46.31,1.62h0a3.71,3.71,0,0,0,1.72.42,3.24,3.24,0,0,0,.94-.13,8.19,8.19,0,0,1,1.09-1.9A2.67,2.67,0,0,1,24.13,117.78Zm0,0a2.65,2.65,0,0,1-2-.94c0,.1,0,1.46.31,1.62h0a3.71,3.71,0,0,0,1.72.42,3.24,3.24,0,0,0,.94-.13,8.19,8.19,0,0,1,1.09-1.9A2.67,2.67,0,0,1,24.13,117.78Z" style="fill:#f3f8ff"/><path d="M21.46,115.1a2.66,2.66,0,0,0,.64,1.74h0c0,.1,0,1.46.31,1.62a3,3,0,0,1-.52-.32,3.77,3.77,0,0,1,1.86-6.79c-.07.47,1.19,1.18,1.35,1.26a2.61,2.61,0,0,0-1-.18A2.66,2.66,0,0,0,21.46,115.1Z" style="fill:#f0f45a"/><path d="M53.11,126.3c-2,9.89-7,13.11-12.68,14.92-6.86,2.17-4.18-1.17-.5-9.69s6.35-9.87,4.35-14A22.21,22.21,0,0,1,41.93,105c.31-2.68,2.23-3.14,4.42-1.44h0a15.12,15.12,0,0,1,4.11,5.73C52.08,112.81,53.52,119.37,53.11,126.3Z" style="fill:#b2bdd1"/><path d="M235,173.48c-10-8.57-22.11-22.68-24.8-33.76-2.4-9.9-4.17-15.94-6.07-19.25,7.89-2.59,7.64-6.12,8-14.22,0-.39,0-.8.06-1.22,0-.14,0-.28,0-.42.36-6.78-4.34-11.62-6.89-13.73,0,0,7.05-10.35,14.55-19.76,2.06,4.07,1.28,7.08-5.78,15.27s-.63,6.52,1,10.7,2.51,11.37-.16,17.22,1.33,10.7,4.34,22.56,2.34,8.36,3,13.21,10.66,17.89,13,20.23C237,171.92,235.84,173,235,173.48Z" style="fill:#f3f8ff"/><path d="M237.8,175.8c-.91-.72-1.85-1.49-2.81-2.32.85-.5,2-1.56.36-3.17-2.34-2.34-12.29-15.38-13-20.23s0-1.34-3-13.21-7-16.71-4.34-22.56,1.84-13,.16-17.22-8.1-2.51-1-10.7,7.84-11.2,5.78-15.27c4.92-6.19,10-12,13.49-14.15,8.69-5.52,2,1.5-1.34,6.85s5.52,3.85,2.26,7,2.75,8.85-2.76,11.36-4.85,5.8-9.2,8.67-7.69,8.55-2.34,9.05,10,3,4.68,3-8.69.33-6.85,2.09,8.19,3.84,4.34,5-5.34,1.47-2,4.14,5.18,10.53,7.69,11.7,3,4.85-1.51,3-5.85,4-1,7.69,4.68,11,3,11.37-4.68,1.84,2,10.53C236.53,166.49,242.29,169.67,237.8,175.8Z" style="fill:#e4eaf4"/><path d="M242.18,178.92c-1.33-.84-2.81-1.89-4.38-3.12,4.49-6.13-1.27-9.31-7.46-17.36-6.69-8.69-3.68-10.2-2-10.53s1.84-7.69-3-11.37-3.51-9.53,1-7.69,4-1.84,1.51-3-4.35-9-7.69-11.7-1.84-3,2-4.14-2.51-3.22-4.34-5,1.5-2.09,6.85-2.09.67-2.51-4.68-3-2-6.19,2.34-9.05,3.68-6.16,9.2-8.67S231,74,234.27,70.85s-5.61-1.68-2.26-7,10-12.37,1.34-6.85c-3.45,2.18-8.57,8-13.49,14.15-7.5,9.41-14.55,19.76-14.55,19.76a15.94,15.94,0,0,0-1.58-1.18h0c.29-.48.58-1,.86-1.47C207.1,83.71,219.3,60,235.52,49.28c4-2.67,7.32-4.79,9.92-6.37a7.45,7.45,0,0,1-.39,5.53c-2.26,5.27.5,9-1.26,12.29s-2.25,4.51,0,6.77,3.51,2.51.25,6.77-6.52,8.63-4.51,12.46-1.25,10.93-2.51,15.79-5.51,18.89,0,23.66,2,6.77,3.13,11,2.39,6.27,4.14,8-4.76,11.79-2,16.05C244.84,165.22,249.51,175.6,242.18,178.92Z" style="fill:#bfc6d8"/><path d="M200.91,98.84c-6.77,2-13-.7-14.54-7.25S185.62,75,171.32,69.51s-16.8-3.51-25.82,0-19.31,6-27.59-6.52-16.3-25.83-30.59-25.83S66.51,39.42,62.5,51.45s-16.44,17.6-24.15,15a15.33,15.33,0,0,0,4.09-6.59c1.61-4.74,8.93-13.17,19.38-19.22.8.33,2.06.71,6.32-1.3s8.27-4.39,12.66-4.14c2.59.15,4.09-.4,4.76-1.75a51.84,51.84,0,0,1,12.92,1.11s-1.13,5.66,6.64,8.17,10,3.51,18.56,8.9,7.65,6.89,12.91,10.53,9.45,4.14,14.07,3.38,11.41-2,19.91,1.88c2.63,1.2,5.1,2.19,7.36,3.11h0c5.81,3.82,8.37,7.32,9.93,10.49v0c.79,3.56,0,3.93-.12,6.81s1.94,7,4.51,9.22,7.15,1.06,9.72-.57.38-4.87.38-4.87a16.39,16.39,0,0,0,1.37-1.89h0C203.86,89.94,207.57,96.87,200.91,98.84Z" style="fill:#e4eaf4"/><path d="M85.56,33.4c-.67,1.35-2.17,1.9-4.76,1.75-4.39-.25-8.4,2.13-12.66,4.14s-5.52,1.63-6.32,1.3a52.5,52.5,0,0,1,19.73-6.86C82.9,33.57,84.24,33.46,85.56,33.4Z" style="fill:#f3f8ff"/><path d="M177.93,70.48c-2.26-.92-4.73-1.91-7.36-3.11-8.5-3.88-15.29-2.63-19.91-1.88s-8.8.25-14.07-3.38S132.21,57,123.68,51.58s-10.78-6.4-18.56-8.9-6.64-8.17-6.64-8.17A54.69,54.69,0,0,1,103.94,36c10.85,3.43,20.25,9.78,27.6,16,6.91,5.86,11.94,6.42,18.94,7.77a75.33,75.33,0,0,1,20.34,6.78A64.73,64.73,0,0,1,177.93,70.48Z" style="fill:#f3f8ff"/><path d="M202,96.46c-2.57,1.63-7.15,2.83-9.72.57s-4.64-6.34-4.51-9.22.91-3.25.12-6.81c1.84,3.77,2.27,7.08,5,9.91,4.28,4.4,7.22,3.34,9.47.68C202.36,91.59,204.55,94.83,202,96.46Z" style="fill:#f3f8ff"/><path d="M252.4,43.93c-3.34,7.36-5.6,10-4.09,13.79s2,6.27.5,7.52,2.25,3.76.5,4.52,2,3-.5,4.76-4.27,11-3.26,13.29-1.76,5.77-4.27,12.29-5.26,16.8,3.26,25.32-1.25,9.28,2.26,14.8.75,7,1.25,9-2.5,8.52-1.75,15,8,18.31.5,16.8a15.3,15.3,0,0,1-4.62-2.17c7.33-3.32,2.66-13.7.11-17.64-2.76-4.26,3.76-14.29,2-16.05s-3-3.76-4.14-8,2.39-6.27-3.13-11-1.25-18.81,0-23.66,4.52-12,2.51-15.79,1.25-8.2,4.51-12.46,2-4.51-.25-6.77-1.75-3.51,0-6.77-1-7,1.26-12.29a7.45,7.45,0,0,0,.39-5.53C253.28,38.16,254.91,38.41,252.4,43.93Z" style="fill:#ea5521"/><path d="M39.29,123.78a25.29,25.29,0,0,1-1,5.09,47.72,47.72,0,0,1-2,5.32c-.5,1.15-1.62,2.48-1.94,3.65,0,0-.88,3.26-6.14,1.75s-12.16-3.26-14-6.14-3.77-7.65,2.88-5.52c3.24,1,6.92,3.43,10.45,2.84,4.81-.81,7.3-6.19,9.55-9.91a1.8,1.8,0,0,1,.62-.69C39.08,119.49,39.35,123.07,39.29,123.78Z" style="fill:#f3f8ff"/><path d="M26.36,116.57s0,0-.06.09A.47.47,0,0,0,26.36,116.57Z" style="fill:#bfc6d8"/><path d="M24.13,117.78a2.65,2.65,0,0,1-2-.94c0,.1,0,1.46.31,1.62h0a3.71,3.71,0,0,0,1.72.42,3.24,3.24,0,0,0,.94-.13,8.19,8.19,0,0,1,1.09-1.9A2.67,2.67,0,0,1,24.13,117.78Z" style="fill:#bfc6d8"/><path d="M24.13,117.78a2.65,2.65,0,0,1-2-.94c0,.1,0,1.46.31,1.62h0a3.71,3.71,0,0,0,1.72.42,3.24,3.24,0,0,0,.94-.13,8.19,8.19,0,0,1,1.09-1.9A2.67,2.67,0,0,1,24.13,117.78Z" style="fill:#bfc6d8"/><path d="M26.8,115.1a2.61,2.61,0,0,1-.43,1.46h0a.47.47,0,0,1-.06.09l-.14.18h0a2.67,2.67,0,0,1-4.06,0h0a2.67,2.67,0,0,1,2-4.41,2.61,2.61,0,0,1,1,.18,0,0,0,0,1,0,0A2.64,2.64,0,0,1,26.8,115.1Z" style="fill:#2b2b2b"/><path d="M24.13,117.78a2.65,2.65,0,0,1-2-.94c0,.1,0,1.46.31,1.62h0a3.71,3.71,0,0,0,1.72.42,3.24,3.24,0,0,0,.94-.13,8.19,8.19,0,0,1,1.09-1.9A2.67,2.67,0,0,1,24.13,117.78Z" style="fill:#e4eaf4"/><path d="M24.13,107.71a7.4,7.4,0,1,0,7.4,7.39A7.39,7.39,0,0,0,24.13,107.71Zm1.1,13.57a6.53,6.53,0,0,1-1.1.09,6.2,6.2,0,0,1-1.68-.23,6.27,6.27,0,0,1,1.68-12.31,6.1,6.1,0,0,1,2,.32,6.27,6.27,0,0,1-.86,12.13Z" style="fill:#919eaf"/><path d="M25.7,111.67a3.75,3.75,0,0,0-1.57-.34,2.36,2.36,0,0,0-.38,0,3.79,3.79,0,0,0-1.42.43c-.74-.36-1.92.44-2.21,1.44s-.42,1.8-.63,2.74,1.09,2.48,1.67,2.73.73-.55.73-.55a3,3,0,0,0,.52.32h0c.28.16.13,1.36,0,1.63a4.45,4.45,0,0,0,0,1,6.27,6.27,0,0,1,1.68-12.31,6.1,6.1,0,0,1,2,.32S24.25,109.23,25.7,111.67Z" style="fill:#b2bdd1"/><path d="M29,115.89a24.72,24.72,0,0,1-1.34,2.72.83.83,0,0,1-1.55-.28,3.77,3.77,0,0,0,1.82-3.23,3.73,3.73,0,0,0-.66-2.13s1.23-.37,1.73.42S29.48,114.37,29,115.89Z" style="fill:#2b2b2b"/><path d="M30.4,115.1a6.27,6.27,0,0,1-5.17,6.18,3,3,0,0,0,.24-.91c0-.42.16-.59-.36-1.05-.12-.1-.12-.31,0-.57a3.38,3.38,0,0,0,1-.42.83.83,0,0,0,1.55.28A24.72,24.72,0,0,0,29,115.89c.5-1.52.5-1.71,0-2.5s-1.73-.42-1.73-.42a3.83,3.83,0,0,0-1.55-1.3c-1.45-2.44.39-2.52.39-2.52A6.26,6.26,0,0,1,30.4,115.1Z" style="fill:#f0f45a"/><path d="M25.47,120.37a3,3,0,0,1-.24.91,6.53,6.53,0,0,1-1.1.09,6.2,6.2,0,0,1-1.68-.23,4.45,4.45,0,0,1,0-1c.09-.27.24-1.47,0-1.63a3.71,3.71,0,0,0,1.72.42,3.24,3.24,0,0,0,.94-.13c-.08.26-.08.47,0,.57C25.63,119.78,25.47,120,25.47,120.37Z" style="fill:#e4eaf4"/><path d="M27.91,115.1a3.77,3.77,0,0,1-1.82,3.23,3.38,3.38,0,0,1-1,.42,8.19,8.19,0,0,1,1.09-1.9h0l.14-.18a.47.47,0,0,0,.06-.09h0a2.61,2.61,0,0,0,.43-1.46,2.64,2.64,0,0,0-1.69-2.48,0,0,0,0,0,0,0c-.16-.08-1.42-.79-1.35-1.26a2.36,2.36,0,0,1,.38,0,3.75,3.75,0,0,1,1.57.34,3.83,3.83,0,0,1,1.55,1.3A3.73,3.73,0,0,1,27.91,115.1Z" style="fill:#e4eaf4"/><path d="M21.89,118.14s-.14.81-.73.55-1.88-1.8-1.67-2.73.34-1.73.63-2.74,1.47-1.8,2.21-1.44a3.77,3.77,0,0,0-.44,6.36Z" style="fill:#2b2b2b"/><path d="M39.36,104.75a6.81,6.81,0,0,1-7.08,1c-5.39-2.51-5.89-6.9-2.92-5.64s4.93.5,7.68-1.76a3.16,3.16,0,0,1,4.76,1.37,2.91,2.91,0,0,1,.12.39C42.39,102,40.72,103.7,39.36,104.75Z" style="fill:#f3f8ff"/><path d="M212.18,105c0,.42,0,.83-.06,1.22l-.93.08c-49.65,4.72-59.43,3.8-78,2.82S64,111.33,64,111.33c-4.89,1.19-6.9.18-4.26,0s3.88-2.08,7.27-2.18,20.31-.28,28.71-1.44,8.82,0,23.2-.25,29,.5,44.29.58C178.2,108.12,210.85,105.15,212.18,105Z" style="fill:#bfc6d8"/><path d="M176.59,130c-6.77-4.62-12.29,18.09-43.13,24.92s-37.36-9-43.88-19-8.78-8.88-18.06-12.21-1.25,26-9,36.28-5,28.84,31.34,31.34,48.15-4.51,48.65-12.53,15-13.69,24.82-27.34C167.31,151.5,183.36,134.65,176.59,130ZM168,145.74c-4.18,6-25.91,21.4-25.91,21.4-7.66,5.6-5.69,9.19-7.52,15.71s-25.41,6.68-42.8,4.18-18.56-4.35-19.56-14.71,9.53-10.87,25.79-8.53,22.53,1.34,43.42-6.1,29.92-24.83,31.59-23S172.16,139.72,168,145.74Z" style="fill:#e4eaf4"/><path d="M150.48,59.72c-7-1.35-12-1.91-18.94-7.77-7.35-6.22-16.75-12.57-27.6-16,0,0,17.09-27.13,31.46-32.48,11.11-4.14,12.32-4,12.07-2.6C143.12,2.46,124.32,10.2,116.66,27c-9,19.66,6.9-14,23.05-18.63l.65-.17c16.29-3.89-14.42,2.24-23.32,24.38,0,0,10.92-15,17.66-16.86-.41.3-13.54,9.75-14.4,23.7,0,0,6.08-11.6,9.52-13.8,0,0-5.81,7-4.53,18.81,0,0,1.15-7.9,4.91-10.41A18.09,18.09,0,0,0,130,47.69s.07-7.52,1.48-8.4c0,0,0,8,3.65,11.9-.06-.21-1.48-4.91-.49-6.13,0,0,1.28,10.35,16.06,13A5.41,5.41,0,0,1,150.48,59.72Z" style="fill:#bfc6d8"/><path d="M134.59,45.06c-1,1.22.43,5.92.49,6.13-3.63-3.89-3.65-11.9-3.65-11.9-1.41.88-1.48,8.4-1.48,8.4A18.09,18.09,0,0,1,130.2,34c-3.76,2.51-4.91,10.41-4.91,10.41-1.28-11.78,4.53-18.81,4.53-18.81-3.44,2.2-9.52,13.8-9.52,13.8.86-14,14-23.4,14.4-23.7C128,17.6,117,32.58,117,32.58c8.9-22.14,39.61-28.27,23.32-24.38l-.65.17C123.56,13,107.7,46.66,116.66,27,124.32,10.2,143.12,2.46,147.47.87c-.07.4-.27.91-.38,1.43-.51,2.35.83,4.52-1,5.69s.67,2.5-1.17,3.68-15.55,8-12.54,22.39S143.23,55,147.5,55.13c2.51.1,3.09,1.67,3.15,2.95C135.87,55.41,134.59,45.06,134.59,45.06Z" style="fill:#f3f8ff"/><path d="M168,145.74c-4.18,6-25.91,21.4-25.91,21.4-7.66,5.6-5.69,9.19-7.52,15.71s-25.41,6.68-42.8,4.18-18.56-4.35-19.56-14.71,9.53-10.87,25.79-8.53,22.53,1.34,43.42-6.1,29.92-24.83,31.59-23S172.16,139.72,168,145.74Z" style="fill:#f3f8ff"/><path d="M117.16,203.41a.75.75,0,0,0-.26.5c-3-1-5.91-2.51-5.26-2.51s4,.37,5.77.67A1.43,1.43,0,0,1,117.16,203.41Z" style="fill:#b2bdd1"/><path d="M117.82,210.93h0a2.06,2.06,0,0,1,.07-1.39q.08-.21.18-.45a3.75,3.75,0,0,0-.49-3.36c-7.65-3-12.61-6.49-9.45-6.17,2.4.25,6.5.45,8.7.67-.32-.74-.77-1.68-1.07-2.29a127.91,127.91,0,0,1-17.78.28c-1-.06-2.06-.14-3.07-.22,3.11,3.08,15.74,15.46,20.41,17.95,2.81,1.49,2.94.82,2.64-.33-3.34-1.86-8.36-5.1-10.79-8.24-3.1-4-1.6-3.85.46-1.09,1.55,2.06,7.09,5.67,9.79,7.36a1.14,1.14,0,0,1,.24-1.05C118.49,211.87,118,211.6,117.82,210.93Zm-3.42-1.19c-3.46-1.31-11.41-9.09-7.63-7.71,3.11,1.13,8.14,5.16,9.82,6.55-.36-.23-7-4.42-6.16-3.25s6.52,5.23,6.73,5.38C116.27,210.42,115.33,210.09,114.4,209.74Z" style="fill:#b2bdd1"/><path d="M117.58,205.73c-7.65-3-12.61-6.49-9.45-6.17,2.4.25,6.5.45,8.7.67a8.45,8.45,0,0,1,.58,1.84c-1.82-.3-5.12-.67-5.77-.67s2.23,1.46,5.26,2.51A4.3,4.3,0,0,0,117.58,205.73Z" style="fill:#e4eaf4"/><path d="M117.16,210.71c-.89-.29-1.83-.62-2.76-1-3.46-1.31-11.41-9.09-7.63-7.71,3.11,1.13,8.14,5.16,9.82,6.55-.36-.23-7-4.42-6.16-3.25S117,210.56,117.16,210.71Z" style="fill:#e4eaf4"/><path d="M118,215.62c-3.34-1.86-8.36-5.1-10.79-8.24-3.1-4-1.6-3.85.46-1.09,1.55,2.06,7.09,5.67,9.79,7.36A15.57,15.57,0,0,0,118,215.62Z" style="fill:#e4eaf4"/><path d="M197.07,151.59c-2,3.84-6.35,9.53-12,15.21s-5.18,16.89-10.2,21.72-3,8.54-5.68,11,.17,3.53-1.5,6.46,1,7.61,2.84,9.61-3.51,0-3.51,0c-13.71-5.85-25.49-22.84-25.49-22.84a50.86,50.86,0,0,0,6.24-3s4.87-1.14,6.88,0,1.67-2.37,5-3,4.35-11.2,7.86-9.36,6.52-.16,7.52-3.51,2.34-5,6.86-10.2,6-7,9.69-11.2,4.35-9.32,6-12.43,5.83-12.2,4.09-17.52a14.93,14.93,0,0,1,1.57,5.38C203.87,133.36,199.07,147.74,197.07,151.59Z" style="fill:#ea5521"/><path d="M197.57,140c-1.67,3.11-2.34,8.25-6,12.43s-5.18,6-9.69,11.2-5.86,6.86-6.86,10.2-4,5.35-7.52,3.51-4.52,8.69-7.86,9.36-3,4.18-5,3-6.88,0-6.88,0c16.41-9.41,24.36-26.15,35.88-44s12.7-25,14.17-27.49a11.79,11.79,0,0,1,3.88,4.22C203.4,127.79,199.24,136.87,197.57,140Z" style="fill:#bfc6d8"/><path d="M24.55,112.62a2,2,0,1,1,2,2A2,2,0,0,1,24.55,112.62Z" style="fill:#e4eaf4"/><path d="M85.56,43.27c0,.76-.44,1.38-1,1.38s-1-.62-1-1.38.43-1.38,1-1.38S85.56,42.51,85.56,43.27Z" style="fill:#f3f8ff"/><path d="M94.91,47.53c0,.49-.92.88-2.06.88s-2.06-.39-2.06-.88.92-.87,2.06-.87S94.91,47.05,94.91,47.53Z" style="fill:#f3f8ff"/><path d="M101.16,56.52c0,.86-.34,1.56-.75,1.56s-.75-.7-.75-1.56S100,55,100.41,55,101.16,55.66,101.16,56.52Z" style="fill:#f3f8ff"/><path d="M68.06,58.9c0,.45-.62.82-1.38.82s-1.38-.37-1.38-.82.62-.82,1.38-.82S68.06,58.44,68.06,58.9Z" style="fill:#f3f8ff"/><path d="M85.56,65.32a1,1,0,1,1-2,0,1,1,0,1,1,2,0Z" style="fill:#f3f8ff"/><path d="M75.58,46.09c0,.8-.42,1.44-.94,1.44s-1-.64-1-1.44.42-1.44,1-1.44S75.58,45.3,75.58,46.09Z" style="fill:#f3f8ff"/><path d="M125.73,79.75a1.47,1.47,0,1,1-1.45-1.25A1.36,1.36,0,0,1,125.73,79.75Z" style="fill:#f3f8ff"/><ellipse cx="133.53" cy="78" rx="1.17" ry="0.5" style="fill:#f3f8ff"/><path d="M145,74.74c0,.83-.39,1.5-.87,1.5s-.86-.67-.86-1.5.39-1.5.86-1.5S145,73.91,145,74.74Z" style="fill:#f3f8ff"/><path d="M118.6,67.82A1.59,1.59,0,1,1,117,66.43,1.49,1.49,0,0,1,118.6,67.82Z" style="fill:#f3f8ff"/><path d="M106.93,82.51c0,.83-.34,1.51-.75,1.51s-.76-.68-.76-1.51.34-1.51.76-1.51S106.93,81.68,106.93,82.51Z" style="fill:#f3f8ff"/><path d="M92.85,53.73a1,1,0,1,1-1-1.23A1.14,1.14,0,0,1,92.85,53.73Z" style="fill:#f3f8ff"/><ellipse cx="95.33" cy="42.58" rx="1.19" ry="0.69" style="fill:#f3f8ff"/><path d="M97.15,52.46a1.53,1.53,0,1,1-1.51-1.27A1.41,1.41,0,0,1,97.15,52.46Z" style="fill:#f3f8ff"/><path d="M98,46.37c0,.16-.33.29-.73.29s-.73-.13-.73-.29.33-.28.73-.28S98,46.22,98,46.37Z" style="fill:#f3f8ff"/><path d="M130.92,75.49c0,.42-.6.75-1.34.75s-1.34-.33-1.34-.75.6-.75,1.34-.75S130.92,75.08,130.92,75.49Z" style="fill:#f3f8ff"/><path d="M141.49,79.77c0,.68-.38,1.23-.86,1.23s-.85-.55-.85-1.23.38-1.23.85-1.23S141.49,79.09,141.49,79.77Z" style="fill:#f3f8ff"/><path d="M150.66,74a.72.72,0,0,1-.68.75.75.75,0,1,1,.68-.75Z" style="fill:#f3f8ff"/><path d="M163.68,70.17a1.09,1.09,0,1,1-1.08-1A1,1,0,0,1,163.68,70.17Z" style="fill:#f3f8ff"/><path d="M168.86,72.57a.63.63,0,0,1-.58.67.68.68,0,0,1,0-1.34A.63.63,0,0,1,168.86,72.57Z" style="fill:#f3f8ff"/><path d="M167.69,75.87c0,.21-.56.37-1.25.37s-1.25-.16-1.25-.37.56-.38,1.25-.38S167.69,75.66,167.69,75.87Z" style="fill:#f3f8ff"/><path d="M179.73,81.76A.74.74,0,1,1,179,81,.75.75,0,0,1,179.73,81.76Z" style="fill:#f3f8ff"/><path d="M175.89,75.49c0,.42-.53.75-1.19.75s-1.18-.33-1.18-.75.53-.75,1.18-.75S175.89,75.08,175.89,75.49Z" style="fill:#f3f8ff"/><path d="M175.89,84.39c0,.21-.53.38-1.19.38s-1.18-.17-1.18-.38.53-.37,1.18-.37S175.89,84.19,175.89,84.39Z" style="fill:#f3f8ff"/><path d="M184.08,91a1.43,1.43,0,1,1-1.42-1.33A1.37,1.37,0,0,1,184.08,91Z" style="fill:#f3f8ff"/><path d="M181.23,95a1.15,1.15,0,1,1-1.12-.89A1,1,0,0,1,181.23,95Z" style="fill:#f3f8ff"/><path d="M82.44,98.88c0,.34-.49.61-1.09.61s-1.09-.27-1.09-.61.49-.61,1.09-.61S82.44,98.55,82.44,98.88Z" style="fill:#f3f8ff"/><path d="M88.29,92.46c0,.46-.61.84-1.37.84s-1.36-.38-1.36-.84.61-.84,1.36-.84S88.29,92,88.29,92.46Z" style="fill:#f3f8ff"/><ellipse cx="87.86" cy="98.61" rx="0.93" ry="0.88" style="fill:#f3f8ff"/><path d="M86.92,103.48c0,.47-.52.85-1.17.85s-1.17-.38-1.17-.85.53-.84,1.17-.84S86.92,103,86.92,103.48Z" style="fill:#f3f8ff"/><path d="M94.14,103.91c0,.23-.52.42-1.16.42s-1.16-.19-1.16-.42.52-.43,1.16-.43S94.14,103.67,94.14,103.91Z" style="fill:#f3f8ff"/><ellipse cx="73.38" cy="99.93" rx="1.26" ry="1.05" style="fill:#f3f8ff"/><path d="M78.26,92.79c0,.28-.6.51-1.34.51s-1.34-.23-1.34-.51.6-.5,1.34-.5S78.26,92.52,78.26,92.79Z" style="fill:#f3f8ff"/><path d="M61.82,108.43c0,.39-.64.72-1.43.72s-1.44-.33-1.44-.72.64-.72,1.44-.72S61.82,108,61.82,108.43Z" style="fill:#f3f8ff"/><path d="M71.4,105.68c0,.36-.41.65-.92.65s-.92-.29-.92-.65.42-.65.92-.65S71.4,105.32,71.4,105.68Z" style="fill:#f3f8ff"/><path d="M72.12,54.09a1.31,1.31,0,1,1-1.28-1.59A1.46,1.46,0,0,1,72.12,54.09Z" style="fill:#f3f8ff"/><ellipse cx="74.97" cy="52.96" rx="1.28" ry="1.13" style="fill:#f3f8ff"/><path d="M81.35,47.91c0,.69-.39,1.25-.88,1.25s-.87-.56-.87-1.25.39-1.25.87-1.25S81.35,47.22,81.35,47.91Z" style="fill:#f3f8ff"/><path d="M34.78,80.75c0,.56-.73,1-1.63,1s-1.62-.45-1.62-1,.72-1,1.62-1S34.78,80.2,34.78,80.75Z" style="fill:#f3f8ff"/><ellipse cx="37.27" cy="75.12" rx="1.08" ry="1.13" style="fill:#f3f8ff"/><path d="M46.75,80.13c0,.9-.47,1.63-1,1.63s-1-.73-1-1.63.46-1.63,1-1.63S46.75,79.23,46.75,80.13Z" style="fill:#f3f8ff"/><path d="M39.85,80.56c0,.25-.33.44-.75.44s-.75-.19-.75-.44.34-.43.75-.43S39.85,80.32,39.85,80.56Z" style="fill:#f3f8ff"/><path d="M110.19,73.84a1.53,1.53,0,1,1-1.51-1.27A1.41,1.41,0,0,1,110.19,73.84Z" style="fill:#f3f8ff"/><ellipse cx="102.16" cy="89.66" rx="1" ry="0.75" style="fill:#f3f8ff"/><path d="M99.15,96.82c0,.5-.59.91-1.31.91s-1.32-.41-1.32-.91.59-.91,1.32-.91S99.15,96.32,99.15,96.82Z" style="fill:#f3f8ff"/><ellipse cx="141.52" cy="104.47" rx="0.89" ry="0.56" style="fill:#f3f8ff"/><path d="M147.3,98.61a.88.88,0,1,1-1.76,0,.88.88,0,0,1,1.76,0Z" style="fill:#f3f8ff"/><path d="M152.19,94.58c0,.24-.34.44-.77.44s-.76-.2-.76-.44.34-.45.76-.45S152.19,94.33,152.19,94.58Z" style="fill:#f3f8ff"/><ellipse cx="150.7" cy="99.71" rx="0.72" ry="0.22" style="fill:#f3f8ff"/><path d="M149.31,104c0,.27-.45.49-1,.49s-1-.22-1-.49.45-.5,1-.5S149.31,103.7,149.31,104Z" style="fill:#f3f8ff"/><path d="M164.48,99.93a.95.95,0,1,1-.94-1.05A1,1,0,0,1,164.48,99.93Z" style="fill:#f3f8ff"/><ellipse cx="174.7" cy="97.55" rx="1.18" ry="0.73" style="fill:#f3f8ff"/><ellipse cx="157.14" cy="95.46" rx="0.56" ry="0.44" style="fill:#f3f8ff"/><path d="M158.58,105c0,.38-.45.68-1,.68s-1-.3-1-.68.45-.67,1-.67S158.58,104.63,158.58,105Z" style="fill:#f3f8ff"/><ellipse cx="168.28" cy="104.24" rx="0.59" ry="0.76" style="fill:#f3f8ff"/><path d="M209.49,99a.95.95,0,1,1-.92-.72A.84.84,0,0,1,209.49,99Z" style="fill:#f3f8ff"/><path d="M208.57,103v0Z" style="fill:#f3f8ff"/><path d="M204.88,101h0Z" style="fill:#f3f8ff"/><path d="M209.49,103.62c0,.35-.42.62-.92.62s-.92-.27-.92-.62.41-.62.92-.62S209.49,103.28,209.49,103.62Z" style="fill:#f3f8ff"/><path d="M203.23,103.86c0,.21-.4.38-.88.38s-.89-.17-.89-.38.4-.38.89-.38S203.23,103.65,203.23,103.86Z" style="fill:#f3f8ff"/><ellipse cx="204.8" cy="101.5" rx="0.68" ry="1.01" style="fill:#f3f8ff"/><path d="M207.65,108.91c0,.24-.3.43-.67.43s-.67-.19-.67-.43.3-.44.67-.44S207.65,108.66,207.65,108.91Z" style="fill:#f3f8ff"/><path d="M202.35,108.91a.45.45,0,1,1-.45-.44A.44.44,0,0,1,202.35,108.91Z" style="fill:#f3f8ff"/><path d="M195.49,111.41c0,.27-.13.49-.28.49s-.27-.22-.27-.49.12-.5.27-.5S195.49,111.13,195.49,111.41Z" style="fill:#f3f8ff"/><path d="M208.07,117.16a.52.52,0,0,1-.55.46.47.47,0,1,1,0-.92A.52.52,0,0,1,208.07,117.16Z" style="fill:#f3f8ff"/><ellipse cx="186.54" cy="103.73" rx="0.5" ry="0.73" style="fill:#f3f8ff"/><path d="M192.69,112.63a.64.64,0,1,1-.63-.73A.69.69,0,0,1,192.69,112.63Z" style="fill:#f3f8ff"/><ellipse cx="203.86" cy="114.37" rx="0.64" ry="1.01" style="fill:#f3f8ff"/><path d="M106.18,149.86c0,.91-.51,1.64-1.12,1.64s-1.12-.73-1.12-1.64.5-1.65,1.12-1.65S106.18,149,106.18,149.86Z" style="fill:#f3f8ff"/><path d="M108.68,142.74a1,1,0,0,1-1,.87.88.88,0,1,1,0-1.74A1,1,0,0,1,108.68,142.74Z" style="fill:#f3f8ff"/><path d="M124.28,141.8c0,1-.6,1.81-1.33,1.81s-1.34-.81-1.34-1.81.6-1.81,1.34-1.81S124.28,140.8,124.28,141.8Z" style="fill:#f3f8ff"/><path d="M115.58,146.83c0,.42-.2.75-.44.75s-.44-.33-.44-.75.2-.75.44-.75S115.58,146.42,115.58,146.83Z" style="fill:#f3f8ff"/><path d="M124.28,149a.68.68,0,1,1-1.33,0,.68.68,0,1,1,1.33,0Z" style="fill:#f3f8ff"/><path d="M115.58,139.69c0,.48-.53.87-1.19.87s-1.19-.39-1.19-.87.53-.88,1.19-.88S115.58,139.2,115.58,139.69Z" style="fill:#f3f8ff"/><path d="M118.6,152.73c0,.34-.14.62-.32.62s-.32-.28-.32-.62.14-.63.32-.63S118.6,152.38,118.6,152.73Z" style="fill:#f3f8ff"/><path d="M133.53,144.34a.6.6,0,1,1-.59-.73A.67.67,0,0,1,133.53,144.34Z" style="fill:#f3f8ff"/><path d="M143.79,139.69a.71.71,0,1,1-.69-.88A.8.8,0,0,1,143.79,139.69Z" style="fill:#f3f8ff"/><ellipse cx="130.25" cy="137.43" rx="0.38" ry="0.75" style="fill:#f3f8ff"/><ellipse cx="140.65" cy="145.95" rx="0.87" ry="0.88" style="fill:#f3f8ff"/><ellipse cx="152.82" cy="138.56" rx="0.63" ry="1.13" style="fill:#f3f8ff"/><path d="M161.34,132.41c0,.42-.48.76-1.06.76s-1.07-.34-1.07-.76.48-.75,1.07-.75S161.34,132,161.34,132.41Z" style="fill:#f3f8ff"/><path d="M150,135.86a.84.84,0,1,1-.84-.81A.82.82,0,0,1,150,135.86Z" style="fill:#f3f8ff"/><path d="M97.84,138.93c0,.42-.47.76-1,.76s-1-.34-1-.76.46-.75,1-.75S97.84,138.52,97.84,138.93Z" style="fill:#f3f8ff"/><path d="M91.82,129.4a.52.52,0,1,1-.52-.5A.51.51,0,0,1,91.82,129.4Z" style="fill:#f3f8ff"/><path d="M87.86,122.84c0,.36-.21.65-.47.65s-.47-.29-.47-.65.21-.65.47-.65S87.86,122.48,87.86,122.84Z" style="fill:#f3f8ff"/><path d="M98,132.06c0,.61-.32,1.11-.73,1.11s-.73-.5-.73-1.11.33-1.1.73-1.1S98,131.45,98,132.06Z" style="fill:#f3f8ff"/><path d="M118.6,97.09c0,.65-.35,1.18-.78,1.18s-.79-.53-.79-1.18.35-1.18.79-1.18S118.6,96.44,118.6,97.09Z" style="fill:#f3f8ff"/><path d="M124.28,100.46c0,.29-.33.53-.73.53s-.73-.24-.73-.53.33-.53.73-.53S124.28,100.17,124.28,100.46Z" style="fill:#f3f8ff"/><path d="M113.2,114.74a1.17,1.17,0,1,1-1.17-1.23A1.2,1.2,0,0,1,113.2,114.74Z" style="fill:#f3f8ff"/><path d="M122.82,111.92a.61.61,0,1,1-.6-.51A.56.56,0,0,1,122.82,111.92Z" style="fill:#f3f8ff"/><path d="M119.65,119.27c0,.45-.59.82-1.31.82s-1.31-.37-1.31-.82.59-.81,1.31-.81S119.65,118.82,119.65,119.27Z" style="fill:#f3f8ff"/><path d="M133.53,118.85c0,.59-.26,1.07-.59,1.07s-.58-.48-.58-1.07.26-1.07.58-1.07S133.53,118.26,133.53,118.85Z" style="fill:#f3f8ff"/><path d="M151.42,115.72a1.06,1.06,0,1,1-1.06-1A1,1,0,0,1,151.42,115.72Z" style="fill:#f3f8ff"/><path d="M165.19,115.16a.76.76,0,1,1-1.51,0,.76.76,0,1,1,1.51,0Z" style="fill:#f3f8ff"/><path d="M155.32,125.48c0,.23-.42.41-.94.41s-.94-.18-.94-.41.42-.42.94-.42S155.32,125.25,155.32,125.48Z" style="fill:#f3f8ff"/><path d="M160.28,121.67c0,.29-.38.52-.85.52s-.85-.23-.85-.52.38-.53.85-.53S160.28,121.38,160.28,121.67Z" style="fill:#f3f8ff"/><path d="M186,126.48c0,.78-.44,1.42-1,1.42s-1-.64-1-1.42.44-1.42,1-1.42S186,125.69,186,126.48Z" style="fill:#f3f8ff"/><path d="M187.74,117c0,.37-.15.67-.35.67s-.35-.3-.35-.67.16-.68.35-.68S187.74,116.57,187.74,117Z" style="fill:#f3f8ff"/><path d="M194.94,103.55a1.15,1.15,0,1,1-1.13-.91A1,1,0,0,1,194.94,103.55Z" style="fill:#f3f8ff"/><path d="M125.73,65.32c0,.61-.32,1.11-.72,1.11s-.73-.5-.73-1.11.32-1.11.73-1.11S125.73,64.7,125.73,65.32Z" style="fill:#f3f8ff"/><ellipse cx="119.98" cy="56.07" rx="1.64" ry="1.11" style="fill:#f3f8ff"/><path d="M130.25,61.87c0,.46-.15.83-.34.83s-.33-.37-.33-.83.15-.84.33-.84S130.25,61.41,130.25,61.87Z" style="fill:#f3f8ff"/><path d="M137.44,69a1.18,1.18,0,1,1-1.18-1.18A1.18,1.18,0,0,1,137.44,69Z" style="fill:#f3f8ff"/><path d="M48.84,58.9a1,1,0,0,1-1.05.82.85.85,0,1,1,1.05-.82Z" style="fill:#f3f8ff"/><path d="M52.18,54.89a.82.82,0,0,1-.84.79.81.81,0,0,1-.83-.79.82.82,0,0,1,.83-.8A.82.82,0,0,1,52.18,54.89Z" style="fill:#f3f8ff"/><path d="M54.67,59.72h0Z" style="fill:#f3f8ff"/><path d="M60.39,48.35a.91.91,0,1,1-.91-.82A.86.86,0,0,1,60.39,48.35Z" style="fill:#f3f8ff"/><path d="M54.67,58.45c0,.7-.33,1.27-.74,1.27s-.75-.57-.75-1.27.34-1.26.75-1.26S54.67,57.75,54.67,58.45Z" style="fill:#f3f8ff"/><ellipse cx="77.25" cy="149.03" rx="1" ry="0.82" style="fill:#f3f8ff"/><path d="M80.26,141.21c0,.36-.45.66-1,.66s-1-.3-1-.66.45-.65,1-.65S80.26,140.86,80.26,141.21Z" style="fill:#f3f8ff"/><path d="M86.92,137.81c0,.62-.74,1.12-1.66,1.12s-1.65-.5-1.65-1.12.74-1.13,1.65-1.13S86.92,137.18,86.92,137.81Z" style="fill:#f3f8ff"/><path d="M95.33,151.6c0,1-.53,1.75-1.18,1.75S93,152.57,93,151.6s.52-1.74,1.17-1.74S95.33,150.64,95.33,151.6Z" style="fill:#f3f8ff"/><ellipse cx="107.23" cy="160.9" rx="1.45" ry="0.65" style="fill:#f3f8ff"/><path d="M118,160.4a1.19,1.19,0,1,1-1.19-1.16A1.17,1.17,0,0,1,118,160.4Z" style="fill:#f3f8ff"/><path d="M216.76,91c0,.72-.34,1.31-.75,1.31s-.76-.59-.76-1.31.34-1.32.76-1.32S216.76,90.25,216.76,91Z" style="fill:#f3f8ff"/><path d="M220.15,85.08v0Z" style="fill:#f3f8ff"/><path d="M226.54,82.51c0,.83-.36,1.51-.81,1.51s-.81-.68-.81-1.51.36-1.51.81-1.51S226.54,81.68,226.54,82.51Z" style="fill:#f3f8ff"/><path d="M222.31,90.26c0,.34-.48.62-1.08.62s-1.08-.28-1.08-.62.48-.62,1.08-.62S222.31,89.91,222.31,90.26Z" style="fill:#f3f8ff"/><path d="M222.31,85.08c0,.38-.48.69-1.08.69s-1.08-.31-1.08-.69.48-.69,1.08-.69S222.31,84.7,222.31,85.08Z" style="fill:#f3f8ff"/><path d="M220.15,124.27a.88.88,0,0,1-1,.79.8.8,0,1,1,0-1.57A.88.88,0,0,1,220.15,124.27Z" style="fill:#f3f8ff"/><ellipse cx="218.73" cy="119.5" rx="0.47" ry="0.63" style="fill:#f3f8ff"/><path d="M224.41,124.67a.52.52,0,1,1-.51-.4A.47.47,0,0,1,224.41,124.67Z" style="fill:#f3f8ff"/><path d="M219.64,108.91c0,.24-.31.43-.69.43s-.69-.19-.69-.43.31-.44.69-.44S219.64,108.66,219.64,108.91Z" style="fill:#f3f8ff"/><path d="M224.92,143.45a.77.77,0,1,1-.76-.63A.7.7,0,0,1,224.92,143.45Z" style="fill:#f3f8ff"/></g></g></svg>