<svg xmlns="http://www.w3.org/2000/svg" viewBox="0 0 269.26 188.58"><title>sunshine-peacock-cichlid</title><g id="Layer_2" data-name="Layer 2"><g id="Ñëîé_2" data-name="Ñëîé 2"><path d="M267.6,123.7c-3.52.71-3.17,5.7-1.74,10.69.57,2-.88,5.05-5.36,5.27-3.67.19-9.4-1.53-17.73-7.33l-.57-.41c4.26,1.66,7.25,1,12.08-1.09,8.19-3.57,5.17-15.14,3.39-20s-6.06-19.41-3-29,6.59-24.75,1.25-33.12c-2-3.21-5.45-4-8.89-3.72a35.82,35.82,0,0,1,10.67-3.94,11.57,11.57,0,0,1,2.29-.16c10.85.19,7.84,16.41,4.83,19.75-3.21,3.56-1.43,17.8-3.21,19.23s-2.85,17.8,2.14,27.42S271.11,123,267.6,123.7Z" style="fill:#ffe966"/><path d="M253,111.1c-2.32-3.16-5.35-17-3.39-23.94s3.74-21.86,0-32c-2.4-6.52-7.08-6.51-10.12-5.66h0q-2,1.34-4,2.75c-8.12,5.79-15.83,12.4-21,16.26-8.75,6.57-19.7.24-25.37-3.71h0c-.79-.55-1.48-1.05-2-1.47-4.63-3.39-25.28-19-81.91-27.58a97.54,97.54,0,0,0-28.49-.09Q73,36.19,69.36,37a101,101,0,0,0-9.86,2.66C62.16,43,65,47.81,61,49.15c-6.41,2.14-25.64,5-29.68,9.74s-8.56,1.46-14.72,10.44c-2.37,3.47-5.88,3.45-8.83,1.54-.93.86-1.75,1.65-2.47,2.35,2.18,1.21,5.43,2.43,8.27,1.1,4.81-2.26,6.24-5.64,7.48-7.6s5.17-2.14,6.24-.89S24.87,82,43.15,83.11,60,67.49,58.23,64.35s-.88-6.18,1-5.64,3.82-.94,5.42-1.18,4.1,2.3,10.86,6.82,8.37,38-9.08,44.75c-17.24,6.68-45.65-5.47-46.35-5.77,19.26,12.09,38,18.16,60.2,20.54,6.46.7,13.21,1.09,20.34,1.21,6,.1,12.26,0,18.85-.19a203.5,203.5,0,0,0,27.92-2.62c18.43-3.23,27-8.74,35-13.83,1-.62,1.93-1.23,2.9-1.83,2-1.26,4-2.45,6.27-3.56,15.67-7.84,25.87,6.41,25.87,6.41a185.48,185.48,0,0,0,21.85,20.3l.12.1C255.83,134.08,255.24,114.11,253,111.1Zm-209.89-30c-6.52,0-13.59-5.29-13.59-11.81s7.07-11.8,13.59-11.8c5.78,0,11.9,4.15,13.21,9.63a9.28,9.28,0,0,1,.27,2.17C56.63,75.85,49.67,81.14,43.15,81.14Zm204.19,36.15c-7.3-4.09-33.3-21.54-22.78-12.11s22.78,21,19.22,19.65-29.17-24.2-29.17-24.2c-1.08.12-2.35-.36-3.83-1.67-5.7-5-26.6-3.27-56.51-.42s-51.52-9-57.93-28.24S37.93,43.93,80.27,38.94,174.21,61,185.37,69.33s21.85,7,21.85,7c2.6-.06,2.85-1.31,5.69-2a2.06,2.06,0,0,1,1.7.46c-.5-6,20.09-18.39,24-21.59s5.7.18,3.92,2.67-24.75,13.71-23.8,15.31-.42,3.56,7.85-.87,22.36-10.88,22.54-8.57S236.3,68,230.49,71.06s-9.33,4.92-8.79,6,5.16.18,10.85-2.14,17.46-5.34,17.1-3S234,77.94,227.93,80s-8.89,4.78-3.37,4.36,24.92-6.55,24.74-3.52-4.81,2.85-16.75,4.27-10.32,4.1-8,5.17,16-.89,20.85,0,1.75,3.74-2.88,3.2-19.05-1.25-18.87,0,2.92,2.49,2.92,2.49c24.47,6.59,22.18,10.69,18.83,10.62s-35.47-14.71-15.7-4.21S254.64,121.39,247.34,117.29Z" style="fill:#f7e00d"/><path d="M75.5,64.35c-6.76-4.52-9.26-7.07-10.86-6.82s-3.56,1.71-5.42,1.18-2.77,2.49-1,5.64,3.2,19.82-15.08,18.76-14.84-16-15.9-17.28-5-1.07-6.24.89-2.67,5.34-7.48,7.6c-2.84,1.33-6.09.11-8.27-1.1-1.51,1.47-2.57,2.56-3.12,3.12,0,0,11.93.35,18,10C26,95.65,20.12,84,.19,81.19a3.8,3.8,0,0,0,2,1.91C11.93,84.71,21.19,92,21.19,92s.71.83.36,1.19-3.33-1.91-3.33-1.91C6.11,83.58.06,85,0,87.16a3.41,3.41,0,0,0,1.84,3.07,188,188,0,0,0,18.22,13.09,0,0,0,0,1,0,0c.7.3,29.11,12.45,46.35,5.77C83.87,102.33,82.27,68.86,75.5,64.35Zm-56.21,33C11.81,95-.65,87.5,3.62,87.16s18.4,7.46,18.16,9S19.29,97.35,19.29,97.35Zm55.86-6.41c-1.61,14.6-16.74,20-33.64,15.67s-13.73-8.37,1.58-10.15S63.75,80.08,63.75,80.08a10.06,10.06,0,0,0,.13-5.65c-.37-1.39-1.5-3.13.57-3.89,3-1.12,6.84,2,8.35,4.35C75.74,79.51,75.72,85.7,75.15,90.94Z" style="fill:#5295dd"/><path d="M.19,81.19c-.43-1.09-.23-2.67,2-4.85,0,0,11.93.35,18,10C26,95.65,20.12,84,.19,81.19Z" style="fill:#7dc1f4"/><path d="M21.78,96.16c-.23,1.54-2.49,1.19-2.49,1.19C11.81,95-.65,87.5,3.62,87.16S22,94.62,21.78,96.16Z" style="fill:#6bb0ed"/><path d="M56.36,67.16s-2.23,2.67-3.56,0-3.89-6.49-9.65-6.94-9,5.16-9.85,7.39-3.74,1.72-3.74,1.72c0-6.52,7.07-11.8,13.59-11.8C48.93,57.53,55.05,61.68,56.36,67.16Z" style="fill:#a186bc"/><path d="M56.36,67.16s-2.23,2.67-3.56,0-3.89-6.49-9.65-6.94-9,5.16-9.85,7.39-3.74,1.72-3.74,1.72c0,6.52,7.07,11.81,13.59,11.81s13.48-5.29,13.48-11.81A9.28,9.28,0,0,0,56.36,67.16ZM43.15,77.53a8.2,8.2,0,1,1,8.19-8.2A8.2,8.2,0,0,1,43.15,77.53Z" style="fill:#daace5"/><path d="M43.15,61.14a8.2,8.2,0,1,0,8.19,8.19A8.19,8.19,0,0,0,43.15,61.14Zm0,13.18a5,5,0,1,1,5-5A5,5,0,0,1,43.15,74.32Z" style="fill:#f7ecb5"/><path d="M48.14,69.33a5,5,0,1,1-5-5A5,5,0,0,1,48.14,69.33Z" style="fill:#2b2b2b"/><path d="M75.15,90.94c-1.61,14.6-16.74,20-33.64,15.67s-13.73-8.37,1.58-10.15S63.75,80.08,63.75,80.08a10.06,10.06,0,0,0,.13-5.65c-.37-1.39-1.5-3.13.57-3.89,3-1.12,6.84,2,8.35,4.35C75.74,79.51,75.72,85.7,75.15,90.94Z" style="fill:#6bb0ed"/><path d="M219.32,89.17c-.17,5.72-1.65,11.1-4.71,11.46-1.08.12-2.35-.36-3.83-1.67-5.7-5-26.6-3.27-56.51-.42s-51.52-9-57.93-28.24S37.93,43.93,80.27,38.94,174.21,61,185.37,69.33s21.85,7,21.85,7c2.6-.06,2.85-1.31,5.69-2a2.06,2.06,0,0,1,1.7.46C217.06,76.58,219.52,82.91,219.32,89.17Z" style="fill:#ef7422"/><path d="M126.06,178.46h0c-7.28-4.57-18.3-14.36-21.13-17.23-3.52-3.56,9.21,4.74,14.53,7.83s-9.36-8.07-12.92-11.87,12.11,3.8,14.73,5.46-11.88-8.07-15.68-11.16,10,3.09,15,4.75-9-6.41-13.76-10.45,9.49,3.33,14.93,6.41-5.68-4.75-14-10.68,10,3.33,13.3,5-6.17-5.7-11-9.74,9,2.38,2.4-1.9c-4.11-2.64-3.52-4.31-2.48-5.2-5.73-1.33-8.74-1-9.39-4.58-7.13-.12-13.88-.51-20.34-1.21,0,0-.62,10.57,7.22,25.15,12.36,16.88,31,28.65,40,33.67A33.08,33.08,0,0,1,126.06,178.46ZM102,153.8c-.35,4.63-2.67,4.63-10.5-4.78s-7.48-28.7-4-18,13.3,16.21,13.3,16.21C102.56,148.36,102.39,149.17,102,153.8Z" style="fill:#f7e00d"/><path d="M126.06,178.45c-7.28-4.57-18.3-14.36-21.13-17.23-3.52-3.56,9.21,4.74,14.53,7.83s-9.36-8.07-12.92-11.87,12.11,3.8,14.73,5.46-11.88-8.07-15.68-11.16,10,3.09,15,4.75-9-6.41-13.76-10.45,9.49,3.33,14.93,6.41-5.68-4.75-14-10.68,10,3.33,13.3,5-6.17-5.7-11-9.74,9,2.38,2.4-1.9c-4.11-2.64-3.52-4.31-2.48-5.2q.85.19,1.77.45c6.88,1.9,13.53,9.26,11.87,9.57s4.51,5.16,1.9,5.39,3.33,4.51.48,17.81A33.14,33.14,0,0,0,126.06,178.45Z" style="fill:#5295dd"/><path d="M126.25,187.81c-21.14-13.3-32.58-27.3-38.76-38.79,12.36,16.88,31,28.65,40,33.67h0c.66,1.62,1.29,2.91,1.62,3.92C130.29,190.18,126.25,187.81,126.25,187.81Z" style="fill:#7dc1f4"/><path d="M102,153.8c-.35,4.63-2.67,4.63-10.5-4.78s-7.48-28.7-4-18,13.3,16.21,13.3,16.21C102.56,148.36,102.39,149.17,102,153.8Z" style="fill:#ffe966"/><path d="M224.56,144.22c-.19,1-1.12,1.71-3.58,1.39-6.76-.9-12.28-.55-11,.07s-11.21-3.81-10.15-1.14-7.12-1.07-6.41.35-6.63-.42-6.43.86-5.32-1.64-5.32,0-6,1.1-7.83-1-7.48-3.49-7.48-2.36-1.43,4.5-2.85,2.9-8.19-9.26-8.19-9.26-3.56-.89-3.74,0c-.09.43-1.11,1-2.28,1.12a32.46,32.46,0,0,1-1.91-10.67c2.37.82,4.56,6.52,5.61,6.52,1.25,0-3.56-6.76-2.31-6.76s13,13.71,14.6,13.48-15.32-15.44-12.11-15.81,15.49,16.57,18,15.81-16.21-17.58-13.89-18.11,19.41,19.76,22.79,19.58-19.77-19.58-17.27-20.3,21.54,21.55,23.32,20.32-21.19-20.85-19.58-21.56,25.64,22.26,27.95,21.54-25.11-22.26-23.86-22.79,32,23,34.37,22.79S175,118.36,176.29,117.29s32.94,23.51,34,22.39S176.47,114.62,180,115.33s36.86,27.07,33.3,22.26S174,108.92,182.38,112s27.92,19.23,24.89,14.6-24.89-18.11-24.89-18.11c1-.62,1.93-1.23,2.9-1.83,0,0,18.13-1.66,22.88,10.92S217.79,140.1,224.56,144.22Z" style="fill:#f7e00d"/><path d="M180,115.33c-3.56-.71,31.34,23.24,30.27,24.35s-32.76-23.46-34-22.39,31,23.68,28.67,23.86-33.12-23.32-34.37-22.79,26.18,22.07,23.86,22.79-26.35-22.26-27.95-21.54,21.36,20.33,19.58,21.56-20.83-21-23.32-20.32S183.41,141,180,141.15,159.55,121,157.24,121.57s16.38,17.35,13.89,18.11-14.78-16.17-18-15.81,13.71,15.59,12.11,15.81-13.36-13.48-14.6-13.48S154.21,133,153,133c-1.05,0-3.24-5.7-5.61-6.52,0-1.3,0-2.69,0-4.17,18.43-3.23,27-8.74,35-13.83,0,0,21.87,13.48,24.89,18.11S190.78,115,182.38,112s27.39,20.83,31,25.64S183.59,116.05,180,115.33Z" style="fill:#ef7422"/><path d="M211.49,149c-5.46.56-12.59-1.52-11.16,0s-7.6-1.8-6.65.1-6.65-2.23-5.46.3-9,.16-7.6,1.35-6.17-.24-9-2.85-6.65-3.56-4.51-.71-4.75,2.61-7.36-1.9-6.89-9.59-6.89-5.63c0,2.26-2,1.45-3.58-2.57,1.17-.14,2.19-.69,2.28-1.12.18-.89,3.74,0,3.74,0s6.76,7.66,8.19,9.26,2.85-1.78,2.85-2.9,5.7.23,7.48,2.36,7.83,2.68,7.83,1,5.52,1.28,5.32,0,7.15.57,6.43-.86,7.48,2.32,6.41-.35,11.4,1.78,10.15,1.14,4.28-1,11-.07c2.46.32,3.39-.38,3.58-1.39l.22.14C231.67,148.4,217,148.45,211.49,149Z" style="fill:#ffe966"/><path d="M61,49.15c-6.41,2.14-25.64,5-29.68,9.74s-8.56,1.46-14.72,10.44c-2.37,3.47-5.88,3.45-8.83,1.54C16.67,62.53,35,47.45,59.5,39.65,62.16,43,65,47.81,61,49.15Z" style="fill:#ffe966"/><path d="M211.85,6.21c-2.22.86-4.33,2.15-5,3.17-1.07,1.66-6.77,2.26-10.21,1.43s-3.21,1.19-4.87,3.56-4.63,2-6.77-.36-5.1-.71-7.6,1.66-6,.12-8.42-2.85-5.7,2.26-8.31-1.3-9.26.59-12-2.79-4.75,2.91-8.55-.54S134,10.93,130.88,8,124,9.38,120.55,6.65s-8.19,2.14-11.27-1.31S102.51,9.5,99.9,6.53C98.49,4.94,96.39,7,95.32,8c-.79.75-1.53,1.57-2.37,2.29s-1.86-.69-2.64-1c-1.48-.52-3.19,2.21-4.36,2.95s-3.36,1.81-4.45.32c-1.31-1.78-2.74,2-3.21,3.79s-1.54,4-2.84,3.33-3.69,3.33-4,4.63-1.19,3.44-2.73,3c-1-.32-2.84,1.67-3.93,3.05-1-3.73,4-3.53,3.1-4.72C66.66,24,72.6,24,71.17,19s5-2.37,4.28-5.7,6.41-1.66,8.07-5.46,7.12,1.42,10.2-3.09S101.32,4,104.78.94s5.8,2.62,10.31.49S121.5,5,126.49,3.36s6.88,3.05,10.21.62,8.78,3.39,11.63,1.25,7.6,3.8,13.54,1.89,5.22,5.23,8.07,2.38,5.46,3.57,9.87.95,8.17,1.9,12.68-.95,6.89,1.66,12.11-1.9C207.38,5.71,209.48,6,211.85,6.21Z" style="fill:#5295dd"/><path d="M230.49,9.79a15.36,15.36,0,0,0-7.6.66c-4.52,1.9-5.53-3.82-9.3-.85S202.94,11.16,201,13.54s-9.49,7.83-10.68,6.41-8.52-3.57-10.55-1.43-9.63,4.27-9.16,1.66-4-4-7.36-3.08-4.27-2.43-6.41-2-4.15-3.18-7.65-1.05-7.54-3.32-9.92-2.13-5.94,3.32-6.65,1.19-1.9-3.81-5.93-1.67-5.94,2.61-6.18.48-6.41-3.8-8.07-.72a3.75,3.75,0,0,1-6.17.95c-1.19-1.42-5.7-.95-6.41,1.19s-3.82,4.27-6.18,2.61-8.33-4.55-8.55-.85S84,22.82,81.86,21.38s-4-.24-4,2.13-.94,5.23-2.37,3.8a1.91,1.91,0,0,0-3.33,1.43c.23,1.65-.48,4.95-2.14,3.66a4.39,4.39,0,0,0-4.46-.22,7.25,7.25,0,0,1-.77-1.82c1.09-1.38,2.9-3.37,3.93-3.05,1.54.47,2.37-1.67,2.73-3s2.74-5.34,4-4.63,2.37-1.54,2.84-3.33,1.9-5.57,3.21-3.79c1.09,1.49,3.25.45,4.45-.32s2.88-3.47,4.36-2.95c.78.27,1.75,1.72,2.64,1S94.53,8.74,95.32,8c1.07-1,3.17-3,4.58-1.46,2.61,3,6.29-4.63,9.38-1.19s7.83-1.42,11.27,1.31S127.8,5,130.88,8s5.46-3.21,9.26.23,5.82-2.85,8.55.54,9.38-.77,12,2.79,5.94-1.66,8.31,1.3,5.93,5.23,8.42,2.85,5.47-4,7.6-1.66,5.11,2.73,6.77.36,1.43-4.4,4.87-3.56,9.14.23,10.21-1.43c.66-1,2.77-2.31,5-3.17a12.21,12.21,0,0,0,7.48-1.46c6.66-3.56-.72,6.41,3.56,3.56S239.82,4.11,230.49,9.79Z" style="fill:#ffe966"/><path d="M217.78,15.62C169.17,54.08,179,55.5,181.48,53.37S216,19.71,213.59,25.76s-43,37-29.29,31.75,32.77-35.31,26.36-21.42S178.25,62.27,187.15,60.2s24.93-22.5,21.9-14.87-21.9,18-21.9,18c-4.63-3.39-25.28-19-81.91-27.58a97.54,97.54,0,0,0-28.49-.09c-5.12-3.12-2-6.15,0-4.07s7.12,1.84,4.09-3,.36-5.16,3.39-1.06,5.87,4.45,5.87.89-2.67-12.11,0-8.2,1.61,11.58,3.57,11.34,2.67-3.14,2.67-3.14C97.23,17,104.53,14,102,19.53s-5.16,12.82-.89,12.87,4.63-13.76,9.44-16.25.54,6.41-1.24,10.15-4.28,6.05-1.61,6.94,4.28-2.67,8.19-10.5,7.66-6.77,2.67,1.42-4.09,8.19,0,8.24,5.88-14.65,9.8-16.78-1.25,9.25-4.45,15.13,2.13,5.52,3.91,5.34S139.07,16,140.68,16.33s-5,14.24-7.66,17.45.53,3.92,2.31,4.16,8-17.52,12-19.93-.95,9.54-4.51,14.39-3.56,6.9-2.13,6.9,1.06.71,8.53-7.72,4.82-13.29,7-11.87-2,10.68-3.56,12.69S145.31,40,146,40.9s3.74.89,10.15-7.48S164.71,21,166,22.56s-10.5,16.38-12.64,18.87,1.07,3,3,1.61S171,23.09,172.73,24.16s.35,1.25-6.23,11.93-10.15,7.3-5.17,9.24,10-13.87,18.48-21,1.64,6.59-5.12,14-13.81,17.53-4.46,8.79S195,20.42,196.05,21.69s-15.67,17.79-21,23.64-2.85,10.53,3.93,1.45,36.67-35.26,38.81-34.19S217.78,15.62,217.78,15.62Z" style="fill:#e26510"/><path d="M230.49,9.79l-.72.43c-10.69,6.16-14.25,20.65-16.18,35.11S189.54,64.71,189.2,64.79h0c-.79-.55-1.48-1.05-2-1.47,0,0,18.88-10.35,21.9-18s-13,12.79-21.9,14.87S204.25,50,210.66,36.09,198,52.22,184.3,57.51s26.89-25.69,29.29-31.75S184,51.23,181.48,53.37s-12.31.71,36.3-37.75c0,0,2.14-2,0-3S185.74,37.7,179,46.78s-9.27,4.41-3.93-1.45,22.08-22.38,21-23.64-16.46,16.7-25.82,25.44-2.31-1.39,4.46-8.79,13.62-21.12,5.12-14-13.49,22.93-18.48,21-1.42,1.45,5.17-9.24,8-10.86,6.23-11.93S158.3,41.61,156.35,43s-5.17.89-3-1.61S167.21,24.16,166,22.56s-3.38,2.49-9.79,10.86S146.73,41.79,146,40.9s5-6.5,6.59-8.5,5.69-11.26,3.56-12.69.5,3.44-7,11.87-7.11,7.72-8.53,7.72-1.43-2,2.13-6.9S151.3,15.59,147.32,18s-10.21,20.18-12,19.93-5-1-2.31-4.16,9.26-17.1,7.66-17.45-11,19.58-12.83,19.76-7.12.54-3.91-5.34,8.37-17.27,4.45-15.13-5.7,16.82-9.8,16.78-5,0,0-8.24,1.25-9.26-2.67-1.42-5.52,11.39-8.19,10.5-.18-3.2,1.61-6.94,6-12.64,1.24-10.15-5.16,16.29-9.44,16.25-1.6-7.35.89-12.87-4.8-2.49-5.69,8.91c0,0-.72,2.9-2.67,3.14s-.9-7.42-3.57-11.34,0,4.63,0,8.2-2.85,3.2-5.87-.89-6.41-3.74-3.39,1.06-2.13,5-4.09,3-5.12,1,0,4.07Q73,36.19,69.36,37a25.79,25.79,0,0,1-3.84-4.81A4.39,4.39,0,0,1,70,32.4c1.66,1.29,2.37-2,2.14-3.66a1.91,1.91,0,0,1,3.33-1.43c1.43,1.43,2.37-1.42,2.37-3.8s1.9-3.56,4-2.13,3.08-2.62,3.31-6.32,6.18-.81,8.55.85,5.47-.47,6.18-2.61,5.22-2.61,6.41-1.19a3.75,3.75,0,0,0,6.17-.95c1.66-3.08,7.84-1.42,8.07.72s2.14,1.66,6.18-.48,5.22-.47,5.93,1.67,4.28,0,6.65-1.19,6.41,4.27,9.92,2.13,5.51,1.43,7.65,1.05,3.08,3,6.41,2,7.84.47,7.36,3.08,7.12.48,9.16-1.66,9.36,0,10.55,1.43,8.78-4,10.68-6.41,8.78-.95,12.55-3.94,4.78,2.75,9.3.85A15.36,15.36,0,0,1,230.49,9.79Z" style="fill:#f7e00d"/><path d="M254.28,130.83c-4.83,2.1-7.82,2.75-12.08,1.09l0,0c-.89-.63-1.82-1.3-2.78-2,16.44,4.22,15.85-15.75,13.65-18.76s-5.35-17-3.39-23.94,3.74-21.86,0-32c-2.4-6.52-7.08-6.51-10.12-5.66,2.18-1.44,4.36-2.78,6.5-4h0L247,45h0c3.44-.27,6.84.51,8.89,3.72,5.34,8.37,1.78,23.5-1.25,33.12s1.25,24.21,3,29S262.47,127.26,254.28,130.83Z" style="fill:#5295dd"/><path d="M247.34,117.29c-7.3-4.09-33.3-21.54-22.78-12.11s22.78,21,19.22,19.65-29.17-24.2-29.17-24.2c3.06-.36,4.54-5.74,4.71-11.46.2-6.26-2.26-12.59-4.71-14.39-.5-6,20.09-18.39,24-21.59s5.7.18,3.92,2.67-24.75,13.71-23.8,15.31-.42,3.56,7.85-.87,22.36-10.88,22.54-8.57S236.3,68,230.49,71.06s-9.33,4.92-8.79,6,5.16.18,10.85-2.14,17.46-5.34,17.1-3S234,77.94,227.93,80s-8.89,4.78-3.37,4.36,24.92-6.55,24.74-3.52-4.81,2.85-16.75,4.27-10.32,4.1-8,5.17,16-.89,20.85,0,1.75,3.74-2.88,3.2-19.05-1.25-18.87,0,2.92,2.49,2.92,2.49c24.47,6.59,22.18,10.69,18.83,10.62s-35.47-14.71-15.7-4.21S254.64,121.39,247.34,117.29Z" style="fill:#e26510"/><ellipse cx="240.02" cy="69.78" rx="2.18" ry="2.38" style="fill:#45bcc9"/><path d="M230.49,79.33a2,2,0,1,1-2-1.8A1.89,1.89,0,0,1,230.49,79.33Z" style="fill:#45bcc9"/><path d="M247,87.45A1.71,1.71,0,1,1,245.29,86,1.59,1.59,0,0,1,247,87.45Z" style="fill:#42baba"/><path d="M249.55,68A1.58,1.58,0,1,1,248,66.57,1.52,1.52,0,0,1,249.55,68Z" style="fill:#78e9ef"/><path d="M263,50.26a1.65,1.65,0,1,1-1.65-1.61A1.63,1.63,0,0,1,263,50.26Z" style="fill:#78e9ef"/><path d="M249.55,117.23c0,1.2-1.33,2.17-3,2.17s-3-1-3-2.17,1.33-2.16,3-2.16S249.55,116,249.55,117.23Z" style="fill:#78e9ef"/><path d="M237.29,98a1,1,0,1,1-1-1.25A1.15,1.15,0,0,1,237.29,98Z" style="fill:#78e9ef"/><path d="M240,81.5a1.09,1.09,0,1,1-1.09-1A1.06,1.06,0,0,1,240,81.5Z" style="fill:#78e9ef"/><ellipse cx="226.55" cy="113.82" rx="1.99" ry="2.61" style="fill:#78e9ef"/><ellipse cx="246.91" cy="59.59" rx="1.62" ry="1.68" style="fill:#78e9ef"/><path d="M257.9,133.29a1.09,1.09,0,1,1-1.08-1.07A1.07,1.07,0,0,1,257.9,133.29Z" style="fill:#78e9ef"/><path d="M248.54,124.27c0,.85-.49,1.54-1.08,1.54s-1.07-.69-1.07-1.54.48-1.55,1.07-1.55S248.54,123.41,248.54,124.27Z" style="fill:#78e9ef"/><ellipse cx="235.19" cy="91.91" rx="2.1" ry="1.61" style="fill:#45bcc9"/><path d="M89.45,67.28a2.16,2.16,0,1,1-2.14-2.49A2.34,2.34,0,0,1,89.45,67.28Z" style="fill:#42baba"/><path d="M98.51,73.8c0,.92-1.08,1.65-2.4,1.65s-2.39-.73-2.39-1.65,1.07-1.65,2.39-1.65S98.51,72.89,98.51,73.8Z" style="fill:#42baba"/><ellipse cx="105.89" cy="59.39" rx="2.02" ry="1.88" style="fill:#45bcc9"/><path d="M207.42,21.85a2,2,0,1,1-2-2.11A2.08,2.08,0,0,1,207.42,21.85Z" style="fill:#45bcc9"/><path d="M197.12,34.05c0,.75-1,1.36-2.27,1.36s-2.27-.61-2.27-1.36,1-1.36,2.27-1.36S197.12,33.3,197.12,34.05Z" style="fill:#45bcc9"/><path d="M189.78,25.48a2,2,0,0,1-3.83,0,2,2,0,0,1,3.83,0Z" style="fill:#45bcc9"/><path d="M152.58,25.48A1.65,1.65,0,1,1,150.93,24,1.58,1.58,0,0,1,152.58,25.48Z" style="fill:#45bcc9"/><path d="M187.87,47.94c0,.85-1.08,1.54-2.41,1.54s-2.41-.69-2.41-1.54,1.08-1.54,2.41-1.54S187.87,47.09,187.87,47.94Z" style="fill:#45bcc9"/><path d="M165.78,38.53a2,2,0,1,1-3.86,0,2,2,0,1,1,3.86,0Z" style="fill:#45bcc9"/><path d="M246.58,99.81A1.52,1.52,0,1,1,245.09,98,1.69,1.69,0,0,1,246.58,99.81Z" style="fill:#45bcc9"/><ellipse cx="226.55" cy="90.16" rx="1.99" ry="1.75" style="fill:#45bcc9"/><path d="M99.36,52A2.4,2.4,0,1,1,97,49.48,2.44,2.44,0,0,1,99.36,52Z" style="fill:#45bcc9"/><ellipse cx="80.4" cy="59.39" rx="2.23" ry="1.88" style="fill:#45bcc9"/><path d="M127.48,78.41a2.32,2.32,0,1,1-2.31-2A2.19,2.19,0,0,1,127.48,78.41Z" style="fill:#45bcc9"/><path d="M121.8,68A1.84,1.84,0,1,1,120,66.57,1.62,1.62,0,0,1,121.8,68Z" style="fill:#45bcc9"/><path d="M125.9,52.36c0,1.16-1.32,2.1-2.94,2.1s-2.94-.94-2.94-2.1,1.31-2.1,2.94-2.1S125.9,51.2,125.9,52.36Z" style="fill:#45bcc9"/><ellipse cx="103.76" cy="82.38" rx="2.13" ry="1.92" style="fill:#45bcc9"/><path d="M141.58,68.17a1.67,1.67,0,1,1-1.67-1.6A1.64,1.64,0,0,1,141.58,68.17Z" style="fill:#45bcc9"/><path d="M152.58,58.85c0,.75-1,1.35-2.29,1.35S148,59.6,148,58.85s1-1.34,2.29-1.34S152.58,58.11,152.58,58.85Z" style="fill:#45bcc9"/><path d="M168.75,59.39a2.2,2.2,0,1,1-2.18-1.88A2,2,0,0,1,168.75,59.39Z" style="fill:#45bcc9"/><path d="M163.85,76.93c0,.82-1,1.48-2.18,1.48s-2.18-.66-2.18-1.48,1-1.48,2.18-1.48S163.85,76.12,163.85,76.93Z" style="fill:#45bcc9"/><ellipse cx="136.88" cy="56.66" rx="3.03" ry="2.2" style="fill:#45bcc9"/><path d="M87.31,40.8a2.85,2.85,0,1,1-2.85-2.86A2.86,2.86,0,0,1,87.31,40.8Z" style="fill:#45bcc9"/><path d="M139.91,96.14a2.23,2.23,0,1,1-2.2-2.62A2.44,2.44,0,0,1,139.91,96.14Z" style="fill:#45bcc9"/><path d="M161.92,89.68a2.54,2.54,0,1,1-2.52-2.23A2.39,2.39,0,0,1,161.92,89.68Z" style="fill:#78e9ef"/><path d="M121.8,86.36c0,1.13-1.39,2-3.12,2s-3.11-.92-3.11-2,1.39-2,3.11-2S121.8,85.22,121.8,86.36Z" style="fill:#78e9ef"/><ellipse cx="87.35" cy="58.59" rx="2.18" ry="2.68" style="fill:#78e9ef"/><ellipse cx="109.07" cy="73.5" rx="3.18" ry="2.83" style="fill:#78e9ef"/><ellipse cx="117.52" cy="62.3" rx="1.95" ry="1.16" style="fill:#78e9ef"/><path d="M110.82,47.23A2.48,2.48,0,1,1,108.35,45,2.37,2.37,0,0,1,110.82,47.23Z" style="fill:#78e9ef"/><ellipse cx="131.78" cy="70.05" rx="2.07" ry="2.1" style="fill:#78e9ef"/><ellipse cx="146.78" cy="88.87" rx="2.48" ry="1.42" style="fill:#78e9ef"/><path d="M152.58,73.52a2.61,2.61,0,1,1-2.6-2.85A2.72,2.72,0,0,1,152.58,73.52Z" style="fill:#78e9ef"/><ellipse cx="134.68" cy="85.88" rx="0.83" ry="1.57" style="fill:#78e9ef"/><path d="M180.46,75.22a2.09,2.09,0,1,1-2.06-1.72A1.9,1.9,0,0,1,180.46,75.22Z" style="fill:#78e9ef"/><path d="M192.58,72.7c0,.89-1,1.62-2.33,1.62s-2.33-.73-2.33-1.62,1-1.63,2.33-1.63S192.58,71.8,192.58,72.7Z" style="fill:#78e9ef"/><path d="M204.36,77.27c0,1.14-.63,2.06-1.42,2.06s-1.42-.92-1.42-2.06.63-2,1.42-2S204.36,76.14,204.36,77.27Z" style="fill:#78e9ef"/><ellipse cx="212.45" cy="85.73" rx="2.15" ry="1.42" style="fill:#78e9ef"/><path d="M198.19,84.45c0,1-.61,1.91-1.36,1.91s-1.37-.86-1.37-1.91.61-1.91,1.37-1.91S198.19,83.4,198.19,84.45Z" style="fill:#78e9ef"/><path d="M181.69,95.42a1.69,1.69,0,1,1-1.64-1.31A1.5,1.5,0,0,1,181.69,95.42Z" style="fill:#78e9ef"/><path d="M146.35,106a1.74,1.74,0,1,1-1.74-1.84A1.79,1.79,0,0,1,146.35,106Z" style="fill:#78e9ef"/><ellipse cx="194.7" cy="113.08" rx="2.12" ry="1.98" style="fill:#78e9ef"/><ellipse cx="204.37" cy="120.36" rx="1.02" ry="1.91" style="fill:#78e9ef"/><path d="M213.33,134.91a2.37,2.37,0,1,1-2.35-2.69A2.53,2.53,0,0,1,213.33,134.91Z" style="fill:#78e9ef"/><path d="M199.85,140.37c0,1.09-1.62,2-3.63,2s-3.64-.89-3.64-2,1.63-2,3.64-2S199.85,139.28,199.85,140.37Z" style="fill:#78e9ef"/><path d="M15.67,70.74A1.57,1.57,0,0,1,14,72.15a1.43,1.43,0,1,1,0-2.82A1.58,1.58,0,0,1,15.67,70.74Z" style="fill:#78e9ef"/><path d="M30.16,60.06a1.41,1.41,0,0,1-1.55,1.21,1.25,1.25,0,1,1,0-2.42A1.41,1.41,0,0,1,30.16,60.06Z" style="fill:#78e9ef"/><path d="M74,55.45a1.69,1.69,0,1,1-1.65-2.06A1.89,1.89,0,0,1,74,55.45Z" style="fill:#78e9ef"/><path d="M75.45,44.73a1.56,1.56,0,1,1-1.56-1.66A1.62,1.62,0,0,1,75.45,44.73Z" style="fill:#78e9ef"/><path d="M85.17,48.35c0,.62-.8,1.13-1.78,1.13s-1.77-.51-1.77-1.13.79-1.12,1.77-1.12S85.17,47.73,85.17,48.35Z" style="fill:#78e9ef"/><path d="M101.63,63a2.4,2.4,0,1,1-2.34-1.83A2.13,2.13,0,0,1,101.63,63Z" style="fill:#78e9ef"/><path d="M115.57,56a1.35,1.35,0,1,1-1.34-1.53A1.44,1.44,0,0,1,115.57,56Z" style="fill:#78e9ef"/><ellipse cx="100.01" cy="95.12" rx="2.25" ry="1.6" style="fill:#78e9ef"/><ellipse cx="86.83" cy="103.79" rx="1.67" ry="1.25" style="fill:#78e9ef"/><path d="M93.72,90.79c0,.62-.94,1.12-2.1,1.12s-2.09-.5-2.09-1.12.93-1.11,2.09-1.11S93.72,90.18,93.72,90.79Z" style="fill:#78e9ef"/><path d="M97.76,84.06a1.6,1.6,0,1,1-1.6-1.68A1.64,1.64,0,0,1,97.76,84.06Z" style="fill:#78e9ef"/><path d="M97.76,105.37c0,.64-.72,1.17-1.6,1.17s-1.6-.53-1.6-1.17.71-1.17,1.6-1.17S97.76,104.73,97.76,105.37Z" style="fill:#78e9ef"/><path d="M70.69,114.76c0,.92-.51,1.67-1.15,1.67s-1.16-.75-1.16-1.67.52-1.68,1.16-1.68S70.69,113.83,70.69,114.76Z" style="fill:#78e9ef"/><ellipse cx="89.46" cy="81.22" rx="2.16" ry="1.89" style="fill:#78e9ef"/><path d="M127.48,93c0,1.19-.72,2.16-1.6,2.16s-1.59-1-1.59-2.16.72-2.17,1.59-2.17S127.48,91.76,127.48,93Z" style="fill:#78e9ef"/><path d="M139.91,79.51c0,1.1-.5,2-1.1,2s-1.1-.89-1.1-2,.49-2,1.1-2S139.91,78.42,139.91,79.51Z" style="fill:#78e9ef"/><ellipse cx="161.08" cy="68.66" rx="1.68" ry="2.09" style="fill:#78e9ef"/><path d="M144.61,52a2.35,2.35,0,1,1-2.35-2.49A2.42,2.42,0,0,1,144.61,52Z" style="fill:#78e9ef"/><path d="M158.48,53.87c0,1.54-.64,2.79-1.42,2.79s-1.43-1.25-1.43-2.79.64-2.79,1.43-2.79S158.48,52.33,158.48,53.87Z" style="fill:#78e9ef"/><path d="M185.46,36.29c0,.91-.54,1.65-1.21,1.65s-1.2-.74-1.2-1.65.54-1.64,1.2-1.64S185.46,35.38,185.46,36.29Z" style="fill:#78e9ef"/><path d="M199.85,25.48A1.37,1.37,0,1,1,198.49,24,1.43,1.43,0,0,1,199.85,25.48Z" style="fill:#78e9ef"/><path d="M217.78,19.37c0,1.37-.71,2.48-1.59,2.48s-1.59-1.11-1.59-2.48.71-2.48,1.59-2.48S217.78,18,217.78,19.37Z" style="fill:#78e9ef"/><path d="M205.39,41.62a1.94,1.94,0,1,1-1.94-2A2,2,0,0,1,205.39,41.62Z" style="fill:#78e9ef"/><path d="M199.85,17.77a1.51,1.51,0,1,1-1.51-1.59A1.55,1.55,0,0,1,199.85,17.77Z" style="fill:#78e9ef"/><path d="M168.75,23.41a2.18,2.18,0,1,1-2.18-2.07A2.13,2.13,0,0,1,168.75,23.41Z" style="fill:#78e9ef"/><path d="M178.4,20.09a1.6,1.6,0,1,1-1.59-1.76A1.68,1.68,0,0,1,178.4,20.09Z" style="fill:#78e9ef"/><path d="M187.92,18.93a1,1,0,1,1-1-1.16A1.08,1.08,0,0,1,187.92,18.93Z" style="fill:#78e9ef"/><path d="M204.37,131.57a1.61,1.61,0,1,1-1.6-1.71A1.67,1.67,0,0,1,204.37,131.57Z" style="fill:#78e9ef"/><path d="M218.73,141c0,.74-.93,1.34-2.07,1.34s-2.06-.6-2.06-1.34.92-1.33,2.06-1.33S218.73,140.28,218.73,141Z" style="fill:#78e9ef"/><path d="M240.76,107.49A1.76,1.76,0,1,1,239,106,1.61,1.61,0,0,1,240.76,107.49Z" style="fill:#78e9ef"/><ellipse cx="233.25" cy="88.16" rx="1.94" ry="1.01" style="fill:#78e9ef"/><path d="M221.57,71.37a1.42,1.42,0,1,1-1.42-1.32A1.38,1.38,0,0,1,221.57,71.37Z" style="fill:#78e9ef"/><path d="M229.74,66.72a1.61,1.61,0,1,1-1.58-1.93A1.79,1.79,0,0,1,229.74,66.72Z" style="fill:#78e9ef"/><path d="M224.56,103.86c0,.73-1,1.32-2.21,1.32s-2.2-.59-2.2-1.32,1-1.32,2.2-1.32S224.56,103.13,224.56,103.86Z" style="fill:#78e9ef"/><path d="M232.55,99.52a2.2,2.2,0,1,1-2.2-2.14A2.16,2.16,0,0,1,232.55,99.52Z" style="fill:#78e9ef"/><path d="M238.93,76.92c0,1.43-.84,2.59-1.87,2.59s-1.87-1.16-1.87-2.59.84-2.6,1.87-2.6S238.93,75.48,238.93,76.92Z" style="fill:#78e9ef"/><path d="M224.56,83.62c0,1.16-.67,2.11-1.5,2.11s-1.49-1-1.49-2.11.67-2.12,1.49-2.12S224.56,82.45,224.56,83.62Z" style="fill:#78e9ef"/><path d="M237.06,63.14a1.91,1.91,0,1,1-1.9-2A1.95,1.95,0,0,1,237.06,63.14Z" style="fill:#78e9ef"/><path d="M224.56,96.25c0,.63-.67,1.13-1.5,1.13a1.17,1.17,0,1,1,0-2.26C223.89,95.12,224.56,95.63,224.56,96.25Z" style="fill:#45bcc9"/><path d="M201.9,126.5a1.71,1.71,0,1,1-1.71-1.67A1.69,1.69,0,0,1,201.9,126.5Z" style="fill:#45bcc9"/><path d="M210.3,128.62a1.46,1.46,0,1,1-1.44-1.24A1.35,1.35,0,0,1,210.3,128.62Z" style="fill:#45bcc9"/><path d="M201.9,113.46c0,.72-.38,1.3-.85,1.3s-.86-.58-.86-1.3.39-1.3.86-1.3S201.9,112.74,201.9,113.46Z" style="fill:#45bcc9"/><path d="M211.85,141.78c0,.31-.51.57-1.13.57s-1.13-.26-1.13-.57.5-.56,1.13-.56S211.85,141.47,211.85,141.78Z" style="fill:#45bcc9"/><path d="M180.05,143.9a1.62,1.62,0,1,1-1.62-1.55A1.59,1.59,0,0,1,180.05,143.9Z" style="fill:#45bcc9"/><path d="M191.42,145.05a1.78,1.78,0,1,1-1.77-1.66A1.71,1.71,0,0,1,191.42,145.05Z" style="fill:#45bcc9"/><path d="M205.39,143.9a1.76,1.76,0,1,1-1.75-1.55A1.66,1.66,0,0,1,205.39,143.9Z" style="fill:#45bcc9"/><path d="M194.85,132.11a2.3,2.3,0,1,1-2.3-2.25A2.28,2.28,0,0,1,194.85,132.11Z" style="fill:#45bcc9"/><path d="M193.82,121.26c0,.5-.55.91-1.22.91s-1.22-.41-1.22-.91.55-.9,1.22-.9S193.82,120.76,193.82,121.26Z" style="fill:#45bcc9"/><path d="M190.25,109.82a1.68,1.68,0,1,1-1.66-1.38A1.54,1.54,0,0,1,190.25,109.82Z" style="fill:#45bcc9"/><path d="M201.05,117.44a1.32,1.32,0,1,1-1.28-1A1.17,1.17,0,0,1,201.05,117.44Z" style="fill:#45bcc9"/><path d="M162.76,141.88c0,.84-.38,1.51-.84,1.51s-.84-.67-.84-1.51.37-1.51.84-1.51S162.76,141.05,162.76,141.88Z" style="fill:#45bcc9"/><path d="M236.26,108.51a1.86,1.86,0,1,1-1.86-2A1.92,1.92,0,0,1,236.26,108.51Z" style="fill:#45bcc9"/><path d="M249.55,110.55a1.58,1.58,0,1,1-1.58-1.61A1.6,1.6,0,0,1,249.55,110.55Z" style="fill:#45bcc9"/><path d="M247,76.37a1,1,0,1,1-.95-1.15A1.07,1.07,0,0,1,247,76.37Z" style="fill:#45bcc9"/><path d="M191.42,80.48c0,1.14-1.22,2.06-2.73,2.06S186,81.62,186,80.48s1.23-2.07,2.74-2.07S191.42,79.34,191.42,80.48Z" style="fill:#45bcc9"/><path d="M199.85,74a1.54,1.54,0,1,1-1.51-1.84A1.69,1.69,0,0,1,199.85,74Z" style="fill:#45bcc9"/><path d="M211,74.26c0,.87-.52,1.57-1.17,1.57s-1.17-.7-1.17-1.57.52-1.56,1.17-1.56S211,73.4,211,74.26Z" style="fill:#45bcc9"/><ellipse cx="209.63" cy="80.51" rx="2.21" ry="0.99" style="fill:#45bcc9"/><path d="M178.43,62.19c0,1.44-.88,2.6-2,2.6s-2-1.16-2-2.6.88-2.6,2-2.6S178.43,60.75,178.43,62.19Z" style="fill:#45bcc9"/><path d="M129.32,44.43a2.53,2.53,0,1,1-2.51-2.81A2.68,2.68,0,0,1,129.32,44.43Z" style="fill:#45bcc9"/><path d="M131.78,60.52a2.22,2.22,0,1,1-2.15-1.67A2,2,0,0,1,131.78,60.52Z" style="fill:#45bcc9"/><ellipse cx="171.48" cy="69.7" rx="1.07" ry="1.04" style="fill:#45bcc9"/><ellipse cx="200.83" cy="97.35" rx="1.07" ry="1.41" style="fill:#45bcc9"/><ellipse cx="218.96" cy="94.45" rx="1.18" ry="1.49" style="fill:#45bcc9"/><path d="M117.52,98.6c0,.67-1,1.21-2.31,1.21s-2.31-.54-2.31-1.21,1-1.22,2.31-1.22S117.52,97.93,117.52,98.6Z" style="fill:#45bcc9"/><path d="M112.24,88.39A2,2,0,1,1,110.3,86,2.21,2.21,0,0,1,112.24,88.39Z" style="fill:#45bcc9"/><path d="M165.78,17.77a1.51,1.51,0,1,1-1.51-1.59A1.55,1.55,0,0,1,165.78,17.77Z" style="fill:#45bcc9"/><path d="M211.85,12.44a1.52,1.52,0,1,1-3,0,1.52,1.52,0,1,1,3,0Z" style="fill:#45bcc9"/><ellipse cx="199.51" cy="56.52" rx="2.39" ry="2.06" style="fill:#45bcc9"/><ellipse cx="81.44" cy="110.75" rx="1.18" ry="0.93" style="fill:#45bcc9"/><ellipse cx="96.96" cy="116.52" rx="0.8" ry="0.92" style="fill:#45bcc9"/><path d="M83.39,89.6a1.25,1.25,0,1,1-1.24-1.19A1.22,1.22,0,0,1,83.39,89.6Z" style="fill:#45bcc9"/><path d="M116.28,78.52c0,.55-.58,1-1.31,1a1,1,0,1,1,0-2C115.7,77.53,116.28,78,116.28,78.52Z" style="fill:#45bcc9"/><path d="M96.16,67.32A1.23,1.23,0,1,1,94.94,66,1.29,1.29,0,0,1,96.16,67.32Z" style="fill:#45bcc9"/><path d="M96.11,45.56c0,.46-.69.84-1.55.84S93,46,93,45.56s.7-.83,1.55-.83S96.11,45.1,96.11,45.56Z" style="fill:#45bcc9"/><path d="M23.63,62.12c0,.47-.52.85-1.16.85s-1.16-.38-1.16-.85.52-.85,1.16-.85S23.63,61.65,23.63,62.12Z" style="fill:#45bcc9"/><path d="M56,46a1,1,0,1,1-1-1.25A1.15,1.15,0,0,1,56,46Z" style="fill:#45bcc9"/><path d="M51.34,55.56c0,.61-.72,1.1-1.6,1.1s-1.6-.49-1.6-1.1.71-1.1,1.6-1.1S51.34,55,51.34,55.56Z" style="fill:#45bcc9"/><path d="M60.84,52.24c0,.64-.32,1.15-.71,1.15s-.71-.51-.71-1.15.32-1.16.71-1.16S60.84,51.6,60.84,52.24Z" style="fill:#45bcc9"/><path d="M44.63,66.26a2.45,2.45,0,1,1,2.44,2.44A2.45,2.45,0,0,1,44.63,66.26Z" style="fill:#f7ecb5"/></g></g></svg>