<svg xmlns="http://www.w3.org/2000/svg" viewBox="0 0 299.43 189.04"><title>telescope</title><g id="Layer_2" data-name="Layer 2"><g id="Ñëîé_2" data-name="Ñëîé 2"><path d="M292.8,61.49l-3.08,2.62c-4.72,0-12.22.82-15.29,5-4.63,6.37-8.39,10.13-13.89,11S249.26,85.64,247,91.71s.87,11.52,6.07,15,8.1,7,7.23,11.89a18.17,18.17,0,0,0,2.89,14.18c3.19,4.62,6.08,7.22,4.92,10.41S278,167.46,257,175.73c-.55-.09-1.1-.2-1.69-.34-17.94-4.25-41.8-34.9-54.63-53.54,17.7,6.74,47.76,43.82,47.76,43.82-5.78-23.81-53.64-57.4-53.64-57.4,29.38,9,64.35,55.77,64.35,55.77-2.6-25.17-61.91-60.52-61.91-60.52,21.69,3.42,63.65,38.78,63.65,38.78-7.53-18.55-60.54-43.66-60.54-43.66,4.86-2.91,54.46,20.77,54.46,20.77C249,111.47,202.4,91.14,202.4,91.14,212.66,90.27,242,101,242,101c-7.23-7.81-37.6-15.72-37.6-15.72,7.53-5.49,41.75-.93,41.75-.93C232.67,76,205,79.86,205,79.86c14.18-8.11,61-10.13,61-10.13-16.58-8.57-58.86,4.31-59.86,4.62,13.34-14.17,73.75-18,73.75-18C249.36,46,205.83,68,204.73,68.57c28.36-23.72,84.74-22.85,84.74-22.85-26.41-7.58-80.18,13.55-90.27,17.68a23.2,23.2,0,0,0-.87-2.94c68-30.31,98-24.91,100.32-16.33S297.57,57.36,292.8,61.49Z" style="fill:#2b2b2b"/><path d="M281.3,74.07c1.3,2.17-6.08,3-5.82,4.77s-5.25,2.82-4.81,4.78-4.78,3.47-8.68,6.72-5,5.64-.87,11.5,6.73,12.8,4.34,16.71,1.3,8.24,1.09,9.32,3.9,3.91,3,5.86,1.74,3.47,4.12,8.9,6.11,37.08-16.75,33.1c21-8.27,10-29.34,11.11-32.52s-1.73-5.79-4.92-10.41a18.17,18.17,0,0,1-2.89-14.18c.87-4.92-2-8.39-7.23-11.89s-8.39-8.94-6.07-15,8.1-10.7,13.59-11.57,9.26-4.62,13.89-11c3.07-4.22,10.57-5,15.29-5C285.25,67.91,280.25,72.33,281.3,74.07Z" style="fill:#eae3dd"/><path d="M204.73,68.57c1.1-.57,44.63-22.61,75.2-12.24,0,0-60.41,3.85-73.75,18,1-.31,43.28-13.19,59.86-4.62,0,0-46.86,2-61,10.13,0,0,27.67-3.82,41.18,4.46,0,0-34.22-4.56-41.75.93,0,0,30.37,7.91,37.6,15.72,0,0-29.37-10.7-39.63-9.83,0,0,46.57,20.33,52.36,28.27,0,0-49.6-23.68-54.46-20.77,0,0,53,25.11,60.54,43.66,0,0-42-35.36-63.65-38.78,0,0,59.31,35.35,61.91,60.52,0,0-35-46.74-64.35-55.77,0,0,47.86,33.59,53.64,57.4,0,0-30.06-37.08-47.76-43.82-4.86-7-8.14-12.39-8.93-13.94a12.91,12.91,0,0,0-2.51-3.55,60.29,60.29,0,0,0,6.17-10.12C202,80.4,200.47,68.65,199.2,63.4c10.09-4.13,63.86-25.26,90.27-17.68C289.47,45.72,233.09,44.85,204.73,68.57Z" style="fill:#414142"/><path d="M81.92,116.38c-1.31,21.91-34.93,41-16.06,19.31S67.6,88.46,67.6,88.46C62.51,77.26,83.22,94.46,81.92,116.38ZM157.23,94c-.87,6.14-4.19,12.42-7.19,16.87-7.45,11-18.87,19.62-31.16,24.57a20,20,0,0,1-6.54,1.31c0,.59.07,1.27.12,2.07.39,5.55-8.41,4.86-8.49,0a26,26,0,0,0-.22-3.2c-9.63-2.91-17.54-11.28-11.56-24.26.17-.37.33-.73.51-1.09l-.15-.43c-1.52-4.34,2.26-5.51,2.26-5.51a1.76,1.76,0,0,1,1.76-.44c6.19-8.47,15.17-14.33,25-18.33,8.15-3.32,27.12-12.83,33.67-2.56A15.91,15.91,0,0,1,157.23,94Zm42-30.63a23.2,23.2,0,0,0-.87-2.94l-2.3,1s-1.18.42-2.79.95c.36,2.78.76,8.49-1.33,11.85-2.82,4.55-.87,6.07-4.55,6.72s-9.55,1.3-9.55-2-2.17-8.9-6.94-5-9.11,5.42-15.19,3.9-7.37-5.85-6-8.67-7.06-4.13-13.56-5.86-14.54,1.3-14.76,6.72-3.69,7.38-6.72,9.12-.87,5.42-3.91,8.24S96.24,91.21,96,84.92s-5.43-8.9-4.56-13-5.2-9.55-9.54-3.25-10.2,5-15,3.25a25,25,0,0,1-10.81-7.56c-1.43,1.47-3,2.79-4.31,3.07-3.18.73-8.38,2.47-10.55,4.64s-3.77,2-3.77,2S24,75.82,13.18,83.16h0c-.55.37-1.09.75-1.61,1.16a28.91,28.91,0,0,0-9,10.86,34.15,34.15,0,0,0-1.7,4.4c1.87,3.19,6.27,11.09,5.75,13.54C6,115.88,4.82,108,.05,103.45A13.3,13.3,0,0,0,3.56,113.6a73.74,73.74,0,0,0,5.59,5.87A125.63,125.63,0,0,0,28.27,134a190.61,190.61,0,0,0,41.25,19.19c3.49,0,6.83-.18,10-.42-6.36-6.77-10.44-12.41-8.2-13.31,5.78-2.31,10.41,2.86,10.41,2.86a109,109,0,0,0,11.28,8.81,100.09,100.09,0,0,0,24.13-7.19c-.06-.21-.11-.42-.17-.64-1.79-6.73,4.83-8.46,4.83-8.46,2.63-1.34,4.77,1.08,6.22-1.3s3.54-4.34,5.93-2.17l1.38,1.24c18-15.07,23.78-33.87,32-39.86,14.32-10.42,28,1.51,28,1.51C202,80.4,200.47,68.65,199.2,63.4ZM38.39,112.31a15.29,15.29,0,0,1-12.72,7.1c-8.28,0-15.08-7-15.64-15.89,0-.4,0-.79,0-1.19a18.89,18.89,0,0,1,.11-2v0a16.56,16.56,0,0,1,0-3.4,16.37,16.37,0,0,1,8.53-13.14c10-5.5,19.71.14,22.68,5.21s5,14.41-3,23.31A0,0,0,0,1,38.39,112.31ZM45.11,132c-.8.66-4,3.4-5.07,2-1.25-1.6,3.15-6.26,3.94-7.18,14.11-16.71,2.14-40.35,2.14-40.35-.79-2,.24-2.25,1.75-1.45,3.06,1.62,4.61,7.28,5.46,10.22C56.94,107.66,55.78,123.2,45.11,132Z" style="fill:#eae3dd"/><path d="M6.56,113.12C6,115.88,4.82,108,.05,103.45h0a18.68,18.68,0,0,1,.76-3.86C2.68,102.77,7.08,110.67,6.56,113.12Z" style="fill:#414142"/><path d="M40.82,106.73a18.8,18.8,0,0,0,.53-4.4,17.84,17.84,0,0,0-3.84-11.19,15.12,15.12,0,0,0-11.84-5.89c-7,0-13,5-15,12h0a20.43,20.43,0,0,0-.59,3.06,16.56,16.56,0,0,1,0-3.4,16.37,16.37,0,0,1,8.53-13.14c10-5.5,19.71.14,22.68,5.21s5,14.41-3,23.31A17.19,17.19,0,0,0,40.82,106.73Z" style="fill:#dbd5d1"/><path d="M195.36,94.24a60.29,60.29,0,0,1-6.17,10.12c-2-1.87-3.81-1.65-5.45-1.65-2.31,0-4,3.25-4,3.25A82.36,82.36,0,0,1,156,140.61c-.82.7-1.64,1.38-2.48,2A96.48,96.48,0,0,1,130.91,156a61.72,61.72,0,0,1-18.44,4.87h0a53.85,53.85,0,0,1-5.55.28c-4.36-3.31-9.35-6.78-13.86-10a100.09,100.09,0,0,0,24.13-7.19c1.51,6.12-.17,6.61-1.64,9.34s8.32,3.9,12.52-.87,7.8-2.39,12.5-4.77,8.83-8.9,2.75-11.07c-4.77-1.71-6.33-2.6-7.94-4,18-15.07,23.78-33.87,32-39.86C181.72,82.31,195.36,94.24,195.36,94.24Z" style="fill:#dbd5d1"/><path d="M84.18,157.49q-7.4-1.92-14.66-4.32c3.49,0,6.83-.18,10-.42C81,154.28,82.55,155.88,84.18,157.49Z" style="fill:#dbd5d1"/><path d="M191.91,74.29c-2.82,4.55-.87,6.07-4.55,6.72s-9.55,1.3-9.55-2-2.17-8.9-6.94-5-9.11,5.42-15.19,3.9-7.37-5.85-6-8.67-7.06-4.13-13.56-5.86-14.54,1.3-14.76,6.72-3.69,7.38-6.72,9.12-.87,5.42-3.91,8.24S96.24,91.21,96,84.92s-5.43-8.9-4.56-13-5.2-9.55-9.54-3.25-10.2,5-15,3.25a25,25,0,0,1-10.81-7.56A43.74,43.74,0,0,0,60,59.75c9.39-8.87,18.33-14.26,26.93-17.5h0c.64-.24,1.29-.48,1.92-.69,0,0,1.73,4.75,5,6.49s3.25,3.9,2.82,5.64,4.77,3.25,10.41,3.9,11.72-1.52,7.81-5.21,1.09-10,5.43-6.5,19.74,1.19,24.84-3.64a106,106,0,0,1,25.49,14.48,40.78,40.78,0,0,0,4,2.93c4.46,2.89,9,4.67,11,4.67,1.59,0,5.11-1.05,7.62-1.87C193.6,65.22,194,70.93,191.91,74.29Z" style="fill:#414142"/><path d="M145.16,42.23c-5.1,4.83-20.5,7.11-24.84,3.64s-9.33,2.82-5.43,6.5-2.17,5.86-7.81,5.21-10.84-2.17-10.41-3.9.43-3.91-2.82-5.64-5-6.49-5-6.49c1.54-.54,3.07-1,4.58-1.4a74.66,74.66,0,0,1,7.37-1.57c7.81-1.25,15.36-1.25,22.76-1.17C130.73,37.49,138.25,39.5,145.16,42.23Z" style="fill:#eae3dd"/><path d="M123.23,4C106.83,15,93.44,40.15,93.44,40.15c-1.51.4-3,.86-4.58,1.4-.63.21-1.28.45-1.92.69C92.83,28.86,114,8.55,120.75,5.08A13.18,13.18,0,0,1,123.23,4Z" style="fill:#dbd5d1"/><path d="M127.19,10.87c.3,1.11.56,1.93.75,2.67-15.75,9.37-27.13,25-27.13,25a74.66,74.66,0,0,0-7.37,1.57S106.83,15,123.23,4h0c3.27-1,4,.6,6.54-.17C128.27,5.89,126.61,8.71,127.19,10.87Z" style="fill:#2b2b2b"/><path d="M181.9,52.89c-2.22,1.35-4.63,3.28-4.37,5.21-1.67.87-2.76,1.48-2.88,1.54a39.73,39.73,0,0,1-4-2.93,105.89,105.89,0,0,0-25.48-14.48c-6.92-2.73-14.44-4.74-21.6-4.82a132.68,132.68,0,0,0-22.76,1.18s11.38-15.68,27.13-25.05a6.82,6.82,0,0,1,0,3.72h0a69.44,69.44,0,0,0-15.42,14.91c.39-.28,6.44-4.8,14.37-9.51A9.74,9.74,0,0,0,128.09,26a28,28,0,0,0-6.89,8.6c.23-.14,4-2.45,9.68-5.31a9.61,9.61,0,0,0,7.45,2.28c.7-.1,1.36-.17,2-.22a18.49,18.49,0,0,0-5.12,5s4.78-2.11,11.47-4.4a12.53,12.53,0,0,1,5.12,3.53,2.81,2.81,0,0,0,.45.4,15.18,15.18,0,0,0-4.56,4.29c.26-.09,5-1.73,11.3-3.22h0c2,.14,3.7.69,4.51,3a14.88,14.88,0,0,0,.62,1.48,12.79,12.79,0,0,0-4.74,4s2.8-.45,6.83-.85a14.7,14.7,0,0,0,7.68,4.54,10.74,10.74,0,0,0-3.66,3,67,67,0,0,1,10.89-1.57h0A2.55,2.55,0,0,1,181.9,52.89Z" style="fill:#dbd5d1"/><path d="M181.9,52.89a9.48,9.48,0,0,1-1.52,3.75c-1.06.53-2,1-2.86,1.46C177.26,56.17,179.68,54.24,181.9,52.89Z" style="fill:#eae3dd"/><path d="M181.9,52.89a2.57,2.57,0,0,0-.78-2.3,11.28,11.28,0,0,1,4.28.48A29.06,29.06,0,0,0,181.9,52.89Z" style="fill:#414142"/><path d="M189.19,45.43s-9.34.42-15.31,3.69a14.7,14.7,0,0,1-7.68-4.54C172.89,43.92,183,43.42,189.19,45.43Z" style="fill:#414142"/><path d="M183.67,35.23s-12.19,2.1-19.56,6.19a12.84,12.84,0,0,1-.62-1.48c-.81-2.33-2.55-2.88-4.51-3C166.73,35.08,176.81,33.46,183.67,35.23Z" style="fill:#414142"/><path d="M177.38,26.34S161.06,30,152.23,35.85a2.43,2.43,0,0,1-.45-.4,12.53,12.53,0,0,0-5.12-3.53C155.75,28.8,168.38,25.34,177.38,26.34Z" style="fill:#414142"/><path d="M169.57,17.88s-19.22,6.31-29.26,13.45c-.62.05-1.28.12-2,.22a9.59,9.59,0,0,1-7.44-2.28C140.65,24.38,156.17,17.88,169.57,17.88Z" style="fill:#414142"/><path d="M156.33,11.8S139.05,16.36,128.08,26a10.26,10.26,0,0,1-1.24-3.31C136.15,17.14,148,11.34,156.33,11.8Z" style="fill:#414142"/><path d="M127.9,17.26a6.82,6.82,0,0,0,0-3.72A47.33,47.33,0,0,1,145.14,7,107.24,107.24,0,0,0,127.9,17.26Z" style="fill:#414142"/><path d="M195.82,50.64c-4.08.63-10.68,3.64-15.44,6a9.4,9.4,0,0,0,1.52-3.76,30.55,30.55,0,0,1,3.51-1.82,11.54,11.54,0,0,0-4.29-.48h0a5,5,0,0,0-3.3-1,17.6,17.6,0,0,1-3.93-.5c6-3.27,15.31-3.69,15.31-3.69-6.21-2-16.3-1.51-23-.85a14.44,14.44,0,0,1-2.09-3.16c7.37-4.08,19.56-6.18,19.56-6.18-6.85-1.77-16.94-.16-24.69,1.68h0c-2.34-.16-5,.25-6.74-1.07,8.83-5.86,25.15-9.51,25.15-9.51-9-1-21.63,2.47-30.72,5.58a15.78,15.78,0,0,0-6.35-.59c10.05-7.14,29.26-13.45,29.26-13.45-13.4,0-28.92,6.5-38.69,11.39A11.93,11.93,0,0,1,128.09,26c11-9.62,28.24-14.17,28.24-14.17-8.3-.46-20.18,5.33-29.48,10.86a5.47,5.47,0,0,1,.22-3,23.52,23.52,0,0,0,.83-2.42h0A107.24,107.24,0,0,1,145.14,7a47.33,47.33,0,0,0-17.2,6.5c-.18-.74-.45-1.56-.75-2.67-.58-2.16,1.08-5,2.59-7a10.42,10.42,0,0,0,2.47-1.18c5.64-3.47,6.95.44,10.63-1.86s9.55,1,13.45.13,2.17,3,6.08,2.6S165,9.2,167.83,9.2s.65,5.21,4.13,5.21S173,19.62,178,19.62s2.39,4.77,5.64,4.77,1.74,4.77,5,5.42,1.52,4.56,3.91,5.21.21,4.34,3.25,5S202.76,49.56,195.82,50.64Z" style="fill:#2b2b2b"/><path d="M181.11,50.59a66.79,66.79,0,0,0-10.89,1.57,10.63,10.63,0,0,1,3.66-3,17.45,17.45,0,0,0,3.93.5A5,5,0,0,1,181.11,50.59Z" style="fill:#2b2b2b"/><path d="M166.2,44.58c-4,.4-6.83.85-6.83.85a12.7,12.7,0,0,1,4.74-4A14.09,14.09,0,0,0,166.2,44.58Z" style="fill:#2b2b2b"/><path d="M159,36.92c-6.28,1.49-11,3.13-11.31,3.22a15.35,15.35,0,0,1,4.57-4.29C154,37.17,156.63,36.75,159,36.92Z" style="fill:#2b2b2b"/><path d="M146.66,31.92c-6.69,2.29-11.48,4.4-11.48,4.4a18.54,18.54,0,0,1,5.13-5A15.78,15.78,0,0,1,146.66,31.92Z" style="fill:#2b2b2b"/><path d="M130.88,29.27c-5.71,2.86-9.45,5.17-9.69,5.31a28.17,28.17,0,0,1,6.89-8.6A12,12,0,0,0,130.88,29.27Z" style="fill:#2b2b2b"/><path d="M127.07,19.68a5.61,5.61,0,0,0-.23,3c-7.92,4.71-14,9.22-14.36,9.51a69.4,69.4,0,0,1,15.41-14.91A20.31,20.31,0,0,1,127.07,19.68Z" style="fill:#2b2b2b"/><path d="M168.65,179.54c-.12,5.09-1.68,10.41-7,9.37-8.88-1.72-48.38-27.55-49.14-28.06A61.72,61.72,0,0,0,130.91,156a96.48,96.48,0,0,0,22.58-13.32c5.43-1.39,5.86,1.63,7.92,3.07a34.33,34.33,0,0,0-15,6.15c.41-.15,8.55-2.95,12.92,0,0,0-12.3.34-18.74,3.78,0,0,15.84-2.63,20.33,1.42,0,0-18.08.14-23.58,4,0,0,20.69-2.31,24,1.73,0,0-16.81,3.34-28.86.45.55.21,18.48,7.22,27.93,8a93.55,93.55,0,0,1-34.79-6.86c.49.37,16.05,12.31,34.27,14.31C163.31,179.16,166.21,179.41,168.65,179.54Z" style="fill:#2b2b2b"/><path d="M140.56,147.62c-4.7,2.38-8.31,0-12.5,4.77s-14,3.69-12.52.87,3.15-3.22,1.64-9.34a78,78,0,0,0,18.19-11.33c1.61,1.36,3.17,2.25,7.94,4C149.39,138.72,145.27,145.23,140.56,147.62Z" style="fill:#383838"/><path d="M104,138.85a26,26,0,0,0-.22-3.2,26.78,26.78,0,0,0,8.59,1.13c0,.59.07,1.27.12,2.07C112.85,144.4,104.05,143.71,104,138.85Z" style="fill:#414142"/><path d="M96.57,103.92a42.06,42.06,0,0,0-3.83,6.31.43.43,0,0,1,0,.07l-.15-.43c-1.52-4.34,2.26-5.51,2.26-5.51A1.76,1.76,0,0,1,96.57,103.92Z" style="fill:#414142"/><path d="M37.51,74.07S24,75.82,13.18,83.16c2.27-3.78,5.28-7,9.5-8.58,3.7-1.36,9.15-3.58,13-1.78A13,13,0,0,1,37.51,74.07Z" style="fill:#dbd5d1"/><path d="M35.72,72.8c-3.89-1.8-9.34.42-13,1.78-4.22,1.56-7.23,4.8-9.5,8.58h0c-.55.37-1.09.75-1.61,1.16,0,0-.15-6.56,7.87-10.25C26.46,70.84,31.44,70.27,35.72,72.8Z" style="fill:#414142"/><path d="M41.35,102.33a18.8,18.8,0,0,1-.53,4.4,18.28,18.28,0,0,0-5.1,4.51c-2,2.75-4.28,4.77-6.31,3.76s-2.31-1.61-6.22-1.31-8.77-2.85-8.65-4.6-2.48-5-4.51-5.57c0-.4,0-.79,0-1.19a18.89,18.89,0,0,1,.11-2v0a20.43,20.43,0,0,1,.59-3.06,11.06,11.06,0,0,0,3.82,1c2.21.22,3.84,3.47,4.58,5.24h0a2,2,0,0,0-.15.37,4.85,4.85,0,0,0-.27,1.58,5.24,5.24,0,0,0,5.37,5.1,5.36,5.36,0,0,0,5.14-3.62c1.29.65,3.46,1.59,4.72,1.3,1.87-.43.72-4.19-.3-7.88s.44-4.12,2.12-4.55,1.79-4.63,1.79-4.63A17.84,17.84,0,0,1,41.35,102.33Z" style="fill:#555556"/><path d="M29.41,105.42a4.58,4.58,0,0,1-.23,1.48A5.36,5.36,0,0,1,24,110.52a5.24,5.24,0,0,1-5.37-5.1,4.85,4.85,0,0,1,.27-1.58,2,2,0,0,1,.15-.37h0A5.34,5.34,0,0,1,24,100.32,5.24,5.24,0,0,1,29.41,105.42Z" style="fill:#2b2b2b"/><path d="M40.82,106.73a17.19,17.19,0,0,1-2.42,5.55,0,0,0,0,1,0,0,15.29,15.29,0,0,1-12.72,7.1c-8.28,0-15.08-7-15.64-15.89,2,.53,4.63,3.81,4.51,5.57s4.75,4.9,8.65,4.6,4.2.3,6.22,1.31,4.34-1,6.31-3.76A18.28,18.28,0,0,1,40.82,106.73Z" style="fill:#bc7741"/><path d="M37.51,91.14s-.1,4.19-1.79,4.63-3.12.86-2.12,4.55,2.17,7.45.3,7.88c-1.26.29-3.43-.65-4.72-1.3a4.58,4.58,0,0,0,.23-1.48,5.24,5.24,0,0,0-5.37-5.1,5.34,5.34,0,0,0-4.95,3.14c-.74-1.77-2.37-5-4.58-5.24a11.06,11.06,0,0,1-3.82-1h0c2-6.94,8-12,15-12A15.12,15.12,0,0,1,37.51,91.14Z" style="fill:#414142"/><path d="M110.75,179.08c-4.54-1.68-16.81-11.92-26.57-21.59-1.63-1.61-3.19-3.21-4.62-4.74-6.36-6.77-10.44-12.41-8.2-13.31,5.78-2.31,10.41,2.86,10.41,2.86a109,109,0,0,0,11.28,8.81c4.51,3.24,9.5,6.71,13.86,10,6.27,4.74,11.25,9.11,11.6,11.87C119.38,179.66,119.38,182.26,110.75,179.08Z" style="fill:#414142"/><path d="M135.37,132.59a78,78,0,0,1-18.19,11.33c-.06-.21-.11-.42-.17-.64-1.79-6.73,4.83-8.46,4.83-8.46,2.63-1.34,4.77,1.08,6.22-1.3s3.54-4.34,5.93-2.17Z" style="fill:#414142"/><path d="M104.26,109.35c-1.3,1.43-.21,4.42-4.34,4.86s-5.73,0-7.22-3.91a.43.43,0,0,0,0-.07,42.06,42.06,0,0,1,3.83-6.31c1.55.45,3,2.72,4.22,2.81C102.53,106.85,105.56,107.91,104.26,109.35Z" style="fill:#4b4b4c"/><path d="M113.81,130.41c-1.3,2.54-1.65,2.85-1.47,6.37a26.78,26.78,0,0,1-8.59-1.13c-.3-2-.88-3-1.66-6.69-1.08-5.21,3.91-3.69,3.91-3.69C108.9,125.18,115.33,127.44,113.81,130.41Z" style="fill:#4b4b4c"/><path d="M157.23,94c-.87,6.14-4.19,12.42-7.19,16.87-7.45,11-18.87,19.62-31.16,24.57a20,20,0,0,1-6.54,1.31c-.18-3.52.17-3.83,1.47-6.37,1.52-3-4.91-5.23-7.81-5.14,0,0-5-1.52-3.91,3.69.78,3.71,1.36,4.68,1.66,6.69-9.63-2.91-17.54-11.28-11.56-24.26.17-.37.33-.73.51-1.09,1.49,3.93,3.24,4.32,7.22,3.91s3-3.43,4.34-4.86-1.73-2.5-3.47-2.62c-1.27-.09-2.67-2.36-4.22-2.81,6.19-8.47,15.17-14.33,25-18.33,8.15-3.32,27.12-12.83,33.67-2.56A15.91,15.91,0,0,1,157.23,94Z" style="fill:#f7eee8"/><path d="M45.11,132c-.8.66-4,3.4-5.07,2-1.25-1.6,3.15-6.26,3.94-7.18,14.11-16.71,2.14-40.35,2.14-40.35-.79-2,.24-2.25,1.75-1.45,3.06,1.62,4.61,7.28,5.46,10.22C56.94,107.66,55.78,123.2,45.11,132Z" style="fill:#dbd5d1"/><path d="M81.92,116.38c-1.31,21.91-34.93,41-16.06,19.31S67.6,88.46,67.6,88.46C62.51,77.26,83.22,94.46,81.92,116.38Z" style="fill:#dbd5d1"/><path d="M168.65,179.54c-2.44-.13-5.34-.38-8.78-.75-18.22-2-33.78-13.94-34.27-14.31a93.55,93.55,0,0,0,34.79,6.86c-9.45-.8-27.38-7.81-27.93-8,12,2.89,28.86-.45,28.86-.45-3.32-4-24-1.73-24-1.73,5.5-3.91,23.58-4,23.58-4-4.49-4.05-20.33-1.42-20.33-1.42,6.44-3.44,18.74-3.78,18.74-3.78-4.37-3-12.51-.16-12.92,0a34.33,34.33,0,0,1,15-6.15,3.79,3.79,0,0,0,1.65.66c3.76.58-1.16,4.92,2,6.37s-1.44,6.07,2,8.09-3.77,4.05-.87,4.34.22,3.33,1.44,6.36A24.57,24.57,0,0,1,168.65,179.54Z" style="fill:#414142"/><path d="M102.6,161.13s12,8.73,12.79,12.35-7.15,3.9-18.15-6.95S88.13,149.07,102.6,161.13Z" style="fill:#4b4b4c"/><path d="M24.54,103.92a2.19,2.19,0,1,1,2.19,2.19A2.19,2.19,0,0,1,24.54,103.92Z" style="fill:#eae3dd"/></g></g></svg>