<svg xmlns="http://www.w3.org/2000/svg" viewBox="0 0 295.68 171.81"><title>threadfin-butterfly-fish</title><g id="Layer_2" data-name="Layer 2"><g id="Ñëîé_2" data-name="Ñëîé 2"><path d="M61,76.08c.07-.32.14-.66.23-1C61.14,75.42,61.07,75.76,61,76.08Z" style="fill:#2b2b2b"/><path d="M133.61,11.77c-.21,0-2.26-.48-3.8-.86-2.29.92-5.49,2.16-9.22,3.75-9.47,4.06-13.92,9.28-15.08,32.49s-18.57,58.79-18.57,58.79c-1.54-4.83,13.35-48.73,14.7-70.59,1.08-17.3,17.67-23.81,26.27-25.77a15.73,15.73,0,0,1,.18-1.67c-7.23,1.35-15,3.12-23.35,5.4A96.54,96.54,0,0,0,65.79,34.46c-.41,1.25-1,3.89-1.36,5.81,3.62-7.54,9.24-8.2,6.66-5.88-3.68,3.29-5.61,6.38-5.81,15.47,0,.94-.08,2-.19,3.12,0,.27,0,.55-.08.83q-.09.86-.21,1.74c0,.36-.08.71-.13,1.07s-.11.73-.16,1.1-.11.73-.16,1.1c-.23,1.5-.49,3-.76,4.53l-.21,1.13c-.15.84-.31,1.68-.47,2.5,0,.18-.07.36-.11.55-.14.72-.28,1.44-.42,2.12-.05.24-.11.48-.15.72-.14.69-.28,1.36-.41,2-.06.24-.1.45-.15.68s-.15.72-.23,1.06-.15.66-.21,1-.15.72-.23,1c-.2.92-.36,1.6-.46,2,0,0,0,0,0,0a.37.37,0,0,1,0,.15.06.06,0,0,1,0,0s0-.09,0-.15c-.35.77-3.7,8.65,4.39,16.19,5.63,5.24,11.6,13.54,17.4,25.5,3.93-4.3,9.53-10.38,15.2-16.26,15.33-31.5,17-54,15.55-59.52-1.54-5.8,7.54-24.56,11.8-27.08a84.74,84.74,0,0,1,11.64-5.23A8.6,8.6,0,0,0,133.61,11.77ZM77.27,61.32C76.5,73,67.8,91.44,69.54,84.09s3.09-27.27,3.29-40.61c.19-13.14,15-21.55,15.46-21.8C71.47,40.28,78.05,49.67,77.27,61.32Zm1.16,36.62c-1.16-1.81,4.07-13.85,7.74-32.22S85,37.48,88.68,28s28.38-17.8,17.41-11.41S92.55,31.1,92.55,51.21,78.43,97.94,78.43,97.94Zm104.15,0s-.05,0-.1-.1a33,33,0,0,0-6.19-7.74c-2.9-2.7-31.91-30.74-39.26-36.16s-13.53-6.57-9.86-13,4.45-18.37,8.9-21.46A27.5,27.5,0,0,1,138.52,18c0-1.6,0-2.87,0-3.6-1.05.68-2.42,1.52-4.19,2.63C128.14,20.85,123.69,32.26,121,39.8s5.1,11.8,5.1,11.8S139.93,62.82,157,78.29s35.59,40.42,29.2,32.29S126.4,57.4,121.37,54.31,117.11,57.4,111.51,74c-3.71,11-9.62,22.33-13.2,28.79,9.92-10.24,19.86-19.63,21.32-17.83,3,3.72.83,8.38,2.15,11a8.94,8.94,0,0,1,.8,3.63c10.5,11,29,28.57,46,34.87,0,0-21.57-1.11-44.7-30.25.56.71,1.76,4.64-2.08,6a23.59,23.59,0,0,0-4.07,2.64c9.58,9.62,23.92,22,40,29.06-.8-.1-22.56-3.16-42.15-27.46-2.76,2.1-6.15,4.77-9.65,7.54,9.67,10,25.77,25,40.58,30.45,0,0-20.49-1-42-29.32L98.28,128c5.07,8.26,14.64,21.07,27.8,26.45,0,0-19-1.06-29.08-25.45-3.14,2.47-6,4.67-8.15,6.22.73,1.92,1.44,3.9,2.16,5.95,5.43,15.67,17,20.82,24.39,22.47h0l4.81-.48.17,0c2.15-.22,4.33-.46,6.52-.7,2.63-.28,5.26-.5,7.92-.65,57.77-20.28,57.44-54.56,57.44-54.56ZM117.5,74.78s26.67,35.77,59.93,51.06C176.35,125.7,141.87,120.64,117.5,74.78Zm2.14-13.46c.86.83,56.15,53.54,66.32,56.61S162.75,118,119.64,61.32Z" style="fill:#d7cfca"/><path d="M217.28,102.29a36.77,36.77,0,0,0-10.18-5.37,13.64,13.64,0,0,1,4.49.64c7.34-11.88,1.69-24.88,1.51-25.27A31.67,31.67,0,0,1,206.33,74h0c.43-.47,16-17.52,11.92-39.38C214.13,12.41,203,3.64,185.57,3.44c-13.53-.14-32.21-.3-57.48,4.47a15.73,15.73,0,0,0-.18,1.67,25.07,25.07,0,0,1,4.7-.72c2.13,0,.73.64-2.8,2.05,1.54.38,3.59.86,3.8.86a8.6,8.6,0,0,1,2.88,0c3.07-1.12,5.46-1.71,5.38-1-.14,1.24-.77,1.89-3.35,3.56,0,.73,0,2,0,3.6,4-2.31,8.38-3.65,8.38-.77,0,3.48-4.65,9.09-4.65,9.09-1.93,2.63-1.93,5.6-3.67,12.41S134.71,49.47,142.64,53s20.89,15.47,30,25.72c8.31,9.39,10.15,18.76,10,19.25l9.69,9.28a23,23,0,0,1-3-5.9c-1.74-6.19-21.08-31.91-26.88-36.94S143.07,53,141.48,49.09c0,0-4.64-2.33,1.94-13.93s10.63-17,12.37-11,1.55,13.73,8.9,19.34,16.05,19.92,19.53,29,11,24.94,11.41,30.17,2.13,9.86,5.42,15.27c0,0,10.25,15.67,14.11,20.31s4.45,14.59-16,17c-17.18,2-43.71,2.32-59,6.35,10.51-.29,21.22.25,31.89.72,10.19-5.84,38.09,5,54.6-9.72C245.72,135.53,217.28,102.29,217.28,102.29Zm-25-69.09c-5-10.61-15.82-17-23.75-18.85s-10.42-3.18-6.1-3.9c0,0,29.11-6.07,41.49,5.09s7,32.39,3.48,37.22S197.31,43.83,192.31,33.2ZM225,145c-1.94,2.32-5,3.67-4.84,1.16s.58-5-8.53-19.67,1.57-25.39,1.8-22.36,10.6,15.73,14.75,25S225,145,225,145Z" style="fill:#ffcb4a"/><path d="M199.11,155.2c-17.18,2-43.71,2.32-59,6.35h0c-1.75,0-3.5.12-5.24.21,57.77-20.28,57.44-54.56,57.44-54.56a93.43,93.43,0,0,0,8.78,10.73s10.25,15.67,14.11,20.31S219.61,152.83,199.11,155.2Z" style="fill:#e6dfd9"/><path d="M115.4,163.6c-6.12.6-12,1.06-17.6,1.3-3.37-1.32-6.32-2.8-7.86-4.29,0,0-4.74.46-5.06,4.41-8.17-.29-15.34-1.36-21.14-3.64a113,113,0,0,1-13.8-6.69c3-.67,6.75-2.2,9-5.68,4.39-6.71,1.94-8.51,1.94-13.67s1.81-11,0-14.83c-.55-1.15-1.31-2.59-2.13-4.12a10.84,10.84,0,0,0-4.53-10.27c-.51-2.48-2.19-2.34-1.47-3.91.23-.49.14-3.49,0-9s-1.93-5.55-3.09-11.35-3.48-9.28-3.87-5.42-3.6,6.71-2.83,9.67-1,5.16-.12,7.35c.79,1.94.48,9.26-.92,12.57a10.85,10.85,0,0,0-.14,17.9,10.57,10.57,0,0,1-.24,1.51c-.65,2.71-3.21,9.15-2.5,12,.58,2.37-2.29,6.18-2.05,11a14.73,14.73,0,0,0-4.22-.67c-8,0-12.63-6.18-21.66-6.44s-9.67,0-10.25-2.06-.71-2.91,5-3.87c0,0,1.41-1.16-.91-1.29S.17,132.76.05,131.21s-.44-3.09,6.22-5.16c4.15-1.28,12-5.51,18-11.32A6.9,6.9,0,0,0,28,115c4-.82,2.13-1-1.48-2.66A28.4,28.4,0,0,0,30,107.64c1.79.41,4.05,1.12,4.64,2.17.92,1.59.72-3.13-3.23-5.07a18.32,18.32,0,0,0,.66-2c.17-.68.37-1.49.59-2.41,4.43.33,6.07,4.39,5.6,2C37.87,100.56,35,99.21,33,98.5c.27-1.11.56-2.35.9-3.69,3.89,2.22,6.09,6,5.68,3.13-.31-2.28-2.81-5.06-4.72-6.9A179,179,0,0,1,46.28,59c0-.11.1-.22.15-.34l.52-1,.08-.14a87.2,87.2,0,0,1,18.76-23c-.41,1.25-1,3.89-1.36,5.81l-.12.25v0a32,32,0,0,0-2.6,13.18c0,1.17,0,2.28,0,3.35,0,.48,0,1,0,1.43v.28c0,.39,0,.78,0,1.15,0,1.28-.07,2.47-.1,3.6,0,.53,0,1-.05,1.54-.06,1.77-.13,3.32-.2,4.67,0,.2,0,.4,0,.59s0,.43,0,.63,0,.52-.06.76,0,.27,0,.4,0,.49,0,.72c0,.47-.07.91-.1,1.31s0,.54-.07.79c-.08.86-.16,1.54-.22,2.06,0,.17,0,.33-.06.46,0,.3-.09.53-.11.69-.36.77-3.7,8.65,4.39,16.19,5.63,5.24,11.6,13.54,17.4,25.5-3.29,3.62-5.41,6-5.41,6a2,2,0,0,0-.31.65s-3.37,4.49-1,6.9,2.77,2.32,3.27,4.11,3,2.17,6.52-.07h0a21.52,21.52,0,0,0,3.52-2.24c.73,1.92,1.44,3.9,2.15,5.95C96.43,156.8,108.05,162,115.4,163.6Z" style="fill:#e6dfd9"/><path d="M28,115a6.9,6.9,0,0,1-3.78-.26c.8-.77,1.57-1.57,2.3-2.4C30.15,114,32,114.17,28,115Z" style="fill:#efb637"/><path d="M34.59,109.81c-.59-1-2.85-1.76-4.64-2.17a19.84,19.84,0,0,0,1.41-2.9C35.31,106.68,35.51,111.4,34.59,109.81Z" style="fill:#efb637"/><path d="M32.61,100.31c.14-.56.28-1.17.43-1.81,1.92.71,4.83,2.06,5.17,3.79C38.68,104.7,37,100.64,32.61,100.31Z" style="fill:#efb637"/><path d="M33.94,94.81c.29-1.18.61-2.44,1-3.77,1.91,1.84,4.41,4.62,4.72,6.9C40,100.86,37.83,97,33.94,94.81Z" style="fill:#efb637"/><path d="M60.9,135.34c0,5.16,2.45,7-1.94,13.67-2.27,3.48-6,5-9,5.68-5-2.74-9.1-5.19-12.93-6.31-.24-4.8,2.63-8.61,2.05-11-.71-2.84,1.85-9.28,2.5-12a10.57,10.57,0,0,0,.24-1.51,10.85,10.85,0,0,0,17-7.51c.82,1.53,1.58,3,2.13,4.12C62.71,124.38,60.9,130.18,60.9,135.34Z" style="fill:#2b2b2b"/><path d="M54.24,106.12a10.81,10.81,0,0,0-12.3-.12c1.4-3.31,1.71-10.63.92-12.57-.89-2.19.89-4.38.12-7.35s2.44-5.8,2.83-9.67,2.71-.38,3.87,5.42,3,5.8,3.09,11.35.23,8.54,0,9C52.05,103.78,53.73,103.64,54.24,106.12Z" style="fill:#2b2b2b"/><path d="M71.08,34.39c-3.67,3.28-5.6,6.38-5.8,15.47,0,.93-.08,2-.19,3.12,0,.27-.06.54-.09.83,0,.57-.12,1.15-.2,1.74,0,.36-.08.71-.14,1.07s-.1.73-.15,1.1-.11.73-.16,1.1c-.24,1.5-.49,3-.76,4.53l-.21,1.13c-.15.84-.31,1.68-.47,2.5,0,.18-.07.36-.11.55-.14.72-.28,1.44-.43,2.12,0,.24-.1.48-.14.72-.14.69-.28,1.36-.41,2-.06.24-.1.45-.15.68s-.16.72-.23,1.06-.15.66-.21,1-.16.71-.23,1c-.2.91-.37,1.6-.46,2,0,0,0,0,0,0a.66.66,0,0,1,0,.15v0a1,1,0,0,1,0-.15c0-.16.06-.39.11-.69,0-.13,0-.29.06-.46.06-.52.14-1.2.22-2.06,0-.25,0-.51.07-.79s.07-.84.1-1.31c0-.23,0-.47,0-.72s0-.26,0-.4,0-.5.06-.76,0-.41,0-.63,0-.39,0-.59c.07-1.35.14-2.9.2-4.67,0-.5,0-1,.05-1.54,0-1.13.06-2.32.1-3.6,0-.37,0-.76,0-1.15V58.5c0-.47,0-1,0-1.43,0-1.07,0-2.18,0-3.35a32,32,0,0,1,2.6-13.18v0l.12-.25C68.05,32.73,73.67,32.07,71.08,34.39Z" style="fill:#2b2b2b"/><path d="M77.27,61.31C76.5,73,67.8,91.44,69.54,84.09s3.09-27.27,3.28-40.61c.2-13.14,15-21.55,15.47-21.8C71.47,40.28,78.05,49.66,77.27,61.31Z" style="fill:#2b2b2b"/><path d="M106.09,16.59C95.12,23,92.55,31.1,92.55,51.21S78.43,97.94,78.43,97.94c-1.16-1.81,4.06-13.85,7.74-32.22S85,37.48,88.68,28,117.06,10.2,106.09,16.59Z" style="fill:#2b2b2b"/><path d="M129.81,10.91c-2.29.92-5.49,2.16-9.22,3.75-9.47,4.06-13.92,9.28-15.08,32.49s-18.57,58.79-18.57,58.79c-1.54-4.83,13.35-48.73,14.7-70.59,1.08-17.3,17.67-23.81,26.27-25.77a25.07,25.07,0,0,1,4.7-.72C134.74,8.86,133.34,9.5,129.81,10.91Z" style="fill:#2b2b2b"/><path d="M85.32,137.44c-3.51,2.24-6,1.86-6.52.07s-1-1.69-3.27-4.11,1-6.9,1-6.9c-.17.68,0,1.74,2.22,2.39,3.5,1,5.56,6.76,6.08,8.54C84.91,137.54,85.06,137.54,85.32,137.44Z" style="fill:#d7cfca"/><path d="M121.78,110.14a23.59,23.59,0,0,0-4.07,2.64c-.66.48-1.37,1-2.14,1.6l-.14.11c-2.73,2.08-6.07,4.7-9.51,7.43l-1.42,1.13L98.28,128,97,129c-3.14,2.47-6,4.67-8.15,6.22a22.34,22.34,0,0,1-3.51,2.25h0c-.26.1-.41.1-.44,0-.52-1.78-2.58-7.52-6.07-8.54-2.23-.66-2.4-1.72-2.23-2.4a2,2,0,0,1,.31-.65s2.12-2.39,5.41-6c3.93-4.3,9.53-10.38,15.2-16.26l.81-.82c1.58-1.64,3.17-3.25,4.72-4.81h0c8.16-8.14,15.37-14.52,16.59-13,3,3.72.83,8.38,2.15,11a8.94,8.94,0,0,1,.8,3.63,14.33,14.33,0,0,1-.16,2.77l.23.3.17.22,1,1.33C124.42,104.85,125.62,108.78,121.78,110.14Z" style="fill:#efe8e4"/><path d="M206.07,162.41c-11.13.79-22.59.36-34.1-.14,10.19-5.84,38.09,5,54.6-9.72,19.15-17-9.29-50.26-9.29-50.26a41.92,41.92,0,0,1,16.12,24.28C239.34,150.29,231.86,160.61,206.07,162.41Z" style="fill:#2b2b2b"/><path d="M253.26,94.08c-1.8,2.32-1,4.13-2.32,6.45s-9.28,25.27-9.28,27.59c0,.5-.19.58-.55.32-.56-12.71,5.52-32.85,6.6-36.75,1.23-4.38,1.1-9.34-.06-14.76s.39-17.6,0-24.75c-.1-1.9-.77-2.86-1.7-3.27,4.29-3,2.61,2.43,5.51,12.94,4.12,14.95,4.12,22.69,2.32,25.53S255.06,91.76,253.26,94.08Z" style="fill:#bfb534"/><path d="M247.71,91.69c-1.08,3.9-7.16,24-6.6,36.75a28.15,28.15,0,0,1-3.66-4.63v0c-.7-7.85,1.05-17.18,2.09-21.5,1.35-5.58,2.32-12.21.77-17.23s1.55-8.9,1.55-13c0-2.73-1.4-10.54-2.31-15.36-.13-.67-.25-1.29-.36-1.83a71,71,0,0,1,6.77-6c.93.41,1.6,1.37,1.7,3.27.39,7.15-1.16,19.34,0,24.75S248.94,87.31,247.71,91.69Z" style="fill:#d3cc3c"/><path d="M240.3,85.06c1.55,5,.58,11.65-.77,17.23-1,4.32-2.79,13.65-2.09,21.5-1.76-2.46-4-5.69-6.61-9.34l-1-1.41c-2.2-8.89-14.82-17.15-12.51-17.15s15.35,14.17,14.45,10S216,93.43,218.94,94s9.43,6.19,12.14,7.61,1-2.71-4.89-6.45-11.18-6.88-3.62-3.42,16.9,2.78,7.61,0-13.41-5.22-11.24-4.7,14.73,3.35,14.26,2.45-1.86-3.09-11-4.74-4.9-2.61,4.77-2.87,9.92-2.58,6.24-2.19-24.42.64-12.82-1.16,18.05-12.63,13.8-8.68-24.11,9.2-14.18,5,19.34-13.32,11.86-8.16-17.53,7-12.92,5.66,20.6-15.54,20.6-15.54c.91,4.82,2.31,12.63,2.31,15.36C241.85,76.16,238.76,80,240.3,85.06Z" style="fill:#ffcb4a"/><path d="M233.2,79.64c3.69-.39,3.43,1.94-6.24,2.19S213,83.05,222.19,84.7s10.54,3.84,11,4.74S221.1,87.51,218.94,87s2,1.93,11.25,4.7-.05,3.48-7.62,0-2.32-.31,3.62,3.42,7.6,7.87,4.89,6.45-9.21-7.09-12.14-7.61,11.89,7.87,12.79,12-12.13-10-14.45-10,10.31,8.27,12.51,17.15c-5.32-7.09-11.66-13.49-18.2-15.48,7.34-11.88,1.69-24.88,1.51-25.27,5.65-2,14.22-6.09,23.4-14.83l2.68-2.55c.11.54.23,1.16.36,1.83,0,0-16,14.25-20.6,15.54s5.44-.51,12.92-5.66-1.94,4-11.86,8.16,9.92-1,14.18-5-2.19,6.88-13.79,8.68S229.51,80,233.2,79.64Z" style="fill:#efb637"/><path d="M273.89,41.22c-13.67-5.15-13.92-16-20.11-20.11S245,12.86,208.91,8.22c0,0,11.34,5.92,12.89,21.39S218.71,66.23,206.34,74c.43-.47,16-17.52,11.92-39.38C214.13,12.41,203,3.64,185.57,3.44c-13.53-.14-32.21-.3-57.48,4.47-7.23,1.35-15,3.12-23.35,5.4A96.54,96.54,0,0,0,65.79,34.46,87.58,87.58,0,0,0,47,57.49c6.74-13.59,16.3-26.65,29.86-33.8,32.23-17,86.89-28.89,120.42-21.41s52.34,6.71,63.94,24S284.91,42,293.19,38.39,287.55,46.38,273.89,41.22Z" style="fill:#2b2b2b"/><path d="M54.09,115A6.09,6.09,0,1,1,48,108.9,6.09,6.09,0,0,1,54.09,115Z" style="fill:#212121"/><path d="M40,115.74a14.41,14.41,0,0,1,1.79,8.16,10.85,10.85,0,0,1,.14-17.9,5.07,5.07,0,0,1-.64,1.1C39.37,109.42,38.08,111.88,40,115.74Z" style="fill:#3a3a3a"/><path d="M58.86,115a10.74,10.74,0,0,1-.09,1.4c-1.93-3.6-4.18-7.72-4.45-9.81,0-.16,0-.31-.08-.46A10.78,10.78,0,0,1,58.86,115Z" style="fill:#3a3a3a"/><path d="M54.32,106.58c0-.16,0-.31-.08-.46a10.81,10.81,0,0,0-12.3-.12,5.07,5.07,0,0,1-.64,1.1c-1.93,2.32-3.22,4.78-1.29,8.64a14.41,14.41,0,0,1,1.79,8.16,10.85,10.85,0,0,0,17-7.51C56.84,112.79,54.59,108.67,54.32,106.58ZM48,121.08A6.09,6.09,0,1,1,54.09,115,6.09,6.09,0,0,1,48,121.08Z" style="fill:#414142"/><path d="M201.05,117.93a93.43,93.43,0,0,1-8.78-10.73,23,23,0,0,1-3-5.9c-1.74-6.19-21.08-31.91-26.88-36.94S143.07,53,141.48,49.09c0,0-4.64-2.33,1.94-13.93s10.63-17,12.37-11,1.55,13.73,8.9,19.34,16.05,19.92,19.53,29,11,24.94,11.41,30.17S197.76,112.52,201.05,117.93Z" style="fill:#2b2b2b"/><path d="M182.58,97.92s-.05,0-.1-.1a33,33,0,0,0-6.19-7.74c-2.9-2.7-31.91-30.74-39.26-36.16s-13.53-6.57-9.86-13,4.45-18.37,8.9-21.46A27.5,27.5,0,0,1,138.52,18c4-2.31,8.38-3.65,8.38-.77,0,3.48-4.65,9.09-4.65,9.09-1.93,2.63-1.93,5.6-3.67,12.41S134.71,49.47,142.64,53s20.89,15.47,30,25.72C180.93,88.06,182.77,97.43,182.58,97.92Z" style="fill:#2b2b2b"/><path d="M186.15,110.58c-6.38-8.12-59.75-53.18-64.78-56.27S117.11,57.4,111.51,74c-3.71,11-9.62,22.33-13.2,28.79l-.81.82c15.33-31.5,17-54,15.55-59.52-1.54-5.8,7.54-24.56,11.8-27.08a84.74,84.74,0,0,1,11.64-5.23c3.07-1.12,5.46-1.71,5.38-1-.14,1.24-.77,1.89-3.35,3.56-1.05.68-2.42,1.52-4.19,2.63C128.14,20.85,123.69,32.26,121,39.8s5.1,11.8,5.1,11.8S139.93,62.82,157,78.29,192.54,118.71,186.15,110.58Z" style="fill:#2b2b2b"/><path d="M129.81,10.91c-2.29.92-5.49,2.16-9.22,3.75-9.47,4.06-13.92,9.28-15.08,32.49s-18.57,58.79-18.57,58.79c-1.54-4.83,13.35-48.73,14.7-70.59,1.08-17.3,17.67-23.81,26.27-25.77a25.07,25.07,0,0,1,4.7-.72C134.74,8.86,133.34,9.5,129.81,10.91Z" style="fill:#2b2b2b"/><path d="M106.09,16.59C95.12,23,92.55,31.1,92.55,51.21S78.43,97.94,78.43,97.94c-1.16-1.81,4.06-13.85,7.74-32.22S85,37.48,88.68,28,117.06,10.2,106.09,16.59Z" style="fill:#2b2b2b"/><path d="M77.27,61.31C76.5,73,67.8,91.44,69.54,84.09s3.09-27.27,3.28-40.61c.2-13.14,15-21.55,15.47-21.8C71.47,40.28,78.05,49.66,77.27,61.31Z" style="fill:#2b2b2b"/><path d="M71.08,34.39c-3.67,3.28-5.6,6.38-5.8,15.47,0,.93-.08,2-.19,3.12,0,.27-.06.54-.09.83,0,.57-.12,1.15-.2,1.74,0,.36-.08.71-.14,1.07s-.1.73-.15,1.1-.11.73-.16,1.1c-.24,1.5-.49,3-.76,4.53l-.21,1.13c-.15.84-.31,1.68-.47,2.5,0,.18-.07.36-.11.55-.14.72-.28,1.44-.43,2.12,0,.24-.1.48-.14.72-.14.69-.28,1.36-.41,2-.06.24-.1.45-.15.68s-.16.72-.23,1.06-.15.66-.21,1-.16.71-.23,1c-.2.91-.37,1.6-.46,2,0,0,0,0,0,0a.66.66,0,0,1,0,.15v0a1,1,0,0,1,0-.15c0-.16.06-.39.11-.69,0-.13,0-.29.06-.46.06-.52.14-1.2.22-2.06,0-.25,0-.51.07-.79s.07-.84.1-1.31c0-.23,0-.47,0-.72s0-.26,0-.4,0-.5.06-.76,0-.41,0-.63,0-.39,0-.59c.07-1.35.14-2.9.2-4.67,0-.5,0-1,.05-1.54,0-1.13.06-2.32.1-3.6,0-.37,0-.76,0-1.15V58.5c0-.47,0-1,0-1.43,0-1.07,0-2.18,0-3.35a32,32,0,0,1,2.6-13.18v0l.12-.25C68.05,32.73,73.67,32.07,71.08,34.39Z" style="fill:#2b2b2b"/><path d="M119.63,61.32c.87.83,56.16,53.54,66.33,56.61S162.75,118,119.63,61.32Z" style="fill:#2b2b2b"/><path d="M177.43,125.84c-1.08-.14-35.56-5.2-59.93-51.06C117.5,74.78,144.17,110.54,177.43,125.84Z" style="fill:#2b2b2b"/><path d="M168.55,134.39s-21.56-1.11-44.69-30.25l-1-1.33-.17-.22-.23-.3a14.33,14.33,0,0,0,.16-2.77C133.08,110.57,151.58,128.09,168.55,134.39Z" style="fill:#2b2b2b"/><path d="M157.72,141.84c-.8-.1-22.56-3.16-42.15-27.46.77-.58,1.48-1.12,2.14-1.6C127.29,122.4,141.63,134.74,157.72,141.84Z" style="fill:#2b2b2b"/><path d="M146.5,152.37s-20.49-1-42-29.32l1.42-1.13C115.59,132,131.69,146.88,146.5,152.37Z" style="fill:#2b2b2b"/><path d="M126.08,154.42S107,153.36,97,129l1.28-1C103.35,136.23,112.92,149,126.08,154.42Z" style="fill:#2b2b2b"/><path d="M121.78,171.7c-12,.59-27.4-1.23-33.85-3.93-2-.82-3.11-1.73-3.05-2.67a.19.19,0,0,1,0-.08c.31-4,5-4.41,5-4.41,1.55,1.49,4.49,3,7.86,4.29,1.28.52,2.63,1,4,1.46.23.07.45.14.66.22l1.48.46c.21.08.43.14.65.2l.21.07.35.11h0a83,83,0,0,0,8.87,2.21A38.61,38.61,0,0,1,121.78,171.7Z" style="fill:#efb637"/><path d="M207.43,52.76c-3.48,4.83-10.12-8.93-15.12-19.56s-15.82-17-23.75-18.85-10.42-3.18-6.1-3.9c0,0,29.11-6.07,41.49,5.09S210.91,47.93,207.43,52.76Z" style="fill:#efb637"/><path d="M225,145c-1.94,2.32-5,3.67-4.84,1.16s.58-5-8.53-19.67,1.57-25.39,1.8-22.36,10.6,15.73,14.75,25S225,145,225,145Z" style="fill:#ffd880"/><circle cx="52" cy="110.13" r="2.69" style="fill:#efe8e4"/><path d="M121.78,110.14l-6.35,4.35C106,121,89.3,132.36,88.29,132.75c-1.42.53,13-10.22,20.58-17.8s8.47-10,0-1.91c-8.19,7.8-11.18,9.68-11.36,9.79.31-.38,10.33-12.6,14-16.71s4.06-6.25-2.67,1.08-13.08,10.33-5.54,2.93S115.89,96.73,115.4,96s-11.31,10-13.63,13-2.52-1.18,5.8-9.39,8.21-11.49,2.65-5.69-7.68,8.22-8.45,8.46S102.93,98.18,103,98h0c8.16-8.14,15.37-14.52,16.59-13,3,3.72.83,8.38,2.15,11a8.94,8.94,0,0,1,.8,3.63,14.33,14.33,0,0,1-.16,2.77l.23.3.17.22,1,1.33C124.42,104.85,125.62,108.78,121.78,110.14Z" style="fill:#efb637"/><path d="M121.78,171.7c-12,.59-27.4-1.23-33.85-3.93a24.53,24.53,0,0,1,5.46,1.1c9,2.51,15.08.44,9.34,0s-14.83-3.16-15-3.85,1.68-.54,5.29.62,3.68.19,1-.63-6.19-3.11-4-2.4c1.47.48,7.81,2.48,11.81,3.75.23.07.45.14.66.22l1.48.46.65.2.21.07.35.11h0a83,83,0,0,0,8.87,2.21A38.61,38.61,0,0,1,121.78,171.7Z" style="fill:#efe8e4"/></g></g></svg>