<svg xmlns="http://www.w3.org/2000/svg" viewBox="0 0 274.04 191.11"><title>tiger-barb</title><g id="Layer_2" data-name="Layer 2"><g id="Ñëîé_2" data-name="Ñëîé 2"><path d="M273,46.88c-4.1,3.64.46,5.24-4.33,7.06s-2.05,3.2-4.56,5-.91,3.42-4.55,5.7-.46,6.16-3.88,7.52.46,3.42-2.74,4.79-.45,6.16-3.19,6.61,2.51,3.19-.45,4.33-3.88,7.75-.92,11.86,5.93,6.84,4.56,7.52,4.11,3.42,3,4.79,3.2,3.42,2.06,4.56,5.7,3.88,3.19,5.47,3,4.79,1.14,6.38,1.37,4.1.69,7.3.45,6.38,6.15,10.48c2.47,1.78,1,2.75-2.64,2.47a72.4,72.4,0,0,0-10-6.23c-6.73-3.64-2.17-4.33,4.44-.11s3.42,1.25.91-.91-2.16-3.31-5-4.91-26.33-17.09-22.23-15,20.29,12.08,22.46,12.31,2.39-.46-9.47-7.18-17.89-13.33-9.46-8.21,24.52,9,12.89,3.65-24.86-12.88-16.42-11.78,17.55,8.93,13.45,4.94-18.92-9.57-18.81-10.94,6.84.46,15.73,2.39-.22-2.62-9.8-4.67-6.84-4-.46-3.31,2.06-1.13-4.21-2.16-2.85-2.74,4.1-3,1.94-1.77-3.19-1.77-6.5-2.05-.91-2.28,8.66-1,.91-2.4-5.25-2,3.65-3,6.73-3-.35-2.05-9-.46-6-.91,8.44-2,16.88-5.06.22-2-6.39-.41.46-1.6,9.46-7,1.71-2.7-5-.53,2.63-2.63,11.52-7.56,10.49-7.15-.11-1.91-8.44,2.39-1.15-1.71,15.85-8.55,14.37-8.09-11.85,4.82-12.89,5.25C270.91,45.05,276.6,43.68,273,46.88Z" style="fill:#e9e2dc"/><path d="M225.23,81.87c1.15-.23,1.83,1.6-1.59,2.85s.11,2.39,1.71,2.28,1.94,1-2.28,2.17-2.28,3,1.36,2.28,1,2.39-3,2.76-.22,1.57,3.31,1.58,1.36,2.16-1.48,2.27-1.37,1.25,3.46,3-.27,1.71-4.26,1.37-2.85.45,2.62,2.85,5.47,6,.91,4.44-1.25.8,2.62,4-.45,1.82-6.61-1.6-4.55-1.71-.11,2.28,2.4,4.9-2.05,1-6.16-2.51-4.22-1.26a67.56,67.56,0,0,1,6.3,6.28,69.63,69.63,0,0,0-10.21-6.51c.18-1.88.65-3.74,1.74-4.78,2.74-2.62,5.71-4.22,4.79-8.33s-2.28-5.47-.79-7.86,4.44-5.82,2.16-9.46c-2-3.14-4.87-4.68-5.11-7.16,3.19-1.25,10.18-3.42,12.22.69.79,1.6,5.31-2.31,6.91-1.51s-3.31,2.51-7.53,4S224.09,82.1,225.23,81.87Z" style="fill:#ea8b24"/><path d="M255,58.73c10.6-5.24,9-3,.11,1.91s-18.24,9.72-11.52,7.56,14-4.87,5,.53-16.07,8.58-9.46,7,14.82-2.6,6.39.41-13.91,4.6-16.88,5.06-1,1.82,6,.91,9.24,1.14.35,2.05-11.4,1.6-3.65,3,4.67,2.17-.91,2.4-4.22,2.28.91,2.28,10.14,1.48,3.19,1.77-10.37,2-4.1,3,10.6,2.84,4.21,2.16-9.11,1.26.46,3.31,18.69,6.61,9.8,4.67-15.61-3.76-15.73-2.39,14.71,7,18.81,10.94-5-3.84-13.45-4.94,4.78,6.45,16.42,11.78-4.45,1.48-12.89-3.65-2.4,1.48,9.46,8.21,11.64,7.41,9.47,7.18-18.35-10.26-22.46-12.31,19.38,13.44,22.23,15,2.5,2.74,5,4.91,5.7,5.12-.91.91-11.17-3.53-4.44.11a72.4,72.4,0,0,1,10,6.23c-4.72-.36-13-2.84-20.61-8.39C240,136,233.34,129.57,226.15,123.7l0,0q-2.06-1.68-4.15-3.25h0a67.56,67.56,0,0,0-6.3-6.28c-1.94-1.25-.23-2.62,4.22,1.26s6.5,3,2.05-1-6-5.7.11-2.28,10.49,4.78,6.61,1.6-7.18-5.59-2.62-4,4.56-2.05-.91-4.44-6.61-3.19-2.62-2.85,9.1.34,4.26-1.37-6.31-2.85-3.46-3,5-2.27,1.48-2.27-7.29-1.2-3.31-1.58,6.62-3.44,3-2.76-5.58-1.14-1.36-2.28,3.87-2.28,2.28-2.17-5.13-1-1.71-2.28,2.74-3.08,1.59-2.85-3.3-.91.91-2.39,9.13-3.19,7.53-4-6.12,3.11-6.91,1.51c-2-4.11-9-1.94-12.22-.69a3.72,3.72,0,0,1,.09-1.27,8.35,8.35,0,0,0,.22-2.44,116.68,116.68,0,0,0,33.3-14.09c2.55-1.59,4.91-3,7.09-4.29h0l0,0,0,0c1-.43,11.48-4.81,12.89-5.25s-7.07,4-14.37,8.09S244.38,64,255,58.73Z" style="fill:#ff9f29"/><path d="M217.49,92.93c1.47-2.4,4.44-5.82,2.16-9.46-2-3.14-4.87-4.68-5.11-7.16a3.72,3.72,0,0,1,.09-1.27,8.35,8.35,0,0,0,.22-2.44A101,101,0,0,1,201.69,75a10.25,10.25,0,0,0,1.89,3.83c2.16,2.5,3.41,6,2.39,8S203,90,203.71,92.48c.47,1.79-.72,5.21-.73,7.64a2.88,2.88,0,0,0,.73,2.27c1.92,1.71.55.91,1.92,5.58a6.26,6.26,0,0,1,.19,3.42,41.62,41.62,0,0,1,5.93,2.51c.18-1.88.65-3.74,1.74-4.78,2.74-2.62,5.71-4.22,4.79-8.33S216,95.32,217.49,92.93Zm-6.71,16.41c-2.73,1.94-3.21.8-3.55-1.48a105.71,105.71,0,0,0-1.49-10.6c-1.25-6.38.57-5.93,2.86-9.12s-1.61-9.8,0-10S212,80.85,212,80.85c2.4,3.64,4.79,8.55,2.51,11.39s-.8,5.93,1.14,9.47S213.49,107.41,210.78,109.34Z" style="fill:#2b2b2b"/><path d="M206,86.77c-1,1.94-2.94,3.2-2.26,5.71.47,1.79-.72,5.21-.73,7.64,0,0-1.57-7-8.64-7.88s-18.69-6.8-18.69-6.8a4,4,0,0,0-.51-2.66c-1.54-2.73-1.88-4.1-1.2-7.52.55-2.78-1.7-6.11,1.17-9,9,5.36,17.13,9.26,21.74,9.07,1.43,0,3.05-.17,4.84-.35a10.25,10.25,0,0,0,1.89,3.83C205.74,81.3,207,84.84,206,86.77Z" style="fill:#d3a466"/><path d="M205.82,111.39a29.58,29.58,0,0,0-9.65-1.59c-10.21.12-16.07,3-20.19,6.83a9.71,9.71,0,0,0-2-5.8c-2.22-3.08-5.64-6.16-4.27-9.24s-1.88-8.89,1.71-11.11c2.42-1.5,4-3.24,4.27-5,0,0,11.63,5.89,18.69,6.8s8.64,7.88,8.64,7.88a2.88,2.88,0,0,0,.73,2.27c1.92,1.71.55.91,1.92,5.58A6.26,6.26,0,0,1,205.82,111.39Z" style="fill:#e0b177"/><path d="M173.94,110.83c-2.22-3.08-5.64-6.16-4.27-9.24s-1.88-8.89,1.71-11.11c2.42-1.5,4-3.24,4.27-5a4,4,0,0,0-.51-2.66c-1.54-2.73-1.88-4.1-1.2-7.52.55-2.78-1.7-6.11,1.17-9-1.7-1-3.43-2.08-5.17-3.19-1.25-.79-2.51-1.6-3.76-2.42-8.24-5.41-16.38-11.31-22.45-15.81-8.42-6.25-10.41-12-15-15.22A82.38,82.38,0,0,0,134.16,43c3,5.25-.69,9.58,8,10.72s9.8,4.56,13.68,5.47,2.73,1.37,0,7.75-7.3,7.3-3.88,13.45-.45,12.09,2.28,19.15-.68,10,2.06,14.36,5.69.46,3.41,8.89c-1.64,6.08-4.71,12.51-4.76,18.53A75.76,75.76,0,0,0,167.44,128c2.66-3.84,4.93-8,8.54-11.41A9.71,9.71,0,0,0,173.94,110.83Zm-9.4,12.48c-2.74.68-.17-3.25-1.2-6.68a9.49,9.49,0,0,0-4.23-5.12c-3.94-4.33-3-8.89-2.7-14s2.14-6.33,0-10.85-.59-11.21,3.85-16.51,6.67-1.54,8.89,2.22.52,7,2.06,11.63-2.57,3.93-3.25,7.7.51,7.18-.52,10.08,1.71,7.87,4.28,12S167.27,122.62,164.54,123.31Z" style="fill:#2b2b2b"/><path d="M155.82,66.94c-2.74,6.39-7.3,7.3-3.88,13.45-21.65-5.93-46.86-2.29-46.86-2.29.11-1-.28-2.23-1.41-3.86-3.93-5.65-4.52-14.37-2.61-18s-2.69-5.3-1.84-9.23,7.36-8.21,4.11-10.77c-2.53-2-4.54-3.5-4.26-6.44a71.62,71.62,0,0,1,9.56-2.11q2.06-.3,3.87-.48c8.62-.87,13,.14,16.21,2.36A82.38,82.38,0,0,0,134.16,43c3,5.25-.69,9.58,8,10.72s9.8,4.56,13.68,5.47S158.55,60.56,155.82,66.94Z" style="fill:#d3a466"/><path d="M159.69,122.79c-1.64,6.08-4.71,12.51-4.76,18.53a86.54,86.54,0,0,1-18.27,12,75.28,75.28,0,0,1-16,5.65,69.7,69.7,0,0,1-13,1.75,70.57,70.57,0,0,1-8.07-.12h0a34.36,34.36,0,0,1-1.1-5.48,44.87,44.87,0,0,1-.49-5.72c3.73,0,7.92-.31,12.63-.83,0,0,16.43-1.61,26.34-12s-6.18-15.38-8.51-30c-1.82-11.42-14.36-19.09-29.88-20.4a6.32,6.32,0,0,1,1.13-2.4c1.93-2.19,5.07-3.25,5.32-5.71,0,0,25.21-3.64,46.86,2.29,3.42,6.16-.45,12.09,2.28,19.15s-.68,10,2.06,14.36S162,114.36,159.69,122.79Z" style="fill:#e0b177"/><path d="M99.64,160.59c-.72,0-1.45-.11-2.18-.18-3.24-.32-6.52-.8-9.78-1.45.43-7.77-2.48-6.93-5-8.81a5,5,0,0,1-1.6-2.89,41.77,41.77,0,0,0,10,1.91l1.29,1.49c1.3,1.48,2.54.71,3.22-1.28.8,0,1.61,0,2.45,0a44.87,44.87,0,0,0,.49,5.72A34.36,34.36,0,0,0,99.64,160.59Z" style="fill:#2b2b2b"/><path d="M87.68,159C74,156.25,60.62,150.5,51.2,140.1c-2.94-3.24-4.73-7.24-7.68-10.46a15.8,15.8,0,0,0-3.46-2.85c7.46-4.08,12.17-10,15.45-22,4.1-15.07-4.11-19.36,0-21.8s22.33-4.42,22.33-4.42c.07,2.86-.09,6.34-.19,9.81-14.11,4.71-15.17,15.72-12.79,30.34,1.88,11.63,1.85,23.77,16.18,28.57h0a5,5,0,0,0,1.6,2.89C85.2,152,88.11,151.19,87.68,159Z" style="fill:#e0b177"/><path d="M81.89,36.27A217,217,0,0,0,57,49.54c-2.38,5.09-4.63,12.34-6.87,13.58a11.88,11.88,0,0,0-6.32,8c-1.2,4.27-4.79,5.81-8,8.55s-.58,5.81-.07,12.31-1.88,9.4-4.1,12.48-1.54,4.1-3.94,6.33-.51,4.1,1.88,8.54a8.52,8.52,0,0,1,1,3c.47.26.95.49,1.44.72l1.32.59a52.61,52.61,0,0,1,6.64,3.13c7.46-4.08,12.17-10,15.45-22,4.1-15.07-4.11-19.36,0-21.8s22.33-4.42,22.33-4.42a20.61,20.61,0,0,0-.5-4.65c-1.55-5.64.51-4.44,1-7s-1.88-6.84.86-9.57S77.51,50,77.34,46.71C77.23,44.7,79.87,39.76,81.89,36.27ZM48.61,108.43c-6.84,8.21-18.8,8.72-14.14,1.71s4.9-23.5,4.9-23.5c-1.19-9.65,6.68-9.33,11.29-2.15S55.45,100.22,48.61,108.43Z" style="fill:#d3a466"/><path d="M48.61,108.43c-6.84,8.21-18.8,8.72-14.14,1.71s4.9-23.5,4.9-23.5c-1.19-9.65,6.68-9.33,11.29-2.15S55.45,100.22,48.61,108.43Z" style="fill:#d3a466"/><path d="M42.63,59.87a17.92,17.92,0,0,1-3.53,3h0a4.94,4.94,0,0,1-2.62,3.49c-4.27,2-7,1.37-7.86,5.81s-.86,4.62-4.28,6.33a20.46,20.46,0,0,0-7.82,7,10.86,10.86,0,0,1,7-2.58c.26,0,.52,0,.78,0A10.92,10.92,0,0,1,34.47,93.86a10.66,10.66,0,0,1-.61,3.59,10.82,10.82,0,0,1-1.45,2.78h0a10.89,10.89,0,0,1-13.65,3.41c-2.34,1.78-2.71,2.36-1.26,4.45s1.72,2.78,3.09,7.89c1.49,1.06,3,2.07,4.56,3,1.79,1.14,3.63,2.33,5.52,3.32a8.52,8.52,0,0,0-1-3c-2.39-4.44-4.27-6.32-1.88-8.54s1.71-3.25,3.94-6.33,4.61-6,4.1-12.48-3.11-9.58.07-12.31,6.77-4.28,8-8.55a11.88,11.88,0,0,1,6.32-8c2.24-1.24,4.49-8.49,6.87-13.58C49.46,54.21,44,58.23,42.63,59.87Zm2.22,6.58a10.56,10.56,0,0,0-3.08,6.08c-.51,2.81-2,4.15-6.66,5.64s-2.57-1.8-3.34-4.36,2-4,3.94-5,4-5.39,5.89-6.67,4.26,1.26,4.45,1.45C46.68,64.3,46.31,65.08,44.85,66.45Z" style="fill:#2b2b2b"/><path d="M39.09,62.88a4.94,4.94,0,0,1-2.62,3.49c-4.27,2-7,1.37-7.86,5.81s-.86,4.62-4.28,6.33a20.46,20.46,0,0,0-7.82,7h0a10.9,10.9,0,0,0,2.24,18.09c-2.34,1.78-2.71,2.36-1.26,4.45s1.72,2.78,3.09,7.89a95.4,95.4,0,0,1-17-15.3S0,95.44,0,93.73s2.62.68,3.3,1.59-.45-1.93-1.48-3.76.12-2.5,1.48-2.74S1,87.69,14.81,77.77C25.54,70.06,34,66.34,39.09,62.88Z" style="fill:#d3a466"/><path d="M105.08,78.1c-.25,2.46-3.39,3.52-5.32,5.71a6.32,6.32,0,0,0-1.13,2.4,59,59,0,0,0-13.48.43,45.08,45.08,0,0,0-7.5,1.71c.1-3.47.26-6.95.19-9.81a20.61,20.61,0,0,0-.5-4.65c-1.55-5.64.51-4.44,1-7s-1.88-6.84.86-9.57S77.51,50,77.34,46.71c-.11-2,2.53-7,4.55-10.44h0a128.94,128.94,0,0,1,17.17-6.43c-.28,2.94,1.73,4.44,4.26,6.44,3.25,2.56-3.25,6.84-4.11,10.77s3.76,5.64,1.84,9.23-1.32,12.31,2.61,18C104.8,75.87,105.19,77.1,105.08,78.1Z" style="fill:#2b2b2b"/><path d="M177,125c-4.33-3-5.81-2.08-2.33,1.47s1.42,3.54-1.09,1.72-2.61-.34-.85,2.39,5.18,7.42,1.19,4-5.59-4-3.19,0,3.19,5.24.34,3.07-4.79-2.73-2.5.46,5.92,9.23,1.93,5.47-4.17-3.87-2.94-.91,1.53,4.21-.67,2.1-6.42-5.3-3.91-.73,4.56,8.32,2.51,5.81-6.39-8.32-5.13-4.1,4,7.86,2.16,6.61c-1.57-1.09-4.23-4.87-3.19.74-.85-1.35-1.8-3-2.85-5a14.06,14.06,0,0,1-1.57-6.78A75.76,75.76,0,0,0,167.44,128c2.66-3.84,4.93-8,8.54-11.41h0a9,9,0,0,0,4.13,4c-1.46-.53-4.89-1.66-3.33-.42,2.28,1.82-4.93-1.82-.81,2.06S181.35,127.92,177,125Z" style="fill:#414142"/><path d="M181.46,127.75c-1.71.86,1.2,5.82-.85,6.67s-1.2,3.59-3.42,3.93-3.67,9-4.45,9-.93,4.19-1.88,4-1.62,3.08-2.39,2.9-1.11,2.06-2.39,2-.61,1.8-1.8,1.45-1,.65-.95.76a30.94,30.94,0,0,1-4-5.37c-1-5.61,1.62-1.83,3.19-.74,1.83,1.25-.91-2.4-2.16-6.61s3.08,1.59,5.13,4.1,0-1.25-2.51-5.81,1.71-1.37,3.91.73,1.9.86.67-2.1-1.05-2.85,2.94.91.34-2.28-1.93-5.47-.35-2.62,2.5-.46,2,.91-.34-3.07-.8-3.42,3.19,0,.57-1.26-1.19-4-1.66-4.21.85-2.39,4.56,1.82,1.09-1.72-2-4.44,2.33-1.47,3.08,1.14-1-2.73,3.09-.24.81-2.06c-1.56-1.24,1.87-.11,3.33.42a9,9,0,0,1-4.13-4c.28,0,7,1.07,7.87,3.42S183.17,126.9,181.46,127.75Z" style="fill:#e9e2dc"/><path d="M164.54,123.31c-2.74.68-.17-3.25-1.2-6.68a9.49,9.49,0,0,0-4.23-5.12c-3.94-4.33-3-8.89-2.7-14s2.14-6.33,0-10.85-.59-11.21,3.85-16.51,6.67-1.54,8.89,2.22.52,7,2.06,11.63-2.57,3.93-3.25,7.7.51,7.18-.52,10.08,1.71,7.87,4.28,12S167.27,122.62,164.54,123.31Z" style="fill:#5c837e"/><path d="M210.78,109.34c-2.73,1.94-3.21.8-3.55-1.48a105.71,105.71,0,0,0-1.49-10.6c-1.25-6.38.57-5.93,2.86-9.12s-1.61-9.8,0-10S212,80.85,212,80.85c2.4,3.64,4.79,8.55,2.51,11.39s-.8,5.93,1.14,9.47S213.49,107.41,210.78,109.34Z" style="fill:#5c837e"/><path d="M95.6,149.38c-.68,2-1.92,2.76-3.22,1.28l-1.29-1.49C92.51,149.29,94,149.36,95.6,149.38Z" style="fill:#5c837e"/><path d="M44.85,66.45a10.56,10.56,0,0,0-3.08,6.08c-.51,2.81-2,4.15-6.66,5.64s-2.57-1.8-3.34-4.36,2-4,3.94-5,4-5.39,5.89-6.67,4.26,1.26,4.45,1.45C46.68,64.3,46.31,65.08,44.85,66.45Z" style="fill:#5c837e"/><path d="M28.49,93.86a4.93,4.93,0,1,1-4.93-4.92A4.92,4.92,0,0,1,28.49,93.86Z" style="fill:#212121"/><path d="M19.2,103.3l-.45.34a10.9,10.9,0,0,1-2.24-18.09,9,9,0,0,0-.9,2c-1,3.59-3.59,6,0,10.09a23.57,23.57,0,0,0,4.18,3.6h0l.06,0a.15.15,0,0,0,.06,0C20.57,101.93,20.5,102.33,19.2,103.3Z" style="fill:#414142"/><path d="M32.4,100.23a10.89,10.89,0,0,1-13.65,3.41l.45-.34c1.3-1,1.37-1.37.71-2a3.62,3.62,0,0,0,2.46.5c1.79-.18,1.79-.48,3.24-.29a5.66,5.66,0,0,0,3.51-.3C30.15,100.74,31.16,99.81,32.4,100.23Z" style="fill:#e5ae47"/><path d="M34.47,93.86a10.66,10.66,0,0,1-.61,3.59s-2.94.72-2.78-.9.85-2.31.56-3.93.05-2.91-1.7-4.19-2.78-3.25-4.41-3S23.75,84,24.34,83A10.92,10.92,0,0,1,34.47,93.86Z" style="fill:#414142"/><path d="M31.08,96.55c.18-1.63.85-2.31.56-3.93s.05-2.91-1.7-4.19-2.78-3.25-4.41-3S23.75,84,24.34,83c-.26,0-.52,0-.78,0a10.86,10.86,0,0,0-7,2.58h0a9,9,0,0,0-.9,2c-1,3.59-3.59,6,0,10.09a23.57,23.57,0,0,0,4.18,3.6h0l.06,0a.15.15,0,0,0,.06,0,3.62,3.62,0,0,0,2.46.5c1.79-.18,1.79-.48,3.24-.29a5.66,5.66,0,0,0,3.51-.3c1-.52,2-1.45,3.28-1h0a10.82,10.82,0,0,0,1.45-2.78S30.92,98.17,31.08,96.55Zm-7.52,3.68a6.37,6.37,0,1,1,6.38-6.37A6.37,6.37,0,0,1,23.56,100.23Z" style="fill:#5c837e"/><path d="M23.56,87.49a6.37,6.37,0,1,0,6.38,6.37A6.37,6.37,0,0,0,23.56,87.49Zm0,11.28a4.92,4.92,0,1,1,4.93-4.91A4.92,4.92,0,0,1,23.56,98.77Z" style="fill:#e9e2dc"/><path d="M137,136.58c-9.91,10.37-26.34,12-26.34,12-4.71.52-8.9.79-12.63.83a40.14,40.14,0,0,1,.49-8.64,44.9,44.9,0,0,0,1.2-11.46c-.18-4.79-4.63-6.33-1.72-11.8s-1.12-3.76-1-9.91c.12-5.13,0-16.09,1.6-21.37,15.52,1.31,28.06,9,29.88,20.4C130.84,121.2,146.93,126.21,137,136.58Z" style="fill:#eaba86"/><path d="M98.54,140.75a40.14,40.14,0,0,0-.49,8.64c-.84,0-1.65,0-2.45,0a14.45,14.45,0,0,0,.2-7.09c-1.19-6.16,1.71-10.09-1.88-17.79,0,0-3.42-9.23-1.71-12.14s2.46-10.92-.48-16.57-10-7.53-9.48,2.9-4.21,17.61,0,22.91,7.85,6.84,5,11.79-4.56,9.07-1.66,10.78a21.23,21.23,0,0,1,5.55,5,41.77,41.77,0,0,1-10-1.91h0a19.41,19.41,0,0,1,2.11-13.18c3.42-6-.51-6.67-2.67-10.6s.28-15.22-2-21.89c-1-3.13-1-8.18-.88-13.24a45.08,45.08,0,0,1,7.5-1.71,59,59,0,0,1,13.48-.43c-1.55,5.28-1.48,16.24-1.6,21.37-.13,6.15,3.9,4.44,1,9.91s1.54,7,1.72,11.8A44.9,44.9,0,0,1,98.54,140.75Z" style="fill:#353535"/><path d="M83.15,134.08A19.41,19.41,0,0,0,81,147.26c-14.33-4.8-14.3-16.94-16.18-28.57-2.38-14.62-1.32-25.63,12.79-30.34-.15,5.06-.16,10.11.88,13.24,2.23,6.67-.22,18,2,21.89S86.57,128.09,83.15,134.08Z" style="fill:#eaba86"/><path d="M95.6,149.38c-1.59,0-3.09-.09-4.51-.21a21.23,21.23,0,0,0-5.55-5c-2.9-1.71-1.19-5.82,1.66-10.78s-.8-6.49-5-11.79.6-12.48,0-22.91,6.54-8.55,9.48-2.9,2.19,13.67.48,16.57,1.71,12.14,1.71,12.14c3.59,7.7.69,11.63,1.88,17.79A14.45,14.45,0,0,1,95.6,149.38Z" style="fill:#5c837e"/><path d="M48.61,108.43c-6.84,8.21-18.8,8.72-14.14,1.71s4.9-23.5,4.9-23.5c-1.19-9.65,6.68-9.33,11.29-2.15S55.45,100.22,48.61,108.43Z" style="fill:#e5ae47"/><path d="M169.81,54.62c-2.14.69-3.63,6-3.63,6-1.13-.75-2.26-1.5-3.38-2.26-7.06-4.75-13.83-9.67-19.07-13.56-8.42-6.25-10.41-12-15-15.21-2.93-2.05-6.91-3.07-14.27-2.53-.62,0-1.27.1-2,.17,0,0,12.77-18.9,32.15-23.92,0,0,9.8-1.82,7.29,0s2.29,3.88,1.6,4.79,2.92.91,1.92,2.51.86,3,.95,4.56,4.4,2.28,2.71,4.56,3.54,4.1,1.94,5.7.69,7.06,3.88,8.21,3.19,2.73,3.65,8.43,2.5,7.06,0,6.61-1.6,1.37.22,2.51S172,53.94,169.81,54.62Z" style="fill:#414142"/><path d="M169.94,63.06c-1.25-.79-2.51-1.6-3.76-2.42,0,0,1.49-5.33,3.62-6s.84-2.28-1-3.42-2.73-3-.22-2.51.45-.91,0-6.61-.46-7.3-3.66-8.43-5.47-6.61-3.87-8.21-3.65-3.42-1.95-5.7-2.61-3-2.7-4.56-2-3-1-4.56S152.86,9,153.54,8.12s-4.1-3-1.6-4.79-7.29,0-7.29,0C164-1.68,160.35-.09,159.11,2s4.69,2.28,3.55,3.65,3.19,2.5,2.27,4.55,2.74,2.51,1.83,4.56,5.44,3.2,3.18,5.48.44,2.73,0,4.78,5.71,3.2,4.12,6.16-1.37,11.17,1.59,16.19S174.26,60.56,169.94,63.06Z" style="fill:#e9e2dc"/><path d="M145.93,176.85a.24.24,0,0,0,0,.07c-.13.56-1.23,4.26-8.34,2.07l0,0a45.72,45.72,0,0,1-10.71-5.4c6.08,1.2-4.52-8.21-8.11-10s-.86-2.31,2.39-1.11,8.25-.67-.41-3.5a75.28,75.28,0,0,0,16-5.65c6.13-.81,8.47,1.58,8.74,3.55a2.22,2.22,0,0,1-.75,2.1c-.94.66-.61,3.48-.05,6.75.08.43.15.87.24,1.3a68.39,68.39,0,0,1,1.18,7.76A11.51,11.51,0,0,1,145.93,176.85Z" style="fill:#ff9f29"/><path d="M126.83,173.57c-6.07-1.19-13.42-12.13-10.68-7.86s3.76,7.52,1.37,5.87-7.7-12.54-6-5.87,12,15.9,5.65,12.31c-5.67-3.21-8.84-11.64-9.44-13.36a18.86,18.86,0,0,1,0-3.95,69.7,69.7,0,0,0,13-1.75c8.66,2.83,3.66,4.7.41,3.5s-6-.68-2.4,1.11S132.91,174.77,126.83,173.57Z" style="fill:#414142"/><path d="M145.91,176.92c-.5,3.47-2.69,5-4.23,5.37-1.82.46-3.19,2.28-3.19,3s-3,.68-1.83,2.51-4.55.68-4.32,2.27-3.83.92-3.83.92c-.47-.22-.92-.44-1.36-.67,1-.71.43-2.28-1.17-3.47-2.91-2.13-3.76-3.84.85-.5s5,1.36,1.88-.52-8.37-6.32-1.88-2.31,5.73.86,2.57-2-7.44-5.65-1.45-1.85,10.35,4.06,4.67.82-11.26-7.27-4.93-4.28,9.85,2.76,9.85,2.76C144.68,181.2,145.79,177.49,145.91,176.92Z" style="fill:#e9e2dc"/><path d="M132.62,180.5c5.68,3.24,1.31,3-4.67-.82s-1.71-1,1.45,1.85,3.92,6-2.57,2-1.19.43,1.88,2.31,2.73,3.85-1.88.52-3.76-1.63-.85.5c1.6,1.19,2.15,2.76,1.17,3.47-15.64-8-18.86-19.62-19.41-25.63.6,1.72,3.77,10.15,9.44,13.36,6.32,3.59-3.94-5.64-5.65-12.31s3.59,4.22,6,5.87,1.37-1.6-1.37-5.87,4.61,6.67,10.68,7.86A45.84,45.84,0,0,0,137.54,179s-3.53.24-9.85-2.76S126.94,177.25,132.62,180.5Z" style="fill:#ea8b24"/><path d="M25.85,91.68a3.68,3.68,0,1,1,3.68,3.67A3.68,3.68,0,0,1,25.85,91.68Z" style="fill:#e9e2dc"/><path d="M167.11,55.12s-3.83.5-4.31,3.26c-7.06-4.75-13.83-9.67-19.07-13.56-8.42-6.25-10.41-12-15-15.21-2.93-2.05-6.91-3.07-14.27-2.53.34-.3,22.38-19.39,28.38-20.52S129,15,123.59,22A54.87,54.87,0,0,1,141.7,13.4c10.36-2.63-8.33,1.82-13.91,10.94s5.36-3.39,17-6.27-5.47.87-11.17,8.87,6-3.52,15.14-5-7.85,2.16-12.75,9.11,8.89-2.51,16.36-3.76-10.54,4.49-14.08,9,10.27-3.76,17.9-3.5-7.87.12-13.8,7,8.35-2.29,15.86-1.71-6.85-.34-12.55,5.58c0,0-.8,1.71,1.14,1.14s11.4-3,15.5-2.17-8.2.58-11.74,4.57,7.51-1.28,13.28-.46-6.44.46-9.18,3.88,6.49-.35,10.71,1-3.67-.5-7.07,2.09S165.54,54.8,167.11,55.12Z" style="fill:#2b2b2b"/><path d="M133.82,159.76c10.11,1.56,11.17,0,5.59-.8s-12.2-3.08-6.84-2.28a68.93,68.93,0,0,0,12.83.18,2.22,2.22,0,0,1-.75,2.1c-.94.66-.61,3.48-.05,6.75a21.54,21.54,0,0,0-5.72-2.14C130.82,161.57,123.72,158.2,133.82,159.76Z" style="fill:#ea8b24"/><path d="M145.93,176.85a.24.24,0,0,0,0,.07c-.13.56-1.23,4.26-8.34,2.07-2.91-2.32-7.76-5.73-3.76-3.82,6.5,3.11,13.68,5.21,5.13,1s-14.93-12.31-7.42-7.28,17.22,7.51,9.7,4.43-15.8-11.83-10.94-8.67,17.67,8.55,9.92,4.24-9.12-6.4-.46-3.21a18.2,18.2,0,0,0,5.09,1.33,68.39,68.39,0,0,1,1.18,7.76A11.51,11.51,0,0,1,145.93,176.85Z" style="fill:#ea8b24"/></g></g></svg>