<svg xmlns="http://www.w3.org/2000/svg" viewBox="0 0 642.46 174.5"><title>tire-track-eel</title><g id="Layer_2" data-name="Layer 2"><g id="Ñëîé_2" data-name="Ñëîé 2"><path d="M610.08,106c-2.65,0-6.31,8-12,8.65s-5.65-7.32-9.64-9.64-2,8.64-10.64,12-12.3.67-15.62-5-6-6-10.31,2-12.63,8-15.29,4.66-4.65-9.31-7-3.33-7,10.31-14,10a21.61,21.61,0,0,1-17.29-9.64c-4-6-8.31,1.67-13,6.65s-11,6-15,.34-9-8.65-14.62-3.33-17,11-26.93,6.62S420,112,417,112s-8.64,12.63-16.95,13.63-16.62,0-18.61-9.31-5-8.64-7.65-5-5.65,10.64-15,9-13.29-4.66-17.28-14-5.65-1-8.31,4-10,8.31-17.32,1.66-9.94-13-13.6-10.75S289,115.64,278.67,106s-11.3-6.66-20.28-3-15.95,2-19.94-1.77-10-1.22-16.95,1.44-16.62-1-19.95-1.44-8-4.54-13.63,0-7.31,2.44-10.63-3.11-9-3.43-11.27,3.11-8.35,3.1-13.33,0-12,1.11-19.62,2.44-11.3-2-17.51,1-11.74.59-10.74-3.44,7-8.86,12.63-5.42,7.65.54,13.63-2.78,9.31-.66,20.28,2.33S168.64,86.06,165,76.75s-11.31-7.31-15.29-3.65-15.63,6.31-19.95,3-7.65-.33-9,2-9.31,3.33-12-.33-7.6,2.33-9.26,7.37-8,8.92-15.06,6.59-5.88-13.63,0-16.29,6.75-3,7.42-7.31.33-11,3.32-15.62,15.62-3,13.3,1.66-.34,7,0,8c0,0,5.31,4.65,10,2.32s-1-2,11,.34,22.27,2,24.6-6.32-10.64-11.3-19.62-5.65c-8.36,5.26-19.89,4.76-17.14-12.26q-12.3,4.38-25.4,9.93-3,1.26-5.79,2.52c.81,9.34-5.22,17-9.84,22.75-5.65,7-10,9-22.93,12.19-3,.74-5.83,1.54-8.45,2.4A7.35,7.35,0,0,1,45.36,93a8.49,8.49,0,0,1-8.76,8.2,8.84,8.84,0,0,1-7.37-3.8,50.35,50.35,0,0,0-5.31,3.8c-7.28,6-7.19,15.07-7.19,15.07,6.41,2,10.52,7.91,3.59,17.39,5.19-.77,9.64-1.14,22.11,2.78,3,1,6.73,1.91,10.87,2.79,0,0,38.78-5.45,41-28.05,2.11-21.49,8.23-21,19.48,30.58l1.35-.23s31.92-4,65.16,4c27.93,6.7,106.09,16.22,181.63,11.6,14.34-.88,28.61-2.26,42.41-4.29,60.54-8.84,124-18.66,162.09-25.59-.24,0-1.84.09-3.42-2.55-1.7-2.86-2.87-.67-5.76-2s-1.77.72-4.47,2.27-2.4.89-3.83,1.74a5.25,5.25,0,0,1-4.82,0c-1.61-.69-.4-.85,4.82-3.68s5-4,7.64-5.44,6.87,5.61,10.63,6.49,7.76-1.77,13.3-4.45,5.09-1.31,9.31-2,4.44,4,4.44,4c2-.5,3.67-1,4.87-1.35,7.6-2.54,13.11-5.68,16.76-9.72C614.37,106.19,612.74,106,610.08,106ZM203.21,125.91c-2.66,4-9,1.7-8.31,0s-3-5.94-10.63-7.94-3,2.66-5.32,2.34-8-3.67-11.92.11-4.7,6.86-9.13,4.86-13.19.34-16.18-2.32-9.64-3.66-13-2.65-12,1.65-13.19-1.34,5.81-4.5,7.21-5c3.35-1.12,3.32,1,5.65,0s5.65-2,9.64,2.3,4,3.32,12.3,4,7-1.66,7.54-4,10.74.33,13.38-2.3,4-1.36,16.31,0,7.65,3,14.29,2.3S205.87,122,203.21,125.91Zm147.86,5.69c-1.72,2.33-4.25,1-11.24-.33s-7.31-5.32-14.64,1.33-16.27,1.33-17.6,0-11-5.65-13.63-2.66-7.31,1-10.3,1.59-4.32,2.06-9,0-9-6.25-14.62-5.91-3.66,1.66-9.31,5-10-3-16.34-7.64-5.93,0-10.67,1.06-7.56,1.6-11.22,3.45-2.33-5.84,1.66-7.66,6.65.16,15-3.5S243.77,124,243.77,124c1.58,2.38,2.66.93,4.65-1.06s6.65-1.66,9-2.54,7.31.21,10.15,2.59,7.13,2.61,9.46,2.71,7.64-1.1,11.63-2.71a15,15,0,0,1,14,1c5,3.07,9,3.26,13.27,5.25s6.68-2.66,9.32-6.26,11.65.61,19.76,2.71S352.8,129.27,351.07,131.6ZM415,140.1c-6,1.84-10.64-.19-16.36-2.85s-7.91-1.33-12.23,1.66-8.31-.33-10-2.83-2.66-1.16-4.71-2.15-2.6.66-7.26,1.94-3-3.27,1.66-7.77,8.65,3.17,8.65,3.17c3.08,3.65,1.66,1.33,6.46,2.48s4.84-.82,9.51-1.82,10.05,3.94,10.05,3.94,12.54-1.28,16.93-4.6,8.24,0,8.48,1.33S420.94,138.25,415,140.1Zm120.48-12.63c-1.86-.14-2.81,1.91-3.47,3.44s-5.32.25-11.53-1.3-9.75,1.33-13.74,1.3-12-2.86-12-1.08-6.18,2.44-6.85,2.66a111,111,0,0,0-11.07,4.65c-3.33,1.77-9.08-1.55-12.19-3.39s-6.65-1.71-10.6,0-6,.07-9.56,0a44.2,44.2,0,0,0-9,1.17c-2.54.44-3.87,4.22-3.87,4.22a16.28,16.28,0,0,1-3.77-1.56c-1.33-.89,4-2.66,5.53-4.64s7.54,1.09,13.52-1.34,2.66-.44,7.13-2.66,13,0,16.26,2.89,12.29-.46,15.85-2.66,3.08-2.45,5.53-4.06,4-1,7.09.61,9.53,1.23,12.19,1,10.19,1.15,15.72.78,4.66-3,7.1-4.46,6,2.71,6,2.71C541.55,127.47,537.29,127.61,535.44,127.47Z" style="fill:#f9b316"/><path d="M20.32,133.7c-1.26.17-2.55.39-4,.56-7.54.89-6.65-5.32-6.65-7.09s8.86-3.11,5.76-6.21-8.87.89-12.86-1.33c-3-1.7-3.49-7-.58-11.19a7.71,7.71,0,0,1,3.14,2.22c2.32,2.66,4.32,3.32,11.63,5.65C23.14,118.34,27.25,124.22,20.32,133.7Z" style="fill:#666668"/><path d="M76.23,75.76c-5.65,7-10,9-22.93,12.19-3,.74-5.83,1.54-8.45,2.4a8.69,8.69,0,0,0-8.25-5.51A8.49,8.49,0,0,0,27.85,93a7.66,7.66,0,0,0,1.38,4.4,50.35,50.35,0,0,0-5.31,3.8c-7.28,6-7.19,15.07-7.19,15.07-7.31-2.33-9.31-3-11.63-5.65A7.71,7.71,0,0,0,2,108.44,11.87,11.87,0,0,1,5.65,105c6.44-3.87,22.65-26.44,80.42-52C86.88,62.35,80.85,70.05,76.23,75.76Z" style="fill:#414142"/><path d="M113.77,141.8c-20,3.4-43.92,1-60.47-2.53,0,0,38.78-5.45,41-28.05C96.4,89.73,102.52,90.26,113.77,141.8Z" style="fill:#e8a113"/><path d="M615.88,93.21c1.92,5.71-2.36,7.37-6.57,8.47s-4-8.2-2.44-15.42-4.66-3.86-9.31-7.47-12-7.46-9.75-1.93,4.88,12.42,0,19.28-8.64-1.33-12.93-4.87-5.24-9.31-1.25-14.85-2.44-7.54-7.32-9.75-9.08-2.88-8,3.77-1.11,9.3-4.43,8.35-4-7.25-2.89-15.88-11.07-3.78-15.73,0-.44,8,3.77,15.07,5.77,14.4-5.32,15.23-12-18.35-10.41-26.54S522,53.38,517.57,51.38s-1.12,5.76-1.33,11.53-5.55,2.43-6-1.2S508,48.5,506,45.45s-5.76,4.38-6.42,10.36,2.21,7.31,1.77,16-7.32,6.64-10,3.76S489,63.79,489.65,53.15s-1.33-11.3-15.08-15.52-.88,6.65-4.2,7.82-5.55,5.27-3.33,13.46S463.93,80,460.17,78s-6-22.4-6.43-29,2.44-19.11-4.32-19.13-3.44,6-.55,13.7-6.21,4.94-9.31,4.21.44-10.14,0-16.33-8.42-4.22-8-.23-.23,9.08-1.77,9.47-4.21,2.06-6-4.15-6.21-1.1-3.33,7-2.22,9.15-4.88,10.93-7.75-.9-9.74-6.72,2.43-9.47,0-11.24S401.66,23,395.24,23.67s-7.54,6.65-4.53,17-9.43,14.24-13.65,11.37-.89-7.1-2.88-12-7.75-2.62-10,.64-5.53,3.39-10.64-2.59c-2.78-3.26-2.19-9.1-1.09-13.73,12.26-.65,24.46-2,38.23-2.77,27.6-1.45,61.45-.14,114.67,15.61,74,21.91,108.49,39.07,115.14,52C617.88,89.12,614.71,89.73,615.88,93.21Z" style="fill:#f9b316"/><path d="M620.52,89.16c-2.64,0-5.81.57-4.64,4,1.92,5.71-2.36,7.37-6.57,8.47s-4-8.2-2.44-15.42-4.66-3.86-9.31-7.47-12-7.46-9.75-1.93,4.88,12.42,0,19.28-8.64-1.33-12.93-4.87-5.24-9.31-1.25-14.85-2.44-7.54-7.32-9.75-9.08-2.88-8,3.77-1.11,9.3-4.43,8.35-4-7.25-2.89-15.88-11.07-3.78-15.73,0-.44,8,3.77,15.07,5.77,14.4-5.32,15.23-12-18.35-10.41-26.54S522,53.38,517.57,51.38s-1.12,5.76-1.33,11.53-5.55,2.43-6-1.2S508,48.5,506,45.45s-5.76,4.38-6.42,10.36,2.21,7.31,1.77,16-7.32,6.64-10,3.76S489,63.79,489.65,53.15s-1.33-11.3-15.08-15.52-.88,6.65-4.2,7.82-5.55,5.27-3.33,13.46S463.93,80,460.17,78s-6-22.4-6.43-29,2.44-19.11-4.32-19.13-3.44,6-.55,13.7-6.21,4.94-9.31,4.21.44-10.14,0-16.33-8.42-4.22-8-.23-.23,9.08-1.77,9.47-4.21,2.06-6-4.15-6.21-1.1-3.33,7-2.22,9.15-4.88,10.93-7.75-.9-9.74-6.72,2.43-9.47,0-11.24S401.66,23,395.24,23.67s-7.54,6.65-4.53,17-9.43,14.24-13.65,11.37-.89-7.1-2.88-12-7.75-2.62-10,.64-5.53,3.39-10.64-2.59c-2.78-3.26-2.19-9.1-1.09-13.73-1.56.08-3.11.15-4.67.2l-3,.1c.28,4,1.73,8.53,1,11.84-1.11,5.07-8.42,5.35-13.52,1.8s-5.76-4-10.85-.21S307.7,41.18,305,35.43c-1.48-3.21-.22-7.45,1.19-10.57-3.49-.06-7-.11-10.49-.19,8.86,14.52.22,23.39-3.33,29.9s-14.84,13.21-20.16,11.8S261,66,251.19,61.47s-2.66-11.64,2.88-16.79,18.18,1.82,18.18,1.82c10.74,3.62,14.4-5.32,11.3-10-1.95-2.93-1.46-8.44-.82-12.16l-4.09-.14c-.46,9.29-12.48,9.18-22.91,10.67-11.63,1.66-13.62,2-17.61-4s-10.31-2-14.63,4-9.64,3-12.63-3.66-9-7.31-14.63,0-14.62,5.65-18.28,0-5.32-1.66-14,5.32-9.31,1.66-17,0A12.14,12.14,0,0,1,140.57,33q-11.2,3.27-23.31,7.55c-2.75,17,8.78,17.52,17.14,12.26,9-5.65,21.94-2.66,19.62,5.65s-12.64,8.64-24.6,6.32-6.32-2.66-11-.34-10-2.32-10-2.32c-.34-1-2.33-3.33,0-8s-10.31-6.32-13.3-1.66-2.66,11.3-3.32,15.62-1.55,4.65-7.42,7.31-7.09,14,0,16.29,13.4-1.55,15.06-6.59,6.56-11,9.26-7.37,10.69,2.66,12,.33,4.65-5.32,9-2,16,.66,19.95-3,11.63-5.66,15.29,3.65-2.66,21.61-13.63,18.62-14.3-5.65-20.28-2.33-8,6.24-13.63,2.78-11.63,1.38-12.63,5.42,4.55,6.43,10.74,3.44,9.87.33,17.51-1,14.63-5.55,19.62-2.44,11.06,6.53,13.33,0,7.94-8.64,11.27-3.11,5,7.65,10.63,3.11,10.31-.45,13.63,0,13,4.1,19.95,1.44,13-5.21,16.95-1.44,11,5.43,19.94,1.77,10-6.62,20.28,3,19.95-2.57,23.6-4.78,6.28,4.1,13.6,10.75,14.66,3.32,17.32-1.66,4.32-13.3,8.31-4,8,12.3,17.28,14,12.3-5.32,15-9,5.65-4.32,7.65,5,10.3,10.3,18.61,9.31S414,112,417,112s2,9.58,12,13.93,21.27-1.3,26.93-6.62,10.63-2.33,14.62,3.33,10.31,4.65,15-.34,9-12.63,13-6.65a21.61,21.61,0,0,0,17.29,9.64c7,.34,11.63-4,14-10s4.32,0,7,3.33,11,3.32,15.29-4.66,7-7.64,10.31-2,7,8.31,15.62,5,6.65-14.29,10.64-12,4,10.3,9.64,9.64,9.31-8.65,12-8.65,4.29.19,5.8,4.58c4-4.43,5.84-9.92,5.84-16.87A10.08,10.08,0,0,0,620.52,89.16ZM431.07,46.66c5.83,1,8,13,8,13C441,66,437.9,71.1,435.46,74.93s-6.38-2.66-10.37-10.78S425.26,45.68,431.07,46.66Zm-34.22,3.5c5.15-6.48,6,1.33,10.29,9.47s-2.62,17.8-3.64,19.16c-2.83,3.69-5,1.11-8.15-3.54S391.69,56.63,396.85,50.16Zm-206.6-5.43a45.18,45.18,0,0,1,12.4-2c7.32-.23,16-.8,16.19,6.25S216.4,61.13,207.1,64.23s-13.75,3.36-19.74-2.76S177.39,48.72,190.25,44.73ZM162.77,64c-7.09-2-5.1-8-2.44-14s9.75-7.31,14-2.22,0,11.74,0,11.74S169.87,66,162.77,64Zm66.37,21.11c-.66,10.35-14,8.25-14,8.25-3.32-.16-3.66-2-5.65-6.7s-1,2.38-7.31,4.71-1.67-1-10,2.17-9,4.14-17.28-4.07-1-18,6.65-20.72,12.3,1,15.62,4,7.65,6.65,10.3,5,2.33-8.64,7.65-9S229.81,74.76,229.14,85.12Zm-3.32-28.31c-4.66-7,0-14.63,0-14.63s3-5,6.61-5.65,13,10.31,8.68,18.28S230.47,63.79,225.82,56.81ZM297,96C291.63,101.52,279.34,99,270,94.7s-16,4.32-28.26,0-7-13.63,0-18.28,15.15-.68,16.29,0c7.31,4.32,11.3,6.32,18.62,2.66s15.62-4,20.27-.33S302.27,90.38,297,96ZM296,64.4c-1.77-8.27,3.55-13.91,10-15.41s10.41,3.5,13.07,0,10.2-5.81,12.86,0,.89,12.36-6.67,15.41-9.52,6.26-9.32,7.37c0,0-1.07,4.42-8.17,6S297.72,72.66,296,64.4Zm29.23,42.16c-9.3,6-18.6-11.3-19.26-18.17s9.08-5.32,14.85-8.87,9.31,4,12.23,12S325.19,106.56,325.19,106.56ZM337.4,85.12c-6-2-5.32-7.14-6-14.91S340.27,57.58,345,57.58s4.86-1.1,9.14-6.86,13-2.66,15.89,5.76-2.45,16.39-9.76,17.72-7.09,2.45-11.3,7.8S337.4,85.12,337.4,85.12Zm32.13,21.66c-7.09,13.08-13.08,6-20.39-2.21s-3.55-11.76,0-15.09,14.19-5.75,20.39,1.57S369.53,106.78,369.53,106.78Zm5.77-20.11C372,78.32,370,73.1,373.74,67.84s7.54-7.15,13.74-1.47S389,85.12,389,85.12C382.16,100,378.62,95,375.3,86.67ZM407,115.87a14.84,14.84,0,0,1-18.39,2.21c-6.65-4-6.43-13.74,0-23.27s16.17-5.32,22.82,4.35S407,115.87,407,115.87Zm6.56-22.66c-4.91-5.16-5.73-15.13-2.06-20.78s8.29-4.32,12.45,1.77,1.28,14.86,1.16,15.28C423.1,96.71,418.44,98.36,413.54,93.21Zm32,24.65c-3.76,8.42-10,5.1-16.62,0s-7.75-12-3.55-19.94a15.6,15.6,0,0,1,10.68-8.28,7.48,7.48,0,0,1,1.07-.16C450.42,85.46,449.3,109.44,445.54,117.86Zm2.79-28.38c-5.34-2.9-8.11-10.07-7.95-15.2s5-14.32,11.48-7.71,4,14.66,3.81,15.43C455.67,82,453.68,92.38,448.33,89.48Zm37.78,26.32c.52,4-5.84,3.5-10.32,4.51s-6.47-5.66-14.45-8.65S454,106,454,101.78s1.33-13.23,8-13.9,9.47,15.64,9.47,15.64c1.42,5.66,5.65,3.81,11.46.62S485.59,111.82,486.11,115.8ZM491.75,103c-7,6.81-3-4.81-8.31-2.88s-6.65-1.61-8.65-6.92-7.64-8.48-5.65-14.42-.33-17.16,5.65-20.16,10.64,7.15,10,12.8,2.81,9.31,7.81,13.69S492.34,102.43,491.75,103Zm27.92,16.46c-4,2-10.47.83-17.11-5.46s-4.5-23.79,5.31-31.49c8.73-6.84,12.72,8.26,13.83,12.14a5.43,5.43,0,0,0,.3.88s3.65,9.14,4.49,13.79C527.46,114.82,523.66,117.48,519.67,119.47Zm26.92-5c-3.59,2.22-5.47,1.7-8.64-.44s-4-8.34,1.33-15.65,10.31-1.49,13,5.78S546.59,114.45,546.59,114.45ZM559.73,89c-2.66,8.28-6.49,7-9.65,2.38s.66-9.17,6-6.81S559.86,88.57,559.73,89ZM577,111.66c-6,6.8-10.15-.34-14-5.64s.15-13.31,5.14-14.47,6.82,5,10,8.58S577,111.66,577,111.66Zm19.1-2c-3.65-.33-4.65-5.16-4-9.53s2-10.57,2.66-13.87,5.32-.68,5.32-.68c3,1,2.17,9.61,3.82,17.1S599.78,110,596.12,109.66Z" style="fill:#414142"/><path d="M278.64,24.2c-.46,9.29-12.48,9.18-22.91,10.67-11.63,1.66-13.62,2-17.61-4s-10.31-2-14.63,4-9.64,3-12.63-3.66-9-7.31-14.63,0-14.62,5.65-18.28,0-5.32-1.66-14,5.32-9.31,1.66-17,0A12.14,12.14,0,0,1,140.57,33c39.36-11.45,70.09-13.73,86.91-11.86C238.54,22.36,257.57,23.49,278.64,24.2Z" style="fill:#f9b316"/><path d="M292.41,54.57c-3.54,6.53-14.84,13.21-20.16,11.8S261,66,251.19,61.47s-2.66-11.64,2.88-16.79,18.18,1.82,18.18,1.82c10.74,3.62,14.4-5.32,11.3-10-1.95-2.93-1.46-8.44-.82-12.16,4.29.13,8.64.24,13,.33C304.6,39.19,296,48.06,292.41,54.57Z" style="fill:#f9b316"/><path d="M345.82,36.5c-1.11,5.07-8.42,5.35-13.52,1.8s-5.76-4-10.85-.21S307.7,41.18,305,35.43c-1.48-3.21-.22-7.45,1.19-10.57,13.53.18,26.86.14,38.58-.2C345.09,28.65,346.54,33.19,345.82,36.5Z" style="fill:#f9b316"/><path d="M369.53,106.78c-7.09,13.08-13.08,6-20.39-2.21s-3.55-11.76,0-15.09,14.19-5.75,20.39,1.57S369.53,106.78,369.53,106.78Z" style="fill:#f9b316"/><path d="M425.09,89.48c-2,7.23-6.65,8.88-11.55,3.73s-5.73-15.13-2.06-20.78,8.29-4.32,12.45,1.77S425.21,89.06,425.09,89.48Z" style="fill:#f9b316"/><path d="M435.46,74.93c-2.43,3.82-6.38-2.66-10.37-10.78s.17-18.47,6-17.49,8,13,8,13C441,66,437.9,71.1,435.46,74.93Z" style="fill:#f9b316"/><path d="M445.54,117.86c-3.76,8.42-10,5.1-16.62,0s-7.75-12-3.55-19.94a15.6,15.6,0,0,1,10.68-8.28,7.48,7.48,0,0,1,1.07-.16C450.42,85.46,449.3,109.44,445.54,117.86Z" style="fill:#f9b316"/><path d="M455.67,82s-2,10.38-7.34,7.48-8.11-10.07-7.95-15.2,5-14.32,11.48-7.71S455.85,81.23,455.67,82Z" style="fill:#f9b316"/><path d="M486.11,115.8c.52,4-5.84,3.5-10.32,4.51s-6.47-5.66-14.45-8.65S454,106,454,101.78s1.33-13.23,8-13.9,9.47,15.64,9.47,15.64c1.42,5.66,5.65,3.81,11.46.62S485.59,111.82,486.11,115.8Z" style="fill:#f9b316"/><path d="M491.75,103c-7,6.81-3-4.81-8.31-2.88s-6.65-1.61-8.65-6.92-7.64-8.48-5.65-14.42-.33-17.16,5.65-20.16,10.64,7.15,10,12.8,2.81,9.31,7.81,13.69S492.34,102.43,491.75,103Z" style="fill:#f9b316"/><path d="M519.67,119.47c-4,2-10.47.83-17.11-5.46s-4.5-23.79,5.31-31.49c8.73-6.84,12.72,8.26,13.83,12.14a5.43,5.43,0,0,0,.3.88s3.65,9.14,4.49,13.79C527.46,114.82,523.66,117.48,519.67,119.47Z" style="fill:#f9b316"/><path d="M40.89,93A5.1,5.1,0,0,1,31.64,96,5,5,0,0,1,30.69,93a5.1,5.1,0,0,1,10-1.24A4.63,4.63,0,0,1,40.89,93Z" style="fill:#414142"/><path d="M44.85,90.35a8.69,8.69,0,0,0-8.25-5.51A8.49,8.49,0,0,0,27.85,93a7.66,7.66,0,0,0,1.38,4.4,8.84,8.84,0,0,0,7.37,3.8A8.49,8.49,0,0,0,45.36,93,7.35,7.35,0,0,0,44.85,90.35Zm-9.07,7.78A5.07,5.07,0,0,1,31.64,96,5,5,0,0,1,30.69,93a5.1,5.1,0,0,1,10-1.24A4.63,4.63,0,0,1,40.89,93,5.1,5.1,0,0,1,35.78,98.13Z" style="fill:#e8e1db"/><path d="M297,96C291.63,101.52,279.34,99,270,94.7s-16,4.32-28.26,0-7-13.63,0-18.28,15.15-.68,16.29,0c7.31,4.32,11.3,6.32,18.62,2.66s15.62-4,20.27-.33S302.27,90.38,297,96Z" style="fill:#f9b316"/><path d="M229.14,85.12c-.66,10.35-14,8.25-14,8.25-3.32-.16-3.66-2-5.65-6.7s-1,2.38-7.31,4.71-1.67-1-10,2.17-9,4.14-17.28-4.07-1-18,6.65-20.72,12.3,1,15.62,4,7.65,6.65,10.3,5,2.33-8.64,7.65-9S229.81,74.76,229.14,85.12Z" style="fill:#f9b316"/><path d="M241.11,54.81c-4.32,8-10.64,9-15.29,2s0-14.63,0-14.63,3-5,6.61-5.65S245.43,46.84,241.11,54.81Z" style="fill:#f9b316"/><path d="M207.1,64.23c-9.31,3.11-13.75,3.36-19.74-2.76s-10-12.75,2.89-16.74a45.18,45.18,0,0,1,12.4-2c7.32-.23,16-.8,16.19,6.25S216.4,61.13,207.1,64.23Z" style="fill:#f9b316"/><path d="M174.29,59.57S169.87,66,162.77,64s-5.1-8-2.44-14,9.75-7.31,14-2.22S174.29,59.57,174.29,59.57Z" style="fill:#f9b316"/><path d="M325.19,64.4c-7.53,3-9.52,6.26-9.32,7.37,0,0-1.07,4.42-8.17,6s-10-5.09-11.74-13.35,3.55-13.91,10-15.41,10.41,3.5,13.07,0,10.2-5.81,12.86,0S332.75,61.35,325.19,64.4Z" style="fill:#f9b316"/><path d="M325.19,106.56c-9.3,6-18.6-11.3-19.26-18.17s9.08-5.32,14.85-8.87,9.31,4,12.23,12S325.19,106.56,325.19,106.56Z" style="fill:#f9b316"/><path d="M369.53,106.78c-7.09,13.08-13.08,6-20.39-2.21s-3.55-11.76,0-15.09,14.19-5.75,20.39,1.57S369.53,106.78,369.53,106.78Z" style="fill:#f9b316"/><path d="M407,115.87a14.84,14.84,0,0,1-18.39,2.21c-6.65-4-6.43-13.74,0-23.27s16.17-5.32,22.82,4.35S407,115.87,407,115.87Z" style="fill:#f9b316"/><path d="M389,85.12C382.16,100,378.62,95,375.3,86.67S370,73.1,373.74,67.84s7.54-7.15,13.74-1.47S389,85.12,389,85.12Z" style="fill:#f9b316"/><path d="M360.22,74.2c-7.32,1.32-7.09,2.45-11.3,7.8s-11.52,3.12-11.52,3.12c-6-2-5.32-7.14-6-14.91S340.27,57.58,345,57.58s4.86-1.1,9.14-6.86,13-2.66,15.89,5.76S367.53,72.87,360.22,74.2Z" style="fill:#f9b316"/><path d="M596.12,109.66c-3.65-.33-4.65-5.16-4-9.53s2-10.57,2.66-13.87,5.32-.68,5.32-.68c3,1,2.17,9.61,3.82,17.1S599.78,110,596.12,109.66Z" style="fill:#f9b316"/><path d="M577,111.66c-6,6.8-10.15-.34-14-5.64s.15-13.31,5.14-14.47,6.82,5,10,8.58S577,111.66,577,111.66Z" style="fill:#f9b316"/><path d="M403.5,78.79c-2.83,3.69-5,1.11-8.15-3.54s-3.66-18.62,1.5-25.09,6,1.33,10.29,9.47S404.52,77.43,403.5,78.79Z" style="fill:#f9b316"/><path d="M425.09,89.48c-2,7.23-6.65,8.88-11.55,3.73s-5.73-15.13-2.06-20.78,8.29-4.32,12.45,1.77S425.21,89.06,425.09,89.48Z" style="fill:#f9b316"/><path d="M435.46,74.93c-2.43,3.82-6.38-2.66-10.37-10.78s.17-18.47,6-17.49,8,13,8,13C441,66,437.9,71.1,435.46,74.93Z" style="fill:#f9b316"/><path d="M455.67,82s-2,10.38-7.34,7.48-8.11-10.07-7.95-15.2,5-14.32,11.48-7.71S455.85,81.23,455.67,82Z" style="fill:#f9b316"/><path d="M486.11,115.8c.52,4-5.84,3.5-10.32,4.51s-6.47-5.66-14.45-8.65S454,106,454,101.78s1.33-13.23,8-13.9,9.47,15.64,9.47,15.64c1.42,5.66,5.65,3.81,11.46.62S485.59,111.82,486.11,115.8Z" style="fill:#f9b316"/><path d="M519.67,119.47c-4,2-10.47.83-17.11-5.46s-4.5-23.79,5.31-31.49c8.73-6.84,12.72,8.26,13.83,12.14a5.43,5.43,0,0,0,.3.88s3.65,9.14,4.49,13.79C527.46,114.82,523.66,117.48,519.67,119.47Z" style="fill:#f9b316"/><path d="M491.75,103c-7,6.81-3-4.81-8.31-2.88s-6.65-1.61-8.65-6.92-7.64-8.48-5.65-14.42-.33-17.16,5.65-20.16,10.64,7.15,10,12.8,2.81,9.31,7.81,13.69S492.34,102.43,491.75,103Z" style="fill:#f9b316"/><path d="M546.59,114.45c-3.59,2.22-5.47,1.7-8.64-.44s-4-8.34,1.33-15.65,10.31-1.49,13,5.78S546.59,114.45,546.59,114.45Z" style="fill:#f9b316"/><path d="M559.73,89c-2.66,8.28-6.49,7-9.65,2.38s.66-9.17,6-6.81S559.86,88.57,559.73,89Z" style="fill:#f9b316"/><path d="M594.25,121.65c-6,1.49-15.64,3.41-27.82,5.63h0c-.24,0-1.84.09-3.42-2.55-1.7-2.86-2.87-.67-5.76-2s-1.77.72-4.47,2.27-2.4.89-3.83,1.74a5.25,5.25,0,0,1-4.82,0c-1.61-.69-.4-.85,4.82-3.68s5-4,7.64-5.44,6.87,5.61,10.63,6.49,7.76-1.77,13.3-4.45,5.09-1.31,9.31-2S594.25,121.65,594.25,121.65Z" style="fill:#414142"/><path d="M641.33,101.78c.49.61.32,1.8-.13,3.25s-1.22,3.37-1.85,5.15c-.8,2.27-1.34,4.43-.68,5.71a1.54,1.54,0,0,1,.15.88c-.19,1.42-2.12,3.28-4.5,5.17-.61.49-1.25,1-1.9,1.45-1.63,1.21-3.31,2.38-4.7,3.4A25.61,25.61,0,0,0,625,129c-.36.35-.85.82-1.5,1.35-.5.43-1.12.89-1.83,1.4a38.26,38.26,0,0,1-8,4.21,51.93,51.93,0,0,1-7.27,2.26c-1.61.38-3.34.7-5.17,1a80.07,80.07,0,0,1-15.73.63q-3-.15-6.17-.51c-1.25-.13-2.51-.25-3.79-.33a105.27,105.27,0,0,0-11.12-.15c-3.25.12-6.54.36-9.81.71-1.35.14-2.71.3-4.07.48-2.39.31-4.77.67-7.11,1.09-2,.33-4,.7-5.89,1.1-3.24.66-6.37,1.38-9.36,2.14-1.84.47-3.6.94-5.31,1.42-3.85,1.09-7.36,2.21-10.41,3.29-2.47.86-4.64,1.7-6.42,2.47a38.51,38.51,0,0,0-3.66,1.74c-1.29.72-2.51,1.45-3.65,2.17-1.53,1-2.93,1.9-4.19,2.79-4.22,3-7,5.32-8.31,5.65a.19.19,0,0,1-.12,0,82.09,82.09,0,0,1-10.23.67c-2.47,0-4.66-.17-5.62-.67-.73-.38-1.94-.1-3.42.44s-3.16,1.33-4.94,2c-2.69,1-5.55,1.74-7.9.89a11.31,11.31,0,0,0-6-.41,14.36,14.36,0,0,0-6,2.79,13.35,13.35,0,0,0-2.34,2.28,5,5,0,0,1-2.24,1.37,20.11,20.11,0,0,1-4.24,1A47.57,47.57,0,0,1,415.61,173a19.92,19.92,0,0,1-6.41-2.83,15,15,0,0,0-6.29-2.78c-3.63-.62-6.3.44-7.4-.19a.89.89,0,0,1-.39-.4,2,2,0,0,1-.11-.29c-.1-.41-.49-.72-1.06-1a25.17,25.17,0,0,0-6.29-1c-3.16-.28-6.21-.54-6.46-1.66-.52-2.32-8.12,3-11.78,0-1.74-1.42-4.8-3.71-7.51-5.69,14.34-.88,28.61-2.26,42.41-4.28,60.54-8.84,124-18.67,162.09-25.6h0c12.18-2.22,21.77-4.13,27.82-5.62,2-.51,3.67-1,4.87-1.36,7.6-2.54,13.11-5.67,16.76-9.72,4-4.42,5.84-9.92,5.84-16.87a10.11,10.11,0,0,0-1.2-4.55c-6.65-12.88-41.11-30-115.14-52-53.22-15.74-87.07-17.06-114.67-15.61a7.41,7.41,0,0,1,.63-4.32,9.33,9.33,0,0,1,5.14-4.18,42.26,42.26,0,0,1,11.09-2.24c1.71-.18,3.4-.32,5-.47A24.87,24.87,0,0,0,419,9.22a3,3,0,0,0,1-.61c1.91-1.91,5.63-1.37,9-.7,3.06.61,5.8,1.33,6.54.37a1.8,1.8,0,0,1,.35-.31c1.2-.73,4.15-.62,6.86-.86a11.32,11.32,0,0,0,3.7-.84,2.75,2.75,0,0,0,1.67-2,4.8,4.8,0,0,1,3.75-4,11.25,11.25,0,0,1,4.53-.11c3,.41,7.07,1.68,12.4,4.12,1.1.51,2.28,1,3.53,1.57,2.78,1.17,5.87,2.39,9.1,3.62,2.11.8,4.28,1.58,6.46,2.36,1.52.54,3,1.07,4.53,1.57l3.78,1.27c1.77.58,3.5,1.13,5.17,1.65,3.33,1,6.4,1.92,9,2.59a39.58,39.58,0,0,0,7.12,1.42,4,4,0,0,0,.61,0,10.44,10.44,0,0,1,4.24.36,8.22,8.22,0,0,0,5.73-.12,2.93,2.93,0,0,1,1.41-.23c2.64.17,5.42,3.52,9.84,5.66a16.74,16.74,0,0,0,4.88,1.56c1.35.21,2.66.44,3.89.71a36.89,36.89,0,0,1,6.6,1.91,18,18,0,0,1,8.28,6.33A17.67,17.67,0,0,0,564.05,38a17,17,0,0,0,6.25,4.41,31.18,31.18,0,0,0,10.92,2.25c1.14.07,2.35.08,3.6.07h.55a27.6,27.6,0,0,1,7.74,1.86c1.95.71,4,1.6,6.18,2.59,3.36,1.56,6.86,3.41,10.2,5.32,1.92,1.11,3.8,2.24,5.57,3.34S618.4,60,619.86,61a42.78,42.78,0,0,1,6.69,5.45,3,3,0,0,1,.82,1.4c.15,1.63,1.84,3.75,4.08,5.69a30.19,30.19,0,0,0,5.11,3.56,16.19,16.19,0,0,0,4.11,1.69c1.51.33,1.87,1.62,1.74,3.31a32.3,32.3,0,0,1-.81,4.35c-.47,2.12-.89,4.23-.45,5.76a3.12,3.12,0,0,0,.47,1c1.67,2.21.44,4.21-.26,5.92C641,100.13,640.72,101,641.33,101.78Z" style="fill:#666668"/><path d="M203.21,125.91c-2.66,4-9,1.7-8.31,0s-3-5.94-10.63-7.94-3,2.66-5.32,2.34-8-3.67-11.92.11-4.7,6.86-9.13,4.86-13.19.34-16.18-2.32-9.64-3.66-13-2.65-12,1.65-13.19-1.34,5.81-4.5,7.21-5c3.35-1.12,3.32,1,5.65,0s5.65-2,9.64,2.3,4,3.32,12.3,4,7-1.66,7.54-4,10.74.33,13.38-2.3,4-1.36,16.31,0,7.65,3,14.29,2.3S205.87,122,203.21,125.91Z" style="fill:#414142"/><path d="M351.07,131.6c-1.72,2.33-4.25,1-11.24-.33s-7.31-5.32-14.64,1.33-16.27,1.33-17.6,0-11-5.65-13.63-2.66-7.31,1-10.3,1.59-4.32,2.06-9,0-9-6.25-14.62-5.91-3.66,1.66-9.31,5-10-3-16.34-7.64-5.93,0-10.67,1.06-7.56,1.6-11.22,3.45-2.33-5.84,1.66-7.66,6.65.16,15-3.5S243.77,124,243.77,124c1.58,2.38,2.66.93,4.65-1.06s6.65-1.66,9-2.54,7.31.21,10.15,2.59,7.13,2.61,9.46,2.71,7.64-1.1,11.63-2.71a15,15,0,0,1,14,1c5,3.07,9,3.26,13.27,5.25s6.68-2.66,9.32-6.26,11.65.61,19.76,2.71S352.8,129.27,351.07,131.6Z" style="fill:#414142"/><path d="M426.17,132.6c.25,1.33-5.23,5.65-11.21,7.5s-10.64-.19-16.36-2.85-7.91-1.33-12.23,1.66-8.31-.33-10-2.83-2.66-1.16-4.71-2.15-2.6.66-7.26,1.94-3-3.27,1.66-7.77,8.65,3.17,8.65,3.17c3.08,3.65,1.66,1.33,6.46,2.48s4.84-.82,9.51-1.82,10.05,3.94,10.05,3.94,12.54-1.28,16.93-4.6S425.93,131.27,426.17,132.6Z" style="fill:#414142"/><path d="M535.44,127.47c-1.86-.14-2.81,1.91-3.47,3.44s-5.32.25-11.53-1.3-9.75,1.33-13.74,1.3-12-2.86-12-1.08-6.18,2.44-6.85,2.66a111,111,0,0,0-11.07,4.65c-3.33,1.77-9.08-1.55-12.19-3.39s-6.65-1.71-10.6,0-6,.07-9.56,0a44.2,44.2,0,0,0-9,1.17c-2.54.44-3.87,4.22-3.87,4.22a16.28,16.28,0,0,1-3.77-1.56c-1.33-.89,4-2.66,5.53-4.64s7.54,1.09,13.52-1.34,2.66-.44,7.13-2.66,13,0,16.26,2.89,12.29-.46,15.85-2.66,3.08-2.45,5.53-4.06,4-1,7.09.61,9.53,1.23,12.19,1,10.19,1.15,15.72.78,4.66-3,7.1-4.46,6,2.71,6,2.71C541.55,127.47,537.29,127.61,535.44,127.47Z" style="fill:#414142"/><circle cx="41.44" cy="91.44" r="3.49" style="fill:#e8e1db"/><path d="M387.78,158.38c.93,1.28,3.39,4.17,6.17,7.16a25.17,25.17,0,0,0-6.29-1C386.77,160.66,385.91,155.78,387.78,158.38Z" style="fill:#414142"/><path d="M395.12,166.8l.39.4A.89.89,0,0,1,395.12,166.8Z" style="fill:#414142"/><path d="M391.34,17.27a9.33,9.33,0,0,1,5.14-4.18c4,1.81,8.48,3.62,9,4.54C406.46,19.2,399,18.21,391.34,17.27Z" style="fill:#414142"/><path d="M415.61,173a19.92,19.92,0,0,1-6.41-2.83,15,15,0,0,0-6.29-2.78c-2.48-8.57-3.36-17.59,2.18-7.7A60.2,60.2,0,0,0,415.61,173Z" style="fill:#414142"/><path d="M407.57,10.85c1.71-.18,3.4-.32,5-.47,2.9,2.73,6.05,5.69,6.5,7.25C419.8,20.31,415.54,14.53,407.57,10.85Z" style="fill:#414142"/><path d="M437.42,173.2a20.11,20.11,0,0,1-4.24,1c-3.87-3.63-12.25-8-16.36-15.77C411.6,148.47,426.7,164.73,437.42,173.2Z" style="fill:#414142"/><path d="M419,9.22a3,3,0,0,0,1-.61c1.91-1.91,5.63-1.37,9-.7,2.67,3.19,6,7.17,6.54,9.94C436.45,22.72,427.76,14.85,419,9.22Z" style="fill:#414142"/><path d="M441.42,158.38a43.79,43.79,0,0,0,6.61,8.38,14.36,14.36,0,0,0-6,2.79,48.31,48.31,0,0,1-4.13-7.43C433.22,151.26,433,144.44,441.42,158.38Z" style="fill:#414142"/><path d="M450.27,17.42c2,6-5.63-2.92-14.46-9.45,1.2-.73,4.15-.62,6.86-.86C445.79,10.42,449.26,14.4,450.27,17.42Z" style="fill:#414142"/><path d="M446.37,6.27a2.75,2.75,0,0,0,1.67-2,4.8,4.8,0,0,1,3.75-4c.17.53.41,1.14.71,1.84,4.42,10.42,8.2,16.76,9.08,19C462.3,23,454.81,13.12,446.37,6.27Z" style="fill:#414142"/><path d="M466.84,164.3c-1.45.53-3.16,1.33-4.94,2-4.3-4.43-9.07-9.56-9.63-14.36C451.39,144.36,458.77,156.94,466.84,164.3Z" style="fill:#414142"/><path d="M456.32.17c3,.41,7.07,1.68,12.4,4.12,1.1.51,2.28,1,3.53,1.57-.54,5.16,0,12,1.75,15.28,3.53,6.91-3.37-3.14-9.76-11.93A65.2,65.2,0,0,0,456.32.17Z" style="fill:#414142"/><path d="M481.35,9.48c2.11.8,4.28,1.58,6.46,2.36-.65,4.45-1.25,10.51-2.74,12.82C482.93,28,483.48,18.32,481.35,9.48Z" style="fill:#414142"/><path d="M486.23,163.82a.19.19,0,0,1-.12,0,82.09,82.09,0,0,1-10.23.67c-1.82-2.78-4.69-6.4-7.16-9.95-6-8.64-1-8.85,9,2.89A21.18,21.18,0,0,0,486.23,163.82Z" style="fill:#414142"/><path d="M498.73,155.38c-1.53,1-2.93,1.9-4.19,2.79-2.85-3.32-5.92-5-5.92-9.82C488.62,142.84,489.78,147.3,498.73,155.38Z" style="fill:#414142"/><path d="M492.34,13.41l3.78,1.27c.59,4.11,1,8.45.48,10.93C495.36,31,494.29,21.1,492.34,13.41Z" style="fill:#414142"/><path d="M511.66,147.93c.26.38.52.73.8,1.07-2.47.86-4.64,1.7-6.42,2.47-.05-1.86-.25-3.86-.36-5.56C505.24,139.29,506.57,140.62,511.66,147.93Z" style="fill:#414142"/><path d="M512.69,26.72c5.4,10.64.3,7.53-2.79,4-2.1-2.4-5.32-8-8.61-14.38,3.33,1,6.4,1.92,9,2.59A25.22,25.22,0,0,0,512.69,26.72Z" style="fill:#414142"/><path d="M526.65,142.62a22.23,22.23,0,0,0,1.53,1.67c-1.84.47-3.6.94-5.31,1.42C521.86,138.59,523.3,138.55,526.65,142.62Z" style="fill:#414142"/><path d="M517.4,20.34a4,4,0,0,0,.61,0,10.44,10.44,0,0,1,4.24.36c1.29,5.71,4.16,12.14,5.37,15.11C529.52,40.45,523,36,517.4,20.34Z" style="fill:#414142"/><path d="M543.43,141.05c-2,.33-4,.7-5.89,1.1-1.08-5.67-1.8-10.45,1.06-6.28A31.64,31.64,0,0,0,543.43,141.05Z" style="fill:#414142"/><path d="M533.38,34c-1.61-5.56-2.9-10.11-4-13.7,2.64.17,5.42,3.52,9.84,5.66a22.68,22.68,0,0,0,.94,10.91C544,47.55,539.36,54.65,533.38,34Z" style="fill:#414142"/><path d="M554.61,139.48c-1.35.14-2.71.3-4.07.48-1.17-2.68-2.11-5-1.61-5.67S551.51,136.67,554.61,139.48Z" style="fill:#414142"/><path d="M554.48,33.82c1.06,10,5.28,17.71,2.17,15.51C554,47.4,551.27,38.2,548,28.27a36.89,36.89,0,0,1,6.6,1.91A11.81,11.81,0,0,0,554.48,33.82Z" style="fill:#414142"/><path d="M564.05,38a17,17,0,0,0,6.25,4.41,15.25,15.25,0,0,0,.12,5.4C572.16,55.31,565.7,51.87,564.05,38Z" style="fill:#414142"/><path d="M561.53,130.91a96.05,96.05,0,0,0,14,8,105.27,105.27,0,0,0-11.12-.15,0,0,0,0,1,0,0C560.42,133.09,558.43,128.73,561.53,130.91Z" style="fill:#414142"/><path d="M579.33,57.08c-.65-.45,1.76-6.34,1.89-12.46,1.14.07,2.35.08,3.6.07h.55C583.32,52,580.21,57.69,579.33,57.08Z" style="fill:#414142"/><path d="M601.23,139.13a80.07,80.07,0,0,1-15.73.63c-.64-1.07-2.61-2.93-6.17-6C571.22,126.75,571.46,126.59,601.23,139.13Z" style="fill:#414142"/><path d="M592,48.66c.42-.74.81-1.43,1.16-2.1,1.95.71,4,1.6,6.18,2.59-.4.39-.8.8-1.21,1.21C583,65.72,582.24,65.28,592,48.66Z" style="fill:#414142"/><path d="M600.52,130.91a39.18,39.18,0,0,0,13.15,5,51.93,51.93,0,0,1-7.27,2.26c-6-3.49-12.36-7.27-14.45-9.18C586,123.51,590.77,124.72,600.52,130.91Z" style="fill:#414142"/><path d="M609.49,54.47c1.92,1.11,3.8,2.24,5.57,3.34-1.82,1.6-3.75,3.34-5.67,5.09C598.32,73,597.63,68,609.49,54.47Z" style="fill:#414142"/><path d="M619.86,61a42.78,42.78,0,0,1,6.69,5.45,14.66,14.66,0,0,0-6,4.59C615.51,77.86,612.15,73.73,619.86,61Z" style="fill:#414142"/><path d="M623.54,130.3c-.5.43-1.12.89-1.83,1.4-4.25-2.57-12.64-3-16.08-7.7C601.76,118.72,614.11,127.47,623.54,130.3Z" style="fill:#414142"/><path d="M632.42,123.39c-1.63,1.21-3.31,2.38-4.7,3.4a54.41,54.41,0,0,0-9.24-6.38C610.91,116.17,620.84,118.59,632.42,123.39Z" style="fill:#414142"/><path d="M621.72,80.76a86,86,0,0,0,9.73-7.22,30.19,30.19,0,0,0,5.11,3.56C626.16,82.71,616.63,83.87,621.72,80.76Z" style="fill:#414142"/><path d="M638.82,116.77c-.19,1.42-2.12,3.28-4.5,5.17-2.36-1.45-5-3-7.42-4.55C616.57,111,621.59,113.7,638.82,116.77Z" style="fill:#414142"/><path d="M641.2,105c-.45,1.54-1.22,3.37-1.85,5.15-.94-.14-1.91-.27-2.92-.39C616.48,107.43,622.28,107.26,641.2,105Z" style="fill:#414142"/><path d="M642.41,82.1a32.3,32.3,0,0,1-.81,4.35c-9.26-.21-14.15,1.61-17.58,1.41C619.78,87.61,630.76,85.55,642.41,82.1Z" style="fill:#414142"/><path d="M641.36,99.14c-15.13-2.34-26.4-4.23-11.58-5.72,3.67-.36,7.64-.77,11.37-1.21a3.12,3.12,0,0,0,.47,1C643.29,95.43,642.06,97.43,641.36,99.14Z" style="fill:#414142"/></g></g></svg>