<svg xmlns="http://www.w3.org/2000/svg" viewBox="0 0 584.69 327.7"><title>Asset 3</title><g id="Layer_2" data-name="Layer 2"><g id="Ñëîé_2" data-name="Ñëîé 2"><path d="M470,116.13c-13.53-11.71-20.65-19.84-31.74-22.2a63.17,63.17,0,0,1-11.38-2.32c-4.32-1.28-9.21-3-14.86-5.33-13-5.34-30.18-9.5-48.87-12.79-18.87-3.31-39.31-5.69-58.75-7.36h0c-2.24,1.45-4.23,2.44-6.65,4.14-5.12,3.59,0,11.18-6.64,11.53s-62.87,14.09-50.33.07a227.23,227.23,0,0,1,17.2-18.72c-11.76-.51-21.65-.73-28.66-.77C195.49,62.14,125.85,92.63,110,100c-10.45,4.8-23.9,2.82-31.88.88a63.53,63.53,0,0,1-6.81-2C39.08,73.18,25.45-19.21,27.94,15.33c1.57,21.85,13,49.63,22.93,70.11,2.89,5.91,5.62,11.22,8,15.59l0,0c2.38,4.43,4.35,7.89,5.63,10.07,6.9,11.82,1.58,22.09,28.28,44.6,24,20.2,61.57,24.12,112,22.95,5.73-.13,11.62-.35,17.66-.59,19-.78,41.53-1.77,63.47-2.76h0c46.74-2.09,90.59-4.19,90.59-4.19,35.91-1.7,58.77-7.76,66.55-18.34a20.59,20.59,0,0,1,6.53-6.24l.06,0C451.29,145.58,483.21,127.57,470,116.13Zm-334.47,23.1a13.77,13.77,0,1,1-11.23-15.92A13.76,13.76,0,0,1,135.51,139.23Zm267.23-5.38c-10.29,8.53-41.16,22.31-124.55,21.54s-119-17.22-100.31-32.3,26.08-29.38,79-15.78,133.75,15.78,133.75,15.78C401.29,123.53,413,125.3,402.74,133.85Z" style="fill:#4c4c4c"/><path d="M540.18,190.42c-35.45-10.58-34.35-12.63-58-30.89-17.3-13.33-26-16.44-32.52-13,1.68-.93,33.6-18.94,20.37-30.38-13.53-11.71-20.65-19.84-31.74-22.2,21.87,2.16,29.05-13.54,74.78-31.24C570,40.6,590.29,39.85,577.1,48.8,558.85,53.21,512.44,65.38,492,79.38c-21.25,14.57,26.74-8.25,60-14.75a12.13,12.13,0,0,0-.07,5.53,6,6,0,0,1-.55,4.21v0c-18.23,4.81-42,10.65-55.38,16.74-20.39,9.28,5.23,4.6,31,2.71a6.85,6.85,0,0,0-.26,1.08c-.42,2.4-4.45,4.32-8.82,6.68a.07.07,0,0,1,0,0c-11.09,1.5-21.19,3.31-25.6,5.69-7.63,4.1,1.41,5.6,14.4,6.79-.11,3.42,1.61,7.63,6.22,13-10.37.84-21.06,1-28.69.18-16.55-1.88,15.11,10.43,46.32,16.49a0,0,0,0,1,0,0c5.63,4.37,6.62,3.75,7.21,6.59a165.24,165.24,0,0,1-37.39-3.79c-35.75-8.29,11.14,10.93,52.1,18.67a0,0,0,0,1,0,0c4.67,2.08,8.29,3.66,6.68,5.36s-.82,3.68,1.56,6.28c-16.18.56-35.91-1.3-51.91-8.59-38.8-17.68,10.14,19,72.4,23.83C592.76,200.54,574.15,200.58,540.18,190.42Z" style="fill:#69696d"/><path d="M518,101.62c-5.32,2.87-11.05,6.46-11.2,12.48-13-1.19-22-2.69-14.4-6.79C496.79,104.93,506.89,103.12,518,101.62Z" style="fill:#5a5a5b"/><path d="M530.63,143.73c-31.21-6.06-62.87-18.37-46.32-16.49,7.63.86,18.32.66,28.69-.18.61.68,1.25,1.39,2,2.12A142,142,0,0,0,530.63,143.73Z" style="fill:#5a5a5b"/><path d="M551.44,74.39c-3.06,5.16-15.32,2.74-15.36,10.19-.05,8.44-7.12,3.68-9,9.26-25.81,1.89-51.43,6.57-31-2.71C509.47,85,533.21,79.2,551.44,74.39Z" style="fill:#5a5a5b"/><path d="M552.57,165.22c-41-7.74-87.85-27-52.1-18.67a165.24,165.24,0,0,0,37.39,3.79c.18.77.31,1.79.49,3.22C539.05,159.09,546.66,162.58,552.57,165.22Z" style="fill:#5a5a5b"/><path d="M577.1,48.8c-.66.46-1.43,1-2.29,1.45-13.69,8.16-21.1,9.15-22.75,14.38-33.29,6.5-81.28,29.32-60,14.75C512.44,65.38,558.85,53.21,577.1,48.8Z" style="fill:#5a5a5b"/><path d="M581.32,192.12c-62.26-4.83-111.2-41.51-72.4-23.83,16,7.29,35.73,9.15,51.91,8.59,3.38,3.71,10.12,8.4,18.79,14.05C580.23,191.33,580.81,191.72,581.32,192.12Z" style="fill:#5a5a5b"/><path d="M58.85,101C57.79,100.45,24.2,81.91,5.3,50-13.48,18.33,21.42,73.47,50.87,85.44,53.76,91.35,56.49,96.66,58.85,101Z" style="fill:#444"/><path d="M326.69,202c4.6,1.19,9.19,2.46,13.66,3.83-.28,1.19-.68,2.51-1.12,4-2.84,9.21-.64,7.47-2.4,8.44-31.68-10.56-60.5-22.09-30-5.11,9.57,5.31,19.31,10.84,28.41,16.18.56,3.06.67,6.13-1.6,8.25-2,1.89-1.55,4.23-.27,6.7-32.1-16-63.73-35.85-43.56-18.28,10.34,9,30.2,21.19,48.48,32.3-.77,5.05.26,11.42-1.9,14.61-49.32-29.25-105.07-93.47-72.95-48.39,15.43,21.67,44.78,44,69.38,61.4-1.08,3.9-3.24,7.72-8.44,9.72a8.87,8.87,0,0,0-3.62,2.25c-59.28-41-100.86-132.18-79.36-80.33,18,43.34,59.92,78,82,94a2.17,2.17,0,0,1-.36.31c-5.09,3.59,25,40.85-32.07-13-44.75-42.22-75.22-98-86.31-120.15,5.73-.13,11.62-.35,17.66-.59,19-.78,41.53-1.77,63.47-2.76h0c17.22,10.89,40,13.87,46.74,16.58,5.29,2.11,7.76,4,8.4,7C317.21,197.48,300.23,195.23,326.69,202Z" style="fill:#69696d"/><path d="M323.47,311.5c-22.11-16-64.07-50.62-82-94-21.5-51.85,20.08,39.33,79.36,80.33C316.74,302.37,326.82,308.37,323.47,311.5Z" style="fill:#5a5a5b"/><path d="M336.43,272.89a4.18,4.18,0,0,1-.68.82c-1.94,1.76-1.48,7.08-2.89,12.19-24.6-17.39-53.95-39.73-69.38-61.4C231.36,179.42,287.11,243.64,336.43,272.89Z" style="fill:#5a5a5b"/><path d="M338.75,256.34a15.79,15.79,0,0,0-.42,1.94c-18.28-11.11-38.14-23.3-48.48-32.3-20.17-17.57,11.46,2.25,43.56,18.28v0C335.5,248.36,339.76,252.79,338.75,256.34Z" style="fill:#5a5a5b"/><path d="M335.35,219.21c-2.45,1.74-.84,5.91-.07,10.1-9.1-5.34-18.84-10.87-28.41-16.18-30.54-17-1.72-5.45,30,5.11C336.5,218.44,336,218.73,335.35,219.21Z" style="fill:#5a5a5b"/><path d="M340.35,205.83c-4.47-1.37-9.06-2.64-13.66-3.83-26.46-6.77-9.48-4.52,14.33-3.14C341.41,200.67,341.13,202.9,340.35,205.83Z" style="fill:#5a5a5b"/><path d="M337.58,32.57c2.18,5.85,5.35,8.73-.27,11-10.38,4.17-15.56,6.48-23.5,14.6a52.22,52.22,0,0,1-9.43,8h0c-2.24,1.45-4.23,2.44-6.65,4.14-5.12,3.59,0,11.18-6.64,11.53s-62.87,14.09-50.33.07a227.23,227.23,0,0,1,17.2-18.72c11.53-11.33,27.95-25.42,46.49-35q3.54-1.83,6.75-3.69c-8.45,9.7-17.88,19.6-26,25.84-20.54,15.81,34-16.16,59.59-50.28.33.41-1.17,3.3-4.54,9.7-.53,1-1,1.94-1.39,2.86C329.62,24.75,317.43,38.79,306.16,47,283.9,63.37,315.29,49.28,337.58,32.57Z" style="fill:#69696d"/><path d="M337.58,32.57C315.29,49.28,283.9,63.37,306.16,47c11.27-8.25,23.46-22.29,32.65-34.42C334.78,21.75,335.88,28.05,337.58,32.57Z" style="fill:#5a5a5b"/><path d="M344.74.06c-25.64,34.12-80.13,66.09-59.59,50.28,8.14-6.24,17.57-16.14,26-25.84C332.7,12.09,344-1,344.74.06Z" style="fill:#5a5a5b"/><path d="M428.45,81.65c-.95,1.47.22,5.79-1.59,10-4.32-1.28-9.21-3-14.86-5.33-13-5.34-30.18-9.5-48.87-12.79,0,0,3.24-36.11,16.73-51.68S394.59,5.7,394.3,11.63a5,5,0,0,0,1.7,3.79c-5.6,8.71-14.09,23.55-17.51,37.81C373.75,73,386.5,41,406,23.89c.73,1.56,3.49,3.66,5.87,5.91-7.23,9.52-16.54,21.71-19,30.13-4.63,15.7,7.74-1.72,27.85-11.48a34.85,34.85,0,0,1,2.6,6v0c-5.58,3.57-11.11,7.65-14.66,11.75-8.51,9.87,2.25,5.2,16.47,0C426.66,73.36,429.6,79.88,428.45,81.65Z" style="fill:#69696d"/><path d="M406,23.87v0C386.5,41,373.75,73,378.49,53.23,381.91,39,390.4,24.13,396,15.42c3.26,3.37,10.16,5.31,9.79,7.52A1.64,1.64,0,0,0,406,23.87Z" style="fill:#5a5a5b"/><path d="M420.67,48.45c-20.11,9.76-32.48,27.18-27.85,11.48,2.47-8.42,11.78-20.61,19-30.13,2.31,2.2,4.3,4.56,3.9,6.79C415.2,39.58,418.13,43.66,420.67,48.45Z" style="fill:#5a5a5b"/><path d="M425.08,66.22c-14.22,5.22-25,9.89-16.47,0,3.55-4.1,9.08-8.18,14.66-11.75a18.1,18.1,0,0,1,.84,4.78A35.45,35.45,0,0,0,425.08,66.22Z" style="fill:#5a5a5b"/><path d="M124.28,123.31a13.77,13.77,0,1,0,11.23,15.92A13.76,13.76,0,0,0,124.28,123.31ZM126,135a6.62,6.62,0,1,1-5.4-7.65A6.61,6.61,0,0,1,126,135Z" style="fill:#5a5a66"/><path d="M126,135a6.62,6.62,0,1,1-5.4-7.65A6.61,6.61,0,0,1,126,135Z" style="fill:#2b2b2b"/><path d="M78.12,100.85a63.53,63.53,0,0,1-6.81-2s-3.2-24.73,12.76-36C98.67,52.55,70.65,70.65,78.12,100.85Z" style="fill:#444"/><path d="M402.74,133.85c-10.29,8.53-41.16,22.31-124.55,21.54s-119-17.22-100.31-32.3,26.08-29.38,79-15.78,133.75,15.78,133.75,15.78C401.29,123.53,413,125.3,402.74,133.85Z" style="fill:#535354"/><circle cx="127.07" cy="139.73" r="4.48" style="fill:#fff"/><path d="M513.87,78.1s1-2.8-2.4-1.63-6.6,2.91-4.21,5.12S513.32,85.45,513.87,78.1Z" style="fill:#4c4c4c"/><path d="M488.68,85.55S488.33,79,482.82,82s-5.93,5.53-3.06,9.65.62.67,5.45,1.67S489.59,88.52,488.68,85.55Z" style="fill:#4c4c4c"/><path d="M528,76.18s5.28-4.15,5.58-6.9,4.67-5.39,4.61-7.53-7.62-3.43-10.19,3.3-10.59-1.1-8,5S522,80,528,76.18Z" style="fill:#4c4c4c"/><path d="M518,97.94s4.71-8.43-1.35-6.33-6.13,2.11-11.43,0-13.89.37-8,4.91,3.2,2.89,1.45,6.93,1.66,4.25,3.54.79,4.78-3.86,6.11-2.62,2.2-.51,4.13,0S516.75,100.67,518,97.94Z" style="fill:#4c4c4c"/><path d="M485,112.5s2.18-3.86-1.39-3.58-10.05-2.07-7.43,3.58,3.42,4.27,7.43,7.16S483.24,115.53,485,112.5Z" style="fill:#4c4c4c"/><path d="M507.46,135.39s-2.86-10-7-7.65-5.74-2.39-9.09.9-3.31,9.62,2.61,12.66,4.79,1.15,12.45,4.4S507.44,139.67,507.46,135.39Z" style="fill:#4c4c4c"/><path d="M480.64,143.73s-5.1-7.12-7.45-5.33-4.7,1.42-1,5.33,2.54,3.21,8.43,6S483,146.57,480.64,143.73Z" style="fill:#4c4c4c"/><path d="M531.94,162.38s2.2-11.58-3.07-8.41-7.77-1.69-11.41,2.53,1,1.51,5.46,8.72S530.5,168.85,531.94,162.38Z" style="fill:#4c4c4c"/><path d="M552.57,174.5s3-7.09-2-5-13.22-1.62-10.19,5,5.92,2.9,8.82,7S550,176.57,552.57,174.5Z" style="fill:#4c4c4c"/><path d="M507.46,163.5s1-5-2.26-4.29-11.29-.33-5.58,3.58S507.49,166.41,507.46,163.5Z" style="fill:#4c4c4c"/><path d="M570.18,193s-3-6.94-6.06-5.24-8.83-3.75-7.86.74S572,198.06,570.18,193Z" style="fill:#4c4c4c"/><path d="M302,293.18s2.86.76,1.46-2.51S300,284.3,298,286.83,294.58,293.15,302,293.18Z" style="fill:#4c4c4c"/><path d="M317.64,216.11s2.86.75,1.46-2.52-3.38-6.37-5.41-3.83S310.27,216.08,317.64,216.11Z" style="fill:#4c4c4c"/><path d="M298.23,248.59s6.49-.81,3.17-6.1-5.94-5.52-9.85-2.36-.63.65-1.28,5.55S295.32,249.71,298.23,248.59Z" style="fill:#4c4c4c"/><path d="M308.28,263.92s6,3.07,8.6,2.19,6.84,2,8.77,1.06-.06-8.36-7.26-7.89-3.41-10.08-7.82-5.16S302.31,260,308.28,263.92Z" style="fill:#4c4c4c"/><path d="M289,263.47s6.59-7.06.2-6.47-6.46.58-11.1-2.73-13.57-3-9,2.85,2.42,3.57-.24,7.08.59,4.52,3.24,1.62,5.57-2.61,6.56-1.09,2.26,0,4,1S287.16,265.83,289,263.47Z" style="fill:#4c4c4c"/><path d="M256.15,238.87s4,1.9,3.47-1.64,1.35-10.17-4.1-7.16-4,3.72-6.62,7.92S253,237.3,256.15,238.87Z" style="fill:#4c4c4c"/><path d="M402.12,69.38s6.45-2.34,4.68-4.94,1.3-3.88-1-5.92-6.46-1.72-8.17,2.3-.54,3.19-2.31,8.36S399.31,69.56,402.12,69.38Z" style="fill:#4c4c4c"/><path d="M379.16,55s-6.33-4.39-5.28.9-4.28,12.62,2.81,11,4-5.21,8.67-7.21S380.66,57.94,379.16,55Z" style="fill:#4c4c4c"/><path d="M425.52,78.76s1-5-2.27-4.3S412,74.13,417.68,78,425.54,81.66,425.52,78.76Z" style="fill:#4c4c4c"/><path d="M399.47,33.48s-7.41,1.56-6.36,4.88-5.46,7.88-.86,7.84S404.82,32.76,399.47,33.48Z" style="fill:#4c4c4c"/><path d="M267.78,190.79s-2.86-10-7-7.65-5.75-2.39-9.1.9-3.31,9.62,2.61,12.66,4.79,1.15,12.45,4.41S267.76,195.07,267.78,190.79Z" style="fill:#4c4c4c"/><path d="M241,199.13s-5.11-7.12-7.46-5.33-4.7,1.42-1,5.33,2.54,3.22,8.44,6S243.34,202,241,199.13Z" style="fill:#4c4c4c"/><path d="M292.26,217.78s2.2-11.58-3.06-8.41-7.78-1.69-11.42,2.53,1.05,1.51,5.46,8.72S290.82,224.25,292.26,217.78Z" style="fill:#4c4c4c"/><path d="M312.89,229.9s3-7.09-2-5-13.22-1.62-10.19,5,5.92,2.9,8.82,7S310.3,232,312.89,229.9Z" style="fill:#4c4c4c"/><path d="M267.78,218.91s1-5-2.26-4.3-11.29-.33-5.58,3.58S267.81,221.81,267.78,218.91Z" style="fill:#4c4c4c"/><path d="M300,194.59s1-5-2.26-4.29-11.29-.33-5.58,3.58S300,197.5,300,194.59Z" style="fill:#4c4c4c"/><path d="M330.5,248.37s-3-6.94-6.06-5.24-8.83-3.75-7.86.75S332.29,253.46,330.5,248.37Z" style="fill:#4c4c4c"/><path d="M279.19,53.67s-8.64-1-8.12,2.92-3.68,3.65-2.23,7.28,6.33,5.62,10.56,2.05,2.42-3.31,7.38-8.15S282.47,55.06,279.19,53.67Z" style="fill:#4c4c4c"/><path d="M277,76.94s-7.1,1.64-6.48,4-.41,4.06,3.78,2.45,3.28-.91,7.29-4.56S279.94,76,277,76.94Z" style="fill:#4c4c4c"/><path d="M307.77,43.53s-8.18-5.4-7.44-.34-3.79,5.42-1.72,9.57,1.5-.32,8.45-1.39S312.28,46.71,307.77,43.53Z" style="fill:#4c4c4c"/><path d="M329.83,27.22s-4.48-4.58-4.46-.1-5.49,9.64.56,9.43,4.12-3.62,8.23-4.52S330.58,29.87,329.83,27.22Z" style="fill:#4c4c4c"/><path d="M300.78,62.69s-3.52-2.34-4,.36-3.88,8.56,1,5.43S303,63.6,300.78,62.69Z" style="fill:#4c4c4c"/><path d="M315.67,25.15s-6.3.1-6,3S304,33.7,307.75,34.4,320.16,25.41,315.67,25.15Z" style="fill:#4c4c4c"/></g></g></svg>