<svg xmlns="http://www.w3.org/2000/svg" viewBox="0 0 292.19 233.92"><title>veiltail</title><g id="Layer_2" data-name="Layer 2"><g id="Ñëîé_2" data-name="Ñëîé 2"><path d="M144.09,102.84c.15-.71.25-1.38.33-2A8.36,8.36,0,0,0,144.09,102.84Z" style="fill:#133b81"/><path d="M157.51,229.82a18.43,18.43,0,0,1-1.95-.57c-2.58-.86-4,1.15-6.31,2.87.37-.38,10-10.73-3.53-38.86-13.79-28.67-22.29-55-14.27-68.57,0,0-2.62,18.56,5.5,33.86C144.6,173,165.68,215.59,157.51,229.82Z" style="fill:#0f356d"/><path d="M170.72,227.49a5.39,5.39,0,0,1-1.94-.07,9.52,9.52,0,0,0-3.37-.32c2.55-25.3-19.65-56.95-6-39.45C170.25,201.67,171,220,170.72,227.49Z" style="fill:#536dad"/><path d="M184.62,218.18a6,6,0,0,1-.61.15c-3.38.73-4.93,2.67-5.34,4.47-2.33-14.82-10.32-30.8-24.11-51.24-15.73-23.3-9.87-43.59-9.71-44.15-.06.66-2.42,23,14.51,44.15C174.68,190.71,182,205.52,184.62,218.18Z" style="fill:#536dad"/><path d="M194.36,207.41a5.23,5.23,0,0,0-1,.75c-2.84-7.78-10-26.09-17.89-34.95-10.13-11.42-17.46-27.36-17.89-35.45,0,0,11.41,22.73,18.53,27.69,6,4.19,15.42,13.77,21.57,30.32h0a12.71,12.71,0,0,0,.13,2.16C198.1,199.94,196.37,206.26,194.36,207.41Z" style="fill:#0f356d"/><path d="M207.65,182c-.2-.14-.41-.29-.64-.47-3.45-2.58-6.9-3.73-6.33-.86.47,2.33.75,6.18-.24,8.47-.22-.45-14.06-29-23.68-38.93C167.35,140.53,187.35,147.7,207.65,182Z" style="fill:#0f356d"/><path d="M220.91,182c-1.19-1.26-3.39-.45-5.88.14-21.08-39-63.09-58.86-40.78-48.56C194.86,143.09,217.41,176.63,220.91,182Z" style="fill:#536dad"/><path d="M237.55,179.48a4.3,4.3,0,0,0-3.24,2.35S197.45,115.45,156.5,107C156.5,107,195.32,101.16,237.55,179.48Z" style="fill:#0f356d"/><path d="M255.39,179.75a13,13,0,0,1-5.72,2c-4-8.56-15.18-30.49-26.85-39C208.38,132.28,232.68,135.46,255.39,179.75Z" style="fill:#536dad"/><path d="M271.88,165.61a19,19,0,0,1-5.1,1.85c-3.9,1-5.15,2-6.18,4.1-29.18-53.95-81.18-60.14-53.88-55.9S271.88,165.61,271.88,165.61Z" style="fill:#0f356d"/><path d="M279.14,152.52h0c-1.22.4-2.3,1.82-3.15,3.51-13.43-20.26-38.94-30.88-28.17-28.22C257.31,130.15,273.51,146.56,279.14,152.52Z" style="fill:#536dad"/><path d="M291.5,150.22c-.8-.34-2.52-.18-4.46.19C275.67,137.19,238,98.9,184.3,99.5c0,0,36.08-10.89,96.92,33.43.28,1.71,2.07,3.82,5.11,7.81C290.92,146.77,293.51,151.08,291.5,150.22Z" style="fill:#536dad"/><path d="M247.82,127.81c9.49,2.34,25.69,18.75,31.32,24.71a68.27,68.27,0,0,1,7.9-2.11C275.67,137.19,238,98.9,184.3,99.5c0,0,36.08-10.89,96.92,33.43a3.12,3.12,0,0,1,.8-2.54c2.09-2.7-21.36-17.76-23.2-18.93-9.72-6.14-20-11.58-31-14.89-18.43-5.53-39.52-5.23-58.62-4.85-9.55.19-19.89.44-29.3,3.08l.74,1s3.88,3,0,6.18-3.45,2.73-4.74,6.32c-.63,1.73-2.45,3.27-4.43,4.31s-4.44,1.7-5.63,1.37a9.21,9.21,0,0,1-3.16-1.37h0c-.21.38-7.26,13-3.3,34.77,4,22.12,19.83,50.29,23,62.65s4.59,14.37,0,20.11,4.59,3.74,6.89,2h0c.37-.38,10-10.73-3.53-38.86-13.79-28.67-22.29-55-14.27-68.57,0,0-2.62,18.56,5.5,33.86,7.65,14.42,28.73,57,20.56,71.27a3.91,3.91,0,0,0,3.8-1.14,7.19,7.19,0,0,1,4.1-1.58c2.55-25.3-19.65-56.95-6-39.45,10.89,14,11.6,32.3,11.36,39.84,3.09-.31,7.84-2.1,7.84-3.7a4.23,4.23,0,0,1,.11-1c-2.33-14.82-10.32-30.8-24.11-51.24-15.73-23.3-9.87-43.59-9.71-44.15-.06.66-2.42,23,14.51,44.15,15.32,19.15,22.63,34,25.26,46.62,3.79-1.11,7.14-4.79,6.87-5.88s.49-2.85,1.87-4.14c-2.84-7.78-10-26.09-17.89-34.95-10.13-11.42-17.46-27.36-17.89-35.45,0,0,11.41,22.73,18.53,27.69,6,4.19,15.42,13.77,21.57,30.32,0-1.91.44-4.1,1.85-5.32a3.49,3.49,0,0,0,.91-1.3c-.22-.45-14.06-29-23.68-38.93-9.41-9.69,10.59-2.52,30.89,31.79,2.78,2,2.75.94,6,.4.47-.08.94-.18,1.41-.29-21.08-39-63.09-58.86-40.78-48.56,20.61,9.53,43.16,43.07,46.66,48.42h0a2.44,2.44,0,0,1,.45.68l0,0c1.15,2.58,3.44.86,5.74.57s6.61.29,7.19-1.44c0,0-36.86-66.38-77.81-74.79,0,0,38.82-5.88,81.05,72.44a8.88,8.88,0,0,1,6.24,1.2,10,10,0,0,0,5.88,1.08c-4-8.56-15.18-30.49-26.85-39-14.44-10.49,9.86-7.31,32.57,37a9.2,9.2,0,0,0,3.63-4.24c.65-1.66,1.08-2.93,1.58-3.95-29.18-53.95-81.18-60.14-53.88-55.9s65.16,50,65.16,50a4.61,4.61,0,0,0,2.38-3.9A18.32,18.32,0,0,1,276,156C262.56,135.77,237.05,125.15,247.82,127.81Zm-74.94-24.57c-4.53.08-10.35-.73-15.3,1.12s-5.82,5.91,0,6.56,5.38,4.74,6.94,8.65-8.45,8.38-14.7,5.12-9.27-3.64-15.09-2.35-15.53.74-2.16-5.6c8-3.81,10.62-9.49,11.52-13.89h0a8.36,8.36,0,0,1,.33-2,7.64,7.64,0,0,1,4-4.67c6.64-3.56,19.15-1.72,24.47-1.41C180.21,95.19,177.41,103.16,172.88,103.24Z" style="fill:#133c77"/><path d="M47.51,104.1c-4-9.2-10.87-17.09-13.33-19.74A45.47,45.47,0,0,1,28,87.57c-14.08,6-26.72,18.82-27.73,22.7a6,6,0,0,0,1.58,6L2,117.6c.14,1.3,2.58,4.31,2.58,4.31q1.83,1.75,3.49,3.24c1.25-.73,1.79-1.73,1.52-2.8a3.76,3.76,0,0,0-1.13-1.73c-2.87-2.73-2.58-5.32,0-6.68s4-.51,9,3.09,9.78,0,11.93-1.44,2.73-4.45,6.23-6.61,2.54-7,3.54-8.33,5.61,1.72,7,13.29-4.89,15.16-3.74,16.38,5.74,6.11,7.9-10.7C51,114.47,49.69,109.09,47.51,104.1ZM20.2,115.66a5.61,5.61,0,1,1,5.61-5.6A5.6,5.6,0,0,1,20.2,115.66Z" style="fill:#0f356d"/><path d="M124.47,78.25c-.59-.24-23.78-9.31-39.1-5.48C69.85,76.65,75,88.07,62.63,96.26a77.48,77.48,0,0,1-11.7,6.59C45.75,92,35.63,83.41,35.63,83.41,42.39,78.75,44.3,74.14,55.27,70c2.74-1,5.19-2,7.49-2.84,1.05-.39,2.06-.76,3.06-1.11h0c2-.7,3.91-1.31,5.85-1.81,5.94-1.53,12-2,21.24-.84,9.61,1.22,18.76,5,27.65,11.67.87.66,1.74,1.34,2.61,2.05C123.6,77.51,124,77.87,124.47,78.25Z" style="fill:#0f4491"/><path d="M140.62,95.76l-.74-1a111.41,111.41,0,0,0-14.75-16l-.64-.56h0c-.59-.24-23.78-9.31-39.1-5.48C69.85,76.65,75,88.07,62.63,96.26a77.48,77.48,0,0,1-11.7,6.59,27.79,27.79,0,0,1,3,11.09c.43,15.3-4.53,16.38-4.53,16.38,3.88.43,2.81,2.37,2.81,2.37a83.78,83.78,0,0,0,4.52,15c6.09,1.36,11,2.21,11,2.21.88,0,1.74,0,2.6-.05,39.45-10.19,29.08-43.27,29.3-45.43s2.8-4.74,14.87-5c6.26-.12,10.59,3.41,13.31,6.82a25.28,25.28,0,0,1,3.67,6.25c2-1,3.8-2.58,4.43-4.31,1.29-3.59.86-3.16,4.74-6.32S140.62,95.76,140.62,95.76Zm-41.1,1c-8,1.86-6.32,10.9-6.32,10.9.72,3.85,2.73,15.68-6.18,25.3s-22.7,6.91-28.3-4.3,1.86-22.56,10.14-27.31,3.94-8.62,12.7-21,35.78-.29,40.53,8S107.57,94.9,99.52,96.77Z" style="fill:#133b81"/><path d="M171.94,69.75c-2.87-2.3-.86-5.74.87-7s2.58-4-1.44-6.53-3.16-2.59-3.16-6-3.74-5.17-4.89-5.75-3.73-1.72-3.73-4.31-6.61-4.6-3.74-6.53-4.31-3.24-6.61-3.53,0-3.16.58-5.17,1.72-3.45,0-4.31-4.31-4-2.3-5.17-1.15-3.74-3.45-3.45-6-1.15-2.59-2,3.45-2.58,0-3.16.29-2.87-3.44-6S120.5,5.09,120.5,5.09C70.18,27.76,63.61,59.23,62.76,67.2c1.05-.39,2.06-.76,3.06-1.11h0c.1-.37,11.93-48.07,62.51-55.81h0c-48.16,16.6-53.51,50-53.51,50C97.4,9.83,137,19.53,137,19.53c-49.07,3.67-53.8,39.73-53.8,39.73,20.26-38.65,60.5-29.74,60.5-29.74-42,.85-51.88,28.87-52,29.31,24.72-31.32,53.17-20.65,53.17-20.65-35.35-1.55-45,21.8-45,21.8,20-20.4,38.66-14.8,38.66-14.8-22-1.29-31.89,17-31.89,17,16.55-14.37,33.47-7.9,33.47-7.9-18.83-1.57-24.72,9.34-24.72,9.34,13.94-7,27,.15,27,.15C124.53,60.7,119,67.6,119,67.6c17.48-3.74,23.33,3.3,23.33,3.3-17.24-5.46-21.13,1.59-21.13,1.59,12.65-3.31,18.54,4.45,18.54,4.45-9.09-5.89-19.2-1.84-19.2-1.84.87.66,1.74,1.34,2.61,2.05.43.36.87.72,1.3,1.1h0l.64.56A6.67,6.67,0,0,1,128,79c2.37.58,4.27,2.06,6.38,3.2a36.88,36.88,0,0,0,7.58,3.12c1.85.52,25.44,5,25.44,2.59,0-1.73,4.88-1.73,2-2.59s-3.16-3.16-2-3.16,2.87,0,3.16-2,.86-4.6,2-6S174.82,72.05,171.94,69.75Zm-9.1,10.64C158,89.58,142.92,83,145.59,75.1s1.36-16-1.74-24.32c-1.25-3.36-.76-9.35,3.07-11a5.13,5.13,0,0,1,1.15-.33c3.93-.68,7.56,3.49,9.51,6.13C163.33,53.38,167.63,71.19,162.84,80.39Z" style="fill:#536dad"/><path d="M119,67.6c17.48-3.74,23.33,3.3,23.33,3.3-17.24-5.46-21.13,1.59-21.13,1.59,12.65-3.31,18.54,4.45,18.54,4.45-9.09-5.89-19.2-1.84-19.2-1.84-8.89-6.69-18-10.45-27.65-11.67-9.19-1.17-15.3-.69-21.24.84-1.94.5-3.85,1.11-5.85,1.81.1-.37,11.93-48.07,62.51-55.81h0c-48.16,16.6-53.51,50-53.51,50C97.4,9.83,137,19.53,137,19.53c-49.07,3.67-53.8,39.73-53.8,39.73,20.26-38.65,60.5-29.74,60.5-29.74-42,.85-51.88,28.87-52,29.31,24.72-31.32,53.17-20.65,53.17-20.65-35.35-1.55-45,21.8-45,21.8,20-20.4,38.66-14.8,38.66-14.8-22-1.29-31.89,17-31.89,17,16.55-14.37,33.47-7.9,33.47-7.9-18.83-1.57-24.72,9.34-24.72,9.34,13.94-7,27,.15,27,.15C124.53,60.7,119,67.6,119,67.6Z" style="fill:#0f356d"/><path d="M131.45,112.57c-2.13,1.13-4.44,1.7-5.63,1.37a9.21,9.21,0,0,1-3.16-1.37h0a21.61,21.61,0,0,0-5.81,8,47.31,47.31,0,0,1-10.26,14.16c1.94-4.68,5.38-14.45,3.15-20.2-3-7.76-2.41-13.36,18-8.26A25.28,25.28,0,0,1,131.45,112.57Z" style="fill:#0d325e"/><path d="M47,145.27a51.57,51.57,0,0,1-11-4.17c-7.4-4.41-13.51-3-28-15.95,1.25-.73,1.79-1.73,1.52-2.8a17.74,17.74,0,0,0,20.57-2.59s3-3.14,2.58,2.38c-.35,4.56,2.95,13.41,13.52,20.63A19.15,19.15,0,0,0,47,145.27Z" style="fill:#133b81"/><path d="M109.73,114.58c2.23,5.75-1.21,15.52-3.15,20.2a52.27,52.27,0,0,1-22.65,13h0L83,148l-.93.23-.68.16-.6.14-.92.19L78.8,149l-1,.17-.84.12c-.56.09-1.14.16-1.71.23-1.61.19-3.26.33-5,.39,39.45-10.19,29.08-43.27,29.3-45.43s2.8-4.74,14.87-5c6.26-.12,10.59,3.41,13.31,6.82C107.32,101.22,106.71,106.82,109.73,114.58Z" style="fill:#0f356d"/><path d="M67,187.35a4.34,4.34,0,0,1-.09.52c-.21.85-.84,1.33-.88,2.89-1.51-3-3.89-5.87-7.77-11.37-5.9-8.33-3.45-18.39-4.36-25.29-.63-4.79-3.74-5.35-5.58-5.25-.39-1.09-.86-2.26-1.37-3.58a19.15,19.15,0,0,1-.76-2.5c-1.35-5.87-.23-12.83,3.15-12.45,3.88.43,2.81,2.37,2.81,2.37a83.78,83.78,0,0,0,4.52,15c.53,1.28,1.07,2.45,1.6,3.49a20.87,20.87,0,0,1-4.4-4.83c-2-3.34,2.45,5.29,5,8.08s-1,1-2.5-.43.88,2.48,3.15,4.63,1.83,3.24-1.19,1.51-3.42-1.84-1.55.85,5.21,6.16,2.63,5.29-5.12-3.77-3-.75,6.16,5.82,3.9,5.71-5.11-2.59-3.9-.54,2.68,3.67,4.58,4.05-.06,2.5-2.62,1.13.46,2.25,3.38,3.44,2,2.8-.1,2.27C59.79,181.16,63.86,185.57,67,187.35Z" style="fill:#536dad"/><path d="M64.89,196.71C47.65,184.42,47.22,163.3,49,159c1.39-3.4.83-6.12-.64-10.14,1.84-.1,4.95.46,5.58,5.25.91,6.9-1.54,17,4.36,25.29,3.88,5.5,6.26,8.37,7.77,11.37h0a12.39,12.39,0,0,0,.56,3.56C67.91,199.08,64.89,196.71,64.89,196.71Z" style="fill:#607dba"/><path d="M67,187.35c-3.17-1.78-7.24-6.19-5.43-5.73,2.1.53,3-1.06.1-2.27s-5.94-4.82-3.38-3.44,4.53-.76,2.62-1.13-3.37-2-4.58-4.05,1.64.43,3.9.54-1.83-2.69-3.9-5.71.45-.11,3,.75-.76-2.58-2.63-5.29-1.47-2.57,1.55-.85,3.45.64,1.19-1.51-4.64-6-3.15-4.63,5,3.22,2.5.43-7-11.42-5-8.08a20.87,20.87,0,0,0,4.4,4.83h0a41.21,41.21,0,0,0,2.07,3.67c2.58,4.1.43,9.48,2.26,12.29s2.05,8.4,1.4,9.91,1.08,4.53,1.94,6A7.68,7.68,0,0,1,67,187.35Z" style="fill:#0f356d"/><path d="M131.71,221.92c-55.18-21.55-56.44-72.43-56.44-72.43.57-.07,1.15-.14,1.71-.23,0,0,9.18,51.89,51.27,66.81-2-.85-34-15.13-45-57.72.26.63,17.19,41,45.77,50.64-.48-.34-31.14-21.59-37-45,0,0,13.67,26.58,33.72,31.9,0,0-20.73-15.36-26.44-30,0,0,13.9,16.54,25.23,19.38,0,0-14.3-12.06-16.9-17.55.27.13,8.64,4.25,12.93,4.67,0,0-10-4.94-10.71-9.27a39.56,39.56,0,0,0,11.36,3.64s.65,3.66,2.59,4.09.86,4.31.64,5.82.65,4.1,2.37,4.31,1.51,4.53,1.08,5.13.65,3.28,1.94,4.14a5.48,5.48,0,0,1,1.73,5.82c-.87,2.15-.22,8.19,1.5,9.05s-.21,2.8.65,3.45,3.45,2.59,2.37,4.1-1.08,2.15.65,7.11S131.71,221.92,131.71,221.92Z" style="fill:#536dad"/><path d="M83.22,158.35c.26.63,17.19,41,45.77,50.64-.48-.34-31.14-21.59-37-45,0,0,13.67,26.58,33.72,31.9,0,0-20.73-15.36-26.44-30,0,0,13.9,16.54,25.23,19.38,0,0-14.3-12.06-16.9-17.55.27.13,8.64,4.25,12.93,4.67,0,0-10-4.94-10.71-9.27a55.9,55.9,0,0,1-10.19-6.28c.42.22,14.1,7.26,20.47,7,0,0-3.88-3.74-2.8-5s-.65-5.6-.65-5.6-7.11,1.72-12.71.86c0,0,12.71-2.37,12.93-4.1,0,0-23.57,5-32.91-2.14h0L83,148l-.93.23-.68.16-.6.14-.92.19L78.8,149l-1,.17-.84.12s9.18,51.89,51.27,66.81C126.27,215.22,94.29,200.94,83.22,158.35ZM87,153.27a28,28,0,0,0,9.59,1.3c1.61,0,2.37,2,2.46,4.63s-6.56,2.05-12.05-1.08S83,151.77,87,153.27Z" style="fill:#0f356d"/><path d="M49.37,130.32c-3.38-.38-4.5,6.58-3.15,12.45-10.57-7.22-13.87-16.07-13.52-20.63.44-5.52-2.58-2.38-2.58-2.38a17.74,17.74,0,0,1-20.57,2.59,3.76,3.76,0,0,0-1.13-1.73c-2.87-2.73-2.58-5.32,0-6.68s4-.51,9,3.09,9.78,0,11.93-1.44,2.73-4.45,6.23-6.61,2.54-7,3.54-8.33,5.61,1.72,7,13.29-4.89,15.16-3.74,16.38,5.74,6.11,7.9-10.7c.66-5.15-.69-10.53-2.87-15.52-4-9.2-10.87-17.09-13.33-19.74.51-.32,1-.63,1.45-1,0,0,10.12,8.63,15.3,19.44a27.79,27.79,0,0,1,3,11.09C54.33,129.24,49.37,130.32,49.37,130.32Z" style="fill:#0d325e"/><path d="M122.09,88.44c-4.75-8.34-31.76-20.41-40.53-8s-4.42,16.23-12.7,21-15.75,16.1-10.14,27.31S78.11,142.6,87,133s6.9-21.45,6.18-25.3c0,0-1.72-9,6.32-10.9S126.83,96.78,122.09,88.44Zm-34.8,31.7A23.83,23.83,0,0,1,85.5,125c-2.21,4.43-6.19,8.78-11.55,8.51-8.48-.43-16.39-7.74-10.06-19.61s21.12-13.29,23-7.08A25.49,25.49,0,0,1,87.29,120.14Z" style="fill:#0f4491"/><path d="M87.29,120.14A23.83,23.83,0,0,1,85.5,125c-2.21,4.43-6.19,8.78-11.55,8.51-8.48-.43-16.39-7.74-10.06-19.61s21.12-13.29,23-7.08A25.49,25.49,0,0,1,87.29,120.14Z" style="fill:#095096"/><path d="M20.2,104.45a5.61,5.61,0,1,0,5.61,5.61A5.61,5.61,0,0,0,20.2,104.45Zm0,10.31a4.71,4.71,0,1,1,4.71-4.7A4.7,4.7,0,0,1,20.2,114.76Z" style="fill:#29343f"/><path d="M20.2,105.35a4.71,4.71,0,1,0,4.71,4.71A4.71,4.71,0,0,0,20.2,105.35Zm-.68,7.73a3,3,0,1,1,3-3A3,3,0,0,1,19.52,113.08Z" style="fill:#455e51"/><path d="M22.54,110.06a3,3,0,1,1-3-3A3,3,0,0,1,22.54,110.06Z" style="fill:#212121"/><path d="M162.84,80.39C158,89.58,142.92,83,145.59,75.1s1.36-16-1.74-24.32c-1.25-3.36-.76-9.35,3.07-11a5.13,5.13,0,0,1,1.15-.33c3.93-.68,7.56,3.49,9.51,6.13C163.33,53.38,167.63,71.19,162.84,80.39Z" style="fill:#607dba"/><path d="M99,159.2c.09,2.59-6.56,2.05-12.05-1.08s-4-6.35,0-4.85a28,28,0,0,0,9.59,1.3C98.19,154.52,99,156.61,99,159.2Z" style="fill:#0f356d"/><path d="M172.88,103.24c-4.53.08-10.35-.73-15.3,1.12s-5.82,5.91,0,6.56,5.38,4.74,6.94,8.65-8.45,8.38-14.7,5.12-9.27-3.64-15.09-2.35-15.53.74-2.16-5.6c8-3.81,10.62-9.49,11.52-13.89h0c.15-.71.25-1.38.33-2a7.64,7.64,0,0,1,4-4.67c6.64-3.56,19.15-1.72,24.47-1.41C180.21,95.19,177.41,103.16,172.88,103.24Z" style="fill:#0f356d"/><path d="M20.47,108.87a1.83,1.83,0,1,1,1.83,1.83A1.83,1.83,0,0,1,20.47,108.87Z" style="fill:#eae3dd"/></g></g></svg>