<?xml version="1.0" encoding="utf-8"?>
<!-- Generator: Adobe Illustrator 23.0.1, SVG Export Plug-In . SVG Version: 6.00 Build 0)  -->
<svg version="1.1" id="Layer_1" xmlns="http://www.w3.org/2000/svg" xmlns:xlink="http://www.w3.org/1999/xlink" x="0px" y="0px"
	 viewBox="0 0 268.9 193" style="enable-background:new 0 0 268.9 193;" xml:space="preserve">
<title>Asset 6</title>
<g>
	<g id="Ñëîé_2">
		<path style="fill:#EAE3DD;" d="M60.1,28.8c0.6-0.5,1-1.1,1.3-1.8c0.5-1.1,0.9-1.5,3-1.6s5.2-0.6,5.3,1.3c0,0.4,0.1,0.8,0.4,1.2
			c3.3-1.3,7.9-1.9,13.1-1.8c0.3-1.2,0.7-2.3,1.2-3.5c-3.6-0.1-7.5,0-11.8,0.3c-8.4,0.5-16.8,1.5-25.1,3c1.2,1.3,1.9,3.2,1.7,5
			c-0.3,5.4,3.3,7.7,1.5,8.6s-3.4-0.4-4.6,1.4c-0.8,1.2-0.6,2.7,1,4.8l0,0c1.2,1.5,2.5,2.8,4,4c5.4,4.7-0.3,5.1,0,9s1,5.8-3,7.2
			c-3.4,1.2-8.8,4.8-11.2,8.7c2.1,1,4.2,2.1,6.5,3l1.2,0.4c0.4,0.2,0.7,0.3,1.1,0.4c2.6,1,5.3,1.8,8,2.4c2.9,0.6,5.9,1,8.8,1H66h1.6
			l-0.3-2.7c-0.7-0.3-1.4-0.7-2-1.1c-3.3-2.2-6.3-4.8-8.9-7.8c0,0,4.7,0.2,6.2-7.2s-4.1-8-4.1-8c3.4-7,9.1-9,9.9-9.6
			c0.5-0.4,1.2,0.1,2.1,0.3c0.6,0.2,1.2,0.2,1.8-0.1c1.7-0.8,2.4,1.6,3.2,0.9s1.6,2.5,3.9,1.9s1.1,2.8,3.1,2.3
			c-1.4-1.5-1.3-4.5-1-7.3c-3.3-0.5-6.5-1.2-9.7-2.3c-1.3-0.4-2.6-1-3.9-1.7c-1,0.9-2.5,1.2-4.3,1.9c-2.8,1.1-1.1-1.4-0.8-3.8
			S60.2,34,59,32c-0.6-1.1-0.2-2.5,0.9-3.1C60,28.9,60,28.8,60.1,28.8z M57.4,77.5L57.4,77.5h-0.8h-1.3h-0.7h-1
			c-2.1,0-4.2-0.1-6.2,0h-1.1h0h-1l0,0C45.3,74,48.3,71,57.4,77.5z"/>
		<path style="fill:#C40E14;" d="M49.1,30.9c0.2-1.8-0.4-3.7-1.7-5l0,0C35,28.3,28.9,31.2,22.7,34c-9.5,4.2-15,6.2-16.3,6
			s-3.3-1.3-2,2.8s2.5,5,0.2,3.5s-3.6-2.6-4.4-0.7s0.5,6.1,5.3,9.2c3.3,2.1,5.1,5,8.7,7.7l0,0c30.6,8.4,27.7-11.5,26.4-16
			s6.1-0.9,6.4-0.8c-1.7-2.2-1.8-3.7-1-4.8c1.1-1.8,2.8-0.5,4.6-1.4S48.8,36.3,49.1,30.9z M20.8,53.5c-3.9,0-7-3.1-7-7s3.1-7,7-7
			s7,3.1,7,7l0,0C27.8,50.4,24.7,53.5,20.8,53.5z"/>
		<circle style="fill:#2B2B2B;" cx="19.2" cy="46.5" r="3.3"/>
		<path style="fill:#EAE3DD;" d="M20.8,39.5c-3.9,0-7,3.1-7,7s3.1,7,7,7s7-3.1,7-7S24.7,39.5,20.8,39.5z M19.2,49.8
			c-1.8,0-3.3-1.5-3.3-3.3c0-1.8,1.5-3.3,3.3-3.3c1.8,0,3.3,1.5,3.3,3.3l0,0C22.4,48.3,21,49.8,19.2,49.8
			C19.2,49.8,19.2,49.8,19.2,49.8z"/>
		<path style="fill:#B20B18;" d="M51.1,58.8c0.3,3.9,1,5.7-3.1,7.2c-3.4,1.2-8.8,4.8-11.2,8.7c-6.7-3.4-12.4-7-16.4-8.7
			c-2.2-0.9-4.3-2-6.2-3.5c30.6,8.4,27.7-11.5,26.4-16s6.1-0.9,6.4-0.8l0,0c1.2,1.5,2.5,2.8,4,4C56.4,54.4,50.8,54.9,51.1,58.8z"/>
		<path style="fill:#C40E14;" d="M57.4,77.5L57.4,77.5h-0.8h-1.3h-0.7h-1c-2.1,0-4.2-0.1-6.2,0h-1.1h0h-1l0,0
			C45.3,74,48.3,71,57.4,77.5z"/>
		<path style="fill:#C40E14;" d="M170.3,57.7c0,0.7-0.1,1.4-0.2,2.1c-0.2,1.1-0.4,2.2-0.7,3.3c-0.2,0.5-0.3,1-0.5,1.5
			c-0.5,1.3-1.1,2.5-1.8,3.7c-0.4,0.6-0.8,1.3-1.3,1.8c0,0-10.5-7.5-21.7-2.5s-7.5,8.9-27.5,9.4c-2.4,0.1-4.8,0.1-7,0.2
			c0.1-0.1,0.1-0.2,0.2-0.2c1.6-1.6,5.2-2,5.6-5.5s1.6-5.7,0.8-8.3s1.5-4.9,3.9-8.6c0.3-0.4,0.5-0.8,0.6-1.3
			c2.5,0.7,5.7,1.3,8.1,0.5c2.9-1,2.3-3.7,1.2-5.9c-1.1-2-2.5-3.9-4-5.6c-4-4.7-9.4-7.9-14.9-10.2l0,0c0.5-1.2,1.1-2.4,1.8-3.6
			c7.3,3.1,13.7,7,21.1,11.1c1.6,0.9,3.3,1.7,5,2.4c0,0-5.2,2.3-3.7,4.5s0.9,2.4-0.3,5.8s3,1.3,6.1,1.2s2.3-2.2,2.9-2.8
			s-1.3-4.5,0-6.9c1.6,0.4,3.1,0.8,4.7,1.1c6.1,1.2,12.4,0.9,18.4-0.7c0.7,1.3,1.4,2.6,1.8,4c0.2,0.7,0.5,1.4,0.7,2.2
			c0.4,1.5,0.6,3.1,0.7,4.6C170.3,55.9,170.4,56.8,170.3,57.7z"/>
		<path style="fill:#F4EDE9;" d="M144,50.7c-0.6,0.7,0.2,2.8-2.9,2.8s-7.3,2.2-6.1-1.2s1.7-3.6,0.3-5.8s3.7-4.5,3.7-4.5
			c1.7,0.7,3.4,1.3,5.1,1.8C142.6,46.2,144.6,50,144,50.7z"/>
		<path style="fill:#E21A29;" d="M128.7,53.8c-2.4,0.8-5.7,0.2-8.1-0.5c1-3.3-2-6.4-5.7-9.3c-4.1-3.3-5-2.3-5.2-6.2
			c0-2,0.5-4,1.3-5.8l0,0c5.6,2.3,11,5.6,14.9,10.2c1.5,1.7,2.9,3.6,4,5.6C131,50,131.6,52.8,128.7,53.8z"/>
		<path style="fill:#F4EDE9;" d="M120.6,53.3l-0.4-0.1c-5.2-1.5-10.2-3.3-15.3-5.1c-2.3-0.8-4.7-1.5-7.1-2c1.3-2.2,3.1-4.1,5.2-5.6
			c2.4-1.5,2.7-2.4,3.4-7.7c0.1-0.8,0.2-1.6,0.2-2.4c1.5,0.5,2.9,1,4.3,1.6c-0.8,1.8-1.3,3.8-1.3,5.8c0.2,3.9,1.1,2.9,5.2,6.2
			C118.6,46.9,121.7,50,120.6,53.3z"/>
		<path style="fill:#E21A29;" d="M106.7,30.4c0,0.8-0.1,1.6-0.2,2.4c-0.7,5.3-1.1,6.3-3.4,7.7c-2.1,1.5-3.9,3.4-5.2,5.6
			c-5.7-1.3-11.2-2-16.2-2.8c0.3-2.6,0.9-4.9,0.6-5.7c-0.5-1.5,1.8-6.2,0.8-8.9c-0.2-0.9-0.2-1.8,0-2.7
			C91.2,26.3,99.1,27.8,106.7,30.4z"/>
		<path style="fill:#F4EDE9;" d="M82.3,37.7c0.2,0.8-0.3,3.1-0.6,5.7c-3.3-0.5-6.5-1.2-9.7-2.2c-1.3-0.4-2.6-1-3.9-1.7
			c0.7-0.6,1.1-1.4,1.2-2.3c0.7-3,2.7-2.5,2.6-5.2c-0.1-2-1.3-3-1.9-4.1c3.3-1.3,7.9-1.9,13.1-1.8c-0.2,0.9-0.2,1.8,0,2.7
			C84.1,31.5,81.8,36.2,82.3,37.7z"/>
		<path style="fill:#C40E14;" d="M68.1,39.5c-1,0.9-2.5,1.2-4.3,1.9c-2.8,1.1-1.1-1.4-0.8-3.8S60.2,34,59,32
			c-0.6-1.1-0.2-2.5,0.9-3.1c0,0,0.1,0,0.1-0.1c0.6-0.5,1.1-1.1,1.4-1.8c0.5-1.1,0.9-1.5,3-1.6s5.2-0.6,5.3,1.3
			c0,0.4,0.1,0.8,0.4,1.2c-0.4,0.2-0.9,0.4-1.3,0.6C62.2,31.9,62.6,36.4,68.1,39.5z"/>
		<path style="fill:#E21A29;" d="M72,32c0.1,2.7-2,2.2-2.6,5.2c-0.1,0.9-0.6,1.7-1.2,2.3c-5.5-3.1-6-7.6,0.7-11.1
			c0.4-0.2,0.8-0.4,1.3-0.6C70.7,29,71.9,30,72,32z"/>
		<path style="fill:#C40E14;" d="M106.7,30.4c-7.6-2.6-15.5-4.1-23.5-4.3c0.3-1.2,0.7-2.3,1.2-3.5c5.7,0.1,11.3,0.8,16.9,2l0,0
			c0.5,1,1.2,1.9,2.2,2.5C105.3,28.4,106.7,27.9,106.7,30.4z"/>
		<path style="fill:#EAE3DD;" d="M112.8,28.5c-0.7,1.1-1.3,2.3-1.8,3.5c-1.4-0.6-2.8-1.1-4.3-1.6c-0.1-2.5-1.4-2-3.4-3.2
			c-0.9-0.6-1.7-1.5-2.2-2.5c3.3,0.8,6.4,1.8,9.6,3C111.5,27.9,112.1,28.2,112.8,28.5z"/>
		<path style="fill:#DBD3CE;" d="M65.5,63.8c2.5,1.7,20.4,1.8,17.1,3.1s-20.3-2.3-17.5-0.6c2.8,1.6,14.9,3.9,14.5,5.9
			s-5.3,0.2-10.1-1.5s-8.2-3.4-4.3-0.2s11.3,5.5,9.6,6.6s-6.1-0.5-9.6-3.2S58.4,68,61,71.5s6.8,6.4,6.8,7.8l-0.4-0.2
			c-0.7-0.3-1.4-0.7-2-1.1c-3.3-2.2-6.3-4.8-8.9-7.8c0,0,4.7,0.2,6.2-7.2s-4.1-8-4.1-8c3.4-7,9.1-9,9.9-9.6c0.5-0.4,1.2,0.1,2.1,0.3
			c0,0-8.1,6.2-8.8,7.8s3.8-2.9,7-4.9s5.3-2.5,1.1,1.2s-8.7,6.6-2,3.3s11.2-4,6.3-1.2s-16.6,5.7-7.8,4.5s22.5-2.9,12.1-1.3
			s-16.6,3.4-9.5,3.2s18.5,1.5,10.4,1.8s-19.2,1.3-8.1,1.9s15.7,2.3,10.3,2.5S63,62.1,65.5,63.8z"/>
		<path style="fill:#E21A29;" d="M87.7,66.8c-0.2,0.3,0.8,2.1,0,2.9s0,2.1-1.6,4.1s-0.5,2.6-0.9,3.3s-0.6,1.5-1.7,1.5
			c-0.3,0-0.7,0.2-0.8,0.5c-0.4,0.6-0.7,1.4-1.6,1.7c-1.3,0.3-1,0.9-8.8,0c-1.6-0.2-3.1-0.7-4.5-1.4c0.1-1.4-4.2-4.3-6.8-7.8
			s0.7-0.3,4.2,2.4c3.5,2.7,8,4.2,9.6,3.2s-5.7-3.3-9.6-6.6s-0.5-1.6,4.3,0.2s9.8,3.4,10.1,1.5S68,67.9,65.1,66.2s14.2,2,17.4,0.7
			S68,65.5,65.5,63.8s10.8,0.7,16.2,0.5s0.7-1.9-10.3-2.5s0-1.6,8.1-1.9S76.1,58,69,58.2s-0.9-1.5,9.4-3.2s-3.3,0.1-12.1,1.3
			s2.9-1.7,7.8-4.5s0.3-2-6.3,1.2s-2.2,0.3,2-3.3s2.1-3.1-1.1-1.2s-7.7,6.4-7,4.9s8.8-7.8,8.8-7.8c0.6,0.2,1.2,0.2,1.8-0.1
			c1.7-0.8,2.4,1.6,3.2,0.9s1.6,2.5,3.9,1.9s1.1,2.8,3.1,2.3s4.4,2.3,2.5,4.4s1.4,2,0.8,2.8s3.8,2.9,2.1,4.1S87.9,66.5,87.7,66.8z"
			/>
		<path style="fill:#B20B18;" d="M165.8,70.1c-0.7,0.9-1.5,1.7-2.4,2.4l0,0c-0.7,0.5-1.3,1-2.1,1.4l0,0c-1.1,0.7-2.3,1.2-3.5,1.5
			c-1.9-1.6-4.3-2.5-6.8-2.4c-1.1,0.1-2.2,0.4-3.2,1c-0.8,0.4-1.5,0.9-2.1,1.5c-0.8,0.7-1.6,1.3-2.4,1.9c-1.8,1.2-3.7,2.2-5.7,2.9
			l0,0c-2.2,0.7-4.6,1.2-6.9,1.5c-1.4,0.2-2.9,0.3-4.5,0.3c-1.8,0-3.7,0-5.8,0c-1.2,0-2.4-0.1-3.6-0.2c-2.1-0.1-4.3-0.2-6.7-0.3
			l-3.6-0.1c-2.4,0-4.8-0.1-7.3-0.1c-2.9,0-5.9,0-8.9,0.1c-1.5,0-3,0-4.5,0.1c0.2-0.9,0.4-1.9,0.5-2.8c4.9-0.4,13.2-1,23.3-1.4
			c2.3-0.1,4.6-0.2,7-0.2c20-0.5,16.3-4.4,27.5-9.4S165.8,70.1,165.8,70.1z"/>
		<path style="fill:#C40E14;" d="M86.3,78.7c-0.1,0.9-0.2,1.9-0.5,2.8h-1.9l-3.1,0.1l-4.6,0.1l-6.4,0.1h-2.1L67.4,79l0.4,0.2
			c1.4,0.7,2.9,1.2,4.5,1.4c7.8,0.9,7.5,0.3,8.8,0c0.9-0.2,1.2-1.1,1.6-1.7C83.4,78.9,84.7,78.8,86.3,78.7z"/>
		<path style="fill:#C40E14;" d="M97.3,48.5c0.5,2.2-0.3,6-1.2,6.2s-3.7-0.5-4.1,3.1s0.7,10.4-0.6,11.6s-5.3,7.4-5.2,8.7
			c0,0.2,0,0.4,0,0.6c-1.6,0.1-2.8,0.2-3.6,0.3c0.2-0.3,0.5-0.5,0.8-0.5c1.1,0,1.3-0.8,1.7-1.5s-0.7-1.3,0.9-3.3s0.8-3.3,1.6-4.1
			s-0.2-2.6,0-2.9S86.4,63,88,61.9s-2.8-3.3-2.1-4.1s-2.7-0.7-0.8-2.8s-0.6-4.9-2.5-4.4c-1.4-1.5-1.3-4.5-1-7.3
			c5,0.8,10.5,1.5,16.2,2.8C97.4,46.9,97.2,47.7,97.3,48.5z"/>
		<path style="fill:#EAE3DD;" d="M120,54.6c-2.4,3.8-4.7,6-3.9,8.7s-0.5,4.7-0.8,8.3s-3.9,3.9-5.6,5.5c-0.1,0.1-0.1,0.2-0.2,0.2
			c-10.1,0.4-18.4,1-23.3,1.4c0-0.2,0-0.4,0-0.6c-0.1-1.3,3.9-7.6,5.2-8.7s0.3-8,0.6-11.6s3.1-2.8,4.1-3.1s1.7-4,1.2-6.2
			c-0.1-0.8,0.1-1.7,0.6-2.4c2.4,0.5,4.8,1.2,7.1,2c5.1,1.7,10.1,3.6,15.3,5.1l0.4,0.1C120.5,53.8,120.3,54.2,120,54.6z"/>
		<path style="fill:#C40E14;" d="M247,69.9c-3-3.1-4.5-4.3-4.9-4.3c-1-1.3-2.9-3.5-4.9-5.8c-0.7-1.7-1.7-3.3-2.8-4.8
			c-4-6.4-9.8-11.5-16.5-14.9c-5.7-2.8-6.3-1.4-5.7,1.5c-11.7-4.3-26.4-4.5-43.2,6.5c-0.5-1.4-1.1-2.7-1.8-4c2.2-2,4.7-3.7,7.3-5.2
			c11.3-6.8,25-8.7,37.8-5.1c3.5,1,6.9,2.3,10.2,4c1,0.5,2.1,1.1,3.1,1.7c33.3,19.3,17.3,14.2,7.8,8.6s9.5,6.5,17.6,21.8
			C259,85.2,256.4,79.7,247,69.9z"/>
		<path style="fill:#DBD3CE;" d="M265.9,105.8c-9.5-8.6-18-24.2-18.2-22.8c-2.7-5.3-6-10.2-9.8-14.8l0,0c-1.5-3.6-5.8-6.6-2.6-5.6
			c2.3,0.7,2.8-0.5,1.9-2.8c2,2.3,3.9,4.6,4.9,5.8l0,0c-0.9,0.2,3,6,6.9,11.8C254.8,85.9,277,115.9,265.9,105.8z"/>
		<path style="fill:#DBD3CE;" d="M170.8,118.5c-0.6,0.5-1.5,0.5-2.5-0.5c-1.9-1.9-5.6,0.7-5.8,0.8l0,0c-0.4-0.9-0.8-1.7-1.1-2.5
			c-0.4-1.1-0.7-2.2-0.9-3.4c-0.4-4.4-1-10.9-2.1-16.5c-0.4-2.4-1.1-4.8-1.9-7.1c-2.4-6.3-1.2-8.7,1.3-13.9c1.2-0.3,2.4-0.8,3.5-1.5
			C161.2,74.4,157,90.4,170.8,118.5z"/>
		<path style="fill:#C40E14;" d="M191,150c-1.2-0.9-2.2-1.9-3.2-3c-5.4-6.1-4.3-8.9-8-8.9c-2.6,0-2.5,0.7-2.2,1.2
			c-0.4-0.4-0.7-0.8-1-1.2c-5.3-5.7-11.1-13.1-14-19.1c0.2-0.1,3.9-2.8,5.8-0.8c1,1,1.9,1,2.5,0.5C176.5,129.7,183.2,140.3,191,150z
			"/>
		<path style="fill:#EAE3DD;" d="M264.9,115.5c-0.6,0.3-1.2,0.6-1.8,0.8c-6-8.2-13.1-20.5-23.5-33.8l0,0c-0.1-1.3-0.4-2.6-0.9-3.8
			c-1.7-4.6-0.2-4.4-0.4-8.8c0-0.7-0.2-1.3-0.4-1.9c3.8,4.6,7.1,9.5,9.8,14.8l0,0c0.1,0.8,0.3,1.5,0.6,2.3c3,8.6,8,16.3,14.7,22.6
			C269.8,114.6,266.9,114.2,264.9,115.5z"/>
		<path style="fill:#EAE3DD;" d="M263.1,116.3c-1.6,0.7-3.8,1.5-4.7,3.2c-6.5-8.4-14.6-20.1-23.1-30.9l0,0c-0.4-0.8-0.4-1.4,0.8-1.4
			c2.4,0,3.6-1.9,3.5-4.6C250,95.8,257.1,108.2,263.1,116.3z"/>
		<path style="fill:#DBD3CE;" d="M258.6,135.6c-2.4-2.4-5.2-5.4-8.1-8.7c0-0.2,0-0.3-0.1-0.5c-0.9-4.6,6.5-1.3,3-7.6
			s-15.6-18-12.6-15.4s-5.8-8.9-3.8-10.2c1.3-0.8-0.9-3.1-1.7-4.7c8.4,10.8,16.6,22.5,23.1,30.9c-0.8,1.3-0.8,3.2,0.7,5.8
			C261,128.7,260.2,132.5,258.6,135.6z"/>
		<path style="fill:#EAE3DD;" d="M258.6,135.6c-1.9,3.7-5.2,6.6-6.8,6.9c-2.1,0.5-4.1,1.2-6,2c-1.4-1.8-2.9-3.8-4.7-6.1
			c2.1,0.4,3.2-0.2,2.3-1.8c-2-3.7,2.2-2,1.9-5.2s5.4-0.6,5.1-4.5C253.4,130.2,256.2,133.2,258.6,135.6z"/>
		<path style="fill:#DBD3CE;" d="M239.5,150.4c-0.3,3.8,2.1,7.4-4.2,8.3c-3-6.2-7.7-12.5-12.4-18.7l0,0c-1.2-2.5-0.1-3.2,2.4-2.4
			c3.9,1.3,0-13,5.9-5.9c3.3,4,7.4,6.3,10.1,6.8c1.7,2.2,3.3,4.3,4.7,6.1C242.7,146,239.7,148,239.5,150.4z"/>
		<path style="fill:#EAE3DD;" d="M235.3,158.7c-0.8,0.1-1.5,0.2-2.3,0.2c-2.3,0.1-4.1,0.2-5.8,0.3c-2.1-3.2-4.7-6.8-7.5-10.6
			c5.9,3.8,12.6,3,7.3-3c-1.6-1.7-3-3.6-4.1-5.7C227.5,146.1,232.3,152.5,235.3,158.7z"/>
		<path style="fill:#DBD3CE;" d="M227.2,159.2c-5,0.4-7.4,1.3-9.2,3.3c-0.9,0.9-2,1.5-3.2,1.7c-8.8-8.7-16.9-18.1-24.3-28
			c0.8,0.6,1.5,1.2,2.1,1.9c4.4,4.6,8.5,5.9,7.8,4.8s2.2-2.2,8,3.9s2.4-5.9,8.7,0c0.8,0.7,1.6,1.4,2.5,1.9
			C222.5,152.5,225,156,227.2,159.2z"/>
		<path style="fill:#EAE3DD;" d="M214.9,164.2c-3.3,0.6-6.7,0-9.6-1.7c-3.6-2.2-3-3-6.4-3c-2.8-3.2-5.4-6.4-7.9-9.5
			c2.4,1.7,2.2-1-1.4-7.5c-4-7.1-2.3-8.6,0.9-6.3C197.9,146.1,206,155.5,214.9,164.2z"/>
		<path style="fill:#DBD3CE;" d="M198.9,159.5c-0.6,0-1.3,0-2.1,0.1c-5.5,0.3-12.1-12-18.9-20l0,0l-0.3-0.3l0,0
			c-0.3-0.4-0.4-1.2,2.2-1.2c3.7,0,2.6,2.8,8,8.9c0.9,1.1,2,2.1,3.2,3l0,0C193.5,153.1,196.1,156.2,198.9,159.5z"/>
		<path style="fill:#C40E14;" d="M219.7,148.7c-0.9-0.6-1.7-1.2-2.5-1.9c-6.3-5.9-2.8,6.1-8.7,0s-8.7-5-8-3.9s-3.5-0.2-7.8-4.8
			c-0.6-0.7-1.3-1.3-2.1-1.9c-5-6.7-9.4-13.7-13.4-20.9c0.4,0.1,0.8,0.3,1.2,0.4c5,2,4.1-2,4.3-6.3c0.2-4,3.3-2,3-3.9
			C193.8,115,208.6,133.5,219.7,148.7z"/>
		<path style="fill:#E21A29;" d="M219.7,148.7c-11.1-15.1-25.9-33.7-34.1-43.2c0-0.2-0.1-0.5-0.2-0.7c-1.1-3,2.4-1.5,6.9-2h0.1
			c9.1,10.4,19.7,22.8,25.3,30.4c1.6,2.2,3.3,4.4,5,6.7l0,0c1.1,2.1,2.5,4,4.1,5.7C232.3,151.7,225.7,152.5,219.7,148.7z"/>
		<path style="fill:#C40E14;" d="M241.2,138.5c-2.6-0.5-6.8-2.8-10.1-6.8c-5.9-7.2-1.9,7.2-5.9,5.9c-2.5-0.9-3.6-0.1-2.4,2.4
			c-1.7-2.3-3.4-4.5-5-6.7c-5.6-7.7-16.3-20.1-25.3-30.4c4.4-0.5,4.2-3.1,2.9-6.5s4.8,0,3.3-4.1c-0.7-1.8-0.8-2.6-0.4-2.8
			c7.8,8.5,15.3,17,20.1,21.9C224.8,117.9,234.2,129.6,241.2,138.5z"/>
		<path style="fill:#E21A29;" d="M245.4,131.5c0.2,3.3-3.9,1.5-1.9,5.2c0.9,1.6-0.3,2.2-2.3,1.8c-7-9-16.3-20.7-22.8-27.3
			c-4.8-5-12.3-13.4-20.1-21.9c0.5-0.3,1.9,0.5,4.3,1.5c4.1,1.7,2-2.8,0.4-5s1.3-5.4,1.7-8.8c0.1-0.5,0.2-1,0.3-1.5
			c11.1,10.8,30.8,35.1,45.4,51.5C250.9,130.9,245.2,128.4,245.4,131.5z"/>
		<path style="fill:#C40E14;" d="M250.4,126.5c0,0.2,0,0.3,0.1,0.5c-14.6-16.3-34.3-40.6-45.4-51.4c0.6-2,1.7-2.4,4.9-3.1
			c3.9-0.8,1.3-4.4,0.3-7.9c-0.1-0.3-0.2-0.7-0.2-1c2.9,1.6,5.6,3.6,8,5.8c5.6,5.1,11.5,11.9,17.2,19.2l0,0c0.8,1.5,2.9,3.8,1.7,4.7
			c-2,1.3,6.9,12.8,3.9,10.2s9.1,9.1,12.6,15.4S249.6,121.9,250.4,126.5z"/>
		<path style="fill:#E21A29;" d="M236.1,87.2c-1.2,0-1.2,0.6-0.8,1.4c-5.7-7.3-11.6-14.2-17.2-19.2c-2.4-2.2-5.1-4.1-8-5.8l0,0
			c-0.2-1.9,0.8-3.2,1.9-6c6,2.8,11.3,6.7,15.9,11.5c4.1,4.3,8,8.8,11.7,13.4l0,0C239.7,85.3,238.5,87.2,236.1,87.2z"/>
		<path style="fill:#EAE3DD;" d="M242,65.6L242,65.6l-4.9-5.8C239.2,62.1,241,64.3,242,65.6z"/>
		<path style="fill:#EAE3DD;" d="M213.6,48.8c-11.8-5.3-26.5-6.6-44,1.6c-0.2-0.8-0.4-1.6-0.7-2.2c16.8-10.9,31.5-10.8,43.2-6.5
			C212.8,44,213.3,46.4,213.6,48.8z"/>
		<path style="fill:#C40E14;" d="M237.1,59.8c-4.9-5.7-13.5-13.9-25-18.1c-0.6-3,0-4.3,5.7-1.5c6.8,3.3,12.5,8.5,16.5,14.9
			C235.5,56.5,236.4,58.1,237.1,59.8z"/>
		<path style="fill:#E21A29;" d="M237.8,68.1c-5.7-6.9-13.8-14.7-24.2-19.3c-0.4-2.4-0.9-4.8-1.5-7.1c11.5,4.2,20.1,12.4,25,18.1
			c0.9,2.2,0.4,3.5-1.9,2.8C232.1,61.5,236.4,64.5,237.8,68.1z"/>
		<path style="fill:#C40E14;" d="M239.6,82.6c-3.7-4.7-7.6-9.2-11.7-13.4c-4.6-4.8-9.9-8.7-15.9-11.5c0.7-1.7,1.2-3.5,1.6-5.3
			c0.2-1.2,0.3-2.4,0.1-3.5c10.4,4.7,18.5,12.4,24.2,19.3l0,0c0.3,0.6,0.4,1.2,0.4,1.9c0.2,4.3-1.3,4.1,0.4,8.8
			C239.2,80,239.5,81.3,239.6,82.6z"/>
		<path style="fill:#DBD3CE;" d="M213.5,52.3c-0.3,1.8-0.9,3.6-1.6,5.3C191,47.7,170.3,55,170.3,55c-0.1-1.6-0.3-3.1-0.7-4.6
			c17.6-8.1,32.3-6.8,44-1.6C213.7,50,213.7,51.2,213.5,52.3z"/>
		<path style="fill:#EAE3DD;" d="M210,63.6c-18.4-10.4-39.7-5.9-39.7-5.9c0.1-0.9,0.1-1.8,0-2.7c0,0,20.7-7.3,41.6,2.6
			C210.8,60.4,209.8,61.7,210,63.6z"/>
		<path style="fill:#DBD3CE;" d="M210,72.5c-3.2,0.6-4.4,1-4.9,3.1c-1.2-1.2-2.3-2.2-3.3-3.1c-9-7.4-20.1-11.8-31.7-12.7
			c0.1-0.7,0.2-1.4,0.2-2.1c0,0,21.4-4.5,39.7,5.9l0,0c0,0.3,0.1,0.7,0.2,1C211.3,68.1,213.9,71.7,210,72.5z"/>
		<path style="fill:#EAE3DD;" d="M177.1,115.2c-4.2-1.4-6.1-1-5.8,1c0.2,0.8,0,1.7-0.6,2.4c-13.8-28.2-9.6-44.2-9.5-44.6l0,0
			c0.7-0.4,1.4-0.9,2.1-1.4C163.4,72.9,163.1,89.4,177.1,115.2z"/>
		<path style="fill:#E21A29;" d="M191,150L191,150c-7.8-9.7-14.6-20.3-20.2-31.4c0.6-0.6,0.8-1.5,0.6-2.4c-0.4-1.9,1.6-2.4,5.8-1
			l0,0c4,7.3,8.5,14.3,13.4,20.9c-3.2-2.3-4.9-0.8-0.9,6.3C193.2,149,193.5,151.7,191,150z"/>
		<path style="fill:#DBD3CE;" d="M182.6,109.3c-0.2,4.3,0.7,8.3-4.3,6.3c-0.4-0.2-0.8-0.3-1.2-0.4l0,0c-14-25.8-13.7-42.3-13.7-42.7
			l0,0c0.9-0.7,1.7-1.5,2.4-2.4c0.5-0.6,0.9-1.2,1.3-1.8c0,0,4.7,22.2,14.7,32.8c1,1.1,2.3,2.6,3.9,4.4
			C185.9,107.4,182.8,105.4,182.6,109.3z"/>
		<path style="fill:#EAE3DD;" d="M192.5,102.8h-0.1c-4.6,0.4-8-1.1-6.9,2c0.1,0.2,0.1,0.4,0.2,0.7c-1.6-1.8-2.9-3.3-3.9-4.4
			c-10-10.7-14.7-32.8-14.7-32.8c0.7-1.2,1.3-2.4,1.8-3.7c0,0,3.8,15.4,12.5,25.4C184.2,93.3,188.2,97.8,192.5,102.8z"/>
		<path style="fill:#DBD3CE;" d="M195.5,96.3c1.3,3.4,1.5,6-2.9,6.5c-4.4-5-8.4-9.5-11.2-12.8c-8.7-10-12.4-25.4-12.4-25.4
			c0.2-0.5,0.3-1,0.5-1.5c6.8,3,18.3,14.7,29,26.3c-0.4,0.2-0.3,1,0.4,2.8C200.2,96.3,194.1,92.8,195.5,96.3z"/>
		<path style="fill:#EAE3DD;" d="M203.1,85.9c1.5,2.2,3.7,6.7-0.4,5c-2.3-1-3.8-1.8-4.3-1.5c-10.7-11.6-22.2-23.3-29-26.3
			c0.3-1.1,0.5-2.2,0.7-3.3c11.6,0.9,22.7,5.3,31.7,12.7c1,0.8,2.1,1.9,3.3,3.1c-0.1,0.5-0.2,1-0.3,1.5
			C204.4,80.4,201.5,83.7,203.1,85.9z"/>
		<path style="fill:#EAE3DD;" d="M222.3,37.8c-3.3-1.7-6.7-3-10.2-4c-2.2-5-7.4-6.1-5-6.9s-8.2-3.4-8.1-4.3s-5.5-2.8-2-3.7
			s-0.2-2-7-2.3s-4.6-1.1-1-3.6s-3.1-1.5-9.1-2.1s0.8-2.3-5.3-2.3s3.5-2.3,8-2.4s0-2.7,0-2.7c3.2,0.8,6.3,2.1,9.2,3.9
			c11.4,7.4,4.4,4.1-1.1,1.5s9.6,7.2,14.6,9.8s6,3.9,11.8,5.5s5.8,2.2-1.2,1.8S219.2,26.7,222.3,37.8z"/>
		<path style="fill:#E21A29;" d="M212.1,33.8c-12.8-3.6-26.4-1.7-37.8,5.1c-1.5-3.3,0.6-3.9,0.2-5.4s-0.9-0.9-3.7-1.5
			s-1.9-2.2-0.5-3.5s-0.8-3.2-2.6-3.2s-4.2-3-2-4.4s-2.8-2.1-5.3-1.9s-4-3-1.2-5.2s0.7-2.9-4.7-1.5s-7.7-1.1-4.9-2.4
			s-6.2-1.1-10.3-1.1s1.8-1.6,8-4.1c6-2.4,1.5-2.8,1.3-2.8c7.8-1.6,15.7-2.1,23.6-1.5l-7.6,2.2c6-0.7,12-0.4,17.9,1.1
			c0,0,4.4,2.5,0,2.7s-14.1,2.4-8,2.4s-0.7,1.6,5.3,2.3s12.7-0.3,9.1,2.1s-5.8,3.3,1,3.6s10.4,1.4,7,2.3s2.1,2.9,2,3.7
			s10.5,3.5,8.1,4.3S210,28.8,212.1,33.8z"/>
		<path style="fill:#EAE3DD;" d="M174.5,33.5c-0.4-1.5-0.9-0.9-3.7-1.5s-1.9-2.2-0.5-3.5s-0.8-3.2-2.6-3.2s-4.2-3-2-4.4
			s-2.8-2.1-5.3-1.9s-4-3-1.2-5.2s0.7-2.9-4.7-1.5s-7.7-1.1-4.9-2.4s-6.2-1.1-10.3-1.1s1.8-1.6,8-4.1c6-2.4,1.5-2.8,1.3-2.8l0,0
			C137,4.1,126.4,9.8,118,18.2c1.7-0.3,3.9-0.5,3.6,0.7c-0.5,1.9,5.9,1.1,4.2,3.7s-2.9,4,0.3,2.7c3.2-1.3,7.1-0.4,5.8,1.8
			s-3.6,3.1,0.3,2.6s8.5-1.6,5.9,2.4s1.4,3.9,3.1,3.2s4.9-2.1,3.6,0.4s0,3.1,1.3,3.4s2.6,1.4,2.6,5.9c6.1,1.2,12.4,0.9,18.4-0.7
			c2.2-2,4.7-3.7,7.3-5.2C172.8,35.7,174.9,35,174.5,33.5z M126.6,18c-0.9,1.1-3.7,1.1-1.5-0.7c0.3-0.3,9.4-6.9,12.2-7.5
			S127.4,16.9,126.6,18z M130.8,21.4c0,0-2.1,1.2-2.4,0s7.4-5.4,13.7-8.3s5,0.6,2,1.2S130.8,21.3,130.8,21.4L130.8,21.4z
			 M136.5,26.1c0,0-2.6,0.8-2.6,0s3.9-3.5,12.9-7.2s11.7,1.5,7.2,1.4S136.5,26.1,136.5,26.1L136.5,26.1z M142.9,32
			c0,0-2.2,0.8-2.3,0s2.4-4.1,11.6-5.9s14,2,7.4,1.9S142.9,32,142.9,32z M167.1,38.6c-5.3,0.2-18.4-0.8-18.4-0.8
			c-3.6-2,12.6-3,19.2-2.6S172.4,38.4,167.1,38.6z"/>
		<path style="fill:#DBD3CE;" d="M167.1,38.6c-5.3,0.2-18.4-0.8-18.4-0.8c-3.6-2,12.6-3,19.2-2.6S172.4,38.4,167.1,38.6z"/>
		<path style="fill:#E21A29;" d="M148.7,44.8c-1.6-0.3-3.1-0.6-4.7-1.1c-1.7-0.5-3.5-1.1-5.1-1.8c-1.7-0.7-3.4-1.5-5-2.4
			c-7.3-4.1-13.8-8-21.1-11.1c-0.7-0.3-1.3-0.5-2-0.8c2-3.5,4.4-6.6,7.2-9.4c1.7-0.3,3.9-0.5,3.6,0.7c-0.5,1.9,5.9,1.1,4.2,3.7
			s-2.9,4,0.3,2.7c3.2-1.3,7.1-0.4,5.8,1.8s-3.6,3.1,0.3,2.6s8.5-1.6,5.9,2.4s1.4,3.9,3.1,3.2s4.9-2.1,3.6,0.4s0,3.1,1.3,3.4
			S148.7,40.3,148.7,44.8z"/>
		<path style="fill:#DBD3CE;" d="M126.6,18c-0.9,1.1-3.7,1.1-1.5-0.7c0.3-0.3,9.4-6.9,12.2-7.5S127.4,16.9,126.6,18z"/>
		<path style="fill:#DBD3CE;" d="M159.6,28c-6.6-0.1-16.7,4-16.7,4s-2.2,0.8-2.3,0s2.4-4.1,11.6-5.9S166.2,28.1,159.6,28z"/>
		<path style="fill:#DBD3CE;" d="M154,20.3c-4.6-0.1-17.5,5.7-17.5,5.7s-2.6,0.8-2.6,0s3.9-3.5,12.9-7.2S158.5,20.5,154,20.3z"/>
		<path style="fill:#DBD3CE;" d="M144.1,14.2c-3,0.5-13.3,7.1-13.3,7.1s-2.1,1.2-2.4,0s7.4-5.4,13.7-8.3S147.1,13.7,144.1,14.2z"/>
		<path style="fill:#E21A29;" d="M66.1,83.3c-1.5,1.4-3.8,3-4.8,1.7c-0.2-0.2-0.4-0.4-0.7-0.5c0.5-0.9,1-1.8,1.6-2.7H66
			C66.1,82.2,66.1,82.7,66.1,83.3z"/>
		<path style="fill:#EAE3DD;" d="M53.5,80.8c-1.8,3.3-3.1,6.9-3.9,10.6l0,0c-0.7,0.8-1.6,0.6-2.5-2.1c-1-2.8-2.7-3.6-4.1-3.8
			c0.6-3.7,1.1-6.3,1.4-7.5C47.3,79.2,50.4,80.2,53.5,80.8z"/>
		<path style="fill:#E21A29;" d="M52.5,138.4c-0.5,0-1-0.7-1.1-2.2c-0.2-4-4.7-15.9-4.3-12.7c0.3,2.5-3.3-1.2-5.2-9.2l0,0
			c-0.6-9.6-0.2-19.2,1.2-28.7c1.4,0.2,3.1,1,4.1,3.8c0.9,2.6,1.8,2.8,2.5,2.1c-1.9,7.9-2.4,17.2-1,23.2
			C50,120.9,51.3,130.1,52.5,138.4z"/>
		<path style="fill:#EAE3DD;" d="M63.1,168.3c-14.9-16.3-20.1-36.7-21.3-54c2,8,5.5,11.7,5.2,9.2c-0.4-3.3,4.1,8.7,4.3,12.7
			c0.1,1.5,0.6,2.3,1.1,2.2c0.6,4.2,1.1,8.1,1.6,11.2C54.9,154.1,59,161.6,63.1,168.3z"/>
		<path style="fill:#C40E14;" d="M72,176.5c-3.2-2.5-6.1-5.2-8.9-8.2c-4.1-6.6-8.3-14.2-9-18.7c-0.5-3.1-1-7.1-1.6-11.2
			c0.9,0,1.8-2.1,0.9-6c-0.7-2.9,0.5-1.7,2.2,1.3l0,0l0,0c1.2,5.9,2.7,11.7,4.5,17.4c0,0.2,0,0.5-0.1,0.9c-0.3,4.7,6.2,14.7,11,21.4
			S72,176.5,72,176.5z"/>
		<path style="fill:#EAE3DD;" d="M72.9,169.6c-1-0.9-3-3.3-6.6-7.5c-5.4-6.3-6-13.5-6.2-11c-1.8-5.7-3.3-11.5-4.5-17.4
			c2.5,4.3,4.7,8.7,6.7,13.2c1.1,2.5,1.8,4.2,2.2,5.3l0.1,0.1l0,0C67,158.2,69.8,164,72.9,169.6z"/>
		<path style="fill:#C40E14;" d="M77,170.3c-1.5-1.7-3.8-2.1-3.5-0.8c0.2,0.6,0,0.7-0.6,0.1l0,0c-3.1-5.6-5.9-11.4-8.4-17.3
			c1.8,1.3,6.2,5.3,6.3,2.7c0.1-0.9,0.2-1.3,0.4-1.3C73.8,159,76.2,164.4,77,170.3z"/>
		<path style="fill:#EAE3DD;" d="M84.5,171.4c-0.1,1.8-0.3,3.6-0.6,5.4c-3.1-2.6-5.1-2.3-6-4.9c-0.2-0.6-0.5-1.2-0.9-1.7l0,0
			c-0.8-5.9-3.2-11.2-5.6-16.6c0.7-0.1,2.2,2.8,4.1,5.9c2.6,4.1-2.6-8.3-4.3-15.3s6.5,11.2,7.4,15s3,2.3,5.4,10.5
			C84.1,170.4,84.3,171,84.5,171.4z"/>
		<path style="fill:#C40E14;" d="M87,171.2c-0.1,2.8-0.2,5.6-0.5,8.2l-0.8-0.8c-0.6-0.6-1.2-1.2-1.9-1.8c0.3-1.8,0.5-3.6,0.6-5.4
			C85.7,174.8,86.6,173.6,87,171.2z"/>
		<path style="fill:#EAE3DD;" d="M92.1,167.8c-0.2,3.5-0.9,6.9-2.1,10.2c-0.3,0.8-0.5,1.5-0.9,2.4c-0.1,0.3-0.2,0.6-0.4,0.9
			c-0.8-0.6-1.6-1.2-2.3-2c0.3-2.6,0.5-5.4,0.5-8.2v-0.1c0.3-1.7,0.4-3.3,0.4-5C87.4,162.6,89.7,164.7,92.1,167.8z"/>
		<path style="fill:#C40E14;" d="M96.2,183.6c-1-0.5-1.9-1.3-2.6-2.1c-1.1-1.2-2.3-2.3-3.6-3.4c1.2-3.3,1.9-6.7,2.1-10.2
			c0.8,1.1,1.7,2.4,2.4,3.5l0,0C94.7,175.5,95.2,179.6,96.2,183.6z"/>
		<path style="fill:#EAE3DD;" d="M97.2,181.4c0.9,1.6,0.5,2.9-1,2.1c-1-4-1.5-8.1-1.7-12.2c0,0.1,0.1,0.1,0.1,0.2
			c1.1,1.8,1.9,2.6,2.5,2.7c0.9,2.8,2.1,5.6,3.6,8.1C98.4,180.1,96.1,179.4,97.2,181.4z"/>
		<path style="fill:#C40E14;" d="M111.8,184.6c-0.6-0.1-1.2-0.4-1.7-0.9c-2.6-2.3-6.5-2.8-4.7,0.1s-0.8,3.4-3.4,0
			c-0.4-0.5-0.8-1-1.2-1.4c-1.5-2.6-2.7-5.3-3.6-8.1c0.9,0.2,1.2-1,1.2-2.7c0-2.7,2.4-5.8,5.4,0c1.4,2.6,2.5,3,3.1,2
			C108.2,177.3,109.9,181,111.8,184.6z"/>
		<path style="fill:#EAE3DD;" d="M117,186.3c-0.4-0.3-0.8-0.6-1.1-1c-1.3-1.8-2.5-0.4-4.2-0.7c-1.9-3.5-3.5-7.2-4.9-10.9
			c0.7-1.1,0.8-4.1-0.1-7.1c-1.2-4.3,0.4-1.8,4.1,2.7C112,175.2,114.1,180.9,117,186.3z"/>
		<path style="fill:#C40E14;" d="M120.9,187.9c-1.6-0.8-2.8-0.9-3.9-1.6c-2.9-5.4-5-11.2-6.2-17.1c1.2,1.5,2.6,3.2,4.1,4.9
			c6.4,7.2,6.6,4.3,4.7,0.4c-0.6-1.2,0-1.3,1.2-0.9C122.6,179.4,122.6,183.4,120.9,187.9z"/>
		<path style="fill:#EAE3DD;" d="M133,189.1c-1.2,0.3-1.4,2.1-2.6,0.6c-1.8-2.3-5.4-2.6-3.8,0.5c1.6,3.1-0.7,2.1-3.8-0.8
			c-0.6-0.6-1.3-1.1-2-1.5c1.7-4.5,1.7-8.5-0.1-14.2c2.6,0.9,7.8,4.2,7.6,2.4c-0.1-0.4,0.2-0.5,0.7-0.5c0.5,1.2,1.1,2.3,1.8,3.4
			C132.6,182,133.4,185.6,133,189.1z"/>
		<path style="fill:#C40E14;" d="M141.2,191.3c1.6,2.9-2,1.6-5.7-1.3c-1.2-0.9-1.9-1.1-2.5-0.9c0.3-3.5-0.4-7.1-2.2-10.2
			c-0.6-1.1-1.2-2.2-1.8-3.4c2,0.1,7.7,3.2,10.9,3.4c1.2,3.1,1.9,6.4,2.1,9.7C140.4,188.1,140,189.2,141.2,191.3z"/>
		<path style="fill:#EAE3DD;" d="M152.4,190.2c-0.5-0.3-1-0.6-1.4-0.9c-2.1-1.3-3.1,3.3-6.5,0.7c-0.7-0.6-1.5-1-2.4-1.4
			c-0.2-3.3-0.9-6.6-2.1-9.7c1.1,0.1,1.9-0.2,2.1-1c1.2-3.8,8.1,1.6,7.4,0C151.5,181.7,152.5,185.9,152.4,190.2z"/>
		<path style="fill:#C40E14;" d="M161.2,186c-2.1,0.3-5,2.1-5.2,3.8s-1.9,1.3-3.6,0.4c0.1-4.3-0.9-8.5-2.9-12.3l0,0
			c-0.7-1.6,5.1,1.4,4.2-1.4c-0.6-2,2.6,0,4.8,0.1C160.2,179.4,161.1,182.7,161.2,186z"/>
		<path style="fill:#EAE3DD;" d="M163,186.4c-0.5-0.4-1.2-0.6-1.8-0.4c-0.1-3.3-1.1-6.6-2.8-9.5c0.8,0,1.5-0.2,1.6-1.1
			c0.2-1,0.9-1.9,1.8-2.3c1.3,1.7,2.4,3.5,3.1,5.5C167.6,186.4,164.5,187.9,163,186.4z"/>
		<path style="fill:#E21A29;" d="M161.8,173.1c-0.9,0.5-1.6,1.3-1.8,2.3c-0.1,0.9-0.8,1.2-1.6,1.1c-0.9-1.6-2-3.2-3.2-4.6
			c-8.7-10.6-12.6-15.5-10-27.3c2.5-11.2,2.6-29.1-0.3-40.8c1.4,1.5,1.8-6,3.9-4.8c0.2,0.7,0.4,1.4,0.6,2.1
			c4.1,13.7,0.5,38.9,0.5,38.9s-1.5,2.3-1.1,11.9C149.1,159.3,157,166.6,161.8,173.1z"/>
		<path style="fill:#C40E14;" d="M158.8,164.4c-6.9-6.1-10.2-15.3-8.8-24.4c0,0,3.6-25.2-0.5-38.9c-0.2-0.7-0.4-1.4-0.6-2.1
			c0.2,0.1,0.4,0.3,0.6,0.5c2.7,3.1,2.1-3.7,4.2-1.2c0.6,0.8,1.1,0.9,1.6,0.7c1.9,6,2.7,12.2,2.5,18.4c-1.5-5.6-4.6-6.6-3.3-3.8
			c1.9,4.2,1.5,12.2-1,25.6S158.8,164.4,158.8,164.4z"/>
		<path style="fill:#E21A29;" d="M158.1,129.7c0.8-4.1,0.6-8.3-0.3-12.4c0.2-6.2-0.6-12.5-2.5-18.4c1-0.5,1.7-2.6,3.1-2.5
			c1.1,5.6,1.7,12.1,2.1,16.5c0.1,1.2,0.4,2.3,0.9,3.4C162.6,123,158.1,129.7,158.1,129.7z"/>
		<path style="fill:#EAE3DD;" d="M158.4,96.4c-1.4-0.1-2.1,2-3.1,2.5c-1.2-4-2.7-8-4.3-11.9c-1.8-4.5-1.7-9.5,0.1-14
			c2.5-0.1,4.9,0.8,6.8,2.4c-2.4,5.2-3.6,7.6-1.3,13.9C157.4,91.6,158,94,158.4,96.4z"/>
		<path style="fill:#DBD3CE;" d="M155.3,98.9c-0.4,0.2-1,0.1-1.6-0.7c-2.1-2.5-1.5,4.3-4.2,1.2c-0.2-0.2-0.4-0.4-0.6-0.5
			c-3.5-12.3-3.4-18.8-1.1-25c1-0.6,2.1-0.9,3.2-1c-1.8,4.5-1.8,9.5,0,14C152.6,90.9,154.1,94.9,155.3,98.9z"/>
		<path style="fill:#EAE3DD;" d="M148.9,99c-2.1-1.2-2.5,6.3-3.9,4.8l0,0c-0.1-0.7-0.3-1.3-0.5-1.9c-3.4-11.6-2.6-18.5-1.1-24.5
			c0.8-0.6,1.6-1.2,2.4-1.9c0.6-0.6,1.3-1.1,2.1-1.5C145.5,80.1,145.4,86.6,148.9,99z"/>
		<path style="fill:#DBD3CE;" d="M145,103.8c-1.6-1.6-1.7,6-2.9,4c-0.5-0.8-1.3,0.6-2.2,2.3c-0.5-2.4-1.1-4.9-1.9-7.2
			c-3.3-10.3-0.5-22.3-0.4-22.6l0,0c2-0.7,4-1.7,5.7-2.9c-1.4,6-2.3,12.9,1.1,24.5C144.6,102.5,144.8,103.1,145,103.8z"/>
		<path style="fill:#EAE3DD;" d="M139.9,110.1c-1.5,2.8-3.5,6.6-5.2,4.6l-0.3-0.4c-0.1-3.9-0.8-7.8-1.9-11.5
			c-2.7-7.7-3.9-16.8-1.8-21.1c2.4-0.2,4.7-0.7,6.9-1.5c-0.1,0.2-2.9,12.2,0.4,22.6C138.8,105.2,139.4,107.6,139.9,110.1z"/>
		<path style="fill:#DBD3CE;" d="M134.3,114.3c-2.4-2.1-2,5.1-4.6,1.8c-0.7-0.8-1.2-1-1.6-0.9c-0.3-2.6-1-5.1-2-7.5
			c-5.2-12.4,0-25.8,0-25.8c1.6,0,3.1-0.1,4.5-0.3c-2.1,4.3-0.9,13.4,1.8,21.1C133.6,106.5,134.2,110.4,134.3,114.3z"/>
		<path style="fill:#EAE3DD;" d="M128.1,115.3c-1.3,0.5-1.8,4-3.9,1.1c-0.9-1.2-1.6-1.3-2.3-1c0-3.1-0.7-6.3-2.7-11.2
			c-4.2-10.3-0.2-19.5,1.2-22.2c2.1,0.1,4,0.1,5.8,0c0,0-5.2,13.4,0,25.8C127.1,110.2,127.8,112.7,128.1,115.3z"/>
		<path style="fill:#DBD3CE;" d="M121.9,115.3c-1.5,0.6-2.7,3.2-3.9,1c-1.8-3.2-3.4,2.3-4.7-0.2c-0.6-1.2-1.4-1-2.3-0.8
			c-0.6-2.3-1.2-5-2-8.3c-3.2-14.8,7.7-25.2,7.7-25.2c1.3,0.1,2.5,0.1,3.6,0.2c-1.4,2.7-5.4,11.9-1.2,22.2
			C121.2,109,121.9,112.2,121.9,115.3z"/>
		<path style="fill:#EAE3DD;" d="M109.1,107c0.7,3.3,1.4,6,2,8.3c-1.1,0.2-2.3,0.3-3.4-2.3c-2-4.6-4.1-1.1-3.9-3
			c0.1-1-1-0.7-2.3-0.7c-1.1-10.9,0.6-21.9,5.1-27.9l3.6,0.1c2.3,0.1,4.6,0.2,6.7,0.3C116.7,81.8,105.9,92.2,109.1,107z"/>
		<path style="fill:#EAE3DD;" d="M93.7,102.5c-1.1-0.7-2.3-1.4-2.3-3.1c0-2.8-2.6-1.5-3-5c-0.3-2.6-1-3.7-1.9-4.3
			c0.9-3,2.2-5.9,3.7-8.6c3-0.1,6-0.1,8.9-0.1C94.8,87.5,92.8,95,93.7,102.5z"/>
		<path style="fill:#DBD3CE;" d="M90.3,81.4c-1.6,2.7-2.8,5.6-3.7,8.6c-0.3-0.2-0.5-0.4-0.8-0.6c-1-0.8,0-7.9,0-7.9
			C87.3,81.5,88.8,81.4,90.3,81.4z"/>
		<path style="fill:#C40E14;" d="M96.3,142.2c-1.4,5.7-2.4,18.2-1.8,29.2c-0.7-1.2-1.6-2.4-2.4-3.5c0.3-8.3-3.3-12.8-2.4-22.2
			c1.3-14.3-1.1-15.9-5.7-31c-4.2-13.8-0.7-30.5-0.1-33.1h1.9c0,0-1,7,0,7.9c0.2,0.2,0.5,0.4,0.8,0.6c-1.6,5.3-2.5,12.3,0.4,18.9
			C92.9,122.2,98.5,132.6,96.3,142.2z"/>
		<path style="fill:#C40E14;" d="M106.8,173.6c-0.6,0.9-1.7,0.6-3.1-2c-3.1-5.8-5.4-2.7-5.4,0c0,1.7-0.3,2.9-1.2,2.7
			c-1.8-6-2.1-12.3-0.9-18.4c4.2-21.3,5.8-21.5,2.1-34.1c-1.8-6.2-4-12.6-4.6-19.3c0.7,0.4,1.3,0.8,1.4,1.4c0.2,1.5,0.5-1.1,2.3,3
			c0.7,1.6,2.3,2.5,4,2.3c0.4,4,1.2,7.9,2.3,11.8c4.3,13.9,1.5,15.2-0.5,31.5C102.5,159.4,104.4,167,106.8,173.6z"/>
		<path style="fill:#E21A29;" d="M106.7,166.5c0.8,3.1,0.8,6,0.1,7.1c-2.5-6.6-4.3-14.3-3.5-21c2-16.3,4.8-17.6,0.5-31.5
			c-1.2-3.8-2-7.8-2.3-11.8c1.4,0,2.5-0.3,2.3,0.7c-0.2,2,1.9-1.5,3.9,3c1.1,2.5,2.3,2.4,3.4,2.3c2,8,2.7,12.3-0.2,26.9
			c-1.8,8.9-1.8,18.1,0,27C107.2,164.6,105.6,162.2,106.7,166.5z"/>
		<path style="fill:#C40E14;" d="M119.6,174.5c1.9,3.9,1.7,6.7-4.7-0.4c-1.6-1.8-3-3.4-4.1-4.9c-1.8-8.9-1.8-18.1,0-27
			c2.9-14.6,2.2-18.9,0.2-26.9c0.9-0.1,1.7-0.3,2.3,0.8c1.3,2.6,2.9-3,4.7,0.2c1.2,2.2,2.4-0.4,3.9-1c0,4.7-1.6,9.4-2.9,19.9
			c-2,17.4-3.6,23.9,0.6,35c0.5,1.2,0.9,2.4,1.2,3.5C119.6,173.3,119,173.3,119.6,174.5z"/>
		<path style="fill:#C40E14;" d="M140,178.9c-3.2-0.2-9-3.3-10.9-3.4c-3.9-8.6-5-19.3-4.1-30.9c0.8-10.5,4.4-19.8,3.2-29.3
			c0.4-0.2,0.9,0,1.6,0.9c2.6,3.3,2.2-3.9,4.6-1.8c0.4,9-0.1,18.1-1.7,27c-2.4,13.3-3,23.9,3.8,31.7
			C137.9,174.8,139.1,176.8,140,178.9z"/>
		<path style="fill:#E21A29;" d="M129.1,175.5c-0.5,0-0.7,0.1-0.7,0.5c0.2,1.8-5-1.5-7.6-2.4c-0.3-1.1-0.7-2.2-1.2-3.5
			c-4.1-11.1-2.6-17.6-0.6-35c1.2-10.5,2.8-15.2,2.9-19.9c0.7-0.3,1.4-0.2,2.3,1c2.1,2.9,2.6-0.6,3.9-1.1c1.2,9.6-2.3,18.9-3.2,29.4
			C124.1,156.2,125.2,166.9,129.1,175.5z"/>
		<path style="fill:#E21A29;" d="M142.1,177.9c-0.3,0.8-1.1,1.1-2.1,1c-0.9-2.1-2.1-4.1-3.6-5.9c-6.8-7.8-6.2-18.5-3.8-31.7
			c1.6-8.9,2.1-18,1.7-27l0.3,0.4c1.7,2,3.6-1.9,5.2-4.6c1.5,8,1.2,16.3-0.5,28c-2.2,15.2-1,23.7,5.6,32.6c1.7,2.3,3.2,4.7,4.5,7.3
			l0,0C150.2,179.4,143.4,174.1,142.1,177.9z"/>
		<path style="fill:#C40E14;" d="M153.7,176.5c0.9,2.8-4.9-0.2-4.2,1.4c-1.3-2.5-2.8-5-4.5-7.3c-6.6-8.9-7.8-17.4-5.6-32.6
			c1.7-11.7,1.9-20,0.5-28c1-1.7,1.7-3,2.2-2.3c1.2,2,1.4-5.6,2.9-4l0,0c2.9,11.7,2.7,29.7,0.3,40.8c-2.6,11.8,1.3,16.7,10,27.3
			c1.2,1.4,2.3,3,3.2,4.6C156.3,176.5,153.1,174.5,153.7,176.5z"/>
		<path style="fill:#E21A29;" d="M92.1,167.8c-2.3-3.1-4.6-5.3-4.6-1.8c0,1.7-0.1,3.3-0.4,5c0.3-21.2-5.9-46.7-9.5-56.4
			c-3.9-10.8,1.7-28.8,3.1-33.1l3.1-0.1c-0.6,2.7-4.1,19.3,0.1,33.1c4.6,15.1,7,16.6,5.7,31C88.8,155,92.4,159.6,92.1,167.8z"/>
		<path style="fill:#C40E14;" d="M87,171.1v0.1c-0.5,2.4-1.3,3.6-2.6,0.2c0.2-4.5-0.7-8.2-3-13.8c-4-9.8-8.8-30.4-10.6-43.2
			c-1.5-11.5,4.1-29.3,5.3-32.7l4.6-0.1c-1.4,4.3-7,22.3-3.1,33.1C81.1,124.4,87.4,149.9,87,171.1z"/>
		<path style="fill:#E21A29;" d="M84.5,171.4c-0.2-0.5-0.3-1-0.5-1.7c-2.3-8.3-4.5-6.7-5.4-10.5s-9.1-22.1-7.4-15s7,19.5,4.3,15.3
			c-2-3.1-3.4-6-4.1-5.9c-2.3-5.1-4.7-10.1-6-15.6c-3-12.6,3.5-51,4.4-56.3l6.4-0.1c-1.2,3.4-6.8,21.2-5.2,32.7
			c1.7,12.8,6.6,33.4,10.6,43.2C83.8,163.3,84.6,166.9,84.5,171.4z"/>
		<path style="fill:#E21A29;" d="M64.6,152.3L64.6,152.3c-0.5-1.2-1.2-2.9-2.3-5.4c-2-4.5-4.2-8.9-6.7-13.2l0,0l0,0
			c-5-26.4,1.8-43.1,5.1-49.3c0.3,0.1,0.5,0.3,0.7,0.5c1,1.3,3.2-0.3,4.8-1.7c0.2,8.5-4.3,25.5-7.4,40.4
			C57.1,131.3,60.5,142.6,64.6,152.3z"/>
		<path style="fill:#DBD3CE;" d="M101.4,109.3c-1.7,0.2-3.3-0.7-4-2.3c-1.8-4.1-2.1-1.5-2.3-3c-0.1-0.6-0.7-1-1.4-1.4
			c-0.9-7.5,1.1-15,5.5-21.2c2.5,0,4.9,0,7.3,0.1C102,87.4,100.3,98.4,101.4,109.3z"/>
		<path style="fill:#E21A29;" d="M97.1,174.3c-0.6-0.1-1.4-0.9-2.5-2.7c0-0.1-0.1-0.1-0.1-0.2l0,0c-0.6-11,0.4-23.5,1.8-29.2
			c2.3-9.5-3.4-20-9.3-33.3c-3-6.6-2.1-13.6-0.4-18.9c0.8,0.7,1.6,1.7,1.9,4.3c0.3,3.5,3,2.2,3,5c0,1.7,1.3,2.5,2.3,3.1
			c0.6,6.7,2.8,13.1,4.6,19.3c3.7,12.6,2.2,12.8-2.1,34.1C95,162,95.3,168.3,97.1,174.3z"/>
		<path style="fill:#C40E14;" d="M62.3,81.8c-0.6,0.8-1.1,1.7-1.6,2.7c-1.6-0.6-3.9,2.1-5.6,1.1c-2-1.2-2.4-0.5-3.5,1.9
			c-0.6,1.3-1.2,3.2-2,4c0.8-3.7,2.1-7.3,3.9-10.6C56.4,81.5,59.3,81.8,62.3,81.8z"/>
		<path style="fill:#C40E14;" d="M53.4,132.4c0.9,3.9,0,5.9-0.9,6c-1.2-8.2-2.5-17.4-4-23.7c-1.4-6-0.8-15.3,1-23.2l0,0
			c0.8-0.8,1.5-2.7,2-4c1.1-2.4,1.5-3.1,3.5-1.9c1.7,1,4-1.7,5.6-1.1c-3.3,6.1-10.1,22.8-5.1,49.3C53.8,130.7,52.7,129.5,53.4,132.4
			z"/>
		<path style="fill:#C40E14;" d="M71.4,153.6c-0.2,0-0.4,0.4-0.4,1.3c-0.2,2.6-4.6-1.4-6.3-2.7l0,0c-4-9.6-7.5-21-5.9-28.6
			c3.1-14.9,7.6-31.9,7.4-40.4c0-0.5,0-1-0.1-1.5h1.6h2.1c-0.9,5.3-7.4,43.7-4.4,56.3C66.7,143.5,69.1,148.6,71.4,153.6z"/>
		<path style="fill:#B20B18;" d="M85,127.1c1.3,2.5-2.2,1.6-1.1,5.1c0.3,1.3,0,2.7-0.7,3.8c-0.8,1.3-1.9,2.5-3.1,3.5
			c-0.5-0.6-0.9-1.1-1.3-1.7c-1.3-1.9-2.8-3.7-4.6-5.2c-3.3-3-6.9-4.8-9.7-5.1c-0.4,0-0.9,0-1.3,0c-1.4-2.2-2.7-4.5-4-6.8
			c-2-3.7-3.7-7.6-5.3-11.5c-0.5-1.2-1-2.4-1.4-3.7c-1.5-4-2.7-7.9-3.7-11.4l0,0c-0.2-0.8-0.5-1.6-0.7-2.4
			c-1.2-4.3-2.1-8.7-2.9-13.2c-0.1-0.3-0.1-0.7-0.1-1c-0.1-3.2,2.5-6,10.2-1.2l0,0c0.6,0.4,1.2,0.8,1.8,1.2c0.4,0.3,0.8,0.6,1.3,0.9
			c1.3,1,2.6,2.1,3.7,3.3c0.8,0.8,1.6,1.6,2.4,2.5c0.4,0.5,0.8,0.9,1.3,1.4c0.8,1,1.7,2,2.5,3.1c1.4,1.8,2.8,3.6,4.1,5.4
			s2.7,3.7,3.9,5.5c2.3,3.3,4.4,6.5,6,9.1c2.1,3.4,3.6,5.8,3.9,6.3c1.1,1.6-0.5,3.4-0.8,5.2c-0.1,0.3-0.1,0.7,0,1
			C86.2,123.7,83.8,124.6,85,127.1z"/>
		<path style="fill:#DBD3CE;" d="M108.5,164.2c-5.5-1-14.1-3.9-35.6-24.8c-3.7-3.6-6.9-7.6-9.6-12c4.1-0.4,10.9,3.6,15.6,10.3
			c0.4,0.5,0.8,1.1,1.3,1.7c5.8,7.1,18.2,16.4,18.2,16.4C107.1,161.6,114,165.2,108.5,164.2z"/>
		<path style="fill:#C40E14;" d="M72.5,112.6c-3.8-5.6-6.5-10.7-7.3-8.6s1.8,5.1,5.4,13s2.4,8.6-0.5,3.3s-5.5-11.5-6.9-11.5
			s1.3,5,3.4,9.7s2.7,3.5,1.1,3.8s-3.1-0.4-4.4-4.9s-1.2-5.2-3.4-4.4s-0.2,0.8-2.5-2.3s-1.8-5.3-4.7-5.3c-1.5-4-2.7-7.9-3.7-11.4
			l0,0c-0.2-0.8-0.5-1.6-0.7-2.4c-1.2-4.3-2.1-8.7-2.9-13.2c-0.1-0.3-0.1-0.7-0.1-1c-0.1-3.2,2.5-6,10.2-1.2l0,0
			c0,0,10.6,15,15.8,21.4s2.3,6.2-3.5,0s-6.1-4.5,1,5.8S76.3,118.1,72.5,112.6z"/>
		<path style="fill:#EAE3DD;" d="M20.2,44.8c0-1.7,1.4-3.1,3.1-3.1c1.7,0,3.1,1.4,3.1,3.1c0,1.7-1.4,3.1-3.1,3.1
			C21.6,48,20.2,46.6,20.2,44.8C20.2,44.9,20.2,44.9,20.2,44.8z"/>
	</g>
</g>
</svg>
