<svg xmlns="http://www.w3.org/2000/svg" viewBox="0 0 274.01 169.68"><title>yellow-longnose-butterflyfish</title><g id="Layer_2" data-name="Layer 2"><g id="Ñëîé_2" data-name="Ñëîé 2"><path d="M272.46,117.38c.89,2.43-2,1.33-2.65,3.53s-15.68.45-22.09-3.53l-.62-.37c1.51-2.29,3.71-1.46,1.28-2.61-3.15-1.49.83-.33,8,.5s0,0-6.8-2.38,3.81-.61-.66-2.26,2.81,0,9.44,0-3.64-1.83-9.11-3.65,1.16,0,12.43,0-10.44-3-4.48-3.48-10.11-2-5-2.32-3.48-2.32,4.31-3.15-.5-1.33-7.46-.83-6.13-.16,1.16-2.32,10.78-6.13,2.49-3.15-10.47,2.09-10.47,2.09c4.47-1.94,10-4.47,13.9-5.9,7.73-2.87,15.46-8.17,16.57-2.43s1.76,7.73,0,9.06a3.84,3.84,0,0,0-1.77,3.76c0,1.32.88,2.42.88,4.19a12.7,12.7,0,0,0,.45,4.86c.66,2.22.41,2.88,1.53,6S271.58,115,272.46,117.38Z" style="fill:#414142"/><path d="M261.64,106.61c-11.27,0-17.9-1.82-12.43,0s15.74,3.65,9.11,3.65-13.92-1.66-9.44,0-6.13-.12.66,2.26,13.92,3.2,6.8,2.38-11.11-2-8-.5c2.43,1.15.23.32-1.28,2.61a33,33,0,0,0-7.11-3c.25-1.53-.25-2.63-1.39-4.4-1.51-2.32-.49-3,.67-6.79s-1.63-7.46-1.63-7.46c1.25-.47,2.83-1.13,4.58-1.89,0,0,2.18.9,10.47-2.09s4.81,1-2.49,3.15-8.12,2.82-1.16,2.32,15.25,0,7.46.83.83,2.82-4.31,3.15,10.94,1.82,5,2.32S272.91,106.61,261.64,106.61Z" style="fill:#e6dfd9"/><path d="M109.39,23.69a113.25,113.25,0,0,1-4,16.45c-1.81,4.32-4.59,21.43-3.8,10,.6-8.57,5.27-22.91,7.6-29.64C109.59,20.46,109.67,21.5,109.39,23.69Z" style="fill:#f0c90c"/><path d="M124.75,87.38C114,91.86,113.64,84.24,132,69.82S178,54.4,194.85,66s29.67,33,0,16.85S124.75,87.38,124.75,87.38Zm91.51,60.16c-7.16,7.46-27.21,3.32-34.5,0s-5.65-6.31-.69-5.49l.7,0c5-.34,24.36-2.33,29.32-12.31C216.73,118.38,223.42,140.09,216.26,147.54ZM224.85,128s-5,0-4.15-7.19,4.37-10.91,9.1-7.84S233.8,130,224.85,128ZM232,112.52a33.67,33.67,0,0,1,8,1.47c.25-1.53-.25-2.63-1.39-4.4-1.51-2.32-.49-3,.67-6.79s-1.63-7.46-1.63-7.46c-1.94.73-3.07,1-2.74.39-.16.13-2.44,2-2.93-1.72s-2-29.33-2.17-40.1-5-16.74-11.25-20.55c-4.37-2.65-1.32-2.82-.37-4.73-1.16-.51-2.26-.9-3.21-1.21-7.19,1.21-13.73,10.66-13,6.88.58-3,6.55-7.74,9.52-9.95h0c.29-1.49-.15-2.89-2-2.21a11.81,11.81,0,0,1-3.59.87c-8.09,4.81-15.31,17.07-14.64,12.46.57-4,9.53-12.45,14-16.46.35-2-2-.42-7.29,4.46a57.41,57.41,0,0,1-7.87,6.21,3.73,3.73,0,0,1-1.23.58h0c-4.61,2.69-9,10.93-7.81,5.21,1-4.83,11.87-15.94,16.7-20.71a2.88,2.88,0,0,0-.67.09c-3.46.81-27.84,24.42-24.52,21-4,1.22-16.7,16.12-8.41,4,6.74-9.89,22.2-23.22,27.72-27.84.83-1.53,1-2.33.12-2-2.76,1.11-29.89,26.11-34.89,29.43h0c-.47.31-.74.43-.76.31-5.45,2.64-12.54,15.12-6.42,1.3,5.34-12,26.62-28.32,33.58-33.42,0-.83-1-.94-3.2-.05-11.8,4.68-34.66,32.78-33,28.4-3.64,1.1-13.82,18-4.65,1.43,8-14.47,27-30.87,31.64-34.8-.35-.4-1.38-.33-3.25.33-13.26,4.64-37.79,42-31.82,29.16-5.3,2.22-19.66,28.84-8.06,5.53,9.31-18.71,25-32.73,30.77-37.54-.62-.21-1.87,0-3.92.85-13.22,5.24-35.15,42.46-32.73,36.63-4.66,3-11.25,20.37-5.06-1C125,20,140.11,7.2,146.75,2.25h0c.9-2.1-.59-1.83-6.21,1.78-12.62,8.13-24.69,33.29-27.76,38.26-1.91,3.37-7.92,22.73-4.77,6.16,2.38-12.54,12.83-31,17.78-39.19h0c0-1.11-.55-1.4-2-.58-7.16,4-17.4,29.11-18.37,31.48-1.81,4.32-4.59,21.43-3.8,10,.6-8.57,5.27-22.91,7.6-29.64-.88,0-3.25,4.76-6.86,13.18a93.38,93.38,0,0,0-6.52,24.3s8.4,3.43,8.4,12.37-.33,18.73,3,25.53,3.83,18.77-4.3,25a5.6,5.6,0,0,0,1,2.38c1.16,1.49,2.48,7.13,5.8,9.45s6.46,5.47,7.12,8.78,1.77,4.32,1.84,4.38h0c6.39.55,12.72.83,18.37.76.92,0,1.81,0,2.69,0,17.8.31,28.24,5.83,32.66,12.37,4.64,6.84,23,10.38,17.9,7.73s-17.9-15.47-9.72-8.84,32,13.48,29.39,11.52-15.25-10-11.27-7.76,13,7.73,16.79,7.51,5.75.66,10,0a14.91,14.91,0,0,0,4.4-1.7s1-6.92,2.67-6.26-.33-4.31,2-4.64,1.82-5.3,1.82-13.25.5-16.08-.66-18.57.76-8.17-3-11.66C231.9,112.65,231.57,112.52,232,112.52Zm-62.75,5.74c-1.56,5.53-8.4,9.92-8.4,9.92s-2.21,2.9-2,3.47-3.54,1.64-2.65,2.52-.22,2.22-6.63,4.21-15.69,2-21-1.11-15.91-7.51-15.46-10.16,0-3.1,0-3.1C141.87,141.25,170.82,112.74,169.28,118.26Z" style="fill:#ffd422"/><path d="M118.63,145.79c-4.14-.35-8.31-.83-12.33-1.4-8.65-1.23-16.6-2.93-22.19-4.93,23.22-6,17.41-22.3,15.12-15.12-2.49,7.79-23.62,11.56-23.62,11.56-6.81-2-10.13,1-20.14-4.15-11.93-6.19-32-7.74-42-7.74S.13,123.68,0,122.13s.44-1.85,2.68-1.85,4.06.08,4.14-.33-5.64-1.24-5.64-1.24-.9,0-1.15-1.25a1,1,0,0,1,.48-1.11h0a137.33,137.33,0,0,0,22.8,2c15.41,0,17.73-1.5,22.87-1.58s8-2.24,12.76-1.57a27.87,27.87,0,0,0,5.84,0,7.75,7.75,0,0,0,14.9,1c3.12-.64,9.42-1.43,10.92-2.11,1.82-.83,11.93-.67,11.93,2.15a23.27,23.27,0,0,0,.34,4.58,5.6,5.6,0,0,0,1,2.38c1.16,1.49,2.48,7.13,5.8,9.45s6.46,5.47,7.12,8.78S118.56,145.73,118.63,145.79Z" style="fill:#e6dfd9"/><path d="M84.11,139.46A32.11,32.11,0,0,1,80,137.71a24.26,24.26,0,0,0-4.39-1.81s21.13-3.77,23.62-11.56C101.52,117.16,107.33,133.48,84.11,139.46Z" style="fill:#d7cfca"/><path d="M102.88,120.8a23.27,23.27,0,0,1-.34-4.58c0-2.82-10.11-3-11.93-2.15-1.5.68-7.8,1.47-10.92,2.11a7.75,7.75,0,1,0-15.06-2.55,8.09,8.09,0,0,0,.16,1.56,27.87,27.87,0,0,1-5.84,0c-4.8-.67-7.62,1.49-12.76,1.57s-7.46,1.58-22.87,1.58a137.33,137.33,0,0,1-22.8-2c.75-.53,2.3-.82,4.74-.88s18.39.67,32.52-2.51h0c10.57.63,18.65-1.86,21.49-3.53,3.65-2.16,10.11-7.13,13.59-8.79s9.45-12.59,9.62-19.88S95.8,57.94,95.8,57.94s8.4,3.43,8.4,12.37-.33,18.73,3,25.53S111,114.61,102.88,120.8Z" style="fill:#414142"/><path d="M95.8,57.94S82.65,73.46,82.49,80.76,76.35,99,72.87,100.64s-9.94,6.63-13.59,8.79c-2.84,1.67-10.92,4.16-21.49,3.53,7.08-1.59,13.7-4.16,18-8.29C68.73,92.3,76.24,83,79,77.28S90.94,61.48,95.8,57.94Z" style="fill:#565656"/><path d="M112.78,42.28c-1.91,3.37-7.92,22.73-4.77,6.16,2.38-12.54,12.83-31,17.78-39.19-.17,4.49-10.65,22.28-13.31,31.68C111.76,43.47,111.92,43.66,112.78,42.28Z" style="fill:#f0c90c"/><path d="M146.75,2.25c-1.71,3.93-11.82,16.17-19,30.28-1.33,2.6-2.11,4.21-2.45,5h0c-4.66,3-11.25,20.37-5.06-1C125,20,140.11,7.2,146.75,2.25Z" style="fill:#f0c90c"/><path d="M139.22,32.08c-5.3,2.22-19.66,28.84-8.06,5.53,9.31-18.71,25-32.73,30.77-37.54C165.82,1.39,144.37,21,139.22,32.08Z" style="fill:#f0c90c"/><path d="M148.28,34.07a14,14,0,0,0-1,1.89c-3.64,1.1-13.82,18-4.65,1.43,8-14.47,27-30.87,31.64-34.8C176.44,5,154,24.39,148.28,34.07Z" style="fill:#f0c90c"/><path d="M183.52,7.61c0,3.93-20.93,24-26.4,30.88-.56.71-.8,1.11-.76,1.24-5.45,2.64-12.54,15.12-6.42,1.3C155.28,29,176.56,12.71,183.52,7.61Z" style="fill:#f0c90c"/><path d="M191.91,12c-2.44,4.51-10.84,15.38-17.78,22.32l-1.53,1.55c-4,1.22-16.7,16.12-8.41,4C170.93,29.93,186.39,16.6,191.91,12Z" style="fill:#f0c90c"/><path d="M191.81,26.78c-2.65,2.5-3.38,3.5-2.91,3.48-4.61,2.69-9,10.93-7.81,5.21,1-4.83,11.87-15.94,16.7-20.71C200.61,14.76,198.62,20.38,191.81,26.78Z" style="fill:#f0c90c"/><path d="M205.9,23c-8.09,4.81-15.31,17.07-14.64,12.46.57-4,9.53-12.45,14-16.46a6.71,6.71,0,0,1-.44,1.37C204,22.38,204.71,23,205.9,23Z" style="fill:#f0c90c"/><path d="M194.85,82.86c-29.67-16.13-70.1,4.52-70.1,4.52C114,91.86,113.64,84.24,132,69.82S178,54.4,194.85,66,224.52,99,194.85,82.86Z" style="fill:#ffd422"/><path d="M215,27.42c-7.19,1.21-13.73,10.66-13,6.88.58-3,6.55-7.74,9.52-9.95a6,6,0,0,1-.46,1.33C210.75,26.24,212.39,26.56,215,27.42Z" style="fill:#f0c90c"/><path d="M216.26,147.54c-7.16,7.46-27.21,3.32-34.5,0s-5.65-6.31-.69-5.49l.7,0c5-.34,24.36-2.33,29.32-12.31C216.73,118.38,223.42,140.09,216.26,147.54Z" style="fill:#f9cd15"/><path d="M234.9,95.72h0c-.16.13-2.44,2-2.93-1.72s-2-29.33-2.17-40.1-5-16.74-11.25-20.55c-4.37-2.65-1.32-2.82-.37-4.73C223.72,31,231.05,36,234.9,47.78,241.75,68.77,236,93.74,234.9,95.72Z" style="fill:#414142"/><path d="M229.8,167.39s1-6.92,2.67-6.26-.33-4.31,2-4.64,1.82-5.3,1.82-13.25.5-16.08-.66-18.57.76-8.17-3-11.66c1.68.86,5.46,3,5.62,7.69.22,6.63.66,23.2,1.76,32C240.8,159.28,234.72,164.73,229.8,167.39Z" style="fill:#414142"/><path d="M170,163.78c-.66.17-2.81-.66-25-5.8a189.91,189.91,0,0,1-26.54-8.28c-7.35-2.88-11.87-5.18-12.13-5.31,4,.57,8.19,1,12.33,1.39h0c6.39.54,12.72.82,18.37.76.92,0,1.81,0,2.69,0,17,2.79,24.4,8.61,27,11h0a13.14,13.14,0,0,0,1.13,1.06c.66.34.5,3,1.16,3.32S170.66,163.62,170,163.78Z" style="fill:#f9cd15"/><path d="M75.86,113a4.42,4.42,0,1,1-4.42-4.42A4.4,4.4,0,0,1,75.86,113Z" style="fill:#414142"/><path d="M72.38,105.89a7.74,7.74,0,0,0-7.75,7.74,8.09,8.09,0,0,0,.16,1.56,7.74,7.74,0,1,0,7.59-9.3Zm2.17,10.21A4.42,4.42,0,0,1,67,113a4.42,4.42,0,1,1,7.53,3.14Z" style="fill:#f2ebe7"/><path d="M224.85,128s-5,0-4.15-7.19,4.37-10.91,9.1-7.84S233.8,130,224.85,128Z" style="fill:#414142"/><path d="M169.28,118.26c-1.55,5.53-8.4,9.92-8.4,9.92s-2.21,2.9-2,3.46-3.53,1.65-2.65,2.53-.22,2.21-6.63,4.2c-.84.26-1.73.49-2.65.68-6.12,1.26-13.73.91-18.35-1.78-5.3-3.1-15.91-7.51-15.46-10.17s0-3.09,0-3.09c27.56,16.53,55.32-9,56.16-6.26A.92.92,0,0,1,169.28,118.26Z" style="fill:#f9cd15"/><path d="M194.85,82.86c-29.67-16.13-70.1,4.52-70.1,4.52C114,91.86,113.64,84.24,132,69.82S178,54.4,194.85,66,224.52,99,194.85,82.86Z" style="fill:#ffdd4e"/><path d="M169.28,118.26c-1.55,5.53-8.4,9.92-8.4,9.92s-2.21,2.9-2,3.46-3.53,1.65-2.65,2.53-.22,2.21-6.63,4.2c-.84.26-1.73.49-2.65.68,7.36-2.63,11-6.46,3.27-3.2-11.21,4.75-23.09.16-23.31-.39s.49-.61.49-.61c15.91,5.25,32.87-4.41,22.05-.9s-30.94-2-30.83-2.94.66-.85.66-.85c25.64,9.33,36.91-1.51,36.91-1.51-16.41,7.93-33.7,1.89-37.85.46s-3.58-2.48-1.82-1.6,10,3,10,3c24.25,5.7,39.11-8.63,42.78-12.74A.92.92,0,0,1,169.28,118.26Z" style="fill:#ffdd4e"/><path d="M73.15,110.22a2.71,2.71,0,1,1,2.71,2.7A2.71,2.71,0,0,1,73.15,110.22Z" style="fill:#f2ebe7"/><path d="M170,163.78c-.66.17-2.81-.66-25-5.8a189.91,189.91,0,0,1-26.54-8.28c1.39-1.52,4.68-1.62,11.56,1.75,9.28,4.56,27.18,8.54,27,7.8s-12.42-3.9-21.12-6.88-7.63-4.23,5.88,0,27.68,8.34,13.67,2.88-24.77-7.05-17.73-7.05c5.73,0,22.86,6.83,29,9.35h0a13.14,13.14,0,0,0,1.13,1.06c.66.34.5,3,1.16,3.32S170.66,163.62,170,163.78Z" style="fill:#ffdd4e"/></g></g></svg>