<svg xmlns="http://www.w3.org/2000/svg" viewBox="0 0 299.48 120.18"><title>zebra-loach</title><g id="Layer_2" data-name="Layer 2"><g id="Ñëîé_2" data-name="Ñëîé 2"><path d="M287.08,119.41a77.43,77.43,0,0,1-10.28-3.61l-.88-.37a4.64,4.64,0,0,0,1.2-1.55A104.31,104.31,0,0,0,287.08,119.41Z" style="fill:#f7eab7"/><path d="M277.12,113.88a4.64,4.64,0,0,1-1.2,1.55c-2.79-1.19-5.48-2.5-8.05-3.87a8.92,8.92,0,0,0,1-3.14C271.52,110.28,274.3,112.14,277.12,113.88Z" style="fill:#634833"/><path d="M268.86,108.42a8.92,8.92,0,0,1-1,3.14,143.18,143.18,0,0,1-16.47-10.39,4.93,4.93,0,0,1,2.68-.79,5.32,5.32,0,0,0,3.19-.72C260.47,102.26,264.49,105.34,268.86,108.42Z" style="fill:#f7eab7"/><path d="M261.19,91.63c-.82.82-1.29,1.86-2,4.44a12.22,12.22,0,0,1-.68,2c-3.3-1.94-6.13-3.65-7.93-4.75-2-1.25,1,1.79,6.66,6.36a5.32,5.32,0,0,1-3.19.72,4.93,4.93,0,0,0-2.68.79c-2.6-1.87-5-3.66-7.11-5.31,1.05-5.43,4.06-6.34,7.21-7,3.59-.77,3.05-3.19,5.27-4.62,1-.65,1.13-1.87.94-3.28,1.82.72,3.85,1.48,5.88,2.22a6.38,6.38,0,0,0,.39,2.67c.73,2,.36,3.07-.37,3.83-2.32-1-4.37-2-5.83-2.75C253.77,84.92,254.07,87.3,261.19,91.63Z" style="fill:#634833"/><path d="M283.08,95a1.61,1.61,0,0,1-.7.38c-.45-1.57,0-2.76-2.53-3-3.41-.36-2.15,1.44-.72,2.51a6.45,6.45,0,0,1,.6.53c-4.07-.6-10.8-3.29-16.12-5.67.73-.76,1.1-1.8.37-3.83a6.38,6.38,0,0,1-.39-2.67c5.14,1.88,10.28,3.61,12,4.11C280.39,88.71,285.61,92.4,283.08,95Z" style="fill:#f7eab7"/><path d="M278.28,99.62c-.78.25-1.52.47-1.76,1.47-.44,1.8-1.34,2.34-3.13,2.51a5.36,5.36,0,0,0-2.76,1.32c-4.12-2.26-8.4-4.71-12.09-6.87a12.22,12.22,0,0,0,.68-2c.68-2.58,1.15-3.62,2-4.44A106.82,106.82,0,0,0,278.28,99.62Z" style="fill:#f7eab7"/><path d="M282.28,101.27c-1.1,1-.65,3-1.53,5.92a6.83,6.83,0,0,1-1.18,2.37c-2.66-1.27-5.76-2.9-8.94-4.64a5.36,5.36,0,0,1,2.76-1.32c1.79-.17,2.69-.71,3.13-2.51.24-1,1-1.22,1.76-1.47h0Q280.48,100.46,282.28,101.27Z" style="fill:#634833"/><path d="M281.28,110.36l-1.71-.8a6.83,6.83,0,0,0,1.18-2.37c.88-2.94.43-4.91,1.53-5.92C299.63,109,289.67,114.16,281.28,110.36Z" style="fill:#f7eab7"/><path d="M263.34,79.33a6.47,6.47,0,0,0-.71-1.2c-2.16-2.87-6-5.56-5.86-2.51a16.5,16.5,0,0,0,.41,2.64c-10-2-6.19,0,.53,2.69.19,1.41.07,2.63-.94,3.28-2.22,1.43-1.68,3.85-5.27,4.62-3.15.67-6.16,1.58-7.21,7-1.46-1.1-2.81-2.14-4-3.08-2.84-2.15-6.83-3.41-11.36-4.12.13-2.36.89-5,3.59-4.79,4.84.36,9.15-1.44,9.41-6.64s2.61-13.81-7.8-13.81c-9.38,0-13.37-3.35-11.17-8.61,1.18,0,2.36,0,3.54,0,1.77,0,3.54-.05,5.31-.12,1.41-.06,2.82-.14,4.22-.21a27.8,27.8,0,0,0,4.89-.76c.59-.16,1.19-.32,1.78-.51a3.34,3.34,0,0,0,1.57,1.95,19,19,0,0,0,4.47.89c-3,2.59-1.41,2.3,2.49.59l.22.14c.81.62,2.8,1.29,4.08,2.28-1.91,1-3.63,1.77-5.07,2.4-6.51,2.8-2,1.37,6-1.44a1.73,1.73,0,0,1,.21.53,7.51,7.51,0,0,0,2.11,3.8,75.27,75.27,0,0,1-7.22,3c-9.28,3,1.51.66,9.58-1.28,1.07.73,2.12,1.53,2.18,2.15.07.82,2.15-1.12,2.52-3.19,5.94-1,7.85.33,4.56,3.38-3.77,3.48-11.3,3.61-17.76,4.26s9.33,1.26,14.71,3C272,77.2,275.67,81,263.34,79.33Z" style="fill:#f7eab7"/><path d="M241.9,77.23c-.26,5.2-4.57,7-9.41,6.64-2.7-.2-3.46,2.43-3.59,4.79a77.52,77.52,0,0,0-12.47-.76c-.47-4,2.15-6.48,2.6-10,.54-4.13-3.59-4.84-8.07-6.64s-3.59-2.69-3.59-10.05a13,13,0,0,1,2.27-7.59h0c1.8.23,3.6.45,5.4.62,2.62.26,5.25.45,7.89.52-2.2,5.26,1.79,8.61,11.17,8.61C244.51,63.42,242.17,72,241.9,77.23Z" style="fill:#634833"/><path d="M219,78c-.45,3.47-3.07,5.93-2.6,10-2.78,0-5.56.12-8.22.27-1.7.09-3.34.2-4.91.31l-.83,0-1.17.09s1.22-6.54-3.08-9.41-5.74-12.2-5-16.51,4-6.27,4-11l3.49.61c3,.52,5.92,1,8.91,1.38a13,13,0,0,0-2.27,7.59c0,7.36-.9,8.26,3.59,10.05S219.57,73.82,219,78Z" style="fill:#f7eab7"/><path d="M201.3,88.62c-3.2.24-7.49.63-12.42,1.08h0s-10.39-2.06-11.44-5.83-.92-4.66-3.85-8.25-4.43-2-2.45-10.05-3.95-14.53,0-16.2a14.71,14.71,0,0,1,6.3-1.48L185,49.37c4.06.79,8.13,1.56,12.25,2.31-.08,4.75-3.33,6.71-4,11s.71,13.63,5,16.51S201.3,88.62,201.3,88.62Z" style="fill:#634833"/><path d="M188.87,89.7l-8.19.79c-11.58,1.14-25,2.53-35.83,3.75-3.31.37-6.39.73-9.13,1.05-2.16.26-4.62.44-7.29.54-9.07.37-20.66,0-31.82-.69-7.67-.46-15.12-1-21.42-1.54l-3.52-.3h0l-4.21-.36h0l-6-.52c-12.8-1.08-36.24-5.14-39-6.22S18.87,88,16.83,92.42s-2.74,11.84-3.46,6,2.87-12,1.91-12.44S13,84.65,13,84.65c-3,.24-3.11,12.92-4.31,6.1s1.8-6.94.6-7.78-3.23-.12-5.74,4.66S-.39,93,.09,90.75c.07-.35.21-.84.4-1.47C3.77,79.58,14,72.81,15.76,71.73s2-1.68,2.87-4.41,5.38-3.48,8.61-5.86a6.21,6.21,0,0,0,2.5-4.28C31.5,56,33.24,55,34.93,54c.08,4.85-1.78,9-3.38,9.58-1.92.72-2.75,2.52-4.79,4.79s-2.27,1.2-4.54,1.35-2.64,4.39-5.15,7.86-3.82,3-2.63,4.3a6.05,6.05,0,0,0,4.19,2.4c1.79.11,1.67-3.11,3-4.31s1.67-3.47,4.54-4.55,2.28,1.68,4.91,2.76,2.39,5.14,1.91,6.57,2.75,1.44,4.9.72-.83-2.39-1-4.9,2.75-2.39,6-6.1,2.51-6.58.7-8.37-2.86-3.23-2.86-5.5,1.92-6.35,4.55-7.9a2.63,2.63,0,0,0,1-3.18q3-.86,6.68-1.77a11.89,11.89,0,0,1-2.57,5.07c-1.08,1.32-.47,3.71.84,5.62s1,4.43,2.63,5.75,3.11.59,4.55,2.51-1.67,3.94-4,3.82-2.51.12-3.11,1.56-2.39,6.34-3.94,10,2.15,6.21,4.78,7.56,2.39-.87,1.67-2.78,1.32-3.11-.12-4.78-.59-5.51.84-5.74,4.19-2.76,8.37-2.52,4.31,3.83,3.71,6.82,4.31,4.54,4.9,9,4,1.41,7.54,2.6,2.75,0,2-1.8-2-2.39-4.66-3.94S74.37,78.07,75,75s1.44-3.35-.71-5.23-5.62-2.66-7.78-3.86S65.4,58.69,68.15,55.1s1.67-3.46.83-7.22a5.86,5.86,0,0,1,.26-3.6c3.65-.67,7.44-1.32,11.29-1.91,1.65,3.75,1,5.44-.31,8-1.43,2.87.13,2.75,2.76,5.38s2.63,7.89,2.39,10.53,1.43,3.1,4.9,4.54,3.35,3,2.63,6-2.63,3.71-2.63,6.46,2.76,7.42,5.38,7.18,6.7,3.7,9.45,4.33.24-2.54,2.16-5,2.15-1.94-.13-5-2-4.43-2.26-7.54,1.79-4.55,5.82-6.7,5.06-1.91,4.1-6.46-7.41-5.85-11.72-8.61.83-3.7-1.07-6-.07-9.27,0-9.53q3.68-.3,7.22-.46h.1l1.39,0c.33,6.33,7.36,12.63,12,14.59s8.39,4.66,10.18,9.5S131.3,69.87,127,74.27s-5,5.83-3.6,10.67,2,5.21.37,8.26,2.33.89,6.28-.94,1.26-2.65,6.28-5.58,4.67-1.92,13.42-.3,9.72-3.59,10.36-9.87,1.16-5.74-4-7.71-8.8-3.41-8.83-5.92,0-5.75,5.78-8.62,11.66-4.48,9.32-6.38-.19-2.81,0-2.9c5.13,1,10.14,1.93,15.12,2.9a14.88,14.88,0,0,0-6.3,1.48c-3.95,1.67,2,8.13,0,16.21s-.48,6.46,2.45,10,2.79,4.49,3.85,8.26S188.87,89.7,188.87,89.7Z" style="fill:#f7eab7"/><path d="M29.75,57.19a6.23,6.23,0,0,1-2.51,4.27c-3.23,2.37-7.77,3.12-8.61,5.85s-1.08,3.34-2.87,4.42S3.77,79.58.5,89.29c1.1-3.5,4.12-10.84,8.08-15.11C12.19,70.29,21.09,62.85,29.75,57.19Z" style="fill:#634833"/><path d="M46.33,49.53a56.6,56.6,0,0,0-9.22,3.3c-.72.36-1.44.77-2.18,1.18.08,4.85-1.78,9-3.38,9.58-1.92.72-2.75,2.52-4.79,4.79s-2.27,1.2-4.54,1.35-2.64,4.39-5.15,7.86-3.82,3-2.63,4.3a6.05,6.05,0,0,0,4.19,2.4c1.79.11,1.67-3.11,3-4.31s1.67-3.47,4.54-4.55,2.28,1.68,4.91,2.76,2.39,5.14,1.91,6.57,2.75,1.44,4.9.72-.83-2.39-1-4.9,2.75-2.39,6-6.1,2.51-6.58.7-8.37-2.86-3.23-2.86-5.5,1.92-6.35,4.55-7.9A2.63,2.63,0,0,0,46.33,49.53ZM41.51,66.59a4,4,0,0,1,0,5c-2,1.52-2.43,4-4,5.11s-3.33.54-5.39-.9-2.15-2.06-4.21-2-5.29,1-3.23-.53a14.75,14.75,0,0,0,4.31-6c1.07-2.29,3.95-3.45,7-4.09S39.53,63.69,41.51,66.59Z" style="fill:#634833"/><path d="M79.15,92.3c-3.59-1.2-6.93,1.87-7.54-2.6s-5.49-6-4.9-9,.48-6.58-3.71-6.82-6.93,2.28-8.36,2.51-2.28,4.07-.84,5.74-.6,2.87.12,4.79.95,4.14-1.68,2.78-6.34-3.86-4.78-7.57,3.34-8.61,3.95-10,.83-1.68,3.1-1.55,5.39-1.92,4-3.84-2.87-1.19-4.54-2.51-1.32-3.82-2.64-5.74-1.91-4.3-.84-5.62A11.9,11.9,0,0,0,53,47.77c4.8-1.19,10.33-2.39,16.24-3.48A5.84,5.84,0,0,0,69,47.88c.83,3.75,1.91,3.64-.84,7.23s-3.83,9.56-1.67,10.76,5.62,2,7.77,3.86S75.56,71.85,75,75s-1.08,10,1.55,11.6,4,2.15,4.67,4S82.74,93.5,79.15,92.3Z" style="fill:#634833"/><path d="M110.7,70.41c-4,2.16-6.07,3.59-5.83,6.7s0,4.43,2.27,7.54,2,2.58.12,5,.59,5.66-2.15,5-6.82-4.58-9.46-4.34S90.27,86,90.27,83.21s1.92-3.47,2.64-6.46.84-4.54-2.64-6-5.14-1.91-4.9-4.54S85.61,58.34,83,55.7s-4.19-2.51-2.75-5.38c1.25-2.51,2-4.2.3-8,7.1-1.09,14.43-2,21.48-2.54-.08.26-1.87,7.31,0,9.54s-3.24,3.23,1.07,6,10.76,4.07,11.71,8.62S114.73,68.26,110.7,70.41Z" style="fill:#634833"/><path d="M150.83,43c-.12,0-.18,0-.17,0Z" style="fill:#f7eab7"/><path d="M265.78,65c-.37,2.07-2.45,4-2.52,3.19-.06-.62-1.11-1.42-2.18-2.15l1.91-.46C264,65.32,264.93,65.13,265.78,65Z" style="fill:#634833"/><path d="M265.83,59a3.14,3.14,0,0,0-.67,2.27c-2.21,1.11-4.41,2.17-6.44,3.1a7.51,7.51,0,0,1-2.11-3.8,1.73,1.73,0,0,0-.21-.53c2.92-1,6.3-2.25,9.76-3.51A3.34,3.34,0,0,1,265.83,59Z" style="fill:#634833"/><path d="M265.16,61.25a3.14,3.14,0,0,1,.67-2.27,3.34,3.34,0,0,0,.33-2.47c4.53-1.65,9.19-3.36,13.15-4.83C289.89,47.75,277.25,55.21,265.16,61.25Z" style="fill:#f7eab7"/><path d="M265.07,54c-3.36,1.87-6.68,3.63-9.57,5.08-1.28-1-3.27-1.66-4.08-2.28l-.22-.14c2.76-1.2,6.68-3.13,10.93-5.24a2.35,2.35,0,0,0,1.13.89A5.28,5.28,0,0,1,265.07,54Z" style="fill:#634833"/><path d="M281.5,44.29C277.22,47,271.06,50.67,265.07,54a5.28,5.28,0,0,0-1.81-1.69,2.35,2.35,0,0,1-1.13-.89c5.21-2.61,10.92-5.51,15.58-7.75l2,.13A3.28,3.28,0,0,1,281.5,44.29Z" style="fill:#f7eab7"/><path d="M286.7,40.61a47.62,47.62,0,0,1-5.2,3.68,3.28,3.28,0,0,0-1.83-.51l-2-.13a79.46,79.46,0,0,1,8-3.51C286.05,40.3,286.37,40.45,286.7,40.61Z" style="fill:#634833"/><path d="M286.7,40.61c-.33-.16-.65-.31-.95-.47C287.31,39.64,287.5,39.86,286.7,40.61Z" style="fill:#f7eab7"/><path d="M274.11,41.63h0c-.45-2.06-1.8-1.7-3.41-2.15-.78-.22-2.28-.5-3.67-.91,2.47-1.44,5-2.81,7.47-4.06h0a5.56,5.56,0,0,1,5.26.85,31.87,31.87,0,0,1,2.95,2.18C279.94,38.82,277,40.2,274.11,41.63Z" style="fill:#634833"/><path d="M274.11,41.62h0c-4.79,2.33-9.58,4.77-13.79,7.07a9.28,9.28,0,0,0-5.54-2.09,116.54,116.54,0,0,1,12.25-8c1.39.41,2.89.69,3.67.91C272.31,39.92,273.66,39.56,274.11,41.62Z" style="fill:#f7eab7"/><path d="M260.32,48.7a75.4,75.4,0,0,0-11.61,7.35,19,19,0,0,1-4.47-.89,3.34,3.34,0,0,1-1.57-1.95,38.09,38.09,0,0,0,11.7-6.3c.14-.1.27-.21.41-.3A9.28,9.28,0,0,1,260.32,48.7Z" style="fill:#634833"/><path d="M298.46,30.36c-3.13,1.38-9,4-15.75,7.16a31.87,31.87,0,0,0-2.95-2.18,5.56,5.56,0,0,0-5.26-.85c8.69-4.42,17-7.64,21.32-8C300.57,26,299.79,28.33,298.46,30.36Z" style="fill:#f7eab7"/><path d="M282.38,95.33a6.43,6.43,0,0,1-2.65,0,6.45,6.45,0,0,0-.6-.53c-1.43-1.07-2.69-2.87.72-2.51C282.42,92.57,281.93,93.76,282.38,95.33Z" style="fill:#634833"/><path d="M147.23,62.88c0,2.51,3.63,3.93,8.83,5.91s4.68,1.45,4.05,7.72S158.49,88,149.74,86.38s-8.39-2.63-13.42.3S134,90.41,130,92.25s-7.89,4-6.28,1,1.06-3.41-.37-8.25-.7-6.28,3.6-10.68,7.72-6,5.92-10.85-5.47-7.54-10.18-9.51-11.69-8.26-12-14.59a116.49,116.49,0,0,1,16.82.42l3.78.43c0,.3.54,7.33,3.81,9.2a4.1,4.1,0,0,0,6.23-2.83c0-1.84,3.09-4.59,3.09-4.59,2.1.32,4.18.65,6.22,1,0,0,.05.05.17,0,3.91.65,7.73,1.33,11.49,2-.18.08-2.23,1.07,0,2.89s-3.58,3.52-9.32,6.39S147.2,60.37,147.23,62.88Z" style="fill:#634833"/><path d="M110.7,39.13a11.53,11.53,0,0,1-1.37.24Z" style="fill:#f7eab7"/><path d="M181.53,42.55c-.35.66-.65,1.1-.81,1.43a122.34,122.34,0,0,1-13.3.36c-4.41-.38,6.7-1,9.69-2.15,2.39-1-7.76-.26-14.68.53h0a5.35,5.35,0,0,0-1.59-.77C165.2,40.47,172,38.23,173.64,37c2.7-2-4.71-2.56-18.09,3.8a1.56,1.56,0,0,1-.42-1c4.82-3,11.86-7.19,12.05-7.5.36-.6,1-5.38-8.57.6-3,1.85-5.06,3.33-6.58,4.47h0a1.53,1.53,0,0,1-1.49-.54c4.06-3.5,10.47-8.57,11.63-10.5s2.09-4.11-4.17-.32a3.57,3.57,0,0,1,0-1.41c.32-1.39-1.36-1.31-2.8-1.57,2-3.36,3.9-8-2.52-6.64A11.31,11.31,0,0,0,147.17,20c-1.55,0-1.93-.75-2-2.55,5.78-8.26,5.6-9.66,2.09-9.38-1.41.12-3.37,2.18-5.49,5.17a1.93,1.93,0,0,1-1.29-1.08,2.51,2.51,0,0,0-1.17-1.36c3.42-6.77,2.65-7.7.15-7.43-1.33.14-3.9,4.27-6.72,9.65-.77-.17-1.17-1.09-.87-2.84a1.5,1.5,0,0,0-.8-1.78c2.61-3.81,4.94-6.61,6-7,2.87-1.07,2.87-2,5.38,0s5.21-4.3,8.08.54,5.56,5.56,5.2,8.25,3.41,1.08,3.05,5.56S167.18,22,167,25.2s2.15,5.57,6.82,6.1,4.84,1.44,3.77,3.77-3.05,2.15.54,3.23S182.61,40.53,181.53,42.55Z" style="fill:#826551"/><path d="M132.71,13c-1.35,2.56-2.75,5.41-4.1,8.23a7.94,7.94,0,0,1-3.72-.89,53.14,53.14,0,0,1,3.45-7.81l0-.08c.89-1.43,1.78-2.8,2.65-4.07a1.5,1.5,0,0,1,.8,1.78C131.54,11.88,131.94,12.8,132.71,13Z" style="fill:#634833"/><path d="M263.34,79.33c-1.73-.25-3.77-.59-6.16-1.07a16.5,16.5,0,0,1-.41-2.64c-.11-3.05,3.7-.36,5.86,2.51A6.47,6.47,0,0,1,263.34,79.33Z" style="fill:#634833"/><path d="M162.42,42.72c-1.73.2-3.25.4-4.33.59-2.25.38-.39-.29,2.74-1.36A5.35,5.35,0,0,1,162.42,42.72Z" style="fill:#634833"/><path d="M185,49.37l-7.56-1.48c-5-1-10-2-15.11-2.9-3.76-.7-7.58-1.38-11.49-2a29.29,29.29,0,0,0,3.91-1.73l.81-.39c13.38-6.36,20.79-5.78,18.09-3.8-1.6,1.19-8.44,3.43-12.81,4.91-3.13,1.07-5,1.74-2.74,1.36,1.08-.19,2.6-.39,4.33-.59h0c6.92-.79,17.07-1.49,14.68-.53-3,1.19-14.1,1.77-9.69,2.15a122.34,122.34,0,0,0,13.3-.36c-.36.68-.17.84,1.24,1.32C184.05,46,185.93,46.62,185,49.37Z" style="fill:#e5d6a5"/><path d="M99,112.64a30.85,30.85,0,0,1-4.61-.74h0s0,0,0,0c-.53-.24-4.13-1.87-5.5-3.89l1.33.94.3.21a4.4,4.4,0,0,0,.52.3,1.19,1.19,0,0,0,.25.13c.1,0,.2.09.3.12a2.6,2.6,0,0,0,.36.13,39.33,39.33,0,0,0,6.41.54C99.84,111.08,101,112.51,99,112.64Z" style="fill:#f7eab7"/><path d="M97.4,108s-4-1.43-5.21-.72-2.39.1-3,.26c-.23.06-.13.35.18.7l.15.17c.06.07.13.12.19.18l0,0a4.69,4.69,0,0,0,.4.33L88.82,108a3.27,3.27,0,0,1-.46-.94c-.59-2.11-.21-2.79-1.77-4.36a12.1,12.1,0,0,1,4.52.5c1.49.66,2.39,1.13,1.43-.51S89.49,101.33,87,101,85,99.86,83,99.66c-2.77-2.32-5.24-4.73-1.17-3.46S94,97.76,97.07,97.79A3.34,3.34,0,0,1,95.65,100c-1.31,1-.47,3.58.61,4.54S95.42,106.54,97.4,108Z" style="fill:#f7eab7"/><path d="M97.07,97.79l-.46-2.65A4.32,4.32,0,0,1,97.07,97.79Z" style="fill:#f7eab7"/><path d="M98.29,110.36a39.33,39.33,0,0,1-6.41-.54,2.6,2.6,0,0,1-.36-.13c-.1,0-.2-.08-.3-.12l-.25-.13a4.4,4.4,0,0,1-.52-.3l-.3-.21a4.69,4.69,0,0,1-.4-.33l0,0c-.06-.06-.13-.11-.19-.18l-.15-.17c-.31-.35-.41-.64-.18-.7.61-.16,1.74.46,3-.26s5.21.72,5.21.72C99.39,109.41,96.73,109.64,98.29,110.36Z" style="fill:#563c2b"/><path d="M67.43,92.94h0Z" style="fill:#f7eab7"/><path d="M86.59,102.69c-.55,0-1.06.06-1.46.09-.94.1-1.1.92-1.35,1.67a1.7,1.7,0,0,1-.69,1.07c-1,.59-3.1-.36-3.1-.36-4.07-1.56-2.21-3-1-4.07l0,0a4.26,4.26,0,0,1,3.92-1.42H83c.76.64,1.55,1.29,2.23,1.82S86.24,102.35,86.59,102.69Z" style="fill:#563c2b"/><path d="M91.11,103.19a12.1,12.1,0,0,0-4.52-.5c-.35-.34-.8-.73-1.37-1.21S83.75,100.3,83,99.66c2,.2,1.63,1.07,4.05,1.37s4.55,0,5.5,1.65S92.6,103.85,91.11,103.19Z" style="fill:#826551"/><path d="M94.32,111.88c-5.5-1.14-14-3.29-16.61-4.39C74.07,106,67.64,93.34,67.44,92.94h0l4.21.36a2.11,2.11,0,0,0-1.46,1.59.68.68,0,0,0,.16.46c.48.54,1,.6,1.5,2s.71,2.15,1.25,1.62a2.09,2.09,0,0,0,.72-1.5,6.3,6.3,0,0,0,0-1.07,3.61,3.61,0,0,1,1.36-2.77c6.3.51,13.75,1.08,21.42,1.54l.46,2.65c-3,0-11.11-.28-15.25-1.59s-1.6,1.14,1.17,3.46h-.08A4.26,4.26,0,0,0,79,101.07l0,0c-1.19,1.08-3,2.51,1,4.07,0,0,2.09,1,3.1.36a1.7,1.7,0,0,0,.69-1.07c.25-.75.41-1.57,1.35-1.67.4,0,.91-.07,1.46-.09,1.56,1.57,1.18,2.25,1.77,4.36a3.27,3.27,0,0,0,.46.94C90.19,110,93.79,111.64,94.32,111.88Z" style="fill:#e5d6a5"/><path d="M73.83,96.37a6.3,6.3,0,0,1,0,1.07,2.09,2.09,0,0,1-.72,1.5c-.54.53-.78-.24-1.25-1.62s-1-1.43-1.5-2a.68.68,0,0,1-.16-.46,2.11,2.11,0,0,1,1.46-1.59h0l3.52.3A3.61,3.61,0,0,0,73.83,96.37Z" style="fill:#563c2b"/><path d="M148.64,99.62c-1.55,1.7-1.43,2-1.41,4.16s-.14,3.83-1.58,5.51-1.43,3-2.75,3.35c-.63.17-.41,1.46-.38,2.5-2.34-1.09-5.36-2.8-6.93-5.14,0-.67,0-1.29,0-1.91,0-1.44,1.43-2,2-3.32s.62-1.88,4.13-2.51,1.43-2,1.16-4.58v0a23.68,23.68,0,0,0,5.65-2.1c.77.1,1.48.17,1.92.27C151.75,96.13,150.19,97.92,148.64,99.62Z" style="fill:#563c2b"/><path d="M148.52,95.56a23.68,23.68,0,0,1-5.65,2.1c-.23-2.47,2.6-2.7,2.83-2.71A11.64,11.64,0,0,0,148.52,95.56Z" style="fill:#826551"/><path d="M140.63,115.86c-1.33-1-2.83-1.81-4.18-2.88a7,7,0,0,1-.86-3c1.57,2.34,4.59,4,6.93,5.14C142.56,116.27,142.38,117.12,140.63,115.86Z" style="fill:#826551"/><path d="M142.87,97.66c-5.17,1.19-8.7.2-8.34,1.45.48,1.67-.36,2.16,0,7.94a5.86,5.86,0,0,0,1.06,3,7,7,0,0,0,.86,3,9.15,9.15,0,0,1-3.95-7.27,16.75,16.75,0,0,0-4.07-9.88c2.68-.1,5.14-.28,7.3-.54,2.73-.32,5.81-.68,9.12-1a1.5,1.5,0,0,0,.85.7C145.47,95,142.64,95.19,142.87,97.66Z" style="fill:#e5d6a5"/><path d="M208.42,107.37c-2.32-1.55-4.82-3.36-7.51-5.5l-.63-.5a3.66,3.66,0,0,1,.81-1.68,1.7,1.7,0,0,0,.31-.48,75.66,75.66,0,0,0,6.41,4.5A6.63,6.63,0,0,0,208.42,107.37Z" style="fill:#563c2b"/><path d="M223.39,114.55c-3.74-.88-8.71-3-15-7.18a6.63,6.63,0,0,1-.61-3.66,133.3,133.3,0,0,0,16.9,8.92h0C226.09,113.89,227.21,115.44,223.39,114.55Z" style="fill:#e5d6a5"/><path d="M200.55,98.52l.85.69a1.7,1.7,0,0,1-.31.48,3.66,3.66,0,0,0-.81,1.68,78.06,78.06,0,0,0-19.6-10.88l8.19-.79h0a27,27,0,0,1,4.67.63c1.44.45,1.89,2.87,4.58,4.62,1.84,1.2,3.1,2.38,3.33,3.41C197.76,95.91,195.89,94.68,200.55,98.52Z" style="fill:#e5d6a5"/><path d="M297.43,114.37c.27,5-2.42,7-10.35,5a104.31,104.31,0,0,1-10-5.53c-2.82-1.74-5.6-3.6-8.26-5.46-4.37-3.08-8.39-6.16-11.59-8.76-5.63-4.57-8.7-7.61-6.66-6.36,1.8,1.1,4.63,2.81,7.93,4.75,3.69,2.16,8,4.61,12.09,6.87,3.18,1.74,6.28,3.37,8.94,4.64l1.71.8c8.39,3.8,18.35-1.34,1-9.09q-1.8-.81-4-1.65h0a106.82,106.82,0,0,1-17.09-8c-7.12-4.33-7.42-6.71-3.41-4.71,1.46.72,3.51,1.71,5.83,2.75,5.32,2.38,12.05,5.07,16.12,5.67a6.43,6.43,0,0,0,2.65,0,1.61,1.61,0,0,0,.7-.38c2.53-2.55-2.69-6.24-7.52-7.67-1.69-.5-6.83-2.23-12-4.11-2-.74-4.06-1.5-5.88-2.22-6.72-2.66-10.51-4.69-.53-2.69,2.39.48,4.43.82,6.16,1.07,12.33,1.71,8.67-2.13,4-3.68-5.38-1.76-21.17-2.37-14.71-3s14-.78,17.76-4.26c3.29-3.05,1.38-4.41-4.56-3.38-.85.14-1.78.33-2.79.58l-1.91.46C253,68,242.22,70.34,251.5,67.31a75.27,75.27,0,0,0,7.22-3c2-.93,4.23-2,6.44-3.1,12.09-6,24.73-13.5,14.15-9.57-4,1.47-8.62,3.18-13.15,4.83C262.7,57.77,259.32,59,256.4,60c-7.95,2.81-12.48,4.24-6,1.44,1.44-.63,3.16-1.44,5.07-2.4,2.89-1.45,6.21-3.21,9.57-5.08,6-3.31,12.15-6.95,16.43-9.69a47.62,47.62,0,0,0,5.2-3.68c.8-.75.61-1-.95-.47a79.46,79.46,0,0,0-8,3.51c-4.66,2.24-10.37,5.14-15.58,7.75-4.25,2.11-8.17,4-10.93,5.24-3.9,1.71-5.5,2-2.49-.59a75.4,75.4,0,0,1,11.61-7.35c4.21-2.3,9-4.74,13.79-7.07,2.92-1.43,5.83-2.81,8.6-4.11,6.73-3.15,12.62-5.78,15.75-7.16-.88,1.32-2,2.52-1.93,2.74.18.54-.71,2.33-.53,4.48s-2,3.05-2.87,6.1-5.57,14.89-14.54,21.53-6.28,10.59-1.25,14.48,11.3,13.87,13.45,15.3-.53,2.87,2.52,5.56.53,2.34,2.15,4.13S297.07,107.55,297.43,114.37Z" style="fill:#826551"/><path d="M144.44,42s-3.09,2.75-3.09,4.59a4.1,4.1,0,0,1-6.23,2.83c-3.27-1.87-3.78-8.9-3.81-9.2C135.84,40.71,140.2,41.31,144.44,42Z" style="fill:#f7eab7"/><path d="M155.55,40.84l-.81.39A29.29,29.29,0,0,1,150.83,43l-.17,0a27.48,27.48,0,0,1,4.47-3.06A1.56,1.56,0,0,0,155.55,40.84Z" style="fill:#634833"/><path d="M152,37.45c-3.37,2.56-3.86,3.44-4.79,3.06-.48-.19,1.05-1.66,3.3-3.6A1.53,1.53,0,0,0,152,37.45Z" style="fill:#634833"/><path d="M154.65,28.23c-2.89,1.93-6.72,4.62-11.75,8.33,0,0-2.63,2.76-4.3,2.4-1.51-.32,10.67-9,14.65-13.07a2.44,2.44,0,0,1,.12.52A3.06,3.06,0,0,0,154.65,28.23Z" style="fill:#826551"/><path d="M158,24.68a3.57,3.57,0,0,0,0,1.41c-.94.57-2.05,1.28-3.34,2.14a3.06,3.06,0,0,1-1.28-1.82,2.44,2.44,0,0,0-.12-.52,8.51,8.51,0,0,0,1-1.21c.3-.46.64-1,1-1.57C156.67,23.37,158.35,23.29,158,24.68Z" style="fill:#634833"/><path d="M147.17,20a32.93,32.93,0,0,0-3.23,3.95,5.92,5.92,0,0,1-3-.54q.76-1.14,1.65-2.34,1.44-2,2.59-3.62C145.24,19.2,145.62,20,147.17,20Z" style="fill:#634833"/><path d="M143.94,23.9c-3.35,4.74-6.05,10.35-8,12.55-3.16,3.6-2-2.91,4.94-13.09A5.92,5.92,0,0,0,143.94,23.9Z" style="fill:#826551"/><path d="M130.28,33.4c-2.52,4.56-3.7,3.67-1.84-1.59A1.73,1.73,0,0,1,130.28,33.4Z" style="fill:#634833"/><path d="M137.68,19.6c-2.57,4.4-5.05,9.21-6.86,12.78-.19.37-.37.7-.54,1a1.73,1.73,0,0,0-1.84-1.59A72.86,72.86,0,0,1,134.17,20,5.18,5.18,0,0,1,137.68,19.6Z" style="fill:#826551"/><path d="M141.74,13.19c-1.32,1.86-2.7,4.08-4.06,6.41a5.18,5.18,0,0,0-3.51.4c2.27-3.9,3.93-6.92,5.11-9.25a2.51,2.51,0,0,1,1.17,1.36A1.93,1.93,0,0,0,141.74,13.19Z" style="fill:#634833"/><path d="M128.61,21.2c-1.9,4-3.69,7.88-5.08,10.94a1.11,1.11,0,0,1-.72-.84,2.8,2.8,0,0,0-.89-1.35c.76-2.95,1.79-6.39,3-9.64A7.94,7.94,0,0,0,128.61,21.2Z" style="fill:#826551"/><path d="M123.53,32.14l-1.92,4.19c-1.66,3.56-1.23-.41.31-6.38a2.8,2.8,0,0,1,.89,1.35A1.11,1.11,0,0,0,123.53,32.14Z" style="fill:#634833"/><path d="M167.18,32.38c-.19.31-7.23,4.49-12.05,7.5a27.48,27.48,0,0,0-4.47,3.06c-2-.34-4.12-.67-6.22-1-4.24-.64-8.6-1.24-13.13-1.78l-3.78-.43a116.49,116.49,0,0,0-16.82-.42,1.21,1.21,0,0,1,0-.19,12.11,12.11,0,0,0,9.3-9.26c.08-.35.18-.71.29-1.09a55.5,55.5,0,0,1,3.85-8.94h0c1.29-2.47,2.74-5,4.2-7.34a53.14,53.14,0,0,0-3.45,7.81c-1.18,3.25-2.21,6.69-3,9.64-1.54,6-2,9.94-.31,6.38l1.92-4.19c1.39-3.06,3.18-7,5.08-10.94,1.35-2.82,2.75-5.67,4.1-8.23,2.82-5.38,5.39-9.51,6.72-9.65,2.5-.27,3.27.66-.15,7.43-1.18,2.33-2.84,5.35-5.11,9.25a72.86,72.86,0,0,0-5.73,11.81c-1.86,5.26-.68,6.15,1.84,1.59.17-.32.35-.65.54-1,1.81-3.57,4.29-8.38,6.86-12.78,1.36-2.33,2.74-4.55,4.06-6.41,2.12-3,4.08-5,5.49-5.17,3.51-.28,3.69,1.12-2.09,9.38Q144,19,142.55,21q-.88,1.2-1.65,2.34C134,33.54,132.8,40.05,136,36.45c1.93-2.2,4.63-7.81,8-12.55A32.93,32.93,0,0,1,147.17,20a11.31,11.31,0,0,1,5.54-3.48c6.42-1.34,4.48,3.28,2.52,6.64-.33.57-.67,1.11-1,1.57a8.51,8.51,0,0,1-1,1.21C149.27,30,137.09,38.64,138.6,39c1.67.36,4.3-2.4,4.3-2.4,5-3.71,8.86-6.4,11.75-8.33,1.29-.86,2.4-1.57,3.34-2.14,6.26-3.79,5.37-1.7,4.17.32s-7.57,7-11.63,10.5c-2.25,1.94-3.78,3.41-3.3,3.6.93.38,1.42-.5,4.79-3.06h0c1.52-1.14,3.61-2.62,6.58-4.47C168.23,27,167.54,31.78,167.18,32.38Z" style="fill:#e5d6a5"/><path d="M141.71,102.26c-3.51.63-3.59,1.17-4.13,2.51s-2,1.88-2,3.32c0,.62-.05,1.24,0,1.91a5.86,5.86,0,0,1-1.06-3c-.36-5.78.48-6.27,0-7.94-.36-1.25,3.17-.26,8.34-1.45v0C143.14,100.28,145.21,101.63,141.71,102.26Z" style="fill:#f7eab7"/><path d="M206.56,92.94c-.87-1.6-3.21-1.64-4.09-4.41l.83,0C207.61,90.74,209.52,93.74,206.56,92.94Z" style="fill:#e5d6a5"/><path d="M208,102.56c-2.23-1.37-4.61-3-6.51-4.2-.23-1-1.49-2.21-3.33-3.41-2.69-1.75-3.14-4.17-4.58-4.62a27,27,0,0,0-4.67-.63c4.93-.45,9.22-.84,12.42-1.08l1.17-.09c.88,2.77,3.22,2.81,4.09,4.41-3-.8-9-2.79-3.45,0A36,36,0,0,1,207,95.26a18.36,18.36,0,0,0,.38,1.85l-.64-.38c-9.16-5.45-10.58-3.56-4.25.11,1.71,1,3.66,2.2,5.51,3.39A11.36,11.36,0,0,1,208,102.56Z" style="fill:#563c2b"/><path d="M207.36,97.11a18.36,18.36,0,0,1-.38-1.85C211,98,213.59,100.74,207.36,97.11Z" style="fill:#e5d6a5"/><path d="M213.71,105.58a30.77,30.77,0,0,1-5.74-3,11.36,11.36,0,0,0,0-2.33C213,103.45,217.2,106.63,213.71,105.58Z" style="fill:#e5d6a5"/><path d="M224.71,112.63a133.3,133.3,0,0,1-16.9-8.92,75.66,75.66,0,0,1-6.41-4.5l-.85-.69c-4.66-3.84-2.79-2.61.91-.16,1.9,1.25,4.28,2.83,6.51,4.2a30.77,30.77,0,0,0,5.74,3c3.49,1-.73-2.13-5.73-5.35-1.85-1.19-3.8-2.39-5.51-3.39-6.33-3.67-4.91-5.56,4.25-.11l.64.38c6.23,3.63,3.62.87-.38-1.85a36,36,0,0,0-3.87-2.32c-5.55-2.79.48-.8,3.45,0s1.05-2.2-3.26-4.46c1.57-.11,3.21-.22,4.91-.31a16.16,16.16,0,0,0,2.27,2.16c1.32,1,.6,3,1.32,5.88s4.06,6.62,6.1,7.22,2.39,3.46,4.44,4.54-.26,2.63,1,3.59A14.18,14.18,0,0,1,224.71,112.63Z" style="fill:#826551"/><path d="M41.51,66.59c-2-2.9-2.51-4-5.57-3.36S30,65,29,67.32a14.75,14.75,0,0,1-4.31,6c-2.06,1.52,1.17.62,3.23.53s2.15.54,4.21,2,3.77,2.07,5.39.9,2.06-3.59,4-5.11A4,4,0,0,0,41.51,66.59Zm-4.6,6.56a4.49,4.49,0,1,1,1.12-8,4.49,4.49,0,0,1-1.12,8Z" style="fill:#ba9175"/><path d="M40,68.89a4.5,4.5,0,0,1-3.07,4.26,3.56,3.56,0,0,1,1.4-2.44c.9-.65,0-1.22-.79-1.95a4.2,4.2,0,0,1-.41-.44c-.78-1,.92-3.13.92-3.13A4.5,4.5,0,0,1,40,68.89Z" style="fill:#eae3dd"/><path d="M38.31,70.71a3.56,3.56,0,0,0-1.4,2.44A4.53,4.53,0,0,1,32,71.71c.4-.5,1.22-.4,2.05-.88s.24-.35-.6-1.66l-.13-.23c-.38-.79.1-1.24.81-1.71.31-.2.66-.41,1-.64a1.62,1.62,0,0,0,.36-2.19,4.47,4.47,0,0,1,2.54.79s-1.7,2.17-.92,3.13a4.2,4.2,0,0,0,.41.44C38.3,69.49,39.21,70.06,38.31,70.71Z" style="fill:#2b2b2b"/><path d="M35.13,66.59c-.33.23-.68.44-1,.64-.71.47-1.19.92-.81,1.71l.13.23c.84,1.31,1.44,1.18.6,1.66s-1.65.38-2.05.88a4.43,4.43,0,0,1-1-2.82,4.49,4.49,0,0,1,4.48-4.49A1.62,1.62,0,0,1,35.13,66.59Z" style="fill:#eae3dd"/><circle cx="37.41" cy="67.28" r="1.28" style="fill:#eae3dd"/></g></g></svg>