<svg width="1512" height="982" viewBox="0 0 1512 982" fill="none" xmlns="http://www.w3.org/2000/svg">
<g clip-path="url(#clip0_40_699)">
<rect width="1512" height="982" fill="#DBF5E5"/>
<rect width="1512" height="844" fill="#00E0EF"/>
<path d="M501.263 -549.594C351.129 -258.483 35.6892 424.391 -25 827H1585C1573.87 652.904 1461.45 255.623 1100.79 59.2659C740.118 -137.091 522.504 -579.086 501.263 -549.594Z" fill="#018497"/>
<path d="M1336.09 45.8113C1500.96 213.76 1847.35 607.726 1914 840H146C158.218 739.56 281.67 510.36 677.733 397.077C1073.8 283.793 1312.77 28.7968 1336.09 45.8113Z" fill="#0397AD"/>
<path d="M681.879 144.709C717.159 398.444 1468.81 635.943 1507 839H0C7.00063 751.194 0 446.5 0 446.5C301.244 525.33 532 117.5 681.879 144.709Z" fill="#00AAC3"/>
<path d="M1098.14 603.014C888.669 632.627 278.767 579.343 0 549V827H1512V565.997C1461.33 565.997 1307.61 573.401 1098.14 603.014Z" fill="#01BDDA"/>
<path d="M1599 477C1335.87 492.471 880.748 598.041 712 838H1599V477Z" fill="#00CDEC"/>
<path d="M1122 716C1057.78 720.312 979.696 775.471 947 838L1742 838V816.438C1713 820.391 1629.78 800.051 1528.89 687.067C1402.78 545.837 1300.02 604.593 1264.41 621.843C1228.8 639.092 1186.22 711.688 1122 716Z" fill="#00C0ED"/>
<path d="M282.917 656C133.041 657.565 5.85732 777.319 -39 837H495C394.203 837 310 655.717 282.917 656Z" fill="#00B6F2"/>
<path d="M1064.5 747.675C1000.1 741.275 919.333 805.342 887 838.175H1584.5C1584.83 804.175 1568.8 735.775 1502 734.175C1418.5 732.175 1364 747.675 1268 761.175C1172 774.675 1145 755.675 1064.5 747.675Z" fill="#00B6F2"/>
<rect width="1512" height="844" fill="url(#paint0_linear_40_699)"/>
<rect x="146.311" y="875.229" width="1218.38" height="54.7703" fill="#1A445F"/>
<path d="M1242 342.204L1336 296V862L1242 815.294V342.204Z" fill="white" fill-opacity="0.5"/>
<path d="M269 815.73L181 859L181 298L269 341.27L269 815.73Z" fill="white" fill-opacity="0.5"/>
<rect x="270.076" y="340.078" width="971.842" height="475.843" fill="white" fill-opacity="0.3"/>
<path d="M269.625 813.613H1241.34L1364.69 875.23H146.311L269.625 813.613Z" fill="#2C6878"/>
<rect x="1239.46" y="342.173" width="2.9465" height="472.914" fill="url(#paint1_linear_40_699)"/>
<rect x="268.592" y="342.173" width="2.9465" height="472.914" fill="url(#paint2_linear_40_699)"/>
<rect x="169.883" y="287.663" width="11.786" height="583.407" fill="url(#paint3_linear_40_699)"/>
<rect x="1335.22" y="287.663" width="11.786" height="583.407" fill="url(#paint4_linear_40_699)"/>
<rect x="1364.69" y="282.03" width="1218.38" height="54.7703" transform="rotate(-180 1364.69 282.03)" fill="#1A445F"/>
<path d="M1364.69 227.259L146.311 227.259L175.776 214L1335.22 214L1364.69 227.259Z" fill="#3C6B75"/>
<path d="M1241.37 343.646L269.662 343.646L146.311 282.029L1364.69 282.029L1241.37 343.646Z" fill="#257588"/>
<path d="M548.168 764.787C507.168 797.42 510.373 831.471 518.558 846.396L512.78 845.313L507.002 844.23C497.757 810.141 513.743 786.694 522.891 779.231C577.201 725.499 536.614 723.621 530.835 707.733C526.537 654.578 540.6 611.439 548.168 596.513C550.576 604.457 553.946 622.657 548.168 631.901C542.391 641.145 540.948 691.122 547.447 699.788C564.058 717.121 583.557 736.621 548.168 764.787Z" fill="url(#paint5_linear_40_699)"/>
<path d="M525.885 764.065C500.815 801.791 502.825 829.142 507.83 846.397L503.676 845.144L500.143 843.892C494.491 804.484 504.265 777.377 509.859 768.749C543.067 706.631 507.21 703.713 503.676 685.345C495.553 579.181 527.757 574.769 532.385 557.514C533.857 566.699 522.196 602.437 518.663 613.124C515.131 623.811 514.689 661.604 518.663 671.623C528.821 691.661 547.524 731.503 525.885 764.065Z" fill="url(#paint6_linear_40_699)"/>
<path d="M452.988 749.62C445.403 788.314 473.608 831.212 469.361 846.396L472.36 845.294L475.358 844.192C480.154 809.513 435.322 767.685 487.63 744.565C525.212 727.954 512.932 652.634 508.595 650.678C457.324 627.568 451.925 607.364 447.998 592.18C446.748 600.262 456.644 631.712 459.642 641.116C462.639 650.521 503.546 637.679 497.043 695.455C488.423 713.088 459.642 715.677 452.988 749.62Z" fill="url(#paint7_linear_40_699)"/>
<path d="M430.604 758.287C430.604 781.976 475.381 821.841 475.381 846.396H491.268C484.046 811.008 473.935 811.731 457.325 791.509C440.538 771.073 449.38 748.176 430.604 718.566C415.583 694.878 412.309 666.808 412.549 655.734C410.142 656.938 405.471 664.689 406.049 686.067C406.771 712.788 430.604 728.677 430.604 758.287Z" fill="url(#paint8_linear_40_699)"/>
<path d="M456.533 708.225C456.533 745.373 490.665 807.89 490.665 846.396H502.776C497.271 790.901 489.563 792.034 476.901 760.322C464.105 728.275 470.845 692.369 456.533 645.935C445.082 608.787 442.586 564.769 442.769 547.403C440.934 549.291 437.374 561.447 437.815 594.97C438.365 636.875 456.533 661.791 456.533 708.225Z" fill="url(#paint9_linear_40_699)"/>
<path d="M466.666 837.729H518.665V846.396H466.666V837.729Z" fill="#3B3023"/>
<path d="M859.656 813.037C855.569 820.19 842.2 832.196 836.026 837.305C824.105 846.672 821.976 864.511 908.831 860.935C995.686 857.358 1079.56 839.434 1110.64 830.919C1107.87 823.894 1102.59 803.329 1103.62 777.273C1104.89 744.702 1084.46 731.291 1079.99 726.182C1075.52 721.073 1083.82 714.686 1084.46 708.939C1085.1 703.191 1034.64 698.082 1019.95 711.493C1005.27 724.905 982.275 730.652 967.586 740.871C952.897 751.089 936.931 769.609 917.133 784.298C897.336 798.987 864.765 804.096 859.656 813.037Z" fill="url(#paint10_linear_40_699)"/>
<path fill-rule="evenodd" clip-rule="evenodd" d="M1088.89 735.019C1088.9 735.053 1088.91 735.088 1088.92 735.123C1092.5 746.363 1060.61 760.669 1044.22 766.417C1056.99 756.709 1060.61 748.322 1060.82 745.341C1055.71 753.009 1027.28 768.449 1009.26 778.238C1004.76 780.679 1000.91 782.769 998.237 784.298C991.843 787.952 983.707 789.574 975.698 791.17C966.907 792.922 958.27 794.643 952.255 798.987C943.059 805.629 888.391 841.776 862.207 859.019C862.033 859.194 861.16 859.62 859.959 860.158C871.71 861.404 887.616 861.808 908.83 860.935C995.685 857.358 1079.56 839.434 1110.64 830.919C1107.87 823.894 1102.59 803.329 1103.61 777.273C1104.45 756.063 1096.07 742.978 1088.89 735.019Z" fill="url(#paint11_linear_40_699)"/>
<path fill-rule="evenodd" clip-rule="evenodd" d="M1103.3 767.193C1096.7 782.04 1070.56 807.004 1057 811.759C1067.17 804.031 1062.63 787.021 1060.46 778.902C1059.91 776.822 1059.51 775.326 1059.55 774.718C1053.17 784.298 1013.57 811.121 1000.16 818.784C993.616 822.523 980.84 823.07 968.135 823.614C954.8 824.184 941.544 824.751 935.657 829.003C932.406 831.351 927.504 836.681 921.368 843.353C916.46 848.689 910.763 854.884 904.49 861.098C905.913 861.049 907.361 860.995 908.835 860.934C995.69 857.358 1079.56 839.433 1110.65 830.918C1107.88 823.893 1102.6 803.329 1103.62 777.272C1103.76 773.685 1103.64 770.33 1103.3 767.193Z" fill="url(#paint12_linear_40_699)"/>
<path d="M1087.01 807.718C1085.81 809.323 1088.62 809.724 1069.76 838.21C1061.41 851.388 1092.76 857.61 1109.48 859.073L1115.1 854.66C1125.26 855.864 1146.71 857.469 1151.21 854.259C1156.82 850.247 1156.42 849.043 1156.42 845.432C1156.42 841.821 1143.58 827.779 1145.59 815.341C1147.19 805.391 1144.92 801.833 1143.58 801.298C1139.09 800.014 1122.99 798.891 1115.5 798.49C1107.07 807.718 1088.22 806.113 1087.01 807.718Z" fill="url(#paint13_linear_40_699)"/>
<path fill-rule="evenodd" clip-rule="evenodd" d="M1115.01 854.729L1115.1 854.66C1125.26 855.863 1146.71 857.468 1151.21 854.258C1156.46 850.507 1156.45 849.211 1156.43 846.106C1156.42 845.89 1156.42 845.666 1156.42 845.432C1156.42 844.264 1155.08 842.006 1153.33 839.064C1149.67 832.907 1144.23 823.756 1145.59 815.34C1147.19 805.39 1144.92 801.833 1143.58 801.298C1141.74 800.772 1137.95 800.272 1133.6 799.839L1114.7 854.66L1115.01 854.729Z" fill="url(#paint14_linear_40_699)"/>
<path fill-rule="evenodd" clip-rule="evenodd" d="M1101.29 805.456C1106.48 804.368 1111.93 802.403 1115.5 798.49C1122.46 798.862 1136.84 799.858 1142.46 801.027C1138.61 812.557 1126.47 842.823 1114.71 854.962L1109.48 859.072C1101.64 842.399 1099.77 827.396 1098.73 819.036C1098.41 816.452 1098.16 814.503 1097.85 813.335L1101.29 805.456Z" fill="#8AA89B"/>
<path fill-rule="evenodd" clip-rule="evenodd" d="M1087.17 807.579C1091.59 811.36 1097.23 815.222 1100.65 814.539C1104.91 813.687 1126.84 805.872 1140.92 800.746C1134.55 799.7 1121.88 798.832 1115.49 798.49C1109.56 804.985 1098.47 806.113 1091.99 806.772C1089.55 807.02 1087.77 807.201 1087.17 807.579Z" fill="url(#paint15_linear_40_699)"/>
<rect x="181.002" y="288" width="1155" height="580" fill="#00C2FF" fill-opacity="0.3"/>
<path d="M182.123 437.229L1003.57 363.681L182.123 472.637L182.123 437.229Z" fill="white" fill-opacity="0.2"/>
<path d="M181.67 601.418L880.324 538.865L182.123 635.702L181.67 601.418Z" fill="white" fill-opacity="0.2"/>
<path d="M182.002 288H1336V413.433L182.002 584.021V288Z" fill="white" fill-opacity="0.16"/>
<rect x="170" y="288" width="1177" height="583" fill="url(#paint16_radial_40_699)"/>
<path fill-rule="evenodd" clip-rule="evenodd" d="M631.097 282.03L608.225 227.259L959.622 227.259L980.005 282.03L631.097 282.03Z" fill="#2E576C" fill-opacity="0.6"/>
<path fill-rule="evenodd" clip-rule="evenodd" d="M910.873 929.77L888 875L1111.13 875L1137.74 929.77L910.873 929.77Z" fill="#2E576C" fill-opacity="0.6"/>
<path d="M147.5 930H1365.5L1437 963H82L147.5 930Z" fill="#B3E3D4"/>
</g>
<defs>
<linearGradient id="paint0_linear_40_699" x1="756" y1="0" x2="756" y2="844" gradientUnits="userSpaceOnUse">
<stop stop-color="#2FE4F0"/>
<stop offset="1" stop-color="#00B7F2" stop-opacity="0.52"/>
</linearGradient>
<linearGradient id="paint1_linear_40_699" x1="1240.94" y1="342.173" x2="1240.94" y2="815.086" gradientUnits="userSpaceOnUse">
<stop stop-color="#257588"/>
<stop offset="1" stop-color="#2D6979"/>
</linearGradient>
<linearGradient id="paint2_linear_40_699" x1="270.065" y1="342.173" x2="270.065" y2="815.086" gradientUnits="userSpaceOnUse">
<stop stop-color="#257588"/>
<stop offset="1" stop-color="#2C6878"/>
</linearGradient>
<linearGradient id="paint3_linear_40_699" x1="175.776" y1="287.663" x2="175.776" y2="871.07" gradientUnits="userSpaceOnUse">
<stop stop-color="#247487"/>
<stop offset="1" stop-color="#2B6777"/>
</linearGradient>
<linearGradient id="paint4_linear_40_699" x1="1341.12" y1="287.663" x2="1341.12" y2="871.07" gradientUnits="userSpaceOnUse">
<stop stop-color="#257588"/>
<stop offset="1" stop-color="#2C6878"/>
</linearGradient>
<linearGradient id="paint5_linear_40_699" x1="536.109" y1="596.513" x2="536.109" y2="846.396" gradientUnits="userSpaceOnUse">
<stop stop-color="#D8EA68"/>
<stop offset="1" stop-color="#29801B"/>
</linearGradient>
<linearGradient id="paint6_linear_40_699" x1="517.165" y1="557.514" x2="517.165" y2="846.397" gradientUnits="userSpaceOnUse">
<stop stop-color="#D9EA68"/>
<stop offset="1" stop-color="#009F53"/>
</linearGradient>
<linearGradient id="paint7_linear_40_699" x1="480.949" y1="592.18" x2="480.949" y2="846.396" gradientUnits="userSpaceOnUse">
<stop stop-color="#A4FF5D"/>
<stop offset="1" stop-color="#B1CB67"/>
</linearGradient>
<linearGradient id="paint8_linear_40_699" x1="448.634" y1="655.734" x2="448.634" y2="846.396" gradientUnits="userSpaceOnUse">
<stop stop-color="#CDE225"/>
<stop offset="1" stop-color="#00A346"/>
</linearGradient>
<linearGradient id="paint9_linear_40_699" x1="470.277" y1="547.403" x2="470.277" y2="846.396" gradientUnits="userSpaceOnUse">
<stop stop-color="#D9EA67"/>
<stop offset="1" stop-color="#549E7A"/>
</linearGradient>
<linearGradient id="paint10_linear_40_699" x1="927.147" y1="743.924" x2="970.347" y2="861.402" gradientUnits="userSpaceOnUse">
<stop stop-color="#E8FBEF"/>
<stop offset="0.407119" stop-color="#BDD2C4"/>
</linearGradient>
<linearGradient id="paint11_linear_40_699" x1="1020.23" y1="795.279" x2="1002.17" y2="763.984" gradientUnits="userSpaceOnUse">
<stop stop-color="#8AA99B"/>
<stop offset="1" stop-color="#8AA99B" stop-opacity="0"/>
</linearGradient>
<linearGradient id="paint12_linear_40_699" x1="1033.07" y1="825.772" x2="1015.42" y2="785.249" gradientUnits="userSpaceOnUse">
<stop stop-color="#3A717D"/>
<stop offset="1" stop-color="#3A717D" stop-opacity="0"/>
</linearGradient>
<linearGradient id="paint13_linear_40_699" x1="1110.1" y1="858.672" x2="1073.99" y2="818.952" gradientUnits="userSpaceOnUse">
<stop offset="0.551034" stop-color="#8DAC9C"/>
<stop offset="1" stop-color="#C0CCC6"/>
</linearGradient>
<linearGradient id="paint14_linear_40_699" x1="1119.33" y1="826.174" x2="1152.63" y2="851.048" gradientUnits="userSpaceOnUse">
<stop offset="0.227337" stop-color="#2A545C"/>
<stop offset="1" stop-color="#3C727C" stop-opacity="0.53"/>
</linearGradient>
<linearGradient id="paint15_linear_40_699" x1="1109.7" y1="802.502" x2="1112.51" y2="809.323" gradientUnits="userSpaceOnUse">
<stop stop-color="#E0EDE4"/>
<stop offset="1" stop-color="#A9C6B1"/>
</linearGradient>
<radialGradient id="paint16_radial_40_699" cx="0" cy="0" r="1" gradientUnits="userSpaceOnUse" gradientTransform="translate(759 288) rotate(90.0491) scale(583 1177)">
<stop offset="0.165" stop-color="white" stop-opacity="0.45"/>
<stop offset="0.999155" stop-color="#D9D9D9" stop-opacity="0"/>
</radialGradient>
<clipPath id="clip0_40_699">
<rect width="1512" height="982" fill="white"/>
</clipPath>
</defs>
</svg>
